<svg xmlns="http://www.w3.org/2000/svg" xmlns:xlink="http://www.w3.org/1999/xlink" viewBox="0 0 123.37 77.76"><defs><style>.cls-1{mask:url(#mask);filter:url(#luminosity-noclip-5);}.cls-2,.cls-4,.cls-43,.cls-44,.cls-45,.cls-46,.cls-47,.cls-48,.cls-6,.cls-8{mix-blend-mode:multiply;}.cls-2{fill:url(#linear-gradient);}.cls-3{mask:url(#mask-2);filter:url(#luminosity-noclip-6);}.cls-4{fill:url(#linear-gradient-2);}.cls-5{mask:url(#mask-3);filter:url(#luminosity-noclip-7);}.cls-6{fill:url(#linear-gradient-3);}.cls-7{mask:url(#mask-4);filter:url(#luminosity-noclip-8);}.cls-8{fill:url(#linear-gradient-4);}.cls-9{isolation:isolate;}.cls-10{mask:url(#mask-5);}.cls-11{fill:url(#linear-gradient-5);}.cls-12{opacity:0.2;}.cls-13{fill:url(#linear-gradient-6);}.cls-14{fill:url(#linear-gradient-7);}.cls-15{fill:url(#linear-gradient-8);}.cls-16{fill:url(#linear-gradient-9);}.cls-17{fill:#fff;}.cls-18{fill:url(#linear-gradient-10);}.cls-19{fill:url(#linear-gradient-11);}.cls-20{fill:url(#linear-gradient-12);}.cls-21{fill:url(#linear-gradient-13);}.cls-22{fill:url(#linear-gradient-14);}.cls-23{fill:url(#linear-gradient-15);}.cls-24{fill:url(#linear-gradient-16);}.cls-25{fill:url(#linear-gradient-17);}.cls-26{fill:url(#linear-gradient-18);}.cls-27{fill:url(#linear-gradient-19);}.cls-28{fill:url(#linear-gradient-20);}.cls-29{fill:url(#linear-gradient-21);}.cls-30{fill:url(#linear-gradient-22);}.cls-31{fill:url(#linear-gradient-23);}.cls-32{fill:url(#linear-gradient-24);}.cls-33{fill:url(#linear-gradient-25);}.cls-34{fill:url(#linear-gradient-26);}.cls-35{fill:url(#linear-gradient-27);}.cls-36{fill:url(#linear-gradient-28);}.cls-37{fill:url(#linear-gradient-29);}.cls-38{fill:url(#linear-gradient-30);}.cls-39{fill:url(#linear-gradient-31);}.cls-40{fill:url(#linear-gradient-32);}.cls-41{fill:url(#linear-gradient-33);}.cls-42{fill:url(#linear-gradient-34);}.cls-43,.cls-44,.cls-45,.cls-46,.cls-47,.cls-48{opacity:0.5;}.cls-43{fill:url(#linear-gradient-35);}.cls-44{fill:url(#linear-gradient-36);}.cls-45{fill:url(#linear-gradient-37);}.cls-46{fill:url(#linear-gradient-38);}.cls-47{fill:url(#linear-gradient-39);}.cls-48{fill:url(#linear-gradient-40);}.cls-49{fill:url(#linear-gradient-41);}.cls-50{fill:url(#linear-gradient-42);}.cls-51{fill:url(#linear-gradient-43);}.cls-52{fill:url(#linear-gradient-44);}.cls-53{fill:url(#linear-gradient-45);}.cls-54{fill:url(#linear-gradient-46);}.cls-55{fill:url(#linear-gradient-47);}.cls-56{fill:url(#linear-gradient-48);}.cls-57{fill:url(#linear-gradient-49);}.cls-58{fill:url(#linear-gradient-50);}.cls-59{fill:url(#linear-gradient-51);}.cls-60{fill:url(#linear-gradient-52);}.cls-61{fill:url(#linear-gradient-53);}.cls-62{fill:url(#linear-gradient-54);}.cls-63{fill:url(#linear-gradient-55);}.cls-64{fill:url(#linear-gradient-56);}.cls-65{fill:url(#linear-gradient-57);}.cls-66{fill:url(#linear-gradient-58);}.cls-67{fill:url(#linear-gradient-59);}.cls-68{fill:url(#linear-gradient-60);}.cls-69{fill:url(#linear-gradient-61);}.cls-70{fill:url(#linear-gradient-62);}.cls-71{fill:url(#linear-gradient-63);}.cls-72{fill:url(#linear-gradient-64);}.cls-73{mask:url(#mask-6);}.cls-74{fill:url(#linear-gradient-65);}.cls-75{mask:url(#mask-7);}.cls-76{fill:url(#linear-gradient-66);}.cls-77{mask:url(#mask-8);}.cls-78{fill:url(#linear-gradient-67);}.cls-79{fill:#010101;}.cls-80{fill:#434244;}.cls-81{fill:#59bb73;}.cls-82{filter:url(#luminosity-noclip-4);}.cls-83{filter:url(#luminosity-noclip-3);}.cls-84{filter:url(#luminosity-noclip-2);}.cls-85{filter:url(#luminosity-noclip);}</style><filter id="luminosity-noclip" x="85.45" y="-8245.53" width="37.92" height="32766" filterUnits="userSpaceOnUse" color-interpolation-filters="sRGB"><feFlood flood-color="#fff" result="bg"/><feBlend in="SourceGraphic" in2="bg"/></filter><mask id="mask" x="85.45" y="-8245.53" width="37.92" height="32766" maskUnits="userSpaceOnUse"><g class="cls-85"/></mask><linearGradient id="linear-gradient" x1="123.37" y1="23.64" x2="85.45" y2="1.9" gradientUnits="userSpaceOnUse"><stop offset="0" stop-color="#fff"/><stop offset="0.1" stop-color="#ececec"/><stop offset="0.31" stop-color="#bcbcbc"/><stop offset="0.61" stop-color="#6f6f6f"/><stop offset="0.98" stop-color="#050505"/><stop offset="1"/></linearGradient><filter id="luminosity-noclip-2" x="0" y="-8245.53" width="37.92" height="32766" filterUnits="userSpaceOnUse" color-interpolation-filters="sRGB"><feFlood flood-color="#fff" result="bg"/><feBlend in="SourceGraphic" in2="bg"/></filter><mask id="mask-2" x="0" y="-8245.53" width="37.92" height="32766" maskUnits="userSpaceOnUse"><g class="cls-84"/></mask><linearGradient id="linear-gradient-2" x1="37.92" y1="32.21" x2="0" y2="10.47" xlink:href="#linear-gradient"/><filter id="luminosity-noclip-3" x="13.59" y="-8245.53" width="21.88" height="32766" filterUnits="userSpaceOnUse" color-interpolation-filters="sRGB"><feFlood flood-color="#fff" result="bg"/><feBlend in="SourceGraphic" in2="bg"/></filter><mask id="mask-3" x="13.59" y="-8245.53" width="21.88" height="32766" maskUnits="userSpaceOnUse"><g class="cls-83"/></mask><linearGradient id="linear-gradient-3" x1="354.84" y1="278.99" x2="332.99" y2="266.47" gradientTransform="translate(368.44 341.4) rotate(180)" xlink:href="#linear-gradient"/><filter id="luminosity-noclip-4" x="87.63" y="-8245.53" width="29.44" height="32766" filterUnits="userSpaceOnUse" color-interpolation-filters="sRGB"><feFlood flood-color="#fff" result="bg"/><feBlend in="SourceGraphic" in2="bg"/></filter><mask id="mask-4" x="87.63" y="-8245.53" width="29.44" height="32766" maskUnits="userSpaceOnUse"><g class="cls-82"/></mask><linearGradient id="linear-gradient-4" x1="-457.15" y1="74.77" x2="-486.57" y2="57.91" gradientTransform="matrix(-1, 0, 0, 1, -369.51, 0)" xlink:href="#linear-gradient"/><filter id="luminosity-noclip-5" x="85.45" y="1.71" width="37.92" height="22.12" filterUnits="userSpaceOnUse" color-interpolation-filters="sRGB"><feFlood flood-color="#fff" result="bg"/><feBlend in="SourceGraphic" in2="bg"/></filter><mask id="mask-5" x="85.45" y="1.71" width="37.92" height="22.12" maskUnits="userSpaceOnUse"><g class="cls-1"><path class="cls-2" d="M123.11,23.83a.26.26,0,0,1-.13,0L85.58,2.2a.26.26,0,1,1,.26-.46l37.4,21.59a.26.26,0,0,1-.13.49Z"/></g></mask><linearGradient id="linear-gradient-5" x1="123.37" y1="23.64" x2="85.45" y2="1.9" gradientUnits="userSpaceOnUse"><stop offset="0" stop-color="#4ab969"/><stop offset="1" stop-color="#4daa74"/></linearGradient><linearGradient id="linear-gradient-6" x1="477.56" y1="38.88" x2="346.25" y2="38.88" gradientTransform="matrix(-1, 0, 0, 1, 476.12, 0)" gradientUnits="userSpaceOnUse"><stop offset="0" stop-color="#fff"/><stop offset="0.13" stop-color="#fcfcfc"/><stop offset="1" stop-color="#e9e8ea"/></linearGradient><linearGradient id="linear-gradient-7" x1="427.97" y1="58.3" x2="395.04" y2="58.3" gradientTransform="matrix(-1, 0, 0, 1, 476.12, 0)" gradientUnits="userSpaceOnUse"><stop offset="0" stop-color="#d4d4dc"/><stop offset="0.63" stop-color="#adacbc"/><stop offset="1" stop-color="#9b9aad"/></linearGradient><linearGradient id="linear-gradient-8" x1="477.56" y1="34.44" x2="346.25" y2="34.44" xlink:href="#linear-gradient-6"/><linearGradient id="linear-gradient-9" x1="427.97" y1="53.86" x2="395.04" y2="53.86" xlink:href="#linear-gradient-7"/><linearGradient id="linear-gradient-10" x1="425.93" y1="45.75" x2="398.58" y2="45.75" xlink:href="#linear-gradient-7"/><linearGradient id="linear-gradient-11" x1="-901.97" y1="62.37" x2="-899.91" y2="62.37" gradientTransform="translate(982.58)" gradientUnits="userSpaceOnUse"><stop offset="0" stop-color="#74c482"/><stop offset="0.51" stop-color="#5cbe74"/><stop offset="1" stop-color="#4ab969"/></linearGradient><linearGradient id="linear-gradient-12" x1="-900.25" y1="51.65" x2="-904.99" y2="60.24" gradientTransform="translate(982.58)" gradientUnits="userSpaceOnUse"><stop offset="0" stop-color="#4daa74"/><stop offset="1" stop-color="#58bc73"/></linearGradient><linearGradient id="linear-gradient-13" x1="-899.41" y1="59.88" x2="-899.41" y2="66.57" xlink:href="#linear-gradient-11"/><linearGradient id="linear-gradient-14" x1="-908.83" y1="54.62" x2="-888.11" y2="66.61" xlink:href="#linear-gradient-11"/><linearGradient id="linear-gradient-15" x1="-896.02" y1="58.93" x2="-893.96" y2="58.93" xlink:href="#linear-gradient-11"/><linearGradient id="linear-gradient-16" x1="-894.3" y1="48.21" x2="-899.04" y2="56.79" xlink:href="#linear-gradient-12"/><linearGradient id="linear-gradient-17" x1="-893.46" y1="56.44" x2="-893.46" y2="63.12" xlink:href="#linear-gradient-11"/><linearGradient id="linear-gradient-18" x1="-902.88" y1="51.17" x2="-882.16" y2="63.17" xlink:href="#linear-gradient-11"/><linearGradient id="linear-gradient-19" x1="-890.07" y1="55.48" x2="-888.01" y2="55.48" xlink:href="#linear-gradient-11"/><linearGradient id="linear-gradient-20" x1="-888.35" y1="44.76" x2="-893.09" y2="53.35" xlink:href="#linear-gradient-12"/><linearGradient id="linear-gradient-21" x1="-887.51" y1="52.99" x2="-887.51" y2="59.67" xlink:href="#linear-gradient-11"/><linearGradient id="linear-gradient-22" x1="-896.94" y1="47.73" x2="-876.21" y2="59.72" xlink:href="#linear-gradient-11"/><linearGradient id="linear-gradient-23" x1="-884.12" y1="52.04" x2="-882.06" y2="52.04" xlink:href="#linear-gradient-11"/><linearGradient id="linear-gradient-24" x1="-882.4" y1="41.32" x2="-887.14" y2="49.9" xlink:href="#linear-gradient-12"/><linearGradient id="linear-gradient-25" x1="-881.56" y1="49.55" x2="-881.56" y2="56.23" xlink:href="#linear-gradient-11"/><linearGradient id="linear-gradient-26" x1="-890.99" y1="44.28" x2="-870.26" y2="56.28" xlink:href="#linear-gradient-11"/><linearGradient id="linear-gradient-27" x1="-878.17" y1="48.59" x2="-876.12" y2="48.59" xlink:href="#linear-gradient-11"/><linearGradient id="linear-gradient-28" x1="-876.45" y1="37.87" x2="-881.19" y2="46.46" xlink:href="#linear-gradient-12"/><linearGradient id="linear-gradient-29" x1="-875.61" y1="46.1" x2="-875.61" y2="52.78" xlink:href="#linear-gradient-11"/><linearGradient id="linear-gradient-30" x1="-885.04" y1="40.84" x2="-864.31" y2="52.83" xlink:href="#linear-gradient-11"/><linearGradient id="linear-gradient-31" x1="-872.22" y1="45.15" x2="-870.17" y2="45.15" xlink:href="#linear-gradient-11"/><linearGradient id="linear-gradient-32" x1="-870.5" y1="34.43" x2="-875.24" y2="43.01" xlink:href="#linear-gradient-12"/><linearGradient id="linear-gradient-33" x1="-869.66" y1="42.66" x2="-869.66" y2="49.34" xlink:href="#linear-gradient-11"/><linearGradient id="linear-gradient-34" x1="-879.09" y1="37.39" x2="-858.36" y2="49.39" xlink:href="#linear-gradient-11"/><linearGradient id="linear-gradient-35" x1="432.19" y1="60.2" x2="436.17" y2="53.37" xlink:href="#linear-gradient-7"/><linearGradient id="linear-gradient-36" x1="438.14" y1="56.76" x2="442.11" y2="49.92" xlink:href="#linear-gradient-7"/><linearGradient id="linear-gradient-37" x1="444.09" y1="53.31" x2="448.06" y2="46.48" xlink:href="#linear-gradient-7"/><linearGradient id="linear-gradient-38" x1="450.04" y1="49.87" x2="454.01" y2="43.03" xlink:href="#linear-gradient-7"/><linearGradient id="linear-gradient-39" x1="455.99" y1="46.42" x2="459.96" y2="39.59" xlink:href="#linear-gradient-7"/><linearGradient id="linear-gradient-40" x1="461.94" y1="42.98" x2="465.91" y2="36.14" xlink:href="#linear-gradient-7"/><linearGradient id="linear-gradient-41" x1="436.17" y1="62.37" x2="438.23" y2="62.37" gradientTransform="matrix(-1, 0, 0, 1, 476.12, 0)" xlink:href="#linear-gradient-11"/><linearGradient id="linear-gradient-42" x1="437.89" y1="51.65" x2="433.15" y2="60.24" gradientTransform="matrix(-1, 0, 0, 1, 476.12, 0)" xlink:href="#linear-gradient-12"/><linearGradient id="linear-gradient-43" x1="438.73" y1="59.88" x2="438.73" y2="66.57" gradientTransform="matrix(-1, 0, 0, 1, 476.12, 0)" xlink:href="#linear-gradient-11"/><linearGradient id="linear-gradient-44" x1="429.31" y1="54.62" x2="450.03" y2="66.61" gradientTransform="matrix(-1, 0, 0, 1, 476.12, 0)" xlink:href="#linear-gradient-11"/><linearGradient id="linear-gradient-45" x1="442.12" y1="58.93" x2="444.18" y2="58.93" gradientTransform="matrix(-1, 0, 0, 1, 476.12, 0)" xlink:href="#linear-gradient-11"/><linearGradient id="linear-gradient-46" x1="443.84" y1="48.21" x2="439.1" y2="56.79" gradientTransform="matrix(-1, 0, 0, 1, 476.12, 0)" xlink:href="#linear-gradient-12"/><linearGradient id="linear-gradient-47" x1="444.68" y1="56.44" x2="444.68" y2="63.12" gradientTransform="matrix(-1, 0, 0, 1, 476.12, 0)" xlink:href="#linear-gradient-11"/><linearGradient id="linear-gradient-48" x1="435.25" y1="51.17" x2="455.98" y2="63.17" gradientTransform="matrix(-1, 0, 0, 1, 476.12, 0)" xlink:href="#linear-gradient-11"/><linearGradient id="linear-gradient-49" x1="448.07" y1="55.48" x2="450.13" y2="55.48" gradientTransform="matrix(-1, 0, 0, 1, 476.12, 0)" xlink:href="#linear-gradient-11"/><linearGradient id="linear-gradient-50" x1="449.79" y1="44.76" x2="445.05" y2="53.35" gradientTransform="matrix(-1, 0, 0, 1, 476.12, 0)" xlink:href="#linear-gradient-12"/><linearGradient id="linear-gradient-51" x1="450.63" y1="52.99" x2="450.63" y2="59.67" gradientTransform="matrix(-1, 0, 0, 1, 476.12, 0)" xlink:href="#linear-gradient-11"/><linearGradient id="linear-gradient-52" x1="441.2" y1="47.73" x2="461.93" y2="59.72" gradientTransform="matrix(-1, 0, 0, 1, 476.12, 0)" xlink:href="#linear-gradient-11"/><linearGradient id="linear-gradient-53" x1="454.02" y1="52.04" x2="456.07" y2="52.04" gradientTransform="matrix(-1, 0, 0, 1, 476.12, 0)" xlink:href="#linear-gradient-11"/><linearGradient id="linear-gradient-54" x1="455.74" y1="41.32" x2="451" y2="49.9" gradientTransform="matrix(-1, 0, 0, 1, 476.12, 0)" xlink:href="#linear-gradient-12"/><linearGradient id="linear-gradient-55" x1="456.58" y1="49.55" x2="456.58" y2="56.23" gradientTransform="matrix(-1, 0, 0, 1, 476.12, 0)" xlink:href="#linear-gradient-11"/><linearGradient id="linear-gradient-56" x1="447.15" y1="44.28" x2="467.88" y2="56.28" gradientTransform="matrix(-1, 0, 0, 1, 476.12, 0)" xlink:href="#linear-gradient-11"/><linearGradient id="linear-gradient-57" x1="459.97" y1="48.59" x2="462.02" y2="48.59" gradientTransform="matrix(-1, 0, 0, 1, 476.12, 0)" xlink:href="#linear-gradient-11"/><linearGradient id="linear-gradient-58" x1="461.69" y1="37.87" x2="456.95" y2="46.46" gradientTransform="matrix(-1, 0, 0, 1, 476.12, 0)" xlink:href="#linear-gradient-12"/><linearGradient id="linear-gradient-59" x1="462.53" y1="46.1" x2="462.53" y2="52.78" gradientTransform="matrix(-1, 0, 0, 1, 476.12, 0)" xlink:href="#linear-gradient-11"/><linearGradient id="linear-gradient-60" x1="453.1" y1="40.84" x2="473.83" y2="52.83" gradientTransform="matrix(-1, 0, 0, 1, 476.12, 0)" xlink:href="#linear-gradient-11"/><linearGradient id="linear-gradient-61" x1="465.92" y1="45.15" x2="467.97" y2="45.15" gradientTransform="matrix(-1, 0, 0, 1, 476.12, 0)" xlink:href="#linear-gradient-11"/><linearGradient id="linear-gradient-62" x1="467.63" y1="34.43" x2="462.9" y2="43.01" gradientTransform="matrix(-1, 0, 0, 1, 476.12, 0)" xlink:href="#linear-gradient-12"/><linearGradient id="linear-gradient-63" x1="468.48" y1="42.66" x2="468.48" y2="49.34" gradientTransform="matrix(-1, 0, 0, 1, 476.12, 0)" xlink:href="#linear-gradient-11"/><linearGradient id="linear-gradient-64" x1="459.05" y1="37.39" x2="479.78" y2="49.39" gradientTransform="matrix(-1, 0, 0, 1, 476.12, 0)" xlink:href="#linear-gradient-11"/><filter id="luminosity-noclip-6" x="0" y="10.28" width="37.92" height="22.12" filterUnits="userSpaceOnUse" color-interpolation-filters="sRGB"><feFlood flood-color="#fff" result="bg"/><feBlend in="SourceGraphic" in2="bg"/></filter><mask id="mask-6" x="0" y="10.28" width="37.92" height="22.12" maskUnits="userSpaceOnUse"><g class="cls-3"><path class="cls-4" d="M37.66,32.4a.26.26,0,0,1-.13,0L.13,10.77a.26.26,0,0,1,.26-.46l37.4,21.59a.26.26,0,0,1-.13.49Z"/></g></mask><linearGradient id="linear-gradient-65" x1="37.92" y1="32.21" x2="0" y2="10.47" xlink:href="#linear-gradient-5"/><filter id="luminosity-noclip-7" x="13.59" y="62.24" width="21.88" height="12.85" filterUnits="userSpaceOnUse" color-interpolation-filters="sRGB"><feFlood flood-color="#fff" result="bg"/><feBlend in="SourceGraphic" in2="bg"/></filter><mask id="mask-7" x="13.59" y="62.24" width="21.88" height="12.85" maskUnits="userSpaceOnUse"><g class="cls-5"><path class="cls-6" d="M35.2,75.1a.27.27,0,0,1-.13,0L13.72,62.74a.26.26,0,0,1,.26-.46L35.33,74.6a.26.26,0,0,1-.13.49Z"/></g></mask><linearGradient id="linear-gradient-66" x1="354.84" y1="278.99" x2="332.99" y2="266.47" gradientTransform="translate(368.44 341.4) rotate(180)" xlink:href="#linear-gradient-5"/><filter id="luminosity-noclip-8" x="87.63" y="57.73" width="29.44" height="17.22" filterUnits="userSpaceOnUse" color-interpolation-filters="sRGB"><feFlood flood-color="#fff" result="bg"/><feBlend in="SourceGraphic" in2="bg"/></filter><mask id="mask-8" x="87.63" y="57.73" width="29.44" height="17.22" maskUnits="userSpaceOnUse"><g class="cls-7"><path class="cls-8" d="M87.9,74.95a.26.26,0,0,1-.13-.49l28.91-16.69a.26.26,0,0,1,.26.46L88,74.91A.27.27,0,0,1,87.9,74.95Z"/></g></mask><linearGradient id="linear-gradient-67" x1="-457.15" y1="74.77" x2="-486.57" y2="57.91" gradientTransform="matrix(-1, 0, 0, 1, -369.51, 0)" xlink:href="#linear-gradient-5"/></defs><title>04 - header_v4</title><g class="cls-9"><g id="Layer_2" data-name="Layer 2"><g id="Layer_2-2" data-name="Layer 2"><g class="cls-10"><path class="cls-11" d="M123.11,23.83a.26.26,0,0,1-.13,0L85.58,2.2a.26.26,0,1,1,.26-.46l37.4,21.59a.26.26,0,0,1-.13.49Z"/></g><g class="cls-12"><path class="cls-13" d="M4.9,33.11,50.42,6.83c5.52-3.19,14.43-3.19,19.92,0l45.22,26.28c5.48,3.19,5.45,8.35-.06,11.54L70,70.93c-5.52,3.19-14.44,3.19-19.92,0L4.84,44.65C-.65,41.46-.62,36.3,4.9,33.11Z"/><path class="cls-14" d="M.75,39.17c0,.07,0,.14,0,.21s0,.12,0,.19,0,.14,0,.21l0,.19,0,.21.05.19.07.2.07.18L1.2,41l.08.18.11.21.09.17.15.25.1.15.2.27L2,42.3c.11.14.24.29.37.43l.1.11.32.32L3,43.3l.2.18.19.16.22.17.21.16.24.17.22.15.26.16.33.2L50.06,70.93c.31.18.62.34,1,.5l.26.12c.29.14.59.27.9.39l.12,0c.33.13.67.24,1,.35l.72.21.55.15.78.17.57.12.24,0,1,.14.28,0,1.14.1h.21l.77,0h.77l.65,0,.71,0,.65-.05.7-.08.63-.09.75-.13.77-.16.18,0c.36-.09.71-.18,1.06-.28l.3-.09.86-.29.24-.09.75-.32.36-.16c.36-.17.7-.35,1-.54l45.52-26.28c2.78-1.6,4.16-3.71,4.16-5.81l0,4.45c0,2.1-1.38,4.21-4.16,5.81L70,75.38c-.33.19-.68.37-1,.54l-.36.16-.63.28-.11,0-.25.09-.86.29-.3.09-.2.06-.86.22-.18,0-.42.1-.35.06-.75.13-.3.05-.33,0-.7.08-.34,0-.32,0-.71,0-.36,0H59.19l-.39,0h-.21l-1-.07-.18,0-.29,0-1-.14-.24,0-.11,0-.45-.1-.78-.17L54,77l-.73-.21-.16,0-.86-.3-.12,0c-.31-.12-.61-.25-.9-.38L51,75.88c-.33-.16-.64-.32-1-.5L4.86,49.1,4.69,49l-.15-.1-.26-.16-.22-.15-.24-.17-.21-.16-.22-.17-.19-.16L3,47.75l-.08-.07-.07-.07-.32-.32-.1-.11Q2.22,47,2,46.76l0,0L2,46.64l-.2-.27-.1-.15L1.5,46l0-.07-.05-.1-.11-.21-.08-.18-.09-.21,0-.1,0-.09L1,44.81l-.05-.19,0-.2,0-.11v-.08c0-.07,0-.14,0-.21s0-.12,0-.18,0-.14,0-.21,0-.08,0-.12,0-.08,0-.12l0-4.45C.74,39,.75,39.08.75,39.17Z"/></g><path class="cls-15" d="M4.9,28.67,50.42,2.39C55.94-.8,64.85-.8,70.34,2.39l45.22,26.28C121,31.85,121,37,115.49,40.21L70,66.49c-5.52,3.19-14.44,3.19-19.92,0L4.84,40.21C-.65,37-.62,31.85,4.9,28.67Z"/><path class="cls-16" d="M.75,34.73c0,.07,0,.14,0,.21s0,.12,0,.18,0,.14,0,.21l0,.19,0,.21.05.19.07.2.07.18.09.21.08.18.11.21.09.17.15.25.1.15.2.27.09.12c.11.14.24.29.37.43l.1.11.32.32.15.14.2.18.19.16.22.17.21.16.24.17.22.15.26.16.33.2L50.06,66.49c.31.18.62.34,1,.5l.26.12c.29.14.59.27.9.39l.12,0c.33.13.67.24,1,.35l.72.21.55.15.78.17.57.12.24,0,1,.14.28,0,1.14.1h.21l.77,0h.77l.65,0,.71,0,.65-.05.7-.08.63-.09.75-.13.77-.16.18,0c.36-.09.71-.18,1.06-.28l.3-.09.86-.29.24-.09.75-.32.36-.16c.36-.17.7-.35,1-.54l45.52-26.28c2.78-1.6,4.16-3.71,4.16-5.81l0,4.45c0,2.1-1.38,4.21-4.16,5.81L70,70.94c-.33.19-.68.37-1,.54l-.36.16-.63.28-.11,0-.25.09-.86.29-.3.09-.2.06-.86.22-.18,0-.42.1-.35.06-.75.13-.3.05-.33,0-.7.08-.34,0-.32,0-.71,0-.36,0H59.19l-.39,0h-.21l-1-.07-.18,0-.29,0-1-.14-.24,0-.11,0-.45-.1-.78-.17L54,72.55l-.73-.21-.16,0-.86-.3-.12,0c-.31-.12-.61-.25-.9-.38L51,71.44c-.33-.16-.64-.32-1-.5L4.86,44.66l-.17-.1-.15-.1-.26-.16-.22-.15L3.81,44l-.21-.16-.22-.17-.19-.16L3,43.31l-.08-.07-.07-.07-.32-.32-.1-.11q-.19-.21-.37-.43l0,0L2,42.19l-.2-.27-.1-.15-.15-.25,0-.07-.05-.1-.11-.21L1.22,41l-.09-.21,0-.1,0-.09L1,40.36l-.05-.19,0-.2,0-.11v-.08c0-.07,0-.14,0-.21s0-.12,0-.19,0-.14,0-.21,0-.08,0-.12,0-.08,0-.12l0-4.45C.74,34.56.75,34.64.75,34.73Z"/><path class="cls-17" d="M106.12,34.41,68.32,56.23c-4.58,2.65-12,2.65-16.54,0L14.22,34.41c-4.55-2.65-4.53-6.94.05-9.58L52.08,3C56.66.35,64.06.35,68.62,3l5.63,3.27,7.26,4.22.63.37,7.32,4.25L101,21.8l5.21,3a8.58,8.58,0,0,1,2.08,1.64C110.56,29,109.85,32.26,106.12,34.41Z"/><path class="cls-18" d="M10.83,29.85c0,.06,0,.12,0,.18s0,.1,0,.15l0,.18,0,.15,0,.17,0,.15.06.17.06.15.07.18.07.15.09.18.08.14.13.21.08.13.16.23.07.1.3.35.09.09.26.26.13.12.17.15.16.13.18.14.17.13.2.14.19.13.21.13.27.17L51.78,56.23c.25.15.52.28.79.41l.21.1.75.32.1,0c.27.1.56.2.84.29l.6.17.46.12.65.14.47.1.2,0,.81.11.24,0,1,.08H59l.64,0h1.18l.59,0,.54,0,.58-.07.52-.07.62-.11.64-.13.15,0,.88-.24.25-.08.71-.24.2-.07.62-.26.3-.13c.29-.14.58-.29.86-.45l37.8-21.83c2.31-1.33,3.46-3.08,3.45-4.82l0,3.7c0,1.75-1.15,3.49-3.45,4.82L68.34,59.93c-.28.16-.56.31-.86.45l-.3.13-.53.23-.09,0-.2.07-.71.24-.25.08-.17.05-.72.19-.15,0-.35.08-.29.05-.62.11-.25,0-.27,0-.58.07-.28,0h-.26l-.59,0-.3,0h-1.2l-.32,0h-.18l-.8-.06-.15,0-.24,0-.81-.11-.2,0-.1,0-.38-.08-.65-.14-.46-.12-.6-.17-.13,0-.71-.25-.1,0-.75-.32-.21-.1c-.27-.13-.54-.27-.79-.41L14.24,38.1,14.09,38,14,37.94l-.21-.13-.19-.13-.2-.14-.17-.13L13,37.26l-.16-.13L12.68,37l-.07-.06-.06-.06-.27-.26-.09-.09-.3-.35v0l-.06-.08-.16-.23-.08-.13-.13-.21,0-.06,0-.08-.09-.18L11.21,35l-.07-.18,0-.08,0-.07L11,34.54l0-.15,0-.17,0-.09v-.06c0-.06,0-.12,0-.18s0-.1,0-.15,0-.12,0-.18,0-.07,0-.1,0-.07,0-.1l0-3.7C10.82,29.72,10.82,29.79,10.83,29.85Z"/><g class="cls-9"><polygon class="cls-19" points="80.61 62.45 81.76 61.78 82.67 62.3 81.52 62.97 80.61 62.45"/><polygon class="cls-20" points="73.02 54.88 73.02 56.12 81.53 61.01 81.52 62.97 80.61 62.45 80.61 63.68 82.6 64.83 82.6 60.39 73.02 54.88"/><polygon class="cls-21" points="82.6 60.39 82.6 64.83 83.75 64.16 83.75 59.72 82.6 60.39"/><polygon class="cls-22" points="74.17 54.22 73.02 54.88 82.6 60.39 83.75 59.72 74.17 54.22"/></g><g class="cls-9"><polygon class="cls-23" points="86.56 59 87.71 58.33 88.62 58.86 87.47 59.52 86.56 59"/><polygon class="cls-24" points="78.97 51.44 78.96 52.67 87.48 57.56 87.47 59.52 86.56 59 86.56 60.23 88.55 61.38 88.55 56.95 78.97 51.44"/><polygon class="cls-25" points="88.55 56.95 88.55 61.38 89.7 60.71 89.7 56.28 88.55 56.95"/><polygon class="cls-26" points="80.12 50.77 78.97 51.44 88.55 56.95 89.7 56.28 80.12 50.77"/></g><g class="cls-9"><polygon class="cls-27" points="92.51 55.56 93.66 54.89 94.57 55.41 93.42 56.08 92.51 55.56"/><polygon class="cls-28" points="84.92 47.99 84.91 49.23 93.43 54.11 93.42 56.08 92.51 55.56 92.51 56.79 94.5 57.93 94.5 53.5 84.92 47.99"/><polygon class="cls-29" points="94.5 53.5 94.5 57.93 95.65 57.27 95.65 52.83 94.5 53.5"/><polygon class="cls-30" points="86.06 47.33 84.92 47.99 94.5 53.5 95.65 52.83 86.06 47.33"/></g><g class="cls-9"><polygon class="cls-31" points="98.46 52.11 99.61 51.44 100.52 51.97 99.37 52.63 98.46 52.11"/><polygon class="cls-32" points="90.86 44.55 90.86 45.78 99.38 50.67 99.37 52.63 98.46 52.11 98.46 53.34 100.45 54.49 100.45 50.05 90.86 44.55"/><polygon class="cls-33" points="100.45 50.05 100.45 54.49 101.6 53.82 101.6 49.39 100.45 50.05"/><polygon class="cls-34" points="92.01 43.88 90.86 44.55 100.45 50.05 101.6 49.39 92.01 43.88"/></g><g class="cls-9"><polygon class="cls-35" points="104.41 48.66 105.56 48 106.47 48.52 105.32 49.19 104.41 48.66"/><polygon class="cls-36" points="96.81 41.1 96.81 42.34 105.32 47.22 105.32 49.19 104.41 48.66 104.41 49.9 106.4 51.04 106.4 46.61 96.81 41.1"/><polygon class="cls-37" points="106.4 46.61 106.4 51.04 107.55 50.38 107.55 45.94 106.4 46.61"/><polygon class="cls-38" points="97.96 40.43 96.81 41.1 106.4 46.61 107.55 45.94 97.96 40.43"/></g><g class="cls-9"><polygon class="cls-39" points="110.36 45.22 111.51 44.55 112.42 45.08 111.27 45.74 110.36 45.22"/><polygon class="cls-40" points="102.76 37.66 102.76 38.89 111.27 43.78 111.27 45.74 110.36 45.22 110.36 46.45 112.35 47.6 112.35 43.16 102.76 37.66"/><polygon class="cls-41" points="112.35 43.16 112.35 47.6 113.5 46.93 113.5 42.5 112.35 43.16"/><polygon class="cls-42" points="103.91 36.99 102.76 37.66 112.35 43.16 113.5 42.5 103.91 36.99"/></g><polygon class="cls-43" points="39.95 63.68 41.6 61.57 48.16 57.82 47.55 56.12 46.52 56.71 46.56 56.89 39.95 60.61 39.04 61.7 39.04 61.92 39.95 62.45 39.95 63.68"/><polygon class="cls-44" points="34.01 60.23 35.65 58.13 42.21 54.37 41.6 52.67 40.57 53.27 40.61 53.44 34.01 57.17 33.09 58.26 33.09 58.47 34 59 34.01 60.23"/><polygon class="cls-45" points="28.06 56.79 29.7 54.68 36.26 50.93 35.65 49.23 34.62 49.82 34.66 50 28.06 53.72 27.14 54.81 27.14 55.03 28.05 55.56 28.06 56.79"/><polygon class="cls-46" points="22.11 53.34 23.75 51.23 30.31 47.48 29.7 45.78 28.67 46.38 28.71 46.55 22.11 50.28 21.19 51.37 21.19 51.58 22.1 52.11 22.11 53.34"/><polygon class="cls-47" points="16.16 49.9 17.81 47.79 24.36 44.04 23.75 42.34 22.72 42.93 22.76 43.1 16.16 46.83 15.24 47.92 15.24 48.14 16.16 48.66 16.16 49.9"/><polygon class="cls-48" points="10.21 46.45 11.86 44.34 18.42 40.59 17.81 38.89 16.77 39.48 16.82 39.66 10.21 43.39 9.29 44.48 9.29 44.69 10.21 45.22 10.21 46.45"/><g class="cls-9"><polygon class="cls-49" points="39.95 62.45 38.8 61.78 37.89 62.3 39.04 62.97 39.95 62.45"/><polygon class="cls-50" points="47.55 54.88 47.55 56.12 39.04 61.01 39.04 62.97 39.95 62.45 39.95 63.68 37.97 64.83 37.97 60.39 47.55 54.88"/><polygon class="cls-51" points="37.97 60.39 37.97 64.83 36.81 64.16 36.81 59.72 37.97 60.39"/><polygon class="cls-52" points="46.4 54.22 47.55 54.88 37.97 60.39 36.81 59.72 46.4 54.22"/></g><g class="cls-9"><polygon class="cls-53" points="34 59 32.85 58.33 31.94 58.86 33.09 59.52 34 59"/><polygon class="cls-54" points="41.6 51.44 41.6 52.67 33.09 57.56 33.09 59.52 34 59 34.01 60.23 32.02 61.38 32.02 56.95 41.6 51.44"/><polygon class="cls-55" points="32.02 56.95 32.02 61.38 30.86 60.71 30.86 56.28 32.02 56.95"/><polygon class="cls-56" points="40.45 50.77 41.6 51.44 32.02 56.95 30.86 56.28 40.45 50.77"/></g><g class="cls-9"><polygon class="cls-57" points="28.05 55.56 26.9 54.89 26 55.41 27.14 56.08 28.05 55.56"/><polygon class="cls-58" points="35.65 47.99 35.65 49.23 27.14 54.11 27.14 56.08 28.05 55.56 28.06 56.79 26.07 57.93 26.07 53.5 35.65 47.99"/><polygon class="cls-59" points="26.07 53.5 26.07 57.93 24.91 57.27 24.91 52.83 26.07 53.5"/><polygon class="cls-60" points="34.5 47.33 35.65 47.99 26.07 53.5 24.91 52.83 34.5 47.33"/></g><g class="cls-9"><polygon class="cls-61" points="22.1 52.11 20.95 51.44 20.05 51.97 21.2 52.63 22.1 52.11"/><polygon class="cls-62" points="29.7 44.55 29.7 45.78 21.19 50.67 21.2 52.63 22.1 52.11 22.11 53.34 20.12 54.49 20.12 50.05 29.7 44.55"/><polygon class="cls-63" points="20.12 50.05 20.12 54.49 18.96 53.82 18.96 49.39 20.12 50.05"/><polygon class="cls-64" points="28.55 43.88 29.7 44.55 20.12 50.05 18.96 49.39 28.55 43.88"/></g><g class="cls-9"><polygon class="cls-65" points="16.15 48.66 15.01 48 14.1 48.52 15.25 49.19 16.15 48.66"/><polygon class="cls-66" points="23.75 41.1 23.75 42.34 15.24 47.22 15.25 49.19 16.15 48.66 16.16 49.9 14.17 51.04 14.17 46.61 23.75 41.1"/><polygon class="cls-67" points="14.17 46.61 14.17 51.04 13.02 50.38 13.02 45.94 14.17 46.61"/><polygon class="cls-68" points="22.6 40.43 23.75 41.1 14.17 46.61 13.02 45.94 22.6 40.43"/></g><g class="cls-9"><polygon class="cls-69" points="10.21 45.22 9.06 44.55 8.15 45.08 9.3 45.74 10.21 45.22"/><polygon class="cls-70" points="17.8 37.66 17.81 38.89 9.29 43.78 9.3 45.74 10.21 45.22 10.21 46.45 8.22 47.6 8.22 43.16 17.8 37.66"/><polygon class="cls-71" points="8.22 43.16 8.22 47.6 7.07 46.93 7.07 42.5 8.22 43.16"/><polygon class="cls-72" points="16.65 36.99 17.8 37.66 8.22 43.16 7.07 42.5 16.65 36.99"/></g><g class="cls-73"><path class="cls-74" d="M37.66,32.4a.26.26,0,0,1-.13,0L.13,10.77a.26.26,0,0,1,.26-.46l37.4,21.59a.26.26,0,0,1-.13.49Z"/></g><g class="cls-75"><path class="cls-76" d="M35.2,75.1a.27.27,0,0,1-.13,0L13.72,62.74a.26.26,0,0,1,.26-.46L35.33,74.6a.26.26,0,0,1-.13.49Z"/></g><g class="cls-77"><path class="cls-78" d="M87.9,74.95a.26.26,0,0,1-.13-.49l28.91-16.69a.26.26,0,0,1,.26.46L88,74.91A.27.27,0,0,1,87.9,74.95Z"/></g><path class="cls-79" d="M47.39,13.14c3.84-2.22,7.84-2.13,10.2-.77,1.94,1.12,2.34,2.65.38,4.1h-.3l-.55-.32,0-.17c1.32-1.08,1.31-2.2-.35-3.16-2.08-1.2-5.36-1.06-8.56.78s-3.44,3.74-1.36,4.95a6.13,6.13,0,0,0,5.63.11h.3l.55.32,0,.17A7.86,7.86,0,0,1,46.06,19C43.71,17.67,43.55,15.36,47.39,13.14Z"/><path class="cls-79" d="M54.93,19.34c2.72-1.57,5.55-1.6,7.35-.56s1.75,2.67-1,4.24-5.55,1.6-7.35.56S52.21,20.91,54.93,19.34Zm.83.48c-2.08,1.2-2.39,2.5-1,3.3s3.64.62,5.72-.58,2.39-2.5,1-3.3S57.84,18.62,55.76,19.82Z"/><path class="cls-79" d="M70,23.43l0,.17-.48.28h-.3l-.69-.4c-1.39-.8-3.06-.47-4.66.45l-4.32,2.49h-.3l-.55-.32,0-.17,7.68-4.43h.3l.42.24,0,.17-.82.63.14.08a4.37,4.37,0,0,1,3.06.47Z"/><path class="cls-79" d="M67.08,26.73h-.3c-1,.55-2.33,2-.52,3a4.22,4.22,0,0,0,3.54.2h.3l.55.32,0,.17a5.93,5.93,0,0,1-5.17-.21c-2.22-1.28-1.27-2.95,1-4.24l.32-.19c2.24-1.29,4.95-1.58,6.89-.46s1.45,2.69-.79,4l-.48.28h-.3Zm5.26,1.93c1.12-.65,2.17-1.89.5-2.85a5.27,5.27,0,0,0-4.94.29l0,.17L72,28.67Z"/><path class="cls-79" d="M35.44,27.72l-6-3.44,0-.17,10.88-6.28h.3l6,3.44,0,.17-.48.28h-.3l-5.13-3h-.3l-4,2.31,0,.17,4.85,2.8,0,.17-.48.28h-.3l-4.85-2.8h-.3l-4.16,2.4,0,.17,5.13,3,0,.17-.48.28Z"/><path class="cls-79" d="M42.64,31.88l-.55-.32,0-.17,4.8-2.77c1.6-.92,1.71-1.79.6-2.43a5,5,0,0,0-5.1.38l-4.32,2.5h-.3l-.55-.32,0-.17,7.68-4.43h.3l.42.24,0,.17-.82.63.14.08a5.29,5.29,0,0,1,3.5.54c1.53.88,1.38,2.09-.7,3.29l-4.8,2.77Z"/><path class="cls-79" d="M50.14,34.91a4.93,4.93,0,0,1-3.5-.54c-1.94-1.12-1.15-2.7,1.25-4.08S53,28.45,55,29.57c1.25.72,1.3,1.49.94,2l.14.08,1.1-.47h.3l.42.24,0,.17-6.72,3.88c-3.2,1.85-5.59,1.95-7.39.91s-1.53-2-.39-2.81h.3l.55.32,0,.17c-.66.54-.89,1.15.36,1.87,1.66,1,3.68.28,5.76-.92Zm3-1.58c2.24-1.29,2.53-2.42,1.14-3.22s-3.34-.63-5.58.66S46.19,33.19,47.58,34,50.92,34.62,53.16,33.33Z"/><path class="cls-79" d="M52.34,37.48l-.55-.32,0-.17,7.68-4.43h.3l.55.32,0,.17-7.68,4.43Zm9.28-5.36-.55-.32,0-.17,1-.55h.3l.55.32,0,.17-1,.55Z"/><path class="cls-79" d="M59.69,41.72l-.55-.32,0-.17L64,38.46c1.6-.92,1.71-1.79.6-2.43a5,5,0,0,0-5.1.38l-4.32,2.5h-.3l-.55-.32,0-.17L62,34h.3l.42.24,0,.17-.82.63.14.08a5.3,5.3,0,0,1,3.5.54c1.52.88,1.38,2.09-.71,3.29L60,41.71Z"/><path class="cls-79" d="M65.58,40.87h-.3c-1,.55-2.33,2-.52,3a4.22,4.22,0,0,0,3.54.2h.3l.55.32,0,.17A5.94,5.94,0,0,1,64,44.37c-2.22-1.28-1.27-2.95,1-4.24l.32-.18c2.24-1.29,4.95-1.58,6.89-.46s1.45,2.68-.79,4l-.48.28h-.3Zm5.26,1.93c1.12-.65,2.17-1.89.5-2.85a5.27,5.27,0,0,0-4.94.29l0,.17,4.16,2.4Z"/><polygon class="cls-80" points="101.43 25.5 101.33 25.51 98.84 26.95 98.83 27 99.19 27.21 99.28 27.2 101.78 25.76 101.78 25.71 101.43 25.5"/><path class="cls-80" d="M103.34,26.55a2.44,2.44,0,0,0-2.41.17c-.83.48-1,1-.29,1.39a2.44,2.44,0,0,0,2.41-.17C103.88,27.46,104,26.93,103.34,26.55Zm-2.23,1.29c-.4-.23-.31-.54.26-.87a1.49,1.49,0,0,1,1.5-.15c.4.23.31.54-.26.87A1.49,1.49,0,0,1,101.11,27.84Z"/><path class="cls-80" d="M104.85,28l.49.28h.1l.36-.21V28l-1.33-.77h-.1l-.36.21v.06l.31.18v.06l-1.4.81c-.47.27-.37.57-.06.75l.35.2h.1l.36-.21v-.06l-.35-.2c-.09-.05-.12-.13,0-.22l1.4-.81Z"/><polygon class="cls-80" points="100.42 24.92 100.33 24.93 97.83 26.37 97.83 26.42 98.18 26.63 98.28 26.62 100.77 25.18 100.78 25.13 100.42 24.92"/><path class="cls-80" d="M99.86,24.59a2.35,2.35,0,0,0-2.32.16c-.8.46-.92,1-.28,1.34l.28.16h.09L98,26v0l-.28-.17c-.38-.22-.3-.52.25-.83a1.44,1.44,0,0,1,1.44-.15l.28.16h.09l.35-.2v-.05Z"/><path class="cls-80" d="M97.78,23.34a1.66,1.66,0,0,0-1-.17l0,0c.07-.14.14-.34-.21-.54l-.21-.12h-.1l-.36.21v.06l.15.09c.24.18,0,.35-.25.51l-1.56.9v.06l.35.2h.1l1.45-.84a1.18,1.18,0,0,1,1.16-.11c.35.2.14.38-.17.56L95.5,25v.06l.35.2h.1l1.56-.9C98.07,24,98.4,23.7,97.78,23.34Z"/><polygon class="cls-80" points="95.61 22.14 95.52 22.15 93.02 23.59 93.02 23.64 93.37 23.85 93.47 23.84 95.96 22.41 95.97 22.35 95.61 22.14"/><polygon class="cls-81" points="93.86 26.02 93.78 26.02 91.85 27.14 91.85 27.19 92.19 27.38 92.27 27.39 94.21 26.27 94.2 26.22 93.86 26.02"/><polygon class="cls-81" points="91.04 24.79 90.95 24.79 89.71 25.51 89.72 25.56 90.06 25.75 90.14 25.75 91.38 25.04 91.38 24.99 91.04 24.79"/><polygon class="cls-81" points="96.75 28.21 96.67 28.21 95.64 28.8 95.64 28.85 95.98 29.05 96.06 29.05 97.09 28.46 97.09 28.41 96.75 28.21"/><polygon class="cls-81" points="96.42 27.24 96.33 27.24 93.96 28.61 93.95 28.66 94.29 28.86 94.39 28.86 96.76 27.49 96.77 27.44 96.42 27.24"/><polygon class="cls-81" points="100.45 30.07 100.38 30.06 98.84 30.95 98.85 30.99 99.2 31.19 99.27 31.2 100.81 30.31 100.8 30.27 100.45 30.07"/><polygon class="cls-81" points="92.76 25.12 92.67 25.13 90.3 26.5 90.29 26.55 90.63 26.75 90.72 26.75 93.1 25.38 93.1 25.32 92.76 25.12"/></g></g></g></svg>