<svg xmlns="http://www.w3.org/2000/svg" viewBox="0 0 306.58 296.61"><defs><style>.cls-1{fill:#010101;}</style></defs><title>free</title><g id="Layer_2" data-name="Layer 2"><g id="Layer_2-2" data-name="Layer 2"><path class="cls-1" d="M205.08,123.33l-97.17,56.1V284.27l43.24-25h0l49.67-28.68h0L250.48,202h0L298,174.51V69.69l-92.9,53.64ZM103.62,67.2,56.09,94.64h0l-43.26,25-8.55-4.93L51.81,87.25h0l43.25-25h0m8.55-4.94L151.14,29.9h0L200.83,1.23,203,0l2.13,1.23L254.75,29.9h0l47.52,27.44,4.29,2.48V179.44l-2.14,1.24-49.67,28.68h0L205.09,238h0l-49.67,28.68h0l-47.5,27.43-4.29,2.47-4.29-2.47-47.5-27.43h0L2.14,238,0,236.79H0L51.83,266.7h0L2.14,238,0,236.78V117.16H0L51.81,87.24h0l49.67-28.67,2.13-1.23,2.13,1.23M0,122.09,8.57,127V231.85L56.1,259.29h0L0,226.92V122.09ZM8.57,127V231.86L56.1,259.3h0l43.24,25V179.43L8.57,127Zm4.26-7.4L103.62,172l97.2-56.11h0l92.92-53.65-43.26-25h0L203,9.86,155.43,37.3h0L105.77,66h0L56.09,94.65h0l-43.27,25Z"/></g></g></svg>