<svg xmlns="http://www.w3.org/2000/svg" viewBox="0 0 405.91 296.61"><defs><style>.cls-1{fill:#010101;}</style></defs><title>professional</title><g id="Layer_2" data-name="Layer 2"><g id="Layer_2-2" data-name="Layer 2"><path class="cls-1" d="M304.42,123.33l-97.17,56.1V284.27l43.24-25h0l49.67-28.68h0L349.82,202h0l47.52-27.44V69.69l-92.9,53.64Zm-110-61-43.26-25h0L103.62,9.86,56.09,37.3h0l-43.26,25,90.78,52.41,47.52-27.44h0l43.25-25ZM0,59.82,51.81,29.9h0L101.49,1.23,103.62,0l2.13,1.23L155.42,29.9h0L203,57.34,250.48,29.9h0L300.16,1.23,302.29,0l2.13,1.23L354.08,29.9h0l47.52,27.44,4.29,2.48V179.44l-2.14,1.24L354.1,209.36h0L304.43,238h0l-49.67,28.68h0l-47.5,27.43L203,296.61l-4.29-2.47-47.5-27.43h0L101.48,238l-2.14-1.24h0l-47.5-27.43h0L2.14,180.68,0,179.44V59.82Zm99.33,62.28L8.57,69.69V174.51L56.1,202h0l43.24,25V122.09Zm8.57,4.94V231.86l47.52,27.44h0l43.24,25V179.43L107.91,127Zm4.26-7.4L203,172l97.2-56.11h0l92.92-53.65-43.26-25h0L302.29,9.86,254.76,37.3h0L205.1,66h0L155.43,94.65h0l-43.27,25Z"/></g></g></svg>