<svg xmlns="http://www.w3.org/2000/svg" viewBox="0 0 379.09 272.5"><defs><style>.cls-1{isolation:isolate;}.cls-2{fill:#eaf4f3;}.cls-3{fill:#fff;}.cls-4{fill:#8fbcb7;}.cls-5{fill:#32539b;}.cls-17,.cls-6{fill:#c0ede9;}.cls-30,.cls-7{fill:#a9d8d2;}.cls-8{fill:#def9f6;}.cls-9{fill:#f4725c;}.cls-10{fill:#de5640;}.cls-11{fill:#ffa800;}.cls-12{fill:#56173c;}.cls-13{fill:#98cbcc;}.cls-14{fill:#5e0231;}.cls-15{fill:#721e4c;}.cls-16,.cls-18,.cls-19,.cls-23,.cls-27,.cls-36,.cls-37,.cls-38,.cls-39,.cls-40,.cls-41,.cls-43{fill:none;}.cls-16{stroke:#de5640;}.cls-16,.cls-19,.cls-40,.cls-41,.cls-43{stroke-linecap:round;}.cls-16,.cls-18,.cls-19,.cls-23,.cls-27,.cls-36,.cls-37,.cls-38,.cls-39,.cls-43{stroke-miterlimit:10;}.cls-16,.cls-19{stroke-width:0.81px;}.cls-17,.cls-30{opacity:0.5;}.cls-18{stroke:#98cbcc;stroke-width:1.08px;}.cls-19{stroke:#c1473a;}.cls-20{fill:#bad0d8;}.cls-21{fill:#849ea5;}.cls-22{fill:#9bbcc4;}.cls-23,.cls-27{stroke:#9bbcc4;}.cls-23{stroke-width:1.2px;}.cls-24{fill:#7e9fa5;}.cls-25{fill:#708d91;}.cls-26{fill:#86aeb2;}.cls-27{stroke-width:3.61px;}.cls-28{fill:#dd4574;}.cls-29,.cls-33,.cls-34,.cls-35{fill:#9eccc9;}.cls-30{mix-blend-mode:multiply;}.cls-31{fill:#05076b;}.cls-32{fill:#84b2ab;}.cls-33{opacity:0.3;}.cls-34{opacity:0.6;}.cls-35{opacity:0.9;}.cls-36,.cls-37,.cls-38,.cls-39,.cls-40{stroke:#9eccc9;}.cls-36{stroke-width:0.53px;}.cls-38{stroke-width:0.94px;}.cls-39,.cls-40{stroke-width:0.46px;}.cls-40,.cls-41{stroke-linejoin:round;}.cls-41{stroke:#dd4574;}.cls-42{fill:#526684;}.cls-43{stroke:#526684;stroke-width:3px;}</style></defs><title>a_most_unusual_year</title><g class="cls-1"><g id="Layer_2" data-name="Layer 2"><g id="OBJECTS"><path class="cls-2" d="M31.68,258.9S-6.13,232,.86,183.05,63.88,129.78,88,107C118.08,78.46,86.73,10.5,152.55.74,217.81-8.95,229.31,80,279.74,87.83c88,13.67,126.69,82.3,78.28,171.07"/><path class="cls-2" d="M89.8,67.44c-.37,7.88-2.69,21.07-9.85,30.78-6.65,9-16.35,14.08-21.55,10.61-3.1-2.07-1.65-9.3,3-21.9s3.32-31.61,15.51-31.61C87.66,55.32,90,63.06,89.8,67.44Z"/><path class="cls-2" d="M307.5,63c-4.78,4.43-8.72,23,4.91,26.66,19.2,5.17,30.33,15.88,38.44,13.17,7.49-2.5,10.82-17.68-3.35-30S317,54.2,307.5,63Z"/><path class="cls-3" d="M290.93,229.07c0,2-28.76,19.16-28.76,19.16l-54.92,12-7.19.12-.81-17.59L175,260.33H136.29s32.1-48.2,43.64-68.11c7.95-13.72,21.25-36,21.25-36L245,141.29l34.17,17.56s8.1,21,8.84,24.88S290.93,227,290.93,229.07Z"/><path class="cls-4" d="M195.8,192.58l4.75,65.14a.54.54,0,1,1-1.07.08h0Z"/><rect class="cls-5" x="174.03" y="210.44" width="4.67" height="41.61" rx="1.4" ry="1.4" transform="translate(-113.23 257.9) rotate(-57.93)"/><ellipse class="cls-6" cx="148.92" cy="211.57" rx="5.74" ry="14.92" transform="translate(-109.44 225.42) rotate(-57.93)"/><path class="cls-5" d="M150.18,209.57c-5.4-3.38-10.83-5.17-14.3-5l-1.05-2.15-2.31,3.68c-1.89,3,2.94,9.47,10.8,14.39S159.09,227,161,224l2.31-3.68-2.45-.14C159.44,217,155.51,212.91,150.18,209.57Z"/><ellipse class="cls-7" cx="149.05" cy="211.37" rx="6.46" ry="16.8" transform="translate(-109.2 225.43) rotate(-57.93)"/><ellipse class="cls-8" cx="149.05" cy="211.37" rx="4.96" ry="14.29" transform="translate(-109.2 225.44) rotate(-57.93)"/><path class="cls-9" d="M209.38,250.11s-2.74,0-5.79,0-6.13,0-7.38-.09c-2.56-.14-10.63.14-12.51-2.69s-3-13.38-4.24-15.13-6.25-4.71-8.13-6.33-2.42-4.64,0-4.64,11.3,4.17,14.13,6.33,3.09,6.36,8.74,8.1a38.23,38.23,0,0,0,11.38,1.43h.57Z"/><path class="cls-9" d="M180.27,231.09s-7.35-.4-8.36-.61a31.84,31.84,0,0,1-4.39-2s.13,3.93.8,4.78,1.12,1.34,1.12,1.34-.13,2.33.67,3.32a11.17,11.17,0,0,0,1.48,1.52s-.31,2.33.27,3.32a4.73,4.73,0,0,0,1.84,1.57,4.8,4.8,0,0,0,.4,2.11,4.22,4.22,0,0,0,2.73,1.88c1.43.36,13.32,1.46,13.32,1.46l-2.29-8.5"/><path class="cls-10" d="M209.38,250.11s-2.74,0-5.79,0l2-13h.57Z"/><path class="cls-4" d="M252.89,148.39c.89,2.51,1.63,5.08,2.34,7.66s1.31,5.18,1.89,7.78l0,.17-.11.14-6,7.24,0-.55,6.13,9.12.16.24-.13.26c-2.41,4.79-4.67,9.67-6.94,14.54s-4.41,9.8-6.44,14.77-4,10-5.67,15.07c-.42,1.27-.82,2.56-1.21,3.84s-.74,2.58-1.08,3.88-.62,2.61-.87,3.93l-.34,2c-.09.66-.16,1.33-.24,2,0-.67.08-1.34.14-2s.14-1.34.25-2c.2-1.33.45-2.66.73-4q.86-3.95,2.05-7.82c.78-2.58,1.64-5.13,2.54-7.67S242,211.9,243,209.4c2-5,4.13-9.95,6.34-14.86s4.56-9.75,7-14.56l0,.5-6.06-9.17-.19-.29.22-.26,6.17-7.11-.08.3c-.49-2.62-1.05-5.22-1.61-7.82S253.59,151,252.89,148.39Z"/><path class="cls-4" d="M203.59,167.66c-.29,2.08-.61,4.15-.92,6.22s-.64,4.14-1,6.21l-.1-.3,3.16,2.82.16.14,0,.23c-.65,3.86-1.42,7.69-2.12,11.54l-.06-.36c1.77,2.9,3.51,5.82,5.18,8.78s3.33,5.92,5,8.9,3.13,6,4.61,9.09c.74,1.53,1.42,3.09,2.09,4.65.34.78.63,1.58.94,2.37s.53,1.62.8,2.42c-.33-.78-.62-1.58-1-2.35s-.69-1.55-1.07-2.3c-.74-1.53-1.53-3-2.31-4.53s-1.58-3-2.41-4.47L212,212.28q-2.48-4.44-5-8.83l-5.14-8.77-.1-.17,0-.18c.78-3.83,1.49-7.68,2.32-11.5l.12.37-3.07-2.92-.14-.13,0-.17c.4-2.06.81-4.11,1.25-6.16S203.14,169.71,203.59,167.66Z"/><path class="cls-3" d="M245,141.29s33.43-4.95,45,.61c26.35,12.68,43.46,99.91,33.88,114.16-18.86,6.3-116.57,4.16-116.57,4.16l-1.1-23.1L271.27,230s-4.19-39.4-5.4-52.55C262.86,144.65,245,141.29,245,141.29Z"/><path class="cls-11" d="M240.3,141.89l4.67-.61S227.71,212.58,226.36,227c-1.05,11.2-20.58-43.45-18.49-65.2l4.25-4Z"/><path class="cls-9" d="M240.3,141.89s-12.16,30.71-21.38,30.48-6.26-11.55-6.26-11.55L206.14,152s.05-1.4.19-3.6c.66-9.75,3.23-35.21,11.84-24.57C228.74,136.89,240.3,141.89,240.3,141.89Z"/><path class="cls-10" d="M212.66,160.81,206.14,152s.05-1.4.19-3.6l8.35-20.34S216.58,144.59,212.66,160.81Z"/><path class="cls-12" d="M156,126.74s2.87,11.9,12.6,9.75-9.43-19.36-9.43-19.36"/><polyline class="cls-13" points="159.42 143.93 169.51 136.74 171.05 140.44 162.07 149.27"/><path class="cls-9" d="M158.6,125.12c4.93,18.16,22.67,46.26,33.17,44.6s15.3-11.06,21-23.59,7-29.3,3.87-37.78-12-25.62-30.78-23.22S155.59,114,158.6,125.12Z"/><ellipse class="cls-14" cx="171.73" cy="144.34" rx="1.69" ry="2.74" transform="translate(-49.59 107.67) rotate(-30.64)"/><path class="cls-14" d="M173.22,139.62a4.37,4.37,0,0,0-3.51-1,2.77,2.77,0,0,0-1.75,2.48c-.08.41-.78.4-.76,0a3.34,3.34,0,0,1,2.13-3.21c1.57-.51,3.1.31,4.31,1.24.33.25-.08.72-.41.48Z"/><ellipse class="cls-14" cx="185.85" cy="136.18" rx="1.69" ry="2.74" transform="translate(-44.36 145.75) rotate(-38.61)"/><path class="cls-14" d="M186.67,131.3a4.37,4.37,0,0,0-3.61-.46,2.77,2.77,0,0,0-1.39,2.7c0,.42-.72.51-.76.06a3.34,3.34,0,0,1,1.66-3.47c1.48-.72,3.11-.13,4.44.63.36.21,0,.72-.34.54Z"/><path class="cls-15" d="M223.22,116.92c.73-8.43,6.38-27.09-4.25-35.7-6.54-5.29-14.68-3.89-18.42-2.83C198.36,67.52,188.22,64,188.22,64a18,18,0,0,1,7.28,10.81c-3.74-4.42-10.8-10.16-20.23-6.14-10.54,4.5-11.87,17.16-22.9,26.58-9.38,8-15.57,4.62-15.57,4.62s-2.29,4.33-1.24,11.82A19.71,19.71,0,0,0,162,127.53l.47-.18C173.32,123,179,117.13,179,117.13s2.63,5,7.29,5.53,14.7,4.82,16,4.28-5.47-9.35-1.08-13.24c3.15-2.78,10.27,4.2,15.78,9.77,4.07,4.11,7.28,7,7.28,7S222.49,125.35,223.22,116.92Z"/><path class="cls-16" d="M178.59,145.5s3,8.88,4.1,9.35,3.83-1.75,3.83-1.75"/><path class="cls-17" d="M162.36,138.24,185,123.78a6.26,6.26,0,0,1,7.9,1c2.19,2.34,5.31,8.27,5.42,12,.18,5.74-14,8.7-18,11.77-2.75,2.11-7.39,9.68-13.24,5.72-2-1.34-6-5.63-7.11-8.1A6.27,6.27,0,0,1,162.36,138.24Z"/><path class="cls-18" d="M162.36,138.24,185,123.78a6.26,6.26,0,0,1,7.9,1c2.19,2.34,5.31,8.27,5.42,12,.18,5.74-14,8.7-18,11.77-2.75,2.11-7.39,9.68-13.24,5.72-2-1.34-6-5.63-7.11-8.1A6.27,6.27,0,0,1,162.36,138.24Z"/><polyline class="cls-13" points="190.63 123.24 200.71 116.05 202.26 119.75 194.82 127.34"/><path class="cls-9" d="M202,125.12s-4.59-9-1.13-12.64c4.12-4.28,8.74.14,11.16,3.56s5.45,15.15.67,14.4"/><path class="cls-19" d="M185,162.73a22.46,22.46,0,0,0,8.74-6"/><path class="cls-10" d="M204,116c.53,4,2.91,8,6.71,9.57a.47.47,0,0,0,.47-.81c-3.29-2.16-5.59-4.91-6.26-8.88-.09-.51-1-.4-.92.12Z"/><path class="cls-10" d="M207.34,117.13a5.45,5.45,0,0,0,.13,5.95c.31.39,1,0,.82-.48-.55-1.74-.88-3.22-.11-5,.24-.55-.51-1-.83-.49Z"/><rect class="cls-7" x="247.81" y="201.58" width="21.08" height="5.78" rx="0.75" ry="0.75" transform="translate(-7.04 9.22) rotate(-2.02)"/><path class="cls-4" d="M267.88,175.73c.66,4.51,1.3,9,2,13.5L271,196l1.17,6.72q2.4,13.43,5.19,26.77l.22,1-1.06.12-8.78,1-8.79,1c-5.86.6-11.72,1.23-17.59,1.76-2.93.28-5.87.56-8.8.81s-5.87.52-8.81.74-5.88.46-8.82.65-5.88.42-8.83.57c2.91-.47,5.83-.88,8.75-1.3s5.84-.84,8.76-1.21,5.85-.76,8.77-1.12,5.85-.72,8.78-1.06c5.85-.71,11.71-1.32,17.57-2l8.79-.9,8.8-.85-.84,1.15q-1.33-6.72-2.45-13.46T271,202.89c-.67-4.51-1.24-9-1.75-13.56-.26-2.26-.51-4.53-.73-6.79S268.08,178,267.88,175.73Z"/><path class="cls-3" d="M234.42,138.57s9.61-3.38,16.25,3.26-8.16,9.75-8.16,9.75S245.47,145.5,234.42,138.57Z"/><rect class="cls-20" x="44.09" y="246.21" width="82" height="9.85"/><rect class="cls-21" x="44.09" y="249.43" width="82" height="6.62"/><path class="cls-22" d="M79.34,256.06h-15v-25a7.51,7.51,0,0,1,7.51-7.51h0a7.51,7.51,0,0,1,7.51,7.51Z"/><line class="cls-23" x1="81.52" y1="235.78" x2="94.42" y2="222.88"/><rect class="cls-24" x="28.21" y="133.61" width="13.85" height="25.58" transform="translate(-93.23 67.72) rotate(-45)"/><path class="cls-25" d="M20.29,144h0a2.83,2.83,0,0,1,0-4l8.27-8.27a2.83,2.83,0,0,1,4,0h0a2.83,2.83,0,0,1,0,4L24.3,144A2.83,2.83,0,0,1,20.29,144Z"/><path class="cls-22" d="M71.83,240.69h-.95A41.39,41.39,0,0,1,48.67,165l5.07,6.6a33.09,33.09,0,0,0,25.25,60,4,4,0,0,1,.85-.09,4.17,4.17,0,0,1,.72,8.25A41.18,41.18,0,0,1,71.83,240.69Z"/><path class="cls-26" d="M48.41,166.64l3.6,4.68a34.3,34.3,0,0,0,27.24,61.46,2.72,2.72,0,0,1,.59-.07,3,3,0,0,1,.47,5.87,40,40,0,0,1-8.47.9h-.92a40.19,40.19,0,0,1-22.5-72.84m.53-3.26a42.59,42.59,0,0,0,21.91,78.51h1a42.31,42.31,0,0,0,9-1,5.37,5.37,0,0,0-1-10.63,5.12,5.12,0,0,0-1.11.12A31.88,31.88,0,0,1,55.5,171.92l-6.56-8.54Z"/><rect class="cls-22" x="45.52" y="140.3" width="18.35" height="51.35" transform="translate(-101.34 87.29) rotate(-45)"/><rect class="cls-22" x="74.2" y="181.78" width="8.61" height="15.9" transform="translate(-111.17 111.08) rotate(-45)"/><rect class="cls-22" x="76.87" y="204.05" width="34" height="9.32" rx="1.33" ry="1.33" transform="translate(-120.08 127.51) rotate(-45)"/><rect class="cls-22" x="86.06" y="218.14" width="21.41" height="5.87" rx="0.84" ry="0.84" transform="translate(-127.98 133.17) rotate(-45)"/><polygon class="cls-21" points="66.36 190.62 74.11 191.43 80.2 185.34 79.33 177.64 66.36 190.62"/><circle class="cls-20" cx="71.91" cy="236.68" r="3.12"/><circle class="cls-21" cx="47.47" cy="170.49" r="11.07"/><circle class="cls-22" cx="47.47" cy="170.49" r="4.56"/><line class="cls-27" x1="74.57" y1="227.53" x2="87.47" y2="214.63"/><path class="cls-28" d="M112.83,247.24s3.58-6.17,23.08-3.92c5,.58,15.18,3.92,18.2,8.32"/><path class="cls-29" d="M156.9,256.06H111.77a1.22,1.22,0,0,1-1.22-1.22v-9.07a1.2,1.2,0,0,1,1.35-1.19l44.77,5.95a1.67,1.67,0,0,1,1.45,1.66v2.65A1.22,1.22,0,0,1,156.9,256.06Z"/><path class="cls-7" d="M285,201.12v43.46a4.77,4.77,0,0,0,9.55,0V201.12Z"/><path class="cls-11" d="M293.26,223.52v20.6a3.53,3.53,0,0,1-7.06,0v-20.6Z"/><path class="cls-7" d="M294.44,203.19h-9.61a1.64,1.64,0,0,1-1.64-1.64h0a1.64,1.64,0,0,1,1.64-1.64h9.61a1.64,1.64,0,0,1,1.64,1.64h0A1.64,1.64,0,0,1,294.44,203.19Z"/><rect class="cls-30" x="284.95" y="203.19" width="9.55" height="1.06"/><path class="cls-7" d="M305.72,201.12v43.46a4.77,4.77,0,0,0,9.55,0V201.12Z"/><path class="cls-31" d="M314,212.8v31.31a3.53,3.53,0,0,1-7.06,0V212.8Z"/><path class="cls-7" d="M315.21,203.19H305.6a1.64,1.64,0,0,1-1.64-1.64h0a1.64,1.64,0,0,1,1.64-1.64h9.61a1.64,1.64,0,0,1,1.64,1.64h0A1.64,1.64,0,0,1,315.21,203.19Z"/><rect class="cls-30" x="305.72" y="203.19" width="9.55" height="1.06"/><path class="cls-7" d="M326.49,201.12v43.46a4.77,4.77,0,1,0,9.55,0V201.12Z"/><path class="cls-28" d="M334.79,218.58v25.54a3.53,3.53,0,0,1-7.06,0V218.58Z"/><path class="cls-7" d="M336,203.19h-9.61a1.64,1.64,0,0,1-1.64-1.64h0a1.64,1.64,0,0,1,1.64-1.64H336a1.64,1.64,0,0,1,1.64,1.64h0A1.64,1.64,0,0,1,336,203.19Z"/><rect class="cls-30" x="326.49" y="203.19" width="9.55" height="1.06"/><path class="cls-32" d="M342.77,211.35H278a2,2,0,0,1-2-2h0a2,2,0,0,1,2-2h64.74a2,2,0,0,1,2,2h0A2,2,0,0,1,342.77,211.35Z"/><path class="cls-32" d="M348.75,256.06H272.06a2.38,2.38,0,0,1-2.38-2.38h0a2.38,2.38,0,0,1,2.38-2.38h76.68a2.38,2.38,0,0,1,2.38,2.38h0A2.38,2.38,0,0,1,348.75,256.06Z"/><rect class="cls-32" x="279.11" y="211.35" width="1.86" height="41.03"/><rect class="cls-32" x="339.84" y="211.35" width="1.86" height="41.03"/><rect class="cls-33" x="240.3" y="107.33" width="7.44" height="7.44" rx="1.12" ry="1.12"/><rect class="cls-34" x="251.53" y="107.33" width="7.44" height="7.44" rx="1.12" ry="1.12"/><rect class="cls-35" x="262.75" y="107.33" width="7.44" height="7.44" rx="1.12" ry="1.12"/><rect class="cls-29" x="273.98" y="107.33" width="7.44" height="7.44" rx="1.12" ry="1.12"/><rect class="cls-29" x="296.08" y="107.33" width="7.44" height="7.44" rx="1.12" ry="1.12"/><rect class="cls-33" x="137.75" y="172.01" width="7.44" height="7.44" rx="1.12" ry="1.12"/><rect class="cls-34" x="148.97" y="172.01" width="7.44" height="7.44" rx="1.12" ry="1.12"/><rect class="cls-35" x="160.2" y="172.01" width="7.44" height="7.44" rx="1.12" ry="1.12"/><rect class="cls-29" x="171.43" y="172.01" width="7.44" height="7.44" rx="1.12" ry="1.12"/><rect class="cls-33" x="190.14" y="52.32" width="4.06" height="4.06" rx="0.61" ry="0.61"/><rect class="cls-34" x="196.27" y="52.32" width="4.06" height="4.06" rx="0.61" ry="0.61"/><rect class="cls-35" x="202.4" y="52.32" width="4.06" height="4.06" rx="0.61" ry="0.61"/><rect class="cls-29" x="208.53" y="52.32" width="4.06" height="4.06" rx="0.61" ry="0.61"/><ellipse class="cls-36" cx="105.32" cy="144.95" rx="6.21" ry="15.35" transform="translate(-67.79 98.75) rotate(-39.06)"/><ellipse class="cls-36" cx="105.32" cy="144.95" rx="15.35" ry="6.21" transform="translate(-67.78 191.18) rotate(-68.95)"/><ellipse class="cls-36" cx="105.32" cy="144.95" rx="15.35" ry="6.21" transform="matrix(0.99, -0.16, 0.16, 0.99, -21.73, 18.62)"/><circle class="cls-28" cx="102.43" cy="146.23" r="1.98" transform="translate(-69.25 97.22) rotate(-39.06)"/><circle class="cls-28" cx="107.42" cy="145.8" r="1.98" transform="translate(-67.86 100.26) rotate(-39.06)"/><circle class="cls-28" cx="105.59" cy="141.64" r="1.2" transform="translate(-65.65 98.18) rotate(-39.05)"/><circle class="cls-37" cx="105.32" cy="144.95" r="21.16"/><line class="cls-38" x1="115.04" y1="163.75" x2="135.29" y2="196.33"/><circle class="cls-29" cx="135.26" cy="196.27" r="2.57"/><path class="cls-29" d="M149.62,139.85H130.74a1,1,0,0,1-1-1h0a1,1,0,0,1,1-1h18.88a1,1,0,0,1,1,1h0A1,1,0,0,1,149.62,139.85Z"/><path class="cls-29" d="M149.62,143.82H130.74a1,1,0,0,1-1-1h0a1,1,0,0,1,1-1h18.88a1,1,0,0,1,1,1h0A1,1,0,0,1,149.62,143.82Z"/><path class="cls-29" d="M140,147.79h-9.29a1,1,0,0,1-1-1h0a1,1,0,0,1,1-1H140a1,1,0,0,1,1,1h0A1,1,0,0,1,140,147.79Z"/><circle class="cls-29" cx="131.71" cy="31.38" r="4.88"/><circle class="cls-29" cx="141.46" cy="41.88" r="3.63"/><circle class="cls-29" cx="153.09" cy="29.13" r="2.63"/><circle class="cls-29" cx="130.46" cy="53" r="6.13"/><circle class="cls-29" cx="153.09" cy="47.69" r="4.63"/><polyline class="cls-37" points="131.71 31.38 141.46 41.88 130.46 53"/><polyline class="cls-37" points="153.09 29.13 141.46 41.88 153.09 47.69"/><path class="cls-29" d="M194.52,35.93H170.35a1,1,0,0,1-1-1h0a1,1,0,0,1,1-1h24.17a1,1,0,0,1,1,1h0A1,1,0,0,1,194.52,35.93Z"/><path class="cls-29" d="M193.12,31.28H171.75a2.39,2.39,0,0,1-2.39-2.39h0a2.39,2.39,0,0,1,2.39-2.39h21.37a2.39,2.39,0,0,1,2.39,2.39h0A2.39,2.39,0,0,1,193.12,31.28Z"/><path class="cls-29" d="M182.64,39.9H170.35a1,1,0,0,1-1-1h0a1,1,0,0,1,1-1h12.29a1,1,0,0,1,1,1h0A1,1,0,0,1,182.64,39.9Z"/><path class="cls-29" d="M194.52,39.9h-8.6a1,1,0,0,1-1-1h0a1,1,0,0,1,1-1h8.6a1,1,0,0,1,1,1h0A1,1,0,0,1,194.52,39.9Z"/><path class="cls-29" d="M179.64,43.87h-9.29a1,1,0,0,1-1-1h0a1,1,0,0,1,1-1h9.29a1,1,0,0,1,1,1h0A1,1,0,0,1,179.64,43.87Z"/><rect class="cls-37" x="119.85" y="20.07" width="43.44" height="43.44" rx="2.12" ry="2.12"/><ellipse class="cls-39" cx="318.71" cy="137.71" rx="13.19" ry="5.34" transform="translate(85.77 395.16) rotate(-71.23)"/><ellipse class="cls-39" cx="318.71" cy="137.71" rx="13.19" ry="5.34" transform="translate(-20.58 64.09) rotate(-11.13)"/><ellipse class="cls-39" cx="318.71" cy="137.71" rx="5.34" ry="13.19" transform="translate(-11.55 244.8) rotate(-41.34)"/><circle class="cls-29" cx="317.93" cy="139.22" r="1.19" transform="translate(83.82 395.45) rotate(-71.23)"/><circle class="cls-29" cx="346.25" cy="158.68" r="0.77" transform="translate(84.59 435.46) rotate(-71.23)"/><circle class="cls-29" cx="317" cy="135.5" r="1.7" transform="translate(86.71 392.04) rotate(-71.23)"/><circle class="cls-29" cx="327.01" cy="147.69" r="1.7" transform="translate(81.96 409.79) rotate(-71.23)"/><circle class="cls-29" cx="321.07" cy="136.88" r="1.55" transform="translate(88.16 396.83) rotate(-71.23)"/><path class="cls-29" d="M362.06,162.16H349.44a.52.52,0,0,1-.52-.52h0a.52.52,0,0,1,.52-.52h12.62a.52.52,0,0,1,.52.52h0A.52.52,0,0,1,362.06,162.16Z"/><path class="cls-29" d="M361.33,159.73H350.17a1.25,1.25,0,0,1-1.25-1.25h0a1.25,1.25,0,0,1,1.25-1.25h11.16a1.25,1.25,0,0,1,1.25,1.25h0A1.25,1.25,0,0,1,361.33,159.73Z"/><path class="cls-29" d="M355.86,164.23h-6.42a.52.52,0,0,1-.52-.52h0a.52.52,0,0,1,.52-.52h6.42a.52.52,0,0,1,.52.52h0A.52.52,0,0,1,355.86,164.23Z"/><path class="cls-29" d="M362.06,164.23h-4.49a.52.52,0,0,1-.52-.52h0a.52.52,0,0,1,.52-.52h4.49a.52.52,0,0,1,.52.52h0A.52.52,0,0,1,362.06,164.23Z"/><path class="cls-29" d="M354.29,166.3h-4.85a.52.52,0,0,1-.52-.52h0a.52.52,0,0,1,.52-.52h4.85a.52.52,0,0,1,.52.52h0A.52.52,0,0,1,354.29,166.3Z"/><polyline class="cls-40" points="327.08 147.62 338.15 158.68 346.25 158.68"/><circle class="cls-29" cx="265.02" cy="63.34" r="4.88" transform="translate(85 267.89) rotate(-62.09)"/><circle class="cls-29" cx="251.18" cy="67.04" r="5.38" transform="translate(74.37 257.63) rotate(-62.09)"/><circle class="cls-29" cx="255.25" cy="78.61" r="2.63" transform="translate(66.31 267.38) rotate(-62.09)"/><circle class="cls-29" cx="246.49" cy="52.12" r="6.12" transform="translate(85.07 245.55) rotate(-62.09)"/><circle class="cls-29" cx="240.59" cy="74.59" r="4.63" transform="translate(62.07 252.3) rotate(-62.09)"/><polygon class="cls-29" points="250.84 67.65 246.02 52.27 246.97 51.97 251.51 66.44 264.89 62.86 265.15 63.83 250.84 67.65"/><polygon class="cls-29" points="254.78 78.78 250.93 67.83 240.88 75 240.31 74.19 251.42 66.25 255.72 78.44 254.78 78.78"/><rect class="cls-37" x="229.15" y="43.87" width="91.39" height="41.93" rx="2.81" ry="2.81"/><line class="cls-37" x1="274.84" y1="43.87" x2="274.84" y2="85.8"/><line class="cls-37" x1="274.84" y1="54.35" x2="320.54" y2="54.35"/><line class="cls-37" x1="274.84" y1="64.83" x2="320.54" y2="64.83"/><line class="cls-37" x1="274.84" y1="75.31" x2="320.54" y2="75.31"/><line class="cls-37" x1="286.45" y1="43.87" x2="286.45" y2="85.8"/><line class="cls-37" x1="297.69" y1="43.87" x2="297.69" y2="85.8"/><line class="cls-37" x1="309.3" y1="43.87" x2="309.3" y2="85.8"/><polyline class="cls-41" points="277.25 49.25 279.45 51.46 284.2 46.71"/><polyline class="cls-41" points="300.04 70.14 302.25 72.34 307 67.59"/><polyline class="cls-41" points="288.68 81.25 290.89 83.46 295.64 78.71"/><rect class="cls-42" x="20.99" y="256.07" width="344.07" height="8.92" rx="4.46" ry="4.46"/><line class="cls-43" x1="84.16" y1="271" x2="178.59" y2="271"/><line class="cls-43" x1="188.75" y1="271" x2="230" y2="271"/></g></g></g></svg>