<svg viewBox="0 0 379.09 272.5" xmlns="http://www.w3.org/2000/svg"><path d="m31.68 258.9s-37.81-26.9-30.82-75.85 63.02-53.27 87.14-76.05c30.08-28.54-1.27-96.5 64.55-106.26 65.26-9.69 76.76 79.26 127.19 87.09 88 13.67 126.69 82.3 78.28 171.07" fill="#eaf4f3"/><path d="m89.8 67.44c-.37 7.88-2.69 21.07-9.85 30.78-6.65 9-16.35 14.08-21.55 10.61-3.1-2.07-1.65-9.3 3-21.9s3.32-31.61 15.51-31.61c10.75 0 13.09 7.74 12.89 12.12z" fill="#eaf4f3"/><path d="m307.5 63c-4.78 4.43-8.72 23 4.91 26.66 19.2 5.17 30.33 15.88 38.44 13.17 7.49-2.5 10.82-17.68-3.35-30s-30.5-18.63-40-9.83z" fill="#eaf4f3"/><path d="m290.93 229.07c0 2-28.76 19.16-28.76 19.16l-54.92 12-7.19.12-.81-17.59-24.25 17.57h-38.71s32.1-48.2 43.64-68.11c7.95-13.72 21.25-36 21.25-36l43.82-14.93 34.17 17.56s8.1 21 8.84 24.88 2.92 43.27 2.92 45.34z" fill="#fff"/><path d="m195.8 192.58 4.75 65.14a.54.54 0 1 1 -1.07.08z" fill="#8fbcb7"/><rect fill="#32539b" height="41.61" rx="1.4" transform="matrix(.53095495 -.84740004 .84740004 .53095495 -113.23 257.9)" width="4.67" x="174.03" y="210.44"/><ellipse cx="148.92" cy="211.57" fill="#c0ede9" rx="5.74" ry="14.92" transform="matrix(.53095495 -.84740004 .84740004 .53095495 -109.44 225.42)"/><path d="m150.18 209.57c-5.4-3.38-10.83-5.17-14.3-5l-1.05-2.15-2.31 3.68c-1.89 3 2.94 9.47 10.8 14.39s15.77 6.51 17.68 3.51l2.31-3.68-2.45-.14c-1.42-3.18-5.35-7.27-10.68-10.61z" fill="#32539b"/><ellipse cx="149.05" cy="211.37" fill="#a9d8d2" rx="6.46" ry="16.8" transform="matrix(.53095495 -.84740004 .84740004 .53095495 -109.2 225.43)"/><ellipse cx="149.05" cy="211.37" fill="#def9f6" rx="4.96" ry="14.29" transform="matrix(.53095495 -.84740004 .84740004 .53095495 -109.2 225.44)"/><path d="m209.38 250.11s-2.74 0-5.79 0-6.13 0-7.38-.09c-2.56-.14-10.63.14-12.51-2.69s-3-13.38-4.24-15.13-6.25-4.71-8.13-6.33-2.42-4.64 0-4.64 11.3 4.17 14.13 6.33 3.09 6.36 8.74 8.1a38.23 38.23 0 0 0 11.38 1.43h.57z" fill="#f4725c"/><path d="m180.27 231.09s-7.35-.4-8.36-.61a31.84 31.84 0 0 1 -4.39-2s.13 3.93.8 4.78 1.12 1.34 1.12 1.34-.13 2.33.67 3.32a11.17 11.17 0 0 0 1.48 1.52s-.31 2.33.27 3.32a4.73 4.73 0 0 0 1.84 1.57 4.8 4.8 0 0 0 .4 2.11 4.22 4.22 0 0 0 2.73 1.88c1.43.36 13.32 1.46 13.32 1.46l-2.29-8.5" fill="#f4725c"/><path d="m209.38 250.11s-2.74 0-5.79 0l2-13h.57z" fill="#de5640"/><path d="m252.89 148.39c.89 2.51 1.63 5.08 2.34 7.66s1.31 5.18 1.89 7.78v.17l-.11.14-6 7.24v-.55l6.13 9.12.16.24-.13.26c-2.41 4.79-4.67 9.67-6.94 14.54s-4.41 9.8-6.44 14.77-4 10-5.67 15.07c-.42 1.27-.82 2.56-1.21 3.84s-.74 2.58-1.08 3.88-.62 2.61-.87 3.93l-.34 2c-.09.66-.16 1.33-.24 2 0-.67.08-1.34.14-2s.14-1.34.25-2c.2-1.33.45-2.66.73-4q.86-3.95 2.05-7.82c.78-2.58 1.64-5.13 2.54-7.67s1.91-5.09 2.91-7.59c2-5 4.13-9.95 6.34-14.86s4.56-9.75 7-14.56v.5l-6.06-9.17-.19-.29.22-.26 6.17-7.11-.08.3c-.49-2.62-1.05-5.22-1.61-7.82s-1.2-5.13-1.9-7.74z" fill="#8fbcb7"/><path d="m203.59 167.66c-.29 2.08-.61 4.15-.92 6.22s-.64 4.14-1 6.21l-.1-.3 3.16 2.82.16.14v.23c-.65 3.86-1.42 7.69-2.12 11.54l-.06-.36c1.77 2.9 3.51 5.82 5.18 8.78s3.33 5.92 5 8.9 3.13 6 4.61 9.09c.74 1.53 1.42 3.09 2.09 4.65.34.78.63 1.58.94 2.37s.53 1.62.8 2.42c-.33-.78-.62-1.58-1-2.35s-.69-1.55-1.07-2.3c-.74-1.53-1.53-3-2.31-4.53s-1.58-3-2.41-4.47l-2.54-4.44q-2.48-4.44-5-8.83l-5.14-8.77-.1-.17v-.18c.78-3.83 1.49-7.68 2.32-11.5l.12.37-3.07-2.92-.14-.13v-.17c.4-2.06.81-4.11 1.25-6.16s.9-4.11 1.35-6.16z" fill="#8fbcb7"/><path d="m245 141.29s33.43-4.95 45 .61c26.35 12.68 43.46 99.91 33.88 114.16-18.86 6.3-116.57 4.16-116.57 4.16l-1.1-23.1 65.06-7.12s-4.19-39.4-5.4-52.55c-3.01-32.8-20.87-36.16-20.87-36.16z" fill="#fff"/><path d="m240.3 141.89 4.67-.61s-17.26 71.3-18.61 85.72c-1.05 11.2-20.58-43.45-18.49-65.2l4.25-4z" fill="#ffa800"/><path d="m240.3 141.89s-12.16 30.71-21.38 30.48-6.26-11.55-6.26-11.55l-6.52-8.82s.05-1.4.19-3.6c.66-9.75 3.23-35.21 11.84-24.57 10.57 13.06 22.13 18.06 22.13 18.06z" fill="#f4725c"/><path d="m212.66 160.81-6.52-8.81s.05-1.4.19-3.6l8.35-20.34s1.9 16.53-2.02 32.75z" fill="#de5640"/><path d="m156 126.74s2.87 11.9 12.6 9.75-9.43-19.36-9.43-19.36" fill="#56173c"/><path d="m159.42 143.93 10.09-7.19 1.54 3.7-8.98 8.83" fill="#98cbcc"/><path d="m158.6 125.12c4.93 18.16 22.67 46.26 33.17 44.6s15.3-11.06 21-23.59 7-29.3 3.87-37.78-12-25.62-30.78-23.22-30.27 28.87-27.26 39.99z" fill="#f4725c"/><ellipse cx="171.73" cy="144.34" fill="#5e0231" rx="1.69" ry="2.74" transform="matrix(.86038644 -.5096422 .5096422 .86038644 -49.59 107.67)"/><path d="m173.22 139.62a4.37 4.37 0 0 0 -3.51-1 2.77 2.77 0 0 0 -1.75 2.48c-.08.41-.78.4-.76 0a3.34 3.34 0 0 1 2.13-3.21c1.57-.51 3.1.31 4.31 1.24.33.25-.08.72-.41.48z" fill="#5e0231"/><ellipse cx="185.85" cy="136.18" fill="#5e0231" rx="1.69" ry="2.74" transform="matrix(.78141157 -.62401599 .62401599 .78141157 -44.36 145.75)"/><path d="m186.67 131.3a4.37 4.37 0 0 0 -3.61-.46 2.77 2.77 0 0 0 -1.39 2.7c0 .42-.72.51-.76.06a3.34 3.34 0 0 1 1.66-3.47c1.48-.72 3.11-.13 4.44.63.36.21 0 .72-.34.54z" fill="#5e0231"/><path d="m223.22 116.92c.73-8.43 6.38-27.09-4.25-35.7-6.54-5.29-14.68-3.89-18.42-2.83-2.19-10.87-12.33-14.39-12.33-14.39a18 18 0 0 1 7.28 10.81c-3.74-4.42-10.8-10.16-20.23-6.14-10.54 4.5-11.87 17.16-22.9 26.58-9.38 8-15.57 4.62-15.57 4.62s-2.29 4.33-1.24 11.82a19.71 19.71 0 0 0 26.44 15.84l.47-.18c10.85-4.35 16.53-10.22 16.53-10.22s2.63 5 7.29 5.53 14.7 4.82 16 4.28-5.47-9.35-1.08-13.24c3.15-2.78 10.27 4.2 15.78 9.77 4.07 4.11 7.28 7 7.28 7s-1.78-5.12-1.05-13.55z" fill="#721e4c"/><path d="m178.59 145.5s3 8.88 4.1 9.35 3.83-1.75 3.83-1.75" fill="none" stroke="#de5640" stroke-linecap="round" stroke-miterlimit="10" stroke-width=".81"/><path d="m162.36 138.24 22.64-14.46a6.26 6.26 0 0 1 7.9 1c2.19 2.34 5.31 8.27 5.42 12 .18 5.74-14 8.7-18 11.77-2.75 2.11-7.39 9.68-13.24 5.72-2-1.34-6-5.63-7.11-8.1a6.27 6.27 0 0 1 2.39-7.93z" fill="#c0ede9" opacity=".5"/><path d="m162.36 138.24 22.64-14.46a6.26 6.26 0 0 1 7.9 1c2.19 2.34 5.31 8.27 5.42 12 .18 5.74-14 8.7-18 11.77-2.75 2.11-7.39 9.68-13.24 5.72-2-1.34-6-5.63-7.11-8.1a6.27 6.27 0 0 1 2.39-7.93z" fill="none" stroke="#98cbcc" stroke-miterlimit="10" stroke-width="1.08"/><path d="m190.63 123.24 10.08-7.19 1.55 3.7-7.44 7.59" fill="#98cbcc"/><path d="m202 125.12s-4.59-9-1.13-12.64c4.12-4.28 8.74.14 11.16 3.56s5.45 15.15.67 14.4" fill="#f4725c"/><path d="m185 162.73a22.46 22.46 0 0 0 8.74-6" fill="none" stroke="#c1473a" stroke-linecap="round" stroke-miterlimit="10" stroke-width=".81"/><path d="m204 116c.53 4 2.91 8 6.71 9.57a.47.47 0 0 0 .47-.81c-3.29-2.16-5.59-4.91-6.26-8.88-.09-.51-1-.4-.92.12z" fill="#de5640"/><path d="m207.34 117.13a5.45 5.45 0 0 0 .13 5.95c.31.39 1 0 .82-.48-.55-1.74-.88-3.22-.11-5 .24-.55-.51-1-.83-.49z" fill="#de5640"/><rect fill="#a9d8d2" height="5.78" rx=".75" transform="matrix(.99937858 -.03524835 .03524835 .99937858 -7.04 9.22)" width="21.08" x="247.81" y="201.58"/><path d="m267.88 175.73c.66 4.51 1.3 9 2 13.5l1.12 6.77 1.17 6.72q2.4 13.43 5.19 26.77l.22 1-1.06.12-8.78 1-8.79 1c-5.86.6-11.72 1.23-17.59 1.76-2.93.28-5.87.56-8.8.81s-5.87.52-8.81.74-5.88.46-8.82.65-5.88.42-8.83.57c2.91-.47 5.83-.88 8.75-1.3s5.84-.84 8.76-1.21 5.85-.76 8.77-1.12 5.85-.72 8.78-1.06c5.85-.71 11.71-1.32 17.57-2l8.79-.9 8.8-.85-.84 1.15q-1.33-6.72-2.45-13.46t-2.03-13.5c-.67-4.51-1.24-9-1.75-13.56-.26-2.26-.51-4.53-.73-6.79s-.44-4.54-.64-6.81z" fill="#8fbcb7"/><path d="m234.42 138.57s9.61-3.38 16.25 3.26-8.16 9.75-8.16 9.75 2.96-6.08-8.09-13.01z" fill="#fff"/><path d="m44.09 246.21h82v9.85h-82z" fill="#bad0d8"/><path d="m44.09 249.43h82v6.62h-82z" fill="#849ea5"/><path d="m79.34 256.06h-15v-25a7.51 7.51 0 0 1 7.51-7.51 7.51 7.51 0 0 1 7.51 7.51z" fill="#9bbcc4"/><path d="m81.52 235.78 12.9-12.9" fill="none" stroke="#9bbcc4" stroke-miterlimit="10" stroke-width="1.2"/><path d="m28.21 133.61h13.85v25.58h-13.85z" fill="#7e9fa5" transform="matrix(.70710678 -.70710678 .70710678 .70710678 -93.23 67.72)"/><path d="m20.29 144a2.83 2.83 0 0 1 0-4l8.27-8.27a2.83 2.83 0 0 1 4 0 2.83 2.83 0 0 1 0 4l-8.26 8.27a2.83 2.83 0 0 1 -4.01 0z" fill="#708d91"/><path d="m71.83 240.69h-.95a41.39 41.39 0 0 1 -22.21-75.69l5.07 6.6a33.09 33.09 0 0 0 25.25 60 4 4 0 0 1 .85-.09 4.17 4.17 0 0 1 .72 8.25 41.18 41.18 0 0 1 -8.73.93z" fill="#9bbcc4"/><path d="m48.41 166.64 3.6 4.68a34.3 34.3 0 0 0 27.24 61.46 2.72 2.72 0 0 1 .59-.07 3 3 0 0 1 .47 5.87 40 40 0 0 1 -8.47.9h-.92a40.19 40.19 0 0 1 -22.5-72.84m.53-3.26a42.59 42.59 0 0 0 21.91 78.51h1a42.31 42.31 0 0 0 9-1 5.37 5.37 0 0 0 -1-10.63 5.12 5.12 0 0 0 -1.11.12 31.88 31.88 0 0 1 -23.25-58.46l-6.56-8.54z" fill="#86aeb2"/><path d="m45.52 140.3h18.35v51.35h-18.35z" fill="#9bbcc4" transform="matrix(.70710678 -.70710678 .70710678 .70710678 -101.34 87.29)"/><path d="m74.2 181.78h8.61v15.9h-8.61z" fill="#9bbcc4" transform="matrix(.70710678 -.70710678 .70710678 .70710678 -111.17 111.08)"/><rect fill="#9bbcc4" height="9.32" rx="1.33" transform="matrix(.70710678 -.70710678 .70710678 .70710678 -120.08 127.51)" width="34" x="76.87" y="204.05"/><rect fill="#9bbcc4" height="5.87" rx=".84" transform="matrix(.70710678 -.70710678 .70710678 .70710678 -127.98 133.17)" width="21.41" x="86.06" y="218.14"/><path d="m66.36 190.62 7.75.81 6.09-6.09-.87-7.7z" fill="#849ea5"/><circle cx="71.91" cy="236.68" fill="#bad0d8" r="3.12"/><circle cx="47.47" cy="170.49" fill="#849ea5" r="11.07"/><circle cx="47.47" cy="170.49" fill="#9bbcc4" r="4.56"/><path d="m74.57 227.53 12.9-12.9" fill="none" stroke="#9bbcc4" stroke-miterlimit="10" stroke-width="3.61"/><path d="m112.83 247.24s3.58-6.17 23.08-3.92c5 .58 15.18 3.92 18.2 8.32" fill="#dd4574"/><path d="m156.9 256.06h-45.13a1.22 1.22 0 0 1 -1.22-1.22v-9.07a1.2 1.2 0 0 1 1.35-1.19l44.77 5.95a1.67 1.67 0 0 1 1.45 1.66v2.65a1.22 1.22 0 0 1 -1.22 1.22z" fill="#9eccc9"/><path d="m285 201.12v43.46a4.77 4.77 0 0 0 9.55 0v-43.46z" fill="#a9d8d2"/><path d="m293.26 223.52v20.6a3.53 3.53 0 0 1 -7.06 0v-20.6z" fill="#ffa800"/><path d="m294.44 203.19h-9.61a1.64 1.64 0 0 1 -1.64-1.64 1.64 1.64 0 0 1 1.64-1.64h9.61a1.64 1.64 0 0 1 1.64 1.64 1.64 1.64 0 0 1 -1.64 1.64z" fill="#a9d8d2"/><path d="m284.95 203.19h9.55v1.06h-9.55z" fill="#a9d8d2" opacity=".5"/><path d="m305.72 201.12v43.46a4.77 4.77 0 0 0 9.55 0v-43.46z" fill="#a9d8d2"/><path d="m314 212.8v31.31a3.53 3.53 0 0 1 -7.06 0v-31.31z" fill="#05076b"/><path d="m315.21 203.19h-9.61a1.64 1.64 0 0 1 -1.64-1.64 1.64 1.64 0 0 1 1.64-1.64h9.61a1.64 1.64 0 0 1 1.64 1.64 1.64 1.64 0 0 1 -1.64 1.64z" fill="#a9d8d2"/><path d="m305.72 203.19h9.55v1.06h-9.55z" fill="#a9d8d2" opacity=".5"/><path d="m326.49 201.12v43.46a4.77 4.77 0 1 0 9.55 0v-43.46z" fill="#a9d8d2"/><path d="m334.79 218.58v25.54a3.53 3.53 0 0 1 -7.06 0v-25.54z" fill="#dd4574"/><path d="m336 203.19h-9.61a1.64 1.64 0 0 1 -1.64-1.64 1.64 1.64 0 0 1 1.64-1.64h9.61a1.64 1.64 0 0 1 1.64 1.64 1.64 1.64 0 0 1 -1.64 1.64z" fill="#a9d8d2"/><path d="m326.49 203.19h9.55v1.06h-9.55z" fill="#a9d8d2" opacity=".5"/><path d="m342.77 211.35h-64.77a2 2 0 0 1 -2-2 2 2 0 0 1 2-2h64.74a2 2 0 0 1 2 2 2 2 0 0 1 -1.97 2z" fill="#84b2ab"/><path d="m348.75 256.06h-76.69a2.38 2.38 0 0 1 -2.38-2.38 2.38 2.38 0 0 1 2.38-2.38h76.68a2.38 2.38 0 0 1 2.38 2.38 2.38 2.38 0 0 1 -2.37 2.38z" fill="#84b2ab"/><path d="m279.11 211.35h1.86v41.03h-1.86z" fill="#84b2ab"/><path d="m339.84 211.35h1.86v41.03h-1.86z" fill="#84b2ab"/><g fill="#9eccc9"><rect height="7.44" opacity=".3" rx="1.12" width="7.44" x="240.3" y="107.33"/><rect height="7.44" opacity=".6" rx="1.12" width="7.44" x="251.53" y="107.33"/><rect height="7.44" opacity=".9" rx="1.12" width="7.44" x="262.75" y="107.33"/><rect height="7.44" rx="1.12" width="7.44" x="273.98" y="107.33"/><rect height="7.44" rx="1.12" width="7.44" x="296.08" y="107.33"/><rect height="7.44" opacity=".3" rx="1.12" width="7.44" x="137.75" y="172.01"/><rect height="7.44" opacity=".6" rx="1.12" width="7.44" x="148.97" y="172.01"/><rect height="7.44" opacity=".9" rx="1.12" width="7.44" x="160.2" y="172.01"/><rect height="7.44" rx="1.12" width="7.44" x="171.43" y="172.01"/><rect height="4.06" opacity=".3" rx=".61" width="4.06" x="190.14" y="52.32"/><rect height="4.06" opacity=".6" rx=".61" width="4.06" x="196.27" y="52.32"/><rect height="4.06" opacity=".9" rx=".61" width="4.06" x="202.4" y="52.32"/><rect height="4.06" rx=".61" width="4.06" x="208.53" y="52.32"/></g><ellipse cx="105.32" cy="144.95" fill="none" rx="6.21" ry="15.35" stroke="#9eccc9" stroke-miterlimit="10" stroke-width=".53" transform="matrix(.77648651 -.63013387 .63013387 .77648651 -67.79 98.75)"/><ellipse cx="105.32" cy="144.95" fill="none" rx="15.35" ry="6.21" stroke="#9eccc9" stroke-miterlimit="10" stroke-width=".53" transform="matrix(.35918252 -.93326734 .93326734 .35918252 -67.78 191.18)"/><ellipse cx="105.32" cy="144.95" fill="none" rx="15.35" ry="6.21" stroke="#9eccc9" stroke-miterlimit="10" stroke-width=".53" transform="matrix(.99 -.16 .16 .99 -21.73 18.62)"/><circle cx="102.43" cy="146.23" fill="#dd4574" r="1.98" transform="matrix(.77648651 -.63013387 .63013387 .77648651 -69.25 97.22)"/><circle cx="107.42" cy="145.8" fill="#dd4574" r="1.98" transform="matrix(.77648651 -.63013387 .63013387 .77648651 -67.86 100.26)"/><circle cx="105.59" cy="141.64" fill="#dd4574" r="1.2" transform="matrix(.77659648 -.62999834 .62999834 .77659648 -65.65 98.18)"/><circle cx="105.32" cy="144.95" fill="none" r="21.16" stroke="#9eccc9" stroke-miterlimit="10"/><path d="m115.04 163.75 20.25 32.58" fill="none" stroke="#9eccc9" stroke-miterlimit="10" stroke-width=".94"/><circle cx="135.26" cy="196.27" fill="#9eccc9" r="2.57"/><path d="m149.62 139.85h-18.88a1 1 0 0 1 -1-1 1 1 0 0 1 1-1h18.88a1 1 0 0 1 1 1 1 1 0 0 1 -1 1z" fill="#9eccc9"/><path d="m149.62 143.82h-18.88a1 1 0 0 1 -1-1 1 1 0 0 1 1-1h18.88a1 1 0 0 1 1 1 1 1 0 0 1 -1 1z" fill="#9eccc9"/><path d="m140 147.79h-9.29a1 1 0 0 1 -1-1 1 1 0 0 1 1-1h9.29a1 1 0 0 1 1 1 1 1 0 0 1 -1 1z" fill="#9eccc9"/><circle cx="131.71" cy="31.38" fill="#9eccc9" r="4.88"/><circle cx="141.46" cy="41.88" fill="#9eccc9" r="3.63"/><circle cx="153.09" cy="29.13" fill="#9eccc9" r="2.63"/><circle cx="130.46" cy="53" fill="#9eccc9" r="6.13"/><circle cx="153.09" cy="47.69" fill="#9eccc9" r="4.63"/><path d="m131.71 31.38 9.75 10.5-11 11.12" fill="none" stroke="#9eccc9" stroke-miterlimit="10"/><path d="m153.09 29.13-11.63 12.75 11.63 5.81" fill="none" stroke="#9eccc9" stroke-miterlimit="10"/><path d="m194.52 35.93h-24.17a1 1 0 0 1 -1-1 1 1 0 0 1 1-1h24.17a1 1 0 0 1 1 1 1 1 0 0 1 -1 1z" fill="#9eccc9"/><path d="m193.12 31.28h-21.37a2.39 2.39 0 0 1 -2.39-2.39 2.39 2.39 0 0 1 2.39-2.39h21.37a2.39 2.39 0 0 1 2.39 2.39 2.39 2.39 0 0 1 -2.39 2.39z" fill="#9eccc9"/><path d="m182.64 39.9h-12.29a1 1 0 0 1 -1-1 1 1 0 0 1 1-1h12.29a1 1 0 0 1 1 1 1 1 0 0 1 -1 1z" fill="#9eccc9"/><path d="m194.52 39.9h-8.6a1 1 0 0 1 -1-1 1 1 0 0 1 1-1h8.6a1 1 0 0 1 1 1 1 1 0 0 1 -1 1z" fill="#9eccc9"/><path d="m179.64 43.87h-9.29a1 1 0 0 1 -1-1 1 1 0 0 1 1-1h9.29a1 1 0 0 1 1 1 1 1 0 0 1 -1 1z" fill="#9eccc9"/><rect fill="none" height="43.44" rx="2.12" stroke="#9eccc9" stroke-miterlimit="10" width="43.44" x="119.85" y="20.07"/><ellipse cx="318.71" cy="137.71" fill="none" rx="13.19" ry="5.34" stroke="#9eccc9" stroke-miterlimit="10" stroke-width=".46" transform="matrix(.32176999 -.94681787 .94681787 .32176999 85.77 395.16)"/><ellipse cx="318.71" cy="137.71" fill="none" rx="13.19" ry="5.34" stroke="#9eccc9" stroke-miterlimit="10" stroke-width=".46" transform="matrix(.98119173 -.19303574 .19303574 .98119173 -20.58 64.09)"/><ellipse cx="318.71" cy="137.71" fill="none" rx="5.34" ry="13.19" stroke="#9eccc9" stroke-miterlimit="10" stroke-width=".46" transform="matrix(.75080318 -.66052599 .66052599 .75080318 -11.55 244.8)"/><g fill="#9eccc9"><circle cx="317.93" cy="139.22" r="1.19" transform="matrix(.32176999 -.94681787 .94681787 .32176999 83.82 395.45)"/><circle cx="346.25" cy="158.68" r=".77" transform="matrix(.32176999 -.94681787 .94681787 .32176999 84.59 435.46)"/><circle cx="317" cy="135.5" r="1.7" transform="matrix(.32176999 -.94681787 .94681787 .32176999 86.71 392.04)"/><circle cx="327.01" cy="147.69" r="1.7" transform="matrix(.32176999 -.94681787 .94681787 .32176999 81.96 409.79)"/><circle cx="321.07" cy="136.88" r="1.55" transform="matrix(.32176999 -.94681787 .94681787 .32176999 88.16 396.83)"/><path d="m362.06 162.16h-12.62a.52.52 0 0 1 -.52-.52.52.52 0 0 1 .52-.52h12.62a.52.52 0 0 1 .52.52.52.52 0 0 1 -.52.52z"/><path d="m361.33 159.73h-11.16a1.25 1.25 0 0 1 -1.25-1.25 1.25 1.25 0 0 1 1.25-1.25h11.16a1.25 1.25 0 0 1 1.25 1.25 1.25 1.25 0 0 1 -1.25 1.25z"/><path d="m355.86 164.23h-6.42a.52.52 0 0 1 -.52-.52.52.52 0 0 1 .52-.52h6.42a.52.52 0 0 1 .52.52.52.52 0 0 1 -.52.52z"/><path d="m362.06 164.23h-4.49a.52.52 0 0 1 -.52-.52.52.52 0 0 1 .52-.52h4.49a.52.52 0 0 1 .52.52.52.52 0 0 1 -.52.52z"/><path d="m354.29 166.3h-4.85a.52.52 0 0 1 -.52-.52.52.52 0 0 1 .52-.52h4.85a.52.52 0 0 1 .52.52.52.52 0 0 1 -.52.52z"/></g><path d="m327.08 147.62 11.07 11.06h8.1" fill="none" stroke="#9eccc9" stroke-linecap="round" stroke-linejoin="round" stroke-width=".46"/><circle cx="265.02" cy="63.34" fill="#9eccc9" r="4.88" transform="matrix(.46808405 -.88368395 .88368395 .46808405 85 267.89)"/><circle cx="251.18" cy="67.04" fill="#9eccc9" r="5.38" transform="matrix(.46808405 -.88368395 .88368395 .46808405 74.37 257.63)"/><circle cx="255.25" cy="78.61" fill="#9eccc9" r="2.63" transform="matrix(.46808405 -.88368395 .88368395 .46808405 66.31 267.38)"/><circle cx="246.49" cy="52.12" fill="#9eccc9" r="6.12" transform="matrix(.46808405 -.88368395 .88368395 .46808405 85.07 245.55)"/><circle cx="240.59" cy="74.59" fill="#9eccc9" r="4.63" transform="matrix(.46808405 -.88368395 .88368395 .46808405 62.07 252.3)"/><path d="m250.84 67.65-4.82-15.38.95-.3 4.54 14.47 13.38-3.58.26.97z" fill="#9eccc9"/><path d="m254.78 78.78-3.85-10.95-10.05 7.17-.57-.81 11.11-7.94 4.3 12.19z" fill="#9eccc9"/><g fill="none"><g stroke="#9eccc9" stroke-miterlimit="10"><rect height="41.93" rx="2.81" width="91.39" x="229.15" y="43.87"/><path d="m274.84 43.87v41.93"/><path d="m274.84 54.35h45.7"/><path d="m274.84 64.83h45.7"/><path d="m274.84 75.31h45.7"/><path d="m286.45 43.87v41.93"/><path d="m297.69 43.87v41.93"/><path d="m309.3 43.87v41.93"/></g><path d="m277.25 49.25 2.2 2.21 4.75-4.75" stroke="#dd4574" stroke-linecap="round" stroke-linejoin="round"/><path d="m300.04 70.14 2.21 2.2 4.75-4.75" stroke="#dd4574" stroke-linecap="round" stroke-linejoin="round"/><path d="m288.68 81.25 2.21 2.21 4.75-4.75" stroke="#dd4574" stroke-linecap="round" stroke-linejoin="round"/></g><rect fill="#526684" height="8.92" rx="4.46" width="344.07" x="20.99" y="256.07"/><path d="m84.16 271h94.43" fill="none" stroke="#526684" stroke-linecap="round" stroke-miterlimit="10" stroke-width="3"/><path d="m188.75 271h41.25" fill="none" stroke="#526684" stroke-linecap="round" stroke-miterlimit="10" stroke-width="3"/></svg>