<?xml version="1.0" encoding="utf-8"?>
<!-- Generator: Adobe Illustrator 21.0.2, SVG Export Plug-In . SVG Version: 6.00 Build 0)  -->
<svg version="1.1" id="Layer_1" xmlns="http://www.w3.org/2000/svg" xmlns:xlink="http://www.w3.org/1999/xlink" x="0px" y="0px"
	 viewBox="0 0 390 380.6" style="enable-background:new 0 0 390 380.6;" xml:space="preserve">
<style type="text/css">
	.st0{fill:#5793CE;}
	.st1{fill:#396CAA;}
	.st2{fill:#D4ECFF;}
	.st3{fill:#FFFFFF;}
	.st4{fill:#EFEFEF;}
	.st5{fill:#173D7A;}
	.st6{fill:#FAFDFF;}
	.st7{opacity:0.4;fill:#D4ECFF;enable-background:new    ;}
	.st8{fill:#274F89;}
	.st9{fill:#FF2C9C;}
	.st10{fill:#D3008D;}
</style>
<title>ops</title>
<g id="Layer_2">
	<g id="_ÎÓÈ_1">
		<path class="st0" d="M263.9,134.6c-0.4,0-0.7-0.3-0.7-0.7c0,0,0,0,0,0v-28.5c0-0.4,0.3-0.7,0.7-0.7s0.7,0.3,0.7,0.7v28.5
			C264.6,134.3,264.3,134.6,263.9,134.6z"/>
		<rect x="261.4" y="103.7" class="st0" width="4.9" height="10.7"/>
		<path class="st0" d="M265.6,115.4c-1.1,0.6-2.4,0.6-3.5,0c-0.6-0.2-0.8-0.8-0.6-1.4c0.1-0.3,0.3-0.5,0.6-0.6
			c1.1-0.6,2.4-0.6,3.5,0c0.6,0.2,0.8,0.8,0.6,1.4C266.1,115,265.9,115.2,265.6,115.4z"/>
		<rect x="259.9" y="88.8" class="st0" width="8" height="16.7"/>
		<path class="st1" d="M261.4,105.4v3.6c1.6,0.7,3.4,0.7,4.9,0v-3.6C264.8,104.8,263,104.8,261.4,105.4z"/>
		<path class="st0" d="M266.7,107.2c-1.8,0.9-3.9,0.9-5.7,0c-1.6-0.9-1.6-2.4,0-3.3c1.8-0.9,3.9-0.9,5.7,0
			C268.3,104.8,268.3,106.3,266.7,107.2z"/>
		<path class="st0" d="M291.6,150.2c-0.4,0-0.7-0.3-0.7-0.7c0,0,0,0,0,0v-28.4c0-0.4,0.3-0.7,0.7-0.7s0.7,0.3,0.7,0.7v28.5
			C292.3,149.9,292,150.2,291.6,150.2z"/>
		<rect x="289.2" y="119.3" class="st0" width="4.9" height="10.7"/>
		<path class="st0" d="M293.4,131c-1.1,0.6-2.4,0.6-3.5,0c-0.6-0.2-0.8-0.8-0.6-1.4c0.1-0.3,0.3-0.5,0.6-0.6c1.1-0.6,2.4-0.6,3.5,0
			c0.6,0.2,0.8,0.8,0.6,1.4C293.9,130.6,293.7,130.9,293.4,131z"/>
		<rect x="287.6" y="104.4" class="st0" width="8" height="16.7"/>
		<path class="st1" d="M289.1,121v3.6c1.6,0.7,3.4,0.7,4.9,0V121C292.5,120.4,290.7,120.4,289.1,121z"/>
		<path class="st0" d="M294.5,122.8c-1.8,0.9-3.9,0.9-5.7,0c-1.6-0.9-1.6-2.4,0-3.3c1.8-0.9,3.9-0.9,5.7,0
			C296,120.4,296,121.9,294.5,122.8z"/>
		<polygon class="st0" points="318.6,132.2 329.4,125.9 319.1,113.1 316.4,117.5 		"/>
		<path class="st0" d="M240.6,62.1l17.1-9.9l-0.6,9.9l-9.9,3L240.6,62.1z"/>
		<path class="st0" d="M321.6,100.1c-1.1-0.7-2.4-1.1-3.7-1.4c-1.7-9.1-8-18.7-15.6-23.1c-1.9-1.2-4.1-1.9-6.4-2.2
			c-1-11-8.7-23.5-18-28.9c-4.8-2.8-9.2-3.2-12.5-1.5l0,0l-0.2,0.1l-0.2,0.1l-10.1,6l3.4,2.7c-3,1.3-4.9,4.7-4.9,9.7
			c0,9.2,6.5,20.4,14.5,25l53.8,38.4c6,3.5,10.9,0.7,10.9-6.3S327.6,103.5,321.6,100.1z"/>
		<path class="st0" d="M253.9,57.6l23.2-13.5c-4.5-2.3-8.6-2.5-11.6-0.9l0,0l-0.2,0.1l-0.2,0.1l-10.1,6l3.4,2.7
			C256,53.1,254.4,55.2,253.9,57.6z"/>
		<path class="st0" d="M296.7,97.5l16.9-9.9c-2.7-4.9-6.6-9-11.3-12c-0.6-0.3-1.2-0.6-1.7-0.9L279,87.3L296.7,97.5z"/>
		<path class="st2" d="M259.7,50.4l7.5,4.4l13.8-8.1c-1-0.8-2-1.5-3.1-2.1c-1.5-0.9-3.1-1.6-4.8-2L259.7,50.4z"/>
		<path class="st2" d="M311.8,84.7l-13.5,8l4.7,5.2l12.3-7.2C314.3,88.6,313.1,86.5,311.8,84.7z"/>
		<path class="st2" d="M311,106.3c-1.1-0.7-2.4-1.1-3.7-1.4c-1.7-9.1-8-18.7-15.6-23.1c-1.9-1.2-4.1-1.9-6.4-2.2
			c-1-11-8.7-23.5-18-28.9c-10-5.8-18.1-1.1-18.1,10.5c0,0.4,0,0.8,0,1.2c-7.3-3.4-13,0.4-13,9.1c0,9.2,6.5,20.4,14.5,25l60.3,34.8
			c6,3.5,10.9,0.7,10.9-6.3S317,109.8,311,106.3z"/>
		<path class="st3" d="M249.3,62.5c0-0.4,0-0.8,0-1.2l0,0c-4-1.6-7.5-0.9-9.7,1.6C241.9,60.9,245.3,60.6,249.3,62.5z"/>
		<path class="st3" d="M311.9,105.5c-1.2-0.7-2.4-1.1-3.7-1.4c-1.7-9.1-8-18.7-15.6-23.1c-1.9-1.2-4.1-1.9-6.4-2.2
			c-1-11-8.7-23.5-18-28.9c-6.2-3.6-11.7-3.1-15,0.5c3.3-2.8,8.4-3,14.1,0.3c9.3,5.4,17,17.9,18,28.9c2.3,0.2,4.4,1,6.4,2.2
			c7.5,4.3,13.9,14,15.6,23.1c1.3,0.2,2.6,0.7,3.7,1.4c6,3.5,10.9,11.9,10.9,18.8c0.1,2.1-0.5,4.1-1.7,5.8c1.6-1.2,2.6-3.5,2.6-6.6
			C322.7,117.3,317.9,108.9,311.9,105.5z"/>
		<path class="st1" d="M248,65.2l4.5,2.1l-0.2-5c0-0.4,0-0.7,0-1c0-4.5,1.4-7.7,3.8-9.1c2.4-1.4,5.9-1,9.8,1.3
			c8.3,4.8,15.5,16.5,16.5,26.6l0.2,2.5l2.5,0.2c1.8,0.2,3.5,0.8,5,1.7c6.6,3.8,12.5,12.7,14.1,21l0.4,2.1l2.1,0.3
			c0.9,0.2,1.8,0.5,2.7,1c5.1,2.9,9.3,10.3,9.3,16.2c0,2.2-0.6,3.8-1.7,4.4c-1.1,0.6-2.8,0.3-4.7-0.8l-60.3-34.8
			c-7-4-12.9-14.3-12.9-22.4c0-3.2,0.9-5.6,2.6-6.6c0.7-0.4,1.6-0.7,2.4-0.6C245.5,64.3,246.8,64.6,248,65.2z"/>
		<polygon class="st0" points="278.1,103 279.7,102.2 278.1,101 		"/>
		<polygon class="st0" points="273.3,81.5 274.8,80.7 274.9,81.5 		"/>
		<polygon class="st0" points="282.6,98 284.2,97.2 281.1,94.2 		"/>
		<path class="st0" d="M279.2,102.1l-7.5-4.4c-0.4-0.3-0.7-0.8-0.7-1.3v-8.7l8.9,5.2v8.7C279.9,102.2,279.6,102.4,279.2,102.1z"/>
		<path class="st0" d="M274.8,80.7l-8.1,5.2c-0.4,0.2-0.1,1.1,0.5,1.4l8.3,4.9l8.3,4.9c0.5,0.3,0.8-0.2,0.5-0.8l-8.1-14.8
			C275.8,80.9,275.1,80.5,274.8,80.7z"/>
		<path class="st2" d="M277.6,103l-7.5-4.4c-0.4-0.3-0.7-0.8-0.7-1.3v-8.7l8.9,5.2v8.7C278.3,103,278,103.2,277.6,103z"/>
		<path class="st2" d="M273.2,81.5l-8.1,5.2c-0.4,0.2-0.1,1,0.5,1.4l8.3,4.9l8.3,4.9c0.5,0.3,0.8-0.2,0.5-0.8l-8.1-14.8
			C274.2,81.7,273.6,81.3,273.2,81.5z"/>
		<path class="st2" d="M263.1,112.5c0,0.5-0.3,0.7-0.8,0.4c-0.5-0.3-0.7-0.8-0.8-1.3c0-0.5,0.3-0.7,0.8-0.4
			C262.8,111.5,263.1,112,263.1,112.5z"/>
		<path class="st2" d="M291,128.3c0,0.5-0.3,0.7-0.8,0.4c-0.5-0.3-0.7-0.8-0.8-1.3c0-0.5,0.3-0.7,0.8-0.4
			C290.6,127.3,290.9,127.8,291,128.3z"/>
		<path class="st4" d="M73.5,249.4l-17.3-10c-7.2-4.2-7.2-11,0-15.1l15.8-9.1c3.2-1.9,3.2-4.9,0-6.8l-13.8-7.9
			c-7.2-4.2-7.2-11,0-15.1l17.2-10c7.2-4.2,19-4.2,26.2,0l11.1,6.4l-7.2,4.2l-11.1-6.4c-3.7-1.9-8-1.9-11.7,0l-17.2,10
			c-3.2,1.9-3.2,4.9,0,6.8l13.8,7.9c7.2,4.2,7.2,11,0,15.1l-15.8,9.1c-3.2,1.9-3.2,4.9,0,6.8l17.3,10L73.5,249.4z"/>
		<path class="st0" d="M51,223.9l-0.2-0.4v1.7l0,0c-0.1,2.8,1.7,5.6,5.4,7.7l17.3,10l7.2-4.2l-17.3-10c-0.9-0.5-1.6-1.2-2-2
			c-3.9-0.3-6.9-2.3-9.6-4.8C51.4,222.6,51.2,223.2,51,223.9z"/>
		<path class="st5" d="M101.7,168.9c-7.2-4.2-19-4.2-26.2,0l-17.2,10c-1.8,1-3.4,2.4-4.5,4.2c2.8,2.6,5.5,5.5,9.9,5.1
			c-1.2-1.7-0.5-3.8,1.9-5.1l17.2-10c3.7-1.9,8-1.9,11.7,0l11.1,6.4l7.2-4.2L101.7,168.9z"/>
		<path class="st0" d="M82,199.9c-0.8-0.8-1.8-1.5-2.8-2.1l-13.8-7.9c-0.7-0.4-1.4-1-1.8-1.6c-4.4,0.4-7.1-2.4-9.9-5.1
			c-0.3,0.5-0.5,1.1-0.7,1.7l-0.2-0.3v1.9l0,0c0,2.8,1.8,5.5,5.4,7.6l13.8,7.9c2.1,1.2,2.8,2.9,2.2,4.5
			C77,205.7,79.3,202.2,82,199.9z"/>
		<path class="st5" d="M84.4,203.7c-0.4-1.5-1.2-2.8-2.4-3.9c-2.8,2.3-5,5.9-7.9,6.6c-0.5,1-1.2,1.8-2.2,2.2l-15.8,9.1
			c-1.8,1-3.4,2.4-4.5,4.2c2.8,2.5,5.8,4.5,9.6,4.8c-0.9-1.6-0.2-3.5,2-4.8l15.8-9.1c3.6-2.1,5.4-4.8,5.4-7.5l0,0v-1.9L84.4,203.7z"
			/>
		<path class="st3" d="M58.2,192.1L72,200c1.2,0.6,2.1,1.7,2.4,3c0.2-1.4-0.6-2.7-2.4-3.8l-13.7-7.9c-3.4-2-5.2-4.6-5.4-7.2
			C52.7,187,54.4,189.9,58.2,192.1z"/>
		<path class="st3" d="M73.5,240.3l-17.3-10c-3.4-2-5.2-4.6-5.4-7.2c-0.2,2.9,1.6,5.8,5.4,7.9l17.3,10l7.2-4.2l-0.7-0.4L73.5,240.3z
			"/>
		<path class="st3" d="M105.5,176.8l-11.1-6.4c-3.7-1.9-8-1.9-11.7,0l-17.2,10c-1.8,1-2.6,2.4-2.4,3.8c0.3-1.3,1.2-2.4,2.4-3
			l17.2-10c3.7-1.9,8-1.9,11.7,0l11.1,6.4l7.2-4.2l-0.6-0.4L105.5,176.8z"/>
		<path class="st3" d="M79.2,210.2l-15.8,9.1c-1.8,1-2.6,2.4-2.4,3.8c0.3-1.3,1.2-2.4,2.4-3l15.8-9.1c3.8-2.2,5.6-5.1,5.4-7.9
			C84.4,205.6,82.7,208.2,79.2,210.2z"/>
		<path class="st2" d="M73.5,241l-17.3-10c-7.2-4.2-7.2-11,0-15.1l15.8-9.1c3.2-1.9,3.2-4.9,0-6.8l-13.7-8c-7.2-4.2-7.2-11,0-15.1
			l17.2-10c7.2-4.2,19-4.2,26.2,0l11.1,6.4l-7.2,4.2l-11.1-6.4c-3.7-1.9-8-1.9-11.7,0l-17.2,9.9c-3.2,1.9-3.2,4.9,0,6.8l13.8,7.9
			c7.2,4.2,7.2,11,0,15.1l-15.8,9.2c-3.2,1.9-3.2,4.9,0,6.8l17.3,10L73.5,241z"/>
		<path class="st0" d="M82.2,235.4L82.2,235.4c-0.4-0.2-0.9-0.2-1.2,0.1l-8,4.6c-1,0.6-1.6,1.7-1.7,2.9c0,0.4,0.1,0.8,0.4,1l8.6,5
			l10.3-8.7L82.2,235.4z"/>
		<path class="st0" d="M89.5,240.4l-8,4.6c-1,0.6-1.6,1.7-1.7,2.9c0,1.1,0.7,1.5,1.7,1l8-4.6c1-0.6,1.6-1.7,1.7-2.9
			C91.1,240.3,90.4,239.9,89.5,240.4z"/>
		<path class="st0" d="M104.5,165.8L104.5,165.8c-0.4-0.2-0.9-0.2-1.2,0.1l-8,4.6c-1,0.6-1.6,1.7-1.7,2.9c0,0.4,0.1,0.8,0.4,1l8.6,5
			l10.3-8.7L104.5,165.8z"/>
		<path class="st4" d="M142.9,228.9l-41.5-23.6c-1.5-0.9-1.3-2.4,0.4-3.4l23.8-13.8c1.8-1,4-1.1,5.9-0.2l41.5,23.6
			c1.5,0.9,1.3,2.4-0.4,3.4l-23.9,13.8C147,229.6,144.8,229.7,142.9,228.9z"/>
		<path class="st1" d="M176.8,203.5L176.8,203.5v-96.8l-38.5-10.1l-7.1-4.1c-2-0.9-4.4-0.8-6.3,0.3l-6.6,3.8H97.8l6.1,93.4
			c0,0.7,0.4,1.4,1.1,1.7l38.4,29c2,0.9,4.4,0.8,6.4-0.3l25.6-14.8C176.2,205.3,176.8,204.5,176.8,203.5z"/>
		<path class="st2" d="M128.3,91.9c-1.2,0-2.4,0.3-3.4,0.9l-6.6,3.8H97.8v97c0,0.7,0.4,1.4,1.1,1.7l44.5,25.4
			c0.9,0.5,1.9,0.7,2.9,0.6l0.5-97.7L128.3,91.9z"/>
		<path class="st0" d="M143.7,220.9c1.6,0.6,3.4,0.6,5.1-0.1v-98.3h-5.1V220.9z"/>
		<path class="st2" d="M143.3,123.7L98.9,98.3c-1.6-0.9-1.4-2.6,0.5-3.7l25.6-14.8c2-1.1,4.3-1.2,6.3-0.3l44.5,25.4
			c1.6,0.9,1.4,2.6-0.5,3.7l-25.6,14.8C147.7,124.5,145.4,124.6,143.3,123.7z"/>
		<path class="st6" d="M175.3,106.9l-25.6,14.8c-2,1.1-4.3,1.2-6.3,0.3L98.9,96.5c-0.3-0.2-0.6-0.4-0.8-0.7
			c-0.5,0.8-0.3,1.8,0.5,2.4c0.1,0.1,0.2,0.1,0.3,0.2l44.5,25.4c2,0.9,4.4,0.8,6.4-0.3l25.6-14.8c1.5-0.8,1.9-2,1.3-2.9
			C176.2,106.2,175.8,106.6,175.3,106.9z"/>
		<path class="st5" d="M144.6,113.4L115,96.3c-0.8-0.4-0.7-1.2,0.2-1.7l12-6.9c0.9-0.5,2-0.6,3-0.1l29.6,17.2
			c0.8,0.4,0.7,1.2-0.2,1.7l-12,6.9C146.7,113.8,145.6,113.9,144.6,113.4z"/>
		<path class="st2" d="M128.6,97l-1.7-1c-0.1-0.1-0.1-0.2,0-0.2l1.7-1c0.1-0.1,0.3-0.1,0.4,0l1.7,1c0.1,0.1,0.1,0.2,0,0.2l-1.7,1
			C128.9,97.1,128.7,97.1,128.6,97z"/>
		<path class="st2" d="M134.3,100.3l-1.7-1c-0.1-0.1-0.1-0.2,0-0.2l1.7-1c0.1-0.1,0.3-0.1,0.4,0l1.7,1c0.1,0.1,0.1,0.2,0,0.2l-1.7,1
			C134.6,100.4,134.5,100.4,134.3,100.3z"/>
		<path class="st2" d="M140.1,103.6l-1.7-1c-0.1-0.1-0.1-0.2,0-0.2l1.7-1c0.1-0.1,0.3-0.1,0.4,0l1.7,1c0.1,0.1,0.1,0.2,0,0.2l-1.7,1
			C140.3,103.7,140.2,103.7,140.1,103.6z"/>
		<path class="st2" d="M145.8,106.9l-1.7-1c-0.1-0.1-0.1-0.2,0-0.2l1.7-1c0.1-0.1,0.3-0.1,0.4,0l1.7,1c0.1,0.1,0.1,0.2,0,0.2l-1.7,1
			C146.1,107,145.9,107,145.8,106.9z"/>
		<path class="st0" d="M115,96.3L115,96.3l0.2-0.1l12-6.9c0.9-0.5,2-0.6,3-0.1l29.6,17.1c0.7-0.5,0.7-1.2,0-1.6l-29.6-17.1
			c-1-0.4-2.1-0.4-3,0.1l-12,6.9C114.3,95.1,114.2,95.8,115,96.3z"/>
		<path class="st5" d="M154.7,142.9l16.8-9.6c1.1-0.8,1.7-2,1.7-3.3v-6c0-1.3-0.8-1.8-1.7-1.3l-16.8,9.6c-1.1,0.8-1.7,2-1.7,3.3v6
			C153,142.8,153.7,143.4,154.7,142.9z"/>
		<path class="st3" d="M172.3,122.5c0.3,0.3,0.5,0.8,0.4,1.2v6c0,1.3-0.7,2.5-1.7,3.3l-16.8,9.6c-0.2,0.2-0.5,0.2-0.8,0.2
			c0.4,0.3,0.9,0.3,1.3,0l16.8-9.6c1.1-0.8,1.7-2,1.7-3.3v-6C173.2,123.1,172.9,122.5,172.3,122.5z"/>
		<path class="st1" d="M159.7,136.3l1.5-0.9c0.2-0.2,0.4-0.4,0.4-0.7v-1.6c0-0.3-0.2-0.4-0.4-0.3l-1.5,0.9c-0.2,0.2-0.4,0.4-0.4,0.7
			v1.7C159.4,136.3,159.5,136.4,159.7,136.3z"/>
		<path class="st3" d="M164.9,133.3l1.5-0.9c0.2-0.2,0.4-0.4,0.4-0.7v-1.6c0-0.3-0.2-0.4-0.4-0.3l-1.5,0.9c-0.2,0.2-0.4,0.4-0.4,0.7
			v1.7C164.5,133.3,164.7,133.5,164.9,133.3z"/>
		<path class="st5" d="M154.7,186.4l16.8-9.6c1.1-0.8,1.7-2,1.7-3.3v-6c0-1.3-0.8-1.8-1.7-1.3l-16.8,9.6c-1.1,0.8-1.7,2-1.7,3.3v6
			C153,186.3,153.7,186.9,154.7,186.4z"/>
		<path class="st3" d="M172.3,166c0.3,0.3,0.5,0.8,0.4,1.2v6c0,1.3-0.7,2.5-1.7,3.3l-16.8,9.6c-0.2,0.2-0.5,0.2-0.8,0.2
			c0.4,0.3,0.9,0.3,1.3,0l16.8-9.6c1.1-0.8,1.7-2,1.7-3.3v-6C173.2,166.6,172.9,166,172.3,166z"/>
		<path class="st1" d="M159.7,179.8l1.5-0.9c0.2-0.2,0.4-0.4,0.4-0.7v-1.6c0-0.3-0.2-0.4-0.4-0.3l-1.5,0.9c-0.2,0.2-0.4,0.4-0.4,0.7
			v1.6C159.4,179.8,159.5,179.9,159.7,179.8z"/>
		<path class="st3" d="M164.9,176.8l1.5-0.9c0.2-0.2,0.4-0.4,0.4-0.7v-1.6c0-0.3-0.2-0.4-0.4-0.3l-1.5,0.9c-0.2,0.2-0.4,0.4-0.4,0.7
			v1.6C164.5,176.8,164.7,177,164.9,176.8z"/>
		<path class="st5" d="M154.7,208.1l16.8-9.6c1.1-0.8,1.7-2,1.7-3.3v-6c0-1.3-0.8-1.8-1.7-1.3l-16.8,9.6c-1.1,0.8-1.7,2-1.7,3.3v6
			C153,208.1,153.7,208.7,154.7,208.1z"/>
		<path class="st3" d="M172.3,187.7c0.3,0.3,0.5,0.8,0.4,1.2v6c0,1.3-0.7,2.5-1.7,3.3l-16.8,9.6c-0.2,0.2-0.5,0.2-0.8,0.2
			c0.4,0.3,0.9,0.3,1.3,0l16.8-9.6c1.1-0.8,1.7-2,1.7-3.3v-6C173.2,188.3,172.9,187.8,172.3,187.7z"/>
		<path class="st1" d="M159.7,201.6l1.5-0.9c0.2-0.2,0.4-0.4,0.4-0.7v-1.6c0-0.3-0.2-0.4-0.4-0.3l-1.5,0.9c-0.2,0.2-0.4,0.4-0.4,0.7
			v1.6C159.4,201.6,159.5,201.7,159.7,201.6z"/>
		<path class="st3" d="M164.9,198.6l1.5-0.9c0.2-0.2,0.4-0.4,0.4-0.7v-1.6c0-0.3-0.2-0.4-0.4-0.3l-1.5,0.9c-0.2,0.2-0.4,0.4-0.4,0.7
			v1.6C164.5,198.6,164.7,198.7,164.9,198.6z"/>
		<path class="st5" d="M154.7,164.6l16.8-9.6c1.1-0.8,1.7-2,1.7-3.3v-6c0-1.3-0.8-1.8-1.7-1.3l-16.8,9.6c-1.1,0.8-1.7,2-1.7,3.3v6
			C153,164.6,153.7,165.2,154.7,164.6z"/>
		<path class="st3" d="M172.3,144.2c0.3,0.3,0.5,0.8,0.4,1.2v6c0,1.3-0.7,2.5-1.7,3.3l-16.8,9.6c-0.2,0.2-0.5,0.2-0.8,0.2
			c0.4,0.3,0.9,0.3,1.3,0l16.8-9.6c1.1-0.8,1.7-2,1.7-3.3v-6C173.2,144.8,172.9,144.3,172.3,144.2z"/>
		<path class="st1" d="M159.7,158.1l1.5-0.9c0.2-0.2,0.4-0.4,0.4-0.7v-1.6c0-0.3-0.2-0.4-0.4-0.3l-1.5,0.9c-0.2,0.2-0.4,0.4-0.4,0.7
			v1.7C159.4,158.1,159.5,158.2,159.7,158.1z"/>
		<path class="st3" d="M164.9,155.1l1.5-0.9c0.2-0.2,0.4-0.4,0.4-0.7v-1.6c0-0.3-0.2-0.4-0.4-0.3l-1.5,0.9c-0.2,0.2-0.4,0.4-0.4,0.7
			v1.7C164.5,155.1,164.7,155.2,164.9,155.1z"/>
		<path class="st0" d="M140.1,136.7l-38.9-22.4c-1-0.7-1.6-1.8-1.6-3v-7.4c0-1.2,0.7-1.7,1.6-1.2l38.9,22.4c1,0.7,1.6,1.8,1.6,3v7.4
			C141.7,136.7,141,137.2,140.1,136.7z"/>
		<path class="st7" d="M139,134.1L102.4,113c-0.5-0.4-0.8-0.9-0.8-1.5v-5.6c0-0.6,0.4-0.9,0.8-0.6l36.6,21.1
			c0.5,0.4,0.8,0.9,0.8,1.5v5.6C139.8,134.1,139.4,134.4,139,134.1z"/>
		<path class="st2" d="M110,114.6l-5.5-3.2c-0.5-0.3-0.8-0.9-0.8-1.5l0,0c0-0.6,0.3-0.8,0.8-0.6l5.5,3.2c0.5,0.3,0.8,0.9,0.8,1.5
			l0,0C110.8,114.5,110.4,114.8,110,114.6z"/>
		<path class="st5" d="M114.7,116.2c0,0.6-0.4,0.8-0.9,0.5c-0.5-0.3-0.9-0.9-0.9-1.6c0-0.6,0.4-0.8,0.9-0.5
			C114.3,115,114.6,115.6,114.7,116.2z"/>
		<path class="st5" d="M117.8,118c0,0.6-0.4,0.8-0.9,0.5c-0.5-0.3-0.9-0.9-0.9-1.6c0-0.6,0.4-0.8,0.9-0.5
			C117.4,116.8,117.8,117.4,117.8,118z"/>
		<path class="st2" d="M121,119.9c0,0.6-0.4,0.8-0.9,0.5c-0.5-0.3-0.9-0.9-0.9-1.6c0-0.6,0.4-0.8,0.9-0.5
			C120.6,118.7,120.9,119.2,121,119.9z"/>
		<path class="st5" d="M124.1,121.7c0,0.6-0.4,0.8-0.9,0.5c-0.5-0.3-0.9-0.9-0.9-1.6c0-0.6,0.4-0.8,0.9-0.5
			C123.8,120.5,124.1,121.1,124.1,121.7z"/>
		<path class="st5" d="M137.4,131l-1.8-1.1c-0.3-0.2-0.5-0.6-0.5-1v-1.9c0-0.4,0.2-0.5,0.5-0.4l1.8,1.1c0.3,0.2,0.5,0.6,0.5,1v1.9
			C137.9,131,137.7,131.2,137.4,131z"/>
		<path class="st0" d="M140.1,149.8l-38.9-22.4c-1-0.7-1.6-1.8-1.6-3v-7.4c0-1.2,0.7-1.7,1.6-1.2l38.9,22.4c1,0.7,1.6,1.8,1.6,3v7.4
			C141.7,149.7,141,150.3,140.1,149.8z"/>
		<path class="st7" d="M139,147.2L102.4,126c-0.5-0.4-0.8-0.9-0.8-1.5v-5.6c0-0.6,0.4-0.9,0.8-0.6l36.6,21.1
			c0.5,0.4,0.8,0.9,0.8,1.5v5.6C139.8,147.2,139.4,147.4,139,147.2z"/>
		<path class="st2" d="M110,127.6l-5.5-3.2c-0.5-0.3-0.8-0.9-0.8-1.5l0,0c0-0.6,0.3-0.8,0.8-0.6l5.5,3.2c0.5,0.3,0.8,0.9,0.8,1.5
			l0,0C110.8,127.6,110.4,127.9,110,127.6z"/>
		<path class="st3" d="M114.7,129.3c0,0.6-0.4,0.8-0.9,0.5c-0.5-0.3-0.9-0.9-0.9-1.6c0-0.6,0.4-0.8,0.9-0.5
			C114.3,128.1,114.6,128.6,114.7,129.3z"/>
		<path class="st5" d="M117.8,131.1c0,0.6-0.4,0.8-0.9,0.5c-0.5-0.3-0.9-0.9-0.9-1.6c0-0.6,0.4-0.8,0.9-0.5
			C117.4,129.9,117.8,130.5,117.8,131.1z"/>
		<path class="st2" d="M121,132.9c0,0.6-0.4,0.8-0.9,0.5c-0.5-0.3-0.9-0.9-0.9-1.6c0-0.6,0.4-0.8,0.9-0.5
			C120.6,131.7,120.9,132.3,121,132.9z"/>
		<path class="st5" d="M124.1,134.7c0,0.6-0.4,0.8-0.9,0.5c-0.5-0.3-0.9-0.9-0.9-1.6c0-0.6,0.4-0.8,0.9-0.5
			C123.8,133.5,124.1,134.1,124.1,134.7z"/>
		<path class="st5" d="M137.4,144.1l-1.8-1.1c-0.3-0.2-0.5-0.6-0.5-1v-1.9c0-0.4,0.2-0.5,0.5-0.4l1.8,1.1c0.3,0.2,0.5,0.6,0.5,1v1.9
			C137.9,144.1,137.7,144.2,137.4,144.1z"/>
		<path class="st0" d="M140.1,162.8l-38.9-22.4c-1-0.7-1.6-1.8-1.6-3V130c0-1.2,0.7-1.7,1.6-1.2l38.9,22.4c1,0.7,1.6,1.8,1.6,3v7.4
			C141.7,162.8,141,163.3,140.1,162.8z"/>
		<path class="st7" d="M139,160.2l-36.6-21.1c-0.5-0.4-0.8-0.9-0.8-1.5V132c0-0.6,0.4-0.9,0.8-0.6l36.6,21.1
			c0.5,0.4,0.8,0.9,0.8,1.5v5.6C139.8,160.2,139.4,160.5,139,160.2z"/>
		<path class="st2" d="M110,140.7l-5.5-3.2c-0.5-0.3-0.7-0.9-0.8-1.4l0,0c0-0.6,0.3-0.8,0.8-0.6l5.5,3.1c0.5,0.3,0.7,0.9,0.8,1.4
			l0,0C110.8,140.7,110.4,140.9,110,140.7z"/>
		<path class="st3" d="M114.7,142.3c0,0.6-0.4,0.8-0.9,0.5c-0.5-0.3-0.9-0.9-0.9-1.6c0-0.6,0.4-0.8,0.9-0.5
			C114.3,141.1,114.6,141.7,114.7,142.3z"/>
		<path class="st5" d="M117.8,144.2c0,0.6-0.4,0.8-0.9,0.5c-0.5-0.3-0.9-0.9-0.9-1.6c0-0.6,0.4-0.8,0.9-0.5
			C117.4,143,117.8,143.5,117.8,144.2z"/>
		<path class="st2" d="M121,146c0,0.6-0.4,0.8-0.9,0.5c-0.5-0.3-0.9-0.9-0.9-1.6c0-0.6,0.4-0.8,0.9-0.5
			C120.6,144.8,120.9,145.4,121,146z"/>
		<path class="st5" d="M124.1,147.8c0,0.6-0.4,0.8-0.9,0.5c-0.5-0.3-0.9-0.9-0.9-1.6c0-0.6,0.4-0.8,0.9-0.5
			C123.8,146.6,124.1,147.2,124.1,147.8z"/>
		<path class="st5" d="M137.4,157.1l-1.8-1c-0.3-0.2-0.5-0.6-0.5-1v-1.9c0-0.4,0.2-0.5,0.5-0.4l1.8,1.1c0.3,0.2,0.5,0.6,0.5,1v1.9
			C137.9,157.1,137.7,157.3,137.4,157.1z"/>
		<path class="st0" d="M140.1,175.9l-38.9-22.4c-1-0.7-1.6-1.8-1.6-3v-7.4c0-1.2,0.7-1.7,1.6-1.2l38.9,22.4c1,0.7,1.6,1.8,1.6,3v7.4
			C141.7,175.9,141,176.4,140.1,175.9z"/>
		<path class="st7" d="M139,173.3l-36.6-21.1c-0.5-0.4-0.8-0.9-0.8-1.5v-5.5c0-0.6,0.4-0.9,0.8-0.6l36.6,21.1
			c0.5,0.4,0.8,0.9,0.8,1.5v5.6C139.8,173.3,139.4,173.5,139,173.3z"/>
		<path class="st2" d="M110,153.7l-5.5-3.1c-0.5-0.3-0.8-0.9-0.8-1.5l0,0c0-0.6,0.3-0.8,0.8-0.6l5.5,3.2c0.5,0.3,0.8,0.9,0.8,1.5
			l0,0C110.8,153.7,110.4,154,110,153.7z"/>
		<path class="st5" d="M114.7,155.4c0,0.6-0.4,0.8-0.9,0.5c-0.5-0.3-0.9-0.9-0.9-1.6c0-0.6,0.4-0.8,0.9-0.5
			C114.3,154.2,114.6,154.8,114.7,155.4z"/>
		<path class="st5" d="M117.8,157.2c0,0.6-0.4,0.8-0.9,0.5c-0.5-0.3-0.9-0.9-0.9-1.6c0-0.6,0.4-0.8,0.9-0.5
			C117.4,156,117.8,156.6,117.8,157.2z"/>
		<path class="st2" d="M121,159c0,0.6-0.4,0.8-0.9,0.5c-0.5-0.3-0.9-0.9-0.9-1.6c0-0.6,0.4-0.8,0.9-0.5
			C120.6,157.8,120.9,158.4,121,159z"/>
		<path class="st5" d="M124.1,160.9c0,0.6-0.4,0.8-0.9,0.5c-0.5-0.3-0.9-0.9-0.9-1.6c0-0.6,0.4-0.8,0.9-0.5
			C123.8,159.7,124.1,160.2,124.1,160.9z"/>
		<path class="st2" d="M137.4,170.2l-1.8-1.1c-0.3-0.2-0.5-0.6-0.5-1v-1.9c0-0.4,0.2-0.5,0.5-0.4l1.8,1.1c0.3,0.2,0.5,0.6,0.5,1v1.9
			C137.9,170.2,137.7,170.3,137.4,170.2z"/>
		<path class="st0" d="M140.1,188.9l-38.9-22.4c-1-0.7-1.6-1.8-1.6-3v-7.4c0-1.2,0.7-1.7,1.6-1.2l38.9,22.4c1,0.7,1.6,1.8,1.6,3v7.4
			C141.7,188.9,141,189.4,140.1,188.9z"/>
		<path class="st7" d="M139,186.3l-36.6-21.1c-0.5-0.4-0.8-0.9-0.8-1.5v-5.6c0-0.6,0.4-0.9,0.8-0.6l36.6,21.1
			c0.5,0.4,0.8,0.9,0.8,1.5v5.6C139.8,186.3,139.4,186.6,139,186.3z"/>
		<path class="st2" d="M110,166.8l-5.5-3.2c-0.5-0.3-0.8-0.9-0.8-1.5l0,0c0-0.6,0.3-0.8,0.8-0.6l5.5,3.1c0.5,0.3,0.8,0.9,0.8,1.5
			l0,0C110.8,166.8,110.4,167.1,110,166.8z"/>
		<path class="st5" d="M114.7,168.5c0,0.6-0.4,0.8-0.9,0.5c-0.5-0.3-0.9-0.9-0.9-1.6c0-0.6,0.4-0.8,0.9-0.5
			C114.3,167.3,114.6,167.8,114.7,168.5z"/>
		<path class="st3" d="M117.8,170.3c0,0.6-0.4,0.8-0.9,0.5c-0.5-0.3-0.9-0.9-0.9-1.6c0-0.6,0.4-0.8,0.9-0.5
			C117.4,169.1,117.8,169.6,117.8,170.3z"/>
		<path class="st2" d="M121,172.1c0,0.6-0.4,0.8-0.9,0.5c-0.5-0.3-0.9-0.9-0.9-1.5c0-0.6,0.4-0.8,0.9-0.5
			C120.6,170.9,120.9,171.5,121,172.1z"/>
		<path class="st3" d="M124.1,173.9c0,0.6-0.4,0.8-0.9,0.5c-0.5-0.3-0.9-0.9-0.9-1.6c0-0.6,0.4-0.8,0.9-0.5
			C123.8,172.7,124.1,173.3,124.1,173.9z"/>
		<path class="st2" d="M137.4,183.2l-1.8-1.1c-0.3-0.2-0.5-0.6-0.5-1v-1.9c0-0.4,0.2-0.5,0.5-0.4l1.8,1.1c0.3,0.2,0.5,0.6,0.5,1v1.9
			C137.9,183.2,137.7,183.4,137.4,183.2z"/>
		<path class="st0" d="M140.1,202l-38.9-22.4c-1-0.7-1.6-1.8-1.6-3v-7.4c0-1.2,0.7-1.7,1.6-1.2l38.9,22.4c1,0.7,1.6,1.8,1.6,3v7.4
			C141.7,202,141,202.5,140.1,202z"/>
		<path class="st7" d="M139,199.4l-36.6-21.1c-0.5-0.4-0.8-0.9-0.8-1.5v-5.6c0-0.6,0.4-0.9,0.8-0.6l36.6,21.1
			c0.5,0.4,0.8,0.9,0.8,1.5v5.6C139.8,199.4,139.4,199.7,139,199.4z"/>
		<path class="st2" d="M110,179.9l-5.5-3.1c-0.5-0.3-0.8-0.9-0.8-1.5l0,0c0-0.6,0.3-0.8,0.8-0.6l5.5,3.1c0.5,0.3,0.8,0.9,0.8,1.5
			l0,0C110.8,179.8,110.4,180.1,110,179.9z"/>
		<path class="st5" d="M114.7,181.5c0,0.6-0.4,0.8-0.9,0.5c-0.5-0.3-0.9-0.9-0.9-1.6c0-0.6,0.4-0.8,0.9-0.5
			C114.3,180.3,114.6,180.9,114.7,181.5z"/>
		<path class="st5" d="M117.8,183.3c0,0.6-0.4,0.8-0.9,0.5c-0.5-0.3-0.9-0.9-0.9-1.6c0-0.6,0.4-0.8,0.9-0.5
			C117.4,182.1,117.8,182.7,117.8,183.3z"/>
		<path class="st2" d="M121,185.2c0,0.6-0.4,0.8-0.9,0.5c-0.6-0.3-0.9-0.9-0.9-1.6c0-0.6,0.4-0.8,0.9-0.5
			C120.6,183.9,120.9,184.5,121,185.2z"/>
		<path class="st5" d="M124.1,187c0,0.6-0.4,0.8-0.9,0.5c-0.5-0.3-0.9-0.9-0.9-1.6c0-0.6,0.4-0.8,0.9-0.5
			C123.8,185.8,124.1,186.4,124.1,187z"/>
		<path class="st5" d="M137.4,196.3l-1.8-1.1c-0.3-0.2-0.5-0.6-0.5-1v-1.9c0-0.4,0.2-0.5,0.5-0.4l1.8,1.1c0.3,0.2,0.5,0.6,0.5,1v1.9
			C137.9,196.3,137.7,196.5,137.4,196.3z"/>
		<path class="st0" d="M140.1,215.1l-38.9-22.5c-1-0.7-1.6-1.8-1.6-3v-7.4c0-1.2,0.7-1.7,1.6-1.2l38.9,22.4c1,0.7,1.6,1.8,1.6,3v7.4
			C141.7,215,141,215.6,140.1,215.1z"/>
		<path class="st7" d="M139,212.5l-36.6-21.1c-0.5-0.4-0.8-0.9-0.8-1.5v-5.6c0-0.6,0.4-0.9,0.8-0.6l36.6,21.1
			c0.5,0.4,0.8,0.9,0.8,1.5v5.6C139.8,212.4,139.4,212.7,139,212.5z"/>
		<path class="st2" d="M110,192.9l-5.5-3.1c-0.5-0.3-0.8-0.9-0.8-1.5l0,0c0-0.6,0.3-0.8,0.8-0.6l5.5,3.1c0.5,0.3,0.8,0.9,0.8,1.5
			l0,0C110.8,192.9,110.4,193.2,110,192.9z"/>
		<path class="st3" d="M115.7,195.3c0,1.1-0.8,1.5-1.7,1c-1-0.7-1.6-1.7-1.7-2.9c0-1.1,0.8-1.5,1.7-1
			C115,193,115.6,194.1,115.7,195.3z"/>
		<path class="st5" d="M122.2,199.1c0,0.6-0.4,0.8-0.9,0.5c-0.5-0.3-0.9-0.9-0.9-1.6c0-0.6,0.4-0.8,0.9-0.5
			C121.8,197.9,122.2,198.5,122.2,199.1z"/>
		<path class="st2" d="M125.4,200.9c0,0.6-0.4,0.8-0.9,0.5c-0.5-0.3-0.9-0.9-0.9-1.6c0-0.6,0.4-0.8,0.9-0.5
			C125,199.7,125.3,200.3,125.4,200.9z"/>
		<path class="st5" d="M128.5,202.8c0,0.6-0.4,0.8-0.9,0.5c-0.5-0.3-0.9-0.9-0.9-1.6c0-0.6,0.4-0.8,0.9-0.5
			C128.1,201.6,128.5,202.1,128.5,202.8z"/>
		<path class="st2" d="M137.4,209.4l-1.8-1.1c-0.3-0.2-0.5-0.6-0.5-1v-1.9c0-0.4,0.2-0.5,0.5-0.4l1.8,1.1c0.3,0.2,0.5,0.6,0.5,1v1.9
			C137.9,209.4,137.7,209.5,137.4,209.4z"/>
		<path class="st4" d="M205.4,264.8L164,241.1c-1.5-0.9-1.3-2.4,0.4-3.4l23.9-13.8c1.8-1,4-1.1,5.9-0.2l41.4,23.6
			c1.5,0.9,1.3,2.4-0.4,3.4l-23.8,13.8C209.5,265.5,207.3,265.6,205.4,264.8z"/>
		<path class="st1" d="M239.3,239.4L239.3,239.4v-96.8l-38.5-10.1l-7.1-4.1c-2-0.9-4.4-0.8-6.4,0.3l-6.6,3.8h-20.5l6.1,93.4
			c0,0.7,0.4,1.4,1.1,1.7l38.4,29c2,0.9,4.4,0.8,6.4-0.3l25.6-14.8C238.7,241.2,239.3,240.3,239.3,239.4z"/>
		<path class="st2" d="M190.8,127.8c-1.2,0-2.4,0.3-3.4,0.9l-6.6,3.8h-20.5v97c0,0.7,0.4,1.4,1.1,1.7l44.5,25.4
			c0.9,0.5,1.9,0.7,2.9,0.6l0.5-97.7L190.8,127.8z"/>
		<path class="st0" d="M206.2,256.8c1.6,0.6,3.4,0.6,5.1-0.1v-98.3h-5.1V256.8z"/>
		<path class="st2" d="M205.8,159.6l-44.5-25.3c-1.6-0.9-1.4-2.6,0.5-3.7l25.6-14.8c2-1.1,4.3-1.2,6.4-0.3l44.5,25.4
			c1.6,0.9,1.4,2.6-0.5,3.7l-25.6,14.8C210.2,160.4,207.9,160.5,205.8,159.6z"/>
		<path class="st6" d="M237.8,142.8l-25.6,14.8c-2,1.1-4.3,1.2-6.4,0.3l-44.4-25.4c-0.3-0.2-0.6-0.4-0.8-0.7
			c-0.5,0.8-0.3,1.8,0.5,2.4c0.1,0.1,0.2,0.1,0.3,0.2l44.5,25.4c2,0.9,4.4,0.8,6.4-0.3l25.6-14.8c1.5-0.8,1.9-2,1.3-2.9
			C238.7,142.1,238.3,142.5,237.8,142.8z"/>
		<path class="st5" d="M207.1,149.3l-29.6-17.2c-0.8-0.4-0.7-1.2,0.2-1.7l12-6.9c0.9-0.5,2-0.6,3-0.1l29.6,17.2
			c0.8,0.4,0.7,1.2-0.2,1.7l-12,6.9C209.1,149.7,208,149.7,207.1,149.3z"/>
		<path class="st2" d="M191.1,132.9l-1.7-1c-0.1-0.1-0.1-0.2,0-0.2l1.7-1c0.1-0.1,0.3-0.1,0.4,0l1.7,1c0.1,0.1,0.1,0.2,0,0.2l-1.7,1
			C191.4,133,191.3,133,191.1,132.9z"/>
		<path class="st2" d="M196.8,136.2l-1.7-1c-0.1-0.1-0.1-0.2,0-0.2l1.7-1c0.1-0.1,0.3-0.1,0.4,0l1.7,1c0.1,0.1,0.1,0.2,0,0.2l-1.7,1
			C197.1,136.3,197,136.3,196.8,136.2z"/>
		<path class="st2" d="M202.6,139.5l-1.7-1c-0.1-0.1-0.1-0.2,0-0.2l1.7-1c0.1-0.1,0.3-0.1,0.4,0l1.7,1c0.1,0.1,0.1,0.2,0,0.2l-1.7,1
			C202.8,139.6,202.7,139.6,202.6,139.5z"/>
		<path class="st2" d="M208.3,142.8l-1.7-1c-0.1-0.1-0.1-0.2,0-0.2l1.7-1c0.1-0.1,0.3-0.1,0.4,0l1.7,1c0.1,0.1,0.1,0.2,0,0.2l-1.7,1
			C208.6,142.9,208.4,142.9,208.3,142.8z"/>
		<path class="st0" d="M177.5,132.1L177.5,132.1l0.2-0.1l12-6.9c0.9-0.5,2-0.6,3-0.1l29.6,17.1c0.7-0.5,0.7-1.2,0-1.6l-29.6-17.1
			c-1-0.4-2.1-0.4-3,0.1l-12,6.9C176.8,130.9,176.7,131.7,177.5,132.1z"/>
		<path class="st5" d="M217.1,178.8l16.9-9.7c1.1-0.8,1.7-2,1.7-3.3v-6c0-1.3-0.8-1.8-1.7-1.3l-16.9,9.6c-1.1,0.8-1.7,2-1.7,3.3v6
			C215.5,178.7,216.2,179.3,217.1,178.8z"/>
		<path class="st3" d="M234.8,158.3c0.3,0.3,0.5,0.8,0.4,1.2v6c0,1.3-0.7,2.5-1.7,3.3l-16.8,9.6c-0.2,0.2-0.5,0.2-0.8,0.2
			c0.4,0.3,0.9,0.3,1.3,0l16.8-9.6c1.1-0.8,1.7-2,1.7-3.3v-6C235.7,159,235.4,158.4,234.8,158.3z"/>
		<path class="st1" d="M222.2,172.2l1.5-0.9c0.2-0.2,0.4-0.4,0.4-0.7V169c0-0.3-0.2-0.4-0.4-0.3l-1.5,0.9c-0.2,0.2-0.4,0.4-0.4,0.7
			v1.6C221.9,172.2,222,172.3,222.2,172.2z"/>
		<path class="st3" d="M227.4,169.2l1.5-0.9c0.2-0.2,0.4-0.4,0.4-0.7V166c0-0.3-0.2-0.4-0.4-0.3l-1.5,0.9c-0.2,0.2-0.4,0.4-0.4,0.7
			v1.6C227,169.2,227.2,169.4,227.4,169.2z"/>
		<path class="st5" d="M217.1,222.3l16.8-9.6c1.1-0.8,1.7-2,1.7-3.3v-6c0-1.3-0.8-1.8-1.7-1.3l-16.8,9.6c-1.1,0.8-1.7,2-1.7,3.3v6
			C215.5,222.2,216.2,222.8,217.1,222.3z"/>
		<path class="st3" d="M234.8,201.9c0.3,0.3,0.5,0.8,0.4,1.2v6c0,1.3-0.7,2.5-1.7,3.3l-16.8,9.6c-0.2,0.2-0.5,0.2-0.8,0.2
			c0.4,0.3,0.9,0.3,1.3,0l16.8-9.6c1.1-0.8,1.7-2,1.7-3.3v-6C235.7,202.5,235.4,201.9,234.8,201.9z"/>
		<path class="st1" d="M222.2,215.7l1.5-0.9c0.2-0.2,0.4-0.4,0.4-0.7v-1.6c0-0.3-0.2-0.4-0.4-0.3l-1.5,0.9c-0.2,0.2-0.4,0.4-0.4,0.7
			v1.6C221.9,215.7,222,215.8,222.2,215.7z"/>
		<path class="st3" d="M227.4,212.7l1.5-0.9c0.2-0.2,0.4-0.4,0.4-0.7v-1.6c0-0.3-0.2-0.4-0.4-0.3l-1.5,0.9c-0.2,0.2-0.4,0.4-0.4,0.7
			v1.6C227,212.7,227.2,212.9,227.4,212.7z"/>
		<path class="st5" d="M217.1,244l16.8-9.6c1.1-0.8,1.7-2,1.7-3.3v-6c0-1.3-0.8-1.8-1.7-1.3l-16.8,9.6c-1.1,0.8-1.7,2-1.7,3.3v6
			C215.5,244,216.2,244.6,217.1,244z"/>
		<path class="st3" d="M234.8,223.6c0.3,0.3,0.5,0.8,0.4,1.2v6c0,1.3-0.7,2.5-1.7,3.3l-16.8,9.6c-0.2,0.2-0.5,0.2-0.8,0.2
			c0.4,0.3,0.9,0.3,1.3,0l16.8-9.6c1.1-0.8,1.7-2,1.7-3.3v-6C235.7,224.2,235.4,223.7,234.8,223.6z"/>
		<path class="st1" d="M222.2,237.5l1.5-0.9c0.2-0.2,0.4-0.4,0.4-0.7v-1.6c0-0.3-0.2-0.4-0.4-0.3l-1.5,0.9c-0.2,0.2-0.4,0.4-0.4,0.7
			v1.6C221.9,237.5,222,237.6,222.2,237.5z"/>
		<path class="st3" d="M227.4,234.5l1.5-0.9c0.2-0.2,0.4-0.4,0.4-0.7v-1.6c0-0.3-0.2-0.4-0.4-0.3l-1.5,0.9c-0.2,0.2-0.4,0.4-0.4,0.7
			v1.6C227,234.5,227.2,234.6,227.4,234.5z"/>
		<path class="st5" d="M217.1,200.5l16.8-9.6c1.1-0.8,1.7-2,1.7-3.3v-6c0-1.3-0.8-1.8-1.7-1.3l-16.8,9.6c-1.1,0.8-1.7,2-1.7,3.3v6
			C215.5,200.5,216.2,201.1,217.1,200.5z"/>
		<path class="st3" d="M234.8,180.1c0.3,0.3,0.5,0.8,0.4,1.2v6c0,1.3-0.7,2.5-1.7,3.3l-16.8,9.6c-0.2,0.2-0.5,0.2-0.8,0.2
			c0.4,0.3,0.9,0.3,1.3,0l16.8-9.6c1.1-0.8,1.7-2,1.7-3.3v-6C235.7,180.7,235.4,180.2,234.8,180.1z"/>
		<path class="st1" d="M222.2,194l1.5-0.9c0.2-0.2,0.4-0.4,0.4-0.7v-1.6c0-0.3-0.2-0.4-0.4-0.3l-1.5,0.9c-0.2,0.2-0.4,0.4-0.4,0.7
			v1.6C221.9,194,222,194.1,222.2,194z"/>
		<path class="st3" d="M227.4,191l1.5-0.9c0.2-0.2,0.4-0.4,0.4-0.7v-1.6c0-0.3-0.2-0.4-0.4-0.3l-1.5,0.9c-0.2,0.2-0.4,0.4-0.4,0.7
			v1.6C227,191,227.2,191.1,227.4,191z"/>
		<path class="st0" d="M202.6,172.6l-38.8-22.4c-1-0.7-1.6-1.8-1.6-3v-7.4c0-1.2,0.7-1.7,1.6-1.2l38.8,22.4c1,0.7,1.6,1.8,1.6,3v7.4
			C204.1,172.6,203.5,173.1,202.6,172.6z"/>
		<path class="st7" d="M201.5,170l-36.6-21.1c-0.5-0.4-0.8-0.9-0.8-1.5v-5.6c0-0.6,0.4-0.9,0.8-0.6l36.6,21.1
			c0.5,0.4,0.8,0.9,0.8,1.5v5.6C202.3,170,201.9,170.3,201.5,170z"/>
		<path class="st2" d="M172.5,150.5l-5.5-3.2c-0.5-0.3-0.8-0.9-0.8-1.5l0,0c0-0.6,0.3-0.8,0.8-0.6l5.5,3.1c0.5,0.3,0.8,0.9,0.8,1.5
			l0,0C173.3,150.4,172.9,150.7,172.5,150.5z"/>
		<path class="st5" d="M177.1,152.1c0,0.6-0.4,0.8-0.9,0.5c-0.5-0.3-0.9-0.9-0.9-1.6c0-0.6,0.4-0.8,0.9-0.5
			C176.8,150.9,177.1,151.5,177.1,152.1z"/>
		<path class="st5" d="M180.3,153.9c0,0.6-0.4,0.8-0.9,0.5c-0.5-0.3-0.9-0.9-0.9-1.6c0-0.6,0.4-0.8,0.9-0.5
			C179.9,152.7,180.3,153.3,180.3,153.9z"/>
		<path class="st2" d="M183.5,155.8c0,0.6-0.4,0.8-0.9,0.5c-0.5-0.3-0.9-0.9-0.9-1.6c0-0.6,0.4-0.8,0.9-0.5
			C183.1,154.6,183.4,155.1,183.5,155.8z"/>
		<path class="st5" d="M186.6,157.6c0,0.6-0.4,0.8-0.9,0.5c-0.5-0.3-0.9-0.9-0.9-1.6c0-0.6,0.4-0.8,0.9-0.5
			C186.3,156.4,186.6,157,186.6,157.6z"/>
		<path class="st5" d="M199.9,166.9l-1.8-1.1c-0.3-0.2-0.5-0.6-0.5-1v-1.9c0-0.4,0.2-0.5,0.5-0.4l1.8,1.1c0.3,0.2,0.5,0.6,0.5,1v1.9
			C200.4,166.9,200.2,167.1,199.9,166.9z"/>
		<path class="st0" d="M202.6,185.7l-38.8-22.4c-1-0.7-1.6-1.8-1.6-3v-7.4c0-1.2,0.7-1.7,1.6-1.2l38.8,22.5c1,0.7,1.6,1.8,1.6,3v7.4
			C204.1,185.6,203.5,186.2,202.6,185.7z"/>
		<path class="st7" d="M201.5,183.1L164.9,162c-0.5-0.4-0.8-0.9-0.8-1.5v-5.6c0-0.6,0.4-0.9,0.8-0.6l36.6,21.1
			c0.5,0.4,0.8,0.9,0.8,1.5v5.6C202.3,183.1,201.9,183.3,201.5,183.1z"/>
		<path class="st2" d="M172.5,163.5l-5.5-3.2c-0.5-0.3-0.8-0.9-0.8-1.5l0,0c0-0.6,0.3-0.8,0.8-0.6l5.5,3.1c0.5,0.3,0.8,0.9,0.8,1.5
			l0,0C173.3,163.5,172.9,163.8,172.5,163.5z"/>
		<path class="st3" d="M177.1,165.2c0,0.6-0.4,0.8-0.9,0.5c-0.5-0.3-0.9-0.9-0.9-1.6c0-0.6,0.4-0.8,0.9-0.5
			C176.8,164,177.1,164.5,177.1,165.2z"/>
		<path class="st5" d="M180.3,167c0,0.6-0.4,0.8-0.9,0.5c-0.5-0.3-0.9-0.9-0.9-1.6c0-0.6,0.4-0.8,0.9-0.5
			C179.9,165.8,180.3,166.4,180.3,167z"/>
		<path class="st2" d="M183.5,168.8c0,0.6-0.4,0.8-0.9,0.5c-0.5-0.3-0.9-0.9-0.9-1.6c0-0.6,0.4-0.8,0.9-0.5
			C183.1,167.6,183.4,168.2,183.5,168.8z"/>
		<path class="st5" d="M186.6,170.6c0,0.6-0.4,0.8-0.9,0.5c-0.5-0.3-0.9-0.9-0.9-1.6c0-0.6,0.4-0.8,0.9-0.5
			C186.3,169.4,186.6,170,186.6,170.6z"/>
		<path class="st5" d="M199.9,180l-1.8-1.1c-0.3-0.2-0.5-0.6-0.5-1V176c0-0.4,0.2-0.5,0.5-0.4l1.8,1.1c0.3,0.2,0.5,0.6,0.5,1v1.9
			C200.4,180,200.2,180.1,199.9,180z"/>
		<path class="st0" d="M202.6,198.7l-38.8-22.4c-1-0.7-1.6-1.8-1.6-3v-7.4c0-1.2,0.7-1.7,1.6-1.2l38.8,22.4c1,0.7,1.6,1.8,1.6,3v7.4
			C204.1,198.7,203.5,199.2,202.6,198.7z"/>
		<path class="st7" d="M201.5,196.1L164.9,175c-0.5-0.4-0.8-0.9-0.8-1.5v-5.5c0-0.6,0.4-0.9,0.8-0.6l36.6,21.1
			c0.5,0.4,0.8,0.9,0.8,1.5v5.6C202.3,196.1,201.9,196.4,201.5,196.1z"/>
		<path class="st2" d="M172.5,176.6l-5.5-3.1c-0.5-0.3-0.8-0.9-0.8-1.5l0,0c0-0.6,0.3-0.8,0.8-0.6l5.5,3.1c0.5,0.3,0.8,0.9,0.8,1.5
			l0,0C173.3,176.6,172.9,176.8,172.5,176.6z"/>
		<path class="st3" d="M177.1,178.2c0,0.6-0.4,0.8-0.9,0.5c-0.5-0.3-0.9-0.9-0.9-1.6c0-0.6,0.4-0.8,0.9-0.5
			C176.8,177,177.1,177.6,177.1,178.2z"/>
		<path class="st5" d="M180.3,180.1c0,0.6-0.4,0.8-0.9,0.5c-0.5-0.3-0.9-0.9-0.9-1.6c0-0.6,0.4-0.8,0.9-0.5
			C179.9,178.9,180.3,179.5,180.3,180.1z"/>
		<path class="st2" d="M183.5,181.9c0,0.6-0.4,0.8-0.9,0.5c-0.5-0.3-0.9-0.9-0.9-1.6c0-0.6,0.4-0.8,0.9-0.5
			C183.1,180.7,183.4,181.2,183.5,181.9z"/>
		<path class="st5" d="M186.6,183.7c0,0.6-0.4,0.8-0.9,0.5c-0.5-0.3-0.9-0.9-0.9-1.6c0-0.6,0.4-0.8,0.9-0.5
			C186.3,182.5,186.6,183.1,186.6,183.7z"/>
		<path class="st5" d="M199.9,193l-1.8-1.1c-0.3-0.2-0.5-0.6-0.5-1v-1.9c0-0.4,0.2-0.5,0.5-0.4l1.8,1.1c0.3,0.2,0.5,0.6,0.5,1v1.9
			C200.4,193,200.2,193.2,199.9,193z"/>
		<path class="st0" d="M202.6,211.8l-38.8-22.4c-1-0.7-1.6-1.8-1.6-3v-7.4c0-1.2,0.7-1.7,1.6-1.2l38.8,22.4c1,0.7,1.6,1.8,1.6,3v7.4
			C204.1,211.7,203.5,212.3,202.6,211.8z"/>
		<path class="st7" d="M201.5,209.2l-36.6-21.1c-0.5-0.4-0.8-0.9-0.8-1.5V181c0-0.6,0.4-0.9,0.8-0.6l36.6,21.1
			c0.5,0.4,0.8,0.9,0.8,1.5v5.6C202.3,209.2,201.9,209.4,201.5,209.2z"/>
		<path class="st2" d="M172.5,189.6l-5.5-3.1c-0.5-0.3-0.8-0.9-0.8-1.5l0,0c0-0.6,0.3-0.8,0.8-0.6l5.5,3.1c0.5,0.3,0.8,0.9,0.8,1.5
			l0,0C173.3,189.6,172.9,189.9,172.5,189.6z"/>
		<path class="st5" d="M177.1,191.3c0,0.6-0.4,0.8-0.9,0.5c-0.5-0.3-0.9-0.9-0.9-1.6c0-0.6,0.4-0.8,0.9-0.5
			C176.8,190.1,177.1,190.7,177.1,191.3z"/>
		<path class="st5" d="M180.3,193.1c0,0.6-0.4,0.8-0.9,0.5c-0.5-0.3-0.9-0.9-0.9-1.6c0-0.6,0.4-0.8,0.9-0.5
			C179.9,191.9,180.3,192.5,180.3,193.1z"/>
		<path class="st2" d="M183.5,194.9c0,0.6-0.4,0.8-0.9,0.5c-0.5-0.3-0.9-0.9-0.9-1.6c0-0.6,0.4-0.8,0.9-0.5
			C183.1,193.7,183.4,194.3,183.5,194.9z"/>
		<path class="st5" d="M186.6,196.8c0,0.6-0.4,0.8-0.9,0.5c-0.5-0.3-0.9-0.9-0.9-1.6c0-0.6,0.4-0.8,0.9-0.5
			C186.3,195.6,186.6,196.1,186.6,196.8z"/>
		<path class="st2" d="M199.9,206.1l-1.8-1.1c-0.3-0.2-0.5-0.6-0.5-1v-1.9c0-0.4,0.2-0.5,0.5-0.4l1.8,1.1c0.3,0.2,0.5,0.6,0.5,1v1.9
			C200.4,206.1,200.2,206.2,199.9,206.1z"/>
		<path class="st0" d="M202.6,224.8l-38.8-22.4c-1-0.7-1.6-1.8-1.6-3V192c0-1.2,0.7-1.7,1.6-1.2l38.8,22.4c1,0.7,1.6,1.8,1.6,3v7.4
			C204.1,224.8,203.5,225.3,202.6,224.8z"/>
		<path class="st7" d="M201.5,222.2l-36.6-21.1c-0.5-0.4-0.8-0.9-0.8-1.5V194c0-0.6,0.4-0.9,0.8-0.6l36.6,21.1
			c0.5,0.4,0.8,0.9,0.8,1.5v5.6C202.3,222.2,201.9,222.5,201.5,222.2z"/>
		<path class="st2" d="M172.5,202.7l-5.5-3.1c-0.5-0.3-0.8-0.9-0.8-1.5l0,0c0-0.6,0.3-0.8,0.8-0.6l5.5,3.1c0.5,0.3,0.8,0.9,0.8,1.5
			l0,0C173.3,202.7,172.9,202.9,172.5,202.7z"/>
		<path class="st5" d="M177.1,204.3c0,0.6-0.4,0.8-0.9,0.5c-0.5-0.3-0.9-0.9-0.9-1.6c0-0.6,0.4-0.8,0.9-0.5
			C176.8,203.1,177.1,203.7,177.1,204.3z"/>
		<path class="st3" d="M180.3,206.2c0,0.6-0.4,0.8-0.9,0.5c-0.5-0.3-0.9-0.9-0.9-1.6c0-0.6,0.4-0.8,0.9-0.5
			C179.9,205,180.3,205.5,180.3,206.2z"/>
		<path class="st2" d="M183.5,208c0,0.6-0.4,0.8-0.9,0.5c-0.5-0.3-0.9-0.9-0.9-1.6c0-0.6,0.4-0.8,0.9-0.5
			C183.1,206.8,183.4,207.4,183.5,208z"/>
		<path class="st3" d="M186.6,209.8c0,0.6-0.4,0.8-0.9,0.5c-0.5-0.3-0.9-0.9-0.9-1.6c0-0.6,0.4-0.8,0.9-0.5
			C186.3,208.6,186.6,209.2,186.6,209.8z"/>
		<path class="st2" d="M199.9,219.1l-1.8-1c-0.3-0.2-0.5-0.6-0.5-1v-1.9c0-0.4,0.2-0.5,0.5-0.4l1.8,1.1c0.3,0.2,0.5,0.6,0.5,1v1.9
			C200.4,219.1,200.2,219.3,199.9,219.1z"/>
		<path class="st0" d="M202.6,237.9l-38.8-22.4c-1-0.7-1.6-1.8-1.6-3v-7.4c0-1.2,0.7-1.7,1.6-1.2l38.8,22.4c1,0.7,1.6,1.8,1.6,3v7.4
			C204.1,237.9,203.5,238.4,202.6,237.9z"/>
		<path class="st7" d="M201.5,235.3l-36.6-21.1c-0.5-0.4-0.8-0.9-0.8-1.5v-5.5c0-0.6,0.4-0.9,0.8-0.6l36.6,21.1
			c0.5,0.4,0.8,0.9,0.8,1.5v5.6C202.3,235.3,201.9,235.6,201.5,235.3z"/>
		<path class="st2" d="M172.5,215.8l-5.5-3.1c-0.5-0.3-0.8-0.9-0.8-1.5l0,0c0-0.6,0.3-0.8,0.8-0.6l5.5,3.1c0.5,0.3,0.8,0.9,0.8,1.5
			l0,0C173.3,215.7,172.9,216,172.5,215.8z"/>
		<path class="st5" d="M177.1,217.4c0,0.6-0.4,0.8-0.9,0.5c-0.5-0.3-0.9-0.9-0.9-1.6c0-0.6,0.4-0.8,0.9-0.5
			C176.8,216.2,177.1,216.8,177.1,217.4z"/>
		<path class="st5" d="M180.3,219.2c0,0.6-0.4,0.8-0.9,0.5c-0.5-0.3-0.9-0.9-0.9-1.6c0-0.6,0.4-0.8,0.9-0.5
			C179.9,218,180.3,218.6,180.3,219.2z"/>
		<path class="st2" d="M183.5,221.1c0,0.6-0.4,0.8-0.9,0.5c-0.5-0.3-0.9-0.9-0.9-1.6c0-0.6,0.4-0.8,0.9-0.5
			C183.1,219.9,183.4,220.5,183.5,221.1z"/>
		<path class="st5" d="M186.6,222.9c0,0.6-0.4,0.8-0.9,0.5c-0.5-0.3-0.9-0.9-0.9-1.6c0-0.6,0.4-0.8,0.9-0.5
			C186.3,221.7,186.6,222.3,186.6,222.9z"/>
		<path class="st5" d="M199.9,232.2l-1.8-1.1c-0.3-0.2-0.5-0.6-0.5-1v-1.9c0-0.4,0.2-0.5,0.5-0.4l1.8,1.1c0.3,0.2,0.5,0.6,0.5,1v1.9
			C200.4,232.2,200.2,232.4,199.9,232.2z"/>
		<path class="st0" d="M202.6,251l-38.8-22.4c-1-0.7-1.6-1.8-1.6-3v-7.4c0-1.2,0.7-1.7,1.6-1.2l38.8,22.4c1,0.7,1.6,1.8,1.6,3v7.4
			C204.1,250.9,203.5,251.5,202.6,251z"/>
		<path class="st7" d="M201.5,248.4l-36.6-21.1c-0.5-0.4-0.8-0.9-0.8-1.5v-5.6c0-0.6,0.4-0.9,0.8-0.6l36.6,21.1
			c0.5,0.4,0.8,0.9,0.8,1.5v5.6C202.3,248.3,201.9,248.6,201.5,248.4z"/>
		<path class="st2" d="M172.5,228.8l-5.5-3.1c-0.5-0.3-0.8-0.9-0.8-1.5l0,0c0-0.6,0.3-0.8,0.8-0.6l5.5,3.1c0.5,0.3,0.8,0.9,0.8,1.5
			l0,0C173.3,228.8,172.9,229.1,172.5,228.8z"/>
		<path class="st3" d="M178.1,231.2c0,1.1-0.8,1.5-1.7,1c-1-0.7-1.6-1.7-1.7-2.9c0-1.1,0.8-1.5,1.7-1
			C177.4,228.9,178.1,230,178.1,231.2z"/>
		<path class="st5" d="M184.7,235c0,0.6-0.4,0.8-0.9,0.5c-0.5-0.3-0.9-0.9-0.9-1.6c0-0.6,0.4-0.8,0.9-0.5
			C184.3,233.8,184.6,234.4,184.7,235z"/>
		<path class="st2" d="M187.8,236.8c0,0.6-0.4,0.8-0.9,0.5c-0.5-0.3-0.9-0.9-0.9-1.6c0-0.6,0.4-0.8,0.9-0.5
			C187.5,235.6,187.8,236.2,187.8,236.8z"/>
		<path class="st5" d="M191,238.7c0,0.6-0.4,0.8-0.9,0.5c-0.5-0.3-0.9-0.9-0.9-1.6c0-0.6,0.4-0.8,0.9-0.5
			C190.6,237.5,191,238,191,238.7z"/>
		<path class="st2" d="M199.9,245.3l-1.8-1.1c-0.3-0.2-0.5-0.6-0.5-1v-1.9c0-0.4,0.2-0.5,0.5-0.4l1.8,1.1c0.3,0.2,0.5,0.6,0.5,1v1.9
			C200.4,245.2,200.2,245.4,199.9,245.3z"/>
		<path class="st2" d="M247.2,136.2l-1.7-1v-2.4c-0.2-2.8-1.7-5.4-4.1-7l-12.7-7.3c-2.2-1.3-4.1-0.2-4.1,2.3v26l-1.7-24.6v-2.4
			c0-3.7,2.6-5.1,5.7-3.3l12.7,7.3c3.4,2.2,5.5,5.9,5.7,9.9L247.2,136.2z"/>
		<path class="st2" d="M241.5,139.4l5.7-3.3l-1.2-4l-1.6-4c0,0-2.8-3.1-3-3.1s-7.7-4.3-7.7-4.3l-6.2-4.5l-3,0.1l-5.5,3.2l4,1.7
			c0,0,2.2,1.1,2.8,1.2c1,0.7,1.9,1.4,2.8,2.3l2.7,1.1l0.6-0.1l4.9,3.4l1.6,0.7l0.9,1.3l1.3,3.6L241.5,139.4z"/>
		<path class="st1" d="M224.7,146.8l-5.7,3.3c0,0-0.4-27.2-0.4-27.3s1.2-1.8,1.2-1.8l3.1-0.6l2.5,1.9l-0.8-0.3l-0.3,0.2l0.4,0.6
			L224.7,146.8z"/>
		<path class="st0" d="M241.5,139.4l-1.7-1v-2.3c-0.2-2.8-1.7-5.4-4.1-7l-12.7-7.3c-2.2-1.3-4.1-0.2-4.1,2.3v26l-1.7-1v-26.1
			c0-3.7,2.6-5.1,5.7-3.3l12.7,7.3c3.4,2.2,5.5,5.9,5.7,9.9V139.4z"/>
		<path class="st4" d="M266.2,293.8l-29.1-16.6c-1.1-0.6-0.9-1.7,0.3-2.4l16.7-9.7c1.3-0.7,2.8-0.8,4.1-0.2l29.1,16.6
			c1.1,0.6,0.9,1.7-0.3,2.4l-16.7,9.6C269.1,294.3,267.5,294.4,266.2,293.8z"/>
		<path class="st1" d="M301.8,251.7L301.8,251.7v-96.8l-38.5-10.1l-7.1-4.1c-2-0.9-4.4-0.8-6.3,0.3l-6.6,3.8h-20.5l6.1,93.4
			c0,0.7,0.4,1.4,1.1,1.7l38.4,29c2,0.9,4.4,0.8,6.3-0.3l25.6-14.8C301.2,253.5,301.8,252.6,301.8,251.7z"/>
		<path class="st2" d="M253.3,140.1c-1.2,0-2.4,0.3-3.4,0.9l-6.6,3.8h-20.5v97c0,0.7,0.4,1.4,1.1,1.7l44.5,25.4
			c0.9,0.5,1.9,0.7,2.9,0.6l0.5-97.6L253.3,140.1z"/>
		<path class="st0" d="M268.7,269.1c1.6,0.6,3.4,0.6,5.1-0.1v-98.3h-5.1V269.1z"/>
		<path class="st2" d="M268.3,171.9l-44.5-25.4c-1.6-0.9-1.4-2.6,0.5-3.7l25.6-14.8c2-1.1,4.3-1.2,6.4-0.3l44.5,25.4
			c1.6,0.9,1.4,2.6-0.5,3.7l-25.6,14.8C272.7,172.7,270.4,172.8,268.3,171.9z"/>
		<path class="st6" d="M300.3,155l-25.6,14.8c-2,1.1-4.3,1.2-6.3,0.3l-44.5-25.4c-0.3-0.2-0.6-0.4-0.8-0.7c-0.5,0.8-0.3,1.8,0.5,2.4
			c0.1,0.1,0.2,0.1,0.3,0.2l44.5,25.4c2,0.9,4.4,0.8,6.3-0.3l25.6-14.8c1.5-0.8,1.9-2,1.3-2.9C301.2,154.4,300.8,154.8,300.3,155z"
			/>
		<path class="st5" d="M269.6,161.6L240,144.4c-0.8-0.4-0.7-1.2,0.2-1.7l12-6.9c0.9-0.5,2-0.6,3-0.1l29.6,17.2
			c0.8,0.4,0.7,1.2-0.2,1.7l-12,6.9C271.7,162,270.5,162,269.6,161.6z"/>
		<path class="st2" d="M253.6,145.2l-1.7-1c-0.1-0.1-0.1-0.2,0-0.2l1.7-1c0.1-0.1,0.3-0.1,0.4,0l1.7,1c0.1,0.1,0.1,0.2,0,0.2l-1.7,1
			C253.9,145.3,253.7,145.3,253.6,145.2z"/>
		<path class="st2" d="M259.3,148.5l-1.7-1c-0.1-0.1-0.1-0.2,0-0.2l1.7-1c0.1-0.1,0.3-0.1,0.4,0l1.7,1c0.1,0.1,0.1,0.2,0,0.2l-1.7,1
			C259.6,148.6,259.5,148.6,259.3,148.5z"/>
		<path class="st2" d="M265.1,151.8l-1.7-1c-0.1-0.1-0.1-0.2,0-0.2l1.7-1c0.1-0.1,0.3-0.1,0.4,0l1.7,1c0.1,0.1,0.1,0.2,0,0.2l-1.7,1
			C265.3,151.9,265.2,151.9,265.1,151.8z"/>
		<path class="st2" d="M270.8,155.1l-1.7-1c-0.1-0.1-0.1-0.2,0-0.2l1.7-1c0.1-0.1,0.3-0.1,0.4,0l1.7,1c0.1,0.1,0.1,0.2,0,0.2l-1.7,1
			C271.1,155.2,270.9,155.2,270.8,155.1z"/>
		<path class="st0" d="M240,144.4L240,144.4l0.2-0.1l12-6.9c0.9-0.5,2-0.6,3-0.1l29.6,17.1c0.7-0.5,0.7-1.2,0-1.6l-29.6-17.1
			c-1-0.4-2.1-0.4-3,0.1l-12,6.9C239.3,143.2,239.2,144,240,144.4z"/>
		<path class="st5" d="M279.7,191l16.8-9.6c1.1-0.8,1.7-2,1.7-3.3v-6c0-1.3-0.8-1.8-1.7-1.3l-16.8,9.6c-1.1,0.8-1.7,2-1.7,3.3v6
			C277.9,191,278.7,191.6,279.7,191z"/>
		<path class="st3" d="M297.3,170.6c0.3,0.3,0.5,0.8,0.4,1.2v6c0,1.3-0.7,2.5-1.7,3.3l-16.8,9.6c-0.2,0.2-0.5,0.2-0.8,0.2
			c0.4,0.3,0.9,0.3,1.3,0l16.8-9.6c1.1-0.8,1.7-2,1.7-3.3v-6C298.2,171.3,297.9,170.7,297.3,170.6z"/>
		<path class="st1" d="M284.7,184.5l1.5-0.9c0.2-0.2,0.4-0.4,0.4-0.7v-1.6c0-0.3-0.2-0.4-0.4-0.3l-1.5,0.9c-0.2,0.2-0.4,0.4-0.4,0.7
			v1.6C284.3,184.5,284.5,184.6,284.7,184.5z"/>
		<path class="st3" d="M289.9,181.5l1.5-0.9c0.2-0.2,0.4-0.4,0.4-0.7v-1.6c0-0.3-0.2-0.4-0.4-0.3l-1.5,0.9c-0.2,0.2-0.4,0.4-0.4,0.7
			v1.6C289.5,181.5,289.7,181.6,289.9,181.5z"/>
		<path class="st5" d="M279.7,234.5l16.8-9.6c1.1-0.8,1.7-2,1.7-3.3v-6c0-1.3-0.8-1.8-1.7-1.3l-16.8,9.6c-1.1,0.8-1.7,2-1.7,3.3v6
			C277.9,234.5,278.7,235.1,279.7,234.5z"/>
		<path class="st3" d="M297.3,214.1c0.3,0.3,0.5,0.8,0.4,1.2v6c0,1.3-0.7,2.5-1.7,3.3l-16.8,9.6c-0.2,0.2-0.5,0.2-0.8,0.2
			c0.4,0.3,0.9,0.3,1.3,0l16.8-9.6c1.1-0.8,1.7-2,1.7-3.3v-6C298.2,214.8,297.9,214.2,297.3,214.1z"/>
		<path class="st1" d="M284.7,228l1.5-0.9c0.2-0.2,0.4-0.4,0.4-0.7v-1.6c0-0.3-0.2-0.4-0.4-0.3l-1.5,0.9c-0.2,0.2-0.4,0.4-0.4,0.7
			v1.6C284.3,228,284.5,228.1,284.7,228z"/>
		<path class="st3" d="M289.9,225l1.5-0.9c0.2-0.2,0.4-0.4,0.4-0.7v-1.6c0-0.3-0.2-0.4-0.4-0.3l-1.5,0.9c-0.2,0.2-0.4,0.4-0.4,0.7
			v1.6C289.5,225,289.7,225.1,289.9,225z"/>
		<path class="st5" d="M279.7,256.3l16.8-9.6c1.1-0.8,1.7-2,1.7-3.3v-6c0-1.3-0.8-1.8-1.7-1.3l-16.8,9.6c-1.1,0.8-1.7,2-1.7,3.3v6
			C277.9,256.3,278.7,256.8,279.7,256.3z"/>
		<path class="st3" d="M297.3,235.9c0.3,0.3,0.5,0.8,0.4,1.2v6c0,1.3-0.7,2.5-1.7,3.3l-16.8,9.7c-0.2,0.2-0.5,0.2-0.8,0.2
			c0.4,0.3,0.9,0.3,1.3,0l16.8-9.6c1.1-0.8,1.7-2,1.7-3.3v-6C298.2,236.5,297.9,236,297.3,235.9z"/>
		<path class="st1" d="M284.7,249.8l1.5-0.9c0.2-0.2,0.4-0.4,0.4-0.7v-1.6c0-0.3-0.2-0.4-0.4-0.3l-1.5,0.9c-0.2,0.2-0.4,0.4-0.4,0.7
			v1.6C284.3,249.8,284.5,249.9,284.7,249.8z"/>
		<path class="st3" d="M289.9,246.8l1.5-0.9c0.2-0.2,0.4-0.4,0.4-0.7v-1.6c0-0.3-0.2-0.4-0.4-0.3l-1.5,0.9c-0.2,0.2-0.4,0.4-0.4,0.7
			v1.6C289.5,246.8,289.7,246.9,289.9,246.8z"/>
		<path class="st3" d="M288.7,257.9l1.5-0.9c0.2-0.2,0.4-0.4,0.4-0.7v-1.6c0-0.3-0.2-0.4-0.4-0.3l-1.5,0.9c-0.2,0.2-0.4,0.4-0.4,0.7
			v1.6C288.4,257.9,288.5,258,288.7,257.9z"/>
		<path class="st5" d="M279.7,212.8l16.8-9.6c1.1-0.8,1.7-2,1.7-3.3v-6c0-1.3-0.8-1.8-1.7-1.3l-16.8,9.6c-1.1,0.8-1.7,2-1.7,3.3v6
			C277.9,212.8,278.7,213.3,279.7,212.8z"/>
		<path class="st3" d="M297.3,192.4c0.3,0.3,0.5,0.8,0.4,1.2v6c0,1.3-0.7,2.5-1.7,3.3l-16.8,9.6c-0.2,0.2-0.5,0.2-0.8,0.2
			c0.4,0.3,0.9,0.3,1.3,0l16.8-9.6c1.1-0.8,1.7-2,1.7-3.3v-6C298.2,193,297.9,192.5,297.3,192.4z"/>
		<path class="st1" d="M284.7,206.3l1.5-0.9c0.2-0.2,0.4-0.4,0.4-0.7V203c0-0.3-0.2-0.4-0.4-0.3l-1.5,0.9c-0.2,0.2-0.4,0.4-0.4,0.7
			v1.6C284.3,206.2,284.5,206.4,284.7,206.3z"/>
		<path class="st3" d="M289.9,203.3l1.5-0.9c0.2-0.2,0.4-0.4,0.4-0.7V200c0-0.3-0.2-0.4-0.4-0.3l-1.5,0.9c-0.2,0.2-0.4,0.4-0.4,0.7
			v1.6C289.5,203.3,289.7,203.4,289.9,203.3z"/>
		<path class="st0" d="M265.1,184.9l-38.8-22.4c-1-0.7-1.6-1.8-1.6-3v-7.4c0-1.2,0.7-1.7,1.6-1.2l38.8,22.4c1,0.7,1.6,1.8,1.6,3v7.4
			C266.7,184.9,265.9,185.4,265.1,184.9z"/>
		<path class="st7" d="M264,182.3l-36.6-21.1c-0.5-0.4-0.8-0.9-0.8-1.5v-5.5c0-0.6,0.4-0.9,0.8-0.6l36.6,21.1
			c0.5,0.4,0.8,0.9,0.8,1.5v5.6C264.8,182.3,264.4,182.5,264,182.3z"/>
		<path class="st2" d="M235,162.7l-5.5-3.1c-0.5-0.3-0.8-0.9-0.8-1.5l0,0c0-0.6,0.4-0.8,0.8-0.6l5.5,3.2c0.5,0.3,0.8,0.9,0.8,1.5
			l0,0C235.8,162.7,235.4,163,235,162.7z"/>
		<path class="st5" d="M239.6,164.4c0,0.6-0.4,0.8-0.9,0.5c-0.5-0.3-0.9-0.9-0.9-1.6c0-0.6,0.4-0.8,0.9-0.5
			C239.3,163.2,239.6,163.8,239.6,164.4z"/>
		<path class="st5" d="M242.8,166.2c0,0.6-0.4,0.8-0.9,0.5c-0.5-0.3-0.9-0.9-0.9-1.6c0-0.6,0.4-0.8,0.9-0.5
			C242.4,165,242.8,165.6,242.8,166.2z"/>
		<path class="st2" d="M246,168c0,0.6-0.4,0.8-0.9,0.5c-0.5-0.3-0.9-0.9-0.9-1.6c0-0.6,0.4-0.8,0.9-0.5
			C245.6,166.8,245.9,167.4,246,168z"/>
		<path class="st5" d="M249.1,169.9c0,0.6-0.4,0.8-0.9,0.5c-0.5-0.3-0.9-0.9-0.9-1.6c0-0.6,0.4-0.8,0.9-0.5
			C248.8,168.7,249.1,169.2,249.1,169.9z"/>
		<path class="st5" d="M262.4,179.2l-1.8-1.1c-0.3-0.2-0.5-0.6-0.5-1v-1.9c0-0.4,0.2-0.5,0.5-0.4l1.8,1.1c0.3,0.2,0.5,0.6,0.5,1v1.9
			C262.9,179.2,262.7,179.3,262.4,179.2z"/>
		<path class="st0" d="M265.1,197.9l-38.8-22.4c-1-0.7-1.6-1.8-1.6-3v-7.4c0-1.2,0.7-1.7,1.6-1.2l38.8,22.4c1,0.7,1.6,1.8,1.6,3v7.4
			C266.7,197.9,265.9,198.4,265.1,197.9z"/>
		<path class="st7" d="M264,195.3l-36.6-21.1c-0.5-0.4-0.8-0.9-0.8-1.5v-5.6c0-0.6,0.4-0.9,0.8-0.6l36.6,21.1
			c0.5,0.4,0.8,0.9,0.8,1.5v5.6C264.8,195.3,264.4,195.6,264,195.3z"/>
		<path class="st2" d="M235,175.8l-5.5-3.1c-0.5-0.3-0.8-0.9-0.8-1.5l0,0c0-0.6,0.4-0.8,0.8-0.6l5.5,3.1c0.5,0.3,0.8,0.9,0.8,1.5
			l0,0C235.8,175.8,235.4,176.1,235,175.8z"/>
		<path class="st3" d="M239.6,177.5c0,0.6-0.4,0.8-0.9,0.5c-0.5-0.3-0.9-0.9-0.9-1.6c0-0.6,0.4-0.8,0.9-0.5
			C239.3,176.3,239.6,176.8,239.6,177.5z"/>
		<path class="st5" d="M242.8,179.3c0,0.6-0.4,0.8-0.9,0.5c-0.5-0.3-0.9-0.9-0.9-1.6c0-0.6,0.4-0.8,0.9-0.5
			C242.4,178.1,242.8,178.6,242.8,179.3z"/>
		<path class="st2" d="M246,181.1c0,0.6-0.4,0.8-0.9,0.5c-0.5-0.3-0.9-0.9-0.9-1.5c0-0.6,0.4-0.8,0.9-0.5
			C245.6,179.9,245.9,180.5,246,181.1z"/>
		<path class="st5" d="M249.1,182.9c0,0.6-0.4,0.8-0.9,0.5c-0.5-0.3-0.9-0.9-0.9-1.6c0-0.6,0.4-0.8,0.9-0.5
			C248.8,181.7,249.1,182.3,249.1,182.9z"/>
		<path class="st5" d="M262.4,192.2l-1.8-1.1c-0.3-0.2-0.5-0.6-0.5-1v-1.9c0-0.4,0.2-0.5,0.5-0.4l1.8,1.1c0.3,0.2,0.5,0.6,0.5,1v1.9
			C262.9,192.2,262.7,192.4,262.4,192.2z"/>
		<path class="st0" d="M265.1,211l-38.8-22.4c-1-0.7-1.6-1.8-1.6-3v-7.4c0-1.2,0.7-1.7,1.6-1.2l38.8,22.4c1,0.7,1.6,1.8,1.6,3v7.4
			C266.7,211,265.9,211.5,265.1,211z"/>
		<path class="st7" d="M264,208.4l-36.6-21.1c-0.5-0.4-0.8-0.9-0.8-1.5v-5.6c0-0.6,0.4-0.9,0.8-0.6l36.6,21.1
			c0.5,0.4,0.8,0.9,0.8,1.5v5.6C264.8,208.4,264.4,208.7,264,208.4z"/>
		<path class="st2" d="M235,188.9l-5.5-3.1c-0.5-0.3-0.8-0.9-0.8-1.5l0,0c0-0.6,0.4-0.8,0.8-0.6l5.5,3.1c0.5,0.3,0.8,0.9,0.8,1.5
			l0,0C235.8,188.8,235.4,189.1,235,188.9z"/>
		<path class="st3" d="M239.6,190.5c0,0.6-0.4,0.8-0.9,0.5c-0.5-0.3-0.9-0.9-0.9-1.6c0-0.6,0.4-0.8,0.9-0.5
			C239.3,189.3,239.6,189.9,239.6,190.5z"/>
		<path class="st5" d="M242.8,192.3c0,0.6-0.4,0.8-0.9,0.5c-0.5-0.3-0.9-0.9-0.9-1.6c0-0.6,0.4-0.8,0.9-0.5
			C242.4,191.1,242.8,191.7,242.8,192.3z"/>
		<path class="st2" d="M246,194.2c0,0.6-0.4,0.8-0.9,0.5c-0.5-0.3-0.9-0.9-0.9-1.6c0-0.6,0.4-0.8,0.9-0.5
			C245.6,192.9,245.9,193.5,246,194.2z"/>
		<path class="st5" d="M249.1,196c0,0.6-0.4,0.8-0.9,0.5c-0.5-0.3-0.9-0.9-0.9-1.6c0-0.6,0.4-0.8,0.9-0.5
			C248.8,194.8,249.1,195.4,249.1,196z"/>
		<path class="st5" d="M262.4,205.3l-1.8-1.1c-0.3-0.2-0.5-0.6-0.5-1v-1.9c0-0.4,0.2-0.5,0.5-0.4l1.8,1.1c0.3,0.2,0.5,0.6,0.5,1v1.9
			C262.9,205.3,262.7,205.5,262.4,205.3z"/>
		<path class="st0" d="M265.1,224.1l-38.8-22.4c-1-0.7-1.6-1.8-1.6-3v-7.4c0-1.2,0.7-1.7,1.6-1.2l38.8,22.4c1,0.7,1.6,1.8,1.6,3v7.4
			C266.7,224,265.9,224.6,265.1,224.1z"/>
		<path class="st7" d="M264,221.5l-36.6-21.1c-0.5-0.4-0.8-0.9-0.8-1.5v-5.6c0-0.6,0.4-0.9,0.8-0.6l36.6,21.1
			c0.5,0.4,0.8,0.9,0.8,1.5v5.6C264.8,221.4,264.4,221.7,264,221.5z"/>
		<path class="st2" d="M235,201.9l-5.5-3.1c-0.5-0.3-0.8-0.9-0.8-1.5l0,0c0-0.6,0.4-0.8,0.8-0.6l5.5,3.1c0.5,0.3,0.8,0.9,0.8,1.5
			l0,0C235.8,201.9,235.4,202.2,235,201.9z"/>
		<path class="st5" d="M239.6,203.6c0,0.6-0.4,0.8-0.9,0.5c-0.5-0.3-0.9-0.9-0.9-1.6c0-0.6,0.4-0.8,0.9-0.5
			C239.3,202.4,239.6,202.9,239.6,203.6z"/>
		<path class="st5" d="M242.8,205.4c0,0.6-0.4,0.8-0.9,0.5c-0.5-0.3-0.9-0.9-0.9-1.6c0-0.6,0.4-0.8,0.9-0.5
			C242.4,204.2,242.8,204.8,242.8,205.4z"/>
		<path class="st2" d="M246,207.2c0,0.6-0.4,0.8-0.9,0.5c-0.5-0.3-0.9-0.9-0.9-1.6c0-0.6,0.4-0.8,0.9-0.5
			C245.6,206,245.9,206.6,246,207.2z"/>
		<path class="st5" d="M249.1,209c0,0.6-0.4,0.8-0.9,0.5c-0.5-0.3-0.9-0.9-0.9-1.6c0-0.6,0.4-0.8,0.9-0.5
			C248.8,207.8,249.1,208.4,249.1,209z"/>
		<path class="st2" d="M262.4,218.4l-1.8-1.1c-0.3-0.2-0.5-0.6-0.5-1v-1.9c0-0.4,0.2-0.5,0.5-0.4l1.8,1.1c0.3,0.2,0.5,0.6,0.5,1v1.9
			C262.9,218.4,262.7,218.5,262.4,218.4z"/>
		<path class="st0" d="M265.1,237.1l-38.8-22.4c-1-0.7-1.6-1.8-1.6-3v-7.4c0-1.2,0.7-1.7,1.6-1.2l38.8,22.4c1,0.7,1.6,1.8,1.6,3v7.4
			C266.7,237.1,265.9,237.6,265.1,237.1z"/>
		<path class="st7" d="M264,234.5l-36.6-21.1c-0.5-0.4-0.8-0.9-0.8-1.5v-5.6c0-0.6,0.4-0.9,0.8-0.6l36.6,21.1
			c0.5,0.4,0.8,0.9,0.8,1.5v5.6C264.8,234.5,264.4,234.8,264,234.5z"/>
		<path class="st2" d="M235,215l-5.5-3.1c-0.5-0.3-0.8-0.9-0.8-1.5l0,0c0-0.6,0.4-0.8,0.8-0.6l5.5,3.1c0.5,0.3,0.8,0.9,0.8,1.5l0,0
			C235.8,215,235.4,215.2,235,215z"/>
		<path class="st5" d="M239.6,216.6c0,0.6-0.4,0.8-0.9,0.5c-0.5-0.3-0.9-0.9-0.9-1.6c0-0.6,0.4-0.8,0.9-0.5
			C239.3,215.4,239.6,216,239.6,216.6z"/>
		<path class="st3" d="M242.8,218.5c0,0.6-0.4,0.8-0.9,0.5c-0.5-0.3-0.9-0.9-0.9-1.6c0-0.6,0.4-0.8,0.9-0.5
			C242.4,217.3,242.8,217.8,242.8,218.5z"/>
		<path class="st2" d="M246,220.3c0,0.6-0.4,0.8-0.9,0.5c-0.5-0.3-0.9-0.9-0.9-1.6c0-0.6,0.4-0.8,0.9-0.5
			C245.6,219.1,245.9,219.6,246,220.3z"/>
		<path class="st3" d="M249.1,222.1c0,0.6-0.4,0.8-0.9,0.5c-0.5-0.3-0.9-0.9-0.9-1.6c0-0.6,0.4-0.8,0.9-0.5
			C248.8,220.9,249.1,221.5,249.1,222.1z"/>
		<path class="st2" d="M262.4,231.4l-1.8-1.1c-0.3-0.2-0.5-0.6-0.5-1v-1.9c0-0.4,0.2-0.5,0.5-0.4l1.8,1.1c0.3,0.2,0.5,0.6,0.5,1v2
			C262.9,231.4,262.7,231.6,262.4,231.4z"/>
		<path class="st0" d="M265.1,250.2l-38.8-22.4c-1-0.7-1.6-1.8-1.6-3v-7.4c0-1.2,0.7-1.7,1.6-1.2l38.8,22.4c1,0.7,1.6,1.8,1.6,3v7.4
			C266.7,250.1,265.9,250.7,265.1,250.2z"/>
		<path class="st7" d="M264,247.6l-36.6-21.1c-0.5-0.4-0.8-0.9-0.8-1.5v-5.6c0-0.6,0.4-0.9,0.8-0.6l36.6,21.1
			c0.5,0.4,0.8,0.9,0.8,1.5v5.6C264.8,247.6,264.4,247.8,264,247.6z"/>
		<path class="st2" d="M235,228l-5.5-3.1c-0.5-0.3-0.8-0.9-0.8-1.5l0,0c0-0.6,0.4-0.8,0.8-0.6l5.5,3.1c0.5,0.3,0.8,0.9,0.8,1.5l0,0
			C235.8,228,235.4,228.3,235,228z"/>
		<path class="st5" d="M239.6,229.7c0,0.6-0.4,0.8-0.9,0.5c-0.5-0.3-0.9-0.9-0.9-1.6c0-0.6,0.4-0.8,0.9-0.5
			C239.3,228.5,239.6,229.1,239.6,229.7z"/>
		<path class="st5" d="M242.8,231.5c0,0.6-0.4,0.8-0.9,0.5c-0.5-0.3-0.9-0.9-0.9-1.6c0-0.6,0.4-0.8,0.9-0.5
			C242.4,230.3,242.8,230.9,242.8,231.5z"/>
		<path class="st2" d="M246,233.3c0,0.6-0.4,0.8-0.9,0.5c-0.5-0.3-0.9-0.9-0.9-1.6c0-0.6,0.4-0.8,0.9-0.5
			C245.6,232.1,245.9,232.7,246,233.3z"/>
		<path class="st5" d="M249.1,235.2c0,0.6-0.4,0.8-0.9,0.5c-0.5-0.3-0.9-0.9-0.9-1.6c0-0.6,0.4-0.8,0.9-0.5
			C248.8,234,249.1,234.5,249.1,235.2z"/>
		<path class="st5" d="M262.4,244.5l-1.8-1.1c-0.3-0.2-0.5-0.6-0.5-1v-1.9c0-0.4,0.2-0.5,0.5-0.4l1.8,1.1c0.3,0.2,0.5,0.6,0.5,1v1.9
			C262.9,244.5,262.7,244.6,262.4,244.5z"/>
		<path class="st0" d="M265.1,263.2l-38.8-22.4c-1-0.7-1.6-1.8-1.6-3v-7.4c0-1.2,0.7-1.7,1.6-1.2l38.8,22.4c1,0.7,1.6,1.8,1.6,3v7.5
			C266.7,263.2,265.9,263.7,265.1,263.2z"/>
		<path class="st7" d="M264,260.6l-36.6-21.1c-0.5-0.4-0.8-0.9-0.8-1.5v-5.6c0-0.6,0.4-0.9,0.8-0.6l36.6,21.1
			c0.5,0.4,0.8,0.9,0.8,1.5v5.6C264.8,260.6,264.4,260.9,264,260.6z"/>
		<path class="st2" d="M235,241.1l-5.5-3.1c-0.5-0.3-0.8-0.9-0.8-1.5l0,0c0-0.6,0.4-0.8,0.8-0.6l5.5,3.1c0.5,0.3,0.8,0.9,0.8,1.5
			l0,0C235.8,241.1,235.4,241.3,235,241.1z"/>
		<path class="st3" d="M240.6,243.5c0,1.1-0.8,1.5-1.7,1c-1-0.7-1.6-1.7-1.7-2.9c0-1.1,0.8-1.5,1.7-1
			C239.9,241.2,240.6,242.3,240.6,243.5z"/>
		<path class="st5" d="M247.1,247.3c0,0.6-0.4,0.8-0.9,0.5c-0.5-0.3-0.9-0.9-0.9-1.6c0-0.6,0.4-0.8,0.9-0.5
			C246.8,246.1,247.1,246.7,247.1,247.3z"/>
		<path class="st2" d="M250.3,249.1c0,0.6-0.4,0.8-0.9,0.5c-0.5-0.3-0.9-0.9-0.9-1.6c0-0.6,0.4-0.8,0.9-0.5
			C250,247.9,250.3,248.5,250.3,249.1z"/>
		<path class="st5" d="M253.5,250.9c0,0.6-0.4,0.8-0.9,0.5c-0.5-0.3-0.9-0.9-0.9-1.6c0-0.6,0.4-0.8,0.9-0.5
			C253.1,249.7,253.5,250.3,253.5,250.9z"/>
		<path class="st2" d="M262.4,257.5l-1.8-1.1c-0.3-0.2-0.5-0.6-0.5-1v-1.9c0-0.4,0.2-0.5,0.5-0.4l1.8,1.1c0.3,0.2,0.5,0.6,0.5,1v1.9
			C262.9,257.5,262.7,257.7,262.4,257.5z"/>
		<path class="st4" d="M131.4,332.1l-86.6-50c-2.5-1.4-2.1-3.9,0.7-5.5l58.9-34c2.8-1.6,7.1-1.8,9.6-0.4l86.6,50
			c2.4,1.4,2.1,3.9-0.7,5.5l-58.9,34C138.1,333.3,133.8,333.5,131.4,332.1z"/>
		<path class="st5" d="M220.8,203.6l-86.6-50c-0.9-0.5-1.9-0.7-2.9-0.4l0,0l-0.2,0.1l0,0l-3.1,1.2l2.8,1.4v0.2l-14.1,64.2
			c-0.7,3.2,0.7,7,3.2,8.4l84.5,48.8l-0.3,3.6l3.4-1.3c1.3-0.7,2.2-2,2.4-3.5l14.1-64.2C224.7,208.8,223.3,205.1,220.8,203.6z"/>
		<path class="st1" d="M220.8,203.6l-86.6-50c-0.9-0.5-1.9-0.7-2.9-0.4l0,0l-0.2,0.1l0,0l-3.1,1.2l2.8,1.4v0.2l-9.3,42.3l42.3,33
			l59.6-24.3C223,205.7,222.1,204.4,220.8,203.6z"/>
		<path class="st8" d="M217.5,213.5l6.6-2.8c0.2-2.5-0.8-4.9-2.7-6.6l-10.4,4.4L217.5,213.5z"/>
		<path class="st2" d="M201,280.7l-86.6-50c-2.4-1.4-3.9-5.2-3.2-8.4l14.1-64.2c0.7-3.2,3.3-4.7,5.7-3.3l86.6,50
			c2.4,1.4,3.9,5.2,3.2,8.4l-14.1,64.2C206,280.6,203.4,282.1,201,280.7z"/>
		<path class="st3" d="M218.5,204.5l-86.6-50c-1-0.7-2.3-0.7-3.4-0.2c0.9-0.2,1.8,0,2.6,0.4l86.6,50c2.4,1.4,3.9,5.2,3.2,8.4
			l-14.1,64.2c-0.2,1.4-1.1,2.7-2.3,3.4c1.5-0.3,2.7-1.6,3.1-3.7l14.1-64.2C222.3,209.7,220.9,206,218.5,204.5z"/>
		<path class="st3" d="M199.1,275.9l-81.4-47c-2.2-1.3-3.5-4.7-2.9-7.7l12.9-58.7c0.7-2.9,3-4.3,5.2-3l81.4,47
			c2.2,1.3,3.5,4.7,2.9,7.7l-12.9,58.7C203.7,275.8,201.4,277.2,199.1,275.9z"/>
		<path class="st5" d="M199.1,275.9l-81.4-47c-2.2-1.3-3.5-4.7-2.9-7.7l12.9-58.7c0.7-2.9,3-4.3,5.2-3l81.4,47
			c2.2,1.3,3.5,4.7,2.9,7.7l-12.9,58.7C203.7,275.8,201.4,277.2,199.1,275.9z"/>
		<path class="st0" d="M199.8,275.6l-81.4-47c-2.2-1.3-3.5-4.7-2.9-7.7l12.9-58.7c0.2-1.3,1-2.4,2.1-3.1c-1.5,0.5-2.6,1.8-2.8,3.4
			l-12.9,58.7c-0.7,2.9,0.7,6.4,2.9,7.7l81.4,47c1,0.6,2.2,0.7,3.2,0.1C201.4,276.2,200.6,276,199.8,275.6z"/>
		<path class="st5" d="M202.2,282.8l-11.8-1.6L114,237.2c-2.4-1.4-6.7-1.2-9.5,0.4l-54.1,31.2l-7.2-1v4.1l0,0c0,1.1,0.7,2.1,1.6,2.5
			l86.6,50c2.4,1.4,6.7,1.2,9.6-0.4l58.9-34c1.6-0.9,2.4-2.1,2.3-3.2l0,0L202.2,282.8z"/>
		<path class="st1" d="M144.8,255l-5.4-3.1H79.7l-29.4,17l-7.2-1v4.1l0,0c0,1.1,0.7,2.1,1.6,2.5l86.6,50c1.5,0.8,3.2,1.1,4.9,0.9
			L144.8,255z"/>
		<path class="st0" d="M46.3,268.3l-3.2-0.4v4.1l0,0c0,1.1,0.7,2.1,1.6,2.5l1.5,0.9L46.3,268.3z"/>
		<path class="st8" d="M132.2,324.8c2.7,0.9,5.6,0.7,8.1-0.5v-9.1h-8.1V324.8z"/>
		<path class="st2" d="M131.4,320.4l-86.6-50c-2.5-1.4-2.1-3.9,0.7-5.5l58.9-34c2.8-1.6,7.1-1.8,9.6-0.4l86.6,50
			c2.4,1.4,2.1,3.9-0.7,5.5l-58.9,34C138.1,321.6,133.8,321.8,131.4,320.4z"/>
		<path class="st3" d="M199.8,284.5l-58.9,34c-2.8,1.6-7.1,1.8-9.6,0.4l-86.6-50c-0.7-0.4-1.2-0.9-1.5-1.7c-0.4,1.2,0.1,2.3,1.5,3.1
			l86.6,50c2.4,1.4,6.7,1.2,9.6-0.4l58.9-34c1.9-1.1,2.7-2.6,2.2-3.9C201.6,283.1,200.8,284,199.8,284.5z"/>
		<path class="st0" d="M81.6,253.8l-3.9-2.3c-0.3-0.2-0.3-0.5,0.1-0.7l4.6-2.7c0.4-0.2,0.8-0.2,1.2-0.1l3.9,2.3
			c0.3,0.2,0.3,0.5-0.1,0.7l-4.6,2.7C82.5,254,82,254,81.6,253.8z"/>
		<path class="st0" d="M87.7,257.3l-3.9-2.2c-0.3-0.2-0.3-0.5,0.1-0.7l4.6-2.7c0.4-0.2,0.8-0.2,1.2-0.1l3.9,2.3
			c0.3,0.2,0.3,0.5-0.1,0.7l-4.6,2.7C88.5,257.5,88,257.5,87.7,257.3z"/>
		<path class="st0" d="M93.7,260.8l-3.9-2.3c-0.3-0.2-0.3-0.5,0.1-0.7l4.6-2.7c0.4-0.2,0.8-0.2,1.2-0.1l3.9,2.3
			c0.3,0.2,0.3,0.5-0.1,0.7l-4.6,2.7C94.6,261,94.1,261,93.7,260.8z"/>
		<path class="st0" d="M102.1,257.9l-3.9-2.3c-0.3-0.2-0.3-0.5,0.1-0.7l3.9-2.2c0.4-0.2,0.8-0.2,1.2-0.1l3.9,2.3
			c0.3,0.2,0.3,0.5-0.1,0.7l-3.9,2.2C102.9,258.1,102.5,258.1,102.1,257.9z"/>
		<path class="st0" d="M108.1,261.4l-3.9-2.3c-0.3-0.2-0.3-0.5,0.1-0.7l3.8-2.2c0.4-0.2,0.8-0.2,1.2-0.1l3.9,2.3
			c0.3,0.2,0.3,0.5-0.1,0.7l-3.9,2.2C108.9,261.6,108.5,261.6,108.1,261.4z"/>
		<path class="st0" d="M114.1,264.9l-3.9-2.3c-0.3-0.2-0.3-0.5,0.1-0.7l3.9-2.2c0.4-0.2,0.8-0.2,1.2,0l3.9,2.3
			c0.3,0.2,0.3,0.5-0.1,0.7l-3.9,2.2C115,265.1,114.5,265.1,114.1,264.9z"/>
		<path class="st0" d="M120.2,268.4l-3.9-2.3c-0.3-0.2-0.3-0.5,0.1-0.7l3.9-2.2c0.4-0.2,0.8-0.2,1.2,0l3.9,2.3
			c0.3,0.2,0.3,0.5-0.1,0.7l-3.9,2.2C121.1,268.6,120.6,268.6,120.2,268.4z"/>
		<path class="st0" d="M126.3,271.9l-3.9-2.3c-0.3-0.2-0.3-0.5,0.1-0.7l3.9-2.2c0.4-0.2,0.8-0.2,1.2,0l3.9,2.3
			c0.3,0.2,0.3,0.5-0.1,0.7l-3.9,2.2C127.1,272.1,126.7,272.1,126.3,271.9z"/>
		<path class="st0" d="M132.3,275.4l-3.9-2.3c-0.3-0.2-0.3-0.5,0.1-0.7l3.9-2.2c0.4-0.2,0.8-0.2,1.2-0.1l3.9,2.3
			c0.3,0.2,0.3,0.5-0.1,0.7l-3.9,2.2C133.2,275.5,132.7,275.6,132.3,275.4z"/>
		<path class="st0" d="M138.4,278.9l-3.9-2.3c-0.3-0.2-0.3-0.5,0.1-0.7l3.9-2.2c0.4-0.2,0.8-0.2,1.2-0.1l3.9,2.3
			c0.3,0.2,0.3,0.5-0.1,0.7l-3.9,2.2C139.2,279,138.7,279.1,138.4,278.9z"/>
		<path class="st0" d="M144.4,282.4l-3.9-2.3c-0.3-0.2-0.3-0.5,0.1-0.7l3.9-2.2c0.4-0.2,0.8-0.2,1.2-0.1l3.9,2.3
			c0.3,0.2,0.3,0.5-0.1,0.7l-3.9,2.2C145.3,282.5,144.8,282.6,144.4,282.4z"/>
		<path class="st0" d="M150.5,285.9l-3.9-2.3c-0.3-0.2-0.3-0.5,0.1-0.7l3.9-2.2c0.4-0.2,0.8-0.2,1.2,0l3.9,2.3
			c0.3,0.2,0.3,0.5-0.1,0.7l-3.9,2.2C151.3,286,150.8,286.1,150.5,285.9z"/>
		<path class="st0" d="M156.5,289.4l-3.9-2.3c-0.3-0.2-0.3-0.5,0.1-0.7l3.9-2.2c0.4-0.2,0.8-0.2,1.2-0.1l3.9,2.3
			c0.3,0.2,0.3,0.5-0.1,0.7l-3.9,2.2C157.4,289.5,156.9,289.5,156.5,289.4z"/>
		<path class="st0" d="M111,256.3l-3.9-2.3c-0.3-0.2-0.3-0.5,0.1-0.7l3.9-2.2c0.4-0.2,0.8-0.2,1.2-0.1l3.9,2.2
			c0.3,0.2,0.3,0.5-0.1,0.7l-3.9,2.2C111.8,256.4,111.4,256.5,111,256.3z"/>
		<path class="st0" d="M104.8,252.7l-3.9-2.3c-0.3-0.2-0.3-0.5,0.1-0.7l3.9-2.2c0.4-0.2,0.8-0.2,1.2-0.1l3.9,2.3
			c0.3,0.2,0.3,0.5-0.1,0.7l-3.9,2.2C105.7,252.9,105.2,252.9,104.8,252.7z"/>
		<path class="st0" d="M98.7,249.2l-8.4-4.9c-0.3-0.2-0.3-0.5,0.1-0.7l3.9-2.2c0.4-0.2,0.8-0.2,1.2-0.1l8.4,4.9
			c0.3,0.2,0.3,0.5-0.1,0.7l-3.9,2.2C99.5,249.3,99.1,249.4,98.7,249.2z"/>
		<path class="st0" d="M103,244.9l-6.8-4c-0.3-0.2-0.3-0.5,0.1-0.7l3.9-2.2c0.4-0.2,0.8-0.2,1.2-0.1l6.9,4c0.3,0.2,0.3,0.5-0.1,0.7
			l-3.9,2.2C103.9,245.1,103.4,245.1,103,244.9z"/>
		<path class="st0" d="M117,259.8l-3.9-2.3c-0.3-0.2-0.3-0.5,0.1-0.7l3.9-2.2c0.4-0.2,0.8-0.2,1.2-0.1l3.9,2.3
			c0.3,0.2,0.3,0.5-0.1,0.7l-3.9,2.2C117.9,259.9,117.4,260,117,259.8z"/>
		<path class="st0" d="M123.1,263.3l-3.9-2.3c-0.3-0.2-0.3-0.5,0.1-0.7l3.9-2.2c0.4-0.2,0.8-0.2,1.2-0.1l3.9,2.3
			c0.3,0.2,0.3,0.5-0.1,0.7l-3.9,2.2C123.9,263.5,123.5,263.5,123.1,263.3z"/>
		<path class="st0" d="M129.1,266.8l-3.9-2.3c-0.3-0.2-0.3-0.5,0.1-0.7l3.8-2.2c0.4-0.2,0.8-0.2,1.2,0l3.9,2.3
			c0.3,0.2,0.3,0.5-0.1,0.7l-3.9,2.2C129.9,266.9,129.5,266.9,129.1,266.8z"/>
		<path class="st0" d="M135.1,270.2l-3.9-2.3c-0.3-0.2-0.3-0.5,0.1-0.7l3.9-2.2c0.4-0.2,0.8-0.2,1.2,0l3.9,2.3
			c0.3,0.2,0.3,0.5-0.1,0.7l-3.9,2.2C136,270.4,135.5,270.4,135.1,270.2z"/>
		<path class="st0" d="M141.2,273.7l-3.9-2.3c-0.3-0.2-0.3-0.5,0.1-0.7l3.9-2.2c0.4-0.2,0.8-0.2,1.2,0l3.9,2.3
			c0.3,0.2,0.3,0.5-0.1,0.7l-3.9,2.2C142.1,273.9,141.6,273.9,141.2,273.7z"/>
		<path class="st0" d="M147.3,277.2l-3.9-2.3c-0.3-0.2-0.3-0.5,0.1-0.7l3.9-2.2c0.4-0.2,0.8-0.2,1.2-0.1l3.9,2.3
			c0.3,0.2,0.3,0.5-0.1,0.7l-3.9,2.2C148.1,277.4,147.7,277.4,147.3,277.2z"/>
		<path class="st0" d="M153.3,280.7l-3.9-2.3c-0.3-0.2-0.3-0.5,0.1-0.7l3.9-2.2c0.4-0.2,0.8-0.2,1.2,0l3.9,2.3
			c0.3,0.2,0.3,0.5-0.1,0.7l-3.9,2.2C154.2,280.9,153.7,280.9,153.3,280.7z"/>
		<path class="st0" d="M159.4,284.2l-3.9-2.3c-0.3-0.2-0.3-0.5,0.1-0.7l3.9-2.2c0.4-0.2,0.8-0.2,1.2,0l3.9,2.3
			c0.3,0.2,0.3,0.5-0.1,0.7l-3.9,2.2C160.2,284.4,159.8,284.4,159.4,284.2z"/>
		<path class="st0" d="M165.4,287.7l-3.9-2.3c-0.3-0.2-0.3-0.5,0.1-0.7l3.9-2.2c0.4-0.2,0.8-0.2,1.2-0.1l3.9,2.3
			c0.3,0.2,0.3,0.5-0.1,0.7l-3.9,2.2C166.3,287.9,165.8,287.9,165.4,287.7z"/>
		<path class="st0" d="M176.1,293.9l-8.6-4.9c-0.3-0.2-0.3-0.5,0.1-0.7l3.9-2.2c0.4-0.2,0.8-0.2,1.2-0.1l8.6,4.9
			c0.3,0.2,0.3,0.5-0.1,0.7l-3.9,2.2C177,294.1,176.5,294.1,176.1,293.9z"/>
		<path class="st0" d="M187.9,287.1l-7.2-4.2c-0.3-0.2-0.3-0.5,0.1-0.7l3.9-2.2c0.4-0.2,0.8-0.2,1.2-0.1l7.2,4.2
			c0.3,0.2,0.3,0.5-0.1,0.7l-3.9,2.3C188.8,287.3,188.3,287.3,187.9,287.1z"/>
		<path class="st0" d="M127.6,259.1l-3.9-2.3c-0.3-0.2-0.3-0.5,0.1-0.7l3.9-2.2c0.4-0.2,0.8-0.2,1.2-0.1l3.9,2.3
			c0.3,0.2,0.3,0.5-0.1,0.7l-3.9,2.2C128.5,259.3,128,259.3,127.6,259.1z"/>
		<path class="st0" d="M121.4,255.5l-3.9-2.3c-0.3-0.2-0.3-0.5,0.1-0.7l3.9-2.2c0.4-0.2,0.8-0.2,1.2-0.1l3.9,2.3
			c0.3,0.2,0.3,0.5-0.1,0.7l-3.9,2.2C122.3,255.7,121.8,255.7,121.4,255.5z"/>
		<path class="st0" d="M115.2,251.9l-3.9-2.3c-0.3-0.2-0.3-0.5,0.1-0.7l3.9-2.2c0.4-0.2,0.8-0.2,1.2-0.1l3.9,2.3
			c0.3,0.2,0.3,0.5-0.1,0.7l-3.9,2.2C116.1,252.1,115.6,252.1,115.2,251.9z"/>
		<path class="st0" d="M109,248.4l-3.9-2.3c-0.3-0.2-0.3-0.5,0.1-0.7l3.9-2.3c0.4-0.2,0.8-0.2,1.2-0.1l3.9,2.3
			c0.3,0.2,0.3,0.5-0.1,0.7l-3.9,2.2C109.9,248.5,109.4,248.5,109,248.4z"/>
		<path class="st0" d="M133.7,262.6l-3.9-2.3c-0.3-0.2-0.3-0.5,0.1-0.7l3.9-2.2c0.4-0.2,0.8-0.2,1.2-0.1l3.9,2.3
			c0.3,0.2,0.3,0.5-0.1,0.7l-3.9,2.2C134.5,262.7,134.1,262.8,133.7,262.6z"/>
		<path class="st0" d="M139.7,266.1l-3.9-2.3c-0.3-0.2-0.3-0.5,0.1-0.7l3.9-2.2c0.4-0.2,0.8-0.2,1.2,0l3.9,2.3
			c0.3,0.2,0.3,0.5-0.1,0.7l-3.9,2.2C140.6,266.3,140.1,266.3,139.7,266.1z"/>
		<path class="st0" d="M145.8,269.6l-3.9-2.3c-0.3-0.2-0.3-0.5,0.1-0.7l3.9-2.2c0.4-0.2,0.8-0.2,1.2,0l3.9,2.3
			c0.3,0.2,0.3,0.5-0.1,0.7l-3.9,2.2C146.6,269.7,146.2,269.7,145.8,269.6z"/>
		<path class="st0" d="M151.8,273.1l-3.9-2.3c-0.3-0.2-0.3-0.5,0.1-0.7l3.9-2.2c0.4-0.2,0.8-0.2,1.2,0l3.9,2.3
			c0.3,0.2,0.3,0.5-0.1,0.7L153,273C152.7,273.3,152.2,273.3,151.8,273.1z"/>
		<path class="st0" d="M157.9,276.5l-3.9-2.3c-0.3-0.2-0.3-0.5,0.1-0.7l3.9-2.2c0.4-0.2,0.8-0.2,1.2-0.1l3.9,2.3
			c0.3,0.2,0.3,0.5-0.1,0.7l-3.8,2.2C158.7,276.7,158.3,276.7,157.9,276.5z"/>
		<path class="st0" d="M163.9,280l-3.9-2.3c-0.3-0.2-0.3-0.5,0.1-0.7l3.9-2.2c0.4-0.2,0.8-0.2,1.2-0.1l3.9,2.3
			c0.3,0.2,0.3,0.5-0.1,0.7l-3.9,2.2C164.8,280.2,164.3,280.2,163.9,280z"/>
		<path class="st0" d="M170,283.5l-3.9-2.3c-0.3-0.2-0.3-0.5,0.1-0.7l3.9-2.2c0.4-0.2,0.8-0.2,1.2,0l3.9,2.3
			c0.3,0.2,0.3,0.5-0.1,0.7l-3.9,2.2C170.8,283.7,170.4,283.7,170,283.5z"/>
		<path class="st0" d="M176,287l-3.9-2.3c-0.3-0.2-0.3-0.5,0.1-0.7l3.9-2.2c0.4-0.2,0.8-0.2,1.2,0l3.9,2.3c0.3,0.2,0.3,0.5-0.1,0.7
			l-3.9,2.2C176.9,287.2,176.4,287.2,176,287z"/>
		<path class="st0" d="M182.1,290.5l-3.9-2.3c-0.3-0.2-0.3-0.5,0.1-0.7l3.9-2.2c0.4-0.2,0.8-0.2,1.2-0.1l3.9,2.3
			c0.3,0.2,0.3,0.5-0.1,0.7l-3.9,2.2C182.9,290.7,182.4,290.7,182.1,290.5z"/>
		<path class="st0" d="M124.4,250.5l-3.9-2.3c-0.3-0.2-0.3-0.5,0.1-0.7l3.9-2.2c0.4-0.2,0.8-0.2,1.2-0.1l3.9,2.3
			c0.3,0.2,0.3,0.5-0.1,0.7l-3.9,2.2C125.3,250.6,124.8,250.6,124.4,250.5z"/>
		<path class="st0" d="M118.4,247l-3.9-2.3c-0.3-0.2-0.3-0.5,0.1-0.7l3.9-2.2c0.4-0.2,0.8-0.2,1.2-0.1l3.9,2.3
			c0.3,0.2,0.3,0.5-0.1,0.7l-3.9,2.2C119.3,247.1,118.8,247.2,118.4,247z"/>
		<path class="st0" d="M112.4,243.5l-3.9-2.3c-0.3-0.2-0.3-0.5,0.1-0.7l3.9-2.2c0.4-0.2,0.8-0.2,1.2-0.1l3.9,2.3
			c0.3,0.2,0.3,0.5-0.1,0.7l-3.9,2.2C113.2,243.7,112.8,243.7,112.4,243.5z"/>
		<path class="st0" d="M106.4,240l-3.9-2.3c-0.3-0.2-0.3-0.5,0.1-0.7l3.9-2.2c0.4-0.2,0.8-0.2,1.2-0.1l3.9,2.3
			c0.3,0.2,0.3,0.5-0.1,0.7l-3.9,2.2C107.2,240.2,106.8,240.2,106.4,240z"/>
		<path class="st0" d="M112.6,236.5l-3.9-2.3c-0.3-0.2-0.3-0.5,0.1-0.7l1.3-0.7c0.4-0.2,0.8-0.2,1.2-0.1l3.9,2.3
			c0.3,0.2,0.3,0.5-0.1,0.7l-1.3,0.7C113.4,236.6,113,236.6,112.6,236.5z"/>
		<path class="st0" d="M120.4,241l-3.9-2.3c-0.3-0.2-0.3-0.5,0.1-0.7l1.3-0.7c0.4-0.2,0.8-0.2,1.2-0.1l3.9,2.3
			c0.3,0.2,0.3,0.5-0.1,0.7l-1.3,0.7C121.3,241.1,120.8,241.2,120.4,241z"/>
		<path class="st0" d="M126.4,244.4l-3.9-2.3c-0.3-0.2-0.3-0.5,0.1-0.7l1.3-0.7c0.4-0.2,0.8-0.2,1.2-0.1l3.9,2.3
			c0.3,0.2,0.3,0.5-0.1,0.7l-1.3,0.7C127.3,244.6,126.8,244.6,126.4,244.4z"/>
		<path class="st0" d="M132.4,247.9l-3.9-2.3c-0.3-0.2-0.3-0.5,0.1-0.7l1.3-0.7c0.4-0.2,0.8-0.2,1.2-0.1l3.9,2.3
			c0.3,0.2,0.3,0.5-0.1,0.7l-1.3,0.7C133.3,248.1,132.8,248.1,132.4,247.9z"/>
		<path class="st0" d="M138.4,251.4l-3.9-2.3c-0.3-0.2-0.3-0.5,0.1-0.7l1.3-0.7c0.4-0.2,0.8-0.2,1.2-0.1l3.9,2.3
			c0.3,0.2,0.3,0.5-0.1,0.7l-1.3,0.7C139.3,251.5,138.8,251.5,138.4,251.4z"/>
		<path class="st0" d="M171.9,270.7l-3.9-2.3c-0.3-0.2-0.3-0.5,0.1-0.7l1.3-0.7c0.4-0.2,0.8-0.2,1.2,0l3.9,2.3
			c0.3,0.2,0.3,0.5-0.1,0.7l-1.3,0.7C172.7,270.8,172.3,270.9,171.9,270.7z"/>
		<path class="st0" d="M177.9,274.1l-3.9-2.3c-0.3-0.2-0.3-0.5,0.1-0.7l1.3-0.7c0.4-0.2,0.8-0.2,1.2-0.1l3.9,2.3
			c0.3,0.2,0.3,0.5-0.1,0.7l-1.3,0.7C178.7,274.3,178.2,274.3,177.9,274.1z"/>
		<path class="st0" d="M183.8,277.6l-3.9-2.3c-0.3-0.2-0.3-0.5,0.1-0.7l1.3-0.7c0.4-0.2,0.8-0.2,1.2-0.1l3.9,2.3
			c0.3,0.2,0.3,0.5-0.1,0.7l-1.3,0.7C184.7,277.8,184.2,277.8,183.8,277.6z"/>
		<path class="st0" d="M189.8,281.1l-3.9-2.3c-0.3-0.2-0.3-0.5,0.1-0.7l1.3-0.7c0.4-0.2,0.8-0.2,1.2,0l3.9,2.3
			c0.3,0.2,0.3,0.5-0.1,0.7l-1.3,0.7C190.7,281.3,190.2,281.3,189.8,281.1z"/>
		<path class="st0" d="M130.5,253.9l-3.9-2.3c-0.3-0.2-0.3-0.5,0.1-0.7l3.9-2.2c0.4-0.2,0.8-0.2,1.2-0.1l3.9,2.3
			c0.3,0.2,0.3,0.5-0.1,0.7l-3.9,2.2C131.3,254.1,130.9,254.1,130.5,253.9z"/>
		<path class="st0" d="M136.5,257.4l-3.9-2.3c-0.3-0.2-0.3-0.5,0.1-0.7l3.9-2.2c0.4-0.2,0.8-0.2,1.2-0.1l3.9,2.3
			c0.3,0.2,0.3,0.5-0.1,0.7l-3.9,2.2C137.4,257.6,136.9,257.6,136.5,257.4z"/>
		<path class="st0" d="M142.6,260.9l-3.9-2.3c-0.3-0.2-0.3-0.5,0.1-0.7l3.9-2.2c0.4-0.2,0.8-0.2,1.2-0.1l3.9,2.3
			c0.3,0.2,0.3,0.5-0.1,0.7l-3.9,2.2C143.4,261.1,143,261.1,142.6,260.9z"/>
		<path class="st0" d="M148.6,264.4l-3.9-2.3c-0.3-0.2-0.3-0.5,0.1-0.7l3.9-2.2c0.4-0.2,0.8-0.2,1.2-0.1l3.9,2.3
			c0.3,0.2,0.3,0.5-0.1,0.7l-3.9,2.2C149.5,264.6,149,264.6,148.6,264.4z"/>
		<path class="st0" d="M154.7,267.9l-3.9-2.3c-0.3-0.2-0.3-0.5,0.1-0.7l3.9-2.2c0.4-0.2,0.8-0.2,1.2,0l3.9,2.3
			c0.3,0.2,0.3,0.5-0.1,0.7l-3.9,2.2C155.5,268.1,155.1,268.1,154.7,267.9z"/>
		<path class="st0" d="M160.7,271.4l-3.9-2.3c-0.3-0.2-0.3-0.5,0.1-0.7l3.9-2.2c0.4-0.2,0.8-0.2,1.2-0.1l3.9,2.3
			c0.3,0.2,0.3,0.5-0.1,0.7l-3.9,2.2C161.6,271.5,161.1,271.6,160.7,271.4z"/>
		<path class="st0" d="M166.8,274.9l-3.9-2.3c-0.3-0.2-0.3-0.5,0.1-0.7l3.9-2.2c0.4-0.2,0.8-0.2,1.2-0.1l3.9,2.3
			c0.3,0.2,0.3,0.5-0.1,0.7l-3.9,2.2C167.6,275.1,167.2,275.1,166.8,274.9z"/>
		<path class="st0" d="M172.8,278.4l-3.9-2.3c-0.3-0.2-0.3-0.5,0.1-0.7l3.9-2.2c0.4-0.2,0.9-0.2,1.3,0l3.9,2.3
			c0.3,0.2,0.3,0.5-0.1,0.7l-3.9,2.2C173.7,278.5,173.2,278.6,172.8,278.4z"/>
		<path class="st0" d="M178.9,281.9l-3.9-2.3c-0.3-0.2-0.3-0.5,0.1-0.7l3.9-2.2c0.4-0.2,0.8-0.2,1.2-0.1l3.9,2.3
			c0.3,0.2,0.3,0.5-0.1,0.7l-3.9,2.2C179.8,282.1,179.3,282.1,178.9,281.9z"/>
		<path class="st0" d="M95.9,254.4l-11.5-6.7c-0.3-0.2-0.3-0.5,0.1-0.7l3.9-2.2c0.4-0.2,0.8-0.2,1.2-0.1l11.6,6.7
			c0.3,0.2,0.3,0.5-0.1,0.7l-3.9,2.2C96.8,254.5,96.3,254.6,95.9,254.4z"/>
		<path class="st0" d="M170.2,297.3l-11.5-6.7c-0.3-0.2-0.3-0.5,0.1-0.7l3.9-2.2c0.4-0.2,0.8-0.2,1.2-0.1l11.5,6.7
			c0.3,0.2,0.3,0.5-0.1,0.7l-3.9,2.2C171.1,297.4,170.6,297.5,170.2,297.3z"/>
		<path class="st0" d="M146,291l-3.9-2.3c-0.3-0.2-0.3-0.5,0.1-0.7l4.6-2.7c0.4-0.2,0.8-0.2,1.2,0l3.9,2.3c0.3,0.2,0.3,0.5-0.1,0.7
			l-4.6,2.7C146.9,291.2,146.4,291.2,146,291z"/>
		<path class="st0" d="M102.1,265.7l-6.3-3.6c-0.3-0.2-0.3-0.5,0.1-0.7l4.6-2.7c0.4-0.2,0.8-0.2,1.2-0.1l6.3,3.6
			c0.3,0.2,0.3,0.5-0.1,0.7l-4.6,2.7C102.9,265.8,102.5,265.8,102.1,265.7z"/>
		<path class="st0" d="M140.2,287.7l-6.3-3.6c-0.3-0.2-0.3-0.5,0.1-0.7l4.6-2.7c0.4-0.2,0.8-0.2,1.2-0.1l6.3,3.6
			c0.3,0.2,0.3,0.5-0.1,0.7l-4.6,2.7C141,287.8,140.6,287.8,140.2,287.7z"/>
		<path class="st0" d="M110.8,270.7l-6.3-3.6c-0.3-0.2-0.3-0.5,0.1-0.7l4.6-2.7c0.4-0.2,0.8-0.2,1.2-0.1l6.3,3.6
			c0.3,0.2,0.3,0.5-0.1,0.7l-4.6,2.7C111.7,270.9,111.2,270.9,110.8,270.7z"/>
		<path class="st0" d="M110.5,263.7l27.2,15.7c0.2,0.1,0.3,0.3,0.3,0.5c0,0.1-0.1,0.2-0.3,0.3l-4.7,2.7c-0.4,0.2-0.8,0.2-1.2,0
			l-27.2-15.7L110.5,263.7z"/>
		<path class="st0" d="M162.9,297.4l4.4,2.5c0.3,0.1,0.2,0.4-0.1,0.6l-1.9,1.1c-0.3,0.2-0.7,0.2-1,0l-4.4-2.4
			c-0.3-0.1-0.2-0.4,0.1-0.6l1.9-1.1C162.2,297.2,162.6,297.2,162.9,297.4z"/>
		<path class="st0" d="M156.8,293.8l4.4,2.5c0.3,0.1,0.2,0.4-0.1,0.6l-1.9,1.1c-0.3,0.2-0.7,0.2-1,0l-4.4-2.5
			c-0.3-0.1-0.2-0.4,0.1-0.6l1.9-1.1C156.1,293.7,156.5,293.7,156.8,293.8z"/>
		<path class="st0" d="M150.8,290.3l4.4,2.5c0.3,0.1,0.2,0.4-0.1,0.6l-1.9,1.1c-0.3,0.2-0.7,0.2-1,0l-4.3-2.4
			c-0.3-0.1-0.2-0.4,0.1-0.6l1.9-1.1C150.1,290.2,150.4,290.2,150.8,290.3z"/>
		<path class="st0" d="M160.1,291.9l4.4,2.5c0.3,0.1,0.2,0.4-0.1,0.6l-1.9,1.1c-0.3,0.2-0.7,0.2-1,0l-4.4-2.5
			c-0.3-0.1-0.2-0.4,0.1-0.6l1.9-1.1C159.5,291.8,159.8,291.8,160.1,291.9z"/>
		<polygon class="st3" points="184.1,223.8 151.5,205 151.9,202.8 184.5,221.6 		"/>
		<polygon class="st3" points="172.4,227.3 149.6,214.2 150.1,212.1 172.8,225.2 		"/>
		<polygon class="st9" points="170.2,220.9 150.6,209.6 151,207.5 170.7,218.8 		"/>
		<polygon class="st2" points="183.1,228.4 173.3,222.7 173.7,220.6 183.6,226.3 		"/>
		<path class="st2" d="M166.1,202.8c-0.3,0.6-1,0.9-1.6,0.6c0,0-0.1,0-0.1-0.1c-0.7-0.4-0.9-1.2-0.6-1.9c0.3-0.6,1-0.9,1.6-0.6
			c0,0,0.1,0,0.1,0.1C166.1,201.2,166.4,202.1,166.1,202.8z"/>
		<path class="st3" d="M170.3,205.2c-0.3,0.6-1,0.9-1.6,0.6c0,0-0.1,0-0.1-0.1c-0.7-0.4-0.9-1.2-0.6-1.9c0.3-0.6,1-0.9,1.6-0.6
			c0,0,0.1,0,0.1,0.1C170.3,203.7,170.6,204.5,170.3,205.2z"/>
		<path class="st2" d="M174.5,207.7c-0.3,0.6-1,0.9-1.6,0.6c0,0-0.1,0-0.1-0.1c-0.7-0.4-0.9-1.2-0.6-1.9c0.3-0.6,1-0.9,1.6-0.6
			c0,0,0.1,0,0.1,0.1C174.6,206.1,174.8,207,174.5,207.7z"/>
		<path class="st9" d="M178.8,210.1c-0.3,0.6-1,0.9-1.6,0.6c0,0-0.1,0-0.1-0.1c-0.7-0.4-0.9-1.2-0.6-1.9c0.3-0.6,1-0.9,1.6-0.6
			c0,0,0.1,0,0.1,0.1C178.8,208.6,179.1,209.4,178.8,210.1z"/>
		<path class="st2" d="M184,123.8l-1.7-1v-2.4c-0.2-2.8-1.7-5.4-4.1-7l-12.7-7.3c-2.2-1.3-4.1-0.2-4.1,2.3v2.4l-1.7-1v-2.4
			c0-3.7,2.6-5.1,5.7-3.3l12.7,7.3c3.4,2.2,5.5,5.9,5.7,9.9L184,123.8z"/>
		<path class="st2" d="M178.3,127.1l5.7-3.3l-1.2-4l-1.6-4c0,0-2.8-3.1-3-3.1s-7.7-4.3-7.7-4.3l-6.2-4.5l-3,0.1l-5.5,3.2l4,1.7
			c0,0,2.2,1.1,2.8,1.2c1,0.7,1.9,1.4,2.8,2.3l2.7,1.1l0.6-0.1l4.9,3.4l1.6,0.7l0.9,1.4l1.3,3.6L178.3,127.1z"/>
		<path class="st1" d="M161.5,110.9l-5.7,3.3c0,0-0.4-3.7-0.4-3.7s1.2-1.8,1.2-1.8l3.1-0.6l2.5,1.9l-0.8-0.3l-0.3,0.2l0.4,0.6
			L161.5,110.9z"/>
		<path class="st0" d="M178.3,127.1l-1.7-1v-2.3c-0.2-2.8-1.7-5.4-4.1-7l-12.7-7.3c-2.2-1.3-4.1-0.2-4.1,2.3v2.4l-1.7-1v-2.4
			c0-3.7,2.6-5.1,5.7-3.3l12.7,7.3c3.4,2.2,5.5,5.9,5.7,9.9L178.3,127.1z"/>
		<path class="st2" d="M241.5,123.8l-1.2-0.7c-0.5,0.4-1,0.7-1.6,1l2.8,1.6c2.4,1.6,3.9,4.2,4.1,7v2.4l1.7,1v-2.4
			C247,129.7,244.9,126,241.5,123.8z"/>
		<path class="st2" d="M244.4,128.1c0,0-2.8-3.1-3-3.1s-1-0.6-2.2-1.2c-1.8,1.2-3.6,2.2-5.5,3.2l2.9,2.1l1.6,0.7l0.9,1.4l1.3,3.6
			l1.1,4.7l5.7-3.3l-1.2-4L244.4,128.1z"/>
		<path class="st0" d="M235.7,129.1c2.4,1.6,3.9,4.2,4.1,7v2.4l1.7,1V137c-0.2-4-2.3-7.7-5.7-9.9l-1.1-0.6l-1.7,0.9L235.7,129.1z"/>
		<path class="st10" d="M345.3,83.8l-19.1-11c-0.3-0.2-0.7-0.2-1-0.1l0,0l-1.9,1.1l1.3,0.5v13.9c0,1.2,0.6,2.3,1.5,2.9l18.3,10.6
			v1.6l1.9-1.1l0,0c0.4-0.3,0.6-0.8,0.5-1.2V86.7C346.8,85.5,346.3,84.4,345.3,83.8z"/>
		<path class="st9" d="M343.4,103.2l-19.1-11.1c-0.9-0.7-1.5-1.8-1.5-2.9V75c0-1.1,0.7-1.7,1.5-1.2l19.1,11c0.9,0.7,1.5,1.8,1.5,2.9
			V102C345,103.2,344.3,103.7,343.4,103.2z"/>
		<path class="st3" d="M343.9,84.6l-19.1-11c-0.3-0.3-0.8-0.3-1.2,0c0.2,0,0.5,0,0.7,0.2l19.1,11c0.9,0.7,1.5,1.8,1.5,2.9V102
			c0,0.4-0.1,0.8-0.4,1.1c0.5,0,0.9-0.5,0.9-1.3V87.6C345.4,86.4,344.9,85.3,343.9,84.6z"/>
		<path class="st3" d="M330.7,87.2c0,0.8-0.6,1.2-1.3,0.8c-0.8-0.5-1.3-1.3-1.3-2.2c0-0.8,0.6-1.2,1.3-0.8
			C330.2,85.5,330.7,86.3,330.7,87.2z"/>
		<path class="st3" d="M334.6,89.5c0,0.8-0.6,1.2-1.3,0.8c-0.8-0.5-1.2-1.3-1.3-2.2c0-0.8,0.6-1.2,1.3-0.8
			C334.1,87.7,334.6,88.6,334.6,89.5z"/>
		<path class="st3" d="M338.6,91.7c0,0.8-0.6,1.2-1.3,0.8c-0.8-0.5-1.2-1.3-1.3-2.2c0-0.8,0.6-1.2,1.3-0.8
			C338,90,338.5,90.8,338.6,91.7z"/>
		<path class="st0" d="M334.4,65.9l-19.1-11c-0.3-0.2-0.7-0.2-1-0.1l0,0l-1.9,1.1l1.3,0.5v13.9c0,1.2,0.6,2.3,1.5,2.9l18.3,10.6v1.6
			l1.9-1.1l0,0c0.4-0.3,0.6-0.8,0.5-1.2V68.8C335.9,67.6,335.4,66.5,334.4,65.9z"/>
		<path class="st2" d="M332.5,85.3l-19.1-11c-0.9-0.7-1.5-1.8-1.5-2.9V57.1c0-1.1,0.7-1.6,1.5-1.2l19.1,11c0.9,0.7,1.5,1.8,1.5,2.9
			v14.2C334.1,85.3,333.4,85.8,332.5,85.3z"/>
		<path class="st3" d="M333,66.7l-19.1-11c-0.3-0.3-0.8-0.3-1.2,0c0.2,0,0.5,0,0.7,0.2l19.1,11c0.9,0.7,1.5,1.8,1.5,2.9v14.2
			c0,0.4-0.1,0.8-0.4,1.1c0.5,0,0.9-0.5,0.9-1.3V69.7C334.5,68.5,334,67.4,333,66.7z"/>
		<path class="st3" d="M319.8,69.3c0,0.8-0.6,1.2-1.3,0.8c-0.8-0.5-1.2-1.3-1.3-2.2c0-0.8,0.6-1.2,1.3-0.8
			C319.3,67.6,319.8,68.4,319.8,69.3z"/>
		<path class="st3" d="M323.8,71.6c0,0.8-0.6,1.2-1.3,0.8c-0.8-0.5-1.3-1.3-1.3-2.2c0-0.8,0.6-1.2,1.3-0.8
			C323.2,69.8,323.7,70.7,323.8,71.6z"/>
		<path class="st3" d="M327.7,73.9c0,0.8-0.6,1.2-1.3,0.8c-0.8-0.5-1.2-1.3-1.3-2.2c0-0.8,0.6-1.2,1.3-0.8
			C327.1,72.1,327.6,72.9,327.7,73.9z"/>
		<polygon class="st4" points="71.4,330.7 61.9,325.3 71.4,319.8 80.8,325.3 		"/>
		<polygon class="st10" points="80.8,319.1 71.4,324.5 71.4,313.6 80.8,308.2 		"/>
		<polygon class="st9" points="71.4,313.6 61.9,308.2 71.4,302.7 80.8,308.2 		"/>
		<polygon class="st9" points="71.4,324.5 61.9,319.1 61.9,308.2 71.4,313.6 		"/>
		<polygon class="st4" points="71.4,155.3 61.9,149.8 71.4,144.4 80.8,149.8 		"/>
		<polygon class="st5" points="80.8,143.6 71.4,149.1 71.4,138.2 80.8,132.7 		"/>
		<polygon class="st2" points="71.4,138.2 61.9,132.7 71.4,127.3 80.8,132.7 		"/>
		<polygon class="st0" points="71.4,149.1 61.9,143.6 61.9,132.7 71.4,138.2 		"/>
		<polygon class="st4" points="223,338.5 213.6,333.1 223,327.6 232.4,333.1 		"/>
		<polygon class="st5" points="232.4,326.9 223,332.3 223,321.4 232.4,316 		"/>
		<polygon class="st2" points="223,321.4 213.6,316 223,310.5 232.4,316 		"/>
		<polygon class="st0" points="223,332.3 213.6,326.9 213.6,316 223,321.4 		"/>
	</g>
</g>
</svg>
