<svg enable-background="new 0 0 390 380.6" viewBox="0 0 390 380.6" xmlns="http://www.w3.org/2000/svg"><path d="m263.9 134.6c-.4 0-.7-.3-.7-.7v-28.5c0-.4.3-.7.7-.7s.7.3.7.7v28.5c0 .4-.3.7-.7.7z" fill="#5793ce"/><path d="m261.4 103.7h4.9v10.7h-4.9z" fill="#5793ce"/><path d="m265.6 115.4c-1.1.6-2.4.6-3.5 0-.6-.2-.8-.8-.6-1.4.1-.3.3-.5.6-.6 1.1-.6 2.4-.6 3.5 0 .6.2.8.8.6 1.4-.1.2-.3.4-.6.6z" fill="#5793ce"/><path d="m259.9 88.8h8v16.7h-8z" fill="#5793ce"/><path d="m261.4 105.4v3.6c1.6.7 3.4.7 4.9 0v-3.6c-1.5-.6-3.3-.6-4.9 0z" fill="#396caa"/><path d="m266.7 107.2c-1.8.9-3.9.9-5.7 0-1.6-.9-1.6-2.4 0-3.3 1.8-.9 3.9-.9 5.7 0 1.6.9 1.6 2.4 0 3.3z" fill="#5793ce"/><path d="m291.6 150.2c-.4 0-.7-.3-.7-.7v-28.4c0-.4.3-.7.7-.7s.7.3.7.7v28.5c0 .3-.3.6-.7.6z" fill="#5793ce"/><path d="m289.2 119.3h4.9v10.7h-4.9z" fill="#5793ce"/><path d="m293.4 131c-1.1.6-2.4.6-3.5 0-.6-.2-.8-.8-.6-1.4.1-.3.3-.5.6-.6 1.1-.6 2.4-.6 3.5 0 .6.2.8.8.6 1.4-.1.2-.3.5-.6.6z" fill="#5793ce"/><path d="m287.6 104.4h8v16.7h-8z" fill="#5793ce"/><path d="m289.1 121v3.6c1.6.7 3.4.7 4.9 0v-3.6c-1.5-.6-3.3-.6-4.9 0z" fill="#396caa"/><g fill="#5793ce"><path d="m294.5 122.8c-1.8.9-3.9.9-5.7 0-1.6-.9-1.6-2.4 0-3.3 1.8-.9 3.9-.9 5.7 0 1.5.9 1.5 2.4 0 3.3z"/><path d="m318.6 132.2 10.8-6.3-10.3-12.8-2.7 4.4z"/><path d="m240.6 62.1 17.1-9.9-.6 9.9-9.9 3z"/><path d="m321.6 100.1c-1.1-.7-2.4-1.1-3.7-1.4-1.7-9.1-8-18.7-15.6-23.1-1.9-1.2-4.1-1.9-6.4-2.2-1-11-8.7-23.5-18-28.9-4.8-2.8-9.2-3.2-12.5-1.5l-.2.1-.2.1-10.1 6 3.4 2.7c-3 1.3-4.9 4.7-4.9 9.7 0 9.2 6.5 20.4 14.5 25l53.8 38.4c6 3.5 10.9.7 10.9-6.3s-5-15.2-11-18.6z"/><path d="m253.9 57.6 23.2-13.5c-4.5-2.3-8.6-2.5-11.6-.9l-.2.1-.2.1-10.1 6 3.4 2.7c-2.4 1-4 3.1-4.5 5.5z"/><path d="m296.7 97.5 16.9-9.9c-2.7-4.9-6.6-9-11.3-12-.6-.3-1.2-.6-1.7-.9l-21.6 12.6z"/></g><path d="m259.7 50.4 7.5 4.4 13.8-8.1c-1-.8-2-1.5-3.1-2.1-1.5-.9-3.1-1.6-4.8-2z" fill="#d4ecff"/><path d="m311.8 84.7-13.5 8 4.7 5.2 12.3-7.2c-1-2.1-2.2-4.2-3.5-6z" fill="#d4ecff"/><path d="m311 106.3c-1.1-.7-2.4-1.1-3.7-1.4-1.7-9.1-8-18.7-15.6-23.1-1.9-1.2-4.1-1.9-6.4-2.2-1-11-8.7-23.5-18-28.9-10-5.8-18.1-1.1-18.1 10.5v1.2c-7.3-3.4-13 .4-13 9.1 0 9.2 6.5 20.4 14.5 25l60.3 34.8c6 3.5 10.9.7 10.9-6.3s-4.9-15.2-10.9-18.7z" fill="#d4ecff"/><path d="m249.3 62.5c0-.4 0-.8 0-1.2-4-1.6-7.5-.9-9.7 1.6 2.3-2 5.7-2.3 9.7-.4z" fill="#fff"/><path d="m311.9 105.5c-1.2-.7-2.4-1.1-3.7-1.4-1.7-9.1-8-18.7-15.6-23.1-1.9-1.2-4.1-1.9-6.4-2.2-1-11-8.7-23.5-18-28.9-6.2-3.6-11.7-3.1-15 .5 3.3-2.8 8.4-3 14.1.3 9.3 5.4 17 17.9 18 28.9 2.3.2 4.4 1 6.4 2.2 7.5 4.3 13.9 14 15.6 23.1 1.3.2 2.6.7 3.7 1.4 6 3.5 10.9 11.9 10.9 18.8.1 2.1-.5 4.1-1.7 5.8 1.6-1.2 2.6-3.5 2.6-6.6-.1-7-4.9-15.4-10.9-18.8z" fill="#fff"/><path d="m248 65.2 4.5 2.1-.2-5c0-.4 0-.7 0-1 0-4.5 1.4-7.7 3.8-9.1s5.9-1 9.8 1.3c8.3 4.8 15.5 16.5 16.5 26.6l.2 2.5 2.5.2c1.8.2 3.5.8 5 1.7 6.6 3.8 12.5 12.7 14.1 21l.4 2.1 2.1.3c.9.2 1.8.5 2.7 1 5.1 2.9 9.3 10.3 9.3 16.2 0 2.2-.6 3.8-1.7 4.4s-2.8.3-4.7-.8l-60.3-34.8c-7-4-12.9-14.3-12.9-22.4 0-3.2.9-5.6 2.6-6.6.7-.4 1.6-.7 2.4-.6 1.4 0 2.7.3 3.9.9z" fill="#396caa"/><path d="m278.1 103 1.6-.8-1.6-1.2z" fill="#5793ce"/><path d="m273.3 81.5 1.5-.8.1.8z" fill="#5793ce"/><path d="m282.6 98 1.6-.8-3.1-3z" fill="#5793ce"/><path d="m279.2 102.1-7.5-4.4c-.4-.3-.7-.8-.7-1.3v-8.7l8.9 5.2v8.7c0 .6-.3.8-.7.5z" fill="#5793ce"/><path d="m274.8 80.7-8.1 5.2c-.4.2-.1 1.1.5 1.4l8.3 4.9 8.3 4.9c.5.3.8-.2.5-.8l-8.1-14.8c-.4-.6-1.1-1-1.4-.8z" fill="#5793ce"/><path d="m277.6 103-7.5-4.4c-.4-.3-.7-.8-.7-1.3v-8.7l8.9 5.2v8.7c0 .5-.3.7-.7.5z" fill="#d4ecff"/><path d="m273.2 81.5-8.1 5.2c-.4.2-.1 1 .5 1.4l8.3 4.9 8.3 4.9c.5.3.8-.2.5-.8l-8.1-14.8c-.4-.6-1-1-1.4-.8z" fill="#d4ecff"/><path d="m263.1 112.5c0 .5-.3.7-.8.4s-.7-.8-.8-1.3c0-.5.3-.7.8-.4s.8.8.8 1.3z" fill="#d4ecff"/><path d="m291 128.3c0 .5-.3.7-.8.4s-.7-.8-.8-1.3c0-.5.3-.7.8-.4.4.3.7.8.8 1.3z" fill="#d4ecff"/><path d="m73.5 249.4-17.3-10c-7.2-4.2-7.2-11 0-15.1l15.8-9.1c3.2-1.9 3.2-4.9 0-6.8l-13.8-7.9c-7.2-4.2-7.2-11 0-15.1l17.2-10c7.2-4.2 19-4.2 26.2 0l11.1 6.4-7.2 4.2-11.1-6.4c-3.7-1.9-8-1.9-11.7 0l-17.2 10c-3.2 1.9-3.2 4.9 0 6.8l13.8 7.9c7.2 4.2 7.2 11 0 15.1l-15.8 9.1c-3.2 1.9-3.2 4.9 0 6.8l17.3 10z" fill="#efefef"/><path d="m51 223.9-.2-.4v1.7c-.1 2.8 1.7 5.6 5.4 7.7l17.3 10 7.2-4.2-17.3-10c-.9-.5-1.6-1.2-2-2-3.9-.3-6.9-2.3-9.6-4.8-.4.7-.6 1.3-.8 2z" fill="#5793ce"/><path d="m101.7 168.9c-7.2-4.2-19-4.2-26.2 0l-17.2 10c-1.8 1-3.4 2.4-4.5 4.2 2.8 2.6 5.5 5.5 9.9 5.1-1.2-1.7-.5-3.8 1.9-5.1l17.2-10c3.7-1.9 8-1.9 11.7 0l11.1 6.4 7.2-4.2z" fill="#173d7a"/><path d="m82 199.9c-.8-.8-1.8-1.5-2.8-2.1l-13.8-7.9c-.7-.4-1.4-1-1.8-1.6-4.4.4-7.1-2.4-9.9-5.1-.3.5-.5 1.1-.7 1.7l-.2-.3v1.9c0 2.8 1.8 5.5 5.4 7.6l13.8 7.9c2.1 1.2 2.8 2.9 2.2 4.5 2.8-.8 5.1-4.3 7.8-6.6z" fill="#5793ce"/><path d="m84.4 203.7c-.4-1.5-1.2-2.8-2.4-3.9-2.8 2.3-5 5.9-7.9 6.6-.5 1-1.2 1.8-2.2 2.2l-15.8 9.1c-1.8 1-3.4 2.4-4.5 4.2 2.8 2.5 5.8 4.5 9.6 4.8-.9-1.6-.2-3.5 2-4.8l15.8-9.1c3.6-2.1 5.4-4.8 5.4-7.5v-1.9z" fill="#173d7a"/><path d="m58.2 192.1 13.8 7.9c1.2.6 2.1 1.7 2.4 3 .2-1.4-.6-2.7-2.4-3.8l-13.7-7.9c-3.4-2-5.2-4.6-5.4-7.2-.2 2.9 1.5 5.8 5.3 8z" fill="#fff"/><path d="m73.5 240.3-17.3-10c-3.4-2-5.2-4.6-5.4-7.2-.2 2.9 1.6 5.8 5.4 7.9l17.3 10 7.2-4.2-.7-.4z" fill="#fff"/><path d="m105.5 176.8-11.1-6.4c-3.7-1.9-8-1.9-11.7 0l-17.2 10c-1.8 1-2.6 2.4-2.4 3.8.3-1.3 1.2-2.4 2.4-3l17.2-10c3.7-1.9 8-1.9 11.7 0l11.1 6.4 7.2-4.2-.6-.4z" fill="#fff"/><path d="m79.2 210.2-15.8 9.1c-1.8 1-2.6 2.4-2.4 3.8.3-1.3 1.2-2.4 2.4-3l15.8-9.1c3.8-2.2 5.6-5.1 5.4-7.9-.2 2.5-1.9 5.1-5.4 7.1z" fill="#fff"/><path d="m73.5 241-17.3-10c-7.2-4.2-7.2-11 0-15.1l15.8-9.1c3.2-1.9 3.2-4.9 0-6.8l-13.7-8c-7.2-4.2-7.2-11 0-15.1l17.2-10c7.2-4.2 19-4.2 26.2 0l11.1 6.4-7.2 4.2-11.1-6.4c-3.7-1.9-8-1.9-11.7 0l-17.2 9.9c-3.2 1.9-3.2 4.9 0 6.8l13.8 7.9c7.2 4.2 7.2 11 0 15.1l-15.8 9.2c-3.2 1.9-3.2 4.9 0 6.8l17.3 10z" fill="#d4ecff"/><path d="m82.2 235.4c-.4-.2-.9-.2-1.2.1l-8 4.6c-1 .6-1.6 1.7-1.7 2.9 0 .4.1.8.4 1l8.6 5 10.3-8.7z" fill="#5793ce"/><path d="m89.5 240.4-8 4.6c-1 .6-1.6 1.7-1.7 2.9 0 1.1.7 1.5 1.7 1l8-4.6c1-.6 1.6-1.7 1.7-2.9-.1-1.1-.8-1.5-1.7-1z" fill="#5793ce"/><path d="m104.5 165.8c-.4-.2-.9-.2-1.2.1l-8 4.6c-1 .6-1.6 1.7-1.7 2.9 0 .4.1.8.4 1l8.6 5 10.3-8.7z" fill="#5793ce"/><path d="m142.9 228.9-41.5-23.6c-1.5-.9-1.3-2.4.4-3.4l23.8-13.8c1.8-1 4-1.1 5.9-.2l41.5 23.6c1.5.9 1.3 2.4-.4 3.4l-23.9 13.8c-1.7.9-3.9 1-5.8.2z" fill="#efefef"/><path d="m176.8 203.5v-96.8l-38.5-10.1-7.1-4.1c-2-.9-4.4-.8-6.3.3l-6.6 3.8h-20.5l6.1 93.4c0 .7.4 1.4 1.1 1.7l38.4 29c2 .9 4.4.8 6.4-.3l25.6-14.8c.8-.3 1.4-1.1 1.4-2.1z" fill="#396caa"/><path d="m128.3 91.9c-1.2 0-2.4.3-3.4.9l-6.6 3.8h-20.5v97c0 .7.4 1.4 1.1 1.7l44.5 25.4c.9.5 1.9.7 2.9.6l.5-97.7z" fill="#d4ecff"/><path d="m143.7 220.9c1.6.6 3.4.6 5.1-.1v-98.3h-5.1z" fill="#5793ce"/><path d="m143.3 123.7-44.4-25.4c-1.6-.9-1.4-2.6.5-3.7l25.6-14.8c2-1.1 4.3-1.2 6.3-.3l44.5 25.4c1.6.9 1.4 2.6-.5 3.7l-25.6 14.8c-2 1.1-4.3 1.2-6.4.3z" fill="#d4ecff"/><path d="m175.3 106.9-25.6 14.8c-2 1.1-4.3 1.2-6.3.3l-44.5-25.5c-.3-.2-.6-.4-.8-.7-.5.8-.3 1.8.5 2.4.1.1.2.1.3.2l44.5 25.4c2 .9 4.4.8 6.4-.3l25.6-14.8c1.5-.8 1.9-2 1.3-2.9-.5.4-.9.8-1.4 1.1z" fill="#fafdff"/><path d="m144.6 113.4-29.6-17.1c-.8-.4-.7-1.2.2-1.7l12-6.9c.9-.5 2-.6 3-.1l29.6 17.2c.8.4.7 1.2-.2 1.7l-12 6.9c-.9.4-2 .5-3 0z" fill="#173d7a"/><path d="m128.6 97-1.7-1c-.1-.1-.1-.2 0-.2l1.7-1c.1-.1.3-.1.4 0l1.7 1c.1.1.1.2 0 .2l-1.7 1c-.1.1-.3.1-.4 0z" fill="#d4ecff"/><path d="m134.3 100.3-1.7-1c-.1-.1-.1-.2 0-.2l1.7-1c.1-.1.3-.1.4 0l1.7 1c.1.1.1.2 0 .2l-1.7 1c-.1.1-.2.1-.4 0z" fill="#d4ecff"/><path d="m140.1 103.6-1.7-1c-.1-.1-.1-.2 0-.2l1.7-1c.1-.1.3-.1.4 0l1.7 1c.1.1.1.2 0 .2l-1.7 1c-.2.1-.3.1-.4 0z" fill="#d4ecff"/><path d="m145.8 106.9-1.7-1c-.1-.1-.1-.2 0-.2l1.7-1c.1-.1.3-.1.4 0l1.7 1c.1.1.1.2 0 .2l-1.7 1c-.1.1-.3.1-.4 0z" fill="#d4ecff"/><path d="m115 96.3.2-.1 12-6.9c.9-.5 2-.6 3-.1l29.6 17.1c.7-.5.7-1.2 0-1.6l-29.6-17.1c-1-.4-2.1-.4-3 .1l-12 6.9c-.9.5-1 1.2-.2 1.7z" fill="#5793ce"/><path d="m154.7 142.9 16.8-9.6c1.1-.8 1.7-2 1.7-3.3v-6c0-1.3-.8-1.8-1.7-1.3l-16.8 9.6c-1.1.8-1.7 2-1.7 3.3v6c0 1.2.7 1.8 1.7 1.3z" fill="#173d7a"/><path d="m172.3 122.5c.3.3.5.8.4 1.2v6c0 1.3-.7 2.5-1.7 3.3l-16.8 9.6c-.2.2-.5.2-.8.2.4.3.9.3 1.3 0l16.8-9.6c1.1-.8 1.7-2 1.7-3.3v-6c0-.8-.3-1.4-.9-1.4z" fill="#fff"/><path d="m159.7 136.3 1.5-.9c.2-.2.4-.4.4-.7v-1.6c0-.3-.2-.4-.4-.3l-1.5.9c-.2.2-.4.4-.4.7v1.7c.1.2.2.3.4.2z" fill="#396caa"/><path d="m164.9 133.3 1.5-.9c.2-.2.4-.4.4-.7v-1.6c0-.3-.2-.4-.4-.3l-1.5.9c-.2.2-.4.4-.4.7v1.7c0 .2.2.4.4.2z" fill="#fff"/><path d="m154.7 186.4 16.8-9.6c1.1-.8 1.7-2 1.7-3.3v-6c0-1.3-.8-1.8-1.7-1.3l-16.8 9.6c-1.1.8-1.7 2-1.7 3.3v6c0 1.2.7 1.8 1.7 1.3z" fill="#173d7a"/><path d="m172.3 166c.3.3.5.8.4 1.2v6c0 1.3-.7 2.5-1.7 3.3l-16.8 9.6c-.2.2-.5.2-.8.2.4.3.9.3 1.3 0l16.8-9.6c1.1-.8 1.7-2 1.7-3.3v-6c0-.8-.3-1.4-.9-1.4z" fill="#fff"/><path d="m159.7 179.8 1.5-.9c.2-.2.4-.4.4-.7v-1.6c0-.3-.2-.4-.4-.3l-1.5.9c-.2.2-.4.4-.4.7v1.6c.1.3.2.4.4.3z" fill="#396caa"/><path d="m164.9 176.8 1.5-.9c.2-.2.4-.4.4-.7v-1.6c0-.3-.2-.4-.4-.3l-1.5.9c-.2.2-.4.4-.4.7v1.6c0 .3.2.5.4.3z" fill="#fff"/><path d="m154.7 208.1 16.8-9.6c1.1-.8 1.7-2 1.7-3.3v-6c0-1.3-.8-1.8-1.7-1.3l-16.8 9.6c-1.1.8-1.7 2-1.7 3.3v6c0 1.3.7 1.9 1.7 1.3z" fill="#173d7a"/><path d="m172.3 187.7c.3.3.5.8.4 1.2v6c0 1.3-.7 2.5-1.7 3.3l-16.8 9.6c-.2.2-.5.2-.8.2.4.3.9.3 1.3 0l16.8-9.6c1.1-.8 1.7-2 1.7-3.3v-6c0-.8-.3-1.3-.9-1.4z" fill="#fff"/><path d="m159.7 201.6 1.5-.9c.2-.2.4-.4.4-.7v-1.6c0-.3-.2-.4-.4-.3l-1.5.9c-.2.2-.4.4-.4.7v1.6c.1.3.2.4.4.3z" fill="#396caa"/><path d="m164.9 198.6 1.5-.9c.2-.2.4-.4.4-.7v-1.6c0-.3-.2-.4-.4-.3l-1.5.9c-.2.2-.4.4-.4.7v1.6c0 .3.2.4.4.3z" fill="#fff"/><path d="m154.7 164.6 16.8-9.6c1.1-.8 1.7-2 1.7-3.3v-6c0-1.3-.8-1.8-1.7-1.3l-16.8 9.6c-1.1.8-1.7 2-1.7 3.3v6c0 1.3.7 1.9 1.7 1.3z" fill="#173d7a"/><path d="m172.3 144.2c.3.3.5.8.4 1.2v6c0 1.3-.7 2.5-1.7 3.3l-16.8 9.6c-.2.2-.5.2-.8.2.4.3.9.3 1.3 0l16.8-9.6c1.1-.8 1.7-2 1.7-3.3v-6c0-.8-.3-1.3-.9-1.4z" fill="#fff"/><path d="m159.7 158.1 1.5-.9c.2-.2.4-.4.4-.7v-1.6c0-.3-.2-.4-.4-.3l-1.5.9c-.2.2-.4.4-.4.7v1.7c.1.2.2.3.4.2z" fill="#396caa"/><path d="m164.9 155.1 1.5-.9c.2-.2.4-.4.4-.7v-1.6c0-.3-.2-.4-.4-.3l-1.5.9c-.2.2-.4.4-.4.7v1.7c0 .2.2.3.4.2z" fill="#fff"/><path d="m140.1 136.7-38.9-22.4c-1-.7-1.6-1.8-1.6-3v-7.4c0-1.2.7-1.7 1.6-1.2l38.9 22.4c1 .7 1.6 1.8 1.6 3v7.4c0 1.2-.7 1.7-1.6 1.2z" fill="#5793ce"/><path d="m139 134.1-36.6-21.1c-.5-.4-.8-.9-.8-1.5v-5.6c0-.6.4-.9.8-.6l36.6 21.1c.5.4.8.9.8 1.5v5.6c0 .6-.4.9-.8.6z" fill="#d4ecff" opacity=".4"/><path d="m110 114.6-5.5-3.2c-.5-.3-.8-.9-.8-1.5s.3-.8.8-.6l5.5 3.2c.5.3.8.9.8 1.5 0 .5-.4.8-.8.6z" fill="#d4ecff"/><path d="m114.7 116.2c0 .6-.4.8-.9.5s-.9-.9-.9-1.6c0-.6.4-.8.9-.5.5.4.8 1 .9 1.6z" fill="#173d7a"/><path d="m117.8 118c0 .6-.4.8-.9.5s-.9-.9-.9-1.6c0-.6.4-.8.9-.5.5.4.9 1 .9 1.6z" fill="#173d7a"/><path d="m121 119.9c0 .6-.4.8-.9.5s-.9-.9-.9-1.6c0-.6.4-.8.9-.5.5.4.8.9.9 1.6z" fill="#d4ecff"/><path d="m124.1 121.7c0 .6-.4.8-.9.5s-.9-.9-.9-1.6c0-.6.4-.8.9-.5.6.4.9 1 .9 1.6z" fill="#173d7a"/><path d="m137.4 131-1.8-1.1c-.3-.2-.5-.6-.5-1v-1.9c0-.4.2-.5.5-.4l1.8 1.1c.3.2.5.6.5 1v1.9c0 .4-.2.6-.5.4z" fill="#173d7a"/><path d="m140.1 149.8-38.9-22.4c-1-.7-1.6-1.8-1.6-3v-7.4c0-1.2.7-1.7 1.6-1.2l38.9 22.4c1 .7 1.6 1.8 1.6 3v7.4c0 1.1-.7 1.7-1.6 1.2z" fill="#5793ce"/><path d="m139 147.2-36.6-21.2c-.5-.4-.8-.9-.8-1.5v-5.6c0-.6.4-.9.8-.6l36.6 21.1c.5.4.8.9.8 1.5v5.6c0 .7-.4.9-.8.7z" fill="#d4ecff" opacity=".4"/><path d="m110 127.6-5.5-3.2c-.5-.3-.8-.9-.8-1.5s.3-.8.8-.6l5.5 3.2c.5.3.8.9.8 1.5s-.4.9-.8.6z" fill="#d4ecff"/><path d="m114.7 129.3c0 .6-.4.8-.9.5s-.9-.9-.9-1.6c0-.6.4-.8.9-.5.5.4.8.9.9 1.6z" fill="#fff"/><path d="m117.8 131.1c0 .6-.4.8-.9.5s-.9-.9-.9-1.6c0-.6.4-.8.9-.5.5.4.9 1 .9 1.6z" fill="#173d7a"/><path d="m121 132.9c0 .6-.4.8-.9.5s-.9-.9-.9-1.6c0-.6.4-.8.9-.5.5.4.8 1 .9 1.6z" fill="#d4ecff"/><path d="m124.1 134.7c0 .6-.4.8-.9.5s-.9-.9-.9-1.6c0-.6.4-.8.9-.5.6.4.9 1 .9 1.6z" fill="#173d7a"/><path d="m137.4 144.1-1.8-1.1c-.3-.2-.5-.6-.5-1v-1.9c0-.4.2-.5.5-.4l1.8 1.1c.3.2.5.6.5 1v1.9c0 .4-.2.5-.5.4z" fill="#173d7a"/><path d="m140.1 162.8-38.9-22.4c-1-.7-1.6-1.8-1.6-3v-7.4c0-1.2.7-1.7 1.6-1.2l38.9 22.4c1 .7 1.6 1.8 1.6 3v7.4c0 1.2-.7 1.7-1.6 1.2z" fill="#5793ce"/><path d="m139 160.2-36.6-21.1c-.5-.4-.8-.9-.8-1.5v-5.6c0-.6.4-.9.8-.6l36.6 21.1c.5.4.8.9.8 1.5v5.6c0 .6-.4.9-.8.6z" fill="#d4ecff" opacity=".4"/><path d="m110 140.7-5.5-3.2c-.5-.3-.7-.9-.8-1.4 0-.6.3-.8.8-.6l5.5 3.1c.5.3.7.9.8 1.4 0 .7-.4.9-.8.7z" fill="#d4ecff"/><path d="m114.7 142.3c0 .6-.4.8-.9.5s-.9-.9-.9-1.6c0-.6.4-.8.9-.5.5.4.8 1 .9 1.6z" fill="#fff"/><path d="m117.8 144.2c0 .6-.4.8-.9.5s-.9-.9-.9-1.6c0-.6.4-.8.9-.5.5.4.9.9.9 1.6z" fill="#173d7a"/><path d="m121 146c0 .6-.4.8-.9.5s-.9-.9-.9-1.6c0-.6.4-.8.9-.5.5.4.8 1 .9 1.6z" fill="#d4ecff"/><path d="m124.1 147.8c0 .6-.4.8-.9.5s-.9-.9-.9-1.6c0-.6.4-.8.9-.5.6.4.9 1 .9 1.6z" fill="#173d7a"/><path d="m137.4 157.1-1.8-1c-.3-.2-.5-.6-.5-1v-1.9c0-.4.2-.5.5-.4l1.8 1.1c.3.2.5.6.5 1v1.9c0 .3-.2.5-.5.3z" fill="#173d7a"/><path d="m140.1 175.9-38.9-22.4c-1-.7-1.6-1.8-1.6-3v-7.4c0-1.2.7-1.7 1.6-1.2l38.9 22.4c1 .7 1.6 1.8 1.6 3v7.4c0 1.2-.7 1.7-1.6 1.2z" fill="#5793ce"/><path d="m139 173.3-36.6-21.1c-.5-.4-.8-.9-.8-1.5v-5.5c0-.6.4-.9.8-.6l36.6 21.1c.5.4.8.9.8 1.5v5.6c0 .5-.4.7-.8.5z" fill="#d4ecff" opacity=".4"/><path d="m110 153.7-5.5-3.1c-.5-.3-.8-.9-.8-1.5s.3-.8.8-.6l5.5 3.2c.5.3.8.9.8 1.5 0 .5-.4.8-.8.5z" fill="#d4ecff"/><path d="m114.7 155.4c0 .6-.4.8-.9.5s-.9-.9-.9-1.6c0-.6.4-.8.9-.5.5.4.8 1 .9 1.6z" fill="#173d7a"/><path d="m117.8 157.2c0 .6-.4.8-.9.5s-.9-.9-.9-1.6c0-.6.4-.8.9-.5.5.4.9 1 .9 1.6z" fill="#173d7a"/><path d="m121 159c0 .6-.4.8-.9.5s-.9-.9-.9-1.6c0-.6.4-.8.9-.5.5.4.8 1 .9 1.6z" fill="#d4ecff"/><path d="m124.1 160.9c0 .6-.4.8-.9.5s-.9-.9-.9-1.6c0-.6.4-.8.9-.5.6.4.9.9.9 1.6z" fill="#173d7a"/><path d="m137.4 170.2-1.8-1.1c-.3-.2-.5-.6-.5-1v-1.9c0-.4.2-.5.5-.4l1.8 1.1c.3.2.5.6.5 1v1.9c0 .4-.2.5-.5.4z" fill="#d4ecff"/><path d="m140.1 188.9-38.9-22.4c-1-.7-1.6-1.8-1.6-3v-7.4c0-1.2.7-1.7 1.6-1.2l38.9 22.4c1 .7 1.6 1.8 1.6 3v7.4c0 1.2-.7 1.7-1.6 1.2z" fill="#5793ce"/><path d="m139 186.3-36.6-21.1c-.5-.4-.8-.9-.8-1.5v-5.6c0-.6.4-.9.8-.6l36.6 21.1c.5.4.8.9.8 1.5v5.6c0 .6-.4.9-.8.6z" fill="#d4ecff" opacity=".4"/><path d="m110 166.8-5.5-3.2c-.5-.3-.8-.9-.8-1.5s.3-.8.8-.6l5.5 3.1c.5.3.8.9.8 1.5 0 .7-.4 1-.8.7z" fill="#d4ecff"/><path d="m114.7 168.5c0 .6-.4.8-.9.5s-.9-.9-.9-1.6c0-.6.4-.8.9-.5.5.4.8.9.9 1.6z" fill="#173d7a"/><path d="m117.8 170.3c0 .6-.4.8-.9.5s-.9-.9-.9-1.6c0-.6.4-.8.9-.5.5.4.9.9.9 1.6z" fill="#fff"/><path d="m121 172.1c0 .6-.4.8-.9.5s-.9-.9-.9-1.5.4-.8.9-.5.8.9.9 1.5z" fill="#d4ecff"/><path d="m124.1 173.9c0 .6-.4.8-.9.5s-.9-.9-.9-1.6c0-.6.4-.8.9-.5.6.4.9 1 .9 1.6z" fill="#fff"/><path d="m137.4 183.2-1.8-1.1c-.3-.2-.5-.6-.5-1v-1.9c0-.4.2-.5.5-.4l1.8 1.1c.3.2.5.6.5 1v1.9c0 .4-.2.6-.5.4z" fill="#d4ecff"/><path d="m140.1 202-38.9-22.4c-1-.7-1.6-1.8-1.6-3v-7.4c0-1.2.7-1.7 1.6-1.2l38.9 22.4c1 .7 1.6 1.8 1.6 3v7.4c0 1.2-.7 1.7-1.6 1.2z" fill="#5793ce"/><path d="m139 199.4-36.6-21.1c-.5-.4-.8-.9-.8-1.5v-5.6c0-.6.4-.9.8-.6l36.6 21.1c.5.4.8.9.8 1.5v5.6c0 .6-.4.9-.8.6z" fill="#d4ecff" opacity=".4"/><path d="m110 179.9-5.5-3.1c-.5-.3-.8-.9-.8-1.5s.3-.8.8-.6l5.5 3.1c.5.3.8.9.8 1.5 0 .5-.4.8-.8.6z" fill="#d4ecff"/><path d="m114.7 181.5c0 .6-.4.8-.9.5s-.9-.9-.9-1.6c0-.6.4-.8.9-.5.5.4.8 1 .9 1.6z" fill="#173d7a"/><path d="m117.8 183.3c0 .6-.4.8-.9.5s-.9-.9-.9-1.6c0-.6.4-.8.9-.5.5.4.9 1 .9 1.6z" fill="#173d7a"/><path d="m121 185.2c0 .6-.4.8-.9.5-.6-.3-.9-.9-.9-1.6 0-.6.4-.8.9-.5s.8.9.9 1.6z" fill="#d4ecff"/><path d="m124.1 187c0 .6-.4.8-.9.5s-.9-.9-.9-1.6c0-.6.4-.8.9-.5.6.4.9 1 .9 1.6z" fill="#173d7a"/><path d="m137.4 196.3-1.8-1.1c-.3-.2-.5-.6-.5-1v-1.9c0-.4.2-.5.5-.4l1.8 1.1c.3.2.5.6.5 1v1.9c0 .4-.2.6-.5.4z" fill="#173d7a"/><path d="m140.1 215.1-38.9-22.5c-1-.7-1.6-1.8-1.6-3v-7.4c0-1.2.7-1.7 1.6-1.2l38.9 22.4c1 .7 1.6 1.8 1.6 3v7.4c0 1.2-.7 1.8-1.6 1.3z" fill="#5793ce"/><path d="m139 212.5-36.6-21.1c-.5-.4-.8-.9-.8-1.5v-5.6c0-.6.4-.9.8-.6l36.6 21.1c.5.4.8.9.8 1.5v5.6c0 .5-.4.8-.8.6z" fill="#d4ecff" opacity=".4"/><path d="m110 192.9-5.5-3.1c-.5-.3-.8-.9-.8-1.5s.3-.8.8-.6l5.5 3.1c.5.3.8.9.8 1.5s-.4.9-.8.6z" fill="#d4ecff"/><path d="m115.7 195.3c0 1.1-.8 1.5-1.7 1-1-.7-1.6-1.7-1.7-2.9 0-1.1.8-1.5 1.7-1 1 .6 1.6 1.7 1.7 2.9z" fill="#fff"/><path d="m122.2 199.1c0 .6-.4.8-.9.5s-.9-.9-.9-1.6c0-.6.4-.8.9-.5.5.4.9 1 .9 1.6z" fill="#173d7a"/><path d="m125.4 200.9c0 .6-.4.8-.9.5s-.9-.9-.9-1.6c0-.6.4-.8.9-.5.5.4.8 1 .9 1.6z" fill="#d4ecff"/><path d="m128.5 202.8c0 .6-.4.8-.9.5s-.9-.9-.9-1.6c0-.6.4-.8.9-.5.5.4.9.9.9 1.6z" fill="#173d7a"/><path d="m137.4 209.4-1.8-1.1c-.3-.2-.5-.6-.5-1v-1.9c0-.4.2-.5.5-.4l1.8 1.1c.3.2.5.6.5 1v1.9c0 .4-.2.5-.5.4z" fill="#d4ecff"/><path d="m205.4 264.8-41.4-23.7c-1.5-.9-1.3-2.4.4-3.4l23.9-13.8c1.8-1 4-1.1 5.9-.2l41.4 23.6c1.5.9 1.3 2.4-.4 3.4l-23.8 13.8c-1.9 1-4.1 1.1-6 .3z" fill="#efefef"/><path d="m239.3 239.4v-96.8l-38.5-10.1-7.1-4.1c-2-.9-4.4-.8-6.4.3l-6.6 3.8h-20.5l6.1 93.4c0 .7.4 1.4 1.1 1.7l38.4 29c2 .9 4.4.8 6.4-.3l25.6-14.8c.9-.3 1.5-1.2 1.5-2.1z" fill="#396caa"/><path d="m190.8 127.8c-1.2 0-2.4.3-3.4.9l-6.6 3.8h-20.5v97c0 .7.4 1.4 1.1 1.7l44.5 25.4c.9.5 1.9.7 2.9.6l.5-97.7z" fill="#d4ecff"/><path d="m206.2 256.8c1.6.6 3.4.6 5.1-.1v-98.3h-5.1z" fill="#5793ce"/><path d="m205.8 159.6-44.5-25.3c-1.6-.9-1.4-2.6.5-3.7l25.6-14.8c2-1.1 4.3-1.2 6.4-.3l44.5 25.4c1.6.9 1.4 2.6-.5 3.7l-25.6 14.8c-2 1-4.3 1.1-6.4.2z" fill="#d4ecff"/><path d="m237.8 142.8-25.6 14.8c-2 1.1-4.3 1.2-6.4.3l-44.4-25.4c-.3-.2-.6-.4-.8-.7-.5.8-.3 1.8.5 2.4.1.1.2.1.3.2l44.5 25.4c2 .9 4.4.8 6.4-.3l25.6-14.8c1.5-.8 1.9-2 1.3-2.9-.5.3-.9.7-1.4 1z" fill="#fafdff"/><path d="m207.1 149.3-29.6-17.2c-.8-.4-.7-1.2.2-1.7l12-6.9c.9-.5 2-.6 3-.1l29.6 17.2c.8.4.7 1.2-.2 1.7l-12 6.9c-1 .5-2.1.5-3 .1z" fill="#173d7a"/><path d="m191.1 132.9-1.7-1c-.1-.1-.1-.2 0-.2l1.7-1c.1-.1.3-.1.4 0l1.7 1c.1.1.1.2 0 .2l-1.7 1c-.1.1-.2.1-.4 0z" fill="#d4ecff"/><path d="m196.8 136.2-1.7-1c-.1-.1-.1-.2 0-.2l1.7-1c.1-.1.3-.1.4 0l1.7 1c.1.1.1.2 0 .2l-1.7 1c-.1.1-.2.1-.4 0z" fill="#d4ecff"/><path d="m202.6 139.5-1.7-1c-.1-.1-.1-.2 0-.2l1.7-1c.1-.1.3-.1.4 0l1.7 1c.1.1.1.2 0 .2l-1.7 1c-.2.1-.3.1-.4 0z" fill="#d4ecff"/><path d="m208.3 142.8-1.7-1c-.1-.1-.1-.2 0-.2l1.7-1c.1-.1.3-.1.4 0l1.7 1c.1.1.1.2 0 .2l-1.7 1c-.1.1-.3.1-.4 0z" fill="#d4ecff"/><path d="m177.5 132.1.2-.1 12-6.9c.9-.5 2-.6 3-.1l29.6 17.1c.7-.5.7-1.2 0-1.6l-29.6-17.1c-1-.4-2.1-.4-3 .1l-12 6.9c-.9.5-1 1.3-.2 1.7z" fill="#5793ce"/><path d="m217.1 178.8 16.9-9.7c1.1-.8 1.7-2 1.7-3.3v-6c0-1.3-.8-1.8-1.7-1.3l-16.9 9.6c-1.1.8-1.7 2-1.7 3.3v6c.1 1.3.8 1.9 1.7 1.4z" fill="#173d7a"/><path d="m234.8 158.3c.3.3.5.8.4 1.2v6c0 1.3-.7 2.5-1.7 3.3l-16.8 9.6c-.2.2-.5.2-.8.2.4.3.9.3 1.3 0l16.8-9.6c1.1-.8 1.7-2 1.7-3.3v-6c0-.7-.3-1.3-.9-1.4z" fill="#fff"/><path d="m222.2 172.2 1.5-.9c.2-.2.4-.4.4-.7v-1.6c0-.3-.2-.4-.4-.3l-1.5.9c-.2.2-.4.4-.4.7v1.6c.1.3.2.4.4.3z" fill="#396caa"/><path d="m227.4 169.2 1.5-.9c.2-.2.4-.4.4-.7v-1.6c0-.3-.2-.4-.4-.3l-1.5.9c-.2.2-.4.4-.4.7v1.6c0 .3.2.5.4.3z" fill="#fff"/><path d="m217.1 222.3 16.8-9.6c1.1-.8 1.7-2 1.7-3.3v-6c0-1.3-.8-1.8-1.7-1.3l-16.8 9.6c-1.1.8-1.7 2-1.7 3.3v6c.1 1.2.8 1.8 1.7 1.3z" fill="#173d7a"/><path d="m234.8 201.9c.3.3.5.8.4 1.2v6c0 1.3-.7 2.5-1.7 3.3l-16.8 9.6c-.2.2-.5.2-.8.2.4.3.9.3 1.3 0l16.8-9.6c1.1-.8 1.7-2 1.7-3.3v-6c0-.8-.3-1.4-.9-1.4z" fill="#fff"/><path d="m222.2 215.7 1.5-.9c.2-.2.4-.4.4-.7v-1.6c0-.3-.2-.4-.4-.3l-1.5.9c-.2.2-.4.4-.4.7v1.6c.1.3.2.4.4.3z" fill="#396caa"/><path d="m227.4 212.7 1.5-.9c.2-.2.4-.4.4-.7v-1.6c0-.3-.2-.4-.4-.3l-1.5.9c-.2.2-.4.4-.4.7v1.6c0 .3.2.5.4.3z" fill="#fff"/><path d="m217.1 244 16.8-9.6c1.1-.8 1.7-2 1.7-3.3v-6c0-1.3-.8-1.8-1.7-1.3l-16.8 9.6c-1.1.8-1.7 2-1.7 3.3v6c.1 1.3.8 1.9 1.7 1.3z" fill="#173d7a"/><path d="m234.8 223.6c.3.3.5.8.4 1.2v6c0 1.3-.7 2.5-1.7 3.3l-16.8 9.6c-.2.2-.5.2-.8.2.4.3.9.3 1.3 0l16.8-9.6c1.1-.8 1.7-2 1.7-3.3v-6c0-.8-.3-1.3-.9-1.4z" fill="#fff"/><path d="m222.2 237.5 1.5-.9c.2-.2.4-.4.4-.7v-1.6c0-.3-.2-.4-.4-.3l-1.5.9c-.2.2-.4.4-.4.7v1.6c.1.3.2.4.4.3z" fill="#396caa"/><path d="m227.4 234.5 1.5-.9c.2-.2.4-.4.4-.7v-1.6c0-.3-.2-.4-.4-.3l-1.5.9c-.2.2-.4.4-.4.7v1.6c0 .3.2.4.4.3z" fill="#fff"/><path d="m217.1 200.5 16.8-9.6c1.1-.8 1.7-2 1.7-3.3v-6c0-1.3-.8-1.8-1.7-1.3l-16.8 9.6c-1.1.8-1.7 2-1.7 3.3v6c.1 1.3.8 1.9 1.7 1.3z" fill="#173d7a"/><path d="m234.8 180.1c.3.3.5.8.4 1.2v6c0 1.3-.7 2.5-1.7 3.3l-16.8 9.6c-.2.2-.5.2-.8.2.4.3.9.3 1.3 0l16.8-9.6c1.1-.8 1.7-2 1.7-3.3v-6c0-.8-.3-1.3-.9-1.4z" fill="#fff"/><path d="m222.2 194 1.5-.9c.2-.2.4-.4.4-.7v-1.6c0-.3-.2-.4-.4-.3l-1.5.9c-.2.2-.4.4-.4.7v1.6c.1.3.2.4.4.3z" fill="#396caa"/><path d="m227.4 191 1.5-.9c.2-.2.4-.4.4-.7v-1.6c0-.3-.2-.4-.4-.3l-1.5.9c-.2.2-.4.4-.4.7v1.6c0 .3.2.4.4.3z" fill="#fff"/><path d="m202.6 172.6-38.8-22.4c-1-.7-1.6-1.8-1.6-3v-7.4c0-1.2.7-1.7 1.6-1.2l38.8 22.4c1 .7 1.6 1.8 1.6 3v7.4c-.1 1.2-.7 1.7-1.6 1.2z" fill="#5793ce"/><path d="m201.5 170-36.6-21.1c-.5-.4-.8-.9-.8-1.5v-5.6c0-.6.4-.9.8-.6l36.6 21.1c.5.4.8.9.8 1.5v5.6c0 .6-.4.9-.8.6z" fill="#d4ecff" opacity=".4"/><path d="m172.5 150.5-5.5-3.2c-.5-.3-.8-.9-.8-1.5s.3-.8.8-.6l5.5 3.1c.5.3.8.9.8 1.5s-.4.9-.8.7z" fill="#d4ecff"/><path d="m177.1 152.1c0 .6-.4.8-.9.5s-.9-.9-.9-1.6c0-.6.4-.8.9-.5.6.4.9 1 .9 1.6z" fill="#173d7a"/><path d="m180.3 153.9c0 .6-.4.8-.9.5s-.9-.9-.9-1.6c0-.6.4-.8.9-.5.5.4.9 1 .9 1.6z" fill="#173d7a"/><path d="m183.5 155.8c0 .6-.4.8-.9.5s-.9-.9-.9-1.6c0-.6.4-.8.9-.5.5.4.8.9.9 1.6z" fill="#d4ecff"/><path d="m186.6 157.6c0 .6-.4.8-.9.5s-.9-.9-.9-1.6c0-.6.4-.8.9-.5.6.4.9 1 .9 1.6z" fill="#173d7a"/><path d="m199.9 166.9-1.8-1.1c-.3-.2-.5-.6-.5-1v-1.9c0-.4.2-.5.5-.4l1.8 1.1c.3.2.5.6.5 1v1.9c0 .4-.2.6-.5.4z" fill="#173d7a"/><path d="m202.6 185.7-38.8-22.4c-1-.7-1.6-1.8-1.6-3v-7.4c0-1.2.7-1.7 1.6-1.2l38.8 22.5c1 .7 1.6 1.8 1.6 3v7.4c-.1 1-.7 1.6-1.6 1.1z" fill="#5793ce"/><path d="m201.5 183.1-36.6-21.1c-.5-.4-.8-.9-.8-1.5v-5.6c0-.6.4-.9.8-.6l36.6 21.1c.5.4.8.9.8 1.5v5.6c0 .6-.4.8-.8.6z" fill="#d4ecff" opacity=".4"/><path d="m172.5 163.5-5.5-3.2c-.5-.3-.8-.9-.8-1.5s.3-.8.8-.6l5.5 3.1c.5.3.8.9.8 1.5 0 .7-.4 1-.8.7z" fill="#d4ecff"/><path d="m177.1 165.2c0 .6-.4.8-.9.5s-.9-.9-.9-1.6c0-.6.4-.8.9-.5.6.4.9.9.9 1.6z" fill="#fff"/><path d="m180.3 167c0 .6-.4.8-.9.5s-.9-.9-.9-1.6c0-.6.4-.8.9-.5.5.4.9 1 .9 1.6z" fill="#173d7a"/><path d="m183.5 168.8c0 .6-.4.8-.9.5s-.9-.9-.9-1.6c0-.6.4-.8.9-.5.5.4.8 1 .9 1.6z" fill="#d4ecff"/><path d="m186.6 170.6c0 .6-.4.8-.9.5s-.9-.9-.9-1.6c0-.6.4-.8.9-.5.6.4.9 1 .9 1.6z" fill="#173d7a"/><path d="m199.9 180-1.8-1.1c-.3-.2-.5-.6-.5-1v-1.9c0-.4.2-.5.5-.4l1.8 1.1c.3.2.5.6.5 1v1.9c0 .4-.2.5-.5.4z" fill="#173d7a"/><path d="m202.6 198.7-38.8-22.4c-1-.7-1.6-1.8-1.6-3v-7.4c0-1.2.7-1.7 1.6-1.2l38.8 22.4c1 .7 1.6 1.8 1.6 3v7.4c-.1 1.2-.7 1.7-1.6 1.2z" fill="#5793ce"/><path d="m201.5 196.1-36.6-21.1c-.5-.4-.8-.9-.8-1.5v-5.5c0-.6.4-.9.8-.6l36.6 21.1c.5.4.8.9.8 1.5v5.6c0 .5-.4.8-.8.5z" fill="#d4ecff" opacity=".4"/><path d="m172.5 176.6-5.5-3.1c-.5-.3-.8-.9-.8-1.5s.3-.8.8-.6l5.5 3.1c.5.3.8.9.8 1.5s-.4.8-.8.6z" fill="#d4ecff"/><path d="m177.1 178.2c0 .6-.4.8-.9.5s-.9-.9-.9-1.6c0-.6.4-.8.9-.5.6.4.9 1 .9 1.6z" fill="#fff"/><path d="m180.3 180.1c0 .6-.4.8-.9.5s-.9-.9-.9-1.6c0-.6.4-.8.9-.5.5.4.9 1 .9 1.6z" fill="#173d7a"/><path d="m183.5 181.9c0 .6-.4.8-.9.5s-.9-.9-.9-1.6c0-.6.4-.8.9-.5.5.4.8.9.9 1.6z" fill="#d4ecff"/><path d="m186.6 183.7c0 .6-.4.8-.9.5s-.9-.9-.9-1.6c0-.6.4-.8.9-.5.6.4.9 1 .9 1.6z" fill="#173d7a"/><path d="m199.9 193-1.8-1.1c-.3-.2-.5-.6-.5-1v-1.9c0-.4.2-.5.5-.4l1.8 1.1c.3.2.5.6.5 1v1.9c0 .4-.2.6-.5.4z" fill="#173d7a"/><path d="m202.6 211.8-38.8-22.4c-1-.7-1.6-1.8-1.6-3v-7.4c0-1.2.7-1.7 1.6-1.2l38.8 22.4c1 .7 1.6 1.8 1.6 3v7.4c-.1 1.1-.7 1.7-1.6 1.2z" fill="#5793ce"/><path d="m201.5 209.2-36.6-21.1c-.5-.4-.8-.9-.8-1.5v-5.6c0-.6.4-.9.8-.6l36.6 21.1c.5.4.8.9.8 1.5v5.6c0 .6-.4.8-.8.6z" fill="#d4ecff" opacity=".4"/><path d="m172.5 189.6-5.5-3.1c-.5-.3-.8-.9-.8-1.5s.3-.8.8-.6l5.5 3.1c.5.3.8.9.8 1.5s-.4.9-.8.6z" fill="#d4ecff"/><path d="m177.1 191.3c0 .6-.4.8-.9.5s-.9-.9-.9-1.6c0-.6.4-.8.9-.5.6.4.9 1 .9 1.6z" fill="#173d7a"/><path d="m180.3 193.1c0 .6-.4.8-.9.5s-.9-.9-.9-1.6c0-.6.4-.8.9-.5.5.4.9 1 .9 1.6z" fill="#173d7a"/><path d="m183.5 194.9c0 .6-.4.8-.9.5s-.9-.9-.9-1.6c0-.6.4-.8.9-.5.5.4.8 1 .9 1.6z" fill="#d4ecff"/><path d="m186.6 196.8c0 .6-.4.8-.9.5s-.9-.9-.9-1.6c0-.6.4-.8.9-.5.6.4.9.9.9 1.6z" fill="#173d7a"/><path d="m199.9 206.1-1.8-1.1c-.3-.2-.5-.6-.5-1v-1.9c0-.4.2-.5.5-.4l1.8 1.1c.3.2.5.6.5 1v1.9c0 .4-.2.5-.5.4z" fill="#d4ecff"/><path d="m202.6 224.8-38.8-22.4c-1-.7-1.6-1.8-1.6-3v-7.4c0-1.2.7-1.7 1.6-1.2l38.8 22.4c1 .7 1.6 1.8 1.6 3v7.4c-.1 1.2-.7 1.7-1.6 1.2z" fill="#5793ce"/><path d="m201.5 222.2-36.6-21.1c-.5-.4-.8-.9-.8-1.5v-5.6c0-.6.4-.9.8-.6l36.6 21.1c.5.4.8.9.8 1.5v5.6c0 .6-.4.9-.8.6z" fill="#d4ecff" opacity=".4"/><path d="m172.5 202.7-5.5-3.1c-.5-.3-.8-.9-.8-1.5s.3-.8.8-.6l5.5 3.1c.5.3.8.9.8 1.5s-.4.8-.8.6z" fill="#d4ecff"/><path d="m177.1 204.3c0 .6-.4.8-.9.5s-.9-.9-.9-1.6c0-.6.4-.8.9-.5.6.4.9 1 .9 1.6z" fill="#173d7a"/><path d="m180.3 206.2c0 .6-.4.8-.9.5s-.9-.9-.9-1.6c0-.6.4-.8.9-.5.5.4.9.9.9 1.6z" fill="#fff"/><path d="m183.5 208c0 .6-.4.8-.9.5s-.9-.9-.9-1.6c0-.6.4-.8.9-.5.5.4.8 1 .9 1.6z" fill="#d4ecff"/><path d="m186.6 209.8c0 .6-.4.8-.9.5s-.9-.9-.9-1.6c0-.6.4-.8.9-.5.6.4.9 1 .9 1.6z" fill="#fff"/><path d="m199.9 219.1-1.8-1c-.3-.2-.5-.6-.5-1v-1.9c0-.4.2-.5.5-.4l1.8 1.1c.3.2.5.6.5 1v1.9c0 .3-.2.5-.5.3z" fill="#d4ecff"/><path d="m202.6 237.9-38.8-22.4c-1-.7-1.6-1.8-1.6-3v-7.4c0-1.2.7-1.7 1.6-1.2l38.8 22.4c1 .7 1.6 1.8 1.6 3v7.4c-.1 1.2-.7 1.7-1.6 1.2z" fill="#5793ce"/><path d="m201.5 235.3-36.6-21.1c-.5-.4-.8-.9-.8-1.5v-5.5c0-.6.4-.9.8-.6l36.6 21.1c.5.4.8.9.8 1.5v5.6c0 .5-.4.8-.8.5z" fill="#d4ecff" opacity=".4"/><path d="m172.5 215.8-5.5-3.1c-.5-.3-.8-.9-.8-1.5s.3-.8.8-.6l5.5 3.1c.5.3.8.9.8 1.5 0 .5-.4.8-.8.6z" fill="#d4ecff"/><path d="m177.1 217.4c0 .6-.4.8-.9.5s-.9-.9-.9-1.6c0-.6.4-.8.9-.5.6.4.9 1 .9 1.6z" fill="#173d7a"/><path d="m180.3 219.2c0 .6-.4.8-.9.5s-.9-.9-.9-1.6c0-.6.4-.8.9-.5.5.4.9 1 .9 1.6z" fill="#173d7a"/><path d="m183.5 221.1c0 .6-.4.8-.9.5s-.9-.9-.9-1.6c0-.6.4-.8.9-.5.5.4.8 1 .9 1.6z" fill="#d4ecff"/><path d="m186.6 222.9c0 .6-.4.8-.9.5s-.9-.9-.9-1.6c0-.6.4-.8.9-.5.6.4.9 1 .9 1.6z" fill="#173d7a"/><path d="m199.9 232.2-1.8-1.1c-.3-.2-.5-.6-.5-1v-1.9c0-.4.2-.5.5-.4l1.8 1.1c.3.2.5.6.5 1v1.9c0 .4-.2.6-.5.4z" fill="#173d7a"/><path d="m202.6 251-38.8-22.4c-1-.7-1.6-1.8-1.6-3v-7.4c0-1.2.7-1.7 1.6-1.2l38.8 22.4c1 .7 1.6 1.8 1.6 3v7.4c-.1 1.1-.7 1.7-1.6 1.2z" fill="#5793ce"/><path d="m201.5 248.4-36.6-21.1c-.5-.4-.8-.9-.8-1.5v-5.6c0-.6.4-.9.8-.6l36.6 21.1c.5.4.8.9.8 1.5v5.6c0 .5-.4.8-.8.6z" fill="#d4ecff" opacity=".4"/><path d="m172.5 228.8-5.5-3.1c-.5-.3-.8-.9-.8-1.5s.3-.8.8-.6l5.5 3.1c.5.3.8.9.8 1.5s-.4.9-.8.6z" fill="#d4ecff"/><path d="m178.1 231.2c0 1.1-.8 1.5-1.7 1-1-.7-1.6-1.7-1.7-2.9 0-1.1.8-1.5 1.7-1 1 .6 1.7 1.7 1.7 2.9z" fill="#fff"/><path d="m184.7 235c0 .6-.4.8-.9.5s-.9-.9-.9-1.6c0-.6.4-.8.9-.5.5.4.8 1 .9 1.6z" fill="#173d7a"/><path d="m187.8 236.8c0 .6-.4.8-.9.5s-.9-.9-.9-1.6c0-.6.4-.8.9-.5.6.4.9 1 .9 1.6z" fill="#d4ecff"/><path d="m191 238.7c0 .6-.4.8-.9.5s-.9-.9-.9-1.6c0-.6.4-.8.9-.5.5.4.9.9.9 1.6z" fill="#173d7a"/><path d="m199.9 245.3-1.8-1.1c-.3-.2-.5-.6-.5-1v-1.9c0-.4.2-.5.5-.4l1.8 1.1c.3.2.5.6.5 1v1.9c0 .3-.2.5-.5.4z" fill="#d4ecff"/><path d="m247.2 136.2-1.7-1v-2.4c-.2-2.8-1.7-5.4-4.1-7l-12.7-7.3c-2.2-1.3-4.1-.2-4.1 2.3v26l-1.7-24.6v-2.4c0-3.7 2.6-5.1 5.7-3.3l12.7 7.3c3.4 2.2 5.5 5.9 5.7 9.9z" fill="#d4ecff"/><path d="m241.5 139.4 5.7-3.3-1.2-4-1.6-4s-2.8-3.1-3-3.1-7.7-4.3-7.7-4.3l-6.2-4.5-3 .1-5.5 3.2 4 1.7s2.2 1.1 2.8 1.2c1 .7 1.9 1.4 2.8 2.3l2.7 1.1.6-.1 4.9 3.4 1.6.7.9 1.3 1.3 3.6z" fill="#d4ecff"/><path d="m224.7 146.8-5.7 3.3s-.4-27.2-.4-27.3 1.2-1.8 1.2-1.8l3.1-.6 2.5 1.9-.8-.3-.3.2.4.6z" fill="#396caa"/><path d="m241.5 139.4-1.7-1v-2.3c-.2-2.8-1.7-5.4-4.1-7l-12.7-7.3c-2.2-1.3-4.1-.2-4.1 2.3v26l-1.7-1v-26.1c0-3.7 2.6-5.1 5.7-3.3l12.7 7.3c3.4 2.2 5.5 5.9 5.7 9.9v2.5z" fill="#5793ce"/><path d="m266.2 293.8-29.1-16.6c-1.1-.6-.9-1.7.3-2.4l16.7-9.7c1.3-.7 2.8-.8 4.1-.2l29.1 16.6c1.1.6.9 1.7-.3 2.4l-16.7 9.6c-1.2.8-2.8.9-4.1.3z" fill="#efefef"/><path d="m301.8 251.7v-96.8l-38.5-10.1-7.1-4.1c-2-.9-4.4-.8-6.3.3l-6.6 3.8h-20.5l6.1 93.4c0 .7.4 1.4 1.1 1.7l38.4 29c2 .9 4.4.8 6.3-.3l25.6-14.8c.9-.3 1.5-1.2 1.5-2.1z" fill="#396caa"/><path d="m253.3 140.1c-1.2 0-2.4.3-3.4.9l-6.6 3.8h-20.5v97c0 .7.4 1.4 1.1 1.7l44.5 25.4c.9.5 1.9.7 2.9.6l.5-97.6z" fill="#d4ecff"/><path d="m268.7 269.1c1.6.6 3.4.6 5.1-.1v-98.3h-5.1z" fill="#5793ce"/><path d="m268.3 171.9-44.5-25.4c-1.6-.9-1.4-2.6.5-3.7l25.6-14.8c2-1.1 4.3-1.2 6.4-.3l44.5 25.4c1.6.9 1.4 2.6-.5 3.7l-25.6 14.8c-2 1.1-4.3 1.2-6.4.3z" fill="#d4ecff"/><path d="m300.3 155-25.6 14.8c-2 1.1-4.3 1.2-6.3.3l-44.5-25.4c-.3-.2-.6-.4-.8-.7-.5.8-.3 1.8.5 2.4.1.1.2.1.3.2l44.5 25.4c2 .9 4.4.8 6.3-.3l25.6-14.8c1.5-.8 1.9-2 1.3-2.9-.4.4-.8.8-1.3 1z" fill="#fafdff"/><path d="m269.6 161.6-29.6-17.2c-.8-.4-.7-1.2.2-1.7l12-6.9c.9-.5 2-.6 3-.1l29.6 17.2c.8.4.7 1.2-.2 1.7l-12 6.9c-.9.5-2.1.5-3 .1z" fill="#173d7a"/><path d="m253.6 145.2-1.7-1c-.1-.1-.1-.2 0-.2l1.7-1c.1-.1.3-.1.4 0l1.7 1c.1.1.1.2 0 .2l-1.7 1c-.1.1-.3.1-.4 0z" fill="#d4ecff"/><path d="m259.3 148.5-1.7-1c-.1-.1-.1-.2 0-.2l1.7-1c.1-.1.3-.1.4 0l1.7 1c.1.1.1.2 0 .2l-1.7 1c-.1.1-.2.1-.4 0z" fill="#d4ecff"/><path d="m265.1 151.8-1.7-1c-.1-.1-.1-.2 0-.2l1.7-1c.1-.1.3-.1.4 0l1.7 1c.1.1.1.2 0 .2l-1.7 1c-.2.1-.3.1-.4 0z" fill="#d4ecff"/><path d="m270.8 155.1-1.7-1c-.1-.1-.1-.2 0-.2l1.7-1c.1-.1.3-.1.4 0l1.7 1c.1.1.1.2 0 .2l-1.7 1c-.1.1-.3.1-.4 0z" fill="#d4ecff"/><path d="m240 144.4.2-.1 12-6.9c.9-.5 2-.6 3-.1l29.6 17.1c.7-.5.7-1.2 0-1.6l-29.6-17.1c-1-.4-2.1-.4-3 .1l-12 6.9c-.9.5-1 1.3-.2 1.7z" fill="#5793ce"/><path d="m279.7 191 16.8-9.6c1.1-.8 1.7-2 1.7-3.3v-6c0-1.3-.8-1.8-1.7-1.3l-16.8 9.6c-1.1.8-1.7 2-1.7 3.3v6c-.1 1.3.7 1.9 1.7 1.3z" fill="#173d7a"/><path d="m297.3 170.6c.3.3.5.8.4 1.2v6c0 1.3-.7 2.5-1.7 3.3l-16.8 9.6c-.2.2-.5.2-.8.2.4.3.9.3 1.3 0l16.8-9.6c1.1-.8 1.7-2 1.7-3.3v-6c0-.7-.3-1.3-.9-1.4z" fill="#fff"/><path d="m284.7 184.5 1.5-.9c.2-.2.4-.4.4-.7v-1.6c0-.3-.2-.4-.4-.3l-1.5.9c-.2.2-.4.4-.4.7v1.6c0 .3.2.4.4.3z" fill="#396caa"/><path d="m289.9 181.5 1.5-.9c.2-.2.4-.4.4-.7v-1.6c0-.3-.2-.4-.4-.3l-1.5.9c-.2.2-.4.4-.4.7v1.6c0 .3.2.4.4.3z" fill="#fff"/><path d="m279.7 234.5 16.8-9.6c1.1-.8 1.7-2 1.7-3.3v-6c0-1.3-.8-1.8-1.7-1.3l-16.8 9.6c-1.1.8-1.7 2-1.7 3.3v6c-.1 1.3.7 1.9 1.7 1.3z" fill="#173d7a"/><path d="m297.3 214.1c.3.3.5.8.4 1.2v6c0 1.3-.7 2.5-1.7 3.3l-16.8 9.6c-.2.2-.5.2-.8.2.4.3.9.3 1.3 0l16.8-9.6c1.1-.8 1.7-2 1.7-3.3v-6c0-.7-.3-1.3-.9-1.4z" fill="#fff"/><path d="m284.7 228 1.5-.9c.2-.2.4-.4.4-.7v-1.6c0-.3-.2-.4-.4-.3l-1.5.9c-.2.2-.4.4-.4.7v1.6c0 .3.2.4.4.3z" fill="#396caa"/><path d="m289.9 225 1.5-.9c.2-.2.4-.4.4-.7v-1.6c0-.3-.2-.4-.4-.3l-1.5.9c-.2.2-.4.4-.4.7v1.6c0 .3.2.4.4.3z" fill="#fff"/><path d="m279.7 256.3 16.8-9.6c1.1-.8 1.7-2 1.7-3.3v-6c0-1.3-.8-1.8-1.7-1.3l-16.8 9.6c-1.1.8-1.7 2-1.7 3.3v6c-.1 1.3.7 1.8 1.7 1.3z" fill="#173d7a"/><path d="m297.3 235.9c.3.3.5.8.4 1.2v6c0 1.3-.7 2.5-1.7 3.3l-16.8 9.7c-.2.2-.5.2-.8.2.4.3.9.3 1.3 0l16.8-9.6c1.1-.8 1.7-2 1.7-3.3v-6c0-.9-.3-1.4-.9-1.5z" fill="#fff"/><path d="m284.7 249.8 1.5-.9c.2-.2.4-.4.4-.7v-1.6c0-.3-.2-.4-.4-.3l-1.5.9c-.2.2-.4.4-.4.7v1.6c0 .3.2.4.4.3z" fill="#396caa"/><path d="m289.9 246.8 1.5-.9c.2-.2.4-.4.4-.7v-1.6c0-.3-.2-.4-.4-.3l-1.5.9c-.2.2-.4.4-.4.7v1.6c0 .3.2.4.4.3z" fill="#fff"/><path d="m288.7 257.9 1.5-.9c.2-.2.4-.4.4-.7v-1.6c0-.3-.2-.4-.4-.3l-1.5.9c-.2.2-.4.4-.4.7v1.6c.1.3.2.4.4.3z" fill="#fff"/><path d="m279.7 212.8 16.8-9.6c1.1-.8 1.7-2 1.7-3.3v-6c0-1.3-.8-1.8-1.7-1.3l-16.8 9.6c-1.1.8-1.7 2-1.7 3.3v6c-.1 1.3.7 1.8 1.7 1.3z" fill="#173d7a"/><path d="m297.3 192.4c.3.3.5.8.4 1.2v6c0 1.3-.7 2.5-1.7 3.3l-16.8 9.6c-.2.2-.5.2-.8.2.4.3.9.3 1.3 0l16.8-9.6c1.1-.8 1.7-2 1.7-3.3v-6c0-.8-.3-1.3-.9-1.4z" fill="#fff"/><path d="m284.7 206.3 1.5-.9c.2-.2.4-.4.4-.7v-1.7c0-.3-.2-.4-.4-.3l-1.5.9c-.2.2-.4.4-.4.7v1.6c0 .3.2.5.4.4z" fill="#396caa"/><path d="m289.9 203.3 1.5-.9c.2-.2.4-.4.4-.7v-1.7c0-.3-.2-.4-.4-.3l-1.5.9c-.2.2-.4.4-.4.7v1.6c0 .4.2.5.4.4z" fill="#fff"/><path d="m265.1 184.9-38.8-22.4c-1-.7-1.6-1.8-1.6-3v-7.4c0-1.2.7-1.7 1.6-1.2l38.8 22.4c1 .7 1.6 1.8 1.6 3v7.4c0 1.2-.8 1.7-1.6 1.2z" fill="#5793ce"/><path d="m264 182.3-36.6-21.1c-.5-.4-.8-.9-.8-1.5v-5.5c0-.6.4-.9.8-.6l36.6 21.1c.5.4.8.9.8 1.5v5.6c0 .5-.4.7-.8.5z" fill="#d4ecff" opacity=".4"/><path d="m235 162.7-5.5-3.1c-.5-.3-.8-.9-.8-1.5s.4-.8.8-.6l5.5 3.2c.5.3.8.9.8 1.5 0 .5-.4.8-.8.5z" fill="#d4ecff"/><path d="m239.6 164.4c0 .6-.4.8-.9.5s-.9-.9-.9-1.6c0-.6.4-.8.9-.5.6.4.9 1 .9 1.6z" fill="#173d7a"/><path d="m242.8 166.2c0 .6-.4.8-.9.5s-.9-.9-.9-1.6c0-.6.4-.8.9-.5.5.4.9 1 .9 1.6z" fill="#173d7a"/><path d="m246 168c0 .6-.4.8-.9.5s-.9-.9-.9-1.6c0-.6.4-.8.9-.5.5.4.8 1 .9 1.6z" fill="#d4ecff"/><path d="m249.1 169.9c0 .6-.4.8-.9.5s-.9-.9-.9-1.6c0-.6.4-.8.9-.5.6.4.9.9.9 1.6z" fill="#173d7a"/><path d="m262.4 179.2-1.8-1.1c-.3-.2-.5-.6-.5-1v-1.9c0-.4.2-.5.5-.4l1.8 1.1c.3.2.5.6.5 1v1.9c0 .4-.2.5-.5.4z" fill="#173d7a"/><path d="m265.1 197.9-38.8-22.4c-1-.7-1.6-1.8-1.6-3v-7.4c0-1.2.7-1.7 1.6-1.2l38.8 22.4c1 .7 1.6 1.8 1.6 3v7.4c0 1.2-.8 1.7-1.6 1.2z" fill="#5793ce"/><path d="m264 195.3-36.6-21.1c-.5-.4-.8-.9-.8-1.5v-5.6c0-.6.4-.9.8-.6l36.6 21.1c.5.4.8.9.8 1.5v5.6c0 .6-.4.9-.8.6z" fill="#d4ecff" opacity=".4"/><path d="m235 175.8-5.5-3.1c-.5-.3-.8-.9-.8-1.5s.4-.8.8-.6l5.5 3.1c.5.3.8.9.8 1.5s-.4.9-.8.6z" fill="#d4ecff"/><path d="m239.6 177.5c0 .6-.4.8-.9.5s-.9-.9-.9-1.6c0-.6.4-.8.9-.5.6.4.9.9.9 1.6z" fill="#fff"/><path d="m242.8 179.3c0 .6-.4.8-.9.5s-.9-.9-.9-1.6c0-.6.4-.8.9-.5.5.4.9.9.9 1.6z" fill="#173d7a"/><path d="m246 181.1c0 .6-.4.8-.9.5s-.9-.9-.9-1.5.4-.8.9-.5.8.9.9 1.5z" fill="#d4ecff"/><path d="m249.1 182.9c0 .6-.4.8-.9.5s-.9-.9-.9-1.6c0-.6.4-.8.9-.5.6.4.9 1 .9 1.6z" fill="#173d7a"/><path d="m262.4 192.2-1.8-1.1c-.3-.2-.5-.6-.5-1v-1.9c0-.4.2-.5.5-.4l1.8 1.1c.3.2.5.6.5 1v1.9c0 .4-.2.6-.5.4z" fill="#173d7a"/><path d="m265.1 211-38.8-22.4c-1-.7-1.6-1.8-1.6-3v-7.4c0-1.2.7-1.7 1.6-1.2l38.8 22.4c1 .7 1.6 1.8 1.6 3v7.4c0 1.2-.8 1.7-1.6 1.2z" fill="#5793ce"/><path d="m264 208.4-36.6-21.1c-.5-.4-.8-.9-.8-1.5v-5.6c0-.6.4-.9.8-.6l36.6 21.1c.5.4.8.9.8 1.5v5.6c0 .6-.4.9-.8.6z" fill="#d4ecff" opacity=".4"/><path d="m235 188.9-5.5-3.1c-.5-.3-.8-.9-.8-1.5s.4-.8.8-.6l5.5 3.1c.5.3.8.9.8 1.5 0 .5-.4.8-.8.6z" fill="#d4ecff"/><path d="m239.6 190.5c0 .6-.4.8-.9.5s-.9-.9-.9-1.6c0-.6.4-.8.9-.5.6.4.9 1 .9 1.6z" fill="#fff"/><path d="m242.8 192.3c0 .6-.4.8-.9.5s-.9-.9-.9-1.6c0-.6.4-.8.9-.5.5.4.9 1 .9 1.6z" fill="#173d7a"/><path d="m246 194.2c0 .6-.4.8-.9.5s-.9-.9-.9-1.6c0-.6.4-.8.9-.5s.8.9.9 1.6z" fill="#d4ecff"/><path d="m249.1 196c0 .6-.4.8-.9.5s-.9-.9-.9-1.6c0-.6.4-.8.9-.5.6.4.9 1 .9 1.6z" fill="#173d7a"/><path d="m262.4 205.3-1.8-1.1c-.3-.2-.5-.6-.5-1v-1.9c0-.4.2-.5.5-.4l1.8 1.1c.3.2.5.6.5 1v1.9c0 .4-.2.6-.5.4z" fill="#173d7a"/><path d="m265.1 224.1-38.8-22.4c-1-.7-1.6-1.8-1.6-3v-7.4c0-1.2.7-1.7 1.6-1.2l38.8 22.4c1 .7 1.6 1.8 1.6 3v7.4c0 1.1-.8 1.7-1.6 1.2z" fill="#5793ce"/><path d="m264 221.5-36.6-21.1c-.5-.4-.8-.9-.8-1.5v-5.6c0-.6.4-.9.8-.6l36.6 21.1c.5.4.8.9.8 1.5v5.6c0 .5-.4.8-.8.6z" fill="#d4ecff" opacity=".4"/><path d="m235 201.9-5.5-3.1c-.5-.3-.8-.9-.8-1.5s.4-.8.8-.6l5.5 3.1c.5.3.8.9.8 1.5s-.4.9-.8.6z" fill="#d4ecff"/><path d="m239.6 203.6c0 .6-.4.8-.9.5s-.9-.9-.9-1.6c0-.6.4-.8.9-.5.6.4.9.9.9 1.6z" fill="#173d7a"/><path d="m242.8 205.4c0 .6-.4.8-.9.5s-.9-.9-.9-1.6c0-.6.4-.8.9-.5.5.4.9 1 .9 1.6z" fill="#173d7a"/><path d="m246 207.2c0 .6-.4.8-.9.5s-.9-.9-.9-1.6c0-.6.4-.8.9-.5.5.4.8 1 .9 1.6z" fill="#d4ecff"/><path d="m249.1 209c0 .6-.4.8-.9.5s-.9-.9-.9-1.6c0-.6.4-.8.9-.5.6.4.9 1 .9 1.6z" fill="#173d7a"/><path d="m262.4 218.4-1.8-1.1c-.3-.2-.5-.6-.5-1v-1.9c0-.4.2-.5.5-.4l1.8 1.1c.3.2.5.6.5 1v1.9c0 .4-.2.5-.5.4z" fill="#d4ecff"/><path d="m265.1 237.1-38.8-22.4c-1-.7-1.6-1.8-1.6-3v-7.4c0-1.2.7-1.7 1.6-1.2l38.8 22.4c1 .7 1.6 1.8 1.6 3v7.4c0 1.2-.8 1.7-1.6 1.2z" fill="#5793ce"/><path d="m264 234.5-36.6-21.1c-.5-.4-.8-.9-.8-1.5v-5.6c0-.6.4-.9.8-.6l36.6 21.1c.5.4.8.9.8 1.5v5.6c0 .6-.4.9-.8.6z" fill="#d4ecff" opacity=".4"/><path d="m235 215-5.5-3.1c-.5-.3-.8-.9-.8-1.5s.4-.8.8-.6l5.5 3.1c.5.3.8.9.8 1.5s-.4.8-.8.6z" fill="#d4ecff"/><path d="m239.6 216.6c0 .6-.4.8-.9.5s-.9-.9-.9-1.6c0-.6.4-.8.9-.5.6.4.9 1 .9 1.6z" fill="#173d7a"/><path d="m242.8 218.5c0 .6-.4.8-.9.5s-.9-.9-.9-1.6c0-.6.4-.8.9-.5.5.4.9.9.9 1.6z" fill="#fff"/><path d="m246 220.3c0 .6-.4.8-.9.5s-.9-.9-.9-1.6c0-.6.4-.8.9-.5.5.4.8.9.9 1.6z" fill="#d4ecff"/><path d="m249.1 222.1c0 .6-.4.8-.9.5s-.9-.9-.9-1.6c0-.6.4-.8.9-.5.6.4.9 1 .9 1.6z" fill="#fff"/><path d="m262.4 231.4-1.8-1.1c-.3-.2-.5-.6-.5-1v-1.9c0-.4.2-.5.5-.4l1.8 1.1c.3.2.5.6.5 1v2c0 .3-.2.5-.5.3z" fill="#d4ecff"/><path d="m265.1 250.2-38.8-22.4c-1-.7-1.6-1.8-1.6-3v-7.4c0-1.2.7-1.7 1.6-1.2l38.8 22.4c1 .7 1.6 1.8 1.6 3v7.4c0 1.1-.8 1.7-1.6 1.2z" fill="#5793ce"/><path d="m264 247.6-36.6-21.1c-.5-.4-.8-.9-.8-1.5v-5.6c0-.6.4-.9.8-.6l36.6 21.1c.5.4.8.9.8 1.5v5.6c0 .6-.4.8-.8.6z" fill="#d4ecff" opacity=".4"/><path d="m235 228-5.5-3.1c-.5-.3-.8-.9-.8-1.5s.4-.8.8-.6l5.5 3.1c.5.3.8.9.8 1.5s-.4.9-.8.6z" fill="#d4ecff"/><path d="m239.6 229.7c0 .6-.4.8-.9.5s-.9-.9-.9-1.6c0-.6.4-.8.9-.5.6.4.9 1 .9 1.6z" fill="#173d7a"/><path d="m242.8 231.5c0 .6-.4.8-.9.5s-.9-.9-.9-1.6c0-.6.4-.8.9-.5.5.4.9 1 .9 1.6z" fill="#173d7a"/><path d="m246 233.3c0 .6-.4.8-.9.5s-.9-.9-.9-1.6c0-.6.4-.8.9-.5.5.4.8 1 .9 1.6z" fill="#d4ecff"/><path d="m249.1 235.2c0 .6-.4.8-.9.5s-.9-.9-.9-1.6c0-.6.4-.8.9-.5.6.4.9.9.9 1.6z" fill="#173d7a"/><path d="m262.4 244.5-1.8-1.1c-.3-.2-.5-.6-.5-1v-1.9c0-.4.2-.5.5-.4l1.8 1.1c.3.2.5.6.5 1v1.9c0 .4-.2.5-.5.4z" fill="#173d7a"/><path d="m265.1 263.2-38.8-22.4c-1-.7-1.6-1.8-1.6-3v-7.4c0-1.2.7-1.7 1.6-1.2l38.8 22.4c1 .7 1.6 1.8 1.6 3v7.5c0 1.1-.8 1.6-1.6 1.1z" fill="#5793ce"/><path d="m264 260.6-36.6-21.1c-.5-.4-.8-.9-.8-1.5v-5.6c0-.6.4-.9.8-.6l36.6 21.1c.5.4.8.9.8 1.5v5.6c0 .6-.4.9-.8.6z" fill="#d4ecff" opacity=".4"/><path d="m235 241.1-5.5-3.1c-.5-.3-.8-.9-.8-1.5s.4-.8.8-.6l5.5 3.1c.5.3.8.9.8 1.5s-.4.8-.8.6z" fill="#d4ecff"/><path d="m240.6 243.5c0 1.1-.8 1.5-1.7 1-1-.7-1.6-1.7-1.7-2.9 0-1.1.8-1.5 1.7-1 1 .6 1.7 1.7 1.7 2.9z" fill="#fff"/><path d="m247.1 247.3c0 .6-.4.8-.9.5s-.9-.9-.9-1.6c0-.6.4-.8.9-.5.6.4.9 1 .9 1.6z" fill="#173d7a"/><path d="m250.3 249.1c0 .6-.4.8-.9.5s-.9-.9-.9-1.6c0-.6.4-.8.9-.5.6.4.9 1 .9 1.6z" fill="#d4ecff"/><path d="m253.5 250.9c0 .6-.4.8-.9.5s-.9-.9-.9-1.6c0-.6.4-.8.9-.5.5.4.9 1 .9 1.6z" fill="#173d7a"/><path d="m262.4 257.5-1.8-1.1c-.3-.2-.5-.6-.5-1v-1.9c0-.4.2-.5.5-.4l1.8 1.1c.3.2.5.6.5 1v1.9c0 .4-.2.6-.5.4z" fill="#d4ecff"/><path d="m131.4 332.1-86.6-50c-2.5-1.4-2.1-3.9.7-5.5l58.9-34c2.8-1.6 7.1-1.8 9.6-.4l86.6 50c2.4 1.4 2.1 3.9-.7 5.5l-58.9 34c-2.9 1.6-7.2 1.8-9.6.4z" fill="#efefef"/><path d="m220.8 203.6-86.6-50c-.9-.5-1.9-.7-2.9-.4l-.2.1-3.1 1.2 2.8 1.4v.2l-14.1 64.2c-.7 3.2.7 7 3.2 8.4l84.5 48.8-.3 3.6 3.4-1.3c1.3-.7 2.2-2 2.4-3.5l14.1-64.2c.7-3.3-.7-7-3.2-8.5z" fill="#173d7a"/><path d="m220.8 203.6-86.6-50c-.9-.5-1.9-.7-2.9-.4l-.2.1-3.1 1.2 2.8 1.4v.2l-9.3 42.3 42.3 33 59.6-24.3c-.4-1.4-1.3-2.7-2.6-3.5z" fill="#396caa"/><path d="m217.5 213.5 6.6-2.8c.2-2.5-.8-4.9-2.7-6.6l-10.4 4.4z" fill="#274f89"/><path d="m201 280.7-86.6-50c-2.4-1.4-3.9-5.2-3.2-8.4l14.1-64.2c.7-3.2 3.3-4.7 5.7-3.3l86.6 50c2.4 1.4 3.9 5.2 3.2 8.4l-14.1 64.2c-.7 3.2-3.3 4.7-5.7 3.3z" fill="#d4ecff"/><path d="m218.5 204.5-86.6-50c-1-.7-2.3-.7-3.4-.2.9-.2 1.8 0 2.6.4l86.6 50c2.4 1.4 3.9 5.2 3.2 8.4l-14.1 64.2c-.2 1.4-1.1 2.7-2.3 3.4 1.5-.3 2.7-1.6 3.1-3.7l14.1-64.2c.6-3.1-.8-6.8-3.2-8.3z" fill="#fff"/><path d="m199.1 275.9-81.4-47c-2.2-1.3-3.5-4.7-2.9-7.7l12.9-58.7c.7-2.9 3-4.3 5.2-3l81.4 47c2.2 1.3 3.5 4.7 2.9 7.7l-12.9 58.7c-.6 2.9-2.9 4.3-5.2 3z" fill="#fff"/><path d="m199.1 275.9-81.4-47c-2.2-1.3-3.5-4.7-2.9-7.7l12.9-58.7c.7-2.9 3-4.3 5.2-3l81.4 47c2.2 1.3 3.5 4.7 2.9 7.7l-12.9 58.7c-.6 2.9-2.9 4.3-5.2 3z" fill="#173d7a"/><path d="m199.8 275.6-81.4-47c-2.2-1.3-3.5-4.7-2.9-7.7l12.9-58.7c.2-1.3 1-2.4 2.1-3.1-1.5.5-2.6 1.8-2.8 3.4l-12.9 58.7c-.7 2.9.7 6.4 2.9 7.7l81.4 47c1 .6 2.2.7 3.2.1-.9.2-1.7 0-2.5-.4z" fill="#5793ce"/><path d="m202.2 282.8-11.8-1.6-76.4-44c-2.4-1.4-6.7-1.2-9.5.4l-54.1 31.2-7.2-1v4.1c0 1.1.7 2.1 1.6 2.5l86.6 50c2.4 1.4 6.7 1.2 9.6-.4l58.9-34c1.6-.9 2.4-2.1 2.3-3.2z" fill="#173d7a"/><path d="m144.8 255-5.4-3.1h-59.7l-29.4 17-7.2-1v4.1c0 1.1.7 2.1 1.6 2.5l86.6 50c1.5.8 3.2 1.1 4.9.9z" fill="#396caa"/><path d="m46.3 268.3-3.2-.4v4.1c0 1.1.7 2.1 1.6 2.5l1.5.9z" fill="#5793ce"/><path d="m132.2 324.8c2.7.9 5.6.7 8.1-.5v-9.1h-8.1z" fill="#274f89"/><path d="m131.4 320.4-86.6-50c-2.5-1.4-2.1-3.9.7-5.5l58.9-34c2.8-1.6 7.1-1.8 9.6-.4l86.6 50c2.4 1.4 2.1 3.9-.7 5.5l-58.9 34c-2.9 1.6-7.2 1.8-9.6.4z" fill="#d4ecff"/><path d="m199.8 284.5-58.9 34c-2.8 1.6-7.1 1.8-9.6.4l-86.6-50c-.7-.4-1.2-.9-1.5-1.7-.4 1.2.1 2.3 1.5 3.1l86.6 50c2.4 1.4 6.7 1.2 9.6-.4l58.9-34c1.9-1.1 2.7-2.6 2.2-3.9-.4 1.1-1.2 2-2.2 2.5z" fill="#fff"/><g fill="#5793ce"><path d="m81.6 253.8-3.9-2.3c-.3-.2-.3-.5.1-.7l4.6-2.7c.4-.2.8-.2 1.2-.1l3.9 2.3c.3.2.3.5-.1.7l-4.6 2.7c-.3.3-.8.3-1.2.1z"/><path d="m87.7 257.3-3.9-2.2c-.3-.2-.3-.5.1-.7l4.6-2.7c.4-.2.8-.2 1.2-.1l3.9 2.3c.3.2.3.5-.1.7l-4.6 2.7c-.4.2-.9.2-1.2 0z"/><path d="m93.7 260.8-3.9-2.3c-.3-.2-.3-.5.1-.7l4.6-2.7c.4-.2.8-.2 1.2-.1l3.9 2.3c.3.2.3.5-.1.7l-4.6 2.7c-.3.3-.8.3-1.2.1z"/><path d="m102.1 257.9-3.9-2.3c-.3-.2-.3-.5.1-.7l3.9-2.2c.4-.2.8-.2 1.2-.1l3.9 2.3c.3.2.3.5-.1.7l-3.9 2.2c-.4.3-.8.3-1.2.1z"/><path d="m108.1 261.4-3.9-2.3c-.3-.2-.3-.5.1-.7l3.8-2.2c.4-.2.8-.2 1.2-.1l3.9 2.3c.3.2.3.5-.1.7l-3.9 2.2c-.3.3-.7.3-1.1.1z"/><path d="m114.1 264.9-3.9-2.3c-.3-.2-.3-.5.1-.7l3.9-2.2c.4-.2.8-.2 1.2 0l3.9 2.3c.3.2.3.5-.1.7l-3.9 2.2c-.3.2-.8.2-1.2 0z"/><path d="m120.2 268.4-3.9-2.3c-.3-.2-.3-.5.1-.7l3.9-2.2c.4-.2.8-.2 1.2 0l3.9 2.3c.3.2.3.5-.1.7l-3.9 2.2c-.3.2-.8.2-1.2 0z"/><path d="m126.3 271.9-3.9-2.3c-.3-.2-.3-.5.1-.7l3.9-2.2c.4-.2.8-.2 1.2 0l3.9 2.3c.3.2.3.5-.1.7l-3.9 2.2c-.4.2-.8.2-1.2 0z"/><path d="m132.3 275.4-3.9-2.3c-.3-.2-.3-.5.1-.7l3.9-2.2c.4-.2.8-.2 1.2-.1l3.9 2.3c.3.2.3.5-.1.7l-3.9 2.2c-.3.2-.8.3-1.2.1z"/><path d="m138.4 278.9-3.9-2.3c-.3-.2-.3-.5.1-.7l3.9-2.2c.4-.2.8-.2 1.2-.1l3.9 2.3c.3.2.3.5-.1.7l-3.9 2.2c-.4.2-.9.3-1.2.1z"/><path d="m144.4 282.4-3.9-2.3c-.3-.2-.3-.5.1-.7l3.9-2.2c.4-.2.8-.2 1.2-.1l3.9 2.3c.3.2.3.5-.1.7l-3.9 2.2c-.3.2-.8.3-1.2.1z"/><path d="m150.5 285.9-3.9-2.3c-.3-.2-.3-.5.1-.7l3.9-2.2c.4-.2.8-.2 1.2 0l3.9 2.3c.3.2.3.5-.1.7l-3.9 2.2c-.4.1-.9.2-1.2 0z"/><path d="m156.5 289.4-3.9-2.3c-.3-.2-.3-.5.1-.7l3.9-2.2c.4-.2.8-.2 1.2-.1l3.9 2.3c.3.2.3.5-.1.7l-3.9 2.2c-.3.2-.8.2-1.2.1z"/><path d="m111 256.3-3.9-2.3c-.3-.2-.3-.5.1-.7l3.9-2.2c.4-.2.8-.2 1.2-.1l3.9 2.2c.3.2.3.5-.1.7l-3.9 2.2c-.4.3-.8.4-1.2.2z"/><path d="m104.8 252.7-3.9-2.3c-.3-.2-.3-.5.1-.7l3.9-2.2c.4-.2.8-.2 1.2-.1l3.9 2.3c.3.2.3.5-.1.7l-3.9 2.2c-.3.3-.8.3-1.2.1z"/><path d="m98.7 249.2-8.4-4.9c-.3-.2-.3-.5.1-.7l3.9-2.2c.4-.2.8-.2 1.2-.1l8.4 4.9c.3.2.3.5-.1.7l-3.9 2.2c-.4.2-.8.3-1.2.1z"/><path d="m103 244.9-6.8-4c-.3-.2-.3-.5.1-.7l3.9-2.2c.4-.2.8-.2 1.2-.1l6.9 4c.3.2.3.5-.1.7l-3.9 2.2c-.4.3-.9.3-1.3.1z"/><path d="m117 259.8-3.9-2.3c-.3-.2-.3-.5.1-.7l3.9-2.2c.4-.2.8-.2 1.2-.1l3.9 2.3c.3.2.3.5-.1.7l-3.9 2.2c-.3.2-.8.3-1.2.1z"/><path d="m123.1 263.3-3.9-2.3c-.3-.2-.3-.5.1-.7l3.9-2.2c.4-.2.8-.2 1.2-.1l3.9 2.3c.3.2.3.5-.1.7l-3.9 2.2c-.4.3-.8.3-1.2.1z"/><path d="m129.1 266.8-3.9-2.3c-.3-.2-.3-.5.1-.7l3.8-2.2c.4-.2.8-.2 1.2 0l3.9 2.3c.3.2.3.5-.1.7l-3.9 2.2c-.3.1-.7.1-1.1 0z"/><path d="m135.1 270.2-3.9-2.3c-.3-.2-.3-.5.1-.7l3.9-2.2c.4-.2.8-.2 1.2 0l3.9 2.3c.3.2.3.5-.1.7l-3.9 2.2c-.3.2-.8.2-1.2 0z"/><path d="m141.2 273.7-3.9-2.3c-.3-.2-.3-.5.1-.7l3.9-2.2c.4-.2.8-.2 1.2 0l3.9 2.3c.3.2.3.5-.1.7l-3.9 2.2c-.3.2-.8.2-1.2 0z"/><path d="m147.3 277.2-3.9-2.3c-.3-.2-.3-.5.1-.7l3.9-2.2c.4-.2.8-.2 1.2-.1l3.9 2.3c.3.2.3.5-.1.7l-3.9 2.2c-.4.3-.8.3-1.2.1z"/><path d="m153.3 280.7-3.9-2.3c-.3-.2-.3-.5.1-.7l3.9-2.2c.4-.2.8-.2 1.2 0l3.9 2.3c.3.2.3.5-.1.7l-3.9 2.2c-.3.2-.8.2-1.2 0z"/><path d="m159.4 284.2-3.9-2.3c-.3-.2-.3-.5.1-.7l3.9-2.2c.4-.2.8-.2 1.2 0l3.9 2.3c.3.2.3.5-.1.7l-3.9 2.2c-.4.2-.8.2-1.2 0z"/><path d="m165.4 287.7-3.9-2.3c-.3-.2-.3-.5.1-.7l3.9-2.2c.4-.2.8-.2 1.2-.1l3.9 2.3c.3.2.3.5-.1.7l-3.9 2.2c-.3.3-.8.3-1.2.1z"/><path d="m176.1 293.9-8.6-4.9c-.3-.2-.3-.5.1-.7l3.9-2.2c.4-.2.8-.2 1.2-.1l8.6 4.9c.3.2.3.5-.1.7l-3.9 2.2c-.3.3-.8.3-1.2.1z"/><path d="m187.9 287.1-7.2-4.2c-.3-.2-.3-.5.1-.7l3.9-2.2c.4-.2.8-.2 1.2-.1l7.2 4.2c.3.2.3.5-.1.7l-3.9 2.3c-.3.2-.8.2-1.2 0z"/><path d="m127.6 259.1-3.9-2.3c-.3-.2-.3-.5.1-.7l3.9-2.2c.4-.2.8-.2 1.2-.1l3.9 2.3c.3.2.3.5-.1.7l-3.9 2.2c-.3.3-.8.3-1.2.1z"/><path d="m121.4 255.5-3.9-2.3c-.3-.2-.3-.5.1-.7l3.9-2.2c.4-.2.8-.2 1.2-.1l3.9 2.3c.3.2.3.5-.1.7l-3.9 2.2c-.3.3-.8.3-1.2.1z"/><path d="m115.2 251.9-3.9-2.3c-.3-.2-.3-.5.1-.7l3.9-2.2c.4-.2.8-.2 1.2-.1l3.9 2.3c.3.2.3.5-.1.7l-3.9 2.2c-.3.3-.8.3-1.2.1z"/><path d="m109 248.4-3.9-2.3c-.3-.2-.3-.5.1-.7l3.9-2.3c.4-.2.8-.2 1.2-.1l3.9 2.3c.3.2.3.5-.1.7l-3.9 2.2c-.3.3-.8.3-1.2.2z"/><path d="m133.7 262.6-3.9-2.3c-.3-.2-.3-.5.1-.7l3.9-2.2c.4-.2.8-.2 1.2-.1l3.9 2.3c.3.2.3.5-.1.7l-3.9 2.2c-.4.2-.8.3-1.2.1z"/><path d="m139.7 266.1-3.9-2.3c-.3-.2-.3-.5.1-.7l3.9-2.2c.4-.2.8-.2 1.2 0l3.9 2.3c.3.2.3.5-.1.7l-3.9 2.2c-.3.2-.8.2-1.2 0z"/><path d="m145.8 269.6-3.9-2.3c-.3-.2-.3-.5.1-.7l3.9-2.2c.4-.2.8-.2 1.2 0l3.9 2.3c.3.2.3.5-.1.7l-3.9 2.2c-.4.1-.8.1-1.2 0z"/><path d="m151.8 273.1-3.9-2.3c-.3-.2-.3-.5.1-.7l3.9-2.2c.4-.2.8-.2 1.2 0l3.9 2.3c.3.2.3.5-.1.7l-3.9 2.1c-.3.3-.8.3-1.2.1z"/><path d="m157.9 276.5-3.9-2.3c-.3-.2-.3-.5.1-.7l3.9-2.2c.4-.2.8-.2 1.2-.1l3.9 2.3c.3.2.3.5-.1.7l-3.8 2.2c-.5.3-.9.3-1.3.1z"/><path d="m163.9 280-3.9-2.3c-.3-.2-.3-.5.1-.7l3.9-2.2c.4-.2.8-.2 1.2-.1l3.9 2.3c.3.2.3.5-.1.7l-3.9 2.2c-.3.3-.8.3-1.2.1z"/><path d="m170 283.5-3.9-2.3c-.3-.2-.3-.5.1-.7l3.9-2.2c.4-.2.8-.2 1.2 0l3.9 2.3c.3.2.3.5-.1.7l-3.9 2.2c-.4.2-.8.2-1.2 0z"/><path d="m176 287-3.9-2.3c-.3-.2-.3-.5.1-.7l3.9-2.2c.4-.2.8-.2 1.2 0l3.9 2.3c.3.2.3.5-.1.7l-3.9 2.2c-.3.2-.8.2-1.2 0z"/><path d="m182.1 290.5-3.9-2.3c-.3-.2-.3-.5.1-.7l3.9-2.2c.4-.2.8-.2 1.2-.1l3.9 2.3c.3.2.3.5-.1.7l-3.9 2.2c-.4.3-.9.3-1.2.1z"/><path d="m124.4 250.5-3.9-2.3c-.3-.2-.3-.5.1-.7l3.9-2.2c.4-.2.8-.2 1.2-.1l3.9 2.3c.3.2.3.5-.1.7l-3.9 2.2c-.3.2-.8.2-1.2.1z"/><path d="m118.4 247-3.9-2.3c-.3-.2-.3-.5.1-.7l3.9-2.2c.4-.2.8-.2 1.2-.1l3.9 2.3c.3.2.3.5-.1.7l-3.9 2.2c-.3.2-.8.3-1.2.1z"/><path d="m112.4 243.5-3.9-2.3c-.3-.2-.3-.5.1-.7l3.9-2.2c.4-.2.8-.2 1.2-.1l3.9 2.3c.3.2.3.5-.1.7l-3.9 2.2c-.4.3-.8.3-1.2.1z"/><path d="m106.4 240-3.9-2.3c-.3-.2-.3-.5.1-.7l3.9-2.2c.4-.2.8-.2 1.2-.1l3.9 2.3c.3.2.3.5-.1.7l-3.9 2.2c-.4.3-.8.3-1.2.1z"/><path d="m112.6 236.5-3.9-2.3c-.3-.2-.3-.5.1-.7l1.3-.7c.4-.2.8-.2 1.2-.1l3.9 2.3c.3.2.3.5-.1.7l-1.3.7c-.4.2-.8.2-1.2.1z"/><path d="m120.4 241-3.9-2.3c-.3-.2-.3-.5.1-.7l1.3-.7c.4-.2.8-.2 1.2-.1l3.9 2.3c.3.2.3.5-.1.7l-1.3.7c-.3.2-.8.3-1.2.1z"/><path d="m126.4 244.4-3.9-2.3c-.3-.2-.3-.5.1-.7l1.3-.7c.4-.2.8-.2 1.2-.1l3.9 2.3c.3.2.3.5-.1.7l-1.3.7c-.3.3-.8.3-1.2.1z"/><path d="m132.4 247.9-3.9-2.3c-.3-.2-.3-.5.1-.7l1.3-.7c.4-.2.8-.2 1.2-.1l3.9 2.3c.3.2.3.5-.1.7l-1.3.7c-.3.3-.8.3-1.2.1z"/><path d="m138.4 251.4-3.9-2.3c-.3-.2-.3-.5.1-.7l1.3-.7c.4-.2.8-.2 1.2-.1l3.9 2.3c.3.2.3.5-.1.7l-1.3.7c-.3.2-.8.2-1.2.1z"/><path d="m171.9 270.7-3.9-2.3c-.3-.2-.3-.5.1-.7l1.3-.7c.4-.2.8-.2 1.2 0l3.9 2.3c.3.2.3.5-.1.7l-1.3.7c-.4.1-.8.2-1.2 0z"/><path d="m177.9 274.1-3.9-2.3c-.3-.2-.3-.5.1-.7l1.3-.7c.4-.2.8-.2 1.2-.1l3.9 2.3c.3.2.3.5-.1.7l-1.3.7c-.4.3-.9.3-1.2.1z"/><path d="m183.8 277.6-3.9-2.3c-.3-.2-.3-.5.1-.7l1.3-.7c.4-.2.8-.2 1.2-.1l3.9 2.3c.3.2.3.5-.1.7l-1.3.7c-.3.3-.8.3-1.2.1z"/><path d="m189.8 281.1-3.9-2.3c-.3-.2-.3-.5.1-.7l1.3-.7c.4-.2.8-.2 1.2 0l3.9 2.3c.3.2.3.5-.1.7l-1.3.7c-.3.2-.8.2-1.2 0z"/><path d="m130.5 253.9-3.9-2.3c-.3-.2-.3-.5.1-.7l3.9-2.2c.4-.2.8-.2 1.2-.1l3.9 2.3c.3.2.3.5-.1.7l-3.9 2.2c-.4.3-.8.3-1.2.1z"/><path d="m136.5 257.4-3.9-2.3c-.3-.2-.3-.5.1-.7l3.9-2.2c.4-.2.8-.2 1.2-.1l3.9 2.3c.3.2.3.5-.1.7l-3.9 2.2c-.3.3-.8.3-1.2.1z"/><path d="m142.6 260.9-3.9-2.3c-.3-.2-.3-.5.1-.7l3.9-2.2c.4-.2.8-.2 1.2-.1l3.9 2.3c.3.2.3.5-.1.7l-3.9 2.2c-.4.3-.8.3-1.2.1z"/><path d="m148.6 264.4-3.9-2.3c-.3-.2-.3-.5.1-.7l3.9-2.2c.4-.2.8-.2 1.2-.1l3.9 2.3c.3.2.3.5-.1.7l-3.9 2.2c-.3.3-.8.3-1.2.1z"/><path d="m154.7 267.9-3.9-2.3c-.3-.2-.3-.5.1-.7l3.9-2.2c.4-.2.8-.2 1.2 0l3.9 2.3c.3.2.3.5-.1.7l-3.9 2.2c-.4.2-.8.2-1.2 0z"/><path d="m160.7 271.4-3.9-2.3c-.3-.2-.3-.5.1-.7l3.9-2.2c.4-.2.8-.2 1.2-.1l3.9 2.3c.3.2.3.5-.1.7l-3.9 2.2c-.3.2-.8.3-1.2.1z"/><path d="m166.8 274.9-3.9-2.3c-.3-.2-.3-.5.1-.7l3.9-2.2c.4-.2.8-.2 1.2-.1l3.9 2.3c.3.2.3.5-.1.7l-3.9 2.2c-.4.3-.8.3-1.2.1z"/><path d="m172.8 278.4-3.9-2.3c-.3-.2-.3-.5.1-.7l3.9-2.2c.4-.2.9-.2 1.3 0l3.9 2.3c.3.2.3.5-.1.7l-3.9 2.2c-.4.1-.9.2-1.3 0z"/><path d="m178.9 281.9-3.9-2.3c-.3-.2-.3-.5.1-.7l3.9-2.2c.4-.2.8-.2 1.2-.1l3.9 2.3c.3.2.3.5-.1.7l-3.9 2.2c-.3.3-.8.3-1.2.1z"/><path d="m95.9 254.4-11.5-6.7c-.3-.2-.3-.5.1-.7l3.9-2.2c.4-.2.8-.2 1.2-.1l11.6 6.7c.3.2.3.5-.1.7l-3.9 2.2c-.4.2-.9.3-1.3.1z"/><path d="m170.2 297.3-11.5-6.7c-.3-.2-.3-.5.1-.7l3.9-2.2c.4-.2.8-.2 1.2-.1l11.5 6.7c.3.2.3.5-.1.7l-3.9 2.2c-.3.2-.8.3-1.2.1z"/><path d="m146 291-3.9-2.3c-.3-.2-.3-.5.1-.7l4.6-2.7c.4-.2.8-.2 1.2 0l3.9 2.3c.3.2.3.5-.1.7l-4.6 2.7c-.3.2-.8.2-1.2 0z"/><path d="m102.1 265.7-6.3-3.6c-.3-.2-.3-.5.1-.7l4.6-2.7c.4-.2.8-.2 1.2-.1l6.3 3.6c.3.2.3.5-.1.7l-4.6 2.7c-.4.2-.8.2-1.2.1z"/><path d="m140.2 287.7-6.3-3.6c-.3-.2-.3-.5.1-.7l4.6-2.7c.4-.2.8-.2 1.2-.1l6.3 3.6c.3.2.3.5-.1.7l-4.6 2.7c-.4.2-.8.2-1.2.1z"/><path d="m110.8 270.7-6.3-3.6c-.3-.2-.3-.5.1-.7l4.6-2.7c.4-.2.8-.2 1.2-.1l6.3 3.6c.3.2.3.5-.1.7l-4.6 2.7c-.3.3-.8.3-1.2.1z"/><path d="m110.5 263.7 27.2 15.7c.2.1.3.3.3.5 0 .1-.1.2-.3.3l-4.7 2.7c-.4.2-.8.2-1.2 0l-27.2-15.7z"/><path d="m162.9 297.4 4.4 2.5c.3.1.2.4-.1.6l-1.9 1.1c-.3.2-.7.2-1 0l-4.4-2.4c-.3-.1-.2-.4.1-.6l1.9-1.1c.3-.3.7-.3 1-.1z"/><path d="m156.8 293.8 4.4 2.5c.3.1.2.4-.1.6l-1.9 1.1c-.3.2-.7.2-1 0l-4.4-2.5c-.3-.1-.2-.4.1-.6l1.9-1.1c.3-.1.7-.1 1 0z"/><path d="m150.8 290.3 4.4 2.5c.3.1.2.4-.1.6l-1.9 1.1c-.3.2-.7.2-1 0l-4.3-2.4c-.3-.1-.2-.4.1-.6l1.9-1.1c.2-.2.5-.2.9-.1z"/><path d="m160.1 291.9 4.4 2.5c.3.1.2.4-.1.6l-1.9 1.1c-.3.2-.7.2-1 0l-4.4-2.5c-.3-.1-.2-.4.1-.6l1.9-1.1c.4-.1.7-.1 1 0z"/></g><path d="m184.1 223.8-32.6-18.8.4-2.2 32.6 18.8z" fill="#fff"/><path d="m172.4 227.3-22.8-13.1.5-2.1 22.7 13.1z" fill="#fff"/><path d="m170.2 220.9-19.6-11.3.4-2.1 19.7 11.3z" fill="#ff2c9c"/><path d="m183.1 228.4-9.8-5.7.4-2.1 9.9 5.7z" fill="#d4ecff"/><path d="m166.1 202.8c-.3.6-1 .9-1.6.6 0 0-.1 0-.1-.1-.7-.4-.9-1.2-.6-1.9.3-.6 1-.9 1.6-.6 0 0 .1 0 .1.1.6.3.9 1.2.6 1.9z" fill="#d4ecff"/><path d="m170.3 205.2c-.3.6-1 .9-1.6.6 0 0-.1 0-.1-.1-.7-.4-.9-1.2-.6-1.9.3-.6 1-.9 1.6-.6 0 0 .1 0 .1.1.6.4.9 1.2.6 1.9z" fill="#fff"/><path d="m174.5 207.7c-.3.6-1 .9-1.6.6 0 0-.1 0-.1-.1-.7-.4-.9-1.2-.6-1.9.3-.6 1-.9 1.6-.6 0 0 .1 0 .1.1.7.3.9 1.2.6 1.9z" fill="#d4ecff"/><path d="m178.8 210.1c-.3.6-1 .9-1.6.6 0 0-.1 0-.1-.1-.7-.4-.9-1.2-.6-1.9.3-.6 1-.9 1.6-.6 0 0 .1 0 .1.1.6.4.9 1.2.6 1.9z" fill="#ff2c9c"/><path d="m184 123.8-1.7-1v-2.4c-.2-2.8-1.7-5.4-4.1-7l-12.7-7.3c-2.2-1.3-4.1-.2-4.1 2.3v2.4l-1.7-1v-2.4c0-3.7 2.6-5.1 5.7-3.3l12.7 7.3c3.4 2.2 5.5 5.9 5.7 9.9z" fill="#d4ecff"/><path d="m178.3 127.1 5.7-3.3-1.2-4-1.6-4s-2.8-3.1-3-3.1-7.7-4.3-7.7-4.3l-6.2-4.5-3 .1-5.5 3.2 4 1.7s2.2 1.1 2.8 1.2c1 .7 1.9 1.4 2.8 2.3l2.7 1.1.6-.1 4.9 3.4 1.6.7.9 1.4 1.3 3.6z" fill="#d4ecff"/><path d="m161.5 110.9-5.7 3.3s-.4-3.7-.4-3.7 1.2-1.8 1.2-1.8l3.1-.6 2.5 1.9-.8-.3-.3.2.4.6z" fill="#396caa"/><path d="m178.3 127.1-1.7-1v-2.3c-.2-2.8-1.7-5.4-4.1-7l-12.7-7.3c-2.2-1.3-4.1-.2-4.1 2.3v2.4l-1.7-1v-2.4c0-3.7 2.6-5.1 5.7-3.3l12.7 7.3c3.4 2.2 5.5 5.9 5.7 9.9z" fill="#5793ce"/><path d="m241.5 123.8-1.2-.7c-.5.4-1 .7-1.6 1l2.8 1.6c2.4 1.6 3.9 4.2 4.1 7v2.4l1.7 1v-2.4c-.3-4-2.4-7.7-5.8-9.9z" fill="#d4ecff"/><path d="m244.4 128.1s-2.8-3.1-3-3.1-1-.6-2.2-1.2c-1.8 1.2-3.6 2.2-5.5 3.2l2.9 2.1 1.6.7.9 1.4 1.3 3.6 1.1 4.7 5.7-3.3-1.2-4z" fill="#d4ecff"/><path d="m235.7 129.1c2.4 1.6 3.9 4.2 4.1 7v2.4l1.7 1v-2.5c-.2-4-2.3-7.7-5.7-9.9l-1.1-.6-1.7.9z" fill="#5793ce"/><path d="m345.3 83.8-19.1-11c-.3-.2-.7-.2-1-.1l-1.9 1.1 1.3.5v13.9c0 1.2.6 2.3 1.5 2.9l18.3 10.6v1.6l1.9-1.1c.4-.3.6-.8.5-1.2v-14.3c0-1.2-.5-2.3-1.5-2.9z" fill="#d3008d"/><path d="m343.4 103.2-19.1-11.1c-.9-.7-1.5-1.8-1.5-2.9v-14.2c0-1.1.7-1.7 1.5-1.2l19.1 11c.9.7 1.5 1.8 1.5 2.9v14.3c.1 1.2-.6 1.7-1.5 1.2z" fill="#ff2c9c"/><path d="m343.9 84.6-19.1-11c-.3-.3-.8-.3-1.2 0 .2 0 .5 0 .7.2l19.1 11c.9.7 1.5 1.8 1.5 2.9v14.3c0 .4-.1.8-.4 1.1.5 0 .9-.5.9-1.3v-14.2c0-1.2-.5-2.3-1.5-3z" fill="#fff"/><path d="m330.7 87.2c0 .8-.6 1.2-1.3.8-.8-.5-1.3-1.3-1.3-2.2 0-.8.6-1.2 1.3-.8.8.5 1.3 1.3 1.3 2.2z" fill="#fff"/><path d="m334.6 89.5c0 .8-.6 1.2-1.3.8-.8-.5-1.2-1.3-1.3-2.2 0-.8.6-1.2 1.3-.8.8.4 1.3 1.3 1.3 2.2z" fill="#fff"/><path d="m338.6 91.7c0 .8-.6 1.2-1.3.8-.8-.5-1.2-1.3-1.3-2.2 0-.8.6-1.2 1.3-.8.7.5 1.2 1.3 1.3 2.2z" fill="#fff"/><path d="m334.4 65.9-19.1-11c-.3-.2-.7-.2-1-.1l-1.9 1.1 1.3.5v13.9c0 1.2.6 2.3 1.5 2.9l18.3 10.6v1.6l1.9-1.1c.4-.3.6-.8.5-1.2v-14.3c0-1.2-.5-2.3-1.5-2.9z" fill="#5793ce"/><path d="m332.5 85.3-19.1-11c-.9-.7-1.5-1.8-1.5-2.9v-14.3c0-1.1.7-1.6 1.5-1.2l19.1 11c.9.7 1.5 1.8 1.5 2.9v14.2c.1 1.3-.6 1.8-1.5 1.3z" fill="#d4ecff"/><path d="m333 66.7-19.1-11c-.3-.3-.8-.3-1.2 0 .2 0 .5 0 .7.2l19.1 11c.9.7 1.5 1.8 1.5 2.9v14.2c0 .4-.1.8-.4 1.1.5 0 .9-.5.9-1.3v-14.1c0-1.2-.5-2.3-1.5-3z" fill="#fff"/><path d="m319.8 69.3c0 .8-.6 1.2-1.3.8-.8-.5-1.2-1.3-1.3-2.2 0-.8.6-1.2 1.3-.8.8.5 1.3 1.3 1.3 2.2z" fill="#fff"/><path d="m323.8 71.6c0 .8-.6 1.2-1.3.8-.8-.5-1.3-1.3-1.3-2.2 0-.8.6-1.2 1.3-.8s1.2 1.3 1.3 2.2z" fill="#fff"/><path d="m327.7 73.9c0 .8-.6 1.2-1.3.8-.8-.5-1.2-1.3-1.3-2.2 0-.8.6-1.2 1.3-.8s1.2 1.2 1.3 2.2z" fill="#fff"/><path d="m71.4 330.7-9.5-5.4 9.5-5.5 9.4 5.5z" fill="#efefef"/><path d="m80.8 319.1-9.4 5.4v-10.9l9.4-5.4z" fill="#d3008d"/><path d="m71.4 313.6-9.5-5.4 9.5-5.5 9.4 5.5z" fill="#ff2c9c"/><path d="m71.4 324.5-9.5-5.4v-10.9l9.5 5.4z" fill="#ff2c9c"/><path d="m71.4 155.3-9.5-5.5 9.5-5.4 9.4 5.4z" fill="#efefef"/><path d="m80.8 143.6-9.4 5.5v-10.9l9.4-5.5z" fill="#173d7a"/><path d="m71.4 138.2-9.5-5.5 9.5-5.4 9.4 5.4z" fill="#d4ecff"/><path d="m71.4 149.1-9.5-5.5v-10.9l9.5 5.5z" fill="#5793ce"/><path d="m223 338.5-9.4-5.4 9.4-5.5 9.4 5.5z" fill="#efefef"/><path d="m232.4 326.9-9.4 5.4v-10.9l9.4-5.4z" fill="#173d7a"/><path d="m223 321.4-9.4-5.4 9.4-5.5 9.4 5.5z" fill="#d4ecff"/><path d="m223 332.3-9.4-5.4v-10.9l9.4 5.4z" fill="#5793ce"/></svg>