<svg enable-background="new 0 0 511.998 511.998" viewBox="0 0 511.998 511.998" xmlns="http://www.w3.org/2000/svg"><g fill="#585a60"><path d="m72.24 440.195c-41.301-.417-40.428-.968-40.575 1.01-.206 2.757 5.012.667 6.26 5.124l.006.044c.126 3.962-.185 54.253-.205 57.379-.044.317-.397 2.246-2.498 3.394-.608.333-.914 1.035-.742 1.706.171.671.776 1.141 1.469 1.141h.317c6.366 0 14.981.185 19.866 1.066 3.452.623 6.829.939 10.038.939h.002c24.952 0 38.107-19.074 38.202-37.914.082-16.164-9.941-33.664-32.14-33.889zm-21.723 5.762c43.988-2.824 44.714 30.436 38.093 46.714-3.465 8.519-15.605 13.61-25.343 13.61-6.024-.001-10.422-1.906-12.403-5.369z"/><path d="m130.628 475.511c0 23.732 19.423 36.149 38.608 36.149 18.605 0 38.378-13.268 38.378-37.856 0-46.837-76.986-48.035-76.986 1.707zm13.785-.148c0-17.401 5.013-31.399 22.575-31.399 13.776 0 26.322 14.163 26.322 29.747.297 14.008-2.814 31.026-19.309 32.616-17.065-.025-27.02-10.463-29.583-30.935z"/><path d="m290.967 439.27c-1.52.484-3.363.809-4.585.809-1.259 0-46.656-.065-49.383-.069-1.881-.985-4.808-2.185-5.263-.114l-1.882 8.561c-.157.714.217 1.438.89 1.723.672.283 1.453.048 1.856-.562.818-1.239 2.05-2.177 3.762-2.865 4.394-.176 16.19-.196 18.783-.199l-.27 57.624c-.004.085-.12 2.08-1.978 3.211-1.304.794-.74 2.812.788 2.812.011 0 16.161-.073 16.173-.073 1.591-.007 2.095-2.168.666-2.875-1.325-.657-2.028-1.648-2.141-2.936-.063-2.68-.463-48.35-.545-57.751l16.529.392c.148.007 3.636.205 4.872 3.681.243.685.942 1.1 1.66.99 1.593-.245 1.298-1.387 1.515-8.536.345-.782.628-1.866.51-2.613-.144-.919-1.07-1.488-1.957-1.21z"/><path d="m383.142 488.86c-4.065-.064-12.542-.072-14.344-.073-.058-.144-20.315-50.251-20.315-50.251-.549-1.297-2.312-1.181-2.801.02l-26.476 65.116c-.011.024-1.188 2.376-4.057 3.751-1.452.696-.948 2.881.653 2.884.082 0 12.003.019 12.003.019 1.706 0 2.096-2.388.502-2.948-.841-.422-1.227-1.015-.989-1.925.85-2.922 3.116-9.264 3.665-10.791l26.418.069 5.192 12.304c.021.051.076.281-.095.537-.883.963-.21 2.522 1.096 2.541.107.002 15.069.213 15.069.213.893 0 1.536-.707 1.536-1.516 0-.665-.429-1.231-1.026-1.435-1.986-.958-2.819-1.868-7.923-12.691 4.509.096 5.36-1.936 12.063-2.804.788-.102 1.364-.796 1.319-1.589s-.695-1.418-1.49-1.431zm-38.569-29.638 10.637 29.471-22.17.256z"/><path d="m477.44 494.363c-1.458 3.19-3.257 6.321-7.756 6.503-2.344.092-14.825.586-22.665.528 47.013-35.857 34.494-62.853 6.484-62.853-6.141 0-12.312 1.479-16.932 4.058-.446.249-.736.705-.773 1.213-.118 1.624.195 4.905.932 9.752.104.686.661 1.214 1.352 1.281.685.062 1.339-.345 1.574-.997 2.702-7.534 8.132-10.218 12.313-10.218 5.982 0 12.236 5.134 12.614 14.946.842 21.836-25.758 42.444-31.721 48.12-1.011.872-1.804 1.791-.966 2.849 0 1.905 2.411 2.148 2.949.593 5.117-.03 32.89-.19 38.031-.134 3.726.27 5.569-1.896 5.651-4.318l1.788-10.437c.297-1.743-2.143-2.488-2.875-.886z"/></g><path d="m453.687 91.905c-1.557-73.655-1.654-57.734-.137-80.69.09-1.361-.938-2.537-2.298-2.63-109.677-7.502-113.833-8.367-122.332-8.367-149.621-.012-71.07-2.457-270.782 9.324-1.357.081-2.394 1.241-2.323 2.597 12.871 246.942 12.401 206.658 5.826 371.238-.047 1.182.75 2.231 1.902 2.503 14.947 3.534 12.298 2.143 47.165 2.168.057.017 65.341-7.112 65.4-7.118.308.051 90.277 14.817 90.59 14.817.069 0 .137-.003.206-.009 105.441-8.836 75.218-6.701 143.243-10.471l39.943 8.079c1.554.312 2.979-.889 2.962-2.45-.865-80.418.635-298.991.635-298.991zm-162.139-5.862c.297-.072.722-.176 1.252-.317l28.43-6.407c14.563-3.649 16.715-4.538 29.177-10.397h.001c5.754 1.996 21.53 10.726 25.529 15.738 2.643 3.318 2.469 4.056 1.638 7.609-.16.682-.343 1.467-.535 2.394-.013.061-.023.124-.032.186l-6.252 48.924c-6.186.228-6.702-.246-8.413-1.821-.706-.652-1.585-1.462-3.135-2.501-9.407-6.314-40.193-29.093-49.914-36.934l-19.11-15.354.154-.149c.207-.206.391-.483.513-.748.096-.075.474-.168.697-.223zm44.304 246.33c-.559-.559-238.904-253.234-239.079-253.583l20.823-15.974 290.99 192.681c-2.405 6.891-3.365 14.799-4.811 21.366-5.112 23.193-11.686 33.341-21.966 55.377-14.714.585-44.944.472-45.957.133zm-216.816-68.361c2.679-6.439 6.362-16.797 9.458-22.044 15.22 9.511 74.676 69.25 79.847 77.316-2.864 1.063-15.166 2.891-35.605 11.056-12.95 5.166-25.178 10.067-36.989 6.059-1.178-.397-4.318-3.062-8.974-7.081-8.504-7.341-16.205-12.63-20.683-15.273-7.638-4.509-6.448-3.558 12.946-50.033z" fill="#ea473b"/><g fill="#d82b27"><path d="m86.228 264.537c-1.866-96.254.218-43.822-10.842-256.012l-17.248 1.017c-1.357.081-2.394 1.241-2.323 2.597l9.183 176.187c1.824 94.113 2.323 52.87-3.357 195.051-.047 1.182.75 2.231 1.902 2.503 8.435 1.995 11.941 2.442 17.875 2.442-.186-.635-.391 6.382 4.81-123.785z"/><path d="m220.72 324.723s10.086-3.472 1.795-12.572c-33.842-37.745-54.458-51.419-74.053-72.917-8.189-8.865-19.967 2.733-19.967 2.733 76.582 68.074 61.24 58.22 74.739 71.254 1.792 1.73 3.206 3.096 5.108 6.062-.354.131-1.919.526-4.085 1.073-31.862 8.04-36.642 13.498-50.869 16.547 13.277 10.825 36.689-2.382 53.38-8.129 3.991-1.373 9.278-2.83 13.952-4.051z"/><path d="m423.074 235.456c-.001-.001-278.195-177.413-278.195-177.413-9.32-5.943-19.371-3.083-27.282 4.773l290.99 192.681c-2.405 6.891-3.365 14.799-4.811 21.366-5.112 23.193-11.686 33.341-21.966 55.377 0 0 26.354 5.066 34.389-12.769 18.853-40.124 14.5-47.692 18.992-60.361-.533-7.146.46-15.632-12.117-23.654z"/><path d="m377.041 94.663c-.013.061-.023.124-.032.186l-6.252 48.924s24.736 15.278 27.844-9.842c.001-.008.002-.016.003-.024l5.117-41.359c.009-.063.019-.127.033-.19.195-.948.383-1.75.546-2.447.849-3.632 1.027-4.387-1.675-7.779-2.84-3.56-15.566-12.956-25.047-19.049-8.949-6-19.577 1.215-19.577 1.215-2.653 2.033-5.024 3.809-7.593 4.624 6.499 3.515 22.966 12.526 25.529 15.738 2.643 3.318 2.469 4.056 1.638 7.609-.16.683-.343 1.468-.534 2.394z"/></g></svg>