<svg viewBox="0 0 825.88 330.43" xmlns="http://www.w3.org/2000/svg"><g transform="translate(-13.54)"><path d="m589.7 42.78c24.86-14.33 49.9-28.38 74.72-42.78q-.06 87.54 0 175.08c-9.89-6-20-11.64-30-17.55 0-34 0-68 0-102-14.83 8.93-30 17.24-44.89 26.15.1-12.99.03-25.94.17-38.9z" fill="#ff8a00"/><path d="m670.9 0c25 14.27 50 28.45 74.91 42.8-.13 12.93.08 25.86.08 38.78-15-8.72-30.06-17.31-45-26.06.08 6.45.05 12.9 0 19.36 7.47 4.37 15 8.56 22.51 12.92-.09 11.27.15 22.55.09 33.82-7.47-4.54-15.14-8.74-22.63-13.24q.13 14.55 0 29.09a38 38 0 0 0 -16.94 29.34l-.06.6c-4.28 2.59-8.6 5.1-12.94 7.57q.08-87.47-.02-174.98z" fill="#ff8a00"/><g fill="#425066"><path d="m700.85 137.49c14.63-10.13 36.21-7.87 48.36 5.15 12.49 12.28 14.3 33.42 4.32 47.76a38.07 38.07 0 1 1 -52.68-52.91zm-3.91 15.29c-1.29.86-3.47 1.69-2.16 3.56 3.14 2.2 6.63 3.85 9.86 5.92-3.3 2-6.8 3.62-9.93 5.86-.06.46-.19 1.38-.25 1.83 3.28 2.46 7 4.18 10.52 6.32-3.37 2.12-6.95 3.86-10.24 6.09-.1.45-.31 1.35-.41 1.8 8.93 6.15 18.79 10.91 28 16.66 9-5.29 18.13-10.43 27.14-15.75 0-.79 0-2.36 0-3.15-3.22-1.89-6.46-3.75-9.66-5.67q4.84-2.75 9.66-5.57v-3c-3.12-1.84-6.27-3.65-9.37-5.52 3.14-1.75 6.26-3.53 9.35-5.37 0-.76 0-2.26 0-3-9-5.29-18.1-10.38-27-15.73-8.45 4.94-17.03 9.79-25.51 14.72z"/><path d="m703.22 155.25c6.35-3.75 12.81-7.32 19.11-11.15q9.57 5.63 19.23 11.12c-2.23 1.33-4.46 2.64-6.67 4-4.17-2.47-8.39-4.85-12.54-7.32-4.09 2.51-8.31 4.8-12.39 7.32-2.25-1.33-4.5-2.64-6.74-3.97z"/><path d="m715.22 162.24c2.38-1.44 4.78-2.84 7.18-4.24 2.36 1.43 4.75 2.79 7.14 4.17-2.4 1.45-4.82 2.85-7.26 4.23-2.28-1.4-4.69-2.81-7.06-4.16z"/><path d="m703.19 169.07c2.26-1.27 4.53-2.55 6.77-3.87 2.32 1.39 4.65 2.75 7 4.14q-3.37 2-6.77 4c-2.34-1.46-4.69-2.85-7-4.27z"/><path d="m727.79 169.34c2.35-1.39 4.72-2.76 7.08-4.14 2.21 1.34 4.46 2.62 6.71 3.91-2.38 1.45-4.8 2.85-7.26 4.16-2.15-1.37-4.32-2.65-6.53-3.93z"/><path d="m715.74 176.45c2.17-1.33 4.37-2.64 6.55-4 2.25 1.3 4.5 2.62 6.73 4-2.24 1.29-4.49 2.58-6.74 3.85-2.15-1.3-4.34-2.61-6.54-3.85z"/><path d="m703.35 183.42c2.34-1.3 4.67-2.62 7-4q6.06 3.42 12 7c4-2.34 8-4.58 11.92-7l7.2 4.13c-6.36 3.73-12.78 7.36-19.13 11.1-6.26-3.92-12.78-7.31-18.99-11.23z"/><path d="m726.82 277.55h4.06q0 26.06 0 52.1c-1.3 0-2.6 0-3.89 0 0-1.6-.08-3.2-.09-4.79-4.64 6.78-16 7.59-21.2 1.12-4.21-4.91-4.82-11.81-4.35-18 .39-5.2 2.39-10.7 6.85-13.74 5.91-3.82 14.82-2.29 18.66 3.77-.1-6.82-.03-13.64-.04-20.46zm-12.88 18.45c-3.94.73-6.64 4.29-7.61 8a29.12 29.12 0 0 0 -.06 14.57c1 3.54 3.38 7 7.1 8s8.08.14 10.89-2.67c1.35-1.41 2.8-3.14 2.57-5.24q0-7.08 0-14.16c.16-2.24-1.37-4.11-2.8-5.67-2.56-2.74-6.55-3.52-10.09-2.83z"/><path d="m798.06 277.55h4.42v52.08h-4.25c0-1.6-.08-3.2-.08-4.8-4.67 6.78-16 7.6-21.25 1.08-4.06-4.74-4.73-11.36-4.38-17.36.31-5.27 2.16-10.89 6.58-14.13 5.9-4.12 15.09-2.62 19 3.56-.1-6.77-.02-13.6-.04-20.43zm-12.81 18.39a9.2 9.2 0 0 0 -6.12 4.4c-2 3.33-2.43 7.35-2.52 11.16 0 4.32.74 9 3.71 12.35 5 5.5 15.61 3.08 17.7-4 .06-5.55.09-11.11 0-16.66-1.55-5.29-7.48-8.45-12.78-7.25z"/><path d="m703.46 219.49c10.47 0 21 .06 31.43 0v7c-7.61 0-15.22 0-22.83 0q0 7.34 0 14.69h19.9q0 3.5 0 7c-6.64-.08-13.27 0-19.91 0v20.95h-8.65q.07-24.86.06-49.64z"/><path d="m498.64 226.67c0-2.31 0-4.62 0-6.93h39.65v7c-5.13-.06-10.26 0-15.39 0v42.62c-2.83-.08-5.67-.06-8.5 0q0-21.3 0-42.58c-5.27-.09-10.51-.02-15.76-.11z"/><path d="m739.23 219.95h8.39v49.2c-2.8 0-5.61 0-8.41-.05.08-16.38 0-32.77.02-49.15z"/><path d="m542.54 329.7c0-16.53 0-33.06 0-49.59q15.33 0 30.66 0v3.51c-8.81 0-17.63 0-26.43 0 0 6.3-.05 12.61 0 18.92 7.68-.14 15.37 0 23.05-.07v3.52c-7.69-.06-15.38 0-23.06 0v20.29c8.85-.13 17.71 0 26.57-.06v3.53q-15.4-.16-30.79-.05z"/><path d="m613.85 292.94q0-4.67 0-9.34h4.15v9.35h7.63q0 1.75 0 3.52c-2.54 0-5.07 0-7.61-.06-.06 8 0 16 0 24 0 1.94.11 4.24 1.71 5.61 1.83 1.42 4.29.7 6.4.58q.08 1.7.18 3.41c-3 .43-6.44 1-9.16-.74s-3.22-5.27-3.26-8.25c0-8.18 0-16.36 0-24.54-2.25 0-4.5 0-6.75 0 0-1.17 0-2.34 0-3.5 2.23-.07 4.47-.06 6.71-.04z"/><path d="m534.67 237.3c5.61-7.12 17.84-7.9 23.93-1 4 4.63 4.35 11.13 4.18 17-8.05-.05-16.1 0-24.15 0 .45 3.66 2.17 7.51 5.7 9.11 4.7 2.17 10.44.22 13.45-3.83 1.46 1.5 3 2.93 4.52 4.37-5.11 7.23-15.74 8.78-23.32 4.8a16.58 16.58 0 0 1 -8.33-12.15c-.86-6.34-.13-13.28 4.02-18.3zm6.79 3.32c-1.58 1.84-2.14 4.25-2.67 6.56h15.88c-.29-2.19-.49-4.54-1.87-6.36-2.58-3.58-8.61-3.6-11.34-.19z"/><path d="m576.65 236.4a14.33 14.33 0 0 1 17.43-3.22c3.94 2.33 5 7.25 5.07 11.49.06 8.12 0 16.25 0 24.37h-8.39q0-11.9 0-23.8c0-2.24-.58-4.9-2.79-5.94a8.62 8.62 0 0 0 -9.26 1.44c-.88.88-1.89 1.93-1.77 3.28q0 12.52 0 25-4.15 0-8.3 0 0-18.39 0-36.78 3.91.06 7.82 0c.1 1.42.15 2.76.19 4.16z"/><path d="m606.87 237.08a13.9 13.9 0 0 1 9.28-5.28c4.76-.67 10 0 13.89 3.07a11 11 0 0 1 4.12 8.55c-2.73 0-5.46-.07-8.19 0-.39-1.23-.59-2.6-1.54-3.54-2.31-2.46-6.4-2.57-9.21-1-2 1.12-2.78 4.24-1 5.93 1.54 1.33 3.63 1.71 5.55 2.24 4.09 1 8.48 1.82 11.74 4.67s3.65 7.94 1.7 11.61-6 5.51-9.94 6.1c-5 .74-10.56.13-14.69-3a12 12 0 0 1 -4.77-9h8c.41 1.53.8 3.23 2.12 4.27 2.56 2.09 6.28 2.11 9.31 1.2a4.1 4.1 0 0 0 2.57-5.58c-1.2-2.14-3.85-2.66-6-3.26-4.26-.94-8.82-1.94-12.1-5s-3.4-8.5-.84-11.98z"/><path d="m650.67 232.11c4.9-1.16 10.41-.59 14.59 2.37a17.43 17.43 0 0 1 6.92 11.92c.9 6.24 0 13.22-4.27 18.1-4.64 5.31-12.69 6.46-19.12 4.14-5.38-2-9.11-7.2-10.1-12.77s-.6-11.88 2.52-16.86a15.49 15.49 0 0 1 9.46-6.9zm2.27 6.34c-3.71 1.06-5.67 4.93-6.11 8.52-.58 4.42-.54 9.4 2.19 13.17s9.07 4.14 12.18.61c2.44-2.78 2.95-6.66 3-10.23 0-3.81-.81-8-3.84-10.63a8.3 8.3 0 0 0 -7.42-1.44z"/><path d="m691 232.28c2.1-1 4.47-.76 6.7-.47v8c-2.76-.34-5.81-.62-8.29.92-1.51 1-2.93 2.56-2.72 4.47v23.82c-2.78 0-5.56 0-8.34 0q0-18.39 0-36.78c2.65.05 5.3 0 8 0 0 1.3.09 2.59.14 3.89 1.27-1.49 2.61-3.13 4.51-3.85z"/><path d="m766.73 232.14c5.27-1.28 11.33-.54 15.58 3.05a17.63 17.63 0 0 1 6 11.12c.87 6.17.13 13-4 18-4.52 5.43-12.55 6.69-19 4.51-5.37-1.87-9.22-6.92-10.33-12.41-1.14-5.78-.75-12.15 2.39-17.27a15.44 15.44 0 0 1 9.36-7zm2.26 6.34c-3.64 1.1-5.56 4.91-6 8.46-.58 4.4-.55 9.34 2.12 13.11s9 4.25 12.19.75c2.37-2.62 2.92-6.32 3-9.72.11-3.86-.6-8.15-3.53-10.93-1.98-2.01-5.11-2.35-7.77-1.67z"/><path d="m637.46 294.75c5.9-4.21 15.25-3.24 19.49 2.88 3 4 3.4 9.14 3.24 13.93-8.75 0-17.5.06-26.26 0-.2 4.85 1.56 10 5.51 13 5.24 4.06 13.53 2.69 17.44-2.59q1.3 1 2.63 2c-5.23 7.78-17.45 8.64-24.13 2.33-4.19-3.85-5.81-9.76-5.56-15.3-.04-6.22 2.41-12.72 7.64-16.25zm1.21 3.6c-2.82 2.44-4.06 6.14-4.65 9.72h22.19c-.24-3.31-1-6.8-3.37-9.27-3.54-4.01-10.32-4.02-14.17-.46z"/><path d="m670.35 299a14.24 14.24 0 0 1 9.31-6.61c3.78-.57 8.15-.22 11 2.57s3.41 6.89 3.39 10.63v24.06c-1.35 0-2.71 0-4.05 0 0-8 0-16.06 0-24.09 0-2.75-.42-5.81-2.48-7.83-2.47-2.23-6.2-2.33-9.27-1.54-4.58 1.53-8.38 6.24-7.86 11.2v22.3c-1.35 0-2.71 0-4.05 0 0-12.26 0-24.52 0-36.78h3.94c.03 2.09.04 4.09.07 6.09z"/><path d="m746 294.26c5.77-3.57 14.33-2.57 18.49 3 3.16 4 3.66 9.34 3.51 14.27-8.75 0-17.51.06-26.26 0-.27 5.27 1.93 10.87 6.54 13.71a12.87 12.87 0 0 0 16.39-3.32l2.64 2c-5.47 8.15-18.57 8.67-25 1.46-4.45-4.78-5.27-11.76-4.43-18 .68-5.25 3.49-10.38 8.12-13.12zm.19 4.33c-2.66 2.44-3.81 6-4.38 9.47h22.19c-.23-3.74-1.29-7.73-4.32-10.17a10.38 10.38 0 0 0 -13.51.7z"/><path d="m790 232.31h8.16c1.92 8.29 3.94 16.55 5.84 24.85 2.66-8.25 5-16.61 7.57-24.89q3.12.07 6.24 0c2.6 8.35 5 16.77 7.62 25.11 2-8.34 3.86-16.72 5.82-25.07h8.12c-3.32 12.25-6.7 24.48-10 36.73h-6.89c-2.57-8.36-5.25-16.68-7.78-25.05-2.74 8.29-5.16 16.69-7.75 25-2.32 0-4.62 0-6.93 0-3.23-12.23-6.64-24.45-10.02-36.68z"/><path d="m576.26 292.91h4.87c3.41 4.92 6.63 10 10 14.93 3.18-5 6.58-9.9 9.8-14.89h5c-4.22 6-8.34 12.05-12.54 18 4.35 6.24 8.74 12.47 13 18.76a40.93 40.93 0 0 1 -4.89-.18c-3.56-5.07-7-10.24-10.38-15.41-3.46 5.1-6.8 10.3-10.37 15.32-1.5.52-3.29.1-4.88.27 4.17-6.35 8.62-12.51 12.93-18.77-4.21-5.94-8.28-12.07-12.54-18.03z"/></g><path d="m696.94 152.78c8.48-4.93 17-9.77 25.46-14.76 8.95 5.35 18.07 10.44 27 15.73v3c-3.09 1.84-6.21 3.62-9.35 5.37 3.1 1.87 6.25 3.68 9.37 5.52v3q-4.82 2.83-9.66 5.57c3.2 1.92 6.44 3.78 9.66 5.67v3.15c-9 5.32-18.11 10.46-27.14 15.75-9.21-5.75-19.07-10.51-28-16.66.1-.45.31-1.35.41-1.8 3.29-2.23 6.87-4 10.24-6.09-3.49-2.14-7.24-3.86-10.52-6.32.06-.45.19-1.37.25-1.83 3.13-2.24 6.63-3.9 9.93-5.86-3.23-2.07-6.72-3.72-9.86-5.92-1.26-1.83.92-2.66 2.21-3.52zm6.28 2.47c2.24 1.33 4.49 2.64 6.74 4 4.08-2.52 8.3-4.81 12.39-7.32 4.15 2.47 8.37 4.85 12.54 7.32 2.21-1.37 4.44-2.68 6.67-4q-9.65-5.52-19.23-11.12c-6.33 3.8-12.76 7.37-19.11 11.12zm12 7c2.37 1.35 4.74 2.72 7.06 4.16 2.44-1.38 4.86-2.78 7.26-4.23-2.39-1.38-4.78-2.74-7.14-4.17-2.4 1.39-4.8 2.79-7.18 4.23zm-12 6.83c2.31 1.42 4.66 2.81 7 4.23q3.39-2 6.77-4c-2.33-1.39-4.66-2.75-7-4.14-2.27 1.35-4.54 2.63-6.8 3.9zm24.6.27c2.19 1.28 4.38 2.56 6.53 3.93 2.46-1.31 4.88-2.71 7.26-4.16-2.25-1.29-4.5-2.57-6.71-3.91-2.39 1.37-4.76 2.79-7.11 4.13zm-12.05 7.11c2.2 1.24 4.39 2.5 6.54 3.83 2.25-1.27 4.5-2.56 6.74-3.85-2.23-1.35-4.48-2.67-6.73-4-2.21 1.37-4.41 2.68-6.58 4.01zm-12.39 7c6.21 3.92 12.73 7.31 19 11.18 6.35-3.74 12.77-7.37 19.13-11.1l-7.2-4.13c-3.92 2.42-8 4.66-11.92 7q-6-3.59-12-7c-2.39 1.39-4.7 2.71-7.04 4.01z" fill="#fff"/><path d="m13.54 64.71v-42.65h9.87a21.37 21.37 0 0 1 8 1.51 16.71 16.71 0 0 1 5.92 4 17.51 17.51 0 0 1 3.67 6.25 24.49 24.49 0 0 1 1.3 8v3.18a24.49 24.49 0 0 1 -1.3 8 17.51 17.51 0 0 1 -3.69 6.21 16.71 16.71 0 0 1 -5.92 4 21 21 0 0 1 -8 1.48zm5.51-38.2v33.78h4.37a14.2 14.2 0 0 0 6-1.22 11.66 11.66 0 0 0 4.17-3.24 13.64 13.64 0 0 0 2.41-4.83 22.38 22.38 0 0 0 .83-6v-3.23a21.83 21.83 0 0 0 -.85-6 13.83 13.83 0 0 0 -2.46-4.8 11.45 11.45 0 0 0 -4.16-3.21 14.67 14.67 0 0 0 -6-1.23z"/><path d="m51 33h16.2v27h10.3v4.69h-26.5v-4.69h10.74v-22.27h-10.74zm10-8.31a3.33 3.33 0 0 1 .81-2.27 3.68 3.68 0 0 1 4.88 0 3.3 3.3 0 0 1 .82 2.27 3.1 3.1 0 0 1 -.82 2.2 3.82 3.82 0 0 1 -4.88 0 3.13 3.13 0 0 1 -.81-2.2z"/><path d="m107.18 56.3a3.59 3.59 0 0 0 -1.67-3.16 10.18 10.18 0 0 0 -2.41-1.14 25.73 25.73 0 0 0 -3.72-1 37.51 37.51 0 0 1 -5-1.35 16.34 16.34 0 0 1 -3.84-1.89 8.26 8.26 0 0 1 -2.48-2.58 6.61 6.61 0 0 1 -.88-3.44 7.51 7.51 0 0 1 .91-3.62 9.21 9.21 0 0 1 2.55-2.94 12.82 12.82 0 0 1 3.91-2 16.2 16.2 0 0 1 5-.73 17 17 0 0 1 5.27.76 12.09 12.09 0 0 1 4 2.11 9.55 9.55 0 0 1 2.53 3.15 8.62 8.62 0 0 1 .89 3.88h-5.42a4.19 4.19 0 0 0 -.53-2 5.75 5.75 0 0 0 -1.46-1.74 7.53 7.53 0 0 0 -2.27-1.23 9 9 0 0 0 -3-.47 10.85 10.85 0 0 0 -3 .38 6.77 6.77 0 0 0 -2.17 1 4.37 4.37 0 0 0 -1.3 1.49 3.92 3.92 0 0 0 -.09 3.43 3.42 3.42 0 0 0 1.22 1.32 9.21 9.21 0 0 0 2.31 1.05 33.1 33.1 0 0 0 3.68.91 42.78 42.78 0 0 1 5.24 1.42 15.43 15.43 0 0 1 3.9 1.93 8.06 8.06 0 0 1 2.42 2.62 7 7 0 0 1 .83 3.46 7.83 7.83 0 0 1 -1 3.84 9 9 0 0 1 -2.65 3 12.88 12.88 0 0 1 -4.07 1.9 19 19 0 0 1 -5.19.67 17.67 17.67 0 0 1 -5.69-.9 13.72 13.72 0 0 1 -4.26-2.29 9.84 9.84 0 0 1 -2.67-3.3 8.72 8.72 0 0 1 -.92-3.9h5.42a5.61 5.61 0 0 0 .89 2.81 6.22 6.22 0 0 0 1.93 1.85 8.06 8.06 0 0 0 2.56 1 13.62 13.62 0 0 0 2.78.29 10.07 10.07 0 0 0 5.42-1.26 3.88 3.88 0 0 0 2.03-3.33z"/><path d="m134.95 25.34v7.66h12.05v4.2h-12.05v17.23a8.45 8.45 0 0 0 .47 3 4.81 4.81 0 0 0 1.29 1.92 4.72 4.72 0 0 0 1.89 1 8.55 8.55 0 0 0 2.27.29 16.72 16.72 0 0 0 1.82-.1q.94-.1 1.83-.25t1.67-.31l1.27-.28.76 3.84a7.59 7.59 0 0 1 -1.64.72 18.48 18.48 0 0 1 -2.11.53q-1.14.22-2.42.34t-2.53.12a12.58 12.58 0 0 1 -3.94-.6 8.16 8.16 0 0 1 -3.18-1.9 9 9 0 0 1 -2.12-3.37 14.23 14.23 0 0 1 -.78-5v-17.18h-8.32v-4.2h8.32v-7.66z"/><path d="m178.89 32.43q.76 0 1.58 0t1.57.15q.75.1 1.38.25a6.36 6.36 0 0 1 1 .32l-.73 5.3a28.91 28.91 0 0 0 -3-.51 26.41 26.41 0 0 0 -3-.16 10.18 10.18 0 0 0 -6.17 1.73 10 10 0 0 0 -3.47 4.83v20.37h-5.45v-31.71h5.16l.26 5a14.56 14.56 0 0 1 4.64-4.12 12.46 12.46 0 0 1 6.23-1.45z"/><path d="m195 33h16.2v27h10.34v4.69h-26.54v-4.69h10.78v-22.27h-10.78zm10.08-8.32a3.33 3.33 0 0 1 .81-2.27 3.68 3.68 0 0 1 4.88 0 3.3 3.3 0 0 1 .82 2.27 3.1 3.1 0 0 1 -.82 2.2 3.82 3.82 0 0 1 -4.88 0 3.13 3.13 0 0 1 -.83-2.19z"/><path d="m257 49.21a23.57 23.57 0 0 1 -.82 6.34 15.76 15.76 0 0 1 -2.4 5.11 11 11 0 0 1 -9.26 4.63 12 12 0 0 1 -5.29-1.08 10.75 10.75 0 0 1 -3.82-3.11l-.26 3.6h-5v-45h5.42v16.7a10.4 10.4 0 0 1 3.75-3 12 12 0 0 1 5.13-1 11.66 11.66 0 0 1 5.39 1.2 11.15 11.15 0 0 1 3.94 3.4 15.38 15.38 0 0 1 2.4 5.11 24.48 24.48 0 0 1 .82 6.49zm-5.42-.62a20.77 20.77 0 0 0 -.45-4.41 11.55 11.55 0 0 0 -1.45-3.69 7.45 7.45 0 0 0 -2.61-2.49 7.75 7.75 0 0 0 -4-.94 8.61 8.61 0 0 0 -2.58.37 7.34 7.34 0 0 0 -2.09 1 8.24 8.24 0 0 0 -1.6 1.57 9.72 9.72 0 0 0 -1.22 1.95v13.83a10.82 10.82 0 0 0 1.25 1.95 8.39 8.39 0 0 0 1.66 1.57 7.33 7.33 0 0 0 2.11 1 8.61 8.61 0 0 0 2.58.37 7.23 7.23 0 0 0 6.43-3.43 11.64 11.64 0 0 0 1.49-3.66 19.36 19.36 0 0 0 .48-4.39z"/><path d="m286.71 60.35a10.89 10.89 0 0 1 -9.43 5 12.51 12.51 0 0 1 -4.51-.78 8.65 8.65 0 0 1 -3.46-2.42 11.24 11.24 0 0 1 -2.21-4.17 20.91 20.91 0 0 1 -.78-6.08v-18.9h5.42v18.9a18.62 18.62 0 0 0 .41 4.28 6.77 6.77 0 0 0 1.23 2.71 4.39 4.39 0 0 0 2 1.42 8.37 8.37 0 0 0 2.74.41 9.54 9.54 0 0 0 5.35-1.35 8.18 8.18 0 0 0 3-3.63v-22.74h5.53v31.7h-5z"/><path d="m315 25.34v7.66h12v4.2h-12v17.23a8.47 8.47 0 0 0 .47 3 4.82 4.82 0 0 0 1.29 1.92 4.72 4.72 0 0 0 1.89 1 8.56 8.56 0 0 0 2.27.29 16.72 16.72 0 0 0 1.82-.1q.94-.1 1.83-.25t1.67-.31l1.27-.28.76 3.84a7.59 7.59 0 0 1 -1.64.72 18.48 18.48 0 0 1 -2.11.53q-1.14.22-2.42.34t-2.53.12a12.58 12.58 0 0 1 -3.94-.6 8.16 8.16 0 0 1 -3.18-1.9 9 9 0 0 1 -2.12-3.37 14.24 14.24 0 0 1 -.78-5v-17.18h-8.32v-4.2h8.32v-7.66z"/><path d="m352.16 65.3a16.08 16.08 0 0 1 -6.16-1.14 13.93 13.93 0 0 1 -4.77-3.16 14.6 14.6 0 0 1 -3.11-4.86 16.48 16.48 0 0 1 -1.12-6.14v-1.25a18.14 18.14 0 0 1 1.23-6.87 15.74 15.74 0 0 1 3.27-5.13 14.25 14.25 0 0 1 4.63-3.21 13.35 13.35 0 0 1 5.32-1.11 14.14 14.14 0 0 1 6 1.19 11.76 11.76 0 0 1 4.26 3.28 14 14 0 0 1 2.53 4.94 21.74 21.74 0 0 1 .83 6.15v2.43h-22.64a12.45 12.45 0 0 0 .83 4.07 10.58 10.58 0 0 0 2.05 3.33 9.47 9.47 0 0 0 3.12 2.24 9.64 9.64 0 0 0 4 .82 11 11 0 0 0 5.16-1.17 11.18 11.18 0 0 0 3.75-3.11l3.31 2.58a12.58 12.58 0 0 1 -2 2.3 13.65 13.65 0 0 1 -2.74 1.95 15.43 15.43 0 0 1 -3.52 1.36 16.92 16.92 0 0 1 -4.23.51zm-.7-28.42a8 8 0 0 0 -5.74 2.36 10 10 0 0 0 -2 2.84 13.49 13.49 0 0 0 -1.12 3.92h17.05v-.41a12.12 12.12 0 0 0 -.6-3.13 8.74 8.74 0 0 0 -1.51-2.78 7.55 7.55 0 0 0 -2.5-2 7.88 7.88 0 0 0 -3.59-.8z"/><path d="m373.13 48.6a22.56 22.56 0 0 1 .89-6.52 15.59 15.59 0 0 1 2.55-5.08 11.83 11.83 0 0 1 4-3.34 11.33 11.33 0 0 1 5.24-1.2 12 12 0 0 1 5 1 10.38 10.38 0 0 1 3.68 2.77v-16.52h5.42v45h-5l-.23-3.34a10.37 10.37 0 0 1 -3.78 2.93 12.32 12.32 0 0 1 -5.13 1 11 11 0 0 1 -5.2-1.23 11.92 11.92 0 0 1 -4-3.4 16.37 16.37 0 0 1 -2.57-5.11 21.41 21.41 0 0 1 -.91-6.34zm5.42.62a18.79 18.79 0 0 0 .5 4.39 11.47 11.47 0 0 0 1.54 3.66 7.74 7.74 0 0 0 2.65 2.5 7.66 7.66 0 0 0 3.87.92 9 9 0 0 0 2.49-.32 7.34 7.34 0 0 0 2-.92 7.53 7.53 0 0 0 1.63-1.45 9.91 9.91 0 0 0 1.23-1.86v-14.69a9.18 9.18 0 0 0 -2.84-3.18 7.6 7.6 0 0 0 -4.45-1.27 7.42 7.42 0 0 0 -6.58 3.47 11.63 11.63 0 0 0 -1.54 3.69 19 19 0 0 0 -.5 4.41z"/><path d="m42.23 189.13v65.59h-20.78v-163.52h53a70.47 70.47 0 0 1 20.83 3.48 52.39 52.39 0 0 1 17.24 9.43 44.41 44.41 0 0 1 11.74 15.27 48.13 48.13 0 0 1 4.32 20.89 47.76 47.76 0 0 1 -4.32 20.83 44.53 44.53 0 0 1 -11.74 15.22 52.32 52.32 0 0 1 -17.24 9.43 68 68 0 0 1 -20.83 3.37zm0-17.07h32.23a40.62 40.62 0 0 0 13.25-2.3 31.67 31.67 0 0 0 10.56-6.23 28.25 28.25 0 0 0 7-9.83 32.66 32.66 0 0 0 2.53-13.2 33.89 33.89 0 0 0 -2.53-13.36 29.39 29.39 0 0 0 -7-10.11 30.77 30.77 0 0 0 -10.56-6.4 40.22 40.22 0 0 0 -13.31-2.36h-32.17z"/><path d="m263.47 205.52a71.06 71.06 0 0 1 -5.84 20.83 53.73 53.73 0 0 1 -11.4 16.28 49.61 49.61 0 0 1 -16.62 10.56 58.22 58.22 0 0 1 -21.4 3.81 55.75 55.75 0 0 1 -18.36-2.86 50.53 50.53 0 0 1 -14.71-7.92 52.49 52.49 0 0 1 -11.14-11.95 72.19 72.19 0 0 1 -7.75-14.94 89.69 89.69 0 0 1 -4.6-17 114.78 114.78 0 0 1 -1.63-18v-22.8a114.8 114.8 0 0 1 1.63-18 89.73 89.73 0 0 1 4.6-17 73.63 73.63 0 0 1 7.75-15 52 52 0 0 1 11.12-12 50.69 50.69 0 0 1 14.66-7.92 55.61 55.61 0 0 1 18.43-2.61 60 60 0 0 1 21.9 3.76 48.08 48.08 0 0 1 16.62 10.67 52.74 52.74 0 0 1 11.17 16.56 74.47 74.47 0 0 1 5.56 21.34h-20.77a61.26 61.26 0 0 0 -3.48-13.81 38.1 38.1 0 0 0 -6.63-11.23 29.37 29.37 0 0 0 -10.16-7.58 33.88 33.88 0 0 0 -14.21-2.75 33.16 33.16 0 0 0 -13.08 2.41 30.16 30.16 0 0 0 -9.77 6.57 37.52 37.52 0 0 0 -6.85 9.66 63.23 63.23 0 0 0 -4.44 11.68 83.6 83.6 0 0 0 -2.41 12.63 111.25 111.25 0 0 0 -.73 12.52v23a111.22 111.22 0 0 0 .73 12.52 85.15 85.15 0 0 0 2.41 12.69 65.37 65.37 0 0 0 4.38 11.74 36.68 36.68 0 0 0 6.85 9.71 30.46 30.46 0 0 0 9.77 6.63 33 33 0 0 0 13.14 2.41 35.78 35.78 0 0 0 14.21-2.58 28.48 28.48 0 0 0 10.16-7.24 36 36 0 0 0 6.63-11 60.26 60.26 0 0 0 3.48-13.76z"/><path d="m373.64 212.37h-54.58l-13.14 42.34h-20.78l52.78-163.51h17.41l51.88 163.52h-20.66zm-49-18.08h43.46l-21.56-71z"/></g><path d="m447.1 53.22v223.99" fill="none" stroke="#000" stroke-miterlimit="10"/></svg>