<svg viewBox="0 0 400.31 364.98" xmlns="http://www.w3.org/2000/svg"><path d="m161.44 333.92 129.3-74.65a4.36 4.36 0 0 0 0-7.55l-122.94-71-137.56 79.45a4.36 4.36 0 0 0 0 7.55l114.69 66.21a16.51 16.51 0 0 0 16.51-.01z" fill="#431d93" opacity=".5"/><path d="m165.17 141c0-8.21 5.77-11.56 12.89-7.46l120.94 69.7a7.83 7.83 0 0 1 3.55 6.13c0 2.26-1.58 3.17-3.54 2l-120.95-69.62c-3.21-1.85-5.82-.34-5.81 3.36v13.52c-2.35-.15-4.7-.15-7.08-.11z" fill="#2bd978"/><path d="m299 235.74-120.89-44.07c-7.11-4.1-12.91-14.11-12.92-22.32v-10.82c2.38 0 4.73 0 7.08.11v14.8a12.87 12.87 0 0 0 5.82 10.07l120.91 44.05a7.83 7.83 0 0 1 3.55 6.13c.02 2.26-1.55 3.17-3.55 2.05z" fill="#4faa73"/><path d="m301.66 235.9-147.11 85.12-124.54-74.27-9.88-14.75 1.02 5.22 2.66-13.68 231.19 8.82 40.73-2.62z" fill="#4faa73"/><path d="m296.78 210.21.04 18.11-142.18 82.25-3.84-17.25z" fill="#4bea8b"/><path d="m21.96 217.72 146.87-84.97 132.42 77.01.27 1.89-147.08 85.09z" fill="#2bd978"/><path d="m68.78 261.36-34.53-20.49a13 13 0 0 1 -5.19-9.63v-2.71c0-2.19.92-3.61 2.33-4l68 37.82 55.36 29.94-.05 18.31z" fill="#fff"/><path d="m149.73 293.94 145.94-84.43 3.09-1.79 2.83-1.63a7.13 7.13 0 0 1 .94 3.29 2.5 2.5 0 0 1 -1 2.27l-147.09 85.09z" fill="#4faa73"/><path d="m156.39 319.96-1.84 1.06-.33-.58 1.14-.9z" fill="#fff"/><path d="m156.34 295.64-1.88 1.09.47-1.03z" fill="#fff"/><path d="m151.9 288.34-120.9-69.67c-7.11-4.1-12.9-.75-12.89 7.46v2.71c0 8.21 5.8 18.22 12.92 22.32l120.93 69.67c2 1.13 3.54.21 3.54-2a7.83 7.83 0 0 0 -3.55-6.13l-120.95-69.7a12.87 12.87 0 0 1 -5.82-10.07v-2.71c0-3.7 2.6-5.21 5.81-3.36l120.93 69.67c2 1.13 3.54.21 3.54-2a7.83 7.83 0 0 0 -3.56-6.19z" fill="#2bd978"/><path d="m155.49 318.79a7.83 7.83 0 0 0 -3.55-6.13l-120.94-69.66a12.87 12.87 0 0 1 -5.82-10.07v-2.71c0-2.42 1.12-3.9 2.79-4.12a4.87 4.87 0 0 0 -.85 3v2.71a12.87 12.87 0 0 0 5.88 10.05l120.93 69.67a7.83 7.83 0 0 1 3.55 6.13c0 1.71-.91 2.65-2.2 2.51a3.41 3.41 0 0 0 .21-1.38z" fill="#fff"/><path d="m155.44 294.47a7.83 7.83 0 0 0 -3.55-6.13l-120.89-69.67c-3.06-1.77-5.88-2.14-8.09-1.35 2.36-2 6-2.1 10 .23l120.93 69.67a7.83 7.83 0 0 1 3.55 6.13c0 1.71-.91 2.65-2.2 2.51a3.4 3.4 0 0 0 .25-1.39z" fill="#fff"/><path d="m17 92.89 130.5-75.33a5.27 5.27 0 0 1 4.42-.54l.24.09h.06l4.72 1.8-4.25 2.09c0 .08 0 .15.06.23l21.25 96.77c1.06 4.84-1.07 10.49-4.76 12.62l-127.33 73.48.45 5.4-5.15-2a7.24 7.24 0 0 1 -3.69-5.25l-21.25-96.73c-1.07-4.85 1.06-10.52 4.73-12.63z" fill="#431d93"/><path d="m17 92.89 130.5-75.33a5.27 5.27 0 0 1 4.42-.54l.24.09h.06l4.72 1.8-4.25 2.09c0 .08 0 .15.06.23l14 63.76-63.84 49.74-90-36.63a10.13 10.13 0 0 1 4.09-5.21z" fill="#396caa"/><path d="m21.95 107.76-9.95-4.23a12.44 12.44 0 0 1 4-9.95l15.72 6.61z" fill="#274f89"/><path d="m46.9 209 130.47-75.33c3.69-2.13 5.82-7.78 4.76-12.62l-21.26-96.75c-1.06-4.84-4.92-7-8.61-4.91l-130.47 75.33c-3.69 2.13-5.79 7.78-4.79 12.62l21.25 96.74c1.1 4.84 4.96 7.04 8.65 4.92z" fill="#d4ecff"/><path d="m20.54 94.26 130.46-75.33a5.16 5.16 0 0 1 5.14-.22 5.36 5.36 0 0 0 -3.88.68l-130.47 75.33c-3.69 2.13-5.79 7.78-4.79 12.62l21.25 96.74a7.35 7.35 0 0 0 3.47 5.13c-2.2-.48-4-2.48-4.72-5.59l-21.22-96.74c-1.06-4.88 1.07-10.49 4.76-12.62z" fill="#fff"/><path d="m49.72 201.79 122.71-70.79c3.38-1.95 5.33-7.12 4.35-11.55l-19.44-88.54c-1-4.43-4.5-6.44-7.88-4.49l-122.71 70.81c-3.38 1.95-5.33 7.12-4.35 11.55l19.45 88.52c.97 4.43 4.5 6.44 7.87 4.49z" fill="#fff"/><path d="m49.72 201.79 122.71-70.79c3.38-1.95 5.33-7.12 4.35-11.55l-19.44-88.54c-1-4.43-4.5-6.44-7.88-4.49l-122.71 70.81c-3.38 1.95-5.33 7.12-4.35 11.55l19.45 88.52c.97 4.43 4.5 6.44 7.87 4.49z" fill="#431d93"/><path d="m48.66 201.36 122.71-70.81c3.38-1.95 5.33-7.12 4.35-11.55l-19.45-88.53a6.79 6.79 0 0 0 -3.09-4.66c1.95.5 3.55 2.32 4.16 5.09l19.45 88.52c1 4.43-1 9.6-4.35 11.55l-122.72 70.82a4.72 4.72 0 0 1 -4.79.17 4.89 4.89 0 0 0 3.73-.6z" fill="#5793ce"/><path d="m45.1 212.27 17.83-2.35 115.13-66.47c3.69-2.13 10.14-1.86 14.4.6l81.54 47.07 10.78-1.42v6.12c.07 1.41-.73 2.77-2.48 3.78l-130.44 75.33c-3.69 2.13-10.14 1.86-14.4-.6l-88.84-51.28c-2.4-1.38-3.59-3.17-3.52-4.84z" fill="#431d93"/><path d="m131.6 170.27 8.18-4.72h89.92l44.3 25.57 10.78-1.42v6.12c.07 1.41-.73 2.77-2.48 3.78l-130.44 75.33a13.5 13.5 0 0 1 -7.43 1.39z" fill="#396caa"/><path d="m280 190.33 4.79-.63v6.12c.07 1.41-.73 2.77-2.48 3.78l-2.3 1.33z" fill="#5793ce"/><path d="m150.55 275.54a16.71 16.71 0 0 1 -12.23-.76v-13.65h12.23z" fill="#274f89"/><path d="m151.86 268.82 130.47-75.33c3.69-2.13 3.23-5.85-1-8.31l-88.87-51.28c-4.26-2.46-10.71-2.73-14.4-.6l-130.48 75.33c-3.69 2.13-3.23 5.85 1 8.31l88.84 51.28c4.3 2.46 10.75 2.73 14.44.6z" fill="#d4ecff"/><path d="m48.62 214.71 88.84 51.29c4.26 2.46 10.71 2.73 14.4.6l130.47-75.33a4.85 4.85 0 0 0 2.29-2.51c.58 1.75-.16 3.51-2.29 4.75l-130.47 75.31c-3.69 2.13-10.14 1.86-14.4-.6l-88.84-51.28c-2.86-1.65-4-3.88-3.33-5.8a6.94 6.94 0 0 0 3.33 3.57z" fill="#fff"/><g fill="#5793ce"><path d="m226.84 168.55 5.9-3.41c.47-.27.41-.75-.13-1.07l-7-4a2.06 2.06 0 0 0 -1.85-.08l-5.9 3.41c-.47.27-.41.75.13 1.07l7 4a2.06 2.06 0 0 0 1.85.08z"/><path d="m217.72 173.81 5.9-3.41c.47-.27.41-.75-.13-1.07l-7-4a2.06 2.06 0 0 0 -1.85-.08l-5.9 3.41c-.47.27-.41.75.13 1.07l7 4a2.06 2.06 0 0 0 1.85.08z"/><path d="m208.61 179.08 5.9-3.41c.47-.27.41-.75-.13-1.07l-7-4a2.06 2.06 0 0 0 -1.85-.08l-5.9 3.41c-.47.27-.41.75.13 1.07l7 4a2.06 2.06 0 0 0 1.85.08z"/><path d="m196 174.73 5.9-3.41c.47-.27.41-.75-.13-1.07l-5.85-3.38a2.06 2.06 0 0 0 -1.85-.08l-5.9 3.41c-.47.27-.41.75.13 1.07l5.85 3.38a2.06 2.06 0 0 0 1.85.08z"/><path d="m186.88 180 5.9-3.41c.47-.27.41-.75-.13-1.07l-5.85-3.38a2.06 2.06 0 0 0 -1.85-.08l-5.9 3.41c-.47.27-.41.75.13 1.07l5.85 3.38a2.06 2.06 0 0 0 1.85.08z"/><path d="m177.77 185.26 5.9-3.41c.47-.27.41-.75-.13-1.07l-5.85-3.38a2.06 2.06 0 0 0 -1.85-.08l-5.9 3.41c-.47.27-.41.75.13 1.07l5.85 3.38a2.06 2.06 0 0 0 1.85.08z"/><path d="m168.65 190.52 5.9-3.41c.47-.27.41-.75-.13-1.07l-5.85-3.38a2.06 2.06 0 0 0 -1.85-.08l-5.9 3.41c-.47.27-.41.75.13 1.07l5.85 3.38a2.06 2.06 0 0 0 1.85.08z"/><path d="m159.53 195.78 5.9-3.41c.47-.27.41-.75-.13-1.07l-5.85-3.38a2.06 2.06 0 0 0 -1.85-.08l-5.9 3.41c-.47.27-.41.75.13 1.07l5.85 3.38a2.06 2.06 0 0 0 1.85.08z"/><path d="m150.42 201 5.9-3.41c.47-.27.41-.75-.13-1.07l-5.85-3.38a2.06 2.06 0 0 0 -1.85-.08l-5.9 3.41c-.47.27-.41.75.13 1.07l5.85 3.38a2.06 2.06 0 0 0 1.85.08z"/><path d="m141.3 206.31 5.9-3.41c.47-.27.41-.75-.13-1.07l-5.85-3.38a2.06 2.06 0 0 0 -1.85-.08l-5.9 3.41c-.47.27-.41.75.13 1.07l5.85 3.38a2.06 2.06 0 0 0 1.85.08z"/><path d="m132.18 211.57 5.9-3.41c.47-.27.41-.75-.13-1.07l-5.85-3.38a2.06 2.06 0 0 0 -1.85-.08l-5.9 3.41c-.47.27-.41.75.13 1.07l5.85 3.38a2.06 2.06 0 0 0 1.85.08z"/><path d="m123.07 216.84 5.9-3.41c.47-.27.41-.75-.13-1.07l-5.84-3.36a2.06 2.06 0 0 0 -1.85-.08l-5.9 3.41c-.47.27-.41.75.13 1.07l5.85 3.38a2.06 2.06 0 0 0 1.84.06z"/><path d="m113.95 222.1 5.9-3.41c.47-.27.41-.75-.13-1.07l-5.85-3.38a2.06 2.06 0 0 0 -1.85-.08l-5.9 3.41c-.47.27-.41.75.13 1.07l5.85 3.36a2.06 2.06 0 0 0 1.85.1z"/><path d="m182.57 172.24 5.9-3.41c.47-.27.41-.75-.13-1.07l-5.85-3.38a2.06 2.06 0 0 0 -1.85-.08l-5.9 3.41c-.47.27-.41.75.13 1.07l5.85 3.38a2.06 2.06 0 0 0 1.85.08z"/><path d="m191.82 166.9 5.9-3.41c.47-.27.41-.75-.13-1.07l-5.85-3.42a2.06 2.06 0 0 0 -1.85-.08l-5.9 3.41c-.47.27-.41.75.13 1.07l5.85 3.38a2.06 2.06 0 0 0 1.85.12z"/><path d="m201.09 161.54 12.71-7.34c.47-.27.41-.75-.13-1.07l-5.85-3.38a2.06 2.06 0 0 0 -1.85-.08l-12.72 7.33c-.47.27-.41.75.13 1.07l5.85 3.38a2.06 2.06 0 0 0 1.86.09z"/><path d="m194.61 155 10.32-6c.47-.27.41-.75-.13-1.07l-5.85-3.38a2.06 2.06 0 0 0 -1.85-.08l-10.32 6c-.47.27-.41.75.13 1.07l5.85 3.38a2.06 2.06 0 0 0 1.85.08z"/><path d="m173.45 177.5 5.9-3.41c.47-.27.41-.75-.13-1.07l-5.85-3.38a2.06 2.06 0 0 0 -1.85-.08l-5.9 3.41c-.47.27-.41.75.13 1.07l5.85 3.38a2.06 2.06 0 0 0 1.85.08z"/><path d="m164.33 182.76 5.9-3.41c.47-.27.41-.75-.13-1.07l-5.85-3.38a2.06 2.06 0 0 0 -1.85-.08l-5.9 3.41c-.47.27-.41.75.13 1.07l5.85 3.38a2.06 2.06 0 0 0 1.85.08z"/><path d="m155.22 188 5.9-3.41c.47-.27.41-.75-.13-1.07l-5.85-3.38a2.06 2.06 0 0 0 -1.85-.08l-5.9 3.41c-.47.27-.41.75.13 1.07l5.85 3.38a2.06 2.06 0 0 0 1.85.08z"/><path d="m146.1 193.29 5.9-3.41c.47-.27.41-.75-.13-1.07l-5.87-3.37a2.06 2.06 0 0 0 -1.85-.08l-5.9 3.41c-.47.27-.41.75.13 1.07l5.85 3.38a2.06 2.06 0 0 0 1.87.07z"/><path d="m137 198.55 5.9-3.41c.47-.27.41-.75-.13-1.07l-5.85-3.38a2.06 2.06 0 0 0 -1.85-.08l-5.9 3.41c-.47.27-.41.75.13 1.07l5.85 3.38a2.06 2.06 0 0 0 1.85.08z"/><path d="m127.87 203.82 5.9-3.41c.47-.27.41-.75-.13-1.07l-5.85-3.34a2.06 2.06 0 0 0 -1.85-.08l-5.94 3.38c-.47.27-.41.75.13 1.07l5.85 3.38a2.06 2.06 0 0 0 1.89.07z"/><path d="m118.75 209.08 5.9-3.41c.47-.27.41-.75-.13-1.07l-5.85-3.38a2.06 2.06 0 0 0 -1.85-.08l-5.9 3.41c-.47.27-.41.75.13 1.07l5.85 3.38a2.06 2.06 0 0 0 1.85.08z"/><path d="m109.63 214.34 5.9-3.41c.47-.27.41-.75-.13-1.07l-5.85-3.38a2.06 2.06 0 0 0 -1.85-.08l-5.9 3.41c-.47.27-.41.75.13 1.07l5.85 3.38a2.06 2.06 0 0 0 1.85.08z"/><path d="m100.52 219.61 5.9-3.41c.47-.27.41-.75-.13-1.07l-5.85-3.38a2.06 2.06 0 0 0 -1.85-.08l-5.9 3.41c-.47.27-.41.75.13 1.07l5.85 3.38a2.06 2.06 0 0 0 1.85.08z"/><path d="m84.31 229 12.88-7.44c.47-.27.41-.75-.13-1.07l-5.85-3.38a2.06 2.06 0 0 0 -1.85-.08l-12.88 7.44c-.47.27-.41.75.13 1.07l5.85 3.38a2.06 2.06 0 0 0 1.85.08z"/><path d="m66.56 218.72 10.87-6.28c.47-.27.41-.75-.13-1.07l-5.85-3.37a2.06 2.06 0 0 0 -1.85-.08l-10.87 6.28c-.47.27-.41.75.13 1.07l5.85 3.38a2.06 2.06 0 0 0 1.85.07z"/><path d="m157.48 176.47 5.9-3.41c.47-.27.41-.75-.13-1.07l-5.85-3.38a2.06 2.06 0 0 0 -1.85-.08l-5.9 3.41c-.47.27-.41.75.13 1.07l5.85 3.38a2.06 2.06 0 0 0 1.85.08z"/><path d="m166.83 171.08 5.9-3.41c.47-.27.41-.75-.13-1.07l-5.85-3.38a2.06 2.06 0 0 0 -1.85-.08l-5.9 3.41c-.47.27-.41.75.13 1.07l5.87 3.38a2.06 2.06 0 0 0 1.83.08z"/><path d="m176.17 165.68 5.9-3.41c.47-.27.41-.75-.13-1.07l-5.85-3.38a2.06 2.06 0 0 0 -1.85-.08l-5.9 3.41c-.47.27-.41.75.13 1.07l5.85 3.38a2.06 2.06 0 0 0 1.85.08z"/><path d="m185.51 160.29 5.9-3.41c.47-.27.41-.75-.13-1.07l-5.85-3.38a2.06 2.06 0 0 0 -1.85-.08l-5.9 3.41c-.47.27-.41.75.13 1.07l5.85 3.38a2.06 2.06 0 0 0 1.85.08z"/><path d="m148.37 181.73 5.9-3.41c.47-.27.41-.75-.13-1.07l-5.85-3.38a2.06 2.06 0 0 0 -1.85-.08l-5.9 3.41c-.47.27-.41.75.13 1.07l5.85 3.38a2.06 2.06 0 0 0 1.85.08z"/><path d="m139.25 187 5.9-3.41c.47-.27.41-.75-.13-1.07l-5.85-3.38a2.06 2.06 0 0 0 -1.85-.08l-5.9 3.41c-.47.27-.41.75.13 1.07l5.85 3.38a2.06 2.06 0 0 0 1.85.08z"/><path d="m130.13 192.26 5.9-3.41c.47-.27.41-.75-.13-1.07l-5.85-3.38a2.06 2.06 0 0 0 -1.85-.08l-5.9 3.41c-.47.27-.41.75.13 1.07l5.85 3.38a2.06 2.06 0 0 0 1.85.08z"/><path d="m121 197.52 5.9-3.41c.47-.27.41-.75-.13-1.07l-5.85-3.38a2.06 2.06 0 0 0 -1.85-.08l-5.9 3.41c-.47.27-.41.75.13 1.07l5.85 3.38a2.06 2.06 0 0 0 1.85.08z"/><path d="m111.9 202.79 5.9-3.41c.47-.27.41-.75-.13-1.07l-5.85-3.38a2.06 2.06 0 0 0 -1.85-.08l-5.9 3.41c-.47.27-.41.75.13 1.07l5.85 3.38a2.06 2.06 0 0 0 1.85.08z"/><path d="m102.79 208.05 5.9-3.41c.47-.27.41-.75-.13-1.07l-5.85-3.38a2.06 2.06 0 0 0 -1.85-.08l-5.86 3.42c-.47.27-.41.75.13 1.07l5.85 3.38a2.06 2.06 0 0 0 1.81.07z"/><path d="m93.67 213.31 5.9-3.41c.47-.27.41-.75-.13-1.07l-5.85-3.38a2.06 2.06 0 0 0 -1.85-.08l-5.9 3.41c-.47.27-.41.75.13 1.07l5.85 3.38a2.06 2.06 0 0 0 1.85.08z"/><path d="m84.55 218.58 5.9-3.41c.47-.27.41-.75-.13-1.07l-5.85-3.38a2.06 2.06 0 0 0 -1.85-.08l-5.9 3.41c-.47.27-.41.75.13 1.07l5.85 3.38a2.06 2.06 0 0 0 1.85.08z"/><path d="m75.44 223.84 5.9-3.41c.47-.27.41-.75-.13-1.07l-5.85-3.36a2.06 2.06 0 0 0 -1.85-.08l-5.9 3.41c-.47.27-.41.75.13 1.07l5.85 3.38a2.06 2.06 0 0 0 1.85.06z"/><path d="m162.28 163.45 5.9-3.41c.47-.27.41-.75-.13-1.07l-5.85-3.38a2.06 2.06 0 0 0 -1.85-.08l-5.9 3.41c-.47.27-.41.75.13 1.07l5.85 3.38a2.06 2.06 0 0 0 1.85.08z"/><path d="m171.36 158.21 5.9-3.41c.47-.27.41-.75-.13-1.07l-5.85-3.38a2.06 2.06 0 0 0 -1.85-.08l-5.9 3.41c-.47.27-.41.75.13 1.07l5.85 3.38a2.06 2.06 0 0 0 1.85.08z"/><path d="m180.43 153 5.9-3.41c.47-.27.41-.75-.13-1.07l-5.85-3.38a2.06 2.06 0 0 0 -1.85-.08l-5.9 3.41c-.47.27-.41.75.13 1.07l5.85 3.38a2.06 2.06 0 0 0 1.85.08z"/><path d="m189.5 147.74 5.9-3.41c.47-.27.41-.75-.13-1.07l-5.85-3.38a2.06 2.06 0 0 0 -1.85-.08l-5.9 3.41c-.47.27-.41.75.13 1.07l5.85 3.38a2.06 2.06 0 0 0 1.85.08z"/><path d="m180.17 142.35 5.9-3.41c.47-.27.41-.75-.13-1.07l-1.94-1.11a2.06 2.06 0 0 0 -1.85-.08l-5.9 3.41c-.47.27-.41.75.13 1.07l1.93 1.12a2.06 2.06 0 0 0 1.86.07z"/><path d="m168.33 149.19 5.9-3.41c.47-.27.41-.75-.13-1.07l-1.93-1.12a2.06 2.06 0 0 0 -1.85-.08l-5.9 3.41c-.47.27-.41.75.13 1.07l1.93 1.12a2.06 2.06 0 0 0 1.85.08z"/><path d="m159.3 154.4 5.9-3.41c.47-.27.41-.75-.13-1.07l-1.93-1.12a2.06 2.06 0 0 0 -1.85-.08l-5.9 3.41c-.47.27-.41.75.13 1.07l1.93 1.12a2.06 2.06 0 0 0 1.85.08z"/><path d="m150.27 159.62 5.9-3.41c.47-.27.41-.75-.13-1.07l-1.94-1.14a2.06 2.06 0 0 0 -1.85-.08l-5.9 3.41c-.47.27-.41.75.13 1.07l1.93 1.12a2.06 2.06 0 0 0 1.86.1z"/><path d="m141.23 164.84 5.9-3.41c.47-.27.41-.75-.13-1.07l-1.93-1.12a2.06 2.06 0 0 0 -1.85-.08l-5.9 3.41c-.47.27-.41.75.13 1.07l1.93 1.12a2.06 2.06 0 0 0 1.85.08z"/><path d="m90.8 194 5.9-3.41c.47-.27.41-.75-.13-1.07l-1.93-1.12a2.06 2.06 0 0 0 -1.85-.08l-5.9 3.41c-.47.27-.41.75.13 1.07l1.98 1.08a2.06 2.06 0 0 0 1.8.12z"/><path d="m81.77 199.17 5.9-3.41c.47-.27.41-.75-.13-1.07l-1.93-1.12a2.06 2.06 0 0 0 -1.85-.08l-5.9 3.41c-.47.27-.41.75.13 1.07l1.93 1.12a2.06 2.06 0 0 0 1.85.08z"/><path d="m72.73 204.38 5.9-3.41c.47-.27.41-.75-.13-1.07l-1.93-1.12a2.06 2.06 0 0 0 -1.85-.08l-5.9 3.41c-.47.27-.41.75.13 1.07l1.93 1.12a2.06 2.06 0 0 0 1.85.08z"/><path d="m63.7 209.6 5.9-3.41c.47-.27.41-.75-.13-1.07l-1.93-1.12a2.06 2.06 0 0 0 -1.85-.08l-5.9 3.41c-.47.27-.41.75.13 1.07l1.93 1.12a2.06 2.06 0 0 0 1.85.08z"/><path d="m153.17 168.72 5.9-3.41c.47-.27.41-.75-.13-1.07l-5.85-3.38a2.06 2.06 0 0 0 -1.85-.08l-5.9 3.41c-.47.27-.41.75.13 1.07l5.85 3.38a2.06 2.06 0 0 0 1.85.08z"/><path d="m144.05 174 5.9-3.41c.47-.27.41-.75-.13-1.07l-5.82-3.39a2.06 2.06 0 0 0 -1.85-.08l-5.9 3.41c-.47.27-.41.75.13 1.07l5.85 3.38a2.06 2.06 0 0 0 1.82.09z"/><path d="m134.94 179.24 5.9-3.41c.47-.27.41-.75-.13-1.07l-5.85-3.38a2.06 2.06 0 0 0 -1.85-.08l-5.9 3.41c-.47.27-.41.75.13 1.07l5.85 3.38a2.06 2.06 0 0 0 1.85.08z"/><path d="m125.82 184.51 5.9-3.41c.47-.27.41-.75-.13-1.07l-5.85-3.38a2.06 2.06 0 0 0 -1.85-.08l-5.89 3.43c-.47.27-.41.75.13 1.07l5.85 3.38a2.06 2.06 0 0 0 1.84.06z"/><path d="m116.7 189.77 5.9-3.41c.47-.27.41-.75-.13-1.07l-5.85-3.38a2.06 2.06 0 0 0 -1.85-.08l-5.9 3.41c-.47.27-.41.75.13 1.07l5.85 3.38a2.06 2.06 0 0 0 1.85.08z"/><path d="m107.59 195 5.9-3.41c.47-.27.41-.75-.13-1.07l-5.85-3.38a2.06 2.06 0 0 0 -1.85-.08l-5.9 3.41c-.47.27-.41.75.13 1.07l5.85 3.38a2.06 2.06 0 0 0 1.85.08z"/><path d="m98.47 200.3 5.9-3.41c.47-.27.41-.75-.13-1.07l-5.85-3.38a2.06 2.06 0 0 0 -1.85-.08l-5.9 3.41c-.47.27-.41.75.13 1.07l5.85 3.38a2.06 2.06 0 0 0 1.85.08z"/><path d="m89.35 205.56 5.9-3.41c.47-.27.41-.75-.13-1.07l-5.85-3.38a2.06 2.06 0 0 0 -1.85-.08l-5.9 3.38c-.47.27-.41.75.13 1.07l5.85 3.38a2.06 2.06 0 0 0 1.85.11z"/><path d="m80.24 210.82 5.9-3.41c.47-.27.41-.75-.13-1.07l-5.85-3.34a2.06 2.06 0 0 0 -1.85-.08l-5.9 3.41c-.47.27-.41.75.13 1.07l5.85 3.38a2.06 2.06 0 0 0 1.85.04z"/><path d="m205.29 169.37 17.39-10c.47-.27.41-.75-.13-1.07l-5.85-3.38a2.06 2.06 0 0 0 -1.85-.08l-17.39 10c-.47.27-.41.75.13 1.07l5.85 3.38a2.06 2.06 0 0 0 1.85.08z"/><path d="m93.29 234 17.39-10c.47-.27.41-.75-.13-1.07l-5.85-3.38a2.06 2.06 0 0 0 -1.85-.08l-17.39 10c-.47.27-.41.75.13 1.07l5.85 3.46a2.06 2.06 0 0 0 1.85 0z"/><path d="m129.75 224.61 5.9-3.41c.47-.27.41-.75-.13-1.07l-7-4a2.06 2.06 0 0 0 -1.85-.08l-5.9 3.41c-.47.27-.41.75.13 1.07l7 4a2.06 2.06 0 0 0 1.85.08z"/><path d="m196 186.38 9.44-5.45c.47-.27.41-.75-.13-1.07l-7-4a2.06 2.06 0 0 0 -1.85-.08l-9.46 5.43c-.47.27-.41.75.13 1.07l7 4a2.06 2.06 0 0 0 1.87.1z"/><path d="m138.53 219.53 9.44-5.45c.47-.27.41-.75-.13-1.07l-7-4a2.06 2.06 0 0 0 -1.85-.08l-9.44 5.45c-.47.27-.41.75.13 1.07l7 4a2.06 2.06 0 0 0 1.85.08z"/><path d="m182.8 194 9.44-5.45c.47-.27.41-.75-.13-1.07l-7-4a2.06 2.06 0 0 0 -1.85-.08l-9.44 5.45c-.47.27-.41.75.13 1.07l7 4a2.06 2.06 0 0 0 1.85.08z"/><path d="m183.23 183.39-41 23.7a.56.56 0 0 0 0 1.06l7.11 4.1a2 2 0 0 0 1.84 0l41-23.7z"/><path d="m104.27 234.15-6.58 3.8c-.39.22-.34.62.11.88l2.85 1.65a1.68 1.68 0 0 0 1.52.06l6.58-3.8c.39-.22.34-.62-.11-.88l-2.85-1.65a1.68 1.68 0 0 0 -1.52-.06z"/><path d="m113.46 228.84-6.58 3.8c-.39.22-.34.62.11.88l2.85 1.65a1.68 1.68 0 0 0 1.52.06l6.58-3.8c.39-.22.34-.62-.11-.88l-2.83-1.65a1.68 1.68 0 0 0 -1.54-.06z"/><path d="m122.58 223.58-6.58 3.8c-.39.22-.34.62.11.88l2.89 1.64a1.68 1.68 0 0 0 1.52.06l6.58-3.8c.39-.22.34-.62-.11-.88l-2.85-1.65a1.68 1.68 0 0 0 -1.56-.05z"/><path d="m108.43 225.93-6.58 3.8c-.39.22-.34.62.11.88l2.85 1.65a1.68 1.68 0 0 0 1.52.06l6.58-3.8c.39-.22.34-.62-.11-.88l-2.86-1.64a1.68 1.68 0 0 0 -1.51-.07z"/></g><path d="m72.42 123.23 49.1-28.35-.63-3.19-49.11 28.35z" fill="#d4ecff"/><path d="m90 128.62 34.28-19.79-.63-3.19-34.28 19.79z" fill="#d4ecff"/><path d="m93.25 118.97 29.65-17.12-.63-3.19-29.66 17.12z" fill="#fff"/><path d="m73.8 130.21 14.82-8.57-.63-3.19-14.83 8.56z" fill="#2bd978"/><path d="m126.75 67.03 14.83-8.56-.63-3.2-14.83 8.57z" fill="#d4ecff"/><path d="m128.36 74.45 14.83-8.56-.63-3.2-14.83 8.56z" fill="#fff"/><path d="m55.59 177.35 14.82-8.56-.63-3.19-14.83 8.56z" fill="#d4ecff"/><path d="m131.58 89.28 14.83-8.56-.64-3.19-14.82 8.56z" fill="#d4ecff"/><path d="m99.54 91.58a1.85 1.85 0 0 0 2.67.82 2.32 2.32 0 0 0 1-2.91 1.85 1.85 0 0 0 -2.67-.82 2.32 2.32 0 0 0 -1 2.91z" fill="#2bd978"/><path d="m93.15 95.27a1.85 1.85 0 0 0 2.67.82 2.32 2.32 0 0 0 1-2.91 1.85 1.85 0 0 0 -2.67-.82 2.32 2.32 0 0 0 -1 2.91z" fill="#fff"/><path d="m86.77 99a1.85 1.85 0 0 0 2.67.82 2.32 2.32 0 0 0 1-2.91 1.85 1.85 0 0 0 -2.72-.91 2.32 2.32 0 0 0 -.95 3z" fill="#d4ecff"/><path d="m80.38 102.64a1.85 1.85 0 0 0 2.67.82 2.32 2.32 0 0 0 1-2.91 1.85 1.85 0 0 0 -2.67-.82 2.32 2.32 0 0 0 -1 2.91z" fill="#2bd978"/><path d="m15.9 306.41a8 8 0 0 1 7.19 0l92.74 53.59c2 1.15 2 3 0 4.15a8 8 0 0 1 -7.19 0l-92.74-53.59c-1.98-1.15-1.98-3.01 0-4.15z" fill="#431d93" opacity=".5"/><path d="m.06 277.39a.41.41 0 0 1 .44-.19l5.61 1.22-2.21 3.76-3.8-4.31a.41.41 0 0 1 -.04-.48z" fill="#d4ecff"/><path d="m2.27 280.17a2.8 2.8 0 0 1 1.28-2.17.92.92 0 0 1 .84-.1 35.83 35.83 0 0 1 18.45 4.94l.4.24-7 11.85-2.06-1.36a35.83 35.83 0 0 1 -10.71-11.18l-.88-1.39a.92.92 0 0 1 -.32-.83z" fill="#5793ce"/><path d="m14.88 291.75a10.75 10.75 0 0 1 4.93-8.38c2.7-1.53 4.86-.26 4.84 2.84a10.75 10.75 0 0 1 -4.93 8.38c-2.72 1.53-4.86.26-4.84-2.84z" fill="#d4ecff"/><path d="m57.63 320.67-41.35-25.77 6.97-11.85 42.62 23.61z" fill="#d4ecff"/><path d="m56 316.94a12.7 12.7 0 0 1 5.8-9.94c3.19-1.81 5.75-.3 5.72 3.36a12.7 12.7 0 0 1 -5.82 9.9c-3.19 1.84-5.7.34-5.7-3.32z" fill="#d4ecff"/><path d="m58.34 318.32a12.7 12.7 0 0 1 5.82-9.9c3.19-1.81 5.75-.3 5.72 3.36a12.7 12.7 0 0 1 -5.82 9.9c-3.19 1.81-5.75.32-5.72-3.36z" fill="#d4ecff"/><path d="m83.34 299.4h16.25v63.46h-16.25z" fill="#d4ecff" transform="matrix(.50678626 -.86207174 .86207174 .50678626 -240.35 242.19)"/><path d="m113.05 350.48a12.7 12.7 0 0 1 5.82-9.9c3.19-1.81 5.75-.3 5.72 3.36a12.7 12.7 0 0 1 -5.82 9.9c-3.19 1.81-5.77.31-5.72-3.36z" fill="#d4ecff"/><path d="m115.12 349.31a8.39 8.39 0 0 1 3.93-6c2-1.16 3.6-.35 3.48 1.81a8.39 8.39 0 0 1 -3.93 6c-2.05 1.17-3.6.35-3.48-1.81z" fill="#396caa"/><path d="m55.56 316.69a12.7 12.7 0 0 1 5.82-9.9 4.49 4.49 0 0 1 3.41-.64c-1-1.08-2.73-1.21-4.66-.11a12.7 12.7 0 0 0 -5.82 9.9c0 2.19.89 3.6 2.3 4a4.54 4.54 0 0 1 -1.05-3.25z" fill="#fff"/><path d="m55.56 316.69a12.7 12.7 0 0 1 5.82-9.9c1.59-.9 3-1 4.07-.37l3.1 1.82-1.48 2.51a13 13 0 0 1 -5.28 9l-1.48 2.51-3.1-1.82c-1.03-.62-1.66-1.92-1.65-3.75z" fill="#5793ce"/><path d="m58.66 318.51a12.7 12.7 0 0 1 5.82-9.9c3.19-1.81 5.75-.3 5.72 3.36a12.7 12.7 0 0 1 -5.82 9.9c-3.18 1.81-5.74.31-5.72-3.36z" fill="#d4ecff"/><path d="m117.69 350.94 3.55-6 11.6 6.82a3.5 3.5 0 0 1 1.25 4.8 3.5 3.5 0 0 1 -4.8 1.25z" fill="#2bd978"/><path d="m117 349.33a5.48 5.48 0 0 1 2.51-4.27c1.38-.78 2.48-.13 2.47 1.45a5.48 5.48 0 0 1 -2.51 4.27c-1.4.78-2.47.13-2.47-1.45z" fill="#2bd978"/><path d="m104.09 328 1.74-1a3.7 3.7 0 0 1 3.72.4l6 3.5a4.54 4.54 0 0 1 2 3.57v3a2.45 2.45 0 0 0 .6 1.5l-.22 1.38 1.49-.85a.76.76 0 0 0 .35-.73v-3a9.46 9.46 0 0 0 -4.22-7.43l-6-3.5c-2-1.17-3.87-1.37-5.29-.57l-1.74 1a3.7 3.7 0 0 1 -3.72-.4l-24-14.12a.77.77 0 0 0 -.79-.08l-1.48.85 1.27.49a2.45 2.45 0 0 0 1 1.31l24 14.12c1.99 1.16 3.87 1.36 5.29.56z" fill="#5793ce"/><path d="m104.32 327.87a3.7 3.7 0 0 1 3.72.4l6 3.5a4.54 4.54 0 0 1 2 3.57v3a2.46 2.46 0 0 0 1.1 1.93c.61.36 1.11.08 1.12-.63v-3a9.46 9.46 0 0 0 -4.26-7.44l-6-3.5c-2-1.17-3.87-1.37-5.29-.57l-1.74 1a3.7 3.7 0 0 1 -3.72-.4l-24-14.12c-.61-.36-1.11-.08-1.12.63a2.46 2.46 0 0 0 1.1 1.93l24 14.12c2 1.17 3.87 1.37 5.29.57z" fill="#5793ce"/><path d="m116.1 335.83v3s0 0 0 .06a1.92 1.92 0 0 1 -.08-.55v-3c0-.08 0-.17 0-.26a3.37 3.37 0 0 1 .08.75z" fill="#fff"/><path d="m336.24 297.38a11.67 11.67 0 0 1 -1.45 3.06c7.61 6.41 6.5 15.24-3.37 20.94-11.14 6.43-29.19 6.43-40.33 0-8.21-4.74-10.36-11.65-6.47-17.53a16.5 16.5 0 0 1 -2.78-3c-7.1 6.89-6.31 15.74 2.36 22.2l-9.2 5.41c-3.48-1.24-7.79-1.15-10.44.38l-33.59 19.39c-3.18 1.83-2.78 5 .89 7.16s9.22 2.35 12.4.51l33.59-19.39c2.41-1.39 2.76-3.57 1.19-5.47l9.32-5.46c13.45 7.06 34.25 6.86 47.24-.64 13.1-7.59 13.33-19.81.64-27.56z" fill="#431d93" opacity=".5"/><path d="m332.53 279.88c-12.14-7-31.82-7-44 0-5 2.91-8 6.56-8.83 10.34.76 3.34 3.14 6.57 7.14 9.28a25.41 25.41 0 0 1 3.39-2.33c12.14-7 31.82-7 44 0 .6.35 1.16.7 1.7 1.07a14.8 14.8 0 0 0 5.43-8c-.86-3.8-3.8-7.45-8.83-10.36z" fill="#d4ecff" opacity=".5"/><path d="m279 295.82 4.74-6.18 14.4-6.69 12.41-1.1 14.53 1.78 10.08 5.21 6.44 4.11 1.16-6.69-2.17-7.71s-5.51-3.64-5.85-4-12.88-4.83-12.88-4.83l-12.54-.85-10.08 1.27-10.25 3-6.78 4.74-5.08 6.44-.57 8z" fill="#4faa73"/><path d="m346.24 287.88v13.02l-3.49-5.64z" fill="#4faa73"/><path d="m288.56 288.55c12.14-7 31.82-7 44 0a19.3 19.3 0 0 1 7.85 7.64c1.07-1 2.45-1.71 3-3a24.49 24.49 0 0 0 -7.61-6.52c-13.94-8-36.54-8-50.47 0a25.26 25.26 0 0 0 -7.15 5.9 10.67 10.67 0 0 0 2.55 3.63 19.29 19.29 0 0 1 7.83-7.65z" fill="#4faa73"/><path d="m332.53 279.88c-12.14-7-31.82-7-44 0-5 2.91-8 6.56-8.83 10.34.86 3.78 3.8 7.44 8.83 10.34 12.14 7 31.82 7 44 0 5-2.91 8-6.56 8.83-10.34-.86-3.78-3.8-7.43-8.83-10.34z" fill="#d4ecff" opacity=".5"/><path d="m343.4 293.19a4.31 4.31 0 0 1 -1.08 1.41v-.14l-3.22 1.92-4 3.67-5.48 2.43-7.57 2.71-6.72 1.58-9.26.4-6-.62-11.86-3.11-7.73-6.83c.06-.14.11-.28.18-.41a10.67 10.67 0 0 1 -2.55-3.63c-.21.26-.41.52-.6.79l-2.71-5.64v13.53c0 5.28 3.47 10.56 10.45 14.58 13.94 8 36.54 8 50.47 0 10.66-6.13 13.19-15.13 7.68-22.64z" fill="#4faa73"/><path d="m283.31 299.08-2.79-2.46c.06-.14.11-.28.18-.41a10.67 10.67 0 0 1 -2.55-3.63c-.21.26-.41.52-.6.79l-2.71-5.64v13.53c0 4.74 2.82 9.49 8.45 13.32z" fill="#2bd978"/><path d="m335.78 273.31c-13.94-8-36.54-8-50.47 0s-13.94 21.09 0 29.14 36.54 8 50.47 0 13.94-21.1 0-29.14zm-3.25 27.26c-12.14 7-31.82 7-44 0s-12.14-18.37 0-25.38 31.82-7 44 0 12.14 18.37 0 25.38z" fill="#2bd978"/><path d="m261.96 317.21 19.79-11.51 2.63 4.26-19.88 11.58z" fill="#d4ecff"/><path d="m265 320.4c0 1.13-.79 1.59-1.77 1a3.92 3.92 0 0 1 -1.77-3.07c0-1.13.79-1.59 1.77-1a3.92 3.92 0 0 1 1.77 3.07z" fill="#431d93"/><path d="m265 320.4c0 1.13-.79 1.59-1.77 1a3.92 3.92 0 0 1 -1.77-3.07c0-1.13.79-1.59 1.77-1a3.92 3.92 0 0 1 1.77 3.07z" fill="#431d93"/><path d="m284.79 308.89c0 1.13-.79 1.59-1.77 1a3.92 3.92 0 0 1 -1.77-3.07c0-1.13.79-1.59 1.77-1a3.92 3.92 0 0 1 1.77 3.07z" fill="#d4ecff"/><path d="m274.74 321.24a16.86 16.86 0 0 0 -7.63-13.24c-2.16-1.25-4.1-1.33-5.49-.47l-41.82 24.31 10.93 18.6 41.38-24.09a3.63 3.63 0 0 0 .8-.46 5.68 5.68 0 0 0 1.83-4.65z" fill="#5793ce"/><path d="m222.82 337 46.81-27a12.75 12.75 0 0 0 -2.52-2c-2.16-1.25-4.1-1.33-5.49-.47l-41.82 24.31z" fill="#d4ecff"/><path d="m232.89 345.56c0 4.87-3.42 6.84-7.63 4.4a16.86 16.86 0 0 1 -7.63-13.22c0-4.87 3.42-6.84 7.63-4.4a16.86 16.86 0 0 1 7.63 13.22z" fill="#d4ecff"/><circle cx="221.72" cy="343.29" fill="#5793ce" r="4.97"/><circle cx="219.35" cy="341.46" fill="#fff" r="1.47"/><path d="m225.82 332c-2.25-1.3-4.27-1.33-5.67-.34 1.35-.63 3.14-.47 5.11.67a16.86 16.86 0 0 1 7.63 13.22c0 2.26-.74 3.89-2 4.75 1.54-.72 2.52-2.48 2.52-5.07a16.86 16.86 0 0 0 -7.59-13.23z" fill="#fff"/><path d="m332.53 275.19c-12.14-7-31.82-7-44 0-6.32 3.65-9.34 8.48-9.08 13.26.24-4.4 3.26-8.76 9.08-12.12 12.14-7 31.82-7 44 0 5.82 3.36 8.84 7.72 9.08 12.12.26-4.78-2.76-9.61-9.08-13.26z" fill="#fff"/><path d="m335.78 302.45c-13.94 8-36.54 8-50.47 0-6.72-3.88-10.19-8.92-10.43-14-.26 5.46 3.21 11 10.43 15.14 13.94 8 36.54 8 50.47 0 7.22-4.17 10.69-9.68 10.43-15.14-.21 5.08-3.71 10.12-10.43 14z" fill="#fff"/><path d="m217 275.34s3.75-1.89 6.05.92 5.59 9.46 5.7 14-3.55 4.19-5.73 3.13-8.52-10.27-8.91-12.08.45-4.24 1.06-4.72 1.83-1.25 1.83-1.25z" fill="#2bd978"/><path d="m216.2 274.44-.17 3.88a2.2 2.2 0 0 0 1.1 2 4.32 4.32 0 0 0 2.89.45c2.82-.45 3.08-1.26 3.28-5.14s-7.1-1.19-7.1-1.19z" fill="#d4ecff"/><path d="m230.75 267.87s3.75-1.89 6.05.92 5.59 9.46 5.7 14-3.55 4.19-5.73 3.13-8.52-10.27-8.91-12.08.45-4.24 1.06-4.72 1.83-1.25 1.83-1.25z" fill="#2bd978"/><path d="m229.93 267-.17 3.88a2.2 2.2 0 0 0 1.1 2 4.32 4.32 0 0 0 2.89.45c2.82-.45 3.08-1.26 3.28-5.14s-7.1-1.19-7.1-1.19z" fill="#d4ecff"/><path d="m196.47 195.65c1.11-18.06 19.56 2.66 19.56 2.66l12.62 12.37 11.35 12.49a11.2 11.2 0 0 1 2.82 9l-4.6 35a3.44 3.44 0 0 1 -3.45 3 11.7 11.7 0 0 1 -1.7-.15 4.28 4.28 0 0 1 -3.8-4.54l.84-32.75-23.87-14.39s-10.88-4.64-9.77-22.69z" fill="#431d93"/><path d="m182.74 202.53c1.11-18.06 19.56 2.66 19.56 2.66l12.62 12.37 11.37 12.44a11.21 11.21 0 0 1 2.82 9l-4.6 35a3.44 3.44 0 0 1 -3.45 3 11.7 11.7 0 0 1 -1.7-.15 4.28 4.28 0 0 1 -3.8-4.54l.82-31.81-23.85-15.33s-10.89-4.59-9.79-22.64z" fill="#431d93"/><path d="m193.66 144.56c-14 5.8-13.7 14.06-13.7 14.06s2.74 30.31 1.8 50.54c-.39 8.46 45 9.11 38.19-13.47-8-26.61-5-48.16-8.72-51.41s-13.96-1.22-17.57.28z" fill="#2bd978"/><ellipse cx="196.14" cy="150.09" fill="#ffc2b0" rx="7.21" ry="5.31" transform="matrix(.96840931 -.24936603 .24936603 .96840931 -31.24 53.67)"/><path d="m191.89 155.62a5.34 5.34 0 0 1 -3.38-3.56c-.82-3.19 1.93-6.67 6.14-7.75s8.3.63 9.12 3.82a5.35 5.35 0 0 1 -1.24 4.75 9.3 9.3 0 0 1 -4.9 3 10.28 10.28 0 0 1 -2.55.33 8.55 8.55 0 0 1 -3.19-.59zm3.09-10c-3.49.9-5.82 3.65-5.18 6.13a4 4 0 0 0 2.58 2.66 8.48 8.48 0 0 0 9.12-2.41 4 4 0 0 0 1-3.57c-.5-1.94-2.67-3.15-5.27-3.15a8.93 8.93 0 0 0 -2.23.32z" fill="#fff"/><path d="m199.26 143.93a34.49 34.49 0 0 0 .12 5c.08 1.39-4.8 2.69-6.06 1.43s-.76-2.57-1.06-7.31 7 .88 7 .88z" fill="#ffc2b0"/><path d="m192.26 143s1.2 4.4 7.12 6.08l-.09-4z" fill="#ea9c92"/><circle cx="198.93" cy="134.57" fill="#ffc2b0" r="10.76" transform="matrix(.25038 -.96814764 .96814764 .25038 18.85 293.49)"/><path d="m196.46 135s5.93 2.54 10 2.57 3.2-3.41 3.2-3.41l-12.18-1.76z" fill="#ea9c92"/><path d="m207.71 135.63s-5.16-2.19-9.69-1.28a4.75 4.75 0 0 0 -2.74 1.63 1.62 1.62 0 0 1 -.83.6c-.8.18-2.12-3.15-3.68-3.23s-2.6 1-1.32 3.08.85 4.34.26 4.67-7.88-4.76-2.37-15.67 20.55-4.73 22.73-2.52c0 0 2.29 2 4.16.22 0 0 2.09 15.66-6.52 12.5z" fill="#d4ecff"/><path d="m187.8 180.77v8.23a3.34 3.34 0 0 0 1.09 2.47l16.82 15.34-1.91 2.92-23.18-15.2a4.52 4.52 0 0 1 -1.84-3.18l-1.58-15.2z" fill="#ffc2b0"/><path d="m181.14 154.53s-5.1 7.68-7 27.88c0 0 8.72 2.82 13.67 1.22s-6.67-29.1-6.67-29.1z" fill="#2bd978"/><path d="m188.73 164.24s2 10.69 2.11 15.72a3.21 3.21 0 0 1 -2.11 3.1z" fill="#4faa73"/><path d="m193.09 217.41 3.72-.49 24-13.86a3.34 3.34 0 0 1 3 .12l17 9.82 2.25-.3v2.24a.88.88 0 0 1 -.52.79l-27.2 15.7a3.34 3.34 0 0 1 -3-.12l-18.52-10.69a1.21 1.21 0 0 1 -.73-1z" fill="#5793ce"/><path d="m211.13 208.65 1.71-1h18.75l9.24 5.33 2.25-.3v2.24a.88.88 0 0 1 -.52.79l-27.2 15.7a2.81 2.81 0 0 1 -1.55.29z" fill="#396caa"/><path d="m242.07 212.84 1-.13v2.24a.88.88 0 0 1 -.52.79l-.48.28z" fill="#5793ce"/><path d="m215.08 231.56a3.48 3.48 0 0 1 -2.55-.16v-3.81h2.55z" fill="#5793ce"/><path d="m215.35 229.2 27.2-15.7c.77-.44.67-1.22-.22-1.73l-18.52-10.69a3.34 3.34 0 0 0 -3-.12l-27.2 15.7c-.77.44-.67 1.22.22 1.73l18.52 10.69a3.34 3.34 0 0 0 3 .12z" fill="#fff"/><path d="m215.81 226.82 22.62-13.06c.64-.37.56-1-.18-1.44l-9.93-5.58a2.77 2.77 0 0 0 -2.5-.1l-22.62 13.06c-.64.37-.56 1 .18 1.44l9.92 5.58a2.77 2.77 0 0 0 2.51.1z" fill="#d4ecff"/><path d="m222.76 200.55.28 1.88a13.88 13.88 0 0 1 -.12 4.81l-.33 1.65a2.33 2.33 0 0 1 -1.86 1.83 1.28 1.28 0 0 1 -1.5-1.12l-.45-4s-1 1.35-1.52 1.35.55-4 1.68-6.29 3.82-.11 3.82-.11z" fill="#ffc2b0"/><path d="m213.54 170.73 2.92 5.78a11.33 11.33 0 0 1 1.19 4.38l1.27 19.76 3.84-.09 1.74-22.19a8.12 8.12 0 0 0 -.1-2.05l-2-11.25z" fill="#ffc2b0"/><path d="m216.27 230.71 2.28-3 24-13.89a3.34 3.34 0 0 0 1.39-2.66v-19.64l1.38-1.8-1.32-.72a.88.88 0 0 0 -.94.05l-27.18 15.74a3.34 3.34 0 0 0 -1.39 2.66v21.38a1.21 1.21 0 0 0 .51 1.17z" fill="#431d93"/><path d="m232.86 219.45 1.7-1 9.35-16.25v-10.66l1.38-1.8-1.29-.74a.88.88 0 0 0 -.94.05l-27.18 15.74a2.81 2.81 0 0 0 -1 1.2z" fill="#396caa"/><path d="m244.67 190.54.61-.8-1.28-.74a.88.88 0 0 0 -.94.05l-.48.28z" fill="#5793ce"/><path d="m215.62 205a3.48 3.48 0 0 0 -1.14 2.29l2.66 1.53 1.27-2.21z" fill="#274f89"/><path d="m217.16 205.53 27.18-15.74c.77-.45 1.39 0 1.39 1.05v21.38a3.34 3.34 0 0 1 -1.39 2.66l-27.18 15.74c-.77.45-1.39 0-1.39-1.05v-21.38a3.34 3.34 0 0 1 1.39-2.66z" fill="#5793ce"/><path d="m203.8 209.68.44.9a6 6 0 0 0 2.27 2.52l2.7 1.66a2.69 2.69 0 0 0 2.76.06l.09-.06a1.62 1.62 0 0 0 .23-2.5l-2.82-2.9s1.59 1.21 2 .73-1.54-2.11-3-2.16a5.65 5.65 0 0 1 -2.81-1.18z" fill="#ffc2b0"/><path d="m211 144.25s10.34 11.25 14.52 21.58a21.12 21.12 0 0 1 -12.19 8.87c-8.72 2.5-2.33-30.45-2.33-30.45z" fill="#2bd978"/><path d="m215.22 174-1.68-16.19 4 15.17a22.63 22.63 0 0 1 -2.32 1.02z" fill="#4faa73"/><path d="m203.2 142 2.78-.76a6.71 6.71 0 0 1 -3.26 2.62c-1.94.53-2.24-1.11-2.24-1.11z" fill="#fff"/><circle cx="189.91" cy="137.53" fill="#fff" r="1.55"/><path d="m339.76 241.65c8.85 5.11 23.2 5.11 32 0s8.85-13.39 0-18.5-23.2-5.11-32 0-8.85 13.39 0 18.5z" fill="#431d93" opacity=".5"/><path d="m330 221.21v-7.21h1.37a16.46 16.46 0 0 1 6.18-5.78c10.07-5.81 26.39-5.81 36.46 0a16.46 16.46 0 0 1 6.19 5.78h1.36v7.2c0 3.82-2.5 7.65-7.55 10.56-10.07 5.81-26.39 5.81-36.46 0-5.03-2.93-7.55-6.76-7.55-10.55z" fill="#2bd978"/><path d="m337.56 224.5c10.07 5.81 26.39 5.81 36.46 0s10.07-15.24 0-21.05-26.39-5.81-36.46 0-10.07 15.23 0 21.05z" fill="#2bd978"/><path d="m337.55 224.5c10.07 5.81 26.39 5.81 36.46 0 4.83-2.79 7.31-6.4 7.51-10.05.22 4-2.27 8-7.51 11-10.07 5.81-26.39 5.81-36.46 0-5.24-3-7.73-7-7.51-11 .2 3.64 2.69 7.26 7.51 10.05z" fill="#fff"/><path d="m368.21 218.9a1.16 1.16 0 0 0 .68-.95v-9.7c0-.74-1-1.34-2.32-1.34s-2.32.6-2.32 1.34v8l-23.34-2.86c-1.25-.15-2.49.31-2.75 1s.54 1.44 1.79 1.59l26.15 3.2a3.68 3.68 0 0 0 1.9-.18z" fill="#fff"/><path d="m187.53 69.78 38.47-22.21a2.33 2.33 0 0 1 2.19-.16l4.59 2.16-2.73 1 5.55 28c.45 2.28-.57 4.93-2.28 5.91l-36.78 21.23.65 3.29-4.63-2.17a3.35 3.35 0 0 1 -1.65-2.47l-5.66-28.66c-.45-2.28.57-4.93 2.28-5.92z" fill="#4faa73"/><path d="m199.51 108.83 38.49-22.21c1.71-1 2.73-3.63 2.28-5.91l-5.68-28.61c-.45-2.28-2.2-3.33-3.91-2.34l-38.49 22.24c-1.71 1-2.73 3.63-2.28 5.91l5.67 28.61c.41 2.25 2.21 3.3 3.92 2.31z" fill="#2bd978"/><path d="m191.33 71.63 38.48-22.21a2.3 2.3 0 0 1 2.53 0 2.44 2.44 0 0 0 -1.65.32l-38.49 22.26c-1.71 1-2.73 3.64-2.28 5.91l5.67 28.61a3.53 3.53 0 0 0 1.39 2.32 3 3 0 0 1 -2.26-2.66l-5.72-28.64c-.4-2.28.62-4.92 2.33-5.91z" fill="#fff"/><path d="m221.61 76.76a2 2 0 0 0 3.19 1.5 4.51 4.51 0 0 0 2-4.5 2 2 0 0 0 -3.19-1.5 4.51 4.51 0 0 0 -2 4.5z" fill="#fff"/><path d="m213.75 81.3a2 2 0 0 0 3.19 1.5 4.51 4.51 0 0 0 2-4.5 2 2 0 0 0 -3.19-1.5 4.51 4.51 0 0 0 -2 4.5z" fill="#fff"/><path d="m205.88 85.84a2 2 0 0 0 3.19 1.5 4.51 4.51 0 0 0 2-4.5 2 2 0 0 0 -3.19-1.5 4.51 4.51 0 0 0 -2 4.5z" fill="#fff"/><path d="m37.45 22.57 38.49-22.21a2.33 2.33 0 0 1 2.18-.16l4.58 2.13-2.7.96 5.55 28c.45 2.28-.57 4.93-2.28 5.91l-36.81 21.25.65 3.29-4.63-2.17a3.35 3.35 0 0 1 -1.65-2.47l-5.66-28.61c-.45-2.28.57-4.93 2.28-5.92z" fill="#5793ce"/><path d="m49.43 61.62 38.48-22.21c1.71-1 2.73-3.63 2.28-5.91l-5.67-28.61c-.45-2.28-2.2-3.33-3.91-2.34l-38.49 22.21c-1.71 1-2.73 3.63-2.28 5.91l5.67 28.61c.49 2.28 2.21 3.33 3.92 2.34z" fill="#d4ecff"/><path d="m41.25 24.42 38.48-22.21a2.3 2.3 0 0 1 2.53 0 2.44 2.44 0 0 0 -1.65.32l-38.49 22.23c-1.71 1-2.73 3.64-2.28 5.91l5.67 28.61a3.53 3.53 0 0 0 1.39 2.32 3 3 0 0 1 -2.26-2.66l-5.64-28.61c-.48-2.28.54-4.93 2.25-5.91z" fill="#fff"/><path d="m71.54 29.55a2 2 0 0 0 3.19 1.5 4.51 4.51 0 0 0 2-4.5 2 2 0 0 0 -3.19-1.5 4.51 4.51 0 0 0 -2 4.5z" fill="#fff"/><path d="m63.67 34.09a2 2 0 0 0 3.19 1.5 4.51 4.51 0 0 0 2-4.5 2 2 0 0 0 -3.19-1.5 4.51 4.51 0 0 0 -2 4.5z" fill="#fff"/><path d="m55.8 38.63a2 2 0 0 0 3.2 1.5 4.51 4.51 0 0 0 2-4.5 2 2 0 0 0 -3.19-1.5 4.51 4.51 0 0 0 -2.01 4.5z" fill="#fff"/><g fill="#414042"><path d="m372.34.54-.28.28v13.65l.28.28h2.24l.28-.28v-13.65l-.28-.28z"/><path d="m384.09.25c-4.19 0-6.71 2.84-6.71 7.39s2.51 7.36 6.71 7.36 6.71-2.84 6.71-7.39-2.52-7.36-6.71-7.36zm0 12.23c-2.52 0-3.92-1.71-3.92-4.83s1.4-4.83 3.92-4.83 3.91 1.7 3.91 4.83-1.4 4.83-3.91 4.83z"/><path d="m397 3.1h3l.28-.28v-2l-.28-.28h-8.39l-.28.28v2l.28.28h2l.28.28v7.68a3.61 3.61 0 0 0 3.91 3.7h2.2l.28-.28v-2l-.28-.28h-2.24a1 1 0 0 1 -1.12-1.14v-7.68z"/><path d="m365.98.54-.28.28v13.65l.28.28h2.24l.28-.28v-13.65l-.28-.28z"/><path d="m362.4.5c-4 0-6.46 2.74-6.46 7.11s2.42 7.11 6.46 7.11h1.78l.27-.27v-1.9l-.25-.25s-1.11 0-1.8 0c-2.42 0-3.77-1.64-3.77-4.65s1.37-4.65 3.77-4.65h1.8l.25-.25v-1.96l-.27-.27z"/><path d="m349 .25a5 5 0 0 0 -4.19 2h-.28a3.86 3.86 0 0 0 -3.64-2h-1.31l-.28.28v2l.28.28h1c1.78.2 2 1.53 2 3.1v8.53l.28.28h2.14l.28-.28v-8c0-2.27 1.12-3.7 3.08-3.7 2.24 0 2.52 1.42 2.52 3.13v8.53l.28.28h2.24l.28-.28v-8.46c.03-3.13-.81-5.69-4.68-5.69z"/><path d="m335.56.54-.28.28v13.65l.28.28h2.24l.28-.28v-13.65l-.28-.28z"/></g><g fill="#2bd978"><path d="m351.27 23.72-.27.22v10.59l.27.22h2.17l.26-.22v-10.59l-.26-.22z"/><path d="m335.6 25.61-.27.22v6.81l.27.22h2.16l.27-.22v-6.81l-.27-.22z"/><path d="m372.38 26.2-.27.22v5.63l.27.22h2.16l.27-.22v-5.63l-.27-.22z"/><path d="m366.01 22.47-.27.27v12.99l.27.27h2.17l.27-.27v-12.99l-.27-.27z"/><path d="m394.25 24.86-.27.17v8.41l.27.17h2.17l.27-.17v-8.41l-.27-.17z"/><path d="m342.86 22.47-.27.27v12.99l.27.27h2.17l.27-.27v-12.99l-.27-.27z"/></g></svg>