<svg xmlns="http://www.w3.org/2000/svg" viewBox="0 0 400.31 364.98"><defs><style>.cls-1,.cls-6{fill:#431d93;}.cls-1,.cls-11{opacity:0.5;}.cls-2{fill:#2bd978;}.cls-3{fill:#4faa73;}.cls-4{fill:#4bea8b;}.cls-5{fill:#fff;}.cls-7{fill:#396caa;}.cls-8{fill:#274f89;}.cls-11,.cls-9{fill:#d4ecff;}.cls-10{fill:#5793ce;}.cls-12{fill:#ffc2b0;}.cls-13{fill:#ea9c92;}.cls-14{fill:#414042;}</style></defs><title>01 - learning from history_1</title><g id="Layer_2" data-name="Layer 2"><g id="_ÎÓÈ_1" data-name="—ÎÓÈ_1"><path class="cls-1" d="M161.44,333.92l129.3-74.65a4.36,4.36,0,0,0,0-7.55l-122.94-71L30.24,260.17a4.36,4.36,0,0,0,0,7.55l114.69,66.21A16.51,16.51,0,0,0,161.44,333.92Z"/><path class="cls-2" d="M165.17,141c0-8.21,5.77-11.56,12.89-7.46L299,203.24a7.83,7.83,0,0,1,3.55,6.13c0,2.26-1.58,3.17-3.54,2L178.06,141.75c-3.21-1.85-5.82-.34-5.81,3.36v13.52c-2.35-.15-4.7-.15-7.08-.11Z"/><path class="cls-3" d="M299,235.74,178.11,191.67c-7.11-4.1-12.91-14.11-12.92-22.32V158.53c2.38,0,4.73,0,7.08.11v14.8a12.87,12.87,0,0,0,5.82,10.07L299,227.56a7.83,7.83,0,0,1,3.55,6.13C302.57,235.95,301,236.86,299,235.74Z"/><polygon class="cls-3" points="301.66 235.9 154.55 321.02 30.01 246.75 20.13 232 21.15 237.22 23.81 223.54 255 232.36 295.73 229.74 301.66 235.9"/><polygon class="cls-4" points="296.78 210.21 296.82 228.32 154.64 310.57 150.8 293.32 296.78 210.21"/><polygon class="cls-2" points="21.96 217.72 168.83 132.75 301.25 209.76 301.52 211.65 154.44 296.74 21.96 217.72"/><path class="cls-5" d="M68.78,261.36,34.25,240.87a13,13,0,0,1-5.19-9.63l0-2.71c0-2.19.92-3.61,2.33-4l68,37.82,55.36,29.94-.05,18.31Z"/><path class="cls-3" d="M149.73,293.94l145.94-84.43,3.09-1.79,2.83-1.63a7.13,7.13,0,0,1,.94,3.29,2.5,2.5,0,0,1-1,2.27h0L154.44,296.74Z"/><polygon class="cls-5" points="156.39 319.96 154.55 321.02 154.22 320.44 155.36 319.54 156.39 319.96"/><polygon class="cls-5" points="156.34 295.64 154.46 296.73 154.93 295.7 156.34 295.64"/><path class="cls-2" d="M151.9,288.34,31,218.67c-7.11-4.1-12.9-.75-12.89,7.46l0,2.71c0,8.21,5.8,18.22,12.92,22.32l120.93,69.67c2,1.13,3.54.21,3.54-2a7.83,7.83,0,0,0-3.55-6.13L31,243a12.87,12.87,0,0,1-5.82-10.07l0-2.71c0-3.7,2.6-5.21,5.81-3.36l120.93,69.67c2,1.13,3.54.21,3.54-2A7.83,7.83,0,0,0,151.9,288.34Z"/><path class="cls-5" d="M155.49,318.79a7.83,7.83,0,0,0-3.55-6.13L31,243a12.87,12.87,0,0,1-5.82-10.07l0-2.71c0-2.42,1.12-3.9,2.79-4.12a4.87,4.87,0,0,0-.85,3l0,2.71A12.87,12.87,0,0,0,33,241.86l120.93,69.67a7.83,7.83,0,0,1,3.55,6.13c0,1.71-.91,2.65-2.2,2.51A3.41,3.41,0,0,0,155.49,318.79Z"/><path class="cls-5" d="M155.44,294.47a7.83,7.83,0,0,0-3.55-6.13L31,218.67c-3.06-1.77-5.88-2.14-8.09-1.35,2.36-2,6-2.1,10,.23l120.93,69.67a7.83,7.83,0,0,1,3.55,6.13c0,1.71-.91,2.65-2.2,2.51A3.4,3.4,0,0,0,155.44,294.47Z"/><path class="cls-6" d="M17,92.89,147.5,17.56a5.27,5.27,0,0,1,4.42-.54h0l.24.09.06,0,4.72,1.8L152.69,21c0,.08,0,.15.06.23L174,118c1.06,4.84-1.07,10.49-4.76,12.62L41.91,204.1l.45,5.4-5.15-2a7.24,7.24,0,0,1-3.69-5.25L12.27,105.52C11.2,100.67,13.33,95,17,92.89Z"/><path class="cls-7" d="M17,92.89,147.5,17.56a5.27,5.27,0,0,1,4.42-.54h0l.24.09.06,0,4.72,1.8L152.69,21c0,.08,0,.15.06.23l14,63.76-63.84,49.74-90-36.63A10.13,10.13,0,0,1,17,92.89Z"/><path class="cls-8" d="M21.95,107.76,12,103.53a12.44,12.44,0,0,1,4-9.95l15.72,6.61Z"/><path class="cls-9" d="M46.9,209l130.47-75.33c3.69-2.13,5.82-7.78,4.76-12.62L160.87,24.3c-1.06-4.84-4.92-7-8.61-4.91L21.79,94.72C18.1,96.85,16,102.5,17,107.34l21.25,96.74C39.35,208.92,43.21,211.12,46.9,209Z"/><path class="cls-5" d="M20.54,94.26,151,18.93a5.16,5.16,0,0,1,5.14-.22,5.36,5.36,0,0,0-3.88.68L21.79,94.72C18.1,96.85,16,102.5,17,107.34l21.25,96.74a7.35,7.35,0,0,0,3.47,5.13c-2.2-.48-4-2.48-4.72-5.59L15.78,106.88C14.72,102,16.85,96.39,20.54,94.26Z"/><path class="cls-5" d="M49.72,201.79,172.43,131c3.38-1.95,5.33-7.12,4.35-11.55L157.34,30.91c-1-4.43-4.5-6.44-7.88-4.49L26.75,97.23c-3.38,1.95-5.33,7.12-4.35,11.55L41.85,197.3C42.82,201.73,46.35,203.74,49.72,201.79Z"/><path class="cls-6" d="M49.72,201.79,172.43,131c3.38-1.95,5.33-7.12,4.35-11.55L157.34,30.91c-1-4.43-4.5-6.44-7.88-4.49L26.75,97.23c-3.38,1.95-5.33,7.12-4.35,11.55L41.85,197.3C42.82,201.73,46.35,203.74,49.72,201.79Z"/><path class="cls-10" d="M48.66,201.36l122.71-70.81c3.38-1.95,5.33-7.12,4.35-11.55L156.27,30.47a6.79,6.79,0,0,0-3.09-4.66c1.95.5,3.55,2.32,4.16,5.09l19.45,88.52c1,4.43-1,9.6-4.35,11.55L49.72,201.79a4.72,4.72,0,0,1-4.79.17A4.89,4.89,0,0,0,48.66,201.36Z"/><path class="cls-6" d="M45.1,212.27l17.83-2.35,115.13-66.47c3.69-2.13,10.14-1.86,14.4.6L274,191.12l10.78-1.42v6.12h0c.07,1.41-.73,2.77-2.48,3.78L151.86,274.93c-3.69,2.13-10.14,1.86-14.4-.6L48.62,223.05c-2.4-1.38-3.59-3.17-3.52-4.84h0Z"/><path class="cls-7" d="M131.6,170.27l8.18-4.72H229.7L274,191.12l10.78-1.42v6.12h0c.07,1.41-.73,2.77-2.48,3.78L151.86,274.93a13.5,13.5,0,0,1-7.43,1.39Z"/><path class="cls-10" d="M280,190.33l4.79-.63v6.12h0c.07,1.41-.73,2.77-2.48,3.78l-2.3,1.33Z"/><path class="cls-8" d="M150.55,275.54a16.71,16.71,0,0,1-12.23-.76V261.13h12.23Z"/><path class="cls-9" d="M151.86,268.82l130.47-75.33c3.69-2.13,3.23-5.85-1-8.31L192.46,133.9c-4.26-2.46-10.71-2.73-14.4-.6L47.58,208.63c-3.69,2.13-3.23,5.85,1,8.31l88.84,51.28C141.72,270.68,148.17,270.95,151.86,268.82Z"/><path class="cls-5" d="M48.62,214.71,137.46,266c4.26,2.46,10.71,2.73,14.4.6l130.47-75.33a4.85,4.85,0,0,0,2.29-2.51c.58,1.75-.16,3.51-2.29,4.75L151.86,268.82c-3.69,2.13-10.14,1.86-14.4-.6L48.62,216.94c-2.86-1.65-4-3.88-3.33-5.8A6.94,6.94,0,0,0,48.62,214.71Z"/><path class="cls-10" d="M226.84,168.55l5.9-3.41c.47-.27.41-.75-.13-1.07l-7-4a2.06,2.06,0,0,0-1.85-.08l-5.9,3.41c-.47.27-.41.75.13,1.07l7,4A2.06,2.06,0,0,0,226.84,168.55Z"/><path class="cls-10" d="M217.72,173.81l5.9-3.41c.47-.27.41-.75-.13-1.07l-7-4a2.06,2.06,0,0,0-1.85-.08l-5.9,3.41c-.47.27-.41.75.13,1.07l7,4A2.06,2.06,0,0,0,217.72,173.81Z"/><path class="cls-10" d="M208.61,179.08l5.9-3.41c.47-.27.41-.75-.13-1.07l-7-4a2.06,2.06,0,0,0-1.85-.08l-5.9,3.41c-.47.27-.41.75.13,1.07l7,4A2.06,2.06,0,0,0,208.61,179.08Z"/><path class="cls-10" d="M196,174.73l5.9-3.41c.47-.27.41-.75-.13-1.07l-5.85-3.38a2.06,2.06,0,0,0-1.85-.08l-5.9,3.41c-.47.27-.41.75.13,1.07l5.85,3.38A2.06,2.06,0,0,0,196,174.73Z"/><path class="cls-10" d="M186.88,180l5.9-3.41c.47-.27.41-.75-.13-1.07l-5.85-3.38a2.06,2.06,0,0,0-1.85-.08l-5.9,3.41c-.47.27-.41.75.13,1.07l5.85,3.38A2.06,2.06,0,0,0,186.88,180Z"/><path class="cls-10" d="M177.77,185.26l5.9-3.41c.47-.27.41-.75-.13-1.07l-5.85-3.38a2.06,2.06,0,0,0-1.85-.08l-5.9,3.41c-.47.27-.41.75.13,1.07l5.85,3.38A2.06,2.06,0,0,0,177.77,185.26Z"/><path class="cls-10" d="M168.65,190.52l5.9-3.41c.47-.27.41-.75-.13-1.07l-5.85-3.38a2.06,2.06,0,0,0-1.85-.08l-5.9,3.41c-.47.27-.41.75.13,1.07l5.85,3.38A2.06,2.06,0,0,0,168.65,190.52Z"/><path class="cls-10" d="M159.53,195.78l5.9-3.41c.47-.27.41-.75-.13-1.07l-5.85-3.38a2.06,2.06,0,0,0-1.85-.08l-5.9,3.41c-.47.27-.41.75.13,1.07l5.85,3.38A2.06,2.06,0,0,0,159.53,195.78Z"/><path class="cls-10" d="M150.42,201l5.9-3.41c.47-.27.41-.75-.13-1.07l-5.85-3.38a2.06,2.06,0,0,0-1.85-.08l-5.9,3.41c-.47.27-.41.75.13,1.07l5.85,3.38A2.06,2.06,0,0,0,150.42,201Z"/><path class="cls-10" d="M141.3,206.31l5.9-3.41c.47-.27.41-.75-.13-1.07l-5.85-3.38a2.06,2.06,0,0,0-1.85-.08l-5.9,3.41c-.47.27-.41.75.13,1.07l5.85,3.38A2.06,2.06,0,0,0,141.3,206.31Z"/><path class="cls-10" d="M132.18,211.57l5.9-3.41c.47-.27.41-.75-.13-1.07l-5.85-3.38a2.06,2.06,0,0,0-1.85-.08l-5.9,3.41c-.47.27-.41.75.13,1.07l5.85,3.38A2.06,2.06,0,0,0,132.18,211.57Z"/><path class="cls-10" d="M123.07,216.84l5.9-3.41c.47-.27.41-.75-.13-1.07L123,209a2.06,2.06,0,0,0-1.85-.08l-5.9,3.41c-.47.27-.41.75.13,1.07l5.85,3.38A2.06,2.06,0,0,0,123.07,216.84Z"/><path class="cls-10" d="M113.95,222.1l5.9-3.41c.47-.27.41-.75-.13-1.07l-5.85-3.38a2.06,2.06,0,0,0-1.85-.08l-5.9,3.41c-.47.27-.41.75.13,1.07L112.1,222A2.06,2.06,0,0,0,113.95,222.1Z"/><path class="cls-10" d="M182.57,172.24l5.9-3.41c.47-.27.41-.75-.13-1.07l-5.85-3.38a2.06,2.06,0,0,0-1.85-.08l-5.9,3.41c-.47.27-.41.75.13,1.07l5.85,3.38A2.06,2.06,0,0,0,182.57,172.24Z"/><path class="cls-10" d="M191.82,166.9l5.9-3.41c.47-.27.41-.75-.13-1.07L191.74,159a2.06,2.06,0,0,0-1.85-.08l-5.9,3.41c-.47.27-.41.75.13,1.07l5.85,3.38A2.06,2.06,0,0,0,191.82,166.9Z"/><path class="cls-10" d="M201.09,161.54l12.71-7.34c.47-.27.41-.75-.13-1.07l-5.85-3.38a2.06,2.06,0,0,0-1.85-.08L193.25,157c-.47.27-.41.75.13,1.07l5.85,3.38A2.06,2.06,0,0,0,201.09,161.54Z"/><path class="cls-10" d="M194.61,155l10.32-6c.47-.27.41-.75-.13-1.07l-5.85-3.38a2.06,2.06,0,0,0-1.85-.08l-10.32,6c-.47.27-.41.75.13,1.07l5.85,3.38A2.06,2.06,0,0,0,194.61,155Z"/><path class="cls-10" d="M173.45,177.5l5.9-3.41c.47-.27.41-.75-.13-1.07l-5.85-3.38a2.06,2.06,0,0,0-1.85-.08l-5.9,3.41c-.47.27-.41.75.13,1.07l5.85,3.38A2.06,2.06,0,0,0,173.45,177.5Z"/><path class="cls-10" d="M164.33,182.76l5.9-3.41c.47-.27.41-.75-.13-1.07l-5.85-3.38a2.06,2.06,0,0,0-1.85-.08l-5.9,3.41c-.47.27-.41.75.13,1.07l5.85,3.38A2.06,2.06,0,0,0,164.33,182.76Z"/><path class="cls-10" d="M155.22,188l5.9-3.41c.47-.27.41-.75-.13-1.07l-5.85-3.38a2.06,2.06,0,0,0-1.85-.08l-5.9,3.41c-.47.27-.41.75.13,1.07l5.85,3.38A2.06,2.06,0,0,0,155.22,188Z"/><path class="cls-10" d="M146.1,193.29l5.9-3.41c.47-.27.41-.75-.13-1.07L146,185.44a2.06,2.06,0,0,0-1.85-.08l-5.9,3.41c-.47.27-.41.75.13,1.07l5.85,3.38A2.06,2.06,0,0,0,146.1,193.29Z"/><path class="cls-10" d="M137,198.55l5.9-3.41c.47-.27.41-.75-.13-1.07l-5.85-3.38a2.06,2.06,0,0,0-1.85-.08l-5.9,3.41c-.47.27-.41.75.13,1.07l5.85,3.38A2.06,2.06,0,0,0,137,198.55Z"/><path class="cls-10" d="M127.87,203.82l5.9-3.41c.47-.27.41-.75-.13-1.07L127.79,196a2.06,2.06,0,0,0-1.85-.08L120,199.3c-.47.27-.41.75.13,1.07l5.85,3.38A2.06,2.06,0,0,0,127.87,203.82Z"/><path class="cls-10" d="M118.75,209.08l5.9-3.41c.47-.27.41-.75-.13-1.07l-5.85-3.38a2.06,2.06,0,0,0-1.85-.08l-5.9,3.41c-.47.27-.41.75.13,1.07L116.9,209A2.06,2.06,0,0,0,118.75,209.08Z"/><path class="cls-10" d="M109.63,214.34l5.9-3.41c.47-.27.41-.75-.13-1.07l-5.85-3.38a2.06,2.06,0,0,0-1.85-.08l-5.9,3.41c-.47.27-.41.75.13,1.07l5.85,3.38A2.06,2.06,0,0,0,109.63,214.34Z"/><path class="cls-10" d="M100.52,219.61l5.9-3.41c.47-.27.41-.75-.13-1.07l-5.85-3.38a2.06,2.06,0,0,0-1.85-.08l-5.9,3.41c-.47.27-.41.75.13,1.07l5.85,3.38A2.06,2.06,0,0,0,100.52,219.61Z"/><path class="cls-10" d="M84.31,229l12.88-7.44c.47-.27.41-.75-.13-1.07l-5.85-3.38a2.06,2.06,0,0,0-1.85-.08l-12.88,7.44c-.47.27-.41.75.13,1.07l5.85,3.38A2.06,2.06,0,0,0,84.31,229Z"/><path class="cls-10" d="M66.56,218.72l10.87-6.28c.47-.27.41-.75-.13-1.07L71.45,208a2.06,2.06,0,0,0-1.85-.08L58.73,214.2c-.47.27-.41.75.13,1.07l5.85,3.38A2.06,2.06,0,0,0,66.56,218.72Z"/><path class="cls-10" d="M157.48,176.47l5.9-3.41c.47-.27.41-.75-.13-1.07l-5.85-3.38a2.06,2.06,0,0,0-1.85-.08l-5.9,3.41c-.47.27-.41.75.13,1.07l5.85,3.38A2.06,2.06,0,0,0,157.48,176.47Z"/><path class="cls-10" d="M166.83,171.08l5.9-3.41c.47-.27.41-.75-.13-1.07l-5.85-3.38a2.06,2.06,0,0,0-1.85-.08l-5.9,3.41c-.47.27-.41.75.13,1.07L165,171A2.06,2.06,0,0,0,166.83,171.08Z"/><path class="cls-10" d="M176.17,165.68l5.9-3.41c.47-.27.41-.75-.13-1.07l-5.85-3.38a2.06,2.06,0,0,0-1.85-.08l-5.9,3.41c-.47.27-.41.75.13,1.07l5.85,3.38A2.06,2.06,0,0,0,176.17,165.68Z"/><path class="cls-10" d="M185.51,160.29l5.9-3.41c.47-.27.41-.75-.13-1.07l-5.85-3.38a2.06,2.06,0,0,0-1.85-.08l-5.9,3.41c-.47.27-.41.75.13,1.07l5.85,3.38A2.06,2.06,0,0,0,185.51,160.29Z"/><path class="cls-10" d="M148.37,181.73l5.9-3.41c.47-.27.41-.75-.13-1.07l-5.85-3.38a2.06,2.06,0,0,0-1.85-.08l-5.9,3.41c-.47.27-.41.75.13,1.07l5.85,3.38A2.06,2.06,0,0,0,148.37,181.73Z"/><path class="cls-10" d="M139.25,187l5.9-3.41c.47-.27.41-.75-.13-1.07l-5.85-3.38a2.06,2.06,0,0,0-1.85-.08l-5.9,3.41c-.47.27-.41.75.13,1.07l5.85,3.38A2.06,2.06,0,0,0,139.25,187Z"/><path class="cls-10" d="M130.13,192.26l5.9-3.41c.47-.27.41-.75-.13-1.07l-5.85-3.38a2.06,2.06,0,0,0-1.85-.08l-5.9,3.41c-.47.27-.41.75.13,1.07l5.85,3.38A2.06,2.06,0,0,0,130.13,192.26Z"/><path class="cls-10" d="M121,197.52l5.9-3.41c.47-.27.41-.75-.13-1.07l-5.85-3.38a2.06,2.06,0,0,0-1.85-.08l-5.9,3.41c-.47.27-.41.75.13,1.07l5.85,3.38A2.06,2.06,0,0,0,121,197.52Z"/><path class="cls-10" d="M111.9,202.79l5.9-3.41c.47-.27.41-.75-.13-1.07l-5.85-3.38a2.06,2.06,0,0,0-1.85-.08l-5.9,3.41c-.47.27-.41.75.13,1.07l5.85,3.38A2.06,2.06,0,0,0,111.9,202.79Z"/><path class="cls-10" d="M102.79,208.05l5.9-3.41c.47-.27.41-.75-.13-1.07l-5.85-3.38a2.06,2.06,0,0,0-1.85-.08L95,203.53c-.47.27-.41.75.13,1.07l5.85,3.38A2.06,2.06,0,0,0,102.79,208.05Z"/><path class="cls-10" d="M93.67,213.31l5.9-3.41c.47-.27.41-.75-.13-1.07l-5.85-3.38a2.06,2.06,0,0,0-1.85-.08l-5.9,3.41c-.47.27-.41.75.13,1.07l5.85,3.38A2.06,2.06,0,0,0,93.67,213.31Z"/><path class="cls-10" d="M84.55,218.58l5.9-3.41c.47-.27.41-.75-.13-1.07l-5.85-3.38a2.06,2.06,0,0,0-1.85-.08l-5.9,3.41c-.47.27-.41.75.13,1.07l5.85,3.38A2.06,2.06,0,0,0,84.55,218.58Z"/><path class="cls-10" d="M75.44,223.84l5.9-3.41c.47-.27.41-.75-.13-1.07L75.36,216a2.06,2.06,0,0,0-1.85-.08l-5.9,3.41c-.47.27-.41.75.13,1.07l5.85,3.38A2.06,2.06,0,0,0,75.44,223.84Z"/><path class="cls-10" d="M162.28,163.45l5.9-3.41c.47-.27.41-.75-.13-1.07l-5.85-3.38a2.06,2.06,0,0,0-1.85-.08l-5.9,3.41c-.47.27-.41.75.13,1.07l5.85,3.38A2.06,2.06,0,0,0,162.28,163.45Z"/><path class="cls-10" d="M171.36,158.21l5.9-3.41c.47-.27.41-.75-.13-1.07l-5.85-3.38a2.06,2.06,0,0,0-1.85-.08l-5.9,3.41c-.47.27-.41.75.13,1.07l5.85,3.38A2.06,2.06,0,0,0,171.36,158.21Z"/><path class="cls-10" d="M180.43,153l5.9-3.41c.47-.27.41-.75-.13-1.07l-5.85-3.38a2.06,2.06,0,0,0-1.85-.08l-5.9,3.41c-.47.27-.41.75.13,1.07l5.85,3.38A2.06,2.06,0,0,0,180.43,153Z"/><path class="cls-10" d="M189.5,147.74l5.9-3.41c.47-.27.41-.75-.13-1.07l-5.85-3.38a2.06,2.06,0,0,0-1.85-.08l-5.9,3.41c-.47.27-.41.75.13,1.07l5.85,3.38A2.06,2.06,0,0,0,189.5,147.74Z"/><path class="cls-10" d="M180.17,142.35l5.9-3.41c.47-.27.41-.75-.13-1.07L184,136.76a2.06,2.06,0,0,0-1.85-.08l-5.9,3.41c-.47.27-.41.75.13,1.07l1.93,1.12A2.06,2.06,0,0,0,180.17,142.35Z"/><path class="cls-10" d="M168.33,149.19l5.9-3.41c.47-.27.41-.75-.13-1.07l-1.93-1.12a2.06,2.06,0,0,0-1.85-.08l-5.9,3.41c-.47.27-.41.75.13,1.07l1.93,1.12A2.06,2.06,0,0,0,168.33,149.19Z"/><path class="cls-10" d="M159.3,154.4l5.9-3.41c.47-.27.41-.75-.13-1.07l-1.93-1.12a2.06,2.06,0,0,0-1.85-.08l-5.9,3.41c-.47.27-.41.75.13,1.07l1.93,1.12A2.06,2.06,0,0,0,159.3,154.4Z"/><path class="cls-10" d="M150.27,159.62l5.9-3.41c.47-.27.41-.75-.13-1.07L154.1,154a2.06,2.06,0,0,0-1.85-.08l-5.9,3.41c-.47.27-.41.75.13,1.07l1.93,1.12A2.06,2.06,0,0,0,150.27,159.62Z"/><path class="cls-10" d="M141.23,164.84l5.9-3.41c.47-.27.41-.75-.13-1.07l-1.93-1.12a2.06,2.06,0,0,0-1.85-.08l-5.9,3.41c-.47.27-.41.75.13,1.07l1.93,1.12A2.06,2.06,0,0,0,141.23,164.84Z"/><path class="cls-10" d="M90.8,194l5.9-3.41c.47-.27.41-.75-.13-1.07l-1.93-1.12a2.06,2.06,0,0,0-1.85-.08l-5.9,3.41c-.47.27-.41.75.13,1.07L89,193.88A2.06,2.06,0,0,0,90.8,194Z"/><path class="cls-10" d="M81.77,199.17l5.9-3.41c.47-.27.41-.75-.13-1.07l-1.93-1.12a2.06,2.06,0,0,0-1.85-.08l-5.9,3.41c-.47.27-.41.75.13,1.07l1.93,1.12A2.06,2.06,0,0,0,81.77,199.17Z"/><path class="cls-10" d="M72.73,204.38l5.9-3.41c.47-.27.41-.75-.13-1.07l-1.93-1.12a2.06,2.06,0,0,0-1.85-.08l-5.9,3.41c-.47.27-.41.75.13,1.07l1.93,1.12A2.06,2.06,0,0,0,72.73,204.38Z"/><path class="cls-10" d="M63.7,209.6l5.9-3.41c.47-.27.41-.75-.13-1.07L67.54,204a2.06,2.06,0,0,0-1.85-.08l-5.9,3.41c-.47.27-.41.75.13,1.07l1.93,1.12A2.06,2.06,0,0,0,63.7,209.6Z"/><path class="cls-10" d="M153.17,168.72l5.9-3.41c.47-.27.41-.75-.13-1.07l-5.85-3.38a2.06,2.06,0,0,0-1.85-.08l-5.9,3.41c-.47.27-.41.75.13,1.07l5.85,3.38A2.06,2.06,0,0,0,153.17,168.72Z"/><path class="cls-10" d="M144.05,174l5.9-3.41c.47-.27.41-.75-.13-1.07L144,166.13a2.06,2.06,0,0,0-1.85-.08l-5.9,3.41c-.47.27-.41.75.13,1.07l5.85,3.38A2.06,2.06,0,0,0,144.05,174Z"/><path class="cls-10" d="M134.94,179.24l5.9-3.41c.47-.27.41-.75-.13-1.07l-5.85-3.38a2.06,2.06,0,0,0-1.85-.08l-5.9,3.41c-.47.27-.41.75.13,1.07l5.85,3.38A2.06,2.06,0,0,0,134.94,179.24Z"/><path class="cls-10" d="M125.82,184.51l5.9-3.41c.47-.27.41-.75-.13-1.07l-5.85-3.38a2.06,2.06,0,0,0-1.85-.08L118,180c-.47.27-.41.75.13,1.07l5.85,3.38A2.06,2.06,0,0,0,125.82,184.51Z"/><path class="cls-10" d="M116.7,189.77l5.9-3.41c.47-.27.41-.75-.13-1.07l-5.85-3.38a2.06,2.06,0,0,0-1.85-.08l-5.9,3.41c-.47.27-.41.75.13,1.07l5.85,3.38A2.06,2.06,0,0,0,116.7,189.77Z"/><path class="cls-10" d="M107.59,195l5.9-3.41c.47-.27.41-.75-.13-1.07l-5.85-3.38a2.06,2.06,0,0,0-1.85-.08l-5.9,3.41c-.47.27-.41.75.13,1.07l5.85,3.38A2.06,2.06,0,0,0,107.59,195Z"/><path class="cls-10" d="M98.47,200.3l5.9-3.41c.47-.27.41-.75-.13-1.07l-5.85-3.38a2.06,2.06,0,0,0-1.85-.08l-5.9,3.41c-.47.27-.41.75.13,1.07l5.85,3.38A2.06,2.06,0,0,0,98.47,200.3Z"/><path class="cls-10" d="M89.35,205.56l5.9-3.41c.47-.27.41-.75-.13-1.07l-5.85-3.38a2.06,2.06,0,0,0-1.85-.08L81.52,201c-.47.27-.41.75.13,1.07l5.85,3.38A2.06,2.06,0,0,0,89.35,205.56Z"/><path class="cls-10" d="M80.24,210.82l5.9-3.41c.47-.27.41-.75-.13-1.07L80.16,203a2.06,2.06,0,0,0-1.85-.08l-5.9,3.41c-.47.27-.41.75.13,1.07l5.85,3.38A2.06,2.06,0,0,0,80.24,210.82Z"/><path class="cls-10" d="M205.29,169.37l17.39-10c.47-.27.41-.75-.13-1.07l-5.85-3.38a2.06,2.06,0,0,0-1.85-.08l-17.39,10c-.47.27-.41.75.13,1.07l5.85,3.38A2.06,2.06,0,0,0,205.29,169.37Z"/><path class="cls-10" d="M93.29,234l17.39-10c.47-.27.41-.75-.13-1.07l-5.85-3.38a2.06,2.06,0,0,0-1.85-.08l-17.39,10c-.47.27-.41.75.13,1.07L91.44,234A2.06,2.06,0,0,0,93.29,234Z"/><path class="cls-10" d="M129.75,224.61l5.9-3.41c.47-.27.41-.75-.13-1.07l-7-4a2.06,2.06,0,0,0-1.85-.08l-5.9,3.41c-.47.27-.41.75.13,1.07l7,4A2.06,2.06,0,0,0,129.75,224.61Z"/><path class="cls-10" d="M196,186.38l9.44-5.45c.47-.27.41-.75-.13-1.07l-7-4a2.06,2.06,0,0,0-1.85-.08L187,181.21c-.47.27-.41.75.13,1.07l7,4A2.06,2.06,0,0,0,196,186.38Z"/><path class="cls-10" d="M138.53,219.53l9.44-5.45c.47-.27.41-.75-.13-1.07l-7-4a2.06,2.06,0,0,0-1.85-.08l-9.44,5.45c-.47.27-.41.75.13,1.07l7,4A2.06,2.06,0,0,0,138.53,219.53Z"/><path class="cls-10" d="M182.8,194l9.44-5.45c.47-.27.41-.75-.13-1.07l-7-4a2.06,2.06,0,0,0-1.85-.08l-9.44,5.45c-.47.27-.41.75.13,1.07l7,4A2.06,2.06,0,0,0,182.8,194Z"/><path class="cls-10" d="M183.23,183.39l-41,23.7a.56.56,0,0,0,0,1.06l7.11,4.1a2,2,0,0,0,1.84,0l41-23.7Z"/><path class="cls-10" d="M104.27,234.15l-6.58,3.8c-.39.22-.34.62.11.88l2.85,1.65a1.68,1.68,0,0,0,1.52.06l6.58-3.8c.39-.22.34-.62-.11-.88l-2.85-1.65A1.68,1.68,0,0,0,104.27,234.15Z"/><path class="cls-10" d="M113.46,228.84l-6.58,3.8c-.39.22-.34.62.11.88l2.85,1.65a1.68,1.68,0,0,0,1.52.06l6.58-3.8c.39-.22.34-.62-.11-.88L115,228.9A1.68,1.68,0,0,0,113.46,228.84Z"/><path class="cls-10" d="M122.58,223.58l-6.58,3.8c-.39.22-.34.62.11.88L119,229.9a1.68,1.68,0,0,0,1.52.06l6.58-3.8c.39-.22.34-.62-.11-.88l-2.85-1.65A1.68,1.68,0,0,0,122.58,223.58Z"/><path class="cls-10" d="M108.43,225.93l-6.58,3.8c-.39.22-.34.62.11.88l2.85,1.65a1.68,1.68,0,0,0,1.52.06l6.58-3.8c.39-.22.34-.62-.11-.88L109.94,226A1.68,1.68,0,0,0,108.43,225.93Z"/><polygon class="cls-9" points="72.42 123.23 121.52 94.88 120.89 91.69 71.78 120.04 72.42 123.23"/><polygon class="cls-9" points="90 128.62 124.28 108.83 123.65 105.64 89.37 125.43 90 128.62"/><polygon class="cls-5" points="93.25 118.97 122.9 101.85 122.27 98.66 92.61 115.78 93.25 118.97"/><polygon class="cls-2" points="73.8 130.21 88.62 121.64 87.99 118.45 73.16 127.01 73.8 130.21"/><polygon class="cls-9" points="126.75 67.03 141.58 58.47 140.95 55.27 126.12 63.84 126.75 67.03"/><polygon class="cls-5" points="128.36 74.45 143.19 65.89 142.56 62.69 127.73 71.25 128.36 74.45"/><polygon class="cls-9" points="55.59 177.35 70.41 168.79 69.78 165.6 54.95 174.16 55.59 177.35"/><polygon class="cls-9" points="131.58 89.28 146.41 80.72 145.77 77.53 130.95 86.09 131.58 89.28"/><path class="cls-2" d="M99.54,91.58a1.85,1.85,0,0,0,2.67.82,2.32,2.32,0,0,0,1-2.91,1.85,1.85,0,0,0-2.67-.82A2.32,2.32,0,0,0,99.54,91.58Z"/><path class="cls-5" d="M93.15,95.27a1.85,1.85,0,0,0,2.67.82,2.32,2.32,0,0,0,1-2.91,1.85,1.85,0,0,0-2.67-.82A2.32,2.32,0,0,0,93.15,95.27Z"/><path class="cls-9" d="M86.77,99a1.85,1.85,0,0,0,2.67.82,2.32,2.32,0,0,0,1-2.91A1.85,1.85,0,0,0,87.72,96,2.32,2.32,0,0,0,86.77,99Z"/><path class="cls-2" d="M80.38,102.64a1.85,1.85,0,0,0,2.67.82,2.32,2.32,0,0,0,1-2.91,1.85,1.85,0,0,0-2.67-.82A2.32,2.32,0,0,0,80.38,102.64Z"/><path class="cls-1" d="M15.9,306.41a8,8,0,0,1,7.19,0L115.83,360c2,1.15,2,3,0,4.15a8,8,0,0,1-7.19,0L15.9,310.56C13.92,309.41,13.92,307.55,15.9,306.41Z"/><path class="cls-9" d="M.06,277.39h0a.41.41,0,0,1,.44-.19l5.61,1.22-2.21,3.76L.1,277.87A.41.41,0,0,1,.06,277.39Z"/><path class="cls-10" d="M2.27,280.17A2.8,2.8,0,0,1,3.55,278a.92.92,0,0,1,.84-.1,35.83,35.83,0,0,1,18.45,4.94l.4.24-7,11.85-2.06-1.36A35.83,35.83,0,0,1,3.47,282.39L2.59,281A.92.92,0,0,1,2.27,280.17Z"/><path class="cls-9" d="M14.88,291.75a10.75,10.75,0,0,1,4.93-8.38c2.7-1.53,4.86-.26,4.84,2.84a10.75,10.75,0,0,1-4.93,8.38C17,296.12,14.86,294.85,14.88,291.75Z"/><polygon class="cls-9" points="57.63 320.67 16.28 294.9 23.25 283.05 65.87 306.66 57.63 320.67"/><path class="cls-9" d="M56,316.94A12.7,12.7,0,0,1,61.8,307c3.19-1.81,5.75-.3,5.72,3.36a12.7,12.7,0,0,1-5.82,9.9C58.51,322.1,56,320.6,56,316.94Z"/><path class="cls-9" d="M58.34,318.32a12.7,12.7,0,0,1,5.82-9.9c3.19-1.81,5.75-.3,5.72,3.36a12.7,12.7,0,0,1-5.82,9.9C60.87,323.49,58.31,322,58.34,318.32Z"/><rect class="cls-9" x="83.34" y="299.4" width="16.25" height="63.46" transform="translate(-240.35 242.19) rotate(-59.55)"/><path class="cls-9" d="M113.05,350.48a12.7,12.7,0,0,1,5.82-9.9c3.19-1.81,5.75-.3,5.72,3.36a12.7,12.7,0,0,1-5.82,9.9C115.58,355.65,113,354.15,113.05,350.48Z"/><path class="cls-7" d="M115.12,349.31a8.39,8.39,0,0,1,3.93-6c2-1.16,3.6-.35,3.48,1.81a8.39,8.39,0,0,1-3.93,6C116.55,352.29,115,351.47,115.12,349.31Z"/><path class="cls-5" d="M55.56,316.69a12.7,12.7,0,0,1,5.82-9.9,4.49,4.49,0,0,1,3.41-.64c-1-1.08-2.73-1.21-4.66-.11a12.7,12.7,0,0,0-5.82,9.9c0,2.19.89,3.6,2.3,4A4.54,4.54,0,0,1,55.56,316.69Z"/><path class="cls-10" d="M55.56,316.69a12.7,12.7,0,0,1,5.82-9.9c1.59-.9,3-1,4.07-.37l3.1,1.82-1.48,2.51a13,13,0,0,1-5.28,9l-1.48,2.51-3.1-1.82h0C56.18,319.82,55.55,318.52,55.56,316.69Z"/><path class="cls-9" d="M58.66,318.51a12.7,12.7,0,0,1,5.82-9.9c3.19-1.81,5.75-.3,5.72,3.36a12.7,12.7,0,0,1-5.82,9.9C61.2,323.68,58.64,322.18,58.66,318.51Z"/><path class="cls-2" d="M117.69,350.94l3.55-6,11.6,6.82a3.5,3.5,0,0,1,1.25,4.8h0a3.5,3.5,0,0,1-4.8,1.25Z"/><path class="cls-2" d="M117,349.33a5.48,5.48,0,0,1,2.51-4.27c1.38-.78,2.48-.13,2.47,1.45a5.48,5.48,0,0,1-2.51,4.27C118.07,351.56,117,350.91,117,349.33Z"/><path class="cls-10" d="M104.09,328l1.74-1a3.7,3.7,0,0,1,3.72.4l6,3.5a4.54,4.54,0,0,1,2,3.57l0,3a2.45,2.45,0,0,0,.6,1.5l-.22,1.38,1.49-.85h0a.76.76,0,0,0,.35-.73l0-3a9.46,9.46,0,0,0-4.22-7.43l-6-3.5c-2-1.17-3.87-1.37-5.29-.57l-1.74,1a3.7,3.7,0,0,1-3.72-.4l-24-14.12a.77.77,0,0,0-.79-.08h0l-1.48.85,1.27.49a2.45,2.45,0,0,0,1,1.31l24,14.12C100.79,328.6,102.67,328.8,104.09,328Z"/><path class="cls-10" d="M104.32,327.87a3.7,3.7,0,0,1,3.72.4l6,3.5a4.54,4.54,0,0,1,2,3.57l0,3a2.46,2.46,0,0,0,1.1,1.93c.61.36,1.11.08,1.12-.63l0-3A9.46,9.46,0,0,0,114,329.2l-6-3.5c-2-1.17-3.87-1.37-5.29-.57l-1.74,1a3.7,3.7,0,0,1-3.72-.4l-24-14.12c-.61-.36-1.11-.08-1.12.63a2.46,2.46,0,0,0,1.1,1.93l24,14.12c2,1.17,3.87,1.37,5.29.57Z"/><path class="cls-5" d="M116.1,335.83l0,3s0,0,0,.06a1.92,1.92,0,0,1-.08-.55l0-3c0-.08,0-.17,0-.26A3.37,3.37,0,0,1,116.1,335.83Z"/><path class="cls-1" d="M336.24,297.38a11.67,11.67,0,0,1-1.45,3.06c7.61,6.41,6.5,15.24-3.37,20.94-11.14,6.43-29.19,6.43-40.33,0-8.21-4.74-10.36-11.65-6.47-17.53a16.5,16.5,0,0,1-2.78-3c-7.1,6.89-6.31,15.74,2.36,22.2L275,328.46c-3.48-1.24-7.79-1.15-10.44.38l-33.59,19.39c-3.18,1.83-2.78,5,.89,7.16s9.22,2.35,12.4.51l33.59-19.39c2.41-1.39,2.76-3.57,1.19-5.47l9.32-5.46c13.45,7.06,34.25,6.86,47.24-.64C348.7,317.35,348.93,305.13,336.24,297.38Z"/><path class="cls-11" d="M332.53,279.88c-12.14-7-31.82-7-44,0-5,2.91-8,6.56-8.83,10.34.76,3.34,3.14,6.57,7.14,9.28a25.41,25.41,0,0,1,3.39-2.33c12.14-7,31.82-7,44,0,.6.35,1.16.7,1.7,1.07a14.8,14.8,0,0,0,5.43-8C340.5,286.44,337.56,282.79,332.53,279.88Z"/><path class="cls-3" d="M279,295.82l4.74-6.18,14.4-6.69,12.41-1.1,14.53,1.78,10.08,5.21,6.44,4.11,1.16-6.69-2.17-7.71s-5.51-3.64-5.85-4-12.88-4.83-12.88-4.83l-12.54-.85-10.08,1.27-10.25,3-6.78,4.74-5.08,6.44-.57,8Z"/><polygon class="cls-3" points="346.24 287.88 346.24 300.9 342.75 295.26 346.24 287.88"/><path class="cls-3" d="M288.56,288.55c12.14-7,31.82-7,44,0a19.3,19.3,0,0,1,7.85,7.64c1.07-1,2.45-1.71,3-3a24.49,24.49,0,0,0-7.61-6.52c-13.94-8-36.54-8-50.47,0a25.26,25.26,0,0,0-7.15,5.9,10.67,10.67,0,0,0,2.55,3.63A19.29,19.29,0,0,1,288.56,288.55Z"/><path class="cls-11" d="M332.53,279.88c-12.14-7-31.82-7-44,0-5,2.91-8,6.56-8.83,10.34.86,3.78,3.8,7.44,8.83,10.34,12.14,7,31.82,7,44,0,5-2.91,8-6.56,8.83-10.34C340.5,286.44,337.56,282.79,332.53,279.88Z"/><path class="cls-3" d="M343.4,293.19a4.31,4.31,0,0,1-1.08,1.41v-.14l-3.22,1.92-4,3.67-5.48,2.43-7.57,2.71-6.72,1.58-9.26.4-6-.62-11.86-3.11-7.73-6.83c.06-.14.11-.28.18-.41a10.67,10.67,0,0,1-2.55-3.63c-.21.26-.41.52-.6.79l-2.71-5.64v13.53h0c0,5.28,3.47,10.56,10.45,14.58,13.94,8,36.54,8,50.47,0C346.38,309.7,348.91,300.7,343.4,293.19Z"/><path class="cls-2" d="M283.31,299.08l-2.79-2.46c.06-.14.11-.28.18-.41a10.67,10.67,0,0,1-2.55-3.63c-.21.26-.41.52-.6.79l-2.71-5.64v13.53h0c0,4.74,2.82,9.49,8.45,13.32Z"/><path class="cls-2" d="M335.78,273.31c-13.94-8-36.54-8-50.47,0s-13.94,21.09,0,29.14,36.54,8,50.47,0S349.72,281.35,335.78,273.31Zm-3.25,27.26c-12.14,7-31.82,7-44,0s-12.14-18.37,0-25.38,31.82-7,44,0S344.67,293.56,332.53,300.57Z"/><polygon class="cls-9" points="261.96 317.21 281.75 305.7 284.38 309.96 264.5 321.54 261.96 317.21"/><path class="cls-6" d="M265,320.4c0,1.13-.79,1.59-1.77,1a3.92,3.92,0,0,1-1.77-3.07c0-1.13.79-1.59,1.77-1A3.92,3.92,0,0,1,265,320.4Z"/><path class="cls-6" d="M265,320.4c0,1.13-.79,1.59-1.77,1a3.92,3.92,0,0,1-1.77-3.07c0-1.13.79-1.59,1.77-1A3.92,3.92,0,0,1,265,320.4Z"/><path class="cls-9" d="M284.79,308.89c0,1.13-.79,1.59-1.77,1a3.92,3.92,0,0,1-1.77-3.07c0-1.13.79-1.59,1.77-1A3.92,3.92,0,0,1,284.79,308.89Z"/><path class="cls-10" d="M274.74,321.24A16.86,16.86,0,0,0,267.11,308c-2.16-1.25-4.1-1.33-5.49-.47h0l-41.82,24.31,10.93,18.6,41.38-24.09a3.63,3.63,0,0,0,.8-.46l0,0h0A5.68,5.68,0,0,0,274.74,321.24Z"/><path class="cls-9" d="M222.82,337l46.81-27a12.75,12.75,0,0,0-2.52-2c-2.16-1.25-4.1-1.33-5.49-.47h0l-41.82,24.31Z"/><path class="cls-9" d="M232.89,345.56c0,4.87-3.42,6.84-7.63,4.4a16.86,16.86,0,0,1-7.63-13.22c0-4.87,3.42-6.84,7.63-4.4A16.86,16.86,0,0,1,232.89,345.56Z"/><circle class="cls-10" cx="221.72" cy="343.29" r="4.97"/><circle class="cls-5" cx="219.35" cy="341.46" r="1.47"/><path class="cls-5" d="M225.82,332c-2.25-1.3-4.27-1.33-5.67-.34,1.35-.63,3.14-.47,5.11.67a16.86,16.86,0,0,1,7.63,13.22c0,2.26-.74,3.89-2,4.75,1.54-.72,2.52-2.48,2.52-5.07A16.86,16.86,0,0,0,225.82,332Z"/><path class="cls-5" d="M332.53,275.19c-12.14-7-31.82-7-44,0-6.32,3.65-9.34,8.48-9.08,13.26.24-4.4,3.26-8.76,9.08-12.12,12.14-7,31.82-7,44,0,5.82,3.36,8.84,7.72,9.08,12.12C341.87,283.67,338.85,278.84,332.53,275.19Z"/><path class="cls-5" d="M335.78,302.45c-13.94,8-36.54,8-50.47,0-6.72-3.88-10.19-8.92-10.43-14-.26,5.46,3.21,11,10.43,15.14,13.94,8,36.54,8,50.47,0,7.22-4.17,10.69-9.68,10.43-15.14C346,293.53,342.5,298.57,335.78,302.45Z"/><path class="cls-2" d="M217,275.34s3.75-1.89,6.05.92,5.59,9.46,5.7,14-3.55,4.19-5.73,3.13-8.52-10.27-8.91-12.08.45-4.24,1.06-4.72S217,275.34,217,275.34Z"/><path class="cls-9" d="M216.2,274.44l-.17,3.88a2.2,2.2,0,0,0,1.1,2,4.32,4.32,0,0,0,2.89.45c2.82-.45,3.08-1.26,3.28-5.14S216.2,274.44,216.2,274.44Z"/><path class="cls-2" d="M230.75,267.87s3.75-1.89,6.05.92,5.59,9.46,5.7,14-3.55,4.19-5.73,3.13-8.52-10.27-8.91-12.08.45-4.24,1.06-4.72S230.75,267.87,230.75,267.87Z"/><path class="cls-9" d="M229.93,267l-.17,3.88a2.2,2.2,0,0,0,1.1,2,4.32,4.32,0,0,0,2.89.45c2.82-.45,3.08-1.26,3.28-5.14S229.93,267,229.93,267Z"/><path class="cls-6" d="M196.47,195.65c1.11-18.06,19.56,2.66,19.56,2.66l12.62,12.37L240,223.17a11.2,11.2,0,0,1,2.82,9l-4.6,35a3.44,3.44,0,0,1-3.45,3,11.7,11.7,0,0,1-1.7-.15,4.28,4.28,0,0,1-3.8-4.54l.84-32.75-23.87-14.39S195.36,213.7,196.47,195.65Z"/><path class="cls-6" d="M182.74,202.53c1.11-18.06,19.56,2.66,19.56,2.66l12.62,12.37L226.29,230a11.21,11.21,0,0,1,2.82,9l-4.6,35a3.44,3.44,0,0,1-3.45,3,11.7,11.7,0,0,1-1.7-.15,4.28,4.28,0,0,1-3.8-4.54l.82-31.81-23.85-15.33S181.64,220.58,182.74,202.53Z"/><path class="cls-2" d="M193.66,144.56c-14,5.8-13.7,14.06-13.7,14.06s2.74,30.31,1.8,50.54c-.39,8.46,45,9.11,38.19-13.47-8-26.61-5-48.16-8.72-51.41S197.27,143.06,193.66,144.56Z"/><ellipse class="cls-12" cx="196.14" cy="150.09" rx="7.21" ry="5.31" transform="translate(-31.24 53.67) rotate(-14.44)"/><path class="cls-5" d="M191.89,155.62a5.34,5.34,0,0,1-3.38-3.56c-.82-3.19,1.93-6.67,6.14-7.75s8.3.63,9.12,3.82a5.35,5.35,0,0,1-1.24,4.75,9.3,9.3,0,0,1-4.9,3,10.28,10.28,0,0,1-2.55.33A8.55,8.55,0,0,1,191.89,155.62Zm3.09-10c-3.49.9-5.82,3.65-5.18,6.13h0a4,4,0,0,0,2.58,2.66A8.48,8.48,0,0,0,201.5,152a4,4,0,0,0,1-3.57c-.5-1.94-2.67-3.15-5.27-3.15A8.93,8.93,0,0,0,195,145.6Z"/><path class="cls-12" d="M199.26,143.93a34.49,34.49,0,0,0,.12,5c.08,1.39-4.8,2.69-6.06,1.43s-.76-2.57-1.06-7.31S199.26,143.93,199.26,143.93Z"/><path class="cls-13" d="M192.26,143s1.2,4.4,7.12,6.08l-.09-4Z"/><circle class="cls-12" cx="198.93" cy="134.57" r="10.76" transform="translate(18.85 293.49) rotate(-75.5)"/><path class="cls-13" d="M196.46,135s5.93,2.54,10,2.57,3.2-3.41,3.2-3.41l-12.18-1.76Z"/><path class="cls-9" d="M207.71,135.63s-5.16-2.19-9.69-1.28a4.75,4.75,0,0,0-2.74,1.63,1.62,1.62,0,0,1-.83.6c-.8.18-2.12-3.15-3.68-3.23s-2.6,1-1.32,3.08.85,4.34.26,4.67-7.88-4.76-2.37-15.67,20.55-4.73,22.73-2.52c0,0,2.29,2,4.16.22C214.23,123.13,216.32,138.79,207.71,135.63Z"/><path class="cls-12" d="M187.8,180.77V189a3.34,3.34,0,0,0,1.09,2.47l16.82,15.34-1.91,2.92-23.18-15.2a4.52,4.52,0,0,1-1.84-3.18l-1.58-15.2Z"/><path class="cls-2" d="M181.14,154.53s-5.1,7.68-7,27.88c0,0,8.72,2.82,13.67,1.22S181.14,154.53,181.14,154.53Z"/><path class="cls-3" d="M188.73,164.24s2,10.69,2.11,15.72a3.21,3.21,0,0,1-2.11,3.1h0Z"/><path class="cls-10" d="M193.09,217.41l3.72-.49,24-13.86a3.34,3.34,0,0,1,3,.12l17,9.82,2.25-.3v2.24h0a.88.88,0,0,1-.52.79l-27.2,15.7a3.34,3.34,0,0,1-3-.12l-18.52-10.69a1.21,1.21,0,0,1-.73-1h0Z"/><path class="cls-7" d="M211.13,208.65l1.71-1h18.75l9.24,5.33,2.25-.3v2.24h0a.88.88,0,0,1-.52.79l-27.2,15.7a2.81,2.81,0,0,1-1.55.29Z"/><path class="cls-10" d="M242.07,212.84l1-.13v2.24h0a.88.88,0,0,1-.52.79l-.48.28Z"/><path class="cls-10" d="M215.08,231.56a3.48,3.48,0,0,1-2.55-.16v-3.81h2.55Z"/><path class="cls-5" d="M215.35,229.2l27.2-15.7c.77-.44.67-1.22-.22-1.73l-18.52-10.69a3.34,3.34,0,0,0-3-.12l-27.2,15.7c-.77.44-.67,1.22.22,1.73l18.52,10.69A3.34,3.34,0,0,0,215.35,229.2Z"/><path class="cls-9" d="M215.81,226.82l22.62-13.06c.64-.37.56-1-.18-1.44l-9.93-5.58a2.77,2.77,0,0,0-2.5-.1l-22.62,13.06c-.64.37-.56,1,.18,1.44l9.92,5.58A2.77,2.77,0,0,0,215.81,226.82Z"/><path class="cls-12" d="M222.76,200.55l.28,1.88a13.88,13.88,0,0,1-.12,4.81l-.33,1.65a2.33,2.33,0,0,1-1.86,1.83h0a1.28,1.28,0,0,1-1.5-1.12l-.45-4s-1,1.35-1.52,1.35.55-4,1.68-6.29S222.76,200.55,222.76,200.55Z"/><path class="cls-12" d="M213.54,170.73l2.92,5.78a11.33,11.33,0,0,1,1.19,4.38l1.27,19.76,3.84-.09,1.74-22.19a8.12,8.12,0,0,0-.1-2.05l-2-11.25Z"/><path class="cls-6" d="M216.27,230.71l2.28-3,24-13.89a3.34,3.34,0,0,0,1.39-2.66l0-19.64,1.38-1.8L244,189h0a.88.88,0,0,0-.94.05l-27.18,15.74a3.34,3.34,0,0,0-1.39,2.66l0,21.38A1.21,1.21,0,0,0,215,230h0Z"/><path class="cls-7" d="M232.86,219.45l1.7-1,9.35-16.25V191.54l1.38-1.8L244,189h0a.88.88,0,0,0-.94.05l-27.18,15.74a2.81,2.81,0,0,0-1,1.2Z"/><path class="cls-10" d="M244.67,190.54l.61-.8L244,189h0a.88.88,0,0,0-.94.05l-.48.28Z"/><path class="cls-8" d="M215.62,205a3.48,3.48,0,0,0-1.14,2.29l2.66,1.53,1.27-2.21Z"/><path class="cls-10" d="M217.16,205.53l27.18-15.74c.77-.45,1.39,0,1.39,1.05l0,21.38a3.34,3.34,0,0,1-1.39,2.66l-27.18,15.74c-.77.45-1.39,0-1.39-1.05l0-21.38A3.34,3.34,0,0,1,217.16,205.53Z"/><path class="cls-12" d="M203.8,209.68l.44.9a6,6,0,0,0,2.27,2.52l2.7,1.66a2.69,2.69,0,0,0,2.76.06l.09-.06a1.62,1.62,0,0,0,.23-2.5l-2.82-2.9s1.59,1.21,2,.73-1.54-2.11-3-2.16a5.65,5.65,0,0,1-2.81-1.18Z"/><path class="cls-2" d="M211,144.25s10.34,11.25,14.52,21.58a21.12,21.12,0,0,1-12.19,8.87C204.61,177.2,211,144.25,211,144.25Z"/><path class="cls-3" d="M215.22,174l-1.68-16.19,4,15.17A22.63,22.63,0,0,1,215.22,174Z"/><path class="cls-5" d="M203.2,142l2.78-.76a6.71,6.71,0,0,1-3.26,2.62c-1.94.53-2.24-1.11-2.24-1.11Z"/><circle class="cls-5" cx="189.91" cy="137.53" r="1.55"/><path class="cls-1" d="M339.76,241.65c8.85,5.11,23.2,5.11,32,0s8.85-13.39,0-18.5-23.2-5.11-32,0S330.91,236.54,339.76,241.65Z"/><path class="cls-2" d="M330,221.21V214h1.37a16.46,16.46,0,0,1,6.18-5.78c10.07-5.81,26.39-5.81,36.46,0A16.46,16.46,0,0,1,380.2,214h1.36v7.2h0c0,3.82-2.5,7.65-7.55,10.56-10.07,5.81-26.39,5.81-36.46,0C332.52,228.83,330,225,330,221.21Z"/><path class="cls-2" d="M337.56,224.5c10.07,5.81,26.39,5.81,36.46,0s10.07-15.24,0-21.05-26.39-5.81-36.46,0S327.49,218.68,337.56,224.5Z"/><path class="cls-5" d="M337.55,224.5c10.07,5.81,26.39,5.81,36.46,0,4.83-2.79,7.31-6.4,7.51-10.05.22,4-2.27,8-7.51,11-10.07,5.81-26.39,5.81-36.46,0-5.24-3-7.73-7-7.51-11C330.24,218.09,332.73,221.71,337.55,224.5Z"/><path class="cls-5" d="M368.21,218.9a1.16,1.16,0,0,0,.68-.95l0-9.7c0-.74-1-1.34-2.32-1.34s-2.32.6-2.32,1.34l0,8-23.34-2.86c-1.25-.15-2.49.31-2.75,1s.54,1.44,1.79,1.59l26.15,3.2A3.68,3.68,0,0,0,368,219Z"/><path class="cls-3" d="M187.53,69.78,226,47.57a2.33,2.33,0,0,1,2.19-.16v0l4.59,2.16-2.73,1,5.55,28c.45,2.28-.57,4.93-2.28,5.91l-36.78,21.23.65,3.29-4.63-2.17h0a3.35,3.35,0,0,1-1.65-2.47L185.25,75.7C184.8,73.42,185.82,70.77,187.53,69.78Z"/><path class="cls-2" d="M199.51,108.83,238,86.62c1.71-1,2.73-3.63,2.28-5.91L234.6,52.1c-.45-2.28-2.2-3.33-3.91-2.34L192.2,72c-1.71,1-2.73,3.63-2.28,5.91l5.67,28.61C196,108.77,197.8,109.82,199.51,108.83Z"/><path class="cls-5" d="M191.33,71.63l38.48-22.21a2.3,2.3,0,0,1,2.53,0,2.44,2.44,0,0,0-1.65.32L192.2,72c-1.71,1-2.73,3.64-2.28,5.91l5.67,28.61a3.53,3.53,0,0,0,1.39,2.32,3,3,0,0,1-2.26-2.66L189,77.54C188.6,75.26,189.62,72.62,191.33,71.63Z"/><path class="cls-5" d="M221.61,76.76a2,2,0,0,0,3.19,1.5,4.51,4.51,0,0,0,2-4.5,2,2,0,0,0-3.19-1.5A4.51,4.51,0,0,0,221.61,76.76Z"/><path class="cls-5" d="M213.75,81.3a2,2,0,0,0,3.19,1.5,4.51,4.51,0,0,0,2-4.5,2,2,0,0,0-3.19-1.5A4.51,4.51,0,0,0,213.75,81.3Z"/><path class="cls-5" d="M205.88,85.84a2,2,0,0,0,3.19,1.5,4.51,4.51,0,0,0,2-4.5,2,2,0,0,0-3.19-1.5A4.51,4.51,0,0,0,205.88,85.84Z"/><path class="cls-10" d="M37.45,22.57,75.94.36A2.33,2.33,0,0,1,78.12.2v0L82.7,2.33,80,3.29l5.55,28c.45,2.28-.57,4.93-2.28,5.91L46.46,58.45l.65,3.29-4.63-2.17h0a3.35,3.35,0,0,1-1.65-2.47L35.17,28.49C34.72,26.21,35.74,23.56,37.45,22.57Z"/><path class="cls-9" d="M49.43,61.62,87.91,39.41c1.71-1,2.73-3.63,2.28-5.91L84.52,4.89c-.45-2.28-2.2-3.33-3.91-2.34L42.12,24.76c-1.71,1-2.73,3.63-2.28,5.91l5.67,28.61C46,61.56,47.72,62.61,49.43,61.62Z"/><path class="cls-5" d="M41.25,24.42,79.73,2.21a2.3,2.3,0,0,1,2.53,0,2.44,2.44,0,0,0-1.65.32L42.12,24.76c-1.71,1-2.73,3.64-2.28,5.91l5.67,28.61A3.53,3.53,0,0,0,46.9,61.6a3,3,0,0,1-2.26-2.66L39,30.33C38.52,28.05,39.54,25.4,41.25,24.42Z"/><path class="cls-5" d="M71.54,29.55a2,2,0,0,0,3.19,1.5,4.51,4.51,0,0,0,2-4.5,2,2,0,0,0-3.19-1.5A4.51,4.51,0,0,0,71.54,29.55Z"/><path class="cls-5" d="M63.67,34.09a2,2,0,0,0,3.19,1.5,4.51,4.51,0,0,0,2-4.5,2,2,0,0,0-3.19-1.5A4.51,4.51,0,0,0,63.67,34.09Z"/><path class="cls-5" d="M55.8,38.63A2,2,0,0,0,59,40.13a4.51,4.51,0,0,0,2-4.5,2,2,0,0,0-3.19-1.5A4.51,4.51,0,0,0,55.8,38.63Z"/><polygon class="cls-14" points="372.34 0.54 372.06 0.82 372.06 14.47 372.34 14.75 374.58 14.75 374.86 14.47 374.86 0.82 374.58 0.54 372.34 0.54"/><path class="cls-14" d="M384.09.25c-4.19,0-6.71,2.84-6.71,7.39S379.89,15,384.09,15s6.71-2.84,6.71-7.39S388.28.25,384.09.25Zm0,12.23c-2.52,0-3.92-1.71-3.92-4.83s1.4-4.83,3.92-4.83S388,4.52,388,7.65,386.6,12.48,384.09,12.48Z"/><path class="cls-14" d="M397,3.1H400l.28-.28v-2L400,.54h-8.39l-.28.28v2l.28.28h2l.28.28v7.68a3.61,3.61,0,0,0,3.91,3.7H400l.28-.28v-2L400,12.2h-2.24a1,1,0,0,1-1.12-1.14V3.38Z"/><polygon class="cls-14" points="365.98 0.54 365.7 0.82 365.7 14.47 365.98 14.75 368.22 14.75 368.5 14.47 368.5 0.82 368.22 0.54 365.98 0.54"/><path class="cls-14" d="M362.4.5c-4,0-6.46,2.74-6.46,7.11s2.42,7.11,6.46,7.11l1.78,0,.27-.27V12.55l-.25-.25s-1.11,0-1.8,0c-2.42,0-3.77-1.64-3.77-4.65S360,3,362.4,3h1.8l.25-.25V.79l-.27-.27Z"/><path class="cls-14" d="M349,.25a5,5,0,0,0-4.19,2h-.28a3.86,3.86,0,0,0-3.64-2l-1.31,0-.28.28v2l.28.28h1c1.78.2,2,1.53,2,3.1v8.53l.28.28H345l.28-.28v-8c0-2.27,1.12-3.7,3.08-3.7,2.24,0,2.52,1.42,2.52,3.13v8.53l.28.28h2.24l.28-.28V5.94C353.71,2.81,352.87.25,349,.25Z"/><polygon class="cls-14" points="335.56 0.54 335.28 0.82 335.28 14.47 335.56 14.75 337.8 14.75 338.08 14.47 338.08 0.82 337.8 0.54 335.56 0.54"/><polygon class="cls-2" points="351.27 23.72 351 23.94 351 34.53 351.27 34.75 353.44 34.75 353.7 34.53 353.7 23.94 353.44 23.72 351.27 23.72"/><polygon class="cls-2" points="335.6 25.61 335.33 25.83 335.33 32.64 335.6 32.86 337.76 32.86 338.03 32.64 338.03 25.83 337.76 25.61 335.6 25.61"/><polygon class="cls-2" points="372.38 26.2 372.11 26.42 372.11 32.05 372.38 32.27 374.54 32.27 374.81 32.05 374.81 26.42 374.54 26.2 372.38 26.2"/><polygon class="cls-2" points="366.01 22.47 365.74 22.74 365.74 35.73 366.01 36 368.18 36 368.45 35.73 368.45 22.74 368.18 22.47 366.01 22.47"/><polygon class="cls-2" points="394.25 24.86 393.98 25.03 393.98 33.44 394.25 33.61 396.42 33.61 396.69 33.44 396.69 25.03 396.42 24.86 394.25 24.86"/><polygon class="cls-2" points="342.86 22.47 342.59 22.74 342.59 35.73 342.86 36 345.03 36 345.3 35.73 345.3 22.74 345.03 22.47 342.86 22.47"/></g></g></svg>