<svg xmlns="http://www.w3.org/2000/svg" xmlns:xlink="http://www.w3.org/1999/xlink" viewBox="0 0 599 485.07"><defs><style>.cls-1{isolation:isolate;}.cls-2{fill:url(#linear-gradient);}.cls-3{fill:url(#linear-gradient-2);}.cls-4{fill:url(#linear-gradient-3);}.cls-5{fill:url(#linear-gradient-4);}.cls-6{fill:url(#linear-gradient-5);}.cls-7{fill:url(#linear-gradient-6);}.cls-8{fill:#1e0f35;}.cls-9{fill:url(#linear-gradient-7);}.cls-10,.cls-19,.cls-21,.cls-25,.cls-27,.cls-30,.cls-35,.cls-38,.cls-40,.cls-42{mix-blend-mode:multiply;}.cls-10{fill:url(#linear-gradient-8);}.cls-11{fill:#160c41;}.cls-12{fill:#4f2b78;}.cls-13{fill:url(#linear-gradient-9);}.cls-14,.cls-22{fill:#fff;}.cls-15{fill:#0baeda;}.cls-16{fill:#4f5251;}.cls-17{fill:url(#linear-gradient-10);}.cls-18{fill:url(#linear-gradient-11);}.cls-19,.cls-25,.cls-35{opacity:0.65;}.cls-19{fill:url(#linear-gradient-12);}.cls-20{fill:url(#linear-gradient-13);}.cls-21,.cls-27{opacity:0.32;}.cls-21{fill:url(#linear-gradient-14);}.cls-22,.cls-38,.cls-40,.cls-42{opacity:0.75;}.cls-22{mix-blend-mode:screen;}.cls-23{fill:url(#linear-gradient-15);}.cls-24{fill:url(#linear-gradient-16);}.cls-25{fill:url(#linear-gradient-17);}.cls-26{fill:url(#linear-gradient-18);}.cls-27{fill:url(#linear-gradient-19);}.cls-28{fill:#766b85;}.cls-29{fill:url(#linear-gradient-20);}.cls-30{fill:url(#linear-gradient-21);}.cls-31{fill:#010101;}.cls-32{fill:#ee1c56;}.cls-33{fill:#ad4d9d;}.cls-34{fill:url(#linear-gradient-22);}.cls-35{fill:url(#linear-gradient-23);}.cls-36{fill:url(#linear-gradient-24);}.cls-37{fill:url(#linear-gradient-25);}.cls-38{fill:url(#linear-gradient-26);}.cls-39{fill:url(#linear-gradient-27);}.cls-40{fill:url(#linear-gradient-28);}.cls-41{fill:url(#linear-gradient-29);}.cls-42{fill:url(#linear-gradient-30);}</style><linearGradient id="linear-gradient" x1="175.42" y1="404.29" x2="444.18" y2="41.91" gradientUnits="userSpaceOnUse"><stop offset="0.44" stop-color="#ffd841"/><stop offset="1" stop-color="#fdeaad"/></linearGradient><linearGradient id="linear-gradient-2" x1="201.68" y1="96.22" x2="96.97" y2="197.16" gradientUnits="userSpaceOnUse"><stop offset="0" stop-color="#76ced9"/><stop offset="1" stop-color="#739fd4"/></linearGradient><linearGradient id="linear-gradient-3" x1="245.47" y1="115.74" x2="150.73" y2="207.07" xlink:href="#linear-gradient-2"/><linearGradient id="linear-gradient-4" x1="111.58" y1="151.89" x2="57.77" y2="203.76" xlink:href="#linear-gradient-2"/><linearGradient id="linear-gradient-5" x1="251.2" y1="185.93" x2="179.08" y2="255.45" xlink:href="#linear-gradient-2"/><linearGradient id="linear-gradient-6" x1="76.87" y1="196.64" x2="36.39" y2="235.67" xlink:href="#linear-gradient-2"/><linearGradient id="linear-gradient-7" x1="145.24" y1="328.4" x2="145.24" y2="387.6" gradientUnits="userSpaceOnUse"><stop offset="0" stop-color="#b256a1"/><stop offset="0.91" stop-color="#6f4fa0"/></linearGradient><linearGradient id="linear-gradient-8" x1="138.54" y1="328.4" x2="138.54" y2="387.6" xlink:href="#linear-gradient-7"/><linearGradient id="linear-gradient-9" x1="748.02" y1="133.25" x2="660.55" y2="343.16" gradientTransform="matrix(-1, 0, 0, 1, 1047.69, 0)" gradientUnits="userSpaceOnUse"><stop offset="0" stop-color="#f1eef7"/><stop offset="0.4" stop-color="#e7e2f1"/><stop offset="0.73" stop-color="#e5e0f0"/><stop offset="0.91" stop-color="#ddd8ec"/><stop offset="1" stop-color="#d5d0e8"/></linearGradient><linearGradient id="linear-gradient-10" x1="289.6" y1="319.7" x2="226.47" y2="363.98" gradientTransform="matrix(1, 0, 0, 1, 0, 0)" xlink:href="#linear-gradient-9"/><linearGradient id="linear-gradient-11" x1="266.2" y1="294.8" x2="266.2" y2="379.68" gradientUnits="userSpaceOnUse"><stop offset="0" stop-color="#593e98"/><stop offset="1" stop-color="#6dccdf"/></linearGradient><linearGradient id="linear-gradient-12" x1="271.72" y1="290.07" x2="207.66" y2="335.01" gradientUnits="userSpaceOnUse"><stop offset="0.56" stop-color="#867bb0"/><stop offset="1" stop-color="#d5d0e8"/></linearGradient><linearGradient id="linear-gradient-13" x1="273.84" y1="285.12" x2="252.91" y2="299.8" gradientTransform="matrix(1, 0, 0, 1, 0, 0)" xlink:href="#linear-gradient-9"/><linearGradient id="linear-gradient-14" x1="273.56" y1="286.51" x2="253.72" y2="300.43" xlink:href="#linear-gradient-12"/><linearGradient id="linear-gradient-15" x1="248.56" y1="318.3" x2="160.04" y2="380.39" gradientTransform="matrix(1, 0, 0, 1, 0, 0)" xlink:href="#linear-gradient-9"/><linearGradient id="linear-gradient-16" x1="240.68" y1="328.37" x2="192.84" y2="334.31" gradientUnits="userSpaceOnUse"><stop offset="0" stop-color="#6dccdf"/><stop offset="0.52" stop-color="#d274ae"/><stop offset="1" stop-color="#fab9aa"/></linearGradient><linearGradient id="linear-gradient-17" x1="222.09" y1="280.57" x2="133.58" y2="342.66" xlink:href="#linear-gradient-12"/><linearGradient id="linear-gradient-18" x1="227.08" y1="273.1" x2="206.16" y2="287.78" gradientTransform="matrix(1, 0, 0, 1, 0, 0)" xlink:href="#linear-gradient-9"/><linearGradient id="linear-gradient-19" x1="226.8" y1="274.49" x2="206.96" y2="288.41" xlink:href="#linear-gradient-12"/><linearGradient id="linear-gradient-20" x1="438.01" y1="452.86" x2="396.52" y2="492.85" gradientTransform="matrix(1, 0, 0, 1, -32.95, -124.4)" xlink:href="#linear-gradient-2"/><linearGradient id="linear-gradient-21" x1="376.61" y1="458.38" x2="347.46" y2="486.47" gradientTransform="translate(209.32 -219.77) rotate(20.93)" xlink:href="#linear-gradient-2"/><linearGradient id="linear-gradient-22" x1="808.29" y1="204.24" x2="808.29" y2="243.1" gradientTransform="matrix(-1, 0, 0, 1, 1290.7, 0)" xlink:href="#linear-gradient-2"/><linearGradient id="linear-gradient-23" x1="808.29" y1="202.69" x2="808.29" y2="241.55" gradientTransform="matrix(-1, 0, 0, 1, 1290.7, 0)" xlink:href="#linear-gradient-12"/><linearGradient id="linear-gradient-24" x1="500.41" y1="249.23" x2="477.61" y2="274.58" xlink:href="#linear-gradient-2"/><linearGradient id="linear-gradient-25" x1="793.08" y1="339.63" x2="793.08" y2="369.86" gradientTransform="matrix(-1, 0, 0, 1, 1290.7, 0)" xlink:href="#linear-gradient-7"/><linearGradient id="linear-gradient-26" x1="495" y1="248.87" x2="481.3" y2="279.98" gradientUnits="userSpaceOnUse"><stop offset="0" stop-color="#7557a5"/><stop offset="0.53" stop-color="#2b3f99"/><stop offset="1" stop-color="#282e6c"/></linearGradient><linearGradient id="linear-gradient-27" x1="803.03" y1="263.43" x2="755.3" y2="371.84" gradientTransform="matrix(-1, 0, 0, 1, 1290.7, 0)" xlink:href="#linear-gradient-7"/><linearGradient id="linear-gradient-28" x1="569.35" y1="226.4" x2="501.51" y2="380.5" gradientUnits="userSpaceOnUse"><stop offset="0" stop-color="#84499d"/><stop offset="1" stop-color="#7c439a"/></linearGradient><linearGradient id="linear-gradient-29" x1="526.08" y1="468.78" x2="106.96" y2="421.55" xlink:href="#linear-gradient-26"/><linearGradient id="linear-gradient-30" x1="523.91" y1="468.53" x2="106.9" y2="421.55" xlink:href="#linear-gradient-26"/></defs><title>nyc_OD</title><g class="cls-1"><g id="Layer_2" data-name="Layer 2"><g id="Layer_1-2" data-name="Layer 1"><path class="cls-2" d="M538.07,384.67H67.65s-114.88-20-45.22-111S-6.65,202.8,54.36,66.53C96.73-28.09,198.33-9.76,260.12,47,371.54,149.48,420.25,60.75,474,73.83s105.68,52.09,82.07,123.56S676.45,329.47,538.07,384.67Z"/><path class="cls-3" d="M122.35,155.78c1.35-8.6,8.1-15.82,8.54-24.51.51-10.09-7.63-19.94-4.46-29.53,1.91-5.78,7.38-9.48,11.34-14.1a31.39,31.39,0,0,0,7.5-20.38c0-2.72-.36-5.53.61-8.07,2.13-5.52,10.12-6.91,15-3.62s7,9.65,6.91,15.57-1.85,11.66-3,17.46-1.69,12,.68,17.46c2.86,6.55,9.57,11.07,11.53,17.94,4.06,14.25-14.29,27.9-10,42.09,2.43,8.11,12,14.8,9.21,22.81-2.42,7-13,8.85-14.79,16.08-.81,3.37.66,6.82,1.17,10.25,1.39,9.41-5.71,19.27-15.08,20.93S128.08,231,126.16,221.7c-2-9.74,3.95-19.41,3.9-29.35C130,179.78,120.4,168.2,122.35,155.78Z"/><path class="cls-4" d="M227,153.51a27.83,27.83,0,0,1-8.13,25.24c-4.52,4.23-10.6,7.08-13.52,12.53-3.48,6.5-1.37,14.62-3.46,21.69-1.4,4.73-4.6,8.69-7.72,12.52-3.74,4.58-8.92,9.67-14.62,8.09a10.58,10.58,0,0,1-6.12-5.36c-3.38-6.18-2.42-13.88,0-20.49s6.27-12.65,8.6-19.3c3.29-9.4,3.48-19.67,1.9-29.5-1.35-8.38-3.86-17.42-.05-25,2.16-4.31,6.08-7.46,8.72-11.49,4.46-6.84,4.84-15.57,8.32-23s13.17-13.38,19.58-8.33c4.49,3.54,4.51,10.42,2.74,15.86s-4.91,10.51-5.45,16.21C216.86,133.82,225,143.06,227,153.51Z"/><path class="cls-5" d="M122,229.48c0,10.36-12,18.77-21.74,15.28-3.21-1.15-6.14-3.48-7.25-6.7-1.31-3.82.07-8.25-1.58-11.93-2.18-4.87-8.58-6.32-11.73-10.62-5.48-7.49,1.3-19.29-3.94-26.95-2.74-4-7.87-5.44-12.11-7.81s-8.17-7.39-6-11.73c1.12-2.23,3.55-3.53,4.83-5.67,3.16-5.27-2-11.42-6.08-16-6-6.67-10.89-15.59-8.92-24.37S61.12,108,68,113.84c5.83,5,4.82,14.94,10.43,20.16,6.81,6.34,20,2.68,25.16,10.42,4.62,6.93-1.5,17.21,2.86,24.31,2,3.18,5.61,4.92,7.89,7.88,6.19,8-.31,19.57.83,29.64C116,214.32,122,221.36,122,229.48Z"/><path class="cls-6" d="M236.46,194.07c-2,7.35.12,15.09,1,22.65s-.17,16.36-6.34,20.82c-3.3,2.38-7.91,3.41-9.73,7-.94,1.88-.9,4.06-1.16,6.14-1.52,11.78-15.42,20.2-26.56,16.06s-16.13-19.66-9.46-29.5c6.2-9.16,19.7-12.68,23-23.23,1.46-4.63.55-9.63.49-14.48s1.13-10.33,5.26-12.88c1.69-1,3.77-1.52,5.11-3,1.68-1.83,1.66-4.6,2.43-7a10.36,10.36,0,0,1,20.13,1.89C241.31,184,237.87,188.88,236.46,194.07Z"/><path class="cls-7" d="M41.46,196.51c-.61-2.75-3-4.7-5-6.6a55.17,55.17,0,0,1-9.86-12c-2.82-4.64-5-10.12-3.81-15.42s6.94-9.77,12-7.88c8.66,3.22,5.07,17.41,11.44,24.09,5.06,5.31,14.27,3.73,20.17,8.09,7,5.15,6.18,15.49,6.07,24.15,0,2.72.1,5.57,1.47,7.92,3.24,5.55,11.33,5.6,16.31,9.66s5.92,11.51,5.6,18.05S94.45,260,97.06,266l-20.52-1.63c-7.25-.57-15.68-1.88-19.18-8.25-3.8-6.93.48-16.18-3.17-23.19-2.33-4.48-7.3-6.85-10.66-10.61a18.23,18.23,0,0,1-3.87-16.82C40.5,202.5,42.13,199.52,41.46,196.51Z"/><path class="cls-8" d="M148.2,328.83a1.64,1.64,0,0,1-1.52-2.26c2.63-6.49.8-13.5-1.14-20.92a75.65,75.65,0,0,1-2.47-12.21c-.6-6.81.81-13.53,2.17-20a85.15,85.15,0,0,0,2.25-15.23c.21-8.56-2.28-17.32-4.69-25.78-3.36-11.8-6.83-24-3.05-35.93,1.52-4.78,4.1-9.1,6.61-13.27,2.77-4.61,5.38-9,6.66-13.88,2.31-8.86-.05-17.89-2.54-27.44s-5-19.28-2.61-28.91a1.64,1.64,0,1,1,3.19.8c-2.22,8.82.12,17.78,2.6,27.28s5.07,19.41,2.55,29.1c-1.4,5.37-4.26,10.14-7,14.74-2.52,4.2-4.89,8.16-6.29,12.57-3.47,11-.29,22.18,3.08,34,2.47,8.7,5,17.69,4.81,26.76a87.63,87.63,0,0,1-2.32,15.83c-1.37,6.55-2.67,12.74-2.12,19.07a73.2,73.2,0,0,0,2.38,11.66c2,7.61,4,15.48,1,23A1.63,1.63,0,0,1,148.2,328.83Z"/><path class="cls-8" d="M145.59,327.7h-.18a1.64,1.64,0,0,1-1.45-1.81c.81-7.27,5.19-13.14,9.43-18.81,2.66-3.56,5.42-7.25,7.19-11.19,3.08-6.83,3.31-14.34,3.57-22.28.21-6.53.42-13.27,2.35-19.65a74.84,74.84,0,0,1,5.91-13.17c2.63-5,5.11-9.68,6.26-14.89.43-2,.67-4.1.91-6.14a42.14,42.14,0,0,1,1.91-9.78c1.46-4,4-7.51,6.52-10.91,3.53-4.82,6.86-9.36,6.71-14.74a27.54,27.54,0,0,0-1.43-6.83c-1.12-3.77-2.28-7.67-.89-11.63,1.09-3.14,3.47-5.31,5.78-7.41a32.61,32.61,0,0,0,3.28-3.28,14.77,14.77,0,0,0,.56-17.47,1.64,1.64,0,1,1,2.66-1.91,18.13,18.13,0,0,1-.69,21.46,34.7,34.7,0,0,1-3.61,3.63c-2.09,1.9-4.07,3.7-4.89,6.06-1,3-.07,6.19.94,9.61a30.06,30.06,0,0,1,1.56,7.67c.18,6.51-3.64,11.73-7.34,16.78-2.35,3.21-4.78,6.53-6.08,10.09a39,39,0,0,0-1.73,9,63.22,63.22,0,0,1-1,6.48c-1.24,5.65-3.95,10.77-6.56,15.72a73.09,73.09,0,0,0-5.67,12.59c-1.8,6-2,12.49-2.21,18.8-.25,7.92-.51,16.1-3.85,23.53-1.92,4.28-4.79,8.11-7.56,11.81-4.16,5.57-8.09,10.82-8.8,17.21A1.64,1.64,0,0,1,145.59,327.7Z"/><path class="cls-8" d="M148.18,330.33a1.64,1.64,0,0,1-.91-3c10.06-6.68,18.7-13,22.49-22.4a53.78,53.78,0,0,0,2.17-7.38c.51-2.09,1-4.24,1.75-6.34a36.05,36.05,0,0,1,13-17.39c.92-.66,1.88-1.29,2.84-1.91,3-1.94,5.8-3.77,7.32-6.57,1.7-3.14,1.43-6.93,1.14-10.93-.27-3.78-.55-7.69.83-11.37,1.94-5.17,6.47-8.3,10.85-11.32,3.9-2.7,7.59-5.24,9.42-9.06,1.91-4,1.43-8.56.93-13.4-.44-4.21-.89-8.56.24-12.75,1.23-4.58,4.22-8.37,6.85-11.72a1.64,1.64,0,1,1,2.58,2c-2.56,3.25-5.2,6.61-6.26,10.54-1,3.61-.57,7.47-.15,11.56.53,5.09,1.08,10.34-1.24,15.16-2.21,4.6-6.43,7.52-10.51,10.34s-8.06,5.56-9.64,9.77c-1.13,3-.89,6.4-.63,10,.3,4.3.62,8.74-1.53,12.72-1.9,3.53-5.21,5.69-8.41,7.76-.92.6-1.84,1.19-2.72,1.82a32.72,32.72,0,0,0-11.78,15.8c-.67,1.95-1.18,4-1.67,6a56.65,56.65,0,0,1-2.31,7.83c-4.48,11.12-15.15,18.21-23.72,23.91A1.65,1.65,0,0,1,148.18,330.33Z"/><path class="cls-8" d="M136,337.09a1.63,1.63,0,0,1-1.6-2c1.15-5.11-.17-11.08-4.06-18.24-.93-1.71-1.93-3.39-2.92-5.07-2.46-4.15-5-8.44-6.51-13.2-1.68-5.31-2-10.89-2.24-16.29s-.55-10.69-2.15-15.65c-1.49-4.6-4.16-8.9-6.74-13.06-3.09-5-6.29-10.16-7.69-16.07s-.81-12.2-.22-18.18c.17-1.79.35-3.57.47-5.35.65-9.5-1-16.22-5.14-20.53a33.88,33.88,0,0,0-5.14-4.12c-3.31-2.33-6.73-4.75-8.31-8.75-1.32-3.35-.93-6.83-.56-10.19a39.72,39.72,0,0,0,.34-4.67,18.47,18.47,0,0,0-13.09-17.11,1.64,1.64,0,1,1,.88-3.16,21.84,21.84,0,0,1,15.49,20.24,42.7,42.7,0,0,1-.36,5.06c-.35,3.1-.67,6,.34,8.62,1.22,3.08,4.11,5.12,7.16,7.27a37.15,37.15,0,0,1,5.62,4.55c4.77,5,6.74,12.54,6,23-.12,1.81-.3,3.63-.49,5.45-.59,6-1.14,11.61.16,17.11s4.19,10.1,7.28,15.09c2.68,4.33,5.46,8.81,7.07,13.79,1.73,5.37,2,11,2.31,16.49s.54,10.57,2.09,15.47c1.39,4.39,3.73,8.34,6.2,12.52,1,1.72,2,3.43,3,5.18,4.28,7.9,5.71,14.61,4.38,20.53A1.65,1.65,0,0,1,136,337.09Z"/><path class="cls-8" d="M118.75,339.56a1.5,1.5,0,0,1-.42-.05,1.64,1.64,0,0,1-1.16-2,47.83,47.83,0,0,0-9-41.8c-.61-.75-1.25-1.49-1.89-2.23-2.21-2.54-4.49-5.17-5.81-8.45a31,31,0,0,1-1.66-7,27.41,27.41,0,0,0-1.52-6.42c-1.81-4.28-5.69-7.18-9.79-10.24-3.71-2.77-7.55-5.64-10-9.72a34.88,34.88,0,0,1-3.26-8.58,35.54,35.54,0,0,0-2.53-7.1c-1.61-3.05-4.09-5.54-6.71-8.18-2.82-2.83-5.74-5.76-7.56-9.51a37.23,37.23,0,0,1-2.76-10.07c-.67-3.85-1.31-7.49-3.25-10.52a28.46,28.46,0,0,0-5.56-5.8c-2.46-2.14-5-4.34-6.66-7.34A1.64,1.64,0,0,1,42,183c1.37,2.49,3.59,4.41,5.93,6.45a31.38,31.38,0,0,1,6.18,6.5c2.3,3.59,3,7.73,3.72,11.73a34.08,34.08,0,0,0,2.47,9.19c1.58,3.26,4.18,5.87,6.94,8.64s5.44,5.47,7.29,9a38.71,38.71,0,0,1,2.79,7.74A31.69,31.69,0,0,0,80.29,250c2.11,3.53,5.52,6.08,9.13,8.78,4.27,3.19,8.69,6.48,10.84,11.6a29.94,29.94,0,0,1,1.74,7.19,28.48,28.48,0,0,0,1.46,6.26c1.12,2.77,3.13,5.08,5.25,7.53.66.76,1.32,1.52,2,2.3a51.16,51.16,0,0,1,9.66,44.72A1.64,1.64,0,0,1,118.75,339.56Z"/><polygon class="cls-9" points="164.4 384.67 126.09 384.67 105.39 306.54 185.1 306.54 164.4 384.67"/><path class="cls-10" d="M136.79,345.6c-12.27-9.4-19.42-24.12-24-39.06h-7.42l20.7,78.13h38.3l7.29-27.51C161.84,355.87,147.8,354,136.79,345.6Z"/><polygon class="cls-11" points="355.86 333.25 358.27 324.63 353.45 324.63 308.2 324.63 303.38 324.63 305.79 333.25 293.73 376.32 317.86 376.32 343.8 376.32 367.93 376.32 355.86 333.25"/><polygon class="cls-12" points="364.98 333.25 367.4 324.63 362.57 324.63 317.33 324.63 312.5 324.63 314.92 333.25 302.85 376.32 326.98 376.32 352.92 376.32 377.05 376.32 364.98 333.25"/><rect class="cls-12" x="276.51" y="372.14" width="115.89" height="12.52"/><rect class="cls-11" x="276.51" y="372.14" width="28.69" height="12.52"/><rect class="cls-11" x="163.93" y="131.35" width="60.43" height="201.43" rx="20.87" ry="20.87"/><rect class="cls-13" x="174.13" y="131.35" width="333.42" height="201.43" rx="10.87" ry="10.87"/><rect class="cls-14" x="194.15" y="146.19" width="293.4" height="157.44"/><circle class="cls-11" cx="473.43" cy="318.14" r="3.11"/><circle class="cls-11" cx="463.23" cy="318.14" r="3.11"/><circle class="cls-11" cx="453.03" cy="318.14" r="3.11"/><path class="cls-15" d="M335.13,181.38l-2.44-2.44H323l-2.44,2.44-2.44-2.44h-9.66L306,181.38V191l-12.1-12.1h-9.66l-2.44,2.44v33.92l2.44,2.44h9.66l2.44-2.44v-9.72l12.1,12.1h9.66l2.44-2.44V195.92l12.1,12.1v7.27l2.44,2.44h9.66l2.44-2.44V208l12.1-12.1v14.55l7.27,7.27h24.2l7.27-7.27v-7.27l-2.44-2.44h-12.1v2.44h-9.66v-9.72h9.66v2.39h12.1l2.44-2.39V186.2l-7.27-7.27h-24.2l-7.27,7.27v-4.83l-2.44-2.44h-9.66l-2.44,2.44v4.83L340,191l-4.83-4.83Z"/><path class="cls-15" d="M397.8,180.15a1.55,1.55,0,0,1-1.57,1.51,1.52,1.52,0,0,1-1.57-1.51,1.55,1.55,0,0,1,1.57-1.51A1.52,1.52,0,0,1,397.8,180.15Zm-2.73,0a1.22,1.22,0,0,0,1.16,1.22,1.17,1.17,0,0,0,1.16-1.16,1.18,1.18,0,0,0-1.16-1.22A1.1,1.1,0,0,0,395.06,180.15Zm.93.76h-.35V179.4c.12,0,.35-.06.58-.06a1,1,0,0,1,.52.12.35.35,0,0,1,.17.35.37.37,0,0,1-.29.35h0c.17.06.23.17.29.35s.06.29.12.35h-.35c-.06-.06-.06-.17-.12-.35s-.12-.23-.29-.23h-.17l-.12.64Zm0-.81h.17c.17,0,.35-.06.35-.23s-.12-.23-.35-.23H396v.47Z"/><path class="cls-16" d="M242.28,224.49a16.84,16.84,0,0,1,7.21,1.51,15.82,15.82,0,0,1,5.41,4.07,17.8,17.8,0,0,1,3.37,6,21.42,21.42,0,0,1,1.16,7.27,23.58,23.58,0,0,1-1.16,7.33,18.85,18.85,0,0,1-3.37,6,15.82,15.82,0,0,1-5.41,4.07,17,17,0,0,1-7.21,1.51,16.84,16.84,0,0,1-7.21-1.51,15.12,15.12,0,0,1-5.41-4.07,19,19,0,0,1-3.43-6,21.53,21.53,0,0,1-1.16-7.33,23,23,0,0,1,1.16-7.27,17.93,17.93,0,0,1,3.43-6,15.82,15.82,0,0,1,5.41-4.07A16.19,16.19,0,0,1,242.28,224.49Zm0,5.12a9.78,9.78,0,0,0-8.38,4.25,13.79,13.79,0,0,0-1.92,4.42,20.8,20.8,0,0,0-.64,5.06,21.17,21.17,0,0,0,.64,5.06,13.79,13.79,0,0,0,1.92,4.42,9.74,9.74,0,0,0,3.43,3.08,10.23,10.23,0,0,0,13.32-3.08,13.79,13.79,0,0,0,1.92-4.42,20.8,20.8,0,0,0,.64-5.06,21.17,21.17,0,0,0-.64-5.06,13.79,13.79,0,0,0-1.92-4.42,9.74,9.74,0,0,0-3.43-3.08A10,10,0,0,0,242.28,229.61Z"/><path class="cls-16" d="M264.62,235.25h5.47v3.55h.12a7,7,0,0,1,3.37-3.26,11.59,11.59,0,0,1,4.71-1,11.89,11.89,0,0,1,5.35,1.11,10,10,0,0,1,3.78,3A13.83,13.83,0,0,1,289.7,243a18.16,18.16,0,0,1,.76,5.41,19.06,19.06,0,0,1-.7,5.12,13.79,13.79,0,0,1-2.09,4.36,10.29,10.29,0,0,1-3.49,3,10.41,10.41,0,0,1-5,1.11,12.14,12.14,0,0,1-2.5-.23,13.11,13.11,0,0,1-2.44-.76,10,10,0,0,1-2.15-1.28,7.09,7.09,0,0,1-1.63-1.86h-.12v13h-5.76V235.25Zm20.07,13.09a13.56,13.56,0,0,0-.47-3.43,9.85,9.85,0,0,0-1.34-3,6.54,6.54,0,0,0-2.27-2.09,7.12,7.12,0,0,0-8.61,1.75,11.12,11.12,0,0,0-1.86,6.69,14.7,14.7,0,0,0,.47,3.67,8,8,0,0,0,1.45,2.91,7.14,7.14,0,0,0,2.27,1.92,6.52,6.52,0,0,0,3.08.7,6.36,6.36,0,0,0,3.32-.81,7.09,7.09,0,0,0,2.27-2.09,9.42,9.42,0,0,0,1.28-2.91A12.94,12.94,0,0,0,284.69,248.34Z"/><path class="cls-16" d="M299.76,249.8a9.77,9.77,0,0,0,.41,2.91,7,7,0,0,0,1.28,2.44,6.18,6.18,0,0,0,2.15,1.69,7.37,7.37,0,0,0,3.14.64,6.75,6.75,0,0,0,4.07-1.11,5.93,5.93,0,0,0,2.27-3.26h5.47a10.42,10.42,0,0,1-1.57,3.78,11.13,11.13,0,0,1-2.68,2.79,10.8,10.8,0,0,1-3.49,1.69,13.52,13.52,0,0,1-4.07.58,14.77,14.77,0,0,1-5.47-1,11.73,11.73,0,0,1-4-2.85,11.48,11.48,0,0,1-2.44-4.36,16.94,16.94,0,0,1-.81-5.53,16,16,0,0,1,.87-5.29,13.39,13.39,0,0,1,2.5-4.36,11.71,11.71,0,0,1,9.19-4.13,11.56,11.56,0,0,1,5.53,1.28,12.23,12.23,0,0,1,4.07,3.43,13.59,13.59,0,0,1,2.33,4.89,15.5,15.5,0,0,1,.41,5.7H299.76ZM313.2,246a7.81,7.81,0,0,0-.58-2.62,6.65,6.65,0,0,0-3.37-3.72,5.75,5.75,0,0,0-2.62-.58,6.94,6.94,0,0,0-2.73.52,5.9,5.9,0,0,0-2.09,1.45,7.16,7.16,0,0,0-1.4,2.21,8.17,8.17,0,0,0-.58,2.73Z"/><path class="cls-16" d="M323.32,235.25h5.47v3.84l.12.12a10.2,10.2,0,0,1,3.43-3.43,9.18,9.18,0,0,1,4.71-1.22,9.82,9.82,0,0,1,6.75,2.21c1.63,1.45,2.44,3.72,2.44,6.63v17.92h-5.76V244.91a7.07,7.07,0,0,0-1.34-4.48,4.79,4.79,0,0,0-3.78-1.4,6.19,6.19,0,0,0-2.62.52,5.47,5.47,0,0,0-2,1.45,8.17,8.17,0,0,0-1.28,2.21,8.08,8.08,0,0,0-.47,2.68v15.36h-5.76v-26Z"/><path class="cls-16" d="M365.51,225.3c5.53,0,9.83,1.4,12.8,4.25s4.48,7.1,4.48,12.92a30.31,30.31,0,0,1-1,8,14.63,14.63,0,0,1-3.14,5.88,13.94,13.94,0,0,1-5.41,3.67,22.22,22.22,0,0,1-7.74,1.28H353.17v-36Zm.41,32c.52,0,1.22-.06,2-.12a10.76,10.76,0,0,0,2.56-.58,9.09,9.09,0,0,0,2.68-1.4,9.56,9.56,0,0,0,2.39-2.44,14.28,14.28,0,0,0,1.75-3.9,20.08,20.08,0,0,0,.7-5.7,24.56,24.56,0,0,0-.64-5.76,10.89,10.89,0,0,0-2.09-4.36,9.42,9.42,0,0,0-3.72-2.73,14.38,14.38,0,0,0-5.59-.93h-8.09V257.3Z"/><path class="cls-16" d="M411.06,261.2a5.8,5.8,0,0,1-3.08.64,3.76,3.76,0,0,1-2.68-.93,4.11,4.11,0,0,1-1-3,9.9,9.9,0,0,1-4.13,3,14.48,14.48,0,0,1-5.06.93,13.07,13.07,0,0,1-3.37-.41,7.45,7.45,0,0,1-2.73-1.28,6.51,6.51,0,0,1-1.86-2.27,8.74,8.74,0,0,1,.06-7,6.81,6.81,0,0,1,2-2.27,8.61,8.61,0,0,1,2.85-1.34,29.5,29.5,0,0,1,3.26-.76c1.16-.23,2.27-.41,3.37-.52a17.09,17.09,0,0,0,2.79-.52,4.93,4.93,0,0,0,1.92-.93,2.37,2.37,0,0,0,.7-1.86,4.37,4.37,0,0,0-.52-2.27,4.2,4.2,0,0,0-1.34-1.34,3.9,3.9,0,0,0-1.86-.58,12.56,12.56,0,0,0-2-.17,9,9,0,0,0-4.54,1c-1.22.7-1.86,2-2,3.9H387.5a9.33,9.33,0,0,1,1-4.07,6.78,6.78,0,0,1,2.44-2.68,10.81,10.81,0,0,1,3.43-1.51,18.84,18.84,0,0,1,4.19-.47,23.46,23.46,0,0,1,3.49.23,9.1,9.1,0,0,1,3.14,1,5.9,5.9,0,0,1,2.27,2.21,6.84,6.84,0,0,1,.87,3.67v13.38a10.15,10.15,0,0,0,.17,2.21c.12.47.52.7,1.16.7a6.49,6.49,0,0,0,1.34-.17v3.37Zm-7-13.32a5,5,0,0,1-2.09.87c-.87.17-1.8.35-2.73.47s-1.92.23-2.91.41a14.19,14.19,0,0,0-2.62.7,4.63,4.63,0,0,0-1.86,1.45,4.19,4.19,0,0,0-.76,2.56,3.59,3.59,0,0,0,.41,1.8,3.53,3.53,0,0,0,1.11,1.16,4.7,4.7,0,0,0,1.57.64,9.81,9.81,0,0,0,1.92.17,9.57,9.57,0,0,0,3.61-.58,8.24,8.24,0,0,0,2.44-1.45,5.42,5.42,0,0,0,1.4-1.92,5.12,5.12,0,0,0,.47-1.92v-4.36Z"/><path class="cls-16" d="M426.19,235.25V239H421v16.17a6.17,6.17,0,0,0,.12,1.22,1.16,1.16,0,0,0,.47.7,2.2,2.2,0,0,0,1,.35,13.19,13.19,0,0,0,1.63.06h2v3.78h-3.26a13.76,13.76,0,0,1-2.85-.23,4.17,4.17,0,0,1-1.92-.81,3.89,3.89,0,0,1-1.11-1.69,9.92,9.92,0,0,1-.35-2.91V239h-4.42v-3.78h4.42v-7.8H421v7.8Z"/><path class="cls-16" d="M454,261.2a5.8,5.8,0,0,1-3.08.64,3.76,3.76,0,0,1-2.68-.93,4.11,4.11,0,0,1-1-3,9.9,9.9,0,0,1-4.13,3,14.48,14.48,0,0,1-5.06.93,13.07,13.07,0,0,1-3.37-.41,7.45,7.45,0,0,1-2.73-1.28,6.51,6.51,0,0,1-1.86-2.27,8.74,8.74,0,0,1,.06-7,6.81,6.81,0,0,1,2-2.27,8.61,8.61,0,0,1,2.85-1.34,29.5,29.5,0,0,1,3.26-.76c1.16-.23,2.27-.41,3.37-.52a17.09,17.09,0,0,0,2.79-.52,4.93,4.93,0,0,0,1.92-.93,2.37,2.37,0,0,0,.7-1.86,4.37,4.37,0,0,0-.52-2.27,4.2,4.2,0,0,0-1.34-1.34,3.9,3.9,0,0,0-1.86-.58,12.56,12.56,0,0,0-2-.17,9,9,0,0,0-4.54,1c-1.22.7-1.86,2-2,3.9h-4.31a9.33,9.33,0,0,1,1-4.07,6.78,6.78,0,0,1,2.44-2.68A10.81,10.81,0,0,1,437.3,235a18.84,18.84,0,0,1,4.19-.47,23.46,23.46,0,0,1,3.49.23,9.1,9.1,0,0,1,3.14,1,5.9,5.9,0,0,1,2.27,2.21,6.84,6.84,0,0,1,.87,3.67v13.38a10.15,10.15,0,0,0,.17,2.21c.12.47.52.7,1.16.7a6.49,6.49,0,0,0,1.34-.17v3.37Zm-6.92-13.32a5,5,0,0,1-2.09.87c-.87.17-1.8.35-2.73.47s-1.92.23-2.91.41a14.19,14.19,0,0,0-2.62.7,4.63,4.63,0,0,0-1.86,1.45,4.19,4.19,0,0,0-.76,2.56,3.59,3.59,0,0,0,.41,1.8,3.53,3.53,0,0,0,1.11,1.16,4.7,4.7,0,0,0,1.57.64,9.81,9.81,0,0,0,1.92.17,9.57,9.57,0,0,0,3.61-.58,8.24,8.24,0,0,0,2.44-1.45,5.42,5.42,0,0,0,1.4-1.92,5.12,5.12,0,0,0,.47-1.92v-4.36Z"/><path class="cls-17" d="M266.28,384.67h-.16a7.71,7.71,0,0,1-7.71-7.71V291.25H274V377A7.71,7.71,0,0,1,266.28,384.67Z"/><path class="cls-18" d="M266.27,381.55h-.12c-3.33,0-6-.9-6-5.15V287h12.17V376.4C272.29,380.66,269.59,381.55,266.27,381.55Z"/><polygon class="cls-19" points="258.42 291.53 258.42 297.06 273.99 296.35 273.99 291.53 258.42 291.53"/><rect class="cls-20" x="255.54" y="285.73" width="21.34" height="9.48" rx="2.43" ry="2.43"/><path class="cls-21" d="M274.44,291.72H258a2.43,2.43,0,0,1-2.43-2.43v3.49a2.43,2.43,0,0,0,2.43,2.43h16.47a2.43,2.43,0,0,0,2.43-2.43v-3.49A2.43,2.43,0,0,1,274.44,291.72Z"/><circle class="cls-22" cx="267.05" cy="321.82" r="1.42"/><circle class="cls-22" cx="265.64" cy="310.71" r="1.42"/><circle class="cls-22" cx="266.2" cy="345.46" r="1.42"/><circle class="cls-22" cx="265.64" cy="367.4" r="1.42"/><circle class="cls-22" cx="262.34" cy="332.84" r="0.85"/><circle class="cls-22" cx="267.9" cy="313.69" r="0.85"/><circle class="cls-22" cx="264.22" cy="325.08" r="0.85"/><circle class="cls-22" cx="267.34" cy="329.47" r="0.85"/><circle class="cls-22" cx="266.49" cy="303.78" r="0.85"/><circle class="cls-22" cx="265.64" cy="335.98" r="0.85"/><circle class="cls-22" cx="267.62" cy="339.73" r="0.85"/><circle class="cls-22" cx="264.22" cy="355.65" r="0.85"/><circle class="cls-22" cx="268.47" cy="360" r="0.85"/><path class="cls-23" d="M227.94,316.16V280.23H211.34v35.93A34.9,34.9,0,0,1,209,328.75L190.35,377a5.66,5.66,0,0,0,5.28,7.7h48a5.66,5.66,0,0,0,5.28-7.7l-18.64-48.22A34.9,34.9,0,0,1,227.94,316.16Z"/><path class="cls-24" d="M226.28,317.71v-37H213v37a35.26,35.26,0,0,1-1.88,11.38l-14.91,43.62c-1.15,3.36,1,7,4.22,7h38.41c3.18,0,5.37-3.61,4.22-7L228.16,329.1A35.26,35.26,0,0,1,226.28,317.71Z"/><polygon class="cls-25" points="227.94 284.35 227.94 280.23 211.34 280.23 211.34 286.16 227.94 284.35"/><circle class="cls-22" cx="212.33" cy="351.59" r="1.42"/><circle class="cls-22" cx="218.6" cy="318.28" r="1.42"/><circle class="cls-22" cx="217.19" cy="292.45" r="1.42"/><circle class="cls-22" cx="222.89" cy="339.16" r="1.42"/><circle class="cls-22" cx="231.01" cy="362.82" r="1.42"/><circle class="cls-22" cx="215.16" cy="332.91" r="1.42"/><circle class="cls-22" cx="219.36" cy="372.12" r="1.42"/><circle class="cls-22" cx="209.5" cy="367.4" r="1.42"/><circle class="cls-22" cx="213.74" cy="345.86" r="0.85"/><circle class="cls-22" cx="227.13" cy="351.03" r="0.85"/><circle class="cls-22" cx="222.19" cy="326.14" r="0.85"/><circle class="cls-22" cx="218.6" cy="310.54" r="0.85"/><circle class="cls-22" cx="235.68" cy="372.97" r="0.85"/><circle class="cls-22" cx="221.34" cy="303.07" r="0.85"/><circle class="cls-22" cx="222.68" cy="289.34" r="0.85"/><circle class="cls-22" cx="226.72" cy="376.27" r="0.85"/><circle class="cls-22" cx="205.2" cy="360.85" r="0.85"/><circle class="cls-22" cx="210.91" cy="375.89" r="0.85"/><circle class="cls-22" cx="201.33" cy="372.97" r="0.85"/><circle class="cls-22" cx="220.49" cy="360.85" r="0.85"/><rect class="cls-26" x="208.78" y="273.71" width="21.34" height="9.48" rx="2.43" ry="2.43"/><path class="cls-27" d="M227.69,279.7H211.22a2.43,2.43,0,0,1-2.43-2.43v3.49a2.43,2.43,0,0,0,2.43,2.43h16.47a2.43,2.43,0,0,0,2.43-2.43v-3.49A2.43,2.43,0,0,1,227.69,279.7Z"/><rect class="cls-8" x="378.9" y="304.9" width="10.66" height="11.53" transform="translate(-1.3 1.61) rotate(-0.24)"/><path class="cls-28" d="M384.14,287a11.54,11.54,0,1,0,11.59,11.5A11.54,11.54,0,0,0,384.14,287Zm.07,17.53a6,6,0,1,1,6-6A6,6,0,0,1,384.21,304.5Z"/><path class="cls-8" d="M384.14,288.8a9.71,9.71,0,1,0,9.75,9.67A9.71,9.71,0,0,0,384.14,288.8Zm.06,14.74a5,5,0,1,1,5-5.06A5,5,0,0,1,384.21,303.54Z"/><circle class="cls-28" cx="384.39" cy="348.39" r="36.27" transform="translate(-1.46 1.61) rotate(-0.24)"/><circle class="cls-8" cx="384.39" cy="348.39" r="33.59" transform="translate(-1.45 1.61) rotate(-0.24)"/><circle class="cls-29" cx="384.39" cy="348.39" r="28.38" transform="translate(-1.46 1.61) rotate(-0.24)"/><path class="cls-30" d="M399.29,364.21a26.08,26.08,0,0,1-21.45-41.08,26.09,26.09,0,1,0,27.89,40.25A26.13,26.13,0,0,1,399.29,364.21Z"/><path class="cls-31" d="M386.9,329.16h-1.46l-2.2-2.52v2.53h-1.54l0-5.21h1.46l2.2,2.56V324h1.54Z"/><path class="cls-31" d="M386.77,369v.09H385.2v0c0-.27-.19-.53-.68-.53s-.69.16-.69.34c0,.78,3,.15,3.08,2.08,0,1.29-1,1.82-2.28,1.83-1.46,0-2.57-.36-2.58-1.84h1.58c0,.56.33.66.84.66.3,0,.73,0,.73-.35,0-.75-3.07-.14-3.08-2.17,0-1.21,1.1-1.67,2.33-1.67S386.74,367.92,386.77,369Z"/><path class="cls-31" d="M365.11,351.08h-1.84l-.69-3.17h0l-.66,3.17h-1.84l-1.24-5.2h1.74l.61,2.95h0l.58-3h1.65l.64,2.95h0l.55-3h1.66Z"/><path class="cls-31" d="M405.41,350.91l0-5.21,4.5,0v1.25h-2.83v.72h2.42v1.19h-2.42v.79H410v1.25Z"/><polygon class="cls-8" points="384.32 331.3 382.22 346.73 384.39 348.39 386.55 346.71 384.32 331.3"/><polygon class="cls-8" points="384.46 365.49 386.56 350.05 384.39 348.39 382.24 350.07 384.46 365.49"/><polygon class="cls-8" points="401.49 348.32 386.05 346.22 384.39 348.39 386.07 350.55 401.49 348.32"/><polygon class="cls-8" points="367.3 348.46 382.73 350.56 384.39 348.39 382.71 346.24 367.3 348.46"/><path class="cls-32" d="M404,328.65l-18.66,14.19a3.25,3.25,0,0,0-1.25,3v0a3.25,3.25,0,0,0,2.82,2.8h0a3.25,3.25,0,0,0,3-1.28Z"/><path class="cls-14" d="M364.82,368.13l18.66-14.19a3.25,3.25,0,0,0,1.25-3v0a3.25,3.25,0,0,0-2.82-2.8h0a3.25,3.25,0,0,0-3,1.28Z"/><circle class="cls-33" cx="384.39" cy="348.39" r="4.75" transform="translate(-1.45 1.6) rotate(-0.24)"/><rect class="cls-34" x="477.57" y="204.12" width="9.67" height="37.91"/><polygon class="cls-35" points="477.57 207.81 477.57 217.64 487.24 213.51 487.24 207.81 477.57 207.81"/><path class="cls-36" d="M469.05,296.61h26.71V246a10.59,10.59,0,0,0-10.59-10.59h-5.53A10.59,10.59,0,0,0,469.05,246Z"/><path class="cls-8" d="M465.87,303.28h33.07a2.9,2.9,0,0,0,2.8-3v-8.75a2.9,2.9,0,0,0-2.8-3H465.87a2.9,2.9,0,0,0-2.8,3v8.75A2.9,2.9,0,0,0,465.87,303.28Z"/><rect class="cls-8" x="471.13" y="195.99" width="22.56" height="14.12"/><polygon class="cls-37" points="520.5 350.56 487.32 328.46 474.73 328.46 500.54 368.37 516.2 367.14 520.5 350.56"/><path class="cls-38" d="M475.46,260.36c.85,7.9,3.7,14,10.25,18.61a101.46,101.46,0,0,0,10.06,6.1V246a10.48,10.48,0,0,0-.49-3c-.11-.35-3.23-.65-3.66-.71-1.21-.17-14,7-15.45,11.54A16,16,0,0,0,475.46,260.36Z"/><path class="cls-39" d="M527.89,370.7s20-17.75,20-64.65c0-26.79-17.57-49.81-34.13-58.58-8.77-4.65-22.1-9.52-31-2.67-4.37,3.37-7.17,9.39-6,14.92s5.83,9.89,10.48,12.84c7,4.42,16.22,8.07,22.23,12.72,13.4,10.38,17.08,61-23.45,82.07Z"/><path class="cls-40" d="M535.66,325.79A88,88,0,0,1,517,327.35a59.19,59.19,0,0,1-31,40l37.85,3c2.22-2.18,14.91-15.88,18.65-46.6A38.35,38.35,0,0,1,535.66,325.79Z"/><rect class="cls-8" x="521.9" y="376.34" width="14.18" height="8.33" rx="1.53" ry="1.53"/><rect class="cls-8" x="467.73" y="376.34" width="14.18" height="8.33" rx="1.53" ry="1.53"/><rect class="cls-8" x="454.57" y="361.36" width="94.67" height="17.43" rx="2.66" ry="2.66"/><circle class="cls-8" cx="487.91" cy="255.51" r="5.5"/><rect class="cls-8" x="457.17" y="316.48" width="50.49" height="16.58"/><rect class="cls-41" x="96.73" y="402.51" width="415.14" height="82.56"/><polygon class="cls-42" points="133.84 428.01 511.87 428.01 511.87 402.51 96.73 402.51 96.73 485.07 133.84 428.01"/><rect class="cls-11" x="67.65" y="384.67" width="469.69" height="20.71"/><circle class="cls-14" cx="534.33" cy="149.22" r="10.63"/><circle class="cls-14" cx="535.41" cy="279.39" r="5.68"/><circle class="cls-14" cx="535.41" cy="361.41" r="5.68"/><circle class="cls-14" cx="565.74" cy="322.41" r="9.58"/><circle class="cls-14" cx="433.87" cy="111.9" r="6.3"/><circle class="cls-14" cx="249.53" cy="103.09" r="5.97"/><circle class="cls-14" cx="195.9" cy="53.82" r="9.95"/><circle class="cls-14" cx="104.71" cy="46.17" r="7.66"/><circle class="cls-14" cx="94.82" cy="93.74" r="4.34"/><circle class="cls-14" cx="50.57" cy="316.75" r="8.54"/><circle class="cls-14" cx="91.48" cy="348.98" r="11.02"/><circle class="cls-14" cx="72.2" cy="281.82" r="4.56"/><circle class="cls-14" cx="290.85" cy="114.38" r="2.39"/><circle class="cls-14" cx="407.17" cy="110.94" r="2.39"/><circle class="cls-14" cx="470.32" cy="98.08" r="2.39"/><circle class="cls-14" cx="521.3" cy="182.12" r="2.39"/><circle class="cls-14" cx="544.96" cy="250.01" r="2.39"/><circle class="cls-14" cx="518.92" cy="339.84" r="2.39"/><circle class="cls-14" cx="38.97" cy="345.46" r="2.39"/><circle class="cls-14" cx="312.14" cy="106.25" r="4.69"/></g></g></g></svg>