<svg viewBox="0 0 1815.73 866.91" xmlns="http://www.w3.org/2000/svg" xmlns:xlink="http://www.w3.org/1999/xlink"><linearGradient id="a" gradientUnits="userSpaceOnUse" x2="1815.73" y1="532.6" y2="532.6"><stop offset="0" stop-color="#c66fd7"/><stop offset="1" stop-color="#5937e5"/></linearGradient><linearGradient id="b" gradientUnits="userSpaceOnUse" x1="489.16" x2="663.38" y1="759.69" y2="759.69"><stop offset="0" stop-color="#a1d8f6"/><stop offset="1" stop-color="#9e90f2"/></linearGradient><linearGradient id="c" gradientUnits="userSpaceOnUse" x1="727.13" x2="1312.25" y1="570.08" y2="570.08"><stop offset="0" stop-color="#63d4ff"/><stop offset="1" stop-color="#546be5"/></linearGradient><linearGradient id="d" x1="1175.08" x2="1190.18" xlink:href="#b" y1="602.54" y2="602.54"/><linearGradient id="e" gradientUnits="userSpaceOnUse" x1="705.58" x2="705.58" y1="847.28" y2="640.71"><stop offset="0" stop-color="#a1d8f6"/><stop offset=".21" stop-color="#a1cff6"/><stop offset=".56" stop-color="#a0b8f4"/><stop offset=".99" stop-color="#9e91f2"/><stop offset="1" stop-color="#9e90f2"/></linearGradient><linearGradient id="f" x1="725.05" x2="725.05" xlink:href="#e" y1="853.53" y2="632.22"/><linearGradient id="g" x1="552.59" x2="599.96" xlink:href="#b" y1="639.51" y2="639.51"/><linearGradient id="h" x1="489.73" x2="662.8" xlink:href="#b" y1="546.84" y2="546.84"/><linearGradient id="i" x1="1469.28" x2="1575.14" xlink:href="#a" y1="573.45" y2="573.45"/><linearGradient id="j" x1="859.17" x2="897.71" xlink:href="#b" y1="519.49" y2="519.49"/><linearGradient id="k" x1="1026.32" x2="1050.19" xlink:href="#b" y1="488.14" y2="488.14"/><linearGradient id="l" x1="1050.2" x2="1064.4" xlink:href="#b" y1="541.62" y2="541.62"/><linearGradient id="m" x1="1476.15" x2="1495.98" xlink:href="#b" y1="813.21" y2="813.21"/><linearGradient id="n" x1="1485.02" x2="1501.76" xlink:href="#b" y1="813.17" y2="813.17"/><linearGradient id="o" x1="1581.9" x2="1602.42" xlink:href="#b" y1="859.9" y2="859.9"/><linearGradient id="p" x1="1662.63" x2="1683.14" xlink:href="#b" y1="859.9" y2="859.9"/><linearGradient id="q" x1="1626.96" x2="1669.31" xlink:href="#c" y1="563.25" y2="563.25"/><linearGradient id="r" x1="1593.76" x2="1755.59" xlink:href="#b" y1="706.42" y2="706.42"/><path d="m879.74 272.21a19.82 19.82 0 0 0 -15.18 7.45h30.36a19.82 19.82 0 0 0 -15.18-7.45z" fill="#f0f0f0"/><path d="m1181.87 273.41c-5.26 0-.66-8.67-13.47-10.52-21.87-3.15-17.75-12-35.34-12-9.33 0-15.61 10.31-24.2 9.36-14.58-1.62-22.33-19.92-38.1-19.92-17.07 0-24.21 21.38-40.06 22.83-10 .91-16.29-12.54-27.13-12.54-14 0-19.31 16.48-32.11 19.48-5.86 1.37-10.79-6.35-17.27-6.35a30.53 30.53 0 0 0 -26.42 16h269.23c-3.47-4.4-9-6.34-15.13-6.34z" fill="#f0f0f0"/><path d="m0 866.91c29.8-2.48 73.59-29.41 94.41-67.35s37.52-83.56 75.84-100.22c35.85-15.57 77.49 44.12 115.17 34.55 77.08-19.6 86-279.61 183.51-279.61 92.6 0 253.79 231.43 382.21 146.65 123.25-81.37 195.93-361.11 297.57-396.4 196-68.05 236.93 442.34 377.77 442.34 39.85 0 68.82-122.09 99.1-137.3 97.46-49 51.57 265.55 190.16 357.34z" fill="url(#a)"/><path d="m513.92 681.82c0 .82-3.62 1.36-4.38 1.05-1.6-1.29-.84-2.22-2.51-3.2a17.23 17.23 0 0 0 5.09 1.13c.95.01 1.99-.24 1.8 1.02z" fill="#fcd2c5"/><path d="m505.78 678.89a42.89 42.89 0 0 1 5 3.47c1.9 1.5 5.77 5.33 6 5.6.74.82 2.87 2.64 3.24 3.43a4.61 4.61 0 0 1 0 2.75 1.39 1.39 0 0 1 -1.42.63c-.34 1.14-3-.24-3 .06-.08 1.21-1.76 1.46-4.72-1.61-.18-.18-8.93-6.29-11.57-8.47 1.21-1.75 6.37-5.9 6.47-5.86z" fill="#fcd2c5"/><path d="m466.66 632.39a6.28 6.28 0 0 1 1.6 1.13c7.24 7.36 29.3 39.23 38.06 45.7a34.08 34.08 0 0 0 -5.93 6.37c-14.2-10.92-46.48-42.1-43.89-48.77 2.38-6.11 7.28-5.89 10.16-4.43z" fill="#fcd2c5"/><path d="m470.44 577.59c1.67 9.4-1 40.08.54 55 1.88 18.32-11.57 13.09-13.93 7.73-6.22-14.12-16.57-55.82-9.58-59.8 3.03-1.71 22.67-4.63 22.97-2.93z" fill="#fcd2c5"/><path d="m507.61 677.48c-5.08-3.75-31.46-38.06-34.3-41.49 0-1.14-.66-22.13-.4-33s.52-22-.35-26.88c-.13-.76-.64-.36-1.38-.73-3.24-1.64-21.6 1.42-24.78 3.23-9.5 5.41 3.57 50.87 8.62 62.41 4.67 11.12 31.56 36.62 44.06 46.23z" fill="#ce61d4"/><path d="m489.16 652.47h174.22v214.44h-174.22z" fill="url(#b)"/><path d="m653.94 686.41v-25h-155.34v25h7.62v10.92h-7.62v25h155.34v-25h-8.78v-10.92zm-127.63 25.66h-10.79v-10.55h10.79zm0-15.06h-10.79v-10.56h10.79zm0-14.78h-10.79v-10.58h10.79zm16 29.85h-10.82v-10.56h10.79zm0-15.06h-10.82v-10.57h10.79zm0-14.78h-10.82v-10.59h10.79zm15.69 29.83h-10.8v-10.55h10.8zm0-15.07h-10.8v-10.55h10.8zm0-14.78h-10.8v-10.57h10.8zm15.56 29.85h-10.78v-10.55h10.77zm0-15.06h-10.78v-10.56h10.77zm0-14.78h-10.78v-10.58h10.77zm16 29.85h-10.83v-10.56h10.79zm0-15.06h-10.83v-10.57h10.79zm0-14.78h-10.83v-10.59h10.79zm15.73 29.85h-10.83v-10.57h10.79zm0-15.06h-10.83v-10.58h10.79zm0-14.78h-10.83v-10.6h10.79zm24.15 29.54h-13.96v-6.43h13.92zm-7-18.06a11.14 11.14 0 1 1 11.11-11.14 11.13 11.13 0 0 1 -11.17 11.11z" fill="#4d3782"/><g fill="#fff"><path d="m615.48 705.34h13.92v6.43h-13.92z"/><path d="m633.5 682.57a11.12 11.12 0 1 1 -11.11-11.13 11.13 11.13 0 0 1 11.11 11.13z"/><path d="m515.52 671.65h10.79v10.58h-10.79z"/><path d="m531.49 671.65h10.79v10.58h-10.79z"/><path d="m547.2 671.65h10.79v10.58h-10.79z"/><path d="m562.78 671.65h10.77v10.58h-10.77z"/><path d="m578.73 671.65h10.79v10.58h-10.79z"/><path d="m594.46 671.65h10.79v10.58h-10.79z"/><path d="m594.46 686.45h10.79v10.55h-10.79z"/><path d="m578.73 686.45h10.79v10.55h-10.79z"/><path d="m562.78 686.45h10.77v10.55h-10.77z"/><path d="m547.2 686.45h10.79v10.55h-10.79z"/><path d="m531.49 686.45h10.79v10.55h-10.79z"/><path d="m515.52 686.45h10.79v10.55h-10.79z"/><path d="m515.52 701.52h10.79v10.55h-10.79z"/><path d="m531.49 701.52h10.79v10.55h-10.79z"/><path d="m547.2 701.52h10.79v10.55h-10.79z"/><path d="m562.78 701.52h10.77v10.55h-10.77z"/><path d="m578.73 701.52h10.79v10.55h-10.79z"/><path d="m594.46 701.52h10.79v10.55h-10.79z"/></g><path d="m653.94 821.61v-25h-155.34v25h7.62v10.92h-7.62v25h155.34v-25h-8.78v-10.92zm-127.63 25.66h-10.79v-10.55h10.79zm0-15.06h-10.79v-10.55h10.79zm0-14.78h-10.79v-10.58h10.79zm16 29.85h-10.82v-10.56h10.79zm0-15.06h-10.82v-10.56h10.79zm0-14.78h-10.82v-10.59h10.79zm15.69 29.83h-10.8v-10.55h10.8zm0-15.06h-10.8v-10.55h10.8zm0-14.78h-10.8v-10.58h10.8zm15.56 29.85h-10.78v-10.56h10.77zm0-15.06h-10.78v-10.56h10.77zm0-14.78h-10.78v-10.59h10.77zm16 29.85h-10.83v-10.57h10.79zm0-15.06h-10.83v-10.57h10.79zm0-14.78h-10.83v-10.6h10.79zm15.73 29.85h-10.83v-10.58h10.79zm0-15.06h-10.83v-10.58h10.79zm0-14.78h-10.83v-10.61h10.79zm24.11 29.54h-13.92v-6.43h13.92zm-7-18.06a11.13 11.13 0 1 1 11.11-11.13 11.13 11.13 0 0 1 -11.13 11.09z" fill="#4d3782"/><path d="m615.48 840.54h13.92v6.43h-13.92z" fill="#fff"/><path d="m633.5 817.77a11.12 11.12 0 1 1 -11.11-11.14 11.13 11.13 0 0 1 11.11 11.14z" fill="#fff"/><path d="m515.52 806.85h10.79v10.58h-10.79z" fill="#fff"/><path d="m531.49 806.85h10.79v10.58h-10.79z" fill="#fff"/><path d="m547.2 806.85h10.79v10.58h-10.79z" fill="#fff"/><path d="m562.78 806.85h10.77v10.58h-10.77z" fill="#fff"/><path d="m578.73 806.85h10.79v10.58h-10.79z" fill="#fff"/><path d="m594.46 806.85h10.79v10.58h-10.79z" fill="#fff"/><path d="m594.46 821.66h10.79v10.55h-10.79z" fill="#fff"/><path d="m578.73 821.66h10.79v10.55h-10.79z" fill="#fff"/><path d="m562.78 821.66h10.77v10.55h-10.77z" fill="#fff"/><path d="m547.2 821.66h10.79v10.55h-10.79z" fill="#fff"/><path d="m531.49 821.66h10.79v10.55h-10.79z" fill="#fff"/><path d="m515.52 821.66h10.79v10.55h-10.79z" fill="#fff"/><path d="m515.52 836.72h10.79v10.55h-10.79z" fill="#fff"/><path d="m531.49 836.72h10.79v10.55h-10.79z" fill="#fff"/><path d="m547.2 836.72h10.79v10.55h-10.79z" fill="#fff"/><path d="m562.78 836.72h10.77v10.55h-10.77z" fill="#fff"/><path d="m578.73 836.72h10.79v10.55h-10.79z" fill="#fff"/><path d="m594.46 836.72h10.79v10.55h-10.79z" fill="#fff"/><path d="m653.94 754v-25h-155.34v25h7.62v10.92h-7.62v25h155.34v-25h-8.78v-10.92zm-127.63 25.67h-10.79v-10.55h10.79zm0-15.06h-10.79v-10.56h10.79zm0-14.78h-10.79v-10.58h10.79zm16 29.85h-10.82v-10.56h10.79zm0-15.06h-10.82v-10.57h10.79zm0-14.78h-10.82v-10.59h10.79zm15.69 29.83h-10.8v-10.55h10.8zm0-15.06h-10.8v-10.56h10.8zm0-14.78h-10.8v-10.58h10.8zm15.56 29.85h-10.78v-10.56h10.77zm0-15.06h-10.78v-10.57h10.77zm0-14.78h-10.78v-10.59h10.77zm16 29.85h-10.83v-10.57h10.79zm0-15.06h-10.83v-10.58h10.79zm0-14.78h-10.83v-10.6h10.79zm15.73 29.85h-10.83v-10.58h10.79zm0-15.06h-10.83v-10.59h10.79zm0-14.78h-10.83v-10.61h10.79zm24.15 29.54h-13.96v-6.43h13.92zm-7-18.06a11.14 11.14 0 1 1 11.11-11.14 11.13 11.13 0 0 1 -11.17 11.1z" fill="#4d3782"/><path d="m615.48 772.94h13.92v6.43h-13.92z" fill="#fff"/><path d="m622.38 739a11.14 11.14 0 1 0 11.11 11.13 11.13 11.13 0 0 0 -11.11-11.13z" fill="#fff"/><path d="m515.52 739.25h10.79v10.58h-10.79z" fill="#fff"/><path d="m531.49 739.25h10.79v10.58h-10.79z" fill="#fff"/><path d="m547.2 739.25h10.79v10.58h-10.79z" fill="#fff"/><path d="m562.78 739.25h10.77v10.58h-10.77z" fill="#fff"/><path d="m578.73 739.25h10.79v10.58h-10.79z" fill="#fff"/><path d="m594.46 739.25h10.79v10.58h-10.79z" fill="#fff"/><path d="m594.46 754.05h10.79v10.55h-10.79z" fill="#fff"/><path d="m578.73 754.05h10.79v10.55h-10.79z" fill="#fff"/><path d="m562.78 754.05h10.77v10.55h-10.77z" fill="#fff"/><path d="m547.2 754.05h10.79v10.55h-10.79z" fill="#fff"/><path d="m531.49 754.05h10.79v10.55h-10.79z" fill="#fff"/><path d="m515.52 754.05h10.79v10.55h-10.79z" fill="#fff"/><path d="m515.52 769.12h10.79v10.55h-10.79z" fill="#fff"/><path d="m531.49 769.12h10.79v10.55h-10.79z" fill="#fff"/><path d="m547.2 769.12h10.79v10.55h-10.79z" fill="#fff"/><path d="m562.78 769.12h10.77v10.55h-10.77z" fill="#fff"/><path d="m578.73 769.12h10.79v10.55h-10.79z" fill="#fff"/><path d="m594.46 769.12h10.79v10.55h-10.79z" fill="#fff"/><path d="m401.89 853c-1.18-1.4-2.62-3.56-2.62-3.56l-6.73 3.74s-.55.74-.2 2.87a5.49 5.49 0 0 0 .26 4.46c.71 1.19 5.16 3 7.11 3.64a22.6 22.6 0 0 0 8 1.1c3.31-.13 7.36-1.86 7.36-3.79-.07-3.79-10.91-5.74-13.18-8.46z" fill="#4d3782"/><path d="m401.21 849.26-9 1.62a29 29 0 0 0 .17 5.21s4.2 1.49 5.64.7a11.26 11.26 0 0 0 3.91-3.75c-1.75-2.16-.72-3.78-.72-3.78z" fill="#fcd2c5"/><path d="m373.15 639.61v42.32c3.16 2.49 21.62 50.46 29.59 78.13.26.91-11.54 82.27-11.54 91 3.29 3.63 9.84.07 9.93-.29 0 0 25.51-41.2 29.61-91 4.77-57.82-11.81-119.22-12.46-123.86-5.38 2.36-28.92 4.77-45.13 3.7z" fill="#5836e5"/><path d="m350.92 854.24c-1.07-1.48-2.33-3.75-2.33-3.75l-7 3.2s-.6.69-.42 2.84a5.49 5.49 0 0 0 -.09 4.46c.61 1.24 4.71 2.72 6.8 4.19 1.68 1.18 4.56 1.59 7.87 1.72s7.48-1.28 7.64-3.2c.28-3.81-10.39-6.6-12.47-9.46z" fill="#4d3782"/><path d="m350 850.19-8.94 1s-.1 3.22.08 5.37c0 0 4.07 1.82 5.57 1.14a11.27 11.27 0 0 0 4.19-3.43 4.75 4.75 0 0 1 -.9-4.08z" fill="#fcd2c5"/><path d="m349.45 630.06c-20.14 38.34 6.52 94.42 10 130.57 0 0-19 49.81-19 90.79 3 3.88 9.8.84 9.92.49 0-16.65 33.27-58.73 36.95-88.89 7-57.72 2.09-119.23 1.81-123.92-5.51-7.1-25.66-14.98-39.68-9.04z" fill="#5836e5"/><path d="m457.62 532.65c-1.56 4.28-8.66 14.72-11.15 16.06-.64 9.07 11.31 15.48 14.45 11.61.6-5.66 7.22-13.21 7.69-14-3.18-1.14-10.39-12.4-10.99-13.67z" fill="#fcd2c5"/><path d="m476.13 524.18c-6-2.74-12.25.43-15 6.4l-2.82 6.2c-2 4.5 1.68 14.74 6 15.69 10.16 2.25 19.86-13.84 20.42-15.9 1.57-5.76-2.99-9.84-8.6-12.39z" fill="#fcd2c5"/><path d="m460.92 560.33s-4.17 1.79-6.95 0c-4.08-2.61-7.51-11.63-7.51-11.63s-10.29-2.93-13.83-3.32c-31.7-3.48-62.2 23.57-94.16 106.61 1.32.84 5 2.63 6.58 3.76l16.95-23.51-10.6 28.16c21.3 24.82 62.43 32.67 74.58 14a296.92 296.92 0 0 1 14.57-37.18c1.88-4 3.75-7.75 5.57-11.22 8.83-16.9 16.34-27.3 17.83-30 4.49-8.11 12.13-16.46 7.06-24.73-1.33-2.11-10.09-10.94-10.09-10.94z" fill="#ce61d4"/><path d="m460.92 560.33s-4.16 1.8-7 0c-4.08-2.59-7.49-11.63-7.49-11.63l-6.89-2.09a30.79 30.79 0 0 0 -7-1.21c8.77 12.14 18.39 37.64 18.39 37.64s12.71-6 17.95-14.26c-1.63-2.45-7.96-8.45-7.96-8.45z" fill="#4d3782"/><path d="m468.14 509c-12 3.72-17.38 18.76-13.08 28.64 0 0 5.53-8.89 10.47-11.76 22.16 16.67 27.59 11.46 28.71 8.8 5.05-12.06-10.35-30.54-26.1-25.68z" fill="#4d3782"/><path d="m457.07 530.64a5.9 5.9 0 0 0 2.14 5.32 80.16 80.16 0 0 0 4.61-6.62 5.6 5.6 0 0 0 -2.43-1.59c-1.64-.48-3.84 1.25-4.32 2.89z" fill="#fcd2c5"/><path d="m424.12 577.12c.82-7-21.21-7.51-18.39 3.62 3.82 15.15 20.42 47.26 22.08 49.49 1.83 2.46 7.06 4.92 12.73 7 1.88-4 3.75-7.75 5.57-11.22-10.55-14.73-23.54-35.85-21.99-48.89z" fill="#ce61d4"/><path d="m501 648.33a17.29 17.29 0 0 1 -5.2.3c1.88.5 1.4 1.6 3.29 2.39.81.09 4.1-1.4 3.92-2.21-.21-1.25-1.13-.72-2.01-.48z" fill="#fcd2c5"/><path d="m507.4 654c-.33-.19-5.1-2.81-7.34-3.74a43.17 43.17 0 0 0 -5.71-2c-.11 0-3.93 5.41-4.62 7.41 3.13 1.38 13.22 4.86 13.44 5 3.68 2.15 5.23 1.45 5 .26-.06-.29 2.85.31 2.87-.87a1.39 1.39 0 0 0 1.19-1 4.62 4.62 0 0 0 -.75-2.65c-.6-.7-3.14-1.87-4.08-2.41z" fill="#fcd2c5"/><path d="m451.39 615.83a33.36 33.36 0 0 0 -1.16-3.42c-2.73-6.85-5.52-17.69-8.21-28.17s-5.22-20.27-7.39-24.75a2.51 2.51 0 0 0 -1.81-1.35c-3.56-.7-20.39 7.27-23 9.88-7.66 7.8 17.33 48 25.31 57.66 7.56 9.45 40.39 26.64 55 32.47l5.52-11.78c-5.91-2.22-19.7-12.46-30.78-20.69-5.01-3.76-9.82-7.33-13.48-9.85z" fill="#ce61d4"/><path d="m916.57 85.05h20.18l2.73-22.03h-32.71z" fill="#d5dbe0"/><path d="m864 6-23-3.53 15.1 27.43 19.11-6.25c0-.25 0-10.06 0-10.06.03-6.24-5.01-7.59-11.21-7.59z" fill="#d5dbe0"/><path d="m856.1 40.22-15.1 27.42 23-3.47c6.23 0 11.28-1.4 11.28-7.63 0 0 0-9.81 0-10.06z" fill="#d5dbe0"/><path d="m836.62 36.27s156.38-.27 156.66-.01c-18.37-64.76-147.97-28.69-156.66.01z" fill="#f0f0f0"/><path d="m836.62 36.27c8.69 28.7 138.29 64.76 156.66 0-.28.31-156.66 0-156.66 0z" fill="#d5dbe0"/><path d="m929.69 14.85c-56.71 0-92.5 21.2-93.06 21.41h156.65c-.28-.26-6.98-21.41-63.59-21.41z" fill="#d5dbe0"/><path d="m929.69 57.69c56.61 0 63.31-21.11 63.59-21.41h-156.65c.56.21 36.37 21.41 93.06 21.41z" fill="#f0f0f0"/><path d="m1726.83 41.19a19.82 19.82 0 0 0 -15.18 7.45h30.35a19.83 19.83 0 0 0 -15.17-7.45z" fill="#f0f0f0"/><path d="m1652.37 32.68c-6.48 0-11.41 7.72-17.27 6.35-12.8-3.03-18.1-19.49-32.1-19.49-10.85 0-17.12 13.46-27.13 12.54-15.85-1.45-23-22.83-40.06-22.83-15.78 0-23.53 18.3-38.1 19.92-8.59 1-14.87-9.36-24.19-9.36-17.6 0-19.14 7-35.35 12-4.65 1.45-8.21 10.52-13.46 10.52-6.18 0-11.66 1.94-15.18 6.25h269.28a30.53 30.53 0 0 0 -26.44-15.9z" fill="#f0f0f0"/><path d="m1203.77 176.2a19.82 19.82 0 0 0 -15.18 7.45h30.36a19.82 19.82 0 0 0 -15.18-7.45z" fill="#f0f0f0"/><path d="m1505.9 177.4c-5.26 0-.66-8.67-13.47-10.52-21.87-3.15-17.75-12-35.34-12-9.33 0-15.61 10.31-24.2 9.36-14.58-1.62-22.33-19.92-38.1-19.92-17.07 0-24.21 21.38-40.06 22.83-10 .91-16.29-12.54-27.13-12.54-14 0-19.31 16.48-32.11 19.48-5.86 1.37-10.79-6.35-17.27-6.35a30.53 30.53 0 0 0 -26.42 16h269.28c-3.52-4.4-9-6.34-15.18-6.34z" fill="#f0f0f0"/><path d="m931.89 770.34h175.79v74.62h-175.79z" fill="#f0f0f0"/><rect fill="#fff" height="365.7" rx="28.94" width="623.53" x="707.93" y="404.63"/><path d="m727.13 421.52h585.11v297.14h-585.11z" fill="url(#c)"/><path d="m1162.44 844.54h-285.5a11.19 11.19 0 1 0 0 22.37h285.5a11.19 11.19 0 1 0 0-22.37z" fill="#fff" fill-rule="evenodd"/><g fill="#d5dbe0"><path d="m1128.15 455.42h27.22v8.57h-27.22z"/><path d="m1168.93 455.42h59.61v8.57h-59.61z"/><path d="m1235.51 455.42h12.39v8.57h-12.39z"/><path d="m1206.86 468.98h41.03v8.57h-41.03z"/><path d="m1128.15 468.98h9.8v8.57h-9.8z"/><path d="m1142.99 468.98h54.19v8.57h-54.19z"/><path d="m1128.15 482.54h32.65v8.57h-32.65z"/><path d="m1167.38 482.54h80.51v8.57h-80.51z"/><path d="m1128.15 669.63h27.22v8.57h-27.22z"/><path d="m1168.93 669.63h59.61v8.57h-59.61z"/><path d="m1235.51 669.63h12.39v8.57h-12.39z"/><path d="m1206.86 683.19h41.03v8.57h-41.03z"/><path d="m1128.15 683.19h9.8v8.57h-9.8z"/><path d="m1142.99 683.19h54.19v8.57h-54.19z"/><path d="m1128.15 696.75h32.65v8.57h-32.65z"/><path d="m1167.38 696.75h80.51v8.57h-80.51z"/><path d="m972.86 669.63h27.22v8.57h-27.22z"/><path d="m1013.63 669.63h59.61v8.57h-59.61z"/><path d="m1080.21 669.63h12.39v8.57h-12.39z"/><path d="m1051.57 683.19h41.03v8.57h-41.03z"/><path d="m972.86 683.19h9.81v8.57h-9.81z"/><path d="m987.7 683.19h54.19v8.57h-54.19z"/><path d="m1013.63 642.48h59.61v8.57h-59.61z"/><path d="m1080.21 642.48h12.39v8.57h-12.39z"/><path d="m1051.57 656.05h41.03v8.57h-41.03z"/><path d="m987.7 656.05h54.19v8.57h-54.19z"/><path d="m972.86 696.75h32.65v8.57h-32.65z"/><path d="m1012.09 696.75h80.52v8.57h-80.52z"/><path d="m839.85 669.63h27.23v8.57h-27.23z"/><path d="m880.62 669.63h59.61v8.57h-59.61z"/><path d="m918.56 683.19h41.03v8.57h-41.03z"/><path d="m839.85 683.19h9.81v8.57h-9.81z"/><path d="m854.69 683.19h54.19v8.57h-54.19z"/><path d="m839.85 696.75h32.65v8.57h-32.65z"/><path d="m879.07 696.75h80.52v8.57h-80.52z"/></g><path d="m1255.65 548.49c.1-.94.47-1.94-.81-1.9-.82 0-1.77 3.43-1.56 4.22 1.09 1.73 2.1 1.09 2.89 2.87a17.28 17.28 0 0 1 -.52-5.19z" fill="#fcd2c5"/><path d="m1250.57 546.31c-.66-.64-2-2.47-2.73-2.8a5.09 5.09 0 0 0 -2.65-.09 1.31 1.31 0 0 0 -.86 1.16c-1.15.24-.3 2.47-.59 2.48-1.18 0-1.72 1.41.71 4 .14.15 4.47 7.61 6.11 9.87a50.48 50.48 0 0 0 6.79-5.17 28.2 28.2 0 0 0 -2.47-4.22c-1.1-1.67-4.1-5-4.31-5.23z" fill="#fcd2c5"/><path d="m1311.22 543.43c-5.25 8-14.93 37.21-22.24 50.32-9 16.08 5.45 16.59 9.74 12.6 11.29-10.51 37.28-44.73 32.44-51.14-2.16-2.78-19-13.21-19.94-11.78z" fill="#fcd2c5"/><path d="m1311.22 543.43c-3.71 5.63-10.25 21.84-17.27 34.72a114.8 114.8 0 0 0 13.88 9.13c1.75 1 7 4 8.77 4.84 10.7-13.74 17.78-32.62 14.55-36.91-2.15-2.78-18.99-13.21-19.93-11.78z" fill="#5836e5"/><path d="m1297.5 597.56c-6.47-8-35.55-33.67-41-43.12a34.17 34.17 0 0 1 -7 5.15c9.19 15.37 36.4 51.06 43.33 49.27 6.34-1.64 6.7-6.53 5.58-9.57a6.45 6.45 0 0 0 -.91-1.73z" fill="#fcd2c5"/><path d="m1125.44 584.2h19.42v43.16h-19.42z" fill="#4d3782"/><path d="m1149.18 566.94h17.26v60.43h-17.26z" fill="#fff"/><path d="m1175.08 577.73h15.11v49.64h-15.11z" fill="url(#d)"/><path d="m1196.66 558.3h19.42v69.06h-19.42z" fill="#4d3782"/><path d="m1220.4 541.04h19.42v86.32h-19.42z" fill="#fff"/><path d="m1246.29 521.62h15.11v105.75h-15.11z" fill="#f0f0f0"/><path d="m1351.56 726.4c.22 2.51 7.25 128.41 7.25 128.41 3.09 2.53 8 2 8.07 1.78 0 0 11.33-128.47 10.91-134.26-3.31 2.55-24.15 6.12-26.23 4.07z" fill="#fcd2c5"/><path d="m1366.43 854.81-6.73-3.74s-1.45 2.16-2.62 3.56c-2.27 2.69-13.16 4.64-13.16 8.46 0 1.93 4.05 3.66 7.36 3.79s6.2-.05 8-1.1c2.2-1.3 6.4-2.45 7.11-3.64a5.5 5.5 0 0 0 .26-4.46c.35-2.13-.22-2.87-.22-2.87z" fill="#4d3782"/><path d="m1357.08 854.63a11.24 11.24 0 0 0 3.91 3.75c1.44.79 5.64-.7 5.64-.7.35-2.13.5-3.57.5-3.57l-7.65-3.44a16.86 16.86 0 0 1 -2.4 3.96z" fill="#fcd2c5"/><path d="m1340.69 631c-1.2 8.63 17.15 221.31 17.15 221.31.09.36 6.63 3.92 9.93.29 0 0 3.44-49 10-95.28 5.7-39.93 8-122.61 8-122.61-16.17 1.09-39.7-1.31-45.08-3.71z" fill="#53d6f2"/><path d="m1316.4 726.4c.22 2.51 7.25 128.41 7.25 128.41 3.09 2.53 8 2 8.07 1.78 0 0 11.33-128.47 10.91-134.26-3.31 2.55-24.16 6.12-26.23 4.07z" fill="#fcd2c5"/><path d="m1331.26 854.81-6.73-3.74s-1.44 2.16-2.62 3.56c-2.27 2.69-13.16 4.64-13.16 8.46 0 1.93 4.05 3.66 7.36 3.79a22.64 22.64 0 0 0 8-1.1c2-.64 6.41-2.45 7.11-3.64a5.5 5.5 0 0 0 .26-4.46c.33-2.13-.22-2.87-.22-2.87z" fill="#4d3782"/><path d="m1321.91 854.63a11.29 11.29 0 0 0 3.91 3.75c1.44.79 5.64-.7 5.64-.7.35-2.13.5-3.57.5-3.57l-7.65-3.44a16.68 16.68 0 0 1 -2.4 3.96z" fill="#fcd2c5"/><path d="m1305.52 631c-1.2 8.63 17.15 221.31 17.15 221.31.09.36 6.63 3.92 9.93.29 0 0 3.44-49 10-95.28 5.7-39.93 4.85-77.8 8-80.29v-42.3c-16.16 1.07-39.7-1.33-45.08-3.73z" fill="#53d6f2"/><path d="m1304.28 627.55s-5.16 24.77-2.68 26.92c5.61 4.87 26.65.38 42.66-1.59s45.5 1.28 46.27-2c2.08-8.82-1.84-28.32-1.84-28.32z" fill="#5836e5"/><path d="m1345.91 512.12c-1.13.83-12.83 7.32-16.16 6.82 0 .92 2.28 10.71.11 16 .93 4.9 14.5 4.93 18.24-3.36-1.57-2.4-2.86-14.95-2.19-19.46z" fill="#fcd2c5"/><path d="m1333.63 495.88c-6.15-.42-12.1 1-13.46 6.81-.48 2.08.4 20.84 10.42 23.69 4.23 1.2 12.37-6 12.7-11l.47-6.79c.45-6.51-3.52-12.26-10.13-12.71z" fill="#fcd2c5"/><path d="m1380.35 553.52c-3.76-10.34-8.09-15.81-18.5-18.31-3.47-.83-13.76-3.66-13.76-3.66s-7.3 6.33-12.12 6.68c-3.31.24-6.12-3.32-6.12-3.32s-11.9 3.62-14.07 4.87c-8.39 4.87-8.53 13.1-9 19.91-4.9 68-8 77.95-5.83 81.71 5.22 9.22 91.86 3.13 90.25-8.27-5.39-37.95-9.69-76.42-10.85-79.61z" fill="#ce61d4"/><path d="m1347.46 492.8c-9-8.14-22.88.47-22.88.47-10.59 2-8.29 17.51-3.43 19.77-2.3-11.4 5.44-15.08 5.44-15.08 14.35-.21 19.34 16.9 18.37 21.33.04 0 16.04-14.24 2.5-26.49z" fill="#f0f0f0"/><path d="m1343.52 506a5.56 5.56 0 0 0 -2.74.95 79.29 79.29 0 0 0 2.86 7.55 5.92 5.92 0 0 0 3.37-4.64c-.07-1.69-1.79-3.86-3.49-3.86z" fill="#fcd2c5"/><path d="m1381.65 502.95c-3-41.68-36.88-24.12-36.09-13.17.2 2.69 1.67 4.27 3.87 1.43 3.71-4.79 17-9.06 9.29 16.32-2 6.7-10.77 15.33 8.19 27.44 17.15 11 3 15.14 4 20.2 2.43 13 36.14-15.18 18.3-34.62-3.67-3.91-6.66-5.04-7.56-17.6z" fill="#f0f0f0"/><path d="m1347.57 489a4.07 4.07 0 0 0 -2.44-.63 5.27 5.27 0 0 0 -3.14 1.53c4.38 1.44 8 5.47 8 5.47.93-2.14.86-4.42-2.42-6.37z" fill="#4d3782"/><path d="m1259.27 560.88c-.46-.83-.72-1.86-1.75-1.11-.7.43.5 3.84 1.12 4.36 1.88.81 2.35-.3 4 .72a17.22 17.22 0 0 1 -3.37-3.97z" fill="#fcd2c5"/><path d="m1258.54 562.84c-2.22-1-7.41-2.59-7.78-2.71-1.07-.27-3.68-1.29-4.55-1.25a4.6 4.6 0 0 0 -2.43 1.3 1.39 1.39 0 0 0 .11 1.55c-.84.83 1.61 2.52 1.36 2.67-1 .64-.47 2.24 3.63 3.41.24.07 9.75 4.94 12.91 6.24 1-1.88 2.23-8.4 2.14-8.47a43.63 43.63 0 0 0 -5.39-2.74z" fill="#fcd2c5"/><path d="m1360.67 539.13c-8.21 4.87-29.72 26.91-42 35.49-15.11 10.52-2.37 17.31 3.23 15.6 14.76-4.5 53.1-23.88 51.57-31.77-.71-3.45-11.32-20.21-12.8-19.32z" fill="#fcd2c5"/><path d="m1360.67 539.13c-6.62 1.24-18.77 15.14-30.73 23.64 1.62 6.63 7.42 16.61 14.24 22.48 15.63-7.66 27.76-17.45 30.57-22 7.25-11.78-5.52-25.74-14.08-24.12z" fill="#5836e5"/><path d="m1323.35 578.3a6.11 6.11 0 0 0 -1.75-.89c-9.89-2.94-48.39-7.45-58.21-12.16a34.21 34.21 0 0 1 -2.85 8.23c16.31 7.41 59 21.28 63.66 15.86 4.29-4.96 1.8-9.18-.85-11.04z" fill="#fcd2c5"/><path d="m831.61 631.93a19.17 19.17 0 0 1 -5 1.41c1.94.08 1.71 1.26 3.73 1.63.81-.09 4.64-3.05 4.3-3.8-.46-1.17-1.52.15-3.03.76z" fill="#fcd2c5"/><path d="m823.3 633.62c-.1 0-.82 6.64-.45 8.72a23.11 23.11 0 0 1 6.3.36c4.26.09 3.82-8.35 3.56-9.22-.21-.66-3.71 2.78-9.41.14z" fill="#fcd2c5"/><path d="m758.11 551.64c-.87-1.5-18.32 8-20.57 10.62-5.2 6.13 18.78 41.77 29.46 52.92 4.05 4.23 18.48 4.54 10.44-12-6.55-13.54-14.55-43.29-19.33-51.54z" fill="#fcd2c5"/><path d="m773.31 604.42c-3.22-.39-7.89 1.08-8 7.64-.15 7.16 51.88 31.15 57.56 30.28.51-2.2 2.06-4.36 3.75-7.48-10.44-3.08-42.08-25.49-51.39-29.92a6.24 6.24 0 0 0 -1.92-.52z" fill="#fcd2c5"/><path d="m778.41 604.86c-.36-1.06-15.91-53-18.28-57.25-.37-.66-26 7.81-28.31 10.49-7 8 23 48.27 31.36 57.26 7.89 8.77 40.79 23.63 55.36 28.48l4.71-11.77c-5.87-1.83-19.86-11-31.1-18.38-5.15-3.38-10.04-6.58-13.74-8.83z" fill="#4d3782"/><path d="m704.19 721c-.79 5.75 2.38 134.68 2.38 134.68.07.26 4.93 1.07 8.17-1.26 0 0 15-125.2 15.38-127.69-2.21 1.88-22.79-3-25.93-5.73z" fill="#fcd2c5"/><path d="m716.47 854.32c-1.09-1.47-2.39-3.72-2.39-3.72l-7 3.31s-.59.7-.38 2.85a5.49 5.49 0 0 0 0 4.46c.63 1.23 5 3.32 6.87 4.08a22.67 22.67 0 0 0 7.89 1.6c3.31.08 7.46-1.39 7.59-3.32.26-3.8-10.48-6.43-12.58-9.26z" fill="#5836e5"/><path d="m743.39 844.86c-1.28-1.73-2.19-1.86-2.19-1.86l-7.38 2.22s.55 2.54.73 4.36c.35 3.5-5.84 12.67-3.11 15.33 1.38 1.34 5.45-.36 7.85-2.64s4.29-4.49 4.77-6.48c.6-2.49 2.7-6.3 2.34-7.64a5.49 5.49 0 0 0 -3.01-3.29z" fill="#5836e5"/><path d="m733.38 845.1a16.74 16.74 0 0 1 1.17 4.48 11.26 11.26 0 0 0 5.42-.19c1.57-.48 3.43-4.53 3.43-4.53-1.28-1.74-2.22-2.85-2.22-2.85z" fill="#fcd2c5"/><path d="m711 641.9c-16.14 1.85-37.28.9-42.76-1.19-.41 4.54 5.25 62.84 11.94 119.19 3.22 26.97 53.82 87.1 53.82 87.1.11.35 5.78 1 8.89-2.75 0 0-34.26-68.43-33.43-85.7 1.89-39 6.23-88.36 1.54-116.65z" fill="url(#e)"/><path d="m706.48 853.16s.06 1.45.27 3.6c0 0 4.09 1.76 5.58 1.05a11.26 11.26 0 0 0 4.14-3.49 16.73 16.73 0 0 1 -2.15-4.1z" fill="#fcd2c5"/><path d="m703.89 633s-5.09 82.71-1.89 122.92c3.66 46.58 4 95.73 4 95.73 3.05 3.83 9.81.69 9.93.34 0 0 34-211.08 33.3-219.77-5.58 2.01-29.23 2.91-45.34.78z" fill="url(#f)"/><path d="m673.29 621.35s-7.89 19-4.83 31.67a97.9 97.9 0 0 0 32.46 9.6l6.48-14.21s5.35 15.59 8 15.92c14.64 1.86 29.72 1.79 40.37-3.25l-3.26-22.86z" fill="#ce61d4"/><path d="m729.42 510.85c0 4.56-3 16.82-4.84 18.94 2.56 8.73 16 10.56 17.6 5.84-1.42-5.51 2.16-14.9 2.31-15.81-3.38.04-14.07-8-15.07-8.97z" fill="#fcd2c5"/><path d="m755.45 542.39c-2-1.54-13.26-6.76-13.26-6.76s-3.27 3.14-6.52 2.45c-4.73-1-11.08-8.29-11.08-8.29s-10.58 1.39-14.13 1.74c-10.65 1-16.72 9.72-20.32 18-8.14 18.81-17.14 62.66-19.43 74.47a5.35 5.35 0 0 0 1.81 5.2c18.36 15 69.95 17.62 79.53 14.59 7.36-2.33 2.48-57.69 9.61-80.44 2.03-6.52 1.43-14.98-6.21-20.96z" fill="#4d3782"/><path d="m588.71 491.94c-.87-.69-2.81-2.71-3.62-3a4.61 4.61 0 0 0 -2.75.16 1.39 1.39 0 0 0 -.55 1.45c-1.11.4.41 3 .12 3-1.2.15-1.36 1.84 1.88 4.62.19.17 6.8 8.55 9.13 11.06 1.66-1.31 5.53-6.71 5.48-6.8a43.64 43.64 0 0 0 -3.75-4.74c-1.65-1.86-5.65-5.5-5.94-5.75z" fill="#fcd2c5"/><path d="m701.6 531.75c-9.48-1.12-40 3.33-55 2.67-18.4-.81-12.39 12.31-6.9 14.36 14.46 5.38 56.69 13.27 60.26 6.07 1.59-3.13 3.36-22.85 1.64-23.1z" fill="#fcd2c5"/><path d="m645.9 537.19c-7.77-6.8-40.88-27-47.84-35.32a34.19 34.19 0 0 1 -6 6.3c11.73 13.53 44.74 43.94 51.25 41 6-2.72 5.46-7.6 3.83-10.4a6.22 6.22 0 0 0 -1.24-1.58z" fill="#fcd2c5"/><path d="m716.63 530.81c-30.76-2.85-70.81 3.32-71.93 3.4-3.53-2.51-8.41-5.72-13.55-9.11-11.23-7.4-25.2-16.6-29.21-21.27l-8.94 9c10.22 11.46 36.91 35.77 48.09 39.54 11.54 4.07 55.29 12.73 59.88 3.12 1.53-3.24 19.18-24.35 15.66-24.68z" fill="#4d3782"/><path d="m754.49 529.37a34.06 34.06 0 0 0 .73-18.95c-2.53-4.73-11.53 3.41-11.65 3.56 1.19 4.56 1.71 11.64.2 17.18-1.47 5.39-4.92 9.09-2.76 22.28 3.1 19-8.39 37.92-4.65 40.42 3.4 2.27 16.33-6.63 19.67-27 .57-3.49 1-10.92-1.33-16.58-1.41-3.41-3.45-11.17-.21-20.91z" fill="#5836e5"/><path d="m744.93 495.54c-6.6-.46-12.45 5.6-12.91 12.14l-.47 6.79c-.34 4.93 6.72 13.22 11.08 12.61 10.31-1.44 13.77-19.9 13.58-22-.56-5.97-5.13-9.08-11.28-9.54z" fill="#fcd2c5"/><path d="m754.86 491.56a9.75 9.75 0 0 0 -6.18-1.74s.28-2.9-5.36-6c-4.51-2.46-13.4-1.41-20.42 5.09s-12 16.89-9.45 28.55a26.26 26.26 0 0 1 -5.53 23.25c-5 5.72-6.17 14.12-6.15 18.15.07 23.55 17.71 36.69 23.5 35 6.35-1.86-6.57-25.85 2.89-46.22 6.59-14.17 2.21-19.15 1.3-25.53-1.2-8.36 3.26-18.68 7-22.3 4.15-4 11.78-4 11.78-4s10.54 3.84 5 20.71c6.16-4.35 8.33-20.36 1.62-24.96z" fill="#5836e5"/><path d="m728.63 508.48a5.9 5.9 0 0 0 2.7 5.06 79.94 79.94 0 0 0 3.88-7.08 5.61 5.61 0 0 0 -2.59-1.31c-1.68-.31-3.68 1.65-3.99 3.33z" fill="#fcd2c5"/><path d="m552.59 626.56h47.37v25.88h-47.37z" fill="url(#g)"/><path d="m552.59 626.57h47.35l55.71-72.94h-158.76z" fill="#f0f0f0"/><path d="m656 540h-159.42a6.84 6.84 0 1 0 0 13.68h159.42a6.84 6.84 0 1 0 0-13.68z" fill="url(#h)"/><path d="m1503.7 463.31h5.59v66.54h-5.59z" fill="#4d3782"/><path d="m1566.54 463.31h5.6v66.54h-5.6z" fill="#4d3782"/><path d="m1557.47 555.59h74.11v5.6h-74.11z" fill="#4d3782"/><path d="m1524.67 463.31h-5.6v24.37h16.76v33.64h5.6v-39.23h-16.76z" fill="#4d3782"/><path d="m1607.2 523.46h-33.63v5.6h39.23v-16.76h18.78v-5.6h-24.38z" fill="#4d3782"/><path d="m1573 643.57h-5.6v22.83h9.88v10.46h5.6v-16.06h-9.88z" fill="#4d3782"/><path d="m1488.65 480.01h-16.01v24.5h5.6v-18.9h16v-22.3h-5.59z" fill="#4d3782"/><path d="m1433.01 602.16h-24.51v5.6h18.91v16h40.01v-5.6h-34.41z" fill="#4d3782"/><path d="m1427.41 571.17h-18.91v5.6h24.51v-16.01h34.41v-5.6h-40.01z" fill="#4d3782"/><path d="m1606.2 586.06c-4.77 0-8.78 0-10.11-.07l-1.43-.05-.2 5.59 1.42.05c1.25 0 4.76.07 10.44.07 6.91 0 15.34 0 19.66-.06v14.28h5.59v-19.87h-2.82c-.21 0-12.92.06-22.55.06z" fill="#4d3782"/><path d="m1508.66 639.67-5.59-.21-.05 1.43c-.12 3.38-.05 22.35 0 30.11h-7.11v5.6h12.74v-3.42c-.08-18.06-.08-29.75 0-32.07z" fill="#4d3782"/><path d="m1541.34 640.89-.05-1.43-5.59.2v1.43c.15 4 0 32.41 0 32.69v2.81h19.89v-5.59h-14.27c.07-9 .14-26.84.02-30.11z" fill="#4d3782"/><path d="m1584 617.78h47.58v5.6h-47.58z" fill="#4d3782"/><path d="m1408.5 523.53h62.64v5.6h-62.64z" fill="#4d3782"/><path d="m1408.5 586.36h47.59v5.6h-47.59z" fill="#4d3782"/><path d="m1472.64 629.01h5.6v47.59h-5.6z" fill="#4d3782"/><path d="m1465.89 501.23h18.37v11.27h-18.37z" fill="#f0f0f0"/><path d="m1497.31 501.23h18.37v11.27h-18.37z" fill="#f0f0f0"/><path d="m1528.73 501.23h18.37v11.27h-18.37z" fill="#f0f0f0"/><path d="m1560.15 501.23h18.38v11.27h-18.38z" fill="#f0f0f0"/><path d="m1465.89 634.41h18.37v11.27h-18.37z" fill="#f0f0f0"/><path d="m1497.31 634.41h18.37v11.27h-18.37z" fill="#f0f0f0"/><path d="m1528.73 634.41h18.37v11.27h-18.37z" fill="#f0f0f0"/><path d="m1560.15 634.41h18.38v11.27h-18.38z" fill="#f0f0f0"/><path d="m1583.16 517.14h11.27v18.37h-11.27z" fill="#f0f0f0"/><path d="m1583.16 548.56h11.27v18.37h-11.27z" fill="#f0f0f0"/><path d="m1583.16 579.97h11.27v18.37h-11.27z" fill="#f0f0f0"/><path d="m1583.16 611.39h11.27v18.38h-11.27z" fill="#f0f0f0"/><path d="m1449.98 517.14h11.27v18.37h-11.27z" fill="#f0f0f0"/><path d="m1449.98 548.56h11.27v18.37h-11.27z" fill="#f0f0f0"/><path d="m1449.98 579.97h11.27v18.37h-11.27z" fill="#f0f0f0"/><path d="m1449.98 611.39h11.27v18.38h-11.27z" fill="#f0f0f0"/><path d="m1455.62 506.86h133.18v133.18h-133.18z" fill="#f0f0f0"/><path d="m1469.28 520.52h105.86v105.86h-105.86z" fill="url(#i)"/><g fill="#f0f0f0"><path d="m1480.15 530.92h12.97v12.97h-12.97z"/><path d="m1497.94 530.92h12.97v12.97h-12.97z"/><path d="m1515.72 530.92h12.97v12.97h-12.97z"/><path d="m1533.52 530.92h12.97v12.97h-12.97z"/><path d="m1551.3 530.92h12.97v12.97h-12.97z"/><path d="m1480.15 548.94h12.97v12.97h-12.97z"/><path d="m1497.94 548.94h12.97v12.97h-12.97z"/><path d="m1515.72 548.94h12.97v12.97h-12.97z"/><path d="m1533.52 548.94h12.97v12.97h-12.97z"/><path d="m1551.3 548.94h12.97v12.97h-12.97z"/><path d="m1480.15 566.97h12.97v12.97h-12.97z"/><path d="m1497.94 566.97h12.97v12.97h-12.97z"/><path d="m1515.72 566.97h12.97v12.97h-12.97z"/><path d="m1533.52 566.97h12.97v12.97h-12.97z"/><path d="m1551.3 566.97h12.97v12.97h-12.97z"/><path d="m1480.15 584.99h12.97v12.97h-12.97z"/><path d="m1497.94 584.99h12.97v12.97h-12.97z"/><path d="m1515.72 584.99h12.97v12.97h-12.97z"/><path d="m1533.52 584.99h12.97v12.97h-12.97z"/><path d="m1551.3 584.99h12.97v12.97h-12.97z"/><path d="m1480.15 603.02h12.97v12.97h-12.97z"/><path d="m1497.94 603.02h12.97v12.97h-12.97z"/><path d="m1515.72 603.02h12.97v12.97h-12.97z"/><path d="m1533.52 603.02h12.97v12.97h-12.97z"/><path d="m1551.3 603.02h12.97v12.97h-12.97z"/></g><path d="m818.4 606.26h28.6v19.78h-28.6z" fill="#d5dbe0" transform="matrix(.69978803 -.71435055 .71435055 .69978803 -190.16 779.85)"/><path d="m807.32 621.95-58.58 59.79a14.06 14.06 0 0 0 20.09 19.68l58.57-59.79a14.06 14.06 0 1 0 -20.08-19.68z" fill="#fff"/><path d="m814.6 547.28a86.27 86.27 0 0 0 4.19 26.44l25.56-7.43a52.08 52.08 0 0 1 -2.77-19.12c1.42-31.67 24.71-58.64 56.72-60.89v-25.55a86.52 86.52 0 0 0 -83.7 86.55z" fill="#ce61d4"/><path d="m902.86 486.12c15.34.06 30.34 6.6 41.62 17l17.69-17.23a86.18 86.18 0 0 0 -59.32-25.23z" fill="#f0f0f0"/><path d="m947.73 506.36c10.27 10.93 16.65 25.33 16 40.82-1.48 33-26.72 60.92-60.83 61v25.52a86.52 86.52 0 0 0 62.51-144.51z" fill="#5836e5"/><path d="m846 570.57-25.71 7.43a86.57 86.57 0 0 0 78 55.65v-25.65c-22.38-1.73-43.41-16.91-52.29-37.43z" fill="#4d3782"/><path d="m904.6 494.76v55h-55a51.68 51.68 0 1 0 55-55z" fill="#fff"/><path d="m859.17 522.52 38.53 18.31v-42.68a48.34 48.34 0 0 0 -38.53 24.37z" fill="url(#j)"/><path d="m853 542.84h32.85l-29.69-14.1a47.51 47.51 0 0 0 -3.16 14.1z" fill="#4d3782"/><path d="m1033.09 496.69a23.78 23.78 0 0 0 28.06 4.43l-11-21.53z" fill="#f0f0f0"/><path d="m1039.23 458.06 11 21.53 11 21.53a24.15 24.15 0 1 0 -21.91-43.05z" fill="#ce61d4"/><path d="m1026.32 483.38 23.87-3.79-11-21.53a23.82 23.82 0 0 0 -12.87 25.32z" fill="#5836e5"/><path d="m1033.09 496.69 17.1-17.1-23.87 3.79a23.15 23.15 0 0 0 6.77 13.31z" fill="url(#k)"/><path d="m1027.24 546.24 23 7.47v-24.18a23.77 23.77 0 0 0 -23 16.71z" fill="#f0f0f0"/><path d="m1027.24 546.24a24.15 24.15 0 1 0 45.94 14.94l-23-7.47z" fill="#ce61d4"/><path d="m1064.4 534.15-14.2 19.56 23 7.47a23.82 23.82 0 0 0 -8.8-27.03z" fill="#5836e5"/><path d="m1050.2 553.72 14.2-19.56a23.15 23.15 0 0 0 -14.2-4.62z" fill="url(#l)"/><path d="m569 478.08 26 21.25a33.11 33.11 0 0 0 2.25-39.49z" fill="#f0f0f0"/><path d="m542.9 456.81a33.64 33.64 0 1 0 52.1 42.52l-26-21.25z" fill="#4d3782"/><path d="m542.9 456.81 26.1 21.27 12.2-31.38a33.18 33.18 0 0 0 -38.3 10.11z" fill="#5836e5"/><path d="m588.16 438.31-12.16 31.38 28.32-18.24a32.24 32.24 0 0 0 -16.16-13.14z" fill="#ce61d4"/><path d="m595 494.43c-.82.1-1 5-.64 5.7 1.38 1.52 1.73 1.28 3.19 1a17.34 17.34 0 0 1 -1.42-5c-.06-.91.13-1.96-1.13-1.7z" fill="#fcd2c5"/><path d="m820.45 633.24c-.57.71.59 1.95.59 1.95-.91.76 1.4 2.64 1.14 2.77-1.08.56-.64 2.2 3.35 3.69a7.61 7.61 0 0 0 5.9.78c2-.57 3.38-7.37 2.56-7.94-5.12-3.59-13.11-1.79-13.54-1.25z" fill="#fcd2c5"/><path d="m1471.62 726.34c-.7 3.3.32 7.23-.25 10.62-.73 4.25-3.42 5.46-5.25 8.15-2.16 3.17-3.15 9.12-2.36 14.19a73.84 73.84 0 0 0 2.36 8.65 20.18 20.18 0 0 1 .64 9.4c-1 4.51-6.51 8-6.51 27.15 0 17.46 12.47 24.25 16 28.53v-113.23l-1.6 1.55a9.23 9.23 0 0 0 -3.03 4.99z" fill="#ce61d4"/><path d="m1486.19 767.95a73.84 73.84 0 0 0 2.36-8.65c.79-5.07-.19-11-2.36-14.19-1.83-2.68-4.53-3.9-5.25-8.15-.58-3.4.45-7.32-.25-10.62a9.23 9.23 0 0 0 -3-5l-1.6-1.55v113.21c3.53-4.28 16-11.07 16-28.53 0-19.13-5.48-22.64-6.51-27.15a20.29 20.29 0 0 1 .61-9.37z" fill="#ce61d4"/><path d="m1492 794c-.82 1.08-.46 2.71-1.2 3.84-.93 1.42-3 1.36-4.56 2a5 5 0 0 0 -3.06 4.76 18.75 18.75 0 0 0 .87 3.61 4.13 4.13 0 0 1 -.43 3.57c-1.17 1.46-5.45 1.72-7.28 8.73-1.67 6.4 6.66 11.23 8.8 13.46l10.81-41.5-1.3.27a4.26 4.26 0 0 0 -2.65 1.26z" fill="url(#m)"/><path d="m1497.71 799.62c-.09-1.35 1-2.6.83-3.94a4.26 4.26 0 0 0 -1.71-2.4l-1-.87-10.83 41.51c3-.9 12.58-1.06 14.25-7.46 1.83-7-1.79-9.33-2.09-11.17a4.13 4.13 0 0 1 1.36-3.33 18.61 18.61 0 0 0 2.52-2.73 5 5 0 0 0 -.35-5.64c-1.04-1.32-2.87-2.27-2.98-3.97z" fill="url(#n)"/><path d="m1455.64 830.17s7.77 8.33 7.77 13.93a24.75 24.75 0 0 1 -1.33 6.35 12.64 12.64 0 0 0 12 16.46h20.54a12.64 12.64 0 0 0 12-16.46 24.75 24.75 0 0 1 -1.33-6.35c0-5.6 7.77-13.93 7.77-13.93z" fill="#fff"/><path d="m1665.76 602.21c-3.76 8.77-8.18 39.25-13.08 53.44-6 17.4 8.27 15.38 11.79 10.7 9.28-12.33 28.87-50.57 23-56-2.58-2.4-21.02-9.73-21.71-8.14z" fill="#fcd2c5"/><path d="m1601.63 693.18c-.92-.2-1.88-.69-2 .58-.14.81 3.21 2.15 4 2 1.85-.89 1.32-2 3.18-2.54a17.3 17.3 0 0 1 -5.18-.04z" fill="#fcd2c5"/><path d="m1608.24 692.77a43.07 43.07 0 0 0 -5.61 2.25c-2.2 1-6.84 3.88-7.16 4.08-.91.63-3.4 1.92-3.94 2.6a4.63 4.63 0 0 0 -.62 2.68 1.38 1.38 0 0 0 1.24.94c.07 1.18 3 .45 2.9.74-.19 1.2 1.38 1.83 5-.49.22-.14 10.14-4.09 13.2-5.61-.84-1.96-4.91-7.21-5.01-7.19z" fill="#fcd2c5"/><path d="m1656.93 656.43a6.23 6.23 0 0 0 -1.82.74c-8.73 5.51-37.48 31.51-47.48 35.81a34.13 34.13 0 0 1 4.32 7.56c16.31-7.39 54.86-30.38 53.86-37.47-.91-6.5-5.73-7.41-8.88-6.64z" fill="#fcd2c5"/><path d="m1662.74 597.34c-1.5 9.64-3 18.55-5.2 29.08s-4.49 21.55-6.9 28.53a34.06 34.06 0 0 0 -1 3.47c-3.54 2.69-8.18 6.48-13.07 10.48-10.69 8.73-24 19.6-29.78 22.09l6.06 11.51c14.36-6.51 46.36-25.2 53.45-35 7.54-10.08 27.51-46.62 22.23-56.2-8.78-15.88-25.67-14.72-25.79-13.96z" fill="#53d6f2"/><path d="m1673.45 703.62c-14 .68-87.19 26.89-116.94 44.75-12.65 7.6-7.39 21.16 6.53 20.31 40.26-2.44 93.56-.94 117.24-17.9 37.66-26.97.62-47.52-6.83-47.16z" fill="#4d3782"/><path d="m1596.62 844.62c-.19 4.05-.3 6.4-.3 6.4 2.81 2.84 7.73 2.85 7.84 2.61a21.23 21.23 0 0 0 .54-8.55c-.49.04-4.43-3.82-8.08-.46z" fill="#fcd2c5"/><path d="m1551.13 769.26c24.19 43.63 45 80 45 80a8.18 8.18 0 0 1 9.24-3.63s-14-41-28.19-82.55c-9.36-27.36-35.92-11.62-26.05 6.18z" fill="#4d3782"/><path d="m1596.43 848.74a19.12 19.12 0 0 1 -1.81 1.92c-2.54 2.44-14 7.54-14.41 11.34-.2 1.92 3.65 4.06 6.93 4.53s6.18.59 8-.27c2.33-1.07 7.07-6.07 7.89-7.18 1.44-1.93 1.45-7.27 1.45-7.27-1.86-4.53-8.05-3.07-8.05-3.07z" fill="#4d3782"/><path d="m1596.19 853.55c-3.3 2.3-13.95 6-14.28 9.24-.17 1.61 3.08 3.42 5.84 3.82s5.2.5 6.77-.22c2-.9 6-5.1 6.65-6 3.73-5.23-1.78-9.08-4.98-6.84z" fill="url(#o)"/><path d="m1658.59 846.47c.91 4.75 2.32 9.68 2.32 9.68 2.81-.64 7.15-2.29 10-5.13 0 0-2.16-3.34-3.72-6.44-3.67-3.35-8.09 1.93-8.6 1.89z" fill="#fcd2c5"/><path d="m1616 775.73c24.2 43.63 42.82 73.55 42.82 73.55a8.18 8.18 0 0 1 9.24-3.63s-11.88-34.53-26-76.07c-9.34-27.38-35.9-11.64-26.06 6.15z" fill="#4d3782"/><path d="m1670.42 850.66c-1.32-1.27-1.26-1.56-1.81-1.92-1.81-1.19-7.12-1.75-8.09 3.08a10.78 10.78 0 0 0 1.44 7.27c.83 1.11 5.57 6.11 7.9 7.18 1.87.85 4.77.74 8 .27s7.13-2.62 6.93-4.53c-.35-3.81-11.79-8.91-14.37-11.35z" fill="#4d3782"/><path d="m1668.86 853.55c-3.2-2.23-8.71 1.62-5 6.79.68.94 4.69 5.15 6.65 6 1.57.72 4 .62 6.78.22s6-2.2 5.83-3.82c-.32-3.15-10.96-6.89-14.26-9.19z" fill="url(#p)"/><path d="m1695.89 702.33c-16.12 2-32.16 4.3-48.44 4.66a98.52 98.52 0 0 1 -28.59-3.34c0 15.08-3 17.38-9.77 21.45 4.77 16.57 14.31 21.18 22.59 23.88 21.79 7.12 76.29-9.19 77.84-9.31a365.51 365.51 0 0 0 -2.72-38.94c-3.54.66-7.19 1.13-10.91 1.6z" fill="#f0f0f0"/><path d="m1662.52 570.07c-1.13.83-12.8 7.36-16.14 6.86 0 .93 2.31 10.71.16 16 .95 4.89 14.51 4.89 18.23-3.41-1.57-2.38-2.9-14.93-2.25-19.45z" fill="#fcd2c5"/><path d="m1650.2 553.87c-6.15-.4-12.09 1-13.44 6.85-.48 2.08.47 20.84 10.49 23.66 4.24 1.19 12.35-6.07 12.67-11 0 0 .44-6.73.44-6.79.44-6.59-3.55-12.29-10.16-12.72z" fill="#fcd2c5"/><path d="m1678.53 593.12c-3.47-.82-13.77-3.62-13.77-3.62s-2 2.82-8.29 4.16a17.31 17.31 0 0 1 -9.93-.75s-11.89 3.65-14.05 4.91c-8.38 4.9-8.42 8.43-9 19.94-.25 5.37-.37 87.84-13.4 106.81.43.76 5.13 12 15.89 14.86l2.64-23.33 2.39 24.4c25.21 5.41 44.53-4.56 64.79-7.66l1.94-30.62 5.83 29.52c2-.24 3.73-.43 5.28-.55-.27-46.76-13.21-117-13.79-119.15-2.38-9.04-6.12-16.45-16.53-18.92z" fill="#53d6f2"/><path d="m1663.08 546.44c-9.61-7.54-25.83-.23-30.08 9.63-3.17 7.35-6.13 2.25-5.83.3-1 4.89 1.11 9.12 10.55 8.41 2-.15-4.39 1.82-4.39 1.82s10.09 20.91 25.67 15.79c4.63-1.52 8.66-6 8.66-6s-5 .84-2.39-3.28c5.18-8.04 6.3-20.02-2.19-26.67z" fill="url(#q)"/><path d="m1530 567.95c-.82 0-1.75 3.45-1.52 4.23 1.1 1.73 2.11 1.08 2.9 2.85a17.53 17.53 0 0 1 -.56-5.18c.1-.95.47-1.95-.82-1.9z" fill="#fcd2c5"/><path d="m1524.22 564.44c-.74-.83-2.31-3.14-3.06-3.6a4.62 4.62 0 0 0 -2.74-.3 1.39 1.39 0 0 0 -.78 1.34c-1.17.21-.09 3-.39 3-1.21 0-1.65 1.59 1.08 4.87.16.2 5.28 9.57 7.16 12.43 1.85-1 6.57-5.69 6.54-5.79a43.35 43.35 0 0 0 -2.91-5.3c-1.28-2.09-4.66-6.36-4.9-6.65z" fill="#fcd2c5"/><path d="m1571.49 614.42c-8.33-6.09-33-31.71-40.68-39.43a34.1 34.1 0 0 1 -5.45 6.79c12.87 12.46 38.35 48.29 44.57 44.75 5.7-3.23 4.78-8 2.91-10.69a6.28 6.28 0 0 0 -1.35-1.42z" fill="#fcd2c5"/><path d="m1626.51 604.13c-9.51-.28-39.51 6.87-54.51 7.47-18.39.8-11.27 13.35-5.62 14.9 14.87 4.09 57.64 8.27 60.56.78 1.27-3.28 1.3-23.09-.43-23.15z" fill="#fcd2c5"/><path d="m1629.93 599.54c-9.52 2.14-18.36 4-29 5.85s-21.7 3.74-29.07 4.06a32.86 32.86 0 0 0 -3.6.35c-3.81-2.31-30.33-30.24-34.78-34.72l-9.67 8.26c9.52 12.07 30.41 42.29 42.09 45.29 12.15 3.31 56.57 9.86 63.53 1.44 11.63-14.02 1.26-30.7.5-30.53z" fill="#53d6f2"/><path d="m1715.17 774.53 31.66 92.17h3.55l-31.66-92.17z" fill="#f0f0f0"/><path d="m1661.64 774.53 31.67 92.17h3.54l-31.66-92.17z" fill="#f0f0f0"/><path d="m1722.21 638.26c-22.2 0-43.57 18-47.73 40.2l-13.9 57.72c-2.44 13-16.74 22.5-30 22.5h-28.91a7.89 7.89 0 0 0 0 15.77l119.22.12a11.54 11.54 0 0 0 11.34-9.36l22.68-86.77c4.09-22.18-10.5-40.18-32.7-40.18z" fill="url(#r)"/><path d="m1722.21 638.26c-22.2 0-43.57 18-47.73 40.2l-13.9 57.78c-2.44 13-16.74 22.56-30 22.56h-28.91a7.85 7.85 0 1 0 0 15.69l3.74-.05a7.94 7.94 0 0 1 7.25-4.85h28.91c13.27 0 27.57-9.41 30-22.46l13.9-57.7c4.16-22.2 25.53-40.19 47.73-40.19a35.06 35.06 0 0 1 17.85 4.64c-5.57-9.49-15.9-15.62-28.84-15.62z" fill="#fff"/><path d="m1592.08 866.7h3.55l31.66-92.17h-3.55z" fill="#fff"/><path d="m1645.6 866.7h3.55l31.66-92.17h-3.54z" fill="#fff"/></svg>