<svg xmlns="http://www.w3.org/2000/svg" xmlns:xlink="http://www.w3.org/1999/xlink" viewBox="0 0 1815.73 866.91"><defs><style>.cls-1{fill:#f0f0f0;}.cls-2{fill:url(#_ÂÁ_Ï_ÌÌ_È_ËÂÌÚ_30);}.cls-3{fill:#fcd2c5;}.cls-4{fill:#ce61d4;}.cls-5{fill:url(#_ÂÁ_Ï_ÌÌ_È_ËÂÌÚ_98);}.cls-6{fill:#4d3782;}.cls-11,.cls-7{fill:#fff;}.cls-8{fill:#5836e5;}.cls-9{fill:#d5dbe0;}.cls-10{fill:url(#_ÂÁ_Ï_ÌÌ_È_ËÂÌÚ_90);}.cls-11{fill-rule:evenodd;}.cls-12{fill:url(#_ÂÁ_Ï_ÌÌ_È_ËÂÌÚ_98-2);}.cls-13{fill:#53d6f2;}.cls-14{fill:url(#_ÂÁ_Ï_ÌÌ_È_ËÂÌÚ_6);}.cls-15{fill:url(#_ÂÁ_Ï_ÌÌ_È_ËÂÌÚ_6-2);}.cls-16{fill:url(#_ÂÁ_Ï_ÌÌ_È_ËÂÌÚ_98-3);}.cls-17{fill:url(#_ÂÁ_Ï_ÌÌ_È_ËÂÌÚ_98-4);}.cls-18{fill:url(#_ÂÁ_Ï_ÌÌ_È_ËÂÌÚ_30-2);}.cls-19{fill:url(#_ÂÁ_Ï_ÌÌ_È_ËÂÌÚ_98-5);}.cls-20{fill:url(#_ÂÁ_Ï_ÌÌ_È_ËÂÌÚ_98-6);}.cls-21{fill:url(#_ÂÁ_Ï_ÌÌ_È_ËÂÌÚ_98-7);}.cls-22{fill:url(#_ÂÁ_Ï_ÌÌ_È_ËÂÌÚ_98-8);}.cls-23{fill:url(#_ÂÁ_Ï_ÌÌ_È_ËÂÌÚ_98-9);}.cls-24{fill:url(#_ÂÁ_Ï_ÌÌ_È_ËÂÌÚ_98-10);}.cls-25{fill:url(#_ÂÁ_Ï_ÌÌ_È_ËÂÌÚ_98-11);}.cls-26{fill:url(#_ÂÁ_Ï_ÌÌ_È_ËÂÌÚ_90-2);}.cls-27{fill:url(#_ÂÁ_Ï_ÌÌ_È_ËÂÌÚ_98-12);}</style><linearGradient id="_ÂÁ_Ï_ÌÌ_È_ËÂÌÚ_30" y1="532.6" x2="1815.73" y2="532.6" gradientUnits="userSpaceOnUse"><stop offset="0" stop-color="#c66fd7"/><stop offset="1" stop-color="#5937e5"/></linearGradient><linearGradient id="_ÂÁ_Ï_ÌÌ_È_ËÂÌÚ_98" x1="489.16" y1="759.69" x2="663.38" y2="759.69" gradientUnits="userSpaceOnUse"><stop offset="0" stop-color="#a1d8f6"/><stop offset="1" stop-color="#9e90f2"/></linearGradient><linearGradient id="_ÂÁ_Ï_ÌÌ_È_ËÂÌÚ_90" x1="727.13" y1="570.08" x2="1312.25" y2="570.08" gradientUnits="userSpaceOnUse"><stop offset="0" stop-color="#63d4ff"/><stop offset="1" stop-color="#546be5"/></linearGradient><linearGradient id="_ÂÁ_Ï_ÌÌ_È_ËÂÌÚ_98-2" x1="1175.08" y1="602.54" x2="1190.18" y2="602.54" xlink:href="#_ÂÁ_Ï_ÌÌ_È_ËÂÌÚ_98"/><linearGradient id="_ÂÁ_Ï_ÌÌ_È_ËÂÌÚ_6" x1="705.58" y1="847.28" x2="705.58" y2="640.71" gradientUnits="userSpaceOnUse"><stop offset="0" stop-color="#a1d8f6"/><stop offset="0.21" stop-color="#a1cff6"/><stop offset="0.56" stop-color="#a0b8f4"/><stop offset="0.99" stop-color="#9e91f2"/><stop offset="1" stop-color="#9e90f2"/></linearGradient><linearGradient id="_ÂÁ_Ï_ÌÌ_È_ËÂÌÚ_6-2" x1="725.05" y1="853.53" x2="725.05" y2="632.22" xlink:href="#_ÂÁ_Ï_ÌÌ_È_ËÂÌÚ_6"/><linearGradient id="_ÂÁ_Ï_ÌÌ_È_ËÂÌÚ_98-3" x1="552.59" y1="639.51" x2="599.96" y2="639.51" xlink:href="#_ÂÁ_Ï_ÌÌ_È_ËÂÌÚ_98"/><linearGradient id="_ÂÁ_Ï_ÌÌ_È_ËÂÌÚ_98-4" x1="489.73" y1="546.84" x2="662.8" y2="546.84" xlink:href="#_ÂÁ_Ï_ÌÌ_È_ËÂÌÚ_98"/><linearGradient id="_ÂÁ_Ï_ÌÌ_È_ËÂÌÚ_30-2" x1="1469.28" y1="573.45" x2="1575.14" y2="573.45" xlink:href="#_ÂÁ_Ï_ÌÌ_È_ËÂÌÚ_30"/><linearGradient id="_ÂÁ_Ï_ÌÌ_È_ËÂÌÚ_98-5" x1="859.17" y1="519.49" x2="897.71" y2="519.49" xlink:href="#_ÂÁ_Ï_ÌÌ_È_ËÂÌÚ_98"/><linearGradient id="_ÂÁ_Ï_ÌÌ_È_ËÂÌÚ_98-6" x1="1026.32" y1="488.14" x2="1050.19" y2="488.14" xlink:href="#_ÂÁ_Ï_ÌÌ_È_ËÂÌÚ_98"/><linearGradient id="_ÂÁ_Ï_ÌÌ_È_ËÂÌÚ_98-7" x1="1050.2" y1="541.62" x2="1064.4" y2="541.62" xlink:href="#_ÂÁ_Ï_ÌÌ_È_ËÂÌÚ_98"/><linearGradient id="_ÂÁ_Ï_ÌÌ_È_ËÂÌÚ_98-8" x1="1476.15" y1="813.21" x2="1495.98" y2="813.21" xlink:href="#_ÂÁ_Ï_ÌÌ_È_ËÂÌÚ_98"/><linearGradient id="_ÂÁ_Ï_ÌÌ_È_ËÂÌÚ_98-9" x1="1485.02" y1="813.17" x2="1501.76" y2="813.17" xlink:href="#_ÂÁ_Ï_ÌÌ_È_ËÂÌÚ_98"/><linearGradient id="_ÂÁ_Ï_ÌÌ_È_ËÂÌÚ_98-10" x1="1581.9" y1="859.9" x2="1602.42" y2="859.9" xlink:href="#_ÂÁ_Ï_ÌÌ_È_ËÂÌÚ_98"/><linearGradient id="_ÂÁ_Ï_ÌÌ_È_ËÂÌÚ_98-11" x1="1662.63" y1="859.9" x2="1683.14" y2="859.9" xlink:href="#_ÂÁ_Ï_ÌÌ_È_ËÂÌÚ_98"/><linearGradient id="_ÂÁ_Ï_ÌÌ_È_ËÂÌÚ_90-2" x1="1626.96" y1="563.25" x2="1669.31" y2="563.25" xlink:href="#_ÂÁ_Ï_ÌÌ_È_ËÂÌÚ_90"/><linearGradient id="_ÂÁ_Ï_ÌÌ_È_ËÂÌÚ_98-12" x1="1593.76" y1="706.42" x2="1755.59" y2="706.42" xlink:href="#_ÂÁ_Ï_ÌÌ_È_ËÂÌÚ_98"/></defs><title>reproducibility-thumb</title><g id="Layer_2" data-name="Layer 2"><g id="Layer_1-2" data-name="Layer 1"><path class="cls-1" d="M879.74,272.21a19.82,19.82,0,0,0-15.18,7.45h30.36A19.82,19.82,0,0,0,879.74,272.21Z"/><path class="cls-1" d="M1181.87,273.41c-5.26,0-.66-8.67-13.47-10.52-21.87-3.15-17.75-12-35.34-12-9.33,0-15.61,10.31-24.2,9.36-14.58-1.62-22.33-19.92-38.1-19.92-17.07,0-24.21,21.38-40.06,22.83-10,.91-16.29-12.54-27.13-12.54-14,0-19.31,16.48-32.11,19.48-5.86,1.37-10.79-6.35-17.27-6.35a30.53,30.53,0,0,0-26.42,16H1197C1193.53,275.35,1188,273.41,1181.87,273.41Z"/><path class="cls-2" d="M0,866.91c29.8-2.48,73.59-29.41,94.41-67.35S131.93,716,170.25,699.34c35.85-15.57,77.49,44.12,115.17,34.55,77.08-19.6,86-279.61,183.51-279.61,92.6,0,253.79,231.43,382.21,146.65,123.25-81.37,195.93-361.11,297.57-396.4,196-68.05,236.93,442.34,377.77,442.34,39.85,0,68.82-122.09,99.1-137.3,97.46-49,51.57,265.55,190.16,357.34Z"/><path class="cls-3" d="M513.92,681.82c0,.82-3.62,1.36-4.38,1.05-1.6-1.29-.84-2.22-2.51-3.2a17.23,17.23,0,0,0,5.09,1.13C513.07,680.81,514.11,680.56,513.92,681.82Z"/><path class="cls-3" d="M505.78,678.89a42.89,42.89,0,0,1,5,3.47c1.9,1.5,5.77,5.33,6,5.6.74.82,2.87,2.64,3.24,3.43a4.61,4.61,0,0,1,0,2.75,1.39,1.39,0,0,1-1.42.63c-.34,1.14-3-.24-3,.06-.08,1.21-1.76,1.46-4.72-1.61-.18-.18-8.93-6.29-11.57-8.47C500.52,683,505.68,678.85,505.78,678.89Z"/><path class="cls-3" d="M466.66,632.39a6.28,6.28,0,0,1,1.6,1.13c7.24,7.36,29.3,39.23,38.06,45.7a34.08,34.08,0,0,0-5.93,6.37c-14.2-10.92-46.48-42.1-43.89-48.77C458.88,630.71,463.78,630.93,466.66,632.39Z"/><path class="cls-3" d="M470.44,577.59c1.67,9.4-1,40.08.54,55,1.88,18.32-11.57,13.09-13.93,7.73-6.22-14.12-16.57-55.82-9.58-59.8C450.5,578.81,470.14,575.89,470.44,577.59Z"/><path class="cls-4" d="M507.61,677.48c-5.08-3.75-31.46-38.06-34.3-41.49,0-1.14-.66-22.13-.4-33s.52-22-.35-26.88c-.13-.76-.64-.36-1.38-.73-3.24-1.64-21.6,1.42-24.78,3.23-9.5,5.41,3.57,50.87,8.62,62.41,4.67,11.12,31.56,36.62,44.06,46.23Z"/><rect class="cls-5" x="489.16" y="652.47" width="174.22" height="214.44"/><path class="cls-6" d="M653.94,686.41v-25H498.6v25h7.62v10.92H498.6v25H653.94v-25h-8.78V686.41ZM526.31,712.07H515.52V701.52h10.79Zm0-15.06H515.52V686.45h10.79Zm0-14.78H515.52V671.65h10.79Zm16,29.85H531.49V701.52h10.79Zm0-15.06H531.49V686.45h10.79Zm0-14.78H531.49V671.65h10.79ZM558,712.07H547.2V701.52H558ZM558,697H547.2V686.45H558Zm0-14.78H547.2V671.65H558Zm15.56,29.85H562.78V701.52h10.77Zm0-15.06H562.78V686.45h10.77Zm0-14.78H562.78V671.65h10.77Zm16,29.85H578.73V701.52h10.79Zm0-15.06H578.73V686.45h10.79Zm0-14.78H578.73V671.65h10.79Zm15.73,29.85H594.46V701.52h10.79Zm0-15.06H594.46V686.45h10.79Zm0-14.78H594.46V671.65h10.79Zm24.15,29.54H615.48v-6.43H629.4Zm-7-18.06a11.14,11.14,0,1,1,11.11-11.14A11.13,11.13,0,0,1,622.38,693.7Z"/><rect class="cls-7" x="615.48" y="705.34" width="13.92" height="6.43"/><path class="cls-7" d="M633.5,682.57a11.12,11.12,0,1,1-11.11-11.13A11.13,11.13,0,0,1,633.5,682.57Z"/><rect class="cls-7" x="515.52" y="671.65" width="10.79" height="10.58"/><rect class="cls-7" x="531.49" y="671.65" width="10.79" height="10.58"/><rect class="cls-7" x="547.2" y="671.65" width="10.79" height="10.58"/><rect class="cls-7" x="562.78" y="671.65" width="10.77" height="10.58"/><rect class="cls-7" x="578.73" y="671.65" width="10.79" height="10.58"/><rect class="cls-7" x="594.46" y="671.65" width="10.79" height="10.58"/><rect class="cls-7" x="594.46" y="686.45" width="10.79" height="10.55"/><rect class="cls-7" x="578.73" y="686.45" width="10.79" height="10.55"/><rect class="cls-7" x="562.78" y="686.45" width="10.77" height="10.55"/><rect class="cls-7" x="547.2" y="686.45" width="10.79" height="10.55"/><rect class="cls-7" x="531.49" y="686.45" width="10.79" height="10.55"/><rect class="cls-7" x="515.52" y="686.45" width="10.79" height="10.55"/><rect class="cls-7" x="515.52" y="701.52" width="10.79" height="10.55"/><rect class="cls-7" x="531.49" y="701.52" width="10.79" height="10.55"/><rect class="cls-7" x="547.2" y="701.52" width="10.79" height="10.55"/><rect class="cls-7" x="562.78" y="701.52" width="10.77" height="10.55"/><rect class="cls-7" x="578.73" y="701.52" width="10.79" height="10.55"/><rect class="cls-7" x="594.46" y="701.52" width="10.79" height="10.55"/><path class="cls-6" d="M653.94,821.61v-25H498.6v25h7.62v10.92H498.6v25H653.94v-25h-8.78V821.61ZM526.31,847.27H515.52V836.72h10.79Zm0-15.06H515.52V821.66h10.79Zm0-14.78H515.52V806.85h10.79Zm16,29.85H531.49V836.72h10.79Zm0-15.06H531.49V821.66h10.79Zm0-14.78H531.49V806.85h10.79ZM558,847.27H547.2V836.72H558Zm0-15.06H547.2V821.66H558Zm0-14.78H547.2V806.85H558Zm15.56,29.85H562.78V836.72h10.77Zm0-15.06H562.78V821.66h10.77Zm0-14.78H562.78V806.85h10.77Zm16,29.85H578.73V836.72h10.79Zm0-15.06H578.73V821.66h10.79Zm0-14.78H578.73V806.85h10.79Zm15.73,29.85H594.46V836.72h10.79Zm0-15.06H594.46V821.66h10.79Zm0-14.78H594.46V806.85h10.79ZM629.4,847H615.48v-6.43H629.4Zm-7-18.06a11.13,11.13,0,1,1,11.11-11.13A11.13,11.13,0,0,1,622.38,828.9Z"/><rect class="cls-7" x="615.48" y="840.54" width="13.92" height="6.43"/><path class="cls-7" d="M633.5,817.77a11.12,11.12,0,1,1-11.11-11.14A11.13,11.13,0,0,1,633.5,817.77Z"/><rect class="cls-7" x="515.52" y="806.85" width="10.79" height="10.58"/><rect class="cls-7" x="531.49" y="806.85" width="10.79" height="10.58"/><rect class="cls-7" x="547.2" y="806.85" width="10.79" height="10.58"/><rect class="cls-7" x="562.78" y="806.85" width="10.77" height="10.58"/><rect class="cls-7" x="578.73" y="806.85" width="10.79" height="10.58"/><rect class="cls-7" x="594.46" y="806.85" width="10.79" height="10.58"/><rect class="cls-7" x="594.46" y="821.66" width="10.79" height="10.55"/><rect class="cls-7" x="578.73" y="821.66" width="10.79" height="10.55"/><rect class="cls-7" x="562.78" y="821.66" width="10.77" height="10.55"/><rect class="cls-7" x="547.2" y="821.66" width="10.79" height="10.55"/><rect class="cls-7" x="531.49" y="821.66" width="10.79" height="10.55"/><rect class="cls-7" x="515.52" y="821.66" width="10.79" height="10.55"/><rect class="cls-7" x="515.52" y="836.72" width="10.79" height="10.55"/><rect class="cls-7" x="531.49" y="836.72" width="10.79" height="10.55"/><rect class="cls-7" x="547.2" y="836.72" width="10.79" height="10.55"/><rect class="cls-7" x="562.78" y="836.72" width="10.77" height="10.55"/><rect class="cls-7" x="578.73" y="836.72" width="10.79" height="10.55"/><rect class="cls-7" x="594.46" y="836.72" width="10.79" height="10.55"/><path class="cls-6" d="M653.94,754V729H498.6v25h7.62v10.92H498.6v25H653.94v-25h-8.78V754ZM526.31,779.67H515.52V769.12h10.79Zm0-15.06H515.52V754.05h10.79Zm0-14.78H515.52V739.25h10.79Zm16,29.85H531.49V769.12h10.79Zm0-15.06H531.49V754.05h10.79Zm0-14.78H531.49V739.25h10.79ZM558,779.67H547.2V769.12H558Zm0-15.06H547.2V754.05H558Zm0-14.78H547.2V739.25H558Zm15.56,29.85H562.78V769.12h10.77Zm0-15.06H562.78V754.05h10.77Zm0-14.78H562.78V739.25h10.77Zm16,29.85H578.73V769.12h10.79Zm0-15.06H578.73V754.05h10.79Zm0-14.78H578.73V739.25h10.79Zm15.73,29.85H594.46V769.12h10.79Zm0-15.06H594.46V754.05h10.79Zm0-14.78H594.46V739.25h10.79Zm24.15,29.54H615.48v-6.43H629.4Zm-7-18.06a11.14,11.14,0,1,1,11.11-11.14A11.13,11.13,0,0,1,622.38,761.3Z"/><rect class="cls-7" x="615.48" y="772.94" width="13.92" height="6.43"/><path class="cls-7" d="M622.38,739a11.14,11.14,0,1,0,11.11,11.13A11.13,11.13,0,0,0,622.38,739Z"/><rect class="cls-7" x="515.52" y="739.25" width="10.79" height="10.58"/><rect class="cls-7" x="531.49" y="739.25" width="10.79" height="10.58"/><rect class="cls-7" x="547.2" y="739.25" width="10.79" height="10.58"/><rect class="cls-7" x="562.78" y="739.25" width="10.77" height="10.58"/><rect class="cls-7" x="578.73" y="739.25" width="10.79" height="10.58"/><rect class="cls-7" x="594.46" y="739.25" width="10.79" height="10.58"/><rect class="cls-7" x="594.46" y="754.05" width="10.79" height="10.55"/><rect class="cls-7" x="578.73" y="754.05" width="10.79" height="10.55"/><rect class="cls-7" x="562.78" y="754.05" width="10.77" height="10.55"/><rect class="cls-7" x="547.2" y="754.05" width="10.79" height="10.55"/><rect class="cls-7" x="531.49" y="754.05" width="10.79" height="10.55"/><rect class="cls-7" x="515.52" y="754.05" width="10.79" height="10.55"/><rect class="cls-7" x="515.52" y="769.12" width="10.79" height="10.55"/><rect class="cls-7" x="531.49" y="769.12" width="10.79" height="10.55"/><rect class="cls-7" x="547.2" y="769.12" width="10.79" height="10.55"/><rect class="cls-7" x="562.78" y="769.12" width="10.77" height="10.55"/><rect class="cls-7" x="578.73" y="769.12" width="10.79" height="10.55"/><rect class="cls-7" x="594.46" y="769.12" width="10.79" height="10.55"/><path class="cls-6" d="M401.89,853c-1.18-1.4-2.62-3.56-2.62-3.56l-6.73,3.74s-.55.74-.2,2.87a5.49,5.49,0,0,0,.26,4.46c.71,1.19,5.16,3,7.11,3.64a22.6,22.6,0,0,0,8,1.1c3.31-.13,7.36-1.86,7.36-3.79C415,857.67,404.16,855.72,401.89,853Z"/><path class="cls-3" d="M401.21,849.26l-9,1.62a29,29,0,0,0,.17,5.21s4.2,1.49,5.64.7a11.26,11.26,0,0,0,3.91-3.75C400.18,850.88,401.21,849.26,401.21,849.26Z"/><path class="cls-8" d="M373.15,639.61v42.32c3.16,2.49,21.62,50.46,29.59,78.13.26.91-11.54,82.27-11.54,91,3.29,3.63,9.84.07,9.93-.29,0,0,25.51-41.2,29.61-91,4.77-57.82-11.81-119.22-12.46-123.86C412.9,638.27,389.36,640.68,373.15,639.61Z"/><path class="cls-6" d="M350.92,854.24c-1.07-1.48-2.33-3.75-2.33-3.75l-7,3.2s-.6.69-.42,2.84a5.49,5.49,0,0,0-.09,4.46c.61,1.24,4.71,2.72,6.8,4.19,1.68,1.18,4.56,1.59,7.87,1.72s7.48-1.28,7.64-3.2C363.67,859.89,353,857.1,350.92,854.24Z"/><path class="cls-3" d="M350,850.19l-8.94,1s-.1,3.22.08,5.37c0,0,4.07,1.82,5.57,1.14a11.27,11.27,0,0,0,4.19-3.43A4.75,4.75,0,0,1,350,850.19Z"/><path class="cls-8" d="M349.45,630.06c-20.14,38.34,6.52,94.42,10,130.57,0,0-19,49.81-19,90.79,3,3.88,9.8.84,9.92.49,0-16.65,33.27-58.73,36.95-88.89,7-57.72,2.09-119.23,1.81-123.92C383.62,632,363.47,624.12,349.45,630.06Z"/><path class="cls-3" d="M457.62,532.65c-1.56,4.28-8.66,14.72-11.15,16.06-.64,9.07,11.31,15.48,14.45,11.61.6-5.66,7.22-13.21,7.69-14C465.43,545.18,458.22,533.92,457.62,532.65Z"/><path class="cls-3" d="M476.13,524.18c-6-2.74-12.25.43-15,6.4l-2.82,6.2c-2,4.5,1.68,14.74,6,15.69,10.16,2.25,19.86-13.84,20.42-15.9C486.3,530.81,481.74,526.73,476.13,524.18Z"/><path class="cls-4" d="M460.92,560.33s-4.17,1.79-6.95,0c-4.08-2.61-7.51-11.63-7.51-11.63s-10.29-2.93-13.83-3.32c-31.7-3.48-62.2,23.57-94.16,106.61,1.32.84,5,2.63,6.58,3.76L362,632.24,351.4,660.4c21.3,24.82,62.43,32.67,74.58,14a296.92,296.92,0,0,1,14.57-37.18c1.88-4,3.75-7.75,5.57-11.22,8.83-16.9,16.34-27.3,17.83-30,4.49-8.11,12.13-16.46,7.06-24.73C469.68,569.16,460.92,560.33,460.92,560.33Z"/><path class="cls-6" d="M460.92,560.33s-4.16,1.8-7,0c-4.08-2.59-7.49-11.63-7.49-11.63l-6.89-2.09a30.79,30.79,0,0,0-7-1.21c8.77,12.14,18.39,37.64,18.39,37.64s12.71-6,17.95-14.26C467.25,566.33,460.92,560.33,460.92,560.33Z"/><path class="cls-6" d="M468.14,509c-12,3.72-17.38,18.76-13.08,28.64,0,0,5.53-8.89,10.47-11.76,22.16,16.67,27.59,11.46,28.71,8.8C499.29,522.62,483.89,504.14,468.14,509Z"/><path class="cls-3" d="M457.07,530.64a5.9,5.9,0,0,0,2.14,5.32,80.16,80.16,0,0,0,4.61-6.62,5.6,5.6,0,0,0-2.43-1.59C459.75,527.27,457.55,529,457.07,530.64Z"/><path class="cls-4" d="M424.12,577.12c.82-7-21.21-7.51-18.39,3.62,3.82,15.15,20.42,47.26,22.08,49.49,1.83,2.46,7.06,4.92,12.73,7,1.88-4,3.75-7.75,5.57-11.22C435.56,611.28,422.57,590.16,424.12,577.12Z"/><path class="cls-3" d="M501,648.33a17.29,17.29,0,0,1-5.2.3c1.88.5,1.4,1.6,3.29,2.39.81.09,4.1-1.4,3.92-2.21C502.8,647.56,501.88,648.09,501,648.33Z"/><path class="cls-3" d="M507.4,654c-.33-.19-5.1-2.81-7.34-3.74a43.17,43.17,0,0,0-5.71-2c-.11,0-3.93,5.41-4.62,7.41,3.13,1.38,13.22,4.86,13.44,5,3.68,2.15,5.23,1.45,5,.26-.06-.29,2.85.31,2.87-.87a1.39,1.39,0,0,0,1.19-1,4.62,4.62,0,0,0-.75-2.65C510.88,655.71,508.34,654.54,507.4,654Z"/><path class="cls-4" d="M451.39,615.83a33.36,33.36,0,0,0-1.16-3.42c-2.73-6.85-5.52-17.69-8.21-28.17s-5.22-20.27-7.39-24.75a2.51,2.51,0,0,0-1.81-1.35c-3.56-.7-20.39,7.27-23,9.88-7.66,7.8,17.33,48,25.31,57.66,7.56,9.45,40.39,26.64,55,32.47l5.52-11.78c-5.91-2.22-19.7-12.46-30.78-20.69C459.86,621.92,455.05,618.35,451.39,615.83Z"/><polygon class="cls-9" points="916.57 85.05 936.75 85.05 939.48 63.02 906.77 63.02 916.57 85.05"/><path class="cls-9" d="M864,6,841,2.47,856.1,29.9l19.11-6.25c0-.25,0-10.06,0-10.06C875.24,7.35,870.2,6,864,6Z"/><path class="cls-9" d="M856.1,40.22,841,67.64l23-3.47c6.23,0,11.28-1.4,11.28-7.63,0,0,0-9.81,0-10.06Z"/><path class="cls-1" d="M836.62,36.27S993,36,993.28,36.26C974.91-28.5,845.31,7.57,836.62,36.27Z"/><path class="cls-9" d="M836.62,36.27c8.69,28.7,138.29,64.76,156.66,0C993,36.58,836.62,36.27,836.62,36.27Z"/><path class="cls-9" d="M929.69,14.85c-56.71,0-92.5,21.2-93.06,21.41H993.28C993,36,986.3,14.85,929.69,14.85Z"/><path class="cls-1" d="M929.69,57.69c56.61,0,63.31-21.11,63.59-21.41H836.63C837.19,36.49,873,57.69,929.69,57.69Z"/><path class="cls-9" d="M993.28,36.28h0Z"/><path class="cls-1" d="M1726.83,41.19a19.82,19.82,0,0,0-15.18,7.45H1742A19.83,19.83,0,0,0,1726.83,41.19Z"/><path class="cls-1" d="M1652.37,32.68c-6.48,0-11.41,7.72-17.27,6.35C1622.3,36,1617,19.54,1603,19.54c-10.85,0-17.12,13.46-27.13,12.54-15.85-1.45-23-22.83-40.06-22.83-15.78,0-23.53,18.3-38.1,19.92-8.59,1-14.87-9.36-24.19-9.36-17.6,0-19.14,7-35.35,12-4.65,1.45-8.21,10.52-13.46,10.52-6.18,0-11.66,1.94-15.18,6.25h269.28A30.53,30.53,0,0,0,1652.37,32.68Z"/><path class="cls-1" d="M1203.77,176.2a19.82,19.82,0,0,0-15.18,7.45h30.36A19.82,19.82,0,0,0,1203.77,176.2Z"/><path class="cls-1" d="M1505.9,177.4c-5.26,0-.66-8.67-13.47-10.52-21.87-3.15-17.75-12-35.34-12-9.33,0-15.61,10.31-24.2,9.36-14.58-1.62-22.33-19.92-38.1-19.92-17.07,0-24.21,21.38-40.06,22.83-10,.91-16.29-12.54-27.13-12.54-14,0-19.31,16.48-32.11,19.48-5.86,1.37-10.79-6.35-17.27-6.35a30.53,30.53,0,0,0-26.42,16h269.28C1517.56,179.34,1512.08,177.4,1505.9,177.4Z"/><g id="_Group_" data-name="&lt;Group&gt;"><rect class="cls-1" x="931.89" y="770.34" width="175.79" height="74.62"/></g><g id="_Group_2" data-name="&lt;Group&gt;"><rect class="cls-7" x="707.93" y="404.63" width="623.53" height="365.7" rx="28.94" ry="28.94"/></g><g id="_Group_3" data-name="&lt;Group&gt;"><rect class="cls-10" x="727.13" y="421.52" width="585.11" height="297.14"/></g><g id="_Group_4" data-name="&lt;Group&gt;"><path class="cls-11" d="M1162.44,844.54H876.94a11.19,11.19,0,1,0,0,22.37h285.5a11.19,11.19,0,1,0,0-22.37Z"/></g><rect class="cls-9" x="1128.15" y="455.42" width="27.22" height="8.57"/><rect class="cls-9" x="1168.93" y="455.42" width="59.61" height="8.57"/><rect class="cls-9" x="1235.51" y="455.42" width="12.39" height="8.57"/><rect class="cls-9" x="1206.86" y="468.98" width="41.03" height="8.57"/><rect class="cls-9" x="1128.15" y="468.98" width="9.8" height="8.57"/><rect class="cls-9" x="1142.99" y="468.98" width="54.19" height="8.57"/><rect class="cls-9" x="1128.15" y="482.54" width="32.65" height="8.57"/><rect class="cls-9" x="1167.38" y="482.54" width="80.51" height="8.57"/><rect class="cls-9" x="1128.15" y="669.63" width="27.22" height="8.57"/><rect class="cls-9" x="1168.93" y="669.63" width="59.61" height="8.57"/><rect class="cls-9" x="1235.51" y="669.63" width="12.39" height="8.57"/><rect class="cls-9" x="1206.86" y="683.19" width="41.03" height="8.57"/><rect class="cls-9" x="1128.15" y="683.19" width="9.8" height="8.57"/><rect class="cls-9" x="1142.99" y="683.19" width="54.19" height="8.57"/><rect class="cls-9" x="1128.15" y="696.75" width="32.65" height="8.57"/><rect class="cls-9" x="1167.38" y="696.75" width="80.51" height="8.57"/><rect class="cls-9" x="972.86" y="669.63" width="27.22" height="8.57"/><rect class="cls-9" x="1013.63" y="669.63" width="59.61" height="8.57"/><rect class="cls-9" x="1080.21" y="669.63" width="12.39" height="8.57"/><rect class="cls-9" x="1051.57" y="683.19" width="41.03" height="8.57"/><rect class="cls-9" x="972.86" y="683.19" width="9.81" height="8.57"/><rect class="cls-9" x="987.7" y="683.19" width="54.19" height="8.57"/><rect class="cls-9" x="1013.63" y="642.48" width="59.61" height="8.57"/><rect class="cls-9" x="1080.21" y="642.48" width="12.39" height="8.57"/><rect class="cls-9" x="1051.57" y="656.05" width="41.03" height="8.57"/><rect class="cls-9" x="987.7" y="656.05" width="54.19" height="8.57"/><rect class="cls-9" x="972.86" y="696.75" width="32.65" height="8.57"/><rect class="cls-9" x="1012.09" y="696.75" width="80.52" height="8.57"/><rect class="cls-9" x="839.85" y="669.63" width="27.23" height="8.57"/><rect class="cls-9" x="880.62" y="669.63" width="59.61" height="8.57"/><rect class="cls-9" x="918.56" y="683.19" width="41.03" height="8.57"/><rect class="cls-9" x="839.85" y="683.19" width="9.81" height="8.57"/><rect class="cls-9" x="854.69" y="683.19" width="54.19" height="8.57"/><rect class="cls-9" x="839.85" y="696.75" width="32.65" height="8.57"/><rect class="cls-9" x="879.07" y="696.75" width="80.52" height="8.57"/><path class="cls-3" d="M1255.65,548.49c.1-.94.47-1.94-.81-1.9-.82,0-1.77,3.43-1.56,4.22,1.09,1.73,2.1,1.09,2.89,2.87A17.28,17.28,0,0,1,1255.65,548.49Z"/><path class="cls-3" d="M1250.57,546.31c-.66-.64-2-2.47-2.73-2.8a5.09,5.09,0,0,0-2.65-.09,1.31,1.31,0,0,0-.86,1.16c-1.15.24-.3,2.47-.59,2.48-1.18,0-1.72,1.41.71,4,.14.15,4.47,7.61,6.11,9.87a50.48,50.48,0,0,0,6.79-5.17,28.2,28.2,0,0,0-2.47-4.22C1253.78,549.87,1250.78,546.54,1250.57,546.31Z"/><path class="cls-3" d="M1311.22,543.43c-5.25,8-14.93,37.21-22.24,50.32-9,16.08,5.45,16.59,9.74,12.6,11.29-10.51,37.28-44.73,32.44-51.14C1329,552.43,1312.16,542,1311.22,543.43Z"/><path class="cls-8" d="M1311.22,543.43c-3.71,5.63-10.25,21.84-17.27,34.72a114.8,114.8,0,0,0,13.88,9.13c1.75,1,7,4,8.77,4.84,10.7-13.74,17.78-32.62,14.55-36.91C1329,552.43,1312.16,542,1311.22,543.43Z"/><path class="cls-3" d="M1297.5,597.56c-6.47-8-35.55-33.67-41-43.12a34.17,34.17,0,0,1-7,5.15c9.19,15.37,36.4,51.06,43.33,49.27,6.34-1.64,6.7-6.53,5.58-9.57A6.45,6.45,0,0,0,1297.5,597.56Z"/><rect class="cls-6" x="1125.44" y="584.2" width="19.42" height="43.16"/><rect class="cls-7" x="1149.18" y="566.94" width="17.26" height="60.43"/><rect class="cls-12" x="1175.08" y="577.73" width="15.11" height="49.64"/><rect class="cls-6" x="1196.66" y="558.3" width="19.42" height="69.06"/><rect class="cls-7" x="1220.4" y="541.04" width="19.42" height="86.32"/><rect class="cls-1" x="1246.29" y="521.62" width="15.11" height="105.75"/><path class="cls-3" d="M1351.56,726.4c.22,2.51,7.25,128.41,7.25,128.41,3.09,2.53,8,2,8.07,1.78,0,0,11.33-128.47,10.91-134.26C1374.48,724.88,1353.64,728.45,1351.56,726.4Z"/><path class="cls-6" d="M1366.43,854.81l-6.73-3.74s-1.45,2.16-2.62,3.56c-2.27,2.69-13.16,4.64-13.16,8.46,0,1.93,4.05,3.66,7.36,3.79s6.2-.05,8-1.1c2.2-1.3,6.4-2.45,7.11-3.64a5.5,5.5,0,0,0,.26-4.46C1367,855.55,1366.43,854.81,1366.43,854.81Z"/><path class="cls-3" d="M1357.08,854.63a11.24,11.24,0,0,0,3.91,3.75c1.44.79,5.64-.7,5.64-.7.35-2.13.5-3.57.5-3.57l-7.65-3.44A16.86,16.86,0,0,1,1357.08,854.63Z"/><path class="cls-13" d="M1340.69,631c-1.2,8.63,17.15,221.31,17.15,221.31.09.36,6.63,3.92,9.93.29,0,0,3.44-49,10-95.28,5.7-39.93,8-122.61,8-122.61C1369.6,635.8,1346.07,633.4,1340.69,631Z"/><path class="cls-3" d="M1316.4,726.4c.22,2.51,7.25,128.41,7.25,128.41,3.09,2.53,8,2,8.07,1.78,0,0,11.33-128.47,10.91-134.26C1339.32,724.88,1318.47,728.45,1316.4,726.4Z"/><path class="cls-6" d="M1331.26,854.81l-6.73-3.74s-1.44,2.16-2.62,3.56c-2.27,2.69-13.16,4.64-13.16,8.46,0,1.93,4.05,3.66,7.36,3.79a22.64,22.64,0,0,0,8-1.1c2-.64,6.41-2.45,7.11-3.64a5.5,5.5,0,0,0,.26-4.46C1331.81,855.55,1331.26,854.81,1331.26,854.81Z"/><path class="cls-3" d="M1321.91,854.63a11.29,11.29,0,0,0,3.91,3.75c1.44.79,5.64-.7,5.64-.7.35-2.13.5-3.57.5-3.57l-7.65-3.44A16.68,16.68,0,0,1,1321.91,854.63Z"/><path class="cls-13" d="M1305.52,631c-1.2,8.63,17.15,221.31,17.15,221.31.09.36,6.63,3.92,9.93.29,0,0,3.44-49,10-95.28,5.7-39.93,4.85-77.8,8-80.29V634.73C1334.44,635.8,1310.9,633.4,1305.52,631Z"/><path class="cls-8" d="M1304.28,627.55s-5.16,24.77-2.68,26.92c5.61,4.87,26.65.38,42.66-1.59s45.5,1.28,46.27-2c2.08-8.82-1.84-28.32-1.84-28.32Z"/><path class="cls-3" d="M1345.91,512.12c-1.13.83-12.83,7.32-16.16,6.82,0,.92,2.28,10.71.11,16,.93,4.9,14.5,4.93,18.24-3.36C1346.53,529.18,1345.24,516.63,1345.91,512.12Z"/><path class="cls-3" d="M1333.63,495.88c-6.15-.42-12.1,1-13.46,6.81-.48,2.08.4,20.84,10.42,23.69,4.23,1.2,12.37-6,12.7-11l.47-6.79C1344.21,502.08,1340.24,496.33,1333.63,495.88Z"/><path class="cls-4" d="M1380.35,553.52c-3.76-10.34-8.09-15.81-18.5-18.31-3.47-.83-13.76-3.66-13.76-3.66s-7.3,6.33-12.12,6.68c-3.31.24-6.12-3.32-6.12-3.32s-11.9,3.62-14.07,4.87c-8.39,4.87-8.53,13.1-9,19.91-4.9,68-8,77.95-5.83,81.71,5.22,9.22,91.86,3.13,90.25-8.27C1385.81,595.18,1381.51,556.71,1380.35,553.52Z"/><path class="cls-1" d="M1347.46,492.8c-9-8.14-22.88.47-22.88.47-10.59,2-8.29,17.51-3.43,19.77-2.3-11.4,5.44-15.08,5.44-15.08,14.35-.21,19.34,16.9,18.37,21.33C1345,519.29,1361,505.05,1347.46,492.8Z"/><path class="cls-3" d="M1343.52,506a5.56,5.56,0,0,0-2.74.95,79.29,79.29,0,0,0,2.86,7.55,5.92,5.92,0,0,0,3.37-4.64C1346.94,508.17,1345.22,506,1343.52,506Z"/><path class="cls-1" d="M1381.65,502.95c-3-41.68-36.88-24.12-36.09-13.17.2,2.69,1.67,4.27,3.87,1.43,3.71-4.79,17-9.06,9.29,16.32-2,6.7-10.77,15.33,8.19,27.44,17.15,11,3,15.14,4,20.2,2.43,13,36.14-15.18,18.3-34.62C1385.54,516.64,1382.55,515.51,1381.65,502.95Z"/><path class="cls-6" d="M1347.57,489a4.07,4.07,0,0,0-2.44-.63,5.27,5.27,0,0,0-3.14,1.53c4.38,1.44,8,5.47,8,5.47C1350.92,493.23,1350.85,490.95,1347.57,489Z"/><path class="cls-3" d="M1259.27,560.88c-.46-.83-.72-1.86-1.75-1.11-.7.43.5,3.84,1.12,4.36,1.88.81,2.35-.3,4,.72A17.22,17.22,0,0,1,1259.27,560.88Z"/><path class="cls-3" d="M1258.54,562.84c-2.22-1-7.41-2.59-7.78-2.71-1.07-.27-3.68-1.29-4.55-1.25a4.6,4.6,0,0,0-2.43,1.3,1.39,1.39,0,0,0,.11,1.55c-.84.83,1.61,2.52,1.36,2.67-1,.64-.47,2.24,3.63,3.41.24.07,9.75,4.94,12.91,6.24,1-1.88,2.23-8.4,2.14-8.47A43.63,43.63,0,0,0,1258.54,562.84Z"/><path class="cls-3" d="M1360.67,539.13c-8.21,4.87-29.72,26.91-42,35.49-15.11,10.52-2.37,17.31,3.23,15.6,14.76-4.5,53.1-23.88,51.57-31.77C1372.76,555,1362.15,538.24,1360.67,539.13Z"/><path class="cls-8" d="M1360.67,539.13c-6.62,1.24-18.77,15.14-30.73,23.64,1.62,6.63,7.42,16.61,14.24,22.48,15.63-7.66,27.76-17.45,30.57-22C1382,551.47,1369.23,537.51,1360.67,539.13Z"/><path class="cls-3" d="M1323.35,578.3a6.11,6.11,0,0,0-1.75-.89c-9.89-2.94-48.39-7.45-58.21-12.16a34.21,34.21,0,0,1-2.85,8.23c16.31,7.41,59,21.28,63.66,15.86C1328.49,584.38,1326,580.16,1323.35,578.3Z"/><path class="cls-3" d="M831.61,631.93a19.17,19.17,0,0,1-5,1.41c1.94.08,1.71,1.26,3.73,1.63.81-.09,4.64-3.05,4.3-3.8C834.18,630,833.12,631.32,831.61,631.93Z"/><path class="cls-3" d="M823.3,633.62c-.1,0-.82,6.64-.45,8.72a23.11,23.11,0,0,1,6.3.36c4.26.09,3.82-8.35,3.56-9.22C832.5,632.82,829,636.26,823.3,633.62Z"/><path class="cls-3" d="M758.11,551.64c-.87-1.5-18.32,8-20.57,10.62-5.2,6.13,18.78,41.77,29.46,52.92,4.05,4.23,18.48,4.54,10.44-12C770.89,589.64,762.89,559.89,758.11,551.64Z"/><path class="cls-3" d="M773.31,604.42c-3.22-.39-7.89,1.08-8,7.64-.15,7.16,51.88,31.15,57.56,30.28.51-2.2,2.06-4.36,3.75-7.48-10.44-3.08-42.08-25.49-51.39-29.92A6.24,6.24,0,0,0,773.31,604.42Z"/><path class="cls-6" d="M778.41,604.86c-.36-1.06-15.91-53-18.28-57.25-.37-.66-26,7.81-28.31,10.49-7,8,23,48.27,31.36,57.26,7.89,8.77,40.79,23.63,55.36,28.48l4.71-11.77c-5.87-1.83-19.86-11-31.1-18.38C787,610.31,782.11,607.11,778.41,604.86Z"/><path class="cls-3" d="M704.19,721c-.79,5.75,2.38,134.68,2.38,134.68.07.26,4.93,1.07,8.17-1.26,0,0,15-125.2,15.38-127.69C727.91,728.61,707.33,723.73,704.19,721Z"/><path class="cls-8" d="M716.47,854.32c-1.09-1.47-2.39-3.72-2.39-3.72l-7,3.31s-.59.7-.38,2.85a5.49,5.49,0,0,0,0,4.46c.63,1.23,5,3.32,6.87,4.08a22.67,22.67,0,0,0,7.89,1.6c3.31.08,7.46-1.39,7.59-3.32C729.31,859.78,718.57,857.15,716.47,854.32Z"/><path class="cls-8" d="M743.39,844.86c-1.28-1.73-2.19-1.86-2.19-1.86l-7.38,2.22s.55,2.54.73,4.36c.35,3.5-5.84,12.67-3.11,15.33,1.38,1.34,5.45-.36,7.85-2.64s4.29-4.49,4.77-6.48c.6-2.49,2.7-6.3,2.34-7.64A5.49,5.49,0,0,0,743.39,844.86Z"/><path class="cls-3" d="M733.38,845.1a16.74,16.74,0,0,1,1.17,4.48,11.26,11.26,0,0,0,5.42-.19c1.57-.48,3.43-4.53,3.43-4.53-1.28-1.74-2.22-2.85-2.22-2.85Z"/><path class="cls-14" d="M711,641.9c-16.14,1.85-37.28.9-42.76-1.19-.41,4.54,5.25,62.84,11.94,119.19C683.4,786.87,734,847,734,847c.11.35,5.78,1,8.89-2.75,0,0-34.26-68.43-33.43-85.7C711.35,719.55,715.69,670.19,711,641.9Z"/><path class="cls-3" d="M706.48,853.16s.06,1.45.27,3.6c0,0,4.09,1.76,5.58,1.05a11.26,11.26,0,0,0,4.14-3.49,16.73,16.73,0,0,1-2.15-4.1Z"/><path class="cls-15" d="M703.89,633S698.8,715.71,702,755.92c3.66,46.58,4,95.73,4,95.73,3.05,3.83,9.81.69,9.93.34,0,0,34-211.08,33.3-219.77C743.65,634.23,720,635.13,703.89,633Z"/><path class="cls-4" d="M673.29,621.35s-7.89,19-4.83,31.67a97.9,97.9,0,0,0,32.46,9.6l6.48-14.21s5.35,15.59,8,15.92c14.64,1.86,29.72,1.79,40.37-3.25l-3.26-22.86Z"/><path class="cls-3" d="M729.42,510.85c0,4.56-3,16.82-4.84,18.94,2.56,8.73,16,10.56,17.6,5.84-1.42-5.51,2.16-14.9,2.31-15.81C741.11,519.86,730.42,511.82,729.42,510.85Z"/><path class="cls-6" d="M755.45,542.39c-2-1.54-13.26-6.76-13.26-6.76s-3.27,3.14-6.52,2.45c-4.73-1-11.08-8.29-11.08-8.29s-10.58,1.39-14.13,1.74c-10.65,1-16.72,9.72-20.32,18C682,568.34,673,612.19,670.71,624a5.35,5.35,0,0,0,1.81,5.2c18.36,15,69.95,17.62,79.53,14.59,7.36-2.33,2.48-57.69,9.61-80.44C763.69,556.83,763.09,548.37,755.45,542.39Z"/><path class="cls-3" d="M588.71,491.94c-.87-.69-2.81-2.71-3.62-3a4.61,4.61,0,0,0-2.75.16,1.39,1.39,0,0,0-.55,1.45c-1.11.4.41,3,.12,3-1.2.15-1.36,1.84,1.88,4.62.19.17,6.8,8.55,9.13,11.06,1.66-1.31,5.53-6.71,5.48-6.8a43.64,43.64,0,0,0-3.75-4.74C593,495.83,589,492.19,588.71,491.94Z"/><path class="cls-3" d="M701.6,531.75c-9.48-1.12-40,3.33-55,2.67-18.4-.81-12.39,12.31-6.9,14.36,14.46,5.38,56.69,13.27,60.26,6.07C701.55,551.72,703.32,532,701.6,531.75Z"/><path class="cls-3" d="M645.9,537.19c-7.77-6.8-40.88-27-47.84-35.32a34.19,34.19,0,0,1-6,6.3c11.73,13.53,44.74,43.94,51.25,41,6-2.72,5.46-7.6,3.83-10.4A6.22,6.22,0,0,0,645.9,537.19Z"/><path class="cls-6" d="M716.63,530.81c-30.76-2.85-70.81,3.32-71.93,3.4-3.53-2.51-8.41-5.72-13.55-9.11-11.23-7.4-25.2-16.6-29.21-21.27l-8.94,9c10.22,11.46,36.91,35.77,48.09,39.54,11.54,4.07,55.29,12.73,59.88,3.12C702.5,552.25,720.15,531.14,716.63,530.81Z"/><path class="cls-8" d="M754.49,529.37a34.06,34.06,0,0,0,.73-18.95c-2.53-4.73-11.53,3.41-11.65,3.56,1.19,4.56,1.71,11.64.2,17.18-1.47,5.39-4.92,9.09-2.76,22.28,3.1,19-8.39,37.92-4.65,40.42,3.4,2.27,16.33-6.63,19.67-27,.57-3.49,1-10.92-1.33-16.58C753.29,546.87,751.25,539.11,754.49,529.37Z"/><path class="cls-3" d="M744.93,495.54c-6.6-.46-12.45,5.6-12.91,12.14l-.47,6.79c-.34,4.93,6.72,13.22,11.08,12.61,10.31-1.44,13.77-19.9,13.58-22C755.65,499.11,751.08,496,744.93,495.54Z"/><path class="cls-8" d="M754.86,491.56a9.75,9.75,0,0,0-6.18-1.74s.28-2.9-5.36-6c-4.51-2.46-13.4-1.41-20.42,5.09s-12,16.89-9.45,28.55a26.26,26.26,0,0,1-5.53,23.25c-5,5.72-6.17,14.12-6.15,18.15.07,23.55,17.71,36.69,23.5,35,6.35-1.86-6.57-25.85,2.89-46.22,6.59-14.17,2.21-19.15,1.3-25.53-1.2-8.36,3.26-18.68,7-22.3,4.15-4,11.78-4,11.78-4s10.54,3.84,5,20.71C759.4,512.17,761.57,496.16,754.86,491.56Z"/><path class="cls-3" d="M728.63,508.48a5.9,5.9,0,0,0,2.7,5.06,79.94,79.94,0,0,0,3.88-7.08,5.61,5.61,0,0,0-2.59-1.31C730.94,504.84,728.94,506.8,728.63,508.48Z"/><rect class="cls-16" x="552.59" y="626.56" width="47.37" height="25.88"/><polygon class="cls-1" points="552.59 626.57 599.94 626.57 655.65 553.63 496.89 553.63 552.59 626.57"/><path class="cls-17" d="M656,540H496.58a6.84,6.84,0,1,0,0,13.68H656A6.84,6.84,0,1,0,656,540Z"/><rect class="cls-6" x="1503.7" y="463.31" width="5.59" height="66.54"/><rect class="cls-6" x="1566.54" y="463.31" width="5.6" height="66.54"/><rect class="cls-6" x="1557.47" y="555.59" width="74.11" height="5.6"/><polygon class="cls-6" points="1524.67 463.31 1519.07 463.31 1519.07 487.68 1535.83 487.68 1535.83 521.32 1541.43 521.32 1541.43 482.09 1524.67 482.09 1524.67 463.31"/><polygon class="cls-6" points="1607.2 523.46 1573.57 523.46 1573.57 529.06 1612.8 529.06 1612.8 512.3 1631.58 512.3 1631.58 506.7 1607.2 506.7 1607.2 523.46"/><polygon class="cls-6" points="1573 643.57 1567.4 643.57 1567.4 666.4 1577.28 666.4 1577.28 676.86 1582.88 676.86 1582.88 660.8 1573 660.8 1573 643.57"/><polygon class="cls-6" points="1488.65 480.01 1472.64 480.01 1472.64 504.51 1478.24 504.51 1478.24 485.61 1494.24 485.61 1494.24 463.31 1488.65 463.31 1488.65 480.01"/><polygon class="cls-6" points="1433.01 602.16 1408.5 602.16 1408.5 607.76 1427.41 607.76 1427.41 623.76 1467.42 623.76 1467.42 618.16 1433.01 618.16 1433.01 602.16"/><polygon class="cls-6" points="1427.41 571.17 1408.5 571.17 1408.5 576.77 1433.01 576.77 1433.01 560.76 1467.42 560.76 1467.42 555.16 1427.41 555.16 1427.41 571.17"/><path class="cls-6" d="M1606.2,586.06c-4.77,0-8.78,0-10.11-.07l-1.43-.05-.2,5.59,1.42.05c1.25,0,4.76.07,10.44.07,6.91,0,15.34,0,19.66-.06v14.28h5.59V586h-2.82C1628.54,586,1615.83,586.06,1606.2,586.06Z"/><path class="cls-6" d="M1508.66,639.67l-5.59-.21-.05,1.43c-.12,3.38-.05,22.35,0,30.11h-7.11v5.6h12.74l0-3.42c-.08-18.06-.08-29.75,0-32.07Z"/><path class="cls-6" d="M1541.34,640.89l-.05-1.43-5.59.2,0,1.43c.15,4,0,32.41,0,32.69v2.81h19.89V671h-14.27C1541.39,662,1541.46,644.16,1541.34,640.89Z"/><rect class="cls-6" x="1584" y="617.78" width="47.58" height="5.6"/><rect class="cls-6" x="1408.5" y="523.53" width="62.64" height="5.6"/><rect class="cls-6" x="1408.5" y="586.36" width="47.59" height="5.6"/><rect class="cls-6" x="1472.64" y="629.01" width="5.6" height="47.59"/><rect class="cls-1" x="1465.89" y="501.23" width="18.37" height="11.27"/><rect class="cls-1" x="1497.31" y="501.23" width="18.37" height="11.27"/><rect class="cls-1" x="1528.73" y="501.23" width="18.37" height="11.27"/><rect class="cls-1" x="1560.15" y="501.23" width="18.38" height="11.27"/><rect class="cls-1" x="1465.89" y="634.41" width="18.37" height="11.27"/><rect class="cls-1" x="1497.31" y="634.41" width="18.37" height="11.27"/><rect class="cls-1" x="1528.73" y="634.41" width="18.37" height="11.27"/><rect class="cls-1" x="1560.15" y="634.41" width="18.38" height="11.27"/><rect class="cls-1" x="1583.16" y="517.14" width="11.27" height="18.37"/><rect class="cls-1" x="1583.16" y="548.56" width="11.27" height="18.37"/><rect class="cls-1" x="1583.16" y="579.97" width="11.27" height="18.37"/><rect class="cls-1" x="1583.16" y="611.39" width="11.27" height="18.38"/><rect class="cls-1" x="1449.98" y="517.14" width="11.27" height="18.37"/><rect class="cls-1" x="1449.98" y="548.56" width="11.27" height="18.37"/><rect class="cls-1" x="1449.98" y="579.97" width="11.27" height="18.37"/><rect class="cls-1" x="1449.98" y="611.39" width="11.27" height="18.38"/><rect class="cls-1" x="1455.62" y="506.86" width="133.18" height="133.18"/><rect class="cls-18" x="1469.28" y="520.52" width="105.86" height="105.86"/><rect class="cls-1" x="1480.15" y="530.92" width="12.97" height="12.97"/><rect class="cls-1" x="1497.94" y="530.92" width="12.97" height="12.97"/><rect class="cls-1" x="1515.72" y="530.92" width="12.97" height="12.97"/><rect class="cls-1" x="1533.52" y="530.92" width="12.97" height="12.97"/><rect class="cls-1" x="1551.3" y="530.92" width="12.97" height="12.97"/><rect class="cls-1" x="1480.15" y="548.94" width="12.97" height="12.97"/><rect class="cls-1" x="1497.94" y="548.94" width="12.97" height="12.97"/><rect class="cls-1" x="1515.72" y="548.94" width="12.97" height="12.97"/><rect class="cls-1" x="1533.52" y="548.94" width="12.97" height="12.97"/><rect class="cls-1" x="1551.3" y="548.94" width="12.97" height="12.97"/><rect class="cls-1" x="1480.15" y="566.97" width="12.97" height="12.97"/><rect class="cls-1" x="1497.94" y="566.97" width="12.97" height="12.97"/><rect class="cls-1" x="1515.72" y="566.97" width="12.97" height="12.97"/><rect class="cls-1" x="1533.52" y="566.97" width="12.97" height="12.97"/><rect class="cls-1" x="1551.3" y="566.97" width="12.97" height="12.97"/><rect class="cls-1" x="1480.15" y="584.99" width="12.97" height="12.97"/><rect class="cls-1" x="1497.94" y="584.99" width="12.97" height="12.97"/><rect class="cls-1" x="1515.72" y="584.99" width="12.97" height="12.97"/><rect class="cls-1" x="1533.52" y="584.99" width="12.97" height="12.97"/><rect class="cls-1" x="1551.3" y="584.99" width="12.97" height="12.97"/><rect class="cls-1" x="1480.15" y="603.02" width="12.97" height="12.97"/><rect class="cls-1" x="1497.94" y="603.02" width="12.97" height="12.97"/><rect class="cls-1" x="1515.72" y="603.02" width="12.97" height="12.97"/><rect class="cls-1" x="1533.52" y="603.02" width="12.97" height="12.97"/><rect class="cls-1" x="1551.3" y="603.02" width="12.97" height="12.97"/><rect class="cls-9" x="818.4" y="606.26" width="28.6" height="19.78" transform="translate(-190.16 779.85) rotate(-45.59)"/><path class="cls-7" d="M807.32,621.95l-58.58,59.79a14.06,14.06,0,0,0,20.09,19.68l58.57-59.79a14.06,14.06,0,1,0-20.08-19.68Z"/><path class="cls-4" d="M814.6,547.28a86.27,86.27,0,0,0,4.19,26.44l25.56-7.43a52.08,52.08,0,0,1-2.77-19.12c1.42-31.67,24.71-58.64,56.72-60.89V460.73A86.52,86.52,0,0,0,814.6,547.28Z"/><path class="cls-1" d="M902.86,486.12c15.34.06,30.34,6.6,41.62,17l17.69-17.23a86.18,86.18,0,0,0-59.32-25.23Z"/><path class="cls-8" d="M947.73,506.36c10.27,10.93,16.65,25.33,16,40.82-1.48,33-26.72,60.92-60.83,61V633.7a86.52,86.52,0,0,0,62.51-144.51Z"/><path class="cls-6" d="M846,570.57,820.29,578a86.57,86.57,0,0,0,78,55.65V608C875.91,606.27,854.88,591.09,846,570.57Z"/><path class="cls-7" d="M904.6,494.76v55h-55a51.68,51.68,0,1,0,55-55Z"/><path class="cls-19" d="M859.17,522.52l38.53,18.31V498.15A48.34,48.34,0,0,0,859.17,522.52Z"/><path class="cls-6" d="M853,542.84h32.85l-29.69-14.1A47.51,47.51,0,0,0,853,542.84Z"/><g id="_Group_5" data-name="&lt;Group&gt;"><path class="cls-1" d="M1033.09,496.69a23.78,23.78,0,0,0,28.06,4.43l-11-21.53Z"/><path class="cls-4" d="M1039.23,458.06l11,21.53,11,21.53a24.15,24.15,0,1,0-21.91-43.05Z"/><path class="cls-8" d="M1026.32,483.38l23.87-3.79-11-21.53A23.82,23.82,0,0,0,1026.32,483.38Z"/><path class="cls-20" d="M1033.09,496.69l17.1-17.1-23.87,3.79A23.15,23.15,0,0,0,1033.09,496.69Z"/></g><g id="_Group_6" data-name="&lt;Group&gt;"><path class="cls-1" d="M1027.24,546.24l23,7.47V529.53A23.77,23.77,0,0,0,1027.24,546.24Z"/><path class="cls-4" d="M1027.24,546.24a24.15,24.15,0,1,0,45.94,14.94l-23-7.47Z"/><path class="cls-8" d="M1064.4,534.15l-14.2,19.56,23,7.47A23.82,23.82,0,0,0,1064.4,534.15Z"/><path class="cls-21" d="M1050.2,553.72l14.2-19.56a23.15,23.15,0,0,0-14.2-4.62Z"/></g><g id="_Group_7" data-name="&lt;Group&gt;"><path class="cls-1" d="M569,478.08,595,499.33a33.11,33.11,0,0,0,2.25-39.49Z"/><path class="cls-6" d="M542.9,456.81A33.64,33.64,0,1,0,595,499.33L569,478.08Z"/><path class="cls-8" d="M542.9,456.81,569,478.08l12.2-31.38A33.18,33.18,0,0,0,542.9,456.81Z"/><path class="cls-4" d="M588.16,438.31,576,469.69l28.32-18.24A32.24,32.24,0,0,0,588.16,438.31Z"/><path class="cls-3" d="M595,494.43c-.82.1-1,5-.64,5.7,1.38,1.52,1.73,1.28,3.19,1a17.34,17.34,0,0,1-1.42-5C596.07,495.22,596.26,494.17,595,494.43Z"/></g><path class="cls-3" d="M820.45,633.24c-.57.71.59,1.95.59,1.95-.91.76,1.4,2.64,1.14,2.77-1.08.56-.64,2.2,3.35,3.69a7.61,7.61,0,0,0,5.9.78c2-.57,3.38-7.37,2.56-7.94C828.87,630.9,820.88,632.7,820.45,633.24Z"/><path class="cls-4" d="M1471.62,726.34c-.7,3.3.32,7.23-.25,10.62-.73,4.25-3.42,5.46-5.25,8.15-2.16,3.17-3.15,9.12-2.36,14.19a73.84,73.84,0,0,0,2.36,8.65,20.18,20.18,0,0,1,.64,9.4c-1,4.51-6.51,8-6.51,27.15,0,17.46,12.47,24.25,16,28.53V719.8l-1.6,1.55A9.23,9.23,0,0,0,1471.62,726.34Z"/><path class="cls-4" d="M1486.19,767.95a73.84,73.84,0,0,0,2.36-8.65c.79-5.07-.19-11-2.36-14.19-1.83-2.68-4.53-3.9-5.25-8.15-.58-3.4.45-7.32-.25-10.62a9.23,9.23,0,0,0-3-5l-1.6-1.55V833c3.53-4.28,16-11.07,16-28.53,0-19.13-5.48-22.64-6.51-27.15A20.29,20.29,0,0,1,1486.19,767.95Z"/><path class="cls-22" d="M1492,794c-.82,1.08-.46,2.71-1.2,3.84-.93,1.42-3,1.36-4.56,2a5,5,0,0,0-3.06,4.76,18.75,18.75,0,0,0,.87,3.61,4.13,4.13,0,0,1-.43,3.57c-1.17,1.46-5.45,1.72-7.28,8.73-1.67,6.4,6.66,11.23,8.8,13.46l10.81-41.5-1.3.27A4.26,4.26,0,0,0,1492,794Z"/><path class="cls-23" d="M1497.71,799.62c-.09-1.35,1-2.6.83-3.94a4.26,4.26,0,0,0-1.71-2.4l-1-.87L1485,833.92c3-.9,12.58-1.06,14.25-7.46,1.83-7-1.79-9.33-2.09-11.17a4.13,4.13,0,0,1,1.36-3.33,18.61,18.61,0,0,0,2.52-2.73,5,5,0,0,0-.35-5.64C1499.65,802.27,1497.82,801.32,1497.71,799.62Z"/><path class="cls-7" d="M1455.64,830.17s7.77,8.33,7.77,13.93a24.75,24.75,0,0,1-1.33,6.35,12.64,12.64,0,0,0,12,16.46h20.54a12.64,12.64,0,0,0,12-16.46,24.75,24.75,0,0,1-1.33-6.35c0-5.6,7.77-13.93,7.77-13.93Z"/><path class="cls-3" d="M1665.76,602.21c-3.76,8.77-8.18,39.25-13.08,53.44-6,17.4,8.27,15.38,11.79,10.7,9.28-12.33,28.87-50.57,23-56C1684.89,607.95,1666.45,600.62,1665.76,602.21Z"/><path class="cls-3" d="M1601.63,693.18c-.92-.2-1.88-.69-2,.58-.14.81,3.21,2.15,4,2,1.85-.89,1.32-2,3.18-2.54A17.3,17.3,0,0,1,1601.63,693.18Z"/><path class="cls-3" d="M1608.24,692.77a43.07,43.07,0,0,0-5.61,2.25c-2.2,1-6.84,3.88-7.16,4.08-.91.63-3.4,1.92-3.94,2.6a4.63,4.63,0,0,0-.62,2.68,1.38,1.38,0,0,0,1.24.94c.07,1.18,3,.45,2.9.74-.19,1.2,1.38,1.83,5-.49.22-.14,10.14-4.09,13.2-5.61C1612.41,698,1608.34,692.75,1608.24,692.77Z"/><path class="cls-3" d="M1656.93,656.43a6.23,6.23,0,0,0-1.82.74c-8.73,5.51-37.48,31.51-47.48,35.81a34.13,34.13,0,0,1,4.32,7.56c16.31-7.39,54.86-30.38,53.86-37.47C1664.9,656.57,1660.08,655.66,1656.93,656.43Z"/><path class="cls-13" d="M1662.74,597.34c-1.5,9.64-3,18.55-5.2,29.08s-4.49,21.55-6.9,28.53a34.06,34.06,0,0,0-1,3.47c-3.54,2.69-8.18,6.48-13.07,10.48-10.69,8.73-24,19.6-29.78,22.09l6.06,11.51c14.36-6.51,46.36-25.2,53.45-35,7.54-10.08,27.51-46.62,22.23-56.2C1679.75,595.42,1662.86,596.58,1662.74,597.34Z"/><path class="cls-6" d="M1673.45,703.62c-14,.68-87.19,26.89-116.94,44.75-12.65,7.6-7.39,21.16,6.53,20.31,40.26-2.44,93.56-.94,117.24-17.9C1717.94,723.81,1680.9,703.26,1673.45,703.62Z"/><path class="cls-3" d="M1596.62,844.62c-.19,4.05-.3,6.4-.3,6.4,2.81,2.84,7.73,2.85,7.84,2.61a21.23,21.23,0,0,0,.54-8.55C1604.21,845.12,1600.27,841.26,1596.62,844.62Z"/><path class="cls-6" d="M1551.13,769.26c24.19,43.63,45,80,45,80a8.18,8.18,0,0,1,9.24-3.63s-14-41-28.19-82.55C1567.82,735.72,1541.26,751.46,1551.13,769.26Z"/><path class="cls-6" d="M1596.43,848.74a19.12,19.12,0,0,1-1.81,1.92c-2.54,2.44-14,7.54-14.41,11.34-.2,1.92,3.65,4.06,6.93,4.53s6.18.59,8-.27c2.33-1.07,7.07-6.07,7.89-7.18,1.44-1.93,1.45-7.27,1.45-7.27C1602.62,847.28,1596.43,848.74,1596.43,848.74Z"/><path class="cls-24" d="M1596.19,853.55c-3.3,2.3-13.95,6-14.28,9.24-.17,1.61,3.08,3.42,5.84,3.82s5.2.5,6.77-.22c2-.9,6-5.1,6.65-6C1604.9,855.16,1599.39,851.31,1596.19,853.55Z"/><path class="cls-3" d="M1658.59,846.47c.91,4.75,2.32,9.68,2.32,9.68,2.81-.64,7.15-2.29,10-5.13,0,0-2.16-3.34-3.72-6.44C1663.52,841.23,1659.1,846.51,1658.59,846.47Z"/><path class="cls-6" d="M1616,775.73c24.2,43.63,42.82,73.55,42.82,73.55a8.18,8.18,0,0,1,9.24-3.63s-11.88-34.53-26-76.07C1632.72,742.2,1606.16,757.94,1616,775.73Z"/><path class="cls-6" d="M1670.42,850.66c-1.32-1.27-1.26-1.56-1.81-1.92-1.81-1.19-7.12-1.75-8.09,3.08a10.78,10.78,0,0,0,1.44,7.27c.83,1.11,5.57,6.11,7.9,7.18,1.87.85,4.77.74,8,.27s7.13-2.62,6.93-4.53C1684.44,858.2,1673,853.1,1670.42,850.66Z"/><path class="cls-25" d="M1668.86,853.55c-3.2-2.23-8.71,1.62-5,6.79.68.94,4.69,5.15,6.65,6,1.57.72,4,.62,6.78.22s6-2.2,5.83-3.82C1682.8,859.59,1672.16,855.85,1668.86,853.55Z"/><path class="cls-1" d="M1695.89,702.33c-16.12,2-32.16,4.3-48.44,4.66a98.52,98.52,0,0,1-28.59-3.34c0,15.08-3,17.38-9.77,21.45,4.77,16.57,14.31,21.18,22.59,23.88,21.79,7.12,76.29-9.19,77.84-9.31a365.51,365.51,0,0,0-2.72-38.94C1703.26,701.39,1699.61,701.86,1695.89,702.33Z"/><path class="cls-3" d="M1662.52,570.07c-1.13.83-12.8,7.36-16.14,6.86,0,.93,2.31,10.71.16,16,.95,4.89,14.51,4.89,18.23-3.41C1663.2,587.14,1661.87,574.59,1662.52,570.07Z"/><path class="cls-3" d="M1650.2,553.87c-6.15-.4-12.09,1-13.44,6.85-.48,2.08.47,20.84,10.49,23.66,4.24,1.19,12.35-6.07,12.67-11,0,0,.44-6.73.44-6.79C1660.8,560,1656.81,554.3,1650.2,553.87Z"/><path class="cls-13" d="M1678.53,593.12c-3.47-.82-13.77-3.62-13.77-3.62s-2,2.82-8.29,4.16a17.31,17.31,0,0,1-9.93-.75s-11.89,3.65-14.05,4.91c-8.38,4.9-8.42,8.43-9,19.94-.25,5.37-.37,87.84-13.4,106.81.43.76,5.13,12,15.89,14.86l2.64-23.33,2.39,24.4c25.21,5.41,44.53-4.56,64.79-7.66l1.94-30.62,5.83,29.52c2-.24,3.73-.43,5.28-.55-.27-46.76-13.21-117-13.79-119.15C1692.68,603,1688.94,595.59,1678.53,593.12Z"/><path class="cls-26" d="M1663.08,546.44c-9.61-7.54-25.83-.23-30.08,9.63-3.17,7.35-6.13,2.25-5.83.3-1,4.89,1.11,9.12,10.55,8.41,2-.15-4.39,1.82-4.39,1.82s10.09,20.91,25.67,15.79c4.63-1.52,8.66-6,8.66-6s-5,.84-2.39-3.28C1670.45,565.07,1671.57,553.09,1663.08,546.44Z"/><path class="cls-3" d="M1530,567.95c-.82,0-1.75,3.45-1.52,4.23,1.1,1.73,2.11,1.08,2.9,2.85a17.53,17.53,0,0,1-.56-5.18C1530.92,568.9,1531.29,567.9,1530,567.95Z"/><path class="cls-3" d="M1524.22,564.44c-.74-.83-2.31-3.14-3.06-3.6a4.62,4.62,0,0,0-2.74-.3,1.39,1.39,0,0,0-.78,1.34c-1.17.21-.09,3-.39,3-1.21,0-1.65,1.59,1.08,4.87.16.2,5.28,9.57,7.16,12.43,1.85-1,6.57-5.69,6.54-5.79a43.35,43.35,0,0,0-2.91-5.3C1527.84,569,1524.46,564.73,1524.22,564.44Z"/><path class="cls-3" d="M1571.49,614.42c-8.33-6.09-33-31.71-40.68-39.43a34.1,34.1,0,0,1-5.45,6.79c12.87,12.46,38.35,48.29,44.57,44.75,5.7-3.23,4.78-8,2.91-10.69A6.28,6.28,0,0,0,1571.49,614.42Z"/><path class="cls-3" d="M1626.51,604.13C1617,603.85,1587,611,1572,611.6c-18.39.8-11.27,13.35-5.62,14.9,14.87,4.09,57.64,8.27,60.56.78C1628.21,624,1628.24,604.19,1626.51,604.13Z"/><path class="cls-13" d="M1629.93,599.54c-9.52,2.14-18.36,4-29,5.85s-21.7,3.74-29.07,4.06a32.86,32.86,0,0,0-3.6.35c-3.81-2.31-30.33-30.24-34.78-34.72l-9.67,8.26c9.52,12.07,30.41,42.29,42.09,45.29,12.15,3.31,56.57,9.86,63.53,1.44C1641.06,616.05,1630.69,599.37,1629.93,599.54Z"/><polygon class="cls-1" points="1715.17 774.53 1746.83 866.7 1750.38 866.7 1718.72 774.53 1715.17 774.53"/><polygon class="cls-1" points="1661.64 774.53 1693.31 866.7 1696.85 866.7 1665.19 774.53 1661.64 774.53"/><path class="cls-27" d="M1722.21,638.26c-22.2,0-43.57,18-47.73,40.2l-13.9,57.72c-2.44,13-16.74,22.5-30,22.5h-28.91a7.89,7.89,0,0,0,0,15.77l119.22.12a11.54,11.54,0,0,0,11.34-9.36l22.68-86.77C1759,656.26,1744.41,638.26,1722.21,638.26Z"/><path class="cls-7" d="M1722.21,638.26c-22.2,0-43.57,18-47.73,40.2l-13.9,57.78c-2.44,13-16.74,22.56-30,22.56h-28.91a7.85,7.85,0,1,0,0,15.69l3.74-.05a7.94,7.94,0,0,1,7.25-4.85h28.91c13.27,0,27.57-9.41,30-22.46l13.9-57.7c4.16-22.2,25.53-40.19,47.73-40.19a35.06,35.06,0,0,1,17.85,4.64C1745.48,644.39,1735.15,638.26,1722.21,638.26Z"/><polygon class="cls-7" points="1592.08 866.7 1595.63 866.7 1627.29 774.53 1623.74 774.53 1592.08 866.7"/><polygon class="cls-7" points="1645.6 866.7 1649.15 866.7 1680.81 774.53 1677.27 774.53 1645.6 866.7"/></g></g></svg>