<svg xmlns="http://www.w3.org/2000/svg" viewBox="0 0 311.02 302.89"><defs><style>.cls-1{isolation:isolate;}.cls-2{fill:#6733d7;}.cls-3{fill:#9f64c4;}.cls-4{fill:#431d93;}.cls-5{fill:#7b3ea3;opacity:0.24;mix-blend-mode:multiply;}.cls-6{fill:#2bd978;}.cls-7{fill:#52e092;}.cls-8{fill:#22bf68;}.cls-9{fill:#fff;}.cls-10{fill:#cee0f0;}.cls-11{fill:#c9a6e0;}.cls-12{fill:#d8baeb;}.cls-13{fill:#e7d5f2;}.cls-14{fill:#e87de5;}.cls-15{fill:#e05edc;}.cls-16{fill:#c445c1;}</style></defs><title>why-zenml-thumb</title><g class="cls-1"><g id="Layer_2" data-name="Layer 2"><g id="OBJECTS"><path class="cls-2" d="M0,.32V302.89H307.77c5.61-21,6.06-66.39-16.11-77.55-11.14-5.6-24.07-5.83-36.5-6.8-2.48-.19-5-.43-7.49-.77-10-1.32-20-4.07-27.33-10.8-6.75-6.16-10.27-14.69-11.71-23.81a69.18,69.18,0,0,1-.79-10.88c0-.94,0-1.87.06-2.8.08-2,.23-4.07.44-6.06,1.67-15.55,6.32-30.9,5.37-46.51-2.14-35-37-64.51-71.84-60.86-11,1.14-21.43,5-32.27,6.89-28,4.77-33.07-13-44.3-32.39C53.17,9.65,23.49-2.13,0,.32Z"/><path class="cls-3" d="M0,103.78v2.79L31.35,136.9l5.35,5.17,4.18-6.62,19.69-31.16L88.83,151.4l18.76-35.54,53,51.72,5.33,5.2,4.39-4.64L183.76,154l3-3.16,3.06,3.11,18,18.37c0-.94,0-1.87.06-2.8l-16.67-17-4.5-4.59-4.42,4.67-13.13,13.87-3.28,3.47-4-3.86-54.87-53.52L88.72,147.32,60.61,100.48l-21.23,33.6-3.06,4.84-3.92-3.79Z"/><circle class="cls-3" cx="186.74" cy="149.36" r="5.49"/><circle class="cls-3" cx="165.34" cy="170.38" r="5.49"/><circle class="cls-3" cx="60.59" cy="102.39" r="5.49"/><circle class="cls-3" cx="36.51" cy="138.76" r="5.49"/><path class="cls-4" d="M0,170.38V302.89H307.77c5.61-21,6.06-66.39-16.11-77.55-11.14-5.6-24.07-5.83-36.5-6.8-2.48-.19-5-.43-7.49-.77-10-1.32-20-4.07-27.33-10.8-6.75-6.16-10.27-14.69-11.71-23.81h-9.31a4.08,4.08,0,0,0-4.08,4.08v18a4.08,4.08,0,0,1-4.09,4.08h-1.89a4.08,4.08,0,0,0-4.08,4.09v7.39a4.08,4.08,0,0,1-4.09,4.08h-9.88a4.08,4.08,0,0,1-4.09-4.08V199.15a4.08,4.08,0,0,0-1.2-2.89l-8-8a4.09,4.09,0,0,0-5.78,0l-7.2,7.21a4.08,4.08,0,0,0-1.2,2.89v13a4.08,4.08,0,0,1-4.09,4.09h0a4.08,4.08,0,0,1-4.09-4.09V205a4.09,4.09,0,0,0-4.08-4.09H109.09A4.08,4.08,0,0,0,105,205v15.83a4.08,4.08,0,0,1-4.08,4.08H91a4.08,4.08,0,0,1-2.89-1.2L76.35,211.93a4.09,4.09,0,0,0-5.78,0l-10.8,10.8a4.09,4.09,0,0,0-1.2,2.89v4.19a4.08,4.08,0,0,1-4.09,4.09H51.83a4.08,4.08,0,0,1-4.09-4.09V210.23a4.09,4.09,0,0,0-1.2-2.89l-6.48-6.48a4.09,4.09,0,0,0-5.78,0l-7,7a4.09,4.09,0,0,0-1.2,2.89v7.44A4.09,4.09,0,0,1,22,222.23H20.88a4.09,4.09,0,0,1-4.09-4.09V194.2a4.09,4.09,0,0,0-4.08-4.09H9.33A4.09,4.09,0,0,1,5.24,186V174.47a4.08,4.08,0,0,0-4.08-4.08Z"/><path class="cls-5" d="M284.38,236.47c-11.13-5.6-24.07-5.84-36.5-6.8s-25.61-3.16-34.81-11.57c-11.55-10.54-13.66-28-12-43.56s6.32-30.9,5.37-46.51c-2.14-35-37-64.51-71.84-60.86-11,1.14-21.43,5-32.28,6.89-28,4.77-33.06-13-44.3-32.39C47.12,22.88,22,11.47,0,11.14V.32C23.49-2.13,53.17,9.65,65.3,30.55c11.24,19.38,16.33,37.16,44.3,32.39,10.85-1.85,21.32-5.75,32.28-6.89,34.88-3.64,69.7,25.86,71.84,60.86,1,15.61-3.71,31-5.37,46.51s.45,33,12,43.56c9.2,8.41,22.39,10.6,34.81,11.57s25.37,1.2,36.5,6.8c22.17,11.16,21.72,56.57,16.11,77.55h-5.13C305.71,280,303.17,245.92,284.38,236.47Z"/><path class="cls-6" d="M149.25,175.32c-3.8-6.57-10.16-14.22-20.14-17.27l8-31.53s7.26,15.45,19.11,47.26c.63,1.69-1.57,3.19-3.2,3.19H152A3.15,3.15,0,0,1,149.25,175.32Z"/><path class="cls-7" d="M137.12,126.52s7.26,15.45,19.11,47.26c.5,1.33-.78,2.55-2.14,3-4.31-15.52-11.39-29.8-18.55-44Z"/><path class="cls-6" d="M154.09,176.78A3.45,3.45,0,0,1,153,177H152a3.15,3.15,0,0,1-2.7-1.65c-3.8-6.57-10.16-14.22-20.14-17.27l6.43-25.31C142.7,147,149.78,161.26,154.09,176.78Z"/><path class="cls-8" d="M72.66,175.32c3.8-6.57,10.16-14.22,20.14-17.27l-8-31.53S77.53,142,65.68,173.78c-.63,1.69,1.57,3.19,3.2,3.19H70A3.15,3.15,0,0,0,72.66,175.32Z"/><path class="cls-4" d="M101.83,167.36h19a1.66,1.66,0,0,0,1.57-1.4l1-5.14a1.75,1.75,0,0,0-1.57-2.19h-21.1a1.75,1.75,0,0,0-1.57,2.19l1,5.14A1.66,1.66,0,0,0,101.83,167.36Z"/><path class="cls-9" d="M138.72,114.4s-2.92,29.94-11.94,48.91a37.37,37.37,0,0,0-31.31,0S85.13,147.3,83,112c-1.22-20.33.24-43.53,6.26-63.53h42.08C137,64.79,140.94,86.66,138.72,114.4Z"/><path class="cls-9" d="M84.35,72.28a151.1,151.1,0,0,1,5-23.72h42.08c5.6,16.29,9.59,38.16,7.37,65.9a224.71,224.71,0,0,1-3.59,22.34C110.1,126.3,91.74,101,84.35,72.28Z"/><path class="cls-10" d="M135.19,136.8c-1.87,8.78-4.57,18.63-8.35,26.57a37.37,37.37,0,0,0-31.31,0s-10.35-16-12.47-51.28a211.65,211.65,0,0,1,1.29-39.81C91.74,101,110.1,126.3,135.19,136.8Z"/><path class="cls-6" d="M114.29,16.12c4.23,5.35,11.49,16.08,17.12,32.44H89.33C93.18,35.77,98.9,24.28,107,15.72A4.72,4.72,0,0,1,114.29,16.12Z"/><path class="cls-6" d="M110.12,14.23a4.83,4.83,0,0,1,4.17,1.89c4.23,5.35,11.49,16.08,17.12,32.44H106.76A11.21,11.21,0,0,1,105.3,45,60.59,60.59,0,0,1,110.12,14.23Z"/><path class="cls-7" d="M116.34,35.23c-3-5-4.07-10-2.5-11.14S119.08,26,122,31s4.07,10,2.5,11.14S119.3,40.23,116.34,35.23Z"/><path class="cls-8" d="M107,15.72a4.73,4.73,0,0,1,3.12-1.5A60.59,60.59,0,0,0,105.3,45a11.21,11.21,0,0,0,1.47,3.59H89.33C93.18,35.77,98.9,24.28,107,15.72Z"/><path class="cls-6" d="M108.33,174.32A105.45,105.45,0,0,1,111.65,113s10.64,27,2.92,61.21a3.33,3.33,0,0,1-3.13,2.74h0A3.3,3.3,0,0,1,108.33,174.32Z"/><path class="cls-6" d="M111.95,113.82c1.54,4.36,8.49,26.25,3.87,54C110.55,150.56,110.41,132.19,111.95,113.82Z"/><path class="cls-8" d="M111.65,113s.11.28.29.81c-1.54,18.37-1.4,36.74,3.87,54q-.52,3.15-1.25,6.39a3.15,3.15,0,0,1-6.24.09A105.45,105.45,0,0,1,111.65,113Z"/><circle class="cls-6" cx="110.33" cy="82.54" r="18.14"/><circle class="cls-4" cx="110.33" cy="82.54" r="12.59"/><path class="cls-2" d="M109.41,70c3.48,7.06,6.57,14.2,10.06,21.19a12.61,12.61,0,0,1-5.76,3.47c-2.92-7.86-6.36-15.39-10-22.85A12.54,12.54,0,0,1,109.41,70Z"/><path class="cls-4" d="M103.75,71.81c3.6,7.45,7,15,10,22.85a12.58,12.58,0,0,1-10-22.85Z"/><path class="cls-4" d="M110.33,69.95a12.58,12.58,0,0,1,9.14,21.24c-3.49-7-6.58-14.13-10.06-21.19C109.71,70,110,69.95,110.33,69.95Z"/><path class="cls-9" d="M31.06,70.35l-1.36,3.32a.64.64,0,0,1-.35.35L26,75.37a.64.64,0,0,0,0,1.19l3.32,1.36a.64.64,0,0,1,.35.35l1.36,3.32a.64.64,0,0,0,1.19,0l1.36-3.32a.64.64,0,0,1,.35-.35l3.32-1.36a.64.64,0,0,0,0-1.19L34,74a.64.64,0,0,1-.35-.35l-1.36-3.32A.64.64,0,0,0,31.06,70.35Z"/><path class="cls-9" d="M166.53,117.86l-1.36,3.32a.64.64,0,0,1-.35.35l-3.32,1.36a.64.64,0,0,0,0,1.19l3.32,1.36a.64.64,0,0,1,.35.35l1.36,3.32a.64.64,0,0,0,1.19,0l1.36-3.32a.64.64,0,0,1,.35-.35l3.32-1.36a.64.64,0,0,0,0-1.19l-3.32-1.36a.64.64,0,0,1-.35-.35l-1.36-3.32A.64.64,0,0,0,166.53,117.86Z"/><path class="cls-9" d="M74.64,185.81l-1.36,3.32a.64.64,0,0,1-.35.35l-3.32,1.36a.64.64,0,0,0,0,1.19l3.32,1.36a.64.64,0,0,1,.35.35l1.36,3.32a.64.64,0,0,0,1.19,0l1.36-3.32a.64.64,0,0,1,.35-.35L80.86,192a.64.64,0,0,0,0-1.19l-3.32-1.36a.64.64,0,0,1-.35-.35l-1.36-3.32A.64.64,0,0,0,74.64,185.81Z"/><path class="cls-11" d="M0,257v45.88H305.2a7.43,7.43,0,0,0-.27-1.13,13.82,13.82,0,0,0-10-8.9c-4.55-1.06-7-1.4-11,1a23.11,23.11,0,0,0-28.18-32.39,27.29,27.29,0,0,0-14.84,13,17.32,17.32,0,0,0-6.37-14,17.92,17.92,0,0,0-21.1,0,14.18,14.18,0,0,0-1.37,1.2,17.68,17.68,0,0,0,1-1.62c3.55-6.83,2.09-15.87-3-21.75-5.5-6.36-14.49-9.11-22.84-8.12s-16.37,6.29-22.47,12.07c-43.33-14-44.73-74.88-44.73-74.88l-8.07-2.46-8.08,2.46s-1.39,60.88-44.73,74.88C53,236.45,45,231.16,36.6,230.16s-17.34,1.76-22.84,8.12-6.76,16.41-2,23.37A16.76,16.76,0,0,0,0,257Z"/><path class="cls-12" d="M20.51,302.89H165.34c-.85-7.61-4.21-15.06-10.92-18.51a20.37,20.37,0,0,0-24.19,4.87c3.47-15.67-8.48-33-24.35-35.33s-32.3,10.82-33.49,26.82c-.51-7.08-8.08-12.76-15-11.27s-11.5,9.78-9.06,16.44c-6.36-5.74-17.19-5.54-23.34.43A17.69,17.69,0,0,0,20.51,302.89Z"/><path class="cls-13" d="M123.09,302.89H247.53a15.86,15.86,0,0,0-27.77-12.65c2.76-9.36,1.43-20.12-4.59-27.79a22.39,22.39,0,0,0-1.77-2L213,260c-6.25-6-15.79-8.75-23.94-5.78S175.41,266,176.36,274.38c-2.57-6.74-10.78-11.23-17.77-8.92-8.11,2.68-12.09,13.71-7.56,21a17,17,0,0,0-27.94,16.47Z"/><circle class="cls-14" cx="34.37" cy="179.88" r="17.57" transform="translate(-148.54 170.98) rotate(-76.4)"/><path class="cls-15" d="M17.29,175.74a17.53,17.53,0,0,1,10.26-12,17.55,17.55,0,0,0,19,28.85,17.56,17.56,0,0,1-29.23-16.81Z"/><path class="cls-16" d="M8.33,174.83c-.65,2.67,3.54,5.3,8.63,7.45A113.93,113.93,0,0,0,48.75,190c5.51.42,10.44,0,11.09-2.68s-3.15-5.05-7.9-7.15a17,17,0,0,1-.34,3.15c3,1.39,4.72,2.57,5.2,3.26-.77.42-2.92.69-6.4.53a93.53,93.53,0,0,1-17.11-2.73A93.53,93.53,0,0,1,16.82,179c-3.17-1.45-5-2.67-5.45-3.4.74-.4,2.81-.67,6.12-.53a17,17,0,0,1,1.14-3C13.44,171.78,8.94,172.28,8.33,174.83Z"/></g></g></g></svg>