<svg viewBox="0 0 311.02 302.89" xmlns="http://www.w3.org/2000/svg"><path d="m0 .32v302.57h307.77c5.61-21 6.06-66.39-16.11-77.55-11.14-5.6-24.07-5.83-36.5-6.8-2.48-.19-5-.43-7.49-.77-10-1.32-20-4.07-27.33-10.8-6.75-6.16-10.27-14.69-11.71-23.81a69.18 69.18 0 0 1 -.79-10.88c0-.94 0-1.87.06-2.8.08-2 .23-4.07.44-6.06 1.67-15.55 6.32-30.9 5.37-46.51-2.14-35-37-64.51-71.84-60.86-11 1.14-21.43 5-32.27 6.89-28 4.77-33.07-13-44.3-32.39-12.13-20.9-41.81-32.68-65.3-30.23z" fill="#6733d7"/><g fill="#9f64c4"><path d="m0 103.78v2.79l31.35 30.33 5.35 5.17 4.18-6.62 19.69-31.16 28.26 47.11 18.76-35.54 53 51.72 5.33 5.2 4.39-4.64 13.45-14.14 3-3.16 3.06 3.11 18 18.37c0-.94 0-1.87.06-2.8l-16.67-17-4.5-4.59-4.42 4.67-13.13 13.87-3.28 3.47-4-3.86-54.87-53.52-18.29 34.76-28.11-46.84-21.23 33.6-3.06 4.84-3.92-3.79z"/><circle cx="186.74" cy="149.36" r="5.49"/><circle cx="165.34" cy="170.38" r="5.49"/><circle cx="60.59" cy="102.39" r="5.49"/><circle cx="36.51" cy="138.76" r="5.49"/></g><path d="m0 170.38v132.51h307.77c5.61-21 6.06-66.39-16.11-77.55-11.14-5.6-24.07-5.83-36.5-6.8-2.48-.19-5-.43-7.49-.77-10-1.32-20-4.07-27.33-10.8-6.75-6.16-10.27-14.69-11.71-23.81h-9.31a4.08 4.08 0 0 0 -4.08 4.08v18a4.08 4.08 0 0 1 -4.09 4.08h-1.89a4.08 4.08 0 0 0 -4.08 4.09v7.39a4.08 4.08 0 0 1 -4.09 4.08h-9.88a4.08 4.08 0 0 1 -4.09-4.08v-21.65a4.08 4.08 0 0 0 -1.2-2.89l-8-8a4.09 4.09 0 0 0 -5.78 0l-7.2 7.21a4.08 4.08 0 0 0 -1.2 2.89v13a4.08 4.08 0 0 1 -4.09 4.09 4.08 4.08 0 0 1 -4.09-4.09v-6.36a4.09 4.09 0 0 0 -4.08-4.09h-22.39a4.08 4.08 0 0 0 -4.09 4.09v15.83a4.08 4.08 0 0 1 -4.08 4.08h-9.92a4.08 4.08 0 0 1 -2.89-1.2l-11.76-11.78a4.09 4.09 0 0 0 -5.78 0l-10.8 10.8a4.09 4.09 0 0 0 -1.2 2.89v4.19a4.08 4.08 0 0 1 -4.09 4.09h-2.65a4.08 4.08 0 0 1 -4.09-4.09v-19.58a4.09 4.09 0 0 0 -1.2-2.89l-6.48-6.48a4.09 4.09 0 0 0 -5.78 0l-7 7a4.09 4.09 0 0 0 -1.2 2.89v7.44a4.09 4.09 0 0 1 -4.08 4.04h-1.12a4.09 4.09 0 0 1 -4.09-4.09v-23.94a4.09 4.09 0 0 0 -4.08-4.09h-3.38a4.09 4.09 0 0 1 -4.09-4.11v-11.53a4.08 4.08 0 0 0 -4.08-4.08z" fill="#431d93"/><path d="m284.38 236.47c-11.13-5.6-24.07-5.84-36.5-6.8s-25.61-3.16-34.81-11.57c-11.55-10.54-13.66-28-12-43.56s6.32-30.9 5.37-46.51c-2.14-35-37-64.51-71.84-60.86-11 1.14-21.43 5-32.28 6.89-28 4.77-33.06-13-44.3-32.39-10.9-18.79-36.02-30.2-58.02-30.53v-10.82c23.49-2.45 53.17 9.33 65.3 30.23 11.24 19.38 16.33 37.16 44.3 32.39 10.85-1.85 21.32-5.75 32.28-6.89 34.88-3.64 69.7 25.86 71.84 60.86 1 15.61-3.71 31-5.37 46.51s.45 33 12 43.56c9.2 8.41 22.39 10.6 34.81 11.57s25.37 1.2 36.5 6.8c22.17 11.16 21.72 56.57 16.11 77.55h-5.13c3.07-22.9.53-56.98-18.26-66.43z" fill="#7b3ea3" opacity=".24"/><path d="m149.25 175.32c-3.8-6.57-10.16-14.22-20.14-17.27l8-31.53s7.26 15.45 19.11 47.26c.63 1.69-1.57 3.19-3.2 3.19h-1.02a3.15 3.15 0 0 1 -2.75-1.65z" fill="#2bd978"/><path d="m137.12 126.52s7.26 15.45 19.11 47.26c.5 1.33-.78 2.55-2.14 3-4.31-15.52-11.39-29.8-18.55-44z" fill="#52e092"/><path d="m154.09 176.78a3.45 3.45 0 0 1 -1.09.22h-1a3.15 3.15 0 0 1 -2.7-1.65c-3.8-6.57-10.16-14.22-20.14-17.27l6.43-25.31c7.11 14.23 14.19 28.49 18.5 44.01z" fill="#2bd978"/><path d="m72.66 175.32c3.8-6.57 10.16-14.22 20.14-17.27l-8-31.53s-7.27 15.48-19.12 47.26c-.63 1.69 1.57 3.19 3.2 3.19h1.12a3.15 3.15 0 0 0 2.66-1.65z" fill="#22bf68"/><path d="m101.83 167.36h19a1.66 1.66 0 0 0 1.57-1.4l1-5.14a1.75 1.75 0 0 0 -1.57-2.19h-21.1a1.75 1.75 0 0 0 -1.57 2.19l1 5.14a1.66 1.66 0 0 0 1.67 1.4z" fill="#431d93"/><path d="m138.72 114.4s-2.92 29.94-11.94 48.91a37.37 37.37 0 0 0 -31.31 0s-10.34-16.01-12.47-51.31c-1.22-20.33.24-43.53 6.26-63.53h42.08c5.66 16.32 9.6 38.19 7.38 65.93z" fill="#fff"/><path d="m84.35 72.28a151.1 151.1 0 0 1 5-23.72h42.08c5.6 16.29 9.59 38.16 7.37 65.9a224.71 224.71 0 0 1 -3.59 22.34c-25.11-10.5-43.47-35.8-50.86-64.52z" fill="#fff"/><path d="m135.19 136.8c-1.87 8.78-4.57 18.63-8.35 26.57a37.37 37.37 0 0 0 -31.31 0s-10.35-16-12.47-51.28a211.65 211.65 0 0 1 1.29-39.81c7.39 28.72 25.75 54.02 50.84 64.52z" fill="#cee0f0"/><path d="m114.29 16.12c4.23 5.35 11.49 16.08 17.12 32.44h-42.08c3.85-12.79 9.57-24.28 17.67-32.84a4.72 4.72 0 0 1 7.29.4z" fill="#2bd978"/><path d="m110.12 14.23a4.83 4.83 0 0 1 4.17 1.89c4.23 5.35 11.49 16.08 17.12 32.44h-24.65a11.21 11.21 0 0 1 -1.46-3.56 60.59 60.59 0 0 1 4.82-30.77z" fill="#2bd978"/><path d="m116.34 35.23c-3-5-4.07-10-2.5-11.14s5.24 1.91 8.16 6.91 4.07 10 2.5 11.14-5.2-1.91-8.16-6.91z" fill="#52e092"/><path d="m107 15.72a4.73 4.73 0 0 1 3.12-1.5 60.59 60.59 0 0 0 -4.82 30.78 11.21 11.21 0 0 0 1.47 3.59h-17.44c3.85-12.82 9.57-24.31 17.67-32.87z" fill="#22bf68"/><path d="m108.33 174.32a105.45 105.45 0 0 1 3.32-61.32s10.64 27 2.92 61.21a3.33 3.33 0 0 1 -3.13 2.74 3.3 3.3 0 0 1 -3.11-2.63z" fill="#2bd978"/><path d="m111.95 113.82c1.54 4.36 8.49 26.25 3.87 54-5.27-17.26-5.41-35.63-3.87-54z" fill="#2bd978"/><path d="m111.65 113s.11.28.29.81c-1.54 18.37-1.4 36.74 3.87 54q-.52 3.15-1.25 6.39a3.15 3.15 0 0 1 -6.24.09 105.45 105.45 0 0 1 3.33-61.29z" fill="#22bf68"/><circle cx="110.33" cy="82.54" fill="#2bd978" r="18.14"/><circle cx="110.33" cy="82.54" fill="#431d93" r="12.59"/><path d="m109.41 70c3.48 7.06 6.57 14.2 10.06 21.19a12.61 12.61 0 0 1 -5.76 3.47c-2.92-7.86-6.36-15.39-10-22.85a12.54 12.54 0 0 1 5.7-1.81z" fill="#6733d7"/><path d="m103.75 71.81c3.6 7.45 7 15 10 22.85a12.58 12.58 0 0 1 -10-22.85z" fill="#431d93"/><path d="m110.33 69.95a12.58 12.58 0 0 1 9.14 21.24c-3.49-7-6.58-14.13-10.06-21.19.3 0 .59-.05.92-.05z" fill="#431d93"/><g fill="#fff"><path d="m31.06 70.35-1.36 3.32a.64.64 0 0 1 -.35.35l-3.35 1.35a.64.64 0 0 0 0 1.19l3.32 1.36a.64.64 0 0 1 .35.35l1.36 3.32a.64.64 0 0 0 1.19 0l1.36-3.32a.64.64 0 0 1 .35-.35l3.32-1.36a.64.64 0 0 0 0-1.19l-3.25-1.37a.64.64 0 0 1 -.35-.35l-1.36-3.32a.64.64 0 0 0 -1.23.02z"/><path d="m166.53 117.86-1.36 3.32a.64.64 0 0 1 -.35.35l-3.32 1.36a.64.64 0 0 0 0 1.19l3.32 1.36a.64.64 0 0 1 .35.35l1.36 3.32a.64.64 0 0 0 1.19 0l1.36-3.32a.64.64 0 0 1 .35-.35l3.32-1.36a.64.64 0 0 0 0-1.19l-3.32-1.36a.64.64 0 0 1 -.35-.35l-1.36-3.32a.64.64 0 0 0 -1.19 0z"/><path d="m74.64 185.81-1.36 3.32a.64.64 0 0 1 -.35.35l-3.32 1.36a.64.64 0 0 0 0 1.19l3.32 1.36a.64.64 0 0 1 .35.35l1.36 3.32a.64.64 0 0 0 1.19 0l1.36-3.32a.64.64 0 0 1 .35-.35l3.32-1.39a.64.64 0 0 0 0-1.19l-3.32-1.36a.64.64 0 0 1 -.35-.35l-1.36-3.32a.64.64 0 0 0 -1.19.03z"/></g><path d="m0 257v45.88h305.2a7.43 7.43 0 0 0 -.27-1.13 13.82 13.82 0 0 0 -10-8.9c-4.55-1.06-7-1.4-11 1a23.11 23.11 0 0 0 -28.18-32.39 27.29 27.29 0 0 0 -14.84 13 17.32 17.32 0 0 0 -6.37-14 17.92 17.92 0 0 0 -21.1 0 14.18 14.18 0 0 0 -1.37 1.2 17.68 17.68 0 0 0 1-1.62c3.55-6.83 2.09-15.87-3-21.75-5.5-6.36-14.49-9.11-22.84-8.12s-16.37 6.29-22.47 12.07c-43.33-14-44.73-74.88-44.73-74.88l-8.07-2.46-8.08 2.46s-1.39 60.88-44.73 74.88c-6.15-5.79-14.15-11.08-22.55-12.08s-17.34 1.76-22.84 8.12-6.76 16.41-2 23.37a16.76 16.76 0 0 0 -11.76-4.65z" fill="#c9a6e0"/><path d="m20.51 302.89h144.83c-.85-7.61-4.21-15.06-10.92-18.51a20.37 20.37 0 0 0 -24.19 4.87c3.47-15.67-8.48-33-24.35-35.33s-32.3 10.82-33.49 26.82c-.51-7.08-8.08-12.76-15-11.27s-11.5 9.78-9.06 16.44c-6.36-5.74-17.19-5.54-23.34.43a17.69 17.69 0 0 0 -4.48 16.55z" fill="#d8baeb"/><path d="m123.09 302.89h124.44a15.86 15.86 0 0 0 -27.77-12.65c2.76-9.36 1.43-20.12-4.59-27.79a22.39 22.39 0 0 0 -1.77-2l-.4-.45c-6.25-6-15.79-8.75-23.94-5.78s-13.65 11.78-12.7 20.16c-2.57-6.74-10.78-11.23-17.77-8.92-8.11 2.68-12.09 13.71-7.56 21a17 17 0 0 0 -27.94 16.47z" fill="#e7d5f2"/><circle cx="34.37" cy="179.88" fill="#e87de5" r="17.57" transform="matrix(.23514211 -.971961 .971961 .23514211 -148.54 170.98)"/><path d="m17.29 175.74a17.53 17.53 0 0 1 10.26-12 17.55 17.55 0 0 0 19 28.85 17.56 17.56 0 0 1 -29.23-16.81z" fill="#e05edc"/><path d="m8.33 174.83c-.65 2.67 3.54 5.3 8.63 7.45a113.93 113.93 0 0 0 31.79 7.72c5.51.42 10.44 0 11.09-2.68s-3.15-5.05-7.9-7.15a17 17 0 0 1 -.34 3.15c3 1.39 4.72 2.57 5.2 3.26-.77.42-2.92.69-6.4.53a93.53 93.53 0 0 1 -17.11-2.73 93.53 93.53 0 0 1 -16.47-5.38c-3.17-1.45-5-2.67-5.45-3.4.74-.4 2.81-.67 6.12-.53a17 17 0 0 1 1.14-3c-5.19-.29-9.69.21-10.3 2.76z" fill="#c445c1"/></svg>