<svg xmlns="http://www.w3.org/2000/svg" xmlns:xlink="http://www.w3.org/1999/xlink" viewBox="0 0 1085.98 1337.54"><defs><style>.cls-1{isolation:isolate;}.cls-16,.cls-2{fill:#fff;}.cls-10,.cls-11,.cls-12,.cls-13,.cls-14,.cls-15,.cls-16,.cls-17,.cls-18,.cls-19,.cls-2,.cls-20,.cls-21,.cls-22,.cls-23,.cls-24,.cls-25,.cls-26,.cls-27,.cls-28,.cls-29,.cls-3,.cls-30,.cls-31,.cls-32,.cls-33,.cls-34,.cls-35,.cls-4,.cls-5,.cls-6,.cls-7,.cls-8,.cls-9{fill-rule:evenodd;}.cls-3{fill:#8d6dfc;}.cls-4{fill:url(#linear-gradient);}.cls-5{fill:#bb6ce9;}.cls-10,.cls-13,.cls-16,.cls-20,.cls-23,.cls-25,.cls-27,.cls-31,.cls-32,.cls-5{opacity:0.5;}.cls-6{fill:url(#GradientFill_6);}.cls-7{fill:url(#linear-gradient-2);}.cls-8{fill:#4a9ff8;}.cls-9{fill:#4c68e5;}.cls-10{fill:#3856d8;}.cls-11{fill:#6bb6ff;}.cls-12{fill:aqua;}.cls-13,.cls-20,.cls-23,.cls-25,.cls-27,.cls-31,.cls-32{mix-blend-mode:multiply;}.cls-13{fill:url(#linear-gradient-3);}.cls-14{fill:#e5edff;}.cls-15{fill:#d1e7ff;}.cls-17{fill:#22d2fb;}.cls-18{fill:#12a3eb;}.cls-19{fill:#1c8df3;}.cls-20{fill:url(#linear-gradient-4);}.cls-21{fill:#d0e7ff;}.cls-22{fill:url(#linear-gradient-5);}.cls-23{fill:url(#linear-gradient-6);}.cls-24{fill:url(#linear-gradient-7);}.cls-25{fill:url(#linear-gradient-8);}.cls-26{fill:url(#linear-gradient-9);}.cls-27{fill:url(#linear-gradient-10);}.cls-28{fill:url(#linear-gradient-11);}.cls-29,.cls-34{fill:#6d6afd;}.cls-29{opacity:0.25;}.cls-30{fill:#4a9ef8;}.cls-31{fill:#4164f3;}.cls-32{fill:url(#linear-gradient-12);}.cls-33{fill:url(#linear-gradient-13);}.cls-34{opacity:0.2;}.cls-35{fill:url(#linear-gradient-14);}</style><linearGradient id="linear-gradient" x1="587.38" y1="-29.8" x2="655.5" y2="161.61" gradientUnits="userSpaceOnUse"><stop offset="0" stop-color="#fd90da"/><stop offset="1" stop-color="#8e6dfd"/></linearGradient><linearGradient id="GradientFill_6" x1="629.35" y1="426.13" x2="436.34" y2="1151.39" gradientUnits="userSpaceOnUse"><stop offset="0" stop-color="#c4e0f5"/><stop offset="1" stop-color="#e1e8f6"/></linearGradient><linearGradient id="linear-gradient-2" x1="758.6" y1="803.03" x2="91.19" y2="432.09" gradientUnits="userSpaceOnUse"><stop offset="0" stop-color="#6d6afe"/><stop offset="1" stop-color="#3fb0f7"/></linearGradient><linearGradient id="linear-gradient-3" x1="392.21" y1="735.9" x2="487.77" y2="538.48" gradientUnits="userSpaceOnUse"><stop offset="0" stop-color="#965cf2"/><stop offset="1" stop-color="#ff8adc"/></linearGradient><linearGradient id="linear-gradient-4" x1="681.03" y1="859.27" x2="751" y2="754.8" xlink:href="#linear-gradient-3"/><linearGradient id="linear-gradient-5" x1="710.88" y1="760.06" x2="667.18" y2="855.27" xlink:href="#linear-gradient"/><linearGradient id="linear-gradient-6" x1="522.53" y1="1124.35" x2="628.25" y2="941.37" xlink:href="#linear-gradient-3"/><linearGradient id="linear-gradient-7" x1="613.95" y1="1156.21" x2="525.96" y2="843.75" gradientUnits="userSpaceOnUse"><stop offset="0" stop-color="#1c8ef4"/><stop offset="1" stop-color="#00cfdd"/></linearGradient><linearGradient id="linear-gradient-8" x1="242.64" y1="746.55" x2="281.88" y2="945.69" gradientUnits="userSpaceOnUse"><stop offset="0" stop-color="#fd70cb"/><stop offset="1" stop-color="#6e4dfd"/></linearGradient><linearGradient id="linear-gradient-9" x1="199.23" y1="907.87" x2="222.4" y2="828.67" xlink:href="#linear-gradient-2"/><linearGradient id="linear-gradient-10" x1="794.72" y1="455.71" x2="853.73" y2="285.7" xlink:href="#linear-gradient-3"/><linearGradient id="linear-gradient-11" x1="912.53" y1="247.17" x2="864.97" y2="429.7" xlink:href="#linear-gradient-2"/><linearGradient id="linear-gradient-12" x1="368.42" y1="369.28" x2="347.4" y2="173.46" xlink:href="#linear-gradient-3"/><linearGradient id="linear-gradient-13" x1="268.67" y1="197.45" x2="278.18" y2="120.93" xlink:href="#linear-gradient-2"/><linearGradient id="linear-gradient-14" x1="162.24" y1="235.99" x2="172.96" y2="189.69" xlink:href="#linear-gradient-2"/></defs><title>01_detection</title><g class="cls-1"><g id="Layer_2" data-name="Layer 2"><g id="Layer_1-2" data-name="Layer 1"><path class="cls-2" d="M823.59,1193.24l-4.59,8.24-16.49-9.17,4.59-8.24,16.49,9.17ZM690.25,138.72l10.89,6.06,4.59-8.24-10.89-6.06-4.59,8.24Zm19.14,10.64,4.59-8.24,16.49,9.17-4.59,8.24-16.49-9.17Zm24.73,13.75,4.59-8.24L755.19,164l-4.59,8.24-16.49-9.17Zm24.73,13.75,4.59-8.24,16.49,9.17L775.33,186l-16.49-9.17Zm24.73,13.75,4.59-8.24,16.49,9.17-4.59,8.24-16.49-9.17Zm24.73,13.75,4.59-8.24,16.49,9.17-4.59,8.24-16.49-9.17ZM833,218.13l4.59-8.24,16.49,9.17-4.59,8.24L833,218.13Zm24.73,13.75,4.59-8.24,16.49,9.17L874.25,241l-16.49-9.17Zm24.73,13.75,4.59-8.24,16.49,9.17L899,254.8l-16.49-9.17Zm24.73,13.75,4.59-8.24,16.49,9.17-4.59,8.24-16.49-9.17Zm24.73,13.75,4.59-8.24L953,274.06l-4.59,8.24-16.49-9.17Zm24.73,13.75,4.59-8.24,16.49,9.17-4.59,8.24-16.49-9.17Zm24.73,13.75L986,292.4l16.49,9.17-4.59,8.24-16.49-9.17Zm24.73,13.75,4.59-8.24,16.49,9.17-4.59,8.24-16.49-9.17Zm24.73,13.75,4.59-8.24,16.49,9.17-4.59,8.24-16.49-9.17Zm24.22,13.67a46.22,46.22,0,0,1,11.76,12.29l7.84-5.25a55.52,55.52,0,0,0-14.2-14.78l-5.4,7.74Zm16,19.88a58.74,58.74,0,0,1,5,16.65v0l9.35-1.25a68.17,68.17,0,0,0-5.79-19.38l-8.54,4Zm5.44,25.22c-.2,5.93-1.58,12.63-2.4,18.2l9.33,1.37c.87-5.91,2.28-12.93,2.49-19.19l-9.42-.37Zm-3.76,27.53,9.33,1.37-2.73,18.67-9.33-1.37,2.73-18.67Zm-4.1,28,9.33,1.37-2.73,18.67-9.33-1.37,2.73-18.67Zm-4.1,28,9.33,1.37-2.73,18.67-9.33-1.37,2.73-18.67Zm-4.1,28,9.33,1.37-2.73,18.67-9.33-1.37,2.73-18.67Zm-4.1,28,9.33,1.37L1063,546.48l-9.33-1.37,2.73-18.67Zm-4.1,28,9.33,1.37-2.73,18.67-9.33-1.37,2.73-18.67Zm-4.1,28,9.33,1.37-2.73,18.67-9.33-1.37,2.73-18.67Zm-4.1,28,9.33,1.37-2.73,18.67-9.33-1.37,2.73-18.67Zm-4.1,28,9.33,1.37-2.73,18.67-9.33-1.37,2.73-18.67Zm-4.1,28,9.33,1.37-2.73,18.67-9.33-1.37,2.73-18.67Zm-4.1,28,9.33,1.37-2.73,18.67L1029,713.1l2.73-18.67Zm-4.1,28,9.33,1.37-2.73,18.67-9.33-1.37,2.73-18.67Zm-4.1,28,9.33,1.37-2.73,18.67-9.33-1.37,2.73-18.67Zm-4.1,28,9.33,1.37-2.73,18.67-9.33-1.37,2.73-18.67Zm-4.1,28,9.33,1.37L1022,826.47l-9.33-1.37,2.73-18.67Zm-4.1,28,9.33,1.37-2.73,18.67-9.33-1.37,2.73-18.67Zm-4.1,28,9.33,1.37-2.73,18.66-9.33-1.37,2.73-18.66Zm-4.1,28,9.33,1.37-2.73,18.66-9.33-1.37,2.73-18.66Zm-4.1,28,9.33,1.37-2.73,18.66-9.33-1.37L999,918.42Zm-4.1,28,9.33,1.37-2.73,18.66-9.33-1.37,2.73-18.66Zm-4.1,28,9.33,1.37-2.73,18.66L988,993.07l2.73-18.66Zm-4.1,28,9.33,1.37-2.73,18.66-9.33-1.37,2.73-18.66Zm-4.1,28,9.33,1.37-2.73,18.66-9.33-1.37,2.73-18.66Zm-4.1,28,9.33,1.37L985,1078.43l-9.33-1.37,2.73-18.66Zm-4.1,28,9.33,1.37-2.73,18.66-9.33-1.37,2.73-18.66Zm-4.1,28,9.33,1.37-2.73,18.66-9.33-1.37,2.73-18.66Zm-4.1,28,9.33,1.37-2.73,18.66-9.33-1.37,2.73-18.66Zm-4.1,28,9.33,1.37-2.73,18.66-9.33-1.37,2.73-18.66Zm-4.1,28,9.33,1.37-2.73,18.66-9.33-1.37,2.73-18.66Zm-4.1,28,9.33,1.37-.63,4.32a40.69,40.69,0,0,1-5.35,15.41l-8-5a31.33,31.33,0,0,0,4-11.82l.63-4.32Zm-9.73,21.79a17.24,17.24,0,0,1-14.15,2.91l-1.92,9.24a26.61,26.61,0,0,0,21.66-4.55l-5.59-7.59Zm-21.61.08-4.57,8.25-16.5-9.17,4.59-8.24,16.48,9.17Zm-24.72-13.75-4.59,8.24-16.49-9.17,4.59-8.24,16.49,9.17Zm-24.73-13.75-4.59,8.24L852,1219.82l4.59-8.24,16.49,9.17ZM848.32,1207l-4.59,8.24-16.49-9.17,4.59-8.24Z"/><path class="cls-3" d="M589.91,21.23c8.57,4.74,13.59,10.29,19.15,18.2-.07-1.38-.13,3.68-.09-4.14s-4.45-20.48,1.68-26.81C613.08,6,624.9,1.35,627.74.62c5.45-1.4,11.77-.45,18.51,3.23,10.26,5.61,19.55,16.53,26.29,29.66s11,35.08,10.95,43,0,2.74-.12,4.07c5.71-1.72,10.83-1.69,19.65,3.18S723,100.68,729.84,114s11.24,29.1,11.28,43.73c0,11.42-2.58,20.49-7,26.76S721,194.6,714.89,196.63c-17.54,6.09-51.35-29.47-69.2-39.57l-56.51-32c-10.21-5.78-19.37-16.79-25.92-29.94s-10.49-28.41-10.35-42.66c.08-8.33-6-20.83,1.87-26.81C567,16.39,580.1,15.81,589.91,21.23Z"/><path class="cls-4" d="M580,25.54c8.57,4.74,13.58,10.29,19.15,18.2-.07-1.38-.13,3.68-.09-4.14s4.28-24.93,11-30.62,16-6.42,26.27-.81,19.55,16.53,26.29,29.66,11,35.08,10.95,43,0,2.74-.12,4.07c5.71-1.71,10.83-1.69,19.65,3.18S713,105,719.92,118.35s11.24,29,11.28,43.73-4.25,25.63-11.16,31.39-16.44,6.28-26.94.34l-57.32-32.44-56.51-32c-10.21-5.78-19.37-16.79-25.92-29.94S542.86,71.05,543,56.8,547.3,32,554,26.31,571.42,20.8,580,25.54Z"/><polygon class="cls-2" points="599.79 96.17 582.22 86.02 609.86 133.89 637.67 118.04 620.11 107.89 620.15 62.82 599.84 51.09 599.79 96.17"/><polygon class="cls-2" points="660.69 115.69 678.26 125.83 650.62 77.97 622.81 93.82 640.38 103.96 640.33 149.04 660.64 160.76 660.69 115.69"/><path class="cls-2" d="M136.32,153.06l4-7.19,14.38,8-4,7.19-14.38-8ZM157.48,826l-10.81-6-4,7.19,10.81,6,4-7.19Zm-18-10-4,7.19-14.38-8,4-7.19,14.38,8Zm-21.57-12-4,7.19-14.38-8,4-7.19,14.38,8ZM96.35,792l-4,7.19-14.38-8L82,784l14.38,8ZM74.79,780l-4,7.19-14.38-8,4-7.19,14.38,8ZM53.22,768l-4,7.19-14.38-8,4-7.19,14.38,8ZM31.66,756l-4,7.19-7.4-4.11A34.24,34.24,0,0,1,13,753.57l5.78-5.85a24.37,24.37,0,0,0,5.44,4.14l7.4,4.12ZM14.26,742A39,39,0,0,1,8.8,728.3L.71,729.8a47.32,47.32,0,0,0,6.6,16.65L14.26,742Zm-6-21c.21-5.22,1.4-10.83,2.14-15.85L2.22,704c-.76,5.19-2,11.26-2.22,16.74l8.22.3Zm3.33-24-8.14-1.19L5.8,679.55l8.14,1.19L11.55,697Zm3.58-24.42L7,671.41l2.39-16.28,8.14,1.19-2.39,16.28Zm3.58-24.42L10.58,647,13,630.72l8.14,1.19-2.39,16.28Zm3.58-24.42-8.14-1.19,2.39-16.28,8.14,1.19-2.39,16.28Zm3.58-24.41-8.14-1.19,2.39-16.28,8.14,1.19-2.39,16.28Zm3.58-24.41-8.14-1.19,2.39-16.28,8.14,1.19-2.39,16.28ZM33,550.53l-8.14-1.19,2.38-16.28,8.14,1.19L33,550.53Zm3.58-24.41-8.14-1.19,2.39-16.28L39,509.84,36.6,526.12Zm3.58-24.41L32,500.51l2.39-16.28,8.14,1.19L40.18,501.7Zm3.58-24.41-8.14-1.19L38,459.82,46.14,461l-2.39,16.28Zm3.58-24.41-8.14-1.19,2.39-16.28,8.14,1.19-2.39,16.28Zm3.58-24.41-8.14-1.19L45.15,411l8.14,1.19-2.38,16.28ZM54.48,404l-8.14-1.19,2.38-16.28,8.14,1.19L54.48,404Zm3.58-24.41-8.14-1.19,2.38-16.28,8.14,1.19-2.38,16.28Zm3.58-24.41L53.5,354l2.38-16.28L64,338.94l-2.38,16.28Zm3.58-24.41-8.14-1.19,2.38-16.28,8.14,1.19L65.21,330.8Zm3.58-24.41-8.14-1.19L63,288.92l8.14,1.19-2.38,16.28ZM72.36,282l-8.14-1.19,2.38-16.28,8.14,1.19L72.36,282Zm3.58-24.41-8.14-1.19,2.38-16.28,8.14,1.19-2.38,16.28Zm3.58-24.41L71.37,232l2.38-16.28,8.14,1.19-2.38,16.28Zm3.58-24.41L75,207.54l2.38-16.28,8.14,1.19-2.38,16.28Zm3.58-24.41-8.14-1.19,2.38-16.28L89,168l-2.38,16.28Zm3.58-24.41-8.14-1.19c.75-5.13,1.25-12,3.44-17.1l7.58,3.19c-1.79,4.13-2.38,11.63-2.89,15.1Zm6.49-20.32a11.09,11.09,0,0,1,11.34-1.9l2.68-7.78a19.25,19.25,0,0,0-19.5,3.54l5.48,6.14Zm18,1.49,4-7.19,14.38,8-4,7.19Z"/><path class="cls-5" d="M776,1289.05,277.92,1013.61c-12.23-5.59-30.19-10.85-42.18-3.55l-30.69,18.69c-6.17,3.76-26.47,16.24-12.89,23.62,39.94,21.72,463.77,258.11,504.33,280.17,7.67,4.17,18.89,5.68,30.67,4.7s23.9-4.15,33.22-9.89l12.26-7.56c8.66-5.34,13.46-11.18,13.92-16.78S783.49,1292.48,776,1289.05Z"/><path class="cls-6" d="M402.39,53c-7.18-4.08-15.6-5.6-23.48-2.62l-17.63,6.89c-6.4,33.13,365.07,1247.51,373.24,1255.94l15.74-5.94c10.33-4.07,15.75-14.82,17.27-25.28L900.37,375.15a.63.63,0,0,0,0-.1c2.16-15.25-2.42-31.13-10.81-43.87-4.51-6.87-10.45-13.16-17.75-17.11Z"/><path class="cls-7" d="M854.44,320.78,385,59.71c-19.15-10.61-37.38-.43-40.76,22.67L211.4,989.21c-3.38,23.09,9.34,50.44,28.49,61.05l469.44,261.07c19.15,10.61,37.42.45,40.8-22.64L883,381.85C886.37,358.76,873.59,331.39,854.44,320.78Z"/><path class="cls-8" d="M854.44,320.78,385,59.71c-19.14-10.61-37.37-.43-40.75,22.67l-6.8,46.44L876.16,428.4,883,381.85C886.37,358.76,873.59,331.39,854.44,320.78Z"/><path class="cls-9" d="M381,124c-6-5-9.66-15.33-8.08-23.12s7.77-10.07,13.81-5.08,9.66,15.34,8.08,23.12S387.09,129,381,124Z"/><path class="cls-9" d="M419.44,147.35c-6-5-9.66-15.33-8.08-23.12s7.77-10.07,13.81-5.09,9.66,15.34,8.08,23.12S425.48,152.33,419.44,147.35Z"/><path class="cls-9" d="M457.83,170.67c-6-5-9.66-15.33-8.08-23.12s7.77-10.07,13.81-5.08,9.66,15.34,8.08,23.12S463.87,175.65,457.83,170.67Z"/><path class="cls-10" d="M826.21,540.76c-2.05-1.14-4.09,0-4.45,2.48a7.08,7.08,0,0,0,3.1,6.75c2.16,1.2,4.16.05,4.53-2.52a7,7,0,0,0-3.18-6.71Zm-534,123.17,3.64,2,38.36-261.82-3.64-2L292.26,663.92Zm42-273.86c-2.05-1.14-4.09,0-4.46,2.56a7.07,7.07,0,0,0,3.1,6.71c2.16,1.19,4.19.06,4.57-2.46a7.1,7.1,0,0,0-3.2-6.81Zm15.54,319.32,3.64,2,38.36-261.86-3.64-2L349.83,709.39ZM391.9,435.51c-2.09-1.16-4.12,0-4.5,2.54a7.07,7.07,0,0,0,3.14,6.73c2.13,1.18,4.16,0,4.53-2.48a7.09,7.09,0,0,0-3.17-6.79Zm26.49,244.3,3.67,2L460.42,420l-3.67-2L418.39,679.81ZM460.53,406c-2.12-1.18-4.16,0-4.53,2.52a7.08,7.08,0,0,0,3.18,6.75c2.05,1.14,4.08,0,4.45-2.52a7.09,7.09,0,0,0-3.1-6.75Zm26.53,244.32,3.56,2L529,390.4l-3.57-2L487.06,650.29Zm42-273.9c-2.13-1.18-4.09,0-4.47,2.6a7,7,0,0,0,3.11,6.67c2.16,1.2,4.12,0,4.48-2.46a7,7,0,0,0-3.13-6.81Zm19.2,294.29,3.63,2,38.36-261.82-3.64-2L548.29,670.68Zm42.07-273.84c-2.09-1.15-4.12,0-4.5,2.54a7.08,7.08,0,0,0,3.14,6.73c2.13,1.17,4.15,0,4.52-2.48a7.1,7.1,0,0,0-3.17-6.8ZM604,728.63l3.68,2,38.36-261.86-3.67-2L604,728.63ZM646.09,454.8c-2.05-1.14-4.08-.05-4.46,2.56a7.05,7.05,0,0,0,3.11,6.66c2.16,1.2,4.16.05,4.52-2.43a7,7,0,0,0-3.17-6.79ZM658,799.06l3.63,2L700,539.25l-3.64-2L658,799.06Zm42.1-273.82c-2.12-1.18-4.16,0-4.53,2.52a7.09,7.09,0,0,0,3.18,6.75c2.09,1.16,4.12,0,4.49-2.5a7.08,7.08,0,0,0-3.14-6.77Zm15.52,318.93,3.6,2L757.56,584.3l-3.6-2L715.59,844.17Zm42.06-273.84c-2.09-1.16-4.08,0-4.45,2.48a7,7,0,0,0,3.09,6.75c2.13,1.17,4.16,0,4.54-2.52a7,7,0,0,0-3.18-6.71Zm26.5,244.26,3.67,2,38.36-261.86-3.67-2Z"/><path class="cls-10" d="M849.11,566.55A6.29,6.29,0,0,0,846.7,564a3.16,3.16,0,0,0-3.49,0c-8.91,6.87-17.06,12.81-24.7,17.94s-14.62,9.45-21.18,13.1c-30.56,16.68-52.7,17.86-74.49,5.77-21.32-12.28-41.89-38.19-68.75-74.62-30-40.77-56.55-68.39-83.25-83.19A113.83,113.83,0,0,0,559,437.31c-30.76-12.67-62-8.27-99.49,12.77-3.89,2.08-7.64,4.32-11.38,6.49-28.82,16.69-55.82,32.3-85,16.15-15.16-8.4-30.89-25.4-47.75-55.31a6.29,6.29,0,0,0-2.39-2.52,3.11,3.11,0,0,0-3.52.09c-1.68,1.37-1.89,4.69-.41,7.31,18.83,33.45,36.24,52.32,52.92,61.57,31.41,17.41,60.22.68,91-17.11,3.81-2.12,7.55-4.28,11.37-6.4,35.72-20.11,65.35-24.44,94.17-12.61a103.66,103.66,0,0,1,10.68,5.17c25.18,14,50.62,40.48,79.63,79.86,27.87,37.71,49.27,64.63,72.42,78l1.33.75c23,12.73,47,11.64,79.47-6q10.09-5.49,21.73-13.37c7.71-5.28,16-11.31,24.93-18.19C850.45,572.52,850.65,569.33,849.11,566.55Z"/><path class="cls-11" d="M844.1,547.31a6.15,6.15,0,0,0-2.41-2.51,3.16,3.16,0,0,0-3.49.07c-8.91,7-17.06,13-24.7,18.28s-14.62,9.65-21.18,13.4c-30.56,17.11-52.7,18.6-74.49,6.81-21.32-12-41.89-37.6-68.75-73.66-30-40.35-56.55-67.6-83.25-82A111.85,111.85,0,0,0,554,422.11c-30.76-12.24-62-7.4-99.49,14.15-3.89,2.13-7.64,4.43-11.38,6.65-28.82,17.09-55.82,33.08-85,17.33-15.16-8.19-30.89-25-47.75-54.64a6.17,6.17,0,0,0-2.39-2.49,3.11,3.11,0,0,0-3.52.14c-1.68,1.4-1.89,4.72-.41,7.31,18.83,33.19,36.24,51.81,52.93,60.83,31.41,17,60.22-.16,91-18.38,3.81-2.17,7.56-4.39,11.37-6.56,35.72-20.61,65.35-25.35,94.17-13.92a101.53,101.53,0,0,1,10.68,5c25.18,13.61,50.62,39.77,79.63,78.74,27.87,37.32,49.27,63.94,72.42,77l1.33.73c23,12.41,47,11,79.47-7.14q10.09-5.63,21.73-13.67c7.71-5.39,16-11.54,24.93-18.54C845.45,553.26,845.64,550.07,844.1,547.31Z"/><path class="cls-12" d="M838.2,544.87c-14.63,11.49-29.72,22.46-45.88,31.68-30.56,17.11-52.7,18.6-74.49,6.81-21.32-12-41.89-37.6-68.75-73.66-23.78-31.94-56.9-72.42-95.1-87.58-41-16.31-75.37-.21-110.88,20.8-28.82,17.09-55.82,33.08-85,17.33-15.16-8.19-30.89-25-47.75-54.64a6.17,6.17,0,0,0-2.39-2.49c4.78,12.29,26.24,48.76,47,60,31.41,17,58.42,2.09,89.17-16.13,34.3-19.53,69.74-37.09,109.36-21.38,36,14.36,70.6,56.37,93,86.46,27.87,37.32,47.92,62.82,71.07,75.85,19.3,10.81,35.46,10.23,52.48,3.88C787.85,585.12,829.14,559.08,838.2,544.87Z"/><path class="cls-13" d="M565.16,610.81,289.22,457.9,250.56,721.74l278.63,154.4c19.52,10.81,38.15.45,41.6-23.09l23.46-180C597.71,649.54,584.68,621.63,565.16,610.81Z"/><path class="cls-14" d="M560.13,666.63l-26.78,182,3.22.39,8.77-3.41c9.62-3.79,14.66-13.8,16.07-23.53l21.42-164.29a.72.72,0,0,0,0-.1c2-14.2-2.25-29-10.06-40.83-4.2-6.39-9.73-12.25-16.52-15.93L204.8,406.09c-6.69-3.8-14.52-5.21-21.86-2.44l-7.73,3c-3.89,1.46-5.1,2.63-5.07,2.87C173.79,443.56,565.25,631.74,560.13,666.63Z"/><path class="cls-15" d="M547.42,604.39,196,409.57c-7.81-4.33-15.46-4.94-21.85-2.45-8.19,3.19-14.32,11.48-16.09,23.55L136.61,595c-3.15,21.5,8.7,47,26.52,56.83L514.59,846.61c17.82,9.88,34.83.42,38-21.07L574,661.24C577.14,639.75,565.24,614.27,547.42,604.39Z"/><path class="cls-16" d="M554,672.89,353.77,562.76a6.08,6.08,0,0,0-5.22-.58c-2,.76-3.42,2.74-3.85,5.63l-1.34,8.1c-.75,5.13,2.08,11.22,6.34,13.58L549.89,699.62c4.26,2.36,8.33.1,9.08-5l1.34-8.1C561.07,681.35,558.22,675.25,554,672.89Z"/><path class="cls-16" d="M546.71,722.46,346.52,612.32a6.09,6.09,0,0,0-5.22-.58c-2,.76-3.42,2.74-3.85,5.63l-1.34,8.1c-.75,5.13,2.08,11.22,6.34,13.58L542.64,749.19c4.26,2.36,8.33.1,9.08-5l1.34-8.1C553.81,730.91,551,724.82,546.71,722.46Z"/><path class="cls-16" d="M418.89,704.27l-79.62-42.39a6.09,6.09,0,0,0-5.22-.58c-2,.76-3.42,2.74-3.85,5.63l-1.34,8.1c-.75,5.14,2.08,11.22,6.34,13.58L414.82,731c4.26,2.36,8.33.1,9.08-5l1.34-8.1C426,712.73,423.15,706.63,418.89,704.27Z"/><path class="cls-17" d="M163.63,512c-6.18,55.44,24.56,123.16,68.75,151.15s86.54-8.06,91.19-49.79-3.16-59.09-15.79-86.61c-7.69,4.24-15.38,8.49-23.06,12.64,8.2,17.69,13.25,29,10.26,55.83s-30.23,50-58.6,32-48.12-61.5-44.16-97.09C182.79,524.06,173.17,518,163.63,512Z"/><path class="cls-18" d="M195,455.78c-16.51,9-28.3,28.41-31.4,56.17,9.55,6.05,19.16,12.11,28.59,18.12,2-17.8,9.51-30.35,20.14-36.1Q203.66,474.92,195,455.78Z"/><path class="cls-19" d="M254.82,462.13c-22.11-14-43.33-15.39-59.79-6.44q8.6,19.18,17.33,38.28c10.63-5.76,24.27-4.88,38.4,4.09S277,522.44,285,540c7.68-4.16,15.36-8.31,23.05-12.56C295.64,500,276.93,476.12,254.82,462.13Z"/><path class="cls-20" d="M684.37,917c-40.49-32.28-64.7-99.34-54.09-149.83s52-65.23,92.51-32.95S787.48,833.59,776.87,884,724.84,949.26,684.37,917Z"/><path class="cls-21" d="M639.26,731c7.36-7.67,25.84-12.07,36.2-12.63,12.08-.65,25.56,4.25,38.92,15.27,35.08,28.91,56.08,89,46.88,134.25-2.73,13.43-7.65,24.17-14.53,31.55-6.42,6.89-27.08,15.58-36.62,16.35C652.93,923.77,617.62,753.58,639.26,731Z"/><path class="cls-22" d="M667.14,901c-35.1-28.93-56.08-89-46.88-134.25s45.09-58.45,80.19-29.52,56.08,89,46.88,134.25S702.22,929.86,667.14,901Z"/><polygon class="cls-2" points="718.75 790.57 728.29 797.4 659.25 863.64 633.3 795.43 646.03 802.73 663.01 826.88 718.75 790.57"/><path class="cls-23" d="M804.35,1052.44,387.61,821.72c-7.58-4.2-15-4.79-21.21-2.38-8,3.1-13.9,11.14-15.62,22.86l-28.9,204.88c-3.06,20.87,8.45,45.58,25.74,55.16l383.5,212.31c4.18-1.58,24.49-5.16,25.63-11.16Z"/><path class="cls-21" d="M831.79,1113.2l-32.54,211.87,3,.36,8.12-3.15c.41-.16.81-.33,1.2-.52l.12,0c8.91-3.51,13.58-12.78,14.88-21.79l27.58-195.49a.8.8,0,0,0,0-.09c1.87-13.15-2.08-26.84-9.32-37.82-3.89-5.92-9-11.35-15.3-14.75l-420.94-233c-6.19-3.52-13.45-4.82-20.25-2.26l-7.16,2.8c-.75.28-1.39.55-1.94.81-3.11,1.24-4.09,2.21-4.07,2.42C378.54,854,836.53,1080.88,831.79,1113.2Z"/><path class="cls-24" d="M820,1055.55l-420.93-233c-7.23-4-14.32-4.57-20.24-2.27-7.59,3-13.26,10.63-14.9,21.81l-27.57,195.5c-2.92,19.91,8.06,43.49,24.56,52.64l420.93,233c16.51,9.15,32.26.39,35.18-19.52l27.57-195.5C847.54,1088.3,836.52,1064.69,820,1055.55Z"/><path class="cls-21" d="M360.6,970.07c4.75-27.6,15.48-36.93,29.2-33.09a29,29,0,0,1,6.52,2.77c13.46,7.67,27.19,27.74,29.28,61.14,1.34,21.15,5.38,40.53,23.1,50.63,46.58,24.94,29.78-122.64,73.88-97.47,38,21.68,15.25,100.06,30,149.71,5.14,17.22,14.39,25.32,20.77,29,26.82,14.3,29.79-30.91,33.28-49.94,16.16-87.92,26.41-92.76,42.77-83.43,17.09,9.92,24.69,16.66,21.53,108.47-1.31,37.55,0,71.17,26.42,87,29.5,16.83,32.09-17.66,45.19-34.47,7.78-10,17.89-12,27.11-6.76,10,5.69,18.92,19.91,22.81,41.86,6.52,36.83,3.52,87.76,1.58,105.54L350,1049.62C353.85,1022.67,356.51,993.93,360.6,970.07Z"/><path class="cls-25" d="M311.81,814,242.72,776,212.8,980.26l69.88,38.36c19.46,10.78,38,.45,41.46-23L340.81,876C344.25,852.58,331.26,824.76,311.81,814Z"/><path class="cls-21" d="M307.24,869.08,286.62,996.27l3.21.39,8.77-3.41c9.62-3.79,14.66-13.8,16.07-23.53l15.27-109.51a.72.72,0,0,0,0-.1c2-14.2-2.25-29-10.06-40.83-4.2-6.39-9.73-12.25-16.52-15.93L168.7,729.43c-6.69-3.8-14.52-5.21-21.86-2.44l-7.73,3c-3.89,1.46-5.1,2.63-5.07,2.87C137.69,766.89,312.36,834.19,307.24,869.08Z"/><path class="cls-2" d="M294.53,806.84,159.86,732.91c-7.81-4.33-15.46-4.94-21.85-2.45-8.19,3.19-14.32,11.48-16.09,23.55L106.66,863.52c-3.15,21.5,8.7,47,26.52,56.83l134.67,73.93c17.82,9.88,34.83.42,38-21.08l15.26-109.52C324.24,842.2,312.34,816.71,294.53,806.84Z"/><path class="cls-26" d="M271,846.68c-1.36,9.33-8.66,13.54-16.37,9.27S241.68,840.53,243,831.2s8.63-13.3,16.48-9,12.79,15.17,11.43,24.43Zm-42.31,82.83c1.36-9.32,8.64-13.36,16.49-9s12.8,15.17,11.43,24.49-8.66,13.54-16.38,9.27-12.91-15.42-11.54-24.74Zm-48.17-79.72c-1.36,9.27-8.77,13.23-16.48,9s-12.79-15.16-11.43-24.43,8.71-13.51,16.37-9.27,12.91,15.42,11.55,24.73Zm80.79-39.4c-13.12-7.28-25.71-.49-28,15.38v1.18l-45.73,7.2c-3.25-8.94-9.27-16.6-16.84-20.79-13.12-7.27-25.53-.32-27.85,15.54-2.3,15.69,6.34,34.44,19.47,41.71,7.56,4.2,14.78,3.69,20-.57l36.89,53.18-.28.85c-2.32,15.86,6.54,34.54,19.66,41.81s25.52.38,27.85-15.49c2.3-15.69-6.48-34.57-19.46-41.77-9.33-5.17-18.27-3.18-23.56,3.91l-34.94-50.92a20.84,20.84,0,0,0,1.78-6.46,28.32,28.32,0,0,0,.27-7.54l43.49-7.44c2.56,11.49,9.63,22.3,19,27.47,13,7.19,25.53.32,27.85-15.55S274.24,817.58,261.27,810.39Z"/><path class="cls-27" d="M919.34,334.88,767.65,256.13l-15.82,7.59L729.59,425.29c-3.29,22.46,9.09,49.06,27.71,59.38l102.35,56.07L877.08,534Z"/><path class="cls-21" d="M1011.53,313.89,972.22,574.42l3.36.41,9.16-3.56c10-4,15.32-14.42,16.79-24.58l33.71-242.06a.57.57,0,0,0,0-.1c2.11-14.83-2.35-30.27-10.51-42.67-4.39-6.68-10.16-12.8-17.26-16.64L828.36,147.1c-7-4-15.18-5.44-22.84-2.55l-8.08,3.16c-4.06,1.53-5.32,2.75-5.3,3C796,186.24,1016.87,277.43,1011.53,313.89Z"/><path class="cls-2" d="M998.25,248.85,819.13,150.73c-8.16-4.52-16.15-5.16-22.83-2.56-8.56,3.33-15,12-16.81,24.61L745.77,414.85c-3.29,22.46,9.09,49.06,27.71,59.38l179.13,98.12c18.62,10.32,36.39.43,39.68-22L1026,308.25C1029.29,285.8,1016.86,259.17,998.25,248.85Z"/><path class="cls-28" d="M998.25,248.85,819.13,150.73c-8.16-4.52-16.15-5.16-22.83-2.56-8.56,3.33-15,12-16.81,24.61L752.64,365.52,999.21,500.59,1026,308.25C1029.29,285.8,1016.86,259.17,998.25,248.85Z"/><path class="cls-29" d="M772.19,397.92c.61-4.5,4-6.48,7.57-4.42l81.07,44c3.57,2.06,6,7.38,5.37,11.88l-1.18,8.9c-.61,4.5-4,6.48-7.57,4.42l-81.07-44c-3.57-2.06-6-7.38-5.37-11.88Z"/><path class="cls-29" d="M767,436.93c.53-4,3.52-5.71,6.67-3.89C819.65,458,895,498.66,941,523.6c3.14,1.81,5.26,6.5,4.73,10.47l-1,7.84c-.54,4-3.52,5.71-6.67,3.89-46-24.94-121.31-65.62-167.28-90.56-3.15-1.81-5.26-6.5-4.73-10.46Z"/><path class="cls-30" d="M970.41,300.33l-21,156.21,40.06,22.57,21-156.21-40.06-22.57ZM856.42,185l-28.11,209.1,40.06,22.57,28.11-209.1L856.42,185Zm55.25,69.64,40.06,22.57L928.47,450.56,888.41,428l23.27-173.31Zm-122.48-50.6,40.06,22.57-21,156.21L768.24,360.3Z"/><path class="cls-31" d="M780.58,265.3c-1.07-1.07-.74-2.87.75-4s3.56-1.2,4.63-.13l36,36.07,18.8,7.2,43.9-11.73,29.74-30.46a3.92,3.92,0,0,1,4.69-.82,2.24,2.24,0,0,1,.63.62L972,323.91l35.95,6.7c1.82-.18,3.18.94,3,2.49a3.9,3.9,0,0,1-3.55,3.14l-37.54-6.54a2.93,2.93,0,0,1-2.67-.9l-51-60.39L888.6,296.64h0a4.3,4.3,0,0,1-2,1.14l-46.27,12.36a3.58,3.58,0,0,1-2.2-.07L818,302.35a2.52,2.52,0,0,1-1.09-.63Z"/><path class="cls-2" d="M780.47,266.13c-1-1.27-.67-3.38.84-4.71s3.58-1.37,4.62-.1L821,304.15l18.6,8.69,44.1-13.26,30.4-35.44c1.31-1.53,3.41-1.93,4.7-.9a2.42,2.42,0,0,1,.62.73l47.85,71.32,41-4.34a2.6,2.6,0,0,1,3,3,4.24,4.24,0,0,1-3.62,3.65l-42.62,4.51a2.66,2.66,0,0,1-2.64-1.09l-46.68-69.56-28.17,32.84h0a4.26,4.26,0,0,1-2,1.32l-46.48,14a3.08,3.08,0,0,1-2.2-.11L817,310.12a2.45,2.45,0,0,1-1.07-.76Z"/><path class="cls-32" d="M327.38,179.05l75.82,34.84c18.09,10.48,23.51,44.33,20.55,66.94l-15.4,113.49c-3,22.6-20.07,32.46-38.17,22l-68.71-41.7,2.72-18.79Z"/><path class="cls-21" d="M136.67,95.51c1-7.61-1.07-12.2,2.7-16.5,2.4-2.74,10-6.26,13.16-7.46,6.14-2.31,13.46-1.59,21,2.76L390.26,201c17.45,10.11,29.31,36,26.45,57.83L401.85,368.32c-.89,6.76-3.4,15.48-9.17,20.46-4.1,3.55-11,7.22-15.81,7.83s-6.28-3.86-11.84-7.08L148.26,262.83c-17.48-10.12-29.32-36-26.46-57.83Z"/><path class="cls-2" d="M130.79,99c2.86-21.81,19.34-31.32,36.82-21.2l216.76,126.7c17.46,10.11,29.32,36,26.46,57.83L396,371.8c-2.86,21.8-19.37,31.31-36.83,21.21L142.39,266.31c-17.48-10.12-29.32-36-26.46-57.83Z"/><path class="cls-33" d="M130.79,99c2.86-21.81,19.34-31.32,36.82-21.21l216.76,126.7c17.45,10.11,29.32,36,26.46,57.83l-1.4,10.28a56.45,56.45,0,0,0-5.85-3.91L129.51,108.48Z"/><path class="cls-34" d="M169.06,166c22.08,5.05,39,31.34,37.87,58.72s-20,45.47-42.08,40.42-39-31.34-37.87-58.71S147,161,169.06,166Z"/><path class="cls-35" d="M168.09,188.88c11.9,2.72,21,16.9,20.42,31.66s-10.78,24.52-22.69,21.8-21-16.9-20.42-31.66,10.78-24.52,22.69-21.79Zm-.53,12.53c-6.32-1.45-11.72,3.74-12,11.58s4.52,15.37,10.85,16.81,11.72-3.74,12-11.58S173.88,202.86,167.56,201.41Z"/><path class="cls-34" d="M220.17,218.72c.76-5.82,5.15-8.29,9.81-5.51l141.55,80.25c4.65,2.78,7.8,9.77,7,15.59l-1.48,11.51c-.76,5.82-5.16,8.29-9.81,5.51L225.73,245.82c-4.65-2.78-7.8-9.77-7-15.59Z"/><path class="cls-34" d="M214.73,261.07c.45-3.44,3-4.9,5.79-3.25l83.58,47.39c2.74,1.64,4.61,5.77,4.16,9.21l-.87,6.8c-.45,3.44-3,4.89-5.79,3.25L218,277.07c-2.75-1.64-4.61-5.77-4.16-9.2Z"/><path class="cls-2" d="M154.44,89.38c4.81,1.1,8.51,6.83,8.26,12.8s-4.36,9.91-9.17,8.81-8.51-6.83-8.26-12.8S149.63,88.28,154.44,89.38Z"/><path class="cls-2" d="M176.36,102c4.81,1.1,8.51,6.83,8.26,12.8s-4.36,9.91-9.17,8.81-8.51-6.83-8.26-12.8S171.55,100.87,176.36,102Z"/><path class="cls-2" d="M200.07,115.79c4.81,1.1,8.51,6.83,8.25,12.8s-4.36,9.91-9.17,8.81-8.51-6.83-8.26-12.8S195.26,114.69,200.07,115.79Z"/></g></g></g></svg>