<svg xmlns="http://www.w3.org/2000/svg" xmlns:xlink="http://www.w3.org/1999/xlink" viewBox="0 0 997.75 1408.81"><defs><style>.cls-1{isolation:isolate;}.cls-2,.cls-38{fill:#6d6afd;}.cls-10,.cls-11,.cls-12,.cls-13,.cls-14,.cls-15,.cls-16,.cls-17,.cls-18,.cls-19,.cls-2,.cls-20,.cls-21,.cls-22,.cls-23,.cls-24,.cls-25,.cls-26,.cls-27,.cls-28,.cls-29,.cls-3,.cls-30,.cls-31,.cls-32,.cls-33,.cls-34,.cls-35,.cls-36,.cls-37,.cls-38,.cls-39,.cls-4,.cls-5,.cls-6,.cls-7,.cls-8,.cls-9{fill-rule:evenodd;}.cls-3{fill:url(#linear-gradient);}.cls-4{fill:#fff;}.cls-5{fill:url(#GradientFill_8);}.cls-6{fill:#1994f0;}.cls-7{fill:url(#linear-gradient-2);}.cls-8{fill:#00edff;}.cls-9{fill:#0d7ae9;}.cls-10{fill:#494cec;}.cls-11{fill:url(#linear-gradient-3);}.cls-12{fill:#aab4ff;}.cls-13,.cls-21{fill:#e23b93;}.cls-14{fill:url(#linear-gradient-4);}.cls-15{fill:#fdbebe;}.cls-16{fill:#fa7bb4;}.cls-17{fill:#9157dd;}.cls-18{fill:#8241d8;}.cls-18,.cls-20{opacity:0.88;}.cls-19{fill:url(#linear-gradient-5);}.cls-20{fill:#ff89db;}.cls-21{opacity:0.3;}.cls-22{fill:#303a7d;}.cls-23{fill:url(#linear-gradient-6);}.cls-24,.cls-27{fill:#9748e3;}.cls-25{fill:#3e4992;}.cls-26{fill:#da7ae3;}.cls-27,.cls-29,.cls-31,.cls-34,.cls-38,.cls-39{opacity:0.5;}.cls-27{mix-blend-mode:multiply;}.cls-28{fill:url(#linear-gradient-7);}.cls-29{fill:url(#linear-gradient-8);}.cls-30{fill:url(#linear-gradient-9);}.cls-31{fill:#3856d8;}.cls-32{fill:aqua;}.cls-33{fill:url(#linear-gradient-10);}.cls-34{fill:url(#linear-gradient-11);}.cls-35{fill:url(#linear-gradient-12);}.cls-36{opacity:0.25;fill:url(#linear-gradient-13);}.cls-37,.cls-39{fill:#5194f9;}</style><linearGradient id="linear-gradient" x1="548.26" y1="179.19" x2="587.17" y2="94.71" gradientUnits="userSpaceOnUse"><stop offset="0" stop-color="#6d6afe"/><stop offset="1" stop-color="#3fb0f7"/></linearGradient><linearGradient id="GradientFill_8" x1="146.45" y1="1213.8" x2="132.63" y2="1242.19" gradientUnits="userSpaceOnUse"><stop offset="0" stop-color="#3964af"/><stop offset="1" stop-color="#00bcce"/></linearGradient><linearGradient id="linear-gradient-2" x1="146.22" y1="1212.45" x2="118.39" y2="1277.71" gradientUnits="userSpaceOnUse"><stop offset="0" stop-color="#1c8ef4"/><stop offset="1" stop-color="#00cfdd"/></linearGradient><linearGradient id="linear-gradient-3" x1="178.94" y1="1310.94" x2="138.22" y2="1249.76" xlink:href="#linear-gradient"/><linearGradient id="linear-gradient-4" x1="827.49" y1="164.69" x2="895.86" y2="221.56" gradientUnits="userSpaceOnUse"><stop offset="0" stop-color="#fa5db1"/><stop offset="1" stop-color="#febfbf"/></linearGradient><linearGradient id="linear-gradient-5" x1="833.73" y1="300.02" x2="858.23" y2="212.15" gradientUnits="userSpaceOnUse"><stop offset="0" stop-color="#965cf2"/><stop offset="1" stop-color="#ff8adc"/></linearGradient><linearGradient id="linear-gradient-6" x1="589.82" y1="1077.39" x2="214.73" y2="-49.45" xlink:href="#linear-gradient-5"/><linearGradient id="linear-gradient-7" x1="477.51" y1="872.58" x2="433.78" y2="1052.73" xlink:href="#linear-gradient"/><linearGradient id="linear-gradient-8" x1="448.41" y1="1046.19" x2="484.21" y2="944.3" xlink:href="#linear-gradient"/><linearGradient id="linear-gradient-9" x1="435.89" y1="1093.51" x2="474.98" y2="1007.82" xlink:href="#linear-gradient"/><linearGradient id="linear-gradient-10" x1="761.46" y1="573.88" x2="740.07" y2="835.76" xlink:href="#linear-gradient-2"/><linearGradient id="linear-gradient-11" x1="154.51" y1="360.83" x2="215.92" y2="285.64" xlink:href="#linear-gradient"/><linearGradient id="linear-gradient-12" x1="169.32" y1="347.76" x2="180.93" y2="316.46" xlink:href="#linear-gradient"/><linearGradient id="linear-gradient-13" x1="223.19" y1="314.2" x2="249.03" y2="273.74" xlink:href="#linear-gradient"/></defs><title>01_performance</title><g class="cls-1"><g id="Layer_2" data-name="Layer 2"><g id="Layer_1-2" data-name="Layer 1"><path class="cls-2" d="M489.41,62.2c11,6,17.45,13.06,24.59,23.15-.09-1.77-.17,4.74-.11-5.32S508.17,53.78,516,45.57c3.12-3.25,18.3-9.31,21.95-10.28,7-1.86,15.11-.72,23.77,3.94,13.18,7.09,25.1,21,33.76,37.79s14.07,44.93,14.06,55.1-.05,3.52-.15,5.23c7.33-2.27,13.91-2.3,25.24,3.87s25.59,21.5,34.44,38.58,14.44,37.25,14.48,56c0,14.66-3.31,26.34-9,34.45S657.77,283.36,649.92,286c-22.53,8-66-37.26-88.87-50l-72.57-40.42c-13.11-7.3-24.87-21.35-33.29-38.16s-13.47-36.36-13.3-54.67c.1-10.7-7.72-26.68,2.4-34.45C460,56.23,476.81,55.34,489.41,62.2Z"/><path class="cls-3" d="M476.67,67.84c11,6,17.45,13.06,24.59,23.15-.09-1.77-.17,4.73-.12-5.32s5.5-32.07,14.15-39.45,20.55-8.43,33.73-1.34,25.1,21,33.76,37.79,14.07,44.93,14.06,55.1-.05,3.52-.15,5.23c7.33-2.27,13.91-2.3,25.24,3.87s25.59,21.5,34.44,38.58,14.44,37.16,14.48,56-5.46,33-14.33,40.43-21.11,8.26-34.59.74l-73.62-41-72.57-40.42c-13.11-7.3-24.87-21.35-33.29-38.16s-13.47-36.36-13.3-54.67,5.54-32,14.11-39.29S465.66,61.85,476.67,67.84Z"/><polygon class="cls-4" points="502.1 158.32 479.53 145.49 515.02 206.66 550.74 185.98 528.18 173.15 528.25 115.27 502.16 100.43 502.1 158.32"/><polygon class="cls-4" points="580.3 182.71 602.87 195.53 567.38 134.37 531.66 155.04 554.22 167.87 554.15 225.76 580.24 240.59 580.3 182.71"/><path class="cls-5" d="M208.18,1268.79a50.16,50.16,0,0,0-8.52-31c-11.13-16.47-29.62-29-47.49-37.35-37.11-17.27-86.1-28.16-96.16,22.2.34-.7.8-1.34,1.2-2,5.27-8.76,14.31-13.27,24-15.46a69.59,69.59,0,0,1,15.8-1.68l1.61,0c15.85.32,32.09,4.92,46.4,11.56,17.79,8.26,35.93,21.41,47,37.82a68.5,68.5,0,0,1,4.58,7.8c3.82,7.69,5.42,15,5,21.58h0Z"/><path class="cls-6" d="M83.17,1289.93c-.54-.36-1.06-.75-1.6-1.11q-3.67-2.51-7.17-5.18c-.59-.45-1.18-.88-1.75-1.34q-4.17-3.25-8.07-6.7c-.79-.7-1.56-1.41-2.33-2.13s-1.79-1.65-2.65-2.49-1.65-1.64-2.46-2.46-1.68-1.71-2.49-2.58c-.62-.66-1.2-1.33-1.8-2q-2.06-2.3-4-4.65c-.51-.63-1-1.26-1.53-1.89-1.68-2.14-3.3-4.31-4.79-6.51-14.33-21.21-16.93-41.18-9.53-56.26l-6.62,13.5c-7.39,15.07-4.8,35,9.53,56.26,1.49,2.21,3.11,4.37,4.79,6.52.5.64,1,1.26,1.54,1.89q1.92,2.35,4,4.64c.34.38.64.77,1,1.15s.55.56.82.85c.81.87,1.65,1.72,2.48,2.57s1.63,1.65,2.46,2.47,1.76,1.66,2.65,2.49c.59.54,1.14,1.1,1.74,1.63.19.17.41.33.6.5q3.89,3.45,8.07,6.7c.22.17.42.36.64.53s.75.53,1.12.8q3.51,2.66,7.18,5.18c.28.19.55.41.83.6l.76.51h0Z"/><path class="cls-7" d="M225.49,1237.45C197,1195.29,133,1164.08,82.42,1167.8s-68.36,40.94-39.88,83.1c9.93,14.7,24.16,28,40.63,39l15.62-13c-12-7.9-22.27-17.48-29.41-28.05-20.13-29.8-7.51-56.09,28.18-58.72s81,19.41,101.09,49.21c7.11,10.53,10.15,20.6,9.53,29.37l30.82,9.5C239.69,1266.05,235.38,1252.08,225.49,1237.45Z"/><path class="cls-8" d="M224,1237.35c9,13.3,11.37,25.44,11.25,36.75-3.69-.69-16.33-3.25-27.07-5.3l30.82,9.5c.69-12.24-3.62-26.21-13.51-40.84-25.13-37.2-77.94-65.83-124.74-69.51C147.18,1172.1,199.14,1200.55,224,1237.35Z"/><path class="cls-9" d="M97.56,1190.2a85.41,85.41,0,0,1,12.61.08c-4.81-.44-9.52-.18-14.1-.18-37.52,0-63.16,44.22-3.08,87.64,0,0-10.12,12-9.82,12.18l15.62-13c-12-7.9-22.27-17.48-29.41-28.05C49.25,1219.12,61.87,1192.83,97.56,1190.2Z"/><path class="cls-10" d="M208.18,1268.79l-6.62,13.51a28.07,28.07,0,0,1-2.76,10.38l6.62-13.51A28,28,0,0,0,208.18,1268.79Z"/><path class="cls-10" d="M229.45,1302.07c-9.08,10.42-22.78,15.55-36.17,17.59-.72.11-1.43.21-2.16.31-22.74,2.93-47.59-2-68.58-9.89a193.4,193.4,0,0,1-39.37-20.16l-6.62,13.5a192.78,192.78,0,0,0,39.37,20.16c.29.11.57.24.86.35,20.81,7.72,45.27,12.4,67.72,9.54,14.13-1.83,28.74-6.9,38.34-17.91a39.56,39.56,0,0,0,5.14-7.48l.45-.89L235,1293.7A40.23,40.23,0,0,1,229.45,1302.07Z"/><path class="cls-11" d="M239,1278.29l-30.82-9.5c-1.17,16.06-14.59,27.65-37.71,29.35s-50-6.88-71.68-21.16l-15.62,13c30.83,20.64,69.53,33,102.44,30.61S237.69,1301.36,239,1278.29Z"/><path class="cls-12" d="M239,1278.29s-1.44,36.49-54.43,40.72c-48.74,3.9-101.39-29.08-101.39-29.08,30.83,20.64,69.53,33,102.44,30.61S237.69,1301.36,239,1278.29Z"/><path class="cls-13" d="M879.44,154.09c-.73.12-1.48.3-2.22.44-34.42,6.6-72,36.47-85.12,69l9.65,13.95a87.85,87.85,0,0,1,12.19-20.81c.87-1.13,1.8-2.23,2.72-3.34,16.27-19.47,40.72-35.58,65.33-42,.48-.13,1-.27,1.44-.38,17.38-4.24,40.86-4.53,51.91,11.44l-9.65-13.95C915.9,154.35,895,151.5,879.44,154.09Z"/><path class="cls-13" d="M954.29,151.15c.3.49.6,1,.88,1.48s.47.89.7,1.34.51,1,.75,1.55.41.94.6,1.42.43,1.05.62,1.59.34,1,.5,1.49.34,1.1.49,1.66.26,1,.38,1.53.27,1.22.39,1.83.19,1,.27,1.56.18,1.27.25,1.91.11,1,.16,1.57c.06.78.1,1.58.13,2.38,0,.48,0,1,0,1.45,0,.9,0,1.81-.06,2.73,0,.4,0,.8,0,1.2-.09,1.48-.25,3-.46,4.52-.05.39-.13.79-.19,1.19q-.27,1.78-.65,3.6c-.11.55-.23,1.1-.36,1.65-.16.71-.35,1.42-.53,2.13s-.35,1.3-.54,2-.44,1.45-.67,2.18-.43,1.33-.66,2-.53,1.47-.81,2.22-.51,1.36-.79,2-.63,1.51-1,2.27c-.4.94-.8,1.88-1.24,2.83q-1.09,2.34-2.3,4.66t-2.52,4.59l9.65,13.95c1.75-3,3.37-6.13,4.82-9.25.23-.49.45-1,.67-1.47s.38-.91.57-1.36c.32-.76.65-1.51,1-2.26s.54-1.38.79-2.06.55-1.47.8-2.2.45-1.35.67-2,.46-1.45.67-2.17.37-1.32.54-2,.37-1.42.53-2.12c.07-.29.15-.58.22-.87s.09-.52.14-.79c.25-1.21.47-2.41.65-3.59.06-.4.13-.79.19-1.19.21-1.53.36-3,.46-4.52,0-.06,0-.13,0-.19,0-.34,0-.67,0-1,0-.92.07-1.83.06-2.73,0-.49,0-1,0-1.45,0-.8-.07-1.59-.13-2.38,0-.21,0-.44,0-.65s-.09-.61-.12-.92q-.11-1-.25-1.91-.12-.79-.27-1.56-.17-.93-.39-1.84c-.06-.27-.11-.55-.17-.82s-.14-.46-.21-.7c-.15-.56-.32-1.12-.5-1.67s-.32-1-.5-1.49-.4-1.07-.62-1.59c-.12-.29-.21-.58-.34-.87s-.18-.37-.27-.55c-.24-.53-.49-1-.75-1.55s-.46-.9-.7-1.34-.58-1-.88-1.48c-.17-.29-.33-.59-.52-.87l-.56-.83-9.65-13.95C953.59,150,953.94,150.58,954.29,151.15Z"/><path class="cls-14" d="M898.7,130.09c-51.41,4.36-110.67,45.62-132.36,92.16a102.3,102.3,0,0,0-4,9.91l29.77-8.59c.47-1.17,1-2.38,1.55-3.63,15.33-32.88,57.2-62,93.53-65.12s53.35,21.08,38,54c-.59,1.27-1.21,2.54-1.86,3.79l24.35,3.14c1.75-3,3.37-6.13,4.82-9.25C974.2,159.93,950.14,125.73,898.7,130.09Z"/><path class="cls-15" d="M923.94,166.37C911.47,148.08,877,150.61,853,162c-29.65,14.07-52.26,37.09-63.12,59.27,0,0-26.88,8.93-27.55,10.9l29.77-8.59c.47-1.17,1-2.38,1.55-3.63,15.33-32.88,57.2-62,93.53-65.12C904.06,153.38,916.7,157.89,923.94,166.37Z"/><path class="cls-16" d="M946.2,212.86s-22.2-1.54-22.86-.29l24.35,3.14c1.75-3,3.37-6.13,4.82-9.25,11.35-24.35,10.15-45.3-.92-59.14C968.89,174.61,948,209.83,946.2,212.86Z"/><path class="cls-17" d="M801.75,237.54c0-.06-8.81-12.77-9.65-14-10.58,24.58-5.72,34.53,10.73,50.6a27.18,27.18,0,0,1-1.92-3.29l-.29-.59C795.74,260,797.64,247.75,801.75,237.54Z"/><path class="cls-18" d="M957.34,229.66l-9.65-13.95c-22.5,38.73-140.7,108.84-182,63.55l9.65,13.95c9.68,14,28.63,21.56,54.5,19.36q4.47-.38,9-1.13c1-.17,2.09-.43,3.14-.63,2.27-.43,4.46-.85,6.71-1.39a159.58,159.58,0,0,0,24.66-8.28c.36-.15.71-.34,1.07-.5,29.44-12.81,57.64-34.43,76.43-61,.58-.82,1.2-1.63,1.75-2.46C954.26,234.72,955.86,232.2,957.34,229.66Z"/><path class="cls-19" d="M923.34,212.57c-16.64,31.29-56.71,58.37-91.67,61.33s-52-19.33-39.57-50.33l-29.77,8.59c-14,41.39,10.13,70.5,57.82,66.46,48-4.07,102.77-40.28,127.54-82.91Z"/><path class="cls-20" d="M820.7,296.53c-77.2,5.54-58.37-64.37-58.37-64.37-14,41.39,10.13,70.5,57.82,66.46,48-4.07,102.77-40.28,127.54-82.91C947.69,215.71,898.55,290.47,820.7,296.53Z"/><path class="cls-21" d="M901.08,1381l-847-486c-6.66-3.19-16.19-5.81-23-2.43C25,895.66,14.78,902,10.28,904.49,6.86,906.37-5,913.22,2.38,917.4c21.75,12.3,829.17,475.91,851.25,488.4,4.18,2.36,10.29,3.31,16.7,2.92a43.44,43.44,0,0,0,18.09-5l10.83-6.07c4.79-2.69,7.33-5.93,7.58-9S905.16,1382.91,901.08,1381Z"/><path class="cls-22" d="M858.85,445.42c34.64,20,61.8,68.24,61.7,106.86L888.72,593l-28.57-5.6c-15.62-27.3-75.72-51.12-61.69-106.86L217.17,162.95,41.63,43.56h0c.75-4.5-4.74-26.68.15-29.64C47.24,10.61,52.63,7.3,58,4.16,71.71-4,89.19,1.06,102,8.47h0Z"/><path class="cls-22" d="M919.07,1331.91c-.06,19.5-7,33.22-18.07,39.68l-15.82,9.52c-65.58-30.82-39.52-444.2-43.61-540.85l18.58-252.88,60.4-35.1Z"/><path class="cls-23" d="M23.83,53.55C23.94,14.3,51.73-1.58,85.92,18.16L842.75,455.11c34.15,19.72,61.8,67.61,61.69,106.86L903,1341.6c-.11,39.25-27.95,55.11-62.1,35.39L84,940c-34.19-19.74-61.81-67.62-61.7-106.86Z"/><path class="cls-24" d="M23.83,53.55C23.94,14.3,51.73-1.58,85.92,18.16L149.3,54.76l-1.8,921.92L84,940c-34.19-19.74-61.81-67.62-61.7-106.86Z"/><path class="cls-25" d="M25.12,40C31,10.89,56,.89,85.92,18.16L842.75,455.11c29.88,17.26,54.78,56.08,60.47,91.8Z"/><path class="cls-22" d="M122.71,64.77c-5.1-2.94-9.24-.58-9.26,5.28s4.1,13,9.2,15.94,9.24.58,9.26-5.28S127.81,67.71,122.71,64.77Z"/><path class="cls-22" d="M92.22,44.87c-5.1-2.94-9.24-.58-9.26,5.28s4.1,13,9.2,15.94,9.24.58,9.26-5.28S97.32,47.81,92.22,44.87Z"/><path class="cls-22" d="M64.3,28.18c-5.1-2.95-9.24-.58-9.26,5.28s4.1,13,9.2,15.94,9.24.58,9.26-5.28S69.39,31.12,64.3,28.18Z"/><path class="cls-26" d="M88.84,221.33c-27-15.62-50.58-52.46-52.65-82.31s18.15-41.38,45.16-25.76,50.58,52.47,52.64,82.31-18.16,41.37-45.16,25.76Zm-.59-8.5c22.75,13.16,39.8,3.45,38.06-21.71s-21.61-56.21-44.37-69.37-39.8-3.43-38.06,21.71S65.48,199.67,88.25,212.83Z"/><path class="cls-27" d="M28.05,614.9c.05-19.3,6.75-33,17.57-39.68,11.39-7,27.41-6.27,45.12,4l743.59,422.41c34.47,19.91,62.39,68.25,62.28,107.87l-1.49,224.19c-.11,39.62-28.21,55.63-62.69,35.72L88.84,947C54.32,927,26.45,878.71,26.56,839.1Z"/><path class="cls-22" d="M47.71,600.47c.05-18.83-6.1-18.57,1.8-28.12,1.8-2.18,19.63-12.88,22-13.62,10.34-3.24,23.33-1.26,37.4,6.87L826.22,977.17c33.65,19.43,60.89,66.62,60.78,105.29l-1.45,218.81c0,15-4.22,26.59-11.28,34-11.1,11.57-30.9,24.89-51.47,13L107,924.57c-33.69-19.45-60.9-66.62-60.79-105.28Z"/><path class="cls-28" d="M38.08,606.65c.05-18.83,6.59-32.22,17.14-38.72,11.12-6.85,26.75-6.12,44,3.86L816.59,983.35c33.65,19.43,60.89,66.61,60.78,105.29l-1.45,218.82c-.11,38.67-27.53,54.29-61.19,34.87L97.42,930.75c-33.69-19.45-60.89-66.62-60.79-105.28Z"/><path class="cls-29" d="M876.21,1074l.21,158.71-.49,74.72c0,14.65-4,26-10.74,33.36L46.29,869.13c-6.15-14.52-9.7-29.65-9.66-43.67L37.28,727c20.23,24.17,39.89,46.23,63.4,59.76a103.47,103.47,0,0,0,25.49,10.61c38.86,9.89,87.8-50.75,146.07-26.56a84.79,84.79,0,0,1,9.12,4.54c25.37,14.62,45.36,42.74,66.41,71.56s43.08,58,72.57,75c2.18,1.27,4.41,2.46,6.68,3.57,67.13,33.17,85.41-35.68,135.09-8.62,1,.53,1.93,1.06,2.87,1.6,22.48,13,34.34,29.33,47.6,46.59s27.75,35.07,55.45,51q3.15,1.82,6.54,3.6c49.88,26.27,78.16-42,145.13-34.48C847.8,1003.09,870.87,1040,876.21,1074Z"/><path class="cls-30" d="M873.35,1071.28l2.66,1.55.2,1.19.21,158.64-.49,74.79c-.11,38.67-27.53,54.29-61.19,34.87L97.42,930.75c-33.69-19.45-60.89-66.62-60.79-105.28L37,775.64c23.55,25.54,47.47,49.82,75.57,66a157.66,157.66,0,0,0,14.67,7.5c57.68,25.47,86.71-44.95,145-18.94a85.19,85.19,0,0,1,7.75,4c26.1,15,47.43,44.37,69.78,74.35s45.7,60.39,75.92,77.8q2.83,1.63,5.72,3.1c67.12,34.21,84.36-38.76,130.72-19.33a63.2,63.2,0,0,1,6.87,3.41c19.34,11.15,30,31.18,43,52.51s28.22,44,56.67,60.38c1.17.66,2.35,1.32,3.56,2C733.22,1120.94,764.47,1008.57,873.35,1071.28Z"/><path class="cls-31" d="M36.84,815.3c11.8,13.57,23.72,26.81,36.21,38.82s25.52,22.74,39.63,31.33c2.41,1.46,4.82,2.85,7.23,4.15s5,2.6,7.43,3.76c28.67,13.35,50.28,1.53,71.93-10.33,21.86-12,43.75-23.95,73.05-10.15,1.32.63,2.62,1.28,3.85,1.94s2.66,1.48,3.91,2.24c25.26,15.37,46.05,44.92,67.6,75.56l2.25,3.2c11.16,15.81,22.59,31.8,35,46.1s25.77,27,40.87,36.16l2.85,1.68,2.87,1.59c37.28,20.06,59.16,5,79.18-8.74,16-11,30.9-21.24,51.53-12.13,1.24.56,2.42,1.13,3.53,1.71s2.29,1.24,3.36,1.9c17.45,10.64,27.89,29,39.31,49l3.83,6.69c6.45,11.28,13.5,22.89,22.47,33.86a133.14,133.14,0,0,0,34.11,29.91l3.55,2.08c25.79,14.56,46.27,1.56,69.57-13.23,31.78-20.14,68.77-43.61,131.58-5.4l2.77,1.74v12.82l-2.89-1.82c-62.68-38.13-99.62-14.7-131.33,5.42-23.36,14.82-43.9,27.84-69.82,13.21l-3.55-2.07a133.45,133.45,0,0,1-34.21-30c-9-11-16.09-22.68-22.58-34l-3.82-6.69c-11.37-20-21.74-38.19-39.11-48.77-1.1-.67-2.23-1.31-3.34-1.89s-2.36-1.18-3.5-1.7c-20.54-9.07-35.35,1.1-51.32,12.07-20.09,13.81-42,28.89-79.41,8.78l-2.88-1.58-2.85-1.68c-15.12-9.2-28.54-21.9-41-36.26s-23.87-30.36-35-46.16l-2.26-3.21c-21.51-30.58-42.26-60.08-67.44-75.39q-2-1.2-3.89-2.24t-3.84-2c-29.18-13.73-51.05-1.77-72.86,10.16S156,919.51,127.26,906.11c-2.55-1.2-5-2.46-7.44-3.76s-4.9-2.73-7.25-4.17c-14.12-8.59-27.21-19.36-39.7-31.37S48.5,841.57,36.66,828l0-.91Z"/><path class="cls-32" d="M36.84,810.83c11.8,12.82,23.72,25.33,36.21,36.69s25.52,21.5,39.63,29.62q3.61,2.08,7.23,3.95c2.48,1.26,5,2.45,7.43,3.55,28.67,12.66,50.28,1.58,71.93-9.54,21.86-11.22,43.75-22.47,73.05-9.39,1.32.59,2.62,1.21,3.85,1.84s2.66,1.39,3.91,2.12c25.26,14.56,46.05,42.47,67.6,71.39l2.25,3c11.16,14.93,22.59,30,35,43.54s25.77,25.49,40.87,34.19l2.85,1.58,2.87,1.51c37.28,19,59.16,4.9,79.18-8,16-10.35,30.9-19.94,51.53-11.3,1.24.53,2.42,1.07,3.53,1.62s2.29,1.18,3.36,1.78c17.45,10.08,27.89,27.37,39.31,46.32l3.83,6.31c6.45,10.65,13.5,21.62,22.47,32a131.36,131.36,0,0,0,34.11,28.27l3.55,2c25.79,13.78,46.27,1.58,69.57-12.29,31.78-18.92,68.77-40.93,131.58-4.76l2.74,1.63,0,12.08-2.87-1.7c-62.68-36.1-99.62-14.11-131.33,4.78-23.36,13.91-43.9,26.13-69.82,12.28l-3.55-2a131.69,131.69,0,0,1-34.21-28.38c-9-10.39-16.09-21.42-22.58-32.13l-3.82-6.32c-11.37-18.85-21.74-36-39.11-46.07-1.1-.63-2.23-1.23-3.34-1.77s-2.36-1.14-3.5-1.63c-20.54-8.6-35.35,1-51.32,11.26-20.09,13-42,27.12-79.41,8.07l-2.88-1.52-2.85-1.59c-15.12-8.71-28.54-20.71-41-34.28s-23.87-28.67-35-43.59l-2.26-3c-21.51-28.88-42.26-56.75-67.44-71.25-1.31-.75-2.61-1.47-3.89-2.12s-2.59-1.29-3.84-1.85c-29.18-13-51.05-1.79-72.86,9.4s-43.33,22.25-72.12,9.54c-2.55-1.13-5-2.33-7.44-3.56s-4.9-2.58-7.25-3.94c-14.12-8.14-27.21-18.32-39.7-29.68s-24.4-23.86-36.23-36.71V821Z"/><path class="cls-4" d="M276,875.17c2.71-1.62,4.25-4.69,4.27-9.33a29.55,29.55,0,0,0-4.21-14.41c-2.69-4.45-6.36-8.61-10.23-10.85-4-2.34-7.73-2.41-10.43-1.09-2.71,1.54-4.31,4.84-4.32,9.5s1.57,9.51,4.25,14.24a29.8,29.8,0,0,0,10.41,10.88c3.87,2.22,7.55,2.59,10.25,1.06Zm-10.17-28.6c5.21,3,9.25,10.27,9.23,16.26s-4.07,8.49-9.28,5.51c-5.41-3.11-9.5-10.36-9.49-16.34s4.15-8.54,9.54-5.43Zm13.68,3c3.49,6,5.62,12.76,5.6,19,0,6-2.17,10.53-5.68,12.45s-8.48,1.6-13.7-1.41c-5.39-3.11-10.23-8.38-13.9-14.52a39,39,0,0,1-5.52-18.92c0-6.27,2.11-10.56,5.62-12.56,3.69-2.11,8.53-1.7,13.94,1.4C271.1,838.1,275.94,843.28,279.54,849.6Z"/><path class="cls-4" d="M553.56,989.65c5.22,3,9.43,10.31,9.41,16.3s-4.26,8.4-9.46,5.39-9.43-10.31-9.41-16.3,4.27-8.4,9.47-5.4Zm10.18,28.52c2.71-1.54,4.25-4.89,4.26-9.32a29.65,29.65,0,0,0-4.19-14.42c-2.51-4.33-6.17-8.49-10.23-10.84s-7.73-2.41-10.25-1c-2.71,1.55-4.25,4.89-4.27,9.54a29.43,29.43,0,0,0,4.21,14.21,28.18,28.18,0,0,0,10.21,10.77c4.06,2.34,7.72,2.7,10.25,1Zm3.57-25.53a38.27,38.27,0,0,0-13.71-14.54c-5.4-3.12-10.24-3.51-13.75-1.3-3.44,2-5.6,6.35-5.62,12.55,0,6,2.11,12.79,5.53,18.92s8.32,11.3,13.72,14.41,10.24,3.45,13.74,1.45c3.45-2.18,5.61-6.5,5.62-12.49C572.86,1005.45,570.73,998.64,567.31,992.64Z"/><path class="cls-4" d="M586.83,958.41a28.79,28.79,0,0,1,3.83,14c0,4.72-1.56,8-4.46,9.72-2.7,1.53-6.2,1.28-10.43-1.16a28.27,28.27,0,0,1-9.5-9.07,32.05,32.05,0,0,1-5.18-12.95l8.7,5a15.54,15.54,0,0,0,2.7,5.09,12.19,12.19,0,0,0,3.47,3.14c1.91,1.09,3.45,1.28,4.62.4,1.35-.77,2-2.18,2-4.57a13.18,13.18,0,0,0-1.77-6.59,11.26,11.26,0,0,0-4.21-4.7,5.13,5.13,0,0,0-2.7-.85,4.38,4.38,0,0,0-2.53.94l-6.74-5.66,5.3-24.46,20.27,11.72V947l-14.1-8.13L574.27,947l1.35.5,1.35.56a27.5,27.5,0,0,1,9.86,10.35Zm-39.6-25.75a4.29,4.29,0,0,0,1.61-3.72,12.61,12.61,0,0,0-1.59-5.79,11,11,0,0,0-3.85-4.21c-1.53-.88-2.89-1-3.87-.25s-1.72,1.89-1.72,3.87a12.3,12.3,0,0,0,1.51,5.54,11.51,11.51,0,0,0,4,4.37c1.6.92,3,1,3.86.19Zm-4-22.7a27.36,27.36,0,0,1,9.85,10.35c2.5,4.55,3.84,8.85,3.83,13.07a12.58,12.58,0,0,1-.62,4.1,24.37,24.37,0,0,1-2.91,5.65l-11,18.53-7-8,7.6-12.48c-3.68-2.12-6.75-5.44-9.44-9.89a28.08,28.08,0,0,1-3.82-13.57c0-4.23,1.36-7.18,4.06-8.51C536.51,907.62,539.57,907.85,543.25,910Z"/><path class="cls-4" d="M824.33,1078.18c5.21,3,9.43,10.37,9.42,16.34s-4.27,8.43-9.48,5.42-9.49-10.35-9.47-16.34,4.32-8.44,9.53-5.42Zm10.17,28.57c2.71-1.6,4.25-4.67,4.26-9.31a29.12,29.12,0,0,0-4.19-14.43c-2.5-4.34-6.17-8.51-10.23-10.84s-7.72-2.42-10.24-1c-2.71,1.55-4.5,4.68-4.52,9.39s1.75,9.63,4.44,14.35a28.33,28.33,0,0,0,10.24,10.78c4,2.32,7.72,2.69,10.24,1Zm3.52-25.56a37.89,37.89,0,0,0-13.66-14.51c-5.4-3.12-10.25-3.51-13.76-1.3-3.44,2-5.78,6.18-5.8,12.44,0,6,2.29,13.11,5.72,19s8.31,11.3,13.71,14.42,10.25,3.45,13.69,1.41,5.67-6.47,5.69-12.46C843.63,1094,841.51,1087.23,838,1081.19Z"/><path class="cls-27" d="M520.68,492.06c.05-19.17,6.71-32.8,17.45-39.42,11.32-7,27.23-6.23,44.82,3.93L914.83,646.92l5,259.24.08,31.51-16.09,14L581.07,766.63c-34.29-19.8-62-67.81-61.88-107.17Z"/><path class="cls-27" d="M35.58,191.1c.05-19.24,6.73-32.92,17.52-39.56,11.36-7,27.33-6.25,45,3.94L453.27,359.21c34.37,19.85,62.21,68.06,62.1,107.57l-1.48,168c-.11,39.5-28.13,55.47-62.51,35.62L96.19,466.68C61.77,446.81,34,398.62,34.09,359.12Z"/><path class="cls-22" d="M528.12,459.21c.05-18.83-6.1-18.57,1.8-28.12,1.8-2.18,19.62-12.88,22-13.62,10.34-3.24,23.33-1.26,37.4,6.88L937,623.76c33.65,19.43,60.89,66.62,60.78,105.29L996.3,893.5c0,15-4.22,26.59-11.28,34-11.1,11.57-30.9,24.89-51.47,13L587.45,729c-33.69-19.45-60.9-66.62-60.79-105.29Z"/><path class="cls-33" d="M518.49,465.39c.05-18.83,6.59-32.22,17.14-38.72,11.12-6.85,26.75-6.12,44,3.86L927.34,629.94c33.65,19.43,60.89,66.62,60.78,105.29l-1.45,164.45c-.11,38.67-27.53,54.3-61.19,34.87L577.82,735.13c-33.69-19.45-60.89-66.62-60.79-105.28Z"/><path class="cls-31" d="M554.13,715.94l.41-150.55-4.08-3.08-.41,149.08q2,2.33,4.08,4.55Zm-1.6-165.62c-2.34-1.77-4.28-1.06-4.3,1.61s1.92,6.25,4.26,8,4.33,1.09,4.34-1.53a11.57,11.57,0,0,0-4.3-8.09Zm68.29,209.47.62-209.06-4.12-3.1-.62,209.8,4.12,2.36ZM619.48,535.7c-2.38-1.79-4.33-1.09-4.34,1.58s1.92,6.26,4.3,8.05,4.24,1,4.26-1.6a11.53,11.53,0,0,0-4.22-8ZM687.5,798l.82-262-4-3-.82,262.69,4,2.29Zm-1.15-277c-2.38-1.8-4.25-1-4.26,1.68a11.32,11.32,0,0,0,4.22,7.94c2.42,1.82,4.29,1.06,4.3-1.52a11.38,11.38,0,0,0-4.26-8.1Zm67.89,315.28.82-262.94L751,570.31,750.15,834l4.08,2.34Zm-1.18-278c-2.34-1.76-4.29-1.05-4.3,1.61s1.92,6.25,4.26,8,4.32,1.08,4.33-1.53a11.55,11.55,0,0,0-4.3-8.1Zm67.88,316.26.68-225-4.12-3.1-.68,225.74,4.12,2.36Zm-1.37-240c-2.3-1.74-4.25-1.08-4.26,1.64s1.92,6.21,4.22,7.94,4.33,1.09,4.34-1.49a11.38,11.38,0,0,0-4.3-8.09Zm68,278.27.49-174L884,735.68l-.5,174.78,4.08,2.34ZM886.1,723.71c-2.38-1.79-4.33-1.08-4.34,1.58s1.92,6.25,4.3,8.05,4.29,1.05,4.3-1.56a11.54,11.54,0,0,0-4.26-8.06Zm68.11,219.15.38-141.32-4-3-.39,144.29a38.63,38.63,0,0,0,4,.07Zm-1.58-156.31c-2.34-1.77-4.25-1.07-4.26,1.55a11.44,11.44,0,0,0,4.22,8c2.39,1.8,4.33,1.09,4.35-1.57S955,788.36,952.62,786.56Z"/><path class="cls-31" d="M972.66,737.42a8.53,8.53,0,0,0-2.14-2.48c-1-.76-2-1-2.69-.63-6.13,3.84-11.77,7.07-17.11,9.75a121.75,121.75,0,0,1-14.93,6.54c-21.78,7.66-38.76,4.49-56.92-9.22C861,727.61,842.28,703.09,817.51,669,789.81,630.82,766.28,603.83,744,587q-4.93-3.72-9.79-6.77c-25.17-15.84-48.85-18.12-75.47-8.27-2.78.94-5.43,2-8.08,3.07-20.43,8-39.58,15.45-63.87-2.87-12.64-9.53-26.67-26-43-53.07a8.53,8.53,0,0,0-2.12-2.46c-1-.76-2-1-2.71-.58-1.15.78-.94,3.4.49,5.76,18.24,30.23,33.77,48.54,47.68,59,26.19,19.74,46.61,11.72,68.41,3.21,2.71-1,5.37-2,8.08-3,25.39-9.44,47.81-7.4,71.38,7.41q4.37,2.76,8.82,6.11c21,15.83,43.57,41.75,70.33,78.6,25.69,35.31,45.19,60.8,64.55,75.77l1.11.85c19.14,14.43,37.59,18,60.75,9.93a127.89,127.89,0,0,0,15.32-6.65c5.37-2.79,11.13-6.07,17.26-9.91C974.35,742.44,974.15,739.93,972.66,737.42Z"/><path class="cls-32" d="M966.67,721.11a8.39,8.39,0,0,0-2.14-2.45c-1-.74-2-1-2.69-.59-6.11,3.94-11.74,7.26-17.07,10a122.87,122.87,0,0,1-14.9,6.77c-21.73,8-38.67,5.08-56.81-8.39-17.8-13.54-36.52-37.83-61.24-71.64-27.66-37.83-51.15-64.52-73.37-81q-4.92-3.65-9.77-6.64c-25.12-15.5-48.76-17.44-75.32-7.16-2.77,1-5.41,2.12-8.06,3.2-20.39,8.31-39.49,16.07-63.74-1.92-12.61-9.36-26.62-25.69-42.92-52.54a8.38,8.38,0,0,0-2.12-2.43c-1-.75-2-1-2.71-.54-1.14.8-.94,3.42.49,5.77,18.21,30,33.72,48.14,47.6,58.44,26.14,19.39,46.51,11,68.27,2.2,2.71-1,5.35-2.1,8.06-3.13,25.33-9.84,47.71-8.13,71.24,6.36q4.37,2.7,8.81,6c21,15.55,43.49,41.18,70.21,77.71,25.65,35,45.12,60.25,64.44,75l1.11.83c19.1,14.18,37.52,17.5,60.62,9a129.36,129.36,0,0,0,15.28-6.89c5.36-2.88,11.11-6.25,17.22-10.19C968.36,726.12,968.16,723.61,966.67,721.11Z"/><path class="cls-22" d="M41.4,167.69c.05-18.65-4-22.78,4.39-31.75,3.23-3.45,18.76-9.67,22.27-10.38,9.68-2,21.36.36,33.92,7.61L446.22,330.61c33.31,19.24,60.29,66,60.18,104.25L505,597.69c0,16-4.8,28-12.74,35.14-6,5.46-19.86,12.76-28.93,12.23-7.58-.44-10.07-7.74-18.91-12.85L100.15,434.77c-33.36-19.26-60.3-66-60.19-104.25Z"/><path class="cls-4" d="M31.22,172.48c.05-18.65,6.52-31.9,17-38.34,11-6.78,26.49-6.06,43.6,3.82L436,335.41c33.31,19.24,60.29,66,60.18,104.25l-1.44,162.83c-.11,38.28-27.26,53.76-60.58,34.52L90,439.56c-33.36-19.26-60.3-66-60.19-104.25Z"/><path class="cls-34" d="M173.66,199.83l-.16,54c-40.29-23.27-73.12-4.6-73.25,41.81S132.73,398.47,173,421.73s73.21,4.65,73.34-41.69c0-2.07-.08-4.24-.21-6.42l46.95,23c.18,3.48.27,7.06.26,10.54-.21,76.19-54.19,106.84-120.49,68.56S53,344.74,53.26,268.55,107.35,161.54,173.66,199.83Z"/><path class="cls-35" d="M206.06,353.17a34.9,34.9,0,0,1,4.73,17.2c0,6-1.84,9.93-5.3,12s-7.95,1.61-12.91-1.26a35.36,35.36,0,0,1-11.79-11.37,40.17,40.17,0,0,1-6.35-15.84l10.67,6.16a23.48,23.48,0,0,0,3.21,6.19,15.78,15.78,0,0,0,4.48,4c2.22,1.29,4.06,1.42,5.68.5s2.37-2.86,2.37-5.64a16.48,16.48,0,0,0-2.24-8.3,14.35,14.35,0,0,0-5.25-5.74,6.74,6.74,0,0,0-3.26-.91,7.1,7.1,0,0,0-3.17,1.07l-8.22-6.82,6.51-30.26,24.85,14.35,0,10.74-17.25-10-2.29,9.88a12,12,0,0,1,1.84.62,11.77,11.77,0,0,1,1.65.84,32.8,32.8,0,0,1,12,12.55Zm-48.69-31.53c1.29-.89,1.91-2.38,1.92-4.72a13.41,13.41,0,0,0-2-7.14,12.7,12.7,0,0,0-4.64-5.12c-1.84-1.06-3.48-1.2-4.81-.44s-2,2.46-2,4.79a14,14,0,0,0,1.92,7,13.82,13.82,0,0,0,5,5.22c1.8,1,3.45,1.17,4.68.36Zm-4.83-27.9a32.62,32.62,0,0,1,12,12.66c3.15,5.68,4.75,11,4.74,15.9a22.19,22.19,0,0,1-.73,5.33,44.46,44.46,0,0,1-3.47,6.75L151.25,357.3l-8.62-10,9.4-15.38a32,32,0,0,1-11.56-12.17,33,33,0,0,1-4.64-16.55c0-5.37,1.64-8.89,4.91-10.75S147.86,291,152.53,293.74Z"/><path class="cls-36" d="M173.66,199.83C237,236.4,288.73,322.59,293.11,396.64l-46.95-23c-2.71-45.16-34.07-97.48-72.66-119.75Z"/><path class="cls-2" d="M398,577c1.58-2.23,2.46-6.89,2.48-14.2s-.71-12.89-2.13-16.52-3.35-6.14-5.61-7.44a4.86,4.86,0,0,0-4.19-.71c-1.22.49-2.18,2-2.84,4.41s-.94,6.33-1,11.83c0,7.1.71,12.48,2.19,16s3.38,6,5.69,7.36,4,1,5.36-.77Zm-39.4-26.85L353,553.63l17.5,10.11,0,9.9-34-19.61v-5.16l15.21-9q5.5-3.14,7.34-6a10.93,10.93,0,0,0,1.89-6,13.94,13.94,0,0,0-6.73-11.3c-2-1.19-3.66-1.26-5.06-.36s-2.06,2.81-2.19,5.75L338,516.7c.28-6,2-9.83,5.09-11.5s7-1.2,11.81,1.56a29,29,0,0,1,7.84,6.68,35.36,35.36,0,0,1,5.51,9.41,28,28,0,0,1,2,9.58,18,18,0,0,1-2.56,9.3c-1.68,2.93-4.69,5.71-9.1,8.43Zm49-.66a70.12,70.12,0,0,1,2.12,18.57c0,7.51-.81,12.91-2.22,16.27s-3.38,5.27-5.82,5.8-5.45-.24-9.19-2.4a30.11,30.11,0,0,1-9.26-8.26A39.15,39.15,0,0,1,377.37,567a66.23,66.23,0,0,1-2.09-18.31c0-10.35,1.45-16.95,4.25-20.09,3.11-3.27,7.42-3.34,13-.15a30.4,30.4,0,0,1,9.17,8.31A39.38,39.38,0,0,1,407.61,549.49Z"/><path class="cls-37" d="M337.55,388.29l0-10,32.19,18.59,0,5.56-22.31,39.28-7.75-8.78,18.46-32.75-20.6-11.89Zm64.72,52.21a32,32,0,0,1,4.39,15.91c0,5.46-1.63,9.18-4.91,11.05s-7.24,1.43-11.9-1.26a31.64,31.64,0,0,1-10.75-10.31,37.41,37.41,0,0,1-5.88-14.72l9.84,5.68a17.28,17.28,0,0,0,3,5.73,13,13,0,0,0,4,3.71c2.05,1.18,3.84,1.36,5.24.43s2.18-2.61,2.19-5.31a15.72,15.72,0,0,0-1.94-7.49,13.59,13.59,0,0,0-4.87-5.27,6,6,0,0,0-3-.88,5.51,5.51,0,0,0-3,1l-7.57-6.42,6.09-27.72,22.92,13.23,0,9.77-16-9.23-2,9.32a7.06,7.06,0,0,1,1.58.46,12.16,12.16,0,0,1,1.61.83A30.17,30.17,0,0,1,402.27,440.5Z"/><path class="cls-38" d="M427.82,508.91a6.93,6.93,0,0,1,3.17,5.52l0,6.86c0,2-1.41,2.85-3.19,1.82l-98.59-56.49a6.94,6.94,0,0,1-3.17-5.49l0-6.87c0-2,1.44-2.86,3.19-1.85Z"/><path class="cls-39" d="M428.08,396.17a7.11,7.11,0,0,1,3.16,5.59l0,6.8c0,2-1.41,3-3.19,1.92L329.45,354a7.12,7.12,0,0,1-3.17-5.59l0-6.8c0-2,1.44-2.93,3.19-1.92Z"/><path class="cls-37" d="M313,326.82c5.11,2.94,9.24,10,9.22,15.74,0,5.86-4.18,8.23-9.28,5.29-4.95-2.86-9-10-9-15.85C303.93,326.3,308,324,313,326.82Z"/><path class="cls-2" d="M312.72,439.15c5.25,3,9.5,10.39,9.49,16.37s-4.3,8.29-9.55,5.26c-5.09-2.95-9.29-10.1-9.27-16.13S307.63,436.21,312.72,439.15Z"/></g></g></g></svg>