<svg xmlns="http://www.w3.org/2000/svg" xmlns:xlink="http://www.w3.org/1999/xlink" viewBox="0 0 1203.9 1568.94"><defs><style>.cls-1{isolation:isolate;}.cls-2{fill:#6d6afd;}.cls-10,.cls-11,.cls-12,.cls-13,.cls-14,.cls-15,.cls-16,.cls-17,.cls-18,.cls-19,.cls-2,.cls-20,.cls-21,.cls-22,.cls-23,.cls-3,.cls-4,.cls-5,.cls-6,.cls-7,.cls-8,.cls-9{fill-rule:evenodd;}.cls-14,.cls-19,.cls-2,.cls-22,.cls-6,.cls-9{opacity:0.5;}.cls-3{fill:#d0e7ff;}.cls-4{fill:url(#linear-gradient);}.cls-12,.cls-13,.cls-5,.cls-6{fill:#fff;}.cls-7{fill:url(#linear-gradient-2);}.cls-8{fill:url(#linear-gradient-3);}.cls-9{fill:#3856d8;}.cls-10{fill:aqua;}.cls-11{fill:url(#linear-gradient-4);}.cls-12{opacity:0.2;}.cls-13{opacity:0.35;}.cls-14{fill:url(#linear-gradient-5);}.cls-15{fill:url(#linear-gradient-6);}.cls-16{fill:url(#linear-gradient-7);}.cls-17{fill:#1c8df3;}.cls-18{fill:#00cedc;}.cls-19,.cls-22{mix-blend-mode:multiply;}.cls-19{fill:url(#GradientFill_11);}.cls-20{fill:url(#linear-gradient-8);}.cls-21{fill:url(#linear-gradient-9);}.cls-22{fill:url(#GradientFill_11-2);}.cls-23{fill:url(#linear-gradient-10);}</style><linearGradient id="linear-gradient" x1="654.6" y1="1098.28" x2="887.47" y2="565.5" gradientUnits="userSpaceOnUse"><stop offset="0" stop-color="#6d6afe"/><stop offset="1" stop-color="#3fb0f7"/></linearGradient><linearGradient id="linear-gradient-2" x1="776.57" y1="97.96" x2="733.34" y2="260.33" gradientUnits="userSpaceOnUse"><stop offset="0" stop-color="#fa5db1"/><stop offset="1" stop-color="#febfbf"/></linearGradient><linearGradient id="linear-gradient-3" x1="281.55" y1="181.88" x2="256.91" y2="483.53" gradientUnits="userSpaceOnUse"><stop offset="0" stop-color="#1c8ef4"/><stop offset="1" stop-color="#00cfdd"/></linearGradient><linearGradient id="linear-gradient-4" x1="126.01" y1="758.36" x2="196.63" y2="469.33" gradientUnits="userSpaceOnUse"><stop offset="0" stop-color="#a77ef7"/><stop offset="1" stop-color="#5e65d6"/></linearGradient><linearGradient id="linear-gradient-5" x1="153.32" y1="733.69" x2="168.19" y2="687.01" xlink:href="#linear-gradient"/><linearGradient id="linear-gradient-6" x1="141.29" y1="828.83" x2="160.32" y2="752.88" xlink:href="#linear-gradient"/><linearGradient id="linear-gradient-7" x1="200.96" y1="1107.21" x2="268.17" y2="1033.5" gradientUnits="userSpaceOnUse"><stop offset="0" stop-color="#965cf2"/><stop offset="1" stop-color="#ff8adc"/></linearGradient><linearGradient id="GradientFill_11" x1="714.67" y1="820.06" x2="800" y2="1278.22" gradientUnits="userSpaceOnUse"><stop offset="0" stop-color="#d870ac"/><stop offset="1" stop-color="#58469c"/></linearGradient><linearGradient id="linear-gradient-8" x1="566.18" y1="1177.95" x2="716.55" y2="1014.77" xlink:href="#linear-gradient-3"/><linearGradient id="linear-gradient-9" x1="603.9" y1="1149.65" x2="658.43" y2="1043.73" xlink:href="#linear-gradient"/><linearGradient id="GradientFill_11-2" x1="920.98" y1="561.31" x2="949.47" y2="915.77" xlink:href="#GradientFill_11"/><linearGradient id="linear-gradient-10" x1="965.39" y1="855.06" x2="1136.47" y2="749.1" xlink:href="#linear-gradient-2"/></defs><title>01_predictive</title><g class="cls-1"><g id="Layer_2" data-name="Layer 2"><g id="Layer_1-2" data-name="Layer 1"><path class="cls-2" d="M1038.23,1468.17l-418.9-239.25c-15.55-7.1-38.39-13.81-53.64-4.52l-39,23.77c-7.85,4.78-33.66,20.65-16.4,30,50.79,27.62,375.29,217.22,426.86,245.27,9.75,5.31,24,7.22,39,6s30.4-5.27,42.24-12.58l15.58-9.61c11-6.8,17.12-14.22,17.71-21.34C1052.24,1479,1047.77,1472.53,1038.23,1468.17Z"/><path class="cls-3" d="M1027.13,1440.93c-.06,20.39-7.33,34.74-19,41.5l-18.44,11.09c-63.27-27-39.79-347.66-43.65-438.82L965.51,576.3c-16.34-28.54-79.18-53.46-64.52-111.75L715.54,377.73c-8.23-5.6-224.65-130.93-185.8-154.43,6.5-3.93,12.93-7.89,19.34-11.62,14.34-8.48,32.62-3.24,46,4.5h0l369,211.66c36.22,20.87,64.63,71.36,64.52,111.74Z"/><path class="cls-4" d="M510.88,264.77c.06-20,7-34.18,18.2-41.1,11.82-7.28,28.4-6.5,46.74,4.09l369,211.66c35.71,20.62,64.63,70.71,64.51,111.75l-1.54,901.34c-.12,41-29.23,57.63-64.94,37l-369-211.66c-35.76-20.65-64.63-70.71-64.52-111.75Z"/><path class="cls-5" d="M753,578.26c-25.92-15-46.86-51.23-46.77-81s21.16-41.79,47.07-26.83,46.86,51.23,46.77,81S778.9,593.23,753,578.26Zm0,12.62c32,18.47,58,3.63,58.09-33.11s-25.74-81.5-57.72-100-58-3.64-58.09,33.11S721,572.42,752.95,590.88Z"/><path class="cls-5" d="M713.9,609.46c0-3.44,2.44-4.79,5.44-3L787,644.67a12.16,12.16,0,0,1,5.4,9.45v6.8c0,3.44-2.45,4.78-5.44,3L719.3,625.7a12.15,12.15,0,0,1-5.4-9.45Z"/><path class="cls-6" d="M678.59,620.53c0-3,2.15-4.21,4.79-2.65,38.35,21.67,101.19,57,139.54,78.7a10.71,10.71,0,0,1,4.76,8.32v6c0,3-2.16,4.21-4.79,2.65-38.35-21.67-101.19-57-139.54-78.71a10.7,10.7,0,0,1-4.76-8.32Z"/><path class="cls-7" d="M762.38,262.8c-44.26-25.59-82.86-85.94-86.25-134.84s29.73-67.79,74-42.21,82.87,86,86.25,134.85S806.62,288.37,762.38,262.8Z"/><polygon class="cls-5" points="784.06 139.42 795.8 145.29 743.69 224.62 697.68 156.39 712.83 162.32 737.13 185.38 784.06 139.42"/><path class="cls-3" d="M12.76,49.79c.06-21.69-7-21.39,2.07-32.4C16.91,14.89,37.44,2.56,40.15,1.71,52.06-2,67,.26,83.24,9.63l400.48,229.7c38.76,22.38,70.14,76.73,70,121.28L552.06,550c-.05,17.32-4.86,30.63-13,39.11-12.79,13.33-35.6,28.67-59.29,15L81.11,360.5C42.3,338.09,11,283.76,11.09,239.22Z"/><path class="cls-8" d="M1.68,56.9C1.74,35.21,9.27,19.79,21.43,12.3c12.81-7.89,30.82-7.05,50.72,4.44l400.48,229.7c38.76,22.38,70.14,76.73,70,121.28L541,557.16c-.13,44.54-31.72,62.54-70.48,40.16L70,367.62C31.21,345.21-.12,290.88,0,246.34Z"/><path class="cls-9" d="M42.73,345.51l.47-173.42-4.7-3.55L38,340.27q2.3,2.69,4.7,5.24ZM40.89,154.73c-2.7-2-4.94-1.22-5,1.85s2.21,7.2,4.91,9.23,5,1.26,5-1.76-2.21-7.25-5-9.32ZM119.55,396l.71-240.81-4.74-3.57-.72,241.66,4.74,2.72ZM118,137.9c-2.74-2.07-5-1.25-5,1.82s2.21,7.21,5,9.28,4.89,1.18,4.9-1.84-2.21-7.25-4.86-9.25Zm78.35,302.18.94-301.76-4.61-3.48-.94,302.59,4.61,2.64ZM195,121c-2.74-2.07-4.89-1.19-4.9,1.94,0,3,2.12,7.08,4.86,9.15s4.94,1.22,5-1.75A13.12,13.12,0,0,0,195,121Zm78.2,363.17.95-302.88-4.7-3.54-1,303.72,4.7,2.69Zm-1.36-320.23c-2.7-2-4.94-1.21-5,1.86s2.21,7.2,4.91,9.24,5,1.25,5-1.77-2.2-7.26-4.95-9.33Zm78.19,364.3.78-259.18-4.74-3.58-.79,260,4.75,2.73Zm-1.58-276.51c-2.65-2-4.9-1.24-4.9,1.88,0,3,2.21,7.15,4.86,9.14s5,1.26,5-1.71c0-3.12-2.17-7.22-4.95-9.32Zm78.35,320.54.57-200.48-4.7-3.54-.57,201.33,4.7,2.7Zm-1.7-217.8c-2.74-2.07-5-1.25-5,1.82s2.22,7.2,5,9.27,4.94,1.21,5-1.8-2.21-7.25-4.91-9.29ZM503.58,606.9,504,444.12l-4.65-3.5-.45,166.21a44.8,44.8,0,0,0,4.66.08Zm-1.83-180c-2.7-2-4.89-1.23-4.9,1.79s2.17,7.22,4.86,9.25,5,1.25,5-1.81S504.5,428.93,501.75,426.86Z"/><path class="cls-9" d="M524.82,370.26a9.82,9.82,0,0,0-2.47-2.86c-1.15-.87-2.31-1.18-3.1-.72-7.06,4.42-13.56,8.14-19.7,11.23a140.25,140.25,0,0,1-17.19,7.53c-25.08,8.82-44.64,5.18-65.57-10.62-20.54-15.87-42.14-44.11-70.67-83.4-31.92-44-59-75.05-84.66-94.39q-5.69-4.28-11.27-7.8c-29-18.24-56.27-20.88-86.94-9.52-3.19,1.08-6.25,2.35-9.31,3.54-23.53,9.2-45.59,17.8-73.58-3.3-14.56-11-30.72-30-49.53-61.13A9.84,9.84,0,0,0,28.39,116c-1.16-.87-2.33-1.18-3.12-.67-1.32.9-1.09,3.91.56,6.64,21,34.82,38.9,55.92,54.92,68,30.17,22.74,53.68,13.5,78.8,3.7,3.13-1.13,6.18-2.32,9.31-3.46,29.24-10.88,55.07-8.52,82.22,8.53q5,3.18,10.16,7c24.19,18.24,50.19,48.09,81,90.54,29.6,40.68,52.06,70,74.36,87.28l1.28,1c22,16.63,43.3,20.76,70,11.44a147.43,147.43,0,0,0,17.64-7.66c6.19-3.22,12.82-7,19.88-11.41C526.78,376,526.55,373.15,524.82,370.26Z"/><path class="cls-10" d="M517.92,351.47a9.59,9.59,0,0,0-2.47-2.83c-1.15-.85-2.3-1.15-3.09-.68-7,4.54-13.53,8.37-19.66,11.55a141.63,141.63,0,0,1-17.16,7.8c-25,9.22-44.55,5.85-65.44-9.66-20.5-15.59-42.06-43.57-70.55-82.51-31.86-43.57-58.91-74.33-84.51-93.32q-5.67-4.21-11.25-7.65c-28.94-17.85-56.16-20.08-86.76-8.25-3.19,1.13-6.24,2.45-9.29,3.69-23.48,9.57-45.49,18.51-73.43-2.21-14.53-10.78-30.66-29.59-49.44-60.52a9.64,9.64,0,0,0-2.44-2.8c-1.16-.86-2.32-1.14-3.12-.62-1.32.93-1.09,3.94.56,6.64,21,34.58,38.84,55.45,54.83,67.31,30.11,22.34,53.58,12.73,78.64,2.53,3.12-1.18,6.17-2.42,9.29-3.61,29.18-11.34,55-9.36,82.05,7.32q5,3.11,10.15,6.91C279,208.49,304.94,238,335.71,280.1c29.55,40.32,52,69.4,74.23,86.34l1.27,1c22,16.33,43.22,20.16,69.83,10.42a148.91,148.91,0,0,0,17.61-7.94c6.18-3.32,12.8-7.2,19.84-11.73C519.88,357.24,519.64,354.34,517.92,351.47Z"/><path class="cls-3" d="M4.12,355.93,15,350.11c2.71-.9,6.14-.39,9.88,1.75C117.64,405,210.19,460.11,302.95,513.31c8.74,5,15.82,17.31,15.79,27.36l.46,367.15c0,4.57-1.49,7.9-3.92,9.69-2.92,2.16-12,8.6-16.82,5.84C205.71,870.16,118,808.61,25.24,755.42c-8.75-5.05-15.82-17.31-15.8-27.36Z"/><path class="cls-11" d="M0,365.84c0-10,7.15-14.12,15.9-9.06C108.64,410,201.2,465,294,518.24c8.74,5.05,15.82,17.31,15.79,27.36l.45,367.15c0,10-7.16,14.11-15.9,9.06C201.55,868.61,109,813.53,16.25,760.35,7.5,755.29.43,743,.45,733Z"/><path class="cls-5" d="M121.35,603.38c0-2.75,2-3.84,4.36-2.41l54.21,30.63a9.75,9.75,0,0,1,4.33,7.57v5.45c0,2.75-2,3.83-4.36,2.41L125.67,616.4a9.74,9.74,0,0,1-4.33-7.57Z"/><path class="cls-5" d="M152.67,584.83c-20.77-12-37.56-41.07-37.49-64.93s17-33.5,37.73-21.51,37.56,41.06,37.49,64.93-17,33.5-37.73,21.51Zm-16.86-49.61,0,16.21q17,9.9,34,19.84l0-16.52a9.71,9.71,0,0,0-4.4-7.62l-3.87-2.22c-2.1.55-4.78,0-7.76-1.69a28.44,28.44,0,0,1-8.07-7.39l-5.47-3.13a3.08,3.08,0,0,0-3.19-.28,3.12,3.12,0,0,0-1.24,2.8ZM153.55,540c5.74,3.32,10,.87,9.6-5.48S157.7,520.33,152,517s-10-.87-9.6,5.48,5.45,14.18,11.19,17.5Zm-.91,55c25.64,14.8,46.48,2.91,46.56-26.54s-20.63-65.33-46.26-80.13-46.48-2.92-46.56,26.54S127,580.14,152.64,594.95Z"/><path class="cls-12" d="M153.24,591.73c24.86,14.35,45.1,2.84,45.18-25.76s-20-63.4-44.89-77.75-45.14-2.87-45.22,25.73,20,63.42,44.93,77.79Zm50.7-42.47c2.61,16.15,13.66,30.41,4.38,51.38-7.25,15.86-27.85,8.12-34.86,6.87-4-.71-9.07.63-13.61.21-26.27-2.44-38.67-21-45.1-45.66-8-16.78-17.83-33.09-20.19-46.46-4.67-30.07,8.95-34.77,23.07-40.75,9.87-6.93,31.63-4.33,46.36,4.17,10.13,5.85,14.68,7,24.48,20.43S201.33,533.11,203.94,549.26Z"/><path class="cls-13" d="M152.38,592.34c24.86,14.35,45.1,2.84,45.18-25.76s-20-63.4-44.89-77.75-45.14-2.87-45.22,25.72,20,63.42,44.93,77.79Zm54.75-39.27c.62,9.45-.39,18.82-2,28.62-3,18.12-11.73,32.87-26.68,34.34-4.51.44-9.83-1-16-4.53-5.69-3.28-12.12-8.41-19.35-15.64-9.17-9.15-19.5-21.57-27.82-32.29-15-19.47-22.58-34.86-17.75-54.07,2.62-10.61,1.5-15.84,2.53-26.89.79-8.62,2.79-13.27,6.52-14.85,2.28-1,4.95-.73,8.9.3,4.68,1.21,9.36,3.23,14.18,3.49a15.06,15.06,0,0,0,4.77-.39c8-1.13,15-2.43,21.63,1.28,14.38,8.3,18.31,22.5,28.93,34.82,4.27,5,9.58,9.09,12.57,13C205,529.84,206.35,541,207.14,553.07Z"/><path class="cls-14" d="M308.23,706.75q.85.49,1.71,1l.17,136.39L.59,665.45v-55c7.54,9.43,14.85,18,23.6,23.09a34.67,34.67,0,0,0,9.39,3.79c14.32,3.27,32.36-21.87,53.83-13.22a28.51,28.51,0,0,1,3.36,1.66c9.35,5.4,16.71,16.3,24.47,27.46S131.12,675.73,142,682c.8.47,1.63.91,2.46,1.31,24.74,12.08,31.48-15.79,49.78-5.85l1.06.59c8.28,4.79,12.65,11.13,17.54,17.8s10.23,13.54,20.43,19.43q1.16.67,2.41,1.33C258.19,728.41,268.76,684,308.23,706.75Z"/><path class="cls-15" d="M308.93,733.72l1.05.62.22,178.41c0,10-7.16,14.11-15.9,9.06C201.55,868.61,109,813.53,16.25,760.35,8.21,755.7,1.59,745,.59,735.47V630.12c8.72,9.85,17.57,19.2,28,25.21A53.19,53.19,0,0,0,34,658.07c21.26,9.17,32-19.53,53.42-10.15a28.68,28.68,0,0,1,2.86,1.45c9.62,5.55,17.48,16.92,25.71,28.52s16.84,23.36,28,29.79q1,.6,2.11,1.14c24.74,12.5,31.09-17,48.17-10.06a21.24,21.24,0,0,1,2.53,1.24c7.13,4.12,11.07,11.95,15.86,20.25s10.4,17.1,20.88,23.16l1.31.73C257.29,756.09,268.8,710.56,308.93,733.72Z"/><path class="cls-9" d="M.66,646.13C5,651.35,9.4,656.44,14,661a80.89,80.89,0,0,0,14.6,11.83c.89.54,1.78,1.06,2.67,1.53s1.83,1,2.74,1.37c10.57,4.83,18.53-.28,26.51-5.41S76.64,660,87.44,665c.49.23,1,.47,1.42.71s1,.55,1.44.83c9.31,5.7,17,17.16,24.91,29l.83,1.24c4.11,6.13,8.33,12.33,12.89,17.83S138.43,725,144,728.39L145,729l1.06.59c13.74,7.36,21.8,1,29.18-4.9,5.91-4.69,11.39-9,19-5.77.46.2.89.41,1.3.62s.84.46,1.24.7c6.43,3.95,10.28,11.09,14.49,18.92l1.41,2.61A92.09,92.09,0,0,0,221,754.93a47.13,47.13,0,0,0,12.57,11.37l1.31.77c9.5,5.37,17.05-.2,25.64-6.53,11.71-8.63,25.34-18.68,48.49-4.5l1,.65v5.13l-1.07-.68c-23.1-14.15-36.71-4.11-48.4,4.5-8.61,6.35-16.18,11.92-25.73,6.53l-1.31-.77A47.23,47.23,0,0,1,220.9,760a92.43,92.43,0,0,1-8.32-13.22l-1.41-2.61c-4.19-7.79-8-14.9-14.41-18.82-.41-.25-.82-.48-1.23-.7s-.87-.43-1.29-.62c-7.57-3.27-13,1.07-18.91,5.74-7.4,5.88-15.49,12.31-29.26,4.92l-1.06-.58-1.05-.62c-5.57-3.41-10.52-8.26-15.1-13.78s-8.79-11.73-12.91-17.85l-.83-1.24c-7.93-11.86-15.57-23.29-24.85-29q-.72-.45-1.43-.83t-1.42-.72c-10.75-5-18.81.2-26.85,5.36s-16,10.26-26.58,5.41q-1.41-.65-2.74-1.37c-.91-.49-1.81-1-2.67-1.54a81,81,0,0,1-14.63-11.85c-4.6-4.58-9-9.68-13.36-14.91Z"/><path class="cls-10" d="M.66,644.34c4.35,4.92,8.74,9.72,13.34,14a80.25,80.25,0,0,0,14.6,11.15q1.33.77,2.67,1.45c.91.46,1.83.89,2.74,1.29,10.57,4.56,18.53-.26,26.51-5.1s16.12-9.77,26.92-5.05c.49.21,1,.44,1.42.67s1,.51,1.44.78c9.31,5.38,17,16.18,24.91,27.37l.83,1.17a209.29,209.29,0,0,0,12.89,16.8,61.55,61.55,0,0,0,15.06,13l1.05.58,1.06.55c13.74,6.94,21.8.91,29.18-4.62,5.91-4.43,11.39-8.53,19-5.44.46.19.89.38,1.3.59s.84.43,1.24.65c6.43,3.72,10.28,10.46,14.49,17.84l1.41,2.46a86.08,86.08,0,0,0,8.28,12.4,46.2,46.2,0,0,0,12.57,10.71l1.31.73c9.5,5.06,17.05-.19,25.64-6.15,11.71-8.13,25.34-17.6,48.49-4.24l1,.6v4.84l-1.06-.63c-23.1-13.33-36.71-3.88-48.4,4.24-8.61,6-16.18,11.24-25.73,6.15l-1.31-.72a46.31,46.31,0,0,1-12.61-10.75,86.51,86.51,0,0,1-8.32-12.46l-1.41-2.46c-4.19-7.34-8-14-14.41-17.74-.41-.23-.82-.45-1.23-.65s-.87-.41-1.29-.59c-7.57-3.08-13,1-18.91,5.42-7.4,5.54-15.49,11.6-29.26,4.64l-1.06-.56-1.05-.58a61.72,61.72,0,0,1-15.1-13,208.77,208.77,0,0,1-12.91-16.82l-.83-1.17c-7.93-11.18-15.57-22-24.85-27.32-.48-.28-1-.54-1.43-.78s-1-.47-1.42-.67c-10.75-4.69-18.81.19-26.85,5.06s-16,9.67-26.58,5.1c-.94-.41-1.86-.84-2.74-1.29s-1.81-.95-2.67-1.45a80.24,80.24,0,0,1-14.63-11.17c-4.6-4.31-9-9.12-13.36-14.06Z"/><path class="cls-5" d="M90.41,650c1.08-.65,1.7-1.88,1.71-3.73a11.82,11.82,0,0,0-1.68-5.77,12.63,12.63,0,0,0-4.09-4.34,4.39,4.39,0,0,0-4.18-.43c-1.08.62-1.73,1.94-1.73,3.8a11.62,11.62,0,0,0,1.7,5.7,11.93,11.93,0,0,0,4.17,4.35,4.14,4.14,0,0,0,4.1.42Zm-4.07-11.45A8.19,8.19,0,0,1,90,645c0,2.39-1.63,3.4-3.71,2.2a8.24,8.24,0,0,1-3.8-6.54c0-2.4,1.66-3.42,3.82-2.17Zm5.47,1.21a15.5,15.5,0,0,1,2.24,7.62c0,2.39-.87,4.21-2.27,5s-3.39.64-5.48-.57a16.38,16.38,0,0,1-5.56-5.81,15.61,15.61,0,0,1-2.21-7.57c0-2.51.84-4.23,2.25-5s3.42-.68,5.58.56A15.65,15.65,0,0,1,91.82,639.72Z"/><path class="cls-5" d="M192.84,689.43a8.3,8.3,0,0,1,3.77,6.52c0,2.39-1.7,3.36-3.79,2.16a8.3,8.3,0,0,1-3.77-6.52c0-2.39,1.71-3.36,3.79-2.16Zm4.07,11.41a4.06,4.06,0,0,0,1.7-3.73,11.86,11.86,0,0,0-1.68-5.77,12.12,12.12,0,0,0-4.09-4.34,4.14,4.14,0,0,0-4.1-.39c-1.08.62-1.7,2-1.71,3.82a11.77,11.77,0,0,0,1.69,5.69,11.28,11.28,0,0,0,4.09,4.31c1.62.94,3.09,1.08,4.1.42Zm1.43-10.22a15.32,15.32,0,0,0-5.49-5.82c-2.16-1.25-4.1-1.41-5.5-.52s-2.24,2.54-2.25,5a16.11,16.11,0,0,0,2.21,7.57,15.77,15.77,0,0,0,5.49,5.77c2.16,1.25,4.1,1.38,5.5.58s2.25-2.6,2.25-5A15.79,15.79,0,0,0,198.35,690.63Z"/><path class="cls-5" d="M206.16,675.49a11.51,11.51,0,0,1,1.53,5.6c0,1.89-.62,3.2-1.78,3.89s-2.48.51-4.17-.47a11.3,11.3,0,0,1-3.8-3.63,12.83,12.83,0,0,1-2.07-5.18l3.48,2a6.21,6.21,0,0,0,1.08,2,4.89,4.89,0,0,0,1.39,1.26c.77.44,1.38.51,1.85.16s.78-.87.79-1.83a5.27,5.27,0,0,0-.71-2.64,4.5,4.5,0,0,0-1.69-1.88,2.06,2.06,0,0,0-1.08-.34,1.75,1.75,0,0,0-1,.38l-2.7-2.27,2.12-9.79,8.11,4.69v3.44l-5.64-3.25-.72,3.25.54.2.54.22a11,11,0,0,1,3.95,4.14Zm-15.85-10.3a1.72,1.72,0,0,0,.65-1.49,5,5,0,0,0-.63-2.32,4.4,4.4,0,0,0-1.54-1.68,1.35,1.35,0,0,0-1.55-.1,1.65,1.65,0,0,0-.69,1.55,4.93,4.93,0,0,0,.61,2.22,4.6,4.6,0,0,0,1.62,1.75c.64.37,1.18.4,1.55.08Zm-1.59-9.08a11,11,0,0,1,3.94,4.14,10.81,10.81,0,0,1,1.53,5.23,5,5,0,0,1-.25,1.64,9.77,9.77,0,0,1-1.17,2.26l-4.42,7.41-2.79-3.22,3-5a10.89,10.89,0,0,1-3.78-4,11.24,11.24,0,0,1-1.53-5.43c0-1.69.54-2.87,1.62-3.41A3.6,3.6,0,0,1,188.72,656.11Z"/><path class="cls-5" d="M290.27,718.24a8.34,8.34,0,0,1,3.77,6.54c0,2.4-1.71,3.37-3.79,2.17a8.38,8.38,0,0,1-3.79-6.54c0-2.39,1.73-3.38,3.81-2.17Zm4.07,11.44c1.08-.64,1.7-1.87,1.7-3.73a11.65,11.65,0,0,0-1.68-5.77,12,12,0,0,0-4.09-4.34,4.12,4.12,0,0,0-4.1-.39,4,4,0,0,0-1.81,3.76,12,12,0,0,0,1.78,5.74,11.35,11.35,0,0,0,4.1,4.31c1.61.93,3.09,1.08,4.1.41Zm1.41-10.23a15.17,15.17,0,0,0-5.46-5.81c-2.16-1.25-4.1-1.4-5.51-.52s-2.31,2.47-2.32,5a16,16,0,0,0,2.29,7.62,15.74,15.74,0,0,0,5.49,5.77c2.16,1.25,4.1,1.38,5.48.57s2.27-2.59,2.28-5A15.63,15.63,0,0,0,295.75,719.45Z"/><path class="cls-3" d="M11.63,852c.05-18.65-4-22.78,4.39-31.75,3.23-3.45,18.76-9.67,22.27-10.38,9.68-2,21.36.36,33.92,7.61L416.45,1015c33.31,19.24,60.29,66,60.18,104.25L475.2,1282c0,16-4.8,28-12.74,35.14-6,5.46-19.86,12.76-28.93,12.23-7.58-.44-10.07-7.74-18.91-12.85L70.38,1119.12c-33.36-19.26-60.3-66-60.19-104.25Z"/><path class="cls-16" d="M1.44,856.83c.05-18.65,6.52-31.9,17-38.34,11-6.78,26.49-6.06,43.6,3.82l344.24,197.45c33.31,19.24,60.29,66,60.18,104.25L465,1286.83c-.11,38.29-27.26,53.76-60.58,34.52L60.19,1123.91c-33.36-19.26-60.3-66-60.19-104.25Z"/><path class="cls-17" d="M143.88,884.17l-.15,54c-40.29-23.27-73.12-4.6-73.25,41.81s32.48,102.79,72.77,126.05,73.21,4.65,73.34-41.69c0-2.07-.08-4.24-.21-6.42l46.95,23c.18,3.48.27,7.06.26,10.54-.21,76.19-54.19,106.84-120.49,68.56S23.26,1029.09,23.48,952.9,77.57,845.89,143.88,884.17Z"/><path class="cls-5" d="M176.28,1037.52a34.88,34.88,0,0,1,4.73,17.2c0,6-1.84,9.93-5.3,12s-7.95,1.61-12.91-1.26A35.35,35.35,0,0,1,151,1054.13a40.16,40.16,0,0,1-6.35-15.84l10.67,6.16a23.49,23.49,0,0,0,3.21,6.19,15.77,15.77,0,0,0,4.48,4c2.23,1.29,4.06,1.42,5.68.5s2.37-2.86,2.37-5.64a16.49,16.49,0,0,0-2.24-8.3,14.34,14.34,0,0,0-5.25-5.74,6.73,6.73,0,0,0-3.26-.91,7.09,7.09,0,0,0-3.17,1.07l-8.22-6.82,6.51-30.26,24.85,14.35,0,10.74-17.25-10-2.29,9.88a12.13,12.13,0,0,1,1.84.62,11.81,11.81,0,0,1,1.65.84,32.8,32.8,0,0,1,12,12.56ZM127.59,1006c1.29-.89,1.91-2.38,1.92-4.72a13.41,13.41,0,0,0-2-7.14,12.69,12.69,0,0,0-4.64-5.12c-1.84-1.06-3.48-1.2-4.81-.44s-2,2.46-2,4.79a14,14,0,0,0,1.92,7,13.83,13.83,0,0,0,5,5.22c1.8,1,3.45,1.17,4.68.36Zm-4.83-27.9a32.61,32.61,0,0,1,12,12.66c3.15,5.68,4.75,11,4.74,15.9a22.2,22.2,0,0,1-.73,5.33,44.5,44.5,0,0,1-3.48,6.75l-13.79,22.91-8.62-10,9.4-15.38a32,32,0,0,1-11.56-12.17,33,33,0,0,1-4.64-16.55c0-5.37,1.64-8.89,4.91-10.75S118.08,975.38,122.76,978.08Z"/><path class="cls-18" d="M143.88,884.17C207.22,920.74,259,1006.93,263.34,1081l-46.95-23c-2.71-45.16-34.07-97.48-72.66-119.75Z"/><path class="cls-5" d="M368.2,1261.36c1.58-2.23,2.46-6.89,2.48-14.2s-.71-12.89-2.13-16.52-3.35-6.14-5.61-7.44a4.86,4.86,0,0,0-4.19-.71c-1.22.49-2.18,2-2.84,4.41s-.94,6.33-1,11.83c0,7.1.71,12.48,2.19,16s3.38,6,5.69,7.36,4,1,5.36-.77Zm-39.4-26.85-5.54,3.47,17.5,10.11,0,9.91-34-19.61v-5.16l15.21-9q5.5-3.14,7.34-6a10.93,10.93,0,0,0,1.89-6,13.94,13.94,0,0,0-6.73-11.3c-2-1.19-3.66-1.26-5.06-.36s-2.06,2.81-2.19,5.75l-9.06-5.23c.28-6,2-9.83,5.09-11.5s7-1.2,11.81,1.56a29,29,0,0,1,7.84,6.68,35.36,35.36,0,0,1,5.51,9.41,28,28,0,0,1,2,9.58,18,18,0,0,1-2.56,9.3c-1.68,2.93-4.69,5.71-9.1,8.42Zm49-.66a70.11,70.11,0,0,1,2.12,18.57c0,7.51-.81,12.91-2.22,16.27s-3.38,5.27-5.82,5.8-5.45-.24-9.19-2.4a30.1,30.1,0,0,1-9.26-8.26,39.14,39.14,0,0,1-5.86-12.45,66.23,66.23,0,0,1-2.09-18.31c0-10.35,1.45-16.95,4.25-20.09,3.11-3.27,7.42-3.34,13-.15a30.38,30.38,0,0,1,9.17,8.31A39.38,39.38,0,0,1,377.83,1233.84Z"/><path class="cls-5" d="M307.77,1072.64l0-10L340,1081.22l0,5.56-22.31,39.28-7.75-8.78,18.46-32.75-20.6-11.89Zm64.72,52.21a32,32,0,0,1,4.39,15.91c0,5.46-1.63,9.18-4.91,11.05s-7.24,1.43-11.9-1.26a31.64,31.64,0,0,1-10.75-10.31,37.41,37.41,0,0,1-5.88-14.72l9.84,5.68a17.29,17.29,0,0,0,3,5.73,13.06,13.06,0,0,0,4,3.71c2.05,1.18,3.84,1.36,5.24.43s2.18-2.61,2.19-5.31a15.72,15.72,0,0,0-1.94-7.49,13.59,13.59,0,0,0-4.87-5.27,6,6,0,0,0-3-.88,5.52,5.52,0,0,0-3,1l-7.57-6.42,6.09-27.72,22.92,13.23,0,9.77-16-9.23-2,9.32a7.1,7.1,0,0,1,1.58.47,12.17,12.17,0,0,1,1.61.83A30.17,30.17,0,0,1,372.49,1124.84Z"/><path class="cls-6" d="M398,1193.26a6.93,6.93,0,0,1,3.17,5.52l0,6.86c0,2-1.41,2.85-3.19,1.82L299.41,1151a6.94,6.94,0,0,1-3.17-5.49l0-6.87c0-2,1.44-2.86,3.19-1.85Z"/><path class="cls-6" d="M398.31,1080.51a7.11,7.11,0,0,1,3.17,5.59l0,6.8c0,2-1.41,3-3.19,1.92l-98.59-56.49a7.12,7.12,0,0,1-3.17-5.59l0-6.8c0-2,1.44-2.93,3.19-1.92Z"/><path class="cls-17" d="M283.21,1011.17c5.11,2.94,9.24,10,9.22,15.74,0,5.86-4.18,8.23-9.28,5.29-4.95-2.86-9-10-9-15.85C274.16,1010.65,278.26,1008.32,283.21,1011.17Z"/><path class="cls-18" d="M282.95,1123.5c5.25,3,9.5,10.39,9.49,16.37s-4.3,8.29-9.55,5.26c-5.09-2.95-9.29-10.1-9.27-16.13S277.85,1120.56,282.95,1123.5Z"/><path class="cls-19" d="M747.5,736.56c53.41,103.81,188.12,280.81,264.13,354.54,19.62,168.92-55.5,295.32-145.67,354.52L743.7,1376C617.42,1236.43,452.41,995,481.9,785.24,564.3,800.56,687,777.57,747.5,736.56Z"/><path class="cls-2" d="M845.84,1529.87,580.4,1378.26c-9.85-4.5-24.33-8.75-34-2.86l-24.72,15.06c-5,3-21.33,13.09-10.39,19,32.18,17.5,237.81,137.64,270.49,155.42,6.18,3.36,15.22,4.58,24.71,3.79s19.26-3.34,26.77-8l9.88-6.09c7-4.31,10.85-9,11.22-13.52S851.89,1532.63,845.84,1529.87Z"/><path class="cls-3" d="M698.36,727.27c53.4,103.8,188.11,280.81,264.12,354.53,28.23,243.11-120.53,391.81-247.24,385.28C589,1327.53,381.4,1004.62,410.89,794.83c11.51-.72,43.47-8.67,55.49-14.82C545.72,785,645.61,763,698.36,727.27Z"/><path class="cls-5" d="M675.58,746.15C729,850,863.69,1027,939.71,1100.69c28.23,243.1-139.72,398.09-266.42,391.57C547,1352.7,380.49,1004.62,410,794.83,492.39,810.15,615,787.16,675.58,746.15Z"/><path class="cls-20" d="M664.69,782.59c47.25,91.83,177.19,255,244.46,320.25,25,215.06-123.63,352.15-235.69,346.37-111.72-123.4-259-431.37-233-617C513.42,845.79,611.15,818.87,664.69,782.59Z"/><path class="cls-5" d="M667.8,1273.49c-77.09-44.56-144.36-149.68-150.25-234.88s51.79-118.12,128.88-73.54S790.8,1114.82,796.69,1200,744.87,1318,667.8,1273.49Z"/><polygon class="cls-21" points="705.57 1058.56 726.02 1068.79 635.24 1207 555.07 1088.14 581.5 1098.47 623.79 1138.65 705.57 1058.56"/><path class="cls-22" d="M892.33,520.72l66.43,33.83,69.79,306.25-.63,144.1-19.47,11.57c-34.23-20-91.24-51.24-125.5-70.89-9.33-5.38-16.85-18.44-16.82-29.14l-.47-377C865.63,521.4,875.25,512,892.33,520.72Z"/><path class="cls-3" d="M890.14,524.82l9.59-5.07c2.71-.9,6.14-.39,9.88,1.75,92.74,53.19,185.3,108.26,278.05,161.46,8.74,5.05,15.82,17.31,15.79,27.36l.46,367.15c0,4.57-1.49,7.9-3.92,9.69-2.92,2.16-8.94,6.84-13.71,4.08-92.75-53.2-183.59-113-276.32-166.18-8.75-5.05-15.82-17.31-15.8-27.36Z"/><path class="cls-23" d="M885.79,534.85c0-10,7.15-14.12,15.9-9.06C994.44,579,1087,634,1179.75,687.25c8.74,5.05,15.82,17.31,15.79,27.36l.46,367.15c0,10-7.16,14.11-15.9,9.06-92.75-53.2-185.32-108.27-278.05-161.46-8.75-5.05-15.82-17.31-15.8-27.36Z"/><path class="cls-12" d="M1044.48,936.52c58.48,33.76,106.12,6.68,106.31-60.61S1103.65,726.74,1045.17,693,939,686.22,938.76,753.5s47.16,149.21,105.71,183Zm119.28-99.92c6.14,38,32.15,71.55,10.3,120.89-17.05,37.32-65.53,19.1-82,16.17-9.44-1.68-21.33,1.48-32,.49-61.8-5.75-91-49.52-106.12-107.43-18.84-39.49-41.95-77.85-47.5-109.32-11-70.75,21-81.81,54.27-95.87,23.24-16.3,74.42-10.2,109.08,9.82,23.84,13.76,34.53,16.39,57.58,48.07S1157.61,798.6,1163.75,836.59Z"/><path class="cls-13" d="M1042.45,937.93c58.48,33.76,106.12,6.68,106.31-60.61s-47.14-149.17-105.62-182.94-106.21-6.76-106.4,60.52,47.16,149.21,105.71,183Zm128.82-92.38c1.46,22.24-.92,44.26-4.75,67.32-7.11,42.62-27.59,77.34-62.77,80.79-10.62,1-23.13-2.25-37.71-10.67-13.38-7.73-28.52-19.79-45.54-36.8-21.58-21.52-45.88-50.76-65.44-76-35.39-45.82-53.13-82-41.77-127.22,6.16-25,3.53-37.26,6-63.27,1.85-20.27,6.56-31.22,15.35-34.94,5.37-2.31,11.64-1.71,20.95.71,11,2.85,22,7.59,33.37,8.22a35.5,35.5,0,0,0,11.23-.92c18.89-2.65,35.18-5.71,50.89,3,33.84,19.53,43.09,52.93,68.06,81.93,10,11.69,22.54,21.38,29.59,30.47C1166.27,790.9,1169.42,817.26,1171.27,845.55Z"/><path class="cls-5" d="M1045.72,924.1c53.51,30.89,97.13,6.09,97.3-55.48s-43.16-136.54-96.67-167.44S949.13,695,949,756.58s43.18,136.58,96.76,167.52Zm.71-251.83c67.39,38.91,121.9,133.32,121.68,210.84S1113,991.92,1045.63,953s-122-133.4-121.77-210.92S979,633.32,1046.43,672.27Z"/><path class="cls-5" d="M1112.52,863.9c1.49-2,2.26-6.37,2.28-13,0-6.82-.65-11.9-2-15.21s-3.05-5.61-5.2-6.85a4.87,4.87,0,0,0-3.87-.69c-1.11.44-1.94,1.78-2.54,4.07a47.44,47.44,0,0,0-.93,10.91c0,6.5.65,11.41,2,14.72s3.12,5.57,5.27,6.81,3.73,1,5-.73ZM980.59,757.16c-.9.51-1.35,1.69-1.35,3.31a10.81,10.81,0,0,0,5,8.75c1.41.82,2.62.92,3.57.35s1.42-1.65,1.43-3.44a9.69,9.69,0,0,0-1.4-4.82,9.94,9.94,0,0,0-3.69-3.76c-1.41-.82-2.59-1-3.49-.39Zm8.89,37.16c1.35-.58,2-1.9,2-4a12.38,12.38,0,0,0-2.06-6.67,14.89,14.89,0,0,0-5-5.05c-2.07-1.2-3.8-1.4-5.21-.87s-2.15,2-2.16,4a12.34,12.34,0,0,0,2,6.46,14.56,14.56,0,0,0,5.27,5.24c2.14,1.24,3.91,1.58,5.19,1Zm4.13-15.73a37.72,37.72,0,0,1,4.74,8.54,24.94,24.94,0,0,1,1.61,8.63,12,12,0,0,1-2,7.14,6.13,6.13,0,0,1-5.27,2.68c-2.17,0-5-.89-8.39-2.86a33,33,0,0,1-8.69-6.89,28.8,28.8,0,0,1-5.1-8.5,25.38,25.38,0,0,1-1.91-9.65,12.15,12.15,0,0,1,1.5-6.56,7.63,7.63,0,0,1,4.68-3.37,34,34,0,0,1-3-6.79,20.67,20.67,0,0,1-1-6.23,10.59,10.59,0,0,1,1.74-6.31,6,6,0,0,1,4.82-2.43,13.72,13.72,0,0,1,7.07,2.19,26.3,26.3,0,0,1,7,5.92,29.63,29.63,0,0,1,4.72,8.09,21.59,21.59,0,0,1,1.7,8.33,11.09,11.09,0,0,1-.91,4.68,9.42,9.42,0,0,1-3.29,3.39Zm17,27.87a9.21,9.21,0,0,1,3.41,3.59,9.1,9.1,0,0,1,1.38,4.7,3.31,3.31,0,0,1-1.4,3.13,3.41,3.41,0,0,1-3.42-.35,9.4,9.4,0,0,1-3.34-3.55,9.29,9.29,0,0,1-1.4-4.74c0-1.52.45-2.64,1.43-3.08s2-.47,3.35.31Zm31.46,16.78c1.49-2,2.26-6.37,2.28-13,0-6.82-.65-11.9-1.89-15.17s-3.12-5.65-5.2-6.85a4.62,4.62,0,0,0-3.87-.69c-1.11.44-1.92,1.8-2.54,4.07a47.79,47.79,0,0,0-.9,10.92q0,9.75,2,14.72c1.31,3.22,3.1,5.56,5.24,6.8s3.72,1,4.91-.77Zm3.46-36.95A35.56,35.56,0,0,1,1051,798a61.86,61.86,0,0,1,2,17.1c0,6.9-.69,11.8-2,14.87s-3.13,4.86-5.37,5.36-5-.18-8.4-2.11a27.71,27.71,0,0,1-8.52-7.66,35.36,35.36,0,0,1-5.47-11.43,61.59,61.59,0,0,1-1.89-16.82c0-9.56,1.32-15.73,3.92-18.48,2.84-3.08,6.76-3.2,11.83-.28a27.55,27.55,0,0,1,8.52,7.74Zm31.79,57.3c1.49-2,2.26-6.37,2.28-13,0-6.82-.65-11.9-2-15.21s-3.05-5.61-5.2-6.85a4.75,4.75,0,0,0-3.87-.69c-1.11.44-1.94,1.78-2.54,4.07a47.28,47.28,0,0,0-.93,10.91q0,9.75,2,14.73c1.31,3.23,3.1,5.56,5.24,6.8s3.72,1,5-.73Zm3.39-37a36.9,36.9,0,0,1,5.54,11.74,64.42,64.42,0,0,1,1.89,17.06c0,6.9-.69,11.8-2,14.87s-3.13,4.86-5.37,5.36-5-.14-8.39-2.11a27.66,27.66,0,0,1-8.52-7.66,35.33,35.33,0,0,1-5.47-11.43,61.68,61.68,0,0,1-1.89-16.82c0-9.56,1.32-15.73,3.92-18.48,2.82-3.09,6.76-3.2,11.89-.24a27.55,27.55,0,0,1,8.45,7.7Zm40.72,32.05a65.25,65.25,0,0,1,1.89,17.06c0,6.9-.72,11.79-2,14.87s-3.06,4.9-5.3,5.4-5-.18-8.47-2.15a27.64,27.64,0,0,1-8.52-7.66,34.7,34.7,0,0,1-5.4-11.39,59.17,59.17,0,0,1-2-16.86c0-9.56,1.3-15.75,3.92-18.48,2.82-3.09,6.76-3.2,11.9-.24a27.47,27.47,0,0,1,8.45,7.7A37.28,37.28,0,0,1,1121.45,838.65Z"/><path class="cls-5" d="M1060.27,860.91a11.71,11.71,0,0,1,.42,3.58l0,7.5-2.8-1.62,0-6.47a7.06,7.06,0,0,0-.51-3.2A3.5,3.5,0,0,0,1056,859a1.72,1.72,0,0,0-1.34-.26,1.22,1.22,0,0,0-.81.81,6.47,6.47,0,0,0-.31,2.56l0,5.71-2.83-1.63,0-6.15a12.29,12.29,0,0,0-.2-2.67,4.08,4.08,0,0,0-.68-1.5,3.28,3.28,0,0,0-1-1,1.53,1.53,0,0,0-1.32-.25,1.21,1.21,0,0,0-.83.88,6.65,6.65,0,0,0-.31,2.56v5.63l-2.81-1.62,0-12.78,2.8,1.62v1.44a2.91,2.91,0,0,1,1.58-.44,5.07,5.07,0,0,1,1.91.67,6.14,6.14,0,0,1,1.93,1.71,6.83,6.83,0,0,1,1.34,2.48,2.08,2.08,0,0,1,1.72-.71,3.42,3.42,0,0,1,2.08.6,7.25,7.25,0,0,1,2.14,1.83,7.7,7.7,0,0,1,1.27,2.44Zm-18.49-12.63-4.82,3.34,5.4,9.79-3.49-2-4.74-8.63,0,5.88-2.83-1.63.05-17.82,2.83,1.63,0,10.31,4.09-2.93Z"/></g></g></g></svg>