<svg xmlns="http://www.w3.org/2000/svg" xmlns:xlink="http://www.w3.org/1999/xlink" viewBox="0 0 313.98 289.6"><defs><style>.cls-1{isolation:isolate;}.cls-2{fill:#deecf9;}.cls-10,.cls-11,.cls-12,.cls-13,.cls-14,.cls-15,.cls-16,.cls-17,.cls-18,.cls-19,.cls-2,.cls-20,.cls-21,.cls-22,.cls-23,.cls-24,.cls-25,.cls-26,.cls-27,.cls-28,.cls-29,.cls-3,.cls-30,.cls-31,.cls-32,.cls-33,.cls-34,.cls-35,.cls-36,.cls-37,.cls-38,.cls-39,.cls-4,.cls-40,.cls-41,.cls-5,.cls-6,.cls-7,.cls-8,.cls-9{fill-rule:evenodd;}.cls-3{fill:#3e4794;}.cls-4,.cls-6{fill:#1f2873;}.cls-18,.cls-19,.cls-21,.cls-28,.cls-31,.cls-32,.cls-4{opacity:0.5;}.cls-5{fill:#86073c;}.cls-7{fill:url(#linear-gradient);}.cls-8{fill:url(#linear-gradient-2);}.cls-9{fill:#6e4dfc;}.cls-10{fill:#e889df;}.cls-11{fill:url(#linear-gradient-3);}.cls-12{fill:url(#linear-gradient-4);}.cls-13,.cls-19,.cls-35,.cls-40{fill:#fff;}.cls-14,.cls-39{fill:#8d6dfc;}.cls-15{fill:url(#linear-gradient-5);}.cls-16{fill:#273087;}.cls-17{fill:url(#linear-gradient-6);}.cls-18{fill:#8690ef;}.cls-18,.cls-21,.cls-28,.cls-32{mix-blend-mode:multiply;}.cls-20{fill:url(#linear-gradient-7);}.cls-21{fill:url(#linear-gradient-8);}.cls-22{fill:url(#linear-gradient-9);}.cls-23{fill:url(#linear-gradient-10);}.cls-24{fill:#00abb7;}.cls-25{fill:#00828b;}.cls-26{fill:#00cedc;}.cls-27,.cls-31{fill:#70f4ff;}.cls-28{fill:url(#linear-gradient-11);}.cls-29{fill:url(#linear-gradient-12);}.cls-30{fill:url(#linear-gradient-13);}.cls-32{fill:url(#linear-gradient-14);}.cls-33{fill:#f454ae;}.cls-34{fill:url(#linear-gradient-15);}.cls-35{opacity:0.85;}.cls-36{fill:url(#linear-gradient-16);}.cls-37{fill:url(#linear-gradient-17);}.cls-38{fill:#ffdb59;}.cls-39,.cls-40,.cls-41{opacity:0.2;}.cls-41{fill:url(#linear-gradient-18);}</style><linearGradient id="linear-gradient" x1="192.21" y1="39.02" x2="210.27" y2="133.57" gradientUnits="userSpaceOnUse"><stop offset="0" stop-color="#fd70cb"/><stop offset="1" stop-color="#6e4dfd"/></linearGradient><linearGradient id="linear-gradient-2" x1="189.97" y1="39.79" x2="207.98" y2="134.12" gradientUnits="userSpaceOnUse"><stop offset="0" stop-color="#fd90da"/><stop offset="1" stop-color="#8e6dfd"/></linearGradient><linearGradient id="linear-gradient-3" x1="211.93" y1="109.8" x2="182.35" y2="74.95" gradientUnits="userSpaceOnUse"><stop offset="0" stop-color="#ff66bc"/><stop offset="1" stop-color="#ffbba8"/></linearGradient><linearGradient id="linear-gradient-4" x1="196.05" y1="97.74" x2="200.05" y2="89.15" gradientUnits="userSpaceOnUse"><stop offset="0" stop-color="#6d6afe"/><stop offset="1" stop-color="#3fb0f7"/></linearGradient><linearGradient id="linear-gradient-5" x1="101.96" y1="-5.66" x2="121.25" y2="48.55" xlink:href="#linear-gradient-2"/><linearGradient id="linear-gradient-6" x1="106.98" y1="42.3" x2="111.88" y2="202.27" xlink:href="#linear-gradient-2"/><linearGradient id="linear-gradient-7" x1="153.09" y1="109.21" x2="158.4" y2="97.8" xlink:href="#linear-gradient-4"/><linearGradient id="linear-gradient-8" x1="167.95" y1="224.08" x2="142.86" y2="236.95" xlink:href="#linear-gradient-2"/><linearGradient id="linear-gradient-9" x1="183.48" y1="249.42" x2="186.66" y2="242.67" gradientUnits="userSpaceOnUse"><stop offset="0" stop-color="#0f6eef"/><stop offset="1" stop-color="#00b9d0"/></linearGradient><linearGradient id="linear-gradient-10" x1="180.31" y1="255.04" x2="187.93" y2="236.06" gradientUnits="userSpaceOnUse"><stop offset="0" stop-color="#1c8ef4"/><stop offset="1" stop-color="#00cfdd"/></linearGradient><linearGradient id="linear-gradient-11" x1="12.66" y1="144.54" x2="60.01" y2="170.66" xlink:href="#linear-gradient-2"/><linearGradient id="linear-gradient-12" x1="66.03" y1="187.23" x2="4.21" y2="112.86" gradientUnits="userSpaceOnUse"><stop offset="0" stop-color="#4d4bfe"/><stop offset="1" stop-color="#2893f4"/></linearGradient><linearGradient id="linear-gradient-13" x1="57.84" y1="192.09" x2="21.92" y2="131.19" xlink:href="#linear-gradient-4"/><linearGradient id="linear-gradient-14" x1="113.63" y1="97.82" x2="116.44" y2="180.07" xlink:href="#linear-gradient-2"/><linearGradient id="linear-gradient-15" x1="128.89" y1="126.37" x2="89.04" y2="149.68" xlink:href="#linear-gradient-3"/><linearGradient id="linear-gradient-16" x1="230.46" y1="179.86" x2="198.99" y2="198.27" xlink:href="#linear-gradient-3"/><linearGradient id="linear-gradient-17" x1="219.4" y1="188.62" x2="212.64" y2="199.3" gradientUnits="userSpaceOnUse"><stop offset="0" stop-color="#ff66bc"/><stop offset="0.56" stop-color="#ff8adc"/><stop offset="1" stop-color="#ffbba8"/></linearGradient><linearGradient id="linear-gradient-18" x1="220.35" y1="190.28" x2="202" y2="193.71" xlink:href="#linear-gradient-17"/></defs><title>01_rootcause</title><g class="cls-1"><g id="Layer_2" data-name="Layer 2"><g id="Layer_1-2" data-name="Layer 1"><path class="cls-2" d="M128.16,216.16l-9.38,5.42C50.18,181.7,13,130.56,7.06,78.42H17.35C25.09,128.66,62,177.65,128.16,216.16Z"/><path class="cls-3" d="M77.84,104.59c13.18,11.1,35.32,24.51,51.55,38.58l-6.09,77.6c-26.86-15.44-53.68-36.06-73.53-59.67s-34.26-51.51-38-82.62A125.88,125.88,0,0,1,11,65c-.23-18.81-.46-57.83.4-65h0C16.33,43.58,42.17,74.7,77.84,104.59Z"/><path class="cls-4" d="M77.84,104.59c13.18,11.1,35.32,24.51,51.55,38.58l-6.09,77.6c-26.86-15.44-53.68-36.06-73.53-59.67a176.94,176.94,0,0,1-27.48-43.87c4.75,4.44,7.93,8.2,10.14,7.49C47,120,39.82,74.23,30,51.2,40.62,64.69,63.17,92.29,77.84,104.59Z"/><polygon class="cls-5" points="130.93 215.16 123.31 220.77 123.09 143.16 131.56 138.02 132.46 137.75 130.93 215.16"/><path class="cls-6" d="M132.47,137.75l-9.38,5.42C54.49,103.28,17.26,52.14,11.37,0H21.66C29.4,50.24,66.33,99.24,132.47,137.75Z"/><path class="cls-2" d="M174.69,236.82l0,7.57c49.09,0,98-8.9,139.2-26.71l0-9.27-6.37,3.1C268,228,221.42,236.46,174.69,236.82Z"/><path class="cls-3" d="M310.35,135.08c-16.11,6.06-32.72,10.87-53.65,15.7-33.8,7.8-69.36,7.19-84.27,13.18l0,75.33a389,389,0,0,0,65.08-5.37A311.25,311.25,0,0,0,314,211.53V136.24Z"/><path class="cls-6" d="M172.39,156.39l0,7.57c50,0,99.94-9.25,141.55-27.72l-8.74-5.16C265.66,147.59,219.12,156,172.39,156.39Z"/><path class="cls-2" d="M178.7,256.36l-114-65.75c-2.64-1.21-6.51-2.34-9.1-.77l-6.62,4c-1.33.81-5.71,3.5-2.78,5.1,8.62,4.69,106.57,62,115.31,66.77a12.27,12.27,0,0,0,6.62,1,16.63,16.63,0,0,0,7.17-2.13L178,263c1.87-1.15,2.9-2.41,3-3.62S180.32,257.1,178.7,256.36Z"/><path class="cls-7" d="M151.56,36c0-1.63-1.27-3-.71-4s3.13-1.83,4.21-2.17a7,7,0,0,1,5.56,1L246,80.08c5,2.88,9,9.87,9,15.6l-.21,61.13c0,2.81-1,4.79-2.57,5.75-1,.59-3.69,1.66-5,1.43-.94-.16-.42-1.41-1.47-2L160.35,112.7c-5-2.88-9-9.87-9-15.6Z"/><path class="cls-8" d="M149.32,36.78c0-5.73,4.07-8,9.06-5.16l85.36,49.27c5,2.88,9,9.87,9,15.6l-.21,61.13c0,5.73-4.08,8-9.06,5.16l-85.36-49.27c-5-2.88-9-9.87-9-15.6Z"/><path class="cls-9" d="M152.24,100.89c0-.5.35-.69.79-.43l94.7,54.78a1.78,1.78,0,0,1,.78,1.37l0,1.51c0,.5-.35.69-.79.43L153,103.77a1.78,1.78,0,0,1-.78-1.37Z"/><path class="cls-10" d="M152.29,100.94c0-.48.34-.67.76-.41l38.2,22.09a1.71,1.71,0,0,1,.75,1.32l0,1.45c0,.48-.34.67-.76.41L153,103.72a1.71,1.71,0,0,1-.75-1.32Z"/><path class="cls-11" d="M182.78,73.2c0-1.36,1-1.91,2.16-1.23l26.28,15.17a4.73,4.73,0,0,1,2.14,3.71l-.05,22.82c0,1.36-1,1.91-2.16,1.23L184.87,99.74A4.72,4.72,0,0,1,182.73,96Z"/><path class="cls-12" d="M198.07,84c-4.55-2.63-8.24-.52-8.26,4.71s3.66,11.59,8.21,14.22,8.24.52,8.26-4.71S202.62,86.6,198.07,84Z"/><polygon class="cls-13" points="194.53 86.32 194.54 95.78 202.7 96.44 194.53 86.32"/><path class="cls-14" d="M102.68,8.8A15.32,15.32,0,0,1,108.1,14c0-.39,0,1,0-1.17s-1.26-5.8.48-7.59c.69-.71,4-2,4.84-2.22a7.17,7.17,0,0,1,5.24.92c2.91,1.59,5.54,4.68,7.45,8.4a35.12,35.12,0,0,1,3.1,12.18c0,2.24,0,.78,0,1.15,1.62-.49,3.07-.48,5.57.9s5.64,4.79,7.59,8.58a28,28,0,0,1,3.19,12.38,13,13,0,0,1-2,7.58c-1.26,1.79-3.71,2.85-5.44,3.42-5,1.73-14.54-8.35-19.6-11.21l-16-9.05c-2.89-1.64-5.49-4.76-7.34-8.48A27.29,27.29,0,0,1,92.2,17.65c0-2.36-1.7-5.9.53-7.59C96.19,7.43,99.9,7.26,102.68,8.8Z"/><path class="cls-15" d="M99.87,10a15.32,15.32,0,0,1,5.42,5.15c0-.39,0,1,0-1.17s1.21-7.06,3.12-8.67,4.53-1.82,7.44-.23,5.54,4.68,7.45,8.4a35.12,35.12,0,0,1,3.1,12.18c0,2.24,0,.78,0,1.15,1.62-.49,3.07-.48,5.57.9s5.64,4.79,7.59,8.58a28,28,0,0,1,3.19,12.38c0,4.16-1.2,7.26-3.16,8.89s-4.66,1.78-7.63.1l-16.23-9.19-16-9.05c-2.89-1.64-5.48-4.76-7.34-8.48a27.3,27.3,0,0,1-2.93-12.08c0-4,1.22-7,3.11-8.64S97.44,8.68,99.87,10Z"/><polygon class="cls-13" points="105.47 30.02 100.5 27.15 108.33 40.71 116.2 36.22 111.23 33.34 111.24 20.58 105.49 17.26 105.47 30.02"/><polygon class="cls-13" points="122.72 35.55 127.7 38.42 119.87 24.87 111.99 29.36 116.97 32.23 116.95 44.99 122.71 48.32 122.72 35.55"/><path class="cls-16" d="M166.51,86.35C172.43,89.76,177.06,98,177,104.59l-5.43,6.95-4.88-1c-2.67-4.66-12.92-8.73-10.53-18.24L125.93,78.17l-76-46.59h0c-.11-.67-.69-4.64-.27-4.89,1-.62,2-1.25,3.07-1.84,2.34-1.38,5.33-.53,7.52.74h0Z"/><path class="cls-6" d="M176.79,251.72c0,3.33-1.19,5.67-3.08,6.77l-3.12,1.91c-10-4.25-6.41-57.34-7-71.72l3.17-78.09,10.31-6Z"/><path class="cls-3" d="M46.49,33.52c0-6.7,4.76-9.41,10.6-6L163.4,88.25c5.83,3.37,10.55,11.54,10.53,18.24l-.25,147.13c0,6.7-4.77,9.41-10.6,6L56.77,198.89c-5.84-3.37-10.55-11.54-10.53-18.24Z"/><path class="cls-17" d="M49.72,39.85c0-6.17,4.38-8.66,9.76-5.56L161,92.3c5.37,3.1,9.71,10.62,9.69,16.79l-.23,138.2c0,6.17-4.39,8.66-9.76,5.56l-101.52-58c-5.37-3.1-9.71-10.62-9.69-16.79Z"/><path class="cls-18" d="M136.73,86.72c0-7.9,5.53-11.4,12.42-7.43l12.95,7.63c6.88,4,12.45,13.62,12.42,21.52l-.3,12.88c0,7.9-5.63,11.1-12.51,7.13l-12.86-7.33c-6.89-4-12.45-13.62-12.43-21.52Z"/><path class="cls-16" d="M166.79,86.51c5.91,3.41,10.55,11.65,10.53,18.24C159.94,127,137.6,86.08,143,82.79c1-.62,4.32-2.64,5.33-3.23,2.34-1.38,5.33-.53,7.52.74Z"/><path class="cls-6" d="M177.07,115.67c0,2.77-.82,4.85-2.18,6.11s-4.32,2.75-5.91,3.72c-12.84-6.87-4.38-2.41-2-14.75l10.31-6Z"/><path class="cls-3" d="M140.16,89.44c0-6.7,4.76-9.41,10.6-6l10.9,6.21c5.83,3.37,10.55,11.54,10.53,18.24l-.25,10.92c0,6.7-4.77,9.41-10.6,6l-10.9-6.22c-5.84-3.37-10.55-11.54-10.53-18.24Z"/><path class="cls-19" d="M54.9,43.38c0-3.37,2.39-4.67,5.33-2.91L90.17,57.7A12,12,0,0,1,95.46,67l-.13,10.2c0,3.37-2.4,4.67-5.33,2.91L60.06,62.88a12,12,0,0,1-5.29-9.3Z"/><path class="cls-13" d="M86.69,71.88q0,.49-.47.22a.87.87,0,0,1-.5-.78l0-11.07c0-.33.17-.39.5-.2a.84.84,0,0,1,.47.76l0,11.07Zm-.41-14.06q-3.64-2.1-3.65,1.06l0,10.47a4.52,4.52,0,0,0,1,2.74,8.5,8.5,0,0,0,2.62,2.27,4,4,0,0,0,2.59.72q1-.19,1-1.6l0-10.47Q89.85,59.89,86.28,57.82Z"/><path class="cls-13" d="M78.81,55a.91.91,0,0,1-1.14,0v2.37l1.17.68L78.8,70l3.12,1.8,0-16.28-2.69-1.55A1.32,1.32,0,0,1,78.81,55Z"/><polygon class="cls-13" points="74.52 59.02 77.09 60.5 77.1 58.13 74.53 56.65 74.52 59.02"/><polygon class="cls-13" points="74.51 63.8 77.08 65.28 77.08 62.91 74.51 61.42 74.51 63.8"/><path class="cls-13" d="M72.3,57.51q1.62.26,1.62-1.69V53.58a4.34,4.34,0,0,0-1-2.79,8.62,8.62,0,0,0-2.43-2.1q-3.48-2-3.49.87v3l2.75,1.59v-3c0-.32.2-.38.59-.15a.94.94,0,0,1,.56.82v2.88q0,1-1.34.18v1.84a3.34,3.34,0,0,1,1.05.84,1.74,1.74,0,0,1,.28,1V62.4q0,.6-.57.27a1,1,0,0,1-.57-.93V57.89l-2.86-1.65v3.88q0,3.09,3.55,5.14t3.52-1.36V61.48A5.11,5.11,0,0,0,72.3,57.51Z"/><path class="cls-13" d="M61.12,44.73a.91.91,0,0,1-1.14,0v2.37l1.17.68,0,11.93,3.12,1.8,0-16.28-2.69-1.55A1.32,1.32,0,0,1,61.12,44.73Z"/><path class="cls-20" d="M155.78,91c-6-3.49-10.94-.68-11,6.24s4.85,15.38,10.89,18.86,10.94.68,11-6.25S161.81,94.43,155.78,91Z"/><polygon class="cls-13" points="151.08 94.06 151.1 106.6 161.92 107.49 151.08 94.06"/><path class="cls-21" d="M127.65,211.93c0-5.73,4.07-8,9.07-5.17l39.87,22.87,0,21.82c0,3.33-1.19,5.67-3.09,6.78l-3.12,1.91h0a5.1,5.1,0,0,1-1,.44l-32.89-18.87c-5-2.88-9-9.87-9-15.6Z"/><path class="cls-22" d="M228.69,256.94a15.83,15.83,0,0,1,7.18,12.43h0l-.17,13.84c0,2.27-.81,3.86-2.1,4.62l-2.13,1.3a7.92,7.92,0,0,1-5.13-1c-15.81-8.12-69.87-40.69-88.92-51-.26-.18-4.17-4.49-4.68-9.34-.68-6.41-.71-18.28,1.68-19.91.68-.46,1.4-.85,2.09-1.25,1.6-.94,3.63-.36,5.12.5h0Z"/><path class="cls-23" d="M132.29,212.54c0-4.57,3.25-6.41,7.22-4.12l87.06,49.81a15.83,15.83,0,0,1,7.18,12.43l-.17,13.84c0,4.56-3.25,6.41-7.22,4.12l-87.06-49.81a15.82,15.82,0,0,1-7.18-12.43Z"/><path class="cls-24" d="M186.76,235.46a15.7,15.7,0,0,1,7.18,12.38l-3.7,4.76-3.32-.63c-1.82-3.16-8.81-5.88-7.18-12.38l7.83,6.42-20.42-13.74h0c-.08-.46-.47-3.16-.19-3.33.7-.43,1.4-.86,2.09-1.27,1.6-1,3.63-.39,5.12.46h0Z"/><path class="cls-25" d="M193.76,261.68c0,2.27-.81,3.87-2.1,4.63l-2.13,1.31c-7.56-3.17-4.08-8.16-2.62-15.65l7-4.13Z"/><path class="cls-26" d="M164.83,233.61c0-4.57,3.25-6.44,7.22-4.17l12.59,7.32a15.69,15.69,0,0,1,7.18,12.38L191.65,263c0,4.56-3.25,6.43-7.22,4.17l-12.59-7.32a15.68,15.68,0,0,1-7.18-12.38Z"/><path class="cls-27" d="M160.61,236.26a6.72,6.72,0,0,1,.78-3.32,3.93,3.93,0,0,1,3.55-2.05,6.74,6.74,0,0,1,3.28,1l12.15,7.07a15.56,15.56,0,0,1,7.14,12.31l-.16,13.36a6.71,6.71,0,0,1-.77,3.32A3.93,3.93,0,0,1,183,270a6.74,6.74,0,0,1-3.28-1l-12.15-7.07a15.55,15.55,0,0,1-7.14-12.31l.17-13.36Zm1.52-2.9a5.87,5.87,0,0,0-.66,2.9l-.17,13.36a14.71,14.71,0,0,0,6.7,11.56l12.15,7.07a5.89,5.89,0,0,0,2.85.87,3.08,3.08,0,0,0,2.8-1.62,5.86,5.86,0,0,0,.66-2.9l.16-13.36a14.72,14.72,0,0,0-6.7-11.56l-12.15-7.07a5.9,5.9,0,0,0-2.86-.87,3.08,3.08,0,0,0-2.8,1.62Z"/><path class="cls-28" d="M46.31,141.39l20,11.5a13,13,0,0,1,5.91,10.23l-.27,29.15c0,3.76-2.68,5.28-5.95,3.39L46.91,185.12a19.88,19.88,0,0,1-.81-6.19Z"/><path class="cls-29" d="M2,115.9c0-1.07-1.07-2.18-.53-2.74a9.64,9.64,0,0,1,2.83-1.31,4.58,4.58,0,0,1,3.65.66l56,32.33a13,13,0,0,1,5.91,10.23l-.14,30.87c0,1.84-.62,3-1.66,3.68a12.55,12.55,0,0,1-2.66,1.19c-.61.14-.94-1.08-1.63-1.48L7.75,157a13,13,0,0,1-5.91-10.23Z"/><path class="cls-30" d="M.14,116.66c0-3.76,2.67-5.28,5.95-3.39l56,32.33A13,13,0,0,1,68,155.84l-.14,30.87c0,3.76-2.68,5.28-5.95,3.39l-56-32.33A13,13,0,0,1,0,147.53Z"/><path class="cls-31" d="M2.35,145.58c0-.64.46-.89,1-.56l23.54,13.57a2.3,2.3,0,0,1,1,1.78l0,2c0,.64-.46.89-1,.56L3.34,149.31a2.3,2.3,0,0,1-1-1.78Z"/><path class="cls-31" d="M60.34,178.24c0-.21.15-.3.34-.19l4.1,2.37a.74.74,0,0,1,.33.58v3.56c0,.21-.15.3-.34.19l-4.1-2.37a.74.74,0,0,1-.33-.58Z"/><path class="cls-31" d="M54.23,174.75c0-.21.15-.3.34-.19l4.1,2.37a.74.74,0,0,1,.33.58v3.56c0,.21-.15.3-.34.19l-4.1-2.37a.74.74,0,0,1-.33-.58Z"/><path class="cls-31" d="M48.18,171.22c0-.21.15-.3.34-.19l4.1,2.37a.74.74,0,0,1,.33.58v3.56c0,.21-.15.3-.34.19l-4.1-2.37a.74.74,0,0,1-.33-.58Z"/><path class="cls-31" d="M42.11,167.72c0-.21.15-.3.34-.19l4.1,2.37a.74.74,0,0,1,.33.58V174c0,.21-.15.3-.34.19l-4.1-2.37a.74.74,0,0,1-.33-.58Z"/><path class="cls-31" d="M36,164.22c0-.21.15-.3.34-.19l4.1,2.37a.74.74,0,0,1,.33.58v3.56c0,.21-.15.3-.34.19l-4.1-2.37a.74.74,0,0,1-.33-.58Z"/><path class="cls-31" d="M30,160.74c0-.21.15-.3.34-.19l4.1,2.37a.74.74,0,0,1,.33.58v3.56c0,.21-.15.3-.34.19l-4.1-2.37a.74.74,0,0,1-.33-.58Z"/><path class="cls-31" d="M2.35,134.63c0-.64.46-.89,1-.56l23.54,13.57a2.3,2.3,0,0,1,1,1.78l0,2c0,.64-.46.89-1,.56L3.34,138.37a2.3,2.3,0,0,1-1-1.78Z"/><path class="cls-31" d="M60.34,167.29c0-.21.15-.3.34-.19l4.1,2.37a.74.74,0,0,1,.33.58v3.56c0,.21-.15.3-.34.19l-4.1-2.37a.74.74,0,0,1-.33-.58Z"/><path class="cls-31" d="M54.23,163.8c0-.21.15-.3.34-.19l4.1,2.37a.74.74,0,0,1,.33.58v3.56c0,.21-.15.3-.34.19l-4.1-2.37a.74.74,0,0,1-.33-.58Z"/><path class="cls-31" d="M48.18,160.27c0-.21.15-.3.34-.19l4.1,2.37a.74.74,0,0,1,.33.58v3.56c0,.21-.15.3-.34.19l-4.1-2.37a.74.74,0,0,1-.33-.58Z"/><path class="cls-31" d="M42.11,156.78c0-.21.15-.3.34-.19l4.1,2.37a.74.74,0,0,1,.33.58v3.56c0,.21-.15.3-.34.19l-4.1-2.37a.74.74,0,0,1-.33-.58Z"/><path class="cls-31" d="M36,153.28c0-.21.15-.3.34-.19l4.1,2.37a.74.74,0,0,1,.33.58v3.56c0,.21-.15.3-.34.19l-4.1-2.37a.74.74,0,0,1-.33-.58Z"/><path class="cls-31" d="M30,149.79c0-.21.15-.3.34-.19l4.1,2.37a.74.74,0,0,1,.33.58v3.56c0,.21-.15.3-.34.19l-4.1-2.37a.74.74,0,0,1-.33-.58Z"/><path class="cls-31" d="M62.49,147.59c-2-1.13-3.55-.22-3.56,2a7.8,7.8,0,0,0,3.54,6.13c2,1.13,3.56.22,3.56-2A7.8,7.8,0,0,0,62.49,147.59Z"/><path class="cls-31" d="M2.35,117.56c0-.65.46-.91,1-.56l23.85,13.75a2.33,2.33,0,0,1,1,1.8l0,2c0,.65-.46.91-1,.56L3.35,121.34a2.33,2.33,0,0,1-1-1.8Z"/><path class="cls-32" d="M80.74,99.44c0-5.73,4.07-8,9.06-5.16l51.5,29.54c5,2.88,9,9.87,9,15.6l-.21,61.13c0,5.73-4.08,8-9.06,5.16l-51.5-29.54c-5-2.88-9-9.87-9-15.6Z"/><path class="cls-33" d="M75.4,87.33c0-1.63-1.27-3-.71-4s3.13-1.83,4.21-2.17a7,7,0,0,1,5.56,1L136,111.7c5,2.88,9,9.87,9,15.6l-.21,61.13c0,2.81-1,4.79-2.57,5.75-1,.59-3.69,1.66-5,1.43-.94-.16-.42-1.41-1.47-2l-51.5-29.54c-5-2.88-9-9.87-9-15.6Z"/><path class="cls-34" d="M73.16,88.13c0-5.73,4.07-8,9.06-5.16l51.5,29.54c5,2.88,9,9.87,9,15.6l-.21,61.13c0,5.73-4.08,8-9.06,5.16l-51.5-29.54c-5-2.88-9-9.87-9-15.6Z"/><path class="cls-33" d="M97.69,110.24a23.09,23.09,0,0,1,10.79,14.41c2.2-4.72,6.79-4.87,11.34-2.39,6.39,3.47,12.72,12.1,12.37,20.48-.14,6.43-4.13,13-15,17.67-3.68,1.57-8.72,3.36-9.75,2.86l-.22-.12L107,163c-1.24-.67-5.78-7.73-9.23-13.17-10.2-16.06-13.63-26.72-13.35-33.07C84.64,108.34,91.3,106.77,97.69,110.24Z"/><polygon class="cls-35" points="127.38 148.08 127.75 110.45 121.54 166.99 120.5 134.81 116.88 141.92 113.71 140.03 113.48 118.77 109.09 147.04 108.44 137.49 104.62 134.9 104.11 104.16 99.38 143.09 98.63 131.61 95.94 130.06 95.94 114.36 92.32 130.2 91.39 125.39 90.16 126.25 88.5 116.65 87.35 132.56 86.55 124.9 53.43 107.37 85.11 125.82 87.63 149.91 89.16 128.83 90.33 128 92.2 137.57 94.41 127.91 94.41 130.94 97.16 132.52 98.93 159.54 102.95 126.4 103.11 135.73 106.97 138.34 108.85 155.2 112.26 134.78 112.17 140.88 117.5 144.07 119.18 140.77 120.78 186.61 126.22 134.74 125.82 148.96 166.4 171.34 127.38 148.08"/><path class="cls-33" d="M188.22,149c0-1.29-1-2.33-.56-3.16s2.47-1.44,3.33-1.72a5.52,5.52,0,0,1,4.39.8L236,168.28a15.68,15.68,0,0,1,7.11,12.31L243,228.87c0,2.22-.78,3.79-2,4.54a8.24,8.24,0,0,1-4,1.13c-.74-.13-.33-1.11-1.16-1.59l-40.66-23.32a15.67,15.67,0,0,1-7.11-12.31Z"/><path class="cls-36" d="M186.45,149.68c0-4.52,3.22-6.35,7.16-4.08l40.66,23.32a15.68,15.68,0,0,1,7.11,12.31l-.17,48.27c0,4.52-3.22,6.35-7.16,4.08l-40.66-23.32a15.67,15.67,0,0,1-7.11-12.31Z"/><path class="cls-19" d="M193.18,160.39c0-3.26,2.32-4.58,5.16-2.94l29.31,16.81a11.3,11.3,0,0,1,5.12,8.88l-.12,34.79c0,3.26-2.32,4.58-5.16,2.94l-29.31-16.81a11.3,11.3,0,0,1-5.12-8.88Z"/><polygon class="cls-37" points="200.33 194.82 208.8 180.83 213.07 196.36 217.42 191.07 222.84 207.73 200.33 194.82"/><path class="cls-38" d="M215.73,181.83a3.53,3.53,0,0,1,2.32,3c.12,1.39-.73,2.28-1.89,2a3.53,3.53,0,0,1-2.32-3C213.72,182.44,214.57,181.55,215.73,181.83Z"/><path class="cls-39" d="M219.44,212.51c0-.32.23-.45.51-.29l4.9,2.63a1.12,1.12,0,0,1,.51.88v1.2c0,.32-.23.45-.51.29l-4.9-2.63a1.12,1.12,0,0,1-.51-.88Z"/><path class="cls-40" d="M198.55,160.67a4.87,4.87,0,0,1,3.14,4.15c.16,1.88-1,3.06-2.55,2.65a4.87,4.87,0,0,1-3.14-4.15C195.84,161.44,197,160.25,198.55,160.67Z"/><path class="cls-13" d="M198.68,162.23a2.62,2.62,0,0,1,1.69,2.24c.09,1-.53,1.65-1.37,1.43a2.62,2.62,0,0,1-1.69-2.24C197.22,162.65,197.83,162,198.68,162.23Z"/><path class="cls-40" d="M202.54,164.44c0-.4.28-.55.63-.35L213.66,170a1.41,1.41,0,0,1,.62,1.09v.79c0,.4-.28.55-.63.35l-10.49-5.95a1.4,1.4,0,0,1-.62-1.09Z"/><path class="cls-40" d="M202.54,167.33c0-.23.17-.33.37-.21l6.19,3.51a.83.83,0,0,1,.37.64v.46c0,.23-.17.33-.37.21l-6.19-3.51a.83.83,0,0,1-.37-.64Z"/><path class="cls-41" d="M195.66,170.88c0-2.11,1.5-3,3.33-1.9l27.21,15.43a7.3,7.3,0,0,1,3.31,5.73l-.08,22.47c0,2.1-1.5,3-3.33,1.9l-27.21-15.43a7.3,7.3,0,0,1-3.31-5.73Z"/></g></g></g></svg>