<svg xmlns="http://www.w3.org/2000/svg" xmlns:xlink="http://www.w3.org/1999/xlink" viewBox="0 0 1308.51 1390.66"><defs><style>.cls-1{isolation:isolate;}.cls-2{fill:#8c8de3;}.cls-10,.cls-11,.cls-12,.cls-13,.cls-15,.cls-16,.cls-17,.cls-18,.cls-19,.cls-2,.cls-20,.cls-21,.cls-22,.cls-23,.cls-24,.cls-25,.cls-26,.cls-27,.cls-28,.cls-29,.cls-3,.cls-30,.cls-31,.cls-32,.cls-33,.cls-34,.cls-35,.cls-36,.cls-37,.cls-38,.cls-39,.cls-4,.cls-40,.cls-41,.cls-5,.cls-6,.cls-7,.cls-8,.cls-9{fill-rule:evenodd;}.cls-3{fill:url(#linear-gradient);}.cls-4{fill:url(#linear-gradient-2);}.cls-5{fill:#4a9ff8;}.cls-6{fill:#d0e7ff;}.cls-7{fill:#fff;}.cls-8{fill:url(#linear-gradient-3);}.cls-9{fill:#6d6afd;opacity:0.2;}.cls-10{fill:url(#linear-gradient-4);}.cls-11{fill:#4165f3;}.cls-12{fill:#22d2fb;}.cls-13{fill:url(#linear-gradient-5);}.cls-14{fill:#0a3c5f;}.cls-15{fill:#1466a0;}.cls-16{fill:#daeafa;}.cls-17{fill:#b4cce5;}.cls-18{fill:#12a3eb;}.cls-19{fill:#1c8df3;}.cls-20,.cls-23{opacity:0.5;mix-blend-mode:multiply;}.cls-20{fill:url(#linear-gradient-6);}.cls-21{fill:url(#linear-gradient-7);}.cls-22{fill:#fffcf1;}.cls-23{fill:url(#linear-gradient-8);}.cls-24{fill:url(#linear-gradient-9);}.cls-25{fill:url(#linear-gradient-10);}.cls-26{fill:#e23b93;}.cls-27{fill:url(#linear-gradient-11);}.cls-28{fill:#fdbebe;}.cls-29{fill:#fa7bb4;}.cls-30{fill:#9157dd;}.cls-31{fill:#8241d8;}.cls-31,.cls-33{opacity:0.88;}.cls-32{fill:url(#linear-gradient-12);}.cls-33{fill:#ff89db;}.cls-34{fill:url(#GradientFill_17);}.cls-35{fill:#1994f0;}.cls-36{fill:url(#linear-gradient-13);}.cls-37{fill:#00edff;}.cls-38{fill:#0d7ae9;}.cls-39{fill:#494cec;}.cls-40{fill:url(#linear-gradient-14);}.cls-41{fill:#aab4ff;}</style><linearGradient id="linear-gradient" x1="766.02" y1="516.95" x2="583.16" y2="1204.07" gradientUnits="userSpaceOnUse"><stop offset="0" stop-color="#d1e8ff"/><stop offset="1" stop-color="#83aaf2"/></linearGradient><linearGradient id="linear-gradient-2" x1="795.58" y1="262.4" x2="559.84" y2="1360.59" gradientUnits="userSpaceOnUse"><stop offset="0" stop-color="#6d6afe"/><stop offset="1" stop-color="#3fb0f7"/></linearGradient><linearGradient id="linear-gradient-3" x1="839.43" y1="80.6" x2="845.05" y2="29.18" xlink:href="#linear-gradient-2"/><linearGradient id="linear-gradient-4" x1="817.16" y1="166.48" x2="829.42" y2="113.58" xlink:href="#linear-gradient-2"/><linearGradient id="linear-gradient-5" x1="521.32" y1="708.74" x2="507.44" y2="820.18" gradientUnits="userSpaceOnUse"><stop offset="0" stop-color="#fd90da"/><stop offset="1" stop-color="#8e6dfd"/></linearGradient><linearGradient id="linear-gradient-6" x1="500.93" y1="566.54" x2="575.11" y2="318.42" gradientUnits="userSpaceOnUse"><stop offset="0" stop-color="#965cf2"/><stop offset="1" stop-color="#ff8adc"/></linearGradient><linearGradient id="linear-gradient-7" x1="479.63" y1="316.74" x2="395.07" y2="594.5" xlink:href="#linear-gradient-2"/><linearGradient id="linear-gradient-8" x1="909.38" y1="827.09" x2="843.74" y2="581.29" xlink:href="#linear-gradient-6"/><linearGradient id="linear-gradient-9" x1="947.67" y1="738.46" x2="956.68" y2="665.97" xlink:href="#linear-gradient-2"/><linearGradient id="linear-gradient-10" x1="846.83" y1="774.98" x2="856.99" y2="731.11" xlink:href="#linear-gradient-2"/><linearGradient id="linear-gradient-11" x1="1169.11" y1="505.32" x2="1208.28" y2="578.46" gradientUnits="userSpaceOnUse"><stop offset="0" stop-color="#fa5db1"/><stop offset="1" stop-color="#febfbf"/></linearGradient><linearGradient id="linear-gradient-12" x1="1161.38" y1="657.39" x2="1187.81" y2="562.61" xlink:href="#linear-gradient-6"/><linearGradient id="GradientFill_17" x1="133.84" y1="363.35" x2="118.94" y2="393.97" gradientUnits="userSpaceOnUse"><stop offset="0" stop-color="#3964af"/><stop offset="1" stop-color="#00bcce"/></linearGradient><linearGradient id="linear-gradient-13" x1="133.59" y1="361.9" x2="103.57" y2="432.29" gradientUnits="userSpaceOnUse"><stop offset="0" stop-color="#1c8ef4"/><stop offset="1" stop-color="#00cfdd"/></linearGradient><linearGradient id="linear-gradient-14" x1="168.89" y1="468.13" x2="124.97" y2="402.14" xlink:href="#linear-gradient-2"/></defs><title>01_riskfactor</title><g class="cls-1"><g id="Layer_2" data-name="Layer 2"><g id="Layer_1-2" data-name="Layer 1"><path class="cls-2" d="M918.41,1344.72l-471.88-261c-11.58-5.29-28.61-10.28-40-3.36l-29.07,17.71c-5.85,3.56-25.08,15.39-12.22,22.38,37.84,20.57,439.38,244.53,477.81,265.44,7.27,4,17.9,5.38,29.06,4.46s22.65-3.93,31.47-9.37l11.61-7.16c8.21-5.06,12.75-10.59,13.19-15.9S925.52,1348,918.41,1344.72Z"/><path class="cls-3" d="M551,163.44c-6.8-3.86-14.78-5.3-22.25-2.49L512,167.48C506,198.87,857.91,1349.39,865.66,1357.37l14.91-5.63c9.79-3.85,14.92-14,16.36-23.95l125.86-859.15a.45.45,0,0,0,0-.1c2-14.45-2.29-29.49-10.24-41.56-4.28-6.51-9.9-12.47-16.81-16.21Z"/><path class="cls-4" d="M979.28,417.14,534.53,169.8c-18.14-10.05-35.41-.4-38.61,21.48L370,1050.43c-3.2,21.88,8.85,47.79,27,57.84L841.8,1355.61c18.14,10.05,35.45.42,38.65-21.45L1006.31,475C1009.52,453.13,997.42,427.19,979.28,417.14Z"/><path class="cls-5" d="M979.28,417.14,534.53,169.8c-18.14-10.05-35.41-.4-38.61,21.48l-6.44,44L999.85,519.11l6.46-44.1C1009.52,453.13,997.42,427.19,979.28,417.14Z"/><path class="cls-6" d="M770.72,23.92c.94-7.21-1-11.56,2.56-15.63,2.28-2.59,9.46-5.94,12.47-7.07C791.56-1,798.5-.28,805.6,3.83l90.81,54C913,67.44,924.19,92,921.48,112.65L907.4,216.38c-.84,6.4-3.23,14.67-8.69,19.38-3.89,3.36-10.4,6.84-15,7.42s-5.95-3.66-11.22-6.71l-90.81-54c-16.56-9.59-27.78-34.13-25.07-54.79Z"/><path class="cls-7" d="M765.15,27.22C767.86,6.56,783.48-2.46,800,7.13l90.81,54c16.54,9.58,27.77,34.13,25.07,54.79L901.84,219.67c-2.71,20.66-18.35,29.67-34.89,20.09l-90.81-54c-16.56-9.58-27.78-34.13-25.07-54.79Z"/><path class="cls-8" d="M765.15,27.22C767.86,6.55,783.48-2.46,800,7.13l90.81,54c16.54,9.58,27.77,34.13,25.06,54.79l-1.32,9.74a53.17,53.17,0,0,0-5.54-3.7L763.93,36.21Z"/><path class="cls-9" d="M825,86.55c25.23,5.77,44.6,35.81,43.28,67.09s-22.85,52-48.08,46.19-44.6-35.81-43.28-67.09S799.73,80.78,825,86.55Z"/><path class="cls-10" d="M823.85,112.65c13.6,3.11,24,19.31,23.33,36.17s-12.32,28-25.92,24.91-24-19.31-23.33-36.17,12.32-28,25.92-24.9ZM823.25,127c-7.22-1.65-13.39,4.27-13.77,13.23s5.17,17.56,12.39,19.21,13.39-4.27,13.77-13.23S830.47,128.62,823.25,127Z"/><path class="cls-7" d="M787.56,18.11c4.56,1,8.06,6.47,7.82,12.12s-4.13,9.39-8.69,8.35-8.06-6.47-7.82-12.12S783,17.07,787.56,18.11Z"/><path class="cls-7" d="M808.32,30c4.56,1,8.06,6.47,7.82,12.12s-4.13,9.39-8.69,8.35-8.06-6.47-7.82-12.12S803.76,29,808.32,30Z"/><path class="cls-7" d="M830.78,43.13c4.56,1,8.06,6.47,7.82,12.12s-4.13,9.39-8.69,8.35-8.06-6.47-7.82-12.12S826.22,42.09,830.78,43.13Z"/><path class="cls-5" d="M410.74,937.05l151.67,83.16.66-4.58L411.4,932.47l18.5-126,151.67,83.11.66-4.58L430.57,801.85l18.45-126L600.75,759l.66-4.58L449.73,671.24l18.45-126.08,151.66,83.15.72-4.58-151.72-83.1,18.49-126.08L639,497.68l.66-4.57L488,410l18.51-126,151.67,83.13-18.51,126-.66,4.58-18.44,126-.72,4.58L601.41,754.4l-.66,4.58L582.24,885l-.66,4.58-18.5,126.08-.66,4.58-18.5,126h0l-151.67-83.16,18.51-126ZM813.87,452.42,662.19,369.28l-18.51,126,151.67,83.12L794.7,583,643,499.88h0l-18.5,126,151.73,83.16-.71,4.58L623.86,630.52,605.42,756.59,757.08,839.7l-.71,4.58L604.7,761.12h0l-18.44,126,151.66,83.15-.66,4.58L585.59,891.74h0l-18.5,126.08,151.66,83.1-.66,4.6-151.66-83.1h0l-18.51,126,151.66,83.15h0l18.5-126.08.66-4.6,18.51-126,.66-4.58,18.45-126,.71-4.58,18.45-126,.71-4.58L794.7,583l.66-4.58,18.51-126Zm155.68,85.33L951,663.77l-.66,4.58-18.5,126-.65,4.58L912.77,925l-.71,4.58-18.46,126-.66,4.58-18.5,126.08-.66,4.58-18.51,126h0L703.6,1233.79l18.5-126.08h0l151.68,83.16.66-4.58-151.68-83.16,18.51-126h0l151.67,83.11.66-4.58L741.93,972.51l18.45-126h0l151.67,83.16.71-4.58L761.09,841.89l18.45-126L931.22,799l.65-4.58L780.21,711.28l18.5-126.08h0l151.66,83.16.66-4.58L799.36,580.61l18.51-126h0l151.67,83.15ZM503.15,277.17l-115.59,788.3,471,258.18L973.91,535.21Z"/><path class="cls-11" d="M657.92,1119.59l-16.48-9.1c-2.66-1.48-4.57-4.9-4.73-8.49l-.88-22.27a10.06,10.06,0,0,0-4.7-8.48,4.79,4.79,0,0,0-7,2l-9.25,16.63a4.86,4.86,0,0,1-7,2l-16.47-9.16c-6-3.34-10.47,4.72-6.56,11.73l10.78,19.38c1.74,3.11,1.9,7.05.39,9.72l-9.29,16.6c-2.55,4.54-.14,11.1,3.7,13.23a5,5,0,0,0,3.92.5l15.9-4.66a5.07,5.07,0,0,1,3.93.54,8.7,8.7,0,0,1,3.29,3.46l10.74,19.43a8.65,8.65,0,0,0,3.28,3.49c3.83,2.12,8.26-.64,8-6.75l-1-22.28c-.14-3.58,1.5-6.52,4.07-7.24l15.93-4.58C664.31,1133.66,663.87,1122.89,657.92,1119.59Z"/><path class="cls-6" d="M671.25,849.54c-9.28-5.15-19.13,1.79-19,15.22a26.86,26.86,0,0,0,7.64,18.59,18.2,18.2,0,0,0,3.76,2.82c9.26,5.13,19.06-1.8,19-15.17A26.81,26.81,0,0,0,675,852.38a18.39,18.39,0,0,0-3.79-2.84Zm-8.94,42.94a24.61,24.61,0,0,1-5-3.78c-6.27-6-10.19-15.66-10.29-25-.11-18,13.1-27.37,25.57-20.46a24.39,24.39,0,0,1,5.12,3.85c6.25,6,10.17,15.64,10.21,25,.08,18-13.11,27.31-25.57,20.4Zm42.49-15.3a6.81,6.81,0,0,1,2.88,7.08l-2.27,10.55c-.58,2.69-2.81,3.89-5,2.69l-1.11-.62a3.11,3.11,0,0,0-4.39,1.21,33.59,33.59,0,0,1-2,3,6.23,6.23,0,0,0-.45,6l.58,1.43c1.12,2.73.45,5.83-1.48,6.88l-7.64,4.13a3.16,3.16,0,0,1-3.1-.11,5.91,5.91,0,0,1-2.48-3l-.59-1.4a5.83,5.83,0,0,0-2.46-2.94,3.57,3.57,0,0,0-1.83-.47c-1.08,0-2.18,0-3.27-.14-1.75-.17-3.2,1.07-3.65,3.13l-.29,1.38c-.58,2.69-2.81,3.89-5,2.69l-8.52-4.72a6.81,6.81,0,0,1-2.89-7.06l.3-1.37a7.18,7.18,0,0,0-1.67-6.08c-.92-1-1.77-2.05-2.62-3.12a5.3,5.3,0,0,0-1.62-1.45,3.12,3.12,0,0,0-3.06-.11l-1,.51a3.15,3.15,0,0,1-3.1-.11,5.92,5.92,0,0,1-2.48-3l-4.43-10.82c-1.11-2.73-.44-5.84,1.48-6.88l1-.55c1.5-.81,2.26-2.86,1.94-5.14-.2-1.45-.35-2.9-.44-4.36a6.59,6.59,0,0,0-3-5.3l-1.11-.62a6.81,6.81,0,0,1-2.89-7.05l2.27-10.55c.58-2.72,2.82-3.93,5-2.72l1.11.61a3.11,3.11,0,0,0,4.39-1.21,31.78,31.78,0,0,1,2-3,6.18,6.18,0,0,0,.44-5.95l-.58-1.43c-1.1-2.76-.44-5.83,1.49-6.9l7.64-4.13a3.16,3.16,0,0,1,3.1.11,5.92,5.92,0,0,1,2.48,3l.58,1.43a5.84,5.84,0,0,0,2.46,2.95,3.53,3.53,0,0,0,1.83.47,26.47,26.47,0,0,1,3.27.11c1.74.2,3.2-1,3.64-3.1l.3-1.38c.58-2.72,2.82-3.93,5-2.72l8.52,4.72a6.81,6.81,0,0,1,2.88,7.08l-.3,1.38a7.1,7.1,0,0,0,1.65,6q1.37,1.51,2.64,3.17a5.3,5.3,0,0,0,1.62,1.45,3.12,3.12,0,0,0,3.06.12l1-.55a3.15,3.15,0,0,1,3.1.11,5.92,5.92,0,0,1,2.48,3l4.42,10.82c1.11,2.75.45,5.84-1.48,6.91l-1,.54c-1.5.81-2.26,2.86-1.94,5.12q.3,2.17.44,4.36a6.58,6.58,0,0,0,3,5.31Z"/><path class="cls-12" d="M507.58,1066.94c-5.6,26-27.29,37.77-48.33,26.11s-33.59-42.4-28-68.41,27.32-37.76,48.33-26.11,33.58,42.39,28,68.41Zm-33.91-10.66a8.53,8.53,0,0,0,4-5.91,14.82,14.82,0,0,0-3.8-13.05l5-23.36a4.12,4.12,0,0,0-1.73-4.23c-1.28-.71-2.62.05-3,1.63l-5,23.36c-3.68-.66-7,1.89-8,6.5-1.22,5.66,1.5,12.25,6,14.76a8.37,8.37,0,0,0,2.85,1l9.49,34.6a2.59,2.59,0,0,0,1.23,1.66,2.15,2.15,0,0,0,1.17.28c1,0,1.48-1.55,1.11-2.88l-9.41-34.34Zm7.73-66.15c-24.77-13.73-50.31.08-56.91,30.75s8.18,66.87,32.95,80.6,50.35-.1,56.94-30.77S506.16,1003.86,481.39,990.13Z"/><path class="cls-13" d="M567.43,744.05l-95.35-52.42c-3.62-1.9-7,0-7.45,4.21L452.4,800.38c-.5,4.26,2,9.24,5.65,11.14l95.35,52.42c3.62,1.9,6.92,0,7.42-4.27L573,755.13C573.54,750.88,571,745.95,567.43,744.05Z"/><path class="cls-7" d="M555.44,754.29c2.27,1.19,3.36,4.76,2,6.51L511,820.68a2.14,2.14,0,0,1-2.82.43,5,5,0,0,1-2.2-2.65l-28.19-73.72c-1.18-3,.61-5.55,3-4.26l13.46,7.08a5.13,5.13,0,0,1,2.23,2.69l11.66,30.51a5,5,0,0,0,2.21,2.66,2.1,2.1,0,0,0,2.8-.43l27.06-34.78a2.14,2.14,0,0,1,2.81-.41Z"/><path class="cls-12" d="M782,597.61,649,525.46c-1.93-1.05-3.74,0-4.1,2.24l-1.8,11.52a6.12,6.12,0,0,0,2.81,6l133,72.15c1.89,1,3.7,0,4.06-2.26l1.81-11.52A6.19,6.19,0,0,0,782,597.61Z"/><path class="cls-12" d="M774.12,640.08l-70.79-38.73c-1.92-1-3.74,0-4.1,2.24l-.54,3.45a6.2,6.2,0,0,0,2.81,6l70.78,38.73c1.89,1,3.71,0,4.06-2.26l.54-3.46A6.18,6.18,0,0,0,774.12,640.08Z"/><ellipse class="cls-14" cx="924.26" cy="445.4" rx="13.34" ry="15.04" transform="translate(113.21 1073.77) rotate(-63.5)"/><path class="cls-15" d="M931,437.23c8.88,9.42-1.48,22.43-13.27,16.75,7.37,5.47,15.43,2.27,18.08-3.31C937.75,446.6,936.68,441.19,931,437.23Z"/><path class="cls-16" d="M977.32,347.72c19.6,9.22,24.51,35,14.58,61.36L979,401.49c5.24-17.32,5.31-32.67-8.68-39.25s-39.51,5.18-50.44,25.86-9.09,41.84,6.32,49.1c4.24,2,5.21,5.86,3.93,9.8-1.46,4.48-6.35,5.65-10,4.25-.72-.28-1.43-.59-2.13-.92-22.22-10.45-27.14-38.69-11.38-68.49S955.1,337.27,977.32,347.72Z"/><path class="cls-17" d="M988.91,407.32,979,401.49c5.24-17.32,5.31-32.67-8.68-39.25s-39.51,5.18-50.44,25.86-9.09,41.84,6.32,49.1a7.13,7.13,0,0,1,4.42,5.9c-6.28-.3-16.38-6.59-20.37-19.61-6.75-22,5.94-45.15,22.79-58.78,16.3-13.19,34.72-13.64,44.11-8.45C999.88,368.82,992.24,397.13,988.91,407.32Z"/><ellipse class="cls-14" cx="848.99" cy="401.72" rx="13.34" ry="15.04" transform="translate(110.62 982.22) rotate(-63.5)"/><path class="cls-15" d="M855.75,393.55c8.88,9.42-1.48,22.43-13.27,16.75,7.37,5.47,15.43,2.27,18.08-3.31C862.49,402.92,861.42,397.52,855.75,393.55Z"/><path class="cls-16" d="M902.06,304c19.6,9.22,24.51,35,14.59,61.36l-12.87-7.6c5.24-17.32,5.31-32.67-8.68-39.25s-39.5,5.18-50.44,25.86-9.09,41.84,6.32,49.1c4.24,2,5.21,5.87,3.93,9.8-1.46,4.48-6.35,5.65-10,4.25-.72-.28-1.43-.59-2.13-.92-22.22-10.45-27.14-38.69-11.38-68.5S879.84,293.59,902.06,304Z"/><path class="cls-17" d="M913.64,363.64l-9.87-5.83c5.24-17.32,5.31-32.67-8.68-39.25s-39.5,5.18-50.44,25.86-9.09,41.84,6.32,49.1a7.13,7.13,0,0,1,4.42,5.9c-6.28-.3-16.38-6.59-20.37-19.61-6.75-22,5.94-45.15,22.79-58.78,16.3-13.19,34.73-13.64,44.11-8.45C924.61,325.14,917,353.45,913.64,363.64Z"/><ellipse class="cls-14" cx="773.91" cy="358.04" rx="13.34" ry="15.04" transform="translate(108.16 890.87) rotate(-63.5)"/><path class="cls-15" d="M780.67,349.87c8.88,9.42-1.48,22.43-13.27,16.75,7.37,5.47,15.43,2.27,18.08-3.31C787.41,359.24,786.34,353.84,780.67,349.87Z"/><path class="cls-16" d="M827,260.37c19.6,9.22,24.51,35,14.59,61.36l-12.87-7.6c5.24-17.32,5.31-32.67-8.68-39.25s-39.5,5.18-50.44,25.86-9.09,41.84,6.32,49.1c4.24,2,5.21,5.86,3.93,9.8-1.46,4.48-6.35,5.65-10,4.25-.72-.28-1.43-.59-2.13-.92-22.22-10.45-27.14-38.69-11.38-68.49S804.76,249.91,827,260.37Z"/><path class="cls-17" d="M838.56,320l-9.87-5.83c5.24-17.32,5.31-32.67-8.68-39.25s-39.5,5.18-50.44,25.86-9.09,41.84,6.32,49.1a7.13,7.13,0,0,1,4.42,5.9c-6.28-.3-16.38-6.59-20.37-19.61-6.75-22,5.94-45.15,22.79-58.78,16.3-13.19,34.73-13.64,44.11-8.44C849.53,281.46,841.89,309.77,838.56,320Z"/><ellipse class="cls-14" cx="699.01" cy="314.54" rx="13.34" ry="15.04" transform="translate(105.61 799.75) rotate(-63.5)"/><path class="cls-15" d="M705.76,306.36c8.88,9.42-1.48,22.43-13.27,16.75,7.36,5.47,15.43,2.27,18.08-3.31C712.51,315.73,711.44,310.33,705.76,306.36Z"/><path class="cls-16" d="M752.08,216.86c19.6,9.22,24.51,35,14.59,61.36l-12.87-7.6c5.24-17.32,5.31-32.67-8.68-39.25s-39.5,5.18-50.44,25.86-9.09,41.84,6.32,49.1c4.24,2,5.21,5.87,3.93,9.8-1.46,4.48-6.35,5.65-10,4.25-.72-.28-1.43-.59-2.13-.92C670.57,309,665.65,280.76,681.42,251S729.86,206.41,752.08,216.86Z"/><path class="cls-17" d="M763.66,276.45l-9.87-5.83c5.24-17.32,5.31-32.67-8.68-39.25s-39.5,5.18-50.44,25.86-9.09,41.84,6.32,49.1a7.13,7.13,0,0,1,4.42,5.9c-6.28-.3-16.38-6.59-20.37-19.61-6.75-22,5.94-45.15,22.79-58.78,16.3-13.19,34.73-13.64,44.11-8.44C774.63,238,767,266.27,763.66,276.45Z"/><ellipse class="cls-14" cx="623.98" cy="270.88" rx="13.34" ry="15.04" transform="translate(103.13 708.41) rotate(-63.5)"/><path class="cls-15" d="M630.73,262.7c8.88,9.42-1.48,22.43-13.27,16.76,7.37,5.47,15.43,2.27,18.08-3.31C637.48,272.07,636.41,266.68,630.73,262.7Z"/><path class="cls-16" d="M677,173.2c19.6,9.22,24.51,35,14.59,61.36L678.76,227c5.24-17.32,5.31-32.67-8.68-39.25s-39.5,5.18-50.44,25.86-9.09,41.84,6.32,49.1c4.24,2,5.21,5.86,3.93,9.8-1.46,4.48-6.35,5.65-10,4.25-.72-.28-1.43-.59-2.13-.92-22.22-10.45-27.14-38.69-11.38-68.49S654.83,162.75,677,173.2Z"/><path class="cls-17" d="M688.63,232.79,678.76,227c5.24-17.32,5.31-32.67-8.68-39.25s-39.5,5.18-50.44,25.86-9.09,41.84,6.32,49.1a7.13,7.13,0,0,1,4.42,5.9C624.1,268.27,614,262,610,249c-6.75-22,5.94-45.15,22.79-58.78,16.3-13.19,34.73-13.64,44.11-8.45C699.6,194.29,692,222.61,688.63,232.79Z"/><ellipse class="cls-14" cx="549.03" cy="227.38" rx="13.34" ry="15.04" transform="translate(100.56 617.26) rotate(-63.5)"/><path class="cls-15" d="M555.78,219.2c8.88,9.42-1.48,22.43-13.27,16.76,7.36,5.47,15.43,2.27,18.08-3.31C562.52,228.57,561.46,223.17,555.78,219.2Z"/><path class="cls-16" d="M602.09,129.7c19.6,9.22,24.51,35,14.59,61.36l-12.87-7.6c5.24-17.32,5.31-32.67-8.68-39.25s-39.5,5.18-50.44,25.86-9.09,41.84,6.32,49.1c4.24,2,5.21,5.86,3.93,9.8-1.46,4.48-6.35,5.65-10,4.25-.72-.28-1.43-.59-2.13-.92-22.22-10.45-27.14-38.69-11.38-68.49S579.87,119.25,602.09,129.7Z"/><path class="cls-17" d="M613.68,189.29l-9.87-5.83c5.24-17.32,5.31-32.67-8.68-39.25s-39.5,5.18-50.44,25.86-9.09,41.84,6.32,49.1a7.13,7.13,0,0,1,4.42,5.9c-6.28-.3-16.38-6.59-20.37-19.61-6.75-22,5.94-45.15,22.79-58.78,16.3-13.19,34.73-13.64,44.11-8.45C624.65,150.79,617,179.11,613.68,189.29Z"/><path class="cls-12" d="M680.31,442.62c-3.26,29.29,13,65.06,36.32,79.85s45.72-4.26,48.17-26.31-1.67-31.22-8.34-45.75c-4.06,2.24-8.12,4.48-12.18,6.68,4.33,9.34,7,15.32,5.42,29.5s-16,26.4-31,16.9S693.32,471,695.41,452.2C690.43,449,685.35,445.82,680.31,442.62Z"/><path class="cls-18" d="M696.89,412.95c-8.72,4.73-15,15-16.59,29.68,5,3.2,10.12,6.4,15.11,9.57,1-9.4,5-16,10.64-19.07Q701.45,423.06,696.89,412.95Z"/><path class="cls-19" d="M728.48,416.3c-11.68-7.39-22.89-8.13-31.58-3.4q4.54,10.13,9.15,20.22c5.61-3,12.82-2.58,20.28,2.16s13.88,12.88,18.09,22.14c4.06-2.2,8.11-4.39,12.18-6.64C750,436.33,740.16,423.7,728.48,416.3Z"/><path class="cls-12" d="M727.51,986.41l-133-72.15c-1.93-1.05-3.74,0-4.1,2.24L588.61,928a6.13,6.13,0,0,0,2.81,6l133,72.15c1.89,1,3.7,0,4.06-2.26l1.81-11.52A6.2,6.2,0,0,0,727.51,986.41Z"/><path class="cls-12" d="M660.21,993.53,589.42,954.8c-1.92-1-3.74,0-4.1,2.24l-.54,3.46a6.2,6.2,0,0,0,2.81,6l70.78,38.73c1.89,1,3.71,0,4.06-2.26l.54-3.46A6.18,6.18,0,0,0,660.21,993.53Z"/><path class="cls-20" d="M578.15,366.89l-97.65-47.2L442,560.85l-5,33.88,101.53,54.79c17.64,9.77,34.48.41,37.59-20.86l28.32-205.49C607.56,401.89,595.79,376.66,578.15,366.89Z"/><path class="cls-6" d="M566.24,424.24,535.82,620.83l3.18.39,8.68-3.37c9.52-3.75,14.51-13.66,15.91-23.29l25.13-179.08a.73.73,0,0,0,0-.1c2-14.05-2.23-28.68-10-40.42-4.16-6.33-9.63-12.12-16.35-15.76L375.68,257.7c-6.62-3.76-14.38-5.16-21.64-2.42l-7.65,3c-3.85,1.45-5,2.61-5,2.84C345,294.79,571.31,389.7,566.24,424.24Z"/><path class="cls-21" d="M553.66,362.63,366.93,261.15c-7.73-4.28-15.3-4.89-21.63-2.42-8.11,3.16-14.18,11.36-15.93,23.31L304.25,461.13c-3.12,21.28,8.61,46.48,26.25,56.26L517.24,618.86c17.64,9.77,34.48.41,37.59-20.86L580,418.91C583.08,397.63,571.3,372.4,553.66,362.63Z"/><path class="cls-22" d="M519.07,570.93,331.46,470.24c-4.33-2.32-8.46.07-9.3,5.44-.82,5.19,2,11.31,6.33,13.64L516.08,590c4.33,2.33,8.54,0,9.38-5.41.81-5.18-2.08-11.34-6.4-13.67Zm8.39-54.52c4.32,2.33,7.2,8.49,6.4,13.67-.84,5.37-5.06,7.73-9.38,5.41L336.87,434.8c-4.33-2.33-7.14-8.44-6.32-13.64.84-5.37,5-7.76,9.3-5.44l187.61,100.7Zm19.3-123.62L359.15,292.1c-4.32-2.33-8.46.07-9.27,5.26l-2.09,13.33c-.8,5.19,2,11.31,6.33,13.63L541.72,425c4.32,2.31,8.53,0,9.35-5.22l2.08-13.34c.82-5.18-2.08-11.34-6.4-13.67Zm-10.86,69.54c4.32,2.32,7.22,8.4,6.42,13.59-.86,5.47-5.06,7.72-9.38,5.4L345.33,380.62c-4.33-2.32-7.15-8.35-6.35-13.53.86-5.46,5-7.77,9.3-5.45Z"/><path class="cls-23" d="M803.84,633.68c2.71-20.66,18.33-29.68,34.88-20.09l146.33,85.53L962,884l-17.35,11.25L811.42,817.32c-16.56-9.58-27.78-34.13-25.07-54.79Z"/><path class="cls-6" d="M822.61,641.89c.94-7.21-1-11.56,2.56-15.63,2.28-2.59,9.46-5.93,12.47-7.07,5.81-2.19,12.75-1.5,19.86,2.61l205.37,120c16.54,9.58,27.77,34.13,25.06,54.79l-14.08,103.73c-.84,6.4-3.22,14.67-8.69,19.38-3.89,3.36-10.4,6.84-15,7.42s-5.95-3.66-11.22-6.71l-205.36-120c-16.56-9.59-27.78-34.13-25.07-54.79Z"/><path class="cls-7" d="M817,645.18c2.71-20.66,18.33-29.68,34.88-20.09l205.36,120c16.54,9.58,27.77,34.13,25.06,54.79l-14.08,103.73c-2.71,20.66-18.35,29.66-34.89,20.09L828,803.7c-16.56-9.59-27.78-34.13-25.07-54.79Z"/><path class="cls-24" d="M817,645.18c2.71-20.66,18.33-29.68,34.88-20.09l205.36,120c16.54,9.58,27.77,34.13,25.07,54.79l-1.32,9.74a53.48,53.48,0,0,0-5.54-3.7L815.82,654.17Z"/><path class="cls-9" d="M853.29,708.7c20.92,4.79,37,29.69,35.88,55.63s-18.95,43.08-39.86,38.3-37-29.69-35.88-55.63S832.38,703.91,853.29,708.7Z"/><path class="cls-25" d="M852.37,730.34c11.28,2.58,19.94,16,19.35,30S861.51,783.56,850.23,781s-19.94-16-19.35-30,10.22-23.23,21.49-20.65Zm-.5,11.87c-6-1.37-11.1,3.54-11.42,11s4.29,14.56,10.28,15.93,11.1-3.54,11.41-11S857.86,743.58,851.87,742.21Z"/><path class="cls-9" d="M901.71,758.61c.72-5.51,4.88-7.85,9.29-5.22l134.1,76c4.4,2.63,7.39,9.25,6.67,14.77l-1.4,10.91c-.72,5.51-4.89,7.85-9.29,5.22l-134.1-76c-4.41-2.64-7.4-9.25-6.67-14.77Z"/><path class="cls-9" d="M896.56,798.73c.43-3.25,2.88-4.64,5.49-3.08l79.19,44.9c2.6,1.56,4.37,5.46,3.94,8.72l-.83,6.44c-.43,3.25-2.89,4.64-5.49,3.08l-79.19-44.9c-2.6-1.56-4.37-5.46-3.94-8.72Z"/><path class="cls-7" d="M839.45,636.08c4.56,1,8.06,6.47,7.82,12.12s-4.13,9.39-8.69,8.35-8.06-6.47-7.82-12.12S834.89,635,839.45,636.08Z"/><path class="cls-7" d="M860.21,648c4.56,1,8.06,6.47,7.82,12.12s-4.13,9.39-8.69,8.35-8.06-6.47-7.82-12.12S855.65,647,860.21,648Z"/><path class="cls-7" d="M882.67,661.1c4.56,1,8.06,6.47,7.82,12.12s-4.13,9.39-8.69,8.35-8.06-6.47-7.82-12.12S878.11,660.05,882.67,661.1Z"/><path class="cls-26" d="M1210.69,500c-.79.13-1.59.33-2.39.48-37.12,7.12-77.66,39.34-91.82,74.46l10.41,15A94.77,94.77,0,0,1,1140,567.52c.94-1.22,1.94-2.41,2.94-3.6,17.55-21,43.93-38.39,70.47-45.28.52-.14,1-.29,1.56-.41,18.75-4.57,44.07-4.88,56,12.34l-10.41-15C1250,500.26,1227.49,497.19,1210.69,500Z"/><path class="cls-26" d="M1291.43,496.82c.32.53.65,1.06.95,1.6s.51,1,.76,1.45.56,1.11.81,1.67.44,1,.65,1.53.46,1.14.67,1.72.37,1.07.54,1.61.37,1.19.53,1.8.29,1.09.41,1.65.29,1.31.42,2,.2,1.12.29,1.69.19,1.37.27,2.06.12,1.12.17,1.69c.07.85.11,1.7.14,2.57,0,.52,0,1,0,1.57,0,1,0,2-.07,2.94,0,.43,0,.86,0,1.3-.1,1.6-.27,3.23-.49,4.88-.06.42-.14.85-.2,1.28q-.3,1.92-.7,3.88c-.13.59-.25,1.19-.39,1.78-.18.76-.37,1.53-.58,2.3s-.37,1.4-.58,2.11-.47,1.56-.72,2.35-.47,1.44-.72,2.17-.57,1.59-.87,2.39-.55,1.47-.85,2.21-.68,1.63-1,2.45c-.44,1-.86,2-1.34,3.05q-1.17,2.52-2.48,5t-2.72,5l10.41,15c1.89-3.27,3.64-6.62,5.2-10q.37-.8.73-1.59c.22-.49.41-1,.62-1.47.35-.82.7-1.63,1-2.44s.58-1.48.85-2.22.59-1.59.87-2.38.49-1.46.72-2.18.49-1.56.72-2.34.4-1.42.58-2.12.4-1.53.57-2.29c.07-.31.17-.63.23-.94s.09-.56.15-.85q.41-2,.7-3.87c.07-.43.15-.86.2-1.28.22-1.65.39-3.28.49-4.88,0-.07,0-.14,0-.21,0-.37,0-.72,0-1.08,0-1,.07-2,.06-2.95,0-.53,0-1,0-1.57,0-.86-.07-1.72-.14-2.56,0-.23,0-.47,0-.7s-.09-.66-.13-1c-.08-.69-.17-1.38-.27-2.06s-.19-1.13-.29-1.69-.27-1.33-.42-2c-.07-.29-.11-.59-.19-.88s-.15-.5-.22-.76c-.17-.61-.35-1.21-.54-1.8s-.35-1.08-.54-1.61-.43-1.15-.66-1.72c-.13-.31-.23-.63-.36-.93s-.2-.39-.29-.6c-.26-.57-.53-1.12-.81-1.67s-.49-1-.76-1.45-.63-1.07-1-1.6c-.19-.31-.36-.63-.56-.94s-.4-.6-.6-.9l-10.41-15C1290.68,495.58,1291,496.2,1291.43,496.82Z"/><path class="cls-27" d="M1231.46,474.1c-55.45,4.7-119.38,49.21-142.78,99.41a110.15,110.15,0,0,0-4.32,10.69l32.11-9.27c.51-1.26,1-2.57,1.67-3.92,16.53-35.47,61.7-66.92,100.89-70.24s57.55,22.74,41,58.21c-.64,1.37-1.3,2.74-2,4.09l26.27,3.39c1.89-3.27,3.64-6.62,5.2-10C1312.91,506.28,1286.95,469.4,1231.46,474.1Z"/><path class="cls-28" d="M1258.69,513.23c-13.45-19.73-50.63-17-76.51-4.72-32,15.17-56.37,40-68.09,63.93,0,0-29,9.63-29.72,11.76l32.11-9.27c.51-1.26,1-2.57,1.67-3.92,16.53-35.47,61.7-66.92,100.89-70.24C1237.25,499.22,1250.88,504.08,1258.69,513.23Z"/><path class="cls-29" d="M1282.7,563.38s-23.95-1.66-24.66-.31l26.27,3.39c1.89-3.27,3.64-6.62,5.2-10,12.24-26.26,10.95-48.87-1-63.79C1307.17,522.12,1284.59,560.11,1282.7,563.38Z"/><path class="cls-30" d="M1126.88,590c0-.06-9.51-13.77-10.4-15.07-11.41,26.52-6.18,37.25,11.58,54.58A29.42,29.42,0,0,1,1126,626l-.31-.64C1120.4,614.21,1122.45,601,1126.88,590Z"/><path class="cls-31" d="M1294.72,581.5l-10.41-15C1260,608.24,1132.54,683.86,1087.95,635l10.41,15c10.44,15.09,30.88,23.25,58.79,20.88q4.82-.41,9.72-1.21c1.12-.18,2.26-.47,3.39-.68,2.45-.46,4.81-.92,7.23-1.51a172.22,172.22,0,0,0,26.6-8.93c.39-.17.77-.37,1.16-.54,31.75-13.82,62.18-37.13,82.44-65.77.63-.89,1.29-1.76,1.89-2.65C1291.4,587,1293.13,584.24,1294.72,581.5Z"/><path class="cls-32" d="M1258,563.07c-18,33.75-61.18,63-98.88,66.16s-56.13-20.85-42.68-54.3l-32.11,9.27c-15.14,44.65,10.93,76.05,62.37,71.69,51.77-4.39,110.86-43.45,137.57-89.43Z"/><path class="cls-33" d="M1147.33,653.64c-83.27,6-63-69.44-63-69.44-15.14,44.65,10.92,76.05,62.37,71.69,51.77-4.39,110.86-43.45,137.58-89.43C1284.31,566.45,1231.31,647.09,1147.33,653.64Z"/><path class="cls-34" d="M200.43,422.67a54.1,54.1,0,0,0-9.19-33.4c-12-17.77-32-31.34-51.22-40.29-40-18.63-92.87-30.38-103.73,23.94.37-.75.86-1.45,1.29-2.16,5.68-9.44,15.44-14.31,25.87-16.68a75,75,0,0,1,17-1.81l1.74,0c17.1.35,34.62,5.31,50,12.47,19.19,8.91,38.76,23.09,50.72,40.8a73.78,73.78,0,0,1,4.94,8.41c4.12,8.29,5.84,16.17,5.34,23.28h0Z"/><path class="cls-35" d="M65.58,445.47c-.58-.39-1.14-.81-1.72-1.2q-4-2.71-7.74-5.58c-.63-.48-1.27-1-1.89-1.44q-4.5-3.5-8.7-7.23c-.85-.76-1.69-1.52-2.52-2.3s-1.93-1.78-2.86-2.69-1.78-1.77-2.65-2.66-1.81-1.84-2.69-2.78c-.66-.71-1.3-1.43-1.94-2.15q-2.22-2.47-4.29-5c-.55-.68-1.12-1.36-1.66-2-1.81-2.31-3.55-4.65-5.16-7C6.3,380.48,3.5,358.95,11.48,342.69L4.34,357.25c-8,16.26-5.18,37.8,10.28,60.68,1.61,2.38,3.35,4.72,5.16,7,.54.69,1.1,1.36,1.66,2q2.07,2.54,4.29,5c.37.41.69.84,1.07,1.24s.59.61.88.91c.87.94,1.77,1.85,2.68,2.77s1.75,1.78,2.66,2.66,1.9,1.8,2.86,2.69c.63.58,1.23,1.19,1.88,1.76.21.19.44.35.65.54q4.2,3.72,8.7,7.23c.24.19.45.39.69.57.39.3.81.57,1.2.87q3.78,2.87,7.74,5.58c.3.21.59.44.89.65l.82.55h0Z"/><path class="cls-36" d="M219.1,388.86c-30.72-45.47-99.8-79.14-154.32-75.13S-9,357.9,21.76,403.37c10.71,15.85,26.06,30.24,43.82,42.11l16.85-14c-12.91-8.52-24-18.86-31.72-30.26C29,369.09,42.6,340.73,81.1,337.9s87.33,20.94,109,53.09c7.67,11.36,10.94,22.22,10.28,31.68l33.24,10.24C234.41,419.71,229.76,404.64,219.1,388.86Z"/><path class="cls-37" d="M217.49,388.75c9.69,14.35,12.27,27.45,12.14,39.64-4-.74-17.61-3.5-29.2-5.72l33.24,10.24c.74-13.2-3.91-28.27-14.57-44.05-27.11-40.12-84.07-71-134.56-75C134.62,318.37,190.68,349.06,217.49,388.75Z"/><path class="cls-38" d="M81.1,337.9a92.25,92.25,0,0,1,13.6.09c-5.18-.47-10.27-.19-15.21-.19-40.47,0-68.13,47.7-3.32,94.54,0,0-10.91,12.93-10.6,13.14l16.85-14c-12.91-8.52-24-18.86-31.72-30.26C29,369.09,42.6,340.73,81.1,337.9Z"/><path class="cls-39" d="M200.43,422.67l-7.14,14.57a30.27,30.27,0,0,1-3,11.2l7.14-14.57A30.24,30.24,0,0,0,200.43,422.67Z"/><path class="cls-39" d="M223.37,458.57c-9.79,11.24-24.57,16.78-39,19-.77.12-1.55.23-2.33.33-24.53,3.16-51.33-2.16-74-10.66a208.57,208.57,0,0,1-42.46-21.74L58.44,460a208,208,0,0,0,42.46,21.74c.31.12.61.26.93.38,22.44,8.33,48.83,13.38,73,10.29,15.24-2,31-7.44,41.35-19.32a42.77,42.77,0,0,0,5.55-8.07c.17-.32.33-.64.49-1l7.14-14.57A43.41,43.41,0,0,1,223.37,458.57Z"/><path class="cls-40" d="M233.67,432.91l-33.24-10.24c-1.26,17.32-15.74,29.82-40.67,31.65s-54-7.42-77.32-22.83l-16.85,14c33.26,22.26,75,35.63,110.5,33S232.26,457.8,233.67,432.91Z"/><path class="cls-41" d="M233.67,432.91s-1.56,39.36-58.71,43.92C122.38,481,65.58,445.47,65.58,445.47c33.26,22.26,75,35.63,110.5,33S232.26,457.8,233.67,432.91Z"/></g></g></g></svg>