<?xml version="1.0" encoding="utf-8"?>
<!-- Generator: Adobe Illustrator 21.0.2, SVG Export Plug-In . SVG Version: 6.00 Build 0)  -->
<svg version="1.1" id="Layer_1" xmlns="http://www.w3.org/2000/svg" xmlns:xlink="http://www.w3.org/1999/xlink" x="0px" y="0px"
	 viewBox="0 0 380 422.4" style="enable-background:new 0 0 380 422.4;" xml:space="preserve">
<style type="text/css">
	.st0{fill:#D4ECFF;}
	.st1{fill:#173D7A;}
	.st2{fill:#396CAA;}
	.st3{fill:#95D359;}
	.st4{fill:#C13D1A;}
	.st5{fill:#DB5126;}
	.st6{fill:#EF602E;}
	.st7{fill:#5793CE;}
	.st8{fill:#274F89;}
	.st9{fill:#FFFFFF;}
	.st10{fill:#D3008D;}
	.st11{fill:#FF2C9C;}
	.st12{fill:#B70083;}
</style>
<title>data</title>
<g id="Layer_2">
	<g id="_ÎÓÈ_1">
		<polygon class="st0" points="158.6,193.8 173.2,185.3 158.6,176.9 144,185.3 144,185.3 129.4,193.8 144,202.2 144,202.2 
			158.6,210.6 173.2,202.2 158.6,193.8 		"/>
		<polygon class="st1" points="158.6,172.8 158.6,110.9 173.2,102.5 173.2,164.3 		"/>
		<polygon class="st2" points="158.6,110.9 144,102.5 144,164.3 158.6,172.8 		"/>
		<polygon class="st0" points="173.2,102.5 158.6,94.1 144,102.5 158.6,110.9 		"/>
		<polygon class="st3" points="173.2,175.6 158.6,167.1 158.6,172.8 173.2,181.2 		"/>
		<polygon class="st4" points="144,181.2 144,136.2 158.6,127.8 158.6,172.8 		"/>
		<polygon class="st5" points="144,136.2 129.4,127.8 129.4,172.8 144,181.2 		"/>
		<polygon class="st6" points="158.6,127.8 144,119.4 129.4,127.8 144,136.2 		"/>
		<polygon class="st2" points="144,181.2 144,136.2 158.6,127.8 158.6,172.8 		"/>
		<polygon class="st7" points="144,136.2 129.4,127.8 129.4,172.8 144,181.2 		"/>
		<polygon class="st0" points="158.6,127.8 144,119.4 129.4,127.8 144,136.2 		"/>
		<polygon class="st1" points="158.6,189.6 158.6,164.3 173.2,155.9 173.2,181.2 		"/>
		<polygon class="st2" points="158.6,164.3 144,155.9 144,181.2 158.6,189.6 		"/>
		<polygon class="st0" points="173.2,155.9 158.6,147.5 144,155.9 158.6,164.3 		"/>
		<path class="st0" d="M220,347.1l-110.3-63.7c-3.1-1.8-2.7-4.9,0.9-7l75.1-43.4c3.6-2.1,9.1-2.3,12.2-0.5l110.3,63.7
			c3.1,1.8,2.7,4.9-0.9,7l-75.1,43.3C228.5,348.6,223.1,348.9,220,347.1z"/>
		<path class="st1" d="M312.2,170.9L200,106.2c-1.1-0.8-2.6-1-3.8-0.5l0,0l-0.2,0.1l0,0l-3.6,1.7l4,2c0,0.1,0,0.1,0,0.2v92.1
			c0,4.6,2.9,10,6.4,12l109.1,63l0.6,5.1l4-1.9c1.3-0.8,2.1-2.5,2.1-5v-92.1C318.6,178.3,315.7,172.9,312.2,170.9z"/>
		<path class="st2" d="M312.2,170.9L200,106.2c-1.1-0.8-2.6-1-3.8-0.5l0,0l-0.2,0.1l0,0l-3.6,1.7l4,2c0,0.1,0,0.1,0,0.2v60.7
			l51,40.3l69.3-34.9C315.6,173.8,314.1,172.1,312.2,170.9z"/>
		<path class="st8" d="M314.1,172.4l-11,4.6l8.3,6.4l6.9-2.9C317.7,177.4,316.2,174.6,314.1,172.4z"/>
		<path class="st0" d="M308.5,281.4l-112.1-64.7c-3.5-2-6.4-7.4-6.4-12v-92.1c0-4.6,2.9-6.7,6.4-4.7l112.1,64.7
			c3.5,2,6.4,7.4,6.4,12v92.1C314.9,281.4,312,283.5,308.5,281.4z"/>
		<path class="st9" d="M304.8,274.6l-104.7-60.4c-3.2-1.9-5.8-6.8-5.8-11v-84.3c0-4.2,2.6-6.1,5.8-4.3L304.8,175
			c3.2,1.9,5.8,6.8,5.8,11v84.3C310.6,274.5,308,276.5,304.8,274.6z"/>
		<path class="st9" d="M304.8,274.6l-104.7-60.4c-3.2-1.9-5.8-6.8-5.8-11v-84.3c0-4.2,2.6-6.1,5.8-4.3L304.8,175
			c3.2,1.9,5.8,6.8,5.8,11v84.3C310.6,274.5,308,276.5,304.8,274.6z"/>
		<path class="st1" d="M310.2,284.3l-15.1-2l-97.3-56.2c-3.1-1.8-8.6-1.6-12.2,0.5l-69,39.8l-9.1-1.2v5.2l0,0c0,1.4,0.8,2.6,2.1,3.2
			l110.3,63.7c3.1,1.8,8.6,1.6,12.2-0.5l75.1-43.4c2-1.2,3-2.7,3-4.1l0,0L310.2,284.3z"/>
		<path class="st2" d="M237.1,248.8l-6.9-4h-76l-37.5,21.6l-9.1-1.2v5.2l0,0c0,1.4,0.8,2.6,2.1,3.2l110.3,63.7
			c1.9,1,4.1,1.4,6.3,1.2L237.1,248.8z"/>
		<path class="st7" d="M111.6,265.7l-4-0.5v5.2l0,0c0,1.4,0.8,2.6,2.1,3.2l1.9,1.1L111.6,265.7z"/>
		<path class="st8" d="M221,337.8c3.4,1.1,7.1,0.9,10.3-0.6v-11.5H221V337.8z"/>
		<path class="st0" d="M220,332.1l-110.3-63.7c-3.1-1.8-2.7-4.9,0.9-7l75.1-43.4c3.6-2.1,9.1-2.3,12.2-0.5l110.3,63.7
			c3.1,1.8,2.7,4.9-0.9,7l-75.1,43.3C228.5,333.7,223.1,333.9,220,332.1z"/>
		<path class="st9" d="M307.2,286.4l-75.1,43.4c-3.6,2.1-9.1,2.3-12.2,0.5l-110.3-63.7c-0.9-0.5-1.6-1.2-1.9-2.1
			c-0.5,1.5,0.1,3,1.9,4L220,332.1c3.1,1.8,8.6,1.6,12.2-0.5l75.1-43.4c2.4-1.4,3.4-3.3,2.8-4.9
			C309.5,284.6,308.5,285.7,307.2,286.4z"/>
		<path class="st1" d="M156.6,247.3l-5-2.9c-0.4-0.2-0.3-0.6,0.1-0.9l5.9-3.4c0.5-0.3,1.1-0.3,1.6-0.1l5,2.9
			c0.4,0.2,0.4,0.6-0.1,0.9l-5.9,3.4C157.6,247.5,157.1,247.6,156.6,247.3z"/>
		<path class="st1" d="M164.3,251.8l-5-2.9c-0.4-0.2-0.3-0.6,0.1-0.9l5.9-3.4c0.5-0.3,1.1-0.3,1.6-0.1l5,2.9
			c0.4,0.2,0.3,0.6-0.1,0.9l-5.9,3.4C165.3,252,164.8,252,164.3,251.8z"/>
		<path class="st1" d="M172,256.2l-5-2.9c-0.4-0.2-0.3-0.6,0.1-0.9l5.9-3.4c0.5-0.3,1.1-0.3,1.6-0.1l5,2.9c0.4,0.2,0.4,0.6-0.1,0.9
			l-5.9,3.4C173.1,256.4,172.5,256.5,172,256.2z"/>
		<path class="st1" d="M182.6,252.6l-5-2.9c-0.4-0.2-0.4-0.6,0.1-0.9l4.9-2.9c0.5-0.3,1.1-0.3,1.6-0.1l5,2.9
			c0.4,0.2,0.4,0.6-0.1,0.9l-4.9,2.8C183.7,252.8,183.1,252.8,182.6,252.6z"/>
		<path class="st1" d="M190.3,257l-5-2.9c-0.4-0.2-0.4-0.6,0.1-0.9l4.9-2.9c0.5-0.3,1.1-0.3,1.6-0.1l5,2.9c0.4,0.2,0.4,0.6-0.1,0.9
			l-4.9,2.9C191.4,257.2,190.8,257.2,190.3,257z"/>
		<path class="st1" d="M198,261.5l-5-2.9c-0.4-0.2-0.4-0.6,0.1-0.9l4.9-2.9c0.5-0.3,1.1-0.3,1.6-0.1l5,2.9c0.4,0.2,0.4,0.6-0.1,0.9
			l-4.9,2.9C199.1,261.7,198.5,261.7,198,261.5z"/>
		<path class="st1" d="M205.8,265.9l-5-2.9c-0.4-0.2-0.4-0.6,0.1-0.9l4.9-2.9c0.5-0.3,1.1-0.3,1.6-0.1l5,2.9
			c0.4,0.2,0.4,0.6-0.1,0.9l-4.9,2.9C206.8,266.1,206.3,266.1,205.8,265.9z"/>
		<path class="st1" d="M213.5,270.4l-5-2.9c-0.4-0.2-0.4-0.6,0.1-0.9l4.9-2.9c0.5-0.3,1.1-0.3,1.6-0.1l5,2.9
			c0.4,0.2,0.4,0.6-0.1,0.9l-5,2.9C214.5,270.6,214,270.6,213.5,270.4z"/>
		<path class="st1" d="M221.2,274.8l-5-2.9c-0.4-0.2-0.4-0.6,0.1-0.9l4.9-2.9c0.5-0.3,1.1-0.3,1.6-0.1l5,2.9
			c0.4,0.2,0.4,0.6-0.1,0.9l-4.9,2.9C222.3,275,221.7,275,221.2,274.8z"/>
		<path class="st1" d="M228.9,279.3l-5-2.9c-0.4-0.2-0.4-0.6,0.1-0.9l4.9-2.9c0.5-0.3,1.1-0.3,1.6-0.1l5,2.9
			c0.4,0.2,0.4,0.6-0.1,0.9l-4.9,2.9C230,279.5,229.4,279.5,228.9,279.3z"/>
		<path class="st1" d="M236.6,283.7l-5-2.9c-0.4-0.2-0.4-0.6,0.1-0.9l4.9-2.9c0.5-0.3,1.1-0.3,1.6-0.1l5,2.9
			c0.4,0.2,0.4,0.6-0.1,0.9l-4.9,2.9C237.7,283.9,237.1,283.9,236.6,283.7z"/>
		<path class="st1" d="M244.3,288.2l-5-2.9c-0.4-0.2-0.4-0.6,0.1-0.9l4.9-2.9c0.5-0.3,1.1-0.3,1.6-0.1l5,2.9
			c0.4,0.2,0.4,0.6-0.1,0.9l-4.9,2.9C245.4,288.4,244.8,288.4,244.3,288.2z"/>
		<path class="st1" d="M252,292.6l-5-2.9c-0.4-0.2-0.4-0.6,0.1-0.9l4.9-2.9c0.5-0.3,1.1-0.3,1.6-0.1l5,2.9c0.4,0.2,0.3,0.6-0.1,0.9
			l-4.9,2.9C253.1,292.8,252.5,292.8,252,292.6z"/>
		<path class="st2" d="M194,250.5l-5-2.9c-0.4-0.2-0.4-0.6,0.1-0.9l4.9-2.9c0.5-0.3,1.1-0.3,1.6-0.1l5,2.9c0.4,0.2,0.4,0.6-0.1,0.9
			l-4.9,2.9C195.1,250.7,194.5,250.7,194,250.5z"/>
		<path class="st2" d="M186.2,245.9l-5-2.9c-0.4-0.2-0.4-0.6,0.1-0.9l4.9-2.9c0.5-0.3,1.1-0.3,1.6-0.1l5,2.9
			c0.4,0.2,0.4,0.6-0.1,0.9l-4.9,2.9C187.2,246.1,186.7,246.2,186.2,245.9z"/>
		<path class="st1" d="M178.3,241.4l-10.8-6.2c-0.4-0.2-0.3-0.6,0.1-0.9l4.9-2.9c0.5-0.3,1.1-0.3,1.6-0.1l10.8,6.2
			c0.4,0.2,0.4,0.6-0.1,0.9l-4.9,2.9C179.4,241.6,178.8,241.6,178.3,241.4z"/>
		<path class="st1" d="M183.8,235.9l-8.7-5c-0.4-0.2-0.4-0.6,0.1-0.9l4.9-2.9c0.5-0.3,1.1-0.3,1.6-0.1l8.7,5
			c0.4,0.2,0.4,0.6-0.1,0.9l-4.9,2.9C184.9,236.1,184.3,236.1,183.8,235.9z"/>
		<path class="st2" d="M201.7,254.9l-5-2.9c-0.4-0.2-0.4-0.6,0.1-0.9l4.9-2.9c0.5-0.3,1.1-0.3,1.6-0.1l5,2.9
			c0.4,0.2,0.4,0.6-0.1,0.9l-4.9,2.9C202.8,255.1,202.2,255.1,201.7,254.9z"/>
		<path class="st1" d="M209.4,259.3l-5-2.9c-0.4-0.2-0.4-0.6,0.1-0.9l4.9-2.9c0.5-0.3,1.1-0.3,1.6-0.1l5,2.9
			c0.4,0.2,0.4,0.6-0.1,0.9l-4.9,2.9C210.5,259.6,209.9,259.6,209.4,259.3z"/>
		<path class="st1" d="M217.1,263.8l-5-2.9c-0.4-0.2-0.4-0.6,0.1-0.9l4.9-2.9c0.5-0.3,1.1-0.3,1.6-0.1l5,2.9
			c0.4,0.2,0.4,0.6-0.1,0.9l-4.9,2.9C218.2,264,217.6,264,217.1,263.8z"/>
		<path class="st1" d="M224.8,268.2l-5-2.9c-0.4-0.2-0.4-0.6,0.1-0.9l4.9-2.9c0.5-0.3,1.1-0.3,1.6-0.1l5,2.9
			c0.4,0.2,0.4,0.6-0.1,0.9l-4.9,2.9C225.9,268.5,225.3,268.5,224.8,268.2z"/>
		<path class="st1" d="M232.5,272.7l-5-2.9c-0.4-0.2-0.4-0.6,0.1-0.9l4.9-2.9c0.5-0.3,1.1-0.3,1.6-0.1l5,2.9
			c0.4,0.2,0.4,0.6-0.1,0.9l-4.9,2.9C233.6,272.9,233,272.9,232.5,272.7z"/>
		<path class="st1" d="M240.2,277.1l-5-2.9c-0.4-0.2-0.4-0.6,0.1-0.9l4.9-2.9c0.5-0.3,1.1-0.3,1.6-0.1l5,2.9
			c0.4,0.2,0.4,0.6-0.1,0.9l-4.9,2.9C241.3,277.4,240.7,277.4,240.2,277.1z"/>
		<path class="st1" d="M247.9,281.6l-5-2.9c-0.4-0.2-0.4-0.6,0.1-0.9l4.9-2.9c0.5-0.3,1.1-0.3,1.6-0.1l5,2.9
			c0.4,0.2,0.4,0.6-0.1,0.9l-4.9,2.8C249,281.8,248.5,281.8,247.9,281.6z"/>
		<path class="st1" d="M255.7,286l-5-2.9c-0.4-0.2-0.4-0.6,0.1-0.9l4.9-2.9c0.5-0.3,1.1-0.3,1.6-0.1l5,2.9c0.4,0.2,0.4,0.6-0.1,0.9
			l-4.9,2.9C256.7,286.3,256.2,286.3,255.7,286z"/>
		<path class="st1" d="M263.4,290.5l-5-2.9c-0.4-0.2-0.3-0.6,0.1-0.9l4.9-2.9c0.5-0.3,1.1-0.3,1.6-0.1l5,2.9
			c0.4,0.2,0.4,0.6-0.1,0.9l-5,2.9C264.4,290.7,263.9,290.7,263.4,290.5z"/>
		<path class="st1" d="M277,298.4l-10.9-6.3c-0.4-0.2-0.4-0.6,0.1-0.9l5-2.9c0.5-0.3,1.1-0.3,1.6-0.1l10.9,6.3
			c0.4,0.2,0.3,0.6-0.1,0.9l-4.9,2.9C278.1,298.6,277.5,298.6,277,298.4z"/>
		<path class="st1" d="M292.1,289.7l-9.2-5.3c-0.4-0.2-0.4-0.6,0.1-0.9l5-2.9c0.5-0.3,1.1-0.3,1.6-0.1l9.2,5.3
			c0.4,0.2,0.4,0.6-0.1,0.9l-5,2.9C293.1,290,292.6,290,292.1,289.7z"/>
		<path class="st1" d="M215.2,254l-5-2.9c-0.4-0.2-0.4-0.6,0.1-0.9l4.9-2.9c0.5-0.3,1.1-0.3,1.6-0.1l5,2.9c0.4,0.2,0.4,0.6-0.1,0.9
			l-4.9,2.9C216.3,254.2,215.7,254.3,215.2,254z"/>
		<path class="st1" d="M207.3,249.5l-5-2.9c-0.4-0.2-0.4-0.6,0.1-0.9l4.9-2.9c0.5-0.3,1.1-0.3,1.6-0.1l5,2.9
			c0.4,0.2,0.4,0.6-0.1,0.9l-4.9,2.9C208.4,249.7,207.8,249.7,207.3,249.5z"/>
		<path class="st2" d="M199.4,244.9l-5-2.9c-0.4-0.2-0.4-0.6,0.1-0.9l4.9-2.9c0.5-0.3,1.1-0.3,1.6-0.1l5,2.9
			c0.4,0.2,0.4,0.6-0.1,0.9l-4.9,2.9C200.5,245.1,199.9,245.1,199.4,244.9z"/>
		<path class="st1" d="M191.5,240.3l-5-2.9c-0.4-0.2-0.4-0.6,0.1-0.9l4.9-2.9c0.5-0.3,1.1-0.3,1.6-0.1l5,2.9
			c0.4,0.2,0.4,0.6-0.1,0.9l-5,2.9C192.5,240.5,192,240.6,191.5,240.3z"/>
		<path class="st1" d="M222.9,258.5l-5-2.9c-0.4-0.2-0.4-0.6,0.1-0.9l4.9-2.9c0.5-0.3,1.1-0.3,1.6-0.1l5,2.9
			c0.4,0.2,0.4,0.6-0.1,0.9l-4.9,2.9C224,258.7,223.4,258.7,222.9,258.5z"/>
		<path class="st1" d="M230.6,262.9l-5-2.9c-0.4-0.2-0.4-0.6,0.1-0.9l4.9-2.9c0.5-0.3,1.1-0.3,1.6-0.1l5,2.9
			c0.4,0.2,0.4,0.6-0.1,0.9l-4.9,2.9C231.7,263.1,231.1,263.2,230.6,262.9z"/>
		<path class="st1" d="M238.3,267.4l-5-2.9c-0.4-0.2-0.4-0.6,0.1-0.9l4.9-2.9c0.5-0.3,1.1-0.3,1.6-0.1l5,2.9
			c0.4,0.2,0.4,0.6-0.1,0.9l-4.9,2.9C239.4,267.6,238.8,267.6,238.3,267.4z"/>
		<path class="st1" d="M246,271.8l-5-2.9c-0.4-0.2-0.4-0.6,0.1-0.9l4.9-2.9c0.5-0.3,1.1-0.3,1.6-0.1l5,2.9c0.4,0.2,0.4,0.6-0.1,0.9
			l-4.9,2.9C247.1,272,246.5,272.1,246,271.8z"/>
		<path class="st1" d="M253.7,276.3l-5-2.9c-0.4-0.2-0.4-0.6,0.1-0.9l4.9-2.9c0.5-0.3,1.1-0.3,1.6-0.1l5,2.9
			c0.4,0.2,0.4,0.6-0.1,0.9l-4.9,2.9C254.8,276.5,254.2,276.5,253.7,276.3z"/>
		<path class="st1" d="M261.4,280.7l-5-2.9c-0.4-0.2-0.4-0.6,0.1-0.9l5-2.9c0.5-0.3,1.1-0.3,1.6-0.1l5,2.9c0.4,0.2,0.3,0.6-0.1,0.9
			l-4.9,2.9C262.5,280.9,261.9,281,261.4,280.7z"/>
		<path class="st1" d="M269.2,285.2l-5-2.9c-0.4-0.2-0.4-0.6,0.1-0.9l4.9-2.9c0.5-0.3,1.1-0.3,1.6-0.1l5,2.9
			c0.4,0.2,0.4,0.6-0.1,0.9l-4.9,2.9C270.2,285.4,269.7,285.4,269.2,285.2z"/>
		<path class="st1" d="M276.9,289.6l-5-2.9c-0.4-0.2-0.3-0.6,0.1-0.9l4.9-2.9c0.5-0.3,1.1-0.3,1.6-0.1l5,2.9
			c0.4,0.2,0.4,0.6-0.1,0.9l-5,2.9C277.9,289.8,277.4,289.9,276.9,289.6z"/>
		<path class="st1" d="M284.6,294.1l-5-2.9c-0.4-0.2-0.4-0.6,0.1-0.9l5-2.9c0.5-0.3,1.1-0.3,1.6-0.1l5,2.9c0.4,0.2,0.4,0.6-0.1,0.9
			l-5,2.9C285.6,294.3,285.1,294.3,284.6,294.1z"/>
		<path class="st1" d="M211.1,243l-5-2.9c-0.4-0.2-0.4-0.6,0.1-0.9l4.9-2.9c0.5-0.3,1.1-0.3,1.6-0.1l5,2.9c0.4,0.2,0.4,0.6-0.1,0.9
			l-4.9,2.9C212.2,243.2,211.6,243.3,211.1,243z"/>
		<path class="st1" d="M203.5,238.6l-5-2.9c-0.4-0.2-0.4-0.6,0.1-0.9l4.9-2.9c0.5-0.3,1.1-0.3,1.6-0.1l5,2.9
			c0.4,0.2,0.4,0.6-0.1,0.9l-5,2.8C204.5,238.8,204,238.8,203.5,238.6z"/>
		<path class="st1" d="M195.8,234.2l-5-2.9c-0.4-0.2-0.4-0.6,0.1-0.9l4.9-2.9c0.5-0.3,1.1-0.3,1.6-0.1l5,2.9
			c0.4,0.2,0.4,0.6-0.1,0.9l-4.9,2.9C196.9,234.4,196.3,234.4,195.8,234.2z"/>
		<path class="st1" d="M188.1,229.7l-5-2.9c-0.4-0.2-0.4-0.6,0.1-0.9l4.9-2.9c0.5-0.3,1.1-0.3,1.6-0.1l5,2.9
			c0.4,0.2,0.4,0.6-0.1,0.9l-4.9,2.9C189.2,229.9,188.6,230,188.1,229.7z"/>
		<path class="st1" d="M196,225.2l-5-2.9c-0.4-0.2-0.4-0.6,0.1-0.9l1.6-0.9c0.5-0.3,1.1-0.3,1.6-0.1l5,2.9c0.4,0.2,0.4,0.6-0.1,0.9
			l-1.6,0.9C197.1,225.4,196.5,225.4,196,225.2z"/>
		<path class="st1" d="M206,231l-5-2.9c-0.4-0.2-0.4-0.6,0.1-0.9l1.6-0.9c0.5-0.3,1.1-0.3,1.6-0.1l5,2.9c0.4,0.2,0.4,0.6-0.1,0.9
			l-1.6,0.9C207.1,231.2,206.5,231.2,206,231z"/>
		<path class="st1" d="M213.7,235.4l-5-2.9c-0.4-0.2-0.4-0.6,0.1-0.9l1.6-0.9c0.5-0.3,1.1-0.3,1.6-0.1l5,2.9
			c0.4,0.2,0.4,0.6-0.1,0.9l-1.6,0.9C214.7,235.6,214.2,235.6,213.7,235.4z"/>
		<path class="st1" d="M221.3,239.8l-5-2.9c-0.4-0.2-0.4-0.6,0.1-0.9l1.6-0.9c0.5-0.3,1.1-0.3,1.6-0.1l5,2.9
			c0.4,0.2,0.4,0.6-0.1,0.9l-1.6,0.9C222.4,240,221.8,240,221.3,239.8z"/>
		<path class="st1" d="M228.9,244.2l-5-2.9c-0.4-0.2-0.4-0.6,0.1-0.9l1.6-0.9c0.5-0.3,1.1-0.3,1.6-0.1l5,2.9
			c0.4,0.2,0.4,0.6-0.1,0.9l-1.6,0.9C230,244.4,229.4,244.4,228.9,244.2z"/>
		<path class="st1" d="M271.6,268.8l-5-2.9c-0.4-0.2-0.4-0.6,0.1-0.9l1.6-0.9c0.5-0.3,1.1-0.3,1.6-0.1l5,2.9
			c0.4,0.2,0.4,0.6-0.1,0.9l-1.6,0.9C272.7,269,272.1,269,271.6,268.8z"/>
		<path class="st1" d="M279.2,273.2l-5-2.9c-0.4-0.2-0.4-0.6,0.1-0.9l1.7-1c0.5-0.3,1.1-0.3,1.6-0.1l5,2.9c0.4,0.2,0.3,0.6-0.1,0.9
			l-1.6,0.9C280.3,273.4,279.7,273.5,279.2,273.2z"/>
		<path class="st1" d="M286.9,277.6l-5-2.9c-0.4-0.2-0.3-0.6,0.1-0.9l1.6-0.9c0.5-0.3,1.1-0.3,1.6-0.1l5,2.9
			c0.4,0.2,0.4,0.6-0.1,0.9l-1.6,0.9C287.9,277.8,287.4,277.9,286.9,277.6z"/>
		<path class="st1" d="M294.5,282l-5-2.9c-0.4-0.2-0.3-0.6,0.1-0.9l1.6-0.9c0.5-0.3,1.1-0.3,1.6-0.1l5,2.9c0.4,0.2,0.4,0.6-0.1,0.9
			L296,282C295.6,282.2,295,282.3,294.5,282z"/>
		<path class="st1" d="M218.8,247.5l-5-2.9c-0.4-0.2-0.4-0.6,0.1-0.9l4.9-2.9c0.5-0.3,1.1-0.3,1.6-0.1l5,2.9
			c0.4,0.2,0.4,0.6-0.1,0.9l-4.9,2.9C219.9,247.7,219.3,247.7,218.8,247.5z"/>
		<path class="st1" d="M226.6,251.9l-5-2.9c-0.4-0.2-0.4-0.6,0.1-0.9l4.9-2.9c0.5-0.3,1.1-0.3,1.6-0.1l5,2.9
			c0.4,0.2,0.4,0.6-0.1,0.9l-4.9,2.9C227.6,252.1,227.1,252.2,226.6,251.9z"/>
		<path class="st1" d="M234.3,256.4l-5-2.9c-0.4-0.2-0.4-0.6,0.1-0.9l4.9-2.9c0.5-0.3,1.1-0.3,1.6-0.1l5,2.9
			c0.4,0.2,0.4,0.6-0.1,0.9l-4.9,2.9C235.3,256.6,234.8,256.6,234.3,256.4z"/>
		<path class="st1" d="M242,260.8l-5-2.9c-0.4-0.2-0.4-0.6,0.1-0.9l4.9-2.9c0.5-0.3,1.1-0.3,1.6-0.1l5,2.9c0.4,0.2,0.4,0.6-0.1,0.9
			l-4.9,2.9C243,261,242.5,261,242,260.8z"/>
		<path class="st1" d="M249.7,265.3l-5-2.9c-0.4-0.2-0.4-0.6,0.1-0.9l4.9-2.9c0.5-0.3,1.1-0.3,1.6-0.1l5,2.9
			c0.4,0.2,0.4,0.6-0.1,0.9l-4.9,2.9C250.8,265.5,250.2,265.5,249.7,265.3z"/>
		<path class="st1" d="M257.4,269.7l-5-2.9c-0.4-0.2-0.4-0.6,0.1-0.9l5-2.9c0.5-0.3,1.1-0.3,1.6-0.1l5,2.9c0.4,0.2,0.3,0.6-0.1,0.9
			l-4.9,2.9C258.5,269.9,257.9,270,257.4,269.7z"/>
		<path class="st1" d="M265.1,274.2l-5-2.9c-0.4-0.2-0.4-0.6,0.1-0.9l4.9-2.9c0.5-0.3,1.1-0.3,1.6-0.1l5,2.9
			c0.4,0.2,0.4,0.6-0.1,0.9l-4.9,2.9C266.2,274.4,265.6,274.4,265.1,274.2z"/>
		<path class="st1" d="M272.8,278.6l-5-2.9c-0.4-0.2-0.4-0.6,0.1-0.9l5-2.9c0.5-0.3,1.1-0.3,1.6-0.1l5,2.9c0.4,0.2,0.4,0.6-0.1,0.9
			l-5,2.9C273.9,278.8,273.3,278.9,272.8,278.6z"/>
		<path class="st1" d="M280.5,283.1l-5-2.9c-0.4-0.2-0.4-0.6,0.1-0.9l5-2.9c0.5-0.3,1.1-0.3,1.6-0.1l5,2.9c0.4,0.2,0.4,0.6-0.1,0.9
			l-5,2.9C281.6,283.3,281,283.3,280.5,283.1z"/>
		<path class="st1" d="M174.8,248l-14.7-8.5c-0.4-0.2-0.3-0.6,0.1-0.9l4.9-2.9c0.5-0.3,1.1-0.3,1.6-0.1l14.7,8.5
			c0.4,0.2,0.4,0.6-0.1,0.9l-4.9,2.9C175.9,248.2,175.3,248.2,174.8,248z"/>
		<path class="st1" d="M269.5,302.7l-14.7-8.5c-0.4-0.2-0.4-0.6,0.1-0.9l5-2.9c0.5-0.3,1.1-0.3,1.6-0.1l14.7,8.5
			c0.4,0.2,0.4,0.6-0.1,0.9l-5,2.9C270.5,302.9,270,302.9,269.5,302.7z"/>
		<path class="st1" d="M238.6,294.7l-5-2.9c-0.4-0.2-0.4-0.6,0.1-0.9l5.9-3.4c0.5-0.3,1.1-0.3,1.6-0.1l5,2.9
			c0.4,0.2,0.4,0.6-0.1,0.9l-5.9,3.4C239.7,294.9,239.1,295,238.6,294.7z"/>
		<path class="st1" d="M182.7,262.4l-8-4.6c-0.4-0.2-0.3-0.6,0.1-0.9l5.9-3.4c0.5-0.3,1.1-0.3,1.6-0.1l8,4.6
			c0.4,0.2,0.4,0.6-0.1,0.9l-5.9,3.4C183.8,262.6,183.2,262.6,182.7,262.4z"/>
		<path class="st1" d="M231.2,290.5l-8-4.6c-0.4-0.2-0.4-0.6,0.1-0.9l5.9-3.4c0.5-0.3,1.1-0.3,1.6-0.1l8,4.6
			c0.4,0.2,0.4,0.6-0.1,0.9l-5.9,3.4C232.3,290.7,231.7,290.7,231.2,290.5z"/>
		<path class="st1" d="M193.8,268.8l-8-4.6c-0.4-0.2-0.4-0.6,0.1-0.9l5.9-3.4c0.5-0.3,1.1-0.3,1.6-0.1l8,4.6
			c0.4,0.2,0.4,0.6-0.1,0.9l-5.9,3.4C194.9,269,194.3,269.1,193.8,268.8z"/>
		<path class="st1" d="M193.4,259.9l34.7,20c0.2,0.1,0.4,0.4,0.3,0.6c0,0.1-0.2,0.2-0.3,0.3l-6,3.5c-0.5,0.2-1.1,0.2-1.6,0l-34.7-20
			L193.4,259.9z"/>
		<path class="st1" d="M260.2,302.8l5.6,3.2c0.3,0.2,0.3,0.5-0.1,0.7l-2.4,1.4c-0.4,0.2-0.9,0.2-1.3,0l-5.6-3.2
			c-0.3-0.2-0.3-0.5,0.1-0.7l2.4-1.4C259.3,302.6,259.8,302.6,260.2,302.8z"/>
		<path class="st1" d="M252.4,298.3l5.6,3.2c0.3,0.2,0.3,0.5-0.1,0.7l-2.4,1.4c-0.4,0.2-0.9,0.2-1.3,0.1l-5.6-3.2
			c-0.3-0.2-0.3-0.5,0.1-0.7l2.4-1.4C251.5,298.1,252,298.1,252.4,298.3z"/>
		<path class="st1" d="M244.7,293.9l5.6,3.2c0.3,0.2,0.3,0.5-0.1,0.7l-2.4,1.4c-0.4,0.2-0.9,0.2-1.3,0l-5.6-3.2
			c-0.3-0.2-0.3-0.5,0.1-0.7l2.4-1.4C243.8,293.7,244.3,293.7,244.7,293.9z"/>
		<path class="st1" d="M256.7,295.8l5.6,3.2c0.3,0.2,0.3,0.5-0.1,0.7l-2.4,1.4c-0.4,0.2-0.9,0.2-1.3,0.1l-5.6-3.2
			c-0.3-0.2-0.3-0.5,0.1-0.7l2.4-1.4C255.8,295.7,256.3,295.7,256.7,295.8z"/>
		<path class="st0" d="M264.9,186.3l-4.8-2.8c-0.5-0.4-0.8-0.9-0.8-1.5l0,0c0-0.6,0.3-0.9,0.8-0.6l4.8,2.8c0.5,0.4,0.8,0.9,0.8,1.5
			l0,0C265.7,186.3,265.4,186.5,264.9,186.3z"/>
		<path class="st0" d="M276.3,192.8l-7-4.1c-0.5-0.4-0.8-0.9-0.8-1.5l0,0c0-0.6,0.3-0.9,0.8-0.6l7,4.1c0.5,0.4,0.8,0.9,0.8,1.5l0,0
			C277.1,192.8,276.8,193.1,276.3,192.8z"/>
		<path class="st0" d="M262.6,211.7l-4.8-2.8c-0.5-0.4-0.8-0.9-0.8-1.5l0,0c0-0.6,0.3-0.9,0.8-0.6l4.8,2.8c0.5,0.4,0.8,0.9,0.8,1.5
			l0,0C263.4,211.7,263,212,262.6,211.7z"/>
		<path class="st0" d="M272.7,217.6l-7-4.1c-0.5-0.4-0.8-0.9-0.8-1.5l0,0c0-0.6,0.3-0.9,0.8-0.6l7,4.1c0.5,0.4,0.8,0.9,0.8,1.5l0,0
			C273.5,217.6,273.2,217.8,272.7,217.6z"/>
		<path class="st0" d="M251.9,183.2l-3-1.7c-0.5-0.4-0.8-0.9-0.8-1.5l0,0c0-0.6,0.3-0.9,0.8-0.6l3,1.7c0.5,0.4,0.8,0.9,0.8,1.5l0,0
			C252.7,183.2,252.3,183.5,251.9,183.2z"/>
		<path class="st0" d="M262,193.5l-9.1-5.3c-0.5-0.4-0.8-0.9-0.8-1.5l0,0c0-0.6,0.3-0.9,0.8-0.6l9.1,5.3c0.5,0.4,0.8,0.9,0.8,1.5
			l0,0C262.8,193.5,262.5,193.8,262,193.5z"/>
		<path class="st0" d="M256,199l-3-1.7c-0.5-0.4-0.8-0.9-0.8-1.5l0,0c0-0.6,0.3-0.9,0.8-0.6l3,1.7c0.5,0.4,0.8,0.9,0.8,1.5l0,0
			C256.9,199,256.5,199.3,256,199z"/>
		<path class="st0" d="M276.2,228.6l-8-4.6c-0.5-0.4-0.8-0.9-0.8-1.5l0,0c0-0.6,0.3-0.9,0.8-0.6l8,4.6c0.5,0.4,0.8,0.9,0.8,1.5l0,0
			C277,228.5,276.7,228.8,276.2,228.6z"/>
		<path class="st0" d="M255.1,207.4l-1.9-1.1c-0.5-0.4-0.8-0.9-0.8-1.5l0,0c0-0.6,0.3-0.9,0.8-0.6l1.9,1.1c0.5,0.4,0.8,0.9,0.8,1.5
			l0,0C255.9,207.4,255.6,207.7,255.1,207.4z"/>
		<path class="st0" d="M255.7,216.7l-2.4-1.4c-0.5-0.4-0.8-0.9-0.8-1.5l0,0c0-0.6,0.3-0.9,0.8-0.6l2.4,1.4c0.5,0.4,0.8,0.9,0.8,1.5
			l0,0C256.5,216.7,256.2,217,255.7,216.7z"/>
		<path class="st0" d="M265,222.1l-6.3-3.6c-0.5-0.4-0.8-0.9-0.8-1.5l0,0c0-0.6,0.3-0.9,0.8-0.6l6.3,3.6c0.5,0.4,0.8,0.9,0.8,1.5
			l0,0C265.8,222,265.4,222.3,265,222.1z"/>
		<path class="st0" d="M257.9,222.5l-4.5-2.6c-0.5-0.4-0.8-0.9-0.8-1.5l0,0c0-0.6,0.3-0.9,0.8-0.6l4.5,2.6c0.5,0.4,0.8,0.9,0.8,1.5
			l0,0C258.7,222.5,258.4,222.7,257.9,222.5z"/>
		<path class="st0" d="M283.1,232.5l-2.9-1.7c-0.5-0.4-0.8-0.9-0.8-1.5l0,0c0-0.6,0.3-0.9,0.8-0.6l2.9,1.7c0.5,0.4,0.8,0.9,0.8,1.5
			l0,0C283.9,232.5,283.5,232.8,283.1,232.5z"/>
		<path class="st0" d="M267.2,205.4l-8-4.6c-0.5-0.4-0.8-0.9-0.8-1.5l0,0c0-0.6,0.3-0.9,0.8-0.6l8,4.6c0.5,0.4,0.8,0.9,0.8,1.5l0,0
			C267.9,205.4,267.6,205.7,267.2,205.4z"/>
		<path class="st0" d="M266.9,200.8l-13.9-8c-0.5-0.4-0.8-0.9-0.8-1.5l0,0c0-0.6,0.3-0.9,0.8-0.6l13.9,8c0.5,0.4,0.8,0.9,0.8,1.5
			l0,0C267.7,200.8,267.3,201.1,266.9,200.8z"/>
		<path class="st0" d="M261.1,206.4l-8-4.6c-0.5-0.4-0.8-0.9-0.8-1.5l0,0c0-0.6,0.3-0.9,0.8-0.6l8,4.6c0.5,0.4,0.8,0.9,0.8,1.5l0,0
			C261.9,206.4,261.6,206.7,261.1,206.4z"/>
		<path class="st0" d="M273.2,208.9l-2.9-1.7c-0.5-0.4-0.8-0.9-0.8-1.5l0,0c0-0.6,0.3-0.9,0.8-0.6l2.9,1.7c0.5,0.4,0.8,0.9,0.8,1.5
			l0,0C274,208.9,273.6,209.2,273.2,208.9z"/>
		<path class="st0" d="M297.8,205.2l-17.1-9.9c-0.5-0.4-0.8-0.9-0.8-1.5l0,0c0-0.6,0.3-0.9,0.8-0.6l17.1,9.9
			c0.5,0.4,0.8,0.9,0.8,1.5l0,0C298.6,205.2,298.2,205.5,297.8,205.2z"/>
		<path class="st0" d="M262.9,216.4l-9.6-5.5c-0.5-0.4-0.8-0.9-0.8-1.5l0,0c0-0.6,0.3-0.9,0.8-0.6l9.6,5.5c0.5,0.4,0.8,0.9,0.8,1.5
			l0,0C263.7,216.3,263.3,216.6,262.9,216.4z"/>
		<path class="st0" d="M255.8,181l-7-4.1c-0.5-0.4-0.8-0.9-0.8-1.5l0,0c0-0.6,0.3-0.9,0.8-0.6l7,4.1c0.5,0.4,0.8,0.9,0.8,1.5l0,0
			C256.6,181,256.3,181.3,255.8,181z"/>
		<path class="st0" d="M257.7,226.8l-8.1-4.7c-0.5-0.4-0.8-0.9-0.8-1.5l0,0c0-0.6,0.3-0.9,0.8-0.6l8.1,4.7c0.5,0.4,0.8,0.9,0.8,1.5
			l0,0C258.5,226.8,258.1,227,257.7,226.8z"/>
		<path class="st0" d="M49.2,233.9l42-24.4c8.3-4.8,16.2-5.6,22.1-2.1s9.2,10.6,9.2,20.2v3.1c-0.3,0.2-0.6,0.4-0.9,0.6v-3.7
			c0-9.3-3.1-16.1-8.7-19.4c-5.6-3.2-13.1-2.5-21.2,2.1l-42,24.4c-0.2,0.1-0.5,0.1-0.6-0.2S49,234,49.2,233.9L49.2,233.9z"/>
		<path class="st0" d="M180.2,204.7v-94.6c0-18.9,13.4-42.1,29.8-51.5c8.1-4.6,15.6-5.4,21.3-2.1s8.9,10.2,8.9,19.5v6.6l-0.9,0.9V76
			c0-8.9-3-15.6-8.4-18.7c-5.4-3.1-12.7-2.4-20.4,2.1c-16.1,9.3-29.3,32.1-29.3,50.7v94.6c0,15.7-9.2,34.3-21.8,45.5V249
			C171.4,237.9,180.2,220,180.2,204.7z"/>
		<path class="st1" d="M240.2,85.5L240.2,85.5c5.3-4.9,11.9-8.1,19-9.3c11.7-1.8,16.6,11.9,16.6,11.9c0.7,3.8,1.2,7.6,1.3,11.4
			c0,4.2-0.4,19.5-0.4,19.5l-37.1-21.4l0,0c-0.2-0.1-0.3-0.2-0.3-0.4V86.3C239.5,86,239.8,85.8,240.2,85.5z"/>
		<path class="st0" d="M266.5,76.8l-35.2-20.3l0.1,0.5c-5.4-3.5-13.6-3.9-24.6,4.2c-21.8,16-24.4,38.2-25.5,42.4s-0.6,30.6-0.6,30.6
			s-0.1,63.7-0.1,71.1s-2.2,15.7-6.4,24.7s-14.8,19.9-14.8,19.9v13c1.7,14,7.7,17.3,16.5,18.1c7.1,0.6,14.8-4.5,20.9-10.1l-0.4,0.4
			v13c1.7,14,7.7,17.3,16.5,18.1c8.9,0.8,18.4-7.3,24.9-14.2s12-17.4,15-26.8s2-21.7,2-21.7s0.1-69.6,0.1-83.3s0.5-11.3,5-25.1
			c4.5-13.8,16.5-23.5,16.5-23.5L305,99L266.5,76.8z"/>
		<path class="st1" d="M205.2,301c-0.5-0.7-6.8-4.9-8.4-12.3c-0.6-3.4-0.8-6.9-0.8-10.4c0,0,0-3.5,0.1-6.6l0.2-0.2v-1.2l-0.2,0.1
			c0-0.7,0.1-1.4,0.1-2c0.2-3.3-2.2-10.3-2.2-10.3s-3.4-9.4-13.7-9.8c-9.1-0.3-18.7,6.2-20.8,7.7v-4.3l-0.4,0.3c0-0.6,0-1.1,0-1.7
			l0.2-0.2v-1.2l-0.2,0.1c0-0.7,0.1-1.4,0.1-2c0.2-3.3-2.2-10.3-2.2-10.3s-3.5-9.4-13.7-9.8c-9.1-0.3-18.7,6.2-20.8,7.7v-4.2
			c-0.3,0.2-0.6,0.4-0.9,0.6v7.4c0,9,3,15.8,8.5,19.1l0,0l0.2,0.1l0.1,0.1h0.1l37.7,21.7v0L205.2,301z"/>
		<path class="st0" d="M150.3,228.6c0,0-0.3-0.1-0.8-0.4l-0.5-0.2l-35.8-20.7c-4.6-2.1-9.8-2.3-14.5-0.5c-8,2.9-49.6,27.9-49.6,27.9
			l37.2,21.4l0,0h0.1l36.9,21.3c0,0,20.9-12.9,35.3-21.3l0.9-0.5c5.9-3.4,10.6-5.9,12.1-6.3c8.9-2.4,15.1,0.5,16.7,1.4L150.3,228.6z
			"/>
		<path class="st0" d="M188.5,250.6l0.4,0.2L188.5,250.6z"/>
		<path class="st1" d="M277.2,106.8L277.2,106.8c5.3-4.9,11.9-8.1,19-9.3c11.7-1.8,16.5,11.9,16.5,11.9c0.7,3.7,1.2,7.5,1.3,11.3
			c0,4.2-0.4,19.5-0.4,19.5l-37.2-21.4l0,0c-0.2-0.1-0.3-0.2-0.2-0.4v-10.9C276.6,107.3,276.9,107.1,277.2,106.8z"/>
		<path class="st2" d="M212.4,302.7c4.1,0,8.6-1.4,13.3-4.1c16.3-9.4,29.5-32.4,29.5-51.2v-94.6c0-18.7,13.1-41.4,29.3-50.7
			c7.7-4.5,15-5.2,20.4-2.1c5.4,3.1,8.4,9.8,8.4,18.7v21.2c0,0.3,0.2,0.5,0.5,0.5c0.3,0,0.5-0.2,0.5-0.5v-21.1
			c0-9.3-3.2-16.2-8.9-19.5c-5.7-3.3-13.3-2.6-21.3,2.1c-16.4,9.5-29.7,32.6-29.7,51.5v94.6c0,18.5-13,41.1-29.1,50.4
			c-7.7,4.4-14.9,5.2-20.3,2.1c-5.4-3.1-8.4-9.7-8.4-18.6v-11.1c0-9.6-3.3-16.8-9.2-20.2s-13.8-2.7-22.1,2.1l-42,24.5
			c-0.2,0.1-0.3,0.4-0.2,0.6c0.1,0.2,0.4,0.3,0.6,0.2l42-24.4c8-4.6,15.5-5.4,21.2-2.1s8.7,10.1,8.7,19.4v11.1
			c0,9.2,3.1,16.1,8.8,19.4C207,302,209.7,302.7,212.4,302.7z"/>
		<path class="st7" d="M215.3,176l-6.2-3.6c-0.6-0.5-1-1.2-1.1-2l0,0c0-0.8,0.4-1.1,1-0.8l6.2,3.6c0.6,0.5,1,1.2,1.1,2l0,0
			C216.4,176,215.9,176.3,215.3,176z"/>
		<path class="st7" d="M228.5,183.6l-9.1-5.3c-0.6-0.5-1-1.2-1.1-2l0,0c0-0.8,0.4-1.1,1-0.8l9.1,5.3c0.6,0.5,1,1.2,1.1,2l0,0
			C229.5,183.6,229.1,183.9,228.5,183.6z"/>
		<path class="st7" d="M214.6,152.3l-11.8-6.9c-0.6-0.5-1-1.2-1.1-2l0,0c0-0.8,0.4-1.1,1-0.8l11.9,6.8c0.6,0.5,1,1.2,1.1,2l0,0
			C215.7,152.3,215.2,152.7,214.6,152.3z"/>
		<path class="st7" d="M206.9,159.5l-3.8-2.2c-0.6-0.5-1-1.2-1.1-2l0,0c0-0.8,0.4-1.1,1-0.8l3.9,2.2c0.6,0.5,1,1.2,1.1,2l0,0
			C207.9,159.5,207.4,159.8,206.9,159.5z"/>
		<path class="st7" d="M205.7,170.4l-2.5-1.4c-0.6-0.5-1-1.2-1.1-2l0,0c0-0.8,0.4-1.1,1-0.8l2.5,1.4c0.6,0.5,1,1.2,1.1,2l0,0
			C206.7,170.4,206.2,170.7,205.7,170.4z"/>
		<path class="st7" d="M221.3,167.8l-10.4-6c-0.6-0.5-1-1.2-1.1-2l0,0c0-0.8,0.4-1.1,1-0.8l10.4,6c0.6,0.5,1,1.2,1.1,2l0,0
			C222.3,167.8,221.9,168.1,221.3,167.8z"/>
		<path class="st7" d="M220.9,161.8l-18.1-10.4c-0.6-0.5-1-1.2-1.1-2l0,0c0-0.8,0.4-1.1,1-0.8l18.1,10.4c0.6,0.5,1,1.2,1.1,2l0,0
			C222,161.8,221.5,162.1,220.9,161.8z"/>
		<path class="st7" d="M213.4,169.1l-10.4-6c-0.6-0.5-1-1.2-1.1-2l0,0c0-0.8,0.4-1.1,1-0.8l10.4,6c0.6,0.5,1,1.2,1.1,2l0,0
			C214.5,169.1,214,169.4,213.4,169.1z"/>
		<path class="st7" d="M229.1,172.3l-3.8-2.2c-0.6-0.5-1-1.2-1.1-2l0,0c0-0.8,0.4-1.1,1-0.8l3.8,2.2c0.6,0.5,1,1.2,1.1,2l0,0
			C230.2,172.3,229.7,172.7,229.1,172.3z"/>
		<path class="st7" d="M218.4,142.9l-6.2-3.6c-0.6-0.5-1-1.2-1.1-2l0,0c0-0.8,0.4-1.1,1-0.8l6.2,3.6c0.6,0.5,1,1.2,1.1,2l0,0
			C219.4,142.9,219,143.2,218.4,142.9z"/>
		<path class="st7" d="M233.2,151.4l-9.2-5.3c-0.6-0.5-1-1.2-1.1-2l0,0c0-0.8,0.4-1.1,1-0.8l9.1,5.3c0.6,0.5,1,1.2,1.1,2l0,0
			C234.2,151.4,233.8,151.8,233.2,151.4z"/>
		<path class="st7" d="M215.3,176l-6.2-3.6c-0.6-0.5-1-1.2-1.1-2l0,0c0-0.8,0.4-1.1,1-0.8l6.2,3.6c0.6,0.5,1,1.2,1.1,2l0,0
			C216.4,176,215.9,176.3,215.3,176z"/>
		<path class="st7" d="M228.5,183.6l-9.1-5.3c-0.6-0.5-1-1.2-1.1-2l0,0c0-0.8,0.4-1.1,1-0.8l9.1,5.3c0.6,0.5,1,1.2,1.1,2l0,0
			C229.5,183.6,229.1,183.9,228.5,183.6z"/>
		<path class="st7" d="M201.4,138.9l-3.9-2.2c-0.6-0.5-1-1.2-1.1-2l0,0c0-0.8,0.4-1.1,1-0.8l3.9,2.2c0.6,0.5,1,1.2,1.1,2l0,0
			C202.4,138.9,202,139.2,201.4,138.9z"/>
		<path class="st7" d="M214.6,152.3l-11.8-6.9c-0.6-0.5-1-1.2-1.1-2l0,0c0-0.8,0.4-1.1,1-0.8l11.9,6.8c0.6,0.5,1,1.2,1.1,2l0,0
			C215.7,152.3,215.2,152.7,214.6,152.3z"/>
		<path class="st7" d="M206.9,159.5l-3.8-2.2c-0.6-0.5-1-1.2-1.1-2l0,0c0-0.8,0.4-1.1,1-0.8l3.9,2.2c0.6,0.5,1,1.2,1.1,2l0,0
			C207.9,159.5,207.4,159.8,206.9,159.5z"/>
		<path class="st7" d="M233.1,197.9l-10.4-6c-0.6-0.5-1-1.2-1.1-2l0,0c0-0.8,0.4-1.1,1-0.8l10.4,6c0.6,0.5,1,1.2,1.1,2l0,0
			C234.1,197.9,233.7,198.2,233.1,197.9z"/>
		<path class="st7" d="M205.7,170.4l-2.5-1.4c-0.6-0.5-1-1.2-1.1-2l0,0c0-0.8,0.4-1.1,1-0.8l2.5,1.4c0.6,0.5,1,1.2,1.1,2l0,0
			C206.7,170.4,206.2,170.7,205.7,170.4z"/>
		<path class="st7" d="M206.4,182.5l-3.1-1.8c-0.6-0.5-1-1.2-1.1-2l0,0c0-0.8,0.4-1.1,1-0.8l3.1,1.8c0.6,0.5,1,1.2,1.1,2l0,0
			C207.5,182.5,207,182.8,206.4,182.5z"/>
		<path class="st7" d="M218.5,189.5l-8.1-4.7c-0.6-0.5-1-1.2-1.1-2l0,0c0-0.8,0.4-1.1,1-0.8l8.1,4.7c0.6,0.5,1,1.2,1.1,2l0,0
			C219.5,189.4,219,189.8,218.5,189.5z"/>
		<path class="st7" d="M209.3,190l-5.9-3.4c-0.6-0.5-1-1.2-1.1-2l0,0c0-0.8,0.4-1.1,1-0.8l5.9,3.4c0.6,0.5,1,1.2,1.1,2l0,0
			C210.3,189.9,209.9,190.3,209.3,190z"/>
		<path class="st7" d="M221.3,167.8l-10.4-6c-0.6-0.5-1-1.2-1.1-2l0,0c0-0.8,0.4-1.1,1-0.8l10.4,6c0.6,0.5,1,1.2,1.1,2l0,0
			C222.3,167.8,221.9,168.1,221.3,167.8z"/>
		<path class="st7" d="M220.9,161.8l-18.1-10.4c-0.6-0.5-1-1.2-1.1-2l0,0c0-0.8,0.4-1.1,1-0.8l18.1,10.4c0.6,0.5,1,1.2,1.1,2l0,0
			C222,161.8,221.5,162.1,220.9,161.8z"/>
		<path class="st7" d="M213.4,169.1l-10.4-6c-0.6-0.5-1-1.2-1.1-2l0,0c0-0.8,0.4-1.1,1-0.8l10.4,6c0.6,0.5,1,1.2,1.1,2l0,0
			C214.5,169.1,214,169.4,213.4,169.1z"/>
		<path class="st7" d="M229.1,172.3l-3.8-2.2c-0.6-0.5-1-1.2-1.1-2l0,0c0-0.8,0.4-1.1,1-0.8l3.8,2.2c0.6,0.5,1,1.2,1.1,2l0,0
			C230.2,172.3,229.7,172.7,229.1,172.3z"/>
		<path class="st7" d="M215.7,182l-12.4-7.2c-0.6-0.5-1-1.2-1.1-2l0,0c0-0.8,0.4-1.1,1-0.8l12.4,7.2c0.6,0.5,1,1.2,1.1,2l0,0
			C216.7,182,216.3,182.4,215.7,182z"/>
		<path class="st7" d="M206.6,136.1l-9.1-5.3c-0.6-0.5-1-1.2-1.1-2l0,0c0-0.8,0.4-1.1,1-0.8l9.1,5.3c0.6,0.5,1,1.2,1.1,2l0,0
			C207.6,136,207.1,136.4,206.6,136.1z"/>
		<path class="st7" d="M209,195.6l-10.6-6.1c-0.6-0.5-1-1.2-1.1-2l0,0c0-0.8,0.4-1.1,1-0.8l10.6,6.1c0.6,0.5,1,1.2,1.1,2l0,0
			C210,195.6,209.5,195.9,209,195.6z"/>
		<path class="st7" d="M213.9,231.7l-6.2-3.6c-0.6-0.5-1-1.2-1.1-2l0,0c0-0.8,0.4-1.1,1-0.8l6.2,3.6c0.6,0.5,1,1.2,1.1,2l0,0
			C214.9,231.7,214.5,232,213.9,231.7z"/>
		<path class="st7" d="M227,239.3l-9.1-5.3c-0.6-0.5-1-1.2-1.1-2l0,0c0-0.8,0.4-1.1,1-0.8l9.2,5.3c0.6,0.5,1,1.2,1.1,2l0,0
			C228.1,239.3,227.6,239.6,227,239.3z"/>
		<path class="st7" d="M213.2,208l-11.9-6.8c-0.6-0.5-1-1.2-1.1-2l0,0c0-0.8,0.4-1.1,1-0.8l11.9,6.8c0.6,0.5,1,1.2,1.1,2l0,0
			C214.2,208,213.7,208.4,213.2,208z"/>
		<path class="st7" d="M205.4,215.2l-3.9-2.2c-0.6-0.5-1-1.2-1.1-2l0,0c0-0.8,0.4-1.1,1-0.8l3.9,2.2c0.6,0.5,1,1.2,1.1,2l0,0
			C206.4,215.1,206,215.5,205.4,215.2z"/>
		<path class="st7" d="M204.2,226.1l-2.5-1.4c-0.6-0.5-1-1.2-1.1-2l0,0c0-0.8,0.4-1.1,1-0.8l2.5,1.4c0.6,0.5,1,1.2,1.1,2l0,0
			C205.2,226.1,204.8,226.4,204.2,226.1z"/>
		<path class="st7" d="M219.8,223.5l-10.4-6c-0.6-0.5-1-1.2-1.1-2l0,0c0-0.8,0.4-1.1,1-0.8l10.4,6c0.6,0.5,1,1.2,1.1,2l0,0
			C220.8,223.5,220.4,223.8,219.8,223.5z"/>
		<path class="st7" d="M219.5,217.5l-18.1-10.4c-0.6-0.5-1-1.2-1.1-2l0,0c0-0.8,0.4-1.1,1-0.8l18.1,10.4c0.6,0.5,1,1.2,1.1,2l0,0
			C220.5,217.5,220,217.8,219.5,217.5z"/>
		<path class="st7" d="M212,224.8l-10.4-6c-0.6-0.5-1-1.2-1.1-2l0,0c0-0.8,0.4-1.1,1-0.8l10.4,6c0.6,0.5,1,1.2,1.1,2l0,0
			C213,224.7,212.5,225.1,212,224.8z"/>
		<path class="st7" d="M227.7,228l-3.8-2.2c-0.6-0.5-1-1.2-1.1-2l0,0c0-0.8,0.4-1.1,1-0.8l3.8,2.2c0.6,0.5,1,1.2,1.1,2l0,0
			C228.7,228,228.2,228.4,227.7,228z"/>
		<polygon class="st0" points="259.3,361.3 270.8,354.7 282.2,361.3 270.8,367.9 		"/>
		<polygon class="st0" points="283.7,347 295.2,340.4 306.7,347 295.2,353.7 		"/>
		<polygon class="st0" points="308,333.1 319.5,326.4 331,333.1 319.5,339.7 		"/>
		<polygon class="st4" points="295.2,347 295.2,311.6 283.7,305 283.7,340.4 		"/>
		<polygon class="st10" points="295.2,311.6 306.7,305 306.7,340.4 295.2,347 		"/>
		<polygon class="st10" points="295.2,347 295.2,311.6 283.7,305 283.7,340.4 		"/>
		<polygon class="st10" points="270.8,361.3 270.8,341.4 259.3,334.7 259.3,354.7 		"/>
		<polygon class="st10" points="270.8,341.4 282.2,334.7 282.2,354.7 270.8,361.3 		"/>
		<polygon class="st11" points="259.3,334.7 270.8,328.1 282.2,334.7 270.8,341.4 		"/>
		<polygon class="st10" points="319.5,333.1 319.5,284.4 308,277.8 308,326.4 		"/>
		<polygon class="st10" points="319.5,284.4 331,277.8 331,326.4 319.5,333.1 		"/>
		<polygon class="st11" points="308,277.8 319.5,271.1 331,277.8 319.5,284.4 		"/>
		<polygon class="st11" points="283.7,305 295.2,298.3 306.7,305 295.2,311.6 		"/>
		<path class="st0" d="M152.2,341c-9.8-5.7-25.7-5.7-35.5,0s-9.8,14.8,0,20.5s25.7,5.7,35.5,0S162,346.7,152.2,341z M142.6,356
			c-4.5,2.6-11.8,2.6-16.3,0s-4.5-6.8,0-9.4s11.8-2.6,16.3,0S147.1,353.4,142.6,356L142.6,356z"/>
		<path class="st12" d="M113,337.7l9,0.1c0.8-1,1.7-1.7,2.8-2.3c4.9-2.8,12.7-3.1,18-0.7l5.3-5l8.2,0.1c-0.4-0.3-0.8-0.5-1.3-0.8
			c-11.4-6.6-29.8-6.6-41.2,0c-1.9,1.1-3.6,2.4-5.1,4L113,337.7z"/>
		<polygon class="st10" points="156.3,316.9 156.3,329.9 148.2,329.8 148.2,316.8 		"/>
		<polygon class="st12" points="142.8,321.8 142.8,334.8 148.2,329.8 148.2,316.8 		"/>
		<path class="st12" d="M122,324.8v13l11.8-9.6l9.1,6.6v-13l-8.4-4c0,0-11.5,3.5-12.1,3.7S122,324.8,122,324.8z"/>
		<polygon class="st12" points="113,324.7 113,337.7 122,337.8 122,324.8 		"/>
		<polygon class="st10" points="108.8,320.1 108.8,333.1 113,337.7 113,324.7 		"/>
		<path class="st11" d="M113,324.7l9,0.1c0.8-1,1.7-1.7,2.8-2.3c4.9-2.8,12.7-3.1,18-0.7l5.3-5l8.2,0.1c-0.4-0.3-0.8-0.5-1.3-0.8
			c-11.4-6.6-29.8-6.6-41.2,0c-1.9,1.1-3.6,2.4-5.1,4L113,324.7z"/>
		<path class="st7" d="M145.5,323.4v12l7.8-1.9c0,0-0.5-7-0.6-7.2S145.5,323.4,145.5,323.4z"/>
		<path class="st1" d="M139.7,335.3v13l0.8,0.9l5.5-3.2c0,0-0.8-9.9-0.9-10.1C143.3,335.7,141.5,335.4,139.7,335.3z"/>
		<path class="st2" d="M150.2,332l-4.7,4.4c3.9,3.1,3.4,7.4-1.4,10.2c-1.4,0.8-2.9,1.4-4.5,1.7l4.8,5.1l-4.3,4
			c5.2-0.5,10.3-2.1,14.9-4.6c9.8-5.6,11.1-14.3,4.1-20.8L150.2,332z"/>
		<polygon class="st2" points="140.2,344.5 140.2,357.5 150.8,353.4 163.6,341.2 163.6,327.4 150.1,338.1 		"/>
		<path class="st0" d="M150.2,319l-4.7,4.4c3.9,3.1,3.4,7.4-1.4,10.2c-1.4,0.8-2.9,1.4-4.5,1.7l4.8,5.1l-4.3,4
			c5.2-0.5,10.3-2.1,14.9-4.6c9.8-5.6,11.1-14.3,4.1-20.8L150.2,319z"/>
		<path class="st2" d="M140.2,353.4l-4.3-4.5c-3.8,0.3-7.7-0.5-11.1-2.3c-3.1-1.8-4.4-4.3-3.9-6.6l-10.2-0.2l-3.9-4.2
			c-3.4,5.9-1.1,12.6,7,17.3c5.9,3.4,13.8,5.1,21.6,4.9L140.2,353.4z"/>
		<polygon class="st2" points="135.5,344.8 135.5,357.8 105.3,341.1 105.3,328.1 109.7,329.9 		"/>
		<polygon class="st1" points="140.2,340.4 140.2,353.4 135.5,357.8 135.5,344.8 		"/>
		<path class="st7" d="M140.2,340.4l-4.3-4.5c-3.8,0.3-7.7-0.5-11.1-2.3c-3.1-1.8-4.4-4.3-3.9-6.6l-10.2-0.2l-3.9-4.2
			c-3.4,5.9-1.1,12.6,7,17.3c5.9,3.4,13.8,5.1,21.6,4.9L140.2,340.4z"/>
		<path class="st10" d="M267.6,122l-26.7-15.4c-0.4-0.3-0.9-0.3-1.4-0.1l0,0l-2.6,1.5l1.8,0.7v19.4c0,1.6,0.8,3.2,2.1,4.1l25.6,14.8
			v2.3l2.6-1.5l0,0c0.5-0.4,0.8-1.1,0.7-1.7v-19.9C269.7,124.5,268.9,123,267.6,122z"/>
		<path class="st11" d="M265,149.1l-26.8-15.4c-1.3-1-2.1-2.5-2.1-4.1v-19.9c0-1.6,1-2.3,2.1-1.6l26.8,15.4c1.3,1,2.1,2.5,2.1,4.1
			v19.9C267.1,149.1,266.2,149.8,265,149.1z"/>
		<path class="st9" d="M247.2,126.8c0,1.2-0.8,1.6-1.8,1c-1.1-0.7-1.7-1.9-1.8-3.1c0-1.2,0.8-1.6,1.8-1
			C246.5,124.4,247.2,125.6,247.2,126.8z"/>
		<path class="st9" d="M252.7,130c0,1.1-0.8,1.6-1.8,1c-1.1-0.7-1.7-1.9-1.8-3.1c0-1.2,0.8-1.6,1.8-1
			C251.9,127.6,252.6,128.7,252.7,130z"/>
		<path class="st9" d="M258.2,133.2c0,1.2-0.8,1.6-1.8,1c-1.1-0.7-1.7-1.9-1.8-3.1c0-1.2,0.8-1.6,1.8-1
			C257.4,130.7,258.1,131.9,258.2,133.2z"/>
		<path class="st7" d="M137.6,91.6l-26.2-15.1c-0.4-0.3-0.9-0.3-1.3-0.1l0,0l-2.5,1.5l1.8,0.7v19.1c0,1.6,0.8,3.1,2.1,4l25.1,14.5
			v2.2l2.6-1.5l0,0c0.5-0.4,0.8-1,0.7-1.7V95.7C139.7,94.1,138.9,92.6,137.6,91.6z"/>
		<path class="st0" d="M135,118.3l-26.2-15.2c-1.3-0.9-2.1-2.4-2.1-4V79.6c0-1.5,0.9-2.3,2.1-1.6L135,93.1c1.3,0.9,2.1,2.4,2.1,4
			v19.5C137.1,118.2,136.2,118.9,135,118.3z"/>
		<path class="st9" d="M117.6,96.4c0,1.1-0.8,1.6-1.8,1c-1.1-0.7-1.7-1.8-1.8-3c0-1.1,0.8-1.6,1.8-1C116.8,94,117.5,95.1,117.6,96.4
			z"/>
		<path class="st9" d="M123,99.5c0,1.1-0.8,1.6-1.8,1c-1-0.7-1.7-1.8-1.8-3c0-1.1,0.8-1.6,1.8-1C122.2,97.2,122.9,98.3,123,99.5z"/>
		<path class="st9" d="M128.3,102.6c0,1.1-0.8,1.6-1.8,1c-1.1-0.7-1.7-1.8-1.8-3.1c0-1.1,0.8-1.6,1.8-1
			C127.6,100.2,128.3,101.3,128.3,102.6z"/>
	</g>
</g>
</svg>
