<?xml version="1.0" encoding="utf-8"?>
<!-- Generator: Adobe Illustrator 21.0.2, SVG Export Plug-In . SVG Version: 6.00 Build 0)  -->
<svg version="1.1" id="Layer_1" xmlns="http://www.w3.org/2000/svg" xmlns:xlink="http://www.w3.org/1999/xlink" x="0px" y="0px"
	 viewBox="0 0 370 411.3" style="enable-background:new 0 0 370 411.3;" xml:space="preserve">
<style type="text/css">
	.st0{fill:#D4ECFF;}
	.st1{fill:#173D7A;}
	.st2{fill:#396CAA;}
	.st3{fill:#95D359;}
	.st4{fill:#C13D1A;}
	.st5{fill:#DB5126;}
	.st6{fill:#EF602E;}
	.st7{fill:#5793CE;}
	.st8{fill:#274F89;}
	.st9{fill:#FFFFFF;}
	.st10{fill:#D3008D;}
	.st11{fill:#FF2C9C;}
	.st12{fill:#B70083;}
</style>
<title>data-right</title>
<g id="Layer_2">
	<g id="_ÎÓÈ_1">
		<polygon class="st0" points="216.4,188.2 201.8,179.8 216.4,171.3 231,179.8 231,179.8 245.6,188.2 231,196.6 231,196.6 
			216.4,205.1 201.8,196.6 216.4,188.2 		"/>
		<polygon class="st1" points="216.4,167.2 216.4,105.4 201.8,96.9 201.8,158.8 		"/>
		<polygon class="st2" points="216.4,105.4 231,96.9 231,158.8 216.4,167.2 		"/>
		<polygon class="st0" points="201.8,96.9 216.4,88.5 231,96.9 216.4,105.4 		"/>
		<polygon class="st3" points="201.8,170 216.4,161.6 216.4,167.2 201.8,175.6 		"/>
		<polygon class="st4" points="231,175.6 231,130.7 216.4,122.2 216.4,167.2 		"/>
		<polygon class="st5" points="231,130.7 245.6,122.2 245.6,167.2 231,175.6 		"/>
		<polygon class="st6" points="216.4,122.2 231,113.8 245.6,122.2 231,130.7 		"/>
		<polygon class="st2" points="231,175.6 231,130.7 216.4,122.2 216.4,167.2 		"/>
		<polygon class="st7" points="231,130.7 245.6,122.2 245.6,167.2 231,175.6 		"/>
		<polygon class="st0" points="216.4,122.2 231,113.8 245.6,122.2 231,130.7 		"/>
		<polygon class="st1" points="216.4,184.1 216.4,158.8 201.8,150.3 201.8,175.6 		"/>
		<polygon class="st2" points="216.4,158.8 231,150.3 231,175.6 216.4,184.1 		"/>
		<polygon class="st0" points="201.8,150.3 216.4,141.9 231,150.3 216.4,158.8 		"/>
		<path class="st0" d="M155,341.5l110.3-63.7c3.1-1.8,2.7-5-0.9-7l-75.1-43.4c-3.6-2.1-9.1-2.3-12.2-0.5L66.9,290.6
			c-3.1,1.8-2.7,5,0.9,7l75.1,43.4C146.5,343.1,151.9,343.3,155,341.5z"/>
		<path class="st1" d="M62.8,165.3l112.1-64.7c1.1-0.8,2.6-1,3.8-0.5l0,0l0.2,0.1l0,0l3.7,1.7l-4,2c0,0.1,0,0.1,0,0.2v92.1
			c0,4.6-2.9,10-6.4,12l-109.1,63l-0.6,5.1l-4-1.9c-1.3-0.8-2.1-2.5-2.1-5v-92.1C56.4,172.8,59.3,167.4,62.8,165.3z"/>
		<path class="st2" d="M62.8,165.3l112.1-64.7c1.1-0.8,2.6-1,3.8-0.5l0,0l0.2,0.1l0,0l3.7,1.7l-4,2c0,0.1,0,0.1,0,0.2v60.7l-51,40.3
			l-69.3-34.9C59.4,168.3,60.9,166.6,62.8,165.3z"/>
		<path class="st8" d="M60.9,166.8l11,4.6l-8.3,6.4l-6.9-2.9C57.3,171.8,58.8,169,60.9,166.8z"/>
		<path class="st0" d="M66.5,275.9l112.1-64.7c3.5-2,6.4-7.4,6.4-12v-92.1c0-4.6-2.9-6.7-6.4-4.7L66.5,167.1c-3.5,2-6.4,7.4-6.4,12
			v92.1C60.1,275.8,62.9,277.9,66.5,275.9z"/>
		<path class="st9" d="M70.2,269l104.7-60.4c3.2-1.9,5.8-6.8,5.8-11v-84.3c0-4.2-2.6-6.1-5.8-4.3L70.2,169.5
			c-3.2,1.9-5.8,6.8-5.8,11v84.3C64.4,268.9,67,270.9,70.2,269z"/>
		<path class="st9" d="M70.2,269l104.7-60.4c3.2-1.9,5.8-6.8,5.8-11v-84.3c0-4.2-2.6-6.1-5.8-4.3L70.2,169.5
			c-3.2,1.9-5.8,6.8-5.8,11v84.3C64.4,268.9,67,270.9,70.2,269z"/>
		<path class="st1" d="M64.8,278.7l15.1-2l97.3-56.2c3.1-1.8,8.6-1.6,12.2,0.5l69,39.8l9.1-1.2v5.2l0,0c0,1.4-0.8,2.6-2.1,3.2
			L155,331.7c-3.1,1.8-8.6,1.6-12.2-0.5l-75.1-43.4c-2-1.2-3-2.7-3-4.1l0,0L64.8,278.7z"/>
		<path class="st2" d="M137.9,243.2l6.9-4h76l37.5,21.6l9.1-1.2v5.2l0,0c0,1.4-0.8,2.6-2.1,3.2L155,331.7c-1.9,1-4.1,1.4-6.3,1.2
			L137.9,243.2z"/>
		<path class="st7" d="M263.4,260.2l4-0.5v5.2l0,0c0,1.4-0.8,2.6-2.1,3.2l-1.9,1.1L263.4,260.2z"/>
		<path class="st8" d="M153.9,332.2c-3.4,1.1-7.1,0.9-10.3-0.6V320h10.3V332.2z"/>
		<path class="st0" d="M155,326.5l110.3-63.7c3.1-1.8,2.7-5-0.9-7l-75.1-43.4c-3.6-2.1-9.1-2.3-12.2-0.5L66.9,275.7
			c-3.1,1.8-2.7,5,0.9,7l75.1,43.4C146.5,328.1,151.9,328.3,155,326.5z"/>
		<path class="st9" d="M67.8,280.8l75.1,43.4c3.6,2.1,9.1,2.3,12.2,0.5l110.3-63.7c0.9-0.5,1.6-1.2,1.9-2.1c0.5,1.5-0.1,3-1.9,4
			L155,326.5c-3.1,1.8-8.6,1.6-12.2-0.5l-75.1-43.4c-2.4-1.4-3.4-3.3-2.8-4.9C65.5,279.1,66.5,280.2,67.8,280.8z"/>
		<path class="st1" d="M218.4,241.8l5-2.9c0.4-0.2,0.4-0.6-0.1-0.9l-5.9-3.4c-0.5-0.3-1.1-0.3-1.6-0.1l-5,2.9
			c-0.4,0.2-0.4,0.6,0.1,0.9l5.9,3.4C217.4,242,217.9,242,218.4,241.8z"/>
		<path class="st1" d="M210.7,246.2l5-2.9c0.4-0.2,0.4-0.6-0.1-0.9l-5.9-3.4c-0.5-0.3-1.1-0.3-1.6-0.1l-5,2.9
			c-0.4,0.2-0.4,0.6,0.1,0.9l5.9,3.4C209.7,246.4,210.2,246.5,210.7,246.2z"/>
		<path class="st1" d="M203,250.7l5-2.9c0.4-0.2,0.4-0.6-0.1-0.9l-5.9-3.4c-0.5-0.3-1.1-0.3-1.6-0.1l-5,2.9
			c-0.4,0.2-0.4,0.6,0.1,0.9l5.9,3.4C201.9,250.9,202.5,250.9,203,250.7z"/>
		<path class="st1" d="M192.4,247l5-2.9c0.4-0.2,0.4-0.6-0.1-0.9l-4.9-2.9c-0.5-0.3-1.1-0.3-1.6-0.1l-5,2.9
			c-0.4,0.2-0.4,0.6,0.1,0.9l4.9,2.9C191.3,247.2,191.9,247.2,192.4,247z"/>
		<path class="st1" d="M184.7,251.4l5-2.9c0.4-0.2,0.4-0.6-0.1-0.9l-4.9-2.9c-0.5-0.3-1.1-0.3-1.6-0.1l-5,2.9
			c-0.4,0.2-0.4,0.6,0.1,0.9l4.9,2.9C183.6,251.7,184.2,251.7,184.7,251.4z"/>
		<path class="st1" d="M176.9,255.9l5-2.9c0.4-0.2,0.4-0.6-0.1-0.9l-4.9-2.9c-0.5-0.3-1.1-0.3-1.6-0.1l-5,2.9
			c-0.4,0.2-0.3,0.6,0.1,0.9l4.9,2.9C175.9,256.1,176.4,256.2,176.9,255.9z"/>
		<path class="st1" d="M169.2,260.3l5-2.9c0.4-0.2,0.4-0.6-0.1-0.9l-4.9-2.9c-0.5-0.3-1.1-0.3-1.6-0.1l-5,2.9
			c-0.4,0.2-0.3,0.6,0.1,0.9l4.9,2.9C168.2,260.6,168.7,260.6,169.2,260.3z"/>
		<path class="st1" d="M161.5,264.8l5-2.9c0.4-0.2,0.3-0.6-0.1-0.9l-4.9-2.9c-0.5-0.3-1.1-0.3-1.6-0.1l-5,2.9
			c-0.4,0.2-0.4,0.6,0.1,0.9l5,2.9C160.5,265,161,265,161.5,264.8z"/>
		<path class="st1" d="M153.8,269.2l5-2.9c0.4-0.2,0.3-0.6-0.1-0.9l-4.9-2.9c-0.5-0.3-1.1-0.3-1.6-0.1l-5,2.9
			c-0.4,0.2-0.3,0.6,0.1,0.9l4.9,2.9C152.7,269.5,153.3,269.5,153.8,269.2z"/>
		<path class="st1" d="M146.1,273.7l5-2.9c0.4-0.2,0.4-0.6-0.1-0.9l-5-2.9c-0.5-0.3-1.1-0.3-1.6-0.1l-5,2.9
			c-0.4,0.2-0.3,0.6,0.1,0.9l4.9,2.9C145,273.9,145.6,273.9,146.1,273.7z"/>
		<path class="st1" d="M138.4,278.1l5-2.9c0.4-0.2,0.4-0.6-0.1-0.9l-4.9-2.9c-0.5-0.3-1.1-0.3-1.6-0.1l-5,2.9
			c-0.4,0.2-0.4,0.6,0.1,0.9l4.9,2.9C137.3,278.4,137.9,278.4,138.4,278.1z"/>
		<path class="st1" d="M130.7,282.6l5-2.9c0.4-0.2,0.3-0.6-0.1-0.9l-5-2.9c-0.5-0.3-1.1-0.3-1.6-0.1l-5,2.9
			c-0.4,0.2-0.3,0.6,0.1,0.9l5,2.9C129.6,282.8,130.2,282.8,130.7,282.6z"/>
		<path class="st1" d="M123,287l5-2.9c0.4-0.2,0.3-0.6-0.1-0.9l-4.9-2.9c-0.5-0.3-1.1-0.3-1.6-0.1l-5,2.9c-0.4,0.2-0.3,0.6,0.1,0.9
			l4.9,2.9C121.9,287.3,122.5,287.3,123,287z"/>
		<path class="st2" d="M181,244.9l5-2.9c0.4-0.2,0.4-0.6-0.1-0.9l-4.9-2.9c-0.5-0.3-1.1-0.3-1.6-0.1l-5,2.9
			c-0.4,0.2-0.4,0.6,0.1,0.9l4.9,2.9C179.9,245.1,180.5,245.2,181,244.9z"/>
		<path class="st2" d="M188.8,240.4l5-2.9c0.4-0.2,0.4-0.6-0.1-0.9l-4.9-2.9c-0.5-0.3-1.1-0.3-1.6-0.1l-5,2.9
			c-0.4,0.2-0.4,0.6,0.1,0.9l4.9,2.9C187.7,240.6,188.3,240.6,188.8,240.4z"/>
		<path class="st1" d="M196.7,235.8l10.8-6.2c0.4-0.2,0.4-0.6-0.1-0.9l-4.9-2.8c-0.5-0.3-1.1-0.3-1.6-0.1L190,232
			c-0.4,0.2-0.4,0.6,0.1,0.9l4.9,2.9C195.6,236.1,196.2,236.1,196.7,235.8z"/>
		<path class="st1" d="M191.2,230.3l8.7-5c0.4-0.2,0.4-0.6-0.1-0.9l-4.9-2.9c-0.5-0.3-1.1-0.3-1.6-0.1l-8.7,5
			c-0.4,0.2-0.4,0.6,0.1,0.9l4.9,2.9C190.1,230.6,190.7,230.6,191.2,230.3z"/>
		<path class="st2" d="M173.3,249.3l5-2.9c0.4-0.2,0.4-0.6-0.1-0.9l-4.9-2.9c-0.5-0.3-1.1-0.3-1.6-0.1l-5,2.9
			c-0.4,0.2-0.3,0.6,0.1,0.9l4.9,2.9C172.2,249.5,172.8,249.6,173.3,249.3z"/>
		<path class="st1" d="M165.6,253.8l5-2.9c0.4-0.2,0.4-0.6-0.1-0.9l-5-2.9c-0.5-0.3-1.1-0.3-1.6-0.1l-4.9,2.8
			c-0.4,0.2-0.3,0.6,0.1,0.9l4.9,2.9C164.5,254,165.1,254,165.6,253.8z"/>
		<path class="st1" d="M157.9,258.2l5-2.9c0.4-0.2,0.3-0.6-0.1-0.9l-4.9-2.9c-0.5-0.3-1.1-0.3-1.6-0.1l-5,2.9
			c-0.4,0.2-0.4,0.6,0.1,0.9l5,2.9C156.8,258.4,157.4,258.5,157.9,258.2z"/>
		<path class="st1" d="M150.2,262.7l5-2.9c0.4-0.2,0.3-0.6-0.1-0.9l-4.9-2.9c-0.5-0.3-1.1-0.3-1.6-0.1l-5,2.9
			c-0.4,0.2-0.3,0.6,0.1,0.9l4.9,2.9C149.1,262.9,149.7,262.9,150.2,262.7z"/>
		<path class="st1" d="M142.5,267.1l5-2.9c0.4-0.2,0.4-0.6-0.1-0.9l-4.9-2.9c-0.5-0.3-1.1-0.3-1.6-0.1l-5,2.9
			c-0.4,0.2-0.4,0.6,0.1,0.9l4.9,2.9C141.4,267.3,142,267.4,142.5,267.1z"/>
		<path class="st1" d="M134.8,271.6l5-2.9c0.4-0.2,0.3-0.6-0.1-0.9l-4.9-2.9c-0.5-0.3-1.1-0.3-1.6-0.1l-5,2.9
			c-0.4,0.2-0.4,0.6,0.1,0.9l5,2.9C133.7,271.8,134.3,271.8,134.8,271.6z"/>
		<path class="st1" d="M127,276l5-2.9c0.4-0.2,0.3-0.6-0.1-0.9l-4.9-2.9c-0.5-0.3-1.1-0.3-1.6-0.1l-5,2.9c-0.4,0.2-0.3,0.6,0.1,0.9
			l4.9,2.8C126,276.2,126.5,276.2,127,276z"/>
		<path class="st1" d="M119.3,280.5l5-2.9c0.4-0.2,0.3-0.6-0.1-0.9l-4.9-2.9c-0.5-0.3-1.1-0.3-1.6-0.1l-5,2.9
			c-0.4,0.2-0.3,0.6,0.1,0.9l4.9,2.9C118.3,280.7,118.8,280.7,119.3,280.5z"/>
		<path class="st1" d="M111.6,284.9l5-2.9c0.4-0.2,0.3-0.6-0.1-0.9l-4.9-2.9c-0.5-0.3-1.1-0.3-1.6-0.1l-5,2.9
			c-0.4,0.2-0.3,0.6,0.1,0.9l4.9,2.9C110.6,285.1,111.1,285.2,111.6,284.9z"/>
		<path class="st1" d="M97.9,292.9l10.9-6.3c0.4-0.2,0.3-0.6-0.1-0.9l-4.9-2.9c-0.5-0.3-1.1-0.3-1.6-0.1L91.3,289
			c-0.4,0.2-0.4,0.6,0.1,0.9l4.9,2.9C96.9,293.1,97.4,293.1,97.9,292.9z"/>
		<path class="st1" d="M82.9,284.2l9.2-5.3c0.4-0.2,0.3-0.6-0.1-0.9l-5-2.9c-0.5-0.3-1.1-0.3-1.6-0.1l-9.2,5.3
			c-0.4,0.2-0.3,0.6,0.1,0.9l4.9,2.9C81.8,284.4,82.4,284.4,82.9,284.2z"/>
		<path class="st1" d="M159.8,248.5l5-2.9c0.4-0.2,0.3-0.6-0.1-0.9l-4.9-2.9c-0.5-0.3-1.1-0.3-1.6-0.1l-5,2.9
			c-0.4,0.2-0.3,0.6,0.1,0.9l4.9,2.9C158.7,248.7,159.3,248.7,159.8,248.5z"/>
		<path class="st1" d="M167.7,243.9l5-2.9c0.4-0.2,0.4-0.6-0.1-0.9l-4.9-2.9c-0.5-0.3-1.1-0.3-1.6-0.1l-5,2.9
			c-0.4,0.2-0.3,0.6,0.1,0.9l4.9,2.9C166.6,244.1,167.2,244.2,167.7,243.9z"/>
		<path class="st2" d="M175.6,239.3l5-2.9c0.4-0.2,0.4-0.6-0.1-0.9l-4.9-2.9c-0.5-0.3-1.1-0.3-1.6-0.1l-5,2.9
			c-0.4,0.2-0.4,0.6,0.1,0.9l4.9,2.9C174.5,239.6,175.1,239.6,175.6,239.3z"/>
		<path class="st1" d="M183.5,234.8l5-2.9c0.4-0.2,0.4-0.6-0.1-0.9l-4.9-2.9c-0.5-0.3-1.1-0.3-1.6-0.1l-5,2.9
			c-0.4,0.2-0.4,0.6,0.1,0.9l4.9,2.9C182.4,235,183,235,183.5,234.8z"/>
		<path class="st1" d="M152.1,252.9l5-2.9c0.4-0.2,0.4-0.6-0.1-0.9l-5-2.9c-0.5-0.3-1.1-0.3-1.6-0.1l-5,2.9
			c-0.4,0.2-0.3,0.6,0.1,0.9l4.9,2.9C151,253.1,151.6,253.2,152.1,252.9z"/>
		<path class="st1" d="M144.4,257.4l5-2.9c0.4-0.2,0.3-0.6-0.1-0.9l-4.9-2.9c-0.5-0.3-1.1-0.3-1.6-0.1l-5,2.9
			c-0.4,0.2-0.4,0.6,0.1,0.9l5,2.9C143.3,257.6,143.9,257.6,144.4,257.4z"/>
		<path class="st1" d="M136.7,261.8l5-2.9c0.4-0.2,0.3-0.6-0.1-0.9l-4.9-2.9c-0.5-0.3-1.1-0.3-1.6-0.1l-5,2.9
			c-0.4,0.2-0.3,0.6,0.1,0.9l4.9,2.9C135.6,262,136.2,262,136.7,261.8z"/>
		<path class="st1" d="M129,266.3l5-2.9c0.4-0.2,0.3-0.6-0.1-0.9l-4.9-2.9c-0.5-0.3-1.1-0.3-1.6-0.1l-5,2.9
			c-0.4,0.2-0.3,0.6,0.1,0.9l4.9,2.9C127.9,266.5,128.5,266.5,129,266.3z"/>
		<path class="st1" d="M121.3,270.7l5-2.9c0.4-0.2,0.3-0.6-0.1-0.9l-4.9-2.9c-0.5-0.3-1.1-0.3-1.6-0.1l-5,2.9
			c-0.4,0.2-0.3,0.6,0.1,0.9l4.9,2.9C120.2,270.9,120.8,270.9,121.3,270.7z"/>
		<path class="st1" d="M113.6,275.2l5-2.9c0.4-0.2,0.3-0.6-0.1-0.9l-4.9-2.9c-0.5-0.3-1.1-0.3-1.6-0.1l-5,2.9
			c-0.4,0.2-0.3,0.6,0.1,0.9l5,2.9C112.5,275.4,113.1,275.4,113.6,275.2z"/>
		<path class="st1" d="M105.8,279.6l5-2.9c0.4-0.2,0.3-0.6-0.1-0.9l-4.9-2.9c-0.5-0.3-1.1-0.3-1.6,0l-5,2.9
			c-0.4,0.2-0.3,0.6,0.1,0.9l5,2.9C104.8,279.8,105.3,279.9,105.8,279.6z"/>
		<path class="st1" d="M98.1,284.1l5-2.9c0.4-0.2,0.4-0.6-0.1-0.9l-4.9-2.9c-0.5-0.3-1.1-0.3-1.6-0.1l-5,2.9
			c-0.4,0.2-0.4,0.6,0.1,0.9l4.9,2.9C97.1,284.3,97.6,284.3,98.1,284.1z"/>
		<path class="st1" d="M90.4,288.5l5-2.9c0.4-0.2,0.3-0.6-0.1-0.9l-5-2.8c-0.5-0.3-1.1-0.3-1.6-0.1l-5,2.9c-0.4,0.2-0.3,0.6,0.1,0.9
			l5,2.9C89.4,288.8,89.9,288.8,90.4,288.5z"/>
		<path class="st1" d="M163.9,237.5l5-2.9c0.4-0.2,0.3-0.6-0.1-0.9l-4.9-2.9c-0.5-0.3-1.1-0.3-1.6-0.1l-5,2.9
			c-0.4,0.2-0.3,0.6,0.1,0.9l4.9,2.9C162.8,237.7,163.4,237.7,163.9,237.5z"/>
		<path class="st1" d="M171.5,233l5-2.9c0.4-0.2,0.4-0.6-0.1-0.9l-4.9-2.9c-0.5-0.3-1.1-0.3-1.6-0.1l-5,2.9
			c-0.4,0.2-0.3,0.6,0.1,0.9l4.9,2.9C170.4,233.2,171,233.3,171.5,233z"/>
		<path class="st1" d="M179.2,228.6l5-2.9c0.4-0.2,0.4-0.6-0.1-0.9l-4.9-2.9c-0.5-0.3-1.1-0.3-1.6-0.1l-5,2.9
			c-0.4,0.2-0.4,0.6,0.1,0.9l4.9,2.9C178.1,228.8,178.7,228.8,179.2,228.6z"/>
		<path class="st1" d="M186.9,224.2l5-2.9c0.4-0.2,0.4-0.6-0.1-0.9l-4.9-2.9c-0.5-0.3-1.1-0.3-1.6-0.1l-5,2.9
			c-0.4,0.2-0.4,0.6,0.1,0.9l4.9,2.9C185.8,224.4,186.4,224.4,186.9,224.2z"/>
		<path class="st1" d="M179,219.6l5-2.9c0.4-0.2,0.4-0.6-0.1-0.9l-1.6-0.9c-0.5-0.3-1.1-0.3-1.6-0.1l-5,2.9
			c-0.4,0.2-0.4,0.6,0.1,0.9l1.6,0.9C177.9,219.8,178.5,219.9,179,219.6z"/>
		<path class="st1" d="M169,225.4l5-2.9c0.4-0.2,0.4-0.6-0.1-0.9l-1.6-0.9c-0.5-0.3-1.1-0.3-1.6-0.1l-5,2.9
			c-0.4,0.2-0.4,0.6,0.1,0.9l1.6,0.9C167.9,225.6,168.5,225.6,169,225.4z"/>
		<path class="st1" d="M161.3,229.8l5-2.9c0.4-0.2,0.4-0.6-0.1-0.9l-1.6-0.9c-0.5-0.3-1.1-0.3-1.6-0.1l-5,2.9
			c-0.4,0.2-0.3,0.6,0.1,0.9l1.6,0.9C160.2,230,160.8,230.1,161.3,229.8z"/>
		<path class="st1" d="M153.7,234.2l5-2.9c0.4-0.2,0.3-0.6-0.1-0.9l-1.6-0.9c-0.5-0.3-1.1-0.3-1.6-0.1l-5,2.9
			c-0.4,0.2-0.3,0.6,0.1,0.9l1.6,0.9C152.6,234.4,153.2,234.5,153.7,234.2z"/>
		<path class="st1" d="M146,238.6l5-2.9c0.4-0.2,0.3-0.6-0.1-0.9l-1.6-0.9c-0.5-0.3-1.1-0.3-1.6-0.1l-5,2.9
			c-0.4,0.2-0.3,0.6,0.1,0.9l1.6,0.9C144.9,238.8,145.5,238.9,146,238.6z"/>
		<path class="st1" d="M103.4,263.2l5-2.9c0.4-0.2,0.3-0.6-0.1-0.9l-1.6-0.9c-0.5-0.3-1.1-0.3-1.6-0.1l-5,2.9
			c-0.4,0.2-0.3,0.6,0.1,0.9l1.6,0.9C102.3,263.5,102.9,263.5,103.4,263.2z"/>
		<path class="st1" d="M95.8,267.7l5-2.9c0.4-0.2,0.3-0.6-0.1-0.9l-1.7-0.9c-0.5-0.3-1.1-0.3-1.6-0.1l-5,2.9
			c-0.4,0.2-0.4,0.6,0.1,0.9l1.6,0.9C94.7,267.9,95.3,267.9,95.8,267.7z"/>
		<path class="st1" d="M88.1,272.1l5-2.9c0.4-0.2,0.3-0.6-0.1-0.9l-1.6-0.9c-0.5-0.3-1.1-0.3-1.6-0.1l-5,2.9
			c-0.4,0.2-0.4,0.6,0.1,0.9l1.6,0.9C87.1,272.3,87.6,272.3,88.1,272.1z"/>
		<path class="st1" d="M80.5,276.5l5-2.9c0.4-0.2,0.3-0.6-0.1-0.9l-1.6-0.9c-0.5-0.3-1.1-0.3-1.6-0.1l-5,2.9
			c-0.4,0.2-0.4,0.6,0.1,0.9l1.6,0.9C79.4,276.7,80,276.7,80.5,276.5z"/>
		<path class="st1" d="M156.2,241.9l5-2.9c0.4-0.2,0.4-0.6-0.1-0.9l-4.9-2.9c-0.5-0.3-1.1-0.3-1.6-0.1l-5,2.9
			c-0.4,0.2-0.4,0.6,0.1,0.9l4.9,2.9C155.1,242.1,155.7,242.2,156.2,241.9z"/>
		<path class="st1" d="M148.4,246.4l5-2.9c0.4-0.2,0.3-0.6-0.1-0.9l-4.9-2.9c-0.5-0.3-1.1-0.3-1.6-0.1l-5,2.9
			c-0.4,0.2-0.4,0.6,0.1,0.9l5,2.9C147.4,246.6,147.9,246.6,148.4,246.4z"/>
		<path class="st1" d="M140.7,250.8l5-2.9c0.4-0.2,0.3-0.6-0.1-0.9l-4.9-2.9c-0.5-0.3-1.1-0.3-1.6-0.1l-5,2.9
			c-0.4,0.2-0.3,0.6,0.1,0.9l4.9,2.9C139.7,251,140.2,251,140.7,250.8z"/>
		<path class="st1" d="M133,255.3l5-2.9c0.4-0.2,0.3-0.6-0.1-0.9l-4.9-2.9c-0.5-0.3-1.1-0.3-1.6-0.1l-5,2.9
			c-0.4,0.2-0.3,0.6,0.1,0.9l4.9,2.9C131.9,255.5,132.5,255.5,133,255.3z"/>
		<path class="st1" d="M125.3,259.7l5-2.9c0.4-0.2,0.4-0.6-0.1-0.9l-4.9-2.9c-0.5-0.3-1.1-0.3-1.6-0.1l-5,2.9
			c-0.4,0.2-0.3,0.6,0.1,0.9l4.9,2.9C124.2,259.9,124.8,259.9,125.3,259.7z"/>
		<path class="st1" d="M117.6,264.2l5-2.9c0.4-0.2,0.3-0.6-0.1-0.9l-4.9-2.9c-0.5-0.3-1.1-0.3-1.6-0.1l-5,2.9
			c-0.4,0.2-0.3,0.6,0.1,0.9l4.9,2.8C116.5,264.4,117.1,264.4,117.6,264.2z"/>
		<path class="st1" d="M109.9,268.6l5-2.9c0.4-0.2,0.3-0.6-0.1-0.9l-5-2.9c-0.5-0.3-1.1-0.3-1.6-0.1l-5,2.9
			c-0.4,0.2-0.3,0.6,0.1,0.9l4.9,2.9C108.8,268.8,109.4,268.8,109.9,268.6z"/>
		<path class="st1" d="M102.2,273.1l5-2.9c0.4-0.2,0.3-0.6-0.1-0.9l-5-2.9c-0.5-0.3-1.1-0.3-1.6-0.1l-5,2.9
			c-0.4,0.2-0.3,0.6,0.1,0.9l4.9,2.9C101.1,273.3,101.7,273.3,102.2,273.1z"/>
		<path class="st1" d="M94.5,277.5l5-2.9c0.4-0.2,0.3-0.6-0.1-0.9l-4.9-2.9c-0.5-0.3-1.1-0.3-1.6-0.1l-5,2.9
			c-0.4,0.2-0.3,0.6,0.1,0.9l5,2.9C93.4,277.7,94,277.7,94.5,277.5z"/>
		<path class="st1" d="M200.2,242.5l14.7-8.5c0.4-0.2,0.4-0.6-0.1-0.9l-4.9-2.9c-0.5-0.3-1.1-0.3-1.6-0.1l-14.7,8.5
			c-0.4,0.2-0.4,0.6,0.1,0.9l4.9,2.9C199.1,242.6,199.7,242.7,200.2,242.5z"/>
		<path class="st1" d="M105.5,297.1l14.7-8.5c0.4-0.2,0.3-0.6-0.1-0.9l-4.9-2.8c-0.5-0.3-1.1-0.3-1.6-0.1l-14.7,8.5
			c-0.4,0.2-0.3,0.6,0.1,0.9l5,2.9C104.5,297.4,105,297.4,105.5,297.1z"/>
		<path class="st1" d="M136.3,289.2l5-2.9c0.4-0.2,0.4-0.6-0.1-0.9l-5.9-3.4c-0.5-0.3-1.1-0.3-1.6-0.1l-5,2.9
			c-0.4,0.2-0.4,0.6,0.1,0.9l5.9,3.4C135.3,289.4,135.8,289.4,136.3,289.2z"/>
		<path class="st1" d="M192.3,256.8l8-4.6c0.4-0.2,0.4-0.6-0.1-0.9l-5.9-3.4c-0.5-0.3-1.1-0.3-1.6-0.1l-8,4.6
			c-0.4,0.2-0.4,0.6,0.1,0.9l5.9,3.4C191.2,257.1,191.8,257.1,192.3,256.8z"/>
		<path class="st1" d="M143.8,284.9l8-4.6c0.4-0.2,0.4-0.6-0.1-0.9l-5.9-3.4c-0.5-0.3-1.1-0.3-1.6-0.1l-8,4.6
			c-0.4,0.2-0.3,0.6,0.1,0.9l5.9,3.4C142.7,285.1,143.3,285.2,143.8,284.9z"/>
		<path class="st1" d="M181.2,263.3l8-4.6c0.4-0.2,0.4-0.6-0.1-0.9l-5.9-3.4c-0.5-0.3-1.1-0.3-1.6-0.1l-8,4.6
			c-0.4,0.2-0.4,0.6,0.1,0.9l5.9,3.4C180.1,263.5,180.7,263.5,181.2,263.3z"/>
		<path class="st1" d="M181.6,254.3l-34.7,20c-0.2,0.1-0.4,0.4-0.3,0.6c0,0.1,0.2,0.2,0.3,0.3l6,3.5c0.5,0.2,1.1,0.2,1.6,0l34.7-20
			L181.6,254.3z"/>
		<path class="st1" d="M114.8,297.2l-5.6,3.2c-0.3,0.2-0.3,0.5,0.1,0.7l2.4,1.4c0.4,0.2,0.9,0.2,1.3,0.1l5.6-3.2
			c0.3-0.2,0.3-0.5-0.1-0.7l-2.4-1.4C115.7,297.1,115.2,297.1,114.8,297.2z"/>
		<path class="st1" d="M122.6,292.7l-5.6,3.2c-0.3,0.2-0.3,0.5,0.1,0.7l2.4,1.4c0.4,0.2,0.9,0.2,1.3,0l5.6-3.2
			c0.3-0.2,0.3-0.5-0.1-0.7l-2.4-1.4C123.5,292.6,123,292.6,122.6,292.7z"/>
		<path class="st1" d="M130.3,288.3l-5.6,3.2c-0.3,0.2-0.3,0.5,0.1,0.7l2.4,1.4c0.4,0.2,0.9,0.2,1.3,0.1l5.6-3.2
			c0.3-0.2,0.3-0.5-0.1-0.7l-2.4-1.4C131.2,288.1,130.7,288.1,130.3,288.3z"/>
		<path class="st1" d="M118.3,290.3l-5.6,3.2c-0.3,0.2-0.3,0.5,0.1,0.7l2.4,1.4c0.4,0.2,0.9,0.2,1.3,0l5.6-3.2
			c0.3-0.2,0.3-0.5-0.1-0.7l-2.4-1.4C119.2,290.1,118.7,290.1,118.3,290.3z"/>
		<path class="st0" d="M110,180.7l4.8-2.8c0.5-0.4,0.8-0.9,0.8-1.5l0,0c0-0.6-0.3-0.9-0.8-0.6l-4.8,2.8c-0.5,0.4-0.8,0.9-0.8,1.5
			l0,0C109.3,180.7,109.6,180.9,110,180.7z"/>
		<path class="st0" d="M98.7,187.3l7-4.1c0.5-0.4,0.8-0.9,0.8-1.5l0,0c0-0.6-0.3-0.9-0.8-0.6l-7,4.1c-0.5,0.4-0.8,0.9-0.8,1.5l0,0
			C97.9,187.3,98.2,187.5,98.7,187.3z"/>
		<path class="st0" d="M112.4,206.2l4.8-2.8c0.5-0.4,0.8-0.9,0.8-1.5l0,0c0-0.6-0.3-0.9-0.8-0.6l-4.8,2.8c-0.5,0.4-0.8,0.9-0.8,1.5
			l0,0C111.6,206.1,112,206.4,112.4,206.2z"/>
		<path class="st0" d="M102.3,212l7-4.1c0.5-0.4,0.8-0.9,0.8-1.5l0,0c0-0.6-0.3-0.9-0.8-0.6l-7,4.1c-0.5,0.4-0.8,0.9-0.8,1.5l0,0
			C101.5,212,101.8,212.3,102.3,212z"/>
		<path class="st0" d="M123.1,177.6l3-1.7c0.5-0.4,0.8-0.9,0.8-1.5l0,0c0-0.6-0.3-0.9-0.8-0.6l-3,1.7c-0.5,0.4-0.8,0.9-0.8,1.5l0,0
			C122.3,177.6,122.7,177.9,123.1,177.6z"/>
		<path class="st0" d="M113,187.9l9.1-5.3c0.5-0.4,0.8-0.9,0.8-1.5l0,0c0-0.6-0.3-0.9-0.8-0.6l-9.1,5.3c-0.5,0.4-0.8,0.9-0.8,1.5
			l0,0C112.2,187.9,112.5,188.2,113,187.9z"/>
		<path class="st0" d="M118.9,193.5l3-1.7c0.5-0.4,0.8-0.9,0.8-1.5l0,0c0-0.6-0.3-0.9-0.8-0.6l-3,1.7c-0.5,0.4-0.8,0.9-0.8,1.5l0,0
			C118.1,193.4,118.5,193.7,118.9,193.5z"/>
		<path class="st0" d="M98.8,223l8-4.6c0.5-0.4,0.8-0.9,0.8-1.5l0,0c0-0.6-0.3-0.9-0.8-0.6l-8,4.6c-0.5,0.4-0.8,0.9-0.8,1.5l0,0
			C98,222.9,98.3,223.2,98.8,223z"/>
		<path class="st0" d="M119.9,201.9l1.9-1.1c0.5-0.4,0.8-0.9,0.8-1.5l0,0c0-0.6-0.3-0.9-0.8-0.6l-1.9,1.1c-0.5,0.4-0.8,0.9-0.8,1.5
			l0,0C119.1,201.8,119.4,202.1,119.9,201.9z"/>
		<path class="st0" d="M119.3,211.2l2.4-1.4c0.5-0.4,0.8-0.9,0.8-1.5l0,0c0-0.6-0.3-0.9-0.8-0.6l-2.4,1.4c-0.5,0.4-0.8,0.9-0.8,1.5
			l0,0C118.5,211.1,118.8,211.4,119.3,211.2z"/>
		<path class="st0" d="M110,216.5l6.2-3.6c0.5-0.4,0.8-0.9,0.8-1.5l0,0c0-0.6-0.3-0.9-0.8-0.6l-6.3,3.6c-0.5,0.4-0.8,1-0.8,1.6l0,0
			C109.2,216.5,109.6,216.8,110,216.5z"/>
		<path class="st0" d="M117,216.9l4.5-2.6c0.5-0.4,0.8-0.9,0.8-1.5l0,0c0-0.6-0.3-0.9-0.8-0.6l-4.5,2.6c-0.5,0.4-0.8,0.9-0.8,1.5
			l0,0C116.3,216.9,116.6,217.2,117,216.9z"/>
		<path class="st0" d="M91.9,226.9l2.9-1.7c0.5-0.4,0.8-0.9,0.8-1.5l0,0c0-0.6-0.3-0.9-0.8-0.6l-2.9,1.7c-0.5,0.4-0.8,0.9-0.8,1.5
			l0,0C91.1,226.9,91.5,227.2,91.9,226.9z"/>
		<path class="st0" d="M107.8,199.9l8-4.6c0.5-0.4,0.8-0.9,0.8-1.5l0,0c0-0.6-0.3-0.9-0.8-0.6l-8,4.6c-0.5,0.4-0.8,0.9-0.8,1.5l0,0
			C107,199.8,107.4,200.1,107.8,199.9z"/>
		<path class="st0" d="M108.1,195.2l13.9-8c0.5-0.4,0.8-0.9,0.8-1.5l0,0c0-0.6-0.3-0.9-0.8-0.6l-13.9,8c-0.5,0.4-0.8,0.9-0.8,1.5
			l0,0C107.3,195.2,107.7,195.5,108.1,195.2z"/>
		<path class="st0" d="M113.9,200.8l8-4.6c0.5-0.4,0.8-0.9,0.8-1.5l0,0c0-0.6-0.3-0.9-0.8-0.6l-8,4.6c-0.5,0.4-0.8,0.9-0.8,1.5l0,0
			C113.1,200.8,113.4,201.1,113.9,200.8z"/>
		<path class="st0" d="M101.8,203.4l2.9-1.7c0.5-0.4,0.8-0.9,0.8-1.5l0,0c0-0.6-0.3-0.9-0.8-0.6l-2.9,1.7c-0.5,0.4-0.8,0.9-0.8,1.5
			l0,0C101,203.3,101.4,203.6,101.8,203.4z"/>
		<path class="st0" d="M77.2,199.7l17.1-9.9c0.5-0.4,0.8-0.9,0.8-1.5l0,0c0-0.6-0.3-0.9-0.8-0.6l-17.1,9.9c-0.5,0.4-0.8,0.9-0.8,1.5
			l0,0C76.4,199.7,76.8,199.9,77.2,199.7z"/>
		<path class="st0" d="M112.1,210.8l9.6-5.5c0.5-0.4,0.8-0.9,0.8-1.5l0,0c0-0.6-0.3-0.9-0.8-0.6l-9.6,5.5c-0.5,0.4-0.8,0.9-0.8,1.5
			l0,0C111.3,210.8,111.7,211.1,112.1,210.8z"/>
		<path class="st0" d="M119.2,175.5l7-4.1c0.5-0.4,0.8-0.9,0.8-1.5l0,0c0-0.6-0.3-0.9-0.8-0.6l-7,4.1c-0.5,0.4-0.8,0.9-0.8,1.5l0,0
			C118.4,175.4,118.7,175.7,119.2,175.5z"/>
		<path class="st0" d="M117.3,221.2l8.2-4.7c0.5-0.4,0.8-0.9,0.8-1.5l0,0c0-0.6-0.3-0.9-0.8-0.6l-8.2,4.7c-0.5,0.4-0.8,0.9-0.8,1.5
			l0,0C116.5,221.2,116.9,221.5,117.3,221.2z"/>
		<path class="st0" d="M325.7,228.3l-42-24.4c-8.3-4.8-16.2-5.6-22.1-2.1c-5.9,3.4-9.2,10.6-9.2,20.2v3.1c0.3,0.2,0.6,0.4,0.9,0.6
			v-3.7c0-9.3,3.1-16.1,8.7-19.4s13.1-2.5,21.2,2.1l42,24.4c0.2,0.1,0.5,0.1,0.6-0.2C326,228.7,326,228.4,325.7,228.3L325.7,228.3z"
			/>
		<path class="st0" d="M194.8,199.2v-94.6c0-18.9-13.4-42.1-29.8-51.5c-8-4.6-15.6-5.4-21.3-2.1s-8.9,10.2-8.9,19.5V77l0.9,0.9v-7.5
			c0-8.9,3-15.6,8.4-18.7c5.4-3.1,12.7-2.4,20.4,2.1c16.1,9.3,29.3,32.1,29.3,50.7v94.6c0,15.7,9.2,34.3,21.8,45.5v-1.2
			C203.6,232.3,194.8,214.4,194.8,199.2z"/>
		<path class="st1" d="M134.8,79.9L134.8,79.9c-5.3-4.9-11.9-8.1-19-9.3c-11.7-1.7-16.5,11.9-16.5,11.9c-0.7,3.7-1.2,7.5-1.3,11.3
			c0,4.2,0.3,19.5,0.3,19.5L135.5,92l0,0c0.2-0.1,0.3-0.2,0.2-0.4V80.8C135.5,80.5,135.1,80.3,134.8,79.9z"/>
		<path class="st0" d="M70,93.4l28.6,8.5c0,0,11.9,9.7,16.4,23.5s4.9,11.4,5,25.1s0.2,83.4,0.2,83.4s-1,12.2,2,21.7s8.5,20,15,26.8
			s16.1,15,24.9,14.2s14.8-4.1,16.5-18.1v-13l-0.4-0.4c6.1,5.6,13.7,10.8,20.9,10.1c8.9-0.8,14.8-4.1,16.5-18.1v-13
			c0,0-10.7-10.9-14.8-19.8s-6.3-17.3-6.4-24.7s-0.1-71.1-0.1-71.1s0.5-26.4-0.6-30.6c-1.1-4.2-3.7-26.4-25.5-42.4
			c-11-8-19.2-7.7-24.6-4.2l0.1-0.5l-35.2,20.3L70,93.4z"/>
		<path class="st1" d="M169.8,295.4c0.5-0.7,6.8-4.9,8.4-12.3c0.6-3.4,0.8-6.9,0.8-10.4c0,0,0-3.5-0.1-6.6l-0.2-0.2v-1.2l0.2,0.1
			c0-0.7-0.1-1.4-0.1-2c-0.2-3.3,2.2-10.3,2.2-10.3s3.4-9.4,13.7-9.8c9.1-0.3,18.7,6.2,20.8,7.7v-4.2l0.4,0.3c0-0.6,0-1.1,0-1.7
			l-0.2-0.2v-1.2l0.2,0.1c0-0.7-0.1-1.4-0.1-2c-0.2-3.3,2.2-10.3,2.2-10.3s3.4-9.4,13.7-9.8c9.1-0.3,18.7,6.2,20.8,7.7v-4.2
			c0.3,0.2,0.6,0.4,0.9,0.6v7.4c0,9-3,15.8-8.4,19.1l0,0l-0.2,0.1l-0.1,0.1h-0.1L206.9,274v-0.1L169.8,295.4z"/>
		<path class="st0" d="M224.7,223c0,0,0.3-0.1,0.8-0.4l0.5-0.2l35.8-20.7c4.6-2.1,9.8-2.3,14.5-0.5c8,2.9,49.6,27.9,49.6,27.9
			l-37.2,21.4l0,0h-0.1l-36.9,21.3c0,0-20.9-12.9-35.3-21.3l-0.9-0.5c-5.9-3.4-10.6-5.9-12.1-6.3c-8.9-2.4-15.1,0.5-16.7,1.4
			L224.7,223z"/>
		<path class="st0" d="M186.5,245.1l-0.4,0.2L186.5,245.1z"/>
		<path class="st1" d="M97.8,101.3L97.8,101.3c-5.3-4.9-11.9-8.1-19-9.3c-11.7-1.8-16.5,11.9-16.5,11.9c-0.7,3.7-1.2,7.5-1.3,11.3
			c0,4.2,0.3,19.5,0.3,19.5l37.1-21.4l0,0c0.2-0.1,0.3-0.2,0.3-0.4v-10.9C98.4,101.7,98.1,101.6,97.8,101.3z"/>
		<path class="st2" d="M162.6,297.1c-4.1,0-8.6-1.4-13.3-4.1c-16.3-9.4-29.5-32.3-29.5-51.2v-94.6c0-18.7-13.1-41.4-29.3-50.7
			c-7.7-4.5-15-5.2-20.4-2.1c-5.4,3.1-8.4,9.8-8.4,18.7v21.2c0,0.3-0.2,0.5-0.5,0.5c-0.3,0-0.5-0.2-0.5-0.5l0,0v-21.2
			c0-9.3,3.2-16.2,8.9-19.5c5.7-3.3,13.3-2.6,21.3,2.1c16.4,9.5,29.8,32.6,29.8,51.5v94.6c0,18.5,13,41.1,29.1,50.4
			c7.7,4.4,14.9,5.2,20.3,2c5.4-3.1,8.4-9.7,8.4-18.6v-11.1c0-9.6,3.3-16.8,9.2-20.2s13.8-2.7,22.1,2.1l42,24.4
			c0.2,0.1,0.3,0.4,0.2,0.6s-0.4,0.3-0.6,0.2l-42-24.5c-8-4.6-15.5-5.4-21.2-2.1s-8.7,10.1-8.7,19.4v11.1c0,9.2-3.1,16.1-8.8,19.4
			C168,296.5,165.3,297.1,162.6,297.1z"/>
		<path class="st7" d="M159.7,170.4l6.2-3.6c0.6-0.5,1-1.2,1.1-2l0,0c0-0.8-0.4-1.1-1-0.8l-6.2,3.6c-0.6,0.5-1,1.2-1.1,2l0,0
			C158.6,170.4,159.1,170.8,159.7,170.4z"/>
		<path class="st7" d="M146.5,178l9.2-5.3c0.6-0.5,1-1.2,1.1-2l0,0c0-0.8-0.4-1.1-1-0.8l-9.2,5.3c-0.6,0.5-1,1.2-1.1,2l0,0
			C145.4,178,145.9,178.4,146.5,178z"/>
		<path class="st7" d="M160.4,146.8l11.9-6.9c0.6-0.5,1-1.2,1.1-2l0,0c0-0.8-0.4-1.1-1-0.8l-11.9,6.9c-0.6,0.5-1,1.2-1.1,2l0,0
			C159.3,146.8,159.8,147.1,160.4,146.8z"/>
		<path class="st7" d="M168.1,153.9l3.9-2.2c0.6-0.5,1-1.2,1.1-2l0,0c0-0.8-0.4-1.1-1-0.8l-3.9,2.2c-0.6,0.5-1,1.2-1.1,2l0,0
			C167.1,153.9,167.6,154.2,168.1,153.9z"/>
		<path class="st7" d="M169.3,164.8l2.5-1.4c0.6-0.5,1-1.2,1.1-2l0,0c0-0.8-0.4-1.1-1-0.8l-2.5,1.4c-0.6,0.5-1,1.2-1.1,2l0,0
			C168.3,164.8,168.8,165.2,169.3,164.8z"/>
		<path class="st7" d="M153.7,162.2l10.4-6c0.6-0.5,1-1.2,1.1-2l0,0c0-0.8-0.4-1.1-1-0.8l-10.4,6c-0.6,0.5-1,1.2-1.1,2l0,0
			C152.7,162.2,153.1,162.6,153.7,162.2z"/>
		<path class="st7" d="M154.1,156.2l18.1-10.4c0.6-0.5,1-1.2,1.1-2l0,0c0-0.8-0.4-1.1-1-0.8l-18.1,10.4c-0.6,0.5-1,1.2-1.1,2l0,0
			C153,156.2,153.5,156.6,154.1,156.2z"/>
		<path class="st7" d="M161.6,163.5l10.4-6c0.6-0.5,1-1.2,1.1-2l0,0c0-0.8-0.4-1.1-1-0.8l-10.4,6c-0.6,0.5-1,1.2-1.1,2l0,0
			C160.5,163.5,161,163.9,161.6,163.5z"/>
		<path class="st7" d="M145.9,166.8l3.8-2.2c0.6-0.5,1-1.2,1.1-2l0,0c0-0.8-0.4-1.1-1-0.8l-3.8,2.2c-0.6,0.5-1,1.2-1.1,2l0,0
			C144.8,166.8,145.3,167.1,145.9,166.8z"/>
		<path class="st7" d="M156.6,137.3l6.2-3.6c0.6-0.5,1-1.2,1.1-2l0,0c0-0.8-0.4-1.1-1-0.8l-6.2,3.6c-0.6,0.5-1,1.2-1.1,2l0,0
			C155.6,137.3,156,137.7,156.6,137.3z"/>
		<path class="st7" d="M141.8,145.9l9.2-5.3c0.6-0.5,1-1.2,1.1-2l0,0c0-0.8-0.4-1.1-1-0.8l-9.2,5.3c-0.6,0.5-1,1.2-1.1,2l0,0
			C140.8,145.8,141.2,146.2,141.8,145.9z"/>
		<path class="st7" d="M159.7,170.4l6.2-3.6c0.6-0.5,1-1.2,1.1-2l0,0c0-0.8-0.4-1.1-1-0.8l-6.2,3.6c-0.6,0.5-1,1.2-1.1,2l0,0
			C158.6,170.4,159.1,170.8,159.7,170.4z"/>
		<path class="st7" d="M146.5,178l9.2-5.3c0.6-0.5,1-1.2,1.1-2l0,0c0-0.8-0.4-1.1-1-0.8l-9.2,5.3c-0.6,0.5-1,1.2-1.1,2l0,0
			C145.4,178,145.9,178.4,146.5,178z"/>
		<path class="st7" d="M173.6,133.3l3.9-2.2c0.6-0.5,1-1.2,1.1-2l0,0c0-0.8-0.4-1.1-1-0.8l-3.9,2.2c-0.6,0.5-1,1.2-1.1,2l0,0
			C172.6,133.3,173,133.7,173.6,133.3z"/>
		<path class="st7" d="M160.4,146.8l11.9-6.9c0.6-0.5,1-1.2,1.1-2l0,0c0-0.8-0.4-1.1-1-0.8l-11.9,6.9c-0.6,0.5-1,1.2-1.1,2l0,0
			C159.3,146.8,159.8,147.1,160.4,146.8z"/>
		<path class="st7" d="M168.1,153.9l3.9-2.2c0.6-0.5,1-1.2,1.1-2l0,0c0-0.8-0.4-1.1-1-0.8l-3.9,2.2c-0.6,0.5-1,1.2-1.1,2l0,0
			C167.1,153.9,167.6,154.2,168.1,153.9z"/>
		<path class="st7" d="M141.9,192.3l10.4-6c0.6-0.5,1-1.2,1.1-2l0,0c0-0.8-0.4-1.1-1-0.8l-10.4,6c-0.6,0.5-1,1.2-1.1,2l0,0
			C140.9,192.3,141.3,192.6,141.9,192.3z"/>
		<path class="st7" d="M169.3,164.8l2.5-1.4c0.6-0.5,1-1.2,1.1-2l0,0c0-0.8-0.4-1.1-1-0.8l-2.5,1.4c-0.6,0.5-1,1.2-1.1,2l0,0
			C168.3,164.8,168.8,165.2,169.3,164.8z"/>
		<path class="st7" d="M168.6,176.9l3.1-1.8c0.6-0.5,1-1.2,1.1-2l0,0c0-0.8-0.4-1.1-1-0.8l-3.1,1.8c-0.6,0.5-1,1.2-1.1,2l0,0
			C167.5,176.9,168,177.3,168.6,176.9z"/>
		<path class="st7" d="M156.5,183.9l8.2-4.7c0.6-0.5,1-1.2,1.1-2l0,0c0-0.8-0.4-1.1-1-0.8l-8.1,4.7c-0.6,0.5-1,1.2-1.1,2l0,0
			C155.5,183.9,155.9,184.2,156.5,183.9z"/>
		<path class="st7" d="M165.7,184.4l5.9-3.4c0.6-0.5,1-1.2,1.1-2l0,0c0-0.8-0.4-1.1-1-0.8l-5.9,3.4c-0.6,0.5-1,1.2-1.1,2l0,0
			C164.7,184.4,165.1,184.7,165.7,184.4z"/>
		<path class="st7" d="M153.7,162.2l10.4-6c0.6-0.5,1-1.2,1.1-2l0,0c0-0.8-0.4-1.1-1-0.8l-10.4,6c-0.6,0.5-1,1.2-1.1,2l0,0
			C152.7,162.2,153.1,162.6,153.7,162.2z"/>
		<path class="st7" d="M154.1,156.2l18.1-10.4c0.6-0.5,1-1.2,1.1-2l0,0c0-0.8-0.4-1.1-1-0.8l-18.1,10.4c-0.6,0.5-1,1.2-1.1,2l0,0
			C153,156.2,153.5,156.6,154.1,156.2z"/>
		<path class="st7" d="M161.6,163.5l10.4-6c0.6-0.5,1-1.2,1.1-2l0,0c0-0.8-0.4-1.1-1-0.8l-10.4,6c-0.6,0.5-1,1.2-1.1,2l0,0
			C160.5,163.5,161,163.9,161.6,163.5z"/>
		<path class="st7" d="M145.9,166.8l3.8-2.2c0.6-0.5,1-1.2,1.1-2l0,0c0-0.8-0.4-1.1-1-0.8l-3.8,2.2c-0.6,0.5-1,1.2-1.1,2l0,0
			C144.8,166.8,145.3,167.1,145.9,166.8z"/>
		<path class="st7" d="M159.3,176.5l12.4-7.2c0.6-0.5,1-1.2,1.1-2l0,0c0-0.8-0.4-1.1-1-0.8l-12.4,7.2c-0.6,0.5-1,1.2-1.1,2l0,0
			C158.3,176.4,158.7,176.8,159.3,176.5z"/>
		<path class="st7" d="M168.4,130.5l9.1-5.3c0.6-0.5,1-1.2,1.1-2l0,0c0-0.8-0.4-1.1-1-0.8l-9.2,5.3c-0.6,0.5-1,1.2-1.1,2l0,0
			C167.4,130.5,167.9,130.8,168.4,130.5z"/>
		<path class="st7" d="M166,190l10.6-6.1c0.6-0.5,1-1.2,1.1-2l0,0c0-0.8-0.4-1.1-1-0.8l-10.6,6.1c-0.6,0.5-1,1.2-1.1,2l0,0
			C165,190,165.5,190.3,166,190z"/>
		<path class="st7" d="M161.1,226.1l6.2-3.6c0.6-0.5,1-1.2,1.1-2l0,0c0-0.8-0.4-1.1-1-0.8l-6.2,3.6c-0.6,0.5-1,1.2-1.1,2l0,0
			C160.1,226.1,160.5,226.5,161.1,226.1z"/>
		<path class="st7" d="M147.9,233.7l9.1-5.3c0.6-0.5,1-1.2,1.1-2l0,0c0-0.8-0.4-1.1-1-0.8l-9.1,5.3c-0.6,0.5-1,1.2-1.1,2l0,0
			C146.9,233.7,147.4,234.1,147.9,233.7z"/>
		<path class="st7" d="M161.8,202.5l11.9-6.8c0.6-0.5,1-1.2,1.1-2l0,0c0-0.8-0.4-1.1-1-0.8l-11.8,6.8c-0.6,0.5-1,1.2-1.1,2l0,0
			C160.8,202.4,161.2,202.8,161.8,202.5z"/>
		<path class="st7" d="M169.6,209.6l3.9-2.2c0.6-0.5,1-1.2,1.1-2l0,0c0-0.8-0.4-1.1-1-0.8l-3.9,2.2c-0.6,0.5-1,1.2-1.1,2l0,0
			C168.6,209.6,169,209.9,169.6,209.6z"/>
		<path class="st7" d="M170.8,220.5l2.5-1.4c0.6-0.5,1-1.2,1.1-2l0,0c0-0.8-0.4-1.1-1-0.8l-2.5,1.4c-0.6,0.5-1,1.2-1.1,2l0,0
			C169.8,220.5,170.2,220.9,170.8,220.5z"/>
		<path class="st7" d="M155.2,217.9l10.4-6c0.6-0.5,1-1.2,1.1-2l0,0c0-0.8-0.4-1.1-1-0.8l-10.4,6c-0.6,0.5-1,1.2-1.1,2l0,0
			C154.1,217.9,154.6,218.3,155.2,217.9z"/>
		<path class="st7" d="M155.5,211.9l18.1-10.4c0.6-0.5,1-1.2,1.1-2l0,0c0-0.8-0.4-1.1-1-0.8l-18.1,10.4c-0.6,0.5-1,1.2-1.1,2l0,0
			C154.5,211.9,154.9,212.2,155.5,211.9z"/>
		<path class="st7" d="M163,219.2l10.4-6c0.6-0.5,1-1.2,1.1-2l0,0c0-0.8-0.4-1.1-1-0.8l-10.4,6c-0.6,0.5-1,1.2-1.1,2l0,0
			C162,219.2,162.5,219.5,163,219.2z"/>
		<path class="st7" d="M147.3,222.5l3.8-2.2c0.6-0.5,1-1.2,1.1-2l0,0c0-0.8-0.4-1.1-1-0.8l-3.8,2.2c-0.6,0.5-1,1.2-1.1,2l0,0
			C146.3,222.4,146.7,222.8,147.3,222.5z"/>
		<polygon class="st0" points="115.7,355.7 104.2,349.1 92.7,355.7 104.2,362.4 		"/>
		<polygon class="st0" points="91.3,341.5 79.8,334.8 68.3,341.5 79.8,348.1 		"/>
		<polygon class="st0" points="67,327.5 55.5,320.9 44,327.5 55.5,334.2 		"/>
		<polygon class="st4" points="79.8,341.5 79.8,306.1 91.3,299.4 91.3,334.8 		"/>
		<polygon class="st10" points="79.8,306.1 68.3,299.4 68.3,334.8 79.8,341.5 		"/>
		<polygon class="st10" points="79.8,341.5 79.8,306.1 91.3,299.4 91.3,334.8 		"/>
		<polygon class="st10" points="104.2,355.7 104.2,335.8 115.7,329.2 115.7,349.1 		"/>
		<polygon class="st10" points="104.2,335.8 92.7,329.2 92.7,349.1 104.2,355.7 		"/>
		<polygon class="st11" points="115.7,329.2 104.2,322.5 92.7,329.2 104.2,335.8 		"/>
		<polygon class="st10" points="55.5,327.5 55.5,278.8 67,272.2 67,320.9 		"/>
		<polygon class="st10" points="55.5,278.8 44,272.2 44,320.9 55.5,327.5 		"/>
		<polygon class="st11" points="67,272.2 55.5,265.6 44,272.2 55.5,278.8 		"/>
		<polygon class="st11" points="91.3,299.4 79.8,292.8 68.3,299.4 79.8,306.1 		"/>
		<path class="st0" d="M222.8,355.9c9.8,5.7,25.7,5.7,35.5,0c9.8-5.7,9.8-14.8,0-20.5c-9.8-5.7-25.7-5.7-35.5,0
			S213,350.3,222.8,355.9z M232.4,340.9c4.5-2.6,11.8-2.6,16.3,0s4.5,6.8,0,9.4s-11.8,2.6-16.3,0S227.9,343.6,232.4,340.9
			L232.4,340.9z"/>
		<path class="st12" d="M262,332.1l-9,0.1c-0.8-1-1.7-1.8-2.8-2.4c-4.9-2.8-12.7-3.1-18-0.7l-5.3-5l-8.2,0.1
			c0.4-0.3,0.8-0.5,1.3-0.8c11.4-6.6,29.8-6.6,41.2,0c1.9,1.1,3.6,2.4,5.1,4L262,332.1z"/>
		<polygon class="st10" points="218.6,311.4 218.6,324.3 226.8,324.2 226.8,311.2 		"/>
		<polygon class="st12" points="232.2,316.2 232.2,329.2 226.8,324.2 226.8,311.2 		"/>
		<path class="st12" d="M253,319.3v13l-11.8-9.6l-9.1,6.6v-13l8.4-4c0,0,11.5,3.5,12.1,3.7S253,319.3,253,319.3z"/>
		<polygon class="st12" points="262,319.1 262,332.1 253,332.3 253,319.3 		"/>
		<polygon class="st10" points="266.2,314.6 266.2,327.6 262,332.1 262,319.1 		"/>
		<path class="st11" d="M262,319.1l-9,0.1c-0.8-1-1.7-1.8-2.8-2.4c-4.9-2.8-12.7-3.1-18-0.7l-5.3-5l-8.2,0.1
			c0.4-0.3,0.8-0.5,1.3-0.8c11.4-6.6,29.8-6.6,41.2,0c1.9,1.1,3.6,2.4,5.1,4L262,319.1z"/>
		<path class="st7" d="M229.5,317.8v12l-7.7-1.9c0,0,0.4-7,0.6-7.2S229.5,317.8,229.5,317.8z"/>
		<path class="st1" d="M235.3,329.8v13l-0.8,0.9l-5.5-3.2c0,0,0.9-9.9,0.9-10.1C231.7,330.1,233.5,329.9,235.3,329.8z"/>
		<path class="st2" d="M224.8,326.4l4.7,4.4c-3.9,3.1-3.4,7.4,1.4,10.2c1.4,0.8,2.9,1.4,4.5,1.7l-4.8,5.1l4.3,4
			c-5.2-0.5-10.3-2.1-14.9-4.6c-9.8-5.6-11.1-14.3-4.1-20.8L224.8,326.4z"/>
		<polygon class="st2" points="234.8,339 234.8,352 224.1,347.9 211.4,335.7 211.4,321.9 224.9,332.6 		"/>
		<path class="st0" d="M224.8,313.4l4.7,4.4c-3.9,3.1-3.4,7.4,1.4,10.2c1.4,0.8,2.9,1.4,4.5,1.7l-4.8,5.1l4.3,4
			c-5.2-0.5-10.3-2.1-14.9-4.6c-9.8-5.6-11.1-14.3-4.1-20.8L224.8,313.4z"/>
		<path class="st2" d="M234.8,347.9l4.3-4.5c3.8,0.3,7.7-0.5,11.1-2.3c3.1-1.8,4.4-4.3,3.9-6.6l10.2-0.2l3.9-4.2
			c3.4,5.9,1.1,12.6-7,17.3c-5.9,3.4-13.8,5.1-21.6,4.9L234.8,347.9z"/>
		<polygon class="st2" points="239.5,339.3 239.5,352.3 269.7,335.6 269.7,322.6 265.3,324.3 		"/>
		<polygon class="st1" points="234.8,334.9 234.8,347.9 239.5,352.3 239.5,339.3 		"/>
		<path class="st7" d="M234.8,334.9l4.3-4.5c3.8,0.3,7.7-0.5,11.1-2.3c3.1-1.8,4.4-4.3,3.9-6.6l10.2-0.2l3.9-4.2
			c3.4,5.9,1.1,12.6-7,17.3c-5.9,3.4-13.8,5.1-21.6,4.9L234.8,334.9z"/>
		<path class="st10" d="M107.4,116.4l26.7-15.4c0.4-0.3,0.9-0.3,1.4-0.1l0,0l2.6,1.5l-1.8,0.7v19.4c0,1.6-0.8,3.2-2.1,4.1
			l-25.6,14.8v2.3l-2.6-1.5l0,0c-0.5-0.4-0.8-1.1-0.7-1.7v-19.9C105.2,118.9,106,117.4,107.4,116.4z"/>
		<path class="st11" d="M110,143.6l26.8-15.4c1.3-1,2.1-2.5,2.2-4.1v-19.9c0-1.6-1-2.3-2.2-1.6L110,117.9c-1.3,1-2.1,2.5-2.2,4.1
			v19.9C107.9,143.5,108.8,144.3,110,143.6z"/>
		<path class="st9" d="M127.8,121.3c0,1.2,0.8,1.6,1.8,1c1.1-0.7,1.7-1.9,1.8-3.1c0-1.2-0.8-1.6-1.8-1
			C128.5,118.9,127.8,120,127.8,121.3z"/>
		<path class="st9" d="M122.3,124.4c0,1.2,0.8,1.6,1.8,1c1.1-0.7,1.7-1.9,1.8-3.1c0-1.2-0.8-1.6-1.8-1
			C123,122,122.4,123.2,122.3,124.4z"/>
		<path class="st9" d="M116.8,127.6c0,1.2,0.8,1.6,1.8,1c1.1-0.7,1.7-1.9,1.8-3.1c0-1.2-0.8-1.6-1.8-1
			C117.6,125.2,116.9,126.3,116.8,127.6z"/>
		<path class="st7" d="M237.4,86.1l26.2-15.1c0.4-0.3,0.9-0.3,1.4-0.1l0,0l2.5,1.5l-1.8,0.7V92c0,1.6-0.8,3.1-2.1,4l-25.1,14.5v2.2
			l-2.5-1.5l0,0c-0.5-0.4-0.8-1-0.7-1.7V90.1C235.3,88.5,236.1,87,237.4,86.1z"/>
		<path class="st0" d="M240,112.7l26.2-15.1c1.3-0.9,2.1-2.4,2.1-4V74c0-1.6-0.9-2.3-2.1-1.6L240,87.6c-1.3,0.9-2.1,2.4-2.1,4v19.5
			C237.9,112.7,238.8,113.4,240,112.7z"/>
		<path class="st9" d="M257.4,90.8c0,1.1,0.8,1.6,1.8,1c1-0.7,1.7-1.8,1.8-3.1c0-1.1-0.8-1.6-1.8-1
			C258.1,88.4,257.5,89.6,257.4,90.8z"/>
		<path class="st9" d="M252,93.9c0,1.1,0.8,1.6,1.8,1c1-0.7,1.7-1.8,1.8-3c0-1.1-0.8-1.6-1.8-1C252.8,91.6,252.1,92.7,252,93.9z"/>
		<path class="st9" d="M246.7,97c0,1.1,0.8,1.6,1.8,1c1.1-0.7,1.7-1.8,1.8-3.1c0-1.1-0.8-1.6-1.8-1C247.4,94.6,246.7,95.8,246.7,97z
			"/>
	</g>
</g>
</svg>
