<?xml version="1.0" encoding="utf-8"?>
<!-- Generator: Adobe Illustrator 21.0.2, SVG Export Plug-In . SVG Version: 6.00 Build 0)  -->
<svg version="1.1" id="Layer_1" xmlns="http://www.w3.org/2000/svg" xmlns:xlink="http://www.w3.org/1999/xlink" x="0px" y="0px"
	 viewBox="0 0 2380 1761.4" style="enable-background:new 0 0 2380 1761.4;" xml:space="preserve">
<style type="text/css">
	.st0{fill:url(#SVGID_1_);}
	.st1{fill:url(#SVGID_2_);}
	.st2{fill:url(#SVGID_3_);}
	.st3{fill:url(#SVGID_4_);}
	.st4{fill:url(#SVGID_5_);}
	.st5{fill:url(#SVGID_6_);}
	.st6{fill:url(#SVGID_7_);}
	.st7{fill:url(#SVGID_8_);}
	.st8{fill:url(#SVGID_9_);}
	.st9{fill:url(#SVGID_10_);}
	.st10{fill:url(#SVGID_11_);}
	.st11{fill:url(#SVGID_12_);}
	.st12{fill:url(#SVGID_13_);}
	.st13{fill:url(#SVGID_14_);}
	.st14{fill:url(#SVGID_15_);}
	.st15{fill:url(#SVGID_16_);}
	.st16{fill:#F3F6FF;}
	.st17{fill:url(#SVGID_17_);}
	.st18{fill:url(#SVGID_18_);}
	.st19{fill:url(#SVGID_19_);}
	.st20{fill:url(#SVGID_20_);}
	.st21{fill:url(#SVGID_21_);}
	.st22{fill:url(#SVGID_22_);}
	.st23{fill:url(#SVGID_23_);}
	.st24{fill:url(#SVGID_24_);}
	.st25{fill:url(#SVGID_25_);}
	.st26{fill:url(#SVGID_26_);}
	.st27{fill:url(#SVGID_27_);}
	.st28{fill:url(#SVGID_28_);}
	.st29{fill:url(#SVGID_29_);}
	.st30{fill:url(#SVGID_30_);}
	.st31{fill:url(#SVGID_31_);}
	.st32{fill:url(#SVGID_32_);}
	.st33{fill:url(#SVGID_33_);}
	.st34{fill:url(#SVGID_34_);}
	.st35{fill:url(#SVGID_35_);}
	.st36{fill:url(#SVGID_36_);}
	.st37{fill:url(#SVGID_37_);}
	.st38{fill:url(#SVGID_38_);}
	.st39{fill:url(#SVGID_39_);}
	.st40{fill:none;stroke:#000000;stroke-miterlimit:10;}
	.st41{fill:url(#SVGID_40_);}
	.st42{fill:url(#SVGID_41_);}
	.st43{fill:url(#SVGID_42_);}
	.st44{fill:url(#SVGID_43_);}
	.st45{fill:url(#SVGID_44_);}
	.st46{fill:url(#SVGID_45_);}
	.st47{fill:url(#SVGID_46_);}
	.st48{fill:url(#SVGID_47_);}
	.st49{fill:url(#SVGID_48_);}
	.st50{fill:url(#SVGID_49_);}
	.st51{fill:url(#SVGID_50_);}
	.st52{fill:url(#SVGID_51_);}
	.st53{fill:url(#SVGID_52_);}
	.st54{fill:url(#SVGID_53_);}
	.st55{fill:url(#SVGID_54_);}
	.st56{fill:url(#SVGID_55_);}
	.st57{fill:url(#SVGID_56_);}
	.st58{fill:#053772;}
	.st59{fill:url(#SVGID_57_);}
	.st60{fill:url(#SVGID_58_);}
	.st61{fill:url(#SVGID_59_);}
	.st62{fill:url(#SVGID_60_);}
	.st63{fill:url(#SVGID_61_);}
	.st64{fill:url(#SVGID_62_);}
	.st65{fill:url(#SVGID_63_);}
	.st66{fill:url(#SVGID_64_);}
	.st67{fill:url(#SVGID_65_);}
	.st68{fill:url(#SVGID_66_);}
	.st69{fill:url(#SVGID_67_);}
	.st70{fill:url(#SVGID_68_);}
	.st71{fill:#012860;}
	.st72{fill:url(#SVGID_69_);}
	.st73{fill:url(#SVGID_70_);}
	.st74{fill:url(#SVGID_71_);}
	.st75{fill:url(#SVGID_72_);}
	.st76{fill:url(#SVGID_73_);}
	.st77{fill:url(#SVGID_74_);}
	.st78{fill:url(#SVGID_75_);}
	.st79{fill:url(#SVGID_76_);}
	.st80{fill:url(#SVGID_77_);}
	.st81{fill:url(#SVGID_78_);}
	.st82{fill:url(#SVGID_79_);}
	.st83{fill:url(#SVGID_80_);}
	.st84{fill:url(#SVGID_81_);}
	.st85{fill:url(#SVGID_82_);}
	.st86{fill:url(#SVGID_83_);}
	.st87{fill:url(#SVGID_84_);}
	.st88{fill:url(#SVGID_85_);}
	.st89{fill:url(#SVGID_86_);}
	.st90{fill:url(#SVGID_87_);}
	.st91{fill:url(#SVGID_88_);}
	.st92{fill:url(#SVGID_89_);}
	.st93{fill:url(#SVGID_90_);}
	.st94{fill:url(#SVGID_91_);}
	.st95{fill:url(#SVGID_92_);}
	.st96{fill:url(#SVGID_93_);}
	.st97{fill:url(#SVGID_94_);}
	.st98{fill:url(#SVGID_95_);}
	.st99{fill:url(#SVGID_96_);}
	.st100{fill:url(#SVGID_97_);}
	.st101{fill:url(#SVGID_98_);}
	.st102{fill:url(#SVGID_99_);}
	.st103{fill:url(#SVGID_100_);}
	.st104{fill:url(#SVGID_101_);}
	.st105{fill:url(#SVGID_102_);}
	.st106{fill:url(#SVGID_103_);}
	.st107{fill:url(#SVGID_104_);}
	.st108{fill:url(#SVGID_105_);}
	.st109{fill:url(#SVGID_106_);}
	.st110{fill:url(#SVGID_107_);}
	.st111{fill:url(#SVGID_108_);}
	.st112{fill:url(#SVGID_109_);}
	.st113{fill:url(#SVGID_110_);}
	.st114{fill:url(#SVGID_111_);}
	.st115{fill:url(#SVGID_112_);}
	.st116{fill:url(#SVGID_113_);}
	.st117{fill:url(#SVGID_114_);}
	.st118{fill:url(#SVGID_115_);}
	.st119{fill:url(#SVGID_116_);}
	.st120{fill:url(#SVGID_117_);}
	.st121{fill:url(#SVGID_118_);}
	.st122{fill:url(#SVGID_119_);}
	.st123{fill:url(#SVGID_120_);}
	.st124{fill:url(#SVGID_121_);}
	.st125{fill:url(#SVGID_122_);}
	.st126{fill:url(#SVGID_123_);}
	.st127{fill:url(#SVGID_124_);}
	.st128{fill:url(#SVGID_125_);}
	.st129{fill:url(#SVGID_126_);}
	.st130{fill:url(#SVGID_127_);}
	.st131{fill:url(#SVGID_128_);}
	.st132{fill:url(#SVGID_129_);}
	.st133{fill:url(#SVGID_130_);}
	.st134{fill:url(#SVGID_131_);}
</style>
<g>
	
		<linearGradient id="SVGID_1_" gradientUnits="userSpaceOnUse" x1="474.14" y1="587.807" x2="759.23" y2="587.807" gradientTransform="matrix(1 0 0 -1 0 1762.844)">
		<stop  offset="0" style="stop-color:#666666"/>
		<stop  offset="6.000000e-02" style="stop-color:#737373"/>
		<stop  offset="0.28" style="stop-color:#A5A5A5"/>
		<stop  offset="0.5" style="stop-color:#CCCCCC"/>
		<stop  offset="0.7" style="stop-color:#E8E8E8"/>
		<stop  offset="0.87" style="stop-color:#F9F9F9"/>
		<stop  offset="1" style="stop-color:#FFFFFF"/>
	</linearGradient>
	<path class="st0" d="M476.5,1338.3c0,0,50.9-192.8-2.4-325.1l2.4-1.4l282.7,163.3L476.5,1338.3z"/>
</g>
<g>
	
		<linearGradient id="SVGID_2_" gradientUnits="userSpaceOnUse" x1="421.729" y1="852.4919" x2="424.6989" y2="777.702" gradientTransform="matrix(-1 0 0 -1 1208.0599 1762.844)">
		<stop  offset="0" style="stop-color:#999999"/>
		<stop  offset="0.2" style="stop-color:#B4B4B4"/>
		<stop  offset="0.55" style="stop-color:#DCDCDC"/>
		<stop  offset="0.83" style="stop-color:#F6F6F6"/>
		<stop  offset="1" style="stop-color:#FFFFFF"/>
	</linearGradient>
	<polygon class="st1" points="803.3,896.3 767.2,875.5 767.1,979.8 803.3,1000.7 	"/>
</g>
<g>
	
		<linearGradient id="SVGID_3_" gradientUnits="userSpaceOnUse" x1="348.4165" y1="869.6119" x2="354.0265" y2="727.7219" gradientTransform="matrix(-1 0 0 -1 1208.0599 1762.844)">
		<stop  offset="0" style="stop-color:#999999"/>
		<stop  offset="0.2" style="stop-color:#B4B4B4"/>
		<stop  offset="0.55" style="stop-color:#DCDCDC"/>
		<stop  offset="0.83" style="stop-color:#F6F6F6"/>
		<stop  offset="1" style="stop-color:#FFFFFF"/>
	</linearGradient>
	<polygon class="st2" points="875.5,875.5 839.4,854.6 839.4,1021.5 875.5,1042.3 	"/>
</g>
<g>
	
		<linearGradient id="SVGID_4_" gradientUnits="userSpaceOnUse" x1="278.804" y1="1000.852" x2="277.6341" y2="694.032" gradientTransform="matrix(-1 0 0 -1 1208.0599 1762.844)">
		<stop  offset="0" style="stop-color:#999999"/>
		<stop  offset="0.2" style="stop-color:#B4B4B4"/>
		<stop  offset="0.55" style="stop-color:#DCDCDC"/>
		<stop  offset="0.83" style="stop-color:#F6F6F6"/>
		<stop  offset="1" style="stop-color:#FFFFFF"/>
	</linearGradient>
	<polygon class="st3" points="947.8,706.8 911.7,686.6 911.6,1063.2 947.8,1084.1 	"/>
</g>
<g>
	
		<linearGradient id="SVGID_5_" gradientUnits="userSpaceOnUse" x1="206.0469" y1="906.232" x2="206.1369" y2="670.542" gradientTransform="matrix(-1 0 0 -1 1208.0599 1762.844)">
		<stop  offset="0" style="stop-color:#999999"/>
		<stop  offset="0.2" style="stop-color:#B4B4B4"/>
		<stop  offset="0.55" style="stop-color:#DCDCDC"/>
		<stop  offset="0.83" style="stop-color:#F6F6F6"/>
		<stop  offset="1" style="stop-color:#FFFFFF"/>
	</linearGradient>
	<polygon class="st4" points="1020.1,833.8 983.9,813 983.9,1104.9 1020,1125.7 	"/>
</g>
<g>
	
		<linearGradient id="SVGID_6_" gradientUnits="userSpaceOnUse" x1="491.71" y1="1090.5785" x2="1950.54" y2="1090.5785" gradientTransform="matrix(1 0 0 -1 0 1762.844)">
		<stop  offset="0" style="stop-color:#000000"/>
		<stop  offset="0" style="stop-color:#000000"/>
		<stop  offset="0.4" style="stop-color:#1C1C1C"/>
		<stop  offset="0.74" style="stop-color:#2D2D2D"/>
		<stop  offset="1" style="stop-color:#333333"/>
	</linearGradient>
	<path class="st5" d="M1950.5,876.3v0.4c0,0.6,0,1.3-0.1,1.9v0.2c-0.2,3.6-0.8,7.1-1.9,10.5c-0.8,2.5-1.9,5-3.2,7.3
		c-530-43.7-1276.2-25.6-1453.6-20.6c0.2-14,7.7-26.9,19.9-33.9l659.7-380.9c31.1-17.9,69.3-17.9,100.4,0l658.7,380.6
		C1942.8,848.9,1950.5,862.1,1950.5,876.3z"/>
</g>
<g>
	
		<linearGradient id="SVGID_7_" gradientUnits="userSpaceOnUse" x1="1516.0425" y1="423.2003" x2="2048.8125" y2="423.2003" gradientTransform="matrix(0.99 5.000000e-02 6.000000e-02 -1.01 -35.1074 1737.1887)">
		<stop  offset="0" style="stop-color:#666666"/>
		<stop  offset="6.000000e-02" style="stop-color:#737373"/>
		<stop  offset="0.28" style="stop-color:#A5A5A5"/>
		<stop  offset="0.5" style="stop-color:#CCCCCC"/>
		<stop  offset="0.7" style="stop-color:#E8E8E8"/>
		<stop  offset="0.87" style="stop-color:#F9F9F9"/>
		<stop  offset="1" style="stop-color:#FFFFFF"/>
	</linearGradient>
	<path class="st6" d="M2016.6,1421l-25.2,33.5l-1.2,1.6l-15.3,20.3l-58.3-12c-10.7,7.2-22.1,13.4-33.9,18.4l22.3,27.5l2.6,3.2
		l-14.5,3.4l-88.6,20.7l-25-30.8c-15.9,1.2-31.8,1.3-47.7,0.5l-23.7,31.6l-95.9-19.7l-3.9-0.8l-4.3-0.9l0.7-0.9l23-30.6
		c-11.9-4.7-23.4-10.5-34.2-17.4l-58.6,13.7l-17.2-21.2l-26.9-33.2l23.6-5.5l34.5-8c-2.2-8.4-2.5-17.1-0.9-25.6l-34.4-7.1l-23.9-4.9
		l41.7-55.4l57.7,11.9c2.2-1.6,4.6-3.1,7-4.6c0.8-0.6,1.6-1,2.5-1.6c3.1-1.9,6.3-3.7,9.6-5.5c4.8-2.5,9.8-5,15-7.2l-2.9-3.6
		l-21.4-26.5l103.1-24.1l24.1,29.8c6.3-0.5,12.6-0.8,19-1c8.7-0.3,17.4-0.2,26.2,0.1c1.5,0.1,3,0.1,4.4,0.2l6.4-8.5l0.5-0.6l2.2-2.9
		l13.7-18.2l20.9,4.3l83.1,17.1l-22.8,30.3c6.9,2.8,13.7,5.9,20.3,9.3c5.2,2.7,10.2,5.6,15.1,8.8l56.4-13.2l44.1,54.4l-29.4,6.8
		l-27.5,6.4c2.1,8.5,2.2,17.4,0.3,26l30.4,6.3L2016.6,1421z"/>
</g>
<g>
	
		<linearGradient id="SVGID_8_" gradientUnits="userSpaceOnUse" x1="1557.4027" y1="1403.2347" x2="1662.1615" y2="1403.2347" gradientTransform="matrix(1 0 0 -1 0 1762.844)">
		<stop  offset="0" style="stop-color:#FFFFFF"/>
		<stop  offset="0.48" style="stop-color:#F6F6F6"/>
		<stop  offset="1" style="stop-color:#E6E6E6"/>
	</linearGradient>
	<path class="st7" d="M1658,354.2l-2.8,1.7c5.9,18.1,5.2,36.5-3.5,48.9c-5.2,7.7-13.8,12.6-23.1,13.1c-13.9,1-29.8-6.3-42.8-19.5
		l-2.9,1.8c13.1,13.6,28.5,21.1,43,21.1c1,0,2,0,2.9-0.1c10.3-0.6,19.8-5.9,25.6-14.5C1663.6,393.3,1664.4,373.5,1658,354.2z
		 M1593.6,301.2c13.8,0,29.2,7.8,41.7,21.1c1.8,1.9,3.5,3.9,5.1,5.9l2.8-1.7c-1.7-2.2-3.6-4.4-5.5-6.5c-14.2-15.1-31.3-23.2-46.9-22
		c-10.3,0.6-19.7,5.9-25.5,14.5c-6.7,9.6-9.2,23-7.2,37.7c1.1,7.9,3.3,15.7,6.6,23l2.8-1.7c-3.1-6.9-5.2-14.2-6.2-21.7
		c-0.4-3.1-0.7-6.2-0.7-9.3c0-10.1,2.5-19.2,7.3-26c5.2-7.7,13.8-12.6,23.1-13.1C1591.9,301.2,1592.7,301.2,1593.6,301.2
		L1593.6,301.2z"/>
</g>
<g>
	
		<linearGradient id="SVGID_9_" gradientUnits="userSpaceOnUse" x1="1537.9586" y1="1404.0203" x2="1682.7712" y2="1404.0203" gradientTransform="matrix(1 0 0 -1 0 1762.844)">
		<stop  offset="0" style="stop-color:#FFFFFF"/>
		<stop  offset="0.48" style="stop-color:#F6F6F6"/>
		<stop  offset="1" style="stop-color:#E6E6E6"/>
	</linearGradient>
	<path class="st8" d="M1632.6,444.1c-20.4,0-42.4-11-60.8-30.6c-5.8-6.2-10.9-12.9-15.4-20.1c-9.1-14.5-15.1-30.7-17.6-47.6
		c-2.8-20.3,0.7-38.8,9.9-52.1c8-11.8,21-19.2,35.2-20c21.6-1.6,45.2,9.5,64.8,30.5c16.3,17.4,27.6,39.3,32,61.9
		c4.4,22.7,1.3,43.2-8.9,57.9c-8,11.8-21,19.2-35.2,20C1635.3,444.1,1634,444.1,1632.6,444.1z M1550.4,294.8l1.7,1.1
		c-8.6,12.4-11.9,29.9-9.2,49.2c2.4,16.4,8.2,32.1,17,46.1c4.3,7,9.3,13.5,14.9,19.5c18.5,19.8,41.5,30.7,61.6,29.2
		c13-0.7,24.9-7.5,32.2-18.3c19.9-28.6,9.7-80.1-22.7-114.7c-18.5-19.8-41.5-30.7-61.6-29.2c-13,0.7-24.9,7.5-32.2,18.2
		L1550.4,294.8z"/>
</g>
<g>
	
		<linearGradient id="SVGID_10_" gradientUnits="userSpaceOnUse" x1="2004.327" y1="932.1425" x2="2156.2583" y2="932.1425" gradientTransform="matrix(1 0 0 -1 0 1762.844)">
		<stop  offset="0" style="stop-color:#FFFFFF"/>
		<stop  offset="0.48" style="stop-color:#F6F6F6"/>
		<stop  offset="1" style="stop-color:#E6E6E6"/>
	</linearGradient>
	<path class="st9" d="M2150.2,822.8l-4.1,2.5c8.6,26.3,7.5,53-5,71c-7.6,11.2-20,18.2-33.5,19c-20.2,1.5-43.2-9.1-62.1-28.3
		l-4.1,2.5c19,19.7,41.4,30.7,62.3,30.7c1.4,0,2.8,0,4.3-0.2c15-0.8,28.7-8.6,37.1-21C2158.4,879.6,2159.5,850.8,2150.2,822.8z
		 M2056.8,746c20,0,42.3,11.2,60.5,30.6c2.6,2.8,5,5.6,7.3,8.6l4.1-2.4c-2.5-3.2-5.2-6.4-8-9.4c-20.6-22-45.4-33.6-68-32
		c-14.9,0.8-28.6,8.6-37,21c-9.7,13.9-13.4,33.3-10.4,54.6c1.6,11.5,4.8,22.7,9.6,33.3l4.1-2.4c-4.5-10-7.5-20.7-9-31.5
		c-0.6-4.5-1-9-1-13.5c0-14.7,3.6-27.8,10.6-37.8c7.6-11.2,20-18.2,33.5-19C2054.3,746,2055.5,746,2056.8,746z"/>
</g>
<g>
	
		<linearGradient id="SVGID_11_" gradientUnits="userSpaceOnUse" x1="1976.0906" y1="933.2634" x2="2186.1753" y2="933.2634" gradientTransform="matrix(1 0 0 -1 0 1762.844)">
		<stop  offset="0" style="stop-color:#FFFFFF"/>
		<stop  offset="0.48" style="stop-color:#F6F6F6"/>
		<stop  offset="1" style="stop-color:#E6E6E6"/>
	</linearGradient>
	<path class="st10" d="M2113.4,953.3c-29.7,0-61.5-16-88.1-44.5c-8.4-9-15.9-18.7-22.3-29.2c-13.5-21.8-22.3-45.7-25.5-69.1
		c-4.1-29.5,1-56.3,14.3-75.5c12.1-17.4,29.7-27.4,51-29c31.3-2.3,65.6,13.8,94.1,44.2c23.6,25.2,40.1,57.1,46.5,89.7
		c6.4,32.9,1.8,62.7-13,84c-12.1,17.4-29.8,27.5-51.1,29C2117.3,953.2,2115.4,953.3,2113.4,953.3z M1994.2,736.7l2.4,1.7
		c-12.5,18-17.3,43.4-13.3,71.4c3,22.6,11.6,45.7,24.6,66.8c6.3,10.1,13.5,19.6,21.6,28.3c26.8,28.7,60.2,44.5,89.3,42.4
		c19.5-1.4,35.7-10.6,46.8-26.5c28.8-41.5,14.1-116.2-33-166.4c-26.8-28.7-60.2-44.5-89.4-42.4c-19.5,1.4-35.6,10.6-46.7,26.5
		L1994.2,736.7z"/>
</g>
<g>
	
		<linearGradient id="SVGID_12_" gradientUnits="userSpaceOnUse" x1="1669.9497" y1="1206.9846" x2="1804.6392" y2="1206.9846" gradientTransform="matrix(1 0 0 -1 0 1762.844)">
		<stop  offset="0" style="stop-color:#E6E6E6"/>
		<stop  offset="0.52" style="stop-color:#F6F6F6"/>
		<stop  offset="1" style="stop-color:#FFFFFF"/>
	</linearGradient>
	<path class="st11" d="M1802.9,595.4c-0.3,0-0.6-0.1-0.8-0.2l-131.3-75.8c-0.8-0.5-1.1-1.5-0.6-2.3c0.5-0.8,1.5-1.1,2.3-0.6l0,0
		l131.3,75.8c0.8,0.5,1.1,1.5,0.6,2.3C1804.1,595.1,1803.6,595.4,1802.9,595.4L1802.9,595.4z"/>
</g>
<g>
	
		<linearGradient id="SVGID_13_" gradientUnits="userSpaceOnUse" x1="1672.8497" y1="1230.9047" x2="1804.6392" y2="1230.9047" gradientTransform="matrix(1 0 0 -1 0 1762.844)">
		<stop  offset="0" style="stop-color:#E6E6E6"/>
		<stop  offset="0.52" style="stop-color:#F6F6F6"/>
		<stop  offset="1" style="stop-color:#FFFFFF"/>
	</linearGradient>
	<path class="st12" d="M1802.9,570.7c-0.3,0-0.6-0.1-0.8-0.2l-128.4-74.1c-0.8-0.5-1.1-1.5-0.6-2.3c0.5-0.8,1.5-1.1,2.3-0.6l0,0
		l128.4,74.1c0.8,0.5,1.1,1.5,0.6,2.3C1804.1,570.4,1803.6,570.7,1802.9,570.7L1802.9,570.7z"/>
</g>
<g>
	
		<linearGradient id="SVGID_14_" gradientUnits="userSpaceOnUse" x1="1672.8698" y1="1255.5847" x2="1804.6392" y2="1255.5847" gradientTransform="matrix(1 0 0 -1 0 1762.844)">
		<stop  offset="0" style="stop-color:#E6E6E6"/>
		<stop  offset="0.52" style="stop-color:#F6F6F6"/>
		<stop  offset="1" style="stop-color:#FFFFFF"/>
	</linearGradient>
	<path class="st13" d="M1802.9,546c-0.3,0-0.6-0.1-0.8-0.2l-128.4-74.1c-0.8-0.5-1.1-1.5-0.6-2.3c0.5-0.8,1.5-1.1,2.3-0.6
		l128.4,74.1c0.8,0.5,1.1,1.5,0.6,2.3C1804.1,545.7,1803.6,546,1802.9,546L1802.9,546z"/>
</g>
<g>
	
		<linearGradient id="SVGID_15_" gradientUnits="userSpaceOnUse" x1="1694.27" y1="1280.2518" x2="1783.2" y2="1280.2518" gradientTransform="matrix(1 0 0 -1 0 1762.844)">
		<stop  offset="0" style="stop-color:#E6E6E6"/>
		<stop  offset="0.52" style="stop-color:#F6F6F6"/>
		<stop  offset="1" style="stop-color:#FFFFFF"/>
	</linearGradient>
	<path class="st14" d="M1781.5,508.9c-0.3,0-0.6-0.1-0.8-0.2l-85.6-49.4c-0.8-0.5-0.9-1.6-0.4-2.3c0.5-0.6,1.3-0.9,2.1-0.5
		l85.6,49.4c0.8,0.5,1.1,1.5,0.6,2.3C1782.7,508.6,1782.1,508.9,1781.5,508.9L1781.5,508.9z"/>
</g>
<title>lifecycle</title>
<g id="Layer_2">
	<g id="Layer_1-2">
		
			<linearGradient id="SVGID_16_" gradientUnits="userSpaceOnUse" x1="1616.0801" y1="1226.2654" x2="2095.4507" y2="1226.2654" gradientTransform="matrix(1 0 0 -1 0 1762.844)">
			<stop  offset="0" style="stop-color:#6AAEFF"/>
			<stop  offset="1" style="stop-color:#005EFF"/>
		</linearGradient>
		<path class="st15" d="M1616.1,245.8c3.7-2.3,8.3-2.3,12-0.2l4.8,2.8l436,251.8c7.6,4.4,12.3,12.5,12.3,21.3v305.8
			c0,1.9-0.3,3.7-1,5.5c-0.9,2.3-2.3,4.3-4.2,5.9l12-7.9l0.1,0c4.6-2.7,7.5-7.6,7.4-13V512c0-8.8-4.7-16.9-12.3-21.3l-440.8-254.5
			c-4.1-2.4-9.3-2-13.1,0.9L1616.1,245.8z"/>
		<path class="st16" d="M1610.4,565c0,10.2,5.4,19.6,14.2,24.7l434,250.6c7.2,4.1,16.3,1.7,20.5-5.5c0.4-0.6,0.7-1.3,1-2
			c0.7-1.7,1-3.6,1-5.5V521.5c0-8.8-4.7-16.9-12.3-21.3l-435.9-251.7l-4.8-2.8c-3.7-2.2-8.3-2.1-12,0.2l-0.2,0.1
			c-1.6,1-3,2.4-3.9,4.1c-1,1.8-1.5,3.8-1.5,5.8L1610.4,565z"/>
		
			<linearGradient id="SVGID_17_" gradientUnits="userSpaceOnUse" x1="1948.23" y1="1188.202" x2="2029.5898" y2="1188.202" gradientTransform="matrix(1 0 0 -1 0 1762.844)">
			<stop  offset="0" style="stop-color:#6AAEFF"/>
			<stop  offset="1" style="stop-color:#005EFF"/>
		</linearGradient>
		<path class="st17" d="M1948.2,518.5v94.3l81.4,18c-2.7-28.1-16.1-58.6-38.4-82.4C1977.8,534,1962.9,524,1948.2,518.5z"/>
		
			<linearGradient id="SVGID_18_" gradientUnits="userSpaceOnUse" x1="1892.04" y1="1105.387" x2="1948.23" y2="1105.387" gradientTransform="matrix(1 0 0 -1 0 1762.844)">
			<stop  offset="0" style="stop-color:#E9EFFF"/>
			<stop  offset="1" style="stop-color:#D4E3FF"/>
		</linearGradient>
		<path class="st18" d="M1948.2,702.1v-89.3L1892,656c4,5.7,8.4,11.1,13.1,16.2C1918.6,686.6,1933.5,696.6,1948.2,702.1z"/>
		
			<linearGradient id="SVGID_19_" gradientUnits="userSpaceOnUse" x1="1866.3627" y1="1195.2371" x2="1948.24" y2="1195.2371" gradientTransform="matrix(1 0 0 -1 0 1762.844)">
			<stop  offset="0" style="stop-color:#E9EFFF"/>
			<stop  offset="1" style="stop-color:#D4E3FF"/>
		</linearGradient>
		<path class="st19" d="M1867.5,594.7c0.2,1.4,0.4,2.8,0.7,4.2l80.1,13.8l-56.3-90.4c-5.2,3.6-9.8,8.2-13.4,13.4
			C1867.8,551.4,1864.4,572.4,1867.5,594.7z"/>
		
			<linearGradient id="SVGID_20_" gradientUnits="userSpaceOnUse" x1="1891.9399" y1="1199.7045" x2="1948.23" y2="1199.7045" gradientTransform="matrix(1 0 0 -1 0 1762.844)">
			<stop  offset="0" style="stop-color:#F22AFF"/>
			<stop  offset="1" style="stop-color:#6C00E9"/>
		</linearGradient>
		<path class="st20" d="M1891.9,522.4l56.3,90.4v-94.3C1927.6,510.7,1907.3,511.9,1891.9,522.4z"/>
		
			<linearGradient id="SVGID_21_" gradientUnits="userSpaceOnUse" x1="1948.23" y1="1102.894" x2="2030.1016" y2="1102.894" gradientTransform="matrix(1 0 0 -1 0 1762.844)">
			<stop  offset="0" style="stop-color:#FF0007"/>
			<stop  offset="1" style="stop-color:#FFAAAC"/>
		</linearGradient>
		<path class="st21" d="M1948.2,612.8v89.3c27.4,10.2,54.2,4.8,69.6-17.4c10-14.4,13.7-33.5,11.7-53.9L1948.2,612.8z"/>
		
			<linearGradient id="SVGID_22_" gradientUnits="userSpaceOnUse" x1="1868.1099" y1="1135.3569" x2="1948.22" y2="1135.3569" gradientTransform="matrix(1 0 0 -1 0 1762.844)">
			<stop  offset="0" style="stop-color:#002255"/>
			<stop  offset="1" style="stop-color:#003A7F"/>
		</linearGradient>
		<path class="st22" d="M1868.1,599c3.2,17.8,9.8,34.9,19.4,50.2c1.4,2.3,2.9,4.6,4.5,6.8l56.2-43.2L1868.1,599z"/>
		
			<linearGradient id="SVGID_23_" gradientUnits="userSpaceOnUse" x1="1653.1799" y1="1379.7882" x2="1824.36" y2="1379.7882" gradientTransform="matrix(1 0 0 -1 0 1762.844)">
			<stop  offset="0" style="stop-color:#F22AFF"/>
			<stop  offset="1" style="stop-color:#6C00E9"/>
		</linearGradient>
		<path class="st23" d="M1824.4,415.7v30.5c0,3.7-3,6.7-6.7,6.7c-1.2,0-2.3-0.3-3.4-0.9l-155-89.5c-3.8-2.2-6.1-6.2-6.1-10.5v-33.7
			c0-2.8,2.3-5,5-5c0.9,0,1.7,0.2,2.5,0.7l157.4,90.9C1822,407,1824.4,411.2,1824.4,415.7z"/>
		
			<linearGradient id="SVGID_24_" gradientUnits="userSpaceOnUse" x1="1653.1099" y1="1244.9148" x2="1824.3201" y2="1244.9148" gradientTransform="matrix(1 0 0 -1 0 1762.844)">
			<stop  offset="0" style="stop-color:#E9EFFF"/>
			<stop  offset="1" style="stop-color:#D4E3FF"/>
		</linearGradient>
		<path class="st24" d="M1824.3,493.9v142.5c0,5.6-4.6,10.2-10.2,10.2c-1.8,0-3.5-0.5-5-1.3L1662.6,562c-5.9-3.3-9.5-9.6-9.5-16.3
			V396.9c0-4.2,3.4-7.6,7.6-7.6c1.3,0,2.6,0.4,3.8,1l150,86.6C1820.6,480.4,1824.3,486.9,1824.3,493.9z"/>
		<g>
			
				<linearGradient id="SVGID_25_" gradientUnits="userSpaceOnUse" x1="1694.27" y1="1280.2518" x2="1783.2" y2="1280.2518" gradientTransform="matrix(1 0 0 -1 0 1762.844)">
				<stop  offset="0" style="stop-color:#E9EFFF"/>
				<stop  offset="9.000000e-02" style="stop-color:#DFEAFF"/>
				<stop  offset="0.49" style="stop-color:#B7D2FF"/>
				<stop  offset="0.81" style="stop-color:#9DC4FF"/>
				<stop  offset="1" style="stop-color:#94BFFF"/>
			</linearGradient>
			<path class="st25" d="M1781.5,508.9c-0.3,0-0.6-0.1-0.8-0.2l-85.6-49.4c-0.8-0.5-0.9-1.6-0.4-2.3c0.5-0.6,1.3-0.9,2.1-0.5
				l85.6,49.4c0.8,0.5,1.1,1.5,0.6,2.3C1782.7,508.6,1782.1,508.9,1781.5,508.9L1781.5,508.9z"/>
		</g>
		<g>
			
				<linearGradient id="SVGID_26_" gradientUnits="userSpaceOnUse" x1="1672.8698" y1="1255.5847" x2="1804.6392" y2="1255.5847" gradientTransform="matrix(1 0 0 -1 0 1762.844)">
				<stop  offset="0" style="stop-color:#E9EFFF"/>
				<stop  offset="9.000000e-02" style="stop-color:#DFEAFF"/>
				<stop  offset="0.49" style="stop-color:#B7D2FF"/>
				<stop  offset="0.81" style="stop-color:#9DC4FF"/>
				<stop  offset="1" style="stop-color:#94BFFF"/>
			</linearGradient>
			<path class="st26" d="M1802.9,546c-0.3,0-0.6-0.1-0.8-0.2l-128.4-74.1c-0.8-0.5-1.1-1.5-0.6-2.3c0.5-0.8,1.5-1.1,2.3-0.6
				l128.4,74.1c0.8,0.5,1.1,1.5,0.6,2.3C1804.1,545.7,1803.6,546,1802.9,546L1802.9,546z"/>
		</g>
		<g>
			
				<linearGradient id="SVGID_27_" gradientUnits="userSpaceOnUse" x1="1672.8497" y1="1230.9047" x2="1804.6392" y2="1230.9047" gradientTransform="matrix(1 0 0 -1 0 1762.844)">
				<stop  offset="0" style="stop-color:#E9EFFF"/>
				<stop  offset="9.000000e-02" style="stop-color:#DFEAFF"/>
				<stop  offset="0.49" style="stop-color:#B7D2FF"/>
				<stop  offset="0.81" style="stop-color:#9DC4FF"/>
				<stop  offset="1" style="stop-color:#94BFFF"/>
			</linearGradient>
			<path class="st27" d="M1802.9,570.7c-0.3,0-0.6-0.1-0.8-0.2l-128.4-74.1c-0.8-0.5-1.1-1.5-0.6-2.3c0.5-0.8,1.5-1.1,2.3-0.6l0,0
				l128.4,74.1c0.8,0.5,1.1,1.5,0.6,2.3C1804.1,570.4,1803.6,570.7,1802.9,570.7L1802.9,570.7z"/>
		</g>
		<g>
			
				<linearGradient id="SVGID_28_" gradientUnits="userSpaceOnUse" x1="1669.9497" y1="1206.9846" x2="1804.6392" y2="1206.9846" gradientTransform="matrix(1 0 0 -1 0 1762.844)">
				<stop  offset="0" style="stop-color:#E9EFFF"/>
				<stop  offset="9.000000e-02" style="stop-color:#DFEAFF"/>
				<stop  offset="0.49" style="stop-color:#B7D2FF"/>
				<stop  offset="0.81" style="stop-color:#9DC4FF"/>
				<stop  offset="1" style="stop-color:#94BFFF"/>
			</linearGradient>
			<path class="st28" d="M1802.9,595.4c-0.3,0-0.6-0.1-0.8-0.2l-131.3-75.8c-0.8-0.5-1.1-1.5-0.6-2.3c0.5-0.8,1.5-1.1,2.3-0.6l0,0
				l131.3,75.8c0.8,0.5,1.1,1.5,0.6,2.3C1804.1,595.1,1803.6,595.4,1802.9,595.4L1802.9,595.4z"/>
		</g>
		<g>
			
				<linearGradient id="SVGID_29_" gradientUnits="userSpaceOnUse" x1="1976.0906" y1="933.2634" x2="2186.1753" y2="933.2634" gradientTransform="matrix(1 0 0 -1 0 1762.844)">
				<stop  offset="0" style="stop-color:#94BFFF"/>
				<stop  offset="0.19" style="stop-color:#9DC4FF"/>
				<stop  offset="0.51" style="stop-color:#B7D2FF"/>
				<stop  offset="0.91" style="stop-color:#DFEAFF"/>
				<stop  offset="1" style="stop-color:#E9EFFF"/>
			</linearGradient>
			<path class="st29" d="M2113.4,953.3c-29.7,0-61.5-16-88.1-44.5c-8.4-9-15.9-18.7-22.3-29.2c-13.5-21.8-22.3-45.7-25.5-69.1
				c-4.1-29.5,1-56.3,14.3-75.5c12.1-17.4,29.7-27.4,51-29c31.3-2.3,65.6,13.8,94.1,44.2c23.6,25.2,40.1,57.1,46.5,89.7
				c6.4,32.9,1.8,62.7-13,84c-12.1,17.4-29.8,27.5-51.1,29C2117.3,953.2,2115.4,953.3,2113.4,953.3z M1994.2,736.7l2.4,1.7
				c-12.5,18-17.3,43.4-13.3,71.4c3,22.6,11.6,45.7,24.6,66.8c6.3,10.1,13.5,19.6,21.6,28.3c26.8,28.7,60.2,44.5,89.3,42.4
				c19.5-1.4,35.7-10.6,46.8-26.5c28.8-41.5,14.1-116.2-33-166.4c-26.8-28.7-60.2-44.5-89.4-42.4c-19.5,1.4-35.6,10.6-46.7,26.5
				L1994.2,736.7z"/>
		</g>
		<g>
			
				<linearGradient id="SVGID_30_" gradientUnits="userSpaceOnUse" x1="2004.327" y1="932.1425" x2="2156.2583" y2="932.1425" gradientTransform="matrix(1 0 0 -1 0 1762.844)">
				<stop  offset="0" style="stop-color:#94BFFF"/>
				<stop  offset="0.19" style="stop-color:#9DC4FF"/>
				<stop  offset="0.51" style="stop-color:#B7D2FF"/>
				<stop  offset="0.91" style="stop-color:#DFEAFF"/>
				<stop  offset="1" style="stop-color:#E9EFFF"/>
			</linearGradient>
			<path class="st30" d="M2150.2,822.8l-4.1,2.5c8.6,26.3,7.5,53-5,71c-7.6,11.2-20,18.2-33.5,19c-20.2,1.5-43.2-9.1-62.1-28.3
				l-4.1,2.5c19,19.7,41.4,30.7,62.3,30.7c1.4,0,2.8,0,4.3-0.2c15-0.8,28.7-8.6,37.1-21C2158.4,879.6,2159.5,850.8,2150.2,822.8z
				 M2056.8,746c20,0,42.3,11.2,60.5,30.6c2.6,2.8,5,5.6,7.3,8.6l4.1-2.4c-2.5-3.2-5.2-6.4-8-9.4c-20.6-22-45.4-33.6-68-32
				c-14.9,0.8-28.6,8.6-37,21c-9.7,13.9-13.4,33.3-10.4,54.6c1.6,11.5,4.8,22.7,9.6,33.3l4.1-2.4c-4.5-10-7.5-20.7-9-31.5
				c-0.6-4.5-1-9-1-13.5c0-14.7,3.6-27.8,10.6-37.8c7.6-11.2,20-18.2,33.5-19C2054.3,746,2055.5,746,2056.8,746z"/>
		</g>
		
			<linearGradient id="SVGID_31_" gradientUnits="userSpaceOnUse" x1="2054.4209" y1="927.4955" x2="2096.0059" y2="927.4955" gradientTransform="matrix(1 0 0 -1 0 1762.844)">
			<stop  offset="0" style="stop-color:#F22AFF"/>
			<stop  offset="1" style="stop-color:#6C00E9"/>
		</linearGradient>
		<path class="st31" d="M2057.5,816.4c-2.7,3.9-3.6,9.3-2.8,15c0.7,4.9,2.5,9.6,5.1,13.8c1.3,2.1,2.8,4.1,4.5,5.8
			c9.8,10.4,22.6,11.8,28.6,3.2s3-24.2-6.8-34.6S2063.6,807.7,2057.5,816.4z"/>
		
			<linearGradient id="SVGID_32_" gradientUnits="userSpaceOnUse" x1="2078.6399" y1="936.7657" x2="2101.96" y2="936.7657" gradientTransform="matrix(1 0 0 -1 0 1762.844)">
			<stop  offset="0" style="stop-color:#FF0007"/>
			<stop  offset="1" style="stop-color:#FFAAAC"/>
		</linearGradient>
		<path class="st32" d="M2080.4,815.5c-1.6,2.5-2.1,5.5-1.6,8.4c0.4,2.8,1.4,5.4,2.9,7.8c0.7,1.2,1.6,2.3,2.5,3.3
			c5.5,5.9,12.7,6.7,16.1,1.8c3.4-4.9,1.7-13.6-3.8-19.4S2083.8,810.6,2080.4,815.5z"/>
		<g>
			
				<linearGradient id="SVGID_33_" gradientUnits="userSpaceOnUse" x1="1537.9586" y1="1404.0203" x2="1682.7712" y2="1404.0203" gradientTransform="matrix(1 0 0 -1 0 1762.844)">
				<stop  offset="0" style="stop-color:#94BFFF"/>
				<stop  offset="0.19" style="stop-color:#9DC4FF"/>
				<stop  offset="0.51" style="stop-color:#B7D2FF"/>
				<stop  offset="0.91" style="stop-color:#DFEAFF"/>
				<stop  offset="1" style="stop-color:#E9EFFF"/>
			</linearGradient>
			<path class="st33" d="M1632.6,444.1c-20.4,0-42.4-11-60.8-30.6c-5.8-6.2-10.9-12.9-15.4-20.1c-9.1-14.5-15.1-30.7-17.6-47.6
				c-2.8-20.3,0.7-38.8,9.9-52.1c8-11.8,21-19.2,35.2-20c21.6-1.6,45.2,9.5,64.8,30.5c16.3,17.4,27.6,39.3,32,61.9
				c4.4,22.7,1.3,43.2-8.9,57.9c-8,11.8-21,19.2-35.2,20C1635.3,444.1,1634,444.1,1632.6,444.1z M1550.4,294.8l1.7,1.1
				c-8.6,12.4-11.9,29.9-9.2,49.2c2.4,16.4,8.2,32.1,17,46.1c4.3,7,9.3,13.5,14.9,19.5c18.5,19.8,41.5,30.7,61.6,29.2
				c13-0.7,24.9-7.5,32.2-18.3c19.9-28.6,9.7-80.1-22.7-114.7c-18.5-19.8-41.5-30.7-61.6-29.2c-13,0.7-24.9,7.5-32.2,18.2
				L1550.4,294.8z"/>
		</g>
		<g>
			
				<linearGradient id="SVGID_34_" gradientUnits="userSpaceOnUse" x1="1557.4027" y1="1403.2347" x2="1662.1615" y2="1403.2347" gradientTransform="matrix(1 0 0 -1 0 1762.844)">
				<stop  offset="0" style="stop-color:#94BFFF"/>
				<stop  offset="0.19" style="stop-color:#9DC4FF"/>
				<stop  offset="0.51" style="stop-color:#B7D2FF"/>
				<stop  offset="0.91" style="stop-color:#DFEAFF"/>
				<stop  offset="1" style="stop-color:#E9EFFF"/>
			</linearGradient>
			<path class="st34" d="M1658,354.2l-2.8,1.7c5.9,18.1,5.2,36.5-3.5,48.9c-5.2,7.7-13.8,12.6-23.1,13.1c-13.9,1-29.8-6.3-42.8-19.5
				l-2.9,1.8c13.1,13.6,28.5,21.1,43,21.1c1,0,2,0,2.9-0.1c10.3-0.6,19.8-5.9,25.6-14.5C1663.6,393.3,1664.4,373.5,1658,354.2z
				 M1593.6,301.2c13.8,0,29.2,7.8,41.7,21.1c1.8,1.9,3.5,3.9,5.1,5.9l2.8-1.7c-1.7-2.2-3.6-4.4-5.5-6.5
				c-14.2-15.1-31.3-23.2-46.9-22c-10.3,0.6-19.7,5.9-25.5,14.5c-6.7,9.6-9.2,23-7.2,37.7c1.1,7.9,3.3,15.7,6.6,23l2.8-1.7
				c-3.1-6.9-5.2-14.2-6.2-21.7c-0.4-3.1-0.7-6.2-0.7-9.3c0-10.1,2.5-19.2,7.3-26c5.2-7.7,13.8-12.6,23.1-13.1
				C1591.9,301.2,1592.7,301.2,1593.6,301.2L1593.6,301.2z"/>
		</g>
		
			<linearGradient id="SVGID_35_" gradientUnits="userSpaceOnUse" x1="1591.9646" y1="1400.0941" x2="1620.6299" y2="1400.0941" gradientTransform="matrix(1 0 0 -1 0 1762.844)">
			<stop  offset="0" style="stop-color:#F22AFF"/>
			<stop  offset="1" style="stop-color:#6C00E9"/>
		</linearGradient>
		<path class="st35" d="M1594.1,349.7c-1.9,2.7-2.5,6.4-1.9,10.3c0.5,3.4,1.7,6.6,3.5,9.5c0.9,1.4,1.9,2.8,3.1,4
			c6.7,7.2,15.6,8.2,19.7,2.2c4.2-6,2.1-16.7-4.7-23.9C1607.1,344.7,1598.2,343.8,1594.1,349.7z"/>
		
			<linearGradient id="SVGID_36_" gradientUnits="userSpaceOnUse" x1="1608.6599" y1="1406.4335" x2="1624.73" y2="1406.4335" gradientTransform="matrix(1 0 0 -1 0 1762.844)">
			<stop  offset="0" style="stop-color:#FF0007"/>
			<stop  offset="1" style="stop-color:#FFAAAC"/>
		</linearGradient>
		<path class="st36" d="M1609.9,349.1c-1.1,1.7-1.5,3.8-1.1,5.8c0.3,1.9,1,3.7,2,5.4c0.5,0.8,1.1,1.6,1.7,2.3
			c3.8,4,8.7,4.6,11.1,1.2c2.3-3.4,1.2-9.4-2.6-13.4C1617.2,346.3,1612.2,345.8,1609.9,349.1z"/>
		<g>
			
				<linearGradient id="SVGID_37_" gradientUnits="userSpaceOnUse" x1="1516.0425" y1="423.2003" x2="2048.8125" y2="423.2003" gradientTransform="matrix(0.99 5.000000e-02 6.000000e-02 -1.01 -35.1074 1737.1887)">
				<stop  offset="0" style="stop-color:#E9F2FF"/>
				<stop  offset="1" style="stop-color:#E9F1FF"/>
			</linearGradient>
			<path class="st37" d="M2016.6,1421l-25.2,33.5l-1.2,1.6l-15.3,20.3l-58.3-12c-10.7,7.2-22.1,13.4-33.9,18.4l22.3,27.5l2.6,3.2
				l-14.5,3.4l-88.6,20.7l-25-30.8c-15.9,1.2-31.8,1.3-47.7,0.5l-23.7,31.6l-95.9-19.7l-3.9-0.8l-4.3-0.9l0.7-0.9l23-30.6
				c-11.9-4.7-23.4-10.5-34.2-17.4l-58.6,13.7l-17.2-21.2l-26.9-33.2l23.6-5.5l34.5-8c-2.2-8.4-2.5-17.1-0.9-25.6l-34.4-7.1
				l-23.9-4.9l41.7-55.4l57.7,11.9c2.2-1.6,4.6-3.1,7-4.6c0.8-0.6,1.6-1,2.5-1.6c3.1-1.9,6.3-3.7,9.6-5.5c4.8-2.5,9.8-5,15-7.2
				l-2.9-3.6l-21.4-26.5l103.1-24.1l24.1,29.8c6.3-0.5,12.6-0.8,19-1c8.7-0.3,17.4-0.2,26.2,0.1c1.5,0.1,3,0.1,4.4,0.2l6.4-8.5
				l0.5-0.6l2.2-2.9l13.7-18.2l20.9,4.3l83.1,17.1l-22.8,30.3c6.9,2.8,13.7,5.9,20.3,9.3c5.2,2.7,10.2,5.6,15.1,8.8l56.4-13.2
				l44.1,54.4l-29.4,6.8l-27.5,6.4c2.1,8.5,2.2,17.4,0.3,26l30.4,6.3L2016.6,1421z"/>
		</g>
		
			<linearGradient id="SVGID_38_" gradientUnits="userSpaceOnUse" x1="1516.0425" y1="486.389" x2="2048.8125" y2="486.389" gradientTransform="matrix(0.99 5.000000e-02 6.000000e-02 -1.01 -35.1074 1737.1887)">
			<stop  offset="0" style="stop-color:#E9EFFF"/>
			<stop  offset="1" style="stop-color:#D4E3FF"/>
		</linearGradient>
		<path class="st38" d="M2020.6,1357.2l-25.2,33.5l-1.2,1.6l-15.3,20.3l-58.3-12c-10.7,7.2-22.1,13.4-33.9,18.4l22.3,27.5l2.6,3.2
			l-14.5,3.4l-88.6,20.7l-25-30.8c-15.9,1.2-31.8,1.3-47.7,0.5L1712,1475l-95.9-19.7l-3.9-0.8l-4.3-0.9l0.7-0.9l23-30.6
			c-11.9-4.7-23.4-10.5-34.2-17.4l-58.6,13.6l-17.2-21.2l-26.9-33.2l23.6-5.5l34.5-8c-2.2-8.4-2.5-17.1-0.9-25.6l-34.4-7.1
			l-23.9-4.9l41.7-55.4l57.7,11.9c2.2-1.6,4.6-3.1,7-4.6c0.8-0.6,1.6-1,2.5-1.6c3.1-1.9,6.3-3.7,9.6-5.5c4.8-2.5,9.8-5,15-7.2
			l-2.9-3.6l-21.4-26.4l103.1-24.1l24.1,29.8c6.3-0.5,12.6-0.8,19-1c8.7-0.3,17.4-0.2,26.2,0.1c1.5,0.1,3,0.1,4.4,0.2l6.4-8.5
			l0.5-0.6l2.2-2.9l13.7-18.2l20.9,4.3l83.1,17.1l-22.8,30.3c6.9,2.8,13.7,5.9,20.3,9.3c5.2,2.7,10.2,5.6,15.1,8.8l56.4-13.2
			l44.1,54.4l-29.4,6.8l-27.5,6.4c2.1,8.5,2.2,17.4,0.3,26l30.4,6.3L2020.6,1357.2z"/>
		
			<linearGradient id="SVGID_39_" gradientUnits="userSpaceOnUse" x1="1687.12" y1="449.5244" x2="1853.96" y2="449.5244" gradientTransform="matrix(0.99 2.000000e-02 3.000000e-02 -1.01 -16.8648 1754.0424)">
			<stop  offset="0" style="stop-color:#F22AFF"/>
			<stop  offset="1" style="stop-color:#6C00E9"/>
		</linearGradient>
		<path class="st39" d="M1833.6,1351.4c-17,22.6-65.2,33.9-107.7,25.1s-63.1-34.1-46.1-56.8s65.2-33.9,107.7-25.1
			S1850.6,1328.8,1833.6,1351.4z"/>
		<path class="st40" d="M1908.9,1446.5l9.1-5.9C1915.1,1442.7,1912.1,1444.6,1908.9,1446.5z"/>
		
			<linearGradient id="SVGID_40_" gradientUnits="userSpaceOnUse" x1="1619.9624" y1="570.0243" x2="1646.3324" y2="570.0243" gradientTransform="matrix(0.99 5.000000e-02 6.000000e-02 -1.01 -35.1074 1737.1887)">
			<stop  offset="0" style="stop-color:#004DAA"/>
			<stop  offset="1" style="stop-color:#0029E9"/>
		</linearGradient>
		<path class="st41" d="M1627.1,1250.3c-5.2,2.3-10.2,4.7-15,7.2c-3.3,1.8-6.5,3.6-9.6,5.5c-0.8,0.5-1.7,1-2.5,1.5l2.8-44.2
			L1627.1,1250.3z"/>
		
			<linearGradient id="SVGID_41_" gradientUnits="userSpaceOnUse" x1="1904.0924" y1="591.2523" x2="1925.0824" y2="591.2523" gradientTransform="matrix(0.99 5.000000e-02 6.000000e-02 -1.01 -35.1074 1737.1887)">
			<stop  offset="0" style="stop-color:#004DAA"/>
			<stop  offset="1" style="stop-color:#0029E9"/>
		</linearGradient>
		<path class="st42" d="M1906.4,1216.4l-2.5,39.6c-6.6-3.5-13.4-6.6-20.3-9.3L1906.4,1216.4z"/>
		
			<linearGradient id="SVGID_42_" gradientUnits="userSpaceOnUse" x1="1988.1024" y1="504.913" x2="2044.4724" y2="504.913" gradientTransform="matrix(0.99 5.000000e-02 6.000000e-02 -1.01 -35.1074 1737.1887)">
			<stop  offset="0" style="stop-color:#004DAA"/>
			<stop  offset="1" style="stop-color:#0029E9"/>
		</linearGradient>
		<path class="st43" d="M2019.5,1306.1l-2.5,40l-23.6,5.5l-30.4-6.3c1.9-8.6,1.7-17.5-0.3-26l27.5-6.4L2019.5,1306.1z"/>
		
			<linearGradient id="SVGID_43_" gradientUnits="userSpaceOnUse" x1="2010.3524" y1="429.376" x2="2048.8025" y2="429.376" gradientTransform="matrix(0.99 5.000000e-02 6.000000e-02 -1.01 -35.1074 1737.1887)">
			<stop  offset="0" style="stop-color:#6AAEFF"/>
			<stop  offset="1" style="stop-color:#005EFF"/>
		</linearGradient>
		<polygon class="st44" points="2020.6,1357.2 2018.1,1397.2 1976.4,1452.7 1978.9,1412.6 1994.2,1392.3 		"/>
		
			<linearGradient id="SVGID_44_" gradientUnits="userSpaceOnUse" x1="1950.9225" y1="405.4409" x2="2010.3524" y2="405.4409" gradientTransform="matrix(0.99 5.000000e-02 6.000000e-02 -1.01 -35.1074 1737.1887)">
			<stop  offset="0" style="stop-color:#004DAA"/>
			<stop  offset="1" style="stop-color:#0029E9"/>
		</linearGradient>
		<polygon class="st45" points="1978.9,1412.6 1976.4,1452.7 1918.1,1440.7 1920.6,1400.6 		"/>
		
			<linearGradient id="SVGID_45_" gradientUnits="userSpaceOnUse" x1="1917.9824" y1="406.8039" x2="1950.9225" y2="406.8039" gradientTransform="matrix(0.99 5.000000e-02 6.000000e-02 -1.01 -35.1074 1737.1887)">
			<stop  offset="0" style="stop-color:#002255"/>
			<stop  offset="1" style="stop-color:#003A7F"/>
		</linearGradient>
		<path class="st46" d="M1920.6,1400.6l-2.5,40l-9.1,5.9l-22.3-27.5C1898.5,1414,1909.9,1407.9,1920.6,1400.6z"/>
		
			<linearGradient id="SVGID_46_" gradientUnits="userSpaceOnUse" x1="1842.7324" y1="346.5978" x2="1944.9025" y2="346.5978" gradientTransform="matrix(0.99 5.000000e-02 6.000000e-02 -1.01 -35.1074 1737.1887)">
			<stop  offset="0" style="stop-color:#6AAEFF"/>
			<stop  offset="1" style="stop-color:#005EFF"/>
		</linearGradient>
		<polygon class="st47" points="1911.5,1449.7 1909,1489.7 1805.9,1513.8 1808.4,1473.7 1897,1453.1 		"/>
		
			<linearGradient id="SVGID_47_" gradientUnits="userSpaceOnUse" x1="1815.5924" y1="346.764" x2="1842.7324" y2="346.764" gradientTransform="matrix(0.99 5.000000e-02 6.000000e-02 -1.01 -35.1074 1737.1887)">
			<stop  offset="0" style="stop-color:#004DAA"/>
			<stop  offset="1" style="stop-color:#0029E9"/>
		</linearGradient>
		<polygon class="st48" points="1808.4,1473.7 1805.9,1513.8 1780.8,1482.9 1783.4,1442.9 		"/>
		
			<linearGradient id="SVGID_48_" gradientUnits="userSpaceOnUse" x1="1767.6825" y1="359.9254" x2="1815.5924" y2="359.9254" gradientTransform="matrix(0.99 5.000000e-02 6.000000e-02 -1.01 -35.1074 1737.1887)">
			<stop  offset="0" style="stop-color:#002255"/>
			<stop  offset="1" style="stop-color:#003A7F"/>
		</linearGradient>
		<path class="st49" d="M1783.4,1442.9l-2.5,40c-15.9,1.2-31.8,1.4-47.7,0.6l2.5-40C1751.6,1444.2,1767.5,1444,1783.4,1442.9z"/>
		
			<linearGradient id="SVGID_49_" gradientUnits="userSpaceOnUse" x1="1745.8225" y1="342.297" x2="1767.6825" y2="342.297" gradientTransform="matrix(0.99 5.000000e-02 6.000000e-02 -1.01 -35.1074 1737.1887)">
			<stop  offset="0" style="stop-color:#004DAA"/>
			<stop  offset="1" style="stop-color:#0029E9"/>
		</linearGradient>
		<polygon class="st50" points="1735.7,1443.4 1733.1,1483.4 1709.4,1515 1711.9,1475 		"/>
		
			<linearGradient id="SVGID_50_" gradientUnits="userSpaceOnUse" x1="1626.1925" y1="386.3142" x2="1661.6525" y2="386.3142" gradientTransform="matrix(0.99 5.000000e-02 6.000000e-02 -1.01 -35.1074 1737.1887)">
			<stop  offset="0" style="stop-color:#002255"/>
			<stop  offset="1" style="stop-color:#003A7F"/>
		</linearGradient>
		<path class="st51" d="M1631.6,1422l-23,30.6c-4.8-2.5-9.4-5.2-13.7-8l2.5-40C1608.2,1411.5,1619.6,1417.3,1631.6,1422z"/>
		
			<linearGradient id="SVGID_51_" gradientUnits="userSpaceOnUse" x1="1639.7825" y1="334.1205" x2="1745.8225" y2="334.1205" gradientTransform="matrix(0.99 5.000000e-02 6.000000e-02 -1.01 -35.1074 1737.1887)">
			<stop  offset="0" style="stop-color:#6AAEFF"/>
			<stop  offset="1" style="stop-color:#005EFF"/>
		</linearGradient>
		<polygon class="st52" points="1711.9,1475 1709.4,1515 1605.3,1493.6 1607.8,1453.5 1612.2,1454.4 1616.1,1455.2 		"/>
		
			<linearGradient id="SVGID_52_" gradientUnits="userSpaceOnUse" x1="1568.1825" y1="381.7052" x2="1626.1925" y2="381.7052" gradientTransform="matrix(0.99 5.000000e-02 6.000000e-02 -1.01 -35.1074 1737.1887)">
			<stop  offset="0" style="stop-color:#004DAA"/>
			<stop  offset="1" style="stop-color:#0029E9"/>
		</linearGradient>
		<polygon class="st53" points="1597.4,1404.6 1594.9,1444.6 1536.3,1458.3 1538.8,1418.2 		"/>
		
			<linearGradient id="SVGID_53_" gradientUnits="userSpaceOnUse" x1="1520.3925" y1="399.2391" x2="1568.2015" y2="399.2391" gradientTransform="matrix(0.99 5.000000e-02 6.000000e-02 -1.01 -35.1074 1737.1887)">
			<stop  offset="0" style="stop-color:#6AAEFF"/>
			<stop  offset="1" style="stop-color:#005EFF"/>
		</linearGradient>
		<polygon class="st54" points="1538.8,1418.2 1536.3,1458.3 1492.2,1403.9 1494.7,1363.9 1521.6,1397 		"/>
		
			<linearGradient id="SVGID_54_" gradientUnits="userSpaceOnUse" x1="1516.0525" y1="473.3409" x2="1577.9425" y2="473.3409" gradientTransform="matrix(0.99 5.000000e-02 6.000000e-02 -1.01 -35.1074 1737.1887)">
			<stop  offset="0" style="stop-color:#004DAA"/>
			<stop  offset="1" style="stop-color:#0029E9"/>
		</linearGradient>
		<path class="st55" d="M1552.8,1350.3l-34.5,8l-27.2-5.6l2.5-40l23.9,4.9l34.4,7.1C1550.3,1333.2,1550.6,1342,1552.8,1350.3z"/>
		
			<linearGradient id="SVGID_55_" gradientUnits="userSpaceOnUse" x1="1619.9724" y1="535.0584" x2="2048.9832" y2="535.0584" gradientTransform="matrix(0.99 5.000000e-02 6.000000e-02 -1.01 -35.1074 1737.1887)">
			<stop  offset="0" style="stop-color:#D4E3FF"/>
			<stop  offset="1" style="stop-color:#E9EFFF"/>
		</linearGradient>
		<path class="st56" d="M2020.6,1357.2l-25.2,33.5c-116.6-111.1-256.7-141.8-371.3-144.1l-21.4-26.4l103.1-24.1l24.1,29.8
			c6.3-0.5,12.6-0.8,19-1c8.7-0.3,17.4-0.2,26.2,0.1c1.5,0.1,3,0.1,4.4,0.2l6.4-8.5l0.5-0.6l2.2-2.9l13.7-18.2l20.9,4.3l83.1,17.1
			l-22.8,30.3c6.9,2.8,13.7,5.9,20.3,9.3c5.2,2.7,10.2,5.6,15.1,8.8l56.4-13.2l44.1,54.4l-29.4,6.8l-27.5,6.4
			c2.1,8.5,2.2,17.4,0.3,26l30.4,6.3L2020.6,1357.2z"/>
		<path class="st16" d="M1950.5,876.3v0.4c0,0.6,0,1.3-0.1,1.9v0.2c-0.2,3.6-0.8,7.1-1.9,10.5c-0.8,2.5-1.9,5-3.2,7.3
			c-1.8,3.2-4,6.2-6.7,8.7c-1.9,2-4.1,3.7-6.4,5.2c-0.6,0.4-1.2,0.8-1.9,1.2l-19.5,11.3l-636.7,367.6c-32.7,18.9-73.1,18.9-105.8,0
			L542.3,929.3l-30.7-17.7c-2.9-1.7-5.6-3.7-8-6.1l0,0c-4.5-4.4-7.9-9.8-9.9-15.8c-1.2-3.6-1.8-7.3-2-11v-2.5
			c0.2-14,7.7-26.9,19.9-33.9l659.7-380.9c31.1-17.9,69.3-17.9,100.4,0l658.7,380.6C1942.8,848.9,1950.5,862.1,1950.5,876.3z"/>
		<g>
			
				<linearGradient id="SVGID_56_" gradientUnits="userSpaceOnUse" x1="491.71" y1="1090.5785" x2="1950.54" y2="1090.5785" gradientTransform="matrix(1 0 0 -1 0 1762.844)">
				<stop  offset="0" style="stop-color:#E9F2FF"/>
				<stop  offset="0.32" style="stop-color:#D6E9FF"/>
				<stop  offset="0.71" style="stop-color:#C5E1FF"/>
				<stop  offset="1" style="stop-color:#BFDEFF"/>
			</linearGradient>
			<path class="st57" d="M1950.5,876.3v0.4c0,0.6,0,1.3-0.1,1.9v0.2c-0.2,3.6-0.8,7.1-1.9,10.5c-0.8,2.5-1.9,5-3.2,7.3
				c-530-43.7-1276.2-25.6-1453.6-20.6c0.2-14,7.7-26.9,19.9-33.9l659.7-380.9c31.1-17.9,69.3-17.9,100.4,0l658.7,380.6
				C1942.8,848.9,1950.5,862.1,1950.5,876.3z"/>
		</g>
		<path class="st58" d="M1374.6,865.9c0,5.7-0.8,11.4-2.4,16.9c-0.5,1.9-1.2,3.8-1.9,5.7c-17,42.6-80.8,74.3-156.7,74.3
			c-70.4,0-130.2-27.1-152.2-65c-1.7-3-3.3-6.1-4.5-9.3c-0.8-1.9-1.4-3.8-2-5.7c-1.6-5.5-2.4-11.2-2.5-16.9
			c0-53.5,72.2-96.9,161.1-96.9c13,0,25.9,0.9,38.8,2.8C1322.5,782.3,1374.6,820.4,1374.6,865.9z"/>
		
			<linearGradient id="SVGID_57_" gradientUnits="userSpaceOnUse" x1="491.71" y1="658.3998" x2="1950.541" y2="658.3998" gradientTransform="matrix(1 0 0 -1 0 1762.844)">
			<stop  offset="0" style="stop-color:#6AAEFF"/>
			<stop  offset="1" style="stop-color:#005EFF"/>
		</linearGradient>
		<path class="st59" d="M1950.5,901.7v0.4c0.1,10.8-4.2,21.1-11.9,28.7c-2.5,2.5-5.2,4.6-8.3,6.3l-19.5,11.3L1274.1,1316
			c-32.7,18.9-73.1,18.9-105.8,0L542.3,954.7L511.6,937c-2.9-1.7-5.6-3.8-8-6.1c-7.3-7.1-11.5-16.7-11.9-26.8v-25.4
			c0.2,3.7,0.8,7.4,2,11c2,6,5.4,11.4,9.9,15.8l0,0c2.4,2.4,5.1,4.5,8,6.1l30.7,17.7l626,361.4c32.7,18.9,73.1,18.9,105.8,0
			l636.7-367.6l19.5-11.3c0.6-0.4,1.2-0.8,1.9-1.2c7.7-5,13.4-12.5,16.3-21.2c1.1-3.4,1.8-7,1.9-10.5v20.9
			C1950.5,900.4,1950.5,901,1950.5,901.7z"/>
		
			<linearGradient id="SVGID_58_" gradientUnits="userSpaceOnUse" x1="1085.72" y1="1205.6219" x2="1343" y2="1205.6219" gradientTransform="matrix(1 0 0 -1 0 1762.844)">
			<stop  offset="0" style="stop-color:#F22AFF"/>
			<stop  offset="1" style="stop-color:#6C00E9"/>
		</linearGradient>
		<path class="st60" d="M1314.6,511.7c-0.5,5.1-1.3,10-2.1,14.9c-1.1,7.3-2.4,14.4-3.9,21.2c-3.9,19.6-9.4,38.9-16.5,57.7
			c-2.6,6.7-5.3,13.2-8.2,19.2c-19.9,42-45.7,65.9-70.6,65.9c-24.9,0-50.7-23.9-70.5-65.9c-7.3,3.1-14.4,5.9-21.4,8.4
			c23.3,48.6,55.6,78.2,92,78.2c36.4,0,68.7-29.7,92-78.3c3-6.1,5.7-12.4,8.3-19c8.2-20.6,14.8-44,19.8-69.3
			c1.3-6.9,2.5-14.1,3.6-21.4c1.8-11.9,3.2-24.1,4.1-36.7C1332.8,494.9,1323.9,503.3,1314.6,511.7z M1342.8,428.8
			c-7.8-8.5-16.1-17-25-25.5c0.8,12.1,1.2,24.6,1.2,37.5s-0.4,25.3-1.2,37.4c8.9-8.5,17.3-17,25-25.5c0.1-4,0.2-7.9,0.2-11.9
			S1342.9,432.7,1342.8,428.8L1342.8,428.8z M1118.2,547.8c-1.4-6.8-2.8-13.9-3.8-21.2c-0.8-4.9-1.6-9.9-2.1-15
			c-9.2-8.3-18.1-16.7-26.5-25c0.9,12.6,2.3,24.8,4.1,36.6c1,7.3,2.2,14.5,3.6,21.4c4.5,23.7,11.1,46.9,19.7,69.4
			c7-2.5,14.1-5.4,21.5-8.6C1127.6,586.7,1122.1,567.4,1118.2,547.8L1118.2,547.8z"/>
		
			<linearGradient id="SVGID_59_" gradientUnits="userSpaceOnUse" x1="1083.8298" y1="1438.642" x2="1341.1699" y2="1438.642" gradientTransform="matrix(1 0 0 -1 0 1762.844)">
			<stop  offset="0" style="stop-color:#F22AFF"/>
			<stop  offset="1" style="stop-color:#6C00E9"/>
		</linearGradient>
		<path class="st61" d="M1341.2,394.8c-8.4-8.4-17.2-16.8-26.6-25.1c-0.6-5-1.3-10-2.1-14.9c-1.1-7.3-2.4-14.3-3.9-21.2
			c-3.9-19.6-9.4-38.9-16.5-57.6c-2.6-6.8-5.3-13.2-8.2-19.2c-19.9-41.9-45.7-65.9-70.6-65.9c-24.9,0-50.7,24-70.5,65.9
			c-2.9,6-5.6,12.4-8.2,19.2c-7,18.7-12.5,38-16.5,57.6c-1.5,6.9-2.8,14-3.8,21.2c-0.8,4.9-1.5,9.9-2.1,14.9
			c-1.5,10.8-2.5,21.9-3.2,33.4c-0.8,12.1-1.2,24.7-1.2,37.5s0.4,25.4,1.2,37.5c-8.8-8.6-17.2-17.1-25-25.5c-0.1-4-0.1-7.9-0.1-12
			s0.1-8.1,0.1-12c0.2-11.5,0.8-22.9,1.7-33.9c0.9-12.6,2.3-24.8,4.1-36.6c1-7.3,2.2-14.4,3.6-21.4c4.5-23.7,11.1-46.9,19.8-69.3
			c2.7-6.6,5.4-13,8.3-19c23.4-48.6,55.6-78.2,92-78.2c36.4,0,68.7,29.7,92,78.3c3,6.1,5.7,12.4,8.3,19
			c8.7,22.5,15.3,45.7,19.8,69.4c1.4,6.9,2.5,14.1,3.6,21.4C1338.9,370.1,1340.2,382.3,1341.2,394.8z"/>
		
			<linearGradient id="SVGID_60_" gradientUnits="userSpaceOnUse" x1="1058.63" y1="1414.092" x2="1292.1799" y2="1414.092" gradientTransform="matrix(1 0 0 -1 0 1762.844)">
			<stop  offset="0" style="stop-color:#FFAAAC"/>
			<stop  offset="1" style="stop-color:#FF0007"/>
		</linearGradient>
		<path class="st62" d="M1058.6,423.3c4.6,5.7,9.5,11.5,14.6,17.4c3.4-4,7.1-8,10.8-12c0.2-11.5,0.8-22.9,1.7-33.9
			C1076.1,404.3,1067,413.9,1058.6,423.3z M1193.3,306.6c-10.9,7.3-21.9,15.2-32.9,23.5c-9.6,7.3-19.2,14.9-28.8,22.9
			c-3.2,2.7-6.5,5.5-9.8,8.3s-6.5,5.7-9.6,8.5c-1.4,10.8-2.5,21.9-3.2,33.4c9.3-9,19.2-18.1,29.7-27.2c10.5-9.1,21.1-17.7,31.4-25.8
			c9.9-7.7,19.7-14.9,29.4-21.6c4.7-3.2,9.3-6.4,13.9-9.4C1206.6,314.8,1200,310.5,1193.3,306.6z M1284,256.8
			c-24.4,10.5-48,22.8-70.5,36.9c6.6,4.1,13.3,8.4,20,12.9c18.9-11.5,38.5-21.7,58.7-30.6C1289.6,269.2,1286.8,262.8,1284,256.8z"/>
		
			<linearGradient id="SVGID_61_" gradientUnits="userSpaceOnUse" x1="973.7212" y1="1322.1777" x2="1453.0988" y2="1322.1777" gradientTransform="matrix(1 0 0 -1 0 1762.844)">
			<stop  offset="0" style="stop-color:#FFAAAC"/>
			<stop  offset="1" style="stop-color:#FF0007"/>
		</linearGradient>
		<path class="st63" d="M1435.4,361.1c-2.8,6.1-6,12.2-9.7,18.5c-11,19.6-25.3,40.2-42.6,61.2c-4.7,5.8-9.7,11.6-14.8,17.4
			c-8.5,9.5-17.5,19-27.1,28.4c-8.4,8.4-17.2,16.8-26.6,25.1c-3.1,2.8-6.3,5.6-9.5,8.4c-3.2,2.8-6.6,5.6-9.8,8.3
			c-9.6,8-19.2,15.6-28.9,22.9c-11,8.3-22,16.2-33,23.5c-6.7,4.5-13.4,8.8-20.1,12.9c-15.6,9.7-31.7,18.6-48.2,26.7
			c-7.6,3.7-15,7.1-22.3,10.2s-14.4,5.9-21.5,8.4c-28.1,10-54,15.3-75.9,15.3c-21.9,0-40.1-5.2-52.9-16.3
			c-25.6-22.2-24.3-63-1.1-111.7c2.8-6,6.1-12.2,9.7-18.5c11-19.6,25.3-40.1,42.6-61.1c4.7,5.8,9.7,11.6,14.9,17.4
			c-13.1,16-24.9,33-35.3,50.8c-3.7,6.4-7,12.6-9.8,18.6c-20.2,41.9-21.5,74.5-3.9,89.8c17.6,15.3,55.3,14.1,103.6-3.3
			c7-2.5,14.1-5.4,21.5-8.6c20.2-8.9,39.8-19.1,58.7-30.6c6.6-4,13.4-8.2,20.1-12.6c4.6-3,9.2-6.1,13.9-9.4
			c9.7-6.7,19.5-14,29.4-21.6c10.4-8.1,20.9-16.7,31.4-25.8c10.5-9.1,20.4-18.2,29.7-27.2c8.9-8.5,17.3-17,25-25.5
			c3.7-4,7.3-8,10.8-11.9c5.2-5.9,10.1-11.7,14.7-17.5c13-16,24.8-33,35.3-50.8c3.7-6.4,7-12.6,9.9-18.6
			c10.8-22.4,16.2-42.1,16.2-58c0-13.8-4.1-24.7-12.3-31.8c-8.2-7.1-20.8-10.6-36.7-10.6c-18.3,0-41.1,4.7-66.9,14
			c-2.6-6.5-5.3-12.9-8.3-19c56.1-20.2,103.2-21.3,128.8,0.9C1459.9,271.6,1458.6,312.4,1435.4,361.1z"/>
		
			<linearGradient id="SVGID_62_" gradientUnits="userSpaceOnUse" x1="973.69" y1="1322.1121" x2="1453.1001" y2="1322.1121" gradientTransform="matrix(1 0 0 -1 0 1762.844)">
			<stop  offset="0" style="stop-color:#6AAEFF"/>
			<stop  offset="1" style="stop-color:#005EFF"/>
		</linearGradient>
		<path class="st64" d="M992.6,249.4c-12.8,11.1-18.9,26.8-18.9,45.8s6.1,41.5,17.8,65.8c2.8,6,6.1,12.2,9.7,18.5
			c6.9-2.5,14.3-4.8,22.1-7.1c-3.7-6.4-7-12.6-9.8-18.6c-20.2-41.8-21.5-74.5-3.9-89.8s55.3-14.1,103.6,3.4c2.7-6.6,5.4-13,8.3-19
			C1065.3,228.3,1018.3,227.2,992.6,249.4z M1435.4,520.4c-2.8-6-6-12.2-9.7-18.5c-11-19.6-25.3-40.1-42.6-61.1
			c-4.7,5.8-9.7,11.6-14.8,17.4c13,16,24.8,33,35.3,50.8c3.7,6.4,7,12.6,9.9,18.6c20.1,41.8,21.5,74.5,3.9,89.8
			c-17.6,15.3-55.4,14.1-103.6-3.4c-6.9-2.5-14.1-5.4-21.5-8.5c-20.2-8.9-39.8-19.1-58.7-30.6c-6.7,4.5-13.4,8.8-20.1,12.9
			c22.6,14,46.2,26.4,70.6,36.9c7.2,3.1,14.4,5.9,21.4,8.3c28.1,10.1,54,15.4,75.9,15.4c21.9,0,40.1-5.2,52.9-16.3
			C1459.9,609.8,1458.6,569,1435.4,520.4L1435.4,520.4z"/>
		
			<linearGradient id="SVGID_63_" gradientUnits="userSpaceOnUse" x1="1134.7" y1="1414.1219" x2="1368.27" y2="1414.1219" gradientTransform="matrix(1 0 0 -1 0 1762.844)">
			<stop  offset="0" style="stop-color:#6AAEFF"/>
			<stop  offset="1" style="stop-color:#005EFF"/>
		</linearGradient>
		<path class="st65" d="M1368.3,423.3c-4.6,5.8-9.5,11.6-14.7,17.5c-3.4-4-7-7.9-10.8-12c-7.8-8.5-16.1-17-25-25.5
			c-9.2-9.1-19.1-18.1-29.7-27.2s-21.1-17.7-31.5-25.8c-9.8-7.7-19.6-14.9-29.4-21.6c-4.6-3.2-9.2-6.4-13.8-9.4
			c-6.8-4.4-13.4-8.7-20.1-12.6c-18.8-11.5-38.5-21.7-58.7-30.6c2.6-6.8,5.3-13.2,8.2-19.2c24.4,10.5,48,22.9,70.6,36.9
			c6.6,4.1,13.3,8.4,20,12.9c10.9,7.3,22,15.1,33,23.5c9.6,7.3,19.2,14.9,28.8,22.9c3.2,2.7,6.5,5.5,9.8,8.3s6.4,5.6,9.5,8.4
			c9.3,8.3,18.2,16.7,26.6,25.1C1350.8,404.3,1359.8,413.8,1368.3,423.3z"/>
		
			<linearGradient id="SVGID_64_" gradientUnits="userSpaceOnUse" x1="1001.1699" y1="1289.217" x2="1213.4099" y2="1289.217" gradientTransform="matrix(1 0 0 -1 0 1762.844)">
			<stop  offset="0" style="stop-color:#6AAEFF"/>
			<stop  offset="1" style="stop-color:#005EFF"/>
		</linearGradient>
		<path class="st66" d="M1213.4,562.2c-6.7,4.4-13.4,8.7-20.1,12.6c-10.9-7.3-21.9-15.2-32.9-23.5c-9.6-7.3-19.2-14.9-28.8-22.9
			c-3.2-2.7-6.5-5.5-9.8-8.3c-3.3-2.8-6.5-5.6-9.6-8.5c-9.2-8.3-18.1-16.7-26.5-25c-9.6-9.5-18.6-19-27.1-28.5
			c-5.2-5.8-10.1-11.6-14.9-17.4c-17.2-21-31.5-41.5-42.6-61.2c6.9-2.5,14.3-4.8,22.1-7.1c10.5,17.8,22.3,34.9,35.3,50.9
			c4.6,5.7,9.5,11.5,14.6,17.4c3.5,4,7.1,7.9,10.8,12c7.7,8.4,16.1,16.9,25,25.5c9.3,9,19.2,18.1,29.7,27.2
			c10.5,9.1,21.1,17.7,31.5,25.8c9.8,7.7,19.6,14.9,29.4,21.6C1204.2,556,1208.8,559.1,1213.4,562.2z"/>
		
			<linearGradient id="SVGID_65_" gradientUnits="userSpaceOnUse" x1="1031.9199" y1="1051.6321" x2="1085.3401" y2="1051.6321" gradientTransform="matrix(1 0 0 -1 0 1762.844)">
			<stop  offset="0" style="stop-color:#6AAEFF"/>
			<stop  offset="1" style="stop-color:#005EFF"/>
		</linearGradient>
		<circle class="st67" cx="1058.6" cy="711.2" r="26.7"/>
		
			<linearGradient id="SVGID_66_" gradientUnits="userSpaceOnUse" x1="1341.5601" y1="1592.712" x2="1394.98" y2="1592.712" gradientTransform="matrix(1 0 0 -1 0 1762.844)">
			<stop  offset="0" style="stop-color:#F22AFF"/>
			<stop  offset="1" style="stop-color:#6C00E9"/>
		</linearGradient>
		<circle class="st68" cx="1368.3" cy="170.1" r="26.7"/>
		
			<linearGradient id="SVGID_67_" gradientUnits="userSpaceOnUse" x1="550.37" y1="539.597" x2="684.7" y2="539.597" gradientTransform="matrix(1 0 0 -1 0 1762.844)">
			<stop  offset="0" style="stop-color:#E9EFFF"/>
			<stop  offset="1" style="stop-color:#D4E3FF"/>
		</linearGradient>
		<polygon class="st69" points="553.3,1439.2 550.4,1434 624.9,1391.1 624.9,1040.1 681.7,1007.3 684.7,1012.5 630.9,1043.6 
			630.9,1394.5 		"/>
		
			<linearGradient id="SVGID_68_" gradientUnits="userSpaceOnUse" x1="572.58" y1="527.232" x2="705.3099" y2="527.232" gradientTransform="matrix(1 0 0 -1 0 1762.844)">
			<stop  offset="0" style="stop-color:#E9EFFF"/>
			<stop  offset="1" style="stop-color:#D4E3FF"/>
		</linearGradient>
		<polygon class="st70" points="575.6,1452 572.6,1446.9 645.6,1403 645.6,1052.1 702.3,1019.2 705.3,1024.4 651.6,1055.5 
			651.6,1406.4 		"/>
		<path class="st71" d="M1372.2,882.8c-0.5,1.9-1.2,3.8-1.9,5.7c-17,42.6-80.8,74.3-156.7,74.3c-70.4,0-130.2-27.1-152.2-65
			c-1.7-3-3.3-6.1-4.5-9.3c-0.8-1.9-1.4-3.8-2-5.7c13.3-45.4,79.3-79.9,158.7-79.9c13,0,25.9,0.9,38.8,2.8
			C1313.6,814.8,1361.1,845,1372.2,882.8z"/>
		<g>
			
				<linearGradient id="SVGID_69_" gradientUnits="userSpaceOnUse" x1="206.0469" y1="906.232" x2="206.1369" y2="670.542" gradientTransform="matrix(-1 0 0 -1 1208.0599 1762.844)">
				<stop  offset="0" style="stop-color:#E9EFFF"/>
				<stop  offset="9.000000e-02" style="stop-color:#DFEAFF"/>
				<stop  offset="0.49" style="stop-color:#B7D2FF"/>
				<stop  offset="0.81" style="stop-color:#9DC4FF"/>
				<stop  offset="1" style="stop-color:#94BFFF"/>
			</linearGradient>
			<polygon class="st72" points="1020.1,833.8 983.9,813 983.9,1104.9 1020,1125.7 			"/>
		</g>
		<g>
			
				<linearGradient id="SVGID_70_" gradientUnits="userSpaceOnUse" x1="278.804" y1="1000.852" x2="277.6341" y2="694.032" gradientTransform="matrix(-1 0 0 -1 1208.0599 1762.844)">
				<stop  offset="0" style="stop-color:#E9EFFF"/>
				<stop  offset="9.000000e-02" style="stop-color:#DFEAFF"/>
				<stop  offset="0.49" style="stop-color:#B7D2FF"/>
				<stop  offset="0.81" style="stop-color:#9DC4FF"/>
				<stop  offset="1" style="stop-color:#94BFFF"/>
			</linearGradient>
			<polygon class="st73" points="947.8,706.8 911.7,686.6 911.6,1063.2 947.8,1084.1 			"/>
		</g>
		<g>
			
				<linearGradient id="SVGID_71_" gradientUnits="userSpaceOnUse" x1="348.4165" y1="869.6119" x2="354.0265" y2="727.7219" gradientTransform="matrix(-1 0 0 -1 1208.0599 1762.844)">
				<stop  offset="0" style="stop-color:#E9EFFF"/>
				<stop  offset="9.000000e-02" style="stop-color:#DFEAFF"/>
				<stop  offset="0.49" style="stop-color:#B7D2FF"/>
				<stop  offset="0.81" style="stop-color:#9DC4FF"/>
				<stop  offset="1" style="stop-color:#94BFFF"/>
			</linearGradient>
			<polygon class="st74" points="875.5,875.5 839.4,854.6 839.4,1021.5 875.5,1042.3 			"/>
		</g>
		<g>
			
				<linearGradient id="SVGID_72_" gradientUnits="userSpaceOnUse" x1="421.729" y1="852.4919" x2="424.6989" y2="777.702" gradientTransform="matrix(-1 0 0 -1 1208.0599 1762.844)">
				<stop  offset="0" style="stop-color:#E9EFFF"/>
				<stop  offset="9.000000e-02" style="stop-color:#DFEAFF"/>
				<stop  offset="0.49" style="stop-color:#B7D2FF"/>
				<stop  offset="0.81" style="stop-color:#9DC4FF"/>
				<stop  offset="1" style="stop-color:#94BFFF"/>
			</linearGradient>
			<polygon class="st75" points="803.3,896.3 767.2,875.5 767.1,979.8 803.3,1000.7 			"/>
		</g>
		
			<linearGradient id="SVGID_73_" gradientUnits="userSpaceOnUse" x1="1214.3898" y1="602.577" x2="1389.7902" y2="602.577" gradientTransform="matrix(1 0 0 -1 0 1762.844)">
			<stop  offset="0" style="stop-color:#6AAEFF"/>
			<stop  offset="1" style="stop-color:#005EFF"/>
		</linearGradient>
		<path class="st76" d="M1389.8,1121.6v24.6c0,1.6-0.1,3.2-0.4,4.7c-4,26.9-41.6,48-87.3,48c-45.8,0-83.4-21.1-87.3-48
			c-0.3-1.6-0.4-3.1-0.4-4.7v-24.6c0,1.1,0.1,2.1,0.2,3.2c0.1,1,0.2,2.1,0.4,3.1c0.1,0.5,0.2,1,0.3,1.5c0.2,1,0.5,2,0.9,3l0,0
			c0.2,0.5,0.4,1,0.6,1.5c0.3,0.7,0.6,1.5,1,2.2c0.4,0.7,0.7,1.4,1.1,2.1c0.1,0.2,0.2,0.3,0.3,0.5c0.2,0.4,0.5,0.8,0.7,1.2
			s0.5,0.8,0.8,1.2c0.6,0.9,1.2,1.7,1.8,2.6c1.8,2.4,3.9,4.6,6.1,6.6c0.5,0.5,1,1,1.6,1.4c0.6,0.4,1.2,1,1.8,1.5
			c0.4,0.3,0.8,0.6,1.2,0.9l0.9,0.7c0.4,0.3,0.8,0.6,1.2,0.9c0.6,0.4,1.3,0.9,1.9,1.3l1.5,0.9c0.6,0.3,1.1,0.7,1.7,1c0,0,0,0,0.1,0
			c0.6,0.4,1.3,0.8,2,1.1c0.7,0.4,1.5,0.8,2.2,1.2s1.4,0.7,2.1,1.1c0.4,0.2,0.8,0.4,1.1,0.5c0.9,0.4,1.8,0.8,2.7,1.2
			c1.8,0.8,3.7,1.6,5.6,2.3c1.9,0.7,3.8,1.3,5.8,1.9c0.8,0.3,1.6,0.5,2.5,0.7c1.3,0.4,2.7,0.8,4,1.1c0.9,0.2,1.9,0.4,2.8,0.7
			c0.9,0.2,1.6,0.4,2.5,0.5l1.7,0.3c0.3,0.1,0.7,0.1,1,0.2c0.8,0.2,1.7,0.3,2.6,0.4c0.3,0.1,0.6,0.1,0.9,0.1
			c0.7,0.1,1.4,0.2,2.1,0.3s1.3,0.2,1.9,0.3c0.3,0.1,0.7,0.1,1,0.1c0.9,0.1,1.8,0.2,2.7,0.3c1.4,0.2,2.9,0.3,4.3,0.3
			c0.9,0.1,1.9,0.1,2.8,0.2c0.9,0,2.2,0.1,3.3,0.1c1.3,0,2.5,0.1,3.8,0.1h0.1c1.3,0,2.6,0,3.8-0.1c1.1,0,2.2-0.1,3.3-0.1
			c0.8,0,1.6-0.1,2.4-0.1c1.6-0.1,3.3-0.2,4.9-0.4c0.7-0.1,1.4-0.1,2.1-0.2c0.5-0.1,1.1-0.1,1.6-0.2c0.5-0.1,1.1-0.1,1.6-0.2
			c0.9-0.1,1.7-0.2,2.6-0.4c0.1,0,0.2,0,0.2,0c1.1-0.2,2.1-0.3,3.1-0.5l0.8-0.1l1.9-0.4c0.8-0.2,1.5-0.3,2.2-0.5
			c0.9-0.2,1.8-0.4,2.8-0.7c0.6-0.1,1.2-0.3,1.8-0.5c0.8-0.2,1.5-0.4,2.2-0.6c0.9-0.3,1.8-0.5,2.7-0.8c2-0.6,3.9-1.3,5.8-1.9
			c1.9-0.7,3.8-1.5,5.6-2.3c0.9-0.4,1.8-0.8,2.7-1.2c0.5-0.2,1-0.5,1.5-0.7s1.2-0.6,1.8-0.9c0.6-0.3,1.4-0.7,2-1.1l1.9-1.1
			c0.2-0.1,0.4-0.3,0.7-0.4c0.5-0.3,1-0.6,1.5-0.9c0.7-0.5,1.4-0.9,2.1-1.4c0.5-0.3,1-0.7,1.4-1c0.7-0.5,1.3-0.9,1.9-1.4
			c0.4-0.3,0.8-0.6,1.2-0.9c0.6-0.4,1.2-0.9,1.7-1.4c0.6-0.5,1.4-1.2,2-1.8c0.6-0.6,1.3-1.2,1.9-1.8c0.6-0.6,1.2-1.3,1.8-1.9
			c1.8-2,3.4-4.1,4.8-6.4c0.2-0.4,0.5-0.8,0.7-1.2c0.1-0.2,0.2-0.3,0.3-0.5c0.4-0.7,0.8-1.4,1.1-2.1c0.3-0.7,0.7-1.4,1-2.2
			c0.2-0.5,0.4-1,0.6-1.5c0.2-0.5,0.3-1,0.5-1.5c0.2-0.5,0.3-0.9,0.4-1.4l0,0c0.1-0.5,0.3-1.1,0.3-1.6
			C1389.6,1125.8,1389.8,1123.7,1389.8,1121.6z"/>
		<path class="st16" d="M1388.8,1129.4c-0.1,0.5-0.3,1-0.4,1.5c-0.1,0.5-0.3,1-0.5,1.5s-0.4,1-0.6,1.5c-0.3,0.7-0.6,1.4-0.9,2.2
			c-0.3,0.7-0.7,1.4-1.1,2.1c-0.4,0.7-0.6,1.1-1,1.7c-1.4,2.3-3,4.4-4.8,6.4c-0.6,0.7-1.2,1.3-1.8,1.9c-0.6,0.6-1.2,1.2-1.9,1.8
			c-0.7,0.6-1.3,1.2-2,1.8c-0.7,0.6-1.1,1-1.7,1.4c-0.4,0.3-0.8,0.6-1.2,0.9c-0.6,0.5-1.3,1-1.9,1.4l-1.4,1
			c-0.7,0.5-1.4,0.9-2.1,1.4c-0.5,0.3-1,0.6-1.5,0.9c-0.2,0.1-0.4,0.3-0.7,0.4l-1.8,1.1c-0.7,0.4-1.3,0.7-2,1.1
			c-0.7,0.4-1.2,0.6-1.8,0.9c-0.6,0.3-1,0.5-1.5,0.7c-0.9,0.4-1.8,0.8-2.7,1.2c-1.8,0.8-3.7,1.6-5.6,2.3c-1.9,0.7-3.8,1.4-5.8,1.9
			c-0.9,0.3-1.8,0.5-2.7,0.8c-0.8,0.2-1.5,0.4-2.2,0.6c-0.6,0.2-1.2,0.3-1.8,0.5c-0.9,0.2-1.9,0.5-2.8,0.7c-0.8,0.2-1.5,0.3-2.2,0.5
			s-1.3,0.3-1.9,0.4l-0.8,0.1c-1,0.2-2.1,0.4-3.1,0.5c-0.1,0-0.2,0-0.2,0c-0.8,0.1-1.7,0.3-2.6,0.4c-0.5,0.1-1.1,0.2-1.6,0.2
			s-1,0.1-1.6,0.2c-0.7,0.1-1.4,0.2-2.1,0.2c-1.6,0.2-3.3,0.3-4.9,0.4c-0.8,0.1-1.6,0.1-2.4,0.1c-1.1,0.1-2.2,0.1-3.3,0.1
			c-1.3,0-2.6,0.1-3.8,0.1h-0.1c-1.3,0-2.6,0-3.8-0.1c-1.1,0-2.2-0.1-3.3-0.1c-1.1-0.1-1.9-0.1-2.8-0.2c-1.5-0.1-2.9-0.2-4.3-0.3
			c-0.9-0.1-1.8-0.2-2.7-0.3c-0.3,0-0.7-0.1-1-0.1c-0.6-0.1-1.3-0.2-1.9-0.3c-0.7-0.1-1.4-0.2-2.1-0.3c-0.3,0-0.6-0.1-0.9-0.1
			c-0.9-0.1-1.7-0.3-2.6-0.4c-0.3,0-0.7-0.1-1-0.2c-0.6-0.1-1.2-0.2-1.7-0.3c-0.8-0.2-1.7-0.3-2.5-0.5c-0.8-0.2-1.9-0.4-2.8-0.7
			c-1.4-0.3-2.7-0.7-4-1.1c-0.8-0.2-1.6-0.5-2.5-0.7c-2-0.6-3.9-1.3-5.8-1.9c-1.9-0.7-3.8-1.5-5.6-2.3c-0.9-0.4-1.8-0.8-2.7-1.2
			c-0.4-0.2-0.8-0.4-1.1-0.6c-0.7-0.3-1.4-0.7-2.1-1.1c-0.7-0.4-1.5-0.8-2.2-1.2s-1.3-0.8-2-1.1c0,0,0,0-0.1,0
			c-0.6-0.3-1.2-0.7-1.7-1c-0.5-0.3-1-0.6-1.5-0.9c-0.6-0.4-1.3-0.9-1.9-1.3c-0.4-0.3-0.8-0.6-1.2-0.9l-0.9-0.7
			c-0.4-0.3-0.8-0.6-1.2-0.9c-0.6-0.5-1.2-1-1.8-1.5c-0.6-0.5-1.1-0.9-1.6-1.4c-2.2-2-4.3-4.2-6.1-6.6c-0.7-0.8-1.3-1.7-1.8-2.6
			c-0.3-0.4-0.6-0.8-0.8-1.2c-0.3-0.4-0.7-1.1-1-1.7c-0.3-0.6-0.8-1.4-1.1-2.1s-0.7-1.4-0.9-2.2c-0.2-0.5-0.4-1-0.6-1.5l0,0
			c-0.3-1-0.7-2-0.9-3c-0.1-0.5-0.2-1-0.3-1.5c-0.2-1-0.3-2.1-0.4-3.1c-0.1-1-0.2-2.1-0.2-3.2l0,0c0-28.8,38.6-52.3,86.4-52.7
			l-9.2,25.7c3.7-0.6,7.5-0.8,11.3-0.8c25.5,0,46.3,12.5,46.3,27.8c0,2.2-0.4,4.4-1.3,6.5c-0.2,0.4-0.4,0.9-0.6,1.3L1388.8,1129.4z"
			/>
		
			<linearGradient id="SVGID_74_" gradientUnits="userSpaceOnUse" x1="1256.5898" y1="641.232" x2="1349.1099" y2="641.232" gradientTransform="matrix(1 0 0 -1 0 1762.844)">
			<stop  offset="0" style="stop-color:#E9EFFF"/>
			<stop  offset="1" style="stop-color:#94BFFF"/>
		</linearGradient>
		<path class="st77" d="M1349.1,1121.6c0,2.2-0.4,4.4-1.3,6.5c-0.2,0.4-0.4,0.9-0.6,1.3c-5.6,11.6-23.4,20-44.4,20
			c-21.8,0-40.1-9.1-45-21.3c-0.8-2.1-1.3-4.3-1.3-6.5c0-13,14.9-24,35-27c3.7-0.6,7.5-0.8,11.3-0.8
			C1328.4,1093.8,1349.1,1106.2,1349.1,1121.6z"/>
		
			<linearGradient id="SVGID_75_" gradientUnits="userSpaceOnUse" x1="1437.23" y1="731.927" x2="1612.61" y2="731.927" gradientTransform="matrix(1 0 0 -1 0 1762.844)">
			<stop  offset="0" style="stop-color:#6AAEFF"/>
			<stop  offset="1" style="stop-color:#005EFF"/>
		</linearGradient>
		<path class="st78" d="M1612.6,992.2v24.6c0,1.6-0.1,3.2-0.3,4.7c-4,26.9-41.6,48-87.4,48s-83.4-21.1-87.3-48
			c-0.2-1.6-0.4-3.1-0.4-4.7v-24.6c0,1.6,0.1,3.2,0.3,4.7c0,0.1,0,0.2,0,0.3c0.2,1.5,0.6,2.9,1,4.3l0,0c0.3,1,0.6,2,1,3l0,0
			c0,0.1,0.1,0.2,0.1,0.2c0.3,0.7,0.5,1.3,0.9,1.9c0.3,0.6,0.7,1.4,1.1,2.1c0.1,0.2,0.2,0.3,0.3,0.5c0.2,0.4,0.5,0.8,0.7,1.2
			c2.4,3.9,5.4,7.4,8.8,10.5c0.5,0.5,1,0.9,1.5,1.4c0.1,0.1,0.2,0.2,0.3,0.2c0.6,0.5,1.2,1,1.9,1.5c0.1,0.1,0.2,0.1,0.2,0.2
			c0.6,0.4,1.2,0.9,1.8,1.4c1,0.7,2,1.4,3,2.1c0.5,0.3,1,0.7,1.6,1c0.6,0.3,1.3,0.8,2,1.2c0.5,0.3,1,0.6,1.6,0.9
			c0.8,0.4,1.5,0.8,2.3,1.3c0.6,0.3,1.2,0.6,1.9,0.9c0.4,0.2,0.9,0.4,1.3,0.6c0.9,0.4,1.8,0.8,2.7,1.2c1.1,0.5,2.3,1,3.5,1.4
			c1.4,0.6,2.9,1.1,4.4,1.6c3.7,1.3,7.5,2.4,11.4,3.3c0.8,0.2,1.6,0.4,2.4,0.5c0.4,0.1,0.8,0.2,1.2,0.3c0.7,0.2,1.4,0.3,2.1,0.4
			l1,0.2c0.9,0.2,1.9,0.3,2.9,0.5c0.2,0,0.3,0.1,0.5,0.1c0.8,0.1,1.6,0.3,2.4,0.3c0.6,0.1,1.2,0.2,1.8,0.2c0.4,0.1,0.8,0.1,1.3,0.2
			c0.8,0.1,1.5,0.2,2.3,0.2c1.6,0.2,3.2,0.3,4.7,0.4c0.9,0.1,1.7,0.1,2.6,0.2c1.1,0.1,2.2,0.1,3.3,0.1c1.3,0,2.6,0.1,3.9,0.1
			c1.3,0,2.6,0,3.9-0.1c1.1,0,2.2,0,3.3-0.1c0.9,0,1.7-0.1,2.6-0.2c1.6-0.1,3.1-0.2,4.6-0.4c0.8-0.1,1.6-0.2,2.3-0.3
			c0.5,0,0.9-0.1,1.4-0.2c0.5-0.1,1.1-0.1,1.7-0.2c0.8-0.1,1.5-0.2,2.3-0.3c0.2,0,0.5-0.1,0.7-0.1c1-0.1,1.9-0.3,2.9-0.5
			c1.5-0.3,2.9-0.5,4.3-0.8c0.9-0.2,1.8-0.4,2.7-0.6c0.2,0,0.3-0.1,0.5-0.1c0.7-0.2,1.4-0.3,2-0.5c1.5-0.4,3-0.8,4.5-1.3
			c1-0.3,2.1-0.7,3.1-1c3-1,6-2.1,8.8-3.4c0.9-0.4,1.8-0.8,2.7-1.2c0.4-0.2,0.9-0.4,1.3-0.6c0.6-0.3,1.2-0.6,1.8-0.9
			c0.8-0.4,1.6-0.8,2.3-1.3c0.5-0.3,1-0.6,1.6-0.9c0.7-0.4,1.3-0.8,2-1.2c0.7-0.4,1.2-0.7,1.7-1.1c0.2-0.1,0.3-0.2,0.5-0.3
			c0.6-0.4,1.2-0.8,1.8-1.2l0.5-0.3c0.7-0.5,1.3-0.9,1.9-1.4c0.1-0.1,0.1-0.1,0.2-0.2c0.6-0.5,1.2-1,1.8-1.5l0.3-0.2
			c0.7-0.5,1.3-1.1,1.9-1.7c0.6-0.6,1.3-1.2,1.9-1.8c0.6-0.6,1.2-1.3,1.8-1.9c0,0,0.1-0.1,0.1-0.1c1.1-1.2,2.1-2.5,3-3.8
			c0.5-0.7,1-1.4,1.4-2c0.4-0.5,0.7-1.1,1-1.6c0.5-0.8,0.9-1.7,1.3-2.6c0.3-0.7,0.7-1.4,0.9-2.2c0.4-1,0.8-2,1-3s0.5-1.8,0.7-2.8
			C1612.3,996.7,1612.5,994.5,1612.6,992.2z"/>
		<path class="st16" d="M1612.6,992.2c0,2.2-0.2,4.4-0.7,6.5c-0.2,0.9-0.4,1.8-0.7,2.8c-0.3,0.9-0.7,2-1,3c-0.3,0.7-0.6,1.4-0.9,2.2
			c-0.7,1.4-1.5,2.8-2.3,4.2c-0.4,0.7-0.9,1.4-1.4,2c-0.9,1.3-1.9,2.6-3,3.8c0,0-0.1,0.1-0.1,0.1c-0.6,0.7-1.2,1.3-1.8,1.9
			c-0.6,0.6-1.2,1.2-1.9,1.8c-0.6,0.6-1.3,1.2-1.9,1.7l-0.3,0.2c-0.6,0.5-1.2,1-1.9,1.5c-0.1,0.1-0.2,0.1-0.2,0.2
			c-0.6,0.5-1.3,1-1.9,1.4l-0.5,0.3l-1.8,1.2c-0.2,0.1-0.3,0.2-0.5,0.3c-0.6,0.4-1.1,0.8-1.7,1.1c-0.6,0.3-1.3,0.8-2,1.2
			c-0.5,0.3-1,0.6-1.6,0.9c-0.8,0.4-1.5,0.8-2.3,1.3c-0.6,0.3-1.2,0.6-1.9,0.9c-0.4,0.2-0.9,0.4-1.3,0.6c-0.9,0.4-1.8,0.8-2.7,1.2
			c-2.8,1.2-5.7,2.4-8.8,3.4c-1,0.3-2,0.7-3.1,1c-1.5,0.4-3,0.9-4.5,1.3c-0.7,0.2-1.4,0.4-2,0.5c-0.2,0.1-0.3,0.1-0.5,0.1
			c-0.9,0.2-1.8,0.4-2.7,0.6c-1.4,0.3-2.8,0.6-4.3,0.8c-0.9,0.2-1.9,0.3-2.9,0.5c-0.2,0.1-0.5,0.1-0.7,0.1c-0.8,0.1-1.5,0.2-2.3,0.3
			c-0.6,0.1-1.1,0.2-1.7,0.2c-0.6,0.1-0.9,0.1-1.4,0.2c-0.8,0.1-1.5,0.2-2.3,0.3c-1.5,0.2-3.1,0.3-4.6,0.4c-0.9,0.1-1.7,0.1-2.6,0.2
			c-1.1,0.1-2.2,0.1-3.3,0.1c-1.3,0-2.6,0.1-3.9,0.1c-1.3,0-2.6,0-3.9-0.1c-1.1,0-2.2,0-3.3-0.1c-0.9,0-1.7-0.1-2.6-0.2
			c-1.6-0.1-3.2-0.2-4.7-0.4c-0.8-0.1-1.5-0.1-2.3-0.2c-0.4,0-0.9-0.1-1.3-0.2c-0.6-0.1-1.2-0.1-1.8-0.2c-0.8-0.1-1.6-0.2-2.4-0.3
			c-0.2,0-0.3,0-0.5-0.1c-1-0.1-1.9-0.3-2.9-0.5l-1-0.2c-0.7-0.1-1.4-0.3-2.1-0.4c-0.4-0.1-0.8-0.2-1.2-0.3l-2.4-0.5
			c-4-0.9-7.8-2.1-11.4-3.3c-1.5-0.5-2.9-1-4.3-1.6c-1.2-0.4-2.3-0.9-3.5-1.4c-0.9-0.4-1.8-0.8-2.7-1.2c-0.4-0.2-0.9-0.4-1.3-0.6
			c-0.6-0.3-1.2-0.6-1.8-0.9c-0.8-0.4-1.6-0.8-2.3-1.3c-0.5-0.3-1-0.6-1.6-0.9c-0.7-0.4-1.3-0.8-2-1.2c-0.7-0.4-1.1-0.7-1.6-1
			c-1.1-0.7-2.1-1.4-3-2.1c-0.6-0.5-1.2-0.9-1.8-1.4c-0.1-0.1-0.1-0.1-0.2-0.2c-0.6-0.5-1.3-1-1.8-1.5c-0.1-0.1-0.2-0.2-0.3-0.2
			c-0.5-0.5-1-0.9-1.5-1.4c-3.4-3.1-6.4-6.6-8.8-10.5c-0.3-0.5-0.7-1.1-1-1.7c-0.4-0.6-0.8-1.4-1.1-2.1c-0.3-0.7-0.6-1.3-0.8-1.9
			c0-0.1-0.1-0.2-0.1-0.2l0,0c-0.4-1-0.8-2-1-3l0,0c-0.4-1.4-0.8-2.9-1-4.3l44.4,4.2c-0.5-0.9-0.9-1.7-1.3-2.7
			c-0.8-2.1-1.3-4.3-1.3-6.5c0-15.4,20.7-27.8,46.3-27.8c3.7,0,7.4,0.3,11.1,0.8V940C1579.6,943.5,1612.6,965.6,1612.6,992.2z"/>
		
			<linearGradient id="SVGID_76_" gradientUnits="userSpaceOnUse" x1="1479.4597" y1="770.6021" x2="1571.98" y2="770.6021" gradientTransform="matrix(1 0 0 -1 0 1762.844)">
			<stop  offset="0" style="stop-color:#6AAEFF"/>
			<stop  offset="1" style="stop-color:#005EFF"/>
		</linearGradient>
		<path class="st79" d="M1572,992.2c0,2.2-0.4,4.4-1.3,6.5c-4.9,12.2-23.2,21.3-45,21.3c-20.2,0-37.4-7.8-43.7-18.7
			c-0.5-0.9-0.9-1.7-1.3-2.7c-0.8-2.1-1.3-4.3-1.3-6.5c0-15.4,20.7-27.8,46.3-27.8c3.7,0,7.4,0.3,11.1,0.8
			C1557,968.2,1572,979.2,1572,992.2z"/>
		
			<linearGradient id="SVGID_77_" gradientUnits="userSpaceOnUse" x1="1644.89" y1="854.857" x2="1820.27" y2="854.857" gradientTransform="matrix(1 0 0 -1 0 1762.844)">
			<stop  offset="0" style="stop-color:#6AAEFF"/>
			<stop  offset="1" style="stop-color:#005EFF"/>
		</linearGradient>
		<path class="st80" d="M1820.3,869.3v24.6c0,1.6-0.1,3.2-0.4,4.7c-4,26.9-41.6,48-87.3,48c-23.1,0-44.1-5.3-59.8-14.1
			c-15.4-8.6-25.6-20.5-27.6-33.9c-0.2-1.6-0.4-3.1-0.3-4.7v-24.6c0,1.1,0.1,2.1,0.2,3.2c0.1,1,0.2,2.1,0.4,3.1
			c0.4,2.1,1,4.1,1.8,6.1c0,0.1,0.1,0.2,0.1,0.2c0.3,0.7,0.5,1.3,0.8,1.9c0.3,0.6,0.7,1.4,1.1,2.1c0.1,0.2,0.2,0.3,0.3,0.5
			c0.1,0.2,0.3,0.5,0.4,0.8c0.2,0.4,0.5,0.8,0.7,1.2c1.8,2.7,3.8,5.3,6.1,7.6c0.6,0.6,1.2,1.2,1.9,1.8c0.7,0.6,1.2,1.1,1.9,1.7
			c0.6,0.6,1.2,1,1.8,1.5c0.4,0.3,0.8,0.7,1.2,0.9c0.6,0.5,1.2,0.9,1.9,1.4c0.7,0.5,1.3,0.9,2,1.4s1.1,0.8,1.7,1.1
			c0.6,0.3,1.1,0.7,1.7,1.1c0.6,0.3,1.5,0.9,2.2,1.3l2,1.1c0.6,0.3,1.2,0.6,1.8,0.9c0.6,0.3,1,0.5,1.5,0.7c0.9,0.4,1.8,0.8,2.7,1.2
			c1.3,0.6,2.6,1.1,4,1.6l1.7,0.7c1.9,0.7,3.8,1.3,5.8,2c0.9,0.3,1.8,0.5,2.7,0.8c1.3,0.4,2.6,0.7,3.8,1c0.9,0.2,1.8,0.4,2.7,0.6
			c0,0,0.1,0,0.1,0c0.9,0.2,1.7,0.4,2.6,0.5s1.8,0.4,2.7,0.5c0.9,0.1,1.7,0.3,2.6,0.5c0.3,0.1,0.6,0.1,0.9,0.1
			c0.7,0.1,1.4,0.2,2.1,0.3s1.3,0.2,1.9,0.3c0.3,0.1,0.7,0.1,1.1,0.1c0.8,0.1,1.7,0.2,2.5,0.3c1.5,0.2,2.9,0.3,4.4,0.3
			c0.9,0.1,1.9,0.1,2.8,0.2c0.9,0,2.2,0.1,3.3,0.1c1.3,0,2.5,0.1,3.8,0.1h0.1c1.3,0,2.6,0,3.8-0.1c1.1,0,2.2-0.1,3.3-0.1
			c0.8,0,1.6-0.1,2.4-0.1c1.7-0.1,3.3-0.2,4.9-0.4c0.7-0.1,1.5-0.1,2.2-0.2c1-0.1,2-0.2,3-0.4s1.7-0.2,2.6-0.4c0.1,0,0.3,0,0.4-0.1
			c1.1-0.2,2.1-0.3,3.1-0.5c0.2,0,0.3-0.1,0.5-0.1c0.7-0.1,1.4-0.3,2.1-0.4s1.6-0.3,2.4-0.5s1.8-0.4,2.6-0.6l2.1-0.5
			c0.9-0.2,1.7-0.5,2.5-0.7c0.8-0.2,1.5-0.4,2.2-0.7c1-0.3,2-0.6,3-1c2.9-1,5.8-2.1,8.5-3.3c0.9-0.4,1.8-0.8,2.7-1.2
			c0.4-0.2,0.7-0.3,1-0.5c1.6-0.8,3-1.5,4.5-2.3c0.5-0.3,1-0.5,1.5-0.8c0.7-0.4,1.3-0.8,1.9-1.2c0.7-0.4,1.4-0.8,2-1.3
			c0.8-0.5,1.6-1.1,2.3-1.6s1.4-1,2.1-1.6c0.1-0.1,0.2-0.1,0.2-0.2c0.7-0.5,1.4-1.1,2-1.7c0.6-0.6,1.4-1.2,2-1.8
			c0.6-0.6,1.3-1.2,1.9-1.8c0.6-0.6,1.2-1.3,1.8-1.9c0,0,0.1-0.1,0.1-0.1c1-1.2,2-2.4,2.9-3.7c0.1-0.2,0.3-0.4,0.4-0.6
			c0.4-0.5,0.8-1.1,1.1-1.6l0.1-0.2c0.3-0.5,0.6-0.9,0.9-1.4c0.1-0.2,0.2-0.3,0.3-0.5c0.3-0.6,0.7-1.2,1-1.9
			c0.1-0.1,0.1-0.3,0.2-0.4c0.3-0.6,0.6-1.2,0.8-1.8c0-0.1,0.1-0.2,0.1-0.2c0.2-0.5,0.4-1,0.6-1.5c0.5-1.4,0.9-2.8,1.2-4.3
			C1820.1,873.6,1820.3,871.5,1820.3,869.3z"/>
		<path class="st16" d="M1820.3,869.3c0,2.2-0.2,4.4-0.7,6.5c-0.3,1.4-0.7,2.9-1.2,4.3c-0.2,0.5-0.4,1-0.6,1.5
			c0,0.1-0.1,0.2-0.1,0.2c-0.2,0.6-0.5,1.2-0.8,1.8c0,0.1-0.1,0.3-0.2,0.4c-0.3,0.6-0.6,1.3-1,1.9c-0.4,0.6-0.7,1.3-1.1,1.9
			l-35.1-17c-0.2,1.7-0.6,3.4-1.2,5c-4.9,12.2-23.2,21.3-45,21.3c-12.7,0-24.1-3.1-32.5-8l-15.9,24.5c-1.4-0.5-2.7-1.1-4-1.6
			c-0.9-0.4-1.8-0.8-2.7-1.2c-0.5-0.2-1-0.5-1.5-0.7s-1.2-0.6-1.8-0.9l-2-1.1c-0.8-0.4-1.5-0.8-2.2-1.3s-1.2-0.7-1.7-1.1
			c-0.6-0.4-1.2-0.7-1.7-1.1c-0.6-0.4-1.3-0.9-2-1.4c-0.7-0.5-1.3-0.9-1.9-1.4c-0.4-0.3-0.8-0.6-1.2-0.9c-0.6-0.5-1.2-1-1.8-1.5
			c-0.6-0.5-1.3-1.1-1.9-1.7c-0.6-0.6-1.3-1.2-1.9-1.8c-2.3-2.3-4.3-4.8-6.1-7.6c-0.3-0.4-0.5-0.8-0.7-1.2s-0.5-0.8-0.7-1.2
			c-0.4-0.7-0.8-1.4-1.1-2.1c-0.3-0.7-0.6-1.3-0.9-1.9c0-0.1-0.1-0.2-0.1-0.2c-0.8-2-1.4-4-1.8-6.1c-0.2-1-0.4-2-0.4-3.1
			c-0.1-1.1-0.2-2.1-0.2-3.2c0-29.1,39.3-52.7,87.7-52.7C1780.9,816.6,1820.3,840.2,1820.3,869.3z"/>
		
			<linearGradient id="SVGID_78_" gradientUnits="userSpaceOnUse" x1="1687.1199" y1="893.512" x2="1779.6599" y2="893.512" gradientTransform="matrix(1 0 0 -1 0 1762.844)">
			<stop  offset="0" style="stop-color:#6AAEFF"/>
			<stop  offset="1" style="stop-color:#005EFF"/>
		</linearGradient>
		<path class="st81" d="M1779.7,869.3c0,0.5,0,1-0.1,1.5c-0.2,1.7-0.6,3.4-1.2,5c-4.9,12.2-23.2,21.3-45,21.3
			c-12.7,0-24.1-3.1-32.5-8c-6-3.6-10.5-8.2-12.5-13.3c-0.8-2.1-1.3-4.3-1.3-6.5c0-15.4,20.7-27.8,46.3-27.8
			S1779.7,854,1779.7,869.3z"/>
		
			<linearGradient id="SVGID_79_" gradientUnits="userSpaceOnUse" x1="1291.6299" y1="663.712" x2="1389.79" y2="663.712" gradientTransform="matrix(1 0 0 -1 0 1762.844)">
			<stop  offset="0" style="stop-color:#6AAEFF"/>
			<stop  offset="1" style="stop-color:#005EFF"/>
		</linearGradient>
		<path class="st82" d="M1389.8,1121.6L1389.8,1121.6c0,2.1-0.2,4.2-0.6,6.2c-0.1,0.5-0.2,1.1-0.3,1.6h-41.5
			c0.2-0.4,0.4-0.9,0.6-1.3c0.8-2.1,1.3-4.3,1.3-6.5c0-15.4-20.7-27.8-46.3-27.8c-3.8,0-7.5,0.3-11.3,0.8l9.2-25.7
			c0.4,0,0.8,0,1.3,0C1350.4,1068.9,1389.8,1092.5,1389.8,1121.6z"/>
		
			<linearGradient id="SVGID_80_" gradientUnits="userSpaceOnUse" x1="1437.28" y1="792.3921" x2="1536.8501" y2="792.3921" gradientTransform="matrix(1 0 0 -1 0 1762.844)">
			<stop  offset="0" style="stop-color:#F22AFF"/>
			<stop  offset="1" style="stop-color:#6C00E9"/>
		</linearGradient>
		<path class="st83" d="M1536.9,940v25.2c-3.7-0.5-7.4-0.8-11.1-0.8c-25.6,0-46.3,12.5-46.3,27.8c0,2.2,0.4,4.4,1.3,6.5
			c0.4,0.9,0.8,1.8,1.3,2.7l-44.4-4.2c0-0.1,0-0.2,0-0.3c-0.2-1.6-0.3-3.1-0.3-4.7v0.8c0-0.3,0-0.5,0-0.8
			c0-29.1,39.3-52.7,87.7-52.7C1529,939.5,1532.9,939.7,1536.9,940z"/>
		
			<linearGradient id="SVGID_81_" gradientUnits="userSpaceOnUse" x1="1685.1594" y1="866.3621" x2="1814.73" y2="866.3621" gradientTransform="matrix(1 0 0 -1 0 1762.844)">
			<stop  offset="0" style="stop-color:#FF0007"/>
			<stop  offset="1" style="stop-color:#FFAAAC"/>
		</linearGradient>
		<path class="st84" d="M1814.7,887.8l-0.1,0.2c-0.3,0.5-0.7,1.1-1.1,1.6c-0.1,0.2-0.3,0.4-0.4,0.6c-0.9,1.3-1.9,2.5-2.9,3.7
			c0,0-0.1,0.1-0.1,0.1c-0.6,0.7-1.1,1.3-1.8,1.9c-0.6,0.6-1.2,1.2-1.9,1.8c-0.7,0.6-1.3,1.2-2,1.8c-0.7,0.6-1.3,1.1-2,1.7
			c-0.1,0.1-0.1,0.1-0.2,0.2c-0.7,0.5-1.4,1.1-2.1,1.6s-1.6,1.1-2.3,1.6c-0.8,0.5-1.3,0.9-2,1.3c-0.7,0.4-1.3,0.8-1.9,1.2
			c-0.5,0.3-1,0.6-1.5,0.8c-1.5,0.8-3,1.6-4.5,2.3c-0.3,0.2-0.7,0.3-1,0.5c-0.9,0.4-1.8,0.8-2.7,1.2c-2.7,1.2-5.6,2.3-8.5,3.3
			c-1,0.3-2,0.7-3,1c-0.7,0.2-1.4,0.4-2.2,0.7c-0.7,0.2-1.7,0.5-2.5,0.7c-0.7,0.2-1.4,0.4-2.1,0.5c-0.9,0.2-1.7,0.4-2.6,0.6
			c-0.9,0.2-1.6,0.3-2.4,0.5s-1.4,0.3-2.1,0.4c-0.2,0-0.3,0.1-0.5,0.1c-1,0.2-2.1,0.4-3.1,0.5c-0.1,0-0.3,0.1-0.4,0.1
			c-0.9,0.1-1.7,0.3-2.6,0.4s-2,0.3-3,0.4c-0.7,0.1-1.4,0.2-2.2,0.2c-1.6,0.2-3.3,0.3-4.9,0.4c-0.8,0.1-1.6,0.1-2.4,0.1
			c-1.1,0.1-2.2,0.1-3.3,0.1c-1.3,0-2.6,0.1-3.8,0.1h-0.1c-1.3,0-2.6,0-3.8-0.1c-1.1,0-2.2-0.1-3.3-0.1c-1.1-0.1-1.9-0.1-2.8-0.2
			c-1.5-0.1-3-0.2-4.4-0.3c-0.8-0.1-1.7-0.2-2.5-0.3c-0.3,0-0.7-0.1-1.1-0.1c-0.6-0.1-1.3-0.2-1.9-0.3c-0.6-0.1-1.4-0.2-2.1-0.3
			c-0.3,0-0.6-0.1-0.9-0.1c-0.9-0.1-1.7-0.3-2.6-0.5c-0.8-0.2-1.8-0.3-2.7-0.5c-0.9-0.2-1.7-0.3-2.6-0.5c0,0-0.1,0-0.1,0
			c-0.9-0.2-1.8-0.4-2.7-0.6c-1.3-0.3-2.6-0.7-3.9-1c-0.9-0.3-1.8-0.5-2.7-0.8c-2-0.6-3.9-1.3-5.8-2l-1.7-0.7l15.9-24.5
			c8.3,5,19.8,8,32.5,8c21.8,0,40.1-9.1,45-21.3c0.6-1.6,1-3.3,1.2-5L1814.7,887.8z"/>
		
			<linearGradient id="SVGID_82_" gradientUnits="userSpaceOnUse" x1="35.03" y1="815.092" x2="415" y2="815.092" gradientTransform="matrix(-1 0 0 -1 1120.84 1762.844)">
			<stop  offset="0" style="stop-color:#F22AFF"/>
			<stop  offset="1" style="stop-color:#6C00E9"/>
		</linearGradient>
		<polygon class="st85" points="1081.2,1089.3 1085.8,1086.6 1012.8,960.1 940.8,1001.7 851.2,887.9 798,918.6 763,837.8 
			708.5,806.3 705.8,810.9 758.8,841.5 795.5,926.2 849.9,894.8 939.5,1008.6 1010.8,967.4 		"/>
		
			<linearGradient id="SVGID_83_" gradientUnits="userSpaceOnUse" x1="411" y1="952.812" x2="428.93" y2="952.812" gradientTransform="matrix(-1 0 0 -1 1120.84 1762.844)">
			<stop  offset="0" style="stop-color:#6C00E9"/>
			<stop  offset="1" style="stop-color:#F22AFF"/>
		</linearGradient>
		<polygon class="st86" points="709.8,789.3 709.8,830.7 691.9,799.7 		"/>
		
			<linearGradient id="SVGID_84_" gradientUnits="userSpaceOnUse" x1="101.5337" y1="799.9642" x2="116.5838" y2="799.9642" gradientTransform="matrix(-1.0012 -2.313793e-03 2.313793e-03 -1.0012 1116.8584 1764.9485)">
			<stop  offset="0" style="stop-color:#6AAEFF"/>
			<stop  offset="1" style="stop-color:#005EFF"/>
		</linearGradient>
		<path class="st87" d="M1011.3,952.3c4.1-0.2,7.7,4.7,8,11c0.3,6.3-2.8,11.6-7,11.8c-4.1,0.2-7.7-4.7-8-11
			C1004,957.8,1007.1,952.5,1011.3,952.3z"/>
		
			<linearGradient id="SVGID_85_" gradientUnits="userSpaceOnUse" x1="173.2138" y1="758.6295" x2="188.2403" y2="758.6295" gradientTransform="matrix(-1.0012 -2.313793e-03 2.313793e-03 -1.0012 1116.8511 1764.955)">
			<stop  offset="0" style="stop-color:#6AAEFF"/>
			<stop  offset="1" style="stop-color:#005EFF"/>
		</linearGradient>
		<path class="st88" d="M939.6,993.6c4.1-0.2,7.7,4.7,8,11s-2.8,11.6-7,11.8s-7.7-4.7-8-11C932.3,999,935.5,993.8,939.6,993.6z"/>
		
			<linearGradient id="SVGID_86_" gradientUnits="userSpaceOnUse" x1="263.2763" y1="870.5621" x2="278.3263" y2="870.5621" gradientTransform="matrix(-1.0025 0 0 -1.0025 1122.2095 1764.3936)">
			<stop  offset="0" style="stop-color:#6AAEFF"/>
			<stop  offset="1" style="stop-color:#005EFF"/>
		</linearGradient>
		<path class="st89" d="M852.5,880.2c4.1-0.2,7.8,4.7,8.1,11c0.3,6.3-2.8,11.6-6.9,11.8s-7.8-4.7-8.1-11
			C845.3,885.7,848.4,880.4,852.5,880.2z"/>
		
			<linearGradient id="SVGID_87_" gradientUnits="userSpaceOnUse" x1="317.0263" y1="840.5113" x2="332.0763" y2="840.5113" gradientTransform="matrix(-1.0025 0 0 -1.0025 1122.2195 1764.395)">
			<stop  offset="0" style="stop-color:#6AAEFF"/>
			<stop  offset="1" style="stop-color:#005EFF"/>
		</linearGradient>
		<path class="st90" d="M798.8,910.4c4.1-0.2,7.8,4.7,8.1,11c0.3,6.3-2.8,11.6-6.9,11.8c-4.1,0.2-7.8-4.7-8.1-11
			C791.5,915.9,794.6,910.6,798.8,910.4z"/>
		<polygon class="st16" points="759.2,1175.1 476.5,1338.3 193.8,1175 474.1,1013.2 476.5,1011.8 		"/>
		
			<linearGradient id="SVGID_88_" gradientUnits="userSpaceOnUse" x1="193.8" y1="459.597" x2="476.51" y2="459.597" gradientTransform="matrix(1 0 0 -1 0 1762.844)">
			<stop  offset="0" style="stop-color:#E9EFFF"/>
			<stop  offset="1" style="stop-color:#D4E3FF"/>
		</linearGradient>
		<polygon class="st91" points="193.8,1175 193.8,1268.3 476.5,1431.5 476.5,1338.3 		"/>
		
			<linearGradient id="SVGID_89_" gradientUnits="userSpaceOnUse" x1="476.51" y1="459.572" x2="759.22" y2="459.572" gradientTransform="matrix(1 0 0 -1 0 1762.844)">
			<stop  offset="0" style="stop-color:#E9EFFF"/>
			<stop  offset="1" style="stop-color:#D4E3FF"/>
		</linearGradient>
		<polygon class="st92" points="476.5,1431.5 759.2,1268.3 759.2,1175.1 476.5,1338.3 		"/>
		
			<linearGradient id="SVGID_90_" gradientUnits="userSpaceOnUse" x1="383.7212" y1="428.9699" x2="399.0112" y2="428.9699" gradientTransform="matrix(1 0 0 -1 0 1762.844)">
			<stop  offset="0" style="stop-color:#6AAEFF"/>
			<stop  offset="1" style="stop-color:#005EFF"/>
		</linearGradient>
		<path class="st93" d="M384.9,1326.9c-1,1.6-1.4,3.6-1,5.5c0.3,1.8,0.9,3.5,1.9,5.1c0.5,0.8,1,1.5,1.6,2.2
			c3.6,3.8,8.3,4.4,10.5,1.2s1.1-8.9-2.5-12.7C391.8,1324.3,387.1,1323.7,384.9,1326.9z"/>
		
			<linearGradient id="SVGID_91_" gradientUnits="userSpaceOnUse" x1="408.2812" y1="414.1578" x2="423.5812" y2="414.1578" gradientTransform="matrix(1 0 0 -1 0 1762.844)">
			<stop  offset="0" style="stop-color:#6AAEFF"/>
			<stop  offset="1" style="stop-color:#005EFF"/>
		</linearGradient>
		<path class="st94" d="M409.4,1341.7c-1,1.6-1.4,3.6-1,5.5c0.3,1.8,0.9,3.5,1.9,5.1c0.5,0.8,1,1.5,1.6,2.2
			c3.6,3.8,8.3,4.4,10.5,1.2s1.1-8.9-2.5-12.7C416.4,1339.1,411.6,1338.5,409.4,1341.7z"/>
		
			<linearGradient id="SVGID_92_" gradientUnits="userSpaceOnUse" x1="432.8412" y1="399.8479" x2="448.1312" y2="399.8479" gradientTransform="matrix(1 0 0 -1 0 1762.844)">
			<stop  offset="0" style="stop-color:#6AAEFF"/>
			<stop  offset="1" style="stop-color:#005EFF"/>
		</linearGradient>
		<path class="st95" d="M434,1356c-1,1.6-1.4,3.6-1,5.5c0.3,1.8,0.9,3.5,1.9,5.1c0.5,0.8,1,1.5,1.6,2.2c3.6,3.8,8.3,4.4,10.5,1.2
			s1.1-8.9-2.5-12.7C440.9,1353.4,436.2,1352.9,434,1356z"/>
		
			<linearGradient id="SVGID_93_" gradientUnits="userSpaceOnUse" x1="238.3787" y1="505.8049" x2="270.41" y2="505.8049" gradientTransform="matrix(1 0 0 -1 0 1762.844)">
			<stop  offset="0" style="stop-color:#FF0007"/>
			<stop  offset="1" style="stop-color:#FFAAAC"/>
		</linearGradient>
		<path class="st96" d="M238.4,1244.3v8c0,1,0.5,1.9,1.4,2.4l28.5,16.5c0.7,0.4,1.6,0.1,2-0.5c0.1-0.2,0.2-0.5,0.2-0.7v-7.9
			c0-1.2-0.6-2.3-1.7-2.9l-28-16.2c-0.7-0.4-1.7-0.2-2.1,0.5C238.4,1243.7,238.4,1244,238.4,1244.3z"/>
		
			<linearGradient id="SVGID_94_" gradientUnits="userSpaceOnUse" x1="718.84" y1="523.7379" x2="734.13" y2="523.7379" gradientTransform="matrix(1 0 0 -1 0 1762.844)">
			<stop  offset="0" style="stop-color:#6AAEFF"/>
			<stop  offset="1" style="stop-color:#005EFF"/>
		</linearGradient>
		<path class="st97" d="M733,1232.2c1,1.6,1.4,3.6,1,5.5c-0.3,1.8-0.9,3.5-1.9,5.1c-0.5,0.8-1,1.5-1.7,2.2
			c-3.6,3.8-8.3,4.4-10.5,1.2s-1.1-8.9,2.5-12.7S730.8,1229,733,1232.2z"/>
		
			<linearGradient id="SVGID_95_" gradientUnits="userSpaceOnUse" x1="694.28" y1="508.9199" x2="709.58" y2="508.9199" gradientTransform="matrix(1 0 0 -1 0 1762.844)">
			<stop  offset="0" style="stop-color:#6AAEFF"/>
			<stop  offset="1" style="stop-color:#005EFF"/>
		</linearGradient>
		<path class="st98" d="M708.4,1247c1,1.6,1.4,3.6,1,5.5c-0.3,1.8-0.9,3.5-1.9,5.1c-0.5,0.8-1,1.5-1.7,2.2
			c-3.6,3.8-8.3,4.4-10.5,1.2c-2.2-3.2-1.1-8.9,2.5-12.7S706.2,1243.8,708.4,1247z"/>
		
			<linearGradient id="SVGID_96_" gradientUnits="userSpaceOnUse" x1="669.73" y1="494.6179" x2="685.02" y2="494.6179" gradientTransform="matrix(1 0 0 -1 0 1762.844)">
			<stop  offset="0" style="stop-color:#6AAEFF"/>
			<stop  offset="1" style="stop-color:#005EFF"/>
		</linearGradient>
		<path class="st99" d="M683.9,1261.3c1,1.6,1.4,3.6,1,5.5c-0.3,1.8-0.9,3.5-1.9,5.1c-0.5,0.8-1,1.5-1.7,2.2
			c-3.6,3.8-8.3,4.4-10.5,1.2c-2.2-3.2-1.1-8.9,2.5-12.7S681.7,1258.1,683.9,1261.3z"/>
		
			<linearGradient id="SVGID_97_" gradientUnits="userSpaceOnUse" x1="521.11" y1="412.815" x2="553.1413" y2="412.815" gradientTransform="matrix(1 0 0 -1 0 1762.844)">
			<stop  offset="0" style="stop-color:#FF0007"/>
			<stop  offset="1" style="stop-color:#FFAAAC"/>
		</linearGradient>
		<path class="st100" d="M553.1,1337.3v8c0,1-0.5,1.9-1.4,2.4l-28.5,16.5c-0.7,0.4-1.6,0.1-2-0.5c-0.1-0.2-0.2-0.5-0.2-0.7v-7.9
			c0-1.2,0.6-2.3,1.7-2.9l28-16.2c0.7-0.4,1.7-0.2,2.1,0.5C553.1,1336.7,553.2,1337,553.1,1337.3z"/>
		
			<linearGradient id="SVGID_98_" gradientUnits="userSpaceOnUse" x1="217.37" y1="591.197" x2="234.24" y2="591.197" gradientTransform="matrix(1 0 0 -1 0 1762.844)">
			<stop  offset="0" style="stop-color:#6AAEFF"/>
			<stop  offset="1" style="stop-color:#005EFF"/>
		</linearGradient>
		<path class="st101" d="M234.2,1161v15.7c0,3.2-3.8,5.7-8.4,5.7c-4.7,0-8.4-2.6-8.4-5.7V1161c0,3.2,3.8,5.7,8.4,5.7
			C230.5,1166.7,234.2,1164.1,234.2,1161z"/>
		
			<linearGradient id="SVGID_99_" gradientUnits="userSpaceOnUse" x1="217.38" y1="601.902" x2="234.24" y2="601.902" gradientTransform="matrix(1 0 0 -1 0 1762.844)">
			<stop  offset="0" style="stop-color:#E9EFFF"/>
			<stop  offset="1" style="stop-color:#D4E3FF"/>
		</linearGradient>
		<ellipse class="st102" cx="225.8" cy="1160.9" rx="8.4" ry="5.7"/>
		<g>
			
				<linearGradient id="SVGID_100_" gradientUnits="userSpaceOnUse" x1="474.14" y1="587.807" x2="759.23" y2="587.807" gradientTransform="matrix(1 0 0 -1 0 1762.844)">
				<stop  offset="0" style="stop-color:#E9F2FF"/>
				<stop  offset="0.55" style="stop-color:#DAEAFF"/>
				<stop  offset="1" style="stop-color:#D4E7FF"/>
			</linearGradient>
			<path class="st103" d="M476.5,1338.3c0,0,50.9-192.8-2.4-325.1l2.4-1.4l282.7,163.3L476.5,1338.3z"/>
		</g>
		
			<linearGradient id="SVGID_101_" gradientUnits="userSpaceOnUse" x1="725.7" y1="593.3071" x2="742.57" y2="593.3071" gradientTransform="matrix(1 0 0 -1 0 1762.844)">
			<stop  offset="0" style="stop-color:#6AAEFF"/>
			<stop  offset="1" style="stop-color:#005EFF"/>
		</linearGradient>
		<path class="st104" d="M742.6,1158.8v15.7c0,3.2-3.8,5.7-8.4,5.7s-8.4-2.6-8.4-5.7v-15.7c0,3.2,3.8,5.7,8.4,5.7
			S742.6,1162,742.6,1158.8z"/>
		
			<linearGradient id="SVGID_102_" gradientUnits="userSpaceOnUse" x1="725.71" y1="604.002" x2="742.5699" y2="604.002" gradientTransform="matrix(1 0 0 -1 0 1762.844)">
			<stop  offset="0" style="stop-color:#E9EFFF"/>
			<stop  offset="1" style="stop-color:#D4E3FF"/>
		</linearGradient>
		<ellipse class="st105" cx="734.1" cy="1158.8" rx="8.4" ry="5.7"/>
		
			<linearGradient id="SVGID_103_" gradientUnits="userSpaceOnUse" x1="468.07" y1="448.727" x2="484.94" y2="448.727" gradientTransform="matrix(1 0 0 -1 0 1762.844)">
			<stop  offset="0" style="stop-color:#6AAEFF"/>
			<stop  offset="1" style="stop-color:#005EFF"/>
		</linearGradient>
		<path class="st106" d="M484.9,1303.4v15.7c0,3.2-3.8,5.7-8.4,5.7s-8.4-2.6-8.4-5.7v-15.7c0,3.2,3.8,5.7,8.4,5.7
			S484.9,1306.6,484.9,1303.4z"/>
		
			<linearGradient id="SVGID_104_" gradientUnits="userSpaceOnUse" x1="468.08" y1="459.402" x2="484.94" y2="459.402" gradientTransform="matrix(1 0 0 -1 0 1762.844)">
			<stop  offset="0" style="stop-color:#E9EFFF"/>
			<stop  offset="1" style="stop-color:#D4E3FF"/>
		</linearGradient>
		<ellipse class="st107" cx="476.5" cy="1303.4" rx="8.4" ry="5.7"/>
		
			<linearGradient id="SVGID_105_" gradientUnits="userSpaceOnUse" x1="193.96" y1="366.277" x2="476.67" y2="366.277" gradientTransform="matrix(1 0 0 -1 0 1762.844)">
			<stop  offset="0" style="stop-color:#6AAEFF"/>
			<stop  offset="1" style="stop-color:#005EFF"/>
		</linearGradient>
		<polygon class="st108" points="194,1268.3 194,1361.6 476.7,1524.8 476.7,1431.6 		"/>
		
			<linearGradient id="SVGID_106_" gradientUnits="userSpaceOnUse" x1="476.67" y1="366.252" x2="759.38" y2="366.252" gradientTransform="matrix(1 0 0 -1 0 1762.844)">
			<stop  offset="0" style="stop-color:#6AAEFF"/>
			<stop  offset="1" style="stop-color:#005EFF"/>
		</linearGradient>
		<polygon class="st109" points="476.7,1524.8 759.4,1361.6 759.4,1268.4 476.7,1431.6 		"/>
		
			<linearGradient id="SVGID_107_" gradientUnits="userSpaceOnUse" x1="383.8812" y1="335.6578" x2="399.1812" y2="335.6578" gradientTransform="matrix(1 0 0 -1 0 1762.844)">
			<stop  offset="0" style="stop-color:#E9EFFF"/>
			<stop  offset="1" style="stop-color:#D4E3FF"/>
		</linearGradient>
		<path class="st110" d="M385,1420.2c-1,1.6-1.4,3.6-1,5.5c0.3,1.8,0.9,3.5,1.9,5.1c0.5,0.8,1,1.5,1.7,2.2c3.6,3.8,8.3,4.4,10.5,1.2
			c2.2-3.2,1.1-8.9-2.5-12.7S387.2,1417,385,1420.2z"/>
		
			<linearGradient id="SVGID_108_" gradientUnits="userSpaceOnUse" x1="408.4412" y1="320.8399" x2="423.7312" y2="320.8399" gradientTransform="matrix(1 0 0 -1 0 1762.844)">
			<stop  offset="0" style="stop-color:#E9EFFF"/>
			<stop  offset="1" style="stop-color:#D4E3FF"/>
		</linearGradient>
		<path class="st111" d="M409.6,1435.1c-1,1.6-1.4,3.6-1,5.5c0.3,1.8,0.9,3.5,1.9,5.1c0.5,0.8,1,1.5,1.7,2.2
			c3.6,3.8,8.3,4.4,10.5,1.2c2.2-3.2,1.1-8.9-2.5-12.7S411.8,1431.9,409.6,1435.1z"/>
		
			<linearGradient id="SVGID_109_" gradientUnits="userSpaceOnUse" x1="433.0012" y1="306.5378" x2="448.2912" y2="306.5378" gradientTransform="matrix(1 0 0 -1 0 1762.844)">
			<stop  offset="0" style="stop-color:#E9EFFF"/>
			<stop  offset="1" style="stop-color:#D4E3FF"/>
		</linearGradient>
		<path class="st112" d="M434.1,1449.4c-1,1.6-1.4,3.6-1,5.5c0.3,1.8,0.9,3.5,1.9,5.1c0.5,0.8,1,1.5,1.6,2.2
			c3.6,3.8,8.3,4.4,10.5,1.2s1.1-8.9-2.5-12.7C441.1,1446.7,436.3,1446.2,434.1,1449.4z"/>
		<path class="st16" d="M238.5,1337.6v8c0,1,0.5,1.9,1.4,2.4l28.5,16.5c0.7,0.4,1.6,0.1,2-0.5c0.1-0.2,0.2-0.5,0.2-0.7v-7.8
			c0-1.2-0.6-2.3-1.7-2.9l-28-16.2c-0.7-0.4-1.7-0.2-2.1,0.5C238.6,1337.1,238.5,1337.4,238.5,1337.6z"/>
		
			<linearGradient id="SVGID_110_" gradientUnits="userSpaceOnUse" x1="719" y1="430.4576" x2="734.29" y2="430.4576" gradientTransform="matrix(1 0 0 -1 0 1762.844)">
			<stop  offset="0" style="stop-color:#E9EFFF"/>
			<stop  offset="1" style="stop-color:#D4E3FF"/>
		</linearGradient>
		<path class="st113" d="M733.1,1325.4c1,1.6,1.4,3.6,1,5.5c-0.3,1.8-0.9,3.5-1.9,5.1c-0.5,0.8-1,1.5-1.7,2.2
			c-3.6,3.8-8.3,4.4-10.5,1.2s-1.1-8.9,2.5-12.7S730.9,1322.3,733.1,1325.4z"/>
		
			<linearGradient id="SVGID_111_" gradientUnits="userSpaceOnUse" x1="694.4399" y1="415.6079" x2="709.73" y2="415.6079" gradientTransform="matrix(1 0 0 -1 0 1762.844)">
			<stop  offset="0" style="stop-color:#E9EFFF"/>
			<stop  offset="1" style="stop-color:#D4E3FF"/>
		</linearGradient>
		<path class="st114" d="M708.6,1340.3c1,1.6,1.4,3.6,1,5.5c-0.3,1.8-0.9,3.5-1.9,5.1c-0.5,0.8-1,1.5-1.7,2.2
			c-3.6,3.8-8.3,4.4-10.5,1.2c-2.2-3.2-1.1-8.9,2.5-12.7S706.4,1337.1,708.6,1340.3z"/>
		
			<linearGradient id="SVGID_112_" gradientUnits="userSpaceOnUse" x1="669.8799" y1="401.2937" x2="685.18" y2="401.2937" gradientTransform="matrix(1 0 0 -1 0 1762.844)">
			<stop  offset="0" style="stop-color:#E9EFFF"/>
			<stop  offset="1" style="stop-color:#D4E3FF"/>
		</linearGradient>
		<path class="st115" d="M684,1354.6c1,1.6,1.4,3.6,1,5.5c-0.3,1.8-0.9,3.5-1.9,5.1c-0.5,0.8-1,1.5-1.6,2.2
			c-3.6,3.8-8.3,4.4-10.5,1.2s-1.1-8.9,2.5-12.7S681.8,1351.4,684,1354.6z"/>
		<path class="st16" d="M553.3,1430.6v8c0,1-0.5,1.9-1.4,2.4l-28.5,16.5c-0.7,0.4-1.6,0.1-2-0.5c-0.1-0.2-0.2-0.5-0.2-0.7v-7.9
			c0-1.2,0.6-2.3,1.7-2.9l28-16.2c0.7-0.4,1.7-0.2,2.1,0.5C553.2,1430,553.3,1430.3,553.3,1430.6z"/>
		
			<linearGradient id="SVGID_113_" gradientUnits="userSpaceOnUse" x1="193.8" y1="273.097" x2="476.52" y2="273.097" gradientTransform="matrix(1 0 0 -1 0 1762.844)">
			<stop  offset="0" style="stop-color:#E9EFFF"/>
			<stop  offset="1" style="stop-color:#D4E3FF"/>
		</linearGradient>
		<polygon class="st116" points="193.8,1361.5 193.8,1454.8 476.5,1618 476.5,1524.8 		"/>
		
			<linearGradient id="SVGID_114_" gradientUnits="userSpaceOnUse" x1="476.52" y1="273.072" x2="759.23" y2="273.072" gradientTransform="matrix(1 0 0 -1 0 1762.844)">
			<stop  offset="0" style="stop-color:#E9EFFF"/>
			<stop  offset="1" style="stop-color:#D4E3FF"/>
		</linearGradient>
		<polygon class="st117" points="476.5,1618 759.2,1454.8 759.2,1361.6 476.5,1524.8 		"/>
		
			<linearGradient id="SVGID_115_" gradientUnits="userSpaceOnUse" x1="383.7312" y1="242.4699" x2="399.0212" y2="242.4699" gradientTransform="matrix(1 0 0 -1 0 1762.844)">
			<stop  offset="0" style="stop-color:#6AAEFF"/>
			<stop  offset="1" style="stop-color:#005EFF"/>
		</linearGradient>
		<path class="st118" d="M384.9,1513.4c-1,1.6-1.4,3.6-1,5.5c0.3,1.8,0.9,3.5,1.9,5.1c0.5,0.8,1,1.5,1.6,2.2
			c3.6,3.8,8.3,4.4,10.5,1.2c2.2-3.2,1.1-8.9-2.5-12.7S387.1,1510.2,384.9,1513.4z"/>
		
			<linearGradient id="SVGID_116_" gradientUnits="userSpaceOnUse" x1="408.2912" y1="227.6578" x2="423.5812" y2="227.6578" gradientTransform="matrix(1 0 0 -1 0 1762.844)">
			<stop  offset="0" style="stop-color:#6AAEFF"/>
			<stop  offset="1" style="stop-color:#005EFF"/>
		</linearGradient>
		<path class="st119" d="M409.4,1528.2c-1,1.6-1.4,3.6-1,5.5c0.3,1.8,0.9,3.5,1.9,5.1c0.5,0.8,1,1.5,1.6,2.2
			c3.6,3.8,8.3,4.4,10.5,1.2c2.2-3.2,1.1-8.9-2.5-12.7S411.6,1525,409.4,1528.2z"/>
		
			<linearGradient id="SVGID_117_" gradientUnits="userSpaceOnUse" x1="432.8412" y1="213.3579" x2="448.1412" y2="213.3579" gradientTransform="matrix(1 0 0 -1 0 1762.844)">
			<stop  offset="0" style="stop-color:#6AAEFF"/>
			<stop  offset="1" style="stop-color:#005EFF"/>
		</linearGradient>
		<path class="st120" d="M434,1542.5c-1,1.6-1.4,3.6-1,5.5c0.3,1.8,0.9,3.5,1.9,5.1c0.5,0.8,1,1.5,1.6,2.2c3.6,3.8,8.3,4.4,10.5,1.2
			s1.1-8.9-2.5-12.7C440.9,1539.9,436.2,1539.3,434,1542.5z"/>
		
			<linearGradient id="SVGID_118_" gradientUnits="userSpaceOnUse" x1="238.3887" y1="319.3049" x2="270.42" y2="319.3049" gradientTransform="matrix(1 0 0 -1 0 1762.844)">
			<stop  offset="0" style="stop-color:#FF0007"/>
			<stop  offset="1" style="stop-color:#FFAAAC"/>
		</linearGradient>
		<path class="st121" d="M238.4,1430.8v8c0,1,0.5,1.9,1.4,2.4l28.5,16.5c0.7,0.4,1.6,0.1,2-0.5c0.1-0.2,0.2-0.5,0.2-0.7v-7.9
			c0-1.2-0.6-2.3-1.7-2.9l-28-16.2c-0.7-0.4-1.7-0.2-2.1,0.5C238.5,1430.2,238.4,1430.5,238.4,1430.8z"/>
		
			<linearGradient id="SVGID_119_" gradientUnits="userSpaceOnUse" x1="718.84" y1="337.2462" x2="734.14" y2="337.2462" gradientTransform="matrix(1 0 0 -1 0 1762.844)">
			<stop  offset="0" style="stop-color:#6AAEFF"/>
			<stop  offset="1" style="stop-color:#005EFF"/>
		</linearGradient>
		<path class="st122" d="M733,1418.7c1,1.6,1.4,3.6,1,5.5c-0.3,1.8-0.9,3.5-1.9,5.1c-0.5,0.8-1,1.5-1.7,2.2
			c-3.6,3.8-8.3,4.4-10.5,1.2s-1.1-8.9,2.5-12.7S730.8,1415.4,733,1418.7z"/>
		
			<linearGradient id="SVGID_120_" gradientUnits="userSpaceOnUse" x1="694.29" y1="322.4596" x2="709.58" y2="322.4596" gradientTransform="matrix(1 0 0 -1 0 1762.844)">
			<stop  offset="0" style="stop-color:#6AAEFF"/>
			<stop  offset="1" style="stop-color:#005EFF"/>
		</linearGradient>
		<path class="st123" d="M708.4,1433.4c1,1.6,1.4,3.6,1,5.5c-0.3,1.8-0.9,3.5-1.9,5.1c-0.5,0.8-1,1.5-1.7,2.2
			c-3.6,3.8-8.3,4.4-10.5,1.2c-2.2-3.2-1.1-8.9,2.5-12.7S706.2,1430.3,708.4,1433.4z"/>
		
			<linearGradient id="SVGID_121_" gradientUnits="userSpaceOnUse" x1="669.73" y1="308.1179" x2="685.02" y2="308.1179" gradientTransform="matrix(1 0 0 -1 0 1762.844)">
			<stop  offset="0" style="stop-color:#6AAEFF"/>
			<stop  offset="1" style="stop-color:#005EFF"/>
		</linearGradient>
		<path class="st124" d="M683.9,1447.8c1,1.6,1.4,3.6,1,5.5c-0.3,1.8-0.9,3.5-1.9,5.1c-0.5,0.8-1,1.5-1.7,2.2
			c-3.6,3.8-8.3,4.4-10.5,1.2c-2.2-3.2-1.1-8.9,2.5-12.7S681.7,1444.6,683.9,1447.8z"/>
		
			<linearGradient id="SVGID_122_" gradientUnits="userSpaceOnUse" x1="521.11" y1="226.3099" x2="553.1409" y2="226.3099" gradientTransform="matrix(1 0 0 -1 0 1762.844)">
			<stop  offset="0" style="stop-color:#FF0007"/>
			<stop  offset="1" style="stop-color:#FFAAAC"/>
		</linearGradient>
		<path class="st125" d="M553.1,1523.8v8c0,1-0.5,1.9-1.4,2.4l-28.5,16.5c-0.7,0.4-1.6,0.1-2-0.5c-0.1-0.2-0.2-0.5-0.2-0.7v-7.9
			c0-1.2,0.6-2.3,1.7-2.9l28-16.2c0.7-0.4,1.7-0.2,2.1,0.5C553.1,1523.2,553.2,1523.5,553.1,1523.8z"/>
		
			<linearGradient id="SVGID_123_" gradientUnits="userSpaceOnUse" x1="468.23" y1="736.582" x2="485.1" y2="736.582" gradientTransform="matrix(1 0 0 -1 0 1762.844)">
			<stop  offset="0" style="stop-color:#6AAEFF"/>
			<stop  offset="1" style="stop-color:#005EFF"/>
		</linearGradient>
		<path class="st126" d="M485.1,1015.6v15.7c0,3.2-3.8,5.7-8.4,5.7s-8.4-2.6-8.4-5.7v-15.7c0,3.2,3.8,5.7,8.4,5.7
			S485.1,1018.7,485.1,1015.6z"/>
		
			<linearGradient id="SVGID_124_" gradientUnits="userSpaceOnUse" x1="468.24" y1="747.272" x2="485.1" y2="747.272" gradientTransform="matrix(1 0 0 -1 0 1762.844)">
			<stop  offset="0" style="stop-color:#E9EFFF"/>
			<stop  offset="1" style="stop-color:#D4E3FF"/>
		</linearGradient>
		<ellipse class="st127" cx="476.7" cy="1015.6" rx="8.4" ry="5.7"/>
		
			<linearGradient id="SVGID_125_" gradientUnits="userSpaceOnUse" x1="464.5598" y1="1274.1041" x2="802.2599" y2="1274.1041" gradientTransform="matrix(1 0 0 -1 0 1762.844)">
			<stop  offset="0" style="stop-color:#6AAEFF"/>
			<stop  offset="1" style="stop-color:#005EFF"/>
		</linearGradient>
		<path class="st128" d="M802.3,235.2c-1.8-1-3.9-1.6-6-1.5c-2,0-3.9,0.6-5.6,1.6l-3.6,2.1l-302,174.4c-5.8,3.4-9.4,9.6-9.4,16.3
			v308.6v5.4c0,3.6,1.6,7,4.4,9.2l-9.1-6.1h0c-3.9-2.1-6.3-6.1-6.3-10.5l0-314c0-6.7,3.6-12.9,9.4-16.3l305.6-176.5
			c3.7-2.2,8.3-2.1,11.9,0.2l0.6,0.4L802.3,235.2z"/>
		<path class="st16" d="M808.2,557.1c0,8.4-4.5,16.2-11.8,20.4L493.6,752.3c-3.6,2.1-8,2.2-11.6,0.2l-1.9-1.3
			c-2.8-2.3-4.4-5.7-4.4-9.2v-5.4V428c0-6.7,3.6-12.9,9.4-16.3l302-174.4l3.6-2.1c1.7-1,3.6-1.5,5.6-1.6c2.1,0,4.2,0.5,6,1.5
			l0.1,0.1c3.6,2,5.8,5.9,5.8,10.1L808.2,557.1z"/>
		
			<linearGradient id="SVGID_126_" gradientUnits="userSpaceOnUse" x1="532.33" y1="1227.652" x2="576.03" y2="1227.652" gradientTransform="matrix(1 0 0 -1 0 1762.844)">
			<stop  offset="0" style="stop-color:#6AAEFF"/>
			<stop  offset="1" style="stop-color:#005EFF"/>
		</linearGradient>
		<polygon class="st129" points="532.3,480.6 532.3,615.1 576,589.9 576,455.3 		"/>
		
			<linearGradient id="SVGID_127_" gradientUnits="userSpaceOnUse" x1="619.73" y1="1294.922" x2="663.43" y2="1294.922" gradientTransform="matrix(1 0 0 -1 0 1762.844)">
			<stop  offset="0" style="stop-color:#6AAEFF"/>
			<stop  offset="1" style="stop-color:#005EFF"/>
		</linearGradient>
		<polygon class="st130" points="619.8,564.6 619.7,396.5 663.4,371.2 663.4,539.4 		"/>
		
			<linearGradient id="SVGID_128_" gradientUnits="userSpaceOnUse" x1="707.13" y1="1294.932" x2="750.84" y2="1294.932" gradientTransform="matrix(1 0 0 -1 0 1762.844)">
			<stop  offset="0" style="stop-color:#6AAEFF"/>
			<stop  offset="1" style="stop-color:#005EFF"/>
		</linearGradient>
		<polygon class="st131" points="707.1,514.2 707.1,446.9 750.8,421.7 750.8,488.9 		"/>
		
			<linearGradient id="SVGID_129_" gradientUnits="userSpaceOnUse" x1="541.08" y1="1114.962" x2="573.79" y2="1114.962" gradientTransform="matrix(1 0 0 -1 0 1762.844)">
			<stop  offset="0" style="stop-color:#6AAEFF"/>
			<stop  offset="1" style="stop-color:#005EFF"/>
		</linearGradient>
		<polygon class="st132" points="541.1,647.9 541.1,666.8 573.8,647.9 573.8,629 		"/>
		
			<linearGradient id="SVGID_130_" gradientUnits="userSpaceOnUse" x1="634.3" y1="1167.8521" x2="667.01" y2="1167.8521" gradientTransform="matrix(1 0 0 -1 0 1762.844)">
			<stop  offset="0" style="stop-color:#F22AFF"/>
			<stop  offset="1" style="stop-color:#6C00E9"/>
		</linearGradient>
		<polygon class="st133" points="634.3,595 634.3,613.9 667,595 667,576.1 		"/>
		
			<linearGradient id="SVGID_131_" gradientUnits="userSpaceOnUse" x1="727.53" y1="1212.252" x2="760.23" y2="1212.252" gradientTransform="matrix(1 0 0 -1 0 1762.844)">
			<stop  offset="0" style="stop-color:#FF0007"/>
			<stop  offset="1" style="stop-color:#FFAAAC"/>
		</linearGradient>
		<polygon class="st134" points="727.5,550.6 727.5,569.5 760.2,550.6 760.2,531.7 		"/>
	</g>
</g>
</svg>
