<svg xmlns="http://www.w3.org/2000/svg" viewBox="0 0 318 307.36"><defs><style>.cls-1{fill:#3a3a3a;}.cls-2{fill:#b3b3b3;}.cls-3{fill:#f2f2f0;}.cls-4{fill:#424240;}.cls-5{fill:#dcdcdc;}.cls-6{fill:#d7d7dd;}.cls-7{fill:#ffae5e;}.cls-8{fill:#ff924d;}.cls-9{fill:#fff;}</style></defs><title>404 - hole</title><g id="Layer_2" data-name="Layer 2"><g id="BACKGROUND2"><path class="cls-1" d="M169.07,279.69c-23.77-3.2-52.48-.42-64.14,6.2s-1.83,14.58,21.93,17.78,52.48.42,64.14-6.2S192.84,282.89,169.07,279.69Z"/><path class="cls-2" d="M104.93,290c11.65-6.62,40.37-9.4,64.14-6.2,14.62,2,24,5.74,26.27,9.89,3.17-5.62-6.94-11.37-26.27-14-23.77-3.2-52.48-.42-64.14,6.2-4.49,2.55-5.78,5.29-4.33,7.89A11.1,11.1,0,0,1,104.93,290Z"/><path class="cls-3" d="M264.86,190l-67.51.91L198,211l-59,12,15,8-11,16,39,14-14,18.54L148.64,305c-1.09,0-2.17,0-3.25,0l15.91-26.11L171,263l-39-12,8-16-30-15,59-17-18.62-11.46L41.69,193,17,40,277,15ZM285,33,273,174,291,36ZM9,49,5,55l17,52ZM239,0,75,25,241,10ZM21.13,177,24,185h7l-1.55-8ZM18,118H0l17.91,50H27.7Zm269,1h7l2.87-8h-8.31Zm13-67-9.7,50h9.79L318,52Z"/><path class="cls-4" d="M108.91,150.53h-4.28l-1.07-1.07,0-19.26-1.07-1.07L65,129.22l-1.07-1.07v-4.28L65,121.73l36.28-45,2.14-1.07h5.35l1.07,1.07.16,72.76ZM103.42,84.2h-1.07L71.4,122.79v1.07l31-.07,1.07-1.07Z"/><path class="cls-4" d="M148.5,151.51c-16,0-25.7-10.64-25.76-38.46s9.55-38.54,25.6-38.57,25.7,10.65,25.76,38.46S164.54,151.48,148.5,151.51Zm-.15-71.69c-11.77,0-19.24,8.6-19.19,33.21s7.56,33.15,19.33,33.13,19.24-8.6,19.19-33.21S160.11,79.8,148.34,79.82Z"/><path class="cls-4" d="M226.59,150.27h-4.28l-1.07-1.07,0-19.26-1.07-1.07-37.45.08-1.07-1.07v-4.28l1.07-2.14,36.28-45,2.14-1.07h5.35l1.07,1.07.16,72.76ZM221.1,83.95H220l-30.94,38.58v1.07l31-.07,1.07-1.07Z"/><path class="cls-5" d="M122.92,66.49l-11.73,0-.26-.26,0-17.73.26-.26,11.73,0,.26.26v1.83l-.26.26-9.13,0-.26.26v5l.26.26,8.61,0,.26.26v1.83l-.26.26-8.61,0-.26.26V63.9l.26.26,9.13,0,.26.26v1.83Z"/><path class="cls-5" d="M135.93,58.38v.26l3.66,5.73v1.83l-.26.26h-1l-.52-.26-4.71-7.29-.52-.26h-2.87l-.26.26,0,7.3-.26.26h-2.09l-.26-.26,0-17.73.26-.26h6.78c3.65,0,6,1.55,6,5.2A4.64,4.64,0,0,1,135.93,58.38Zm-2.1-7.82h-4.17l-.26.26V56l.26.26h4.17c2.35,0,3.39-.79,3.38-2.88S136.18,50.55,133.83,50.56Z"/><path class="cls-5" d="M151.84,58.34v.26l3.66,5.73v1.83l-.26.26h-1l-.52-.26L149,58.87l-.52-.26h-2.87l-.26.26,0,7.3-.26.26H143l-.26-.26,0-17.73.26-.26h6.78c3.65,0,6,1.55,6,5.2A4.64,4.64,0,0,1,151.84,58.34Zm-2.1-7.82h-4.17l-.26.26V56l.26.26h4.17c2.35,0,3.39-.79,3.38-2.88S152.08,50.52,149.74,50.52Z"/><path class="cls-5" d="M164.63,66.66c-4.43,0-6.79-3.11-6.8-9.37s2.33-9.39,6.76-9.4h.26c4.43,0,6.79,3.11,6.8,9.37s-2.33,9.39-6.76,9.4Zm.26-2.35c2.87,0,4.17-2.36,4.16-7s-1.32-7-4.19-7h-.26c-2.87,0-4.17,2.36-4.16,7s1.32,7,4.19,7Z"/><path class="cls-5" d="M183.65,58.27v.26l3.66,5.73v1.83l-.26.26h-1l-.52-.26-4.71-7.29-.52-.26h-2.87l-.26.26,0,7.3-.26.26H174.8l-.26-.26,0-17.73.26-.26h6.78c3.65,0,6,1.55,6,5.2A4.64,4.64,0,0,1,183.65,58.27Zm-2.1-7.82h-4.17l-.26.26v5.22l.26.26h4.17c2.35,0,3.39-.79,3.38-2.88S183.89,50.45,181.54,50.45Z"/><path class="cls-6" d="M73.67,294.91c7.9,4.31,1.24,9.5-14.87,11.58s-35.58.27-43.48-4-1.24-9.5,14.87-11.58S65.77,290.6,73.67,294.91Z"/><path class="cls-7" d="M77,296.74l-.55-2.39a2.32,2.32,0,0,1,.06.57,2.32,2.32,0,0,0-.06-.57,4.68,4.68,0,0,0-1.16-2.1,5.6,5.6,0,0,0-.41-.41c-.25-.22-.6-.5-.87-.71s-.79-.52-1.14-.73-1.06-.55-1.53-.77-.94-.41-1.35-.56c-.8-.29-1.87-.63-2.68-.88-.52-.16-1.23-.33-1.76-.46-1.2-.3-3.12-.66-3.57-.74s-1.35-.23-1.93-.31c-1.21-.16-2.82-.37-4-.49a101.26,101.26,0,0,0-10.91-.44c-1.62,0-1.62,0-4.47.16-.66,0-1.55.11-2.21.16s-2,.17-4.36.47c-.19,0-1.88.24-3.93.64-1,.2-2.4.52-3.42.78a31.68,31.68,0,0,0-4.51,1.53,16.29,16.29,0,0,0-2.13,1.1,9.55,9.55,0,0,0-1.6,1.22,6.13,6.13,0,0,0-.62.68,5.18,5.18,0,0,0-.41.61,4.29,4.29,0,0,0-.28.57,3.81,3.81,0,0,0-.17.55,2.33,2.33,0,0,0,0,.29,2.34,2.34,0,0,1,0-.29l-.56,2.38c-.33,1.42.63,2.88,3,4.25,7.37,4.19,25.54,5.95,40.57,3.92C71.46,303.28,77.78,300,77,296.74Z"/><path class="cls-8" d="M72.15,290.27c6.87,3.91,1.08,8.6-12.94,10.49s-31,.25-37.83-3.66-1.08-8.6,12.94-10.49S65.27,286.36,72.15,290.27Zm-7,.94c-5-2.83-17.26-4-27.42-2.65s-14.36,4.77-9.38,7.6,17.26,4,27.42,2.65,14.36-4.77,9.38-7.6"/><path class="cls-8" d="M52.23,240.49a2.88,2.88,0,0,0-1.39-1.69,6.32,6.32,0,0,0-2.45-.71,13.23,13.23,0,0,0-3.22,0,5.64,5.64,0,0,0-2.51.83,3,3,0,0,0-.76.73,2.69,2.69,0,0,0-.39.81c-.07.26.09.53.53.78,1.31.74,4.53,1.06,7.2.7C51.27,241.67,52.39,241.08,52.23,240.49Z"/><path class="cls-7" d="M26.34,293.2l1.52-5.27.76-2.64L30.13,280l1.52-5.27.76-2.64,1.52-5.27,1.52-5.27.76-2.64,1.52-5.27,1.52-5.27.76-2.64,1.52-5.27c-.07.26.09.53.53.78,1.31.74,4.53,1.06,7.2.7,2-.27,3.16-.86,3-1.45h0l1.5,5.28,1.5,5.28,1.5,5.28,1.5,5.28,1.5,5.28,1.5,5.28L62,274.8l1.5,5.28,1.5,5.28L65.7,288l1.5,5.28c.64,2.26-3.64,4.49-11.41,5.54-10.16,1.37-22.43.18-27.42-2.65C26.69,295.2,26.05,294.19,26.34,293.2Z"/><path class="cls-9" d="M59.15,264.92c.39,1.36-2.2,2.71-6.89,3.34-6.14.83-13.55.11-16.56-1.6-1-.58-1.4-1.19-1.23-1.79L36,259.6l.76-2.64,1-3.64c-.13.44.16.89.9,1.31,2.2,1.25,7.63,1.78,12.13,1.17,3.44-.46,5.33-1.45,5-2.45l1.5,5.28.75,2.64,1,3.65"/><path class="cls-9" d="M65.13,286c.58,2-3.27,4-10.25,5-9.13,1.23-20.16.16-24.63-2.38-1.51-.86-2.08-1.77-1.83-2.66l1.52-5.27L30.7,278l1-3.64c-.21.73.26,1.48,1.5,2.18,3.67,2.09,12.72,3,20.2,2,5.72-.77,8.88-2.42,8.41-4.08L65.13,286"/><polygon class="cls-7" points="76.47 294.35 76.48 294.35 76.47 294.35 76.47 294.35"/><path class="cls-6" d="M267.81,290.87c16.11,2.08,22.77,7.27,14.87,11.58s-27.37,6.12-43.48,4-22.77-7.27-14.87-11.58S251.69,288.79,267.81,290.87Z"/><path class="cls-7" d="M221,296.74l.55-2.39a2.32,2.32,0,0,0-.06.57,2.32,2.32,0,0,1,.06-.57,4.68,4.68,0,0,1,1.16-2.1,5.6,5.6,0,0,1,.41-.41c.25-.22.6-.5.87-.71s.79-.52,1.14-.73,1.06-.55,1.53-.77.94-.41,1.35-.56c.8-.29,1.87-.63,2.68-.88.52-.16,1.23-.33,1.76-.46,1.2-.3,3.12-.66,3.57-.74s1.35-.23,1.93-.31c1.21-.16,2.82-.37,4-.49a101.26,101.26,0,0,1,10.91-.44c1.62,0,1.62,0,4.47.16.66,0,1.55.11,2.21.16s2,.17,4.36.47c.19,0,1.88.24,3.93.64,1,.2,2.4.52,3.42.78a31.68,31.68,0,0,1,4.51,1.53,16.29,16.29,0,0,1,2.13,1.1,9.55,9.55,0,0,1,1.6,1.22,6.13,6.13,0,0,1,.62.68,5.18,5.18,0,0,1,.41.61,4.29,4.29,0,0,1,.28.57,3.81,3.81,0,0,1,.17.55,2.33,2.33,0,0,1,0,.29,2.34,2.34,0,0,0,0-.29l.56,2.38c.33,1.42-.63,2.88-3,4.25-7.37,4.19-25.54,5.95-40.57,3.92C226.54,303.28,220.22,300,221,296.74Z"/><path class="cls-8" d="M263.68,286.61c14,1.89,19.81,6.58,12.94,10.49s-23.81,5.54-37.83,3.66-19.81-6.58-12.94-10.49S249.66,284.73,263.68,286.61Zm-30.84,4.6c-5,2.83-.78,6.23,9.38,7.6s22.44.18,27.42-2.65.78-6.23-9.38-7.6-22.43-.18-27.42,2.65"/><path class="cls-8" d="M245.77,240.49a2.88,2.88,0,0,1,1.39-1.69,6.32,6.32,0,0,1,2.45-.71,13.23,13.23,0,0,1,3.22,0,5.64,5.64,0,0,1,2.51.83,3,3,0,0,1,.76.73,2.69,2.69,0,0,1,.39.81c.07.26-.09.53-.53.78-1.31.74-4.53,1.06-7.2.7C246.73,241.67,245.61,241.08,245.77,240.49Z"/><path class="cls-7" d="M271.67,293.2l-1.52-5.27-.76-2.64L267.87,280l-1.52-5.27-.76-2.64-1.52-5.27-1.52-5.27-.76-2.64-1.52-5.27-1.52-5.27-.76-2.64-1.52-5.27c.07.26-.09.53-.53.78-1.31.74-4.53,1.06-7.2.7-2-.27-3.16-.86-3-1.45h0l-1.5,5.28-1.5,5.28-1.5,5.28-1.5,5.28-1.5,5.28-1.5,5.28L236,274.8l-1.5,5.28-1.5,5.28L232.3,288l-1.5,5.28c-.64,2.26,3.64,4.49,11.41,5.54,10.16,1.37,22.44.18,27.42-2.65C271.31,295.2,271.95,294.19,271.67,293.2Z"/><path class="cls-9" d="M238.85,264.92c-.39,1.36,2.2,2.71,6.89,3.34,6.14.83,13.55.11,16.56-1.6,1-.58,1.4-1.19,1.23-1.79L262,259.6l-.76-2.64-1-3.64c.13.44-.16.89-.9,1.31-2.2,1.25-7.63,1.78-12.13,1.17-3.44-.46-5.33-1.45-5-2.45l-1.5,5.28-.75,2.64-1,3.65"/><path class="cls-9" d="M232.87,286c-.58,2,3.27,4,10.25,5,9.13,1.23,20.16.16,24.63-2.38,1.51-.86,2.08-1.77,1.83-2.66l-1.52-5.27L267.3,278l-1-3.64c.21.73-.26,1.48-1.5,2.18-3.67,2.09-12.72,3-20.2,2-5.72-.77-8.88-2.42-8.41-4.08L232.87,286"/><polygon class="cls-7" points="221.53 294.35 221.52 294.35 221.53 294.35 221.53 294.35"/></g></g></svg>