<svg xmlns="http://www.w3.org/2000/svg" viewBox="0 0 202.49 152.45"><defs><style>.cls-1{fill:#fff;}.cls-2{fill:#16110d;}.cls-3{fill:#f2f2f0;}.cls-4{fill:#15100c;}.cls-5{fill:#140f0c;}</style></defs><title>commercial_vehicles_icon</title><g id="Layer_2" data-name="Layer 2"><g id="content"><g id="_Group_" data-name="&lt;Group&gt;"><g id="_Group_2" data-name="&lt;Group&gt;"><g id="_Group_3" data-name="&lt;Group&gt;"><g id="_Group_4" data-name="&lt;Group&gt;"><polygon id="_Path_" data-name="&lt;Path&gt;" class="cls-1" points="114.02 63.13 106.25 58.63 115.73 57.37 116.84 59.2 114.02 63.13"/><path id="_Compound_Path_" data-name="&lt;Compound Path&gt;" class="cls-2" d="M113.85,63.51l-8.32-5,10.33-1.38,1.27,2.11ZM107,58.77,113.82,63l2.74-3.81-.95-1.57Z"/></g><g id="_Group_5" data-name="&lt;Group&gt;"><g id="_Group_6" data-name="&lt;Group&gt;"><path id="_Path_2" data-name="&lt;Path&gt;" class="cls-1" d="M107.1,73.09a7.75,7.75,0,0,1-3.81-1.23,15,15,0,0,1-3.58-2.61c-.59-.74,3.13-7.16,3.13-7.16l2.71-4.23s4.2,1.5,6.09,3.51S109.3,69,109.3,69Z"/></g><g id="_Group_7" data-name="&lt;Group&gt;"><path id="_Compound_Path_2" data-name="&lt;Compound Path&gt;" class="cls-2" d="M113,63.83a3.76,3.76,0,0,0-1.22-2.57h0c-1.9-2-6-3.49-6.16-3.55l-.13,0L102.68,62c-.89,1.53-3.73,6.58-3.12,7.35A14.06,14.06,0,0,0,103,71.89l.18.11a8.33,8.33,0,0,0,3.2,1.2,2.52,2.52,0,0,0,.57.07h.24a4.24,4.24,0,0,0,2.12-.9A10.28,10.28,0,0,0,113,63.83Zm-9.81,7.76a14,14,0,0,1-3.35-2.45c-.31-.4,1.39-3.92,3.14-7l2.63-4.11a21.83,21.83,0,0,1,5.09,2.69,3.69,3.69,0,0,0-2.82.86,10.28,10.28,0,0,0-3.68,8.53,3.94,3.94,0,0,0,1,2.42,8.1,8.1,0,0,1-1.88-.87Z"/></g><g id="_Group_8" data-name="&lt;Group&gt;"><g id="_Group_9" data-name="&lt;Group&gt;"><path id="_Compound_Path_3" data-name="&lt;Compound Path&gt;" class="cls-1" d="M107.43,71.56a1.8,1.8,0,0,1-.72-.15,2.47,2.47,0,0,1-1.31-2.13,7.45,7.45,0,0,1,2.66-6.18,2.17,2.17,0,0,1,3.75,1.62,7.45,7.45,0,0,1-2.66,6.18A3,3,0,0,1,107.43,71.56Zm2.36-8.77a2.61,2.61,0,0,0-1.52.59,7.05,7.05,0,0,0-2.52,5.85,1.82,1.82,0,0,0,3.19,1.37,7.05,7.05,0,0,0,2.52-5.85,2.14,2.14,0,0,0-1.09-1.85A1.46,1.46,0,0,0,109.79,62.79Z"/></g></g><g id="_Group_10" data-name="&lt;Group&gt;"><g id="_Group_11" data-name="&lt;Group&gt;"><path id="_Compound_Path_4" data-name="&lt;Compound Path&gt;" class="cls-1" d="M107.43,71.55a1.76,1.76,0,0,1-1.09-.37L106,70.9l.41,0a2.73,2.73,0,0,0,1.41-.59,7.05,7.05,0,0,0,2.52-5.85,2.39,2.39,0,0,0-.8-1.67l-.33-.25.42-.07c1.17-.07,2,.8,2.16,2.28a7.44,7.44,0,0,1-2.66,6.18A3,3,0,0,1,107.43,71.55Zm-.46-.42a2.21,2.21,0,0,0,2-.52,7.05,7.05,0,0,0,2.52-5.85h0c-.12-1.06-.62-1.76-1.33-1.93a3.09,3.09,0,0,1,.58,1.56A7.45,7.45,0,0,1,108,70.57,3.51,3.51,0,0,1,107,71.13Z"/></g></g><g id="_Group_12" data-name="&lt;Group&gt;"><path id="_Path_3" data-name="&lt;Path&gt;" class="cls-3" d="M110.2,66.19A3.47,3.47,0,0,1,109,69.07c-.8.6-1.55.28-1.67-.72a3.47,3.47,0,0,1,1.24-2.89C109.33,64.87,110.08,65.19,110.2,66.19Z"/></g></g><g id="_Group_13" data-name="&lt;Group&gt;"><g id="_Group_14" data-name="&lt;Group&gt;"><polygon id="_Path_4" data-name="&lt;Path&gt;" class="cls-1" points="126.4 48.77 51.28 92.14 23.07 75.86 98.19 32.49 126.4 48.77"/><polygon id="_Path_5" data-name="&lt;Path&gt;" class="cls-3" points="126.5 51.02 112.9 58.87 111.06 58.52 105.37 61.69 103.12 64.52 51.38 94.39 23.18 78.1 98.3 34.73 126.5 51.02"/><path id="_Compound_Path_5" data-name="&lt;Compound Path&gt;" class="cls-2" d="M51.28,92.42,22.59,75.86l.36-.21L98.19,32.21l.12.07,28.33,16.36ZM23.55,75.86l27.73,16,74.64-43.09-27.73-16Z"/></g><g id="_Group_15" data-name="&lt;Group&gt;"><path id="_Path_6" data-name="&lt;Path&gt;" class="cls-4" d="M126.4,48.77,55.09,89.94v5L93.56,72.62l3,.69L102,70.13l1-3a11.9,11.9,0,0,1,5.6-7.15c2.79-1.61,4.24-.53,5,1l.41,2.18,5.92-3.47,2.33-3.75,4.13-2.36Z"/><path id="_Compound_Path_6" data-name="&lt;Compound Path&gt;" class="cls-2" d="M54.85,95.36V89.81l.12-.07,71.67-41.1v5l-4.2,2.4-2.33,3.75-6.26,3.68L113.38,61a2.75,2.75,0,0,0-1.61-1.51,4,4,0,0,0-3,.67,11.72,11.72,0,0,0-5.49,7l-1,3.08-5.65,3.27-3-.69Zm.48-5.28v4.45L93.52,72.36l3,.69L101.84,70l.94-2.9a12.19,12.19,0,0,1,5.71-7.29,4.4,4.4,0,0,1,3.41-.72,3.23,3.23,0,0,1,1.92,1.79l0,.06.35,1.84,5.58-3.27,2.33-3.75,4.06-2.32V49.19Z"/></g></g><g id="_Group_16" data-name="&lt;Group&gt;"><path id="_Path_7" data-name="&lt;Path&gt;" class="cls-1" d="M126.4,52.27l-3.44,2a.58.58,0,0,1-.87-.5v-.44a1.31,1.31,0,0,1,.66-1.14l3.65-2.11Z"/><path id="_Compound_Path_7" data-name="&lt;Compound Path&gt;" class="cls-2" d="M122.67,54.57a.82.82,0,0,1-.82-.82v-.44a1.55,1.55,0,0,1,.78-1.34l4-2.31v2.75l-3.56,2.05A.82.82,0,0,1,122.67,54.57Zm3.49-4.08-3.29,1.9a1.07,1.07,0,0,0-.54.93v.44a.34.34,0,0,0,.51.29l3.32-1.92Z"/></g><g id="_Group_17" data-name="&lt;Group&gt;"><path id="_Compound_Path_8" data-name="&lt;Compound Path&gt;" class="cls-1" d="M97.14,71.32a.56.56,0,0,1-.28-.07.79.79,0,0,1-.34-.72v-.24a1.76,1.76,0,0,1,.75-1.42l2.23-1.29a.65.65,0,0,1,.66,0,.79.79,0,0,1,.34.72v.24a1.76,1.76,0,0,1-.75,1.42l-2.23,1.29A.75.75,0,0,1,97.14,71.32Zm2.74-3.37a.3.3,0,0,0-.13,0l-2.23,1.29a1.3,1.3,0,0,0-.51,1v.24c0,.18.05.28.1.31s.14,0,.17,0l2.23-1.29a1.3,1.3,0,0,0,.51-1v-.24c0-.18-.05-.28-.1-.31Z"/></g></g><g id="_Group_18" data-name="&lt;Group&gt;"><g id="_Group_19" data-name="&lt;Group&gt;"><polygon id="_Path_8" data-name="&lt;Path&gt;" class="cls-4" points="122.55 49.42 60.05 85.38 60.05 52.14 121.46 16.81 122.55 25.49 122.55 49.42"/><polygon id="_Path_9" data-name="&lt;Path&gt;" class="cls-1" points="33.58 70.22 60.05 85.38 60.05 52.14 33.58 36.99 33.58 70.22"/><g id="_Group_20" data-name="&lt;Group&gt;"><polygon id="_Path_10" data-name="&lt;Path&gt;" class="cls-1" points="94.99 1.66 121.46 16.81 60.05 52.14 33.58 36.99 94.99 1.66"/><polygon id="_Path_11" data-name="&lt;Path&gt;" class="cls-3" points="94.99 2.14 120.95 17 60.05 52.02 60.05 52.62 33.58 37.47 94.99 2.14"/><path id="_Compound_Path_9" data-name="&lt;Compound Path&gt;" class="cls-2" d="M60.27,85.51l62.5-36V25.46l-1.1-8.78L95,1.4,33.35,36.86v33.5L59.82,85.51l.22.13ZM122.32,49.3,60.27,85V52.27l61-35.09,1,8.31ZM95,1.92l26,14.89-60.94,35,0,0L34,37ZM33.8,70.1V37.37l26,14.89V85Z"/></g></g><g id="_Group_21" data-name="&lt;Group&gt;"><path id="_Path_12" data-name="&lt;Path&gt;" class="cls-3" d="M58.37,85.17l-2-1.17V54.15a.48.48,0,0,1,.72-.41l.68.39a1.28,1.28,0,0,1,.64,1.11Z"/><path id="_Compound_Path_10" data-name="&lt;Compound Path&gt;" class="cls-2" d="M57.86,84.36l-2.48-1.43V53a.7.7,0,0,1,1.06-.61l.68.39a1.51,1.51,0,0,1,.75,1.3Zm-2-1.69,1.59.92V54a1.06,1.06,0,0,0-.53-.91l-.68-.39a.25.25,0,0,0-.38.22Z"/></g><g id="_Group_22" data-name="&lt;Group&gt;"><path id="_Path_13" data-name="&lt;Path&gt;" class="cls-3" d="M38.38,73.75l-2-1.17V42.73a.48.48,0,0,1,.72-.42l.68.39a1.28,1.28,0,0,1,.64,1.11Z"/><path id="_Compound_Path_11" data-name="&lt;Compound Path&gt;" class="cls-2" d="M37.86,72.94l-2.48-1.43v-30a.7.7,0,0,1,1.06-.61l.68.39a1.51,1.51,0,0,1,.75,1.3Zm-2-1.69,1.59.92V42.61a1.06,1.06,0,0,0-.53-.91l-.68-.39a.25.25,0,0,0-.38.22Z"/></g></g><g id="_Group_23" data-name="&lt;Group&gt;"><g id="_Group_24" data-name="&lt;Group&gt;"><polygon id="_Path_14" data-name="&lt;Path&gt;" class="cls-1" points="43.71 103.29 32.77 96.73 45.32 95.11 45.32 101.31 43.71 103.29"/><path id="_Compound_Path_12" data-name="&lt;Compound Path&gt;" class="cls-2" d="M43.76,103.6l-11.71-7,13.51-1.75v6.56ZM33.49,96.88,43.65,103l1.43-1.75V95.38Z"/></g><g id="_Group_25" data-name="&lt;Group&gt;"><g id="_Group_26" data-name="&lt;Group&gt;"><path id="_Path_15" data-name="&lt;Path&gt;" class="cls-1" d="M36.16,111.92a7.75,7.75,0,0,1-3.81-1.23,15,15,0,0,1-3.58-2.61c-.58-.74,3.13-7.16,3.13-7.16l2.71-4.23s4.2,1.5,6.09,3.51-2.34,7.58-2.34,7.58Z"/></g><g id="_Group_27" data-name="&lt;Group&gt;"><path id="_Compound_Path_13" data-name="&lt;Compound Path&gt;" class="cls-2" d="M42.06,102.67a3.76,3.76,0,0,0-1.22-2.57h0c-1.9-2-6-3.49-6.16-3.55l-.13,0-2.79,4.36c-.89,1.53-3.73,6.58-3.12,7.35a14.07,14.07,0,0,0,3.44,2.53l.18.11a8.33,8.33,0,0,0,3.2,1.2,2.52,2.52,0,0,0,.57.07h.24a4.24,4.24,0,0,0,2.12-.9A10.28,10.28,0,0,0,42.06,102.67Zm-9.81,7.76A14,14,0,0,1,28.9,108c-.31-.4,1.39-3.92,3.14-7l2.63-4.11a21.83,21.83,0,0,1,5.09,2.69,3.69,3.69,0,0,0-2.82.86A10.28,10.28,0,0,0,33.27,109a3.94,3.94,0,0,0,1,2.42,8.11,8.11,0,0,1-1.88-.87Z"/></g><g id="_Group_28" data-name="&lt;Group&gt;"><g id="_Group_29" data-name="&lt;Group&gt;"><path id="_Compound_Path_14" data-name="&lt;Compound Path&gt;" class="cls-1" d="M36.48,110.39a1.8,1.8,0,0,1-.72-.15,2.47,2.47,0,0,1-1.31-2.14,7.45,7.45,0,0,1,2.66-6.18,2.17,2.17,0,0,1,3.75,1.62,7.45,7.45,0,0,1-2.66,6.18A3,3,0,0,1,36.48,110.39Zm2.36-8.77a2.61,2.61,0,0,0-1.52.59,7.05,7.05,0,0,0-2.52,5.85,2.14,2.14,0,0,0,1.09,1.85,2.14,2.14,0,0,0,2.1-.48,7.05,7.05,0,0,0,2.52-5.85,2.14,2.14,0,0,0-1.09-1.85A1.46,1.46,0,0,0,38.85,101.62Z"/></g></g><g id="_Group_30" data-name="&lt;Group&gt;"><g id="_Group_31" data-name="&lt;Group&gt;"><path id="_Compound_Path_15" data-name="&lt;Compound Path&gt;" class="cls-1" d="M36.48,110.39a1.76,1.76,0,0,1-1.09-.37l-.31-.29.41,0a2.73,2.73,0,0,0,1.41-.59,7.05,7.05,0,0,0,2.52-5.85,2.39,2.39,0,0,0-.8-1.67l-.33-.25.42-.07c1.17-.07,2,.8,2.16,2.28a7.45,7.45,0,0,1-2.66,6.18A3,3,0,0,1,36.48,110.39ZM36,110a2.21,2.21,0,0,0,2-.52,7.05,7.05,0,0,0,2.52-5.85h0c-.12-1.06-.62-1.76-1.33-1.93a3.09,3.09,0,0,1,.58,1.56,7.45,7.45,0,0,1-2.66,6.18A3.51,3.51,0,0,1,36,110Z"/></g></g><g id="_Group_32" data-name="&lt;Group&gt;"><path id="_Path_16" data-name="&lt;Path&gt;" class="cls-3" d="M39.25,105A3.47,3.47,0,0,1,38,107.9c-.8.6-1.55.28-1.67-.72a3.47,3.47,0,0,1,1.24-2.89C38.39,103.7,39.14,104,39.25,105Z"/></g></g><g id="_Group_33" data-name="&lt;Group&gt;"><path id="_Path_17" data-name="&lt;Path&gt;" class="cls-1" d="M31.58,53l-.09-.05h0l-.05,0a1.17,1.17,0,0,0-1,.15L20.13,59a5,5,0,0,0-1.92,2.3L12,74.46a5.38,5.38,0,0,1-1.23,1.78L2.4,83.66a4.25,4.25,0,0,0-1.33,2.86V97.83c0,1,.73,1.46,1.63.94l1-.55L24.15,110l4.31-1.42,4.31-11.89L54.53,66.11Z"/><path id="_Path_18" data-name="&lt;Path&gt;" class="cls-3" d="M31.58,55.63l-.09-.05h0l-.05,0a1.17,1.17,0,0,0-1,.15L20.13,61.66A5,5,0,0,0,18.21,64L12,77.13a5.38,5.38,0,0,1-1.23,1.78L2.4,86.34a4.25,4.25,0,0,0-1.33,2.86V100.5c0,1,.73,1.46,1.63.94l1-.55,20.51,11.83,4.31-1.42,4.31-11.89L54.53,68.78Z"/><path id="_Compound_Path_16" data-name="&lt;Compound Path&gt;" class="cls-2" d="M24.13,110.31,3.65,98.49,2.82,99a1.37,1.37,0,0,1-1.39.11,1.37,1.37,0,0,1-.6-1.26V86.52a4.48,4.48,0,0,1,1.4-3l8.35-7.43a5.14,5.14,0,0,0,1.17-1.7L18,61.18a5.17,5.17,0,0,1,2-2.41L30.3,52.83a1.37,1.37,0,0,1,1.23-.16l0,0,.13.07L54.88,66,33,96.84l-4.34,12ZM3.65,97.94l20.53,11.85,4.09-1.35,4.3-11.84L54.18,66.18l-22.73-13-.06,0h0a.93.93,0,0,0-.81.13L20.25,59.19a4.68,4.68,0,0,0-1.81,2.19L12.19,74.56a5.63,5.63,0,0,1-1.28,1.86L2.56,83.84a4,4,0,0,0-1.25,2.68V97.83a.92.92,0,0,0,.36.84.92.92,0,0,0,.91-.11Z"/></g><g id="_Group_34" data-name="&lt;Group&gt;"><path id="_Path_19" data-name="&lt;Path&gt;" class="cls-4" d="M24.15,99.74v11.31c0,1,.73,1.46,1.63.94L30,109.54a3.61,3.61,0,0,0,1.57-2.37,12.05,12.05,0,0,1,5.93-8.57c4-2.32,5.26.94,5.64,3,.15.84.86,1.1,1.68.62l8.24-3.82a4.43,4.43,0,0,0,2-3.47V67.18c0-1-.71-1.42-1.58-.91L43.21,72.2a5,5,0,0,0-1.92,2.3L35,87.68a5.38,5.38,0,0,1-1.23,1.78l-8.34,7.42A4.25,4.25,0,0,0,24.15,99.74Z"/><path id="_Compound_Path_17" data-name="&lt;Compound Path&gt;" class="cls-2" d="M25.05,112.45a1.07,1.07,0,0,1-.54-.14,1.37,1.37,0,0,1-.6-1.26V99.74a4.48,4.48,0,0,1,1.4-3l8.35-7.43a5.15,5.15,0,0,0,1.17-1.7l6.25-13.18a5.16,5.16,0,0,1,2-2.41l10.29-5.94a1.2,1.2,0,0,1,1.95,1.12V94.95a4.7,4.7,0,0,1-2.13,3.68l-8.26,3.83a1.47,1.47,0,0,1-1.35.16,1.24,1.24,0,0,1-.67-1c-.23-1.25-.76-2.86-2-3.42-.86-.4-2-.21-3.32.57a11.76,11.76,0,0,0-5.81,8.4,3.85,3.85,0,0,1-1.69,2.53L25.9,112.2A1.72,1.72,0,0,1,25.05,112.45ZM54.21,66.28a1.21,1.21,0,0,0-.59.18L43.33,72.41a4.68,4.68,0,0,0-1.81,2.19L35.27,87.78A5.64,5.64,0,0,1,34,89.64l-8.35,7.43a4,4,0,0,0-1.25,2.68v11.31a.76.76,0,0,0,1.26.73l4.24-2.45a3.39,3.39,0,0,0,1.45-2.2,12.22,12.22,0,0,1,6-8.74c1.48-.86,2.75-1.05,3.76-.59,1.4.65,2,2.4,2.24,3.77a.79.79,0,0,0,.39.6,1,1,0,0,0,.93-.15L53,98.2a4.17,4.17,0,0,0,1.87-3.26V67.18a.89.89,0,0,0-.34-.82A.58.58,0,0,0,54.21,66.28Z"/></g><g id="_Group_35" data-name="&lt;Group&gt;"><path id="_Compound_Path_18" data-name="&lt;Compound Path&gt;" class="cls-1" d="M45.08,98.09a1.06,1.06,0,0,1-.94-.53c-1.63-2.69-4.23-2-6.13-.86a1.42,1.42,0,0,1-1.44.12A1.4,1.4,0,0,1,36,95.54V89a3.46,3.46,0,0,1,.35-1.45l6-12.67a3.78,3.78,0,0,1,1.44-1.66l7-4a1.25,1.25,0,0,1,2,1.17V91.86A3.91,3.91,0,0,1,50.91,95l-5,2.86A1.76,1.76,0,0,1,45.08,98.09Zm-4-2.85a3.88,3.88,0,0,1,3.43,2.08c.22.36.65.4,1.16.1l5-2.86a3.44,3.44,0,0,0,1.55-2.69V70.35a.79.79,0,0,0-1.31-.76l-7,4a3.34,3.34,0,0,0-1.24,1.45l-6,12.67A3,3,0,0,0,36.45,89v6.57a1,1,0,0,0,.37.87,1,1,0,0,0,1-.12A6.87,6.87,0,0,1,41.13,95.23Z"/></g><g id="_Group_36" data-name="&lt;Group&gt;"><path id="_Compound_Path_19" data-name="&lt;Compound Path&gt;" class="cls-1" d="M38.46,87.65a.58.58,0,0,1-.4-.15A1.09,1.09,0,0,1,38,86.23l5-10.64a3.67,3.67,0,0,1,1.4-1.6l5.92-3.42a.76.76,0,0,1,1.23.71v7.79a2.15,2.15,0,0,1-1,1.71L38.9,87.52A.89.89,0,0,1,38.46,87.65Zm5-11.86-5,10.64c-.18.38-.12.64,0,.71s.22,0,.28,0l11.68-6.74a1.68,1.68,0,0,0,.75-1.3V71.28a.3.3,0,0,0-.51-.29L44.66,74.4a3.24,3.24,0,0,0-1.2,1.39Z"/></g><g id="_Group_37" data-name="&lt;Group&gt;"><path id="_Compound_Path_20" data-name="&lt;Compound Path&gt;" class="cls-1" d="M38.46,87.65a.58.58,0,0,1-.4-.15A1.09,1.09,0,0,1,38,86.23l.18-.39,10.71-6.18a1.68,1.68,0,0,0,.75-1.3V71l.71-.41a.76.76,0,0,1,1.23.71v7.79a2.15,2.15,0,0,1-1,1.71L38.9,87.52A.89.89,0,0,1,38.46,87.65Zm.09-1.47-.12.26c-.18.38-.12.64,0,.71s.22,0,.28,0l11.68-6.74a1.68,1.68,0,0,0,.75-1.3V71.28a.3.3,0,0,0-.51-.29l-.47.27v7.11a2.15,2.15,0,0,1-1,1.71Z"/></g><g id="_Group_38" data-name="&lt;Group&gt;"><path id="_Compound_Path_21" data-name="&lt;Compound Path&gt;" class="cls-1" d="M47.17,87.91a.51.51,0,0,1-.26-.07.76.76,0,0,1-.32-.69,1.75,1.75,0,0,1,.75-1.41L50,84.22a.6.6,0,0,1,.61,0,.76.76,0,0,1,.32.69,1.75,1.75,0,0,1-.75,1.41l-2.64,1.53A.71.71,0,0,1,47.17,87.91Zm3.17-3.44a.37.37,0,0,0-.17.05l-2.64,1.53a1.4,1.4,0,0,0-.57,1.1.43.43,0,0,0,.14.38.27.27,0,0,0,.25,0L50,86a1.4,1.4,0,0,0,.57-1.1.43.43,0,0,0-.14-.38Z"/></g><g id="_Group_39" data-name="&lt;Group&gt;"><path id="_Path_20" data-name="&lt;Path&gt;" class="cls-1" d="M43.24,101.92l.1.75c.14.73.75,1,1.46.54l9-5.22a2.78,2.78,0,0,0,1.26-2.18v-.71Z"/><path id="_Compound_Path_22" data-name="&lt;Compound Path&gt;" class="cls-2" d="M44.13,103.65a1,1,0,0,1-.43-.09,1.11,1.11,0,0,1-.6-.85l-.12-.92,12.34-7.1v1.13A3,3,0,0,1,54,98.2l-9,5.22A1.59,1.59,0,0,1,44.13,103.65ZM43.5,102l.08.59a.65.65,0,0,0,.33.49.87.87,0,0,0,.77-.12l9-5.22a2.56,2.56,0,0,0,1.14-2v-.3Z"/></g><g id="_Group_40" data-name="&lt;Group&gt;"><path id="_Path_21" data-name="&lt;Path&gt;" class="cls-1" d="M24.15,100.45l3.5-2c.57-.33,1,.12.74.86l-.29,1a5.39,5.39,0,0,1-2.24,3l-1.71,1Z"/><path id="_Compound_Path_23" data-name="&lt;Compound Path&gt;" class="cls-2" d="M23.91,104.71v-4.4l3.62-2.08a.76.76,0,0,1,.88,0,1,1,0,0,1,.21,1.14l-.29,1A5.62,5.62,0,0,1,26,103.51Zm.48-4.12v3.29l1.35-.78a5.12,5.12,0,0,0,2.13-2.88l.29-1c.1-.33,0-.55,0-.62s-.27,0-.34,0Z"/></g><g id="_Group_41" data-name="&lt;Group&gt;"><path id="_Path_22" data-name="&lt;Path&gt;" class="cls-1" d="M24.15,114.44l1.11-1.59L24.15,110,5.49,99.28h0L1.08,96.74A2.4,2.4,0,0,0,.27,98.8l.41,1.7a1.08,1.08,0,0,0,.39.64l-.05,0,.16.11Z"/><path id="_Compound_Path_24" data-name="&lt;Compound Path&gt;" class="cls-2" d="M24.22,114.76l-.19-.11L1,101.39l-.1-.07h0a1.33,1.33,0,0,1-.49-.78L0,98.86a2.64,2.64,0,0,1,.89-2.3l.13-.12,4.56,2.63,18.73,10.81,1.19,3ZM1.16,100.9l.14.1,22.78,13.12.91-1.3-1-2.61L1.12,97a2.12,2.12,0,0,0-.62,1.71l.4,1.7A.88.88,0,0,0,1.16,100.9Z"/></g><g id="_Group_42" data-name="&lt;Group&gt;"><path id="_Path_23" data-name="&lt;Path&gt;" class="cls-1" d="M24.47,109.81,32,105.45l-.68,3.95A4,4,0,0,1,29.6,112l-4.12,2.39c-.82.47-1.54.24-1.73-.57l-.41-1.7A2.43,2.43,0,0,1,24.47,109.81Z"/><path id="_Compound_Path_25" data-name="&lt;Compound Path&gt;" class="cls-2" d="M24.69,114.85a1.18,1.18,0,0,1-.47-.09,1.25,1.25,0,0,1-.7-.91l-.41-1.7a2.68,2.68,0,0,1,1.23-2.56l8-4.62-.77,4.46a4.18,4.18,0,0,1-1.84,2.75l-4.12,2.39A1.86,1.86,0,0,1,24.69,114.85Zm7-8.94L24.59,110a2.22,2.22,0,0,0-1,2l.41,1.7a.78.78,0,0,0,.42.58,1.1,1.1,0,0,0,1-.16l4.12-2.39a3.72,3.72,0,0,0,1.6-2.42Z"/></g><g id="_Group_43" data-name="&lt;Group&gt;"><path id="_Path_24" data-name="&lt;Path&gt;" class="cls-1" d="M20,62.65l19.4,11.17a.92.92,0,0,1,.37,1.2L34.84,85.35a.92.92,0,0,1-1.29.41L14,74.85a.92.92,0,0,1-.38-1.2l5-10.59A.92.92,0,0,1,20,62.65Z"/><path id="_Compound_Path_26" data-name="&lt;Compound Path&gt;" class="cls-2" d="M34,86.12a1.17,1.17,0,0,1-.57-.15L13.91,75.06a1.17,1.17,0,0,1-.48-1.51l5-10.59a1.16,1.16,0,0,1,1.63-.51h0l19.4,11.17A1.17,1.17,0,0,1,40,75.13L35.06,85.45a1.16,1.16,0,0,1-1.05.67ZM19.5,62.77a.69.69,0,0,0-.62.39l-5,10.59a.69.69,0,0,0,.28.89l19.53,10.9a.68.68,0,0,0,1-.3l4.89-10.32a.69.69,0,0,0-.28-.89L19.84,62.86A.68.68,0,0,0,19.5,62.77Z"/></g><g id="_Group_44" data-name="&lt;Group&gt;"><path id="_Path_25" data-name="&lt;Path&gt;" class="cls-1" d="M16.6,72.87a.92.92,0,0,1-.38-1.2l4.16-8.77L20,62.65a.92.92,0,0,0-1.3.41l-5,10.59a.92.92,0,0,0,.38,1.2l19.53,10.9a.92.92,0,0,0,1.29-.41l.86-1.82Z"/><path id="_Compound_Path_27" data-name="&lt;Compound Path&gt;" class="cls-2" d="M34,86.12a1.17,1.17,0,0,1-.57-.15L13.91,75.06a1.17,1.17,0,0,1-.48-1.51l5-10.59a1.16,1.16,0,0,1,1.63-.51l.61.35-4.25,9a.69.69,0,0,0,.29.89L36,83.43l-1,2a1.16,1.16,0,0,1-1.05.67ZM19.5,62.77a.69.69,0,0,0-.21,0,.68.68,0,0,0-.41.36l-5,10.59a.69.69,0,0,0,.28.89l19.53,10.9a.68.68,0,0,0,1-.3l.76-1.61L16.49,73.08A1.17,1.17,0,0,1,16,71.56L20.07,63l-.22-.13A.68.68,0,0,0,19.5,62.77Z"/></g><g id="_Group_45" data-name="&lt;Group&gt;"><polygon id="_Path_26" data-name="&lt;Path&gt;" class="cls-1" points="24.15 100.45 1.07 87.07 1.07 90.9 24.15 104.29 24.15 100.45"/><path id="_Compound_Path_28" data-name="&lt;Compound Path&gt;" class="cls-2" d="M24.39,104.71.83,91V86.65l23.56,13.66Zm-23.08-14,22.6,13.12v-3.29L1.31,87.48Z"/></g><g id="_Group_46" data-name="&lt;Group&gt;"><path id="_Path_27" data-name="&lt;Path&gt;" class="cls-1" d="M1.07,87.07V90.9l2.17,1.26A2.87,2.87,0,0,1,3,91.08c0-1,.69-1.38,1.54-.89a3.4,3.4,0,0,1,1.54,2.66,1.27,1.27,0,0,1-.24.81l1.39.81V90.64Z"/><path id="_Path_28" data-name="&lt;Path&gt;" class="cls-3" d="M1.76,88.16V92l2.17,1.26a2.87,2.87,0,0,1-.24-1.08c0-1,.69-1.38,1.54-.89A3.4,3.4,0,0,1,6.77,94a1.27,1.27,0,0,1-.24.81l1.39.81V91.73Z"/><path id="_Compound_Path_29" data-name="&lt;Compound Path&gt;" class="cls-2" d="M7.47,94.9l-2-1.16.18-.22a1,1,0,0,0,.19-.66A3.19,3.19,0,0,0,4.42,90.4a.86.86,0,0,0-.85-.11.86.86,0,0,0-.33.79,2.64,2.64,0,0,0,.22,1l.27.66L.83,91V86.65L7.47,90.5Zm-1.3-1.31.82.48V90.77L1.31,87.48v3.28l1.51.88a2.66,2.66,0,0,1-.06-.56,1.31,1.31,0,0,1,.57-1.2A1.3,1.3,0,0,1,4.66,90a3.61,3.61,0,0,1,1.66,2.87A1.68,1.68,0,0,1,6.17,93.58Z"/></g><g id="_Group_47" data-name="&lt;Group&gt;"><path id="_Path_29" data-name="&lt;Path&gt;" class="cls-1" d="M18,96.88v3.83l1.4.81a3.05,3.05,0,0,1-.37-1.36c0-1,.69-1.38,1.54-.89a3.4,3.4,0,0,1,1.54,2.66,1.12,1.12,0,0,1-.38.94l2.43,1.41v-3.84Z"/><path id="_Path_30" data-name="&lt;Path&gt;" class="cls-3" d="M18.79,98v3.83l1.4.81a3.05,3.05,0,0,1-.37-1.36c0-1,.69-1.38,1.54-.89a3.4,3.4,0,0,1,1.54,2.66,1.12,1.12,0,0,1-.38.94l1.4.86v-3.84Z"/><path id="_Compound_Path_30" data-name="&lt;Compound Path&gt;" class="cls-2" d="M24.39,104.71l-3.1-1.81.29-.22a.91.91,0,0,0,.28-.75,3.19,3.19,0,0,0-1.42-2.45.71.71,0,0,0-1.18.68,2.82,2.82,0,0,0,.35,1.25l.38.73-2.23-1.3V96.46l6.64,3.85Zm-2.29-1.89,1.81,1.05v-3.29L18.24,97.3v3.28l.67.39a2.81,2.81,0,0,1-.12-.8,1.17,1.17,0,0,1,1.9-1.1,3.61,3.61,0,0,1,1.66,2.87A1.55,1.55,0,0,1,22.1,102.82Z"/></g><g id="_Group_48" data-name="&lt;Group&gt;"><path id="_Path_31" data-name="&lt;Path&gt;" class="cls-1" d="M13.93,96.14,11,94.48a1.94,1.94,0,0,1-.81-1.55h0c0-.6.36-.87.81-.61L13.93,94a1.94,1.94,0,0,1,.81,1.55h0C14.74,96.13,14.38,96.4,13.93,96.14Z"/><path id="_Path_32" data-name="&lt;Path&gt;" class="cls-3" d="M14.41,97.29l-2.88-1.67a1.94,1.94,0,0,1-.81-1.55h0c0-.6.36-.87.81-.61l2.88,1.67a1.94,1.94,0,0,1,.81,1.55h0C15.22,97.28,14.86,97.55,14.41,97.29Z"/><path id="_Compound_Path_31" data-name="&lt;Compound Path&gt;" class="cls-2" d="M14.25,96.48a.89.89,0,0,1-.44-.13h0l-2.88-1.67A2.18,2.18,0,0,1,10,92.93a1,1,0,0,1,.4-.86.75.75,0,0,1,.77,0l2.88,1.67A2.18,2.18,0,0,1,15,95.53a1,1,0,0,1-.4.86A.65.65,0,0,1,14.25,96.48Zm-.2-.55a.31.31,0,0,0,.29,0,.52.52,0,0,0,.16-.45,1.71,1.71,0,0,0-.69-1.34l-2.88-1.67a.31.31,0,0,0-.29,0,.52.52,0,0,0-.16.45,1.71,1.71,0,0,0,.69,1.34Z"/></g><g id="_Group_49" data-name="&lt;Group&gt;"><polygon id="_Path_33" data-name="&lt;Path&gt;" class="cls-1" points="45.73 63.31 30.03 54.24 32.79 52.65 48.49 61.72 45.73 63.31"/><polygon id="_Path_34" data-name="&lt;Path&gt;" class="cls-1" points="30.03 54.24 27.98 56.85 46.83 67.73 45.73 63.31 30.03 54.24"/><polygon id="_Path_35" data-name="&lt;Path&gt;" class="cls-3" points="45.73 64.56 30.03 55.49 32.79 53.9 48.49 62.96 45.73 64.56"/><polygon id="_Path_36" data-name="&lt;Path&gt;" class="cls-5" points="45.73 63.31 46.83 67.73 49.73 65.99 48.49 61.72 45.73 63.31"/><g id="_Group_50" data-name="&lt;Group&gt;"><path id="_Compound_Path_32" data-name="&lt;Compound Path&gt;" class="cls-2" d="M50,66.1l-1.32-4.55-15.9-9.18-2.92,1.69-2.25,2.86L46.83,68Zm-3,1.25-1-3.93,2.34-1.35,1.1,3.81ZM30.51,54.25l2.28-1.32L48,61.72,45.73,63,33.89,56.2Zm-2.17,2.54,1.75-2.23,3.46,2,12,6.91.94,3.77Z"/></g></g><g id="_Group_51" data-name="&lt;Group&gt;"><path id="_Path_37" data-name="&lt;Path&gt;" class="cls-1" d="M20.05,108.59,6.58,100.81V99.44c0-1.41.86-2.06,1.92-1.45l9.64,5.57a4.59,4.59,0,0,1,1.92,3.66Z"/><path id="_Compound_Path_33" data-name="&lt;Compound Path&gt;" class="cls-2" d="M19.27,107.49l-14-8.05V97.92a1.93,1.93,0,0,1,.78-1.76,1.46,1.46,0,0,1,1.49.1l9.64,5.57a4.78,4.78,0,0,1,2,3.87ZM5.79,99.15l13,7.5v-1a4.33,4.33,0,0,0-1.8-3.45L7.35,96.68a1,1,0,0,0-1-.1,1.49,1.49,0,0,0-.54,1.34Z"/></g><g id="_Group_52" data-name="&lt;Group&gt;"><polygon id="_Path_38" data-name="&lt;Path&gt;" class="cls-1" points="1.07 90.9 1.07 92.64 24.15 105.94 24.15 104.29 1.07 90.9"/><path id="_Compound_Path_34" data-name="&lt;Compound Path&gt;" class="cls-2" d="M24.39,106.35.83,92.78v-2.3l23.56,13.67ZM1.31,92.5l22.6,13v-1.09L1.31,91.31Z"/></g><polygon id="_Path_39" data-name="&lt;Path&gt;" class="cls-4" points="13.53 74.03 16.16 72.48 16.16 71.86 20.38 62.89 19.33 62.53 18.88 62.77 13.8 73.27 13.53 74.03"/><polygon id="_Path_40" data-name="&lt;Path&gt;" class="cls-5" points="0.48 99.67 23.55 112.95 23.7 114.3 1.02 101.1 0.48 99.67"/><polygon id="_Path_41" data-name="&lt;Path&gt;" class="cls-1" points="54.85 90.32 54.85 94.79 55.33 94.5 55.33 90.06 54.85 90.32"/></g></g><g id="_Group_53" data-name="&lt;Group&gt;"><path id="_Compound_Path_35" data-name="&lt;Compound Path&gt;" class="cls-1" d="M94,44.5c-.16.09-.24,0-.24-.14v-5.7a.46.46,0,0,1,.24-.42h0c.16-.09.24,0,.24.14v5.7a.46.46,0,0,1-.24.42Z"/><path id="_Compound_Path_36" data-name="&lt;Compound Path&gt;" class="cls-1" d="M95,42a3.85,3.85,0,0,1,1.73-3c.95-.55,1.73-.1,1.73,1a3.91,3.91,0,0,1-1.73,3C95.82,43.56,95,43.07,95,42Zm.53-.31c0,.76.52,1.14,1.2.75A2.73,2.73,0,0,0,98,40.3c0-.78-.52-1.12-1.2-.73A2.67,2.67,0,0,0,95.57,41.68Z"/><path id="_Compound_Path_37" data-name="&lt;Compound Path&gt;" class="cls-1" d="M102.34,35.84c.16-.09.24,0,.24.14v3.23a3.62,3.62,0,0,1-1.73,3.19,1.32,1.32,0,0,1-1.1.18c-.13,0-.11-.21,0-.4l0-.05c.11-.19.22-.23.34-.19a.88.88,0,0,0,.73-.12,2.47,2.47,0,0,0,1.2-2.31v-.25a3.46,3.46,0,0,1-1.25,1.39c-.95.55-1.73.1-1.73-1a3.91,3.91,0,0,1,1.73-3,1.08,1.08,0,0,1,1.25,0v-.31a.46.46,0,0,1,.24-.42Zm-.3,2.1a.77.77,0,0,0-1.25-.72,2.7,2.7,0,0,0-1.19,2.12c0,.78.51,1.13,1.19.74A2.79,2.79,0,0,0,102,37.93Z"/><path id="_Compound_Path_38" data-name="&lt;Compound Path&gt;" class="cls-1" d="M103.53,33.95a.8.8,0,0,1,.36-.61.22.22,0,0,1,.36.2.8.8,0,0,1-.36.63C103.69,34.28,103.53,34.18,103.53,33.95Zm.35,4.86c-.16.09-.24,0-.24-.14v-3.3a.46.46,0,0,1,.24-.42l0,0c.16-.09.24,0,.24.14v3.3a.46.46,0,0,1-.24.42Z"/><path id="_Compound_Path_39" data-name="&lt;Compound Path&gt;" class="cls-1" d="M106.91,33.95c-.11-.09-.33-.07-.61.1a1.25,1.25,0,0,0-.68.9c0,.29.22.33.77.14.86-.29,1.2-.15,1.2.49a2.32,2.32,0,0,1-1.28,1.9c-.64.37-1.09.29-1.24-.14a.39.39,0,0,1,.22-.43.18.18,0,0,1,.27.05c.13.15.41.16.74,0a1.47,1.47,0,0,0,.82-1.08c0-.37-.21-.37-.82-.16-.8.28-1.16.15-1.16-.46a2.13,2.13,0,0,1,1.16-1.73c.54-.31.93-.25,1.09.07a.35.35,0,0,1-.2.42A.2.2,0,0,1,106.91,33.95Z"/><path id="_Compound_Path_40" data-name="&lt;Compound Path&gt;" class="cls-1" d="M109.63,32.16l-.51.29v3a.46.46,0,0,1-.24.42h0c-.16.09-.24,0-.24-.14v-3l-.26.15c-.16.09-.24,0-.24-.14a.44.44,0,0,1,.24-.39l.26-.15V31a.46.46,0,0,1,.24-.42h0c.16-.09.24,0,.24.14v1.24l.51-.29c.16-.09.24-.05.24.12A.46.46,0,0,1,109.63,32.16Z"/><path id="_Compound_Path_41" data-name="&lt;Compound Path&gt;" class="cls-1" d="M110.48,29.93a.8.8,0,0,1,.37-.61.22.22,0,0,1,.36.2.8.8,0,0,1-.36.63C110.64,30.26,110.48,30.17,110.48,29.93Zm.35,4.86c-.16.09-.24,0-.24-.14v-3.3a.46.46,0,0,1,.24-.42l0,0c.16-.09.24,0,.24.14v3.3a.46.46,0,0,1-.24.42Z"/><path id="_Compound_Path_42" data-name="&lt;Compound Path&gt;" class="cls-1" d="M114.91,29.84a.22.22,0,0,1-.3,0,.76.76,0,0,0-.95,0,2.67,2.67,0,0,0-1.2,2.11c0,.76.52,1.14,1.2.75a2.51,2.51,0,0,0,.95-1.12.75.75,0,0,1,.3-.36l.08,0c.18-.11.27,0,.18.23a3.81,3.81,0,0,1-1.5,1.87c-.95.55-1.73.06-1.73-1a3.85,3.85,0,0,1,1.73-3c.63-.36,1.19-.29,1.49.12.1.14,0,.33-.18.44Z"/><path id="_Compound_Path_43" data-name="&lt;Compound Path&gt;" class="cls-1" d="M117.75,27.69c-.11-.09-.33-.07-.61.1a1.25,1.25,0,0,0-.68.9c0,.29.22.33.77.14.86-.29,1.2-.15,1.2.49a2.32,2.32,0,0,1-1.28,1.9c-.64.37-1.09.29-1.24-.14a.38.38,0,0,1,.22-.43.18.18,0,0,1,.27.05c.13.15.41.16.74,0a1.47,1.47,0,0,0,.82-1.08c0-.37-.21-.37-.82-.16-.8.28-1.15.15-1.15-.46a2.13,2.13,0,0,1,1.15-1.73c.54-.31.93-.25,1.09.07a.35.35,0,0,1-.2.42A.2.2,0,0,1,117.75,27.69Z"/></g></g><g id="_20" data-name="20"><g id="_Group_54" data-name="&lt;Group&gt;"><g id="_5" data-name="5"><path id="_Path_42" data-name="&lt;Path&gt;" class="cls-1" d="M182.54,64.1,179,65.39l-11.78-6.81-95,54.5-37,13.34S20.23,139.13,22.54,141s22.57,9.29,22.57,9.29h0c6.78,2.56,19.61,2.56,30.28-.28a91,91,0,0,0,21.85-9l98.54-56.55a3.79,3.79,0,0,0,1.87-2.73l4.53-20.07Z"/><path id="_Path_43" data-name="&lt;Path&gt;" class="cls-1" d="M179,65.2,171.7,61l-2.33.84-4.08-2.36L72.14,112.89l-37,13.34S20,139,22.3,140.9c1.38,1.15,9.14,4.28,15.18,6.58,7.12,1.5,18.74-.49,28.33-3a91,91,0,0,0,21.85-9L200.15,70.73l2-9.05-19.65,2.23Z"/><path id="_Path_44" data-name="&lt;Path&gt;" class="cls-3" d="M61.52,151.66s-11.82-.71-17.76-5.38a22.93,22.93,0,0,1-2.43-2.19l-1.36.19a57.66,57.66,0,0,1-11.74-.19C34.86,146.8,44.09,150,44.09,150h0c4.17,1.57,11,2.31,17.88,1.88Z"/><path id="_Compound_Path_44" data-name="&lt;Compound Path&gt;" class="cls-2" d="M202.49,61.55l-2.11,9.35h0l-2.46,10.9a4,4,0,0,1-2,2.9L97.38,141.25a91.33,91.33,0,0,1-21.91,9,68.56,68.56,0,0,1-17.12,2.16,40.15,40.15,0,0,1-13.23-1.85l-.1,0c-.78-.29-18.29-6.67-22.12-9a5.71,5.71,0,0,1-.76-.5,1,1,0,0,1-.33-.76c0-3.17,12.64-13.85,13.18-14.31l.08,0,37-13.34,93.23-53.47.17.1,1.73-1,4.33,2.5.2-.07,7.27,4.2,3.46-1.25Zm-36.51-2,3.42,2,1.49-.54-3.7-2.14ZM37.58,147.24c6.83,1.43,17.34-.46,24.1-2a26,26,0,0,1-5.91-4.41L45.18,130.24,193.21,63l-10.6,1.3-3.67,1.32-7.47-4.32-2.13.77-3.89-2.25L72.27,113.3l-37,13.35C31.7,129.7,22.54,138,22.56,140.48a.43.43,0,0,0,.15.37,3.76,3.76,0,0,0,.37.26,120.49,120.49,0,0,0,12,5.18Zm41.52,1.45a32.07,32.07,0,0,1-16.73-3.12c-5.12,1.21-12.65,2.69-19.12,2.69a34.26,34.26,0,0,1-3.43-.17c2.73,1,4.82,1.79,5.28,2h0l.11,0c6.85,2.58,19.8,2.46,30.12-.29C76.6,149.45,77.85,149.08,79.1,148.68Z"/><path id="_Path_45" data-name="&lt;Path&gt;" class="cls-1" d="M202.19,61.68,78.16,133C68.25,138.65,34,147.64,22.54,141h0c-11.42-6.6,4.34-26.29,14.26-32l124-71.1Z"/><polygon id="_Path_46" data-name="&lt;Path&gt;" class="cls-3" points="195.75 62.67 200.67 62.67 201.31 62.19 176.88 48.19 185.35 56.71 195.75 62.67"/><path id="_Compound_Path_45" data-name="&lt;Compound Path&gt;" class="cls-2" d="M78.29,133.2,202.42,61.85l.07-.3L160.83,37.67,36.67,108.85c-7.3,4.18-18.36,16.4-18.37,25.29a7.74,7.74,0,0,0,4.12,7.13c2.9,1.67,7.22,2.36,12.23,2.36C49.67,143.63,70.88,137.45,78.29,133.2ZM201.67,61.68,78,132.75c-9.81,5.62-43.93,14.68-55.36,8.07a7.25,7.25,0,0,1-3.86-6.68c0-8.7,10.91-20.72,18.11-24.84l123.9-71Z"/><path id="_Path_47" data-name="&lt;Path&gt;" class="cls-3" d="M160.92,50,37,121.06c-4.73,2.71-10.06,10.28-12.69,16l-.06.13a6.7,6.7,0,0,0,1.94,1.65h0c9.21,5.32,40.43-1.92,48.42-6.5l115-65.86Z"/><path id="_Path_48" data-name="&lt;Path&gt;" class="cls-2" d="M196.34,61.7h0L160.56,41.18,36.86,112l-.25.16-.53.33-.77.51-.25.17a32.45,32.45,0,0,0-3,2.44l-.1.09.71,7.34a18.5,18.5,0,0,1,3.63-2.86l123.9-71L188.7,65.48,73.8,131.26c-7.9,4.53-39,11.83-48.16,6.5a6.38,6.38,0,0,1-2-1.7,48.56,48.56,0,0,1,8.54-12.57l-.73-7.35v0l-.07.06-.39.38c-4.48,4.36-8.7,10.41-9,15.34,0,0,0,.07,0,.1s0,.28,0,.42,0,.13,0,.2,0,.27,0,.4,0,.32,0,.47,0,.19.05.28a6.19,6.19,0,0,0,.63,1.86h0a5.81,5.81,0,0,0,.34.54l0,.07.09.13.1.14.08.11v0a7.06,7.06,0,0,0,1.94,1.61c2.34,1.35,6.05,1.91,10.44,1.91,13.14,0,32.27-5,38.25-8.4L196,61.93l.39-.22Z"/><g id="_Group_55" data-name="&lt;Group&gt;"><polygon id="_Path_49" data-name="&lt;Path&gt;" class="cls-1" points="160.2 48.83 160.56 41.48 195.82 61.7 189.22 65.48 160.2 48.83"/><path id="_Compound_Path_46" data-name="&lt;Compound Path&gt;" class="cls-2" d="M196.27,61.7,160.35,41.1,160,49l29.24,16.78ZM160.76,41.85,195.37,61.7l-6.16,3.52L160.43,48.71Z"/></g><g id="_Group_56" data-name="&lt;Group&gt;"><path id="_Compound_Path_47" data-name="&lt;Compound Path&gt;" class="cls-1" d="M168.21,84.17v-.56L166,84.9v.56l.84-.49v2.89l.54-.31V84.65Z"/><path id="_Compound_Path_48" data-name="&lt;Compound Path&gt;" class="cls-1" d="M170.9,85.5l-.71-1a1.68,1.68,0,0,0,.42-.59,1.76,1.76,0,0,0,.15-.72q0-.5-.25-.62a.81.81,0,0,0-.72.15l-1.29.75v3.45l.54-.31V85.26l.64-.37.61,1ZM170.1,84a.91.91,0,0,1-.34.34l-.71.41v-1l.69-.4q.48-.28.48.22A.89.89,0,0,1,170.1,84Z"/><path id="_Compound_Path_49" data-name="&lt;Compound Path&gt;" class="cls-1" d="M173.6,83.94l-1-2.9-.64.37-.93,4,.54-.31.23-1,1-.57.23.75Zm-1.23-2,.08.29.26.84-.74.43.31-1.42,0-.23v-.06Z"/><path id="_Compound_Path_50" data-name="&lt;Compound Path&gt;" class="cls-1" d="M176.16,82.45V79l-.48.28v2c0,.2,0,.42,0,.65l-1.16-2-.62.36v3.45l.48-.28v-2q0-.23,0-.6l1.14,2Z"/><path id="_Compound_Path_51" data-name="&lt;Compound Path&gt;" class="cls-1" d="M178.72,79.58a.4.4,0,0,0-.14-.2.42.42,0,0,0-.26-.06,2.44,2.44,0,0,0-.53.12,1.88,1.88,0,0,1-.42.09.2.2,0,0,1-.16-.06.27.27,0,0,1-.05-.19.82.82,0,0,1,.49-.7.47.47,0,0,1,.36-.09c.08,0,.14.11.17.24l.53-.4c0-.28-.15-.44-.31-.48a1.1,1.1,0,0,0-.72.22,2.23,2.23,0,0,0-.77.69,1.54,1.54,0,0,0-.26.87,1.09,1.09,0,0,0,0,.3.47.47,0,0,0,.1.19.31.31,0,0,0,.16.09.66.66,0,0,0,.21,0l.4-.09A2.23,2.23,0,0,1,178,80a.25.25,0,0,1,.18.05.26.26,0,0,1,.07.2.93.93,0,0,1-.57.79.65.65,0,0,1-.43.13c-.1,0-.17-.12-.21-.28l-.52.42q.08.43.37.5a1.14,1.14,0,0,0,.78-.22,2.38,2.38,0,0,0,.83-.75,1.67,1.67,0,0,0,.28-.94A1,1,0,0,0,178.72,79.58Z"/><path id="_Compound_Path_52" data-name="&lt;Compound Path&gt;" class="cls-1" d="M181,76.44q-.25-.14-.72.13l-1.16.68V80.7l.54-.31V79.17l.64-.37a1.78,1.78,0,0,0,.5-.44,2,2,0,0,0,.44-1.26Q181.3,76.58,181,76.44Zm-.41,1.49a.89.89,0,0,1-.34.35l-.58.33V77.49l.56-.33q.48-.28.48.26A1,1,0,0,1,180.63,77.93Z"/><path id="_Compound_Path_53" data-name="&lt;Compound Path&gt;" class="cls-1" d="M183.85,74.95q-.35-.27-1,.09a2.45,2.45,0,0,0-1,1,3.19,3.19,0,0,0-.34,1.5,1.38,1.38,0,0,0,.35,1.11q.35.28,1-.08a2.37,2.37,0,0,0,.69-.62,2.89,2.89,0,0,0,.45-.89,3.38,3.38,0,0,0,.16-1A1.34,1.34,0,0,0,183.85,74.95Zm-.4,2.43a1.37,1.37,0,0,1-.56.64q-.35.2-.56,0a1.13,1.13,0,0,1-.21-.78,2.33,2.33,0,0,1,.19-1,1.38,1.38,0,0,1,.56-.64q.36-.21.56,0a1.09,1.09,0,0,1,.2.76A2.43,2.43,0,0,1,183.45,77.38Z"/><path id="_Compound_Path_54" data-name="&lt;Compound Path&gt;" class="cls-1" d="M187,76.15l-.71-1a1.67,1.67,0,0,0,.42-.59,1.76,1.76,0,0,0,.15-.72q0-.5-.25-.62a.81.81,0,0,0-.72.15l-1.29.75v3.45l.54-.31V75.91l.64-.37.61,1Zm-.8-1.55a.91.91,0,0,1-.34.34l-.71.41v-1l.69-.4q.48-.28.48.22A.89.89,0,0,1,186.21,74.6Z"/><path id="_Compound_Path_55" data-name="&lt;Compound Path&gt;" class="cls-1" d="M189.33,71.9v-.56l-2.22,1.29v.56l.84-.49V75.6l.54-.31V72.39Z"/></g><path id="_Path_50" data-name="&lt;Path&gt;" class="cls-1" d="M87.53,135.2a90.81,90.81,0,0,1-21.79,9c-1.08.29-2.47.64-4.06,1l.7.37c1.36-.32,2.55-.63,3.5-.88a91.33,91.33,0,0,0,21.91-9L200.38,70.9l.16-.69Z"/></g><g id="_4" data-name="4"><path id="_Path_51" data-name="&lt;Path&gt;" class="cls-1" d="M141.72,60.17V28.6l45.42,5.56V65.91c.06.35-.73,1.17-1.15,1.41L171,75.9a3.58,3.58,0,0,1-3.21-.12L142.51,61.28C142,61,141.69,60.55,141.72,60.17Z"/><path id="_Path_52" data-name="&lt;Path&gt;" class="cls-3" d="M171,44.15l15.61-9.06c.82-.48.71-1.3-.24-1.84L161.09,18.74a3.58,3.58,0,0,0-3.21-.12l-15.61,9.06c-.82.48-.71,1.3.24,1.84L167.79,44A3.58,3.58,0,0,0,171,44.15Z"/><path id="_Path_53" data-name="&lt;Path&gt;" class="cls-1" d="M141.73,25.44a1.41,1.41,0,0,0,.78.92l25.28,14.51A3.58,3.58,0,0,0,171,41l15.61-9.06a1,1,0,0,0,.54-.66V35a.9.9,0,0,1-.54.93L171,45a3.58,3.58,0,0,1-3.21-.12L142.51,30.36c-.55-.31-.82-.73-.79-1.11V25.44Z"/><path id="_Path_54" data-name="&lt;Path&gt;" class="cls-1" d="M145.49,24.65l12.73-7.39a2.92,2.92,0,0,1,2.62.1L183.38,30.3c.78.44.86,1.11.19,1.5l-2.87,1.67L161,22.18a2.92,2.92,0,0,0-2.62-.1l-9.85,5.72-2.88-1.65C144.91,25.71,144.82,25,145.49,24.65Z"/><path id="_Compound_Path_56" data-name="&lt;Compound Path&gt;" class="cls-3" d="M142.51,27.26l25.28,14.51a3.58,3.58,0,0,0,3.21.12l15.61-9.06c.82-.48.71-1.3-.24-1.84L161.09,16.47a3.58,3.58,0,0,0-3.21-.12l-15.61,9.06C141.45,25.89,141.55,26.71,142.51,27.26Zm3-1.76,12.73-7.39a2.92,2.92,0,0,1,2.62.1l22.55,12.93c.78.44.86,1.11.19,1.5L170.85,40a2.92,2.92,0,0,1-2.62-.1L145.68,27C144.91,26.55,144.82,25.88,145.49,25.49Z"/><g id="_Group_57" data-name="&lt;Group&gt;"><g id="_Group_58" data-name="&lt;Group&gt;"><path id="_Compound_Path_57" data-name="&lt;Compound Path&gt;" class="cls-2" d="M166,46.88l-3.17-1.82v4.89L166,51.82Zm-2.72-1.05,2.28,1.31V51l-2.28-1.35Z"/></g><g id="_Group_59" data-name="&lt;Group&gt;"><path id="_Compound_Path_58" data-name="&lt;Compound Path&gt;" class="cls-2" d="M162.12,44.69,159,42.87v4.89l3.17,1.88Zm-2.72-1.05,2.28,1.31v3.91L159.4,47.5Z"/></g><g id="_Group_60" data-name="&lt;Group&gt;"><path id="_Compound_Path_59" data-name="&lt;Compound Path&gt;" class="cls-2" d="M158.27,42.5l-3.17-1.82v4.89l3.17,1.88Zm-2.72-1.05,2.28,1.31v3.91l-2.28-1.35Z"/></g><g id="_Group_61" data-name="&lt;Group&gt;"><path id="_Compound_Path_60" data-name="&lt;Compound Path&gt;" class="cls-2" d="M154.43,40.32l-3.17-1.82v4.89l3.17,1.88Zm-2.72-1.05L154,40.57v3.91l-2.28-1.35Z"/></g><g id="_Group_62" data-name="&lt;Group&gt;"><path id="_Compound_Path_61" data-name="&lt;Compound Path&gt;" class="cls-2" d="M150.58,38.13l-3.17-1.82v4.89l3.17,1.88Zm-2.72-1.05,2.28,1.31v3.91l-2.28-1.35Z"/></g><g id="_Group_63" data-name="&lt;Group&gt;"><path id="_Compound_Path_62" data-name="&lt;Compound Path&gt;" class="cls-2" d="M146.73,35.94l-3.17-1.82V39l3.17,1.88ZM144,34.89l2.28,1.31V40.1L144,38.75Z"/></g><g id="_Group_64" data-name="&lt;Group&gt;"><path id="_Compound_Path_63" data-name="&lt;Compound Path&gt;" class="cls-2" d="M166,52.64l-3.17-1.82V55.7L166,57.58Zm-2.72-1.05,2.28,1.31v3.9l-2.28-1.35Z"/></g><g id="_Group_65" data-name="&lt;Group&gt;"><path id="_Compound_Path_64" data-name="&lt;Compound Path&gt;" class="cls-2" d="M162.12,50.45,159,48.63v4.89l3.17,1.88ZM159.4,49.4l2.28,1.31v3.91l-2.28-1.35Z"/></g><g id="_Group_66" data-name="&lt;Group&gt;"><path id="_Compound_Path_65" data-name="&lt;Compound Path&gt;" class="cls-2" d="M158.27,48.26l-3.17-1.82v4.89l3.17,1.88Zm-2.72-1.05,2.28,1.31v3.9l-2.28-1.35Z"/></g><g id="_Group_67" data-name="&lt;Group&gt;"><path id="_Compound_Path_66" data-name="&lt;Compound Path&gt;" class="cls-2" d="M154.43,46.07l-3.17-1.82v4.89L154.43,51ZM151.7,45,154,46.33v3.91l-2.28-1.35Z"/></g><g id="_Group_68" data-name="&lt;Group&gt;"><path id="_Compound_Path_67" data-name="&lt;Compound Path&gt;" class="cls-2" d="M150.58,43.89l-3.17-1.82v4.89l3.17,1.88Zm-2.72-1.05,2.28,1.31V48l-2.28-1.35Z"/></g><g id="_Group_69" data-name="&lt;Group&gt;"><path id="_Compound_Path_68" data-name="&lt;Compound Path&gt;" class="cls-2" d="M146.73,41.7l-3.17-1.82v4.89l3.17,1.88ZM144,40.64,146.28,42v3.91L144,44.51Z"/></g></g><g id="_Group_70" data-name="&lt;Group&gt;"><path id="_Compound_Path_69" data-name="&lt;Compound Path&gt;" class="cls-2" d="M184.28,31.15a1,1,0,0,1-.58.88l-3,1.74h0L171,39.42a2.6,2.6,0,0,1-1.28.3,3.3,3.3,0,0,1-1.59-.4L148.57,28.11h0l-3-1.73a1.53,1.53,0,0,1-.72-.77.9.9,0,0,1-.05-.3,1,1,0,0,1,.58-.88l12.73-7.39a2.66,2.66,0,0,1,1.4-.3,3.52,3.52,0,0,1,.77.11,3,3,0,0,1,.71.28l22.55,12.94A1.32,1.32,0,0,1,184.28,31.15Zm-4.1,2.32L160.9,22.42a2.67,2.67,0,0,0-2.36-.1l-9.46,5.49,19.28,11.06a2.68,2.68,0,0,0,2.36.1Zm3.58-2.32c0-.21-.19-.44-.51-.62L160.7,17.59l-.29-.14-.1,0-.21-.07-.13,0-.21,0h-.44a2.6,2.6,0,0,0-.49.05h0a1.62,1.62,0,0,0-.42.16v4.36a2.88,2.88,0,0,1,1.2-.29,3.3,3.3,0,0,1,1.59.4L180.7,33.18l2.74-1.59A.54.54,0,0,0,183.76,31.15Z"/><path id="_Compound_Path_70" data-name="&lt;Compound Path&gt;" class="cls-2" d="M187.4,35.32V65.95c.09.51-.91,1.42-1.28,1.64l-15,8.58a3.12,3.12,0,0,1-1.54.36,4,4,0,0,1-1.93-.48L142.37,61.54a1.5,1.5,0,0,1-.91-1.34V29.27s0,0,0,0V25.45s0,0,0-.06a1.2,1.2,0,0,1,.68-1l15.61-9.06a3.81,3.81,0,0,1,3.47.12L186.5,29.92a1.56,1.56,0,0,1,.92,1.26s0,.06,0,.09V35C187.4,35.12,187.41,35.16,187.4,35.32ZM167.8,45.16l-.14-.07L142.38,30.59a2.49,2.49,0,0,1-.39-.28V60.23c0,.29.22.61.66.86L167.8,75.53Zm0-3.94-.14-.07L142.38,26.65a2.47,2.47,0,0,1-.39-.27v2.88c0,.31.22.63.65.88L167.8,44.58Zm2,34.77-.24,0V45.58a4.24,4.24,0,0,1-1-.13V75.85A3.79,3.79,0,0,0,169.82,76ZM169.58,45V41.64a3.52,3.52,0,0,1-.83-.09l-.21,0V44.9A3.83,3.83,0,0,0,169.58,45ZM186.9,31.19c0-.28-.24-.58-.66-.81L161,15.87a3.5,3.5,0,0,0-1.67-.41,2.61,2.61,0,0,0-1.28.29L142.4,24.81a.72.72,0,0,0-.42.58v0h0a1.19,1.19,0,0,0,.65.74l25.28,14.51a3.35,3.35,0,0,0,2.95.12l15.61-9.06a.77.77,0,0,0,.41-.49h0S186.9,31.2,186.9,31.19Z"/></g><g id="_Group_71" data-name="&lt;Group&gt;"><path id="_Path_55" data-name="&lt;Path&gt;" class="cls-1" d="M166.49,30.4h0l-2.59-26-3.94,1,0,26.47a.58.58,0,0,0,0,.24v0h0a1.13,1.13,0,0,0,.59.69,2.8,2.8,0,0,0,2.51.12l3-1.7A.68.68,0,0,0,166.49,30.4Z"/><path id="_Path_56" data-name="&lt;Path&gt;" class="cls-3" d="M163.64,2.09l-1.81,1a1.68,1.68,0,0,1-1.5-.07h0c-.44-.26-.49-.65-.1-.87l1.81-1a1.68,1.68,0,0,1,1.5.07h0C164,1.48,164,1.87,163.64,2.09Z"/><path id="_Compound_Path_71" data-name="&lt;Compound Path&gt;" class="cls-2" d="M166.24,31.5l-3,1.7a2.5,2.5,0,0,1-1.21.28,3.2,3.2,0,0,1-1.58-.4,1.6,1.6,0,0,1-.61-.58l-.12-.35a.76.76,0,0,1,0-.33l0-26.52h0V1.89h0a.64.64,0,0,1,0-.08.72.72,0,0,1,.41-.62l1.81-1a2,2,0,0,1,1.78.08.94.94,0,0,1,.48.61h0V4.36h0l2.59,26A1,1,0,0,1,166.24,31.5Zm-6-29.68c0,.06.07.16.23.25a1.41,1.41,0,0,0,1.22.07l1.81-1c.08,0,.12-.09.12-.13s-.07-.16-.22-.25a1.49,1.49,0,0,0-.73-.18,1,1,0,0,0-.49.11l-1.81,1C160.29,1.73,160.25,1.78,160.25,1.82Zm0,3.39v.05c0,.05.06.15.22.24a1.47,1.47,0,0,0,1,.13V2.77a1.92,1.92,0,0,1-.33,0,2,2,0,0,1-.94-.23Zm2.41,27.62L161.53,6.21a1.92,1.92,0,0,1-.34,0,2.05,2.05,0,0,1-.94-.23V31.89a.53.53,0,0,0,0,.17v0a.87.87,0,0,0,.45.5A2.67,2.67,0,0,0,162.66,32.83Z"/><path id="_Path_57" data-name="&lt;Path&gt;" class="cls-1" d="M164,4.27l-2.35,1.32a.8.8,0,0,1-.17.06v.58a1.4,1.4,0,0,0,.44-.14l2.26-1.27,0-.73C164.19,4.14,164.09,4.24,164,4.27Z"/></g><g id="_Group_72" data-name="&lt;Group&gt;"><g id="_Group_73" data-name="&lt;Group&gt;"><path id="_Compound_Path_72" data-name="&lt;Compound Path&gt;" class="cls-1" d="M185.77,44V39.09l-3.22,1.82v4.94Zm-.45-4.12v3.87L183,45.08V41.17Z"/></g><g id="_Group_74" data-name="&lt;Group&gt;"><path id="_Compound_Path_73" data-name="&lt;Compound Path&gt;" class="cls-1" d="M181.92,46.14V41.25l-3.22,1.82V48ZM181.48,42v3.87l-2.33,1.36V43.33Z"/></g><g id="_Group_75" data-name="&lt;Group&gt;"><path id="_Compound_Path_74" data-name="&lt;Compound Path&gt;" class="cls-1" d="M178,48.43V43.54l-3.22,1.82V50.3Zm-.45-4.12v3.87l-2.33,1.36V45.62Z"/></g><g id="_Group_76" data-name="&lt;Group&gt;"><path id="_Compound_Path_75" data-name="&lt;Compound Path&gt;" class="cls-1" d="M174.15,50.5V45.62l-3.22,1.82v4.94Zm-.45-4.12v3.87l-2.33,1.36V47.7Z"/></g><g id="_Group_77" data-name="&lt;Group&gt;"><path id="_Compound_Path_76" data-name="&lt;Compound Path&gt;" class="cls-1" d="M185.77,49.69V44.81l-3.22,1.82v4.94Zm-.45-4.12v3.87L183,50.79V46.88Z"/></g><g id="_Group_78" data-name="&lt;Group&gt;"><path id="_Compound_Path_77" data-name="&lt;Compound Path&gt;" class="cls-1" d="M181.92,51.85V47l-3.22,1.82v4.94Zm-.45-4.12V51.6L179.15,53V49Z"/></g><g id="_Group_79" data-name="&lt;Group&gt;"><path id="_Compound_Path_78" data-name="&lt;Compound Path&gt;" class="cls-1" d="M178,54.14V49.26l-3.22,1.82V56ZM177.59,50v3.87l-2.33,1.36V51.33Z"/></g><g id="_Group_80" data-name="&lt;Group&gt;"><path id="_Compound_Path_79" data-name="&lt;Compound Path&gt;" class="cls-1" d="M174.15,56.22V51.34l-3.22,1.82v4.94Zm-.45-4.12V56l-2.33,1.36V53.41Z"/></g></g><g id="_Group_81" data-name="&lt;Group&gt;"><g id="_Group_82" data-name="&lt;Group&gt;"><path id="_Compound_Path_80" data-name="&lt;Compound Path&gt;" class="cls-2" d="M150.07,56.1l-5.71-3.49v10l5.71,3.3Zm-5.34-2.83,5,3v8.93l-5-2.87Z"/></g><polygon id="_Path_58" data-name="&lt;Path&gt;" class="cls-2" points="145.59 59.2 145.59 55.06 148.73 56.98 148.73 61.01 145.59 59.2"/></g><g id="_Group_83" data-name="&lt;Group&gt;"><polygon id="_Path_59" data-name="&lt;Path&gt;" class="cls-1" points="178.22 30.88 173.02 27.89 167.83 30.88 167.83 32.33 173.02 35.31 173.02 33.87 178.22 30.88"/><path id="_Compound_Path_81" data-name="&lt;Compound Path&gt;" class="cls-2" d="M178.4,30.77v1.66L173,35.52l-.19-.11h0l-5.2-3V30.77l5.38-3.1,5.2,3h0ZM173,28.11l-4.82,2.78L173,33.66l4.82-2.78ZM172.84,35V34L170,32.35l-2-1.15v1Z"/><polygon id="_Path_60" data-name="&lt;Path&gt;" class="cls-3" points="175.78 31.2 173.02 32.74 170.26 31.2 173.02 29.61 175.78 31.2"/><path id="_Compound_Path_82" data-name="&lt;Compound Path&gt;" class="cls-2" d="M176.65,30.88,173,28.8l-3.62,2.08L173,33ZM173,29.22l2.88,1.66L173,32.54l-2.88-1.66Z"/></g><path id="_Path_61" data-name="&lt;Path&gt;" class="cls-1" d="M187.41,35.15l-16.55,9.61a2.62,2.62,0,0,1-1.28.28v.53a3.12,3.12,0,0,0,1.54-.36l16.29-9.46Z"/></g><g id="_3" data-name="3"><g id="_Group_84" data-name="&lt;Group&gt;"><path id="_Path_62" data-name="&lt;Path&gt;" class="cls-1" d="M33.15,135.8h0l-2.59-26-3.94,1,0,26.47a.58.58,0,0,0,0,.24v0h0a1.13,1.13,0,0,0,.59.69,2.8,2.8,0,0,0,2.51.12l3-1.7A.68.68,0,0,0,33.15,135.8Z"/><path id="_Path_63" data-name="&lt;Path&gt;" class="cls-3" d="M30.3,107.48l-1.81,1a1.68,1.68,0,0,1-1.5-.07h0c-.44-.26-.49-.65-.1-.87l1.81-1a1.68,1.68,0,0,1,1.5.07h0C30.64,106.88,30.69,107.27,30.3,107.48Z"/><path id="_Compound_Path_83" data-name="&lt;Compound Path&gt;" class="cls-2" d="M32.89,136.9l-3,1.7a2.49,2.49,0,0,1-1.21.28,3.2,3.2,0,0,1-1.58-.4,1.6,1.6,0,0,1-.61-.58l-.12-.35a.76.76,0,0,1,0-.33l0-26.52h0v-3.41h0a.66.66,0,0,1,0-.08.73.73,0,0,1,.41-.62l1.81-1a2,2,0,0,1,1.78.08.94.94,0,0,1,.48.61h0v3.49h0l2.59,26A1,1,0,0,1,32.89,136.9Zm-6-29.68c0,.06.07.16.23.25a1.41,1.41,0,0,0,1.22.07l1.81-1c.08,0,.12-.09.12-.13s-.07-.16-.22-.25a1.49,1.49,0,0,0-.73-.18,1,1,0,0,0-.49.11l-1.81,1C27,107.13,26.9,107.18,26.9,107.22Zm0,3.39v.05c0,.05.06.15.22.24a1.47,1.47,0,0,0,1,.13v-2.86a1.91,1.91,0,0,1-.33,0,2,2,0,0,1-.94-.23Zm2.41,27.62L28.19,111.6a1.92,1.92,0,0,1-.34,0,2.06,2.06,0,0,1-.94-.23v25.88a.53.53,0,0,0,0,.17v0a.88.88,0,0,0,.45.5A2.67,2.67,0,0,0,29.32,138.23Z"/><path id="_Path_64" data-name="&lt;Path&gt;" class="cls-1" d="M30.7,109.66,28.35,111a.81.81,0,0,1-.17.06v.58a1.4,1.4,0,0,0,.44-.14l2.26-1.27,0-.73C30.85,109.53,30.75,109.64,30.7,109.66Z"/></g><g id="_Group_85" data-name="&lt;Group&gt;"><polygon id="_Path_65" data-name="&lt;Path&gt;" class="cls-1" points="37.51 124.19 47.31 118.44 56.94 124.19 47.5 129.74 37.51 124.19"/><polygon id="_Path_66" data-name="&lt;Path&gt;" class="cls-3" points="37.51 125.02 47.31 119.28 56.94 125.02 47.5 130.58 37.51 125.02"/><polygon id="_Path_67" data-name="&lt;Path&gt;" class="cls-1" points="37.51 128.58 37.51 124.19 47.5 129.74 47.35 134.25 37.51 128.58"/><path id="_Path_68" data-name="&lt;Path&gt;" class="cls-1" d="M47.92,122.93c.78.09,1.09.43,1.09.9,0,.06,0,0,0,.06L51.36,125a1.9,1.9,0,0,0,.37-1.1c0-1.45-1.8-2.64-4.09-2.74Z"/><path id="_Compound_Path_84" data-name="&lt;Compound Path&gt;" class="cls-2" d="M51.58,125.17a2.15,2.15,0,0,0,.41-1.25c0-1.6-1.86-2.89-4.34-3h-.2l.25,2.25.2,0c.86.1.86.49.86.64l-.06.19,2.82,1.23Zm-3.43-2.47-.2-1.23c2,.19,3.52,1.23,3.52,2.46a1.57,1.57,0,0,1-.2.76l-2-1C49.24,123.36,49,122.86,48.15,122.7Z"/><path id="_Path_69" data-name="&lt;Path&gt;" class="cls-1" d="M48.33,124.59c-.31.19-.19-.41-.69-.41s-1,.58-1.34.41l-2.45,1a5.71,5.71,0,0,0,3.46,1,5.55,5.55,0,0,0,3.62-1.17Z"/><path id="_Compound_Path_85" data-name="&lt;Compound Path&gt;" class="cls-2" d="M51.1,125.7l.24-.21-2.93-1.14-.13,0h0a.69.69,0,0,0-.63-.4,1.82,1.82,0,0,0-.79.27,1.3,1.3,0,0,1-.43.17l-.11-.06-2.88,1.33.26.2a6,6,0,0,0,3.62,1.1A5.85,5.85,0,0,0,51.1,125.7Zm-4.79-.83a1.27,1.27,0,0,0,.78-.22,1.51,1.51,0,0,1,.55-.21c.09,0,.12,0,.19.16a.49.49,0,0,0,.29.28.37.37,0,0,0,.21,0l2.05.72a5.68,5.68,0,0,1-3.08.83,5.77,5.77,0,0,1-2.92-.73Z"/><path id="_Path_70" data-name="&lt;Path&gt;" class="cls-1" d="M45.6,123.83c0-.07,0,.08,0,0a1.13,1.13,0,0,1,1.1-1.11l.27-1.53c-2.29.11-4.09,1.29-4.09,2.74a2,2,0,0,0,.48,1.25Z"/><path id="_Compound_Path_86" data-name="&lt;Compound Path&gt;" class="cls-2" d="M45.65,124.1l.22,0V124l.07,0-.06-.15a.87.87,0,0,1,.87-.8l.19,0,.24-2H47c-2.47.11-4.34,1.4-4.34,3a2.23,2.23,0,0,0,.54,1.41l.08.1Zm.83-1.61a1.38,1.38,0,0,0-1.12,1.13h0l-.06.08-1.86,1.12a1.61,1.61,0,0,1-.29-.9c0-1.23,1.52-2.27,3.52-2.46Z"/><path id="_Path_71" data-name="&lt;Path&gt;" class="cls-1" d="M49,123.83c0,.53-.76,1-1.7,1s-1.7-.43-1.7-1,.45-1.39,1-1.54c.22-.06.41.58.67.58s.44-.65.66-.59C48.55,122.43,49,123.44,49,123.83Z"/><path id="_Compound_Path_87" data-name="&lt;Compound Path&gt;" class="cls-2" d="M49.28,123.83A2.26,2.26,0,0,0,48,122c-.29-.07-.47.18-.6.38a2,2,0,0,1-.13.18,1.85,1.85,0,0,1-.14-.18c-.13-.19-.31-.45-.6-.37-.75.2-1.23,1.36-1.23,1.8,0,.68.86,1.22,2,1.22S49.28,124.51,49.28,123.83Zm-2.52-1.12c.13.19.3.42.56.42s.43-.24.56-.43l.1-.14a1.94,1.94,0,0,1,.78,1.27c0,.33-.59.7-1.44.7s-1.45-.37-1.45-.7a1.87,1.87,0,0,1,.78-1.27Z"/><ellipse id="_Path_72" data-name="&lt;Path&gt;" class="cls-1" cx="47.32" cy="122.83" rx="1.18" ry="0.67"/><ellipse id="_Path_73" data-name="&lt;Path&gt;" class="cls-3" cx="47.32" cy="123.33" rx="1.18" ry="0.67"/><path id="_Compound_Path_88" data-name="&lt;Compound Path&gt;" class="cls-2" d="M48.76,122.83c0-.52-.63-.93-1.44-.93s-1.44.4-1.44.93.62.93,1.44.93S48.76,123.35,48.76,122.83Zm-.52,0c0,.17-.36.41-.92.41s-.92-.24-.92-.41.36-.41.92-.41S48.24,122.67,48.24,122.83Z"/><path id="_Compound_Path_89" data-name="&lt;Compound Path&gt;" class="cls-2" d="M57.2,124v4.79l-9.85,5.72-10.11-5.82V124l.26-.16,9.8-5.74,9.63,5.74h0ZM38,124.18l9.46,5.27,1.62-1,7.31-4.31-9.13-5.44Zm-.26,4.26,9.45,5.46,0-4-7.72-4.29-1.76-1Z"/></g></g><g id="_2" data-name="2"><polygon id="_Path_74" data-name="&lt;Path&gt;" class="cls-1" points="144.41 71.52 154.21 65.78 163.84 71.52 154.41 77.08 144.41 71.52"/><polygon id="_Path_75" data-name="&lt;Path&gt;" class="cls-3" points="144.41 72.36 154.21 66.62 163.84 72.36 154.41 77.92 144.41 72.36"/><polygon id="_Path_76" data-name="&lt;Path&gt;" class="cls-1" points="144.41 75.91 144.41 71.52 154.41 77.08 154.25 81.58 144.41 75.91"/><path id="_Path_77" data-name="&lt;Path&gt;" class="cls-1" d="M154.82,70.26c.78.09,1.09.43,1.09.9,0,.06,0,0,0,.06l2.35,1.14a1.9,1.9,0,0,0,.37-1.1c0-1.45-1.8-2.64-4.09-2.74Z"/><path id="_Compound_Path_90" data-name="&lt;Compound Path&gt;" class="cls-2" d="M158.48,72.51a2.15,2.15,0,0,0,.41-1.25c0-1.6-1.86-2.89-4.34-3h-.2l.25,2.25.2,0c.86.1.86.49.86.64l-.06.19,2.82,1.23ZM155.05,70l-.2-1.23c2,.19,3.52,1.23,3.52,2.46a1.57,1.57,0,0,1-.2.76l-2-1C156.14,70.7,155.93,70.19,155.05,70Z"/><path id="_Path_78" data-name="&lt;Path&gt;" class="cls-1" d="M155.23,71.93c-.31.19-.19-.41-.69-.41s-1,.58-1.34.41l-2.45,1a5.71,5.71,0,0,0,3.46,1,5.55,5.55,0,0,0,3.62-1.17Z"/><path id="_Compound_Path_91" data-name="&lt;Compound Path&gt;" class="cls-2" d="M158,73l.24-.21-2.93-1.14-.13,0h0a.69.69,0,0,0-.63-.4,1.82,1.82,0,0,0-.79.27,1.3,1.3,0,0,1-.43.17l-.11-.06L150.33,73l.26.2a6,6,0,0,0,3.62,1.1A5.85,5.85,0,0,0,158,73Zm-4.79-.83A1.27,1.27,0,0,0,154,72a1.51,1.51,0,0,1,.55-.21c.09,0,.12,0,.19.16a.49.49,0,0,0,.29.28.37.37,0,0,0,.21,0l2.05.72a5.68,5.68,0,0,1-3.08.83,5.77,5.77,0,0,1-2.92-.73Z"/><path id="_Path_79" data-name="&lt;Path&gt;" class="cls-1" d="M152.51,71.16c0-.07,0,.08,0,0a1.13,1.13,0,0,1,1.1-1.11l.27-1.53c-2.29.11-4.09,1.29-4.09,2.74a2,2,0,0,0,.48,1.25Z"/><path id="_Compound_Path_92" data-name="&lt;Compound Path&gt;" class="cls-2" d="M152.55,71.44l.22,0v-.09l.07,0-.06-.15a.87.87,0,0,1,.87-.8l.19,0,.24-2h-.2c-2.47.12-4.34,1.4-4.34,3a2.23,2.23,0,0,0,.54,1.41l.08.1Zm.83-1.61A1.38,1.38,0,0,0,152.27,71h0l-.06.08-1.86,1.12a1.61,1.61,0,0,1-.29-.9c0-1.23,1.52-2.27,3.52-2.46Z"/><path id="_Path_80" data-name="&lt;Path&gt;" class="cls-1" d="M155.93,71.16c0,.53-.76,1-1.7,1s-1.7-.43-1.7-1,.45-1.39,1-1.54c.22-.06.41.58.67.58s.44-.65.66-.59C155.45,69.77,155.93,70.78,155.93,71.16Z"/><path id="_Compound_Path_93" data-name="&lt;Compound Path&gt;" class="cls-2" d="M156.19,71.16a2.26,2.26,0,0,0-1.24-1.8c-.29-.07-.47.18-.6.38a2,2,0,0,1-.13.18,1.91,1.91,0,0,1-.14-.18c-.13-.19-.31-.45-.6-.37-.75.2-1.23,1.36-1.23,1.8,0,.68.86,1.22,2,1.22S156.19,71.84,156.19,71.16ZM153.67,70c.13.19.3.42.56.42s.43-.24.56-.43l.1-.14a1.94,1.94,0,0,1,.78,1.27c0,.33-.59.7-1.44.7s-1.45-.37-1.45-.7a1.88,1.88,0,0,1,.78-1.27Z"/><ellipse id="_Path_81" data-name="&lt;Path&gt;" class="cls-1" cx="154.22" cy="70.17" rx="1.18" ry="0.67"/><ellipse id="_Path_82" data-name="&lt;Path&gt;" class="cls-3" cx="154.22" cy="70.67" rx="1.18" ry="0.67"/><path id="_Compound_Path_94" data-name="&lt;Compound Path&gt;" class="cls-2" d="M155.67,70.17c0-.52-.63-.93-1.44-.93s-1.44.4-1.44.93.62.93,1.44.93S155.67,70.69,155.67,70.17Zm-.52,0c0,.17-.36.41-.92.41s-.92-.24-.92-.41.36-.41.92-.41S155.15,70,155.15,70.17Z"/><path id="_Compound_Path_95" data-name="&lt;Compound Path&gt;" class="cls-2" d="M164.11,71.37v4.79l-9.85,5.72-10.11-5.82V71.38l.26-.16,9.8-5.74,9.63,5.74h0Zm-19.17.14,9.47,5.27,1.62-1,7.31-4.31-9.13-5.44Zm-.26,4.26,9.45,5.46,0-4-7.72-4.29-1.76-1Z"/></g><g id="_1" data-name="1"><g id="_Group_86" data-name="&lt;Group&gt;"><polygon id="_Path_83" data-name="&lt;Path&gt;" class="cls-1" points="111.51 77.06 111.51 63.18 137.98 78.42 137.98 92.46 111.51 77.06"/><polygon id="_Path_84" data-name="&lt;Path&gt;" class="cls-1" points="111.51 62.77 121.35 57.06 147.81 72.29 137.98 77.91 111.51 62.77"/><polygon id="_Path_85" data-name="&lt;Path&gt;" class="cls-1" points="138.12 78 137.98 79.23 111.51 64.13 111.51 62.84 138.12 78"/><polygon id="_Path_86" data-name="&lt;Path&gt;" class="cls-3" points="112.5 63.38 121.35 58.24 147.81 73.47 138.97 78.52 112.5 63.38"/><path id="_Compound_Path_96" data-name="&lt;Compound Path&gt;" class="cls-2" d="M148.06,72.14V86.91L138,92.76,111.25,77.21V62.62l10.1-5.86Zm-36.29,4.77,1.88,1.1V65.61l-1.92-1.09Zm21.55,12.53h0l2.06,1.2V78l-2-1.16Zm-.37-12.83-2-1.16V88l2,1.19Zm-2.36-1.35-2.1-1.2V86.63l2,1.19V75.26Zm-2.47-1.41-2-1.17V85.23l2,1.19Zm-2.41-1.38-2-1.16V83.82l2,1.19Zm-2.41-1.38-2-1.15V82.43l2,1.17Zm-2.39-1.36-2-1.16V81l2,1.19Zm-2.41-1.38-2-1.16V79.63l2,1.19ZM116.07,67l-2-1.16v12.4l2,1.19Zm21.66,12.35-2-1.14V90.85l2,1.16Zm0-1.27-26-14.92V64l26,14.82v-.76Zm9.56-5.78L121.35,57.36,112,62.77l26,14.84Z"/><polygon id="_Path_87" data-name="&lt;Path&gt;" class="cls-1" points="148.07 73.38 148.06 72.91 137.76 78.84 137.76 79.32 142.96 76.32 142.96 89.87 143.33 89.66 143.33 76.11 148.07 73.38"/><g id="_Group_87" data-name="&lt;Group&gt;"><path id="_Path_88" data-name="&lt;Path&gt;" class="cls-1" d="M140.94,86a.64.64,0,0,1-.31-.08l-.15-.09a.16.16,0,0,1-.06-.22h0a.16.16,0,0,1,.22-.06l.15.09a.32.32,0,0,0,.32,0l1-.55-.16-.1a.16.16,0,0,1-.05-.22h0a.16.16,0,0,1,.22-.06l.16.09a.32.32,0,0,1,.16.28.33.33,0,0,1-.17.28l-1,.55A.64.64,0,0,1,140.94,86Z"/></g><g id="_Group_88" data-name="&lt;Group&gt;"><path id="_Path_89" data-name="&lt;Path&gt;" class="cls-1" d="M144.44,84.09a.64.64,0,0,1-.31-.08l-.15-.09a.16.16,0,0,1-.06-.22h0a.16.16,0,0,1,.22-.06l.15.09a.32.32,0,0,0,.32,0l1-.55-.16-.1a.16.16,0,0,1-.05-.22h0a.16.16,0,0,1,.22-.06l.16.09a.32.32,0,0,1,.16.28.32.32,0,0,1-.17.28l-1,.55A.65.65,0,0,1,144.44,84.09Z"/></g></g><g id="_Group_89" data-name="&lt;Group&gt;"><polygon id="_Path_90" data-name="&lt;Path&gt;" class="cls-1" points="100.8 83.3 100.8 69.43 127.27 84.67 127.27 98.71 100.8 83.3"/><polygon id="_Path_91" data-name="&lt;Path&gt;" class="cls-1" points="100.8 69.02 110.64 63.3 137.09 78.53 127.27 84.16 100.8 69.02"/><polygon id="_Path_92" data-name="&lt;Path&gt;" class="cls-1" points="127.41 84.25 127.27 85.47 100.8 70.38 100.8 69.08 127.41 84.25"/><polygon id="_Path_93" data-name="&lt;Path&gt;" class="cls-3" points="101.78 69.63 110.64 64.49 137.09 79.72 128.26 84.77 101.78 69.63"/><path id="_Compound_Path_97" data-name="&lt;Compound Path&gt;" class="cls-2" d="M137.35,78.38V93.16L127.27,99,100.54,83.45V68.87L110.64,63Zm-36.29,4.77,1.88,1.1V71.86L101,70.76ZM122.6,95.68h0l2.06,1.2V84.23l-2-1.16Zm-.37-12.83-2-1.16v12.6l2,1.19Zm-2.36-1.35-2.1-1.2V92.88l2,1.19V81.51ZM117.4,80.1l-2-1.16V91.48l2,1.19ZM115,78.73l-2-1.16V90.07l2,1.19Zm-2.41-1.38-2-1.15V88.68l2,1.17ZM110.19,76l-2-1.17V87.28l2,1.19Zm-2.41-1.38-2-1.16V85.87l2,1.19Zm-2.41-1.38-2-1.16v12.4l2,1.19ZM127,85.58l-2-1.14V97.1l2,1.16Zm0-1.27L101,69.39v.86l26,14.82v-.76Zm9.56-5.78L110.64,63.6,101.32,69l26,14.84Z"/><polygon id="_Path_94" data-name="&lt;Path&gt;" class="cls-1" points="137.35 79.63 137.35 79.15 127.05 85.09 127.05 85.56 132.25 82.57 132.25 96.12 132.62 95.9 132.62 82.35 137.35 79.63"/><g id="_Group_90" data-name="&lt;Group&gt;"><path id="_Path_95" data-name="&lt;Path&gt;" class="cls-1" d="M130.23,92.29a.65.65,0,0,1-.31-.08l-.15-.09a.16.16,0,0,1-.06-.22h0a.16.16,0,0,1,.22-.06l.15.09a.33.33,0,0,0,.32,0l1-.55-.16-.1a.16.16,0,0,1-.05-.22h0a.16.16,0,0,1,.22-.06l.16.09a.32.32,0,0,1,.16.28.32.32,0,0,1-.17.28l-1,.55A.65.65,0,0,1,130.23,92.29Z"/></g><g id="_Group_91" data-name="&lt;Group&gt;"><path id="_Path_96" data-name="&lt;Path&gt;" class="cls-1" d="M133.73,90.34a.64.64,0,0,1-.31-.08l-.15-.09a.16.16,0,0,1-.06-.22h0a.16.16,0,0,1,.22-.06l.15.09a.32.32,0,0,0,.32,0l1-.55-.16-.1a.16.16,0,0,1-.05-.22h0a.16.16,0,0,1,.22-.06l.16.09a.32.32,0,0,1,.16.28.32.32,0,0,1-.17.28l-1,.55A.65.65,0,0,1,133.73,90.34Z"/></g></g><g id="_Group_92" data-name="&lt;Group&gt;"><polygon id="_Path_97" data-name="&lt;Path&gt;" class="cls-1" points="90.09 89.54 90.09 75.67 116.56 90.91 116.56 104.95 90.09 89.54"/><polygon id="_Path_98" data-name="&lt;Path&gt;" class="cls-1" points="90.09 75.26 99.93 69.54 126.38 84.77 116.56 90.4 90.09 75.26"/><polygon id="_Path_99" data-name="&lt;Path&gt;" class="cls-1" points="116.7 90.49 116.56 91.71 90.09 76.62 90.09 75.33 116.7 90.49"/><polygon id="_Path_100" data-name="&lt;Path&gt;" class="cls-3" points="91.07 75.87 99.93 70.73 126.38 85.96 117.55 91.01 91.07 75.87"/><path id="_Compound_Path_98" data-name="&lt;Compound Path&gt;" class="cls-2" d="M126.64,84.62V99.4l-10.08,5.85L89.83,89.69V75.11l10.1-5.86ZM90.35,89.39l1.88,1.1V78.1L90.31,77Zm21.55,12.53h0l2.06,1.2V90.47l-2-1.16Zm-.37-12.83-2-1.16v12.6l2,1.19Zm-2.36-1.35-2.1-1.2V99.12l2,1.19V87.75Zm-2.47-1.41-2-1.17V97.72l2,1.19ZM104.28,85l-2-1.17V96.31l2,1.19Zm-2.41-1.38-2-1.15V94.92l2,1.17Zm-2.39-1.36-2-1.17V93.52l2,1.19Zm-2.41-1.38-2-1.16V92.11l2,1.19Zm-2.41-1.38-2-1.16v12.4l2,1.19ZM116.3,91.82l-2-1.14v12.65l2,1.16Zm0-1.27-26-14.92v.86l26,14.82v-.76Zm9.56-5.78L99.93,69.84l-9.32,5.42,26,14.84Z"/><polygon id="_Path_101" data-name="&lt;Path&gt;" class="cls-1" points="126.64 85.87 126.64 85.39 116.34 91.33 116.34 91.81 121.54 88.81 121.54 102.36 121.91 102.14 121.91 88.59 126.64 85.87"/><g id="_Group_93" data-name="&lt;Group&gt;"><path id="_Path_102" data-name="&lt;Path&gt;" class="cls-1" d="M119.52,98.53a.65.65,0,0,1-.31-.08l-.15-.09a.16.16,0,0,1-.06-.22h0a.16.16,0,0,1,.22-.06l.15.09a.32.32,0,0,0,.32,0l1-.55-.16-.1a.16.16,0,0,1-.05-.22h0a.16.16,0,0,1,.22-.06l.16.09a.32.32,0,0,1,.16.28.32.32,0,0,1-.17.28l-1,.55A.65.65,0,0,1,119.52,98.53Z"/></g><g id="_Group_94" data-name="&lt;Group&gt;"><path id="_Path_103" data-name="&lt;Path&gt;" class="cls-1" d="M123,96.58a.64.64,0,0,1-.31-.09l-.15-.09a.16.16,0,0,1-.06-.22h0a.16.16,0,0,1,.22-.06l.15.09a.32.32,0,0,0,.32,0l1-.55-.16-.1a.16.16,0,0,1-.05-.22h0a.16.16,0,0,1,.22-.06l.16.09a.32.32,0,0,1,.16.28.33.33,0,0,1-.17.28l-1,.55A.65.65,0,0,1,123,96.58Z"/></g></g><g id="_Group_95" data-name="&lt;Group&gt;"><polygon id="_Path_104" data-name="&lt;Path&gt;" class="cls-1" points="79.38 95.79 79.38 81.92 105.85 97.15 105.85 111.2 79.38 95.79"/><polygon id="_Path_105" data-name="&lt;Path&gt;" class="cls-1" points="79.38 81.51 89.22 75.79 115.67 91.02 105.85 96.65 79.38 81.51"/><polygon id="_Path_106" data-name="&lt;Path&gt;" class="cls-1" points="105.99 96.74 105.85 97.96 79.38 82.87 79.38 81.57 105.99 96.74"/><polygon id="_Path_107" data-name="&lt;Path&gt;" class="cls-3" points="80.36 82.11 89.22 76.98 115.67 92.21 106.84 97.25 80.36 82.11"/><path id="_Compound_Path_99" data-name="&lt;Compound Path&gt;" class="cls-2" d="M115.93,90.87v14.77l-10.08,5.85L79.12,95.94V81.35l10.1-5.86ZM79.64,95.64l1.88,1.1V84.34L79.6,83.25Zm21.55,12.53h0l2.06,1.2V96.72l-2-1.17Zm-.37-12.83-2-1.17v12.6l2,1.19ZM98.45,94l-2.1-1.2v12.57l2,1.19V94ZM96,92.59l-2-1.16V104l2,1.19Zm-2.41-1.38-2-1.16v12.51l2,1.19Zm-2.41-1.38-2-1.15v12.48l2,1.17Zm-2.39-1.36-2-1.17V99.77l2,1.19ZM86.35,87.1l-2-1.17V98.36l2,1.19Zm-2.41-1.38-2-1.17V97l2,1.19Zm21.66,12.35-2-1.14v12.65l2,1.16Zm0-1.27-26-14.92v.86l26,14.82V96.8ZM115.15,91,89.22,76.09,79.9,81.51l26,14.84Z"/><polygon id="_Path_108" data-name="&lt;Path&gt;" class="cls-1" points="115.93 92.11 115.93 91.64 105.63 97.58 105.63 98.05 110.83 95.06 110.83 108.61 111.2 108.39 111.2 94.84 115.93 92.11"/><g id="_Group_96" data-name="&lt;Group&gt;"><path id="_Path_109" data-name="&lt;Path&gt;" class="cls-1" d="M108.81,104.78a.65.65,0,0,1-.31-.08l-.15-.09a.16.16,0,0,1-.06-.22h0a.16.16,0,0,1,.22-.06l.15.09a.32.32,0,0,0,.32,0l1-.55-.16-.1a.16.16,0,0,1-.05-.22h0a.16.16,0,0,1,.22-.06l.16.09a.32.32,0,0,1,.16.28.32.32,0,0,1-.17.28l-1,.55A.64.64,0,0,1,108.81,104.78Z"/></g><g id="_Group_97" data-name="&lt;Group&gt;"><path id="_Path_110" data-name="&lt;Path&gt;" class="cls-1" d="M112.31,102.82a.64.64,0,0,1-.31-.08l-.15-.09a.16.16,0,0,1-.06-.22h0a.16.16,0,0,1,.22-.06l.15.09a.32.32,0,0,0,.32,0l1-.55-.16-.1a.16.16,0,0,1-.05-.22h0a.16.16,0,0,1,.22-.06l.16.09a.32.32,0,0,1,.16.28.32.32,0,0,1-.17.28l-1,.55A.65.65,0,0,1,112.31,102.82Z"/></g></g><g id="_Group_98" data-name="&lt;Group&gt;"><polygon id="_Path_111" data-name="&lt;Path&gt;" class="cls-1" points="68.66 102.04 68.66 88.17 95.14 103.4 95.14 117.44 68.66 102.04"/><polygon id="_Path_112" data-name="&lt;Path&gt;" class="cls-1" points="68.66 87.75 78.51 82.04 104.96 97.27 95.14 102.9 68.66 87.75"/><polygon id="_Path_113" data-name="&lt;Path&gt;" class="cls-1" points="95.28 102.99 95.14 104.21 68.66 89.11 68.66 87.82 95.28 102.99"/><polygon id="_Path_114" data-name="&lt;Path&gt;" class="cls-3" points="69.65 88.36 78.51 83.23 104.96 98.46 96.12 103.5 69.65 88.36"/><path id="_Compound_Path_100" data-name="&lt;Compound Path&gt;" class="cls-2" d="M105.22,97.12v14.77l-10.08,5.85L68.4,102.19V87.6l10.1-5.86Zm-36.29,4.77,1.88,1.1V90.59L68.89,89.5Zm21.55,12.53h0l2.06,1.2V103l-2-1.16Zm-.37-12.83-2-1.16V113l2,1.19Zm-2.36-1.35L85.64,99v12.57l2,1.19V100.24Zm-2.47-1.41-2-1.16v12.54l2,1.19Zm-2.41-1.38-2-1.16v12.51l2,1.19Zm-2.41-1.38-2-1.15v12.48l2,1.17Zm-2.39-1.36-2-1.16V106l2,1.19Zm-2.41-1.38-2-1.16v12.43l2,1.19ZM73.22,92l-2-1.16v12.4l2,1.19Zm21.66,12.35-2-1.14v12.65l2,1.16Zm0-1.27-26-14.92V89l26,14.82V103Zm9.56-5.78L78.51,82.34l-9.32,5.42,26,14.84Z"/><polygon id="_Path_115" data-name="&lt;Path&gt;" class="cls-1" points="105.22 98.36 105.22 97.89 94.91 103.83 94.92 104.3 100.11 101.3 100.11 114.85 100.49 114.64 100.49 101.09 105.22 98.36"/><g id="_Group_99" data-name="&lt;Group&gt;"><path id="_Path_116" data-name="&lt;Path&gt;" class="cls-1" d="M98.09,111a.64.64,0,0,1-.31-.08l-.15-.09a.16.16,0,0,1-.06-.22h0a.16.16,0,0,1,.22-.06l.15.09a.32.32,0,0,0,.32,0l1-.55-.16-.1a.16.16,0,0,1-.05-.22h0a.16.16,0,0,1,.22-.06l.16.09a.32.32,0,0,1,.16.28.32.32,0,0,1-.17.28l-1,.55A.65.65,0,0,1,98.09,111Z"/></g><g id="_Group_100" data-name="&lt;Group&gt;"><path id="_Path_117" data-name="&lt;Path&gt;" class="cls-1" d="M101.6,109.07a.65.65,0,0,1-.31-.08l-.15-.09a.16.16,0,0,1-.06-.22h0a.16.16,0,0,1,.22-.06l.15.09a.32.32,0,0,0,.32,0l1-.55-.16-.1a.16.16,0,0,1-.05-.22h0a.16.16,0,0,1,.22-.06l.16.09a.32.32,0,0,1,.16.28.32.32,0,0,1-.17.28l-1,.55A.64.64,0,0,1,101.6,109.07Z"/></g></g><g id="_Group_101" data-name="&lt;Group&gt;"><g id="_Group_102" data-name="&lt;Group&gt;"><polygon id="_Path_118" data-name="&lt;Path&gt;" class="cls-1" points="100.83 68.94 100.83 55.07 127.31 70.3 127.31 84.35 100.83 68.94"/><polygon id="_Path_119" data-name="&lt;Path&gt;" class="cls-1" points="100.83 54.66 110.68 48.94 137.13 64.17 127.31 69.8 100.83 54.66"/><polygon id="_Path_120" data-name="&lt;Path&gt;" class="cls-1" points="127.45 69.89 127.31 71.11 100.83 56.02 100.83 54.72 127.45 69.89"/><polygon id="_Path_121" data-name="&lt;Path&gt;" class="cls-3" points="101.82 55.27 110.68 50.13 137.13 65.36 128.29 70.41 101.82 55.27"/><path id="_Compound_Path_101" data-name="&lt;Compound Path&gt;" class="cls-2" d="M137.39,64V78.79l-10.08,5.85L100.57,69.09V54.51l10.1-5.86Zm-36.29,4.77,1.88,1.1V57.5l-1.92-1.09Zm21.55,12.53h0l2.06,1.2V69.87l-2-1.17Zm-.37-12.83-2-1.17v12.6l2,1.19Zm-2.36-1.35-2.1-1.2V78.52l2,1.19V67.15Zm-2.47-1.41-2-1.17V77.12l2,1.19ZM115,64.36l-2-1.17V75.71l2,1.19ZM112.61,63l-2-1.15V74.32l2,1.17Zm-2.39-1.36-2-1.16V72.92l2,1.19Zm-2.41-1.38-2-1.16V71.51l2,1.19Zm-2.41-1.38-2-1.16v12.4l2,1.19ZM127,71.22l-2-1.14V82.74l2,1.16Zm0-1.27L101.06,55v.86l26,14.82v-.76Zm9.56-5.78L110.68,49.24l-9.32,5.42,26,14.84Z"/><polygon id="_Path_122" data-name="&lt;Path&gt;" class="cls-1" points="137.39 65.27 137.39 64.79 127.08 70.73 127.09 71.2 132.29 68.21 132.29 81.76 132.66 81.54 132.66 67.99 137.39 65.27"/><g id="_Group_103" data-name="&lt;Group&gt;"><path id="_Path_123" data-name="&lt;Path&gt;" class="cls-1" d="M130.26,77.93a.64.64,0,0,1-.31-.08l-.15-.09a.16.16,0,0,1-.06-.22h0a.16.16,0,0,1,.22-.06l.15.09a.32.32,0,0,0,.32,0l1-.55-.16-.1a.16.16,0,0,1-.05-.22h0a.16.16,0,0,1,.22-.06l.16.09a.32.32,0,0,1,.16.28.32.32,0,0,1-.17.28l-1,.55A.65.65,0,0,1,130.26,77.93Z"/></g><g id="_Group_104" data-name="&lt;Group&gt;"><path id="_Path_124" data-name="&lt;Path&gt;" class="cls-1" d="M133.77,76a.64.64,0,0,1-.31-.08l-.15-.09a.16.16,0,0,1-.06-.22h0a.16.16,0,0,1,.22-.06l.15.09a.32.32,0,0,0,.32,0l1-.55-.16-.1a.16.16,0,0,1-.05-.22h0a.16.16,0,0,1,.22-.06l.16.09a.32.32,0,0,1,.16.28.32.32,0,0,1-.17.28l-1,.55A.65.65,0,0,1,133.77,76Z"/></g></g><g id="_Group_105" data-name="&lt;Group&gt;"><polygon id="_Path_125" data-name="&lt;Path&gt;" class="cls-1" points="130.01 62.42 124.82 59.43 119.62 62.42 119.62 63.87 124.82 66.85 124.82 65.41 130.01 62.42"/><path id="_Compound_Path_102" data-name="&lt;Compound Path&gt;" class="cls-2" d="M130.2,62.32V64l-5.38,3.09-.19-.11h0l-5.2-3V62.32l5.38-3.1,5.2,3h0Zm-5.38-2.67L120,62.42l4.82,2.78,4.82-2.78Zm-.19,6.89v-1l-2.82-1.63-2-1.15v1Z"/><polygon id="_Path_126" data-name="&lt;Path&gt;" class="cls-3" points="127.58 62.74 124.82 64.28 122.05 62.74 124.82 61.15 127.58 62.74"/><path id="_Compound_Path_103" data-name="&lt;Compound Path&gt;" class="cls-2" d="M128.44,62.42l-3.62-2.08-3.62,2.08,3.62,2.08Zm-3.62-1.66,2.88,1.66-2.88,1.66-2.88-1.66Z"/></g></g><g id="_Group_106" data-name="&lt;Group&gt;"><g id="_Group_107" data-name="&lt;Group&gt;"><polygon id="_Path_127" data-name="&lt;Path&gt;" class="cls-1" points="57.94 108.29 57.94 94.41 84.41 109.65 84.41 123.69 57.94 108.29"/><polygon id="_Path_128" data-name="&lt;Path&gt;" class="cls-1" points="57.94 94 67.78 88.29 94.23 103.52 84.41 109.14 57.94 94"/><polygon id="_Path_129" data-name="&lt;Path&gt;" class="cls-1" points="84.55 109.23 84.41 110.46 57.94 95.36 57.94 94.07 84.55 109.23"/><polygon id="_Path_130" data-name="&lt;Path&gt;" class="cls-3" points="58.92 94.61 67.78 89.47 94.23 104.7 85.39 109.75 58.92 94.61"/><path id="_Compound_Path_104" data-name="&lt;Compound Path&gt;" class="cls-2" d="M94.49,103.37v14.77L84.41,124,57.68,108.44V93.85L67.78,88Zm-36.29,4.77,1.88,1.1V96.84l-1.92-1.09Zm21.55,12.53h0l2.06,1.2V109.22l-2-1.16Zm-.37-12.83-2-1.17v12.6l2,1.19ZM77,106.49l-2.1-1.2v12.57l2,1.19V106.49Zm-2.47-1.41-2-1.16v12.54l2,1.19Zm-2.41-1.38-2-1.17v12.51l2,1.19Zm-2.41-1.38-2-1.15v12.48l2,1.17ZM67.32,101l-2-1.16v12.46l2,1.19Zm-2.41-1.38-2-1.16v12.43l2,1.19Zm-2.41-1.38-2-1.16v12.4l2,1.19Zm21.66,12.35-2-1.14v12.65l2,1.16Zm0-1.27-26-14.92v.86l26,14.82v-.76Zm9.56-5.78L67.78,88.59,58.45,94l26,14.84Z"/><polygon id="_Path_131" data-name="&lt;Path&gt;" class="cls-1" points="94.49 104.61 94.49 104.14 84.19 110.07 84.19 110.55 89.39 107.55 89.39 121.1 89.76 120.89 89.76 107.34 94.49 104.61"/><g id="_Group_108" data-name="&lt;Group&gt;"><path id="_Path_132" data-name="&lt;Path&gt;" class="cls-1" d="M87.36,117.27a.64.64,0,0,1-.31-.08l-.15-.09a.16.16,0,0,1-.06-.22h0a.16.16,0,0,1,.22-.06l.15.09a.32.32,0,0,0,.32,0l1-.55-.16-.1a.16.16,0,0,1-.06-.22h0a.16.16,0,0,1,.22-.06l.16.09a.32.32,0,0,1,.16.28.32.32,0,0,1-.17.28l-1,.55A.65.65,0,0,1,87.36,117.27Z"/></g><g id="_Group_109" data-name="&lt;Group&gt;"><path id="_Path_133" data-name="&lt;Path&gt;" class="cls-1" d="M90.87,115.32a.64.64,0,0,1-.31-.08l-.15-.09a.16.16,0,0,1-.06-.22h0a.16.16,0,0,1,.22-.06l.15.09a.32.32,0,0,0,.32,0l1-.55-.16-.1a.16.16,0,0,1-.05-.22h0A.16.16,0,0,1,92,114l.16.09a.32.32,0,0,1,.16.28.32.32,0,0,1-.17.28l-1,.55A.65.65,0,0,1,90.87,115.32Z"/></g></g><g id="_Group_110" data-name="&lt;Group&gt;"><polygon id="_Path_134" data-name="&lt;Path&gt;" class="cls-1" points="72.96 93.41 67.76 90.42 62.57 93.41 62.57 94.86 67.76 97.84 67.76 96.4 72.96 93.41"/><path id="_Compound_Path_105" data-name="&lt;Compound Path&gt;" class="cls-2" d="M73.15,93.3V95l-5.38,3.09-.19-.11h0l-5.2-3V93.3l5.38-3.1,5.2,3h0Zm-5.38-2.67-4.82,2.78,4.82,2.78,4.82-2.78Zm-.19,6.89v-1l-2.82-1.63-2-1.15v1Z"/><polygon id="_Path_135" data-name="&lt;Path&gt;" class="cls-3" points="70.53 93.73 67.76 95.27 65 93.73 67.76 92.14 70.53 93.73"/><path id="_Compound_Path_106" data-name="&lt;Compound Path&gt;" class="cls-2" d="M71.39,93.41l-3.62-2.08-3.62,2.08,3.62,2.08Zm-3.62-1.66,2.88,1.66-2.88,1.66-2.88-1.66Z"/></g></g><g id="_Group_111" data-name="&lt;Group&gt;"><polygon id="_Path_136" data-name="&lt;Path&gt;" class="cls-1" points="47.22 114.53 47.22 100.66 73.7 115.9 73.7 129.94 47.22 114.53"/><polygon id="_Path_137" data-name="&lt;Path&gt;" class="cls-1" points="47.22 100.25 57.06 94.53 83.52 109.76 73.7 115.39 47.22 100.25"/><polygon id="_Path_138" data-name="&lt;Path&gt;" class="cls-1" points="73.84 115.48 73.7 116.7 47.22 101.61 47.22 100.31 73.84 115.48"/><polygon id="_Path_139" data-name="&lt;Path&gt;" class="cls-3" points="48.21 100.86 57.06 95.72 83.52 110.95 74.68 116 48.21 100.86"/><path id="_Compound_Path_107" data-name="&lt;Compound Path&gt;" class="cls-2" d="M83.78,109.61v14.77L73.7,130.24,47,114.68V100.1l10.1-5.86Zm-36.29,4.77,1.88,1.1V103.09L47.45,102ZM69,126.91h0l2.06,1.2V115.46l-2-1.16Zm-.37-12.83-2-1.16v12.6l2,1.19Zm-2.36-1.35-2.1-1.2v12.57l2,1.19V112.74Zm-2.47-1.41-2-1.16v12.54l2,1.19ZM61.41,110l-2-1.17V121.3l2,1.19ZM59,108.58l-2-1.15v12.48l2,1.17Zm-2.39-1.36-2-1.17v12.46l2,1.19Zm-2.41-1.38-2-1.16V117.1l2,1.19Zm-2.41-1.38-2-1.16v12.4l2,1.19Zm21.66,12.35-2-1.14v12.65l2,1.16Zm0-1.27-26-14.92v.86l26,14.82v-.76ZM83,109.76,57.07,94.83l-9.32,5.42,26,14.84Z"/><polygon id="_Path_140" data-name="&lt;Path&gt;" class="cls-1" points="83.78 110.86 83.78 110.38 73.47 116.32 73.47 116.8 78.67 113.8 78.67 127.35 79.05 127.13 79.05 113.58 83.78 110.86"/><g id="_Group_112" data-name="&lt;Group&gt;"><path id="_Path_141" data-name="&lt;Path&gt;" class="cls-1" d="M76.65,123.52a.65.65,0,0,1-.31-.08l-.15-.09a.16.16,0,0,1-.06-.22h0a.16.16,0,0,1,.22-.06l.15.09a.32.32,0,0,0,.32,0l1-.55-.16-.1a.16.16,0,0,1-.06-.22h0a.16.16,0,0,1,.22-.06l.16.09a.32.32,0,0,1,.16.28.32.32,0,0,1-.17.28l-1,.55A.65.65,0,0,1,76.65,123.52Z"/></g><g id="_Group_113" data-name="&lt;Group&gt;"><path id="_Path_142" data-name="&lt;Path&gt;" class="cls-1" d="M80.16,121.57a.64.64,0,0,1-.31-.08l-.15-.09a.16.16,0,0,1-.06-.22h0a.16.16,0,0,1,.22-.06l.15.09a.32.32,0,0,0,.32,0l1-.55-.16-.1a.16.16,0,0,1-.05-.22h0a.16.16,0,0,1,.22-.06l.16.09a.32.32,0,0,1,.16.28.33.33,0,0,1-.17.28l-1,.55A.65.65,0,0,1,80.16,121.57Z"/></g></g><g id="_Group_114" data-name="&lt;Group&gt;"><g id="_Group_115" data-name="&lt;Group&gt;"><polygon id="_Path_143" data-name="&lt;Path&gt;" class="cls-1" points="90.12 75.19 90.12 61.32 116.6 76.55 116.6 90.59 90.12 75.19"/><polygon id="_Path_144" data-name="&lt;Path&gt;" class="cls-1" points="90.12 60.91 99.97 55.19 126.42 70.42 116.6 76.05 90.12 60.91"/><polygon id="_Path_145" data-name="&lt;Path&gt;" class="cls-1" points="116.74 76.14 116.6 77.36 90.12 62.27 90.12 60.97 116.74 76.14"/><polygon id="_Path_146" data-name="&lt;Path&gt;" class="cls-3" points="91.11 61.51 99.97 56.38 126.42 71.61 117.58 76.65 91.11 61.51"/><path id="_Compound_Path_108" data-name="&lt;Compound Path&gt;" class="cls-2" d="M126.68,70.27V85L116.6,90.9,89.86,75.34V60.75L100,54.89ZM90.38,75l1.88,1.1V63.74l-1.92-1.09Zm21.55,12.53h0l2.06,1.2V76.12l-2-1.17Zm-.37-12.83-2-1.17v12.6l2,1.19ZM109.2,73.4l-2.1-1.2V84.77l2,1.19V73.4ZM106.73,72l-2-1.16V83.36l2,1.19Zm-2.41-1.38-2-1.17V82l2,1.19Zm-2.41-1.38-2-1.15V80.57l2,1.17Zm-2.39-1.36-2-1.16V79.16l2,1.19ZM97.1,66.5l-2-1.16V77.76l2,1.19Zm-2.41-1.38-2-1.16v12.4l2,1.19Zm21.66,12.35-2-1.14V89l2,1.16Zm0-1.27-26-14.92v.86l26,14.82V76.2Zm9.56-5.78L100,55.49,90.64,60.9l26,14.84Z"/><polygon id="_Path_147" data-name="&lt;Path&gt;" class="cls-1" points="126.68 71.51 126.68 71.04 116.37 76.98 116.38 77.45 121.57 74.45 121.57 88 121.95 87.79 121.95 74.24 126.68 71.51"/><g id="_Group_116" data-name="&lt;Group&gt;"><path id="_Path_148" data-name="&lt;Path&gt;" class="cls-1" d="M119.55,84.18a.64.64,0,0,1-.31-.08l-.15-.09a.16.16,0,0,1-.06-.22h0a.16.16,0,0,1,.22-.06l.15.09a.32.32,0,0,0,.32,0l1-.55-.16-.1a.16.16,0,0,1-.06-.22h0a.16.16,0,0,1,.22-.06l.16.09a.32.32,0,0,1,.16.28.33.33,0,0,1-.17.28l-1,.55A.65.65,0,0,1,119.55,84.18Z"/></g><g id="_Group_117" data-name="&lt;Group&gt;"><path id="_Path_149" data-name="&lt;Path&gt;" class="cls-1" d="M123.06,82.22a.64.64,0,0,1-.31-.08l-.15-.09a.16.16,0,0,1-.06-.22h0a.16.16,0,0,1,.22-.06l.15.09a.32.32,0,0,0,.32,0l1-.55-.16-.1A.16.16,0,0,1,124,81h0a.16.16,0,0,1,.22-.06l.16.09a.32.32,0,0,1,.16.28.32.32,0,0,1-.17.28l-1,.55A.65.65,0,0,1,123.06,82.22Z"/></g></g><g id="_Group_118" data-name="&lt;Group&gt;"><polygon id="_Path_150" data-name="&lt;Path&gt;" class="cls-1" points="105.15 60.25 99.95 57.26 94.76 60.25 94.76 61.7 99.95 64.68 99.95 63.24 105.15 60.25"/><path id="_Compound_Path_109" data-name="&lt;Compound Path&gt;" class="cls-2" d="M105.33,60.14v1.66L100,64.89l-.19-.11h0l-5.2-3V60.14L100,57l5.2,3h0ZM100,57.48l-4.82,2.78L100,63l4.82-2.78Zm-.19,6.89v-1l-2.82-1.63-2-1.15v1Z"/><polygon id="_Path_151" data-name="&lt;Path&gt;" class="cls-3" points="102.72 60.57 99.95 62.11 97.19 60.57 99.95 58.98 102.72 60.57"/><path id="_Compound_Path_110" data-name="&lt;Compound Path&gt;" class="cls-2" d="M103.57,60.25,100,58.17l-3.62,2.08L100,62.34ZM100,58.59l2.88,1.66L100,61.91l-2.88-1.66Z"/></g></g><g id="_Group_119" data-name="&lt;Group&gt;"><polygon id="_Path_152" data-name="&lt;Path&gt;" class="cls-1" points="79.41 81.44 79.41 67.56 105.88 82.8 105.88 96.84 79.41 81.44"/><polygon id="_Path_153" data-name="&lt;Path&gt;" class="cls-1" points="79.41 67.15 89.25 61.44 115.71 76.67 105.88 82.3 79.41 67.15"/><polygon id="_Path_154" data-name="&lt;Path&gt;" class="cls-1" points="106.02 82.39 105.88 83.61 79.41 68.51 79.41 67.22 106.02 82.39"/><polygon id="_Path_155" data-name="&lt;Path&gt;" class="cls-3" points="80.4 67.76 89.25 62.63 115.71 77.86 106.87 82.9 80.4 67.76"/><path id="_Compound_Path_111" data-name="&lt;Compound Path&gt;" class="cls-2" d="M116,76.52V91.29l-10.08,5.85L79.15,81.59V67l10.1-5.86ZM79.67,81.29l1.88,1.1V70L79.64,68.9Zm21.55,12.53h0l2.06,1.2V82.37l-2-1.16ZM100.84,81l-2-1.16v12.6l2,1.19Zm-2.36-1.35-2.1-1.2V91l2,1.19V79.64ZM96,78.24l-2-1.16V89.61l2,1.19ZM93.6,76.86l-2-1.16V88.21l2,1.19Zm-2.41-1.38-2-1.15V86.82l2,1.17ZM88.8,74.12l-2-1.16V85.41l2,1.19Zm-2.41-1.38-2-1.16V84l2,1.19ZM84,71.37l-2-1.16V82.6l2,1.19Zm21.66,12.35-2-1.14V95.23l2,1.16Zm0-1.27-26-14.92v.86l26,14.82v-.76Zm9.56-5.78L89.25,61.74l-9.32,5.42,26,14.84Z"/><polygon id="_Path_156" data-name="&lt;Path&gt;" class="cls-1" points="115.97 77.76 115.97 77.29 105.66 83.22 105.66 83.7 110.86 80.7 110.86 94.25 111.23 94.04 111.23 80.49 115.97 77.76"/><g id="_Group_120" data-name="&lt;Group&gt;"><path id="_Path_157" data-name="&lt;Path&gt;" class="cls-1" d="M108.84,90.43a.65.65,0,0,1-.31-.08l-.15-.09a.16.16,0,0,1-.06-.22h0a.16.16,0,0,1,.22-.06l.15.09a.32.32,0,0,0,.32,0l1-.55-.16-.1a.16.16,0,0,1-.05-.22h0a.16.16,0,0,1,.22-.06l.16.09a.32.32,0,0,1,.16.28.32.32,0,0,1-.17.28l-1,.55A.65.65,0,0,1,108.84,90.43Z"/></g><g id="_Group_121" data-name="&lt;Group&gt;"><path id="_Path_158" data-name="&lt;Path&gt;" class="cls-1" d="M112.34,88.47a.64.64,0,0,1-.31-.08l-.15-.09a.16.16,0,0,1-.06-.22h0A.16.16,0,0,1,112,88l.15.09a.32.32,0,0,0,.32,0l1-.55-.16-.1a.16.16,0,0,1-.05-.22h0a.16.16,0,0,1,.22-.06l.16.09a.32.32,0,0,1,.16.28.32.32,0,0,1-.17.28l-1,.55A.65.65,0,0,1,112.34,88.47Z"/></g></g><g id="_Group_122" data-name="&lt;Group&gt;"><g id="_Group_123" data-name="&lt;Group&gt;"><polygon id="_Path_159" data-name="&lt;Path&gt;" class="cls-1" points="68.68 87.69 68.68 73.81 95.16 89.05 95.16 103.09 68.68 87.69"/><polygon id="_Path_160" data-name="&lt;Path&gt;" class="cls-1" points="68.68 73.4 78.52 67.69 104.98 82.92 95.16 88.54 68.68 73.4"/><polygon id="_Path_161" data-name="&lt;Path&gt;" class="cls-1" points="95.3 88.63 95.16 89.86 68.68 74.76 68.68 73.47 95.3 88.63"/><polygon id="_Path_162" data-name="&lt;Path&gt;" class="cls-3" points="69.61 73.97 78.52 68.87 104.98 84.1 96.14 89.15 69.61 73.97"/><path id="_Compound_Path_112" data-name="&lt;Compound Path&gt;" class="cls-2" d="M105.24,82.76V97.54l-10.08,5.85L68.42,87.83V73.25l10.1-5.86ZM68.94,87.54l1.88,1.1V76.24l-1.92-1.09Zm21.55,12.53h0l2.06,1.2V88.61l-2-1.17Zm-.37-12.83-2-1.16v12.6l2,1.19Zm-2.36-1.35-2.1-1.2V97.26l2,1.19V85.89Zm-2.47-1.41-2-1.16V95.86l2,1.19Zm-2.41-1.38-2-1.16V94.45l2,1.19Zm-2.41-1.38-2-1.15V93.06l2,1.17Zm-2.39-1.36L76,79.2V91.66l2,1.19ZM75.66,79l-2-1.16V90.25l2,1.19Zm-2.41-1.38-2-1.17v12.4l2,1.19ZM94.9,90l-2-1.14v12.65l2,1.16Zm0-1.27-26-14.92v.86l26,14.82v-.76Zm9.56-5.78L78.52,68,69.2,73.4l26,14.84Z"/><polygon id="_Path_163" data-name="&lt;Path&gt;" class="cls-1" points="105.24 84.01 105.24 83.54 94.93 89.47 94.93 89.95 100.13 86.95 100.13 100.5 100.5 100.28 100.5 86.74 105.24 84.01"/><g id="_Group_124" data-name="&lt;Group&gt;"><path id="_Path_164" data-name="&lt;Path&gt;" class="cls-1" d="M98.11,96.67a.65.65,0,0,1-.31-.08l-.15-.09a.16.16,0,0,1-.06-.22h0a.16.16,0,0,1,.22-.06l.15.09a.32.32,0,0,0,.32,0l1-.55-.16-.1a.16.16,0,0,1-.05-.22h0a.16.16,0,0,1,.22-.06l.16.09a.32.32,0,0,1,.16.28.33.33,0,0,1-.17.28l-1,.55A.65.65,0,0,1,98.11,96.67Z"/></g><g id="_Group_125" data-name="&lt;Group&gt;"><path id="_Path_165" data-name="&lt;Path&gt;" class="cls-1" d="M101.62,94.72a.64.64,0,0,1-.31-.08l-.15-.09a.16.16,0,0,1-.06-.22h0a.16.16,0,0,1,.22-.06l.15.09a.32.32,0,0,0,.32,0l1-.55-.16-.1a.16.16,0,0,1-.05-.22h0a.16.16,0,0,1,.22-.06l.16.09a.32.32,0,0,1,.16.28.32.32,0,0,1-.17.28l-1,.55A.65.65,0,0,1,101.62,94.72Z"/></g></g><g id="_Group_126" data-name="&lt;Group&gt;"><polygon id="_Path_166" data-name="&lt;Path&gt;" class="cls-1" points="98.17 81.27 92.97 78.28 87.78 81.27 87.78 82.72 92.97 85.69 92.97 84.25 98.17 81.27"/><path id="_Compound_Path_113" data-name="&lt;Compound Path&gt;" class="cls-2" d="M98.35,81.16v1.66L93,85.91l-.19-.11h0l-5.2-3V81.16L93,78.06l5.2,3h0ZM93,78.49l-4.82,2.78L93,84l4.82-2.78Zm-.19,6.89v-1L90,82.74l-2-1.15v1Z"/><polygon id="_Path_167" data-name="&lt;Path&gt;" class="cls-3" points="95.73 81.59 92.97 83.12 90.21 81.59 92.97 80 95.73 81.59"/><path id="_Compound_Path_114" data-name="&lt;Compound Path&gt;" class="cls-2" d="M96.59,81.27,93,79.18l-3.62,2.08L93,83.35ZM93,79.61l2.88,1.66L93,82.92l-2.88-1.66Z"/></g></g></g></g></g></g></g></svg>