<svg id="Layer_1" data-name="Layer 1" xmlns="http://www.w3.org/2000/svg" xmlns:xlink="http://www.w3.org/1999/xlink" viewBox="0 0 200 250"><defs><style>.cls-1{mask:url(#mask);filter:url(#luminosity-noclip-12);}.cls-10,.cls-12,.cls-14,.cls-16,.cls-18,.cls-2,.cls-20,.cls-22,.cls-4,.cls-6,.cls-8{mix-blend-mode:multiply;}.cls-2{fill:url(#_ÂÁ_Ï_ÌÌ_È_ËÂÌÚ_117);}.cls-3{mask:url(#mask-2);filter:url(#luminosity-noclip-17);}.cls-4{fill:url(#_ÂÁ_Ï_ÌÌ_È_ËÂÌÚ_106);}.cls-5{mask:url(#mask-3);filter:url(#luminosity-noclip-18);}.cls-6{fill:url(#_ÂÁ_Ï_ÌÌ_È_ËÂÌÚ_106-2);}.cls-7{mask:url(#mask-4);filter:url(#luminosity-noclip-19);}.cls-8{fill:url(#_ÂÁ_Ï_ÌÌ_È_ËÂÌÚ_106-3);}.cls-9{mask:url(#mask-5);filter:url(#luminosity-noclip-20);}.cls-10{fill:url(#_ÂÁ_Ï_ÌÌ_È_ËÂÌÚ_106-4);}.cls-11{mask:url(#mask-6);filter:url(#luminosity-noclip-21);}.cls-12{fill:url(#_ÂÁ_Ï_ÌÌ_È_ËÂÌÚ_106-5);}.cls-13,.cls-17{mask:url(#mask-7);}.cls-13{filter:url(#luminosity-noclip-13);}.cls-14{fill:url(#_ÂÁ_Ï_ÌÌ_È_ËÂÌÚ_114);}.cls-15{mask:url(#mask-8);filter:url(#luminosity-noclip-22);}.cls-16{fill:url(#_ÂÁ_Ï_ÌÌ_È_ËÂÌÚ_106-6);}.cls-17{filter:url(#luminosity-noclip-14);}.cls-18{fill:url(#_ÂÁ_Ï_ÌÌ_È_ËÂÌÚ_114-2);}.cls-19{mask:url(#mask-10);filter:url(#luminosity-noclip-15);}.cls-20{fill:url(#_ÂÁ_Ï_ÌÌ_È_ËÂÌÚ_106-7);}.cls-21{mask:url(#mask-11);filter:url(#luminosity-noclip-16);}.cls-22{fill:url(#_ÂÁ_Ï_ÌÌ_È_ËÂÌÚ_106-8);}.cls-23{fill:none;}.cls-24,.cls-25,.cls-33{fill:#2bd978;}.cls-25{opacity:0.4;}.cls-26{fill:url(#_ÂÁ_Ï_ÌÌ_È_ËÂÌÚ_9);}.cls-27{fill:url(#_ÂÁ_Ï_ÌÌ_È_ËÂÌÚ_8);}.cls-28{fill:#fff;}.cls-29{opacity:0.5;fill:url(#_ÂÁ_Ï_ÌÌ_È_ËÂÌÚ_7);}.cls-30{opacity:0.11;}.cls-31{fill:url(#_ÂÁ_Ï_ÌÌ_È_ËÂÌÚ_7-2);}.cls-32{fill:url(#_ÂÁ_Ï_ÌÌ_È_ËÂÌÚ_7-3);}.cls-33{opacity:0.7;}.cls-34{fill:#424240;}.cls-34,.cls-36,.cls-78,.cls-80,.cls-82,.cls-84,.cls-86,.cls-88,.cls-90,.cls-92{opacity:0.66;}.cls-35{mask:url(#mask-12);}.cls-36{fill:url(#_ÂÁ_Ï_ÌÌ_È_ËÂÌÚ_19);}.cls-37{clip-path:url(#clip-path);}.cls-38{fill:#f2f2f0;}.cls-39{fill:url(#_ÂÁ_Ï_ÌÌ_È_ËÂÌÚ_17);}.cls-40{fill:#1e1e1e;}.cls-41{opacity:0.51;}.cls-42{fill:#3a3a3a;}.cls-43{mask:url(#mask-13);}.cls-44,.cls-61{opacity:0.78;}.cls-44{fill:url(#_ÂÁ_Ï_ÌÌ_È_ËÂÌÚ_18);}.cls-45{fill:url(#_ÂÁ_Ï_ÌÌ_È_ËÂÌÚ_17-2);}.cls-46{fill:url(#_ÂÁ_Ï_ÌÌ_È_ËÂÌÚ_17-3);}.cls-47{fill:url(#_ÂÁ_Ï_ÌÌ_È_ËÂÌÚ_16);}.cls-48{fill:#232323;}.cls-49{fill:url(#_ÂÁ_Ï_ÌÌ_È_ËÂÌÚ_16-2);}.cls-50{fill:url(#_ÂÁ_Ï_ÌÌ_È_ËÂÌÚ_16-3);}.cls-51{fill:url(#_ÂÁ_Ï_ÌÌ_È_ËÂÌÚ_16-4);}.cls-52{fill:url(#_ÂÁ_Ï_ÌÌ_È_ËÂÌÚ_16-5);}.cls-53{fill:url(#_ÂÁ_Ï_ÌÌ_È_ËÂÌÚ_17-4);}.cls-54{fill:url(#_ÂÁ_Ï_ÌÌ_È_ËÂÌÚ_16-6);}.cls-55{fill:url(#_ÂÁ_Ï_ÌÌ_È_ËÂÌÚ_17-5);}.cls-56{fill:url(#_ÂÁ_Ï_ÌÌ_È_ËÂÌÚ_16-7);}.cls-57{fill:url(#_ÂÁ_Ï_ÌÌ_È_ËÂÌÚ_17-6);}.cls-58{fill:url(#_ÂÁ_Ï_ÌÌ_È_ËÂÌÚ_16-8);}.cls-59{fill:url(#_ÂÁ_Ï_ÌÌ_È_ËÂÌÚ_17-7);}.cls-60{mask:url(#mask-14);}.cls-61{fill:url(#_ÂÁ_Ï_ÌÌ_È_ËÂÌÚ_18-2);}.cls-62{fill:url(#_ÂÁ_Ï_ÌÌ_È_ËÂÌÚ_17-8);}.cls-63{fill:url(#_ÂÁ_Ï_ÌÌ_È_ËÂÌÚ_17-9);}.cls-64{fill:url(#_ÂÁ_Ï_ÌÌ_È_ËÂÌÚ_16-9);}.cls-65{fill:url(#_ÂÁ_Ï_ÌÌ_È_ËÂÌÚ_16-10);}.cls-66{fill:url(#_ÂÁ_Ï_ÌÌ_È_ËÂÌÚ_16-11);}.cls-67{fill:url(#_ÂÁ_Ï_ÌÌ_È_ËÂÌÚ_16-12);}.cls-68{fill:url(#_ÂÁ_Ï_ÌÌ_È_ËÂÌÚ_16-13);}.cls-69{fill:url(#_ÂÁ_Ï_ÌÌ_È_ËÂÌÚ_17-10);}.cls-70{fill:url(#_ÂÁ_Ï_ÌÌ_È_ËÂÌÚ_16-14);}.cls-71{fill:url(#_ÂÁ_Ï_ÌÌ_È_ËÂÌÚ_17-11);}.cls-72{fill:url(#_ÂÁ_Ï_ÌÌ_È_ËÂÌÚ_16-15);}.cls-73{fill:url(#_ÂÁ_Ï_ÌÌ_È_ËÂÌÚ_17-12);}.cls-74{fill:url(#_ÂÁ_Ï_ÌÌ_È_ËÂÌÚ_16-16);}.cls-75{fill:url(#_ÂÁ_Ï_ÌÌ_È_ËÂÌÚ_17-13);}.cls-76{fill:url(#_ÂÁ_Ï_ÌÌ_È_ËÂÌÚ_16-17);}.cls-77{mask:url(#mask-15);}.cls-78{fill:url(#_ÂÁ_Ï_ÌÌ_È_ËÂÌÚ_10);}.cls-79{mask:url(#mask-16);}.cls-80{fill:url(#_ÂÁ_Ï_ÌÌ_È_ËÂÌÚ_10-2);}.cls-81{mask:url(#mask-17);}.cls-82{fill:url(#_ÂÁ_Ï_ÌÌ_È_ËÂÌÚ_10-3);}.cls-83{mask:url(#mask-18);}.cls-84{fill:url(#_ÂÁ_Ï_ÌÌ_È_ËÂÌÚ_10-4);}.cls-85{mask:url(#mask-19);}.cls-86{fill:url(#_ÂÁ_Ï_ÌÌ_È_ËÂÌÚ_10-5);}.cls-87{mask:url(#mask-20);}.cls-88{fill:url(#_ÂÁ_Ï_ÌÌ_È_ËÂÌÚ_10-6);}.cls-89{mask:url(#mask-21);}.cls-90{fill:url(#_ÂÁ_Ï_ÌÌ_È_ËÂÌÚ_10-7);}.cls-91{mask:url(#mask-22);}.cls-92{fill:url(#_ÂÁ_Ï_ÌÌ_È_ËÂÌÚ_10-8);}.cls-93{filter:url(#luminosity-noclip-11);}.cls-94{filter:url(#luminosity-noclip-10);}.cls-95{filter:url(#luminosity-noclip-8);}.cls-96{filter:url(#luminosity-noclip-7);}.cls-97{filter:url(#luminosity-noclip-6);}.cls-98{filter:url(#luminosity-noclip-5);}.cls-99{filter:url(#luminosity-noclip-4);}.cls-100{filter:url(#luminosity-noclip-3);}.cls-101{filter:url(#luminosity-noclip-2);}.cls-102{filter:url(#luminosity-noclip);}</style><filter id="luminosity-noclip" x="2.56" y="-8317" width="132.82" height="32766" filterUnits="userSpaceOnUse" color-interpolation-filters="sRGB"><feFlood flood-color="#fff" result="bg"/><feBlend in="SourceGraphic" in2="bg"/></filter><mask id="mask" x="2.56" y="-8317" width="132.82" height="32766" maskUnits="userSpaceOnUse"><g class="cls-102"/></mask><radialGradient id="_ÂÁ_Ï_ÌÌ_È_ËÂÌÚ_117" cx="68.97" cy="197.67" r="54.22" gradientUnits="userSpaceOnUse"><stop offset="0" stop-color="#e6e6e6"/><stop offset="0.1" stop-color="#e0e0e0"/><stop offset="0.23" stop-color="#cdcdcd"/><stop offset="0.39" stop-color="#afafaf"/><stop offset="0.57" stop-color="#868686"/><stop offset="0.75" stop-color="#505050"/><stop offset="0.95" stop-color="#101010"/><stop offset="1"/></radialGradient><filter id="luminosity-noclip-2" x="128.58" y="-8317" width="4.62" height="32766" filterUnits="userSpaceOnUse" color-interpolation-filters="sRGB"><feFlood flood-color="#fff" result="bg"/><feBlend in="SourceGraphic" in2="bg"/></filter><mask id="mask-2" x="128.58" y="-8317" width="4.62" height="32766" maskUnits="userSpaceOnUse"><g class="cls-101"/></mask><linearGradient id="_ÂÁ_Ï_ÌÌ_È_ËÂÌÚ_106" x1="-662.93" y1="1152.91" x2="-662.93" y2="1122.56" gradientTransform="matrix(0.87, 0.5, 0, 1.15, 705, -818.27)" gradientUnits="userSpaceOnUse"><stop offset="0"/><stop offset="0.06" stop-color="#2a2a2a"/><stop offset="0.15" stop-color="#626262"/><stop offset="0.23" stop-color="#929292"/><stop offset="0.31" stop-color="#b6b6b6"/><stop offset="0.39" stop-color="#d1d1d1"/><stop offset="0.45" stop-color="#e0e0e0"/><stop offset="0.51" stop-color="#e6e6e6"/><stop offset="0.55" stop-color="#dedede"/><stop offset="0.62" stop-color="#c9c9c9"/><stop offset="0.71" stop-color="#a7a7a7"/><stop offset="0.8" stop-color="#787878"/><stop offset="0.91" stop-color="#3b3b3b"/><stop offset="1"/></linearGradient><filter id="luminosity-noclip-3" x="137.17" y="-8317" width="4.62" height="32766" filterUnits="userSpaceOnUse" color-interpolation-filters="sRGB"><feFlood flood-color="#fff" result="bg"/><feBlend in="SourceGraphic" in2="bg"/></filter><mask id="mask-3" x="137.17" y="-8317" width="4.62" height="32766" maskUnits="userSpaceOnUse"><g class="cls-100"/></mask><linearGradient id="_ÂÁ_Ï_ÌÌ_È_ËÂÌÚ_106-2" x1="-653.01" y1="1144.1" x2="-653.01" y2="1129.39" xlink:href="#_ÂÁ_Ï_ÌÌ_È_ËÂÌÚ_106"/><filter id="luminosity-noclip-4" x="22.07" y="-8317" width="4.62" height="32766" filterUnits="userSpaceOnUse" color-interpolation-filters="sRGB"><feFlood flood-color="#fff" result="bg"/><feBlend in="SourceGraphic" in2="bg"/></filter><mask id="mask-4" x="22.07" y="-8317" width="4.62" height="32766" maskUnits="userSpaceOnUse"><g class="cls-99"/></mask><linearGradient id="_ÂÁ_Ï_ÌÌ_È_ËÂÌÚ_106-3" x1="-2148.99" y1="1814.13" x2="-2148.99" y2="1728.58" gradientTransform="matrix(-0.87, 0.5, 0, 1.15, -1836.65, -818.27)" xlink:href="#_ÂÁ_Ï_ÌÌ_È_ËÂÌÚ_106"/><filter id="luminosity-noclip-5" x="13.4" y="-8317" width="4.62" height="32766" filterUnits="userSpaceOnUse" color-interpolation-filters="sRGB"><feFlood flood-color="#fff" result="bg"/><feBlend in="SourceGraphic" in2="bg"/></filter><mask id="mask-5" x="13.4" y="-8317" width="4.62" height="32766" maskUnits="userSpaceOnUse"><g class="cls-98"/></mask><linearGradient id="_ÂÁ_Ï_ÌÌ_È_ËÂÌÚ_106-4" x1="-2138.99" y1="1814.13" x2="-2138.99" y2="1741.42" gradientTransform="matrix(-0.87, 0.5, 0, 1.15, -1836.65, -818.27)" xlink:href="#_ÂÁ_Ï_ÌÌ_È_ËÂÌÚ_106"/><filter id="luminosity-noclip-6" x="4.73" y="-8317" width="4.62" height="32766" filterUnits="userSpaceOnUse" color-interpolation-filters="sRGB"><feFlood flood-color="#fff" result="bg"/><feBlend in="SourceGraphic" in2="bg"/></filter><mask id="mask-6" x="4.73" y="-8317" width="4.62" height="32766" maskUnits="userSpaceOnUse"><g class="cls-97"/></mask><linearGradient id="_ÂÁ_Ï_ÌÌ_È_ËÂÌÚ_106-5" x1="-2128.98" y1="1787.72" x2="-2128.98" y2="1757.37" gradientTransform="matrix(-0.87, 0.5, 0, 1.15, -1836.65, -818.27)" xlink:href="#_ÂÁ_Ï_ÌÌ_È_ËÂÌÚ_106"/><filter id="luminosity-noclip-7" x="28.59" y="-8317" width="40.38" height="32766" filterUnits="userSpaceOnUse" color-interpolation-filters="sRGB"><feFlood flood-color="#fff" result="bg"/><feBlend in="SourceGraphic" in2="bg"/></filter><mask id="mask-7" x="28.59" y="-8317" width="40.38" height="32766" maskUnits="userSpaceOnUse"><g class="cls-96"/></mask><linearGradient id="_ÂÁ_Ï_ÌÌ_È_ËÂÌÚ_114" x1="28.59" y1="155.07" x2="68.97" y2="155.07" gradientUnits="userSpaceOnUse"><stop offset="0"/><stop offset="0.05" stop-color="#2f2f2f"/><stop offset="0.1" stop-color="#5a5a5a"/><stop offset="0.15" stop-color="#828282"/><stop offset="0.22" stop-color="#a4a4a4"/><stop offset="0.28" stop-color="silver"/><stop offset="0.36" stop-color="#d7d7d7"/><stop offset="0.44" stop-color="#e9e9e9"/><stop offset="0.54" stop-color="#f6f6f6"/><stop offset="0.68" stop-color="#fdfdfd"/><stop offset="1" stop-color="#fff"/></linearGradient><filter id="luminosity-noclip-8" x="-3.86" y="-8317" width="4.62" height="32766" filterUnits="userSpaceOnUse" color-interpolation-filters="sRGB"><feFlood flood-color="#fff" result="bg"/><feBlend in="SourceGraphic" in2="bg"/></filter><mask id="mask-8" x="-3.86" y="-8317" width="4.62" height="32766" maskUnits="userSpaceOnUse"><g class="cls-95"/></mask><linearGradient id="_ÂÁ_Ï_ÌÌ_È_ËÂÌÚ_106-6" x1="-2119.06" y1="1778.91" x2="-2119.06" y2="1764.21" gradientTransform="matrix(-0.87, 0.5, 0, 1.15, -1836.65, -818.27)" xlink:href="#_ÂÁ_Ï_ÌÌ_È_ËÂÌÚ_106"/><linearGradient id="_ÂÁ_Ï_ÌÌ_È_ËÂÌÚ_114-2" x1="28.59" y1="32.03" x2="68.97" y2="32.03" xlink:href="#_ÂÁ_Ï_ÌÌ_È_ËÂÌÚ_114"/><filter id="luminosity-noclip-10" x="111.25" y="-8317" width="4.62" height="32766" filterUnits="userSpaceOnUse" color-interpolation-filters="sRGB"><feFlood flood-color="#fff" result="bg"/><feBlend in="SourceGraphic" in2="bg"/></filter><mask id="mask-10" x="111.25" y="-8317" width="4.62" height="32766" maskUnits="userSpaceOnUse"><g class="cls-94"/></mask><linearGradient id="_ÂÁ_Ï_ÌÌ_È_ËÂÌÚ_106-7" x1="-682.95" y1="1179.32" x2="-682.95" y2="1093.77" xlink:href="#_ÂÁ_Ï_ÌÌ_È_ËÂÌÚ_106"/><filter id="luminosity-noclip-11" x="119.92" y="-8317" width="4.62" height="32766" filterUnits="userSpaceOnUse" color-interpolation-filters="sRGB"><feFlood flood-color="#fff" result="bg"/><feBlend in="SourceGraphic" in2="bg"/></filter><mask id="mask-11" x="119.92" y="-8317" width="4.62" height="32766" maskUnits="userSpaceOnUse"><g class="cls-93"/></mask><linearGradient id="_ÂÁ_Ï_ÌÌ_È_ËÂÌÚ_106-8" x1="-672.94" y1="1179.31" x2="-672.94" y2="1106.61" xlink:href="#_ÂÁ_Ï_ÌÌ_È_ËÂÌÚ_106"/><linearGradient id="_ÂÁ_Ï_ÌÌ_È_ËÂÌÚ_9" x1="138.65" y1="197.91" x2="190.16" y2="227.65" gradientUnits="userSpaceOnUse"><stop offset="0" stop-color="#f2f2f0"/><stop offset="0.14" stop-color="#e0e0de"/><stop offset="0.42" stop-color="#b1b1af"/><stop offset="0.82" stop-color="#666664"/><stop offset="1" stop-color="#424240"/></linearGradient><linearGradient id="_ÂÁ_Ï_ÌÌ_È_ËÂÌÚ_8" x1="132.19" y1="209.15" x2="197.11" y2="209.15" gradientUnits="userSpaceOnUse"><stop offset="0" stop-color="#e9e9fd"/><stop offset="0.43" stop-color="#efeff5"/><stop offset="1" stop-color="#f2f2f0"/></linearGradient><linearGradient id="_ÂÁ_Ï_ÌÌ_È_ËÂÌÚ_7" x1="137.24" y1="183.06" x2="190.49" y2="183.06" gradientUnits="userSpaceOnUse"><stop offset="0" stop-color="#424240"/><stop offset="0.13" stop-color="#3d634c"/><stop offset="0.32" stop-color="#378d5c"/><stop offset="0.51" stop-color="#32ae68"/><stop offset="0.69" stop-color="#2ec671"/><stop offset="0.86" stop-color="#2cd476"/><stop offset="1" stop-color="#2bd978"/></linearGradient><linearGradient id="_ÂÁ_Ï_ÌÌ_È_ËÂÌÚ_7-2" x1="137.24" y1="169.39" x2="190.49" y2="169.39" xlink:href="#_ÂÁ_Ï_ÌÌ_È_ËÂÌÚ_7"/><linearGradient id="_ÂÁ_Ï_ÌÌ_È_ËÂÌÚ_7-3" x1="137.24" y1="176.22" x2="190.49" y2="176.22" xlink:href="#_ÂÁ_Ï_ÌÌ_È_ËÂÌÚ_7"/><filter id="luminosity-noclip-12" x="2.56" y="129.18" width="132.82" height="76.69" filterUnits="userSpaceOnUse" color-interpolation-filters="sRGB"><feFlood flood-color="#fff" result="bg"/><feBlend in="SourceGraphic" in2="bg"/></filter><mask id="mask-12" x="2.56" y="129.18" width="132.82" height="76.69" maskUnits="userSpaceOnUse"><g class="cls-1"><path class="cls-2" d="M64.55,204.92,4.21,170.08c-2.44-1.41-2.14-3.87.68-5.5l59-34c2.82-1.63,7.09-1.81,9.53-.39L133.73,165c2.44,1.41,2.14,3.87-.68,5.5l-59,34C71.26,206.15,67,206.33,64.55,204.92Z"/></g></mask><radialGradient id="_ÂÁ_Ï_ÌÌ_È_ËÂÌÚ_19" cx="68.97" cy="197.67" r="54.22" gradientUnits="userSpaceOnUse"><stop offset="0" stop-color="#2bd978"/><stop offset="0.13" stop-color="#2cd376"/><stop offset="0.31" stop-color="#2fc06f"/><stop offset="0.51" stop-color="#33a264"/><stop offset="0.74" stop-color="#3a7954"/><stop offset="0.99" stop-color="#424441"/><stop offset="1" stop-color="#424240"/></radialGradient><clipPath id="clip-path"><path class="cls-23" d="M132-62.81,133.73,165c2.44,1.41,2.14,3.87-.68,5.5l-59,34c-2.82,1.63-7.09,1.81-9.53.4L4.2,170.08c-2.44-1.41-2.14-3.87.68-5.5L9.23-62.81"/></clipPath><linearGradient id="_ÂÁ_Ï_ÌÌ_È_ËÂÌÚ_17" x1="89.16" y1="243.43" x2="89.16" y2="158.22" gradientUnits="userSpaceOnUse"><stop offset="0" stop-color="#f2f2f0"/><stop offset="0.41" stop-color="#ededec"/><stop offset="0.9" stop-color="#dfdfde"/><stop offset="1" stop-color="#dbdbdb"/></linearGradient><filter id="luminosity-noclip-13" x="28.59" y="137.12" width="40.38" height="35.89" filterUnits="userSpaceOnUse" color-interpolation-filters="sRGB"><feFlood flood-color="#fff" result="bg"/><feBlend in="SourceGraphic" in2="bg"/></filter><mask id="mask-13" x="28.59" y="137.12" width="40.38" height="35.89" maskUnits="userSpaceOnUse"><g class="cls-13"><polygon class="cls-14" points="68.97 173.01 58.36 173.01 28.59 155.82 60.98 137.13 68.97 137.13 68.97 173.01"/></g></mask><linearGradient id="_ÂÁ_Ï_ÌÌ_È_ËÂÌÚ_18" x1="28.59" y1="155.07" x2="68.97" y2="155.07" gradientUnits="userSpaceOnUse"><stop offset="0" stop-color="#dbdbdb"/><stop offset="0.05" stop-color="#bdbdbc"/><stop offset="0.12" stop-color="#9c9c9b"/><stop offset="0.19" stop-color="#80807f"/><stop offset="0.28" stop-color="#696968"/><stop offset="0.37" stop-color="#575756"/><stop offset="0.49" stop-color="#4b4b49"/><stop offset="0.64" stop-color="#444442"/><stop offset="1" stop-color="#424240"/></linearGradient><linearGradient id="_ÂÁ_Ï_ÌÌ_È_ËÂÌÚ_17-2" x1="39.67" y1="154.04" x2="98.27" y2="154.04" xlink:href="#_ÂÁ_Ï_ÌÌ_È_ËÂÌÚ_17"/><linearGradient id="_ÂÁ_Ï_ÌÌ_È_ËÂÌÚ_17-3" x1="87.4" y1="170.13" x2="80.28" y2="157.69" xlink:href="#_ÂÁ_Ï_ÌÌ_È_ËÂÌÚ_17"/><linearGradient id="_ÂÁ_Ï_ÌÌ_È_ËÂÌÚ_16" x1="54.32" y1="164.23" x2="54.32" y2="145.25" gradientUnits="userSpaceOnUse"><stop offset="0" stop-color="#424240"/><stop offset="0.13" stop-color="#474745"/><stop offset="0.28" stop-color="#555553"/><stop offset="0.45" stop-color="#6d6d6b"/><stop offset="0.62" stop-color="#8e8e8c"/><stop offset="0.8" stop-color="#b9b9b7"/><stop offset="0.98" stop-color="#ececea"/><stop offset="1" stop-color="#f2f2f0"/></linearGradient><linearGradient id="_ÂÁ_Ï_ÌÌ_È_ËÂÌÚ_16-2" x1="55.48" y1="149.56" x2="70.65" y2="149.56" xlink:href="#_ÂÁ_Ï_ÌÌ_È_ËÂÌÚ_16"/><linearGradient id="_ÂÁ_Ï_ÌÌ_È_ËÂÌÚ_16-3" x1="59.41" y1="151.82" x2="74.59" y2="151.82" xlink:href="#_ÂÁ_Ï_ÌÌ_È_ËÂÌÚ_16"/><linearGradient id="_ÂÁ_Ï_ÌÌ_È_ËÂÌÚ_16-4" x1="63.35" y1="154.09" x2="78.53" y2="154.09" xlink:href="#_ÂÁ_Ï_ÌÌ_È_ËÂÌÚ_16"/><linearGradient id="_ÂÁ_Ï_ÌÌ_È_ËÂÌÚ_16-5" x1="67.29" y1="156.36" x2="82.46" y2="156.36" xlink:href="#_ÂÁ_Ï_ÌÌ_È_ËÂÌÚ_16"/><linearGradient id="_ÂÁ_Ï_ÌÌ_È_ËÂÌÚ_17-4" x1="63.49" y1="182.51" x2="67.37" y2="182.51" xlink:href="#_ÂÁ_Ï_ÌÌ_È_ËÂÌÚ_17"/><linearGradient id="_ÂÁ_Ï_ÌÌ_È_ËÂÌÚ_16-6" x1="63.01" y1="182.9" x2="66.23" y2="182.9" xlink:href="#_ÂÁ_Ï_ÌÌ_È_ËÂÌÚ_16"/><linearGradient id="_ÂÁ_Ï_ÌÌ_È_ËÂÌÚ_17-5" x1="29.62" y1="161.7" x2="33.51" y2="161.7" xlink:href="#_ÂÁ_Ï_ÌÌ_È_ËÂÌÚ_17"/><linearGradient id="_ÂÁ_Ï_ÌÌ_È_ËÂÌÚ_16-7" x1="29.15" y1="162.1" x2="32.36" y2="162.1" xlink:href="#_ÂÁ_Ï_ÌÌ_È_ËÂÌÚ_16"/><linearGradient id="_ÂÁ_Ï_ÌÌ_È_ËÂÌÚ_17-6" x1="29.62" y1="241.84" x2="33.51" y2="241.84" xlink:href="#_ÂÁ_Ï_ÌÌ_È_ËÂÌÚ_17"/><linearGradient id="_ÂÁ_Ï_ÌÌ_È_ËÂÌÚ_16-8" x1="29.15" y1="242.24" x2="32.36" y2="242.24" xlink:href="#_ÂÁ_Ï_ÌÌ_È_ËÂÌÚ_16"/><linearGradient id="_ÂÁ_Ï_ÌÌ_È_ËÂÌÚ_17-7" x1="89.16" y1="120.39" x2="89.16" y2="35.18" xlink:href="#_ÂÁ_Ï_ÌÌ_È_ËÂÌÚ_17"/><filter id="luminosity-noclip-14" x="28.59" y="14.09" width="40.38" height="35.89" filterUnits="userSpaceOnUse" color-interpolation-filters="sRGB"><feFlood flood-color="#fff" result="bg"/><feBlend in="SourceGraphic" in2="bg"/></filter><mask id="mask-14" x="28.59" y="14.09" width="40.38" height="35.89" maskUnits="userSpaceOnUse"><g class="cls-17"><polygon class="cls-18" points="68.97 49.98 58.36 49.98 28.59 32.79 60.98 14.09 68.97 14.09 68.97 49.98"/></g></mask><linearGradient id="_ÂÁ_Ï_ÌÌ_È_ËÂÌÚ_18-2" x1="28.59" y1="32.03" x2="68.97" y2="32.03" xlink:href="#_ÂÁ_Ï_ÌÌ_È_ËÂÌÚ_18"/><linearGradient id="_ÂÁ_Ï_ÌÌ_È_ËÂÌÚ_17-8" x1="39.67" y1="31" x2="98.27" y2="31" xlink:href="#_ÂÁ_Ï_ÌÌ_È_ËÂÌÚ_17"/><linearGradient id="_ÂÁ_Ï_ÌÌ_È_ËÂÌÚ_17-9" x1="87.4" y1="47.09" x2="80.28" y2="34.66" xlink:href="#_ÂÁ_Ï_ÌÌ_È_ËÂÌÚ_17"/><linearGradient id="_ÂÁ_Ï_ÌÌ_È_ËÂÌÚ_16-9" x1="54.32" y1="41.19" x2="54.32" y2="22.22" xlink:href="#_ÂÁ_Ï_ÌÌ_È_ËÂÌÚ_16"/><linearGradient id="_ÂÁ_Ï_ÌÌ_È_ËÂÌÚ_16-10" x1="55.48" y1="26.52" x2="70.65" y2="26.52" xlink:href="#_ÂÁ_Ï_ÌÌ_È_ËÂÌÚ_16"/><linearGradient id="_ÂÁ_Ï_ÌÌ_È_ËÂÌÚ_16-11" x1="59.41" y1="28.79" x2="74.59" y2="28.79" xlink:href="#_ÂÁ_Ï_ÌÌ_È_ËÂÌÚ_16"/><linearGradient id="_ÂÁ_Ï_ÌÌ_È_ËÂÌÚ_16-12" x1="63.35" y1="31.05" x2="78.53" y2="31.05" xlink:href="#_ÂÁ_Ï_ÌÌ_È_ËÂÌÚ_16"/><linearGradient id="_ÂÁ_Ï_ÌÌ_È_ËÂÌÚ_16-13" x1="67.29" y1="33.32" x2="82.46" y2="33.32" xlink:href="#_ÂÁ_Ï_ÌÌ_È_ËÂÌÚ_16"/><linearGradient id="_ÂÁ_Ï_ÌÌ_È_ËÂÌÚ_17-10" x1="63.49" y1="59.47" x2="67.37" y2="59.47" xlink:href="#_ÂÁ_Ï_ÌÌ_È_ËÂÌÚ_17"/><linearGradient id="_ÂÁ_Ï_ÌÌ_È_ËÂÌÚ_16-14" x1="63.01" y1="59.87" x2="66.23" y2="59.87" xlink:href="#_ÂÁ_Ï_ÌÌ_È_ËÂÌÚ_16"/><linearGradient id="_ÂÁ_Ï_ÌÌ_È_ËÂÌÚ_17-11" x1="29.62" y1="38.66" x2="33.51" y2="38.66" xlink:href="#_ÂÁ_Ï_ÌÌ_È_ËÂÌÚ_17"/><linearGradient id="_ÂÁ_Ï_ÌÌ_È_ËÂÌÚ_16-15" x1="29.15" y1="39.06" x2="32.36" y2="39.06" xlink:href="#_ÂÁ_Ï_ÌÌ_È_ËÂÌÚ_16"/><linearGradient id="_ÂÁ_Ï_ÌÌ_È_ËÂÌÚ_17-12" x1="63.49" y1="139.61" x2="67.37" y2="139.61" xlink:href="#_ÂÁ_Ï_ÌÌ_È_ËÂÌÚ_17"/><linearGradient id="_ÂÁ_Ï_ÌÌ_È_ËÂÌÚ_16-16" x1="63.01" y1="140.01" x2="66.23" y2="140.01" xlink:href="#_ÂÁ_Ï_ÌÌ_È_ËÂÌÚ_16"/><linearGradient id="_ÂÁ_Ï_ÌÌ_È_ËÂÌÚ_17-13" x1="29.62" y1="118.8" x2="33.51" y2="118.8" xlink:href="#_ÂÁ_Ï_ÌÌ_È_ËÂÌÚ_17"/><linearGradient id="_ÂÁ_Ï_ÌÌ_È_ËÂÌÚ_16-17" x1="29.15" y1="119.2" x2="32.36" y2="119.2" xlink:href="#_ÂÁ_Ï_ÌÌ_È_ËÂÌÚ_16"/><filter id="luminosity-noclip-15" x="111.25" y="102.88" width="4.62" height="99.48" filterUnits="userSpaceOnUse" color-interpolation-filters="sRGB"><feFlood flood-color="#fff" result="bg"/><feBlend in="SourceGraphic" in2="bg"/></filter><mask id="mask-15" x="111.25" y="102.88" width="4.62" height="99.48" maskUnits="userSpaceOnUse"><g class="cls-19"><path class="cls-20" d="M113.72,103.32l-.32-.19c-1.19-.69-2.15,0-2.15,1.63v93a5.15,5.15,0,0,0,2.15,4.11l.32.19c1.19.69,2.15,0,2.15-1.63v-93A5.15,5.15,0,0,0,113.72,103.32Z"/></g></mask><linearGradient id="_ÂÁ_Ï_ÌÌ_È_ËÂÌÚ_10" x1="-682.95" y1="1179.32" x2="-682.95" y2="1093.77" gradientTransform="matrix(0.87, 0.5, 0, 1.15, 705, -818.27)" gradientUnits="userSpaceOnUse"><stop offset="0" stop-color="#424240"/><stop offset="0.04" stop-color="#3f5647"/><stop offset="0.15" stop-color="#388559"/><stop offset="0.26" stop-color="#32a966"/><stop offset="0.35" stop-color="#2ec470"/><stop offset="0.44" stop-color="#2cd376"/><stop offset="0.51" stop-color="#2bd978"/><stop offset="0.57" stop-color="#2cd175"/><stop offset="0.66" stop-color="#2fbd6d"/><stop offset="0.77" stop-color="#359a61"/><stop offset="0.9" stop-color="#3c6b4f"/><stop offset="1" stop-color="#424240"/></linearGradient><filter id="luminosity-noclip-16" x="119.92" y="122.71" width="4.62" height="84.66" filterUnits="userSpaceOnUse" color-interpolation-filters="sRGB"><feFlood flood-color="#fff" result="bg"/><feBlend in="SourceGraphic" in2="bg"/></filter><mask id="mask-16" x="119.92" y="122.71" width="4.62" height="84.66" maskUnits="userSpaceOnUse"><g class="cls-21"><path class="cls-22" d="M122.39,123.15l-.32-.19c-1.19-.69-2.15,0-2.15,1.63v78.22a5.15,5.15,0,0,0,2.15,4.11l.32.19c1.19.69,2.15,0,2.15-1.63V127.26A5.15,5.15,0,0,0,122.39,123.15Z"/></g></mask><linearGradient id="_ÂÁ_Ï_ÌÌ_È_ËÂÌÚ_10-2" x1="-672.94" y1="1179.31" x2="-672.94" y2="1106.61" xlink:href="#_ÂÁ_Ï_ÌÌ_È_ËÂÌÚ_10"/><filter id="luminosity-noclip-17" x="128.58" y="146.13" width="4.62" height="35.75" filterUnits="userSpaceOnUse" color-interpolation-filters="sRGB"><feFlood flood-color="#fff" result="bg"/><feBlend in="SourceGraphic" in2="bg"/></filter><mask id="mask-17" x="128.58" y="146.13" width="4.62" height="35.75" maskUnits="userSpaceOnUse"><g class="cls-3"><path class="cls-4" d="M131.06,146.57l-.32-.19c-1.19-.69-2.15,0-2.15,1.63v29.31a5.15,5.15,0,0,0,2.15,4.11l.32.19c1.19.69,2.15,0,2.15-1.63V150.68A5.15,5.15,0,0,0,131.06,146.57Z"/></g></mask><linearGradient id="_ÂÁ_Ï_ÌÌ_È_ËÂÌÚ_10-3" x1="-662.93" y1="1152.91" x2="-662.93" y2="1122.56" xlink:href="#_ÂÁ_Ï_ÌÌ_È_ËÂÌÚ_10"/><filter id="luminosity-noclip-18" x="137.17" y="158.98" width="4.62" height="17.68" filterUnits="userSpaceOnUse" color-interpolation-filters="sRGB"><feFlood flood-color="#fff" result="bg"/><feBlend in="SourceGraphic" in2="bg"/></filter><mask id="mask-18" x="137.17" y="158.98" width="4.62" height="17.68" maskUnits="userSpaceOnUse"><g class="cls-5"><path class="cls-6" d="M139.65,159.43l-.32-.19c-1.19-.69-2.15,0-2.15,1.63v11.24a5.15,5.15,0,0,0,2.15,4.11l.32.19c1.19.69,2.15,0,2.15-1.63V163.54A5.15,5.15,0,0,0,139.65,159.43Z"/></g></mask><linearGradient id="_ÂÁ_Ï_ÌÌ_È_ËÂÌÚ_10-4" x1="-653.01" y1="1144.1" x2="-653.01" y2="1129.39" xlink:href="#_ÂÁ_Ï_ÌÌ_È_ËÂÌÚ_10"/><filter id="luminosity-noclip-19" x="22.07" y="102.88" width="4.62" height="99.48" filterUnits="userSpaceOnUse" color-interpolation-filters="sRGB"><feFlood flood-color="#fff" result="bg"/><feBlend in="SourceGraphic" in2="bg"/></filter><mask id="mask-19" x="22.07" y="102.88" width="4.62" height="99.48" maskUnits="userSpaceOnUse"><g class="cls-7"><path class="cls-8" d="M24.22,103.32l.32-.19c1.19-.69,2.15,0,2.15,1.63v93a5.15,5.15,0,0,1-2.15,4.11l-.32.19c-1.19.69-2.15,0-2.15-1.63v-93A5.15,5.15,0,0,1,24.22,103.32Z"/></g></mask><linearGradient id="_ÂÁ_Ï_ÌÌ_È_ËÂÌÚ_10-5" x1="-2148.99" y1="1814.13" x2="-2148.99" y2="1728.58" gradientTransform="matrix(-0.87, 0.5, 0, 1.15, -1836.65, -818.27)" xlink:href="#_ÂÁ_Ï_ÌÌ_È_ËÂÌÚ_10"/><filter id="luminosity-noclip-20" x="13.4" y="122.71" width="4.62" height="84.66" filterUnits="userSpaceOnUse" color-interpolation-filters="sRGB"><feFlood flood-color="#fff" result="bg"/><feBlend in="SourceGraphic" in2="bg"/></filter><mask id="mask-20" x="13.4" y="122.71" width="4.62" height="84.66" maskUnits="userSpaceOnUse"><g class="cls-9"><path class="cls-10" d="M15.55,123.15l.32-.19c1.19-.69,2.15,0,2.15,1.63v78.22a5.15,5.15,0,0,1-2.15,4.11l-.32.19c-1.19.69-2.15,0-2.15-1.63V127.26A5.15,5.15,0,0,1,15.55,123.15Z"/></g></mask><linearGradient id="_ÂÁ_Ï_ÌÌ_È_ËÂÌÚ_10-6" x1="-2138.99" y1="1814.13" x2="-2138.99" y2="1741.42" gradientTransform="matrix(-0.87, 0.5, 0, 1.15, -1836.65, -818.27)" xlink:href="#_ÂÁ_Ï_ÌÌ_È_ËÂÌÚ_10"/><filter id="luminosity-noclip-21" x="4.73" y="146.13" width="4.62" height="35.75" filterUnits="userSpaceOnUse" color-interpolation-filters="sRGB"><feFlood flood-color="#fff" result="bg"/><feBlend in="SourceGraphic" in2="bg"/></filter><mask id="mask-21" x="4.73" y="146.13" width="4.62" height="35.75" maskUnits="userSpaceOnUse"><g class="cls-11"><path class="cls-12" d="M6.88,146.57l.32-.19c1.19-.69,2.15,0,2.15,1.63v29.31a5.15,5.15,0,0,1-2.15,4.11l-.32.19c-1.19.69-2.15,0-2.15-1.63V150.68A5.15,5.15,0,0,1,6.88,146.57Z"/></g></mask><linearGradient id="_ÂÁ_Ï_ÌÌ_È_ËÂÌÚ_10-7" x1="-2128.98" y1="1787.72" x2="-2128.98" y2="1757.37" gradientTransform="matrix(-0.87, 0.5, 0, 1.15, -1836.65, -818.27)" xlink:href="#_ÂÁ_Ï_ÌÌ_È_ËÂÌÚ_10"/><filter id="luminosity-noclip-22" x="-3.86" y="158.98" width="4.62" height="17.68" filterUnits="userSpaceOnUse" color-interpolation-filters="sRGB"><feFlood flood-color="#fff" result="bg"/><feBlend in="SourceGraphic" in2="bg"/></filter><mask id="mask-22" x="-3.86" y="158.98" width="4.62" height="17.68" maskUnits="userSpaceOnUse"><g class="cls-15"><path class="cls-16" d="M-1.71,159.43l.32-.19c1.19-.69,2.15,0,2.15,1.63v11.24a5.15,5.15,0,0,1-2.15,4.11l-.32.19c-1.19.69-2.15,0-2.15-1.63V163.54A5.15,5.15,0,0,1-1.71,159.43Z"/></g></mask><linearGradient id="_ÂÁ_Ï_ÌÌ_È_ËÂÌÚ_10-8" x1="-2119.06" y1="1778.91" x2="-2119.06" y2="1764.21" gradientTransform="matrix(-0.87, 0.5, 0, 1.15, -1836.65, -818.27)" xlink:href="#_ÂÁ_Ï_ÌÌ_È_ËÂÌÚ_10"/></defs><title>data-sources</title><path class="cls-24" d="M159.95,245.2l-25-14.42"/><path class="cls-25" d="M197.11,222.41v-8.55l-1.56-.87c-.44,2.67-3.58,4.43-6.21,4.79l-17.89,10.46-7.81,2.82L138.72,218.2l.58-.33c-2.13-1-3.28-3.27-4.43-5.35l-1.68,1-1,.28v8.69h0a3.72,3.72,0,0,0,2.19,3.06l25,14.41a11.74,11.74,0,0,0,10.6,0l25-14.41a3.75,3.75,0,0,0,2.19-3s0-.1,0-.15Z"/><path class="cls-26" d="M197.11,214.81v-5.66l-1.56-.87c-.44,2.67-3.58,4.43-6.21,4.79l-17.89,10.46-7.81,2.82-24.92-12.86.58-.33c-2.13-1-3.28-3.27-4.43-5.35l-1.68,1-1,.28v5.8h0a3.72,3.72,0,0,0,2.19,3.06l25,14.41a11.74,11.74,0,0,0,10.6,0l25-14.41a3.75,3.75,0,0,0,2.19-3s0-.1,0-.15Z"/><path class="cls-27" d="M159.35,226.63l-25-14.41c-2.92-1.69-2.92-4.43,0-6.12l25-14.41a11.73,11.73,0,0,1,10.6,0l25,14.41c2.92,1.69,2.92,4.43,0,6.12l-25,14.41A11.73,11.73,0,0,1,159.35,226.63Z"/><path class="cls-28" d="M134.38,212.92l25,14.41"/><path class="cls-24" d="M164.26,224.3a8.35,8.35,0,0,1-4.17-1.11l-22.38-12.87a1.61,1.61,0,0,1,0-2.79l21.06-12a9.46,9.46,0,0,1,9.41,0L190,208.11a1.61,1.61,0,0,1,0,2.79l-21.59,12.28A8.34,8.34,0,0,1,164.26,224.3ZM163.47,195a8.74,8.74,0,0,0-4.37,1.16L138,208.1a.94.94,0,0,0,0,1.63l22.38,12.87a7.69,7.69,0,0,0,7.67,0l21.59-12.28a.94.94,0,0,0,0-1.63l-21.85-12.56h0A8.74,8.74,0,0,0,163.47,195Z"/><path class="cls-29" d="M189.86,168.5,168,155.94a9.08,9.08,0,0,0-9.08,0l-21.06,12a1.27,1.27,0,0,0-.64,1.11v27.34a1.27,1.27,0,0,0,.64,1.11l22.38,12.87a8,8,0,0,0,8,0L189.86,198a1.27,1.27,0,0,0,.64-1.11V169.6h0A1.27,1.27,0,0,0,189.86,168.5Z"/><g class="cls-30"><path class="cls-31" d="M168,155.94a9.08,9.08,0,0,0-9.08,0l-21.06,12a1.28,1.28,0,0,0,0,2.21L160.25,183a8,8,0,0,0,8,0l21.59-12.28a1.28,1.28,0,0,0,0-2.21Z"/></g><path class="cls-32" d="M189.86,169.45l-21.59,12.28a8,8,0,0,1-8,0l-22.38-12.87a1.26,1.26,0,0,1-.47-.48,1.28,1.28,0,0,0,.47,1.74L160.25,183a8,8,0,0,0,8,0l21.59-12.28a1.28,1.28,0,0,0,.47-1.74A1.26,1.26,0,0,1,189.86,169.45Z"/><polygon class="cls-33" points="163.87 176.8 150.23 168.93 163.87 161.06 177.5 168.93 163.87 176.8"/><path class="cls-24" d="M163.87,177.54a.74.74,0,0,1-.37-.1l-13.63-7.87a.74.74,0,0,1,0-1.28l13.63-7.87a.74.74,0,0,1,.74,0l13.63,7.87a.74.74,0,0,1,0,1.28l-13.63,7.87A.74.74,0,0,1,163.87,177.54Zm-12.16-8.61,12.16,7,12.16-7-12.16-7Z"/><path class="cls-34" d="M64.55,204.92,4.21,170.08c-2.44-1.41-2.14-3.87.68-5.5l59-34c2.82-1.63,7.09-1.81,9.53-.39L133.73,165c2.44,1.41,2.14,3.87-.68,5.5l-59,34C71.26,206.15,67,206.33,64.55,204.92Z"/><g class="cls-35"><path class="cls-36" d="M64.55,204.92,4.21,170.08c-2.44-1.41-2.14-3.87.68-5.5l59-34c2.82-1.63,7.09-1.81,9.53-.39L133.73,165c2.44,1.41,2.14,3.87-.68,5.5l-59,34C71.26,206.15,67,206.33,64.55,204.92Z"/></g><path class="cls-24" d="M4.21,170.08l5.3,3.06,54.36-31.38c2.82-1.63,7.09-1.81,9.53-.4l55,31.78,4.62-2.67c2.82-1.63,3.13-4.09.68-5.5L73.39,130.14c-2.44-1.41-6.71-1.23-9.53.39l-59,34C2.07,166.21,1.76,168.67,4.21,170.08Z"/><g class="cls-37"><polygon class="cls-38" points="68.97 179.14 28.59 155.82 68.97 132.51 109.35 155.83 68.97 179.14"/><polygon class="cls-28" points="68.97 268.62 28.59 245.31 68.97 222 109.35 245.31 68.97 268.62"/><polygon class="cls-39" points="109.35 155.83 109.35 245.31 68.97 268.62 68.97 179.14 109.35 155.83"/><polygon class="cls-40" points="28.59 155.82 28.59 245.31 68.97 268.62 68.97 179.14 28.59 155.82"/><g class="cls-41"><polygon class="cls-42" points="31.33 161.76 31.33 242.19 66.23 262.35 66.23 181.92 31.33 161.76"/></g><polygon class="cls-42" points="103.29 177.45 103.29 179.81 75.03 196.13 75.03 193.76 103.29 177.45"/><polygon class="cls-42" points="103.29 187.45 103.29 189.81 75.03 206.13 75.03 203.76 103.29 187.45"/><polygon class="cls-42" points="103.29 197.45 103.29 199.81 75.03 216.13 75.03 213.77 103.29 197.45"/><polygon class="cls-42" points="103.29 207.45 103.29 209.81 75.03 226.13 75.03 223.77 103.29 207.45"/><polygon class="cls-42" points="103.29 217.45 103.29 219.81 75.03 236.13 75.03 233.77 103.29 217.45"/><polygon class="cls-42" points="103.29 227.45 103.29 229.81 75.03 246.13 75.03 243.77 103.29 227.45"/><g class="cls-43"><polygon class="cls-44" points="68.97 173.01 58.36 173.01 28.59 155.82 60.98 137.13 68.97 137.13 68.97 173.01"/></g><polygon class="cls-45" points="68.97 170.95 39.67 154.04 68.97 137.13 98.27 154.04 68.97 170.95"/><polygon class="cls-46" points="98.27 154.04 98.27 156.1 68.97 173.01 68.97 170.95 98.27 154.04"/><polygon class="cls-47" points="39.67 154.04 39.67 156.1 68.97 173.01 68.97 170.95 39.67 154.04"/><polygon class="cls-48" points="57.61 154.31 56.31 153.56 56.42 152.95 68.45 145.95 70.12 146.75 69.81 147.26 57.61 154.31"/><polygon class="cls-49" points="68.52 146.52 69.81 147.26 70.65 146.78 68.52 145.55 55.48 153.08 56.31 153.56 68.52 146.52"/><polygon class="cls-48" points="61.55 156.58 60.25 155.83 60.35 155.22 72.39 148.22 74.06 149.01 73.75 149.53 61.55 156.58"/><polygon class="cls-50" points="72.45 148.78 73.75 149.53 74.59 149.05 72.45 147.82 59.41 155.35 60.25 155.83 72.45 148.78"/><polygon class="cls-48" points="65.48 158.84 64.19 158.09 64.29 157.49 76.33 150.48 78 151.28 77.69 151.8 65.48 158.84"/><polygon class="cls-51" points="76.39 151.05 77.69 151.8 78.53 151.31 76.39 150.08 63.35 157.61 64.19 158.1 76.39 151.05"/><polygon class="cls-48" points="69.42 161.11 68.12 160.36 68.23 159.75 80.27 152.75 81.94 153.54 81.63 154.06 69.42 161.11"/><polygon class="cls-52" points="80.33 153.32 81.63 154.06 82.46 153.58 80.33 152.35 67.29 159.88 68.13 160.36 80.33 153.32"/><g class="cls-41"><polygon class="cls-42" points="28.59 231.17 68.97 206.79 68.97 179.14 28.59 155.82 28.59 231.17"/></g><path class="cls-53" d="M67.37,183.16a3.55,3.55,0,0,0-1.61-2.78,1.12,1.12,0,0,0-1.14-.11h0l-1.14.67.7,0a1.84,1.84,0,0,0,0,.35,3.55,3.55,0,0,0,1.61,2.78,1.81,1.81,0,0,0,.34.15l-.33.61,1.11-.65h0A1.12,1.12,0,0,0,67.37,183.16Z"/><path class="cls-54" d="M66.23,183.83c0,1-.72,1.44-1.61.93A3.55,3.55,0,0,1,63,182c0-1,.72-1.44,1.61-.93A3.55,3.55,0,0,1,66.23,183.83Z"/><path class="cls-48" d="M65.54,183.44c0,.59-.41.83-.92.53a2,2,0,0,1-.92-1.6c0-.59.41-.83.92-.53A2,2,0,0,1,65.54,183.44Z"/><path class="cls-55" d="M33.51,162.35a3.55,3.55,0,0,0-1.61-2.78,1.13,1.13,0,0,0-1.14-.11h0l-1.14.67.7,0a1.84,1.84,0,0,0,0,.35,3.55,3.55,0,0,0,1.61,2.78,1.81,1.81,0,0,0,.34.15l-.33.61L33,163.4h0A1.12,1.12,0,0,0,33.51,162.35Z"/><path class="cls-56" d="M32.36,163c0,1-.72,1.44-1.61.93a3.55,3.55,0,0,1-1.61-2.78c0-1,.72-1.44,1.61-.93A3.55,3.55,0,0,1,32.36,163Z"/><path class="cls-48" d="M31.68,162.63c0,.59-.41.83-.92.53a2,2,0,0,1-.92-1.6c0-.59.41-.83.92-.53A2,2,0,0,1,31.68,162.63Z"/><path class="cls-57" d="M33.51,242.49a3.55,3.55,0,0,0-1.61-2.78,1.12,1.12,0,0,0-1.14-.11h0l-1.14.67.7,0a1.84,1.84,0,0,0,0,.35,3.55,3.55,0,0,0,1.61,2.78,1.81,1.81,0,0,0,.34.15l-.33.61,1.11-.65h0A1.12,1.12,0,0,0,33.51,242.49Z"/><path class="cls-58" d="M32.36,243.16c0,1-.72,1.44-1.61.93a3.55,3.55,0,0,1-1.61-2.78c0-1,.72-1.44,1.61-.93A3.55,3.55,0,0,1,32.36,243.16Z"/><path class="cls-48" d="M31.68,242.77c0,.59-.41.83-.92.53a2,2,0,0,1-.92-1.6c0-.59.41-.83.92-.53A2,2,0,0,1,31.68,242.77Z"/><polygon class="cls-24" points="42.55 187.21 33.65 182.07 33.65 180.11 42.55 185.25 42.55 187.21"/><polygon class="cls-24" points="47.11 189.84 43.91 187.99 43.91 186.04 47.11 187.89 47.11 189.84"/><polygon class="cls-24" points="50.65 191.88 48.47 190.63 48.47 188.67 50.65 189.93 50.65 191.88"/><polygon class="cls-24" points="38.5 189.33 33.65 186.53 33.65 184.58 38.5 187.38 38.5 189.33"/><polygon class="cls-24" points="45.8 193.55 39.86 190.12 39.86 188.16 45.8 191.59 45.8 193.55"/><polygon class="cls-24" points="49.34 195.59 47.16 194.33 47.16 192.38 49.34 193.64 49.34 195.59"/><polygon class="cls-24" points="52.7 197.53 50.52 196.28 50.52 194.32 52.7 195.58 52.7 197.53"/><polygon class="cls-24" points="37.16 193.02 33.65 191 33.65 189.04 37.16 191.07 37.16 193.02"/><polygon class="cls-24" points="39.72 194.5 38.52 193.81 38.52 191.85 39.72 192.55 39.72 194.5"/><polygon class="cls-24" points="43.25 196.54 41.08 195.28 41.08 193.33 43.25 194.59 43.25 196.54"/><polygon class="cls-24" points="46.6 202.94 33.65 195.46 33.65 193.51 46.6 200.98 46.6 202.94"/><polygon class="cls-24" points="51.16 205.57 47.96 203.72 47.96 201.77 51.16 203.62 51.16 205.57"/><polygon class="cls-24" points="37.16 201.95 33.65 199.93 33.65 197.97 37.16 200 37.16 201.95"/><polygon class="cls-24" points="45.39 206.71 38.52 202.74 38.52 200.78 45.39 204.75 45.39 206.71"/><polygon class="cls-24" points="48.93 208.75 46.75 207.49 46.75 205.54 48.93 206.79 48.93 208.75"/><polygon class="cls-24" points="40.83 208.53 33.65 204.39 33.65 202.44 40.83 206.58 40.83 208.53"/><polygon class="cls-24" points="47.38 212.32 42.19 209.32 42.19 207.37 47.38 210.36 47.38 212.32"/><polygon class="cls-24" points="52.25 215.13 48.74 213.1 48.74 211.15 52.25 213.17 52.25 215.13"/><polygon class="cls-24" points="36.07 210.25 33.65 208.85 33.65 206.9 36.07 208.3 36.07 210.25"/><polygon class="cls-24" points="40.64 212.89 37.43 211.04 37.43 209.09 40.64 210.94 40.64 212.89"/><polygon class="cls-24" points="47.16 216.66 42 213.68 42 211.72 47.16 214.7 47.16 216.66"/><polygon class="cls-24" points="41.08 217.61 33.65 213.32 33.65 211.37 41.08 215.65 41.08 217.61"/><polygon class="cls-24" points="49.39 222.41 42.44 218.39 42.44 216.44 49.39 220.46 49.39 222.41"/><polygon class="cls-24" points="52.93 224.45 50.75 223.19 50.75 221.24 52.93 222.5 52.93 224.45"/><polygon class="cls-24" points="56.33 226.41 54.15 225.16 54.15 223.2 56.33 224.46 56.33 226.41"/><polygon class="cls-24" points="38.1 220.35 33.65 217.78 33.65 215.83 38.1 218.4 38.1 220.35"/><polygon class="cls-24" points="56.71 195.38 62.88 198.94 62.88 196.99 56.71 193.43 56.71 195.38"/><polygon class="cls-24" points="58.03 200.61 62.88 203.41 62.88 201.45 58.03 198.66 58.03 200.61"/><polygon class="cls-24" points="59.37 205.85 62.88 207.87 62.88 205.92 59.37 203.89 59.37 205.85"/><polygon class="cls-24" points="57.77 209.39 62.88 212.34 62.88 210.38 57.77 207.44 57.77 209.39"/><polygon class="cls-24" points="59.37 214.78 62.88 216.8 62.88 214.85 59.37 212.82 59.37 214.78"/><polygon class="cls-24" points="58.43 218.7 62.88 221.27 62.88 219.31 58.43 216.74 58.43 218.7"/><polygon class="cls-24" points="60.45 224.33 62.88 225.73 62.88 223.78 60.45 222.38 60.45 224.33"/><polygon class="cls-24" points="58.18 227.48 62.88 230.2 62.88 228.24 58.18 225.53 58.18 227.48"/><polygon class="cls-24" points="58.43 232.09 62.88 234.66 62.88 232.71 58.43 230.14 58.43 232.09"/><polygon class="cls-24" points="41.35 222.23 39.46 221.14 39.46 219.18 41.35 220.28 41.35 222.23"/><polygon class="cls-24" points="46.97 225.47 42.71 223.02 42.71 221.06 46.97 223.52 46.97 225.47"/><polygon class="cls-24" points="50.49 240.49 43.3 236.34 43.3 234.39 50.49 238.54 50.49 240.49"/><polygon class="cls-24" points="55.41 243.34 52.58 241.7 52.58 239.75 55.41 241.38 55.41 243.34"/><polygon class="cls-38" points="68.97 56.1 28.59 32.79 68.97 9.48 109.35 32.79 68.97 56.1"/><polygon class="cls-28" points="68.97 145.59 28.59 122.27 68.97 98.96 109.35 122.27 68.97 145.59"/><polygon class="cls-59" points="109.35 32.79 109.35 122.27 68.97 145.59 68.97 56.1 109.35 32.79"/><polygon class="cls-40" points="28.59 32.79 28.59 122.27 68.97 145.59 68.97 56.1 28.59 32.79"/><g class="cls-41"><polygon class="cls-42" points="31.33 38.73 31.33 119.16 66.23 139.31 66.23 58.88 31.33 38.73"/></g><polygon class="cls-42" points="103.29 54.41 103.29 56.77 75.03 73.09 75.03 70.73 103.29 54.41"/><polygon class="cls-42" points="103.29 64.41 103.29 66.78 75.03 83.09 75.03 80.73 103.29 64.41"/><polygon class="cls-42" points="103.29 74.41 103.29 76.78 75.03 93.09 75.03 90.73 103.29 74.41"/><polygon class="cls-42" points="103.29 84.41 103.29 86.78 75.03 103.09 75.03 100.73 103.29 84.41"/><polygon class="cls-42" points="103.29 94.41 103.29 96.78 75.03 113.1 75.03 110.73 103.29 94.41"/><polygon class="cls-42" points="103.29 104.41 103.29 106.78 75.03 123.1 75.03 120.73 103.29 104.41"/><g class="cls-60"><polygon class="cls-61" points="68.97 49.98 58.36 49.98 28.59 32.79 60.98 14.09 68.97 14.09 68.97 49.98"/></g><polygon class="cls-62" points="68.97 47.92 39.67 31 68.97 14.09 98.27 31 68.97 47.92"/><polygon class="cls-63" points="98.27 31 98.27 33.06 68.97 49.98 68.97 47.92 98.27 31"/><polygon class="cls-64" points="39.67 31 39.67 33.06 68.97 49.98 68.97 47.92 39.67 31"/><polygon class="cls-48" points="57.61 31.27 56.31 30.52 56.42 29.92 68.45 22.91 70.12 23.71 69.81 24.23 57.61 31.27"/><polygon class="cls-65" points="68.52 23.48 69.81 24.23 70.65 23.75 68.52 22.51 55.48 30.04 56.31 30.53 68.52 23.48"/><polygon class="cls-48" points="61.55 33.54 60.25 32.79 60.35 32.18 72.39 25.18 74.06 25.98 73.75 26.49 61.55 33.54"/><polygon class="cls-66" points="72.45 25.75 73.75 26.49 74.59 26.01 72.45 24.78 59.41 32.31 60.25 32.79 72.45 25.75"/><polygon class="cls-48" points="65.48 35.81 64.19 35.06 64.29 34.45 76.33 27.45 78 28.24 77.69 28.76 65.48 35.81"/><polygon class="cls-67" points="76.39 28.01 77.69 28.76 78.53 28.28 76.39 27.05 63.35 34.58 64.19 35.06 76.39 28.01"/><polygon class="cls-48" points="69.42 38.07 68.12 37.33 68.23 36.72 80.27 29.71 81.94 30.51 81.63 31.03 69.42 38.07"/><polygon class="cls-68" points="80.33 30.28 81.63 31.03 82.46 30.55 80.33 29.31 67.29 36.84 68.13 37.33 80.33 30.28"/><g class="cls-41"><polygon class="cls-42" points="28.59 108.13 68.97 83.75 68.97 56.1 28.59 32.79 28.59 108.13"/></g><path class="cls-69" d="M67.37,60.13a3.55,3.55,0,0,0-1.61-2.78,1.13,1.13,0,0,0-1.14-.11h0l-1.14.67.7,0a1.83,1.83,0,0,0,0,.35,3.55,3.55,0,0,0,1.61,2.78,1.81,1.81,0,0,0,.34.15l-.33.61,1.11-.65h0A1.12,1.12,0,0,0,67.37,60.13Z"/><path class="cls-70" d="M66.23,60.8c0,1-.72,1.44-1.61.93A3.55,3.55,0,0,1,63,58.94c0-1,.72-1.44,1.61-.93A3.55,3.55,0,0,1,66.23,60.8Z"/><path class="cls-48" d="M65.54,60.4c0,.59-.41.83-.92.53a2,2,0,0,1-.92-1.6c0-.59.41-.83.92-.53A2,2,0,0,1,65.54,60.4Z"/><path class="cls-71" d="M33.51,39.32a3.55,3.55,0,0,0-1.61-2.78,1.12,1.12,0,0,0-1.14-.11h0l-1.14.67.7,0a1.84,1.84,0,0,0,0,.35,3.55,3.55,0,0,0,1.61,2.78,1.8,1.8,0,0,0,.34.15l-.33.61L33,40.36h0A1.12,1.12,0,0,0,33.51,39.32Z"/><path class="cls-72" d="M32.36,40c0,1-.72,1.44-1.61.93a3.55,3.55,0,0,1-1.61-2.78c0-1,.72-1.44,1.61-.93A3.55,3.55,0,0,1,32.36,40Z"/><path class="cls-48" d="M31.68,39.59c0,.59-.41.83-.92.53a2,2,0,0,1-.92-1.6c0-.59.41-.83.92-.53A2,2,0,0,1,31.68,39.59Z"/><path class="cls-73" d="M67.37,140.27a3.55,3.55,0,0,0-1.61-2.78,1.12,1.12,0,0,0-1.14-.11h0l-1.14.67.7,0a1.83,1.83,0,0,0,0,.35,3.55,3.55,0,0,0,1.61,2.78,1.8,1.8,0,0,0,.34.15l-.33.61,1.11-.65h0A1.12,1.12,0,0,0,67.37,140.27Z"/><path class="cls-74" d="M66.23,140.94c0,1-.72,1.44-1.61.93A3.55,3.55,0,0,1,63,139.08c0-1,.72-1.44,1.61-.93A3.55,3.55,0,0,1,66.23,140.94Z"/><path class="cls-48" d="M65.54,140.54c0,.59-.41.83-.92.53a2,2,0,0,1-.92-1.6c0-.59.41-.83.92-.53A2,2,0,0,1,65.54,140.54Z"/><path class="cls-75" d="M33.51,119.46a3.55,3.55,0,0,0-1.61-2.78,1.13,1.13,0,0,0-1.14-.11h0l-1.14.67.7,0a1.84,1.84,0,0,0,0,.35,3.55,3.55,0,0,0,1.61,2.78,1.81,1.81,0,0,0,.34.15l-.33.61L33,120.5h0A1.12,1.12,0,0,0,33.51,119.46Z"/><path class="cls-76" d="M32.36,120.13c0,1-.72,1.44-1.61.93a3.55,3.55,0,0,1-1.61-2.78c0-1,.72-1.44,1.61-.93A3.55,3.55,0,0,1,32.36,120.13Z"/><path class="cls-48" d="M31.68,119.73c0,.59-.41.83-.92.53a2,2,0,0,1-.92-1.6c0-.59.41-.83.92-.53A2,2,0,0,1,31.68,119.73Z"/><polygon class="cls-24" points="42.55 64.17 33.65 59.03 33.65 57.08 42.55 62.22 42.55 64.17"/><polygon class="cls-24" points="47.11 66.81 43.91 64.95 43.91 63 47.11 64.85 47.11 66.81"/><polygon class="cls-24" points="50.65 68.85 48.47 67.59 48.47 65.64 50.65 66.89 50.65 68.85"/><polygon class="cls-24" points="38.5 66.3 33.65 63.5 33.65 61.54 38.5 64.34 38.5 66.3"/><polygon class="cls-24" points="45.8 70.51 39.86 67.08 39.86 65.13 45.8 68.56 45.8 70.51"/><polygon class="cls-24" points="49.34 72.55 47.16 71.3 47.16 69.34 49.34 70.6 49.34 72.55"/><polygon class="cls-24" points="52.7 74.5 50.52 73.24 50.52 71.29 52.7 72.54 52.7 74.5"/><polygon class="cls-24" points="37.16 69.99 33.65 67.96 33.65 66.01 37.16 68.03 37.16 69.99"/><polygon class="cls-24" points="39.72 71.46 38.52 70.77 38.52 68.82 39.72 69.51 39.72 71.46"/><polygon class="cls-24" points="43.25 73.51 41.08 72.25 41.08 70.29 43.25 71.55 43.25 73.51"/><polygon class="cls-24" points="46.6 79.9 33.65 72.42 33.65 70.47 46.6 77.95 46.6 79.9"/><polygon class="cls-24" points="51.16 82.54 47.96 80.69 47.96 78.73 51.16 80.58 51.16 82.54"/><polygon class="cls-24" points="37.16 78.92 33.65 76.89 33.65 74.94 37.16 76.96 37.16 78.92"/><polygon class="cls-24" points="45.39 83.67 38.52 79.7 38.52 77.75 45.39 81.72 45.39 83.67"/><polygon class="cls-24" points="48.93 85.71 46.75 84.45 46.75 82.5 48.93 83.76 48.93 85.71"/><polygon class="cls-24" points="40.83 85.5 33.65 81.36 33.65 79.4 40.83 83.55 40.83 85.5"/><polygon class="cls-24" points="47.38 89.28 42.19 86.28 42.19 84.33 47.38 87.33 47.38 89.28"/><polygon class="cls-24" points="52.25 92.09 48.74 90.07 48.74 88.11 52.25 90.14 52.25 92.09"/><polygon class="cls-24" points="36.07 87.22 33.65 85.82 33.65 83.86 36.07 85.26 36.07 87.22"/><polygon class="cls-24" points="40.64 89.85 37.43 88 37.43 86.05 40.64 87.9 40.64 89.85"/><polygon class="cls-24" points="47.16 93.62 42 90.64 42 88.68 47.16 91.67 47.16 93.62"/><polygon class="cls-24" points="41.08 94.57 33.65 90.28 33.65 88.33 41.08 92.62 41.08 94.57"/><polygon class="cls-24" points="49.39 99.37 42.44 95.36 42.44 93.4 49.39 97.42 49.39 99.37"/><polygon class="cls-24" points="52.93 101.42 50.75 100.16 50.75 98.2 52.93 99.46 52.93 101.42"/><polygon class="cls-24" points="56.33 103.38 54.15 102.12 54.15 100.16 56.33 101.42 56.33 103.38"/><polygon class="cls-24" points="38.1 97.32 33.65 94.75 33.65 92.79 38.1 95.36 38.1 97.32"/><polygon class="cls-24" points="56.71 72.34 62.88 75.91 62.88 73.95 56.71 70.39 56.71 72.34"/><polygon class="cls-24" points="58.03 77.57 62.88 80.37 62.88 78.42 58.03 75.62 58.03 77.57"/><polygon class="cls-24" points="59.37 82.81 62.88 84.84 62.88 82.88 59.37 80.86 59.37 82.81"/><polygon class="cls-24" points="57.77 86.36 62.88 89.3 62.88 87.35 57.77 84.4 57.77 86.36"/><polygon class="cls-24" points="59.37 91.74 62.88 93.77 62.88 91.81 59.37 89.79 59.37 91.74"/><polygon class="cls-24" points="58.43 95.66 62.88 98.23 62.88 96.28 58.43 93.71 58.43 95.66"/><polygon class="cls-24" points="60.45 101.3 62.88 102.69 62.88 100.74 60.45 99.34 60.45 101.3"/><polygon class="cls-24" points="58.18 104.45 62.88 107.16 62.88 105.2 58.18 102.49 58.18 104.45"/><polygon class="cls-24" points="58.43 109.06 62.88 111.62 62.88 109.67 58.43 107.1 58.43 109.06"/><polygon class="cls-24" points="41.35 99.19 39.46 98.1 39.46 96.15 41.35 97.24 41.35 99.19"/><polygon class="cls-24" points="46.97 102.44 42.71 99.98 42.71 98.03 46.97 100.48 46.97 102.44"/><polygon class="cls-24" points="50.49 117.46 43.3 113.31 43.3 111.35 50.49 115.5 50.49 117.46"/><polygon class="cls-24" points="55.41 120.3 52.58 118.66 52.58 116.71 55.41 118.34 55.41 120.3"/><g class="cls-77"><path class="cls-78" d="M113.72,103.32l-.32-.19c-1.19-.69-2.15,0-2.15,1.63v93a5.15,5.15,0,0,0,2.15,4.11l.32.19c1.19.69,2.15,0,2.15-1.63v-93A5.15,5.15,0,0,0,113.72,103.32Z"/></g><g class="cls-79"><path class="cls-80" d="M122.39,123.15l-.32-.19c-1.19-.69-2.15,0-2.15,1.63v78.22a5.15,5.15,0,0,0,2.15,4.11l.32.19c1.19.69,2.15,0,2.15-1.63V127.26A5.15,5.15,0,0,0,122.39,123.15Z"/></g><g class="cls-81"><path class="cls-82" d="M131.06,146.57l-.32-.19c-1.19-.69-2.15,0-2.15,1.63v29.31a5.15,5.15,0,0,0,2.15,4.11l.32.19c1.19.69,2.15,0,2.15-1.63V150.68A5.15,5.15,0,0,0,131.06,146.57Z"/></g><g class="cls-83"><path class="cls-84" d="M139.65,159.43l-.32-.19c-1.19-.69-2.15,0-2.15,1.63v11.24a5.15,5.15,0,0,0,2.15,4.11l.32.19c1.19.69,2.15,0,2.15-1.63V163.54A5.15,5.15,0,0,0,139.65,159.43Z"/></g><g class="cls-85"><path class="cls-86" d="M24.22,103.32l.32-.19c1.19-.69,2.15,0,2.15,1.63v93a5.15,5.15,0,0,1-2.15,4.11l-.32.19c-1.19.69-2.15,0-2.15-1.63v-93A5.15,5.15,0,0,1,24.22,103.32Z"/></g><g class="cls-87"><path class="cls-88" d="M15.55,123.15l.32-.19c1.19-.69,2.15,0,2.15,1.63v78.22a5.15,5.15,0,0,1-2.15,4.11l-.32.19c-1.19.69-2.15,0-2.15-1.63V127.26A5.15,5.15,0,0,1,15.55,123.15Z"/></g><g class="cls-89"><path class="cls-90" d="M6.88,146.57l.32-.19c1.19-.69,2.15,0,2.15,1.63v29.31a5.15,5.15,0,0,1-2.15,4.11l-.32.19c-1.19.69-2.15,0-2.15-1.63V150.68A5.15,5.15,0,0,1,6.88,146.57Z"/></g><g class="cls-91"><path class="cls-92" d="M-1.71,159.43l.32-.19c1.19-.69,2.15,0,2.15,1.63v11.24a5.15,5.15,0,0,1-2.15,4.11l-.32.19c-1.19.69-2.15,0-2.15-1.63V163.54A5.15,5.15,0,0,1-1.71,159.43Z"/></g></g></svg>