<svg xmlns="http://www.w3.org/2000/svg" xmlns:xlink="http://www.w3.org/1999/xlink" viewBox="0 0 350 255"><defs><style>.cls-1{mask:url(#mask);filter:url(#luminosity-noclip-12);}.cls-10,.cls-12,.cls-14,.cls-16,.cls-18,.cls-2,.cls-20,.cls-22,.cls-4,.cls-6,.cls-8{mix-blend-mode:multiply;}.cls-2{fill:url(#_ÂÁ_Ï_ÌÌ_È_ËÂÌÚ_117);}.cls-3{mask:url(#mask-2);filter:url(#luminosity-noclip-17);}.cls-4{fill:url(#_ÂÁ_Ï_ÌÌ_È_ËÂÌÚ_106);}.cls-5{mask:url(#mask-3);filter:url(#luminosity-noclip-18);}.cls-6{fill:url(#_ÂÁ_Ï_ÌÌ_È_ËÂÌÚ_106-2);}.cls-7{mask:url(#mask-4);filter:url(#luminosity-noclip-19);}.cls-8{fill:url(#_ÂÁ_Ï_ÌÌ_È_ËÂÌÚ_106-3);}.cls-9{mask:url(#mask-5);filter:url(#luminosity-noclip-20);}.cls-10{fill:url(#_ÂÁ_Ï_ÌÌ_È_ËÂÌÚ_106-4);}.cls-11{mask:url(#mask-6);filter:url(#luminosity-noclip-21);}.cls-12{fill:url(#_ÂÁ_Ï_ÌÌ_È_ËÂÌÚ_106-5);}.cls-13,.cls-17{mask:url(#mask-7);}.cls-13{filter:url(#luminosity-noclip-13);}.cls-14{fill:url(#_ÂÁ_Ï_ÌÌ_È_ËÂÌÚ_114);}.cls-15{mask:url(#mask-8);filter:url(#luminosity-noclip-22);}.cls-16{fill:url(#_ÂÁ_Ï_ÌÌ_È_ËÂÌÚ_106-6);}.cls-17{filter:url(#luminosity-noclip-14);}.cls-18{fill:url(#_ÂÁ_Ï_ÌÌ_È_ËÂÌÚ_114-2);}.cls-19{mask:url(#mask-10);filter:url(#luminosity-noclip-15);}.cls-20{fill:url(#_ÂÁ_Ï_ÌÌ_È_ËÂÌÚ_106-7);}.cls-21{mask:url(#mask-11);filter:url(#luminosity-noclip-16);}.cls-22{fill:url(#_ÂÁ_Ï_ÌÌ_È_ËÂÌÚ_106-8);}.cls-23{fill:none;}.cls-24{isolation:isolate;}.cls-25,.cls-34,.cls-37,.cls-39{fill:#2bd978;}.cls-25{mix-blend-mode:lighten;}.cls-26{fill:url(#_ÂÁ_Ï_ÌÌ_È_ËÂÌÚ_4);}.cls-27{fill:#f2f2f0;}.cls-28{fill:#fff;}.cls-29{fill:#0f054c;}.cls-30,.cls-31,.cls-32,.cls-33,.cls-34,.cls-35,.cls-36{opacity:0.5;}.cls-30{fill:url(#_ÂÁ_Ï_ÌÌ_È_ËÂÌÚ_5);}.cls-31{fill:url(#_ÂÁ_Ï_ÌÌ_È_ËÂÌÚ_5-2);}.cls-32{fill:url(#_ÂÁ_Ï_ÌÌ_È_ËÂÌÚ_5-3);}.cls-33{fill:url(#_ÂÁ_Ï_ÌÌ_È_ËÂÌÚ_5-4);}.cls-35{fill:url(#_ÂÁ_Ï_ÌÌ_È_ËÂÌÚ_5-5);}.cls-36{fill:url(#_ÂÁ_Ï_ÌÌ_È_ËÂÌÚ_5-6);}.cls-37{opacity:0.8;}.cls-38{opacity:0.1;}.cls-40{fill:#41e583;}.cls-41{fill:#03002d;opacity:0.4;}.cls-42{fill:#25bf63;opacity:0.7;}.cls-43{fill:#424240;}.cls-43,.cls-45,.cls-84,.cls-86,.cls-88,.cls-90,.cls-92,.cls-94,.cls-96,.cls-98{opacity:0.66;}.cls-44{mask:url(#mask-12);}.cls-45{fill:url(#_ÂÁ_Ï_ÌÌ_È_ËÂÌÚ_19);}.cls-46{clip-path:url(#clip-path);}.cls-47{fill:url(#_ÂÁ_Ï_ÌÌ_È_ËÂÌÚ_17);}.cls-48{fill:#1e1e1e;}.cls-49{opacity:0.51;}.cls-50{fill:#3a3a3a;}.cls-51{mask:url(#mask-13);}.cls-52,.cls-67{opacity:0.78;}.cls-52{fill:url(#_ÂÁ_Ï_ÌÌ_È_ËÂÌÚ_18);}.cls-53{fill:url(#_ÂÁ_Ï_ÌÌ_È_ËÂÌÚ_17-2);}.cls-54{fill:url(#_ÂÁ_Ï_ÌÌ_È_ËÂÌÚ_17-3);}.cls-55{fill:url(#_ÂÁ_Ï_ÌÌ_È_ËÂÌÚ_16);}.cls-56{fill:#232323;}.cls-57{fill:url(#_ÂÁ_Ï_ÌÌ_È_ËÂÌÚ_16-2);}.cls-58{fill:url(#_ÂÁ_Ï_ÌÌ_È_ËÂÌÚ_16-3);}.cls-59{fill:url(#_ÂÁ_Ï_ÌÌ_È_ËÂÌÚ_16-4);}.cls-60{fill:url(#_ÂÁ_Ï_ÌÌ_È_ËÂÌÚ_16-5);}.cls-61{fill:url(#_ÂÁ_Ï_ÌÌ_È_ËÂÌÚ_17-4);}.cls-62{fill:url(#_ÂÁ_Ï_ÌÌ_È_ËÂÌÚ_16-6);}.cls-63{fill:url(#_ÂÁ_Ï_ÌÌ_È_ËÂÌÚ_17-5);}.cls-64{fill:url(#_ÂÁ_Ï_ÌÌ_È_ËÂÌÚ_16-7);}.cls-65{fill:url(#_ÂÁ_Ï_ÌÌ_È_ËÂÌÚ_17-6);}.cls-66{mask:url(#mask-14);}.cls-67{fill:url(#_ÂÁ_Ï_ÌÌ_È_ËÂÌÚ_18-2);}.cls-68{fill:url(#_ÂÁ_Ï_ÌÌ_È_ËÂÌÚ_17-7);}.cls-69{fill:url(#_ÂÁ_Ï_ÌÌ_È_ËÂÌÚ_17-8);}.cls-70{fill:url(#_ÂÁ_Ï_ÌÌ_È_ËÂÌÚ_16-8);}.cls-71{fill:url(#_ÂÁ_Ï_ÌÌ_È_ËÂÌÚ_16-9);}.cls-72{fill:url(#_ÂÁ_Ï_ÌÌ_È_ËÂÌÚ_16-10);}.cls-73{fill:url(#_ÂÁ_Ï_ÌÌ_È_ËÂÌÚ_16-11);}.cls-74{fill:url(#_ÂÁ_Ï_ÌÌ_È_ËÂÌÚ_16-12);}.cls-75{fill:url(#_ÂÁ_Ï_ÌÌ_È_ËÂÌÚ_17-9);}.cls-76{fill:url(#_ÂÁ_Ï_ÌÌ_È_ËÂÌÚ_16-13);}.cls-77{fill:url(#_ÂÁ_Ï_ÌÌ_È_ËÂÌÚ_17-10);}.cls-78{fill:url(#_ÂÁ_Ï_ÌÌ_È_ËÂÌÚ_16-14);}.cls-79{fill:url(#_ÂÁ_Ï_ÌÌ_È_ËÂÌÚ_17-11);}.cls-80{fill:url(#_ÂÁ_Ï_ÌÌ_È_ËÂÌÚ_16-15);}.cls-81{fill:url(#_ÂÁ_Ï_ÌÌ_È_ËÂÌÚ_17-12);}.cls-82{fill:url(#_ÂÁ_Ï_ÌÌ_È_ËÂÌÚ_16-16);}.cls-83{mask:url(#mask-15);}.cls-84{fill:url(#_ÂÁ_Ï_ÌÌ_È_ËÂÌÚ_10);}.cls-85{mask:url(#mask-16);}.cls-86{fill:url(#_ÂÁ_Ï_ÌÌ_È_ËÂÌÚ_10-2);}.cls-87{mask:url(#mask-17);}.cls-88{fill:url(#_ÂÁ_Ï_ÌÌ_È_ËÂÌÚ_10-3);}.cls-89{mask:url(#mask-18);}.cls-90{fill:url(#_ÂÁ_Ï_ÌÌ_È_ËÂÌÚ_10-4);}.cls-91{mask:url(#mask-19);}.cls-92{fill:url(#_ÂÁ_Ï_ÌÌ_È_ËÂÌÚ_10-5);}.cls-93{mask:url(#mask-20);}.cls-94{fill:url(#_ÂÁ_Ï_ÌÌ_È_ËÂÌÚ_10-6);}.cls-95{mask:url(#mask-21);}.cls-96{fill:url(#_ÂÁ_Ï_ÌÌ_È_ËÂÌÚ_10-7);}.cls-97{mask:url(#mask-22);}.cls-98{fill:url(#_ÂÁ_Ï_ÌÌ_È_ËÂÌÚ_10-8);}.cls-99{filter:url(#luminosity-noclip-11);}.cls-100{filter:url(#luminosity-noclip-10);}.cls-101{filter:url(#luminosity-noclip-8);}.cls-102{filter:url(#luminosity-noclip-7);}.cls-103{filter:url(#luminosity-noclip-6);}.cls-104{filter:url(#luminosity-noclip-5);}.cls-105{filter:url(#luminosity-noclip-4);}.cls-106{filter:url(#luminosity-noclip-3);}.cls-107{filter:url(#luminosity-noclip-2);}.cls-108{filter:url(#luminosity-noclip);}</style><filter id="luminosity-noclip" x="10.18" y="-8319.5" width="132.82" height="32766" filterUnits="userSpaceOnUse" color-interpolation-filters="sRGB"><feFlood flood-color="#fff" result="bg"/><feBlend in="SourceGraphic" in2="bg"/></filter><mask id="mask" x="10.18" y="-8319.5" width="132.82" height="32766" maskUnits="userSpaceOnUse"><g class="cls-108"/></mask><radialGradient id="_ÂÁ_Ï_ÌÌ_È_ËÂÌÚ_117" cx="76.59" cy="238.69" r="54.22" gradientUnits="userSpaceOnUse"><stop offset="0" stop-color="#e6e6e6"/><stop offset="0.1" stop-color="#e0e0e0"/><stop offset="0.23" stop-color="#cdcdcd"/><stop offset="0.39" stop-color="#afafaf"/><stop offset="0.57" stop-color="#868686"/><stop offset="0.75" stop-color="#505050"/><stop offset="0.95" stop-color="#101010"/><stop offset="1"/></radialGradient><filter id="luminosity-noclip-2" x="136.21" y="-8319.5" width="4.62" height="32766" filterUnits="userSpaceOnUse" color-interpolation-filters="sRGB"><feFlood flood-color="#fff" result="bg"/><feBlend in="SourceGraphic" in2="bg"/></filter><mask id="mask-2" x="136.21" y="-8319.5" width="4.62" height="32766" maskUnits="userSpaceOnUse"><g class="cls-107"/></mask><linearGradient id="_ÂÁ_Ï_ÌÌ_È_ËÂÌÚ_106" x1="-665.73" y1="1222.45" x2="-665.73" y2="1192.1" gradientTransform="matrix(0.87, 0.5, 0, 1.15, 715.05, -856.16)" gradientUnits="userSpaceOnUse"><stop offset="0"/><stop offset="0.06" stop-color="#2a2a2a"/><stop offset="0.15" stop-color="#626262"/><stop offset="0.23" stop-color="#929292"/><stop offset="0.31" stop-color="#b6b6b6"/><stop offset="0.39" stop-color="#d1d1d1"/><stop offset="0.45" stop-color="#e0e0e0"/><stop offset="0.51" stop-color="#e6e6e6"/><stop offset="0.55" stop-color="#dedede"/><stop offset="0.62" stop-color="#c9c9c9"/><stop offset="0.71" stop-color="#a7a7a7"/><stop offset="0.8" stop-color="#787878"/><stop offset="0.91" stop-color="#3b3b3b"/><stop offset="1"/></linearGradient><filter id="luminosity-noclip-3" x="144.8" y="-8319.5" width="4.62" height="32766" filterUnits="userSpaceOnUse" color-interpolation-filters="sRGB"><feFlood flood-color="#fff" result="bg"/><feBlend in="SourceGraphic" in2="bg"/></filter><mask id="mask-3" x="144.8" y="-8319.5" width="4.62" height="32766" maskUnits="userSpaceOnUse"><g class="cls-106"/></mask><linearGradient id="_ÂÁ_Ï_ÌÌ_È_ËÂÌÚ_106-2" x1="-655.81" y1="1213.64" x2="-655.81" y2="1198.94" xlink:href="#_ÂÁ_Ï_ÌÌ_È_ËÂÌÚ_106"/><filter id="luminosity-noclip-4" x="29.69" y="-8319.5" width="4.62" height="32766" filterUnits="userSpaceOnUse" color-interpolation-filters="sRGB"><feFlood flood-color="#fff" result="bg"/><feBlend in="SourceGraphic" in2="bg"/></filter><mask id="mask-4" x="29.69" y="-8319.5" width="4.62" height="32766" maskUnits="userSpaceOnUse"><g class="cls-105"/></mask><linearGradient id="_ÂÁ_Ï_ÌÌ_È_ËÂÌÚ_106-3" x1="-1996.19" y1="1816.3" x2="-1996.19" y2="1730.75" gradientTransform="matrix(-0.87, 0.5, 0, 1.15, -1696.7, -856.16)" xlink:href="#_ÂÁ_Ï_ÌÌ_È_ËÂÌÚ_106"/><filter id="luminosity-noclip-5" x="21.02" y="-8319.5" width="4.62" height="32766" filterUnits="userSpaceOnUse" color-interpolation-filters="sRGB"><feFlood flood-color="#fff" result="bg"/><feBlend in="SourceGraphic" in2="bg"/></filter><mask id="mask-5" x="21.02" y="-8319.5" width="4.62" height="32766" maskUnits="userSpaceOnUse"><g class="cls-104"/></mask><linearGradient id="_ÂÁ_Ï_ÌÌ_È_ËÂÌÚ_106-4" x1="-1986.18" y1="1816.3" x2="-1986.18" y2="1743.59" gradientTransform="matrix(-0.87, 0.5, 0, 1.15, -1696.7, -856.16)" xlink:href="#_ÂÁ_Ï_ÌÌ_È_ËÂÌÚ_106"/><filter id="luminosity-noclip-6" x="12.36" y="-8319.5" width="4.62" height="32766" filterUnits="userSpaceOnUse" color-interpolation-filters="sRGB"><feFlood flood-color="#fff" result="bg"/><feBlend in="SourceGraphic" in2="bg"/></filter><mask id="mask-6" x="12.36" y="-8319.5" width="4.62" height="32766" maskUnits="userSpaceOnUse"><g class="cls-103"/></mask><linearGradient id="_ÂÁ_Ï_ÌÌ_È_ËÂÌÚ_106-5" x1="-1976.18" y1="1789.89" x2="-1976.18" y2="1759.54" gradientTransform="matrix(-0.87, 0.5, 0, 1.15, -1696.7, -856.16)" xlink:href="#_ÂÁ_Ï_ÌÌ_È_ËÂÌÚ_106"/><filter id="luminosity-noclip-7" x="36.22" y="-8319.5" width="40.38" height="32766" filterUnits="userSpaceOnUse" color-interpolation-filters="sRGB"><feFlood flood-color="#fff" result="bg"/><feBlend in="SourceGraphic" in2="bg"/></filter><mask id="mask-7" x="36.22" y="-8319.5" width="40.38" height="32766" maskUnits="userSpaceOnUse"><g class="cls-102"/></mask><linearGradient id="_ÂÁ_Ï_ÌÌ_È_ËÂÌÚ_114" x1="36.22" y1="196.09" x2="76.59" y2="196.09" gradientUnits="userSpaceOnUse"><stop offset="0"/><stop offset="0.05" stop-color="#2f2f2f"/><stop offset="0.1" stop-color="#5a5a5a"/><stop offset="0.15" stop-color="#828282"/><stop offset="0.22" stop-color="#a4a4a4"/><stop offset="0.28" stop-color="silver"/><stop offset="0.36" stop-color="#d7d7d7"/><stop offset="0.44" stop-color="#e9e9e9"/><stop offset="0.54" stop-color="#f6f6f6"/><stop offset="0.68" stop-color="#fdfdfd"/><stop offset="1" stop-color="#fff"/></linearGradient><filter id="luminosity-noclip-8" x="3.77" y="-8319.5" width="4.62" height="32766" filterUnits="userSpaceOnUse" color-interpolation-filters="sRGB"><feFlood flood-color="#fff" result="bg"/><feBlend in="SourceGraphic" in2="bg"/></filter><mask id="mask-8" x="3.77" y="-8319.5" width="4.62" height="32766" maskUnits="userSpaceOnUse"><g class="cls-101"/></mask><linearGradient id="_ÂÁ_Ï_ÌÌ_È_ËÂÌÚ_106-6" x1="-1966.26" y1="1781.08" x2="-1966.26" y2="1766.38" gradientTransform="matrix(-0.87, 0.5, 0, 1.15, -1696.7, -856.16)" xlink:href="#_ÂÁ_Ï_ÌÌ_È_ËÂÌÚ_106"/><linearGradient id="_ÂÁ_Ï_ÌÌ_È_ËÂÌÚ_114-2" x1="36.22" y1="73.05" x2="76.59" y2="73.05" xlink:href="#_ÂÁ_Ï_ÌÌ_È_ËÂÌÚ_114"/><filter id="luminosity-noclip-10" x="118.87" y="-8319.5" width="4.62" height="32766" filterUnits="userSpaceOnUse" color-interpolation-filters="sRGB"><feFlood flood-color="#fff" result="bg"/><feBlend in="SourceGraphic" in2="bg"/></filter><mask id="mask-10" x="118.87" y="-8319.5" width="4.62" height="32766" maskUnits="userSpaceOnUse"><g class="cls-100"/></mask><linearGradient id="_ÂÁ_Ï_ÌÌ_È_ËÂÌÚ_106-7" x1="-685.75" y1="1248.86" x2="-685.75" y2="1163.31" xlink:href="#_ÂÁ_Ï_ÌÌ_È_ËÂÌÚ_106"/><filter id="luminosity-noclip-11" x="127.54" y="-8319.5" width="4.62" height="32766" filterUnits="userSpaceOnUse" color-interpolation-filters="sRGB"><feFlood flood-color="#fff" result="bg"/><feBlend in="SourceGraphic" in2="bg"/></filter><mask id="mask-11" x="127.54" y="-8319.5" width="4.62" height="32766" maskUnits="userSpaceOnUse"><g class="cls-99"/></mask><linearGradient id="_ÂÁ_Ï_ÌÌ_È_ËÂÌÚ_106-8" x1="-675.74" y1="1248.86" x2="-675.74" y2="1176.15" xlink:href="#_ÂÁ_Ï_ÌÌ_È_ËÂÌÚ_106"/><linearGradient id="_ÂÁ_Ï_ÌÌ_È_ËÂÌÚ_4" x1="125.22" y1="134.93" x2="332.22" y2="134.93" gradientUnits="userSpaceOnUse"><stop offset="0" stop-color="#424240"/><stop offset="0.11" stop-color="#494947"/><stop offset="0.28" stop-color="#5d5d5b"/><stop offset="0.48" stop-color="#7d7d7b"/><stop offset="0.7" stop-color="#aaaaa8"/><stop offset="0.94" stop-color="#e2e2e0"/><stop offset="1" stop-color="#f2f2f0"/></linearGradient><linearGradient id="_ÂÁ_Ï_ÌÌ_È_ËÂÌÚ_5" x1="183.8" y1="106.96" x2="308.05" y2="106.96" gradientUnits="userSpaceOnUse"><stop offset="0" stop-color="#2bd978"/><stop offset="0.14" stop-color="#2cd476"/><stop offset="0.31" stop-color="#2ec671"/><stop offset="0.49" stop-color="#32ae68"/><stop offset="0.68" stop-color="#378d5c"/><stop offset="0.87" stop-color="#3d634c"/><stop offset="1" stop-color="#424240"/></linearGradient><linearGradient id="_ÂÁ_Ï_ÌÌ_È_ËÂÌÚ_5-2" x1="245.92" y1="84.5" x2="308.05" y2="84.5" xlink:href="#_ÂÁ_Ï_ÌÌ_È_ËÂÌÚ_5"/><linearGradient id="_ÂÁ_Ï_ÌÌ_È_ËÂÌÚ_5-3" x1="183.8" y1="84.5" x2="245.93" y2="84.5" xlink:href="#_ÂÁ_Ï_ÌÌ_È_ËÂÌÚ_5"/><linearGradient id="_ÂÁ_Ï_ÌÌ_È_ËÂÌÚ_5-4" x1="183.8" y1="97.91" x2="308.05" y2="97.91" xlink:href="#_ÂÁ_Ï_ÌÌ_È_ËÂÌÚ_5"/><linearGradient id="_ÂÁ_Ï_ÌÌ_È_ËÂÌÚ_5-5" x1="245.93" y1="120.37" x2="308.05" y2="120.37" xlink:href="#_ÂÁ_Ï_ÌÌ_È_ËÂÌÚ_5"/><linearGradient id="_ÂÁ_Ï_ÌÌ_È_ËÂÌÚ_5-6" x1="183.8" y1="120.37" x2="245.93" y2="120.37" xlink:href="#_ÂÁ_Ï_ÌÌ_È_ËÂÌÚ_5"/><filter id="luminosity-noclip-12" x="10.18" y="170.2" width="132.82" height="76.69" filterUnits="userSpaceOnUse" color-interpolation-filters="sRGB"><feFlood flood-color="#fff" result="bg"/><feBlend in="SourceGraphic" in2="bg"/></filter><mask id="mask-12" x="10.18" y="170.2" width="132.82" height="76.69" maskUnits="userSpaceOnUse"><g class="cls-1"><path class="cls-2" d="M72.17,245.94,11.83,211.1c-2.44-1.41-2.14-3.87.68-5.5l59-34c2.82-1.63,7.09-1.81,9.53-.4L141.36,206c2.44,1.41,2.14,3.87-.68,5.5l-59,34C78.88,247.17,74.62,247.35,72.17,245.94Z"/></g></mask><radialGradient id="_ÂÁ_Ï_ÌÌ_È_ËÂÌÚ_19" cx="76.59" cy="238.69" r="54.22" gradientUnits="userSpaceOnUse"><stop offset="0" stop-color="#2bd978"/><stop offset="0.13" stop-color="#2cd376"/><stop offset="0.31" stop-color="#2fc06f"/><stop offset="0.51" stop-color="#33a264"/><stop offset="0.74" stop-color="#3a7954"/><stop offset="0.99" stop-color="#424441"/><stop offset="1" stop-color="#424240"/></radialGradient><clipPath id="clip-path"><path class="cls-23" d="M139.61-21.79,141.35,206c2.44,1.41,2.14,3.87-.68,5.5l-59,34c-2.82,1.63-7.09,1.81-9.53.39L11.83,211.1c-2.44-1.41-2.14-3.87.68-5.5L16.85-21.79"/></clipPath><linearGradient id="_ÂÁ_Ï_ÌÌ_È_ËÂÌÚ_17" x1="96.78" y1="284.44" x2="96.78" y2="199.24" gradientUnits="userSpaceOnUse"><stop offset="0" stop-color="#f2f2f0"/><stop offset="0.41" stop-color="#ededec"/><stop offset="0.9" stop-color="#dfdfde"/><stop offset="1" stop-color="#dbdbdb"/></linearGradient><filter id="luminosity-noclip-13" x="36.22" y="178.14" width="40.38" height="35.89" filterUnits="userSpaceOnUse" color-interpolation-filters="sRGB"><feFlood flood-color="#fff" result="bg"/><feBlend in="SourceGraphic" in2="bg"/></filter><mask id="mask-13" x="36.22" y="178.14" width="40.38" height="35.89" maskUnits="userSpaceOnUse"><g class="cls-13"><polygon class="cls-14" points="76.59 214.03 65.98 214.03 36.22 196.84 68.61 178.14 76.59 178.14 76.59 214.03"/></g></mask><linearGradient id="_ÂÁ_Ï_ÌÌ_È_ËÂÌÚ_18" x1="36.22" y1="196.09" x2="76.59" y2="196.09" gradientUnits="userSpaceOnUse"><stop offset="0" stop-color="#dbdbdb"/><stop offset="0.05" stop-color="#bdbdbc"/><stop offset="0.12" stop-color="#9c9c9b"/><stop offset="0.19" stop-color="#80807f"/><stop offset="0.28" stop-color="#696968"/><stop offset="0.37" stop-color="#575756"/><stop offset="0.49" stop-color="#4b4b49"/><stop offset="0.64" stop-color="#444442"/><stop offset="1" stop-color="#424240"/></linearGradient><linearGradient id="_ÂÁ_Ï_ÌÌ_È_ËÂÌÚ_17-2" x1="47.3" y1="195.06" x2="105.89" y2="195.06" xlink:href="#_ÂÁ_Ï_ÌÌ_È_ËÂÌÚ_17"/><linearGradient id="_ÂÁ_Ï_ÌÌ_È_ËÂÌÚ_17-3" x1="95.02" y1="211.15" x2="87.9" y2="198.71" xlink:href="#_ÂÁ_Ï_ÌÌ_È_ËÂÌÚ_17"/><linearGradient id="_ÂÁ_Ï_ÌÌ_È_ËÂÌÚ_16" x1="61.95" y1="205.24" x2="61.95" y2="186.27" gradientUnits="userSpaceOnUse"><stop offset="0" stop-color="#424240"/><stop offset="0.13" stop-color="#474745"/><stop offset="0.28" stop-color="#555553"/><stop offset="0.45" stop-color="#6d6d6b"/><stop offset="0.62" stop-color="#8e8e8c"/><stop offset="0.8" stop-color="#b9b9b7"/><stop offset="0.98" stop-color="#ececea"/><stop offset="1" stop-color="#f2f2f0"/></linearGradient><linearGradient id="_ÂÁ_Ï_ÌÌ_È_ËÂÌÚ_16-2" x1="63.1" y1="190.57" x2="78.27" y2="190.57" xlink:href="#_ÂÁ_Ï_ÌÌ_È_ËÂÌÚ_16"/><linearGradient id="_ÂÁ_Ï_ÌÌ_È_ËÂÌÚ_16-3" x1="67.04" y1="192.84" x2="82.21" y2="192.84" xlink:href="#_ÂÁ_Ï_ÌÌ_È_ËÂÌÚ_16"/><linearGradient id="_ÂÁ_Ï_ÌÌ_È_ËÂÌÚ_16-4" x1="70.98" y1="195.11" x2="86.15" y2="195.11" xlink:href="#_ÂÁ_Ï_ÌÌ_È_ËÂÌÚ_16"/><linearGradient id="_ÂÁ_Ï_ÌÌ_È_ËÂÌÚ_16-5" x1="74.92" y1="197.37" x2="90.09" y2="197.37" xlink:href="#_ÂÁ_Ï_ÌÌ_È_ËÂÌÚ_16"/><linearGradient id="_ÂÁ_Ï_ÌÌ_È_ËÂÌÚ_17-4" x1="71.11" y1="223.53" x2="74.99" y2="223.53" xlink:href="#_ÂÁ_Ï_ÌÌ_È_ËÂÌÚ_17"/><linearGradient id="_ÂÁ_Ï_ÌÌ_È_ËÂÌÚ_16-6" x1="70.64" y1="223.92" x2="73.85" y2="223.92" xlink:href="#_ÂÁ_Ï_ÌÌ_È_ËÂÌÚ_16"/><linearGradient id="_ÂÁ_Ï_ÌÌ_È_ËÂÌÚ_17-5" x1="37.25" y1="202.72" x2="41.13" y2="202.72" xlink:href="#_ÂÁ_Ï_ÌÌ_È_ËÂÌÚ_17"/><linearGradient id="_ÂÁ_Ï_ÌÌ_È_ËÂÌÚ_16-7" x1="36.77" y1="203.11" x2="39.99" y2="203.11" xlink:href="#_ÂÁ_Ï_ÌÌ_È_ËÂÌÚ_16"/><linearGradient id="_ÂÁ_Ï_ÌÌ_È_ËÂÌÚ_17-6" x1="96.78" y1="161.41" x2="96.78" y2="76.2" xlink:href="#_ÂÁ_Ï_ÌÌ_È_ËÂÌÚ_17"/><filter id="luminosity-noclip-14" x="36.22" y="55.11" width="40.38" height="35.89" filterUnits="userSpaceOnUse" color-interpolation-filters="sRGB"><feFlood flood-color="#fff" result="bg"/><feBlend in="SourceGraphic" in2="bg"/></filter><mask id="mask-14" x="36.22" y="55.11" width="40.38" height="35.89" maskUnits="userSpaceOnUse"><g class="cls-17"><polygon class="cls-18" points="76.59 90.99 65.98 90.99 36.22 73.81 68.61 55.1 76.59 55.1 76.59 90.99"/></g></mask><linearGradient id="_ÂÁ_Ï_ÌÌ_È_ËÂÌÚ_18-2" x1="36.22" y1="73.05" x2="76.59" y2="73.05" xlink:href="#_ÂÁ_Ï_ÌÌ_È_ËÂÌÚ_18"/><linearGradient id="_ÂÁ_Ï_ÌÌ_È_ËÂÌÚ_17-7" x1="47.3" y1="72.02" x2="105.89" y2="72.02" xlink:href="#_ÂÁ_Ï_ÌÌ_È_ËÂÌÚ_17"/><linearGradient id="_ÂÁ_Ï_ÌÌ_È_ËÂÌÚ_17-8" x1="95.02" y1="88.11" x2="87.9" y2="75.67" xlink:href="#_ÂÁ_Ï_ÌÌ_È_ËÂÌÚ_17"/><linearGradient id="_ÂÁ_Ï_ÌÌ_È_ËÂÌÚ_16-8" x1="61.95" y1="82.21" x2="61.95" y2="63.24" xlink:href="#_ÂÁ_Ï_ÌÌ_È_ËÂÌÚ_16"/><linearGradient id="_ÂÁ_Ï_ÌÌ_È_ËÂÌÚ_16-9" x1="63.1" y1="67.54" x2="78.27" y2="67.54" xlink:href="#_ÂÁ_Ï_ÌÌ_È_ËÂÌÚ_16"/><linearGradient id="_ÂÁ_Ï_ÌÌ_È_ËÂÌÚ_16-10" x1="67.04" y1="69.8" x2="82.21" y2="69.8" xlink:href="#_ÂÁ_Ï_ÌÌ_È_ËÂÌÚ_16"/><linearGradient id="_ÂÁ_Ï_ÌÌ_È_ËÂÌÚ_16-11" x1="70.98" y1="72.07" x2="86.15" y2="72.07" xlink:href="#_ÂÁ_Ï_ÌÌ_È_ËÂÌÚ_16"/><linearGradient id="_ÂÁ_Ï_ÌÌ_È_ËÂÌÚ_16-12" x1="74.92" y1="74.34" x2="90.09" y2="74.34" xlink:href="#_ÂÁ_Ï_ÌÌ_È_ËÂÌÚ_16"/><linearGradient id="_ÂÁ_Ï_ÌÌ_È_ËÂÌÚ_17-9" x1="71.11" y1="100.49" x2="74.99" y2="100.49" xlink:href="#_ÂÁ_Ï_ÌÌ_È_ËÂÌÚ_17"/><linearGradient id="_ÂÁ_Ï_ÌÌ_È_ËÂÌÚ_16-13" x1="70.64" y1="100.88" x2="73.85" y2="100.88" xlink:href="#_ÂÁ_Ï_ÌÌ_È_ËÂÌÚ_16"/><linearGradient id="_ÂÁ_Ï_ÌÌ_È_ËÂÌÚ_17-10" x1="37.25" y1="79.68" x2="41.13" y2="79.68" xlink:href="#_ÂÁ_Ï_ÌÌ_È_ËÂÌÚ_17"/><linearGradient id="_ÂÁ_Ï_ÌÌ_È_ËÂÌÚ_16-14" x1="36.77" y1="80.08" x2="39.99" y2="80.08" xlink:href="#_ÂÁ_Ï_ÌÌ_È_ËÂÌÚ_16"/><linearGradient id="_ÂÁ_Ï_ÌÌ_È_ËÂÌÚ_17-11" x1="71.11" y1="180.63" x2="74.99" y2="180.63" xlink:href="#_ÂÁ_Ï_ÌÌ_È_ËÂÌÚ_17"/><linearGradient id="_ÂÁ_Ï_ÌÌ_È_ËÂÌÚ_16-15" x1="70.64" y1="181.02" x2="73.85" y2="181.02" xlink:href="#_ÂÁ_Ï_ÌÌ_È_ËÂÌÚ_16"/><linearGradient id="_ÂÁ_Ï_ÌÌ_È_ËÂÌÚ_17-12" x1="37.25" y1="159.82" x2="41.13" y2="159.82" xlink:href="#_ÂÁ_Ï_ÌÌ_È_ËÂÌÚ_17"/><linearGradient id="_ÂÁ_Ï_ÌÌ_È_ËÂÌÚ_16-16" x1="36.77" y1="160.22" x2="39.99" y2="160.22" xlink:href="#_ÂÁ_Ï_ÌÌ_È_ËÂÌÚ_16"/><filter id="luminosity-noclip-15" x="118.87" y="143.89" width="4.62" height="99.48" filterUnits="userSpaceOnUse" color-interpolation-filters="sRGB"><feFlood flood-color="#fff" result="bg"/><feBlend in="SourceGraphic" in2="bg"/></filter><mask id="mask-15" x="118.87" y="143.89" width="4.62" height="99.48" maskUnits="userSpaceOnUse"><g class="cls-19"><path class="cls-20" d="M121.34,144.34l-.32-.19c-1.19-.69-2.15,0-2.15,1.63v93a5.15,5.15,0,0,0,2.15,4.11l.32.19c1.19.69,2.15,0,2.15-1.63v-93A5.15,5.15,0,0,0,121.34,144.34Z"/></g></mask><linearGradient id="_ÂÁ_Ï_ÌÌ_È_ËÂÌÚ_10" x1="-685.75" y1="1248.86" x2="-685.75" y2="1163.31" gradientTransform="matrix(0.87, 0.5, 0, 1.15, 715.05, -856.16)" gradientUnits="userSpaceOnUse"><stop offset="0" stop-color="#424240"/><stop offset="0.04" stop-color="#3f5647"/><stop offset="0.15" stop-color="#388559"/><stop offset="0.26" stop-color="#32a966"/><stop offset="0.35" stop-color="#2ec470"/><stop offset="0.44" stop-color="#2cd376"/><stop offset="0.51" stop-color="#2bd978"/><stop offset="0.57" stop-color="#2cd175"/><stop offset="0.66" stop-color="#2fbd6d"/><stop offset="0.77" stop-color="#359a61"/><stop offset="0.9" stop-color="#3c6b4f"/><stop offset="1" stop-color="#424240"/></linearGradient><filter id="luminosity-noclip-16" x="127.54" y="163.72" width="4.62" height="84.66" filterUnits="userSpaceOnUse" color-interpolation-filters="sRGB"><feFlood flood-color="#fff" result="bg"/><feBlend in="SourceGraphic" in2="bg"/></filter><mask id="mask-16" x="127.54" y="163.72" width="4.62" height="84.66" maskUnits="userSpaceOnUse"><g class="cls-21"><path class="cls-22" d="M130,164.17l-.32-.19c-1.19-.69-2.15,0-2.15,1.63v78.22a5.15,5.15,0,0,0,2.15,4.11l.32.19c1.19.69,2.15,0,2.15-1.63V168.28A5.15,5.15,0,0,0,130,164.17Z"/></g></mask><linearGradient id="_ÂÁ_Ï_ÌÌ_È_ËÂÌÚ_10-2" x1="-675.74" y1="1248.86" x2="-675.74" y2="1176.15" xlink:href="#_ÂÁ_Ï_ÌÌ_È_ËÂÌÚ_10"/><filter id="luminosity-noclip-17" x="136.21" y="187.15" width="4.62" height="35.75" filterUnits="userSpaceOnUse" color-interpolation-filters="sRGB"><feFlood flood-color="#fff" result="bg"/><feBlend in="SourceGraphic" in2="bg"/></filter><mask id="mask-17" x="136.21" y="187.15" width="4.62" height="35.75" maskUnits="userSpaceOnUse"><g class="cls-3"><path class="cls-4" d="M138.68,187.59l-.32-.19c-1.19-.69-2.15,0-2.15,1.63v29.31a5.15,5.15,0,0,0,2.15,4.11l.32.19c1.19.69,2.15,0,2.15-1.63V191.7A5.15,5.15,0,0,0,138.68,187.59Z"/></g></mask><linearGradient id="_ÂÁ_Ï_ÌÌ_È_ËÂÌÚ_10-3" x1="-665.73" y1="1222.45" x2="-665.73" y2="1192.1" xlink:href="#_ÂÁ_Ï_ÌÌ_È_ËÂÌÚ_10"/><filter id="luminosity-noclip-18" x="144.8" y="200" width="4.62" height="17.68" filterUnits="userSpaceOnUse" color-interpolation-filters="sRGB"><feFlood flood-color="#fff" result="bg"/><feBlend in="SourceGraphic" in2="bg"/></filter><mask id="mask-18" x="144.8" y="200" width="4.62" height="17.68" maskUnits="userSpaceOnUse"><g class="cls-5"><path class="cls-6" d="M147.27,200.44l-.32-.19c-1.19-.69-2.15,0-2.15,1.63v11.24a5.15,5.15,0,0,0,2.15,4.11l.32.19c1.19.69,2.15,0,2.15-1.63V204.55A5.15,5.15,0,0,0,147.27,200.44Z"/></g></mask><linearGradient id="_ÂÁ_Ï_ÌÌ_È_ËÂÌÚ_10-4" x1="-655.81" y1="1213.64" x2="-655.81" y2="1198.94" xlink:href="#_ÂÁ_Ï_ÌÌ_È_ËÂÌÚ_10"/><filter id="luminosity-noclip-19" x="29.69" y="143.89" width="4.62" height="99.48" filterUnits="userSpaceOnUse" color-interpolation-filters="sRGB"><feFlood flood-color="#fff" result="bg"/><feBlend in="SourceGraphic" in2="bg"/></filter><mask id="mask-19" x="29.69" y="143.89" width="4.62" height="99.48" maskUnits="userSpaceOnUse"><g class="cls-7"><path class="cls-8" d="M31.84,144.34l.32-.19c1.19-.69,2.15,0,2.15,1.63v93a5.15,5.15,0,0,1-2.15,4.11l-.32.19c-1.19.69-2.15,0-2.15-1.63v-93A5.15,5.15,0,0,1,31.84,144.34Z"/></g></mask><linearGradient id="_ÂÁ_Ï_ÌÌ_È_ËÂÌÚ_10-5" x1="-1996.19" y1="1816.3" x2="-1996.19" y2="1730.75" gradientTransform="matrix(-0.87, 0.5, 0, 1.15, -1696.7, -856.16)" xlink:href="#_ÂÁ_Ï_ÌÌ_È_ËÂÌÚ_10"/><filter id="luminosity-noclip-20" x="21.02" y="163.72" width="4.62" height="84.66" filterUnits="userSpaceOnUse" color-interpolation-filters="sRGB"><feFlood flood-color="#fff" result="bg"/><feBlend in="SourceGraphic" in2="bg"/></filter><mask id="mask-20" x="21.02" y="163.72" width="4.62" height="84.66" maskUnits="userSpaceOnUse"><g class="cls-9"><path class="cls-10" d="M23.18,164.17l.32-.19c1.19-.69,2.15,0,2.15,1.63v78.22a5.15,5.15,0,0,1-2.15,4.11l-.32.19c-1.19.69-2.15,0-2.15-1.63V168.28A5.15,5.15,0,0,1,23.18,164.17Z"/></g></mask><linearGradient id="_ÂÁ_Ï_ÌÌ_È_ËÂÌÚ_10-6" x1="-1986.18" y1="1816.3" x2="-1986.18" y2="1743.59" gradientTransform="matrix(-0.87, 0.5, 0, 1.15, -1696.7, -856.16)" xlink:href="#_ÂÁ_Ï_ÌÌ_È_ËÂÌÚ_10"/><filter id="luminosity-noclip-21" x="12.36" y="187.15" width="4.62" height="35.75" filterUnits="userSpaceOnUse" color-interpolation-filters="sRGB"><feFlood flood-color="#fff" result="bg"/><feBlend in="SourceGraphic" in2="bg"/></filter><mask id="mask-21" x="12.36" y="187.15" width="4.62" height="35.75" maskUnits="userSpaceOnUse"><g class="cls-11"><path class="cls-12" d="M14.51,187.59l.32-.19c1.19-.69,2.15,0,2.15,1.63v29.31a5.15,5.15,0,0,1-2.15,4.11l-.32.19c-1.19.69-2.15,0-2.15-1.63V191.7A5.15,5.15,0,0,1,14.51,187.59Z"/></g></mask><linearGradient id="_ÂÁ_Ï_ÌÌ_È_ËÂÌÚ_10-7" x1="-1976.18" y1="1789.89" x2="-1976.18" y2="1759.54" gradientTransform="matrix(-0.87, 0.5, 0, 1.15, -1696.7, -856.16)" xlink:href="#_ÂÁ_Ï_ÌÌ_È_ËÂÌÚ_10"/><filter id="luminosity-noclip-22" x="3.77" y="200" width="4.62" height="17.68" filterUnits="userSpaceOnUse" color-interpolation-filters="sRGB"><feFlood flood-color="#fff" result="bg"/><feBlend in="SourceGraphic" in2="bg"/></filter><mask id="mask-22" x="3.77" y="200" width="4.62" height="17.68" maskUnits="userSpaceOnUse"><g class="cls-15"><path class="cls-16" d="M5.92,200.44l.32-.19c1.19-.69,2.15,0,2.15,1.63v11.24a5.15,5.15,0,0,1-2.15,4.11l-.32.19c-1.19.69-2.15,0-2.15-1.63V204.55A5.15,5.15,0,0,1,5.92,200.44Z"/></g></mask><linearGradient id="_ÂÁ_Ï_ÌÌ_È_ËÂÌÚ_10-8" x1="-1966.26" y1="1781.08" x2="-1966.26" y2="1766.38" gradientTransform="matrix(-0.87, 0.5, 0, 1.15, -1696.7, -856.16)" xlink:href="#_ÂÁ_Ï_ÌÌ_È_ËÂÌÚ_10"/></defs><title>data-to-ai-labelled</title><g class="cls-24"><g id="Layer_1" data-name="Layer 1"><path class="cls-25" d="M237.51,66.71a3,3,0,0,1-1.51-.46L225.5,60.19l.16-.27L236.17,66a1.79,1.79,0,0,0,3-1.71V61.74a2.1,2.1,0,0,1,3.43-2l2.2,1.27-.16.27L242.4,60a1.79,1.79,0,0,0-3,1.71v2.53a2.39,2.39,0,0,1-1,2.21A1.81,1.81,0,0,1,237.51,66.71Z"/><path class="cls-25" d="M233.43,69.07a3,3,0,0,1-1.51-.46l-10.51-6.07.16-.27,10.51,6.07a1.79,1.79,0,0,0,3-1.71V64.09a2.1,2.1,0,0,1,3.43-2l2.2,1.27-.16.27-2.2-1.27a1.79,1.79,0,0,0-3,1.71v2.53a2.39,2.39,0,0,1-1,2.21A1.79,1.79,0,0,1,233.43,69.07Z"/><path class="cls-25" d="M229.34,71.42a3.05,3.05,0,0,1-1.51-.46l-10.51-6.07.16-.27L228,70.68a1.79,1.79,0,0,0,3-1.71V66.44a2.1,2.1,0,0,1,3.43-2l2.2,1.27-.16.27-2.2-1.27a1.79,1.79,0,0,0-3,1.71V69a2.39,2.39,0,0,1-1,2.2A1.8,1.8,0,0,1,229.34,71.42Z"/><path class="cls-25" d="M225.25,73.77a3.05,3.05,0,0,1-1.51-.46l-10.51-6.07.16-.27L223.9,73a1.79,1.79,0,0,0,3-1.71V68.79a2.1,2.1,0,0,1,3.43-2l2.2,1.27-.16.27-2.2-1.27a1.79,1.79,0,0,0-3,1.71v2.54a2.39,2.39,0,0,1-1,2.2A1.79,1.79,0,0,1,225.25,73.77Z"/><path class="cls-25" d="M221.16,76.12a3.05,3.05,0,0,1-1.51-.46l-10.51-6.07.16-.27,10.51,6.07a1.79,1.79,0,0,0,3-1.71V71.15a2.1,2.1,0,0,1,3.43-2l2.2,1.27-.16.27L226,69.44a1.79,1.79,0,0,0-3,1.71v2.54a2.39,2.39,0,0,1-1,2.2A1.8,1.8,0,0,1,221.16,76.12Z"/><path class="cls-25" d="M217.07,78.47a3.06,3.06,0,0,1-1.5-.46l-10.51-6.07.16-.27,10.51,6.07a1.79,1.79,0,0,0,3-1.71V73.5a2.1,2.1,0,0,1,3.43-2l2.2,1.27-.16.27L222,71.79a1.79,1.79,0,0,0-3,1.71V76a2.39,2.39,0,0,1-1,2.2A1.8,1.8,0,0,1,217.07,78.47Z"/><path class="cls-25" d="M213,80.82a3.06,3.06,0,0,1-1.51-.46L201,74.3l.16-.27,10.51,6.07a1.79,1.79,0,0,0,3-1.71V75.85a2.1,2.1,0,0,1,3.43-2l2.2,1.27-.16.27-2.2-1.27a1.79,1.79,0,0,0-3,1.71v2.54a2.39,2.39,0,0,1-1,2.2A1.8,1.8,0,0,1,213,80.82Z"/><path class="cls-25" d="M208.9,83.18a3.06,3.06,0,0,1-1.5-.46l-10.51-6.07.16-.27,10.51,6.07a1.79,1.79,0,0,0,3-1.71V78.2a2.1,2.1,0,0,1,3.43-2l2.2,1.27-.16.27-2.2-1.27a1.79,1.79,0,0,0-3,1.71v2.53a2.39,2.39,0,0,1-1,2.2A1.8,1.8,0,0,1,208.9,83.18Z"/><path class="cls-25" d="M204.81,85.53a3,3,0,0,1-1.51-.46L192.79,79l.16-.27,10.51,6.07a1.79,1.79,0,0,0,3-1.71V80.55a2.1,2.1,0,0,1,3.43-2l2.2,1.27-.16.27-2.2-1.27a1.79,1.79,0,0,0-3,1.71v2.53a2.39,2.39,0,0,1-1,2.21A1.81,1.81,0,0,1,204.81,85.53Z"/><path class="cls-25" d="M200.72,87.88a3,3,0,0,1-1.51-.46l-10.51-6.07.16-.27,10.51,6.07a1.79,1.79,0,0,0,3-1.71V82.91a2.1,2.1,0,0,1,3.43-2l2.2,1.27-.16.27-2.2-1.27a1.79,1.79,0,0,0-3,1.71v2.53a2.39,2.39,0,0,1-1,2.21A1.79,1.79,0,0,1,200.72,87.88Z"/><path class="cls-25" d="M196.63,90.23a3.05,3.05,0,0,1-1.51-.46L184.62,83.7l.16-.27,10.51,6.07a1.79,1.79,0,0,0,3-1.71V85.26a2.1,2.1,0,0,1,3.43-2l2.2,1.27-.16.27-2.2-1.27a1.79,1.79,0,0,0-3,1.71v2.54a2.39,2.39,0,0,1-1,2.2A1.8,1.8,0,0,1,196.63,90.23Z"/><path class="cls-25" d="M192.55,92.58a3,3,0,0,1-1.51-.46l-10.51-6.07.16-.27,10.51,6.07a1.79,1.79,0,0,0,3-1.71V87.61a2.1,2.1,0,0,1,3.43-2l2.2,1.27-.16.27-2.2-1.27a1.79,1.79,0,0,0-3,1.71v2.54a2.39,2.39,0,0,1-1,2.2A1.79,1.79,0,0,1,192.55,92.58Z"/><path class="cls-25" d="M188.46,94.93a3.06,3.06,0,0,1-1.51-.46l-10.51-6.07.16-.27,10.51,6.07a1.79,1.79,0,0,0,3-1.71V90a2.1,2.1,0,0,1,3.43-2l2.2,1.27-.16.27-2.2-1.27a1.79,1.79,0,0,0-3,1.71V92.5a2.39,2.39,0,0,1-1,2.2A1.8,1.8,0,0,1,188.46,94.93Z"/><path class="cls-25" d="M184.37,97.29a3.06,3.06,0,0,1-1.51-.46l-10.51-6.07.16-.27L183,96.55a1.79,1.79,0,0,0,3-1.71V92.31a2.1,2.1,0,0,1,3.43-2l2.2,1.27-.16.27-2.2-1.27a1.79,1.79,0,0,0-3,1.71v2.54a2.39,2.39,0,0,1-1,2.2A1.8,1.8,0,0,1,184.37,97.29Z"/><path class="cls-25" d="M180.28,99.64a3.06,3.06,0,0,1-1.51-.46l-10.51-6.07.16-.27,10.51,6.07a1.79,1.79,0,0,0,3-1.71V94.66a2.1,2.1,0,0,1,3.43-2l2.2,1.27-.16.27L185.16,93a1.79,1.79,0,0,0-3,1.71V97.2a2.39,2.39,0,0,1-1,2.2A1.8,1.8,0,0,1,180.28,99.64Z"/><path class="cls-25" d="M176.19,102a3,3,0,0,1-1.51-.46l-10.51-6.07.16-.27,10.51,6.07a1.79,1.79,0,0,0,3-1.71V97a2.1,2.1,0,0,1,3.43-2l2.2,1.27-.16.27-2.2-1.27a1.79,1.79,0,0,0-3,1.71v2.53a2.39,2.39,0,0,1-1,2.21A1.8,1.8,0,0,1,176.19,102Z"/><path class="cls-25" d="M172.1,104.34a3,3,0,0,1-1.51-.46l-10.51-6.07.16-.27,10.51,6.07a1.79,1.79,0,0,0,3-1.71V99.37a2.1,2.1,0,0,1,3.43-2l2.2,1.27-.16.27L177,97.66a1.79,1.79,0,0,0-3,1.71v2.53a2.39,2.39,0,0,1-1,2.2A1.8,1.8,0,0,1,172.1,104.34Z"/><path class="cls-25" d="M168,106.69a3.05,3.05,0,0,1-1.51-.46L156,100.16l.16-.27L166.67,106a1.79,1.79,0,0,0,3-1.71v-2.54a2.1,2.1,0,0,1,3.43-2l2.2,1.27-.16.27L172.9,100a1.79,1.79,0,0,0-3,1.71v2.54a2.39,2.39,0,0,1-1,2.2A1.79,1.79,0,0,1,168,106.69Z"/><path class="cls-25" d="M163.93,109a3.05,3.05,0,0,1-1.51-.46l-10.51-6.07.16-.27,10.51,6.07a1.79,1.79,0,0,0,3-1.71v-2.54a2.1,2.1,0,0,1,3.43-2l2.2,1.27-.16.27-2.2-1.27a1.79,1.79,0,0,0-3,1.71v2.54a2.39,2.39,0,0,1-1,2.2A1.8,1.8,0,0,1,163.93,109Z"/><path class="cls-25" d="M159.84,111.4a3.05,3.05,0,0,1-1.51-.46l-10.51-6.07.16-.27,10.51,6.07a1.79,1.79,0,0,0,3-1.71v-2.54a2.1,2.1,0,0,1,3.43-2l2.2,1.27-.16.27-2.2-1.27a1.79,1.79,0,0,0-3,1.71V109a2.39,2.39,0,0,1-1,2.2A1.79,1.79,0,0,1,159.84,111.4Z"/><path class="cls-25" d="M254.27,66.91a1.8,1.8,0,0,1-.91-.24,2.39,2.39,0,0,1-1-2.2V61.93a1.79,1.79,0,0,0-3-1.71l-2.2,1.27-.16-.27,2.2-1.27a2.1,2.1,0,0,1,3.43,2v2.54a1.79,1.79,0,0,0,3,1.71l10.51-6.07.16.27-10.51,6.07A3.06,3.06,0,0,1,254.27,66.91Z"/><path class="cls-25" d="M258.36,69.26a1.8,1.8,0,0,1-.91-.24,2.39,2.39,0,0,1-1-2.2V64.28a1.79,1.79,0,0,0-3-1.71l-2.2,1.27-.16-.27,2.2-1.27a2.1,2.1,0,0,1,3.43,2v2.54a1.79,1.79,0,0,0,3,1.71l10.51-6.07.16.27L259.86,68.8A3.06,3.06,0,0,1,258.36,69.26Z"/><path class="cls-25" d="M262.44,71.61a1.8,1.8,0,0,1-.91-.24,2.39,2.39,0,0,1-1-2.2V66.64a1.79,1.79,0,0,0-3-1.71l-2.2,1.27-.16-.27,2.2-1.27a2.1,2.1,0,0,1,3.43,2v2.53a1.79,1.79,0,0,0,3,1.71l10.51-6.07.16.27-10.51,6.07A3.06,3.06,0,0,1,262.44,71.61Z"/><path class="cls-25" d="M266.53,74a1.8,1.8,0,0,1-.91-.23,2.39,2.39,0,0,1-1-2.21V69a1.79,1.79,0,0,0-3-1.71l-2.2,1.27-.16-.27,2.2-1.27a2.1,2.1,0,0,1,3.43,2v2.53a1.79,1.79,0,0,0,3,1.71l10.51-6.07.16.27L268,73.5A3,3,0,0,1,266.53,74Z"/><path class="cls-25" d="M270.62,76.31a1.79,1.79,0,0,1-.91-.23,2.39,2.39,0,0,1-1-2.21V71.34a1.79,1.79,0,0,0-3-1.71l-2.2,1.27-.16-.27,2.2-1.27a2.1,2.1,0,0,1,3.43,2v2.53a1.79,1.79,0,0,0,3,1.71l10.51-6.07.16.27-10.51,6.07A3.05,3.05,0,0,1,270.62,76.31Z"/><path class="cls-25" d="M274.71,78.66a1.79,1.79,0,0,1-.91-.23,2.39,2.39,0,0,1-1-2.2V73.69a1.79,1.79,0,0,0-3-1.71l-2.2,1.27-.16-.27,2.2-1.27a2.1,2.1,0,0,1,3.43,2v2.54a1.79,1.79,0,0,0,3,1.71l10.51-6.07.16.27-10.51,6.07A3.05,3.05,0,0,1,274.71,78.66Z"/><path class="cls-25" d="M278.8,81a1.79,1.79,0,0,1-.91-.23,2.39,2.39,0,0,1-1-2.2V76a1.79,1.79,0,0,0-3-1.71l-2.2,1.27-.16-.27,2.2-1.27a2.1,2.1,0,0,1,3.43,2v2.54a1.79,1.79,0,0,0,3,1.71l10.51-6.07.16.27L280.3,80.56A3.05,3.05,0,0,1,278.8,81Z"/><path class="cls-25" d="M282.88,83.37a1.8,1.8,0,0,1-.91-.24,2.39,2.39,0,0,1-1-2.2V78.39a1.79,1.79,0,0,0-3-1.71L275.81,78l-.16-.27,2.2-1.27a2.1,2.1,0,0,1,3.43,2v2.54a1.79,1.79,0,0,0,3,1.71l10.51-6.07.16.27-10.51,6.07A3.06,3.06,0,0,1,282.88,83.37Z"/><path class="cls-25" d="M287,85.72a1.8,1.8,0,0,1-.91-.24,2.39,2.39,0,0,1-1-2.2V80.75a1.79,1.79,0,0,0-3-1.71l-2.2,1.27-.16-.27,2.2-1.27a2.1,2.1,0,0,1,3.43,2v2.54a1.79,1.79,0,0,0,3,1.71l10.19-5.86.16.27-10.19,5.86A3.06,3.06,0,0,1,287,85.72Z"/><path class="cls-25" d="M291.06,88.07a1.79,1.79,0,0,1-.91-.24,2.39,2.39,0,0,1-1-2.2V83.1a1.79,1.79,0,0,0-3-1.71L284,82.66l-.16-.27,2.2-1.27a2.1,2.1,0,0,1,3.43,2v2.54a1.79,1.79,0,0,0,3,1.71l10.19-5.86.16.27-10.19,5.86A3.06,3.06,0,0,1,291.06,88.07Z"/><path class="cls-25" d="M295.15,90.42a1.8,1.8,0,0,1-.91-.24,2.39,2.39,0,0,1-1-2.2V85.45a1.79,1.79,0,0,0-3-1.71L288.07,85l-.16-.27,2.2-1.27a2.1,2.1,0,0,1,3.43,2V88a1.79,1.79,0,0,0,3,1.71l10.19-5.86.16.27L296.65,90A3.06,3.06,0,0,1,295.15,90.42Z"/><path class="cls-25" d="M299.24,92.77a1.8,1.8,0,0,1-.91-.23,2.39,2.39,0,0,1-1-2.2V87.8a1.79,1.79,0,0,0-3-1.71l-2.2,1.27-.16-.27,2.2-1.27a2.1,2.1,0,0,1,3.43,2v2.53a1.79,1.79,0,0,0,3,1.71l10.19-5.86.16.27-10.19,5.86A3,3,0,0,1,299.24,92.77Z"/><path class="cls-25" d="M303.32,95.13a1.79,1.79,0,0,1-.91-.23,2.39,2.39,0,0,1-1-2.21V90.15a1.79,1.79,0,0,0-3-1.71l-2.2,1.27-.16-.27,2.2-1.27a2.1,2.1,0,0,1,3.43,2v2.53a1.79,1.79,0,0,0,3,1.71l10.51-6.07.16.27-10.51,6.07A3.05,3.05,0,0,1,303.32,95.13Z"/><path class="cls-25" d="M307.41,97.48a1.79,1.79,0,0,1-.91-.23,2.39,2.39,0,0,1-1-2.2V92.5a1.79,1.79,0,0,0-3-1.71l-2.2,1.27-.16-.27,2.2-1.27a2.1,2.1,0,0,1,3.43,2V95a1.79,1.79,0,0,0,3,1.71l10.51-6.07.16.27L308.92,97A3.05,3.05,0,0,1,307.41,97.48Z"/><path class="cls-25" d="M311.5,99.83a1.8,1.8,0,0,1-.91-.23,2.39,2.39,0,0,1-1-2.2V94.86a1.79,1.79,0,0,0-3-1.71l-2.2,1.27-.16-.27,2.2-1.27a2.1,2.1,0,0,1,3.43,2v2.54a1.79,1.79,0,0,0,3,1.71L323.36,93l.16.27L313,99.37A3.05,3.05,0,0,1,311.5,99.83Z"/><path class="cls-25" d="M315.59,102.18a1.8,1.8,0,0,1-.91-.24,2.39,2.39,0,0,1-1-2.2V97.21a1.79,1.79,0,0,0-3-1.71l-2.2,1.27-.16-.27,2.2-1.27a2.1,2.1,0,0,1,3.43,2v2.54a1.79,1.79,0,0,0,3,1.71l10.51-6.07.16.27-10.51,6.07A3.06,3.06,0,0,1,315.59,102.18Z"/><path class="cls-25" d="M319.68,104.53a1.8,1.8,0,0,1-.91-.24,2.39,2.39,0,0,1-1-2.2V99.56a1.79,1.79,0,0,0-3-1.71l-2.2,1.27-.16-.27,2.2-1.27a2.1,2.1,0,0,1,3.43,2v2.54a1.79,1.79,0,0,0,3,1.71l10.51-6.07.16.27-10.51,6.07A3.06,3.06,0,0,1,319.68,104.53Z"/><path class="cls-25" d="M323.77,106.88a1.8,1.8,0,0,1-.91-.24,2.39,2.39,0,0,1-1-2.2v-2.53a1.79,1.79,0,0,0-3-1.71l-2.2,1.27-.16-.27,2.2-1.27a2.1,2.1,0,0,1,3.43,2v2.53a1.79,1.79,0,0,0,3,1.71l10.51-6.07.16.27-10.51,6.07A3.06,3.06,0,0,1,323.77,106.88Z"/><path class="cls-25" d="M327.85,109.24a1.8,1.8,0,0,1-.91-.23,2.39,2.39,0,0,1-1-2.2v-2.53a1.79,1.79,0,0,0-3-1.71l-2.2,1.27-.16-.27,2.2-1.27a2.1,2.1,0,0,1,3.43,2v2.53a1.79,1.79,0,0,0,3,1.71l10.51-6.07.16.27-10.51,6.07A3,3,0,0,1,327.85,109.24Z"/><path class="cls-25" d="M331.94,111.59a1.79,1.79,0,0,1-.91-.23,2.39,2.39,0,0,1-1-2.21v-2.53a1.79,1.79,0,0,0-3-1.71l-2.2,1.27-.16-.27,2.2-1.27a2.1,2.1,0,0,1,3.43,2v2.53a1.79,1.79,0,0,0,3,1.71l10.51-6.07.16.27-10.51,6.07A3.05,3.05,0,0,1,331.94,111.59Z"/><polygon class="cls-26" points="326.69 106.95 326.69 116.28 245.93 162.91 165.16 116.28 165.16 106.95 326.69 106.95"/><polygon class="cls-27" points="245.93 153.58 165.16 106.95 245.92 60.32 326.69 106.95 245.93 153.58"/><polygon class="cls-28" points="245.93 152.49 166.1 106.4 165.16 106.95 245.93 153.58 326.69 106.95 325.75 106.4 245.93 152.49"/><polygon class="cls-29" points="245.93 142.82 183.8 106.96 245.92 71.09 308.05 106.96 245.93 142.82"/><polygon class="cls-30" points="245.93 142.82 183.8 106.96 245.92 71.09 308.05 106.96 245.93 142.82"/><polygon class="cls-31" points="245.92 62.05 308.05 97.92 308.05 106.96 245.92 71.09 245.92 62.05"/><polygon class="cls-32" points="245.93 71.09 183.8 106.96 183.8 97.91 245.92 62.05 245.93 71.09"/><polygon class="cls-33" points="245.93 133.78 183.8 97.91 245.92 62.05 308.05 97.92 245.93 133.78"/><polygon class="cls-34" points="245.93 112.25 221.1 97.91 245.92 83.58 270.75 97.91 245.93 112.25"/><polygon class="cls-34" points="245.92 84.9 269.61 98.57 270.75 97.91 245.92 83.58 221.1 97.91 222.24 98.57 245.92 84.9"/><polygon class="cls-35" points="245.93 133.78 245.93 142.82 308.05 106.96 308.05 97.92 245.93 133.78"/><polygon class="cls-36" points="183.8 97.91 183.8 106.96 245.93 142.82 245.93 133.78 183.8 97.91"/><polygon class="cls-37" points="245.93 132.79 184.66 97.42 183.8 97.91 245.93 133.78 308.05 97.92 307.19 97.42 245.93 132.79"/><path class="cls-25" d="M266.12,173.88l-10.51-6.07a7.24,7.24,0,0,1-3.27-5.67v-2.54a6.89,6.89,0,0,0-3.11-5.39l-2.2-1.27.16-.27,2.2,1.27a7.24,7.24,0,0,1,3.27,5.67v2.54a6.89,6.89,0,0,0,3.11,5.39l10.51,6.07Z"/><path class="cls-25" d="M270.21,171.52l-10.51-6.07a7.24,7.24,0,0,1-3.27-5.67v-2.54a6.89,6.89,0,0,0-3.11-5.39l-2.2-1.27.16-.27,2.2,1.27a7.24,7.24,0,0,1,3.27,5.67v2.54a6.89,6.89,0,0,0,3.11,5.39l10.51,6.07Z"/><path class="cls-25" d="M274.3,169.17l-10.51-6.07a7.24,7.24,0,0,1-3.27-5.67V154.9a6.9,6.9,0,0,0-3.11-5.39l-2.2-1.27.16-.27,2.2,1.27a7.24,7.24,0,0,1,3.27,5.67v2.53a6.9,6.9,0,0,0,3.11,5.39l10.51,6.07Z"/><path class="cls-25" d="M278.39,166.81l-10.51-6.07a7.24,7.24,0,0,1-3.27-5.67v-2.54a6.89,6.89,0,0,0-3.11-5.39l-2.2-1.27.16-.27,2.2,1.27a7.24,7.24,0,0,1,3.27,5.67v2.54a6.89,6.89,0,0,0,3.11,5.39l10.51,6.07Z"/><path class="cls-25" d="M282.48,164.45,272,158.39a7.24,7.24,0,0,1-3.27-5.67v-2.54a6.89,6.89,0,0,0-3.11-5.39l-2.2-1.27.16-.27,2.2,1.27a7.24,7.24,0,0,1,3.27,5.67v2.54a6.89,6.89,0,0,0,3.11,5.39l10.51,6.07Z"/><path class="cls-25" d="M286.57,162.1,276.05,156a7.24,7.24,0,0,1-3.27-5.67v-2.53a6.9,6.9,0,0,0-3.11-5.39l-2.2-1.27.16-.27,2.2,1.27a7.24,7.24,0,0,1,3.27,5.67v2.53a6.9,6.9,0,0,0,3.11,5.39l10.51,6.07Z"/><path class="cls-25" d="M290.65,159.74l-10.51-6.07a7.24,7.24,0,0,1-3.27-5.67v-2.54a6.9,6.9,0,0,0-3.11-5.39l-2.2-1.27.16-.27,2.2,1.27a7.24,7.24,0,0,1,3.27,5.67V148a6.89,6.89,0,0,0,3.11,5.39l10.51,6.07Z"/><path class="cls-25" d="M294.74,157.39l-10.51-6.07a7.24,7.24,0,0,1-3.27-5.67v-2.54a6.89,6.89,0,0,0-3.11-5.39l-2.2-1.27.16-.27,2.2,1.27a7.24,7.24,0,0,1,3.27,5.67v2.54a6.89,6.89,0,0,0,3.11,5.39l10.51,6.07Z"/><path class="cls-25" d="M298.83,155,288.32,149a7.24,7.24,0,0,1-3.27-5.67v-2.53a6.9,6.9,0,0,0-3.11-5.39l-2.2-1.27.16-.27,2.2,1.27a7.24,7.24,0,0,1,3.27,5.67v2.53a6.9,6.9,0,0,0,3.11,5.39L299,154.76Z"/><path class="cls-25" d="M302.92,152.67l-10.51-6.07a7.24,7.24,0,0,1-3.27-5.67V138.4A6.89,6.89,0,0,0,286,133l-2.2-1.27.16-.27,2.2,1.27a7.24,7.24,0,0,1,3.27,5.67v2.54a6.89,6.89,0,0,0,3.11,5.39l10.51,6.07Z"/><path class="cls-25" d="M307,150.32l-10.51-6.07a7.24,7.24,0,0,1-3.27-5.67V136a6.89,6.89,0,0,0-3.11-5.39l-2.2-1.27.16-.27,2.2,1.27a7.24,7.24,0,0,1,3.27,5.67v2.54a6.89,6.89,0,0,0,3.11,5.39L307.16,150Z"/><path class="cls-25" d="M311.09,148l-10.51-6.07a7.24,7.24,0,0,1-3.27-5.67v-2.53a6.9,6.9,0,0,0-3.11-5.39L292,127l.16-.27,2.2,1.27a7.24,7.24,0,0,1,3.27,5.67v2.53a6.89,6.89,0,0,0,3.11,5.39l10.51,6.07Z"/><path class="cls-25" d="M315.18,145.61l-10.51-6.07a7.24,7.24,0,0,1-3.27-5.67v-2.54a6.89,6.89,0,0,0-3.11-5.39l-2.2-1.27.16-.27,2.2,1.27a7.24,7.24,0,0,1,3.27,5.67v2.54a6.89,6.89,0,0,0,3.11,5.39l10.51,6.07Z"/><path class="cls-25" d="M319.27,143.25l-10.51-6.07a7.24,7.24,0,0,1-3.27-5.67V129a6.89,6.89,0,0,0-3.11-5.39l-2.2-1.27.16-.27,2.2,1.27A7.24,7.24,0,0,1,305.8,129v2.54a6.9,6.9,0,0,0,3.11,5.39L319.43,143Z"/><path class="cls-25" d="M323.36,140.9l-10.51-6.07a7.24,7.24,0,0,1-3.27-5.67v-2.53a6.9,6.9,0,0,0-3.11-5.39l-2.2-1.27.16-.27,2.2,1.27a7.24,7.24,0,0,1,3.27,5.67v2.53a6.89,6.89,0,0,0,3.11,5.39l10.51,6.07Z"/><path class="cls-25" d="M327.45,138.54l-10.51-6.07a7.24,7.24,0,0,1-3.27-5.67v-2.54a6.89,6.89,0,0,0-3.11-5.39l-2.2-1.27.16-.27,2.2,1.27a7.24,7.24,0,0,1,3.27,5.67v2.54a6.89,6.89,0,0,0,3.11,5.39l10.51,6.07Z"/><path class="cls-25" d="M331.53,136.18,321,130.12a7.24,7.24,0,0,1-3.27-5.67v-2.54a6.89,6.89,0,0,0-3.11-5.39l-2.2-1.27.16-.27,2.2,1.27a7.24,7.24,0,0,1,3.27,5.67v2.54a6.89,6.89,0,0,0,3.11,5.39l10.51,6.07Z"/><path class="cls-25" d="M335.62,133.83l-10.51-6.07a7.24,7.24,0,0,1-3.27-5.67v-2.53a6.9,6.9,0,0,0-3.11-5.39l-2.2-1.27.16-.27,2.2,1.27a7.24,7.24,0,0,1,3.27,5.67v2.53a6.89,6.89,0,0,0,3.11,5.39l10.51,6.07Z"/><path class="cls-25" d="M339.71,131.47,329.2,125.4a7.24,7.24,0,0,1-3.27-5.67V117.2a6.89,6.89,0,0,0-3.11-5.39l-2.2-1.27.16-.27,2.2,1.27a7.24,7.24,0,0,1,3.27,5.67v2.54a6.89,6.89,0,0,0,3.11,5.39l10.51,6.07Z"/><path class="cls-25" d="M343.8,129.12,333.29,123a7.24,7.24,0,0,1-3.27-5.67v-2.54a6.89,6.89,0,0,0-3.11-5.39l-2.2-1.27.16-.27,2.2,1.27a7.24,7.24,0,0,1,3.27,5.67v2.54a6.89,6.89,0,0,0,3.11,5.39L344,128.84Z"/><path class="cls-25" d="M225.44,173.88l-.16-.27,10.51-6.07a6.89,6.89,0,0,0,3.11-5.39v-2.54a7.24,7.24,0,0,1,3.27-5.67l2.2-1.27.16.27-2.2,1.27a6.89,6.89,0,0,0-3.11,5.39v2.54a7.24,7.24,0,0,1-3.27,5.67Z"/><path class="cls-25" d="M221.35,171.52l-.16-.27,10.51-6.07a6.89,6.89,0,0,0,3.11-5.39v-2.54a7.24,7.24,0,0,1,3.27-5.67l2.2-1.27.16.27-2.2,1.27a6.89,6.89,0,0,0-3.11,5.39v2.54a7.24,7.24,0,0,1-3.27,5.67Z"/><path class="cls-25" d="M217.26,169.17l-.16-.27,10.51-6.07a6.9,6.9,0,0,0,3.11-5.39V154.9a7.24,7.24,0,0,1,3.27-5.67l2.2-1.27.16.27-2.2,1.27A6.9,6.9,0,0,0,231,154.9v2.53a7.24,7.24,0,0,1-3.27,5.67Z"/><path class="cls-25" d="M213.17,166.81l-.16-.27,10.51-6.07a6.89,6.89,0,0,0,3.11-5.39v-2.54a7.24,7.24,0,0,1,3.27-5.67l2.2-1.27.16.27-2.2,1.27a6.89,6.89,0,0,0-3.11,5.39v2.54a7.24,7.24,0,0,1-3.27,5.67Z"/><path class="cls-25" d="M209.09,164.45l-.16-.27,10.51-6.07a6.89,6.89,0,0,0,3.11-5.39v-2.54a7.24,7.24,0,0,1,3.27-5.67l2.2-1.27.16.27-2.2,1.27a6.89,6.89,0,0,0-3.11,5.39v2.54a7.24,7.24,0,0,1-3.27,5.67Z"/><path class="cls-25" d="M200.91,159.74l-.16-.27,10.51-6.07a6.89,6.89,0,0,0,3.11-5.39v-2.54a7.24,7.24,0,0,1,3.27-5.67l2.2-1.27.16.27-2.2,1.27a6.9,6.9,0,0,0-3.11,5.39V148a7.24,7.24,0,0,1-3.27,5.67Z"/><path class="cls-25" d="M196.82,157.39l-.16-.27L207.17,151a6.89,6.89,0,0,0,3.11-5.39v-2.54a7.24,7.24,0,0,1,3.27-5.67l2.2-1.27.16.27-2.2,1.27a6.89,6.89,0,0,0-3.11,5.39v2.54a7.24,7.24,0,0,1-3.27,5.67Z"/><path class="cls-25" d="M175.77,164.59l-.08,0L231,196l.16-.28-55.34-31.52,16.8-9.47,10.51-6.07a6.9,6.9,0,0,0,3.11-5.39v-2.53a7.24,7.24,0,0,1,3.27-5.67l2.2-1.27.16.27-2.2,1.27a6.9,6.9,0,0,0-3.11,5.39v2.53a7.24,7.24,0,0,1-3.27,5.67L192.73,155Z"/><path class="cls-25" d="M188.65,152.67l-.16-.27L199,146.33a6.89,6.89,0,0,0,3.11-5.39V138.4a7.24,7.24,0,0,1,3.27-5.67l2.2-1.27.16.27-2.2,1.27a6.89,6.89,0,0,0-3.11,5.39v2.54a7.24,7.24,0,0,1-3.27,5.67Z"/><path class="cls-25" d="M114.56,190.32l-.16-.27L194.91,144a6.89,6.89,0,0,0,3.11-5.39V136a7.24,7.24,0,0,1,3.27-5.67l2.2-1.27.16.27-2.2,1.27a6.89,6.89,0,0,0-3.11,5.39v2.54a7.24,7.24,0,0,1-3.27,5.67Z"/><path class="cls-25" d="M110.47,188l-.16-.27,80.51-46.07a6.89,6.89,0,0,0,3.11-5.39v-2.53a7.24,7.24,0,0,1,3.27-5.67l2.2-1.27.16.27-2.2,1.27a6.9,6.9,0,0,0-3.11,5.39v2.53a7.24,7.24,0,0,1-3.27,5.67Z"/><path class="cls-25" d="M106.38,185.61l-.16-.27,80.51-46.07a6.89,6.89,0,0,0,3.11-5.39v-2.54a7.24,7.24,0,0,1,3.27-5.67l2.2-1.27.16.27-2.2,1.27a6.89,6.89,0,0,0-3.11,5.39v2.54a7.24,7.24,0,0,1-3.27,5.67Z"/><path class="cls-25" d="M172.29,143.25l-.16-.27,10.51-6.07a6.9,6.9,0,0,0,3.11-5.39V129a7.24,7.24,0,0,1,3.27-5.67l2.2-1.27.16.27-2.2,1.27a6.89,6.89,0,0,0-3.11,5.39v2.54a7.24,7.24,0,0,1-3.27,5.67Z"/><path class="cls-25" d="M155.94,133.83l-.16-.27,10.51-6.07a6.89,6.89,0,0,0,3.11-5.39v-2.53a7.24,7.24,0,0,1,3.27-5.67l2.2-1.27.16.27-2.2,1.27a6.9,6.9,0,0,0-3.11,5.39v2.53a7.24,7.24,0,0,1-3.27,5.67Z"/><path class="cls-25" d="M151.85,131.47l-.16-.27,10.51-6.07a6.89,6.89,0,0,0,3.11-5.39V117.2a7.24,7.24,0,0,1,3.27-5.67l2.2-1.27.16.27-2.2,1.27a6.89,6.89,0,0,0-3.11,5.39v2.54a7.24,7.24,0,0,1-3.27,5.67Z"/><path class="cls-25" d="M147.76,129.12l-.16-.27,10.51-6.07a6.89,6.89,0,0,0,3.11-5.39v-2.54a7.24,7.24,0,0,1,3.27-5.67l2.2-1.27.16.27-2.2,1.27a6.89,6.89,0,0,0-3.11,5.39v2.54a7.24,7.24,0,0,1-3.27,5.67Z"/><path class="cls-25" d="M209.09,164.45l-.16-.27,10.51-6.07a6.89,6.89,0,0,0,3.11-5.39v-2.54a7.24,7.24,0,0,1,3.27-5.67l2.2-1.27.16.27-2.2,1.27a6.89,6.89,0,0,0-3.11,5.39v2.54a7.24,7.24,0,0,1-3.27,5.67Z"/><path class="cls-25" d="M205,162.1l-.16-.27,10.51-6.07a6.89,6.89,0,0,0,3.11-5.39v-2.54a7.24,7.24,0,0,1,3.27-5.67l2.2-1.27.16.27-2.2,1.27a6.89,6.89,0,0,0-3.11,5.39v2.54a7.24,7.24,0,0,1-3.27,5.67Z"/><path class="cls-25" d="M164.12,138.54l-.16-.27,10.51-6.07a6.89,6.89,0,0,0,3.11-5.39v-2.53a7.24,7.24,0,0,1,3.27-5.67l2.2-1.27.16.27-2.2,1.27a6.9,6.9,0,0,0-3.11,5.39v2.53a7.24,7.24,0,0,1-3.27,5.67Z"/><path class="cls-25" d="M160,136.18l-.16-.27,10.51-6.07a6.89,6.89,0,0,0,3.11-5.39v-2.54a7.24,7.24,0,0,1,3.27-5.67L179,115l.16.27-2.2,1.27a6.89,6.89,0,0,0-3.11,5.39v2.54a7.24,7.24,0,0,1-3.27,5.67Z"/><path class="cls-25" d="M155.94,133.83l-.16-.27,10.51-6.07a6.89,6.89,0,0,0,3.11-5.39v-2.54a7.24,7.24,0,0,1,3.27-5.67l2.2-1.27.16.27-2.2,1.27a6.89,6.89,0,0,0-3.11,5.39v2.54a7.24,7.24,0,0,1-3.27,5.67Z"/><path class="cls-25" d="M172.29,143.25l-.16-.27,10.51-6.07a6.89,6.89,0,0,0,3.11-5.39V129a7.24,7.24,0,0,1,3.27-5.67l2.2-1.27.16.27-2.2,1.27a6.9,6.9,0,0,0-3.11,5.39v2.53a7.24,7.24,0,0,1-3.27,5.67Z"/><path class="cls-25" d="M168.2,140.9l-.16-.27,10.51-6.07a6.89,6.89,0,0,0,3.11-5.39v-2.54a7.24,7.24,0,0,1,3.27-5.67l2.2-1.27.16.27-2.2,1.27a6.89,6.89,0,0,0-3.11,5.39v2.54a7.24,7.24,0,0,1-3.27,5.67Z"/><path class="cls-25" d="M164.12,138.54l-.16-.27,10.51-6.07a6.89,6.89,0,0,0,3.11-5.39v-2.54a7.24,7.24,0,0,1,3.27-5.67l2.2-1.27.16.27-2.2,1.27a6.89,6.89,0,0,0-3.11,5.39v2.54a7.24,7.24,0,0,1-3.27,5.67Z"/><g class="cls-38"><polygon class="cls-39" points="244.92 234.8 229.86 226.1 229.86 243.5 244.92 252.2 259.99 243.5 259.99 226.1 244.92 234.8"/><polygon class="cls-39" points="244.92 252.2 229.86 243.5 229.86 226.1 244.92 234.8 244.92 252.2"/><polygon class="cls-40" points="259.99 243.5 244.92 252.2 244.92 234.8 259.99 226.1 259.99 243.5"/><polygon class="cls-39" points="244.92 234.8 229.86 226.1 244.92 217.41 259.99 226.1 244.92 234.8"/><polygon class="cls-28" points="244.92 234.8 229.86 226.1 229.86 226.86 244.92 235.56 259.99 226.86 259.99 226.1 244.92 234.8"/></g><polygon class="cls-41" points="244.92 224.26 229.86 215.56 244.92 206.86 259.99 215.56 244.92 224.26"/><polygon class="cls-39" points="244.92 193.68 229.86 184.98 229.86 202.38 244.92 211.08 259.99 202.38 259.99 184.98 244.92 193.68"/><polygon class="cls-39" points="244.92 211.08 229.86 202.38 229.86 184.98 244.92 193.68 244.92 211.08"/><polygon class="cls-40" points="259.99 202.38 244.92 211.08 244.92 193.68 259.99 184.98 259.99 202.38"/><polygon class="cls-39" points="244.92 193.68 229.86 184.98 244.92 176.28 259.99 184.98 244.92 193.68"/><polygon class="cls-40" points="244.92 191.54 233.56 184.98 244.92 178.42 256.29 184.98 244.92 191.54"/><polygon class="cls-28" points="244.92 193.68 229.86 184.98 229.86 185.74 244.92 194.44 259.99 185.74 259.99 184.98 244.92 193.68"/><polygon class="cls-39" points="244.92 167.58 229.86 158.88 229.86 176.28 244.92 184.98 259.99 176.28 259.99 158.88 244.92 167.58"/><polygon class="cls-39" points="244.92 184.98 229.86 176.28 229.86 158.88 244.92 167.58 244.92 184.98"/><polygon class="cls-40" points="259.99 176.28 244.92 184.98 244.92 167.58 259.99 158.88 259.99 176.28"/><polygon class="cls-39" points="244.92 167.58 229.86 158.88 244.92 150.19 259.99 158.88 244.92 167.58"/><polygon class="cls-28" points="244.92 167.58 229.86 158.88 229.86 159.64 244.92 168.34 259.99 159.64 259.99 158.88 244.92 167.58"/><g class="cls-38"><polygon class="cls-39" points="278.15 227.42 263.08 218.72 263.08 236.12 278.15 244.82 293.22 236.12 293.22 218.72 278.15 227.42"/><polygon class="cls-39" points="278.15 244.82 263.08 236.12 263.08 218.72 278.15 227.42 278.15 244.82"/><polygon class="cls-40" points="293.22 236.12 278.15 244.82 278.15 227.42 293.22 218.72 293.22 236.12"/><polygon class="cls-39" points="278.15 227.42 263.08 218.72 278.15 210.02 293.22 218.72 278.15 227.42"/><polygon class="cls-28" points="278.15 227.42 263.08 218.72 263.08 219.47 278.15 228.17 293.22 219.47 293.22 218.72 278.15 227.42"/></g><path class="cls-25" d="M278.55,221l-.08,0-22.06-12.73.24-.14,21.9-12.64.08,0,22.06,12.73-.24.14ZM257,208.17l21.5,12.42,21.5-12.42-21.5-12.41Z"/><polygon class="cls-41" points="278.15 216.87 263.08 208.17 278.15 199.47 293.22 208.17 278.15 216.87"/><polygon class="cls-39" points="278.15 186.3 263.08 177.6 263.08 195 278.15 203.7 293.22 195 293.22 177.6 278.15 186.3"/><polygon class="cls-39" points="278.15 203.7 263.08 195 263.08 177.6 278.15 186.3 278.15 203.7"/><polygon class="cls-40" points="293.22 195 278.15 203.7 278.15 186.3 293.22 177.6 293.22 195"/><polygon class="cls-39" points="278.15 186.3 263.08 177.6 278.15 168.9 293.22 177.6 278.15 186.3"/><polygon class="cls-28" points="278.15 186.3 263.08 177.6 263.08 178.35 278.15 187.05 293.22 178.35 293.22 177.6 278.15 186.3"/><g class="cls-38"><polygon class="cls-39" points="208.93 234.8 193.86 226.1 193.86 243.5 208.93 252.2 223.99 243.5 223.99 226.1 208.93 234.8"/><polygon class="cls-39" points="208.93 252.2 193.86 243.5 193.86 226.1 208.93 234.8 208.93 252.2"/><polygon class="cls-40" points="223.99 243.5 208.93 252.2 208.93 234.8 223.99 226.1 223.99 243.5"/><polygon class="cls-39" points="208.93 234.8 193.86 226.1 208.93 217.41 223.99 226.1 208.93 234.8"/><polygon class="cls-28" points="208.93 234.8 193.86 226.1 193.86 226.86 208.93 235.56 223.99 226.86 223.99 226.1 208.93 234.8"/></g><polygon class="cls-41" points="208.93 224.26 193.86 215.56 208.93 206.86 223.99 215.56 208.93 224.26"/><polygon class="cls-39" points="208.93 193.68 193.86 184.98 193.86 202.38 208.93 211.08 223.99 202.38 223.99 184.98 208.93 193.68"/><polygon class="cls-39" points="208.93 211.08 193.86 202.38 193.86 184.98 208.93 193.68 208.93 211.08"/><polygon class="cls-40" points="223.99 202.38 208.93 211.08 208.93 193.68 223.99 184.98 223.99 202.38"/><polygon class="cls-39" points="208.93 193.68 193.86 184.98 208.93 176.28 223.99 184.98 208.93 193.68"/><polygon class="cls-28" points="208.93 193.68 193.86 184.98 193.86 185.74 208.93 194.44 223.99 185.74 223.99 184.98 208.93 193.68"/><polygon class="cls-39" points="245.93 66.37 230.86 57.67 230.86 75.07 245.93 83.77 260.99 75.07 260.99 57.67 245.93 66.37"/><polygon class="cls-39" points="245.93 83.77 230.86 75.07 230.86 57.67 245.93 66.37 245.93 83.77"/><polygon class="cls-40" points="260.99 75.07 245.93 83.77 245.93 66.37 260.99 57.67 260.99 75.07"/><polygon class="cls-39" points="245.93 66.37 230.86 57.67 245.93 48.97 260.99 57.67 245.93 66.37"/><polygon class="cls-28" points="245.93 66.37 231.51 58.05 230.86 58.43 245.93 67.13 260.99 58.43 260.34 58.05 245.93 66.37"/><polygon class="cls-39" points="265.5 77.54 250.43 68.84 250.43 86.24 265.5 94.94 280.56 86.24 280.56 68.84 265.5 77.54"/><polygon class="cls-39" points="265.5 94.94 250.43 86.24 250.43 68.84 265.5 77.54 265.5 94.94"/><polygon class="cls-40" points="280.56 86.24 265.5 94.94 265.5 77.54 280.56 68.84 280.56 86.24"/><polygon class="cls-39" points="265.5 77.54 250.43 68.84 265.5 60.14 280.56 68.84 265.5 77.54"/><polygon class="cls-28" points="265.5 77.54 251.08 69.22 250.43 69.59 265.5 78.29 280.56 69.59 279.91 69.22 265.5 77.54"/><polygon class="cls-39" points="285.07 88.7 270 80.01 270 97.4 285.07 106.1 300.14 97.4 300.14 80.01 285.07 88.7"/><polygon class="cls-39" points="285.07 106.1 270 97.4 270 80.01 285.07 88.7 285.07 106.1"/><polygon class="cls-40" points="300.14 97.4 285.07 106.1 285.07 88.7 300.14 80.01 300.14 97.4"/><polygon class="cls-39" points="285.07 88.7 270 80.01 285.07 71.31 300.14 80.01 285.07 88.7"/><polygon class="cls-28" points="285.07 88.7 270.65 80.38 270 80.76 285.07 89.46 300.14 80.76 300.14 80.01 285.07 88.7"/><polygon class="cls-39" points="226.35 78.29 211.29 69.59 211.29 86.99 226.35 95.69 241.42 86.99 241.42 69.59 226.35 78.29"/><polygon class="cls-39" points="226.35 95.69 211.29 86.99 211.29 69.59 226.35 78.29 226.35 95.69"/><polygon class="cls-40" points="241.42 86.99 226.35 95.69 226.35 78.29 241.42 69.59 241.42 86.99"/><polygon class="cls-39" points="226.35 78.29 211.29 69.59 226.35 60.89 241.42 69.59 226.35 78.29"/><polygon class="cls-28" points="226.35 78.29 211.94 69.97 211.29 70.35 226.35 79.05 241.42 70.35 240.77 69.97 226.35 78.29"/><polygon class="cls-39" points="245.93 89.46 230.86 80.76 230.86 98.16 245.93 106.86 260.99 98.16 260.99 80.76 245.93 89.46"/><polygon class="cls-39" points="245.93 106.86 230.86 98.16 230.86 80.76 245.93 89.46 245.93 106.86"/><polygon class="cls-40" points="260.99 98.16 245.93 106.86 245.93 89.46 260.99 80.76 260.99 98.16"/><polygon class="cls-39" points="245.93 89.46 230.86 80.76 245.93 72.06 260.99 80.76 245.93 89.46"/><polygon class="cls-28" points="245.93 89.46 231.51 81.14 230.86 81.52 245.93 90.22 260.99 81.52 260.34 81.14 245.93 89.46"/><polygon class="cls-39" points="265.5 100.63 250.43 91.93 250.43 109.33 265.5 118.03 280.56 109.33 280.56 91.93 265.5 100.63"/><polygon class="cls-39" points="265.5 118.03 250.43 109.33 250.43 91.93 265.5 100.63 265.5 118.03"/><polygon class="cls-40" points="280.56 109.33 265.5 118.03 265.5 100.63 280.56 91.93 280.56 109.33"/><polygon class="cls-39" points="265.5 100.63 250.43 91.93 265.5 83.23 280.56 91.93 265.5 100.63"/><polygon class="cls-28" points="265.5 100.63 251.08 92.31 250.43 92.68 265.5 101.38 280.56 92.68 280.56 91.93 265.5 100.63"/><polygon class="cls-39" points="206.78 90.22 191.71 81.52 191.71 98.91 206.78 107.61 221.85 98.91 221.85 81.52 206.78 90.22"/><polygon class="cls-39" points="206.78 107.61 191.71 98.91 191.71 81.52 206.78 90.22 206.78 107.61"/><polygon class="cls-40" points="221.85 98.91 206.78 107.61 206.78 90.22 221.85 81.52 221.85 98.91"/><polygon class="cls-39" points="206.78 90.22 191.71 81.52 206.78 72.82 221.85 81.52 206.78 90.22"/><polygon class="cls-28" points="206.78 90.22 191.71 81.52 191.71 82.27 206.78 90.97 221.85 82.27 221.19 81.89 206.78 90.22"/><polygon class="cls-39" points="226.35 101.38 211.29 92.68 211.29 110.08 226.35 118.78 241.42 110.08 241.42 92.68 226.35 101.38"/><polygon class="cls-39" points="226.35 118.78 211.29 110.08 211.29 92.68 226.35 101.38 226.35 118.78"/><polygon class="cls-40" points="241.42 110.08 226.35 118.78 226.35 101.38 241.42 92.68 241.42 110.08"/><polygon class="cls-39" points="226.35 101.38 211.29 92.68 226.35 83.98 241.42 92.68 226.35 101.38"/><polygon class="cls-28" points="226.35 101.38 211.29 92.68 211.29 93.44 226.35 102.14 241.42 93.44 240.77 93.06 226.35 101.38"/><polygon class="cls-39" points="245.93 112.55 230.86 103.85 230.86 121.25 245.93 129.95 260.99 121.25 260.99 103.85 245.93 112.55"/><polygon class="cls-39" points="245.93 129.95 230.86 121.25 230.86 103.85 245.93 112.55 245.93 129.95"/><polygon class="cls-40" points="260.99 121.25 245.93 129.95 245.93 112.55 260.99 103.85 260.99 121.25"/><polygon class="cls-39" points="245.93 112.55 230.86 103.85 245.93 95.15 260.99 103.85 245.93 112.55"/><polygon class="cls-28" points="245.93 112.55 230.86 103.85 230.86 104.6 245.93 113.3 260.99 104.61 260.99 103.85 245.93 112.55"/><polygon class="cls-39" points="245.93 43.28 230.86 34.58 230.86 51.98 245.93 60.68 260.99 51.98 260.99 34.58 245.93 43.28"/><polygon class="cls-39" points="245.93 60.68 230.86 51.98 230.86 34.58 245.93 43.28 245.93 60.68"/><polygon class="cls-40" points="260.99 51.98 245.93 60.68 245.93 43.28 260.99 34.58 260.99 51.98"/><polygon class="cls-39" points="245.93 43.28 230.86 34.58 245.93 25.88 260.99 34.58 245.93 43.28"/><polygon class="cls-28" points="245.93 43.28 231.51 34.96 230.86 35.34 245.93 44.04 260.99 35.34 260.34 34.96 245.93 43.28"/><polygon class="cls-42" points="245.93 109.72 235.65 103.78 245.93 97.85 256.2 103.78 245.93 109.72"/><polygon class="cls-42" points="226.35 98.55 216.07 92.61 226.35 86.68 236.63 92.61 226.35 98.55"/><polygon class="cls-42" points="265.5 97.79 255.22 91.86 265.5 85.92 275.77 91.86 265.5 97.79"/><polygon class="cls-42" points="285.11 86.01 274.83 80.07 285.11 74.14 295.38 80.07 285.11 86.01"/><polygon class="cls-42" points="206.78 87.38 196.5 81.45 206.78 75.51 217.06 81.45 206.78 87.38"/><polygon class="cls-39" points="265.5 54.45 250.43 45.75 250.43 63.15 265.5 71.85 280.56 63.15 280.56 45.75 265.5 54.45"/><polygon class="cls-39" points="265.5 71.85 250.43 63.15 250.43 45.75 265.5 54.45 265.5 71.85"/><polygon class="cls-40" points="280.56 63.15 265.5 71.85 265.5 54.45 280.56 45.75 280.56 63.15"/><polygon class="cls-39" points="265.5 54.45 250.43 45.75 265.5 37.05 280.56 45.75 265.5 54.45"/><polygon class="cls-28" points="265.5 54.45 251.08 46.13 250.43 46.5 265.5 55.2 280.56 46.51 279.91 46.13 265.5 54.45"/><polygon class="cls-39" points="285.07 65.62 270 56.92 270 74.31 285.07 83.01 300.14 74.31 300.14 56.92 285.07 65.62"/><polygon class="cls-39" points="285.07 83.01 270 74.31 270 56.92 285.07 65.62 285.07 83.01"/><polygon class="cls-40" points="300.14 74.31 285.07 83.01 285.07 65.62 300.14 56.92 300.14 74.31"/><polygon class="cls-39" points="285.07 65.62 270 56.92 285.07 48.22 300.14 56.92 285.07 65.62"/><polygon class="cls-28" points="285.07 65.62 270.65 57.29 270 57.67 285.07 66.37 300.14 57.67 300.14 56.92 285.07 65.62"/><polygon class="cls-39" points="226.35 55.2 211.29 46.5 211.29 63.9 226.35 72.6 241.42 63.9 241.42 46.5 226.35 55.2"/><polygon class="cls-39" points="226.35 72.6 211.29 63.9 211.29 46.5 226.35 55.2 226.35 72.6"/><polygon class="cls-40" points="241.42 63.9 226.35 72.6 226.35 55.2 241.42 46.5 241.42 63.9"/><polygon class="cls-39" points="226.35 55.2 211.29 46.5 226.35 37.8 241.42 46.51 226.35 55.2"/><polygon class="cls-28" points="226.35 55.2 211.94 46.88 211.29 47.26 226.35 55.96 241.42 47.26 240.77 46.88 226.35 55.2"/><polygon class="cls-39" points="245.93 66.37 230.86 57.67 230.86 75.07 245.93 83.77 260.99 75.07 260.99 57.67 245.93 66.37"/><polygon class="cls-39" points="245.93 83.77 230.86 75.07 230.86 57.67 245.93 66.37 245.93 83.77"/><polygon class="cls-40" points="260.99 75.07 245.93 83.77 245.93 66.37 260.99 57.67 260.99 75.07"/><polygon class="cls-39" points="245.93 66.37 230.86 57.67 245.93 48.97 260.99 57.67 245.93 66.37"/><polygon class="cls-28" points="245.93 66.37 231.51 58.05 230.86 58.43 245.93 67.13 260.99 58.43 260.34 58.05 245.93 66.37"/><polygon class="cls-39" points="265.5 77.54 250.43 68.84 250.43 86.24 265.5 94.94 280.56 86.24 280.56 68.84 265.5 77.54"/><polygon class="cls-39" points="265.5 94.94 250.43 86.24 250.43 68.84 265.5 77.54 265.5 94.94"/><polygon class="cls-40" points="280.56 86.24 265.5 94.94 265.5 77.54 280.56 68.84 280.56 86.24"/><polygon class="cls-39" points="265.5 77.54 250.43 68.84 265.5 60.14 280.56 68.84 265.5 77.54"/><polygon class="cls-28" points="265.5 77.54 251.08 69.22 250.43 69.59 265.5 78.29 280.56 69.59 280.56 68.84 265.5 77.54"/><polygon class="cls-39" points="206.78 67.13 191.71 58.43 191.71 75.82 206.78 84.52 221.85 75.82 221.85 58.43 206.78 67.13"/><polygon class="cls-39" points="206.78 84.52 191.71 75.82 191.71 58.43 206.78 67.13 206.78 84.52"/><polygon class="cls-40" points="221.85 75.82 206.78 84.52 206.78 67.13 221.85 58.43 221.85 75.82"/><polygon class="cls-39" points="206.78 67.13 191.71 58.43 206.78 49.73 221.85 58.43 206.78 67.13"/><polygon class="cls-28" points="206.78 67.13 192.37 58.8 191.71 59.18 206.78 67.88 221.85 59.18 221.19 58.8 206.78 67.13"/><polygon class="cls-39" points="226.35 78.29 211.29 69.59 211.29 86.99 226.35 95.69 241.42 86.99 241.42 69.59 226.35 78.29"/><polygon class="cls-39" points="226.35 95.69 211.29 86.99 211.29 69.59 226.35 78.29 226.35 95.69"/><polygon class="cls-40" points="241.42 86.99 226.35 95.69 226.35 78.29 241.42 69.59 241.42 86.99"/><polygon class="cls-39" points="226.35 78.29 211.29 69.59 226.35 60.9 241.42 69.59 226.35 78.29"/><polygon class="cls-28" points="226.35 78.29 211.29 69.59 211.29 70.35 226.35 79.05 241.42 70.35 240.77 69.97 226.35 78.29"/><polygon class="cls-39" points="245.93 89.46 230.86 80.76 230.86 98.16 245.93 106.86 260.99 98.16 260.99 80.76 245.93 89.46"/><polygon class="cls-39" points="245.93 106.86 230.86 98.16 230.86 80.76 245.93 89.46 245.93 106.86"/><polygon class="cls-40" points="260.99 98.16 245.93 106.86 245.93 89.46 260.99 80.76 260.99 98.16"/><polygon class="cls-39" points="245.93 89.46 230.86 80.76 245.93 72.06 260.99 80.76 245.93 89.46"/><polygon class="cls-28" points="245.93 89.46 230.86 80.76 230.86 81.52 245.93 90.22 260.99 81.52 260.99 80.76 245.93 89.46"/><polygon class="cls-42" points="285.11 63.02 274.83 57.09 285.11 51.15 295.38 57.09 285.11 63.02"/><polygon class="cls-42" points="206.78 64.39 196.5 58.46 206.78 52.53 217.06 58.46 206.78 64.39"/><polygon class="cls-39" points="245.93 20.19 230.86 11.49 230.86 28.89 245.93 37.59 260.99 28.89 260.99 11.49 245.93 20.19"/><polygon class="cls-39" points="245.93 37.59 230.86 28.89 230.86 11.49 245.93 20.19 245.93 37.59"/><polygon class="cls-40" points="260.99 28.89 245.93 37.59 245.93 20.19 260.99 11.49 260.99 28.89"/><polygon class="cls-39" points="245.93 20.19 230.86 11.49 245.93 2.79 260.99 11.49 245.93 20.19"/><polygon class="cls-28" points="245.93 20.19 230.86 11.49 230.86 12.25 245.93 20.95 260.99 12.25 260.99 11.49 245.93 20.19"/><polygon class="cls-39" points="265.5 31.36 250.43 22.66 250.43 40.06 265.5 48.76 280.56 40.06 280.56 22.66 265.5 31.36"/><polygon class="cls-39" points="265.5 48.76 250.43 40.06 250.43 22.66 265.5 31.36 265.5 48.76"/><polygon class="cls-40" points="280.56 40.06 265.5 48.76 265.5 31.36 280.56 22.66 280.56 40.06"/><polygon class="cls-39" points="265.5 31.36 250.43 22.66 265.5 13.96 280.56 22.66 265.5 31.36"/><polygon class="cls-28" points="265.5 31.36 250.43 22.66 250.43 23.41 265.5 32.12 280.56 23.42 280.56 22.66 265.5 31.36"/><polygon class="cls-39" points="285.07 42.53 270 33.83 270 51.23 285.07 59.92 300.14 51.23 300.14 33.83 285.07 42.53"/><polygon class="cls-39" points="285.07 59.92 270 51.23 270 33.83 285.07 42.53 285.07 59.92"/><polygon class="cls-40" points="300.14 51.23 285.07 59.92 285.07 42.53 300.14 33.83 300.14 51.23"/><polygon class="cls-39" points="285.07 42.53 270 33.83 285.07 25.13 300.14 33.83 285.07 42.53"/><polygon class="cls-28" points="285.07 42.53 270 33.83 270 34.58 285.07 43.28 300.14 34.58 300.14 33.83 285.07 42.53"/><polygon class="cls-39" points="226.35 32.12 211.29 23.41 211.29 40.81 226.35 49.51 241.42 40.81 241.42 23.41 226.35 32.12"/><polygon class="cls-39" points="226.35 49.51 211.29 40.81 211.29 23.41 226.35 32.12 226.35 49.51"/><polygon class="cls-40" points="241.42 40.81 226.35 49.51 226.35 32.12 241.42 23.41 241.42 40.81"/><polygon class="cls-39" points="226.35 32.12 211.29 23.41 226.35 14.72 241.42 23.42 226.35 32.12"/><polygon class="cls-28" points="226.35 32.12 211.29 23.41 211.29 24.17 226.35 32.87 241.42 24.17 241.42 23.41 226.35 32.12"/><polygon class="cls-39" points="206.78 44.04 191.71 35.34 191.71 52.73 206.78 61.44 221.85 52.73 221.85 35.34 206.78 44.04"/><polygon class="cls-39" points="206.78 61.44 191.71 52.73 191.71 35.34 206.78 44.04 206.78 61.44"/><polygon class="cls-40" points="221.85 52.73 206.78 61.44 206.78 44.04 221.85 35.34 221.85 52.73"/><polygon class="cls-39" points="206.78 44.04 191.71 35.34 206.78 26.64 221.85 35.34 206.78 44.04"/><polygon class="cls-28" points="206.78 44.04 191.71 35.34 191.71 36.09 206.78 44.79 221.85 36.09 221.85 35.34 206.78 44.04"/><polyline class="cls-25" points="197.38 157.08 166.03 174.73 165.95 174.68 198.4 193.23 198.55 192.95 166.03 174.36 197.22 156.81"/><polyline class="cls-25" points="205.87 156.94 174.52 174.59 174.44 174.54 206.89 193.09 207.04 192.81 174.52 174.22 205.71 156.67"/><polyline class="cls-25" points="193.58 185.48 256.2 220.96 256.28 220.91 267.1 214.17 266.94 213.89 256.2 220.59 193.74 185.2"/><path class="cls-43" d="M72.17,245.94,11.83,211.1c-2.44-1.41-2.14-3.87.68-5.5l59-34c2.82-1.63,7.09-1.81,9.53-.4L141.36,206c2.44,1.41,2.14,3.87-.68,5.5l-59,34C78.88,247.17,74.62,247.35,72.17,245.94Z"/><g class="cls-44"><path class="cls-45" d="M72.17,245.94,11.83,211.1c-2.44-1.41-2.14-3.87.68-5.5l59-34c2.82-1.63,7.09-1.81,9.53-.4L141.36,206c2.44,1.41,2.14,3.87-.68,5.5l-59,34C78.88,247.17,74.62,247.35,72.17,245.94Z"/></g><path class="cls-39" d="M11.83,211.1l5.3,3.06,54.36-31.38c2.82-1.63,7.09-1.8,9.53-.39l55,31.78,4.62-2.67c2.82-1.63,3.13-4.09.68-5.5L81,171.15c-2.44-1.41-6.71-1.23-9.53.4l-59,34C9.69,207.22,9.39,209.69,11.83,211.1Z"/><g class="cls-46"><polygon class="cls-27" points="76.59 220.16 36.22 196.84 76.59 173.53 116.97 196.84 76.59 220.16"/><polygon class="cls-47" points="116.97 196.84 116.97 286.33 76.59 309.64 76.59 220.16 116.97 196.84"/><polygon class="cls-48" points="36.22 196.84 36.22 286.33 76.59 309.64 76.59 220.16 36.22 196.84"/><g class="cls-49"><polygon class="cls-50" points="38.95 202.78 38.95 283.21 73.86 303.37 73.86 222.93 38.95 202.78"/></g><polygon class="cls-50" points="110.92 218.46 110.92 220.83 82.65 237.15 82.65 234.78 110.92 218.46"/><polygon class="cls-50" points="110.92 228.46 110.92 230.83 82.65 247.15 82.65 244.78 110.92 228.46"/><polygon class="cls-50" points="110.92 238.46 110.92 240.83 82.65 257.15 82.65 254.78 110.92 238.46"/><polygon class="cls-50" points="110.92 248.47 110.92 250.83 82.65 267.15 82.65 264.78 110.92 248.47"/><g class="cls-51"><polygon class="cls-52" points="76.59 214.03 65.98 214.03 36.22 196.84 68.61 178.14 76.59 178.14 76.59 214.03"/></g><polygon class="cls-53" points="76.59 211.97 47.3 195.06 76.59 178.14 105.89 195.06 76.59 211.97"/><polygon class="cls-54" points="105.89 195.06 105.89 197.11 76.59 214.03 76.59 211.97 105.89 195.06"/><polygon class="cls-55" points="47.3 195.06 47.3 197.11 76.59 214.03 76.59 211.97 47.3 195.06"/><polygon class="cls-56" points="65.23 195.33 63.93 194.58 64.04 193.97 76.08 186.97 77.75 187.76 77.44 188.28 65.23 195.33"/><polygon class="cls-57" points="76.14 187.53 77.44 188.28 78.27 187.8 76.14 186.57 63.1 194.1 63.94 194.58 76.14 187.53"/><polygon class="cls-56" points="69.17 197.59 67.87 196.84 67.98 196.24 80.02 189.23 81.69 190.03 81.38 190.55 69.17 197.59"/><polygon class="cls-58" points="80.08 189.8 81.38 190.55 82.21 190.06 80.08 188.83 67.04 196.36 67.87 196.85 80.08 189.8"/><polygon class="cls-56" points="73.11 199.86 71.81 199.11 71.92 198.5 83.95 191.5 85.63 192.29 85.31 192.81 73.11 199.86"/><polygon class="cls-59" points="84.02 192.07 85.31 192.81 86.15 192.33 84.02 191.1 70.98 198.63 71.81 199.11 84.02 192.07"/><polygon class="cls-56" points="77.05 202.13 75.75 201.38 75.86 200.77 87.89 193.77 89.56 194.56 89.25 195.08 77.05 202.13"/><polygon class="cls-60" points="87.96 194.33 89.25 195.08 90.09 194.6 87.96 193.37 74.92 200.9 75.75 201.38 87.96 194.33"/><g class="cls-49"><polygon class="cls-50" points="36.22 272.19 76.59 247.81 76.59 220.16 36.22 196.84 36.22 272.19"/></g><path class="cls-61" d="M75,224.18a3.55,3.55,0,0,0-1.61-2.78,1.12,1.12,0,0,0-1.14-.11h0l-1.14.67.7,0a1.84,1.84,0,0,0,0,.35,3.55,3.55,0,0,0,1.61,2.78,1.81,1.81,0,0,0,.34.15l-.33.61,1.11-.65h0A1.12,1.12,0,0,0,75,224.18Z"/><path class="cls-62" d="M73.85,224.85c0,1-.72,1.44-1.61.93A3.55,3.55,0,0,1,70.64,223c0-1,.72-1.44,1.61-.93A3.55,3.55,0,0,1,73.85,224.85Z"/><path class="cls-56" d="M73.17,224.45c0,.59-.41.83-.92.53a2,2,0,0,1-.92-1.6c0-.59.41-.83.92-.53A2,2,0,0,1,73.17,224.45Z"/><path class="cls-63" d="M41.13,203.37a3.55,3.55,0,0,0-1.61-2.78,1.13,1.13,0,0,0-1.14-.11h0l-1.14.67.7,0a1.84,1.84,0,0,0,0,.35,3.55,3.55,0,0,0,1.61,2.78,1.81,1.81,0,0,0,.34.15l-.33.61,1.11-.65h0A1.12,1.12,0,0,0,41.13,203.37Z"/><path class="cls-64" d="M40,204c0,1-.72,1.44-1.61.93a3.55,3.55,0,0,1-1.61-2.78c0-1,.72-1.44,1.61-.93A3.55,3.55,0,0,1,40,204Z"/><path class="cls-56" d="M39.3,203.65c0,.59-.41.83-.92.53a2,2,0,0,1-.92-1.6c0-.59.41-.83.92-.53A2,2,0,0,1,39.3,203.65Z"/><polygon class="cls-39" points="50.17 228.22 41.27 223.09 41.27 221.13 50.17 226.27 50.17 228.22"/><polygon class="cls-39" points="54.74 230.86 51.53 229.01 51.53 227.05 54.74 228.9 54.74 230.86"/><polygon class="cls-39" points="58.27 232.9 56.09 231.64 56.09 229.69 58.27 230.95 58.27 232.9"/><polygon class="cls-39" points="46.12 230.35 41.27 227.55 41.27 225.59 46.12 228.4 46.12 230.35"/><polygon class="cls-39" points="53.42 234.56 47.48 231.13 47.48 229.18 53.42 232.61 53.42 234.56"/><polygon class="cls-39" points="56.96 236.61 54.78 235.35 54.78 233.4 56.96 234.65 56.96 236.61"/><polygon class="cls-39" points="60.33 238.55 58.15 237.29 58.15 235.34 60.33 236.6 60.33 238.55"/><polygon class="cls-39" points="44.78 234.04 41.27 232.01 41.27 230.06 44.78 232.09 44.78 234.04"/><polygon class="cls-39" points="47.34 235.52 46.14 234.82 46.14 232.87 47.34 233.56 47.34 235.52"/><polygon class="cls-39" points="50.88 237.56 48.7 236.3 48.7 234.35 50.88 235.6 50.88 237.56"/><polygon class="cls-39" points="54.22 243.96 41.27 236.48 41.27 234.52 54.22 242 54.22 243.96"/><polygon class="cls-39" points="58.79 246.59 55.58 244.74 55.58 242.79 58.79 244.64 58.79 246.59"/><polygon class="cls-39" points="44.78 242.97 41.27 240.94 41.27 238.99 44.78 241.01 44.78 242.97"/><polygon class="cls-39" points="53.02 247.72 46.14 243.75 46.14 241.8 53.02 245.77 53.02 247.72"/><polygon class="cls-39" points="56.55 249.76 54.37 248.51 54.37 246.55 56.55 247.81 56.55 249.76"/><polygon class="cls-39" points="48.45 249.55 41.27 245.41 41.27 243.45 48.45 247.6 48.45 249.55"/><polygon class="cls-39" points="55 253.34 49.81 250.34 49.81 248.38 55 251.38 55 253.34"/><polygon class="cls-39" points="59.87 256.14 56.36 254.12 56.36 252.16 59.87 254.19 59.87 256.14"/><polygon class="cls-39" points="43.7 251.27 41.27 249.87 41.27 247.92 43.7 249.32 43.7 251.27"/><polygon class="cls-39" points="48.26 253.91 45.06 252.06 45.06 250.1 48.26 251.95 48.26 253.91"/><polygon class="cls-39" points="54.78 257.67 49.62 254.69 49.62 252.74 54.78 255.72 54.78 257.67"/><polygon class="cls-39" points="48.7 258.63 41.27 254.34 41.27 252.38 48.7 256.67 48.7 258.63"/><polygon class="cls-39" points="64.33 236.4 70.5 239.96 70.5 238.01 64.33 234.44 64.33 236.4"/><polygon class="cls-39" points="65.65 241.63 70.5 244.43 70.5 242.47 65.65 239.67 65.65 241.63"/><polygon class="cls-39" points="66.99 246.87 70.5 248.89 70.5 246.94 66.99 244.91 66.99 246.87"/><polygon class="cls-39" points="65.4 250.41 70.5 253.35 70.5 251.4 65.4 248.45 65.4 250.41"/><polygon class="cls-39" points="66.99 255.79 70.5 257.82 70.5 255.87 66.99 253.84 66.99 255.79"/><polygon class="cls-27" points="76.59 97.12 36.22 73.81 76.59 50.49 116.97 73.81 76.59 97.12"/><polygon class="cls-28" points="76.59 186.6 36.22 163.29 76.59 139.98 116.97 163.29 76.59 186.6"/><polygon class="cls-65" points="116.97 73.81 116.97 163.29 76.59 186.6 76.59 97.12 116.97 73.81"/><polygon class="cls-48" points="36.22 73.81 36.22 163.29 76.59 186.6 76.59 97.12 36.22 73.81"/><g class="cls-49"><polygon class="cls-50" points="38.95 79.74 38.95 160.18 73.86 180.33 73.86 99.9 38.95 79.74"/></g><polygon class="cls-50" points="110.92 95.43 110.92 97.79 82.65 114.11 82.65 111.75 110.92 95.43"/><polygon class="cls-50" points="110.92 105.43 110.92 107.79 82.65 124.11 82.65 121.75 110.92 105.43"/><polygon class="cls-50" points="110.92 115.43 110.92 117.79 82.65 134.11 82.65 131.75 110.92 115.43"/><polygon class="cls-50" points="110.92 125.43 110.92 127.79 82.65 144.11 82.65 141.75 110.92 125.43"/><polygon class="cls-50" points="110.92 135.43 110.92 137.79 82.65 154.11 82.65 151.75 110.92 135.43"/><polygon class="cls-50" points="110.92 145.43 110.92 147.79 82.65 164.11 82.65 161.75 110.92 145.43"/><g class="cls-66"><polygon class="cls-67" points="76.59 90.99 65.98 90.99 36.22 73.81 68.61 55.1 76.59 55.1 76.59 90.99"/></g><polygon class="cls-68" points="76.59 88.94 47.3 72.02 76.59 55.1 105.89 72.02 76.59 88.94"/><polygon class="cls-69" points="105.89 72.02 105.89 74.08 76.59 90.99 76.59 88.94 105.89 72.02"/><polygon class="cls-70" points="47.3 72.02 47.3 74.08 76.59 90.99 76.59 88.94 47.3 72.02"/><polygon class="cls-56" points="65.23 72.29 63.93 71.54 64.04 70.93 76.08 63.93 77.75 64.72 77.44 65.24 65.23 72.29"/><polygon class="cls-71" points="76.14 64.5 77.44 65.24 78.27 64.76 76.14 63.53 63.1 71.06 63.94 71.54 76.14 64.5"/><polygon class="cls-56" points="69.17 74.56 67.87 73.81 67.98 73.2 80.02 66.2 81.69 66.99 81.38 67.51 69.17 74.56"/><polygon class="cls-72" points="80.08 66.76 81.38 67.51 82.21 67.03 80.08 65.8 67.04 73.33 67.87 73.81 80.08 66.76"/><polygon class="cls-56" points="73.11 76.83 71.81 76.08 71.92 75.47 83.95 68.46 85.63 69.26 85.31 69.78 73.11 76.83"/><polygon class="cls-73" points="84.02 69.03 85.31 69.78 86.15 69.3 84.02 68.06 70.98 75.59 71.81 76.08 84.02 69.03"/><polygon class="cls-56" points="77.05 79.09 75.75 78.34 75.86 77.73 87.89 70.73 89.56 71.53 89.25 72.05 77.05 79.09"/><polygon class="cls-74" points="87.96 71.3 89.25 72.05 90.09 71.56 87.96 70.33 74.92 77.86 75.75 78.34 87.96 71.3"/><g class="cls-49"><polygon class="cls-50" points="36.22 149.15 76.59 124.77 76.59 97.12 36.22 73.81 36.22 149.15"/></g><path class="cls-75" d="M75,101.14a3.55,3.55,0,0,0-1.61-2.78,1.13,1.13,0,0,0-1.14-.11h0l-1.14.67.7,0a1.83,1.83,0,0,0,0,.35,3.55,3.55,0,0,0,1.61,2.78,1.81,1.81,0,0,0,.34.15l-.33.61,1.11-.65h0A1.12,1.12,0,0,0,75,101.14Z"/><path class="cls-76" d="M73.85,101.81c0,1-.72,1.44-1.61.93A3.55,3.55,0,0,1,70.64,100c0-1,.72-1.44,1.61-.93A3.55,3.55,0,0,1,73.85,101.81Z"/><path class="cls-56" d="M73.17,101.42c0,.59-.41.83-.92.53a2,2,0,0,1-.92-1.6c0-.59.41-.83.92-.53A2,2,0,0,1,73.17,101.42Z"/><path class="cls-77" d="M41.13,80.34a3.55,3.55,0,0,0-1.61-2.78,1.12,1.12,0,0,0-1.14-.11h0l-1.14.67.7,0a1.84,1.84,0,0,0,0,.35,3.55,3.55,0,0,0,1.61,2.78,1.8,1.8,0,0,0,.34.15l-.33.61,1.11-.65h0A1.12,1.12,0,0,0,41.13,80.34Z"/><path class="cls-78" d="M40,81c0,1-.72,1.44-1.61.93a3.55,3.55,0,0,1-1.61-2.78c0-1,.72-1.44,1.61-.93A3.55,3.55,0,0,1,40,81Z"/><path class="cls-56" d="M39.3,80.61c0,.59-.41.83-.92.53a2,2,0,0,1-.92-1.6c0-.59.41-.83.92-.53A2,2,0,0,1,39.3,80.61Z"/><path class="cls-79" d="M75,181.28a3.55,3.55,0,0,0-1.61-2.78,1.12,1.12,0,0,0-1.14-.11h0l-1.14.67.7,0a1.83,1.83,0,0,0,0,.35,3.55,3.55,0,0,0,1.61,2.78,1.8,1.8,0,0,0,.34.15l-.33.61,1.11-.65h0A1.12,1.12,0,0,0,75,181.28Z"/><path class="cls-80" d="M73.85,182c0,1-.72,1.44-1.61.93a3.55,3.55,0,0,1-1.61-2.78c0-1,.72-1.44,1.61-.93A3.55,3.55,0,0,1,73.85,182Z"/><path class="cls-56" d="M73.17,181.56c0,.59-.41.83-.92.53a2,2,0,0,1-.92-1.6c0-.59.41-.83.92-.53A2,2,0,0,1,73.17,181.56Z"/><path class="cls-81" d="M41.13,160.48a3.55,3.55,0,0,0-1.61-2.78,1.13,1.13,0,0,0-1.14-.11h0l-1.14.67.7,0a1.84,1.84,0,0,0,0,.35,3.55,3.55,0,0,0,1.61,2.78,1.81,1.81,0,0,0,.34.15l-.33.61,1.11-.65h0A1.12,1.12,0,0,0,41.13,160.48Z"/><path class="cls-82" d="M40,161.15c0,1-.72,1.44-1.61.93a3.55,3.55,0,0,1-1.61-2.78c0-1,.72-1.44,1.61-.93A3.55,3.55,0,0,1,40,161.15Z"/><path class="cls-56" d="M39.3,160.75c0,.59-.41.83-.92.53a2,2,0,0,1-.92-1.6c0-.59.41-.83.92-.53A2,2,0,0,1,39.3,160.75Z"/><polygon class="cls-39" points="50.17 113.19 41.27 108.05 41.27 106.09 50.17 111.23 50.17 113.19"/><polygon class="cls-39" points="54.74 115.82 51.53 113.97 51.53 112.02 54.74 113.87 54.74 115.82"/><polygon class="cls-39" points="58.27 117.86 56.09 116.61 56.09 114.65 58.27 115.91 58.27 117.86"/><polygon class="cls-39" points="46.12 115.31 41.27 112.51 41.27 110.56 46.12 113.36 46.12 115.31"/><polygon class="cls-39" points="53.42 119.53 47.48 116.1 47.48 114.14 53.42 117.58 53.42 119.53"/><polygon class="cls-39" points="56.96 121.57 54.78 120.31 54.78 118.36 56.96 119.62 56.96 121.57"/><polygon class="cls-39" points="60.33 123.51 58.15 122.26 58.15 120.3 60.33 121.56 60.33 123.51"/><polygon class="cls-39" points="44.78 119 41.27 116.98 41.27 115.02 44.78 117.05 44.78 119"/><polygon class="cls-39" points="47.34 120.48 46.14 119.79 46.14 117.83 47.34 118.53 47.34 120.48"/><polygon class="cls-39" points="50.88 122.52 48.7 121.27 48.7 119.31 50.88 120.57 50.88 122.52"/><polygon class="cls-39" points="54.22 128.92 41.27 121.44 41.27 119.49 54.22 126.97 54.22 128.92"/><polygon class="cls-39" points="58.79 131.55 55.58 129.7 55.58 127.75 58.79 129.6 58.79 131.55"/><polygon class="cls-39" points="44.78 127.93 41.27 125.91 41.27 123.95 44.78 125.98 44.78 127.93"/><polygon class="cls-39" points="53.02 132.69 46.14 128.72 46.14 126.76 53.02 130.73 53.02 132.69"/><polygon class="cls-39" points="56.55 134.73 54.37 133.47 54.37 131.52 56.55 132.77 56.55 134.73"/><polygon class="cls-39" points="48.45 134.52 41.27 130.37 41.27 128.42 48.45 132.56 48.45 134.52"/><polygon class="cls-39" points="55 138.3 49.81 135.3 49.81 133.35 55 136.34 55 138.3"/><polygon class="cls-39" points="59.87 141.11 56.36 139.08 56.36 137.13 59.87 139.15 59.87 141.11"/><polygon class="cls-39" points="43.7 136.24 41.27 134.84 41.27 132.88 43.7 134.28 43.7 136.24"/><polygon class="cls-39" points="48.26 138.87 45.06 137.02 45.06 135.07 48.26 136.92 48.26 138.87"/><polygon class="cls-39" points="54.78 142.64 49.62 139.66 49.62 137.7 54.78 140.68 54.78 142.64"/><polygon class="cls-39" points="48.7 143.59 41.27 139.3 41.27 137.35 48.7 141.63 48.7 143.59"/><polygon class="cls-39" points="57.02 148.39 50.06 144.37 50.06 142.42 57.02 146.44 57.02 148.39"/><polygon class="cls-39" points="60.55 150.43 58.38 149.18 58.38 147.22 60.55 148.48 60.55 150.43"/><polygon class="cls-39" points="63.95 152.39 61.77 151.14 61.77 149.18 63.95 150.44 63.95 152.39"/><polygon class="cls-39" points="45.72 146.33 41.27 143.76 41.27 141.81 45.72 144.38 45.72 146.33"/><polygon class="cls-39" points="64.33 121.36 70.5 124.92 70.5 122.97 64.33 119.41 64.33 121.36"/><polygon class="cls-39" points="65.65 126.59 70.5 129.39 70.5 127.44 65.65 124.64 65.65 126.59"/><polygon class="cls-39" points="66.99 131.83 70.5 133.85 70.5 131.9 66.99 129.87 66.99 131.83"/><polygon class="cls-39" points="65.4 135.37 70.5 138.32 70.5 136.36 65.4 133.42 65.4 135.37"/><polygon class="cls-39" points="66.99 140.76 70.5 142.78 70.5 140.83 66.99 138.8 66.99 140.76"/><polygon class="cls-39" points="66.05 144.68 70.5 147.25 70.5 145.29 66.05 142.72 66.05 144.68"/><polygon class="cls-39" points="68.08 150.31 70.5 151.71 70.5 149.76 68.08 148.36 68.08 150.31"/><polygon class="cls-39" points="65.8 153.46 70.5 156.18 70.5 154.22 65.8 151.51 65.8 153.46"/><polygon class="cls-39" points="66.05 158.07 70.5 160.64 70.5 158.69 66.05 156.12 66.05 158.07"/><polygon class="cls-39" points="48.97 148.21 47.08 147.12 47.08 145.16 48.97 146.26 48.97 148.21"/><polygon class="cls-39" points="54.59 151.46 50.33 149 50.33 147.04 54.59 149.5 54.59 151.46"/><polygon class="cls-39" points="58.12 166.47 50.93 162.32 50.93 160.37 58.12 164.52 58.12 166.47"/><polygon class="cls-39" points="63.04 169.32 60.21 167.68 60.21 165.73 63.04 167.36 63.04 169.32"/><g class="cls-83"><path class="cls-84" d="M121.34,144.34l-.32-.19c-1.19-.69-2.15,0-2.15,1.63v93a5.15,5.15,0,0,0,2.15,4.11l.32.19c1.19.69,2.15,0,2.15-1.63v-93A5.15,5.15,0,0,0,121.34,144.34Z"/></g><g class="cls-85"><path class="cls-86" d="M130,164.17l-.32-.19c-1.19-.69-2.15,0-2.15,1.63v78.22a5.15,5.15,0,0,0,2.15,4.11l.32.19c1.19.69,2.15,0,2.15-1.63V168.28A5.15,5.15,0,0,0,130,164.17Z"/></g><g class="cls-87"><path class="cls-88" d="M138.68,187.59l-.32-.19c-1.19-.69-2.15,0-2.15,1.63v29.31a5.15,5.15,0,0,0,2.15,4.11l.32.19c1.19.69,2.15,0,2.15-1.63V191.7A5.15,5.15,0,0,0,138.68,187.59Z"/></g><g class="cls-89"><path class="cls-90" d="M147.27,200.44l-.32-.19c-1.19-.69-2.15,0-2.15,1.63v11.24a5.15,5.15,0,0,0,2.15,4.11l.32.19c1.19.69,2.15,0,2.15-1.63V204.55A5.15,5.15,0,0,0,147.27,200.44Z"/></g><g class="cls-91"><path class="cls-92" d="M31.84,144.34l.32-.19c1.19-.69,2.15,0,2.15,1.63v93a5.15,5.15,0,0,1-2.15,4.11l-.32.19c-1.19.69-2.15,0-2.15-1.63v-93A5.15,5.15,0,0,1,31.84,144.34Z"/></g><g class="cls-93"><path class="cls-94" d="M23.18,164.17l.32-.19c1.19-.69,2.15,0,2.15,1.63v78.22a5.15,5.15,0,0,1-2.15,4.11l-.32.19c-1.19.69-2.15,0-2.15-1.63V168.28A5.15,5.15,0,0,1,23.18,164.17Z"/></g><g class="cls-95"><path class="cls-96" d="M14.51,187.59l.32-.19c1.19-.69,2.15,0,2.15,1.63v29.31a5.15,5.15,0,0,1-2.15,4.11l-.32.19c-1.19.69-2.15,0-2.15-1.63V191.7A5.15,5.15,0,0,1,14.51,187.59Z"/></g><g class="cls-97"><path class="cls-98" d="M5.92,200.44l.32-.19c1.19-.69,2.15,0,2.15,1.63v11.24a5.15,5.15,0,0,1-2.15,4.11l-.32.19c-1.19.69-2.15,0-2.15-1.63V204.55A5.15,5.15,0,0,1,5.92,200.44Z"/></g></g><path class="cls-27" d="M237.24,94.51l-.14-.14-1.85-1.06-.14,0-.27.54-.07,0-.41-.23-.07-.1v-.4l1.5-2.66.07,0,.62.35.07.1,1.51,4.39v.4l-.07,0-.41-.24-.07-.1Zm-1.85-1.69.07.1,1.44.82.07,0-.75-2.22-.07,0Z"/><path class="cls-27" d="M241.71,97.82,239,96.24l-.07-.1v-.4l.07,0,1,.55.07,0V93.36l-.07-.1-.89-.51-.07-.1v-.41l.07,0,2.61,1.49.07.1v.41l-.07,0-.89-.51-.07,0v2.9l.07.1,1,.55.07.1v.41Z"/><path class="cls-27" d="M198.24,72.51l-.14-.14-1.85-1.06-.14,0-.27.54-.07,0-.41-.23-.07-.1v-.4l1.5-2.66.07,0,.62.35.07.1,1.51,4.39v.4l-.07,0-.41-.24-.07-.1Zm-1.85-1.69.07.1,1.44.82.07,0-.75-2.22-.07,0Z"/><path class="cls-27" d="M202.71,75.82,200,74.24l-.07-.1v-.4l.07,0,1,.55.07,0V71.36l-.07-.1-.89-.51-.07-.1v-.41l.07,0,2.61,1.49.07.1v.41l-.07,0-.89-.51-.07,0v2.9l.07.1,1,.55.07.1v.41Z"/><path class="cls-27" d="M237.24,118.51l-.14-.14-1.85-1.06-.14,0-.27.54-.07,0-.41-.23-.07-.1v-.4l1.5-2.66.07,0,.62.35.07.1,1.51,4.39v.4l-.07,0-.41-.24-.07-.1Zm-1.85-1.69.07.1,1.44.82.07,0-.75-2.22-.07,0Z"/><path class="cls-27" d="M241.71,121.82,239,120.24l-.07-.1v-.4l.07,0,1,.55.07,0v-2.89l-.07-.1-.89-.51-.07-.1v-.41l.07,0,2.61,1.49.07.1v.41l-.07,0-.89-.51-.07,0v2.9l.07.1,1,.55.07.1v.41Z"/><path class="cls-27" d="M217.24,83.51l-.14-.14-1.85-1.06-.14,0-.27.54-.07,0-.41-.23-.07-.1v-.4l1.5-2.66.07,0,.62.35.07.1,1.51,4.39v.4l-.07,0-.41-.24-.07-.1Zm-1.85-1.69.07.1,1.44.82.07,0-.75-2.22-.07,0Z"/><path class="cls-27" d="M221.71,86.82,219,85.24l-.07-.1v-.4l.07,0,1,.55.07,0V82.36l-.07-.1-.89-.51-.07-.1v-.41l.07,0,2.61,1.49.07.1v.41l-.07,0-.89-.51-.07,0v2.9l.07.1,1,.55.07.1v.41Z"/><path class="cls-27" d="M198.24,96.51l-.14-.14-1.85-1.06-.14,0-.27.54-.07,0-.41-.23-.07-.1v-.4l1.5-2.66.07,0,.62.35.07.1,1.51,4.39v.4l-.07,0-.41-.24-.07-.1Zm-1.85-1.69.07.1,1.44.82.07,0-.75-2.22-.07,0Z"/><path class="cls-27" d="M202.71,99.82,200,98.24l-.07-.1v-.4l.07,0,1,.55.07,0V95.36l-.07-.1-.89-.51-.07-.1v-.41l.07,0,2.61,1.49.07.1v.41l-.07,0-.89-.51-.07,0v2.9l.07.1,1,.55.07.1v.41Z"/><path class="cls-27" d="M217.24,107.51l-.14-.14-1.85-1.06-.14,0-.27.54-.07,0-.41-.23-.07-.1v-.4l1.5-2.66.07,0,.62.35.07.1,1.51,4.39v.4l-.07,0-.41-.24-.07-.1Zm-1.85-1.69.07.1,1.44.82.07,0-.75-2.22-.07,0Z"/><path class="cls-27" d="M221.71,110.82,219,109.24l-.07-.1v-.4l.07,0,1,.55.07,0v-2.89l-.07-.1-.89-.51-.07-.1v-.41l.07,0,2.61,1.49.07.1v.41l-.07,0-.89-.51-.07,0v2.9l.07.1,1,.55.07.1v.41Z"/><path class="cls-27" d="M276.24,48.51l-.14-.14-1.85-1.06-.14,0-.27.54-.07,0-.41-.23-.07-.1v-.4l1.5-2.66.07,0,.62.35.07.1,1.51,4.39v.4l-.07,0-.41-.24-.07-.1Zm-1.85-1.69.07.1,1.44.82.07,0-.75-2.22-.07,0Z"/><path class="cls-27" d="M280.71,51.82,278,50.24l-.07-.1v-.4l.07,0,1,.55.07,0V47.36l-.07-.1-.89-.51-.07-.1v-.41l.07,0,2.61,1.49.07.1v.41l-.07,0-.89-.51-.07,0v2.9l.07.1,1,.55.07.1v.41Z"/><path class="cls-27" d="M198.24,50.51l-.14-.14-1.85-1.06-.14,0-.27.54-.07,0-.41-.23-.07-.1v-.4l1.5-2.66.07,0,.62.35.07.1,1.51,4.39v.4l-.07,0-.41-.24-.07-.1Zm-1.85-1.69.07.1,1.44.82.07,0-.75-2.22-.07,0Z"/><path class="cls-27" d="M202.71,53.82,200,52.24l-.07-.1v-.4l.07,0,1,.55.07,0V49.36l-.07-.1-.89-.51-.07-.1v-.41l.07,0,2.61,1.49.07.1v.41l-.07,0-.89-.51-.07,0v2.9l.07.1,1,.55.07.1v.41Z"/><path class="cls-27" d="M256.24,37.51l-.14-.14-1.85-1.06-.14,0-.27.54-.07,0-.41-.23-.07-.1v-.4l1.5-2.66.07,0,.62.35.07.1,1.51,4.39v.4l-.07,0-.41-.24-.07-.1Zm-1.85-1.69.07.1,1.44.82.07,0-.75-2.22-.07,0Z"/><path class="cls-27" d="M260.71,40.82,258,39.24l-.07-.1v-.4l.07,0,1,.55.07,0V36.36l-.07-.1-.89-.51-.07-.1v-.41l.07,0,2.61,1.49.07.1v.41l-.07,0-.89-.51-.07,0v2.9l.07.1,1,.55.07.1v.41Z"/></g><g id="Layer_3" data-name="Layer 3"><path class="cls-39" d="M43.39,95.63c-.3.87-.5,1-1.1.61l-.2-.12L42,96v-.48l.05,0,.2.12c.25.14.35.13.45,0v-.21L41.88,92v-.48l0,0,.3.17.05.1.7,3,.1.06.7-2.16.05,0,.3.17.05.1v.49Z"/><path class="cls-39" d="M46.07,97.37a2.9,2.9,0,0,1-1.26-2.53c0-1.11.5-1.52,1.26-1.08l.05,0a2.89,2.89,0,0,1,1.27,2.53c0,1.11-.51,1.52-1.27,1.08Zm.05-.6c.46.26.76,0,.76-.75a1.8,1.8,0,0,0-.76-1.62l-.05,0c-.46-.26-.76,0-.76.75a1.8,1.8,0,0,0,.76,1.62Z"/><path class="cls-39" d="M50.24,99.71l-.36-.21-.05-.1-.05-.31-.05,0s-.2.3-.66,0a2.34,2.34,0,0,1-1-2V95l.05,0,.41.23.05.1v2a1.32,1.32,0,0,0,.56,1.16c.36.21.66,0,.66-.74V96l.05,0,.41.23.05.1v3.36Z"/><path class="cls-39" d="M53.58,99.38l-.05,0-.41-.24-.05-.1a1.09,1.09,0,0,0-.57-1c-.46-.26-.72-.13-.72.71v1.75l-.05,0-.41-.24-.05-.1V96.87l.05,0,.36.21.05.1.05.31.05,0s.21-.3.72,0A2.15,2.15,0,0,1,53.58,99.38Z"/><path class="cls-39" d="M59.71,105.15l-.37-.21-.05-.1-.05-.31-.05,0s-.21.3-.73,0A2.86,2.86,0,0,1,57.31,102c0-1.06.42-1.6,1.15-1.18a1.83,1.83,0,0,1,.73.84l.05,0V100l.05,0,.42.24.05.1v4.81Zm-1.2-3.66c-.42-.24-.68,0-.68.81a1.75,1.75,0,0,0,.68,1.59c.42.24.73.07.73-.78A1.75,1.75,0,0,0,58.51,101.5Z"/><path class="cls-39" d="M62.91,107l-.37-.21-.05-.1-.05-.31-.05,0s-.21.3-.79,0a1.84,1.84,0,0,1-.94-1.68c0-.85.52-.83,1.21-.44a3.27,3.27,0,0,1,.53.37l.05,0v-.14a1,1,0,0,0-.58-1c-.37-.21-.58-.19-.58.09l-.05,0-.42-.24-.05-.1c0-.57.31-.88,1.1-.43A2.23,2.23,0,0,1,63,105v2Zm-.47-1.76-.05-.1a2.33,2.33,0,0,0-.47-.34c-.47-.27-.73-.28-.73.15a.84.84,0,0,0,.52.8c.42.24.74.07.74-.29Z"/><path class="cls-39" d="M64.28,104.94l-.05-.1-.42-.24-.05-.1V104l.05,0,.42.24.05,0v-.92l.05,0,.42.24.05.1v.92l.05.1.9.51.05.1v.5l-.05,0-.9-.51-.05,0v1.42a1.18,1.18,0,0,0,.53,1.16c.21.12.48.13.48-.37v-.14l.05,0,.42.24.05.1v.14c0,1-.58.95-1,.7a2.3,2.3,0,0,1-1.06-2.1Z"/><path class="cls-39" d="M69.39,110.72l-.37-.22-.05-.1-.05-.32-.05,0s-.21.31-.8,0a1.86,1.86,0,0,1-1-1.69c0-.86.53-.84,1.23-.44a3.34,3.34,0,0,1,.53.38l.05,0v-.14a1,1,0,0,0-.59-1c-.37-.21-.59-.19-.59.09l-.05,0-.43-.24-.05-.1c0-.57.32-.89,1.12-.43a2.25,2.25,0,0,1,1.12,2.21v2Zm-.48-1.78-.05-.1a2.38,2.38,0,0,0-.48-.35c-.48-.28-.75-.29-.75.14a.85.85,0,0,0,.53.81c.43.25.75.07.75-.29Z"/><path class="cls-39" d="M43.89,101.77l-.05,0-.4-.23-.05-.1L43,99.05,43,99l-.35,2-.05,0-.4-.23-.05-.1-.5-3.13v-.48l0,0,.3.17.05.1.35,2.42.05,0,.35-2,.05,0,.35.2.05.1.35,2.42.05,0,.35-2,.05,0,.3.17.05.1v.49Z"/><path class="cls-39" d="M47.13,103.72l-.36-.21-.05-.1-.05-.31-.05,0s-.2.3-.76,0a1.81,1.81,0,0,1-.91-1.64c0-.83.51-.82,1.16-.44a3.14,3.14,0,0,1,.51.36l.05,0v-.14a1,1,0,0,0-.56-.95c-.35-.21-.56-.18-.56.09l-.05,0-.4-.23-.05-.1c0-.56.3-.87,1.06-.43a2.19,2.19,0,0,1,1.06,2.15v2ZM46.67,102l-.05-.1a2.24,2.24,0,0,0-.46-.33c-.46-.26-.71-.27-.71.15a.82.82,0,0,0,.51.78c.41.24.71.06.71-.28Z"/><path class="cls-39" d="M50.44,103.42l-.05,0-.41-.24-.05-.1a1.09,1.09,0,0,0-.56-1c-.46-.27-.71-.13-.71.7v1.74l-.05,0-.41-.24-.05-.1V100.9l.05,0,.36.21.05.1.05.31.05,0s.2-.3.71,0A2.16,2.16,0,0,1,50.44,103.42Z"/><path class="cls-39" d="M51.06,104.26c0-1,.36-1.61,1.23-1.11a2.85,2.85,0,0,1,1.23,2.54v.21l-.05,0-1.8-1-.05,0a1.51,1.51,0,0,0,.72,1.26c.26.15.46.2.57-.09l.05,0,.41.24.05.1c-.05.53-.41.81-1.08.42A2.87,2.87,0,0,1,51.06,104.26ZM53,105a1.41,1.41,0,0,0-.67-1.23c-.62-.36-.67.24-.67.45l.05.1,1.23.71Z"/><path class="cls-39" d="M56.58,109.22l-.42-.24-.05-.1v-2a1.34,1.34,0,0,0-.57-1.17c-.41-.24-.72-.14-.72.71v1.76l-.05,0-.41-.24-.05-.1v-4.78l.05,0,.41.24.05.1V105l.05,0s.21-.3.72,0a2.3,2.3,0,0,1,1,2.08v2Z"/><path class="cls-39" d="M58.61,110.48a3,3,0,0,1-1.3-2.59c0-1.13.52-1.53,1.3-1.08l.05,0A3,3,0,0,1,60,109.43c0,1.13-.52,1.53-1.31,1.08Zm.05-.6c.47.27.78,0,.78-.75a1.85,1.85,0,0,0-.78-1.65l-.05,0c-.47-.27-.78,0-.78.75a1.85,1.85,0,0,0,.78,1.65Z"/><path class="cls-39" d="M62.91,112.91l-.37-.21-.05-.1-.05-.31-.05,0s-.21.3-.68,0a2.4,2.4,0,0,1-1-2.1v-2.05l.05,0,.42.24.05.1v2.05a1.35,1.35,0,0,0,.58,1.19c.37.21.68,0,.68-.74v-1.77l.05,0,.42.24.05.1v3.41Z"/><path class="cls-39" d="M63.91,110.87c0-.64.42-.75,1.11-.35a2,2,0,0,1,1.11,1.71l-.05,0-.42-.25-.05-.1c0-.28-.16-.52-.58-.76s-.58-.19-.58,0,.21.55.74.93a2,2,0,0,1,1,1.65c0,.71-.42.89-1.17.46a2.23,2.23,0,0,1-1.16-1.88l.05,0,.42.25.05.1a1.11,1.11,0,0,0,.63.94c.42.25.64.23.64-.13s-.21-.55-.74-.93A2,2,0,0,1,63.91,110.87Z"/><path class="cls-39" d="M67,113.5c0-1,.37-1.64,1.28-1.11a2.92,2.92,0,0,1,1.28,2.6v.21l-.05,0-1.87-1.08-.05,0a1.55,1.55,0,0,0,.75,1.29c.27.15.48.21.59-.09l.05,0,.43.25.05.1c-.05.54-.43.82-1.12.42A3,3,0,0,1,67,113.5Zm2,.79a1.44,1.44,0,0,0-.69-1.26c-.64-.37-.69.24-.69.46l.05.1,1.28.74Z"/></g></g></svg>