<svg xmlns="http://www.w3.org/2000/svg" xmlns:xlink="http://www.w3.org/1999/xlink" viewBox="0 0 575 325"><defs><style>.cls-1{mask:url(#mask);filter:url(#luminosity-noclip-12);}.cls-10,.cls-12,.cls-14,.cls-16,.cls-18,.cls-2,.cls-20,.cls-22,.cls-4,.cls-6,.cls-8{mix-blend-mode:multiply;}.cls-2{fill:url(#_ÂÁ_Ï_ÌÌ_È_ËÂÌÚ_117);}.cls-3{mask:url(#mask-2);filter:url(#luminosity-noclip-17);}.cls-4{fill:url(#_ÂÁ_Ï_ÌÌ_È_ËÂÌÚ_106);}.cls-5{mask:url(#mask-3);filter:url(#luminosity-noclip-18);}.cls-6{fill:url(#_ÂÁ_Ï_ÌÌ_È_ËÂÌÚ_106-2);}.cls-7{mask:url(#mask-4);filter:url(#luminosity-noclip-19);}.cls-8{fill:url(#_ÂÁ_Ï_ÌÌ_È_ËÂÌÚ_106-3);}.cls-9{mask:url(#mask-5);filter:url(#luminosity-noclip-20);}.cls-10{fill:url(#_ÂÁ_Ï_ÌÌ_È_ËÂÌÚ_106-4);}.cls-11{mask:url(#mask-6);filter:url(#luminosity-noclip-21);}.cls-12{fill:url(#_ÂÁ_Ï_ÌÌ_È_ËÂÌÚ_106-5);}.cls-13,.cls-17{mask:url(#mask-7);}.cls-13{filter:url(#luminosity-noclip-13);}.cls-14{fill:url(#_ÂÁ_Ï_ÌÌ_È_ËÂÌÚ_114);}.cls-15{mask:url(#mask-8);filter:url(#luminosity-noclip-22);}.cls-16{fill:url(#_ÂÁ_Ï_ÌÌ_È_ËÂÌÚ_106-6);}.cls-17{filter:url(#luminosity-noclip-14);}.cls-18{fill:url(#_ÂÁ_Ï_ÌÌ_È_ËÂÌÚ_114-2);}.cls-19{mask:url(#mask-10);filter:url(#luminosity-noclip-15);}.cls-20{fill:url(#_ÂÁ_Ï_ÌÌ_È_ËÂÌÚ_106-7);}.cls-21{mask:url(#mask-11);filter:url(#luminosity-noclip-16);}.cls-22{fill:url(#_ÂÁ_Ï_ÌÌ_È_ËÂÌÚ_106-8);}.cls-23{fill:none;}.cls-24{isolation:isolate;}.cls-25,.cls-34,.cls-37,.cls-39,.cls-42,.cls-43,.cls-53{fill:#2bd978;}.cls-25,.cls-46{mix-blend-mode:lighten;}.cls-26{fill:url(#_ÂÁ_Ï_ÌÌ_È_ËÂÌÚ_4);}.cls-27{fill:#f2f2f0;}.cls-28{fill:#fff;}.cls-29{fill:#0f054c;}.cls-30,.cls-31,.cls-32,.cls-33,.cls-34,.cls-35,.cls-36,.cls-49{opacity:0.5;}.cls-30{fill:url(#_ÂÁ_Ï_ÌÌ_È_ËÂÌÚ_5);}.cls-31{fill:url(#_ÂÁ_Ï_ÌÌ_È_ËÂÌÚ_5-2);}.cls-32{fill:url(#_ÂÁ_Ï_ÌÌ_È_ËÂÌÚ_5-3);}.cls-33{fill:url(#_ÂÁ_Ï_ÌÌ_È_ËÂÌÚ_5-4);}.cls-35{fill:url(#_ÂÁ_Ï_ÌÌ_È_ËÂÌÚ_5-5);}.cls-36{fill:url(#_ÂÁ_Ï_ÌÌ_È_ËÂÌÚ_5-6);}.cls-37{opacity:0.8;}.cls-38{opacity:0.1;}.cls-40{fill:#41e583;}.cls-41{fill:#03002d;}.cls-41,.cls-42,.cls-45{opacity:0.4;}.cls-43{opacity:0.2;}.cls-44{fill:#25bf63;}.cls-44,.cls-53{opacity:0.7;}.cls-45,.cls-46{fill:#42e8e0;}.cls-47{fill:url(#_ÂÁ_Ï_ÌÌ_È_ËÂÌÚ_9);}.cls-48{fill:url(#_ÂÁ_Ï_ÌÌ_È_ËÂÌÚ_8);}.cls-49{fill:url(#_ÂÁ_Ï_ÌÌ_È_ËÂÌÚ_7);}.cls-50{opacity:0.11;}.cls-51{fill:url(#_ÂÁ_Ï_ÌÌ_È_ËÂÌÚ_7-2);}.cls-52{fill:url(#_ÂÁ_Ï_ÌÌ_È_ËÂÌÚ_7-3);}.cls-54{fill:#424240;}.cls-101,.cls-103,.cls-105,.cls-107,.cls-109,.cls-111,.cls-54,.cls-56,.cls-97,.cls-99{opacity:0.66;}.cls-55{mask:url(#mask-12);}.cls-56{fill:url(#_ÂÁ_Ï_ÌÌ_È_ËÂÌÚ_19);}.cls-57{clip-path:url(#clip-path);}.cls-58{fill:url(#_ÂÁ_Ï_ÌÌ_È_ËÂÌÚ_17);}.cls-59{fill:#1e1e1e;}.cls-60{opacity:0.51;}.cls-61{fill:#3a3a3a;}.cls-62{mask:url(#mask-13);}.cls-63,.cls-80{opacity:0.78;}.cls-63{fill:url(#_ÂÁ_Ï_ÌÌ_È_ËÂÌÚ_18);}.cls-64{fill:url(#_ÂÁ_Ï_ÌÌ_È_ËÂÌÚ_17-2);}.cls-65{fill:url(#_ÂÁ_Ï_ÌÌ_È_ËÂÌÚ_17-3);}.cls-66{fill:url(#_ÂÁ_Ï_ÌÌ_È_ËÂÌÚ_16);}.cls-67{fill:#232323;}.cls-68{fill:url(#_ÂÁ_Ï_ÌÌ_È_ËÂÌÚ_16-2);}.cls-69{fill:url(#_ÂÁ_Ï_ÌÌ_È_ËÂÌÚ_16-3);}.cls-70{fill:url(#_ÂÁ_Ï_ÌÌ_È_ËÂÌÚ_16-4);}.cls-71{fill:url(#_ÂÁ_Ï_ÌÌ_È_ËÂÌÚ_16-5);}.cls-72{fill:url(#_ÂÁ_Ï_ÌÌ_È_ËÂÌÚ_17-4);}.cls-73{fill:url(#_ÂÁ_Ï_ÌÌ_È_ËÂÌÚ_16-6);}.cls-74{fill:url(#_ÂÁ_Ï_ÌÌ_È_ËÂÌÚ_17-5);}.cls-75{fill:url(#_ÂÁ_Ï_ÌÌ_È_ËÂÌÚ_16-7);}.cls-76{fill:url(#_ÂÁ_Ï_ÌÌ_È_ËÂÌÚ_17-6);}.cls-77{fill:url(#_ÂÁ_Ï_ÌÌ_È_ËÂÌÚ_16-8);}.cls-78{fill:url(#_ÂÁ_Ï_ÌÌ_È_ËÂÌÚ_17-7);}.cls-79{mask:url(#mask-14);}.cls-80{fill:url(#_ÂÁ_Ï_ÌÌ_È_ËÂÌÚ_18-2);}.cls-81{fill:url(#_ÂÁ_Ï_ÌÌ_È_ËÂÌÚ_17-8);}.cls-82{fill:url(#_ÂÁ_Ï_ÌÌ_È_ËÂÌÚ_17-9);}.cls-83{fill:url(#_ÂÁ_Ï_ÌÌ_È_ËÂÌÚ_16-9);}.cls-84{fill:url(#_ÂÁ_Ï_ÌÌ_È_ËÂÌÚ_16-10);}.cls-85{fill:url(#_ÂÁ_Ï_ÌÌ_È_ËÂÌÚ_16-11);}.cls-86{fill:url(#_ÂÁ_Ï_ÌÌ_È_ËÂÌÚ_16-12);}.cls-87{fill:url(#_ÂÁ_Ï_ÌÌ_È_ËÂÌÚ_16-13);}.cls-88{fill:url(#_ÂÁ_Ï_ÌÌ_È_ËÂÌÚ_17-10);}.cls-89{fill:url(#_ÂÁ_Ï_ÌÌ_È_ËÂÌÚ_16-14);}.cls-90{fill:url(#_ÂÁ_Ï_ÌÌ_È_ËÂÌÚ_17-11);}.cls-91{fill:url(#_ÂÁ_Ï_ÌÌ_È_ËÂÌÚ_16-15);}.cls-92{fill:url(#_ÂÁ_Ï_ÌÌ_È_ËÂÌÚ_17-12);}.cls-93{fill:url(#_ÂÁ_Ï_ÌÌ_È_ËÂÌÚ_16-16);}.cls-94{fill:url(#_ÂÁ_Ï_ÌÌ_È_ËÂÌÚ_17-13);}.cls-95{fill:url(#_ÂÁ_Ï_ÌÌ_È_ËÂÌÚ_16-17);}.cls-96{mask:url(#mask-15);}.cls-97{fill:url(#_ÂÁ_Ï_ÌÌ_È_ËÂÌÚ_10);}.cls-98{mask:url(#mask-16);}.cls-99{fill:url(#_ÂÁ_Ï_ÌÌ_È_ËÂÌÚ_10-2);}.cls-100{mask:url(#mask-17);}.cls-101{fill:url(#_ÂÁ_Ï_ÌÌ_È_ËÂÌÚ_10-3);}.cls-102{mask:url(#mask-18);}.cls-103{fill:url(#_ÂÁ_Ï_ÌÌ_È_ËÂÌÚ_10-4);}.cls-104{mask:url(#mask-19);}.cls-105{fill:url(#_ÂÁ_Ï_ÌÌ_È_ËÂÌÚ_10-5);}.cls-106{mask:url(#mask-20);}.cls-107{fill:url(#_ÂÁ_Ï_ÌÌ_È_ËÂÌÚ_10-6);}.cls-108{mask:url(#mask-21);}.cls-109{fill:url(#_ÂÁ_Ï_ÌÌ_È_ËÂÌÚ_10-7);}.cls-110{mask:url(#mask-22);}.cls-111{fill:url(#_ÂÁ_Ï_ÌÌ_È_ËÂÌÚ_10-8);}.cls-112{filter:url(#luminosity-noclip-11);}.cls-113{filter:url(#luminosity-noclip-10);}.cls-114{filter:url(#luminosity-noclip-8);}.cls-115{filter:url(#luminosity-noclip-7);}.cls-116{filter:url(#luminosity-noclip-6);}.cls-117{filter:url(#luminosity-noclip-5);}.cls-118{filter:url(#luminosity-noclip-4);}.cls-119{filter:url(#luminosity-noclip-3);}.cls-120{filter:url(#luminosity-noclip-2);}.cls-121{filter:url(#luminosity-noclip);}</style><filter id="luminosity-noclip" x="4.06" y="-8354.5" width="132.82" height="32766" filterUnits="userSpaceOnUse" color-interpolation-filters="sRGB"><feFlood flood-color="#fff" result="bg"/><feBlend in="SourceGraphic" in2="bg"/></filter><mask id="mask" x="4.06" y="-8354.5" width="132.82" height="32766" maskUnits="userSpaceOnUse"><g class="cls-121"/></mask><radialGradient id="_ÂÁ_Ï_ÌÌ_È_ËÂÌÚ_117" cx="70.47" cy="274.17" r="54.22" gradientUnits="userSpaceOnUse"><stop offset="0" stop-color="#e6e6e6"/><stop offset="0.1" stop-color="#e0e0e0"/><stop offset="0.23" stop-color="#cdcdcd"/><stop offset="0.39" stop-color="#afafaf"/><stop offset="0.57" stop-color="#868686"/><stop offset="0.75" stop-color="#505050"/><stop offset="0.95" stop-color="#101010"/><stop offset="1"/></radialGradient><filter id="luminosity-noclip-2" x="130.08" y="-8354.5" width="4.62" height="32766" filterUnits="userSpaceOnUse" color-interpolation-filters="sRGB"><feFlood flood-color="#fff" result="bg"/><feBlend in="SourceGraphic" in2="bg"/></filter><mask id="mask-2" x="130.08" y="-8354.5" width="4.62" height="32766" maskUnits="userSpaceOnUse"><g class="cls-120"/></mask><linearGradient id="_ÂÁ_Ï_ÌÌ_È_ËÂÌÚ_106" x1="-690.21" y1="1317.19" x2="-690.21" y2="1286.83" gradientTransform="matrix(0.87, 0.5, 0, 1.15, 730.12, -917.82)" gradientUnits="userSpaceOnUse"><stop offset="0"/><stop offset="0.06" stop-color="#2a2a2a"/><stop offset="0.15" stop-color="#626262"/><stop offset="0.23" stop-color="#929292"/><stop offset="0.31" stop-color="#b6b6b6"/><stop offset="0.39" stop-color="#d1d1d1"/><stop offset="0.45" stop-color="#e0e0e0"/><stop offset="0.51" stop-color="#e6e6e6"/><stop offset="0.55" stop-color="#dedede"/><stop offset="0.62" stop-color="#c9c9c9"/><stop offset="0.71" stop-color="#a7a7a7"/><stop offset="0.8" stop-color="#787878"/><stop offset="0.91" stop-color="#3b3b3b"/><stop offset="1"/></linearGradient><filter id="luminosity-noclip-3" x="138.67" y="-8354.5" width="4.62" height="32766" filterUnits="userSpaceOnUse" color-interpolation-filters="sRGB"><feFlood flood-color="#fff" result="bg"/><feBlend in="SourceGraphic" in2="bg"/></filter><mask id="mask-3" x="138.67" y="-8354.5" width="4.62" height="32766" maskUnits="userSpaceOnUse"><g class="cls-119"/></mask><linearGradient id="_ÂÁ_Ï_ÌÌ_È_ËÂÌÚ_106-2" x1="-680.29" y1="1308.38" x2="-680.29" y2="1293.67" xlink:href="#_ÂÁ_Ï_ÌÌ_È_ËÂÌÚ_106"/><filter id="luminosity-noclip-4" x="23.57" y="-8354.5" width="4.62" height="32766" filterUnits="userSpaceOnUse" color-interpolation-filters="sRGB"><feFlood flood-color="#fff" result="bg"/><feBlend in="SourceGraphic" in2="bg"/></filter><mask id="mask-4" x="23.57" y="-8354.5" width="4.62" height="32766" maskUnits="userSpaceOnUse"><g class="cls-118"/></mask><linearGradient id="_ÂÁ_Ï_ÌÌ_È_ËÂÌÚ_106-3" x1="-1746.71" y1="1792.4" x2="-1746.71" y2="1706.85" gradientTransform="matrix(-0.87, 0.5, 0, 1.15, -1486.77, -917.82)" xlink:href="#_ÂÁ_Ï_ÌÌ_È_ËÂÌÚ_106"/><filter id="luminosity-noclip-5" x="14.9" y="-8354.5" width="4.62" height="32766" filterUnits="userSpaceOnUse" color-interpolation-filters="sRGB"><feFlood flood-color="#fff" result="bg"/><feBlend in="SourceGraphic" in2="bg"/></filter><mask id="mask-5" x="14.9" y="-8354.5" width="4.62" height="32766" maskUnits="userSpaceOnUse"><g class="cls-117"/></mask><linearGradient id="_ÂÁ_Ï_ÌÌ_È_ËÂÌÚ_106-4" x1="-1736.7" y1="1792.4" x2="-1736.7" y2="1719.69" gradientTransform="matrix(-0.87, 0.5, 0, 1.15, -1486.77, -917.82)" xlink:href="#_ÂÁ_Ï_ÌÌ_È_ËÂÌÚ_106"/><filter id="luminosity-noclip-6" x="6.23" y="-8354.5" width="4.62" height="32766" filterUnits="userSpaceOnUse" color-interpolation-filters="sRGB"><feFlood flood-color="#fff" result="bg"/><feBlend in="SourceGraphic" in2="bg"/></filter><mask id="mask-6" x="6.23" y="-8354.5" width="4.62" height="32766" maskUnits="userSpaceOnUse"><g class="cls-116"/></mask><linearGradient id="_ÂÁ_Ï_ÌÌ_È_ËÂÌÚ_106-5" x1="-1726.7" y1="1766" x2="-1726.7" y2="1735.64" gradientTransform="matrix(-0.87, 0.5, 0, 1.15, -1486.77, -917.82)" xlink:href="#_ÂÁ_Ï_ÌÌ_È_ËÂÌÚ_106"/><filter id="luminosity-noclip-7" x="30.09" y="-8354.5" width="40.38" height="32766" filterUnits="userSpaceOnUse" color-interpolation-filters="sRGB"><feFlood flood-color="#fff" result="bg"/><feBlend in="SourceGraphic" in2="bg"/></filter><mask id="mask-7" x="30.09" y="-8354.5" width="40.38" height="32766" maskUnits="userSpaceOnUse"><g class="cls-115"/></mask><linearGradient id="_ÂÁ_Ï_ÌÌ_È_ËÂÌÚ_114" x1="30.09" y1="231.57" x2="70.47" y2="231.57" gradientUnits="userSpaceOnUse"><stop offset="0"/><stop offset="0.05" stop-color="#2f2f2f"/><stop offset="0.1" stop-color="#5a5a5a"/><stop offset="0.15" stop-color="#828282"/><stop offset="0.22" stop-color="#a4a4a4"/><stop offset="0.28" stop-color="silver"/><stop offset="0.36" stop-color="#d7d7d7"/><stop offset="0.44" stop-color="#e9e9e9"/><stop offset="0.54" stop-color="#f6f6f6"/><stop offset="0.68" stop-color="#fdfdfd"/><stop offset="1" stop-color="#fff"/></linearGradient><filter id="luminosity-noclip-8" x="-2.36" y="-8354.5" width="4.62" height="32766" filterUnits="userSpaceOnUse" color-interpolation-filters="sRGB"><feFlood flood-color="#fff" result="bg"/><feBlend in="SourceGraphic" in2="bg"/></filter><mask id="mask-8" x="-2.36" y="-8354.5" width="4.62" height="32766" maskUnits="userSpaceOnUse"><g class="cls-114"/></mask><linearGradient id="_ÂÁ_Ï_ÌÌ_È_ËÂÌÚ_106-6" x1="-1716.78" y1="1757.19" x2="-1716.78" y2="1742.48" gradientTransform="matrix(-0.87, 0.5, 0, 1.15, -1486.77, -917.82)" xlink:href="#_ÂÁ_Ï_ÌÌ_È_ËÂÌÚ_106"/><linearGradient id="_ÂÁ_Ï_ÌÌ_È_ËÂÌÚ_114-2" x1="30.09" y1="108.53" x2="70.47" y2="108.53" xlink:href="#_ÂÁ_Ï_ÌÌ_È_ËÂÌÚ_114"/><filter id="luminosity-noclip-10" x="112.75" y="-8354.5" width="4.62" height="32766" filterUnits="userSpaceOnUse" color-interpolation-filters="sRGB"><feFlood flood-color="#fff" result="bg"/><feBlend in="SourceGraphic" in2="bg"/></filter><mask id="mask-10" x="112.75" y="-8354.5" width="4.62" height="32766" maskUnits="userSpaceOnUse"><g class="cls-113"/></mask><linearGradient id="_ÂÁ_Ï_ÌÌ_È_ËÂÌÚ_106-7" x1="-710.23" y1="1343.59" x2="-710.23" y2="1258.04" xlink:href="#_ÂÁ_Ï_ÌÌ_È_ËÂÌÚ_106"/><filter id="luminosity-noclip-11" x="121.42" y="-8354.5" width="4.62" height="32766" filterUnits="userSpaceOnUse" color-interpolation-filters="sRGB"><feFlood flood-color="#fff" result="bg"/><feBlend in="SourceGraphic" in2="bg"/></filter><mask id="mask-11" x="121.42" y="-8354.5" width="4.62" height="32766" maskUnits="userSpaceOnUse"><g class="cls-112"/></mask><linearGradient id="_ÂÁ_Ï_ÌÌ_È_ËÂÌÚ_106-8" x1="-700.22" y1="1343.59" x2="-700.22" y2="1270.88" xlink:href="#_ÂÁ_Ï_ÌÌ_È_ËÂÌÚ_106"/><linearGradient id="_ÂÁ_Ï_ÌÌ_È_ËÂÌÚ_4" x1="353.13" y1="133.27" x2="560.13" y2="133.27" gradientUnits="userSpaceOnUse"><stop offset="0" stop-color="#424240"/><stop offset="0.11" stop-color="#494947"/><stop offset="0.28" stop-color="#5d5d5b"/><stop offset="0.48" stop-color="#7d7d7b"/><stop offset="0.7" stop-color="#aaaaa8"/><stop offset="0.94" stop-color="#e2e2e0"/><stop offset="1" stop-color="#f2f2f0"/></linearGradient><linearGradient id="_ÂÁ_Ï_ÌÌ_È_ËÂÌÚ_5" x1="411.71" y1="105.3" x2="535.96" y2="105.3" gradientUnits="userSpaceOnUse"><stop offset="0" stop-color="#2bd978"/><stop offset="0.14" stop-color="#2cd476"/><stop offset="0.31" stop-color="#2ec671"/><stop offset="0.49" stop-color="#32ae68"/><stop offset="0.68" stop-color="#378d5c"/><stop offset="0.87" stop-color="#3d634c"/><stop offset="1" stop-color="#424240"/></linearGradient><linearGradient id="_ÂÁ_Ï_ÌÌ_È_ËÂÌÚ_5-2" x1="473.83" y1="82.84" x2="535.96" y2="82.84" xlink:href="#_ÂÁ_Ï_ÌÌ_È_ËÂÌÚ_5"/><linearGradient id="_ÂÁ_Ï_ÌÌ_È_ËÂÌÚ_5-3" x1="411.71" y1="82.84" x2="473.83" y2="82.84" xlink:href="#_ÂÁ_Ï_ÌÌ_È_ËÂÌÚ_5"/><linearGradient id="_ÂÁ_Ï_ÌÌ_È_ËÂÌÚ_5-4" x1="411.71" y1="96.25" x2="535.96" y2="96.25" xlink:href="#_ÂÁ_Ï_ÌÌ_È_ËÂÌÚ_5"/><linearGradient id="_ÂÁ_Ï_ÌÌ_È_ËÂÌÚ_5-5" x1="473.83" y1="118.71" x2="535.96" y2="118.71" xlink:href="#_ÂÁ_Ï_ÌÌ_È_ËÂÌÚ_5"/><linearGradient id="_ÂÁ_Ï_ÌÌ_È_ËÂÌÚ_5-6" x1="411.71" y1="118.71" x2="473.83" y2="118.71" xlink:href="#_ÂÁ_Ï_ÌÌ_È_ËÂÌÚ_5"/><linearGradient id="_ÂÁ_Ï_ÌÌ_È_ËÂÌÚ_9" x1="140.15" y1="274.41" x2="191.66" y2="304.15" gradientUnits="userSpaceOnUse"><stop offset="0" stop-color="#f2f2f0"/><stop offset="0.14" stop-color="#e0e0de"/><stop offset="0.42" stop-color="#b1b1af"/><stop offset="0.82" stop-color="#666664"/><stop offset="1" stop-color="#424240"/></linearGradient><linearGradient id="_ÂÁ_Ï_ÌÌ_È_ËÂÌÚ_8" x1="133.69" y1="285.65" x2="198.61" y2="285.65" gradientUnits="userSpaceOnUse"><stop offset="0" stop-color="#e9e9fd"/><stop offset="0.43" stop-color="#efeff5"/><stop offset="1" stop-color="#f2f2f0"/></linearGradient><linearGradient id="_ÂÁ_Ï_ÌÌ_È_ËÂÌÚ_7" x1="138.74" y1="259.56" x2="191.99" y2="259.56" gradientUnits="userSpaceOnUse"><stop offset="0" stop-color="#424240"/><stop offset="0.13" stop-color="#3d634c"/><stop offset="0.32" stop-color="#378d5c"/><stop offset="0.51" stop-color="#32ae68"/><stop offset="0.69" stop-color="#2ec671"/><stop offset="0.86" stop-color="#2cd476"/><stop offset="1" stop-color="#2bd978"/></linearGradient><linearGradient id="_ÂÁ_Ï_ÌÌ_È_ËÂÌÚ_7-2" x1="138.74" y1="245.89" x2="191.99" y2="245.89" xlink:href="#_ÂÁ_Ï_ÌÌ_È_ËÂÌÚ_7"/><linearGradient id="_ÂÁ_Ï_ÌÌ_È_ËÂÌÚ_7-3" x1="138.74" y1="252.72" x2="191.99" y2="252.72" xlink:href="#_ÂÁ_Ï_ÌÌ_È_ËÂÌÚ_7"/><filter id="luminosity-noclip-12" x="4.06" y="205.68" width="132.82" height="76.69" filterUnits="userSpaceOnUse" color-interpolation-filters="sRGB"><feFlood flood-color="#fff" result="bg"/><feBlend in="SourceGraphic" in2="bg"/></filter><mask id="mask-12" x="4.06" y="205.68" width="132.82" height="76.69" maskUnits="userSpaceOnUse"><g class="cls-1"><path class="cls-2" d="M66,281.42,5.71,246.58c-2.44-1.41-2.14-3.87.68-5.5l59-34c2.82-1.63,7.09-1.81,9.53-.39l60.34,34.84c2.44,1.41,2.14,3.87-.68,5.5l-59,34C72.76,282.65,68.49,282.83,66,281.42Z"/></g></mask><radialGradient id="_ÂÁ_Ï_ÌÌ_È_ËÂÌÚ_19" cx="70.47" cy="274.17" r="54.22" gradientUnits="userSpaceOnUse"><stop offset="0" stop-color="#2bd978"/><stop offset="0.13" stop-color="#2cd376"/><stop offset="0.31" stop-color="#2fc06f"/><stop offset="0.51" stop-color="#33a264"/><stop offset="0.74" stop-color="#3a7954"/><stop offset="0.99" stop-color="#424441"/><stop offset="1" stop-color="#424240"/></radialGradient><clipPath id="clip-path"><path class="cls-23" d="M133.49,13.69l1.74,227.78c2.44,1.41,2.14,3.87-.68,5.5l-59,34c-2.82,1.63-7.09,1.81-9.53.39L5.7,246.58c-2.44-1.41-2.14-3.87.68-5.5L10.73,13.69"/></clipPath><linearGradient id="_ÂÁ_Ï_ÌÌ_È_ËÂÌÚ_17" x1="90.66" y1="319.93" x2="90.66" y2="234.72" gradientUnits="userSpaceOnUse"><stop offset="0" stop-color="#f2f2f0"/><stop offset="0.41" stop-color="#ededec"/><stop offset="0.9" stop-color="#dfdfde"/><stop offset="1" stop-color="#dbdbdb"/></linearGradient><filter id="luminosity-noclip-13" x="30.09" y="213.62" width="40.38" height="35.89" filterUnits="userSpaceOnUse" color-interpolation-filters="sRGB"><feFlood flood-color="#fff" result="bg"/><feBlend in="SourceGraphic" in2="bg"/></filter><mask id="mask-13" x="30.09" y="213.62" width="40.38" height="35.89" maskUnits="userSpaceOnUse"><g class="cls-13"><polygon class="cls-14" points="70.47 249.51 59.86 249.51 30.09 232.32 62.48 213.63 70.47 213.63 70.47 249.51"/></g></mask><linearGradient id="_ÂÁ_Ï_ÌÌ_È_ËÂÌÚ_18" x1="30.09" y1="231.57" x2="70.47" y2="231.57" gradientUnits="userSpaceOnUse"><stop offset="0" stop-color="#dbdbdb"/><stop offset="0.05" stop-color="#bdbdbc"/><stop offset="0.12" stop-color="#9c9c9b"/><stop offset="0.19" stop-color="#80807f"/><stop offset="0.28" stop-color="#696968"/><stop offset="0.37" stop-color="#575756"/><stop offset="0.49" stop-color="#4b4b49"/><stop offset="0.64" stop-color="#444442"/><stop offset="1" stop-color="#424240"/></linearGradient><linearGradient id="_ÂÁ_Ï_ÌÌ_È_ËÂÌÚ_17-2" x1="41.17" y1="230.54" x2="99.77" y2="230.54" xlink:href="#_ÂÁ_Ï_ÌÌ_È_ËÂÌÚ_17"/><linearGradient id="_ÂÁ_Ï_ÌÌ_È_ËÂÌÚ_17-3" x1="88.9" y1="246.63" x2="81.78" y2="234.19" xlink:href="#_ÂÁ_Ï_ÌÌ_È_ËÂÌÚ_17"/><linearGradient id="_ÂÁ_Ï_ÌÌ_È_ËÂÌÚ_16" x1="55.82" y1="240.73" x2="55.82" y2="221.75" gradientUnits="userSpaceOnUse"><stop offset="0" stop-color="#424240"/><stop offset="0.13" stop-color="#474745"/><stop offset="0.28" stop-color="#555553"/><stop offset="0.45" stop-color="#6d6d6b"/><stop offset="0.62" stop-color="#8e8e8c"/><stop offset="0.8" stop-color="#b9b9b7"/><stop offset="0.98" stop-color="#ececea"/><stop offset="1" stop-color="#f2f2f0"/></linearGradient><linearGradient id="_ÂÁ_Ï_ÌÌ_È_ËÂÌÚ_16-2" x1="56.98" y1="226.06" x2="72.15" y2="226.06" xlink:href="#_ÂÁ_Ï_ÌÌ_È_ËÂÌÚ_16"/><linearGradient id="_ÂÁ_Ï_ÌÌ_È_ËÂÌÚ_16-3" x1="60.91" y1="228.32" x2="76.09" y2="228.32" xlink:href="#_ÂÁ_Ï_ÌÌ_È_ËÂÌÚ_16"/><linearGradient id="_ÂÁ_Ï_ÌÌ_È_ËÂÌÚ_16-4" x1="64.85" y1="230.59" x2="80.03" y2="230.59" xlink:href="#_ÂÁ_Ï_ÌÌ_È_ËÂÌÚ_16"/><linearGradient id="_ÂÁ_Ï_ÌÌ_È_ËÂÌÚ_16-5" x1="68.79" y1="232.86" x2="83.96" y2="232.86" xlink:href="#_ÂÁ_Ï_ÌÌ_È_ËÂÌÚ_16"/><linearGradient id="_ÂÁ_Ï_ÌÌ_È_ËÂÌÚ_17-4" x1="64.99" y1="259.01" x2="68.87" y2="259.01" xlink:href="#_ÂÁ_Ï_ÌÌ_È_ËÂÌÚ_17"/><linearGradient id="_ÂÁ_Ï_ÌÌ_È_ËÂÌÚ_16-6" x1="64.51" y1="259.4" x2="67.73" y2="259.4" xlink:href="#_ÂÁ_Ï_ÌÌ_È_ËÂÌÚ_16"/><linearGradient id="_ÂÁ_Ï_ÌÌ_È_ËÂÌÚ_17-5" x1="31.12" y1="238.2" x2="35.01" y2="238.2" xlink:href="#_ÂÁ_Ï_ÌÌ_È_ËÂÌÚ_17"/><linearGradient id="_ÂÁ_Ï_ÌÌ_È_ËÂÌÚ_16-7" x1="30.65" y1="238.6" x2="33.86" y2="238.6" xlink:href="#_ÂÁ_Ï_ÌÌ_È_ËÂÌÚ_16"/><linearGradient id="_ÂÁ_Ï_ÌÌ_È_ËÂÌÚ_17-6" x1="31.12" y1="318.34" x2="35.01" y2="318.34" xlink:href="#_ÂÁ_Ï_ÌÌ_È_ËÂÌÚ_17"/><linearGradient id="_ÂÁ_Ï_ÌÌ_È_ËÂÌÚ_16-8" x1="30.65" y1="318.74" x2="33.86" y2="318.74" xlink:href="#_ÂÁ_Ï_ÌÌ_È_ËÂÌÚ_16"/><linearGradient id="_ÂÁ_Ï_ÌÌ_È_ËÂÌÚ_17-7" x1="90.66" y1="196.89" x2="90.66" y2="111.68" xlink:href="#_ÂÁ_Ï_ÌÌ_È_ËÂÌÚ_17"/><filter id="luminosity-noclip-14" x="30.09" y="90.59" width="40.38" height="35.89" filterUnits="userSpaceOnUse" color-interpolation-filters="sRGB"><feFlood flood-color="#fff" result="bg"/><feBlend in="SourceGraphic" in2="bg"/></filter><mask id="mask-14" x="30.09" y="90.59" width="40.38" height="35.89" maskUnits="userSpaceOnUse"><g class="cls-17"><polygon class="cls-18" points="70.47 126.47 59.86 126.47 30.09 109.29 62.48 90.59 70.47 90.59 70.47 126.47"/></g></mask><linearGradient id="_ÂÁ_Ï_ÌÌ_È_ËÂÌÚ_18-2" x1="30.09" y1="108.53" x2="70.47" y2="108.53" xlink:href="#_ÂÁ_Ï_ÌÌ_È_ËÂÌÚ_18"/><linearGradient id="_ÂÁ_Ï_ÌÌ_È_ËÂÌÚ_17-8" x1="41.17" y1="107.5" x2="99.77" y2="107.5" xlink:href="#_ÂÁ_Ï_ÌÌ_È_ËÂÌÚ_17"/><linearGradient id="_ÂÁ_Ï_ÌÌ_È_ËÂÌÚ_17-9" x1="88.9" y1="123.59" x2="81.78" y2="111.16" xlink:href="#_ÂÁ_Ï_ÌÌ_È_ËÂÌÚ_17"/><linearGradient id="_ÂÁ_Ï_ÌÌ_È_ËÂÌÚ_16-9" x1="55.82" y1="117.69" x2="55.82" y2="98.72" xlink:href="#_ÂÁ_Ï_ÌÌ_È_ËÂÌÚ_16"/><linearGradient id="_ÂÁ_Ï_ÌÌ_È_ËÂÌÚ_16-10" x1="56.98" y1="103.02" x2="72.15" y2="103.02" xlink:href="#_ÂÁ_Ï_ÌÌ_È_ËÂÌÚ_16"/><linearGradient id="_ÂÁ_Ï_ÌÌ_È_ËÂÌÚ_16-11" x1="60.91" y1="105.29" x2="76.09" y2="105.29" xlink:href="#_ÂÁ_Ï_ÌÌ_È_ËÂÌÚ_16"/><linearGradient id="_ÂÁ_Ï_ÌÌ_È_ËÂÌÚ_16-12" x1="64.85" y1="107.55" x2="80.03" y2="107.55" xlink:href="#_ÂÁ_Ï_ÌÌ_È_ËÂÌÚ_16"/><linearGradient id="_ÂÁ_Ï_ÌÌ_È_ËÂÌÚ_16-13" x1="68.79" y1="109.82" x2="83.96" y2="109.82" xlink:href="#_ÂÁ_Ï_ÌÌ_È_ËÂÌÚ_16"/><linearGradient id="_ÂÁ_Ï_ÌÌ_È_ËÂÌÚ_17-10" x1="64.99" y1="135.97" x2="68.87" y2="135.97" xlink:href="#_ÂÁ_Ï_ÌÌ_È_ËÂÌÚ_17"/><linearGradient id="_ÂÁ_Ï_ÌÌ_È_ËÂÌÚ_16-14" x1="64.51" y1="136.37" x2="67.73" y2="136.37" xlink:href="#_ÂÁ_Ï_ÌÌ_È_ËÂÌÚ_16"/><linearGradient id="_ÂÁ_Ï_ÌÌ_È_ËÂÌÚ_17-11" x1="31.12" y1="115.16" x2="35.01" y2="115.16" xlink:href="#_ÂÁ_Ï_ÌÌ_È_ËÂÌÚ_17"/><linearGradient id="_ÂÁ_Ï_ÌÌ_È_ËÂÌÚ_16-15" x1="30.65" y1="115.56" x2="33.86" y2="115.56" xlink:href="#_ÂÁ_Ï_ÌÌ_È_ËÂÌÚ_16"/><linearGradient id="_ÂÁ_Ï_ÌÌ_È_ËÂÌÚ_17-12" x1="64.99" y1="216.11" x2="68.87" y2="216.11" xlink:href="#_ÂÁ_Ï_ÌÌ_È_ËÂÌÚ_17"/><linearGradient id="_ÂÁ_Ï_ÌÌ_È_ËÂÌÚ_16-16" x1="64.51" y1="216.51" x2="67.73" y2="216.51" xlink:href="#_ÂÁ_Ï_ÌÌ_È_ËÂÌÚ_16"/><linearGradient id="_ÂÁ_Ï_ÌÌ_È_ËÂÌÚ_17-13" x1="31.12" y1="195.3" x2="35.01" y2="195.3" xlink:href="#_ÂÁ_Ï_ÌÌ_È_ËÂÌÚ_17"/><linearGradient id="_ÂÁ_Ï_ÌÌ_È_ËÂÌÚ_16-17" x1="30.65" y1="195.7" x2="33.86" y2="195.7" xlink:href="#_ÂÁ_Ï_ÌÌ_È_ËÂÌÚ_16"/><filter id="luminosity-noclip-15" x="112.75" y="179.38" width="4.62" height="99.48" filterUnits="userSpaceOnUse" color-interpolation-filters="sRGB"><feFlood flood-color="#fff" result="bg"/><feBlend in="SourceGraphic" in2="bg"/></filter><mask id="mask-15" x="112.75" y="179.38" width="4.62" height="99.48" maskUnits="userSpaceOnUse"><g class="cls-19"><path class="cls-20" d="M115.22,179.82l-.32-.19c-1.19-.69-2.15,0-2.15,1.63v93a5.15,5.15,0,0,0,2.15,4.11l.32.19c1.19.69,2.15,0,2.15-1.63v-93A5.15,5.15,0,0,0,115.22,179.82Z"/></g></mask><linearGradient id="_ÂÁ_Ï_ÌÌ_È_ËÂÌÚ_10" x1="-710.23" y1="1343.59" x2="-710.23" y2="1258.04" gradientTransform="matrix(0.87, 0.5, 0, 1.15, 730.12, -917.82)" gradientUnits="userSpaceOnUse"><stop offset="0" stop-color="#424240"/><stop offset="0.04" stop-color="#3f5647"/><stop offset="0.15" stop-color="#388559"/><stop offset="0.26" stop-color="#32a966"/><stop offset="0.35" stop-color="#2ec470"/><stop offset="0.44" stop-color="#2cd376"/><stop offset="0.51" stop-color="#2bd978"/><stop offset="0.57" stop-color="#2cd175"/><stop offset="0.66" stop-color="#2fbd6d"/><stop offset="0.77" stop-color="#359a61"/><stop offset="0.9" stop-color="#3c6b4f"/><stop offset="1" stop-color="#424240"/></linearGradient><filter id="luminosity-noclip-16" x="121.42" y="199.21" width="4.62" height="84.66" filterUnits="userSpaceOnUse" color-interpolation-filters="sRGB"><feFlood flood-color="#fff" result="bg"/><feBlend in="SourceGraphic" in2="bg"/></filter><mask id="mask-16" x="121.42" y="199.21" width="4.62" height="84.66" maskUnits="userSpaceOnUse"><g class="cls-21"><path class="cls-22" d="M123.89,199.65l-.32-.19c-1.19-.69-2.15,0-2.15,1.63v78.22a5.15,5.15,0,0,0,2.15,4.11l.32.19c1.19.69,2.15,0,2.15-1.63V203.76A5.15,5.15,0,0,0,123.89,199.65Z"/></g></mask><linearGradient id="_ÂÁ_Ï_ÌÌ_È_ËÂÌÚ_10-2" x1="-700.22" y1="1343.59" x2="-700.22" y2="1270.88" xlink:href="#_ÂÁ_Ï_ÌÌ_È_ËÂÌÚ_10"/><filter id="luminosity-noclip-17" x="130.08" y="222.63" width="4.62" height="35.75" filterUnits="userSpaceOnUse" color-interpolation-filters="sRGB"><feFlood flood-color="#fff" result="bg"/><feBlend in="SourceGraphic" in2="bg"/></filter><mask id="mask-17" x="130.08" y="222.63" width="4.62" height="35.75" maskUnits="userSpaceOnUse"><g class="cls-3"><path class="cls-4" d="M132.56,223.07l-.32-.19c-1.19-.69-2.15,0-2.15,1.63v29.31a5.15,5.15,0,0,0,2.15,4.11l.32.19c1.19.69,2.15,0,2.15-1.63V227.18A5.15,5.15,0,0,0,132.56,223.07Z"/></g></mask><linearGradient id="_ÂÁ_Ï_ÌÌ_È_ËÂÌÚ_10-3" x1="-690.21" y1="1317.19" x2="-690.21" y2="1286.83" xlink:href="#_ÂÁ_Ï_ÌÌ_È_ËÂÌÚ_10"/><filter id="luminosity-noclip-18" x="138.67" y="235.48" width="4.62" height="17.68" filterUnits="userSpaceOnUse" color-interpolation-filters="sRGB"><feFlood flood-color="#fff" result="bg"/><feBlend in="SourceGraphic" in2="bg"/></filter><mask id="mask-18" x="138.67" y="235.48" width="4.62" height="17.68" maskUnits="userSpaceOnUse"><g class="cls-5"><path class="cls-6" d="M141.15,235.93l-.32-.19c-1.19-.69-2.15,0-2.15,1.63v11.24a5.15,5.15,0,0,0,2.15,4.11l.32.19c1.19.69,2.15,0,2.15-1.63V240A5.15,5.15,0,0,0,141.15,235.93Z"/></g></mask><linearGradient id="_ÂÁ_Ï_ÌÌ_È_ËÂÌÚ_10-4" x1="-680.29" y1="1308.38" x2="-680.29" y2="1293.67" xlink:href="#_ÂÁ_Ï_ÌÌ_È_ËÂÌÚ_10"/><filter id="luminosity-noclip-19" x="23.57" y="179.38" width="4.62" height="99.48" filterUnits="userSpaceOnUse" color-interpolation-filters="sRGB"><feFlood flood-color="#fff" result="bg"/><feBlend in="SourceGraphic" in2="bg"/></filter><mask id="mask-19" x="23.57" y="179.38" width="4.62" height="99.48" maskUnits="userSpaceOnUse"><g class="cls-7"><path class="cls-8" d="M25.72,179.82l.32-.19c1.19-.69,2.15,0,2.15,1.63v93A5.15,5.15,0,0,1,26,278.42l-.32.19c-1.19.69-2.15,0-2.15-1.63v-93A5.15,5.15,0,0,1,25.72,179.82Z"/></g></mask><linearGradient id="_ÂÁ_Ï_ÌÌ_È_ËÂÌÚ_10-5" x1="-1746.71" y1="1792.4" x2="-1746.71" y2="1706.85" gradientTransform="matrix(-0.87, 0.5, 0, 1.15, -1486.77, -917.82)" xlink:href="#_ÂÁ_Ï_ÌÌ_È_ËÂÌÚ_10"/><filter id="luminosity-noclip-20" x="14.9" y="199.21" width="4.62" height="84.66" filterUnits="userSpaceOnUse" color-interpolation-filters="sRGB"><feFlood flood-color="#fff" result="bg"/><feBlend in="SourceGraphic" in2="bg"/></filter><mask id="mask-20" x="14.9" y="199.21" width="4.62" height="84.66" maskUnits="userSpaceOnUse"><g class="cls-9"><path class="cls-10" d="M17.05,199.65l.32-.19c1.19-.69,2.15,0,2.15,1.63v78.22a5.15,5.15,0,0,1-2.15,4.11l-.32.19c-1.19.69-2.15,0-2.15-1.63V203.76A5.15,5.15,0,0,1,17.05,199.65Z"/></g></mask><linearGradient id="_ÂÁ_Ï_ÌÌ_È_ËÂÌÚ_10-6" x1="-1736.7" y1="1792.4" x2="-1736.7" y2="1719.69" gradientTransform="matrix(-0.87, 0.5, 0, 1.15, -1486.77, -917.82)" xlink:href="#_ÂÁ_Ï_ÌÌ_È_ËÂÌÚ_10"/><filter id="luminosity-noclip-21" x="6.23" y="222.63" width="4.62" height="35.75" filterUnits="userSpaceOnUse" color-interpolation-filters="sRGB"><feFlood flood-color="#fff" result="bg"/><feBlend in="SourceGraphic" in2="bg"/></filter><mask id="mask-21" x="6.23" y="222.63" width="4.62" height="35.75" maskUnits="userSpaceOnUse"><g class="cls-11"><path class="cls-12" d="M8.38,223.07l.32-.19c1.19-.69,2.15,0,2.15,1.63v29.31a5.15,5.15,0,0,1-2.15,4.11l-.32.19c-1.19.69-2.15,0-2.15-1.63V227.18A5.15,5.15,0,0,1,8.38,223.07Z"/></g></mask><linearGradient id="_ÂÁ_Ï_ÌÌ_È_ËÂÌÚ_10-7" x1="-1726.7" y1="1766" x2="-1726.7" y2="1735.64" gradientTransform="matrix(-0.87, 0.5, 0, 1.15, -1486.77, -917.82)" xlink:href="#_ÂÁ_Ï_ÌÌ_È_ËÂÌÚ_10"/><filter id="luminosity-noclip-22" x="-2.36" y="235.48" width="4.62" height="17.68" filterUnits="userSpaceOnUse" color-interpolation-filters="sRGB"><feFlood flood-color="#fff" result="bg"/><feBlend in="SourceGraphic" in2="bg"/></filter><mask id="mask-22" x="-2.36" y="235.48" width="4.62" height="17.68" maskUnits="userSpaceOnUse"><g class="cls-15"><path class="cls-16" d="M-.21,235.93l.32-.19c1.19-.69,2.15,0,2.15,1.63v11.24a5.15,5.15,0,0,1-2.15,4.11l-.32.19c-1.19.69-2.15,0-2.15-1.63V240A5.15,5.15,0,0,1-.21,235.93Z"/></g></mask><linearGradient id="_ÂÁ_Ï_ÌÌ_È_ËÂÌÚ_10-8" x1="-1716.78" y1="1757.19" x2="-1716.78" y2="1742.48" gradientTransform="matrix(-0.87, 0.5, 0, 1.15, -1486.77, -917.82)" xlink:href="#_ÂÁ_Ï_ÌÌ_È_ËÂÌÚ_10"/></defs><title>data-to-ai</title><g class="cls-24"><g id="Layer_1" data-name="Layer 1"><path class="cls-25" d="M465.42,65.05a3,3,0,0,1-1.51-.46l-10.51-6.07.16-.27,10.51,6.07a1.79,1.79,0,0,0,3-1.71V60.08a2.1,2.1,0,0,1,3.43-2l2.2,1.27-.16.27-2.2-1.27a1.79,1.79,0,0,0-3,1.71v2.53a2.39,2.39,0,0,1-1,2.21A1.81,1.81,0,0,1,465.42,65.05Z"/><path class="cls-25" d="M461.34,67.4a3,3,0,0,1-1.51-.46l-10.51-6.07.16-.27L460,66.67a1.79,1.79,0,0,0,3-1.71V62.43a2.1,2.1,0,0,1,3.43-2l2.2,1.27-.16.27-2.2-1.27a1.79,1.79,0,0,0-3,1.71V65a2.39,2.39,0,0,1-1,2.21A1.79,1.79,0,0,1,461.34,67.4Z"/><path class="cls-25" d="M457.25,69.76a3.05,3.05,0,0,1-1.51-.46l-10.51-6.07.16-.27L455.9,69a1.79,1.79,0,0,0,3-1.71V64.78a2.1,2.1,0,0,1,3.43-2l2.2,1.27-.16.27-2.2-1.27a1.79,1.79,0,0,0-3,1.71v2.54a2.39,2.39,0,0,1-1,2.2A1.8,1.8,0,0,1,457.25,69.76Z"/><path class="cls-25" d="M453.16,72.11a3.05,3.05,0,0,1-1.51-.46l-10.51-6.07.16-.27,10.51,6.07a1.79,1.79,0,0,0,3-1.71V67.13a2.1,2.1,0,0,1,3.43-2l2.2,1.27-.16.27L458,65.43a1.79,1.79,0,0,0-3,1.71v2.54a2.39,2.39,0,0,1-1,2.2A1.79,1.79,0,0,1,453.16,72.11Z"/><path class="cls-25" d="M449.07,74.46a3.05,3.05,0,0,1-1.51-.46l-10.51-6.07.16-.27,10.51,6.07a1.79,1.79,0,0,0,3-1.71V69.49a2.1,2.1,0,0,1,3.43-2l2.2,1.27-.16.27L454,67.78a1.79,1.79,0,0,0-3,1.71V72a2.39,2.39,0,0,1-1,2.2A1.8,1.8,0,0,1,449.07,74.46Z"/><path class="cls-25" d="M445,76.81a3.06,3.06,0,0,1-1.5-.46L433,70.28l.16-.27,10.51,6.07a1.79,1.79,0,0,0,3-1.71V71.84a2.1,2.1,0,0,1,3.43-2l2.2,1.27-.16.27-2.2-1.27a1.79,1.79,0,0,0-3,1.71v2.54a2.39,2.39,0,0,1-1,2.2A1.8,1.8,0,0,1,445,76.81Z"/><path class="cls-25" d="M440.89,79.16a3.06,3.06,0,0,1-1.51-.46l-10.51-6.07.16-.27,10.51,6.07a1.79,1.79,0,0,0,3-1.71V74.19a2.1,2.1,0,0,1,3.43-2l2.2,1.27-.16.27-2.2-1.27a1.79,1.79,0,0,0-3,1.71v2.54a2.39,2.39,0,0,1-1,2.2A1.8,1.8,0,0,1,440.89,79.16Z"/><path class="cls-25" d="M436.81,81.52a3.06,3.06,0,0,1-1.5-.46L424.79,75l.16-.27,10.51,6.07a1.79,1.79,0,0,0,3-1.71V76.54a2.1,2.1,0,0,1,3.43-2l2.2,1.27-.16.27-2.2-1.27a1.79,1.79,0,0,0-3,1.71v2.53a2.39,2.39,0,0,1-1,2.2A1.8,1.8,0,0,1,436.81,81.52Z"/><path class="cls-25" d="M432.72,83.87a3,3,0,0,1-1.51-.46L420.7,77.34l.16-.27,10.51,6.07a1.79,1.79,0,0,0,3-1.71V78.89a2.1,2.1,0,0,1,3.43-2l2.2,1.27-.16.27-2.2-1.27a1.79,1.79,0,0,0-3,1.71v2.53a2.39,2.39,0,0,1-1,2.21A1.81,1.81,0,0,1,432.72,83.87Z"/><path class="cls-25" d="M428.63,86.22a3,3,0,0,1-1.51-.46l-10.51-6.07.16-.27,10.51,6.07a1.79,1.79,0,0,0,3-1.71V81.24a2.1,2.1,0,0,1,3.43-2l2.2,1.27-.16.27-2.2-1.27a1.79,1.79,0,0,0-3,1.71v2.53a2.39,2.39,0,0,1-1,2.21A1.79,1.79,0,0,1,428.63,86.22Z"/><path class="cls-25" d="M424.54,88.57a3.05,3.05,0,0,1-1.51-.46L412.53,82l.16-.27,10.51,6.07a1.79,1.79,0,0,0,3-1.71V83.6a2.1,2.1,0,0,1,3.43-2l2.2,1.27-.16.27-2.2-1.27a1.79,1.79,0,0,0-3,1.71v2.54a2.39,2.39,0,0,1-1,2.2A1.8,1.8,0,0,1,424.54,88.57Z"/><path class="cls-25" d="M420.45,90.92a3,3,0,0,1-1.51-.46l-10.51-6.07.16-.27,10.51,6.07a1.79,1.79,0,0,0,3-1.71V85.95a2.1,2.1,0,0,1,3.43-2l2.2,1.27-.16.27-2.2-1.27a1.79,1.79,0,0,0-3,1.71v2.54a2.39,2.39,0,0,1-1,2.2A1.79,1.79,0,0,1,420.45,90.92Z"/><path class="cls-25" d="M416.37,93.27a3.06,3.06,0,0,1-1.51-.46l-10.51-6.07.16-.27L415,92.54a1.79,1.79,0,0,0,3-1.71V88.3a2.1,2.1,0,0,1,3.43-2l2.2,1.27-.16.27-2.2-1.27a1.79,1.79,0,0,0-3,1.71v2.54a2.39,2.39,0,0,1-1,2.2A1.8,1.8,0,0,1,416.37,93.27Z"/><path class="cls-25" d="M412.28,95.63a3.06,3.06,0,0,1-1.51-.46L400.26,89.1l.16-.27,10.51,6.07a1.79,1.79,0,0,0,3-1.71V90.65a2.1,2.1,0,0,1,3.43-2l2.2,1.27-.16.27-2.2-1.27a1.79,1.79,0,0,0-3,1.71v2.54a2.39,2.39,0,0,1-1,2.2A1.8,1.8,0,0,1,412.28,95.63Z"/><path class="cls-25" d="M408.19,98a3.06,3.06,0,0,1-1.51-.46l-10.51-6.07.16-.27,10.51,6.07a1.79,1.79,0,0,0,3-1.71V93a2.1,2.1,0,0,1,3.43-2l2.2,1.27-.16.27-2.2-1.27a1.79,1.79,0,0,0-3,1.71v2.54a2.39,2.39,0,0,1-1,2.2A1.8,1.8,0,0,1,408.19,98Z"/><path class="cls-25" d="M404.1,100.33a3,3,0,0,1-1.51-.46L392.09,93.8l.16-.27,10.51,6.07a1.79,1.79,0,0,0,3-1.71V95.36a2.1,2.1,0,0,1,3.43-2l2.2,1.27-.16.27L409,93.65a1.79,1.79,0,0,0-3,1.71v2.53a2.39,2.39,0,0,1-1,2.21A1.8,1.8,0,0,1,404.1,100.33Z"/><path class="cls-25" d="M400,102.68a3,3,0,0,1-1.51-.46L388,96.15l.16-.27,10.51,6.07a1.79,1.79,0,0,0,3-1.71V97.71a2.1,2.1,0,0,1,3.43-2l2.2,1.27-.16.27L404.89,96a1.79,1.79,0,0,0-3,1.71v2.53a2.39,2.39,0,0,1-1,2.2A1.8,1.8,0,0,1,400,102.68Z"/><path class="cls-25" d="M395.93,105a3.05,3.05,0,0,1-1.51-.46L383.91,98.5l.16-.27,10.51,6.07a1.79,1.79,0,0,0,3-1.71v-2.54a2.1,2.1,0,0,1,3.43-2l2.2,1.27-.16.27-2.2-1.27a1.79,1.79,0,0,0-3,1.71v2.54a2.39,2.39,0,0,1-1,2.2A1.79,1.79,0,0,1,395.93,105Z"/><path class="cls-25" d="M391.84,107.38a3.05,3.05,0,0,1-1.51-.46l-10.51-6.07.16-.27,10.51,6.07a1.79,1.79,0,0,0,3-1.71v-2.54a2.1,2.1,0,0,1,3.43-2l2.2,1.27-.16.27-2.2-1.27a1.79,1.79,0,0,0-3,1.71v2.54a2.39,2.39,0,0,1-1,2.2A1.8,1.8,0,0,1,391.84,107.38Z"/><path class="cls-25" d="M387.75,109.73a3.05,3.05,0,0,1-1.51-.46l-10.51-6.07.16-.27L386.4,109a1.79,1.79,0,0,0,3-1.71v-2.54a2.1,2.1,0,0,1,3.43-2L395,104l-.16.27-2.2-1.27a1.79,1.79,0,0,0-3,1.71v2.54a2.39,2.39,0,0,1-1,2.2A1.79,1.79,0,0,1,387.75,109.73Z"/><path class="cls-25" d="M482.18,65.25a1.8,1.8,0,0,1-.91-.24,2.39,2.39,0,0,1-1-2.2V60.27a1.79,1.79,0,0,0-3-1.71l-2.2,1.27-.16-.27,2.2-1.27a2.1,2.1,0,0,1,3.43,2v2.54a1.79,1.79,0,0,0,3,1.71L494,58.44l.16.27-10.51,6.07A3.06,3.06,0,0,1,482.18,65.25Z"/><path class="cls-25" d="M486.26,67.6a1.8,1.8,0,0,1-.91-.24,2.39,2.39,0,0,1-1-2.2V62.62a1.79,1.79,0,0,0-3-1.71l-2.2,1.27-.16-.27,2.2-1.27a2.1,2.1,0,0,1,3.43,2v2.54a1.79,1.79,0,0,0,3,1.71l10.51-6.07.16.27-10.51,6.07A3.06,3.06,0,0,1,486.26,67.6Z"/><path class="cls-25" d="M490.35,69.95a1.8,1.8,0,0,1-.91-.24,2.39,2.39,0,0,1-1-2.2V65a1.79,1.79,0,0,0-3-1.71l-2.2,1.27-.16-.27,2.2-1.27a2.1,2.1,0,0,1,3.43,2v2.53a1.79,1.79,0,0,0,3,1.71l10.51-6.07.16.27-10.51,6.07A3.06,3.06,0,0,1,490.35,69.95Z"/><path class="cls-25" d="M494.44,72.3a1.8,1.8,0,0,1-.91-.23,2.39,2.39,0,0,1-1-2.21V67.33a1.79,1.79,0,0,0-3-1.71l-2.2,1.27-.16-.27,2.2-1.27a2.1,2.1,0,0,1,3.43,2v2.53a1.79,1.79,0,0,0,3,1.71L506.3,65.5l.16.27-10.51,6.07A3,3,0,0,1,494.44,72.3Z"/><path class="cls-25" d="M498.53,74.65a1.79,1.79,0,0,1-.91-.23,2.39,2.39,0,0,1-1-2.21V69.68a1.79,1.79,0,0,0-3-1.71l-2.2,1.27-.16-.27,2.2-1.27a2.1,2.1,0,0,1,3.43,2v2.53a1.79,1.79,0,0,0,3,1.71l10.51-6.07.16.27L500,74.19A3.05,3.05,0,0,1,498.53,74.65Z"/><path class="cls-25" d="M502.62,77a1.79,1.79,0,0,1-.91-.23,2.39,2.39,0,0,1-1-2.2V72a1.79,1.79,0,0,0-3-1.71l-2.2,1.27-.16-.27,2.2-1.27A2.1,2.1,0,0,1,501,72v2.54a1.79,1.79,0,0,0,3,1.71l10.51-6.07.16.27-10.51,6.07A3.05,3.05,0,0,1,502.62,77Z"/><path class="cls-25" d="M506.7,79.36a1.79,1.79,0,0,1-.91-.23,2.39,2.39,0,0,1-1-2.2V74.38a1.79,1.79,0,0,0-3-1.71l-2.2,1.27-.16-.27,2.2-1.27a2.1,2.1,0,0,1,3.43,2v2.54a1.79,1.79,0,0,0,3,1.71l10.51-6.07.16.27L508.21,78.9A3.05,3.05,0,0,1,506.7,79.36Z"/><path class="cls-25" d="M510.79,81.71a1.8,1.8,0,0,1-.91-.24,2.39,2.39,0,0,1-1-2.2V76.73a1.79,1.79,0,0,0-3-1.71l-2.2,1.27-.16-.27,2.2-1.27a2.1,2.1,0,0,1,3.43,2v2.54a1.79,1.79,0,0,0,3,1.71l10.51-6.07.16.27L512.3,81.25A3.06,3.06,0,0,1,510.79,81.71Z"/><path class="cls-25" d="M514.88,84.06a1.8,1.8,0,0,1-.91-.24,2.39,2.39,0,0,1-1-2.2V79.08a1.79,1.79,0,0,0-3-1.71l-2.2,1.27-.16-.27,2.2-1.27a2.1,2.1,0,0,1,3.43,2v2.54a1.79,1.79,0,0,0,3,1.71l10.19-5.86.16.27L516.39,83.6A3.06,3.06,0,0,1,514.88,84.06Z"/><path class="cls-25" d="M519,86.41a1.79,1.79,0,0,1-.91-.24,2.39,2.39,0,0,1-1-2.2V81.44a1.79,1.79,0,0,0-3-1.71L511.89,81l-.16-.27,2.2-1.27a2.1,2.1,0,0,1,3.43,2V84a1.79,1.79,0,0,0,3,1.71l10.19-5.86.16.27L520.47,86A3.06,3.06,0,0,1,519,86.41Z"/><path class="cls-25" d="M523.06,88.76a1.8,1.8,0,0,1-.91-.24,2.39,2.39,0,0,1-1-2.2V83.79a1.79,1.79,0,0,0-3-1.71L516,83.35l-.16-.27,2.2-1.27a2.1,2.1,0,0,1,3.43,2v2.53a1.79,1.79,0,0,0,3,1.71l10.19-5.86.16.27L524.56,88.3A3.06,3.06,0,0,1,523.06,88.76Z"/><path class="cls-25" d="M527.14,91.11a1.8,1.8,0,0,1-.91-.23,2.39,2.39,0,0,1-1-2.21V86.14a1.79,1.79,0,0,0-3-1.71l-2.2,1.27-.16-.27,2.2-1.27a2.1,2.1,0,0,1,3.43,2v2.53a1.79,1.79,0,0,0,3,1.71l10.19-5.86.16.27-10.19,5.86A3,3,0,0,1,527.14,91.11Z"/><path class="cls-25" d="M531.23,93.47a1.79,1.79,0,0,1-.91-.23,2.39,2.39,0,0,1-1-2.21V88.49a1.79,1.79,0,0,0-3-1.71l-2.2,1.27-.16-.27,2.2-1.27a2.1,2.1,0,0,1,3.43,2V91a1.79,1.79,0,0,0,3,1.71l10.51-6.07.16.27L532.74,93A3.05,3.05,0,0,1,531.23,93.47Z"/><path class="cls-25" d="M535.32,95.82a1.79,1.79,0,0,1-.91-.23,2.39,2.39,0,0,1-1-2.2V90.84a1.79,1.79,0,0,0-3-1.71l-2.2,1.27-.16-.27,2.2-1.27a2.1,2.1,0,0,1,3.43,2v2.54a1.79,1.79,0,0,0,3,1.71L547.18,89l.16.27-10.51,6.07A3.05,3.05,0,0,1,535.32,95.82Z"/><path class="cls-25" d="M539.41,98.17a1.8,1.8,0,0,1-.91-.23,2.39,2.39,0,0,1-1-2.2V93.19a1.79,1.79,0,0,0-3-1.71l-2.2,1.27-.16-.27,2.2-1.27a2.1,2.1,0,0,1,3.43,2v2.54a1.79,1.79,0,0,0,3,1.71l10.51-6.07.16.27-10.51,6.07A3.05,3.05,0,0,1,539.41,98.17Z"/><path class="cls-25" d="M543.5,100.52a1.8,1.8,0,0,1-.91-.24,2.39,2.39,0,0,1-1-2.2V95.55a1.79,1.79,0,0,0-3-1.71l-2.2,1.27-.16-.27,2.2-1.27a2.1,2.1,0,0,1,3.43,2v2.54a1.79,1.79,0,0,0,3,1.71l10.51-6.07.16.27L545,100.06A3.06,3.06,0,0,1,543.5,100.52Z"/><path class="cls-25" d="M547.59,102.87a1.8,1.8,0,0,1-.91-.24,2.39,2.39,0,0,1-1-2.2V97.9a1.79,1.79,0,0,0-3-1.71l-2.2,1.27-.16-.27,2.2-1.27a2.1,2.1,0,0,1,3.43,2v2.54a1.79,1.79,0,0,0,3,1.71l10.51-6.07.16.27-10.51,6.07A3.06,3.06,0,0,1,547.59,102.87Z"/><path class="cls-25" d="M551.67,105.22a1.8,1.8,0,0,1-.91-.24,2.39,2.39,0,0,1-1-2.2v-2.53a1.79,1.79,0,0,0-3-1.71l-2.2,1.27-.16-.27,2.2-1.27a2.1,2.1,0,0,1,3.43,2v2.53a1.79,1.79,0,0,0,3,1.71l10.51-6.07.16.27-10.51,6.07A3.06,3.06,0,0,1,551.67,105.22Z"/><path class="cls-25" d="M555.76,107.58a1.8,1.8,0,0,1-.91-.23,2.39,2.39,0,0,1-1-2.2V102.6a1.79,1.79,0,0,0-3-1.71l-2.2,1.27-.16-.27,2.2-1.27a2.1,2.1,0,0,1,3.43,2v2.53a1.79,1.79,0,0,0,3,1.71l10.51-6.07.16.27-10.51,6.07A3,3,0,0,1,555.76,107.58Z"/><path class="cls-25" d="M559.85,109.93a1.79,1.79,0,0,1-.91-.23,2.39,2.39,0,0,1-1-2.21V105a1.79,1.79,0,0,0-3-1.71l-2.2,1.27-.16-.27,2.2-1.27a2.1,2.1,0,0,1,3.43,2v2.53a1.79,1.79,0,0,0,3,1.71l10.51-6.07.16.27-10.51,6.07A3.05,3.05,0,0,1,559.85,109.93Z"/><polygon class="cls-26" points="554.6 105.29 554.6 114.62 473.83 161.25 393.06 114.62 393.06 105.29 554.6 105.29"/><polygon class="cls-27" points="473.83 151.92 393.06 105.29 473.83 58.66 554.6 105.29 473.83 151.92"/><polygon class="cls-28" points="473.83 150.83 394.01 104.74 393.06 105.29 473.83 151.92 554.6 105.29 553.66 104.74 473.83 150.83"/><polygon class="cls-29" points="473.83 141.16 411.71 105.3 473.83 69.43 535.95 105.3 473.83 141.16"/><polygon class="cls-30" points="473.83 141.16 411.71 105.3 473.83 69.43 535.96 105.3 473.83 141.16"/><polygon class="cls-31" points="473.83 60.39 535.96 96.25 535.96 105.3 473.83 69.43 473.83 60.39"/><polygon class="cls-32" points="473.83 69.43 411.71 105.3 411.71 96.25 473.83 60.39 473.83 69.43"/><polygon class="cls-33" points="473.83 132.12 411.71 96.25 473.83 60.39 535.96 96.25 473.83 132.12"/><polygon class="cls-34" points="473.83 110.58 449.01 96.25 473.83 81.92 498.66 96.25 473.83 110.58"/><polygon class="cls-34" points="473.83 83.24 497.51 96.91 498.66 96.25 473.83 81.92 449.01 96.25 450.15 96.91 473.83 83.24"/><polygon class="cls-35" points="473.83 132.12 473.83 141.16 535.96 105.3 535.96 96.25 473.83 132.12"/><polygon class="cls-36" points="411.71 96.25 411.71 105.3 473.83 141.16 473.83 132.12 411.71 96.25"/><polygon class="cls-37" points="473.83 131.13 412.57 95.76 411.71 96.25 473.83 132.12 535.96 96.25 535.1 95.76 473.83 131.13"/><path class="cls-25" d="M494,172.22l-10.51-6.07a7.24,7.24,0,0,1-3.27-5.67v-2.54a6.89,6.89,0,0,0-3.11-5.39l-2.2-1.27.16-.27,2.2,1.27a7.24,7.24,0,0,1,3.27,5.67v2.54a6.89,6.89,0,0,0,3.11,5.39l10.51,6.07Z"/><path class="cls-25" d="M498.12,169.86l-10.51-6.07a7.24,7.24,0,0,1-3.27-5.67v-2.54a6.89,6.89,0,0,0-3.11-5.39l-2.2-1.27.16-.27,2.2,1.27a7.24,7.24,0,0,1,3.27,5.67v2.54a6.89,6.89,0,0,0,3.11,5.39l10.51,6.07Z"/><path class="cls-25" d="M502.21,167.51l-10.51-6.07a7.24,7.24,0,0,1-3.27-5.67v-2.53a6.9,6.9,0,0,0-3.11-5.39l-2.2-1.27.16-.27,2.2,1.27a7.24,7.24,0,0,1,3.27,5.67v2.53a6.9,6.9,0,0,0,3.11,5.39l10.51,6.07Z"/><path class="cls-25" d="M506.3,165.15l-10.51-6.07a7.24,7.24,0,0,1-3.27-5.67v-2.54a6.89,6.89,0,0,0-3.11-5.39l-2.2-1.27.16-.27,2.2,1.27a7.24,7.24,0,0,1,3.27,5.67v2.54a6.89,6.89,0,0,0,3.11,5.39l10.51,6.07Z"/><path class="cls-25" d="M510.39,162.79l-10.51-6.07a7.24,7.24,0,0,1-3.27-5.67v-2.54a6.89,6.89,0,0,0-3.11-5.39l-2.2-1.27.16-.27,2.2,1.27a7.24,7.24,0,0,1,3.27,5.67v2.54a6.89,6.89,0,0,0,3.11,5.39l10.51,6.07Z"/><path class="cls-25" d="M514.47,160.44,504,154.37a7.24,7.24,0,0,1-3.27-5.67v-2.53a6.9,6.9,0,0,0-3.11-5.39l-2.2-1.27.16-.27,2.2,1.27a7.24,7.24,0,0,1,3.27,5.67v2.53a6.9,6.9,0,0,0,3.11,5.39l10.51,6.07Z"/><path class="cls-25" d="M518.56,158.08,508.05,152a7.24,7.24,0,0,1-3.27-5.67v-2.54a6.9,6.9,0,0,0-3.11-5.39l-2.2-1.27.16-.27,2.2,1.27a7.24,7.24,0,0,1,3.27,5.67v2.54a6.89,6.89,0,0,0,3.11,5.39l10.51,6.07Z"/><path class="cls-25" d="M522.65,155.73l-10.51-6.07a7.24,7.24,0,0,1-3.27-5.67v-2.54a6.89,6.89,0,0,0-3.11-5.39l-2.2-1.27.16-.27,2.2,1.27a7.24,7.24,0,0,1,3.27,5.67V144a6.89,6.89,0,0,0,3.11,5.39l10.51,6.07Z"/><path class="cls-25" d="M526.74,153.37l-10.51-6.07a7.24,7.24,0,0,1-3.27-5.67V139.1a6.9,6.9,0,0,0-3.11-5.39l-2.2-1.27.16-.27,2.2,1.27a7.24,7.24,0,0,1,3.27,5.67v2.53a6.9,6.9,0,0,0,3.11,5.39l10.51,6.07Z"/><path class="cls-25" d="M530.83,151l-10.51-6.07a7.24,7.24,0,0,1-3.27-5.67v-2.54a6.89,6.89,0,0,0-3.11-5.39l-2.2-1.27.16-.27,2.2,1.27a7.24,7.24,0,0,1,3.27,5.67v2.54a6.89,6.89,0,0,0,3.11,5.39L531,150.74Z"/><path class="cls-25" d="M534.91,148.66l-10.51-6.07a7.24,7.24,0,0,1-3.27-5.67v-2.54A6.89,6.89,0,0,0,518,129l-2.2-1.27.16-.27,2.2,1.27a7.24,7.24,0,0,1,3.27,5.67v2.54a6.89,6.89,0,0,0,3.11,5.39l10.51,6.07Z"/><path class="cls-25" d="M539,146.3l-10.51-6.07a7.24,7.24,0,0,1-3.27-5.67V132a6.9,6.9,0,0,0-3.11-5.39l-2.2-1.27.16-.27,2.2,1.27a7.24,7.24,0,0,1,3.27,5.67v2.53a6.89,6.89,0,0,0,3.11,5.39L539.16,146Z"/><path class="cls-25" d="M543.09,143.95l-10.51-6.07a7.24,7.24,0,0,1-3.27-5.67v-2.54a6.89,6.89,0,0,0-3.11-5.39L524,123l.16-.27,2.2,1.27a7.24,7.24,0,0,1,3.27,5.67v2.54a6.89,6.89,0,0,0,3.11,5.39l10.51,6.07Z"/><path class="cls-25" d="M547.18,141.59l-10.51-6.07a7.24,7.24,0,0,1-3.27-5.67v-2.54a6.89,6.89,0,0,0-3.11-5.39l-2.2-1.27.16-.27,2.2,1.27a7.24,7.24,0,0,1,3.27,5.67v2.54a6.9,6.9,0,0,0,3.11,5.39l10.51,6.07Z"/><path class="cls-25" d="M551.27,139.23l-10.51-6.07a7.24,7.24,0,0,1-3.27-5.67V125a6.9,6.9,0,0,0-3.11-5.39l-2.2-1.27.16-.27,2.2,1.27A7.24,7.24,0,0,1,537.8,125v2.53a6.89,6.89,0,0,0,3.11,5.39L551.43,139Z"/><path class="cls-25" d="M555.36,136.88l-10.51-6.07a7.24,7.24,0,0,1-3.27-5.67v-2.54a6.89,6.89,0,0,0-3.11-5.39l-2.2-1.27.16-.27,2.2,1.27a7.24,7.24,0,0,1,3.27,5.67v2.54a6.89,6.89,0,0,0,3.11,5.39l10.51,6.07Z"/><path class="cls-25" d="M559.44,134.52l-10.51-6.07a7.24,7.24,0,0,1-3.27-5.67v-2.54a6.89,6.89,0,0,0-3.11-5.39l-2.2-1.27.16-.27,2.2,1.27a7.24,7.24,0,0,1,3.27,5.67v2.54a6.89,6.89,0,0,0,3.11,5.39l10.51,6.07Z"/><path class="cls-25" d="M563.53,132.17,553,126.1a7.24,7.24,0,0,1-3.27-5.67V117.9a6.9,6.9,0,0,0-3.11-5.39l-2.2-1.27.16-.27,2.2,1.27a7.24,7.24,0,0,1,3.27,5.67v2.53a6.89,6.89,0,0,0,3.11,5.39l10.51,6.07Z"/><path class="cls-25" d="M567.62,129.81l-10.51-6.07a7.24,7.24,0,0,1-3.27-5.67v-2.54a6.89,6.89,0,0,0-3.11-5.39l-2.2-1.27.16-.27,2.2,1.27a7.24,7.24,0,0,1,3.27,5.67v2.54a6.89,6.89,0,0,0,3.11,5.39l10.51,6.07Z"/><path class="cls-25" d="M571.71,127.46l-10.51-6.07a7.24,7.24,0,0,1-3.27-5.67v-2.54a6.89,6.89,0,0,0-3.11-5.39l-2.2-1.27.16-.27,2.2,1.27a7.24,7.24,0,0,1,3.27,5.67v2.54a6.89,6.89,0,0,0,3.11,5.39l10.51,6.07Z"/><path class="cls-25" d="M453.35,172.22l-.16-.27,10.51-6.07a6.89,6.89,0,0,0,3.11-5.39v-2.54a7.24,7.24,0,0,1,3.27-5.67l2.2-1.27.16.27-2.2,1.27a6.89,6.89,0,0,0-3.11,5.39v2.54a7.24,7.24,0,0,1-3.27,5.67Z"/><path class="cls-25" d="M449.26,169.86l-.16-.27,10.51-6.07a6.89,6.89,0,0,0,3.11-5.39v-2.54a7.24,7.24,0,0,1,3.27-5.67l2.2-1.27.16.27-2.2,1.27a6.89,6.89,0,0,0-3.11,5.39v2.54a7.24,7.24,0,0,1-3.27,5.67Z"/><path class="cls-25" d="M445.17,167.51l-.16-.27,10.51-6.07a6.9,6.9,0,0,0,3.11-5.39v-2.53a7.24,7.24,0,0,1,3.27-5.67l2.2-1.27.16.27-2.2,1.27a6.9,6.9,0,0,0-3.11,5.39v2.53a7.24,7.24,0,0,1-3.27,5.67Z"/><path class="cls-25" d="M441.08,165.15l-.16-.27,10.51-6.07a6.89,6.89,0,0,0,3.11-5.39v-2.54a7.24,7.24,0,0,1,3.27-5.67l2.2-1.27.16.27-2.2,1.27a6.89,6.89,0,0,0-3.11,5.39v2.54a7.24,7.24,0,0,1-3.27,5.67Z"/><path class="cls-25" d="M437,162.79l-.16-.27,10.51-6.07a6.89,6.89,0,0,0,3.11-5.39v-2.54a7.24,7.24,0,0,1,3.27-5.67l2.2-1.27.16.27-2.2,1.27a6.89,6.89,0,0,0-3.11,5.39v2.54a7.24,7.24,0,0,1-3.27,5.67Z"/><path class="cls-25" d="M377.93,192.62l-.16-.27,65.49-38.25a6.9,6.9,0,0,0,3.11-5.39v-2.53a7.24,7.24,0,0,1,3.27-5.67l2.2-1.27.16.27-2.2,1.27a6.9,6.9,0,0,0-3.11,5.39v2.53a7.24,7.24,0,0,1-3.27,5.67Z"/><path class="cls-25" d="M428.82,158.08l-.16-.27,10.51-6.07a6.89,6.89,0,0,0,3.11-5.39v-2.54a7.24,7.24,0,0,1,3.27-5.67l2.2-1.27.16.27-2.2,1.27a6.9,6.9,0,0,0-3.11,5.39v2.54a7.24,7.24,0,0,1-3.27,5.67Z"/><path class="cls-25" d="M424.73,155.73l-.16-.27,10.51-6.07A6.89,6.89,0,0,0,438.2,144v-2.54a7.24,7.24,0,0,1,3.27-5.67l2.2-1.27.16.27-2.2,1.27a6.89,6.89,0,0,0-3.11,5.39V144a7.24,7.24,0,0,1-3.27,5.67Z"/><path class="cls-25" d="M403.68,162.93l-.08,0,55.26,31.47.16-.28-55.34-31.52,16.8-9.47L431,147a6.9,6.9,0,0,0,3.11-5.39V139.1a7.24,7.24,0,0,1,3.27-5.67l2.2-1.27.16.27-2.2,1.27a6.9,6.9,0,0,0-3.11,5.39v2.53a7.24,7.24,0,0,1-3.27,5.67l-10.51,6.07Z"/><path class="cls-25" d="M416.55,151l-.16-.27,10.51-6.07a6.89,6.89,0,0,0,3.11-5.39v-2.54a7.24,7.24,0,0,1,3.27-5.67l2.2-1.27.16.27-2.2,1.27a6.89,6.89,0,0,0-3.11,5.39v2.54a7.24,7.24,0,0,1-3.27,5.67Z"/><path class="cls-25" d="M187.47,280.66l-.16-.27L422.82,142.32a6.89,6.89,0,0,0,3.11-5.39v-2.54a7.24,7.24,0,0,1,3.27-5.67l2.2-1.27.16.27-2.2,1.27a6.89,6.89,0,0,0-3.11,5.39v2.54a7.24,7.24,0,0,1-3.27,5.67Z"/><path class="cls-25" d="M183.38,278.3l-.16-.27L418.73,140a6.89,6.89,0,0,0,3.11-5.39V132a7.24,7.24,0,0,1,3.27-5.67l2.2-1.27.16.27-2.2,1.27a6.9,6.9,0,0,0-3.11,5.39v2.53a7.24,7.24,0,0,1-3.27,5.67Z"/><path class="cls-25" d="M179.29,275.95l-.16-.27L414.64,137.61a6.89,6.89,0,0,0,3.11-5.39v-2.54A7.24,7.24,0,0,1,421,124l2.2-1.27.16.27-2.2,1.27a6.89,6.89,0,0,0-3.11,5.39v2.54a7.24,7.24,0,0,1-3.27,5.67Z"/><path class="cls-25" d="M400.2,141.59l-.16-.27,10.51-6.07a6.9,6.9,0,0,0,3.11-5.39v-2.54a7.24,7.24,0,0,1,3.27-5.67l2.2-1.27.16.27-2.2,1.27a6.89,6.89,0,0,0-3.11,5.39v2.54a7.24,7.24,0,0,1-3.27,5.67Z"/><path class="cls-25" d="M214.09,245l-.16-.27L406.47,132.89a6.89,6.89,0,0,0,3.11-5.39V125a7.24,7.24,0,0,1,3.27-5.67L415,118l.16.27-2.2,1.27A6.9,6.9,0,0,0,409.9,125v2.53a7.24,7.24,0,0,1-3.27,5.67Z"/><path class="cls-25" d="M214,240.43l-.16-.27L402.38,130.54a6.89,6.89,0,0,0,3.11-5.39v-2.54a7.24,7.24,0,0,1,3.27-5.67l2.2-1.27.16.27-2.2,1.27a6.89,6.89,0,0,0-3.11,5.39v2.54a7.24,7.24,0,0,1-3.27,5.67Z"/><path class="cls-25" d="M213.93,235.73l-.16-.27L398.29,128.18a6.89,6.89,0,0,0,3.11-5.39v-2.54a7.24,7.24,0,0,1,3.27-5.67l2.2-1.27.16.27-2.2,1.27a6.89,6.89,0,0,0-3.11,5.39v2.54a7.24,7.24,0,0,1-3.27,5.67Z"/><path class="cls-25" d="M383.85,132.17l-.16-.27,10.51-6.07a6.89,6.89,0,0,0,3.11-5.39V117.9a7.24,7.24,0,0,1,3.27-5.67l2.2-1.27.16.27-2.2,1.27a6.9,6.9,0,0,0-3.11,5.39v2.53a7.24,7.24,0,0,1-3.27,5.67Z"/><path class="cls-25" d="M379.76,129.81l-.16-.27,10.51-6.07a6.89,6.89,0,0,0,3.11-5.39v-2.54a7.24,7.24,0,0,1,3.27-5.67l2.2-1.27.16.27-2.2,1.27a6.89,6.89,0,0,0-3.11,5.39v2.54a7.24,7.24,0,0,1-3.27,5.67Z"/><path class="cls-25" d="M375.67,127.46l-.16-.27L386,121.11a6.89,6.89,0,0,0,3.11-5.39v-2.54a7.24,7.24,0,0,1,3.27-5.67l2.2-1.27.16.27-2.2,1.27a6.89,6.89,0,0,0-3.11,5.39v2.54a7.24,7.24,0,0,1-3.27,5.67Z"/><g class="cls-38"><polygon class="cls-39" points="472.83 233.14 457.76 224.44 457.76 241.84 472.83 250.54 487.9 241.84 487.9 224.44 472.83 233.14"/><polygon class="cls-39" points="472.83 250.54 457.76 241.84 457.76 224.44 472.83 233.14 472.83 250.54"/><polygon class="cls-40" points="487.9 241.84 472.83 250.54 472.83 233.14 487.9 224.44 487.9 241.84"/><polygon class="cls-39" points="472.83 233.14 457.76 224.44 472.83 215.74 487.9 224.44 472.83 233.14"/><polygon class="cls-28" points="472.83 233.14 457.76 224.44 457.76 225.2 472.83 233.9 487.9 225.2 487.9 224.44 472.83 233.14"/></g><polygon class="cls-41" points="472.83 222.6 457.76 213.9 472.83 205.2 487.9 213.9 472.83 222.6"/><polygon class="cls-39" points="472.83 192.02 457.76 183.32 457.76 200.72 472.83 209.42 487.9 200.72 487.9 183.32 472.83 192.02"/><polygon class="cls-39" points="472.83 209.42 457.76 200.72 457.76 183.32 472.83 192.02 472.83 209.42"/><polygon class="cls-40" points="487.9 200.72 472.83 209.42 472.83 192.02 487.9 183.32 487.9 200.72"/><polygon class="cls-39" points="472.83 192.02 457.76 183.32 472.83 174.62 487.9 183.32 472.83 192.02"/><polygon class="cls-40" points="472.83 189.88 461.47 183.32 472.83 176.76 484.19 183.32 472.83 189.88"/><polygon class="cls-28" points="472.83 192.02 457.76 183.32 457.76 184.08 472.83 192.78 487.9 184.08 487.9 183.32 472.83 192.02"/><polygon class="cls-39" points="472.83 165.92 457.76 157.22 457.76 174.62 472.83 183.32 487.9 174.62 487.9 157.22 472.83 165.92"/><polygon class="cls-39" points="472.83 183.32 457.76 174.62 457.76 157.22 472.83 165.92 472.83 183.32"/><polygon class="cls-40" points="487.9 174.62 472.83 183.32 472.83 165.92 487.9 157.22 487.9 174.62"/><polygon class="cls-39" points="472.83 165.92 457.76 157.22 472.83 148.53 487.9 157.22 472.83 165.92"/><polygon class="cls-28" points="472.83 165.92 457.76 157.22 457.76 157.98 472.83 166.68 487.9 157.98 487.9 157.22 472.83 165.92"/><g class="cls-38"><polygon class="cls-39" points="506.06 225.76 490.99 217.06 490.99 234.46 506.06 243.16 521.13 234.46 521.13 217.06 506.06 225.76"/><polygon class="cls-39" points="506.06 243.16 490.99 234.46 490.99 217.06 506.06 225.76 506.06 243.16"/><polygon class="cls-40" points="521.13 234.46 506.06 243.16 506.06 225.76 521.13 217.06 521.13 234.46"/><polygon class="cls-39" points="506.06 225.76 490.99 217.06 506.06 208.36 521.13 217.06 506.06 225.76"/><polygon class="cls-28" points="506.06 225.76 490.99 217.06 490.99 217.81 506.06 226.51 521.13 217.81 521.13 217.06 506.06 225.76"/></g><path class="cls-25" d="M506.46,219.29l-.08,0-22.06-12.73.24-.14,21.9-12.64.08,0,22.06,12.73-.24.14ZM485,206.51l21.5,12.42L528,206.51l-21.5-12.42Z"/><polygon class="cls-41" points="506.06 215.21 490.99 206.51 506.06 197.81 521.13 206.51 506.06 215.21"/><polygon class="cls-39" points="506.06 184.64 490.99 175.94 490.99 193.34 506.06 202.03 521.13 193.34 521.13 175.94 506.06 184.64"/><polygon class="cls-39" points="506.06 202.03 490.99 193.34 490.99 175.94 506.06 184.64 506.06 202.03"/><polygon class="cls-40" points="521.13 193.34 506.06 202.03 506.06 184.64 521.13 175.94 521.13 193.34"/><polygon class="cls-39" points="506.06 184.64 490.99 175.94 506.06 167.24 521.13 175.94 506.06 184.64"/><polygon class="cls-28" points="506.06 184.64 490.99 175.94 490.99 176.69 506.06 185.39 521.13 176.69 521.13 175.94 506.06 184.64"/><g class="cls-38"><polygon class="cls-39" points="436.83 233.14 421.77 224.44 421.77 241.84 436.83 250.54 451.9 241.84 451.9 224.44 436.83 233.14"/><polygon class="cls-39" points="436.83 250.54 421.77 241.84 421.77 224.44 436.83 233.14 436.83 250.54"/><polygon class="cls-40" points="451.9 241.84 436.83 250.54 436.83 233.14 451.9 224.44 451.9 241.84"/><polygon class="cls-39" points="436.83 233.14 421.77 224.44 436.83 215.74 451.9 224.44 436.83 233.14"/><polygon class="cls-28" points="436.83 233.14 421.77 224.44 421.77 225.2 436.83 233.9 451.9 225.2 451.9 224.44 436.83 233.14"/></g><polygon class="cls-41" points="436.83 222.6 421.77 213.9 436.83 205.2 451.9 213.9 436.83 222.6"/><polygon class="cls-39" points="436.83 192.02 421.77 183.32 421.77 200.72 436.83 209.42 451.9 200.72 451.9 183.32 436.83 192.02"/><polygon class="cls-39" points="436.83 209.42 421.77 200.72 421.77 183.32 436.83 192.02 436.83 209.42"/><polygon class="cls-40" points="451.9 200.72 436.83 209.42 436.83 192.02 451.9 183.32 451.9 200.72"/><polygon class="cls-39" points="436.83 192.02 421.77 183.32 436.83 174.62 451.9 183.32 436.83 192.02"/><polygon class="cls-28" points="436.83 192.02 421.77 183.32 421.77 184.08 436.83 192.78 451.9 184.08 451.9 183.32 436.83 192.02"/><g class="cls-38"><polygon class="cls-39" points="369.19 268.37 382.23 279.89 385.69 262.84 372.65 251.32 356.15 256.85 352.69 273.9 369.19 268.37"/><polygon class="cls-39" points="372.65 251.32 385.69 262.84 382.23 279.89 369.19 268.37 372.65 251.32"/><polygon class="cls-40" points="356.15 256.85 372.65 251.32 369.19 268.37 352.69 273.9 356.15 256.85"/><polygon class="cls-39" points="369.19 268.37 382.23 279.89 365.73 285.42 352.69 273.9 369.19 268.37"/><polygon class="cls-28" points="369.19 268.37 382.23 279.89 382.38 279.15 369.34 267.63 352.84 273.16 352.69 273.9 369.19 268.37"/></g><polygon class="cls-41" points="371.86 261.74 356.79 253.04 371.86 244.34 386.93 253.04 371.86 261.74"/><path class="cls-42" d="M371.86,276.85c-9.93,0-19.86-2.18-27.42-6.55-7.35-4.25-11.41-9.9-11.41-15.92s4.05-11.68,11.41-15.92c15.12-8.73,39.72-8.73,54.85,0,7.35,4.25,11.41,9.9,11.41,15.92s-4.05,11.68-11.4,15.92C391.72,274.67,381.79,276.85,371.86,276.85Zm0-44.63c-9.87,0-19.75,2.17-27.26,6.51-7.25,4.19-11.25,9.75-11.25,15.65s4,11.46,11.25,15.65c15,8.68,39.5,8.68,54.53,0,7.25-4.19,11.25-9.75,11.25-15.65s-4-11.46-11.25-15.65C391.61,234.39,381.73,232.22,371.86,232.22Z"/><path class="cls-43" d="M371.86,282.87c-12.6,0-25.2-2.77-34.8-8.31-9.32-5.38-14.46-12.55-14.46-20.18s5.14-14.8,14.46-20.18c19.19-11.08,50.41-11.08,69.59,0,9.33,5.38,14.46,12.55,14.46,20.18s-5.13,14.8-14.46,20.18l-.08-.14.08.14C397.06,280.1,384.46,282.87,371.86,282.87Zm0-56.67c-12.54,0-25.09,2.76-34.64,8.27-9.22,5.33-14.3,12.39-14.3,19.91S328,269,337.22,274.29c19.1,11,50.18,11,69.28,0h0c9.22-5.33,14.3-12.39,14.3-19.91s-5.08-14.58-14.3-19.91C396.95,229,384.4,226.2,371.86,226.2Z"/><path class="cls-39" d="M371.86,272.11c-7.83,0-15.65-1.72-21.61-5.16-5.8-3.35-9-7.81-9-12.57s3.2-9.22,9-12.57c11.92-6.88,31.31-6.88,43.23,0,5.8,3.35,9,7.82,9,12.57s-3.2,9.22-9,12.57C387.51,270.39,379.69,272.11,371.86,272.11Zm0-35.15c-7.77,0-15.54,1.71-21.45,5.12-5.7,3.29-8.84,7.66-8.84,12.3s3.14,9,8.84,12.3c11.83,6.83,31.08,6.83,42.91,0l.08.14-.08-.14c5.7-3.29,8.84-7.66,8.84-12.29s-3.14-9-8.84-12.3C387.4,238.67,379.63,237,371.86,237Z"/><polygon class="cls-39" points="370.12 237.74 368.4 220.42 354.27 230.57 355.99 247.89 371.85 255.05 385.98 244.9 370.12 237.74"/><polygon class="cls-39" points="355.99 247.89 354.27 230.57 368.4 220.42 370.12 237.74 355.99 247.89"/><polygon class="cls-40" points="371.85 255.05 355.99 247.89 370.12 237.74 385.98 244.9 371.85 255.05"/><polygon class="cls-39" points="370.12 237.74 368.4 220.42 384.25 227.59 385.98 244.9 370.12 237.74"/><polygon class="cls-28" points="370.12 237.74 368.4 220.42 367.79 220.86 369.51 238.18 385.37 245.34 385.98 244.9 370.12 237.74"/><polygon class="cls-41" points="362.96 251.03 377.44 251.03 371.85 255.05 362.96 251.03"/><polygon class="cls-39" points="473.83 64.71 458.77 56.01 458.77 73.41 473.83 82.11 488.9 73.41 488.9 56.01 473.83 64.71"/><polygon class="cls-39" points="473.83 82.11 458.77 73.41 458.77 56.01 473.83 64.71 473.83 82.11"/><polygon class="cls-40" points="488.9 73.41 473.83 82.11 473.83 64.71 488.9 56.01 488.9 73.41"/><polygon class="cls-39" points="473.83 64.71 458.77 56.01 473.83 47.31 488.9 56.01 473.83 64.71"/><polygon class="cls-28" points="473.83 64.71 459.42 56.39 458.77 56.77 473.83 65.47 488.9 56.77 488.25 56.39 473.83 64.71"/><polygon class="cls-39" points="493.41 75.88 478.34 67.18 478.34 84.58 493.41 93.28 508.47 84.58 508.47 67.18 493.41 75.88"/><polygon class="cls-39" points="493.41 93.28 478.34 84.58 478.34 67.18 493.41 75.88 493.41 93.28"/><polygon class="cls-40" points="508.47 84.58 493.41 93.28 493.41 75.88 508.47 67.18 508.47 84.58"/><polygon class="cls-39" points="493.41 75.88 478.34 67.18 493.4 58.48 508.47 67.18 493.41 75.88"/><polygon class="cls-28" points="493.41 75.88 478.99 67.56 478.34 67.93 493.41 76.63 508.47 67.93 507.82 67.56 493.41 75.88"/><polygon class="cls-39" points="512.98 87.05 497.91 78.34 497.91 95.74 512.98 104.44 528.04 95.74 528.04 78.34 512.98 87.05"/><polygon class="cls-39" points="512.98 104.44 497.91 95.74 497.91 78.34 512.98 87.05 512.98 104.44"/><polygon class="cls-40" points="528.04 95.74 512.98 104.44 512.98 87.05 528.04 78.34 528.04 95.74"/><polygon class="cls-39" points="512.98 87.05 497.91 78.34 512.98 69.65 528.04 78.35 512.98 87.05"/><polygon class="cls-28" points="512.98 87.05 498.56 78.72 497.91 79.1 512.98 87.8 528.04 79.1 528.04 78.34 512.98 87.05"/><polygon class="cls-39" points="454.26 76.63 439.19 67.93 439.19 85.33 454.26 94.03 469.33 85.33 469.33 67.93 454.26 76.63"/><polygon class="cls-39" points="454.26 94.03 439.19 85.33 439.19 67.93 454.26 76.63 454.26 94.03"/><polygon class="cls-40" points="469.33 85.33 454.26 94.03 454.26 76.63 469.33 67.93 469.33 85.33"/><polygon class="cls-39" points="454.26 76.63 439.19 67.93 454.26 59.23 469.33 67.93 454.26 76.63"/><polygon class="cls-28" points="454.26 76.63 439.85 68.31 439.19 68.69 454.26 77.39 469.33 68.69 468.68 68.31 454.26 76.63"/><polygon class="cls-39" points="473.83 87.8 458.77 79.1 458.77 96.5 473.83 105.2 488.9 96.5 488.9 79.1 473.83 87.8"/><polygon class="cls-39" points="473.83 105.2 458.77 96.5 458.77 79.1 473.83 87.8 473.83 105.2"/><polygon class="cls-40" points="488.9 96.5 473.83 105.2 473.83 87.8 488.9 79.1 488.9 96.5"/><polygon class="cls-39" points="473.83 87.8 458.77 79.1 473.83 70.4 488.9 79.1 473.83 87.8"/><polygon class="cls-28" points="473.83 87.8 459.42 79.48 458.77 79.86 473.83 88.55 488.9 79.86 488.25 79.48 473.83 87.8"/><polygon class="cls-39" points="493.41 98.97 478.34 90.27 478.34 107.67 493.41 116.36 508.47 107.67 508.47 90.27 493.41 98.97"/><polygon class="cls-39" points="493.41 116.36 478.34 107.67 478.34 90.27 493.41 98.97 493.41 116.36"/><polygon class="cls-40" points="508.47 107.67 493.41 116.36 493.41 98.97 508.47 90.27 508.47 107.67"/><polygon class="cls-39" points="493.41 98.97 478.34 90.27 493.4 81.57 508.47 90.27 493.41 98.97"/><polygon class="cls-28" points="493.41 98.97 478.99 90.64 478.34 91.02 493.41 99.72 508.47 91.02 508.47 90.27 493.41 98.97"/><polygon class="cls-39" points="434.69 88.55 419.62 79.86 419.62 97.25 434.69 105.95 449.76 97.25 449.76 79.86 434.69 88.55"/><polygon class="cls-39" points="434.69 105.95 419.62 97.25 419.62 79.86 434.69 88.55 434.69 105.95"/><polygon class="cls-40" points="449.76 97.25 434.69 105.95 434.69 88.55 449.76 79.86 449.76 97.25"/><polygon class="cls-39" points="434.69 88.55 419.62 79.86 434.69 71.16 449.76 79.86 434.69 88.55"/><polygon class="cls-28" points="434.69 88.55 419.62 79.86 419.62 80.61 434.69 89.31 449.76 80.61 449.1 80.23 434.69 88.55"/><polygon class="cls-39" points="454.26 99.72 439.19 91.02 439.19 108.42 454.26 117.12 469.33 108.42 469.33 91.02 454.26 99.72"/><polygon class="cls-39" points="454.26 117.12 439.19 108.42 439.19 91.02 454.26 99.72 454.26 117.12"/><polygon class="cls-40" points="469.33 108.42 454.26 117.12 454.26 99.72 469.33 91.02 469.33 108.42"/><polygon class="cls-39" points="454.26 99.72 439.19 91.02 454.26 82.32 469.33 91.02 454.26 99.72"/><polygon class="cls-28" points="454.26 99.72 439.19 91.02 439.19 91.78 454.26 100.48 469.33 91.78 468.68 91.4 454.26 99.72"/><polygon class="cls-39" points="473.83 110.89 458.77 102.19 458.77 119.59 473.83 128.29 488.9 119.59 488.9 102.19 473.83 110.89"/><polygon class="cls-39" points="473.83 128.29 458.77 119.59 458.77 102.19 473.83 110.89 473.83 128.29"/><polygon class="cls-40" points="488.9 119.59 473.83 128.29 473.83 110.89 488.9 102.19 488.9 119.59"/><polygon class="cls-39" points="473.83 110.89 458.77 102.19 473.83 93.49 488.9 102.19 473.83 110.89"/><polygon class="cls-28" points="473.83 110.89 458.77 102.19 458.77 102.94 473.83 111.64 488.9 102.94 488.9 102.19 473.83 110.89"/><polygon class="cls-39" points="473.83 41.62 458.77 32.92 458.77 50.32 473.83 59.02 488.9 50.32 488.9 32.92 473.83 41.62"/><polygon class="cls-39" points="473.83 59.02 458.77 50.32 458.77 32.92 473.83 41.62 473.83 59.02"/><polygon class="cls-40" points="488.9 50.32 473.83 59.02 473.83 41.62 488.9 32.92 488.9 50.32"/><polygon class="cls-39" points="473.83 41.62 458.77 32.92 473.83 24.22 488.9 32.92 473.83 41.62"/><polygon class="cls-28" points="473.83 41.62 459.42 33.3 458.77 33.68 473.83 42.38 488.9 33.68 488.25 33.3 473.83 41.62"/><polygon class="cls-44" points="473.83 108.06 463.56 102.12 473.83 96.19 484.11 102.12 473.83 108.06"/><polygon class="cls-44" points="454.26 96.89 443.98 90.95 454.26 85.02 464.54 90.95 454.26 96.89"/><polygon class="cls-44" points="493.41 96.13 483.13 90.2 493.4 84.27 503.68 90.2 493.41 96.13"/><polygon class="cls-44" points="513.01 84.35 502.74 78.41 513.01 72.48 523.29 78.41 513.01 84.35"/><polygon class="cls-44" points="434.69 85.72 424.41 79.79 434.69 73.85 444.97 79.79 434.69 85.72"/><polygon class="cls-39" points="493.41 52.79 478.34 44.09 478.34 61.49 493.41 70.19 508.47 61.49 508.47 44.09 493.41 52.79"/><polygon class="cls-39" points="493.41 70.19 478.34 61.49 478.34 44.09 493.41 52.79 493.41 70.19"/><polygon class="cls-40" points="508.47 61.49 493.41 70.19 493.41 52.79 508.47 44.09 508.47 61.49"/><polygon class="cls-39" points="493.41 52.79 478.34 44.09 493.4 35.39 508.47 44.09 493.41 52.79"/><polygon class="cls-28" points="493.41 52.79 478.99 44.47 478.34 44.84 493.41 53.54 508.47 44.84 507.82 44.47 493.41 52.79"/><polygon class="cls-39" points="512.98 63.96 497.91 55.26 497.91 72.65 512.98 81.35 528.04 72.65 528.04 55.26 512.98 63.96"/><polygon class="cls-39" points="512.98 81.35 497.91 72.66 497.91 55.26 512.98 63.96 512.98 81.35"/><polygon class="cls-40" points="528.04 72.66 512.98 81.35 512.98 63.96 528.04 55.26 528.04 72.66"/><polygon class="cls-39" points="512.98 63.96 497.91 55.26 512.98 46.56 528.04 55.26 512.98 63.96"/><polygon class="cls-28" points="512.98 63.96 498.56 55.63 497.91 56.01 512.98 64.71 528.04 56.01 528.04 55.26 512.98 63.96"/><polygon class="cls-39" points="454.26 53.54 439.19 44.84 439.19 62.24 454.26 70.94 469.33 62.24 469.33 44.84 454.26 53.54"/><polygon class="cls-39" points="454.26 70.94 439.19 62.24 439.19 44.84 454.26 53.54 454.26 70.94"/><polygon class="cls-40" points="469.33 62.24 454.26 70.94 454.26 53.54 469.33 44.84 469.33 62.24"/><polygon class="cls-39" points="454.26 53.54 439.19 44.84 454.26 36.15 469.33 44.84 454.26 53.54"/><polygon class="cls-28" points="454.26 53.54 439.85 45.22 439.19 45.6 454.26 54.3 469.33 45.6 468.68 45.22 454.26 53.54"/><polygon class="cls-39" points="473.83 64.71 458.77 56.01 458.77 73.41 473.83 82.11 488.9 73.41 488.9 56.01 473.83 64.71"/><polygon class="cls-39" points="473.83 82.11 458.77 73.41 458.77 56.01 473.83 64.71 473.83 82.11"/><polygon class="cls-40" points="488.9 73.41 473.83 82.11 473.83 64.71 488.9 56.01 488.9 73.41"/><polygon class="cls-39" points="473.83 64.71 458.77 56.01 473.83 47.31 488.9 56.01 473.83 64.71"/><polygon class="cls-28" points="473.83 64.71 459.42 56.39 458.77 56.77 473.83 65.47 488.9 56.77 488.25 56.39 473.83 64.71"/><polygon class="cls-39" points="493.41 75.88 478.34 67.18 478.34 84.58 493.41 93.28 508.47 84.58 508.47 67.18 493.41 75.88"/><polygon class="cls-39" points="493.41 93.28 478.34 84.58 478.34 67.18 493.41 75.88 493.41 93.28"/><polygon class="cls-40" points="508.47 84.58 493.41 93.28 493.41 75.88 508.47 67.18 508.47 84.58"/><polygon class="cls-39" points="493.41 75.88 478.34 67.18 493.4 58.48 508.47 67.18 493.41 75.88"/><polygon class="cls-28" points="493.41 75.88 478.99 67.56 478.34 67.93 493.41 76.63 508.47 67.93 508.47 67.18 493.41 75.88"/><polygon class="cls-39" points="434.69 65.47 419.62 56.77 419.62 74.16 434.69 82.86 449.76 74.16 449.76 56.77 434.69 65.47"/><polygon class="cls-39" points="434.69 82.86 419.62 74.16 419.62 56.77 434.69 65.47 434.69 82.86"/><polygon class="cls-40" points="449.76 74.16 434.69 82.86 434.69 65.47 449.76 56.77 449.76 74.16"/><polygon class="cls-39" points="434.69 65.47 419.62 56.77 434.69 48.07 449.76 56.77 434.69 65.47"/><polygon class="cls-28" points="434.69 65.47 420.28 57.14 419.62 57.52 434.69 66.22 449.76 57.52 449.1 57.14 434.69 65.47"/><polygon class="cls-39" points="454.26 76.63 439.19 67.93 439.19 85.33 454.26 94.03 469.33 85.33 469.33 67.93 454.26 76.63"/><polygon class="cls-39" points="454.26 94.03 439.19 85.33 439.19 67.93 454.26 76.63 454.26 94.03"/><polygon class="cls-40" points="469.33 85.33 454.26 94.03 454.26 76.63 469.33 67.93 469.33 85.33"/><polygon class="cls-39" points="454.26 76.63 439.19 67.93 454.26 59.23 469.33 67.93 454.26 76.63"/><polygon class="cls-28" points="454.26 76.63 439.19 67.93 439.19 68.69 454.26 77.39 469.33 68.69 468.68 68.31 454.26 76.63"/><polygon class="cls-39" points="473.83 87.8 458.77 79.1 458.77 96.5 473.83 105.2 488.9 96.5 488.9 79.1 473.83 87.8"/><polygon class="cls-39" points="473.83 105.2 458.77 96.5 458.77 79.1 473.83 87.8 473.83 105.2"/><polygon class="cls-40" points="488.9 96.5 473.83 105.2 473.83 87.8 488.9 79.1 488.9 96.5"/><polygon class="cls-39" points="473.83 87.8 458.77 79.1 473.83 70.4 488.9 79.1 473.83 87.8"/><polygon class="cls-28" points="473.83 87.8 458.77 79.1 458.77 79.86 473.83 88.55 488.9 79.86 488.9 79.1 473.83 87.8"/><polygon class="cls-44" points="513.01 61.36 502.74 55.43 513.01 49.49 523.29 55.43 513.01 61.36"/><polygon class="cls-44" points="434.69 62.73 424.41 56.8 434.69 50.87 444.97 56.8 434.69 62.73"/><polygon class="cls-39" points="473.83 18.53 458.77 9.83 458.77 27.23 473.83 35.93 488.9 27.23 488.9 9.83 473.83 18.53"/><polygon class="cls-39" points="473.83 35.93 458.77 27.23 458.77 9.83 473.83 18.53 473.83 35.93"/><polygon class="cls-40" points="488.9 27.23 473.83 35.93 473.83 18.53 488.9 9.83 488.9 27.23"/><polygon class="cls-39" points="473.83 18.53 458.77 9.83 473.83 1.13 488.9 9.83 473.83 18.53"/><polygon class="cls-28" points="473.83 18.53 458.77 9.83 458.77 10.59 473.83 19.29 488.9 10.59 488.9 9.83 473.83 18.53"/><polygon class="cls-39" points="493.41 29.7 478.34 21 478.34 38.4 493.41 47.1 508.47 38.4 508.47 21 493.41 29.7"/><polygon class="cls-39" points="493.41 47.1 478.34 38.4 478.34 21 493.41 29.7 493.41 47.1"/><polygon class="cls-40" points="508.47 38.4 493.41 47.1 493.41 29.7 508.47 21 508.47 38.4"/><polygon class="cls-39" points="493.41 29.7 478.34 21 493.4 12.3 508.47 21 493.41 29.7"/><polygon class="cls-28" points="493.41 29.7 478.34 21 478.34 21.75 493.41 30.45 508.47 21.75 508.47 21 493.41 29.7"/><polygon class="cls-39" points="512.98 40.87 497.91 32.17 497.91 49.56 512.98 58.27 528.04 49.56 528.04 32.17 512.98 40.87"/><polygon class="cls-39" points="512.98 58.27 497.91 49.57 497.91 32.17 512.98 40.87 512.98 58.27"/><polygon class="cls-40" points="528.04 49.57 512.98 58.27 512.98 40.87 528.04 32.17 528.04 49.57"/><polygon class="cls-39" points="512.98 40.87 497.91 32.17 512.98 23.47 528.04 32.17 512.98 40.87"/><polygon class="cls-28" points="512.98 40.87 497.91 32.17 497.91 32.92 512.98 41.62 528.04 32.92 528.04 32.17 512.98 40.87"/><polygon class="cls-39" points="454.26 30.45 439.19 21.75 439.19 39.15 454.26 47.85 469.33 39.15 469.33 21.75 454.26 30.45"/><polygon class="cls-39" points="454.26 47.85 439.19 39.15 439.19 21.75 454.26 30.45 454.26 47.85"/><polygon class="cls-40" points="469.33 39.15 454.26 47.85 454.26 30.45 469.33 21.75 469.33 39.15"/><polygon class="cls-39" points="454.26 30.45 439.19 21.75 454.26 13.06 469.33 21.75 454.26 30.45"/><polygon class="cls-28" points="454.26 30.45 439.19 21.75 439.19 22.51 454.26 31.21 469.33 22.51 469.33 21.75 454.26 30.45"/><polygon class="cls-39" points="434.69 42.38 419.62 33.68 419.62 51.08 434.69 59.77 449.76 51.08 449.76 33.68 434.69 42.38"/><polygon class="cls-39" points="434.69 59.77 419.62 51.08 419.62 33.68 434.69 42.38 434.69 59.77"/><polygon class="cls-40" points="449.76 51.08 434.69 59.77 434.69 42.38 449.76 33.68 449.76 51.08"/><polygon class="cls-39" points="434.69 42.38 419.62 33.68 434.69 24.98 449.76 33.68 434.69 42.38"/><polygon class="cls-28" points="434.69 42.38 419.62 33.68 419.62 34.43 434.69 43.13 449.76 34.43 449.76 33.68 434.69 42.38"/><circle class="cls-45" cx="383.27" cy="270.51" r="2.03"/><circle class="cls-46" cx="383.27" cy="270.51" r="0.88"/><circle class="cls-45" cx="344.52" cy="277.73" r="3.17"/><circle class="cls-46" cx="344.52" cy="277.73" r="1.38"/><circle class="cls-45" cx="333.96" cy="250.04" r="2.15"/><circle class="cls-46" cx="333.96" cy="250.04" r="0.93"/><polygon class="cls-39" points="110.66 228.42 110.5 228.14 146.24 207.33 146.32 207.38 214.33 244.64 214.18 244.92 146.25 207.7 110.66 228.42"/><polygon class="cls-39" points="105.99 226.61 105.83 226.34 146.24 202.85 146.32 202.89 214.33 240.15 214.18 240.43 146.25 203.21 105.99 226.61"/><polygon class="cls-39" points="102.99 223.42 102.83 223.14 145.84 198.15 145.92 198.19 213.93 235.45 213.78 235.73 145.85 198.51 102.99 223.42"/><polyline class="cls-25" points="425.28 155.42 393.94 173.06 393.86 173.02 426.3 191.57 426.46 191.29 393.94 172.7 425.13 155.15"/><polyline class="cls-25" points="433.78 155.28 402.43 172.93 402.35 172.88 434.8 191.43 434.95 191.15 402.43 172.56 433.62 155.01"/><polyline class="cls-25" points="421.49 183.82 484.11 219.29 484.19 219.25 495.01 212.51 494.85 212.23 484.11 218.93 421.65 183.54"/><path class="cls-25" d="M378.09,192.34h-.32v16.94a6.89,6.89,0,0,1-3.11,5.39l-2.2,1.27a7.24,7.24,0,0,0-3.27,5.67v2.53h.32v-2.53a6.89,6.89,0,0,1,3.11-5.39l2.2-1.27a7.24,7.24,0,0,0,3.27-5.67Z"/><path class="cls-39" d="M161.45,321.7l-25-14.42"/><path class="cls-42" d="M198.61,298.91v-8.55l-1.56-.87c-.44,2.67-3.58,4.43-6.21,4.79l-17.89,10.46-7.81,2.82L140.22,294.7l.58-.33c-2.13-1-3.28-3.27-4.43-5.35l-1.68,1-1,.28V299h0a3.72,3.72,0,0,0,2.19,3.06l25,14.41a11.74,11.74,0,0,0,10.6,0l25-14.41a3.75,3.75,0,0,0,2.19-3s0-.1,0-.15Z"/><path class="cls-47" d="M198.61,291.31v-5.66l-1.56-.87c-.44,2.67-3.58,4.43-6.21,4.79L172.95,300l-7.81,2.82L140.22,290l.58-.33c-2.13-1-3.28-3.27-4.43-5.35l-1.68,1-1,.28v5.8h0a3.72,3.72,0,0,0,2.19,3.06l25,14.41a11.74,11.74,0,0,0,10.6,0l25-14.41a3.75,3.75,0,0,0,2.19-3s0-.1,0-.15Z"/><path class="cls-48" d="M160.85,303.13l-25-14.41c-2.92-1.69-2.92-4.43,0-6.12l25-14.41a11.73,11.73,0,0,1,10.6,0l25,14.41c2.92,1.69,2.92,4.43,0,6.12l-25,14.41A11.73,11.73,0,0,1,160.85,303.13Z"/><path class="cls-28" d="M135.88,289.42l25,14.41"/><path class="cls-39" d="M165.76,300.8a8.35,8.35,0,0,1-4.17-1.11l-22.38-12.87a1.61,1.61,0,0,1,0-2.79l21.06-12a9.46,9.46,0,0,1,9.41,0l21.85,12.56a1.61,1.61,0,0,1,0,2.79l-21.59,12.28A8.34,8.34,0,0,1,165.76,300.8ZM165,271.46a8.74,8.74,0,0,0-4.37,1.16l-21.06,12a.94.94,0,0,0,0,1.63l22.38,12.87a7.69,7.69,0,0,0,7.67,0l21.59-12.28a.94.94,0,0,0,0-1.63l-21.85-12.56h0A8.74,8.74,0,0,0,165,271.46Z"/><path class="cls-49" d="M191.36,245l-21.85-12.56a9.08,9.08,0,0,0-9.08,0l-21.06,12a1.27,1.27,0,0,0-.64,1.11v27.34a1.27,1.27,0,0,0,.64,1.11l22.38,12.87a8,8,0,0,0,8,0l21.59-12.28a1.27,1.27,0,0,0,.64-1.11V246.1h0A1.27,1.27,0,0,0,191.36,245Z"/><g class="cls-50"><path class="cls-51" d="M169.51,232.44a9.08,9.08,0,0,0-9.08,0l-21.06,12a1.28,1.28,0,0,0,0,2.21l22.38,12.87a8,8,0,0,0,8,0l21.59-12.28a1.28,1.28,0,0,0,0-2.21Z"/></g><path class="cls-52" d="M191.36,245.95l-21.59,12.28a8,8,0,0,1-8,0l-22.38-12.87a1.26,1.26,0,0,1-.47-.48,1.28,1.28,0,0,0,.47,1.74l22.38,12.87a8,8,0,0,0,8,0l21.59-12.28a1.28,1.28,0,0,0,.47-1.74A1.26,1.26,0,0,1,191.36,245.95Z"/><polygon class="cls-53" points="165.37 253.3 151.73 245.43 165.37 237.56 179 245.43 165.37 253.3"/><path class="cls-39" d="M165.37,254a.74.74,0,0,1-.37-.1l-13.63-7.87a.74.74,0,0,1,0-1.28L165,236.92a.74.74,0,0,1,.74,0l13.63,7.87a.74.74,0,0,1,0,1.28l-13.63,7.87A.74.74,0,0,1,165.37,254Zm-12.16-8.61,12.16,7,12.16-7-12.16-7Z"/><path class="cls-54" d="M66,281.42,5.71,246.58c-2.44-1.41-2.14-3.87.68-5.5l59-34c2.82-1.63,7.09-1.81,9.53-.39l60.34,34.84c2.44,1.41,2.14,3.87-.68,5.5l-59,34C72.76,282.65,68.49,282.83,66,281.42Z"/><g class="cls-55"><path class="cls-56" d="M66,281.42,5.71,246.58c-2.44-1.41-2.14-3.87.68-5.5l59-34c2.82-1.63,7.09-1.81,9.53-.39l60.34,34.84c2.44,1.41,2.14,3.87-.68,5.5l-59,34C72.76,282.65,68.49,282.83,66,281.42Z"/></g><path class="cls-39" d="M5.71,246.58l5.3,3.06,54.36-31.38c2.82-1.63,7.09-1.81,9.53-.4l55,31.78,4.62-2.67c2.82-1.63,3.13-4.09.68-5.5L74.89,206.64c-2.44-1.41-6.71-1.23-9.53.39l-59,34C3.57,242.71,3.26,245.17,5.71,246.58Z"/><g class="cls-57"><polygon class="cls-27" points="70.47 255.64 30.09 232.32 70.47 209.01 110.85 232.33 70.47 255.64"/><polygon class="cls-28" points="70.47 345.12 30.09 321.81 70.47 298.5 110.85 321.81 70.47 345.12"/><polygon class="cls-58" points="110.85 232.33 110.85 321.81 70.47 345.12 70.47 255.64 110.85 232.33"/><polygon class="cls-59" points="30.09 232.32 30.09 321.81 70.47 345.12 70.47 255.64 30.09 232.32"/><g class="cls-60"><polygon class="cls-61" points="32.83 238.26 32.83 318.69 67.73 338.85 67.73 258.42 32.83 238.26"/></g><polygon class="cls-61" points="104.79 253.95 104.79 256.31 76.53 272.63 76.53 270.26 104.79 253.95"/><polygon class="cls-61" points="104.79 263.95 104.79 266.31 76.53 282.63 76.53 280.26 104.79 263.95"/><polygon class="cls-61" points="104.79 273.95 104.79 276.31 76.53 292.63 76.53 290.27 104.79 273.95"/><polygon class="cls-61" points="104.79 283.95 104.79 286.31 76.53 302.63 76.53 300.27 104.79 283.95"/><polygon class="cls-61" points="104.79 293.95 104.79 296.31 76.53 312.63 76.53 310.27 104.79 293.95"/><polygon class="cls-61" points="104.79 303.95 104.79 306.31 76.53 322.63 76.53 320.27 104.79 303.95"/><g class="cls-62"><polygon class="cls-63" points="70.47 249.51 59.86 249.51 30.09 232.32 62.48 213.63 70.47 213.63 70.47 249.51"/></g><polygon class="cls-64" points="70.47 247.45 41.17 230.54 70.47 213.63 99.77 230.54 70.47 247.45"/><polygon class="cls-65" points="99.77 230.54 99.77 232.6 70.47 249.51 70.47 247.45 99.77 230.54"/><polygon class="cls-66" points="41.17 230.54 41.17 232.6 70.47 249.51 70.47 247.45 41.17 230.54"/><polygon class="cls-67" points="59.11 230.81 57.81 230.06 57.92 229.45 69.95 222.45 71.62 223.25 71.31 223.76 59.11 230.81"/><polygon class="cls-68" points="70.02 223.02 71.31 223.76 72.15 223.28 70.02 222.05 56.98 229.58 57.81 230.06 70.02 223.02"/><polygon class="cls-67" points="63.05 233.08 61.75 232.33 61.85 231.72 73.89 224.72 75.56 225.51 75.25 226.03 63.05 233.08"/><polygon class="cls-69" points="73.95 225.28 75.25 226.03 76.09 225.55 73.95 224.32 60.91 231.85 61.75 232.33 73.95 225.28"/><polygon class="cls-67" points="66.98 235.34 65.69 234.59 65.79 233.99 77.83 226.98 79.5 227.78 79.19 228.3 66.98 235.34"/><polygon class="cls-70" points="77.89 227.55 79.19 228.3 80.03 227.81 77.89 226.58 64.85 234.11 65.69 234.6 77.89 227.55"/><polygon class="cls-67" points="70.92 237.61 69.62 236.86 69.73 236.25 81.77 229.25 83.44 230.04 83.13 230.56 70.92 237.61"/><polygon class="cls-71" points="81.83 229.82 83.13 230.56 83.96 230.08 81.83 228.85 68.79 236.38 69.63 236.86 81.83 229.82"/><g class="cls-60"><polygon class="cls-61" points="30.09 307.67 70.47 283.29 70.47 255.64 30.09 232.32 30.09 307.67"/></g><path class="cls-72" d="M68.87,259.66a3.55,3.55,0,0,0-1.61-2.78,1.12,1.12,0,0,0-1.14-.11h0l-1.14.67.7,0a1.84,1.84,0,0,0,0,.35,3.55,3.55,0,0,0,1.61,2.78,1.81,1.81,0,0,0,.34.15l-.33.61,1.11-.65h0A1.12,1.12,0,0,0,68.87,259.66Z"/><path class="cls-73" d="M67.73,260.33c0,1-.72,1.44-1.61.93a3.55,3.55,0,0,1-1.61-2.78c0-1,.72-1.44,1.61-.93A3.55,3.55,0,0,1,67.73,260.33Z"/><path class="cls-67" d="M67,259.94c0,.59-.41.83-.92.53a2,2,0,0,1-.92-1.6c0-.59.41-.83.92-.53A2,2,0,0,1,67,259.94Z"/><path class="cls-74" d="M35,238.85a3.55,3.55,0,0,0-1.61-2.78,1.13,1.13,0,0,0-1.14-.11h0l-1.14.67.7,0a1.84,1.84,0,0,0,0,.35,3.55,3.55,0,0,0,1.61,2.78,1.81,1.81,0,0,0,.34.15l-.33.61,1.11-.65h0A1.12,1.12,0,0,0,35,238.85Z"/><path class="cls-75" d="M33.86,239.52c0,1-.72,1.44-1.61.93a3.55,3.55,0,0,1-1.61-2.78c0-1,.72-1.44,1.61-.93A3.55,3.55,0,0,1,33.86,239.52Z"/><path class="cls-67" d="M33.18,239.13c0,.59-.41.83-.92.53a2,2,0,0,1-.92-1.6c0-.59.41-.83.92-.53A2,2,0,0,1,33.18,239.13Z"/><path class="cls-76" d="M35,319a3.55,3.55,0,0,0-1.61-2.78,1.12,1.12,0,0,0-1.14-.11h0l-1.14.67.7,0a1.84,1.84,0,0,0,0,.35,3.55,3.55,0,0,0,1.61,2.78,1.81,1.81,0,0,0,.34.15l-.33.61,1.11-.65h0A1.12,1.12,0,0,0,35,319Z"/><path class="cls-77" d="M33.86,319.66c0,1-.72,1.44-1.61.93a3.55,3.55,0,0,1-1.61-2.78c0-1,.72-1.44,1.61-.93A3.55,3.55,0,0,1,33.86,319.66Z"/><path class="cls-67" d="M33.18,319.27c0,.59-.41.83-.92.53a2,2,0,0,1-.92-1.6c0-.59.41-.83.92-.53A2,2,0,0,1,33.18,319.27Z"/><polygon class="cls-39" points="44.05 263.71 35.15 258.57 35.15 256.61 44.05 261.75 44.05 263.71"/><polygon class="cls-39" points="48.61 266.34 45.41 264.49 45.41 262.54 48.61 264.39 48.61 266.34"/><polygon class="cls-39" points="52.15 268.38 49.97 267.13 49.97 265.17 52.15 266.43 52.15 268.38"/><polygon class="cls-39" points="40 265.83 35.15 263.03 35.15 261.08 40 263.88 40 265.83"/><polygon class="cls-39" points="47.3 270.05 41.36 266.62 41.36 264.66 47.3 268.09 47.3 270.05"/><polygon class="cls-39" points="50.84 272.09 48.66 270.83 48.66 268.88 50.84 270.14 50.84 272.09"/><polygon class="cls-39" points="54.2 274.03 52.02 272.78 52.02 270.82 54.2 272.08 54.2 274.03"/><polygon class="cls-39" points="38.66 269.52 35.15 267.5 35.15 265.54 38.66 267.57 38.66 269.52"/><polygon class="cls-39" points="41.22 271 40.02 270.31 40.02 268.35 41.22 269.05 41.22 271"/><polygon class="cls-39" points="44.75 273.04 42.58 271.79 42.58 269.83 44.75 271.09 44.75 273.04"/><polygon class="cls-39" points="48.1 279.44 35.15 271.96 35.15 270.01 48.1 277.48 48.1 279.44"/><polygon class="cls-39" points="52.66 282.07 49.46 280.22 49.46 278.27 52.66 280.12 52.66 282.07"/><polygon class="cls-39" points="38.66 278.45 35.15 276.43 35.15 274.47 38.66 276.5 38.66 278.45"/><polygon class="cls-39" points="46.89 283.21 40.02 279.24 40.02 277.28 46.89 281.25 46.89 283.21"/><polygon class="cls-39" points="50.43 285.25 48.25 283.99 48.25 282.04 50.43 283.29 50.43 285.25"/><polygon class="cls-39" points="42.33 285.04 35.15 280.89 35.15 278.94 42.33 283.08 42.33 285.04"/><polygon class="cls-39" points="48.88 288.82 43.69 285.82 43.69 283.87 48.88 286.86 48.88 288.82"/><polygon class="cls-39" points="53.75 291.63 50.24 289.6 50.24 287.65 53.75 289.67 53.75 291.63"/><polygon class="cls-39" points="37.57 286.75 35.15 285.36 35.15 283.4 37.57 284.8 37.57 286.75"/><polygon class="cls-39" points="42.14 289.39 38.93 287.54 38.93 285.59 42.14 287.44 42.14 289.39"/><polygon class="cls-39" points="48.66 293.16 43.5 290.18 43.5 288.22 48.66 291.2 48.66 293.16"/><polygon class="cls-39" points="42.58 294.11 35.15 289.82 35.15 287.87 42.58 292.15 42.58 294.11"/><polygon class="cls-39" points="50.89 298.91 43.94 294.89 43.94 292.94 50.89 296.96 50.89 298.91"/><polygon class="cls-39" points="54.43 300.95 52.25 299.69 52.25 297.74 54.43 299 54.43 300.95"/><polygon class="cls-39" points="57.83 302.91 55.65 301.65 55.65 299.7 57.83 300.96 57.83 302.91"/><polygon class="cls-39" points="39.6 296.85 35.15 294.28 35.15 292.33 39.6 294.9 39.6 296.85"/><polygon class="cls-39" points="58.21 271.88 64.38 275.44 64.38 273.49 58.21 269.93 58.21 271.88"/><polygon class="cls-39" points="59.53 277.11 64.38 279.91 64.38 277.95 59.53 275.15 59.53 277.11"/><polygon class="cls-39" points="60.87 282.35 64.38 284.37 64.38 282.42 60.87 280.39 60.87 282.35"/><polygon class="cls-39" points="59.27 285.89 64.38 288.84 64.38 286.88 59.27 283.94 59.27 285.89"/><polygon class="cls-39" points="60.87 291.28 64.38 293.3 64.38 291.35 60.87 289.32 60.87 291.28"/><polygon class="cls-39" points="59.93 295.2 64.38 297.77 64.38 295.81 59.93 293.24 59.93 295.2"/><polygon class="cls-39" points="61.95 300.83 64.38 302.23 64.38 300.28 61.95 298.88 61.95 300.83"/><polygon class="cls-39" points="59.68 303.98 64.38 306.7 64.38 304.74 59.68 302.03 59.68 303.98"/><polygon class="cls-39" points="59.93 308.59 64.38 311.16 64.38 309.21 59.93 306.64 59.93 308.59"/><polygon class="cls-39" points="42.85 298.73 40.96 297.64 40.96 295.68 42.85 296.78 42.85 298.73"/><polygon class="cls-39" points="48.47 301.98 44.21 299.52 44.21 297.56 48.47 300.02 48.47 301.98"/><polygon class="cls-39" points="51.99 316.99 44.8 312.84 44.8 310.89 51.99 315.04 51.99 316.99"/><polygon class="cls-39" points="56.91 319.83 54.08 318.2 54.08 316.25 56.91 317.88 56.91 319.83"/><polygon class="cls-27" points="70.47 132.6 30.09 109.29 70.47 85.98 110.85 109.29 70.47 132.6"/><polygon class="cls-28" points="70.47 222.09 30.09 198.77 70.47 175.46 110.85 198.77 70.47 222.09"/><polygon class="cls-78" points="110.85 109.29 110.85 198.77 70.47 222.09 70.47 132.6 110.85 109.29"/><polygon class="cls-59" points="30.09 109.29 30.09 198.77 70.47 222.09 70.47 132.6 30.09 109.29"/><g class="cls-60"><polygon class="cls-61" points="32.83 115.23 32.83 195.66 67.73 215.81 67.73 135.38 32.83 115.23"/></g><polygon class="cls-61" points="104.79 130.91 104.79 133.28 76.53 149.59 76.53 147.23 104.79 130.91"/><polygon class="cls-61" points="104.79 140.91 104.79 143.28 76.53 159.59 76.53 157.23 104.79 140.91"/><polygon class="cls-61" points="104.79 150.91 104.79 153.28 76.53 169.59 76.53 167.23 104.79 150.91"/><polygon class="cls-61" points="104.79 160.91 104.79 163.28 76.53 179.59 76.53 177.23 104.79 160.91"/><polygon class="cls-61" points="104.79 170.91 104.79 173.28 76.53 189.6 76.53 187.23 104.79 170.91"/><polygon class="cls-61" points="104.79 180.91 104.79 183.28 76.53 199.6 76.53 197.23 104.79 180.91"/><g class="cls-79"><polygon class="cls-80" points="70.47 126.47 59.86 126.47 30.09 109.29 62.48 90.59 70.47 90.59 70.47 126.47"/></g><polygon class="cls-81" points="70.47 124.42 41.17 107.5 70.47 90.59 99.77 107.5 70.47 124.42"/><polygon class="cls-82" points="99.77 107.5 99.77 109.56 70.47 126.47 70.47 124.42 99.77 107.5"/><polygon class="cls-83" points="41.17 107.5 41.17 109.56 70.47 126.47 70.47 124.42 41.17 107.5"/><polygon class="cls-67" points="59.11 107.77 57.81 107.02 57.92 106.42 69.95 99.41 71.62 100.21 71.31 100.73 59.11 107.77"/><polygon class="cls-84" points="70.02 99.98 71.31 100.73 72.15 100.25 70.02 99.01 56.98 106.54 57.81 107.03 70.02 99.98"/><polygon class="cls-67" points="63.05 110.04 61.75 109.29 61.85 108.68 73.89 101.68 75.56 102.47 75.25 102.99 63.05 110.04"/><polygon class="cls-85" points="73.95 102.25 75.25 102.99 76.09 102.51 73.95 101.28 60.91 108.81 61.75 109.29 73.95 102.25"/><polygon class="cls-67" points="66.98 112.31 65.69 111.56 65.79 110.95 77.83 103.95 79.5 104.74 79.19 105.26 66.98 112.31"/><polygon class="cls-86" points="77.89 104.51 79.19 105.26 80.03 104.78 77.89 103.55 64.85 111.08 65.69 111.56 77.89 104.51"/><polygon class="cls-67" points="70.92 114.57 69.62 113.83 69.73 113.22 81.77 106.21 83.44 107.01 83.13 107.53 70.92 114.57"/><polygon class="cls-87" points="81.83 106.78 83.13 107.53 83.96 107.05 81.83 105.81 68.79 113.34 69.63 113.83 81.83 106.78"/><g class="cls-60"><polygon class="cls-61" points="30.09 184.63 70.47 160.25 70.47 132.6 30.09 109.29 30.09 184.63"/></g><path class="cls-88" d="M68.87,136.63a3.55,3.55,0,0,0-1.61-2.78,1.13,1.13,0,0,0-1.14-.11h0L65,134.4l.7,0a1.83,1.83,0,0,0,0,.35,3.55,3.55,0,0,0,1.61,2.78,1.81,1.81,0,0,0,.34.15l-.33.61,1.11-.65h0A1.12,1.12,0,0,0,68.87,136.63Z"/><path class="cls-89" d="M67.73,137.3c0,1-.72,1.44-1.61.93a3.55,3.55,0,0,1-1.61-2.78c0-1,.72-1.44,1.61-.93A3.55,3.55,0,0,1,67.73,137.3Z"/><path class="cls-67" d="M67,136.9c0,.59-.41.83-.92.53a2,2,0,0,1-.92-1.6c0-.59.41-.83.92-.53A2,2,0,0,1,67,136.9Z"/><path class="cls-90" d="M35,115.82A3.55,3.55,0,0,0,33.4,113a1.12,1.12,0,0,0-1.14-.11h0l-1.14.67.7,0a1.84,1.84,0,0,0,0,.35,3.55,3.55,0,0,0,1.61,2.78,1.8,1.8,0,0,0,.34.15l-.33.61,1.11-.65h0A1.12,1.12,0,0,0,35,115.82Z"/><path class="cls-91" d="M33.86,116.49c0,1-.72,1.44-1.61.93a3.55,3.55,0,0,1-1.61-2.78c0-1,.72-1.44,1.61-.93A3.55,3.55,0,0,1,33.86,116.49Z"/><path class="cls-67" d="M33.18,116.09c0,.59-.41.83-.92.53a2,2,0,0,1-.92-1.6c0-.59.41-.83.92-.53A2,2,0,0,1,33.18,116.09Z"/><path class="cls-92" d="M68.87,216.77A3.55,3.55,0,0,0,67.26,214a1.12,1.12,0,0,0-1.14-.11h0l-1.14.67.7,0a1.83,1.83,0,0,0,0,.35,3.55,3.55,0,0,0,1.61,2.78,1.8,1.8,0,0,0,.34.15l-.33.61,1.11-.65h0A1.12,1.12,0,0,0,68.87,216.77Z"/><path class="cls-93" d="M67.73,217.44c0,1-.72,1.44-1.61.93a3.55,3.55,0,0,1-1.61-2.78c0-1,.72-1.44,1.61-.93A3.55,3.55,0,0,1,67.73,217.44Z"/><path class="cls-67" d="M67,217c0,.59-.41.83-.92.53a2,2,0,0,1-.92-1.6c0-.59.41-.83.92-.53A2,2,0,0,1,67,217Z"/><path class="cls-94" d="M35,196a3.55,3.55,0,0,0-1.61-2.78,1.13,1.13,0,0,0-1.14-.11h0l-1.14.67.7,0a1.84,1.84,0,0,0,0,.35,3.55,3.55,0,0,0,1.61,2.78,1.81,1.81,0,0,0,.34.15l-.33.61,1.11-.65h0A1.12,1.12,0,0,0,35,196Z"/><path class="cls-95" d="M33.86,196.63c0,1-.72,1.44-1.61.93a3.55,3.55,0,0,1-1.61-2.78c0-1,.72-1.44,1.61-.93A3.55,3.55,0,0,1,33.86,196.63Z"/><path class="cls-67" d="M33.18,196.23c0,.59-.41.83-.92.53a2,2,0,0,1-.92-1.6c0-.59.41-.83.92-.53A2,2,0,0,1,33.18,196.23Z"/><polygon class="cls-39" points="44.05 140.67 35.15 135.53 35.15 133.58 44.05 138.72 44.05 140.67"/><polygon class="cls-39" points="48.61 143.31 45.41 141.46 45.41 139.5 48.61 141.35 48.61 143.31"/><polygon class="cls-39" points="52.15 145.35 49.97 144.09 49.97 142.14 52.15 143.39 52.15 145.35"/><polygon class="cls-39" points="40 142.8 35.15 140 35.15 138.04 40 140.84 40 142.8"/><polygon class="cls-39" points="47.3 147.01 41.36 143.58 41.36 141.63 47.3 145.06 47.3 147.01"/><polygon class="cls-39" points="50.84 149.05 48.66 147.8 48.66 145.84 50.84 147.1 50.84 149.05"/><polygon class="cls-39" points="54.2 151 52.02 149.74 52.02 147.79 54.2 149.04 54.2 151"/><polygon class="cls-39" points="38.66 146.49 35.15 144.46 35.15 142.51 38.66 144.53 38.66 146.49"/><polygon class="cls-39" points="41.22 147.96 40.02 147.27 40.02 145.32 41.22 146.01 41.22 147.96"/><polygon class="cls-39" points="44.75 150.01 42.58 148.75 42.58 146.79 44.75 148.05 44.75 150.01"/><polygon class="cls-39" points="48.1 156.4 35.15 148.93 35.15 146.97 48.1 154.45 48.1 156.4"/><polygon class="cls-39" points="52.66 159.04 49.46 157.19 49.46 155.23 52.66 157.08 52.66 159.04"/><polygon class="cls-39" points="38.66 155.42 35.15 153.39 35.15 151.44 38.66 153.46 38.66 155.42"/><polygon class="cls-39" points="46.89 160.17 40.02 156.2 40.02 154.25 46.89 158.22 46.89 160.17"/><polygon class="cls-39" points="50.43 162.21 48.25 160.95 48.25 159 50.43 160.26 50.43 162.21"/><polygon class="cls-39" points="42.33 162 35.15 157.85 35.15 155.9 42.33 160.04 42.33 162"/><polygon class="cls-39" points="48.88 165.78 43.69 162.78 43.69 160.83 48.88 163.83 48.88 165.78"/><polygon class="cls-39" points="53.75 168.59 50.24 166.57 50.24 164.61 53.75 166.64 53.75 168.59"/><polygon class="cls-39" points="37.57 163.72 35.15 162.32 35.15 160.37 37.57 161.76 37.57 163.72"/><polygon class="cls-39" points="42.14 166.35 38.93 164.5 38.93 162.55 42.14 164.4 42.14 166.35"/><polygon class="cls-39" points="48.66 170.12 43.5 167.14 43.5 165.18 48.66 168.16 48.66 170.12"/><polygon class="cls-39" points="42.58 171.07 35.15 166.78 35.15 164.83 42.58 169.12 42.58 171.07"/><polygon class="cls-39" points="50.89 175.87 43.94 171.86 43.94 169.9 50.89 173.92 50.89 175.87"/><polygon class="cls-39" points="54.43 177.92 52.25 176.66 52.25 174.71 54.43 175.96 54.43 177.92"/><polygon class="cls-39" points="57.83 179.88 55.65 178.62 55.65 176.66 57.83 177.92 57.83 179.88"/><polygon class="cls-39" points="39.6 173.82 35.15 171.25 35.15 169.29 39.6 171.86 39.6 173.82"/><polygon class="cls-39" points="58.21 148.84 64.38 152.41 64.38 150.45 58.21 146.89 58.21 148.84"/><polygon class="cls-39" points="59.53 154.07 64.38 156.87 64.38 154.92 59.53 152.12 59.53 154.07"/><polygon class="cls-39" points="60.87 159.31 64.38 161.34 64.38 159.38 60.87 157.36 60.87 159.31"/><polygon class="cls-39" points="59.27 162.85 64.38 165.8 64.38 163.85 59.27 160.9 59.27 162.85"/><polygon class="cls-39" points="60.87 168.24 64.38 170.27 64.38 168.31 60.87 166.29 60.87 168.24"/><polygon class="cls-39" points="59.93 172.16 64.38 174.73 64.38 172.78 59.93 170.21 59.93 172.16"/><polygon class="cls-39" points="61.95 177.79 64.38 179.19 64.38 177.24 61.95 175.84 61.95 177.79"/><polygon class="cls-39" points="59.68 180.95 64.38 183.66 64.38 181.71 59.68 178.99 59.68 180.95"/><polygon class="cls-39" points="59.93 185.56 64.38 188.12 64.38 186.17 59.93 183.6 59.93 185.56"/><polygon class="cls-39" points="42.85 175.69 40.96 174.6 40.96 172.65 42.85 173.74 42.85 175.69"/><polygon class="cls-39" points="48.47 178.94 44.21 176.48 44.21 174.53 48.47 176.98 48.47 178.94"/><polygon class="cls-39" points="51.99 193.96 44.8 189.81 44.8 187.85 51.99 192 51.99 193.96"/><polygon class="cls-39" points="56.91 196.8 54.08 195.16 54.08 193.21 56.91 194.84 56.91 196.8"/><g class="cls-96"><path class="cls-97" d="M115.22,179.82l-.32-.19c-1.19-.69-2.15,0-2.15,1.63v93a5.15,5.15,0,0,0,2.15,4.11l.32.19c1.19.69,2.15,0,2.15-1.63v-93A5.15,5.15,0,0,0,115.22,179.82Z"/></g><g class="cls-98"><path class="cls-99" d="M123.89,199.65l-.32-.19c-1.19-.69-2.15,0-2.15,1.63v78.22a5.15,5.15,0,0,0,2.15,4.11l.32.19c1.19.69,2.15,0,2.15-1.63V203.76A5.15,5.15,0,0,0,123.89,199.65Z"/></g><g class="cls-100"><path class="cls-101" d="M132.56,223.07l-.32-.19c-1.19-.69-2.15,0-2.15,1.63v29.31a5.15,5.15,0,0,0,2.15,4.11l.32.19c1.19.69,2.15,0,2.15-1.63V227.18A5.15,5.15,0,0,0,132.56,223.07Z"/></g><g class="cls-102"><path class="cls-103" d="M141.15,235.93l-.32-.19c-1.19-.69-2.15,0-2.15,1.63v11.24a5.15,5.15,0,0,0,2.15,4.11l.32.19c1.19.69,2.15,0,2.15-1.63V240A5.15,5.15,0,0,0,141.15,235.93Z"/></g><g class="cls-104"><path class="cls-105" d="M25.72,179.82l.32-.19c1.19-.69,2.15,0,2.15,1.63v93A5.15,5.15,0,0,1,26,278.42l-.32.19c-1.19.69-2.15,0-2.15-1.63v-93A5.15,5.15,0,0,1,25.72,179.82Z"/></g><g class="cls-106"><path class="cls-107" d="M17.05,199.65l.32-.19c1.19-.69,2.15,0,2.15,1.63v78.22a5.15,5.15,0,0,1-2.15,4.11l-.32.19c-1.19.69-2.15,0-2.15-1.63V203.76A5.15,5.15,0,0,1,17.05,199.65Z"/></g><g class="cls-108"><path class="cls-109" d="M8.38,223.07l.32-.19c1.19-.69,2.15,0,2.15,1.63v29.31a5.15,5.15,0,0,1-2.15,4.11l-.32.19c-1.19.69-2.15,0-2.15-1.63V227.18A5.15,5.15,0,0,1,8.38,223.07Z"/></g><g class="cls-110"><path class="cls-111" d="M-.21,235.93l.32-.19c1.19-.69,2.15,0,2.15,1.63v11.24a5.15,5.15,0,0,1-2.15,4.11l-.32.19c-1.19.69-2.15,0-2.15-1.63V240A5.15,5.15,0,0,1-.21,235.93Z"/></g></g></g></g></svg>