<svg xmlns="http://www.w3.org/2000/svg" xmlns:xlink="http://www.w3.org/1999/xlink" viewBox="0 0 450 300"><defs><style>.cls-1{mask:url(#mask);filter:url(#luminosity-noclip-12);}.cls-10,.cls-12,.cls-14,.cls-16,.cls-18,.cls-2,.cls-20,.cls-22,.cls-4,.cls-6,.cls-8{mix-blend-mode:multiply;}.cls-2{fill:url(#_ÂÁ_Ï_ÌÌ_È_ËÂÌÚ_117);}.cls-3{mask:url(#mask-2);filter:url(#luminosity-noclip-17);}.cls-4{fill:url(#_ÂÁ_Ï_ÌÌ_È_ËÂÌÚ_106);}.cls-5{mask:url(#mask-3);filter:url(#luminosity-noclip-18);}.cls-6{fill:url(#_ÂÁ_Ï_ÌÌ_È_ËÂÌÚ_106-2);}.cls-7{mask:url(#mask-4);filter:url(#luminosity-noclip-19);}.cls-8{fill:url(#_ÂÁ_Ï_ÌÌ_È_ËÂÌÚ_106-3);}.cls-9{mask:url(#mask-5);filter:url(#luminosity-noclip-20);}.cls-10{fill:url(#_ÂÁ_Ï_ÌÌ_È_ËÂÌÚ_106-4);}.cls-11{mask:url(#mask-6);filter:url(#luminosity-noclip-21);}.cls-12{fill:url(#_ÂÁ_Ï_ÌÌ_È_ËÂÌÚ_106-5);}.cls-13,.cls-17{mask:url(#mask-7);}.cls-13{filter:url(#luminosity-noclip-13);}.cls-14{fill:url(#_ÂÁ_Ï_ÌÌ_È_ËÂÌÚ_114);}.cls-15{mask:url(#mask-8);filter:url(#luminosity-noclip-22);}.cls-16{fill:url(#_ÂÁ_Ï_ÌÌ_È_ËÂÌÚ_106-6);}.cls-17{filter:url(#luminosity-noclip-14);}.cls-18{fill:url(#_ÂÁ_Ï_ÌÌ_È_ËÂÌÚ_114-2);}.cls-19{mask:url(#mask-10);filter:url(#luminosity-noclip-15);}.cls-20{fill:url(#_ÂÁ_Ï_ÌÌ_È_ËÂÌÚ_106-7);}.cls-21{mask:url(#mask-11);filter:url(#luminosity-noclip-16);}.cls-22{fill:url(#_ÂÁ_Ï_ÌÌ_È_ËÂÌÚ_106-8);}.cls-23{fill:none;}.cls-24{isolation:isolate;}.cls-25,.cls-34,.cls-37,.cls-39,.cls-42,.cls-43,.cls-53{fill:#2bd978;}.cls-25,.cls-46{mix-blend-mode:lighten;}.cls-26{fill:url(#_ÂÁ_Ï_ÌÌ_È_ËÂÌÚ_4);}.cls-27{fill:#f2f2f0;}.cls-28{fill:#fff;}.cls-29{fill:#0f054c;}.cls-30,.cls-31,.cls-32,.cls-33,.cls-34,.cls-35,.cls-36,.cls-49{opacity:0.5;}.cls-30{fill:url(#_ÂÁ_Ï_ÌÌ_È_ËÂÌÚ_5);}.cls-31{fill:url(#_ÂÁ_Ï_ÌÌ_È_ËÂÌÚ_5-2);}.cls-32{fill:url(#_ÂÁ_Ï_ÌÌ_È_ËÂÌÚ_5-3);}.cls-33{fill:url(#_ÂÁ_Ï_ÌÌ_È_ËÂÌÚ_5-4);}.cls-35{fill:url(#_ÂÁ_Ï_ÌÌ_È_ËÂÌÚ_5-5);}.cls-36{fill:url(#_ÂÁ_Ï_ÌÌ_È_ËÂÌÚ_5-6);}.cls-37{opacity:0.8;}.cls-38{opacity:0.1;}.cls-40{fill:#41e583;}.cls-41{fill:#03002d;}.cls-41,.cls-42,.cls-45{opacity:0.4;}.cls-43{opacity:0.2;}.cls-44{fill:#25bf63;}.cls-44,.cls-53{opacity:0.7;}.cls-45,.cls-46{fill:#42e8e0;}.cls-47{fill:url(#_ÂÁ_Ï_ÌÌ_È_ËÂÌÚ_9);}.cls-48{fill:url(#_ÂÁ_Ï_ÌÌ_È_ËÂÌÚ_8);}.cls-49{fill:url(#_ÂÁ_Ï_ÌÌ_È_ËÂÌÚ_7);}.cls-50{opacity:0.11;}.cls-51{fill:url(#_ÂÁ_Ï_ÌÌ_È_ËÂÌÚ_7-2);}.cls-52{fill:url(#_ÂÁ_Ï_ÌÌ_È_ËÂÌÚ_7-3);}.cls-54{fill:#424240;}.cls-101,.cls-103,.cls-105,.cls-107,.cls-109,.cls-111,.cls-113,.cls-54,.cls-56,.cls-99{opacity:0.66;}.cls-55{mask:url(#mask-12);}.cls-56{fill:url(#_ÂÁ_Ï_ÌÌ_È_ËÂÌÚ_19);}.cls-57{clip-path:url(#clip-path);}.cls-58{fill:url(#_ÂÁ_Ï_ÌÌ_È_ËÂÌÚ_17);}.cls-59{fill:#1e1e1e;}.cls-60{opacity:0.51;}.cls-61{fill:#3a3a3a;}.cls-62{mask:url(#mask-13);}.cls-63,.cls-82{opacity:0.78;}.cls-63{fill:url(#_ÂÁ_Ï_ÌÌ_È_ËÂÌÚ_18);}.cls-64{fill:url(#_ÂÁ_Ï_ÌÌ_È_ËÂÌÚ_17-2);}.cls-65{fill:url(#_ÂÁ_Ï_ÌÌ_È_ËÂÌÚ_17-3);}.cls-66{fill:url(#_ÂÁ_Ï_ÌÌ_È_ËÂÌÚ_16);}.cls-67{fill:#232323;}.cls-68{fill:url(#_ÂÁ_Ï_ÌÌ_È_ËÂÌÚ_16-2);}.cls-69{fill:url(#_ÂÁ_Ï_ÌÌ_È_ËÂÌÚ_16-3);}.cls-70{fill:url(#_ÂÁ_Ï_ÌÌ_È_ËÂÌÚ_16-4);}.cls-71{fill:url(#_ÂÁ_Ï_ÌÌ_È_ËÂÌÚ_16-5);}.cls-72{fill:url(#_ÂÁ_Ï_ÌÌ_È_ËÂÌÚ_17-4);}.cls-73{fill:url(#_ÂÁ_Ï_ÌÌ_È_ËÂÌÚ_16-6);}.cls-74{fill:url(#_ÂÁ_Ï_ÌÌ_È_ËÂÌÚ_17-5);}.cls-75{fill:url(#_ÂÁ_Ï_ÌÌ_È_ËÂÌÚ_16-7);}.cls-76{fill:url(#_ÂÁ_Ï_ÌÌ_È_ËÂÌÚ_17-6);}.cls-77{fill:url(#_ÂÁ_Ï_ÌÌ_È_ËÂÌÚ_16-8);}.cls-78{fill:url(#_ÂÁ_Ï_ÌÌ_È_ËÂÌÚ_17-7);}.cls-79{fill:url(#_ÂÁ_Ï_ÌÌ_È_ËÂÌÚ_16-9);}.cls-80{fill:url(#_ÂÁ_Ï_ÌÌ_È_ËÂÌÚ_17-8);}.cls-81{mask:url(#mask-14);}.cls-82{fill:url(#_ÂÁ_Ï_ÌÌ_È_ËÂÌÚ_18-2);}.cls-83{fill:url(#_ÂÁ_Ï_ÌÌ_È_ËÂÌÚ_17-9);}.cls-84{fill:url(#_ÂÁ_Ï_ÌÌ_È_ËÂÌÚ_17-10);}.cls-85{fill:url(#_ÂÁ_Ï_ÌÌ_È_ËÂÌÚ_16-10);}.cls-86{fill:url(#_ÂÁ_Ï_ÌÌ_È_ËÂÌÚ_16-11);}.cls-87{fill:url(#_ÂÁ_Ï_ÌÌ_È_ËÂÌÚ_16-12);}.cls-88{fill:url(#_ÂÁ_Ï_ÌÌ_È_ËÂÌÚ_16-13);}.cls-89{fill:url(#_ÂÁ_Ï_ÌÌ_È_ËÂÌÚ_16-14);}.cls-90{fill:url(#_ÂÁ_Ï_ÌÌ_È_ËÂÌÚ_17-11);}.cls-91{fill:url(#_ÂÁ_Ï_ÌÌ_È_ËÂÌÚ_16-15);}.cls-92{fill:url(#_ÂÁ_Ï_ÌÌ_È_ËÂÌÚ_17-12);}.cls-93{fill:url(#_ÂÁ_Ï_ÌÌ_È_ËÂÌÚ_16-16);}.cls-94{fill:url(#_ÂÁ_Ï_ÌÌ_È_ËÂÌÚ_17-13);}.cls-95{fill:url(#_ÂÁ_Ï_ÌÌ_È_ËÂÌÚ_16-17);}.cls-96{fill:url(#_ÂÁ_Ï_ÌÌ_È_ËÂÌÚ_17-14);}.cls-97{fill:url(#_ÂÁ_Ï_ÌÌ_È_ËÂÌÚ_16-18);}.cls-98{mask:url(#mask-15);}.cls-99{fill:url(#_ÂÁ_Ï_ÌÌ_È_ËÂÌÚ_10);}.cls-100{mask:url(#mask-16);}.cls-101{fill:url(#_ÂÁ_Ï_ÌÌ_È_ËÂÌÚ_10-2);}.cls-102{mask:url(#mask-17);}.cls-103{fill:url(#_ÂÁ_Ï_ÌÌ_È_ËÂÌÚ_10-3);}.cls-104{mask:url(#mask-18);}.cls-105{fill:url(#_ÂÁ_Ï_ÌÌ_È_ËÂÌÚ_10-4);}.cls-106{mask:url(#mask-19);}.cls-107{fill:url(#_ÂÁ_Ï_ÌÌ_È_ËÂÌÚ_10-5);}.cls-108{mask:url(#mask-20);}.cls-109{fill:url(#_ÂÁ_Ï_ÌÌ_È_ËÂÌÚ_10-6);}.cls-110{mask:url(#mask-21);}.cls-111{fill:url(#_ÂÁ_Ï_ÌÌ_È_ËÂÌÚ_10-7);}.cls-112{mask:url(#mask-22);}.cls-113{fill:url(#_ÂÁ_Ï_ÌÌ_È_ËÂÌÚ_10-8);}.cls-114{filter:url(#luminosity-noclip-11);}.cls-115{filter:url(#luminosity-noclip-10);}.cls-116{filter:url(#luminosity-noclip-8);}.cls-117{filter:url(#luminosity-noclip-7);}.cls-118{filter:url(#luminosity-noclip-6);}.cls-119{filter:url(#luminosity-noclip-5);}.cls-120{filter:url(#luminosity-noclip-4);}.cls-121{filter:url(#luminosity-noclip-3);}.cls-122{filter:url(#luminosity-noclip-2);}.cls-123{filter:url(#luminosity-noclip);}</style><filter id="luminosity-noclip" x="2.56" y="-8342" width="132.82" height="32766" filterUnits="userSpaceOnUse" color-interpolation-filters="sRGB"><feFlood flood-color="#fff" result="bg"/><feBlend in="SourceGraphic" in2="bg"/></filter><mask id="mask" x="2.56" y="-8342" width="132.82" height="32766" maskUnits="userSpaceOnUse"><g class="cls-123"/></mask><radialGradient id="_ÂÁ_Ï_ÌÌ_È_ËÂÌÚ_117" cx="68.97" cy="209.67" r="54.22" gradientUnits="userSpaceOnUse"><stop offset="0" stop-color="#e6e6e6"/><stop offset="0.1" stop-color="#e0e0e0"/><stop offset="0.23" stop-color="#cdcdcd"/><stop offset="0.39" stop-color="#afafaf"/><stop offset="0.57" stop-color="#868686"/><stop offset="0.75" stop-color="#505050"/><stop offset="0.95" stop-color="#101010"/><stop offset="1"/></radialGradient><filter id="luminosity-noclip-2" x="128.58" y="-8342" width="4.62" height="32766" filterUnits="userSpaceOnUse" color-interpolation-filters="sRGB"><feFlood flood-color="#fff" result="bg"/><feBlend in="SourceGraphic" in2="bg"/></filter><mask id="mask-2" x="128.58" y="-8342" width="4.62" height="32766" maskUnits="userSpaceOnUse"><g class="cls-122"/></mask><linearGradient id="_ÂÁ_Ï_ÌÌ_È_ËÂÌÚ_106" x1="-682.28" y1="1229.15" x2="-682.28" y2="1198.8" gradientTransform="matrix(0.87, 0.5, 0, 1.15, 721.75, -884.64)" gradientUnits="userSpaceOnUse"><stop offset="0"/><stop offset="0.06" stop-color="#2a2a2a"/><stop offset="0.15" stop-color="#626262"/><stop offset="0.23" stop-color="#929292"/><stop offset="0.31" stop-color="#b6b6b6"/><stop offset="0.39" stop-color="#d1d1d1"/><stop offset="0.45" stop-color="#e0e0e0"/><stop offset="0.51" stop-color="#e6e6e6"/><stop offset="0.55" stop-color="#dedede"/><stop offset="0.62" stop-color="#c9c9c9"/><stop offset="0.71" stop-color="#a7a7a7"/><stop offset="0.8" stop-color="#787878"/><stop offset="0.91" stop-color="#3b3b3b"/><stop offset="1"/></linearGradient><filter id="luminosity-noclip-3" x="137.17" y="-8342" width="4.62" height="32766" filterUnits="userSpaceOnUse" color-interpolation-filters="sRGB"><feFlood flood-color="#fff" result="bg"/><feBlend in="SourceGraphic" in2="bg"/></filter><mask id="mask-3" x="137.17" y="-8342" width="4.62" height="32766" maskUnits="userSpaceOnUse"><g class="cls-121"/></mask><linearGradient id="_ÂÁ_Ï_ÌÌ_È_ËÂÌÚ_106-2" x1="-672.36" y1="1220.34" x2="-672.36" y2="1205.64" xlink:href="#_ÂÁ_Ï_ÌÌ_È_ËÂÌÚ_106"/><filter id="luminosity-noclip-4" x="22.07" y="-8342" width="4.62" height="32766" filterUnits="userSpaceOnUse" color-interpolation-filters="sRGB"><feFlood flood-color="#fff" result="bg"/><feBlend in="SourceGraphic" in2="bg"/></filter><mask id="mask-4" x="22.07" y="-8342" width="4.62" height="32766" maskUnits="userSpaceOnUse"><g class="cls-120"/></mask><linearGradient id="_ÂÁ_Ï_ÌÌ_È_ËÂÌÚ_106-3" x1="-1879.65" y1="1765.37" x2="-1879.65" y2="1679.82" gradientTransform="matrix(-0.87, 0.5, 0, 1.15, -1603.4, -884.64)" xlink:href="#_ÂÁ_Ï_ÌÌ_È_ËÂÌÚ_106"/><filter id="luminosity-noclip-5" x="13.4" y="-8342" width="4.62" height="32766" filterUnits="userSpaceOnUse" color-interpolation-filters="sRGB"><feFlood flood-color="#fff" result="bg"/><feBlend in="SourceGraphic" in2="bg"/></filter><mask id="mask-5" x="13.4" y="-8342" width="4.62" height="32766" maskUnits="userSpaceOnUse"><g class="cls-119"/></mask><linearGradient id="_ÂÁ_Ï_ÌÌ_È_ËÂÌÚ_106-4" x1="-1869.64" y1="1765.37" x2="-1869.64" y2="1692.66" gradientTransform="matrix(-0.87, 0.5, 0, 1.15, -1603.4, -884.64)" xlink:href="#_ÂÁ_Ï_ÌÌ_È_ËÂÌÚ_106"/><filter id="luminosity-noclip-6" x="4.73" y="-8342" width="4.62" height="32766" filterUnits="userSpaceOnUse" color-interpolation-filters="sRGB"><feFlood flood-color="#fff" result="bg"/><feBlend in="SourceGraphic" in2="bg"/></filter><mask id="mask-6" x="4.73" y="-8342" width="4.62" height="32766" maskUnits="userSpaceOnUse"><g class="cls-118"/></mask><linearGradient id="_ÂÁ_Ï_ÌÌ_È_ËÂÌÚ_106-5" x1="-1859.64" y1="1738.96" x2="-1859.64" y2="1708.61" gradientTransform="matrix(-0.87, 0.5, 0, 1.15, -1603.4, -884.64)" xlink:href="#_ÂÁ_Ï_ÌÌ_È_ËÂÌÚ_106"/><filter id="luminosity-noclip-7" x="28.59" y="-8342" width="40.38" height="32766" filterUnits="userSpaceOnUse" color-interpolation-filters="sRGB"><feFlood flood-color="#fff" result="bg"/><feBlend in="SourceGraphic" in2="bg"/></filter><mask id="mask-7" x="28.59" y="-8342" width="40.38" height="32766" maskUnits="userSpaceOnUse"><g class="cls-117"/></mask><linearGradient id="_ÂÁ_Ï_ÌÌ_È_ËÂÌÚ_114" x1="28.59" y1="167.07" x2="68.97" y2="167.07" gradientUnits="userSpaceOnUse"><stop offset="0"/><stop offset="0.05" stop-color="#2f2f2f"/><stop offset="0.1" stop-color="#5a5a5a"/><stop offset="0.15" stop-color="#828282"/><stop offset="0.22" stop-color="#a4a4a4"/><stop offset="0.28" stop-color="silver"/><stop offset="0.36" stop-color="#d7d7d7"/><stop offset="0.44" stop-color="#e9e9e9"/><stop offset="0.54" stop-color="#f6f6f6"/><stop offset="0.68" stop-color="#fdfdfd"/><stop offset="1" stop-color="#fff"/></linearGradient><filter id="luminosity-noclip-8" x="-3.86" y="-8342" width="4.62" height="32766" filterUnits="userSpaceOnUse" color-interpolation-filters="sRGB"><feFlood flood-color="#fff" result="bg"/><feBlend in="SourceGraphic" in2="bg"/></filter><mask id="mask-8" x="-3.86" y="-8342" width="4.62" height="32766" maskUnits="userSpaceOnUse"><g class="cls-116"/></mask><linearGradient id="_ÂÁ_Ï_ÌÌ_È_ËÂÌÚ_106-6" x1="-1849.72" y1="1730.15" x2="-1849.72" y2="1715.45" gradientTransform="matrix(-0.87, 0.5, 0, 1.15, -1603.4, -884.64)" xlink:href="#_ÂÁ_Ï_ÌÌ_È_ËÂÌÚ_106"/><linearGradient id="_ÂÁ_Ï_ÌÌ_È_ËÂÌÚ_114-2" x1="28.59" y1="44.03" x2="68.97" y2="44.03" xlink:href="#_ÂÁ_Ï_ÌÌ_È_ËÂÌÚ_114"/><filter id="luminosity-noclip-10" x="111.25" y="-8342" width="4.62" height="32766" filterUnits="userSpaceOnUse" color-interpolation-filters="sRGB"><feFlood flood-color="#fff" result="bg"/><feBlend in="SourceGraphic" in2="bg"/></filter><mask id="mask-10" x="111.25" y="-8342" width="4.62" height="32766" maskUnits="userSpaceOnUse"><g class="cls-115"/></mask><linearGradient id="_ÂÁ_Ï_ÌÌ_È_ËÂÌÚ_106-7" x1="-702.29" y1="1255.56" x2="-702.29" y2="1170.01" xlink:href="#_ÂÁ_Ï_ÌÌ_È_ËÂÌÚ_106"/><filter id="luminosity-noclip-11" x="119.92" y="-8342" width="4.62" height="32766" filterUnits="userSpaceOnUse" color-interpolation-filters="sRGB"><feFlood flood-color="#fff" result="bg"/><feBlend in="SourceGraphic" in2="bg"/></filter><mask id="mask-11" x="119.92" y="-8342" width="4.62" height="32766" maskUnits="userSpaceOnUse"><g class="cls-114"/></mask><linearGradient id="_ÂÁ_Ï_ÌÌ_È_ËÂÌÚ_106-8" x1="-692.28" y1="1255.56" x2="-692.28" y2="1182.85" xlink:href="#_ÂÁ_Ï_ÌÌ_È_ËÂÌÚ_106"/><linearGradient id="_ÂÁ_Ï_ÌÌ_È_ËÂÌÚ_4" x1="229.63" y1="138.77" x2="436.63" y2="138.77" gradientUnits="userSpaceOnUse"><stop offset="0" stop-color="#424240"/><stop offset="0.11" stop-color="#494947"/><stop offset="0.28" stop-color="#5d5d5b"/><stop offset="0.48" stop-color="#7d7d7b"/><stop offset="0.7" stop-color="#aaaaa8"/><stop offset="0.94" stop-color="#e2e2e0"/><stop offset="1" stop-color="#f2f2f0"/></linearGradient><linearGradient id="_ÂÁ_Ï_ÌÌ_È_ËÂÌÚ_5" x1="288.21" y1="110.8" x2="412.46" y2="110.8" gradientUnits="userSpaceOnUse"><stop offset="0" stop-color="#2bd978"/><stop offset="0.14" stop-color="#2cd476"/><stop offset="0.31" stop-color="#2ec671"/><stop offset="0.49" stop-color="#32ae68"/><stop offset="0.68" stop-color="#378d5c"/><stop offset="0.87" stop-color="#3d634c"/><stop offset="1" stop-color="#424240"/></linearGradient><linearGradient id="_ÂÁ_Ï_ÌÌ_È_ËÂÌÚ_5-2" x1="350.33" y1="88.34" x2="412.46" y2="88.34" xlink:href="#_ÂÁ_Ï_ÌÌ_È_ËÂÌÚ_5"/><linearGradient id="_ÂÁ_Ï_ÌÌ_È_ËÂÌÚ_5-3" x1="288.21" y1="88.34" x2="350.33" y2="88.34" xlink:href="#_ÂÁ_Ï_ÌÌ_È_ËÂÌÚ_5"/><linearGradient id="_ÂÁ_Ï_ÌÌ_È_ËÂÌÚ_5-4" x1="288.21" y1="101.75" x2="412.46" y2="101.75" xlink:href="#_ÂÁ_Ï_ÌÌ_È_ËÂÌÚ_5"/><linearGradient id="_ÂÁ_Ï_ÌÌ_È_ËÂÌÚ_5-5" x1="350.33" y1="124.21" x2="412.46" y2="124.21" xlink:href="#_ÂÁ_Ï_ÌÌ_È_ËÂÌÚ_5"/><linearGradient id="_ÂÁ_Ï_ÌÌ_È_ËÂÌÚ_5-6" x1="288.21" y1="124.21" x2="350.33" y2="124.21" xlink:href="#_ÂÁ_Ï_ÌÌ_È_ËÂÌÚ_5"/><linearGradient id="_ÂÁ_Ï_ÌÌ_È_ËÂÌÚ_9" x1="138.65" y1="209.91" x2="190.16" y2="239.65" gradientUnits="userSpaceOnUse"><stop offset="0" stop-color="#f2f2f0"/><stop offset="0.14" stop-color="#e0e0de"/><stop offset="0.42" stop-color="#b1b1af"/><stop offset="0.82" stop-color="#666664"/><stop offset="1" stop-color="#424240"/></linearGradient><linearGradient id="_ÂÁ_Ï_ÌÌ_È_ËÂÌÚ_8" x1="132.19" y1="221.15" x2="197.11" y2="221.15" gradientUnits="userSpaceOnUse"><stop offset="0" stop-color="#e9e9fd"/><stop offset="0.43" stop-color="#efeff5"/><stop offset="1" stop-color="#f2f2f0"/></linearGradient><linearGradient id="_ÂÁ_Ï_ÌÌ_È_ËÂÌÚ_7" x1="137.24" y1="195.06" x2="190.49" y2="195.06" gradientUnits="userSpaceOnUse"><stop offset="0" stop-color="#424240"/><stop offset="0.13" stop-color="#3d634c"/><stop offset="0.32" stop-color="#378d5c"/><stop offset="0.51" stop-color="#32ae68"/><stop offset="0.69" stop-color="#2ec671"/><stop offset="0.86" stop-color="#2cd476"/><stop offset="1" stop-color="#2bd978"/></linearGradient><linearGradient id="_ÂÁ_Ï_ÌÌ_È_ËÂÌÚ_7-2" x1="137.24" y1="181.39" x2="190.49" y2="181.39" xlink:href="#_ÂÁ_Ï_ÌÌ_È_ËÂÌÚ_7"/><linearGradient id="_ÂÁ_Ï_ÌÌ_È_ËÂÌÚ_7-3" x1="137.24" y1="188.22" x2="190.49" y2="188.22" xlink:href="#_ÂÁ_Ï_ÌÌ_È_ËÂÌÚ_7"/><filter id="luminosity-noclip-12" x="2.56" y="141.18" width="132.82" height="76.69" filterUnits="userSpaceOnUse" color-interpolation-filters="sRGB"><feFlood flood-color="#fff" result="bg"/><feBlend in="SourceGraphic" in2="bg"/></filter><mask id="mask-12" x="2.56" y="141.18" width="132.82" height="76.69" maskUnits="userSpaceOnUse"><g class="cls-1"><path class="cls-2" d="M64.55,216.92,4.21,182.08c-2.44-1.41-2.14-3.87.68-5.5l59-34c2.82-1.63,7.09-1.81,9.53-.39L133.73,177c2.44,1.41,2.14,3.87-.68,5.5l-59,34C71.26,218.15,67,218.33,64.55,216.92Z"/></g></mask><radialGradient id="_ÂÁ_Ï_ÌÌ_È_ËÂÌÚ_19" cx="68.97" cy="209.67" r="54.22" gradientUnits="userSpaceOnUse"><stop offset="0" stop-color="#2bd978"/><stop offset="0.13" stop-color="#2cd376"/><stop offset="0.31" stop-color="#2fc06f"/><stop offset="0.51" stop-color="#33a264"/><stop offset="0.74" stop-color="#3a7954"/><stop offset="0.99" stop-color="#424441"/><stop offset="1" stop-color="#424240"/></radialGradient><clipPath id="clip-path"><path class="cls-23" d="M132-50.81,133.73,177c2.44,1.41,2.14,3.87-.68,5.5l-59,34c-2.82,1.63-7.09,1.81-9.53.4L4.2,182.08c-2.44-1.41-2.14-3.87.68-5.5L9.23-50.81"/></clipPath><linearGradient id="_ÂÁ_Ï_ÌÌ_È_ËÂÌÚ_17" x1="89.16" y1="255.43" x2="89.16" y2="170.22" gradientUnits="userSpaceOnUse"><stop offset="0" stop-color="#f2f2f0"/><stop offset="0.41" stop-color="#ededec"/><stop offset="0.9" stop-color="#dfdfde"/><stop offset="1" stop-color="#dbdbdb"/></linearGradient><filter id="luminosity-noclip-13" x="28.59" y="149.12" width="40.38" height="35.89" filterUnits="userSpaceOnUse" color-interpolation-filters="sRGB"><feFlood flood-color="#fff" result="bg"/><feBlend in="SourceGraphic" in2="bg"/></filter><mask id="mask-13" x="28.59" y="149.12" width="40.38" height="35.89" maskUnits="userSpaceOnUse"><g class="cls-13"><polygon class="cls-14" points="68.97 185.01 58.36 185.01 28.59 167.82 60.98 149.13 68.97 149.13 68.97 185.01"/></g></mask><linearGradient id="_ÂÁ_Ï_ÌÌ_È_ËÂÌÚ_18" x1="28.59" y1="167.07" x2="68.97" y2="167.07" gradientUnits="userSpaceOnUse"><stop offset="0" stop-color="#dbdbdb"/><stop offset="0.05" stop-color="#bdbdbc"/><stop offset="0.12" stop-color="#9c9c9b"/><stop offset="0.19" stop-color="#80807f"/><stop offset="0.28" stop-color="#696968"/><stop offset="0.37" stop-color="#575756"/><stop offset="0.49" stop-color="#4b4b49"/><stop offset="0.64" stop-color="#444442"/><stop offset="1" stop-color="#424240"/></linearGradient><linearGradient id="_ÂÁ_Ï_ÌÌ_È_ËÂÌÚ_17-2" x1="39.67" y1="166.04" x2="98.27" y2="166.04" xlink:href="#_ÂÁ_Ï_ÌÌ_È_ËÂÌÚ_17"/><linearGradient id="_ÂÁ_Ï_ÌÌ_È_ËÂÌÚ_17-3" x1="87.4" y1="182.13" x2="80.28" y2="169.69" xlink:href="#_ÂÁ_Ï_ÌÌ_È_ËÂÌÚ_17"/><linearGradient id="_ÂÁ_Ï_ÌÌ_È_ËÂÌÚ_16" x1="54.32" y1="176.23" x2="54.32" y2="157.25" gradientUnits="userSpaceOnUse"><stop offset="0" stop-color="#424240"/><stop offset="0.13" stop-color="#474745"/><stop offset="0.28" stop-color="#555553"/><stop offset="0.45" stop-color="#6d6d6b"/><stop offset="0.62" stop-color="#8e8e8c"/><stop offset="0.8" stop-color="#b9b9b7"/><stop offset="0.98" stop-color="#ececea"/><stop offset="1" stop-color="#f2f2f0"/></linearGradient><linearGradient id="_ÂÁ_Ï_ÌÌ_È_ËÂÌÚ_16-2" x1="55.48" y1="161.56" x2="70.65" y2="161.56" xlink:href="#_ÂÁ_Ï_ÌÌ_È_ËÂÌÚ_16"/><linearGradient id="_ÂÁ_Ï_ÌÌ_È_ËÂÌÚ_16-3" x1="59.41" y1="163.82" x2="74.59" y2="163.82" xlink:href="#_ÂÁ_Ï_ÌÌ_È_ËÂÌÚ_16"/><linearGradient id="_ÂÁ_Ï_ÌÌ_È_ËÂÌÚ_16-4" x1="63.35" y1="166.09" x2="78.53" y2="166.09" xlink:href="#_ÂÁ_Ï_ÌÌ_È_ËÂÌÚ_16"/><linearGradient id="_ÂÁ_Ï_ÌÌ_È_ËÂÌÚ_16-5" x1="67.29" y1="168.36" x2="82.46" y2="168.36" xlink:href="#_ÂÁ_Ï_ÌÌ_È_ËÂÌÚ_16"/><linearGradient id="_ÂÁ_Ï_ÌÌ_È_ËÂÌÚ_17-4" x1="63.49" y1="194.51" x2="67.37" y2="194.51" xlink:href="#_ÂÁ_Ï_ÌÌ_È_ËÂÌÚ_17"/><linearGradient id="_ÂÁ_Ï_ÌÌ_È_ËÂÌÚ_16-6" x1="63.01" y1="194.9" x2="66.23" y2="194.9" xlink:href="#_ÂÁ_Ï_ÌÌ_È_ËÂÌÚ_16"/><linearGradient id="_ÂÁ_Ï_ÌÌ_È_ËÂÌÚ_17-5" x1="29.62" y1="173.7" x2="33.51" y2="173.7" xlink:href="#_ÂÁ_Ï_ÌÌ_È_ËÂÌÚ_17"/><linearGradient id="_ÂÁ_Ï_ÌÌ_È_ËÂÌÚ_16-7" x1="29.15" y1="174.1" x2="32.36" y2="174.1" xlink:href="#_ÂÁ_Ï_ÌÌ_È_ËÂÌÚ_16"/><linearGradient id="_ÂÁ_Ï_ÌÌ_È_ËÂÌÚ_17-6" x1="63.49" y1="274.65" x2="67.37" y2="274.65" xlink:href="#_ÂÁ_Ï_ÌÌ_È_ËÂÌÚ_17"/><linearGradient id="_ÂÁ_Ï_ÌÌ_È_ËÂÌÚ_16-8" x1="63.01" y1="275.04" x2="66.23" y2="275.04" xlink:href="#_ÂÁ_Ï_ÌÌ_È_ËÂÌÚ_16"/><linearGradient id="_ÂÁ_Ï_ÌÌ_È_ËÂÌÚ_17-7" x1="29.62" y1="253.84" x2="33.51" y2="253.84" xlink:href="#_ÂÁ_Ï_ÌÌ_È_ËÂÌÚ_17"/><linearGradient id="_ÂÁ_Ï_ÌÌ_È_ËÂÌÚ_16-9" x1="29.15" y1="254.24" x2="32.36" y2="254.24" xlink:href="#_ÂÁ_Ï_ÌÌ_È_ËÂÌÚ_16"/><linearGradient id="_ÂÁ_Ï_ÌÌ_È_ËÂÌÚ_17-8" x1="89.16" y1="132.39" x2="89.16" y2="47.18" xlink:href="#_ÂÁ_Ï_ÌÌ_È_ËÂÌÚ_17"/><filter id="luminosity-noclip-14" x="28.59" y="26.09" width="40.38" height="35.89" filterUnits="userSpaceOnUse" color-interpolation-filters="sRGB"><feFlood flood-color="#fff" result="bg"/><feBlend in="SourceGraphic" in2="bg"/></filter><mask id="mask-14" x="28.59" y="26.09" width="40.38" height="35.89" maskUnits="userSpaceOnUse"><g class="cls-17"><polygon class="cls-18" points="68.97 61.98 58.36 61.98 28.59 44.79 60.98 26.09 68.97 26.09 68.97 61.98"/></g></mask><linearGradient id="_ÂÁ_Ï_ÌÌ_È_ËÂÌÚ_18-2" x1="28.59" y1="44.03" x2="68.97" y2="44.03" xlink:href="#_ÂÁ_Ï_ÌÌ_È_ËÂÌÚ_18"/><linearGradient id="_ÂÁ_Ï_ÌÌ_È_ËÂÌÚ_17-9" x1="39.67" y1="43" x2="98.27" y2="43" xlink:href="#_ÂÁ_Ï_ÌÌ_È_ËÂÌÚ_17"/><linearGradient id="_ÂÁ_Ï_ÌÌ_È_ËÂÌÚ_17-10" x1="87.4" y1="59.09" x2="80.28" y2="46.66" xlink:href="#_ÂÁ_Ï_ÌÌ_È_ËÂÌÚ_17"/><linearGradient id="_ÂÁ_Ï_ÌÌ_È_ËÂÌÚ_16-10" x1="54.32" y1="53.19" x2="54.32" y2="34.22" xlink:href="#_ÂÁ_Ï_ÌÌ_È_ËÂÌÚ_16"/><linearGradient id="_ÂÁ_Ï_ÌÌ_È_ËÂÌÚ_16-11" x1="55.48" y1="38.52" x2="70.65" y2="38.52" xlink:href="#_ÂÁ_Ï_ÌÌ_È_ËÂÌÚ_16"/><linearGradient id="_ÂÁ_Ï_ÌÌ_È_ËÂÌÚ_16-12" x1="59.41" y1="40.79" x2="74.59" y2="40.79" xlink:href="#_ÂÁ_Ï_ÌÌ_È_ËÂÌÚ_16"/><linearGradient id="_ÂÁ_Ï_ÌÌ_È_ËÂÌÚ_16-13" x1="63.35" y1="43.05" x2="78.53" y2="43.05" xlink:href="#_ÂÁ_Ï_ÌÌ_È_ËÂÌÚ_16"/><linearGradient id="_ÂÁ_Ï_ÌÌ_È_ËÂÌÚ_16-14" x1="67.29" y1="45.32" x2="82.46" y2="45.32" xlink:href="#_ÂÁ_Ï_ÌÌ_È_ËÂÌÚ_16"/><linearGradient id="_ÂÁ_Ï_ÌÌ_È_ËÂÌÚ_17-11" x1="63.49" y1="71.47" x2="67.37" y2="71.47" xlink:href="#_ÂÁ_Ï_ÌÌ_È_ËÂÌÚ_17"/><linearGradient id="_ÂÁ_Ï_ÌÌ_È_ËÂÌÚ_16-15" x1="63.01" y1="71.87" x2="66.23" y2="71.87" xlink:href="#_ÂÁ_Ï_ÌÌ_È_ËÂÌÚ_16"/><linearGradient id="_ÂÁ_Ï_ÌÌ_È_ËÂÌÚ_17-12" x1="29.62" y1="50.66" x2="33.51" y2="50.66" xlink:href="#_ÂÁ_Ï_ÌÌ_È_ËÂÌÚ_17"/><linearGradient id="_ÂÁ_Ï_ÌÌ_È_ËÂÌÚ_16-16" x1="29.15" y1="51.06" x2="32.36" y2="51.06" xlink:href="#_ÂÁ_Ï_ÌÌ_È_ËÂÌÚ_16"/><linearGradient id="_ÂÁ_Ï_ÌÌ_È_ËÂÌÚ_17-13" x1="63.49" y1="151.61" x2="67.37" y2="151.61" xlink:href="#_ÂÁ_Ï_ÌÌ_È_ËÂÌÚ_17"/><linearGradient id="_ÂÁ_Ï_ÌÌ_È_ËÂÌÚ_16-17" x1="63.01" y1="152.01" x2="66.23" y2="152.01" xlink:href="#_ÂÁ_Ï_ÌÌ_È_ËÂÌÚ_16"/><linearGradient id="_ÂÁ_Ï_ÌÌ_È_ËÂÌÚ_17-14" x1="29.62" y1="130.8" x2="33.51" y2="130.8" xlink:href="#_ÂÁ_Ï_ÌÌ_È_ËÂÌÚ_17"/><linearGradient id="_ÂÁ_Ï_ÌÌ_È_ËÂÌÚ_16-18" x1="29.15" y1="131.2" x2="32.36" y2="131.2" xlink:href="#_ÂÁ_Ï_ÌÌ_È_ËÂÌÚ_16"/><filter id="luminosity-noclip-15" x="111.25" y="114.88" width="4.62" height="99.48" filterUnits="userSpaceOnUse" color-interpolation-filters="sRGB"><feFlood flood-color="#fff" result="bg"/><feBlend in="SourceGraphic" in2="bg"/></filter><mask id="mask-15" x="111.25" y="114.88" width="4.62" height="99.48" maskUnits="userSpaceOnUse"><g class="cls-19"><path class="cls-20" d="M113.72,115.32l-.32-.19c-1.19-.69-2.15,0-2.15,1.63v93a5.15,5.15,0,0,0,2.15,4.11l.32.19c1.19.69,2.15,0,2.15-1.63v-93A5.15,5.15,0,0,0,113.72,115.32Z"/></g></mask><linearGradient id="_ÂÁ_Ï_ÌÌ_È_ËÂÌÚ_10" x1="-702.29" y1="1255.56" x2="-702.29" y2="1170.01" gradientTransform="matrix(0.87, 0.5, 0, 1.15, 721.75, -884.64)" gradientUnits="userSpaceOnUse"><stop offset="0" stop-color="#424240"/><stop offset="0.04" stop-color="#3f5647"/><stop offset="0.15" stop-color="#388559"/><stop offset="0.26" stop-color="#32a966"/><stop offset="0.35" stop-color="#2ec470"/><stop offset="0.44" stop-color="#2cd376"/><stop offset="0.51" stop-color="#2bd978"/><stop offset="0.57" stop-color="#2cd175"/><stop offset="0.66" stop-color="#2fbd6d"/><stop offset="0.77" stop-color="#359a61"/><stop offset="0.9" stop-color="#3c6b4f"/><stop offset="1" stop-color="#424240"/></linearGradient><filter id="luminosity-noclip-16" x="119.92" y="134.71" width="4.62" height="84.66" filterUnits="userSpaceOnUse" color-interpolation-filters="sRGB"><feFlood flood-color="#fff" result="bg"/><feBlend in="SourceGraphic" in2="bg"/></filter><mask id="mask-16" x="119.92" y="134.71" width="4.62" height="84.66" maskUnits="userSpaceOnUse"><g class="cls-21"><path class="cls-22" d="M122.39,135.15l-.32-.19c-1.19-.69-2.15,0-2.15,1.63v78.22a5.15,5.15,0,0,0,2.15,4.11l.32.19c1.19.69,2.15,0,2.15-1.63V139.26A5.15,5.15,0,0,0,122.39,135.15Z"/></g></mask><linearGradient id="_ÂÁ_Ï_ÌÌ_È_ËÂÌÚ_10-2" x1="-692.28" y1="1255.56" x2="-692.28" y2="1182.85" xlink:href="#_ÂÁ_Ï_ÌÌ_È_ËÂÌÚ_10"/><filter id="luminosity-noclip-17" x="128.58" y="158.13" width="4.62" height="35.75" filterUnits="userSpaceOnUse" color-interpolation-filters="sRGB"><feFlood flood-color="#fff" result="bg"/><feBlend in="SourceGraphic" in2="bg"/></filter><mask id="mask-17" x="128.58" y="158.13" width="4.62" height="35.75" maskUnits="userSpaceOnUse"><g class="cls-3"><path class="cls-4" d="M131.06,158.57l-.32-.19c-1.19-.69-2.15,0-2.15,1.63v29.31a5.15,5.15,0,0,0,2.15,4.11l.32.19c1.19.69,2.15,0,2.15-1.63V162.68A5.15,5.15,0,0,0,131.06,158.57Z"/></g></mask><linearGradient id="_ÂÁ_Ï_ÌÌ_È_ËÂÌÚ_10-3" x1="-682.28" y1="1229.15" x2="-682.28" y2="1198.8" xlink:href="#_ÂÁ_Ï_ÌÌ_È_ËÂÌÚ_10"/><filter id="luminosity-noclip-18" x="137.17" y="170.98" width="4.62" height="17.68" filterUnits="userSpaceOnUse" color-interpolation-filters="sRGB"><feFlood flood-color="#fff" result="bg"/><feBlend in="SourceGraphic" in2="bg"/></filter><mask id="mask-18" x="137.17" y="170.98" width="4.62" height="17.68" maskUnits="userSpaceOnUse"><g class="cls-5"><path class="cls-6" d="M139.65,171.43l-.32-.19c-1.19-.69-2.15,0-2.15,1.63v11.24a5.15,5.15,0,0,0,2.15,4.11l.32.19c1.19.69,2.15,0,2.15-1.63V175.54A5.15,5.15,0,0,0,139.65,171.43Z"/></g></mask><linearGradient id="_ÂÁ_Ï_ÌÌ_È_ËÂÌÚ_10-4" x1="-672.36" y1="1220.34" x2="-672.36" y2="1205.64" xlink:href="#_ÂÁ_Ï_ÌÌ_È_ËÂÌÚ_10"/><filter id="luminosity-noclip-19" x="22.07" y="114.88" width="4.62" height="99.48" filterUnits="userSpaceOnUse" color-interpolation-filters="sRGB"><feFlood flood-color="#fff" result="bg"/><feBlend in="SourceGraphic" in2="bg"/></filter><mask id="mask-19" x="22.07" y="114.88" width="4.62" height="99.48" maskUnits="userSpaceOnUse"><g class="cls-7"><path class="cls-8" d="M24.22,115.32l.32-.19c1.19-.69,2.15,0,2.15,1.63v93a5.15,5.15,0,0,1-2.15,4.11l-.32.19c-1.19.69-2.15,0-2.15-1.63v-93A5.15,5.15,0,0,1,24.22,115.32Z"/></g></mask><linearGradient id="_ÂÁ_Ï_ÌÌ_È_ËÂÌÚ_10-5" x1="-1879.65" y1="1765.37" x2="-1879.65" y2="1679.82" gradientTransform="matrix(-0.87, 0.5, 0, 1.15, -1603.4, -884.64)" xlink:href="#_ÂÁ_Ï_ÌÌ_È_ËÂÌÚ_10"/><filter id="luminosity-noclip-20" x="13.4" y="134.71" width="4.62" height="84.66" filterUnits="userSpaceOnUse" color-interpolation-filters="sRGB"><feFlood flood-color="#fff" result="bg"/><feBlend in="SourceGraphic" in2="bg"/></filter><mask id="mask-20" x="13.4" y="134.71" width="4.62" height="84.66" maskUnits="userSpaceOnUse"><g class="cls-9"><path class="cls-10" d="M15.55,135.15l.32-.19c1.19-.69,2.15,0,2.15,1.63v78.22a5.15,5.15,0,0,1-2.15,4.11l-.32.19c-1.19.69-2.15,0-2.15-1.63V139.26A5.15,5.15,0,0,1,15.55,135.15Z"/></g></mask><linearGradient id="_ÂÁ_Ï_ÌÌ_È_ËÂÌÚ_10-6" x1="-1869.64" y1="1765.37" x2="-1869.64" y2="1692.66" gradientTransform="matrix(-0.87, 0.5, 0, 1.15, -1603.4, -884.64)" xlink:href="#_ÂÁ_Ï_ÌÌ_È_ËÂÌÚ_10"/><filter id="luminosity-noclip-21" x="4.73" y="158.13" width="4.62" height="35.75" filterUnits="userSpaceOnUse" color-interpolation-filters="sRGB"><feFlood flood-color="#fff" result="bg"/><feBlend in="SourceGraphic" in2="bg"/></filter><mask id="mask-21" x="4.73" y="158.13" width="4.62" height="35.75" maskUnits="userSpaceOnUse"><g class="cls-11"><path class="cls-12" d="M6.88,158.57l.32-.19c1.19-.69,2.15,0,2.15,1.63v29.31a5.15,5.15,0,0,1-2.15,4.11l-.32.19c-1.19.69-2.15,0-2.15-1.63V162.68A5.15,5.15,0,0,1,6.88,158.57Z"/></g></mask><linearGradient id="_ÂÁ_Ï_ÌÌ_È_ËÂÌÚ_10-7" x1="-1859.64" y1="1738.96" x2="-1859.64" y2="1708.61" gradientTransform="matrix(-0.87, 0.5, 0, 1.15, -1603.4, -884.64)" xlink:href="#_ÂÁ_Ï_ÌÌ_È_ËÂÌÚ_10"/><filter id="luminosity-noclip-22" x="-3.86" y="170.98" width="4.62" height="17.68" filterUnits="userSpaceOnUse" color-interpolation-filters="sRGB"><feFlood flood-color="#fff" result="bg"/><feBlend in="SourceGraphic" in2="bg"/></filter><mask id="mask-22" x="-3.86" y="170.98" width="4.62" height="17.68" maskUnits="userSpaceOnUse"><g class="cls-15"><path class="cls-16" d="M-1.71,171.43l.32-.19c1.19-.69,2.15,0,2.15,1.63v11.24a5.15,5.15,0,0,1-2.15,4.11l-.32.19c-1.19.69-2.15,0-2.15-1.63V175.54A5.15,5.15,0,0,1-1.71,171.43Z"/></g></mask><linearGradient id="_ÂÁ_Ï_ÌÌ_È_ËÂÌÚ_10-8" x1="-1849.72" y1="1730.15" x2="-1849.72" y2="1715.45" gradientTransform="matrix(-0.87, 0.5, 0, 1.15, -1603.4, -884.64)" xlink:href="#_ÂÁ_Ï_ÌÌ_È_ËÂÌÚ_10"/></defs><title>data-to-ai-dense</title><g class="cls-24"><g id="Layer_1" data-name="Layer 1"><path class="cls-25" d="M341.92,70.55a3,3,0,0,1-1.51-.46L329.91,64l.16-.27,10.51,6.07a1.79,1.79,0,0,0,3-1.71V65.58a2.1,2.1,0,0,1,3.43-2l2.2,1.27-.16.27-2.2-1.27a1.79,1.79,0,0,0-3,1.71v2.53a2.39,2.39,0,0,1-1,2.21A1.81,1.81,0,0,1,341.92,70.55Z"/><path class="cls-25" d="M337.84,72.9a3,3,0,0,1-1.51-.46l-10.51-6.07.16-.27,10.51,6.07a1.79,1.79,0,0,0,3-1.71V67.93a2.1,2.1,0,0,1,3.43-2l2.2,1.27-.16.27-2.2-1.27a1.79,1.79,0,0,0-3,1.71v2.53a2.39,2.39,0,0,1-1,2.21A1.79,1.79,0,0,1,337.84,72.9Z"/><path class="cls-25" d="M333.75,75.26a3.05,3.05,0,0,1-1.51-.46l-10.51-6.07.16-.27,10.51,6.07a1.79,1.79,0,0,0,3-1.71V70.28a2.1,2.1,0,0,1,3.43-2l2.2,1.27-.16.27-2.2-1.27a1.79,1.79,0,0,0-3,1.71v2.54a2.39,2.39,0,0,1-1,2.2A1.8,1.8,0,0,1,333.75,75.26Z"/><path class="cls-25" d="M329.66,77.61a3.05,3.05,0,0,1-1.51-.46l-10.51-6.07.16-.27,10.51,6.07a1.79,1.79,0,0,0,3-1.71V72.63a2.1,2.1,0,0,1,3.43-2l2.2,1.27-.16.27-2.2-1.27a1.79,1.79,0,0,0-3,1.71v2.54a2.39,2.39,0,0,1-1,2.2A1.79,1.79,0,0,1,329.66,77.61Z"/><path class="cls-25" d="M325.57,80a3.05,3.05,0,0,1-1.51-.46l-10.51-6.07.16-.27,10.51,6.07a1.79,1.79,0,0,0,3-1.71V75a2.1,2.1,0,0,1,3.43-2l2.2,1.27-.16.27-2.2-1.27a1.79,1.79,0,0,0-3,1.71v2.54a2.39,2.39,0,0,1-1,2.2A1.8,1.8,0,0,1,325.57,80Z"/><path class="cls-25" d="M321.48,82.31a3.06,3.06,0,0,1-1.5-.46l-10.51-6.07.16-.27,10.51,6.07a1.79,1.79,0,0,0,3-1.71V77.34a2.1,2.1,0,0,1,3.43-2l2.2,1.27-.16.27-2.2-1.27a1.79,1.79,0,0,0-3,1.71v2.54a2.39,2.39,0,0,1-1,2.2A1.8,1.8,0,0,1,321.48,82.31Z"/><path class="cls-25" d="M317.39,84.66a3.06,3.06,0,0,1-1.51-.46l-10.51-6.07.16-.27L316,83.93a1.79,1.79,0,0,0,3-1.71V79.69a2.1,2.1,0,0,1,3.43-2l2.2,1.27-.16.27L322.28,78a1.79,1.79,0,0,0-3,1.71v2.54a2.39,2.39,0,0,1-1,2.2A1.8,1.8,0,0,1,317.39,84.66Z"/><path class="cls-25" d="M313.31,87a3.06,3.06,0,0,1-1.5-.46l-10.51-6.07.16-.27L312,86.28a1.79,1.79,0,0,0,3-1.71V82a2.1,2.1,0,0,1,3.43-2l2.2,1.27-.16.27-2.2-1.27a1.79,1.79,0,0,0-3,1.71v2.53a2.39,2.39,0,0,1-1,2.2A1.8,1.8,0,0,1,313.31,87Z"/><path class="cls-25" d="M309.22,89.37a3,3,0,0,1-1.51-.46L297.2,82.84l.16-.27,10.51,6.07a1.79,1.79,0,0,0,3-1.71V84.39a2.1,2.1,0,0,1,3.43-2l2.2,1.27-.16.27-2.2-1.27a1.79,1.79,0,0,0-3,1.71v2.53a2.39,2.39,0,0,1-1,2.21A1.81,1.81,0,0,1,309.22,89.37Z"/><path class="cls-25" d="M305.13,91.72a3,3,0,0,1-1.51-.46l-10.51-6.07.16-.27L303.78,91a1.79,1.79,0,0,0,3-1.71V86.74a2.1,2.1,0,0,1,3.43-2l2.2,1.27-.16.27L310,85a1.79,1.79,0,0,0-3,1.71v2.53a2.39,2.39,0,0,1-1,2.21A1.79,1.79,0,0,1,305.13,91.72Z"/><path class="cls-25" d="M301,94.07a3.05,3.05,0,0,1-1.51-.46L289,87.54l.16-.27,10.51,6.07a1.79,1.79,0,0,0,3-1.71V89.1a2.1,2.1,0,0,1,3.43-2l2.2,1.27-.16.27-2.2-1.27a1.79,1.79,0,0,0-3,1.71v2.54a2.39,2.39,0,0,1-1,2.2A1.8,1.8,0,0,1,301,94.07Z"/><path class="cls-25" d="M297,96.42a3,3,0,0,1-1.51-.46l-10.51-6.07.16-.27,10.51,6.07a1.79,1.79,0,0,0,3-1.71V91.45a2.1,2.1,0,0,1,3.43-2l2.2,1.27L304,91l-2.2-1.27a1.79,1.79,0,0,0-3,1.71V94a2.39,2.39,0,0,1-1,2.2A1.79,1.79,0,0,1,297,96.42Z"/><path class="cls-25" d="M292.87,98.77a3.06,3.06,0,0,1-1.51-.46l-10.51-6.07L281,92,291.52,98a1.79,1.79,0,0,0,3-1.71V93.8a2.1,2.1,0,0,1,3.43-2l2.2,1.27-.16.27-2.2-1.27a1.79,1.79,0,0,0-3,1.71v2.54a2.39,2.39,0,0,1-1,2.2A1.8,1.8,0,0,1,292.87,98.77Z"/><path class="cls-25" d="M288.78,101.13a3.06,3.06,0,0,1-1.51-.46L276.76,94.6l.16-.27,10.51,6.07a1.79,1.79,0,0,0,3-1.71V96.15a2.1,2.1,0,0,1,3.43-2l2.2,1.27-.16.27-2.2-1.27a1.79,1.79,0,0,0-3,1.71v2.54a2.39,2.39,0,0,1-1,2.2A1.8,1.8,0,0,1,288.78,101.13Z"/><path class="cls-25" d="M284.69,103.48a3.06,3.06,0,0,1-1.51-.46l-10.51-6.07.16-.27,10.51,6.07a1.79,1.79,0,0,0,3-1.71V98.5a2.1,2.1,0,0,1,3.43-2l2.2,1.27-.16.27-2.2-1.27a1.79,1.79,0,0,0-3,1.71V101a2.39,2.39,0,0,1-1,2.2A1.8,1.8,0,0,1,284.69,103.48Z"/><path class="cls-25" d="M280.6,105.83a3,3,0,0,1-1.51-.46L268.59,99.3l.16-.27,10.51,6.07a1.79,1.79,0,0,0,3-1.71v-2.53a2.1,2.1,0,0,1,3.43-2l2.2,1.27-.16.27-2.2-1.27a1.79,1.79,0,0,0-3,1.71v2.53a2.39,2.39,0,0,1-1,2.21A1.8,1.8,0,0,1,280.6,105.83Z"/><path class="cls-25" d="M276.51,108.18a3,3,0,0,1-1.51-.46l-10.51-6.07.16-.27,10.51,6.07a1.79,1.79,0,0,0,3-1.71v-2.53a2.1,2.1,0,0,1,3.43-2l2.2,1.27-.16.27-2.2-1.27a1.79,1.79,0,0,0-3,1.71v2.53a2.39,2.39,0,0,1-1,2.2A1.8,1.8,0,0,1,276.51,108.18Z"/><path class="cls-25" d="M272.43,110.53a3.05,3.05,0,0,1-1.51-.46L260.41,104l.16-.27,10.51,6.07a1.79,1.79,0,0,0,3-1.71v-2.54a2.1,2.1,0,0,1,3.43-2l2.2,1.27-.16.27-2.2-1.27a1.79,1.79,0,0,0-3,1.71v2.54a2.39,2.39,0,0,1-1,2.2A1.79,1.79,0,0,1,272.43,110.53Z"/><path class="cls-25" d="M268.34,112.88a3.05,3.05,0,0,1-1.51-.46l-10.51-6.07.16-.27L267,112.15a1.79,1.79,0,0,0,3-1.71v-2.54a2.1,2.1,0,0,1,3.43-2l2.2,1.27-.16.27-2.2-1.27a1.79,1.79,0,0,0-3,1.71v2.54a2.39,2.39,0,0,1-1,2.2A1.8,1.8,0,0,1,268.34,112.88Z"/><path class="cls-25" d="M264.25,115.23a3.05,3.05,0,0,1-1.51-.46l-10.51-6.07.16-.27,10.51,6.07a1.79,1.79,0,0,0,3-1.71v-2.54a2.1,2.1,0,0,1,3.43-2l2.2,1.27-.16.27-2.2-1.27a1.79,1.79,0,0,0-3,1.71v2.54a2.39,2.39,0,0,1-1,2.2A1.79,1.79,0,0,1,264.25,115.23Z"/><path class="cls-25" d="M358.68,70.75a1.8,1.8,0,0,1-.91-.24,2.39,2.39,0,0,1-1-2.2V65.77a1.79,1.79,0,0,0-3-1.71l-2.2,1.27-.16-.27,2.2-1.27a2.1,2.1,0,0,1,3.43,2v2.54A1.79,1.79,0,0,0,360,70l10.51-6.07.16.27-10.51,6.07A3.06,3.06,0,0,1,358.68,70.75Z"/><path class="cls-25" d="M362.76,73.1a1.8,1.8,0,0,1-.91-.24,2.39,2.39,0,0,1-1-2.2V68.12a1.79,1.79,0,0,0-3-1.71l-2.2,1.27-.16-.27,2.2-1.27a2.1,2.1,0,0,1,3.43,2v2.54a1.79,1.79,0,0,0,3,1.71l10.51-6.07.16.27-10.51,6.07A3.06,3.06,0,0,1,362.76,73.1Z"/><path class="cls-25" d="M366.85,75.45a1.8,1.8,0,0,1-.91-.24,2.39,2.39,0,0,1-1-2.2V70.48a1.79,1.79,0,0,0-3-1.71L359.78,70l-.16-.27,2.2-1.27a2.1,2.1,0,0,1,3.43,2V73a1.79,1.79,0,0,0,3,1.71l10.51-6.07.16.27L368.36,75A3.06,3.06,0,0,1,366.85,75.45Z"/><path class="cls-25" d="M370.94,77.8a1.8,1.8,0,0,1-.91-.23,2.39,2.39,0,0,1-1-2.21V72.83a1.79,1.79,0,0,0-3-1.71l-2.2,1.27-.16-.27,2.2-1.27a2.1,2.1,0,0,1,3.43,2v2.53a1.79,1.79,0,0,0,3,1.71L382.8,71l.16.27-10.51,6.07A3,3,0,0,1,370.94,77.8Z"/><path class="cls-25" d="M375,80.15a1.79,1.79,0,0,1-.91-.23,2.39,2.39,0,0,1-1-2.21V75.18a1.79,1.79,0,0,0-3-1.71L368,74.74l-.16-.27L370,73.2a2.1,2.1,0,0,1,3.43,2v2.53a1.79,1.79,0,0,0,3,1.71l10.51-6.07.16.27-10.51,6.07A3.05,3.05,0,0,1,375,80.15Z"/><path class="cls-25" d="M379.12,82.5a1.79,1.79,0,0,1-.91-.23,2.39,2.39,0,0,1-1-2.2V77.53a1.79,1.79,0,0,0-3-1.71L372,77.09l-.16-.27,2.2-1.27a2.1,2.1,0,0,1,3.43,2v2.54a1.79,1.79,0,0,0,3,1.71L391,75.7l.16.27L380.62,82A3.05,3.05,0,0,1,379.12,82.5Z"/><path class="cls-25" d="M383.2,84.86a1.79,1.79,0,0,1-.91-.23,2.39,2.39,0,0,1-1-2.2V79.88a1.79,1.79,0,0,0-3-1.71l-2.2,1.27-.16-.27,2.2-1.27a2.1,2.1,0,0,1,3.43,2v2.54a1.79,1.79,0,0,0,3,1.71l10.51-6.07.16.27L384.71,84.4A3.05,3.05,0,0,1,383.2,84.86Z"/><path class="cls-25" d="M387.29,87.21a1.8,1.8,0,0,1-.91-.24,2.39,2.39,0,0,1-1-2.2V82.23a1.79,1.79,0,0,0-3-1.71l-2.2,1.27-.16-.27,2.2-1.27a2.1,2.1,0,0,1,3.43,2v2.54a1.79,1.79,0,0,0,3,1.71l10.51-6.07.16.27L388.8,86.75A3.06,3.06,0,0,1,387.29,87.21Z"/><path class="cls-25" d="M391.38,89.56a1.8,1.8,0,0,1-.91-.24,2.39,2.39,0,0,1-1-2.2V84.58a1.79,1.79,0,0,0-3-1.71l-2.2,1.27-.16-.27,2.2-1.27a2.1,2.1,0,0,1,3.43,2v2.54a1.79,1.79,0,0,0,3,1.71L402.92,83l.16.27L392.89,89.1A3.06,3.06,0,0,1,391.38,89.56Z"/><path class="cls-25" d="M395.47,91.91a1.79,1.79,0,0,1-.91-.24,2.39,2.39,0,0,1-1-2.2V86.94a1.79,1.79,0,0,0-3-1.71l-2.2,1.27-.16-.27,2.2-1.27a2.1,2.1,0,0,1,3.43,2v2.54a1.79,1.79,0,0,0,3,1.71L407,85.31l.16.27L397,91.45A3.06,3.06,0,0,1,395.47,91.91Z"/><path class="cls-25" d="M399.56,94.26a1.8,1.8,0,0,1-.91-.24,2.39,2.39,0,0,1-1-2.2V89.29a1.79,1.79,0,0,0-3-1.71l-2.2,1.27-.16-.27,2.2-1.27a2.1,2.1,0,0,1,3.43,2v2.53a1.79,1.79,0,0,0,3,1.71l10.19-5.86.16.27L401.06,93.8A3.06,3.06,0,0,1,399.56,94.26Z"/><path class="cls-25" d="M403.64,96.61a1.8,1.8,0,0,1-.91-.23,2.39,2.39,0,0,1-1-2.21V91.64a1.79,1.79,0,0,0-3-1.71l-2.2,1.27-.16-.27,2.2-1.27a2.1,2.1,0,0,1,3.43,2v2.53a1.79,1.79,0,0,0,3,1.71L415.18,90l.16.27-10.19,5.86A3,3,0,0,1,403.64,96.61Z"/><path class="cls-25" d="M407.73,99a1.79,1.79,0,0,1-.91-.23,2.39,2.39,0,0,1-1-2.21V94a1.79,1.79,0,0,0-3-1.71l-2.2,1.27-.16-.27,2.2-1.27a2.1,2.1,0,0,1,3.43,2v2.53a1.79,1.79,0,0,0,3,1.71l10.51-6.07.16.27-10.51,6.07A3.05,3.05,0,0,1,407.73,99Z"/><path class="cls-25" d="M411.82,101.32a1.79,1.79,0,0,1-.91-.23,2.39,2.39,0,0,1-1-2.2V96.34a1.79,1.79,0,0,0-3-1.71l-2.2,1.27-.16-.27,2.2-1.27a2.1,2.1,0,0,1,3.43,2v2.54a1.79,1.79,0,0,0,3,1.71l10.51-6.07.16.27-10.51,6.07A3.05,3.05,0,0,1,411.82,101.32Z"/><path class="cls-25" d="M415.91,103.67a1.8,1.8,0,0,1-.91-.23,2.39,2.39,0,0,1-1-2.2V98.69A1.79,1.79,0,0,0,411,97l-2.2,1.27-.16-.27,2.2-1.27a2.1,2.1,0,0,1,3.43,2v2.54a1.79,1.79,0,0,0,3,1.71l10.51-6.07.16.27-10.51,6.07A3.05,3.05,0,0,1,415.91,103.67Z"/><path class="cls-25" d="M420,106a1.8,1.8,0,0,1-.91-.24,2.39,2.39,0,0,1-1-2.2V101a1.79,1.79,0,0,0-3-1.71l-2.2,1.27-.16-.27,2.2-1.27a2.1,2.1,0,0,1,3.43,2v2.54a1.79,1.79,0,0,0,3,1.71l10.51-6.07.16.27-10.51,6.07A3.06,3.06,0,0,1,420,106Z"/><path class="cls-25" d="M424.09,108.37a1.8,1.8,0,0,1-.91-.24,2.39,2.39,0,0,1-1-2.2V103.4a1.79,1.79,0,0,0-3-1.71L417,103l-.16-.27,2.2-1.27a2.1,2.1,0,0,1,3.43,2v2.54a1.79,1.79,0,0,0,3,1.71l10.51-6.07.16.27-10.51,6.07A3.06,3.06,0,0,1,424.09,108.37Z"/><path class="cls-25" d="M428.17,110.72a1.8,1.8,0,0,1-.91-.24,2.39,2.39,0,0,1-1-2.2v-2.53a1.79,1.79,0,0,0-3-1.71l-2.2,1.27-.16-.27,2.2-1.27a2.1,2.1,0,0,1,3.43,2v2.53a1.79,1.79,0,0,0,3,1.71L440,103.92l.16.27-10.51,6.07A3.06,3.06,0,0,1,428.17,110.72Z"/><path class="cls-25" d="M432.26,113.08a1.8,1.8,0,0,1-.91-.23,2.39,2.39,0,0,1-1-2.2V108.1a1.79,1.79,0,0,0-3-1.71l-2.2,1.27-.16-.27,2.2-1.27a2.1,2.1,0,0,1,3.43,2v2.53a1.79,1.79,0,0,0,3,1.71l10.51-6.07.16.27-10.51,6.07A3,3,0,0,1,432.26,113.08Z"/><path class="cls-25" d="M436.35,115.43a1.79,1.79,0,0,1-.91-.23,2.39,2.39,0,0,1-1-2.21v-2.53a1.79,1.79,0,0,0-3-1.71l-2.2,1.27-.16-.27,2.2-1.27a2.1,2.1,0,0,1,3.43,2V113a1.79,1.79,0,0,0,3,1.71l10.51-6.07.16.27L437.86,115A3.05,3.05,0,0,1,436.35,115.43Z"/><polygon class="cls-26" points="431.1 110.79 431.1 120.12 350.33 166.75 269.56 120.12 269.56 110.79 431.1 110.79"/><polygon class="cls-27" points="350.33 157.42 269.56 110.79 350.33 64.16 431.1 110.79 350.33 157.42"/><polygon class="cls-28" points="350.33 156.33 270.51 110.24 269.56 110.79 350.33 157.42 431.1 110.79 430.16 110.24 350.33 156.33"/><polygon class="cls-29" points="350.33 146.66 288.21 110.8 350.33 74.93 412.45 110.8 350.33 146.66"/><polygon class="cls-30" points="350.33 146.66 288.21 110.8 350.33 74.93 412.45 110.8 350.33 146.66"/><polygon class="cls-31" points="350.33 65.89 412.45 101.75 412.45 110.8 350.33 74.93 350.33 65.89"/><polygon class="cls-32" points="350.33 74.93 288.21 110.8 288.21 101.75 350.33 65.89 350.33 74.93"/><polygon class="cls-33" points="350.33 137.62 288.21 101.75 350.33 65.89 412.45 101.75 350.33 137.62"/><polygon class="cls-34" points="350.33 116.08 325.51 101.75 350.33 87.42 375.16 101.75 350.33 116.08"/><polygon class="cls-34" points="350.33 88.74 374.01 102.41 375.16 101.75 350.33 87.42 325.51 101.75 326.65 102.41 350.33 88.74"/><polygon class="cls-35" points="350.33 137.62 350.33 146.66 412.45 110.8 412.45 101.75 350.33 137.62"/><polygon class="cls-36" points="288.21 101.75 288.21 110.8 350.33 146.66 350.33 137.62 288.21 101.75"/><polygon class="cls-37" points="350.33 136.63 289.07 101.26 288.21 101.75 350.33 137.62 412.45 101.75 411.6 101.26 350.33 136.63"/><path class="cls-25" d="M370.53,177.72,360,171.65a7.24,7.24,0,0,1-3.27-5.67v-2.54a6.89,6.89,0,0,0-3.11-5.39l-2.2-1.27.16-.27,2.2,1.27a7.24,7.24,0,0,1,3.27,5.67V166a6.89,6.89,0,0,0,3.11,5.39l10.51,6.07Z"/><path class="cls-25" d="M374.62,175.36l-10.51-6.07a7.24,7.24,0,0,1-3.27-5.67v-2.54a6.89,6.89,0,0,0-3.11-5.39l-2.2-1.27.16-.27,2.2,1.27a7.24,7.24,0,0,1,3.27,5.67v2.54a6.89,6.89,0,0,0,3.11,5.39l10.51,6.07Z"/><path class="cls-25" d="M378.71,173l-10.51-6.07a7.24,7.24,0,0,1-3.27-5.67v-2.53a6.9,6.9,0,0,0-3.11-5.39l-2.2-1.27.16-.27,2.2,1.27a7.24,7.24,0,0,1,3.27,5.67v2.53a6.9,6.9,0,0,0,3.11,5.39l10.51,6.07Z"/><path class="cls-25" d="M382.8,170.65l-10.51-6.07a7.24,7.24,0,0,1-3.27-5.67v-2.54A6.89,6.89,0,0,0,365.9,151l-2.2-1.27.16-.27,2.2,1.27a7.24,7.24,0,0,1,3.27,5.67v2.54a6.89,6.89,0,0,0,3.11,5.39L383,170.38Z"/><path class="cls-25" d="M386.89,168.29l-10.51-6.07a7.24,7.24,0,0,1-3.27-5.67V154a6.89,6.89,0,0,0-3.11-5.39l-2.2-1.27.16-.27,2.2,1.27a7.24,7.24,0,0,1,3.27,5.67v2.54a6.89,6.89,0,0,0,3.11,5.39L387,168Z"/><path class="cls-25" d="M391,165.94l-10.51-6.07a7.24,7.24,0,0,1-3.27-5.67v-2.53a6.9,6.9,0,0,0-3.11-5.39l-2.2-1.27.16-.27,2.2,1.27a7.24,7.24,0,0,1,3.27,5.67v2.53a6.9,6.9,0,0,0,3.11,5.39l10.51,6.07Z"/><path class="cls-25" d="M395.06,163.58l-10.51-6.07a7.24,7.24,0,0,1-3.27-5.67v-2.54a6.9,6.9,0,0,0-3.11-5.39l-2.2-1.27.16-.27,2.2,1.27a7.24,7.24,0,0,1,3.27,5.67v2.54a6.89,6.89,0,0,0,3.11,5.39l10.51,6.07Z"/><path class="cls-25" d="M399.15,161.23l-10.51-6.07a7.24,7.24,0,0,1-3.27-5.67V147a6.89,6.89,0,0,0-3.11-5.39l-2.2-1.27.16-.27,2.2,1.27a7.24,7.24,0,0,1,3.27,5.67v2.54a6.89,6.89,0,0,0,3.11,5.39L399.31,161Z"/><path class="cls-25" d="M403.24,158.87l-10.51-6.07a7.24,7.24,0,0,1-3.27-5.67V144.6a6.9,6.9,0,0,0-3.11-5.39l-2.2-1.27.16-.27,2.2,1.27a7.24,7.24,0,0,1,3.27,5.67v2.53a6.9,6.9,0,0,0,3.11,5.39l10.51,6.07Z"/><path class="cls-25" d="M407.33,156.51l-10.51-6.07a7.24,7.24,0,0,1-3.27-5.67v-2.54a6.89,6.89,0,0,0-3.11-5.39l-2.2-1.27.16-.27,2.2,1.27a7.24,7.24,0,0,1,3.27,5.67v2.54a6.89,6.89,0,0,0,3.11,5.39l10.51,6.07Z"/><path class="cls-25" d="M411.41,154.16l-10.51-6.07a7.24,7.24,0,0,1-3.27-5.67v-2.54a6.89,6.89,0,0,0-3.11-5.39l-2.2-1.27.16-.27,2.2,1.27a7.24,7.24,0,0,1,3.27,5.67v2.54a6.89,6.89,0,0,0,3.11,5.39l10.51,6.07Z"/><path class="cls-25" d="M415.5,151.8,405,145.73a7.24,7.24,0,0,1-3.27-5.67v-2.53a6.9,6.9,0,0,0-3.11-5.39l-2.2-1.27.16-.27,2.2,1.27a7.24,7.24,0,0,1,3.27,5.67v2.53a6.89,6.89,0,0,0,3.11,5.39l10.51,6.07Z"/><path class="cls-25" d="M419.59,149.45l-10.51-6.07a7.24,7.24,0,0,1-3.27-5.67v-2.54a6.89,6.89,0,0,0-3.11-5.39l-2.2-1.27.16-.27,2.2,1.27a7.24,7.24,0,0,1,3.27,5.67v2.54a6.89,6.89,0,0,0,3.11,5.39l10.51,6.07Z"/><path class="cls-25" d="M423.68,147.09,413.17,141a7.24,7.24,0,0,1-3.27-5.67v-2.54a6.89,6.89,0,0,0-3.11-5.39l-2.2-1.27.16-.27,2.2,1.27a7.24,7.24,0,0,1,3.27,5.67v2.54a6.9,6.9,0,0,0,3.11,5.39l10.51,6.07Z"/><path class="cls-25" d="M427.77,144.73l-10.51-6.07A7.24,7.24,0,0,1,414,133v-2.53a6.9,6.9,0,0,0-3.11-5.39l-2.2-1.27.16-.27,2.2,1.27a7.24,7.24,0,0,1,3.27,5.67V133a6.89,6.89,0,0,0,3.11,5.39l10.51,6.07Z"/><path class="cls-25" d="M431.86,142.38l-10.51-6.07a7.24,7.24,0,0,1-3.27-5.67v-2.54a6.89,6.89,0,0,0-3.11-5.39l-2.2-1.27.16-.27,2.2,1.27a7.24,7.24,0,0,1,3.27,5.67v2.54A6.89,6.89,0,0,0,421.5,136L432,142.11Z"/><path class="cls-25" d="M435.94,140,425.43,134a7.24,7.24,0,0,1-3.27-5.67v-2.54a6.89,6.89,0,0,0-3.11-5.39l-2.2-1.27.16-.27,2.2,1.27a7.24,7.24,0,0,1,3.27,5.67v2.54a6.89,6.89,0,0,0,3.11,5.39l10.51,6.07Z"/><path class="cls-25" d="M440,137.67l-10.51-6.07a7.24,7.24,0,0,1-3.27-5.67V123.4a6.9,6.9,0,0,0-3.11-5.39l-2.2-1.27.16-.27,2.2,1.27a7.24,7.24,0,0,1,3.27,5.67v2.53a6.89,6.89,0,0,0,3.11,5.39l10.51,6.07Z"/><path class="cls-25" d="M444.12,135.31l-10.51-6.07a7.24,7.24,0,0,1-3.27-5.67V121a6.89,6.89,0,0,0-3.11-5.39l-2.2-1.27.16-.27,2.2,1.27a7.24,7.24,0,0,1,3.27,5.67v2.54a6.89,6.89,0,0,0,3.11,5.39L444.28,135Z"/><path class="cls-25" d="M448.21,133l-10.51-6.07a7.24,7.24,0,0,1-3.27-5.67v-2.54a6.89,6.89,0,0,0-3.11-5.39l-2.2-1.27.16-.27,2.2,1.27a7.24,7.24,0,0,1,3.27,5.67v2.54a6.89,6.89,0,0,0,3.11,5.39l10.51,6.07Z"/><path class="cls-25" d="M329.85,177.72l-.16-.27,10.51-6.07a6.89,6.89,0,0,0,3.11-5.39v-2.54a7.24,7.24,0,0,1,3.27-5.67l2.2-1.27.16.27-2.2,1.27a6.89,6.89,0,0,0-3.11,5.39V166a7.24,7.24,0,0,1-3.27,5.67Z"/><path class="cls-25" d="M325.76,175.36l-.16-.27L336.11,169a6.89,6.89,0,0,0,3.11-5.39v-2.54a7.24,7.24,0,0,1,3.27-5.67l2.2-1.27.16.27-2.2,1.27a6.89,6.89,0,0,0-3.11,5.39v2.54a7.24,7.24,0,0,1-3.27,5.67Z"/><path class="cls-25" d="M321.67,173l-.16-.27L332,166.66a6.9,6.9,0,0,0,3.11-5.39v-2.53a7.24,7.24,0,0,1,3.27-5.67l2.2-1.27.16.27-2.2,1.27a6.9,6.9,0,0,0-3.11,5.39v2.53a7.24,7.24,0,0,1-3.27,5.67Z"/><path class="cls-25" d="M317.58,170.65l-.16-.27,10.51-6.07a6.89,6.89,0,0,0,3.11-5.39v-2.54a7.24,7.24,0,0,1,3.27-5.67l2.2-1.27.16.27-2.2,1.27a6.89,6.89,0,0,0-3.11,5.39v2.54a7.24,7.24,0,0,1-3.27,5.67Z"/><path class="cls-25" d="M313.49,168.29l-.16-.27L323.85,162a6.89,6.89,0,0,0,3.11-5.39V154a7.24,7.24,0,0,1,3.27-5.67l2.2-1.27.16.27-2.2,1.27a6.89,6.89,0,0,0-3.11,5.39v2.54a7.24,7.24,0,0,1-3.27,5.67Z"/><path class="cls-25" d="M254.43,198.12l-.16-.27,65.49-38.25a6.9,6.9,0,0,0,3.11-5.39v-2.53a7.24,7.24,0,0,1,3.27-5.67l2.2-1.27.16.27-2.2,1.27a6.9,6.9,0,0,0-3.11,5.39v2.53a7.24,7.24,0,0,1-3.27,5.67Z"/><path class="cls-25" d="M305.32,163.58l-.16-.27,10.51-6.07a6.89,6.89,0,0,0,3.11-5.39v-2.54a7.24,7.24,0,0,1,3.27-5.67l2.2-1.27.16.27-2.2,1.27a6.9,6.9,0,0,0-3.11,5.39v2.54a7.24,7.24,0,0,1-3.27,5.67Z"/><path class="cls-25" d="M301.23,161.23l-.16-.27,10.51-6.07a6.89,6.89,0,0,0,3.11-5.39V147a7.24,7.24,0,0,1,3.27-5.67l2.2-1.27.16.27-2.2,1.27A6.89,6.89,0,0,0,315,147v2.54a7.24,7.24,0,0,1-3.27,5.67Z"/><path class="cls-25" d="M280.18,168.43l-.08,0,55.26,31.47.16-.28-55.34-31.52L297,158.6l10.51-6.07a6.9,6.9,0,0,0,3.11-5.39V144.6a7.24,7.24,0,0,1,3.27-5.67l2.2-1.27.16.27-2.2,1.27a6.9,6.9,0,0,0-3.11,5.39v2.53a7.24,7.24,0,0,1-3.27,5.67l-10.51,6.07Z"/><path class="cls-25" d="M293.05,156.51l-.16-.27,10.51-6.07a6.89,6.89,0,0,0,3.11-5.39v-2.54a7.24,7.24,0,0,1,3.27-5.67l2.2-1.27.16.27-2.2,1.27a6.89,6.89,0,0,0-3.11,5.39v2.54a7.24,7.24,0,0,1-3.27,5.67Z"/><path class="cls-25" d="M186,216.16l-.16-.27,113.51-68.07a6.89,6.89,0,0,0,3.11-5.39v-2.54a7.24,7.24,0,0,1,3.27-5.67l2.2-1.27.16.27-2.2,1.27a6.89,6.89,0,0,0-3.11,5.39v2.54a7.24,7.24,0,0,1-3.27,5.67Z"/><path class="cls-25" d="M181.88,213.8l-.16-.27,113.51-68.07a6.89,6.89,0,0,0,3.11-5.39v-2.53a7.24,7.24,0,0,1,3.27-5.67l2.2-1.27.16.27-2.2,1.27a6.9,6.9,0,0,0-3.11,5.39v2.53a7.24,7.24,0,0,1-3.27,5.67Z"/><path class="cls-25" d="M177.79,211.45l-.16-.27,113.51-68.07a6.89,6.89,0,0,0,3.11-5.39v-2.54a7.24,7.24,0,0,1,3.27-5.67l2.2-1.27.16.27-2.2,1.27a6.89,6.89,0,0,0-3.11,5.39v2.54a7.24,7.24,0,0,1-3.27,5.67Z"/><path class="cls-25" d="M276.7,147.09l-.16-.27,10.51-6.07a6.9,6.9,0,0,0,3.11-5.39v-2.54a7.24,7.24,0,0,1,3.27-5.67l2.2-1.27.16.27-2.2,1.27a6.89,6.89,0,0,0-3.11,5.39v2.54a7.24,7.24,0,0,1-3.27,5.67Z"/><path class="cls-25" d="M212.59,180.5l-.16-.27L283,138.39a6.89,6.89,0,0,0,3.11-5.39v-2.53a7.24,7.24,0,0,1,3.27-5.67l2.2-1.27.16.27-2.2,1.27a6.9,6.9,0,0,0-3.11,5.39V133a7.24,7.24,0,0,1-3.27,5.67Z"/><path class="cls-25" d="M212.51,175.93l-.16-.27L278.88,136a6.89,6.89,0,0,0,3.11-5.39v-2.54a7.24,7.24,0,0,1,3.27-5.67l2.2-1.27.16.27-2.2,1.27a6.89,6.89,0,0,0-3.11,5.39v2.54a7.24,7.24,0,0,1-3.27,5.67Z"/><path class="cls-25" d="M212.43,171.23l-.16-.27,62.51-37.27a6.89,6.89,0,0,0,3.11-5.39v-2.54a7.24,7.24,0,0,1,3.27-5.67l2.2-1.27.16.27-2.2,1.27a6.89,6.89,0,0,0-3.11,5.39v2.54a7.24,7.24,0,0,1-3.27,5.67Z"/><path class="cls-25" d="M260.35,137.67l-.16-.27,10.51-6.07a6.89,6.89,0,0,0,3.11-5.39V123.4a7.24,7.24,0,0,1,3.27-5.67l2.2-1.27.16.27-2.2,1.27a6.9,6.9,0,0,0-3.11,5.39v2.53a7.24,7.24,0,0,1-3.27,5.67Z"/><path class="cls-25" d="M256.26,135.31l-.16-.27L266.61,129a6.89,6.89,0,0,0,3.11-5.39V121a7.24,7.24,0,0,1,3.27-5.67l2.2-1.27.16.27-2.2,1.27A6.89,6.89,0,0,0,270,121v2.54a7.24,7.24,0,0,1-3.27,5.67Z"/><path class="cls-25" d="M252.17,133l-.16-.27,10.51-6.07a6.89,6.89,0,0,0,3.11-5.39v-2.54a7.24,7.24,0,0,1,3.27-5.67l2.2-1.27.16.27-2.2,1.27a6.89,6.89,0,0,0-3.11,5.39v2.54a7.24,7.24,0,0,1-3.27,5.67Z"/><g class="cls-38"><polygon class="cls-39" points="349.33 238.64 334.26 229.94 334.26 247.34 349.33 256.04 364.4 247.34 364.4 229.94 349.33 238.64"/><polygon class="cls-39" points="349.33 256.04 334.26 247.34 334.26 229.94 349.33 238.64 349.33 256.04"/><polygon class="cls-40" points="364.4 247.34 349.33 256.04 349.33 238.64 364.4 229.94 364.4 247.34"/><polygon class="cls-39" points="349.33 238.64 334.26 229.94 349.33 221.24 364.4 229.94 349.33 238.64"/><polygon class="cls-28" points="349.33 238.64 334.26 229.94 334.26 230.7 349.33 239.4 364.4 230.7 364.4 229.94 349.33 238.64"/></g><polygon class="cls-41" points="349.33 228.1 334.26 219.4 349.33 210.7 364.4 219.4 349.33 228.1"/><polygon class="cls-39" points="349.33 197.52 334.26 188.82 334.26 206.22 349.33 214.92 364.4 206.22 364.4 188.82 349.33 197.52"/><polygon class="cls-39" points="349.33 214.92 334.26 206.22 334.26 188.82 349.33 197.52 349.33 214.92"/><polygon class="cls-40" points="364.4 206.22 349.33 214.92 349.33 197.52 364.4 188.82 364.4 206.22"/><polygon class="cls-39" points="349.33 197.52 334.26 188.82 349.33 180.12 364.4 188.82 349.33 197.52"/><polygon class="cls-40" points="349.33 195.38 337.97 188.82 349.33 182.26 360.69 188.82 349.33 195.38"/><polygon class="cls-28" points="349.33 197.52 334.26 188.82 334.26 189.58 349.33 198.28 364.4 189.58 364.4 188.82 349.33 197.52"/><polygon class="cls-39" points="349.33 171.42 334.26 162.72 334.26 180.12 349.33 188.82 364.4 180.12 364.4 162.72 349.33 171.42"/><polygon class="cls-39" points="349.33 188.82 334.26 180.12 334.26 162.72 349.33 171.42 349.33 188.82"/><polygon class="cls-40" points="364.4 180.12 349.33 188.82 349.33 171.42 364.4 162.72 364.4 180.12"/><polygon class="cls-39" points="349.33 171.42 334.26 162.72 349.33 154.03 364.4 162.72 349.33 171.42"/><polygon class="cls-28" points="349.33 171.42 334.26 162.72 334.26 163.48 349.33 172.18 364.4 163.48 364.4 162.72 349.33 171.42"/><g class="cls-38"><polygon class="cls-39" points="382.56 231.26 367.49 222.56 367.49 239.96 382.56 248.66 397.63 239.96 397.63 222.56 382.56 231.26"/><polygon class="cls-39" points="382.56 248.66 367.49 239.96 367.49 222.56 382.56 231.26 382.56 248.66"/><polygon class="cls-40" points="397.63 239.96 382.56 248.66 382.56 231.26 397.63 222.56 397.63 239.96"/><polygon class="cls-39" points="382.56 231.26 367.49 222.56 382.56 213.86 397.63 222.56 382.56 231.26"/><polygon class="cls-28" points="382.56 231.26 367.49 222.56 367.49 223.31 382.56 232.01 397.63 223.31 397.63 222.56 382.56 231.26"/></g><path class="cls-25" d="M383,224.79l-.08,0L360.82,212l.24-.14L383,199.23l.08,0L405.09,212l-.24.14ZM361.45,212,383,224.43,404.46,212,383,199.6Z"/><polygon class="cls-41" points="382.56 220.71 367.49 212.01 382.56 203.31 397.63 212.01 382.56 220.71"/><polygon class="cls-39" points="382.56 190.14 367.49 181.44 367.49 198.84 382.56 207.53 397.63 198.84 397.63 181.44 382.56 190.14"/><polygon class="cls-39" points="382.56 207.53 367.49 198.84 367.49 181.44 382.56 190.14 382.56 207.53"/><polygon class="cls-40" points="397.63 198.84 382.56 207.53 382.56 190.14 397.63 181.44 397.63 198.84"/><polygon class="cls-39" points="382.56 190.14 367.49 181.44 382.56 172.74 397.63 181.44 382.56 190.14"/><polygon class="cls-28" points="382.56 190.14 367.49 181.44 367.49 182.19 382.56 190.89 397.63 182.19 397.63 181.44 382.56 190.14"/><g class="cls-38"><polygon class="cls-39" points="313.33 238.64 298.27 229.94 298.27 247.34 313.33 256.04 328.4 247.34 328.4 229.94 313.33 238.64"/><polygon class="cls-39" points="313.33 256.04 298.27 247.34 298.27 229.94 313.33 238.64 313.33 256.04"/><polygon class="cls-40" points="328.4 247.34 313.33 256.04 313.33 238.64 328.4 229.94 328.4 247.34"/><polygon class="cls-39" points="313.33 238.64 298.27 229.94 313.33 221.24 328.4 229.94 313.33 238.64"/><polygon class="cls-28" points="313.33 238.64 298.27 229.94 298.27 230.7 313.33 239.4 328.4 230.7 328.4 229.94 313.33 238.64"/></g><polygon class="cls-41" points="313.33 228.1 298.27 219.4 313.33 210.7 328.4 219.4 313.33 228.1"/><polygon class="cls-39" points="313.33 197.52 298.27 188.82 298.27 206.22 313.33 214.92 328.4 206.22 328.4 188.82 313.33 197.52"/><polygon class="cls-39" points="313.33 214.92 298.27 206.22 298.27 188.82 313.33 197.52 313.33 214.92"/><polygon class="cls-40" points="328.4 206.22 313.33 214.92 313.33 197.52 328.4 188.82 328.4 206.22"/><polygon class="cls-39" points="313.33 197.52 298.27 188.82 313.33 180.12 328.4 188.82 313.33 197.52"/><polygon class="cls-28" points="313.33 197.52 298.27 188.82 298.27 189.58 313.33 198.28 328.4 189.58 328.4 188.82 313.33 197.52"/><g class="cls-38"><polygon class="cls-39" points="245.69 273.87 258.73 285.39 262.19 268.34 249.15 256.82 232.65 262.35 229.19 279.4 245.69 273.87"/><polygon class="cls-39" points="249.15 256.82 262.19 268.34 258.73 285.39 245.69 273.87 249.15 256.82"/><polygon class="cls-40" points="232.65 262.35 249.15 256.82 245.69 273.87 229.19 279.4 232.65 262.35"/><polygon class="cls-39" points="245.69 273.87 258.73 285.39 242.23 290.92 229.19 279.4 245.69 273.87"/><polygon class="cls-28" points="245.69 273.87 258.73 285.39 258.88 284.65 245.84 273.13 229.34 278.66 229.19 279.4 245.69 273.87"/></g><polygon class="cls-41" points="248.36 267.24 233.29 258.54 248.36 249.84 263.43 258.54 248.36 267.24"/><path class="cls-42" d="M248.36,282.35c-9.93,0-19.86-2.18-27.42-6.55-7.36-4.25-11.41-9.9-11.41-15.92s4.05-11.68,11.41-15.92c15.12-8.73,39.72-8.73,54.85,0,7.35,4.25,11.41,9.9,11.41,15.92s-4.05,11.68-11.4,15.92C268.22,280.17,258.29,282.35,248.36,282.35Zm0-44.63c-9.87,0-19.75,2.17-27.26,6.51-7.25,4.19-11.25,9.75-11.25,15.65s4,11.46,11.25,15.65c15,8.68,39.5,8.68,54.53,0,7.25-4.19,11.25-9.75,11.25-15.65s-4-11.46-11.25-15.65C268.11,239.89,258.23,237.72,248.36,237.72Z"/><path class="cls-43" d="M248.36,288.37c-12.6,0-25.2-2.77-34.8-8.31-9.32-5.38-14.46-12.55-14.46-20.18s5.14-14.8,14.46-20.18c19.19-11.08,50.41-11.08,69.59,0,9.33,5.38,14.46,12.55,14.46,20.18s-5.13,14.8-14.46,20.18l-.08-.14.08.14C273.56,285.6,261,288.37,248.36,288.37Zm0-56.67c-12.54,0-25.09,2.76-34.64,8.27-9.22,5.33-14.3,12.39-14.3,19.91s5.08,14.58,14.3,19.91c19.1,11,50.18,11,69.28,0h0c9.22-5.33,14.3-12.39,14.3-19.91S292.22,245.29,283,240C273.45,234.46,260.9,231.7,248.36,231.7Z"/><path class="cls-39" d="M248.36,277.61c-7.83,0-15.65-1.72-21.61-5.16-5.8-3.35-9-7.81-9-12.57s3.2-9.22,9-12.57c11.92-6.88,31.31-6.88,43.23,0,5.8,3.35,9,7.82,9,12.57s-3.2,9.22-9,12.57C264,275.89,256.19,277.61,248.36,277.61Zm0-35.15c-7.77,0-15.54,1.71-21.45,5.12-5.7,3.29-8.84,7.66-8.84,12.3s3.14,9,8.84,12.3c11.83,6.83,31.08,6.83,42.91,0l.08.14-.08-.14c5.7-3.29,8.84-7.66,8.84-12.29s-3.14-9-8.84-12.3C263.9,244.17,256.13,242.46,248.36,242.46Z"/><polygon class="cls-39" points="246.62 243.24 244.9 225.92 230.77 236.07 232.49 253.39 248.35 260.55 262.48 250.4 246.62 243.24"/><polygon class="cls-39" points="232.49 253.39 230.77 236.07 244.9 225.92 246.62 243.24 232.49 253.39"/><polygon class="cls-40" points="248.35 260.55 232.49 253.39 246.62 243.24 262.48 250.4 248.35 260.55"/><polygon class="cls-39" points="246.62 243.24 244.9 225.92 260.75 233.09 262.48 250.4 246.62 243.24"/><polygon class="cls-28" points="246.62 243.24 244.9 225.92 244.28 226.36 246.01 243.68 261.87 250.84 262.48 250.4 246.62 243.24"/><polygon class="cls-41" points="239.46 256.53 253.94 256.53 248.35 260.55 239.46 256.53"/><polygon class="cls-39" points="350.33 70.21 335.27 61.51 335.27 78.91 350.33 87.61 365.4 78.91 365.4 61.51 350.33 70.21"/><polygon class="cls-39" points="350.33 87.61 335.27 78.91 335.27 61.51 350.33 70.21 350.33 87.61"/><polygon class="cls-40" points="365.4 78.91 350.33 87.61 350.33 70.21 365.4 61.51 365.4 78.91"/><polygon class="cls-39" points="350.33 70.21 335.27 61.51 350.33 52.81 365.4 61.51 350.33 70.21"/><polygon class="cls-28" points="350.33 70.21 335.92 61.89 335.27 62.27 350.33 70.97 365.4 62.27 364.75 61.89 350.33 70.21"/><polygon class="cls-39" points="369.91 81.38 354.84 72.68 354.84 90.08 369.91 98.78 384.97 90.08 384.97 72.68 369.91 81.38"/><polygon class="cls-39" points="369.91 98.78 354.84 90.08 354.84 72.68 369.91 81.38 369.91 98.78"/><polygon class="cls-40" points="384.97 90.08 369.91 98.78 369.91 81.38 384.97 72.68 384.97 90.08"/><polygon class="cls-39" points="369.91 81.38 354.84 72.68 369.9 63.98 384.97 72.68 369.91 81.38"/><polygon class="cls-28" points="369.91 81.38 355.49 73.06 354.84 73.43 369.91 82.13 384.97 73.43 384.32 73.06 369.91 81.38"/><polygon class="cls-39" points="389.48 92.55 374.41 83.84 374.41 101.24 389.48 109.94 404.55 101.24 404.55 83.84 389.48 92.55"/><polygon class="cls-39" points="389.48 109.94 374.41 101.24 374.41 83.84 389.48 92.55 389.48 109.94"/><polygon class="cls-40" points="404.55 101.24 389.48 109.94 389.48 92.55 404.55 83.84 404.55 101.24"/><polygon class="cls-39" points="389.48 92.55 374.41 83.84 389.48 75.15 404.55 83.85 389.48 92.55"/><polygon class="cls-28" points="389.48 92.55 375.06 84.22 374.41 84.6 389.48 93.3 404.55 84.6 404.55 83.84 389.48 92.55"/><polygon class="cls-39" points="330.76 82.13 315.69 73.43 315.69 90.83 330.76 99.53 345.83 90.83 345.83 73.43 330.76 82.13"/><polygon class="cls-39" points="330.76 99.53 315.69 90.83 315.69 73.43 330.76 82.13 330.76 99.53"/><polygon class="cls-40" points="345.83 90.83 330.76 99.53 330.76 82.13 345.83 73.43 345.83 90.83"/><polygon class="cls-39" points="330.76 82.13 315.69 73.43 330.76 64.73 345.83 73.43 330.76 82.13"/><polygon class="cls-28" points="330.76 82.13 316.35 73.81 315.69 74.19 330.76 82.89 345.83 74.19 345.18 73.81 330.76 82.13"/><polygon class="cls-39" points="350.33 93.3 335.27 84.6 335.27 102 350.33 110.7 365.4 102 365.4 84.6 350.33 93.3"/><polygon class="cls-39" points="350.33 110.7 335.27 102 335.27 84.6 350.33 93.3 350.33 110.7"/><polygon class="cls-40" points="365.4 102 350.33 110.7 350.33 93.3 365.4 84.6 365.4 102"/><polygon class="cls-39" points="350.33 93.3 335.27 84.6 350.33 75.9 365.4 84.6 350.33 93.3"/><polygon class="cls-28" points="350.33 93.3 335.92 84.98 335.27 85.36 350.33 94.05 365.4 85.36 364.75 84.98 350.33 93.3"/><polygon class="cls-39" points="369.91 104.47 354.84 95.77 354.84 113.17 369.91 121.86 384.97 113.17 384.97 95.77 369.91 104.47"/><polygon class="cls-39" points="369.91 121.86 354.84 113.17 354.84 95.77 369.91 104.47 369.91 121.86"/><polygon class="cls-40" points="384.97 113.17 369.91 121.86 369.91 104.47 384.97 95.77 384.97 113.17"/><polygon class="cls-39" points="369.91 104.47 354.84 95.77 369.9 87.07 384.97 95.77 369.91 104.47"/><polygon class="cls-28" points="369.91 104.47 355.49 96.14 354.84 96.52 369.91 105.22 384.97 96.52 384.97 95.77 369.91 104.47"/><polygon class="cls-39" points="311.19 94.05 296.12 85.36 296.12 102.75 311.19 111.45 326.26 102.75 326.26 85.36 311.19 94.05"/><polygon class="cls-39" points="311.19 111.45 296.12 102.75 296.12 85.36 311.19 94.05 311.19 111.45"/><polygon class="cls-40" points="326.26 102.75 311.19 111.45 311.19 94.05 326.26 85.36 326.26 102.75"/><polygon class="cls-39" points="311.19 94.05 296.12 85.36 311.19 76.66 326.26 85.36 311.19 94.05"/><polygon class="cls-28" points="311.19 94.05 296.12 85.36 296.12 86.11 311.19 94.81 326.26 86.11 325.6 85.73 311.19 94.05"/><polygon class="cls-39" points="330.76 105.22 315.69 96.52 315.69 113.92 330.76 122.62 345.83 113.92 345.83 96.52 330.76 105.22"/><polygon class="cls-39" points="330.76 122.62 315.69 113.92 315.69 96.52 330.76 105.22 330.76 122.62"/><polygon class="cls-40" points="345.83 113.92 330.76 122.62 330.76 105.22 345.83 96.52 345.83 113.92"/><polygon class="cls-39" points="330.76 105.22 315.69 96.52 330.76 87.82 345.83 96.52 330.76 105.22"/><polygon class="cls-28" points="330.76 105.22 315.69 96.52 315.69 97.28 330.76 105.98 345.83 97.28 345.18 96.9 330.76 105.22"/><polygon class="cls-39" points="350.33 116.39 335.27 107.69 335.27 125.09 350.33 133.79 365.4 125.09 365.4 107.69 350.33 116.39"/><polygon class="cls-39" points="350.33 133.79 335.27 125.09 335.27 107.69 350.33 116.39 350.33 133.79"/><polygon class="cls-40" points="365.4 125.09 350.33 133.79 350.33 116.39 365.4 107.69 365.4 125.09"/><polygon class="cls-39" points="350.33 116.39 335.27 107.69 350.33 98.99 365.4 107.69 350.33 116.39"/><polygon class="cls-28" points="350.33 116.39 335.27 107.69 335.27 108.44 350.33 117.14 365.4 108.44 365.4 107.69 350.33 116.39"/><polygon class="cls-39" points="350.33 47.12 335.27 38.42 335.27 55.82 350.33 64.52 365.4 55.82 365.4 38.42 350.33 47.12"/><polygon class="cls-39" points="350.33 64.52 335.27 55.82 335.27 38.42 350.33 47.12 350.33 64.52"/><polygon class="cls-40" points="365.4 55.82 350.33 64.52 350.33 47.12 365.4 38.42 365.4 55.82"/><polygon class="cls-39" points="350.33 47.12 335.27 38.42 350.33 29.72 365.4 38.42 350.33 47.12"/><polygon class="cls-28" points="350.33 47.12 335.92 38.8 335.27 39.18 350.33 47.88 365.4 39.18 364.75 38.8 350.33 47.12"/><polygon class="cls-44" points="350.33 113.56 340.06 107.62 350.33 101.69 360.61 107.62 350.33 113.56"/><polygon class="cls-44" points="330.76 102.39 320.48 96.45 330.76 90.52 341.04 96.45 330.76 102.39"/><polygon class="cls-44" points="369.91 101.63 359.63 95.7 369.9 89.77 380.18 95.7 369.91 101.63"/><polygon class="cls-44" points="389.51 89.85 379.24 83.91 389.51 77.98 399.79 83.91 389.51 89.85"/><polygon class="cls-44" points="311.19 91.22 300.91 85.29 311.19 79.35 321.47 85.29 311.19 91.22"/><polygon class="cls-39" points="369.91 58.29 354.84 49.59 354.84 66.99 369.91 75.69 384.97 66.99 384.97 49.59 369.91 58.29"/><polygon class="cls-39" points="369.91 75.69 354.84 66.99 354.84 49.59 369.91 58.29 369.91 75.69"/><polygon class="cls-40" points="384.97 66.99 369.91 75.69 369.91 58.29 384.97 49.59 384.97 66.99"/><polygon class="cls-39" points="369.91 58.29 354.84 49.59 369.9 40.89 384.97 49.59 369.91 58.29"/><polygon class="cls-28" points="369.91 58.29 355.49 49.97 354.84 50.34 369.91 59.04 384.97 50.34 384.32 49.97 369.91 58.29"/><polygon class="cls-39" points="389.48 69.46 374.41 60.76 374.41 78.15 389.48 86.85 404.55 78.15 404.55 60.76 389.48 69.46"/><polygon class="cls-39" points="389.48 86.85 374.41 78.16 374.41 60.76 389.48 69.46 389.48 86.85"/><polygon class="cls-40" points="404.55 78.16 389.48 86.85 389.48 69.46 404.55 60.76 404.55 78.16"/><polygon class="cls-39" points="389.48 69.46 374.41 60.76 389.48 52.06 404.55 60.76 389.48 69.46"/><polygon class="cls-28" points="389.48 69.46 375.06 61.13 374.41 61.51 389.48 70.21 404.55 61.51 404.55 60.76 389.48 69.46"/><polygon class="cls-39" points="330.76 59.04 315.69 50.34 315.69 67.74 330.76 76.44 345.83 67.74 345.83 50.34 330.76 59.04"/><polygon class="cls-39" points="330.76 76.44 315.69 67.74 315.69 50.34 330.76 59.04 330.76 76.44"/><polygon class="cls-40" points="345.83 67.74 330.76 76.44 330.76 59.04 345.83 50.34 345.83 67.74"/><polygon class="cls-39" points="330.76 59.04 315.69 50.34 330.76 41.65 345.83 50.34 330.76 59.04"/><polygon class="cls-28" points="330.76 59.04 316.35 50.72 315.69 51.1 330.76 59.8 345.83 51.1 345.18 50.72 330.76 59.04"/><polygon class="cls-39" points="350.33 70.21 335.27 61.51 335.27 78.91 350.33 87.61 365.4 78.91 365.4 61.51 350.33 70.21"/><polygon class="cls-39" points="350.33 87.61 335.27 78.91 335.27 61.51 350.33 70.21 350.33 87.61"/><polygon class="cls-40" points="365.4 78.91 350.33 87.61 350.33 70.21 365.4 61.51 365.4 78.91"/><polygon class="cls-39" points="350.33 70.21 335.27 61.51 350.33 52.81 365.4 61.51 350.33 70.21"/><polygon class="cls-28" points="350.33 70.21 335.92 61.89 335.27 62.27 350.33 70.97 365.4 62.27 364.75 61.89 350.33 70.21"/><polygon class="cls-39" points="369.91 81.38 354.84 72.68 354.84 90.08 369.91 98.78 384.97 90.08 384.97 72.68 369.91 81.38"/><polygon class="cls-39" points="369.91 98.78 354.84 90.08 354.84 72.68 369.91 81.38 369.91 98.78"/><polygon class="cls-40" points="384.97 90.08 369.91 98.78 369.91 81.38 384.97 72.68 384.97 90.08"/><polygon class="cls-39" points="369.91 81.38 354.84 72.68 369.9 63.98 384.97 72.68 369.91 81.38"/><polygon class="cls-28" points="369.91 81.38 355.49 73.06 354.84 73.43 369.91 82.13 384.97 73.43 384.97 72.68 369.91 81.38"/><polygon class="cls-39" points="311.19 70.97 296.12 62.27 296.12 79.66 311.19 88.36 326.26 79.66 326.26 62.27 311.19 70.97"/><polygon class="cls-39" points="311.19 88.36 296.12 79.66 296.12 62.27 311.19 70.97 311.19 88.36"/><polygon class="cls-40" points="326.26 79.66 311.19 88.36 311.19 70.97 326.26 62.27 326.26 79.66"/><polygon class="cls-39" points="311.19 70.97 296.12 62.27 311.19 53.57 326.26 62.27 311.19 70.97"/><polygon class="cls-28" points="311.19 70.97 296.78 62.64 296.12 63.02 311.19 71.72 326.26 63.02 325.6 62.64 311.19 70.97"/><polygon class="cls-39" points="330.76 82.13 315.69 73.43 315.69 90.83 330.76 99.53 345.83 90.83 345.83 73.43 330.76 82.13"/><polygon class="cls-39" points="330.76 99.53 315.69 90.83 315.69 73.43 330.76 82.13 330.76 99.53"/><polygon class="cls-40" points="345.83 90.83 330.76 99.53 330.76 82.13 345.83 73.43 345.83 90.83"/><polygon class="cls-39" points="330.76 82.13 315.69 73.43 330.76 64.73 345.83 73.43 330.76 82.13"/><polygon class="cls-28" points="330.76 82.13 315.69 73.43 315.69 74.19 330.76 82.89 345.83 74.19 345.18 73.81 330.76 82.13"/><polygon class="cls-39" points="350.33 93.3 335.27 84.6 335.27 102 350.33 110.7 365.4 102 365.4 84.6 350.33 93.3"/><polygon class="cls-39" points="350.33 110.7 335.27 102 335.27 84.6 350.33 93.3 350.33 110.7"/><polygon class="cls-40" points="365.4 102 350.33 110.7 350.33 93.3 365.4 84.6 365.4 102"/><polygon class="cls-39" points="350.33 93.3 335.27 84.6 350.33 75.9 365.4 84.6 350.33 93.3"/><polygon class="cls-28" points="350.33 93.3 335.27 84.6 335.27 85.36 350.33 94.05 365.4 85.36 365.4 84.6 350.33 93.3"/><polygon class="cls-44" points="389.51 66.86 379.24 60.93 389.51 54.99 399.79 60.93 389.51 66.86"/><polygon class="cls-44" points="311.19 68.23 300.91 62.3 311.19 56.37 321.47 62.3 311.19 68.23"/><polygon class="cls-39" points="350.33 24.03 335.27 15.33 335.27 32.73 350.33 41.43 365.4 32.73 365.4 15.33 350.33 24.03"/><polygon class="cls-39" points="350.33 41.43 335.27 32.73 335.27 15.33 350.33 24.03 350.33 41.43"/><polygon class="cls-40" points="365.4 32.73 350.33 41.43 350.33 24.03 365.4 15.33 365.4 32.73"/><polygon class="cls-39" points="350.33 24.03 335.27 15.33 350.33 6.63 365.4 15.33 350.33 24.03"/><polygon class="cls-28" points="350.33 24.03 335.27 15.33 335.27 16.09 350.33 24.79 365.4 16.09 365.4 15.33 350.33 24.03"/><polygon class="cls-39" points="369.91 35.2 354.84 26.5 354.84 43.9 369.91 52.6 384.97 43.9 384.97 26.5 369.91 35.2"/><polygon class="cls-39" points="369.91 52.6 354.84 43.9 354.84 26.5 369.91 35.2 369.91 52.6"/><polygon class="cls-40" points="384.97 43.9 369.91 52.6 369.91 35.2 384.97 26.5 384.97 43.9"/><polygon class="cls-39" points="369.91 35.2 354.84 26.5 369.9 17.8 384.97 26.5 369.91 35.2"/><polygon class="cls-28" points="369.91 35.2 354.84 26.5 354.84 27.25 369.91 35.95 384.97 27.25 384.97 26.5 369.91 35.2"/><polygon class="cls-39" points="389.48 46.37 374.41 37.67 374.41 55.06 389.48 63.77 404.55 55.06 404.55 37.67 389.48 46.37"/><polygon class="cls-39" points="389.48 63.77 374.41 55.07 374.41 37.67 389.48 46.37 389.48 63.77"/><polygon class="cls-40" points="404.55 55.07 389.48 63.77 389.48 46.37 404.55 37.67 404.55 55.07"/><polygon class="cls-39" points="389.48 46.37 374.41 37.67 389.48 28.97 404.55 37.67 389.48 46.37"/><polygon class="cls-28" points="389.48 46.37 374.41 37.67 374.41 38.42 389.48 47.12 404.55 38.42 404.55 37.67 389.48 46.37"/><polygon class="cls-39" points="330.76 35.95 315.69 27.25 315.69 44.65 330.76 53.35 345.83 44.65 345.83 27.25 330.76 35.95"/><polygon class="cls-39" points="330.76 53.35 315.69 44.65 315.69 27.25 330.76 35.95 330.76 53.35"/><polygon class="cls-40" points="345.83 44.65 330.76 53.35 330.76 35.95 345.83 27.25 345.83 44.65"/><polygon class="cls-39" points="330.76 35.95 315.69 27.25 330.76 18.56 345.83 27.25 330.76 35.95"/><polygon class="cls-28" points="330.76 35.95 315.69 27.25 315.69 28.01 330.76 36.71 345.83 28.01 345.83 27.25 330.76 35.95"/><polygon class="cls-39" points="311.19 47.88 296.12 39.18 296.12 56.58 311.19 65.27 326.26 56.58 326.26 39.18 311.19 47.88"/><polygon class="cls-39" points="311.19 65.27 296.12 56.58 296.12 39.18 311.19 47.88 311.19 65.27"/><polygon class="cls-40" points="326.26 56.58 311.19 65.27 311.19 47.88 326.26 39.18 326.26 56.58"/><polygon class="cls-39" points="311.19 47.88 296.12 39.18 311.19 30.48 326.26 39.18 311.19 47.88"/><polygon class="cls-28" points="311.19 47.88 296.12 39.18 296.12 39.93 311.19 48.63 326.26 39.93 326.26 39.18 311.19 47.88"/><circle class="cls-45" cx="259.77" cy="276.01" r="2.03"/><circle class="cls-46" cx="259.77" cy="276.01" r="0.88"/><circle class="cls-45" cx="221.02" cy="283.23" r="3.17"/><circle class="cls-46" cx="221.02" cy="283.23" r="1.38"/><circle class="cls-45" cx="210.46" cy="255.54" r="2.15"/><circle class="cls-46" cx="210.46" cy="255.54" r="0.93"/><polygon class="cls-39" points="109.16 163.92 109 163.64 144.74 142.83 144.82 142.88 212.83 180.14 212.68 180.42 144.75 143.2 109.16 163.92"/><polygon class="cls-39" points="104.49 162.11 104.33 161.84 144.74 138.35 144.82 138.39 212.83 175.65 212.68 175.93 144.75 138.71 104.49 162.11"/><polygon class="cls-39" points="101.49 158.92 101.33 158.64 144.34 133.65 144.42 133.69 212.43 170.95 212.28 171.23 144.35 134.01 101.49 158.92"/><polyline class="cls-25" points="301.78 160.92 270.44 178.56 270.36 178.52 302.8 197.07 302.96 196.79 270.44 178.2 301.63 160.65"/><polyline class="cls-25" points="310.28 160.78 278.93 178.43 278.85 178.38 311.3 196.93 311.45 196.65 278.93 178.06 310.12 160.51"/><polyline class="cls-25" points="297.99 189.32 360.61 224.79 360.69 224.75 371.51 218.01 371.35 217.73 360.61 224.43 298.15 189.04"/><path class="cls-25" d="M254.59,197.84h-.32v16.94a6.89,6.89,0,0,1-3.11,5.39l-2.2,1.27a7.24,7.24,0,0,0-3.27,5.67v2.53H246v-2.53a6.89,6.89,0,0,1,3.11-5.39l2.2-1.27a7.24,7.24,0,0,0,3.27-5.67Z"/><path class="cls-39" d="M159.95,257.2l-25-14.42"/><path class="cls-42" d="M197.11,234.41v-8.55l-1.56-.87c-.44,2.67-3.58,4.43-6.21,4.79l-17.89,10.46-7.81,2.82L138.72,230.2l.58-.33c-2.13-1-3.28-3.27-4.43-5.35l-1.68,1-1,.28v8.69h0a3.72,3.72,0,0,0,2.19,3.06l25,14.41a11.74,11.74,0,0,0,10.6,0l25-14.41a3.75,3.75,0,0,0,2.19-3s0-.1,0-.15Z"/><path class="cls-47" d="M197.11,226.81v-5.66l-1.56-.87c-.44,2.67-3.58,4.43-6.21,4.79l-17.89,10.46-7.81,2.82-24.92-12.86.58-.33c-2.13-1-3.28-3.27-4.43-5.35l-1.68,1-1,.28v5.8h0a3.72,3.72,0,0,0,2.19,3.06l25,14.41a11.74,11.74,0,0,0,10.6,0l25-14.41a3.75,3.75,0,0,0,2.19-3s0-.1,0-.15Z"/><path class="cls-48" d="M159.35,238.63l-25-14.41c-2.92-1.69-2.92-4.43,0-6.12l25-14.41a11.73,11.73,0,0,1,10.6,0l25,14.41c2.92,1.69,2.92,4.43,0,6.12l-25,14.41A11.73,11.73,0,0,1,159.35,238.63Z"/><path class="cls-28" d="M134.38,224.92l25,14.41"/><path class="cls-39" d="M164.26,236.3a8.35,8.35,0,0,1-4.17-1.11l-22.38-12.87a1.61,1.61,0,0,1,0-2.79l21.06-12a9.46,9.46,0,0,1,9.41,0L190,220.11a1.61,1.61,0,0,1,0,2.79l-21.59,12.28A8.34,8.34,0,0,1,164.26,236.3ZM163.47,207a8.74,8.74,0,0,0-4.37,1.16L138,220.1a.94.94,0,0,0,0,1.63l22.38,12.87a7.69,7.69,0,0,0,7.67,0l21.59-12.28a.94.94,0,0,0,0-1.63l-21.85-12.56h0A8.74,8.74,0,0,0,163.47,207Z"/><path class="cls-49" d="M189.86,180.5,168,167.94a9.08,9.08,0,0,0-9.08,0l-21.06,12a1.27,1.27,0,0,0-.64,1.11v27.34a1.27,1.27,0,0,0,.64,1.11l22.38,12.87a8,8,0,0,0,8,0L189.86,210a1.27,1.27,0,0,0,.64-1.11V181.6h0A1.27,1.27,0,0,0,189.86,180.5Z"/><g class="cls-50"><path class="cls-51" d="M168,167.94a9.08,9.08,0,0,0-9.08,0l-21.06,12a1.28,1.28,0,0,0,0,2.21L160.25,195a8,8,0,0,0,8,0l21.59-12.28a1.28,1.28,0,0,0,0-2.21Z"/></g><path class="cls-52" d="M189.86,181.45l-21.59,12.28a8,8,0,0,1-8,0l-22.38-12.87a1.26,1.26,0,0,1-.47-.48,1.28,1.28,0,0,0,.47,1.74L160.25,195a8,8,0,0,0,8,0l21.59-12.28a1.28,1.28,0,0,0,.47-1.74A1.26,1.26,0,0,1,189.86,181.45Z"/><polygon class="cls-53" points="163.87 188.8 150.23 180.93 163.87 173.06 177.5 180.93 163.87 188.8"/><path class="cls-39" d="M163.87,189.54a.74.74,0,0,1-.37-.1l-13.63-7.87a.74.74,0,0,1,0-1.28l13.63-7.87a.74.74,0,0,1,.74,0l13.63,7.87a.74.74,0,0,1,0,1.28l-13.63,7.87A.74.74,0,0,1,163.87,189.54Zm-12.16-8.61,12.16,7,12.16-7-12.16-7Z"/><path class="cls-54" d="M64.55,216.92,4.21,182.08c-2.44-1.41-2.14-3.87.68-5.5l59-34c2.82-1.63,7.09-1.81,9.53-.39L133.73,177c2.44,1.41,2.14,3.87-.68,5.5l-59,34C71.26,218.15,67,218.33,64.55,216.92Z"/><g class="cls-55"><path class="cls-56" d="M64.55,216.92,4.21,182.08c-2.44-1.41-2.14-3.87.68-5.5l59-34c2.82-1.63,7.09-1.81,9.53-.39L133.73,177c2.44,1.41,2.14,3.87-.68,5.5l-59,34C71.26,218.15,67,218.33,64.55,216.92Z"/></g><path class="cls-39" d="M4.21,182.08l5.3,3.06,54.36-31.38c2.82-1.63,7.09-1.81,9.53-.4l55,31.78,4.62-2.67c2.82-1.63,3.13-4.09.68-5.5L73.39,142.14c-2.44-1.41-6.71-1.23-9.53.39l-59,34C2.07,178.21,1.76,180.67,4.21,182.08Z"/><g class="cls-57"><polygon class="cls-27" points="68.97 191.14 28.59 167.82 68.97 144.51 109.35 167.83 68.97 191.14"/><polygon class="cls-28" points="68.97 280.62 28.59 257.31 68.97 234 109.35 257.31 68.97 280.62"/><polygon class="cls-58" points="109.35 167.83 109.35 257.31 68.97 280.62 68.97 191.14 109.35 167.83"/><polygon class="cls-59" points="28.59 167.82 28.59 257.31 68.97 280.62 68.97 191.14 28.59 167.82"/><g class="cls-60"><polygon class="cls-61" points="31.33 173.76 31.33 254.19 66.23 274.35 66.23 193.92 31.33 173.76"/></g><polygon class="cls-61" points="103.29 189.45 103.29 191.81 75.03 208.13 75.03 205.76 103.29 189.45"/><polygon class="cls-61" points="103.29 199.45 103.29 201.81 75.03 218.13 75.03 215.76 103.29 199.45"/><polygon class="cls-61" points="103.29 209.45 103.29 211.81 75.03 228.13 75.03 225.77 103.29 209.45"/><polygon class="cls-61" points="103.29 219.45 103.29 221.81 75.03 238.13 75.03 235.77 103.29 219.45"/><polygon class="cls-61" points="103.29 229.45 103.29 231.81 75.03 248.13 75.03 245.77 103.29 229.45"/><polygon class="cls-61" points="103.29 239.45 103.29 241.81 75.03 258.13 75.03 255.77 103.29 239.45"/><g class="cls-62"><polygon class="cls-63" points="68.97 185.01 58.36 185.01 28.59 167.82 60.98 149.13 68.97 149.13 68.97 185.01"/></g><polygon class="cls-64" points="68.97 182.95 39.67 166.04 68.97 149.13 98.27 166.04 68.97 182.95"/><polygon class="cls-65" points="98.27 166.04 98.27 168.1 68.97 185.01 68.97 182.95 98.27 166.04"/><polygon class="cls-66" points="39.67 166.04 39.67 168.1 68.97 185.01 68.97 182.95 39.67 166.04"/><polygon class="cls-67" points="57.61 166.31 56.31 165.56 56.42 164.95 68.45 157.95 70.12 158.75 69.81 159.26 57.61 166.31"/><polygon class="cls-68" points="68.52 158.52 69.81 159.26 70.65 158.78 68.52 157.55 55.48 165.08 56.31 165.56 68.52 158.52"/><polygon class="cls-67" points="61.55 168.58 60.25 167.83 60.35 167.22 72.39 160.22 74.06 161.01 73.75 161.53 61.55 168.58"/><polygon class="cls-69" points="72.45 160.78 73.75 161.53 74.59 161.05 72.45 159.82 59.41 167.35 60.25 167.83 72.45 160.78"/><polygon class="cls-67" points="65.48 170.84 64.19 170.09 64.29 169.49 76.33 162.48 78 163.28 77.69 163.8 65.48 170.84"/><polygon class="cls-70" points="76.39 163.05 77.69 163.8 78.53 163.31 76.39 162.08 63.35 169.61 64.19 170.1 76.39 163.05"/><polygon class="cls-67" points="69.42 173.11 68.12 172.36 68.23 171.75 80.27 164.75 81.94 165.54 81.63 166.06 69.42 173.11"/><polygon class="cls-71" points="80.33 165.32 81.63 166.06 82.46 165.58 80.33 164.35 67.29 171.88 68.13 172.36 80.33 165.32"/><g class="cls-60"><polygon class="cls-61" points="28.59 243.17 68.97 218.79 68.97 191.14 28.59 167.82 28.59 243.17"/></g><path class="cls-72" d="M67.37,195.16a3.55,3.55,0,0,0-1.61-2.78,1.12,1.12,0,0,0-1.14-.11h0l-1.14.67.7,0a1.84,1.84,0,0,0,0,.35,3.55,3.55,0,0,0,1.61,2.78,1.81,1.81,0,0,0,.34.15l-.33.61,1.11-.65h0A1.12,1.12,0,0,0,67.37,195.16Z"/><path class="cls-73" d="M66.23,195.83c0,1-.72,1.44-1.61.93A3.55,3.55,0,0,1,63,194c0-1,.72-1.44,1.61-.93A3.55,3.55,0,0,1,66.23,195.83Z"/><path class="cls-67" d="M65.54,195.44c0,.59-.41.83-.92.53a2,2,0,0,1-.92-1.6c0-.59.41-.83.92-.53A2,2,0,0,1,65.54,195.44Z"/><path class="cls-74" d="M33.51,174.35a3.55,3.55,0,0,0-1.61-2.78,1.13,1.13,0,0,0-1.14-.11h0l-1.14.67.7,0a1.84,1.84,0,0,0,0,.35,3.55,3.55,0,0,0,1.61,2.78,1.81,1.81,0,0,0,.34.15l-.33.61L33,175.4h0A1.12,1.12,0,0,0,33.51,174.35Z"/><path class="cls-75" d="M32.36,175c0,1-.72,1.44-1.61.93a3.55,3.55,0,0,1-1.61-2.78c0-1,.72-1.44,1.61-.93A3.55,3.55,0,0,1,32.36,175Z"/><path class="cls-67" d="M31.68,174.63c0,.59-.41.83-.92.53a2,2,0,0,1-.92-1.6c0-.59.41-.83.92-.53A2,2,0,0,1,31.68,174.63Z"/><path class="cls-76" d="M67.37,275.3a3.55,3.55,0,0,0-1.61-2.78,1.13,1.13,0,0,0-1.14-.11h0l-1.14.67.7,0a1.83,1.83,0,0,0,0,.35,3.55,3.55,0,0,0,1.61,2.78,1.81,1.81,0,0,0,.34.15l-.33.61,1.11-.65h0A1.12,1.12,0,0,0,67.37,275.3Z"/><path class="cls-77" d="M66.23,276c0,1-.72,1.44-1.61.93A3.55,3.55,0,0,1,63,274.12c0-1,.72-1.44,1.61-.93A3.55,3.55,0,0,1,66.23,276Z"/><path class="cls-67" d="M65.54,275.58c0,.59-.41.83-.92.53a2,2,0,0,1-.92-1.6c0-.59.41-.83.92-.53A2,2,0,0,1,65.54,275.58Z"/><path class="cls-78" d="M33.51,254.49a3.55,3.55,0,0,0-1.61-2.78,1.12,1.12,0,0,0-1.14-.11h0l-1.14.67.7,0a1.84,1.84,0,0,0,0,.35,3.55,3.55,0,0,0,1.61,2.78,1.81,1.81,0,0,0,.34.15l-.33.61,1.11-.65h0A1.12,1.12,0,0,0,33.51,254.49Z"/><path class="cls-79" d="M32.36,255.16c0,1-.72,1.44-1.61.93a3.55,3.55,0,0,1-1.61-2.78c0-1,.72-1.44,1.61-.93A3.55,3.55,0,0,1,32.36,255.16Z"/><path class="cls-67" d="M31.68,254.77c0,.59-.41.83-.92.53a2,2,0,0,1-.92-1.6c0-.59.41-.83.92-.53A2,2,0,0,1,31.68,254.77Z"/><polygon class="cls-39" points="42.55 199.21 33.65 194.07 33.65 192.11 42.55 197.25 42.55 199.21"/><polygon class="cls-39" points="47.11 201.84 43.91 199.99 43.91 198.04 47.11 199.89 47.11 201.84"/><polygon class="cls-39" points="50.65 203.88 48.47 202.63 48.47 200.67 50.65 201.93 50.65 203.88"/><polygon class="cls-39" points="38.5 201.33 33.65 198.53 33.65 196.58 38.5 199.38 38.5 201.33"/><polygon class="cls-39" points="45.8 205.55 39.86 202.12 39.86 200.16 45.8 203.59 45.8 205.55"/><polygon class="cls-39" points="49.34 207.59 47.16 206.33 47.16 204.38 49.34 205.64 49.34 207.59"/><polygon class="cls-39" points="52.7 209.53 50.52 208.28 50.52 206.32 52.7 207.58 52.7 209.53"/><polygon class="cls-39" points="37.16 205.02 33.65 203 33.65 201.04 37.16 203.07 37.16 205.02"/><polygon class="cls-39" points="39.72 206.5 38.52 205.81 38.52 203.85 39.72 204.55 39.72 206.5"/><polygon class="cls-39" points="43.25 208.54 41.08 207.28 41.08 205.33 43.25 206.59 43.25 208.54"/><polygon class="cls-39" points="46.6 214.94 33.65 207.46 33.65 205.51 46.6 212.98 46.6 214.94"/><polygon class="cls-39" points="51.16 217.57 47.96 215.72 47.96 213.77 51.16 215.62 51.16 217.57"/><polygon class="cls-39" points="37.16 213.95 33.65 211.93 33.65 209.97 37.16 212 37.16 213.95"/><polygon class="cls-39" points="45.39 218.71 38.52 214.74 38.52 212.78 45.39 216.75 45.39 218.71"/><polygon class="cls-39" points="48.93 220.75 46.75 219.49 46.75 217.54 48.93 218.79 48.93 220.75"/><polygon class="cls-39" points="40.83 220.53 33.65 216.39 33.65 214.44 40.83 218.58 40.83 220.53"/><polygon class="cls-39" points="47.38 224.32 42.19 221.32 42.19 219.37 47.38 222.36 47.38 224.32"/><polygon class="cls-39" points="52.25 227.13 48.74 225.1 48.74 223.15 52.25 225.17 52.25 227.13"/><polygon class="cls-39" points="36.07 222.25 33.65 220.85 33.65 218.9 36.07 220.3 36.07 222.25"/><polygon class="cls-39" points="40.64 224.89 37.43 223.04 37.43 221.09 40.64 222.94 40.64 224.89"/><polygon class="cls-39" points="47.16 228.66 42 225.68 42 223.72 47.16 226.7 47.16 228.66"/><polygon class="cls-39" points="41.08 229.61 33.65 225.32 33.65 223.37 41.08 227.65 41.08 229.61"/><polygon class="cls-39" points="49.39 234.41 42.44 230.39 42.44 228.44 49.39 232.46 49.39 234.41"/><polygon class="cls-39" points="52.93 236.45 50.75 235.19 50.75 233.24 52.93 234.5 52.93 236.45"/><polygon class="cls-39" points="56.33 238.41 54.15 237.16 54.15 235.2 56.33 236.46 56.33 238.41"/><polygon class="cls-39" points="38.1 232.35 33.65 229.78 33.65 227.83 38.1 230.4 38.1 232.35"/><polygon class="cls-39" points="56.71 207.38 62.88 210.94 62.88 208.99 56.71 205.43 56.71 207.38"/><polygon class="cls-39" points="58.03 212.61 62.88 215.41 62.88 213.45 58.03 210.66 58.03 212.61"/><polygon class="cls-39" points="59.37 217.85 62.88 219.87 62.88 217.92 59.37 215.89 59.37 217.85"/><polygon class="cls-39" points="57.77 221.39 62.88 224.34 62.88 222.38 57.77 219.44 57.77 221.39"/><polygon class="cls-39" points="59.37 226.78 62.88 228.8 62.88 226.85 59.37 224.82 59.37 226.78"/><polygon class="cls-39" points="58.43 230.7 62.88 233.27 62.88 231.31 58.43 228.74 58.43 230.7"/><polygon class="cls-39" points="60.45 236.33 62.88 237.73 62.88 235.78 60.45 234.38 60.45 236.33"/><polygon class="cls-39" points="58.18 239.48 62.88 242.2 62.88 240.24 58.18 237.53 58.18 239.48"/><polygon class="cls-39" points="58.43 244.09 62.88 246.66 62.88 244.71 58.43 242.14 58.43 244.09"/><polygon class="cls-39" points="41.35 234.23 39.46 233.14 39.46 231.18 41.35 232.28 41.35 234.23"/><polygon class="cls-39" points="46.97 237.47 42.71 235.02 42.71 233.06 46.97 235.52 46.97 237.47"/><polygon class="cls-39" points="50.49 252.49 43.3 248.34 43.3 246.39 50.49 250.54 50.49 252.49"/><polygon class="cls-39" points="55.41 255.34 52.58 253.7 52.58 251.75 55.41 253.38 55.41 255.34"/><polygon class="cls-27" points="68.97 68.1 28.59 44.79 68.97 21.48 109.35 44.79 68.97 68.1"/><polygon class="cls-28" points="68.97 157.59 28.59 134.27 68.97 110.96 109.35 134.27 68.97 157.59"/><polygon class="cls-80" points="109.35 44.79 109.35 134.27 68.97 157.59 68.97 68.1 109.35 44.79"/><polygon class="cls-59" points="28.59 44.79 28.59 134.27 68.97 157.59 68.97 68.1 28.59 44.79"/><g class="cls-60"><polygon class="cls-61" points="31.33 50.73 31.33 131.16 66.23 151.31 66.23 70.88 31.33 50.73"/></g><polygon class="cls-61" points="103.29 66.41 103.29 68.78 75.03 85.09 75.03 82.73 103.29 66.41"/><polygon class="cls-61" points="103.29 76.41 103.29 78.78 75.03 95.09 75.03 92.73 103.29 76.41"/><polygon class="cls-61" points="103.29 86.41 103.29 88.78 75.03 105.09 75.03 102.73 103.29 86.41"/><polygon class="cls-61" points="103.29 96.41 103.29 98.78 75.03 115.09 75.03 112.73 103.29 96.41"/><polygon class="cls-61" points="103.29 106.41 103.29 108.78 75.03 125.1 75.03 122.73 103.29 106.41"/><polygon class="cls-61" points="103.29 116.41 103.29 118.78 75.03 135.1 75.03 132.73 103.29 116.41"/><g class="cls-81"><polygon class="cls-82" points="68.97 61.98 58.36 61.98 28.59 44.79 60.98 26.09 68.97 26.09 68.97 61.98"/></g><polygon class="cls-83" points="68.97 59.92 39.67 43 68.97 26.09 98.27 43 68.97 59.92"/><polygon class="cls-84" points="98.27 43 98.27 45.06 68.97 61.98 68.97 59.92 98.27 43"/><polygon class="cls-85" points="39.67 43 39.67 45.06 68.97 61.98 68.97 59.92 39.67 43"/><polygon class="cls-67" points="57.61 43.27 56.31 42.52 56.42 41.92 68.45 34.91 70.12 35.71 69.81 36.23 57.61 43.27"/><polygon class="cls-86" points="68.52 35.48 69.81 36.23 70.65 35.74 68.52 34.51 55.48 42.04 56.31 42.53 68.52 35.48"/><polygon class="cls-67" points="61.55 45.54 60.25 44.79 60.35 44.18 72.39 37.18 74.06 37.98 73.75 38.49 61.55 45.54"/><polygon class="cls-87" points="72.45 37.75 73.75 38.49 74.59 38.01 72.45 36.78 59.41 44.31 60.25 44.79 72.45 37.75"/><polygon class="cls-67" points="65.48 47.81 64.19 47.06 64.29 46.45 76.33 39.45 78 40.24 77.69 40.76 65.48 47.81"/><polygon class="cls-88" points="76.39 40.01 77.69 40.76 78.53 40.28 76.39 39.05 63.35 46.58 64.19 47.06 76.39 40.01"/><polygon class="cls-67" points="69.42 50.07 68.12 49.33 68.23 48.72 80.27 41.71 81.94 42.51 81.63 43.03 69.42 50.07"/><polygon class="cls-89" points="80.33 42.28 81.63 43.03 82.46 42.55 80.33 41.31 67.29 48.84 68.13 49.33 80.33 42.28"/><g class="cls-60"><polygon class="cls-61" points="28.59 120.13 68.97 95.75 68.97 68.1 28.59 44.79 28.59 120.13"/></g><path class="cls-90" d="M67.37,72.13a3.55,3.55,0,0,0-1.61-2.78,1.13,1.13,0,0,0-1.14-.11h0l-1.14.67.7,0a1.83,1.83,0,0,0,0,.35,3.55,3.55,0,0,0,1.61,2.78,1.81,1.81,0,0,0,.34.15l-.33.61,1.11-.65h0A1.12,1.12,0,0,0,67.37,72.13Z"/><path class="cls-91" d="M66.23,72.8c0,1-.72,1.44-1.61.93A3.55,3.55,0,0,1,63,70.94c0-1,.72-1.44,1.61-.93A3.55,3.55,0,0,1,66.23,72.8Z"/><path class="cls-67" d="M65.54,72.4c0,.59-.41.83-.92.53a2,2,0,0,1-.92-1.6c0-.59.41-.83.92-.53A2,2,0,0,1,65.54,72.4Z"/><path class="cls-92" d="M33.51,51.32a3.55,3.55,0,0,0-1.61-2.78,1.12,1.12,0,0,0-1.14-.11h0l-1.14.67.7,0a1.84,1.84,0,0,0,0,.35,3.55,3.55,0,0,0,1.61,2.78,1.8,1.8,0,0,0,.34.15l-.33.61L33,52.36h0A1.12,1.12,0,0,0,33.51,51.32Z"/><path class="cls-93" d="M32.36,52c0,1-.72,1.44-1.61.93a3.55,3.55,0,0,1-1.61-2.78c0-1,.72-1.44,1.61-.93A3.55,3.55,0,0,1,32.36,52Z"/><path class="cls-67" d="M31.68,51.59c0,.59-.41.83-.92.53a2,2,0,0,1-.92-1.6c0-.59.41-.83.92-.53A2,2,0,0,1,31.68,51.59Z"/><path class="cls-94" d="M67.37,152.27a3.55,3.55,0,0,0-1.61-2.78,1.12,1.12,0,0,0-1.14-.11h0l-1.14.67.7,0a1.83,1.83,0,0,0,0,.35,3.55,3.55,0,0,0,1.61,2.78,1.8,1.8,0,0,0,.34.15l-.33.61,1.11-.65h0A1.12,1.12,0,0,0,67.37,152.27Z"/><path class="cls-95" d="M66.23,152.94c0,1-.72,1.44-1.61.93A3.55,3.55,0,0,1,63,151.08c0-1,.72-1.44,1.61-.93A3.55,3.55,0,0,1,66.23,152.94Z"/><path class="cls-67" d="M65.54,152.54c0,.59-.41.83-.92.53a2,2,0,0,1-.92-1.6c0-.59.41-.83.92-.53A2,2,0,0,1,65.54,152.54Z"/><path class="cls-96" d="M33.51,131.46a3.55,3.55,0,0,0-1.61-2.78,1.13,1.13,0,0,0-1.14-.11h0l-1.14.67.7,0a1.84,1.84,0,0,0,0,.35,3.55,3.55,0,0,0,1.61,2.78,1.81,1.81,0,0,0,.34.15l-.33.61L33,132.5h0A1.12,1.12,0,0,0,33.51,131.46Z"/><path class="cls-97" d="M32.36,132.13c0,1-.72,1.44-1.61.93a3.55,3.55,0,0,1-1.61-2.78c0-1,.72-1.44,1.61-.93A3.55,3.55,0,0,1,32.36,132.13Z"/><path class="cls-67" d="M31.68,131.73c0,.59-.41.83-.92.53a2,2,0,0,1-.92-1.6c0-.59.41-.83.92-.53A2,2,0,0,1,31.68,131.73Z"/><polygon class="cls-39" points="42.55 76.17 33.65 71.03 33.65 69.08 42.55 74.22 42.55 76.17"/><polygon class="cls-39" points="47.11 78.81 43.91 76.95 43.91 75 47.11 76.85 47.11 78.81"/><polygon class="cls-39" points="50.65 80.85 48.47 79.59 48.47 77.64 50.65 78.89 50.65 80.85"/><polygon class="cls-39" points="38.5 78.3 33.65 75.5 33.65 73.54 38.5 76.34 38.5 78.3"/><polygon class="cls-39" points="45.8 82.51 39.86 79.08 39.86 77.13 45.8 80.56 45.8 82.51"/><polygon class="cls-39" points="49.34 84.55 47.16 83.3 47.16 81.34 49.34 82.6 49.34 84.55"/><polygon class="cls-39" points="52.7 86.5 50.52 85.24 50.52 83.29 52.7 84.54 52.7 86.5"/><polygon class="cls-39" points="37.16 81.99 33.65 79.96 33.65 78.01 37.16 80.03 37.16 81.99"/><polygon class="cls-39" points="39.72 83.46 38.52 82.77 38.52 80.82 39.72 81.51 39.72 83.46"/><polygon class="cls-39" points="43.25 85.51 41.08 84.25 41.08 82.29 43.25 83.55 43.25 85.51"/><polygon class="cls-39" points="46.6 91.9 33.65 84.42 33.65 82.47 46.6 89.95 46.6 91.9"/><polygon class="cls-39" points="51.16 94.54 47.96 92.69 47.96 90.73 51.16 92.58 51.16 94.54"/><polygon class="cls-39" points="37.16 90.92 33.65 88.89 33.65 86.94 37.16 88.96 37.16 90.92"/><polygon class="cls-39" points="45.39 95.67 38.52 91.7 38.52 89.75 45.39 93.72 45.39 95.67"/><polygon class="cls-39" points="48.93 97.71 46.75 96.45 46.75 94.5 48.93 95.76 48.93 97.71"/><polygon class="cls-39" points="40.83 97.5 33.65 93.36 33.65 91.4 40.83 95.55 40.83 97.5"/><polygon class="cls-39" points="47.38 101.28 42.19 98.28 42.19 96.33 47.38 99.33 47.38 101.28"/><polygon class="cls-39" points="52.25 104.09 48.74 102.07 48.74 100.11 52.25 102.14 52.25 104.09"/><polygon class="cls-39" points="36.07 99.22 33.65 97.82 33.65 95.86 36.07 97.26 36.07 99.22"/><polygon class="cls-39" points="40.64 101.85 37.43 100 37.43 98.05 40.64 99.9 40.64 101.85"/><polygon class="cls-39" points="47.16 105.62 42 102.64 42 100.68 47.16 103.67 47.16 105.62"/><polygon class="cls-39" points="41.08 106.57 33.65 102.28 33.65 100.33 41.08 104.62 41.08 106.57"/><polygon class="cls-39" points="49.39 111.37 42.44 107.36 42.44 105.4 49.39 109.42 49.39 111.37"/><polygon class="cls-39" points="52.93 113.42 50.75 112.16 50.75 110.2 52.93 111.46 52.93 113.42"/><polygon class="cls-39" points="56.33 115.38 54.15 114.12 54.15 112.16 56.33 113.42 56.33 115.38"/><polygon class="cls-39" points="38.1 109.32 33.65 106.75 33.65 104.79 38.1 107.36 38.1 109.32"/><polygon class="cls-39" points="56.71 84.34 62.88 87.91 62.88 85.95 56.71 82.39 56.71 84.34"/><polygon class="cls-39" points="58.03 89.57 62.88 92.37 62.88 90.42 58.03 87.62 58.03 89.57"/><polygon class="cls-39" points="59.37 94.81 62.88 96.84 62.88 94.88 59.37 92.86 59.37 94.81"/><polygon class="cls-39" points="57.77 98.36 62.88 101.3 62.88 99.35 57.77 96.4 57.77 98.36"/><polygon class="cls-39" points="59.37 103.74 62.88 105.77 62.88 103.81 59.37 101.79 59.37 103.74"/><polygon class="cls-39" points="58.43 107.66 62.88 110.23 62.88 108.28 58.43 105.71 58.43 107.66"/><polygon class="cls-39" points="60.45 113.3 62.88 114.69 62.88 112.74 60.45 111.34 60.45 113.3"/><polygon class="cls-39" points="58.18 116.45 62.88 119.16 62.88 117.2 58.18 114.49 58.18 116.45"/><polygon class="cls-39" points="58.43 121.06 62.88 123.62 62.88 121.67 58.43 119.1 58.43 121.06"/><polygon class="cls-39" points="41.35 111.19 39.46 110.1 39.46 108.15 41.35 109.24 41.35 111.19"/><polygon class="cls-39" points="46.97 114.44 42.71 111.98 42.71 110.03 46.97 112.48 46.97 114.44"/><polygon class="cls-39" points="50.49 129.46 43.3 125.31 43.3 123.35 50.49 127.5 50.49 129.46"/><polygon class="cls-39" points="55.41 132.3 52.58 130.66 52.58 128.71 55.41 130.34 55.41 132.3"/><g class="cls-98"><path class="cls-99" d="M113.72,115.32l-.32-.19c-1.19-.69-2.15,0-2.15,1.63v93a5.15,5.15,0,0,0,2.15,4.11l.32.19c1.19.69,2.15,0,2.15-1.63v-93A5.15,5.15,0,0,0,113.72,115.32Z"/></g><g class="cls-100"><path class="cls-101" d="M122.39,135.15l-.32-.19c-1.19-.69-2.15,0-2.15,1.63v78.22a5.15,5.15,0,0,0,2.15,4.11l.32.19c1.19.69,2.15,0,2.15-1.63V139.26A5.15,5.15,0,0,0,122.39,135.15Z"/></g><g class="cls-102"><path class="cls-103" d="M131.06,158.57l-.32-.19c-1.19-.69-2.15,0-2.15,1.63v29.31a5.15,5.15,0,0,0,2.15,4.11l.32.19c1.19.69,2.15,0,2.15-1.63V162.68A5.15,5.15,0,0,0,131.06,158.57Z"/></g><g class="cls-104"><path class="cls-105" d="M139.65,171.43l-.32-.19c-1.19-.69-2.15,0-2.15,1.63v11.24a5.15,5.15,0,0,0,2.15,4.11l.32.19c1.19.69,2.15,0,2.15-1.63V175.54A5.15,5.15,0,0,0,139.65,171.43Z"/></g><g class="cls-106"><path class="cls-107" d="M24.22,115.32l.32-.19c1.19-.69,2.15,0,2.15,1.63v93a5.15,5.15,0,0,1-2.15,4.11l-.32.19c-1.19.69-2.15,0-2.15-1.63v-93A5.15,5.15,0,0,1,24.22,115.32Z"/></g><g class="cls-108"><path class="cls-109" d="M15.55,135.15l.32-.19c1.19-.69,2.15,0,2.15,1.63v78.22a5.15,5.15,0,0,1-2.15,4.11l-.32.19c-1.19.69-2.15,0-2.15-1.63V139.26A5.15,5.15,0,0,1,15.55,135.15Z"/></g><g class="cls-110"><path class="cls-111" d="M6.88,158.57l.32-.19c1.19-.69,2.15,0,2.15,1.63v29.31a5.15,5.15,0,0,1-2.15,4.11l-.32.19c-1.19.69-2.15,0-2.15-1.63V162.68A5.15,5.15,0,0,1,6.88,158.57Z"/></g><g class="cls-112"><path class="cls-113" d="M-1.71,171.43l.32-.19c1.19-.69,2.15,0,2.15,1.63v11.24a5.15,5.15,0,0,1-2.15,4.11l-.32.19c-1.19.69-2.15,0-2.15-1.63V175.54A5.15,5.15,0,0,1-1.71,171.43Z"/></g></g></g></g></svg>