<svg xmlns="http://www.w3.org/2000/svg" xmlns:xlink="http://www.w3.org/1999/xlink" viewBox="0 0 358.48 321.62"><defs><style>.cls-1,.cls-3{fill:none;}.cls-2{isolation:isolate;}.cls-3{stroke:#000;stroke-miterlimit:10;stroke-width:0.51px;opacity:0.25;}.cls-4{fill:url(#linear-gradient);}.cls-5{opacity:0.05;mix-blend-mode:overlay;}.cls-6{clip-path:url(#clip-path);}.cls-7{fill:#fff;}.cls-8{fill:#ff5c7d;}.cls-8,.cls-9{opacity:0.85;}.cls-9{fill:#ffcd2e;}.cls-10{fill:#396caa;}.cls-11{fill:#d4ecff;}.cls-12{fill:#5793ce;}.cls-13{fill:#fafdff;}.cls-14,.cls-15{fill:#173d7a;}.cls-15{opacity:0.5;}.cls-16{fill:#2bd978;}.cls-17{fill:#39ff80;}.cls-18{fill:#24b25d;}.cls-19{fill:#30f27e;}.cls-20{fill:#e8a200;}.cls-21{fill:#fdd762;}.cls-22{fill:#f2b42a;}.cls-23{fill:#eead00;}.cls-24{fill:#b2d3ea;}.cls-25{fill:#274f89;}</style><linearGradient id="linear-gradient" x1="207.39" y1="344.48" x2="112.67" y2="-55.4" gradientUnits="userSpaceOnUse"><stop offset="0.01" stop-color="#6a52a4"/><stop offset="1" stop-color="#391854"/></linearGradient><clipPath id="clip-path"><path class="cls-1" d="M298.54,175.34a31.3,31.3,0,0,1-.88,3.4c-6,18.9-30.56,37.75-75.63,47.46q-2.31.49-4.52,1.06c-64.83,16.59-76.25,77.72-121.64,74.5A58.4,58.4,0,0,1,85.36,300c-9.56-2.48-16.29-6.16-20.85-10.74a27.58,27.58,0,0,1-7.6-14.58c-4.22-21.51,11.56-51.23,16-75.5.39-2.11.69-4.17.88-6.19,3.62-37.6-66.53-86-3.62-115.7S146.23-6.33,203.9.61c58.22,7,60.59,70,69.45,111.88,3,14.27,6.78,26.09,13.76,32.44C296.79,153.75,300.73,164.46,298.54,175.34Z"/></clipPath></defs><title>data_treatment</title><g class="cls-2"><g id="Layer_2" data-name="Layer 2"><g id="OBJECTS"><path class="cls-3" d="M56.92,116.72c6,42.29,36,76.47,37.24,134.5s31.76,93.28,61,52.61,10.24-86.23,78.58-92.2,105.21-54.15,57.49-113.58S103.56-70.93,56.92,116.72Z"/><path class="cls-4" d="M298.54,175.34a31.3,31.3,0,0,1-.88,3.4c-6,18.9-30.56,37.75-75.63,47.46q-2.31.49-4.52,1.06c-64.83,16.59-76.25,77.72-121.64,74.5A58.4,58.4,0,0,1,85.36,300c-9.56-2.48-16.29-6.16-20.85-10.74a27.58,27.58,0,0,1-7.6-14.58c-4.22-21.51,11.56-51.23,16-75.5.39-2.11.69-4.17.88-6.19,3.62-37.6-66.53-86-3.62-115.7S146.23-6.33,203.9.61c58.22,7,60.59,70,69.45,111.88,3,14.27,6.78,26.09,13.76,32.44C296.79,153.75,300.73,164.46,298.54,175.34Z"/><g class="cls-5"><g class="cls-6"><path class="cls-7" d="M22.5,61.53a270.6,270.6,0,0,0,147.58,17c26-4.26,50.63-13.45,75.8-20.9,25-7.4,52.25-13.54,78.23-7.77,10,2.23,25.26,9.71,19.76,22.58-5.23,12.25-21,14.49-32.47,16.51-8.66,1.52-5,14.72,3.64,13.2,12.35-2.17,25.46-5,34.56-14.33C358.2,79,361.4,66.09,355.39,54.9,349.25,43.49,336.62,38.18,324.48,36c-14.35-2.59-28.86-2.35-43.27-.39-29,4-56.3,14.92-84.36,22.84a260.71,260.71,0,0,1-80.34,9.88,258.58,258.58,0,0,1-90.38-20c-3.44-1.44-7.49,1.55-8.42,4.78-1.13,3.93,1.39,7,4.78,8.42Z"/><path class="cls-7" d="M5.81,107c20.78,19.85,50.35,24.14,78,23,16.75-.69,33.4-3,50.18-3.26,13-.22,30.09-.23,38.53,11.55,8.57,12-2,22.25-12.77,27.28-12.93,6.06-27.58,7.62-41.68,8.16-28.41,1.09-58.2-1.82-84.69,10.69C19.49,191,8.18,202.06,3.15,216.74c-5.3,15.45-3.07,32.5.45,48.07,1.94,8.59,15.15,5,13.2-3.64-3-13.47-5.12-28.25-.19-41.55,4.74-12.78,16.7-21.23,29.15-25.61,28-9.85,58.33-4.32,87.27-7.68,13.81-1.6,28.38-4.77,40.14-12.58,11.34-7.54,19.49-20.25,15.08-34.18-10.12-32-52.55-27.25-78.4-25.13C78.38,117,40.48,121.15,15.5,97.3,9.12,91.21-.57,100.88,5.81,107Z"/><path class="cls-7" d="M16.08,265.14C53.54,226.59,119,211.32,167.39,238.22c12.9,7.17,24.22,17.7,29,32,2.78,8.31,16,4.75,13.2-3.64-10-29.75-39.9-46.52-69.17-52.39-30.61-6.14-62.52-1.94-90.88,10.91A142.25,142.25,0,0,0,6.39,255.45c-6.15,6.32,3.53,16,9.68,9.68Z"/><path class="cls-7" d="M244.84,258.36c-14.93-29.21-17-61.77-8.94-93.28a361.36,361.36,0,0,1,15.17-46.22c5.68-13.94,14.7-23.66,29.15-28.46,11.2-3.71,38.12-11.29,42.87,5.24,2.43,8.45,15.65,4.86,13.2-3.64-5.49-19.07-26.33-21.49-43-18.77s-33.87,8.66-44.68,22.41c-11.13,14.15-16,33.41-21.39,50.3-6,18.86-10.39,38.38-9.89,58.28A142.09,142.09,0,0,0,233,265.27c4,7.85,15.83.93,11.82-6.91Z"/><path class="cls-7" d="M312.74,125.74c-23.5,1.88-41.72,18.36-50.33,39.7-9.9,24.56-6.27,51.65-.9,76.8,1.84,8.61,15,5,13.2-3.64-4.53-21.24-7.8-43.62-.86-64.72,5.67-17.25,19.9-32.92,38.88-34.44,8.72-.7,8.8-14.4,0-13.69Z"/></g></g><path class="cls-8" d="M75.91,55.93c15.42-7.17,51.52-22.19,39.59-35.75S54.21,66,75.91,55.93Z"/><path class="cls-9" d="M214,247.42c-20.06.87-34.35,23.14-23.86,28.56S236.64,246.44,214,247.42Z"/><path class="cls-10" d="M238.34,204.7h0v-124L189,67.76,180,62.52c-2.08-1.2-5.73-1.05-8.13.34l-8.47,4.89H137l7.79,119.73a2.36,2.36,0,0,0,1.4,2.18l49.21,37.13c2.08,1.2,5.73,1.05,8.13-.34l32.79-18.93C237.75,206.7,238.42,205.67,238.34,204.7Z"/><path class="cls-11" d="M176.18,61.71a9.38,9.38,0,0,0-4.36,1.14l-8.47,4.89H137V192.1a2.36,2.36,0,0,0,1.4,2.18l57,32.5a7.36,7.36,0,0,0,3.77.81l.59-125.14Z"/><path class="cls-12" d="M196,227a9.27,9.27,0,0,0,6.5-.07V101H196Z"/><path class="cls-11" d="M195.44,102.46l-57-32.5c-2.08-1.2-1.82-3.31.58-4.69l32.79-18.93c2.41-1.39,6-1.54,8.13-.34l57,32.5c2.08,1.2,1.82,3.31-.58,4.69l-32.79,18.93C201.16,103.51,197.52,103.66,195.44,102.46Z"/><path class="cls-13" d="M236.36,80.88,203.57,99.81c-2.41,1.39-6,1.54-8.13.34l-57-32.5a3.14,3.14,0,0,1-1-.92c-.72,1.15-.39,2.4,1,3.23l57,32.5c2.08,1.2,5.73,1.05,8.13-.34l32.79-18.93c1.87-1.08,2.44-2.59,1.62-3.77A4.55,4.55,0,0,1,236.36,80.88Z"/><path class="cls-14" d="M197.05,89.28l-37.95-22c-1-.56-.85-1.55.27-2.2l15.35-8.86a4.23,4.23,0,0,1,3.81-.16l37.95,22c1,.56.85,1.55-.27,2.2l-15.35,8.86A4.23,4.23,0,0,1,197.05,89.28Z"/><path class="cls-11" d="M176.56,68.28,174.37,67c-.13-.08-.12-.21,0-.3l2.12-1.23a.59.59,0,0,1,.53,0l2.2,1.27c.13.08.12.21,0,.3l-2.12,1.23A.59.59,0,0,1,176.56,68.28Z"/><path class="cls-11" d="M183.91,72.5l-2.2-1.27c-.13-.08-.12-.21,0-.3l2.12-1.23a.59.59,0,0,1,.53,0l2.2,1.27c.13.08.12.21,0,.3l-2.12,1.23A.59.59,0,0,1,183.91,72.5Z"/><path class="cls-11" d="M191.26,76.72l-2.2-1.27c-.13-.08-.12-.21,0-.3l2.12-1.23a.59.59,0,0,1,.53,0l2.2,1.27c.13.08.12.21,0,.3l-2.12,1.23A.59.59,0,0,1,191.26,76.72Z"/><path class="cls-11" d="M198.6,80.95l-2.2-1.27c-.13-.08-.12-.21,0-.3l2.12-1.23a.59.59,0,0,1,.53,0l2.2,1.27c.13.08.12.21,0,.3l-2.12,1.23A.59.59,0,0,1,198.6,80.95Z"/><path class="cls-12" d="M159.1,67.29l0,0,.23-.16,15.35-8.86a4.23,4.23,0,0,1,3.81-.16l37.9,22c.9-.64.95-1.52,0-2l-37.95-22a4.23,4.23,0,0,0-3.81.16l-15.35,8.86C158.25,65.74,158.13,66.73,159.1,67.29Z"/><path class="cls-12" d="M189.14,127,147,102.71a5.26,5.26,0,0,1-2.2-4.2V90.8c0-1.62,1-2.36,2.2-1.66l42.11,24.31a5.26,5.26,0,0,1,2.2,4.2v7.72C191.34,127,190.36,127.73,189.14,127Z"/><path class="cls-14" d="M186,120.21l-2-1.14a1.15,1.15,0,0,1-.48-.92V116c0-.35.21-.52.48-.36l2,1.14a1.15,1.15,0,0,1,.48.92v2.11C186.44,120.2,186.22,120.36,186,120.21Z"/><path class="cls-14" d="M179.34,116.39l-2-1.14a1.15,1.15,0,0,1-.48-.92v-2.11c0-.35.21-.52.48-.36l2,1.14a1.15,1.15,0,0,1,.48.92V116C179.82,116.38,179.6,116.54,179.34,116.39Z"/><path class="cls-12" d="M189.14,154.9,147,130.59a5.26,5.26,0,0,1-2.2-4.2v-7.72c0-1.62,1-2.36,2.2-1.66l42.11,24.31a5.26,5.26,0,0,1,2.2,4.2v7.72C191.34,154.86,190.36,155.61,189.14,154.9Z"/><path class="cls-14" d="M186,148.08l-2-1.14a1.15,1.15,0,0,1-.48-.92v-2.11c0-.35.21-.52.48-.36l2,1.14a1.15,1.15,0,0,1,.48.92v2.11C186.44,148.07,186.22,148.24,186,148.08Z"/><path class="cls-11" d="M179.34,144.26l-2-1.14a1.15,1.15,0,0,1-.48-.92v-2.11c0-.35.21-.52.48-.36l2,1.14a1.15,1.15,0,0,1,.48.92v2.11C179.82,144.25,179.6,144.42,179.34,144.26Z"/><path class="cls-12" d="M189.14,182.78,147,158.47a5.26,5.26,0,0,1-2.2-4.2v-7.72c0-1.62,1-2.36,2.2-1.66l42.11,24.31a5.26,5.26,0,0,1,2.2,4.2v7.72C191.34,182.74,190.36,183.48,189.14,182.78Z"/><path class="cls-11" d="M186,176l-2-1.14a1.15,1.15,0,0,1-.48-.92v-2.11c0-.35.21-.52.48-.36l2,1.14a1.15,1.15,0,0,1,.48.92v2.11C186.44,176,186.22,176.11,186,176Z"/><path class="cls-14" d="M179.34,172.14l-2-1.14a1.15,1.15,0,0,1-.48-.92V168c0-.35.21-.52.48-.36l2,1.14a1.15,1.15,0,0,1,.48.92v2.11C179.82,172.13,179.6,172.29,179.34,172.14Z"/><path class="cls-12" d="M189.14,210.66,147,186.34a5.26,5.26,0,0,1-2.2-4.2v-7.72c0-1.62,1-2.36,2.2-1.66l42.11,24.31a5.26,5.26,0,0,1,2.2,4.2V209C191.34,210.61,190.36,211.36,189.14,210.66Z"/><path class="cls-11" d="M186,203.84l-2-1.14a1.15,1.15,0,0,1-.48-.92v-2.11c0-.35.21-.52.48-.36l2,1.14a1.15,1.15,0,0,1,.48.92v2.11C186.44,203.83,186.22,204,186,203.84Z"/><path class="cls-11" d="M179.34,200l-2-1.14a1.15,1.15,0,0,1-.48-.92v-2.11c0-.35.21-.52.48-.36l2,1.14a1.15,1.15,0,0,1,.48.92v2.11C179.82,200,179.6,200.17,179.34,200Z"/><path class="cls-14" d="M210,127l21.57-12.35a5.26,5.26,0,0,0,2.2-4.2v-7.72c0-1.62-1-2.36-2.2-1.66L210,113.45a5.26,5.26,0,0,0-2.2,4.2v7.72C207.77,127,208.76,127.73,210,127Z"/><path class="cls-14" d="M210,154.9l21.57-12.35a5.26,5.26,0,0,0,2.2-4.2v-7.72c0-1.62-1-2.36-2.2-1.66L210,141.33a5.26,5.26,0,0,0-2.2,4.2v7.72C207.77,154.86,208.76,155.61,210,154.9Z"/><path class="cls-14" d="M210,182.78l21.57-12.35a5.26,5.26,0,0,0,2.2-4.2v-7.72c0-1.62-1-2.36-2.2-1.66L210,169.2a5.26,5.26,0,0,0-2.2,4.2v7.72C207.77,182.74,208.76,183.48,210,182.78Z"/><path class="cls-14" d="M210,210.66l21.57-12.35a5.26,5.26,0,0,0,2.2-4.2v-7.72c0-1.62-1-2.36-2.2-1.66L210,197.08a5.26,5.26,0,0,0-2.2,4.2V209C207.77,210.61,208.76,211.36,210,210.66Z"/><path class="cls-15" d="M180.91,117l-18.47-13a183.34,183.34,0,0,0-19.89-12.19v95.07a2,2,0,0,0,1.2,1.88l14.6,8.33c23.35-4.35,22.55-30.36,22.55-30.36Z"/><path class="cls-16" d="M168.42,173.94V116.11L147,101.06a203.42,203.42,0,0,0-32.6-18.82L92.89,72.51l-8.67,5.07,9.59,7V129.8s-1.18,36.9,37.76,79.48a45.72,45.72,0,0,0,13.12-.94l-.65,2.1,7.62-4.49q1-.53,1.9-1.11l.11-.06h0C169.06,194.83,168.42,173.94,168.42,173.94Z"/><path class="cls-17" d="M130.61,90.62q-8.14-4.7-16.25-8.38L92.89,72.51l-8.67,5.07,9.59,7v27.33Z"/><path class="cls-18" d="M123.14,86.52,105,97l14.9,8.6L138,95.12Q130.59,90.41,123.14,86.52Z"/><path class="cls-19" d="M159.75,179V121.18l-21.46-15.05a203.41,203.41,0,0,0-32.6-18.82L84.23,77.58v57.83s-1.18,36.9,37.76,79.48C160.93,217.27,159.75,179,159.75,179Z"/><path class="cls-16" d="M144.79,201.8c-4.68,4.55-11.35,6.81-19.83,6.73-34.63-39-34.27-72.6-34.27-72.91v-48L103,93.21a197.29,197.29,0,0,1,31.55,18.22l18.71,13.12v54.66C153.29,179.35,153.47,193.38,144.79,201.8Z"/><path class="cls-17" d="M125,151.87a4.19,4.19,0,0,0,1.93,2.54c.94.54,1.59.28,1.47-.58a4.19,4.19,0,0,0-1.93-2.54C125.53,150.75,124.87,151,125,151.87Z"/><path class="cls-17" d="M119.55,148.72a4.19,4.19,0,0,0,1.93,2.54c.94.54,1.59.28,1.47-.58a4.19,4.19,0,0,0-1.93-2.54C120.07,147.6,119.42,147.86,119.55,148.72Z"/><path class="cls-17" d="M114.09,145.57a4.19,4.19,0,0,0,1.93,2.54c.94.54,1.59.28,1.47-.58a4.19,4.19,0,0,0-1.93-2.54C114.62,144.45,114,144.71,114.09,145.57Z"/><path class="cls-20" d="M107.92,220.47v-4.8l-1.41.8a12.19,12.19,0,0,0-3.79-3.24c-6.93-4-18.17-4-25.11,0a11.58,11.58,0,0,0-4.17,3.8l-1-1.36v4.8c0,2.63,1.73,5.25,5.2,7.26,6.93,4,18.17,4,25.11,0C106.2,225.72,107.93,223.1,107.92,220.47Zm-18.24-3.13a7.14,7.14,0,0,1-6.46,0c-1.78-1-1.78-2.7,0-3.73a7.14,7.14,0,0,1,6.46,0C91.46,214.64,91.46,216.31,89.68,217.34Z"/><path class="cls-21" d="M88.68,224.25,81,220.48,74.21,216a8.76,8.76,0,0,0-.76,1l-1-1.36v4.8c0,2.63,1.73,5.25,5.2,7.26a24.9,24.9,0,0,0,11.07,3Z"/><path class="cls-21" d="M102.72,208.42c-6.93-4-18.17-4-25.11,0s-6.93,10.49,0,14.5,18.17,4,25.11,0S109.66,212.42,102.72,208.42Zm-13,7.38a7.14,7.14,0,0,1-6.46,0c-1.78-1-1.78-2.7,0-3.73a7.14,7.14,0,0,1,6.46,0C91.52,213.11,91.52,214.78,89.74,215.81Z"/><path class="cls-20" d="M93.22,211H83.59a24.66,24.66,0,0,0-2.56.74v8.17h12.2Zm-3.54,6.39a7.14,7.14,0,0,1-6.46,0c-1.78-1-1.78-2.7,0-3.73a7.14,7.14,0,0,1,6.46,0C91.46,214.64,91.46,216.31,89.68,217.34Z"/><path class="cls-22" d="M101.24,209.28c-6.11-3.53-16-3.53-22.13,0s-6.11,9.25,0,12.78,16,3.53,22.13,0S107.35,212.81,101.24,209.28Zm-11.5,6.53a7.14,7.14,0,0,1-6.46,0c-1.78-1-1.78-2.7,0-3.73a7.14,7.14,0,0,1,6.46,0C91.52,213.11,91.52,214.78,89.74,215.81Z"/><path class="cls-20" d="M79.11,210.61c6.11-3.53,16-3.53,22.13,0,2.76,1.6,4.27,3.64,4.54,5.73.32-2.53-1.19-5.12-4.54-7.05-6.11-3.53-16-3.53-22.13,0-3.35,1.93-4.86,4.52-4.54,7.05C74.83,214.24,76.34,212.2,79.11,210.61Z"/><path class="cls-22" d="M106.47,224.47a16.66,16.66,0,0,1-3.44,2.58,24.53,24.53,0,0,1-4.47,2l3.39,2,5.11.26,2.53,1.46-1,.6,1.92,1.11,2.07-1.19,3.35,1.93-3.36,1.94,2.47,1.43,2.4,1.38,3-1.72,4.43,2.56-1.69,1,2.84,1.64,1.69-1,1.33.77-1.34,2.67,4.3,2.48h15.81Z"/><path class="cls-21" d="M106.47,221a16.66,16.66,0,0,1-3.44,2.58,24.53,24.53,0,0,1-4.47,2l3.39,2,5.11.26,2.53,1.46-1,.6,1.92,1.11,2.07-1.19,3.35,1.93-3.36,1.94,2.47,1.43,2.4,1.38,3-1.72,4.43,2.56-1.69,1,2.84,1.64,1.69-1,1.33.77-1.34,2.67,4.3,2.48h15.81Z"/><rect class="cls-20" x="131.96" y="244.84" width="15.81" height="3.47"/><polygon class="cls-20" points="125.97 243.36 125.97 239.89 127.66 238.92 127.66 242.39 125.97 243.36"/><polygon class="cls-23" points="123.13 238.25 123.13 241.72 125.97 243.36 125.97 239.89 123.13 238.25"/><polygon class="cls-20" points="120.39 234.72 120.39 238.19 117.41 239.91 117.41 236.44 120.39 234.72"/><polygon class="cls-23" points="112.54 233.63 112.54 237.1 117.41 239.91 117.41 236.44 112.54 233.63"/><polygon class="cls-23" points="127.66 242.39 127.65 245.83 131.96 248.31 131.96 244.84 127.66 242.39"/><polygon class="cls-23" points="110.49 230.95 110.49 234.42 108.57 233.32 108.57 229.85 110.49 230.95"/><polygon class="cls-20" points="101.96 227.53 101.96 231 107.08 231.26 107.08 227.79 101.96 227.53"/><polygon class="cls-20" points="136.97 242.39 106.75 224.92 108.42 223.95 140.32 242.38 136.97 242.39"/><polygon class="cls-22" points="108.42 224.79 138.87 242.38 140.32 242.38 108.42 223.95 106.75 224.92 107.47 225.34 108.42 224.79"/><polygon class="cls-20" points="101.96 231 101.96 227.53 98.57 225.57 98.57 229.04 101.96 231"/><polygon class="cls-20" points="112.56 229.76 112.56 233.23 110.49 234.42 110.49 230.95 112.56 229.76"/><path class="cls-21" d="M101.24,209.28a23.29,23.29,0,0,0-12.55-2.61V208a23.29,23.29,0,0,1,12.55,2.61c2.76,1.6,4.27,3.64,4.54,5.73C106.09,213.8,104.58,211.21,101.24,209.28Z"/><path class="cls-14" d="M290.2,180.1h0v-3.33H272.63a6.08,6.08,0,0,0-5.47.23l.52-.22H250v3.56a1.59,1.59,0,0,0,.94,1.47l16.63,9.67a6.08,6.08,0,0,0,5.47-.23L288.87,182A2.17,2.17,0,0,0,290.2,180.1Z"/><path class="cls-10" d="M270.09,176.21a6.31,6.31,0,0,0-2.93.77l.52-.22H250v3.56a1.59,1.59,0,0,0,.94,1.47l16.63,9.67a5,5,0,0,0,2.54.54Z"/><path class="cls-24" d="M252,176.76h-2v3.56a1.59,1.59,0,0,0,.94,1.47l1.06.61Z"/><path class="cls-25" d="M267.9,191.62a6.24,6.24,0,0,0,4.38,0v-4.65H267.9Z"/><path class="cls-11" d="M267.55,187.92l-16.63-9.67c-1.4-.81-1.23-2.23.39-3.16l15.85-9.23a6.08,6.08,0,0,1,5.47-.23l16.63,9.67c1.4.81,1.23,2.23-.39,3.16L273,187.7A6.08,6.08,0,0,1,267.55,187.92Z"/><path class="cls-10" d="M267.29,174.36a3.46,3.46,0,0,1-3.13,0,1,1,0,0,1,0-1.81,3.46,3.46,0,0,1,3.13,0A1,1,0,0,1,267.29,174.36Z"/><path class="cls-10" d="M272.31,177.3a3.46,3.46,0,0,1-3.13,0,1,1,0,0,1,0-1.81,3.46,3.46,0,0,1,3.13,0A1,1,0,0,1,272.31,177.3Z"/><path class="cls-10" d="M277.34,180.23a3.46,3.46,0,0,1-3.13,0,1,1,0,0,1,0-1.81,3.46,3.46,0,0,1,3.13,0A1,1,0,0,1,277.34,180.23Z"/><path class="cls-14" d="M290.59,170h0V166.7H273a6.08,6.08,0,0,0-5.47.23l.52-.22h-17.7v3.56a1.59,1.59,0,0,0,.94,1.47l16.63,9.67a6.08,6.08,0,0,0,5.47-.23l15.85-9.23A2.17,2.17,0,0,0,290.59,170Z"/><path class="cls-10" d="M270.48,166.15a6.31,6.31,0,0,0-2.93.77l.52-.22h-17.7v3.56a1.59,1.59,0,0,0,.94,1.47l16.63,9.67a5,5,0,0,0,2.54.54Z"/><path class="cls-24" d="M252.37,166.69h-2v3.56a1.59,1.59,0,0,0,.94,1.47l1.06.61Z"/><path class="cls-25" d="M268.28,181.55a6.24,6.24,0,0,0,4.38,0v-4.65h-4.38Z"/><path class="cls-11" d="M267.93,177.86l-16.63-9.67c-1.4-.81-1.23-2.23.39-3.16l15.85-9.23a6.08,6.08,0,0,1,5.47-.23l16.63,9.67c1.4.81,1.23,2.23-.39,3.16l-15.85,9.23A6.08,6.08,0,0,1,267.93,177.86Z"/><path class="cls-10" d="M267.67,164.29a3.46,3.46,0,0,1-3.13,0,1,1,0,0,1,0-1.81,3.46,3.46,0,0,1,3.13,0A1,1,0,0,1,267.67,164.29Z"/><path class="cls-10" d="M272.7,167.23a3.46,3.46,0,0,1-3.13,0,1,1,0,0,1,0-1.81,3.46,3.46,0,0,1,3.13,0A1,1,0,0,1,272.7,167.23Z"/><path class="cls-10" d="M277.72,170.16a3.46,3.46,0,0,1-3.13,0,1,1,0,0,1,0-1.81,3.46,3.46,0,0,1,3.13,0A1,1,0,0,1,277.72,170.16Z"/></g></g></g></svg>