<svg xmlns="http://www.w3.org/2000/svg" viewBox="0 0 207.18 180.5"><defs><style>.cls-1{fill:#fff;}.cls-2{fill:#f2f2f0;}.cls-3{fill:#15100c;}.cls-4{fill:#140f0c;}.cls-5{fill:#130e0c;}.cls-6{fill:#120d0c;}.cls-7{fill:#110c0c;}</style></defs><title>factory_icon</title><g id="Layer_2" data-name="Layer 2"><g id="content"><g id="_Group_" data-name="&lt;Group&gt;"><g id="_Group_2" data-name="&lt;Group&gt;"><polygon id="_Path_" data-name="&lt;Path&gt;" class="cls-1" points="89.31 170.86 207.01 103.37 118.08 51.3 0.57 119.16 89.31 170.86"/><polygon id="_Path_2" data-name="&lt;Path&gt;" class="cls-2" points="89.31 173.57 207.01 106.08 118.08 54.01 0.57 121.87 89.31 173.57"/></g><g id="_Group_3" data-name="&lt;Group&gt;"><polygon id="_Path_3" data-name="&lt;Path&gt;" class="cls-1" points="131.03 136.83 136 134.06 137.3 134.78 131.03 138.33 124.83 134.72 108.27 144.22 106.98 143.47 106.99 143.46 85.59 130.77 86.89 129.98 108.34 142.68 123.52 133.96 117.54 130.47 123.8 127.01 124.91 127.64 119.89 130.44 131.03 136.83"/><path id="_Compound_Path_" data-name="&lt;Compound Path&gt;" class="cls-3" d="M108.31,143.93l-1.8-1h0L85.14,130.19l1.79-1.09,21.46,12.71,14.67-8.43-6-3.49,6.78-3.74,1.63.92-5,2.81L131.07,136l5-2.77,1.83,1-6.8,3.85-6.2-3.61Zm-.77-1,.77.45,16.56-9.5,6.2,3.61,5.75-3.26-.78-.43-5,2.77-11.66-6.68,5-2.8-.59-.34-5.74,3.17,6,3.48-15.69,9-.13-.08L86.93,129.69l-.81.49,21.42,12.7Z"/></g><g id="_Group_4" data-name="&lt;Group&gt;"><g id="_Group_5" data-name="&lt;Group&gt;"><polygon id="_Path_4" data-name="&lt;Path&gt;" class="cls-1" points="0.34 122.09 0.54 128.63 88.65 180.16 88.65 173.65 0.34 122.09"/><path id="_Compound_Path_2" data-name="&lt;Compound Path&gt;" class="cls-3" d="M88.61,180.5.24,128.83,0,121.49l.53.31L89,173.45ZM1.05,128.43l87.6,51.14v-5.72L.94,122.69Z"/></g></g><g id="_Group_6" data-name="&lt;Group&gt;"><g id="_Group_7" data-name="&lt;Group&gt;"><path id="_Compound_Path_3" data-name="&lt;Compound Path&gt;" class="cls-3" d="M88.61,180.5l-.26-7,.3-.1,118.53-67.73V113l-.3.1Z"/></g></g><g id="_Group_8" data-name="&lt;Group&gt;"><polygon id="_Path_5" data-name="&lt;Path&gt;" class="cls-4" points="206.47 103.37 88.65 170.86 88.65 173.65 206.47 106.2 206.47 103.37"/><path id="_Compound_Path_4" data-name="&lt;Compound Path&gt;" class="cls-3" d="M88.65,174.23v-3.57l.15-.1,118.39-67.78v3.61l-.15.1Zm.71-3.18v2L206.47,106V104Z"/></g><g id="_Group_9" data-name="&lt;Group&gt;"><polygon id="_Path_6" data-name="&lt;Path&gt;" class="cls-1" points="88.69 173.65 89.31 170.86 0.57 119.16 0.36 122.09 88.69 173.65"/><g id="_Group_10" data-name="&lt;Group&gt;"><path id="_Compound_Path_5" data-name="&lt;Compound Path&gt;" class="cls-3" d="M89.32,170.47,56,151.06,1.25,119.16,118.08,51.69l88.05,51.56.8-.47L118.08,50.91.24,119,0,122.28l88.52,51.66.4.23.69-3.1,90.18-52.49Zm-.85,2.65L.71,121.91l.16-2.18L88.93,171Z"/><polygon id="_Path_7" data-name="&lt;Path&gt;" class="cls-3" points="206.33 103.37 206.13 103.25 179.79 118.58 206.33 103.37"/></g></g><g id="_Group_11" data-name="&lt;Group&gt;"><polygon id="_Path_8" data-name="&lt;Path&gt;" class="cls-1" points="36.11 139.08 53.59 128.81 54.94 129.55 37.4 139.83 36.11 139.08"/><path id="_Compound_Path_6" data-name="&lt;Compound Path&gt;" class="cls-3" d="M36,140.12l-1.79-1,19.34-11.24,1.87,1Zm-.78-1,.78.46,18.38-10.66-.83-.45Z"/></g><g id="_Group_12" data-name="&lt;Group&gt;"><path id="_Compound_Path_7" data-name="&lt;Compound Path&gt;" class="cls-3" d="M47.68,87.35a.57.57,0,0,0,.06-.28,1,1,0,0,0-.13-.41c-.21-.36-.55-.52-.82-.37L26.4,97.85a.46.46,0,0,0-.22.28.8.8,0,0,0,.09.55v7c0,.31.3.53.72.53s.72-.22.72-.53v-4.35L46.24,90.83V94.4c0,.31.3.53.72.53s.72-.22.72-.53Zm-20,11.41L46.24,88.25v.92L27.71,99.68Z"/><path id="_Compound_Path_8" data-name="&lt;Compound Path&gt;" class="cls-3" d="M24.94,100.39a.82.82,0,0,0-.11-.61c-.2-.36-.55-.52-.82-.37L3.62,111c-.25.14-.3.49-.13.84v7c0,.31.3.53.72.53s.72-.22.72-.53v-4.35L23.46,104v3.57c0,.31.3.53.72.53s.72-.22.72-.53c0,0,0-4.54,0-4.56s0-2.51,0-2.51A.49.49,0,0,0,24.94,100.39Zm-20,11.5,18.52-10.51v.92L4.93,112.81Z"/></g><polygon id="_Path_9" data-name="&lt;Path&gt;" class="cls-1" points="90.24 163.81 76.42 155.87 90.67 147.94 104.03 155.95 90.24 163.81"/><g id="_Group_13" data-name="&lt;Group&gt;"><polygon id="_Path_10" data-name="&lt;Path&gt;" class="cls-5" points="89.36 143.22 89.36 145.76 76.28 153.78 73.87 152.48 89.36 143.22"/><path id="_Compound_Path_9" data-name="&lt;Compound Path&gt;" class="cls-3" d="M104.39,153.81l-14-9.61v-1.57l-16.16,9.55-.51.29h0l2.9,1.7h0l13.62,8Zm-28.23-.68-1.09-.64,14.23-8.2.41.28v1l-13.09,7.83Zm1.13.66,13.1-7.83V145l12.74,8.74-12.89,7.62Z"/></g><g id="_Group_14" data-name="&lt;Group&gt;"><polygon id="_Path_11" data-name="&lt;Path&gt;" class="cls-1" points="105.54 152.48 103.24 153.78 89.36 145.76 89.36 143.22 105.54 152.48"/><path id="_Compound_Path_10" data-name="&lt;Compound Path&gt;" class="cls-3" d="M103.59,154.18,89.36,146v-3.32l16.92,9.84Zm-13.52-8.62,13.52,7.83,1.4-.91-14.92-8.67Z"/></g><polygon id="_Path_12" data-name="&lt;Path&gt;" class="cls-1" points="34.45 125.35 20.84 117.36 45.47 102.9 59.11 111.02 34.45 125.35"/><polygon id="_Path_13" data-name="&lt;Path&gt;" class="cls-6" points="44.99 98.43 45.47 100.86 20.44 115.33 18.01 114.02 44.99 98.43"/><g id="_Group_15" data-name="&lt;Group&gt;"><polygon id="_Path_14" data-name="&lt;Path&gt;" class="cls-1" points="60.96 107.68 58.85 108.99 45.14 101.05 44.99 98.43 60.96 107.68"/><path id="_Compound_Path_11" data-name="&lt;Compound Path&gt;" class="cls-3" d="M59.28,109.28l2.76-1.6-5.51-3.08L45.33,98,17.58,114l3.26,1.69,13.62,8,24.65-14.33h0Zm-40,4.74L45,99.2v1.57l-24.26,14.1ZM45.67,99.3l10.54,5.89,4.28,2.51-1.38.9-13.43-7.83ZM34.46,122.93l-13-7.6,23.83-14L58.44,109Z"/></g><g id="_Group_16" data-name="&lt;Group&gt;"><polygon id="_Path_15" data-name="&lt;Path&gt;" class="cls-4" points="59.55 101.71 59.55 100.19 64.52 97.04 64.52 98.7 59.55 101.71"/><polygon id="_Path_16" data-name="&lt;Path&gt;" class="cls-1" points="59.55 101.71 59.55 100.19 48.9 93.93 48.9 95.6 59.55 101.71"/><g id="_Group_17" data-name="&lt;Group&gt;"><polygon id="_Path_17" data-name="&lt;Path&gt;" class="cls-1" points="49.17 93.93 59.46 87.98 65.65 91.62 65.62 96.76 59.78 100.19 49.17 93.93"/><polygon id="_Path_18" data-name="&lt;Path&gt;" class="cls-2" points="50.4 94.65 59.46 89.33 65.65 92.97 65.62 96.76 59.78 100.19 50.4 94.65"/><path id="_Compound_Path_12" data-name="&lt;Compound Path&gt;" class="cls-3" d="M66,91.43l-6.53-3.84-10.41,6v2.19l10.5,6.31,5.77-3.2V97.33L66,97Zm-6.53-3.06,5.85,3.44,0,4.65-5.62,3.27-4.94-2.92-4.78-2.95Zm-9.73,7v-.75l4.63,2.73,4.86,3v.73Zm14.91,3.1-4.74,2.63v-.62l4.74-2.78Z"/></g></g><g id="_Group_18" data-name="&lt;Group&gt;"><path id="_Path_19" data-name="&lt;Path&gt;" class="cls-1" d="M60.26,84.2a2.54,2.54,0,0,1,.93-2h0l7.1-4.35a.7.7,0,0,1,.18,0c.39-.06.79.62.86,1.1a.8.8,0,0,1-.4.93h0l-5.81,3.37c-.69.41-.85.61-.85,1.18,0,0,0,.09,0,.13h0l.11,9.56a.63.63,0,0,1,0,.07.93.93,0,0,1-1,.8c-.56,0-1-.31-1-.75a1,1,0,0,1,0-.24Z"/><path id="_Compound_Path_13" data-name="&lt;Compound Path&gt;" class="cls-3" d="M61.38,95.31A1.23,1.23,0,0,1,60,94.2a1.45,1.45,0,0,1,0-.28L59.9,84.2A2.87,2.87,0,0,1,61,81.91l7.09-4.35a1,1,0,0,1,.32-.1.78.78,0,0,1,.58.17,2,2,0,0,1,.68,1.23,1.15,1.15,0,0,1-.62,1.31L63.3,83.51c-.59.35-.66.47-.67.78v.22l.11,9.56a.19.19,0,0,1,0,.08A1.28,1.28,0,0,1,61.38,95.31Zm-.77-11.11L60.74,94l0,.05a.7.7,0,0,0,0,.13c0,.22.29.4.66.4s.67-.2.67-.45l-.13-9.76c0-.74.27-1,1-1.49l5.81-3.37A.5.5,0,0,0,69,79a1.16,1.16,0,0,0-.47-.8l-.08,0-7.06,4.33A2.19,2.19,0,0,0,60.61,84.19Z"/></g><polygon id="_Path_20" data-name="&lt;Path&gt;" class="cls-1" points="64.98 66.73 87.45 54.33 108.58 66.27 86.81 78.81 64.98 66.73"/><polygon id="_Path_21" data-name="&lt;Path&gt;" class="cls-2" points="64.98 69.44 87.45 57.04 108.58 68.98 86.81 81.52 64.98 69.44"/><g id="_Group_19" data-name="&lt;Group&gt;"><polygon id="_Path_22" data-name="&lt;Path&gt;" class="cls-1" points="96.83 99.34 154.04 66.41 143.27 46.2 86.81 78.81 96.83 99.34"/><path id="_Compound_Path_14" data-name="&lt;Compound Path&gt;" class="cls-3" d="M96.68,99.81,86.37,78.67l.27-.16,56.76-32.79,11.08,20.81ZM87.25,78.94,97,98.86l56.61-32.58L143.14,46.66Z"/></g><polygon id="_Path_23" data-name="&lt;Path&gt;" class="cls-3" points="96.46 99.34 96.46 122.09 153.15 89.56 152.88 66.73 96.46 99.34"/><g id="_Group_20" data-name="&lt;Group&gt;"><polygon id="_Path_24" data-name="&lt;Path&gt;" class="cls-1" points="86.4 78.81 96.46 99.34 96.46 122.09 64.52 103.88 64.52 66.73 86.4 78.81"/><path id="_Compound_Path_15" data-name="&lt;Compound Path&gt;" class="cls-3" d="M153.67,89.75l-.18-23.6L97,98.86,87.25,78.94l22-12.68L87.46,53.94,64.64,66.53v37.54l32.19,18.41Zm-.68-.39L97.16,121.5v-22l55.66-32.21ZM87.45,54.72,107.9,66.27,86.81,78.42,65.68,66.73Zm-22.14,49V67.31L86.55,79.05l9.93,20.36v22.09Z"/></g><g id="_Group_21" data-name="&lt;Group&gt;"><g id="_Group_22" data-name="&lt;Group&gt;"><path id="_Compound_Path_16" data-name="&lt;Compound Path&gt;" class="cls-3" d="M111.4,88.09h0L103,72.28,92.36,78.39l6.73,13.39h0l1.37,2.72ZM108,89.28l-7.28,4.26L100,92l8.6-5.11.95.57.75.46Zm-4.47-7,1.5-.86.89,1.65-1.72,1-.77-1.53ZM102,73.61l.68-.39L110.07,87l-.62-.38-.61-.37Zm-8.8,5.05,8.21-4.71,3.59,6.7-1.83,1-1.15-2.12L100,80.77l-1.15-2.12-2.09,1.2L95.6,77.72,93.41,79Zm9.3,3.59-1.57.88-.77-1.53.1-.23,1.5-.86.82,1.53Zm-3.24-.92-1.57.88L97,80.67l.1-.23,1.5-.86.82,1.53Zm-3.24-.92-1.52.86-.84-1.67,1.62-.93.82,1.53Zm-1.22,1.46L96.38,81l1.08,2.14,2.16-1.22,1.08,2.14,2.16-1.22L103.93,85l2.64-1.49,1.55,2.9-8.46,5Z"/></g></g><g id="_Group_23" data-name="&lt;Group&gt;"><g id="_Group_24" data-name="&lt;Group&gt;"><path id="_Compound_Path_17" data-name="&lt;Compound Path&gt;" class="cls-3" d="M149.43,66.53h0L141,50.72l-10.64,6.11,6.73,13.39h0l1.37,2.72ZM146,67.73,138.76,72,138,70.48l8.6-5.11.95.57.75.46Zm-4.47-7,1.5-.86.89,1.65-1.72,1L141.47,61Zm-1.5-8.69.68-.39,7.34,13.82-.62-.38-.61-.37Zm-8.8,5.05,8.21-4.71,3.59,6.7-1.83,1L140.11,58,138,59.22l-1.15-2.12-2.09,1.2-1.15-2.12-2.19,1.26Zm9.3,3.59-1.57.88L138.24,60l.1-.23,1.5-.86.82,1.53Zm-3.24-.92-1.57.88L135,59.11l.1-.23,1.5-.86.82,1.53Zm-3.24-.92-1.52.86L131.75,58l1.62-.93.82,1.53Zm-1.22,1.46,1.52-.86,1.08,2.14,2.16-1.22,1.08,2.14,2.16-1.22L142,63.44l2.64-1.49,1.55,2.9-8.46,5Z"/></g></g><g id="_Group_25" data-name="&lt;Group&gt;"><g id="_Group_26" data-name="&lt;Group&gt;"><path id="_Compound_Path_18" data-name="&lt;Compound Path&gt;" class="cls-3" d="M136.75,73.72h0l-8.4-15.81L117.71,64l6.73,13.39h0l1.37,2.72Zm-3.38,1.19-7.28,4.26-.76-1.51,8.6-5.11.95.57.75.46Zm-4.47-7,1.5-.86.89,1.65-1.72,1-.77-1.53Zm-1.5-8.68.68-.39,7.34,13.82-.62-.38-.61-.37Zm-8.8,5.05,8.21-4.71,3.59,6.7-1.83,1-1.15-2.12-2.09,1.2-1.15-2.12-2.09,1.2L121,63.35l-2.19,1.26Zm9.3,3.59-1.57.88-.77-1.53.1-.23,1.5-.86.82,1.53Zm-3.24-.92-1.57.88-.77-1.53.1-.23,1.5-.86.82,1.53ZM121.43,66l-1.52.86-.84-1.67,1.62-.93.82,1.53Zm-1.22,1.46,1.52-.86,1.08,2.14L125,67.55,126,69.69l2.16-1.22,1.08,2.14,2.64-1.49,1.55,2.9-8.46,5Z"/></g></g><g id="_Group_27" data-name="&lt;Group&gt;"><g id="_Group_28" data-name="&lt;Group&gt;"><path id="_Compound_Path_19" data-name="&lt;Compound Path&gt;" class="cls-3" d="M124.07,80.9h0l-8.4-15.81L105,71.2l6.73,13.39h0l1.37,2.72Zm-3.38,1.19-7.28,4.26-.76-1.51,8.6-5.11.95.57.75.46Zm-4.47-7,1.5-.86.89,1.65-1.72,1-.77-1.53Zm-1.5-8.68.68-.39,7.34,13.82-.62-.38-.61-.37Zm-8.8,5.05,8.21-4.71,3.59,6.7-1.83,1-1.15-2.12-2.09,1.2-1.15-2.12-2.09,1.2-1.14-2.12-2.19,1.26Zm9.3,3.59-1.57.88-.77-1.53.1-.23,1.5-.86.82,1.53ZM112,74.13l-1.57.88-.77-1.53.1-.23,1.5-.86.82,1.53Zm-3.24-.92-1.52.86-.84-1.67,1.62-.93.82,1.53Zm-1.22,1.46,1.52-.86L110.13,76l2.16-1.22,1.08,2.14,2.16-1.22,1.08,2.14,2.64-1.49,1.55,2.9-8.46,5Z"/></g></g><g id="_Group_29" data-name="&lt;Group&gt;"><polygon id="_Path_25" data-name="&lt;Path&gt;" class="cls-2" points="65.94 75.2 91.71 89.86 95.32 97.04 65.94 80.22 65.94 75.2"/><path id="_Compound_Path_20" data-name="&lt;Compound Path&gt;" class="cls-3" d="M95.44,96.06,64.52,78.39v-5.8L91.51,88ZM65.23,78,93.89,94.38,91,88.53,65.23,73.76Z"/></g><g id="_Group_30" data-name="&lt;Group&gt;"><polygon id="_Path_26" data-name="&lt;Path&gt;" class="cls-1" points="96.92 34.61 122.11 20.1 143.23 32.04 118.29 46.69 96.92 34.61"/><polygon id="_Path_27" data-name="&lt;Path&gt;" class="cls-2" points="96.92 36.65 122.11 22.13 143.23 34.07 118.29 48.72 96.92 36.65"/><polygon id="_Path_28" data-name="&lt;Path&gt;" class="cls-1" points="96.92 34.61 87.45 54.33 108.58 66.27 118.29 46.69 96.92 34.61"/><g id="_Group_31" data-name="&lt;Group&gt;"><polygon id="_Path_29" data-name="&lt;Path&gt;" class="cls-3" points="108.67 66.18 118.29 46.69 143.23 32.04 143.27 46.2 108.67 66.18"/><path id="_Compound_Path_21" data-name="&lt;Compound Path&gt;" class="cls-3" d="M143.57,31.84,122.11,19.71,96.66,34.37,87,54.47l21.54,12.17,35.06-20.25ZM122.11,20.49,142.56,32,118.29,46.3,97.6,34.61Zm-25,14.6,20.78,11.74-9.41,19L87.9,54.19Zm21.48,11.84,24.34-14.3,0,13.37L109.47,65.33Z"/></g><polygon id="_Path_30" data-name="&lt;Path&gt;" class="cls-3" points="112.84 43.61 102.87 49.21 102.84 63.91 103.58 63.44 112.84 43.61"/><polygon id="_Path_31" data-name="&lt;Path&gt;" class="cls-1" points="102.87 49.21 93.52 43.75 103.22 38.17 112.84 43.61 102.87 49.21"/><polygon id="_Path_32" data-name="&lt;Path&gt;" class="cls-2" points="102.85 51.24 93.51 45.78 103.21 40.2 111.32 44.78 102.85 49.21 102.85 51.24"/><g id="_Group_32" data-name="&lt;Group&gt;"><polygon id="_Path_33" data-name="&lt;Path&gt;" class="cls-1" points="92.91 43.75 92.91 59.05 102.85 64.24 102.85 49.21 92.91 43.75"/><path id="_Compound_Path_22" data-name="&lt;Compound Path&gt;" class="cls-3" d="M113.28,43.47l-10.06-5.69L93.1,43.6V59.25l9.4,5.15v.12l.11-.07.66-.41.59-.36Zm-19.08.28,9-5.19,8.93,5-3.38,1.9L102.9,48.8l-3.28-1.89Zm-.42,15.1V44.33l5.51,3.17,3.25,1.9,0,14.23Zm18.31-14.43-8.77,18.79-.06,0V49.38L108,46.73Z"/></g><g id="_Group_33" data-name="&lt;Group&gt;"><g id="_Group_34" data-name="&lt;Group&gt;"><path id="_Compound_Path_23" data-name="&lt;Compound Path&gt;" class="cls-3" d="M102.14,64,95,60.28V47.41l7.1,3.53Zm-6.39-4.12,5.68,3V51.36l-5.68-2.83Z"/></g><g id="_Group_35" data-name="&lt;Group&gt;"><polygon id="_Path_34" data-name="&lt;Path&gt;" class="cls-2" points="97.88 51.86 97.88 56.51 101.43 58.19 101.43 53.55 97.88 51.86"/><path id="_Compound_Path_24" data-name="&lt;Compound Path&gt;" class="cls-3" d="M100.72,57.39l-4.26-2V50l4.26,2Zm-3.55-2.44L100,56.29V52.41l-2.84-1.35Z"/></g></g></g><g id="_Group_36" data-name="&lt;Group&gt;"><path id="_Compound_Path_25" data-name="&lt;Compound Path&gt;" class="cls-3" d="M89.36,118,71.62,107.62V85.73L89.36,96.18Zm-17-10.81,16.32,9.62V96.57L72.33,86.92Z"/></g><g id="_Group_37" data-name="&lt;Group&gt;"><polygon id="_Path_35" data-name="&lt;Path&gt;" class="cls-3" points="73.04 87.44 73.04 106.44 71.62 107.42 71.62 86.32 73.04 87.44"/><path id="_Compound_Path_26" data-name="&lt;Compound Path&gt;" class="cls-3" d="M71.62,107.62v-22l2.13,1.67v19.34ZM72.33,87v19.72l.71-.49V87.6Z"/></g><g id="_Group_38" data-name="&lt;Group&gt;"><path id="_Compound_Path_27" data-name="&lt;Compound Path&gt;" class="cls-3" d="M89.36,118.32,71,107.41l2.62-1.35,15.74,9.15Zm-17-10.88,16.29,9.68v-1.53l-15.07-8.76Z"/></g><g id="_Group_39" data-name="&lt;Group&gt;"><g id="_Group_40" data-name="&lt;Group&gt;"><polygon id="_Path_36" data-name="&lt;Path&gt;" class="cls-1" points="71.84 86.2 71.83 89.82 88.69 99.92 88.69 96.38 71.84 86.2"/><polygon id="_Path_37" data-name="&lt;Path&gt;" class="cls-2" points="72.78 88.09 72.77 90.64 88.69 99.98 88.69 97.74 72.78 88.09"/><path id="_Compound_Path_28" data-name="&lt;Compound Path&gt;" class="cls-3" d="M89,100.51,71.49,90V85.6L89,96.19ZM72.17,89.63l16.19,9.69V96.57L72.17,86.8Z"/></g></g><polygon id="_Path_38" data-name="&lt;Path&gt;" class="cls-1" points="133.69 101.07 130.88 96.55 169.97 74.02 172.99 78.14 133.69 101.07"/><polygon id="_Path_39" data-name="&lt;Path&gt;" class="cls-1" points="133.57 120.91 116.15 111.08 116.36 88.28 130.88 96.55 133.69 101.07 133.57 120.91"/><g id="_Group_41" data-name="&lt;Group&gt;"><g id="_Group_42" data-name="&lt;Group&gt;"><polygon id="_Path_40" data-name="&lt;Path&gt;" class="cls-1" points="105.06 29.79 105.02 24.47 117.75 31.57 117.75 37.17 105.06 29.79"/><polygon id="_Path_41" data-name="&lt;Path&gt;" class="cls-3" points="117.75 31.57 129.11 24.47 129.11 30.22 117.75 37.17 117.75 31.57"/><g id="_Group_43" data-name="&lt;Group&gt;"><polygon id="_Path_42" data-name="&lt;Path&gt;" class="cls-1" points="104.95 24.47 117.42 17.14 129.88 24.47 117.67 31.57 104.95 24.47"/><polygon id="_Path_43" data-name="&lt;Path&gt;" class="cls-2" points="104.99 25.83 117.44 18.5 128.53 24.99 117.75 31.57 117.75 32.92 104.99 25.83"/><path id="_Compound_Path_29" data-name="&lt;Compound Path&gt;" class="cls-3" d="M129.69,25l.87-.5-.87-.51v-.1l-.08.05-12.19-7.17-12.68,7.46,0,5.77,13.07,7.58,11.85-7.16Zm-12.27-7.44L129,24.32l-8.58,5.28-2.63,1.53-12.05-6.7Zm-12,12.05,0-4.47,12.08,6.74v4.73Zm12.73,7V31.75l2.55-1.57L129,25.37V30Z"/></g><g id="_Group_44" data-name="&lt;Group&gt;"><g id="_Group_45" data-name="&lt;Group&gt;"><path id="_Path_44" data-name="&lt;Path&gt;" class="cls-1" d="M118.2,23.54c1,.11,1.39.55,1.39,1.15,0,.07,0,0,0,.07l3,1.45a2.43,2.43,0,0,0,.47-1.4c0-1.85-2.29-3.36-5.2-3.5Z"/><path id="_Compound_Path_30" data-name="&lt;Compound Path&gt;" class="cls-3" d="M122.69,26l-3.55-1.71,0-.23v0c0-.19,0-.69-1.05-.81l-.24,0-.45-2.89.42,0c3.15.15,5.53,1.8,5.53,3.84a2.76,2.76,0,0,1-.53,1.59Zm-2.77-2.1,2.53,1.23a2,2,0,0,0,.26-1c0-1.56-1.93-2.89-4.46-3.13l.25,1.56C119.61,22.77,119.88,23.42,119.92,23.87Z"/></g><g id="_Group_46" data-name="&lt;Group&gt;"><path id="_Path_45" data-name="&lt;Path&gt;" class="cls-1" d="M118.71,25.67a2.1,2.1,0,0,1-1.29.25,2.35,2.35,0,0,1-1.29-.25L113,27a7.25,7.25,0,0,0,4.4,1.33,7,7,0,0,0,4.6-1.5Z"/><path id="_Compound_Path_31" data-name="&lt;Compound Path&gt;" class="cls-3" d="M117.42,28a7.58,7.58,0,0,1-4.61-1.4l-.45-.35,3.79-1.62.14.08a2,2,0,0,0,1.12.21,1.79,1.79,0,0,0,1.12-.2l.14-.08,4,1.41-.43.38A7.43,7.43,0,0,1,117.42,28Zm-3.7-1.6a7.32,7.32,0,0,0,3.7.92,7.21,7.21,0,0,0,3.9-1l-2.57-.9a2.61,2.61,0,0,1-1.33.22,2.82,2.82,0,0,1-1.3-.21Z"/></g><g id="_Group_47" data-name="&lt;Group&gt;"><path id="_Path_46" data-name="&lt;Path&gt;" class="cls-1" d="M115.25,24.69c0-.09,0,.1,0,0a1.44,1.44,0,0,1,1.4-1.41l.34-2c-2.91.14-5.2,1.65-5.2,3.5a2.51,2.51,0,0,0,.62,1.59Z"/><path id="_Compound_Path_32" data-name="&lt;Compound Path&gt;" class="cls-3" d="M112.33,26.17l-.19-.23a2.86,2.86,0,0,1-.69-1.81c0-2,2.37-3.69,5.52-3.84l.42,0-.46,2.63-.25,0a1.11,1.11,0,0,0-1.1,1l.1.2-.07.05v.12l-.3.05ZM116.58,21c-2.53.24-4.45,1.57-4.45,3.13a2.05,2.05,0,0,0,.36,1.14l2.36-1.43.08-.11a1.77,1.77,0,0,1,1.43-1.44Z"/></g></g><g id="_Group_48" data-name="&lt;Group&gt;"><path id="_Path_47" data-name="&lt;Path&gt;" class="cls-1" d="M119.6,24c0,.68-1,1.23-2.17,1.23s-2.17-.55-2.17-1.23c0-.5.57-1.78,1.32-2,.28-.07.53.74.85.74s.55-.83.84-.75C119,22.24,119.6,23.53,119.6,24Z"/><path id="_Compound_Path_33" data-name="&lt;Compound Path&gt;" class="cls-3" d="M117.43,25.58c-1.41,0-2.51-.69-2.51-1.57,0-.56.61-2,1.57-2.3.36-.09.6.24.77.48a2.71,2.71,0,0,0,.17.22,2.62,2.62,0,0,0,.16-.22c.17-.25.4-.58.77-.48a2.9,2.9,0,0,1,1.58,2.3C119.94,24.89,118.84,25.58,117.43,25.58Zm-.85-3.18a2.39,2.39,0,0,0-1,1.61c0,.42.75.89,1.83.89s1.83-.47,1.83-.89a2.54,2.54,0,0,0-1-1.61l-.12.17c-.17.25-.37.55-.72.55s-.55-.3-.72-.54Z"/></g><g id="_Group_49" data-name="&lt;Group&gt;"><ellipse id="_Path_48" data-name="&lt;Path&gt;" class="cls-2" cx="117.43" cy="22.75" rx="1.51" ry="0.85"/><path id="_Compound_Path_34" data-name="&lt;Compound Path&gt;" class="cls-3" d="M117.43,23.94c-1.05,0-1.84-.51-1.84-1.19s.79-1.19,1.84-1.19,1.85.52,1.85,1.19S118.47,23.94,117.43,23.94Zm0-1.71c-.7,0-1.17.31-1.17.51s.47.51,1.17.51,1.17-.31,1.17-.51S118.13,22.23,117.43,22.23Z"/></g></g><polygon id="_Path_49" data-name="&lt;Path&gt;" class="cls-3" points="117.43 23.6 117.43 25.24 119.26 24.83 119.72 23.94 118.94 22.75 118.2 23.54 117.43 23.6"/></g><g id="_Group_50" data-name="&lt;Group&gt;"><path id="_Compound_Path_35" data-name="&lt;Compound Path&gt;" class="cls-3" d="M107.87,58.88a.94.94,0,0,0-.13-.41c-.2-.36-.55-.52-.82-.37L87,69.39,71,60.18l15.83-9V55c0,.31.3.53.72.53s.72-.22.72-.53c0,0,.06-7.34,0-7.55a.44.44,0,0,0-.05-.12c-.21-.35-.54-.49-.8-.35,0,0-20.17,11.37-20.3,11.51l-.09.05a.46.46,0,0,0-.22.28.65.65,0,0,0,0,.21.42.42,0,0,0,0,.06v7.42c0,.31.3.53.72.53s.72-.22.72-.53V62.63L86.41,73.1v4.4c0,.31.3.53.72.53s.72-.22.72-.53V73.16l18.52-10.51v3.57c0,.31.3.53.72.53s.72-.22.72-.53C107.81,66.21,107.88,59,107.87,58.88Zm-38.78.18L86.86,49v.56l-17.28,9.8ZM69.58,61l16.83,9.7v.74L68.93,61.37Zm18.27,9.64,0-.09,18.49-10.49V61L87.85,71.5Z"/><polygon id="_Path_50" data-name="&lt;Path&gt;" class="cls-1" points="103.19 60.22 103.19 61.83 104.29 61.25 105.19 59.09 103.19 60.22"/><polygon id="_Path_51" data-name="&lt;Path&gt;" class="cls-1" points="103.19 62.85 103.19 63.82 103.7 63.55 104.07 62.38 103.19 62.85"/></g><g id="_Group_51" data-name="&lt;Group&gt;"><g id="_Group_52" data-name="&lt;Group&gt;"><polygon id="_Path_52" data-name="&lt;Path&gt;" class="cls-1" points="169.82 93.08 169.98 88.95 179.52 94.28 179.49 98.46 169.82 93.08"/><polygon id="_Path_53" data-name="&lt;Path&gt;" class="cls-5" points="179.5 94.28 188.68 88.95 188.61 93.17 179.5 98.46 179.5 94.28"/><g id="_Group_53" data-name="&lt;Group&gt;"><polygon id="_Path_54" data-name="&lt;Path&gt;" class="cls-1" points="169.98 88.95 179.34 83.45 188.69 88.95 179.52 94.28 169.98 88.95"/><polygon id="_Path_55" data-name="&lt;Path&gt;" class="cls-2" points="169.97 90.31 179.33 84.8 187.42 89.57 179.5 94.28 179.5 95.63 169.97 90.31"/><path id="_Compound_Path_36" data-name="&lt;Compound Path&gt;" class="cls-3" d="M189,88.75l-9.69-5.7L170,88.56l-.31-.17v.37l-.35.21.33.19-.16,4.13,10,5.58,9.44-5.48Zm-9.69-4.91,8.68,5.1-8.51,4.93-8.85-4.93Zm-9.17,9,.13-3.36,8.86,4.94v3.42Zm9.67,5,0-3.39,8.47-4.92L188.27,93Z"/></g><g id="_Group_54" data-name="&lt;Group&gt;"><g id="_Group_55" data-name="&lt;Group&gt;"><path id="_Path_56" data-name="&lt;Path&gt;" class="cls-1" d="M179.92,88.42c.75.08,1,.41,1,.86,0,.06,0,0,0,.06l2.24,1.09a1.83,1.83,0,0,0,.35-1.05c0-1.39-1.72-2.53-3.91-2.63Z"/><path id="_Compound_Path_37" data-name="&lt;Compound Path&gt;" class="cls-3" d="M183.32,90.19l-2.75-1.24-.35,0v0l.13,0,.18-.23c0-.12.05-.44-.69-.52l-.23,0-.36-2.34.42,0c2.41.11,4.23,1.39,4.23,3a2.15,2.15,0,0,1-.41,1.25Zm-2-1.74,1.78.87a1.4,1.4,0,0,0,.14-.61c0-1.11-1.36-2.05-3.16-2.26l.16,1C181,87.62,181.25,88.09,181.29,88.45Z"/></g><g id="_Group_56" data-name="&lt;Group&gt;"><path id="_Path_57" data-name="&lt;Path&gt;" class="cls-1" d="M180.31,90a1.57,1.57,0,0,1-1,.19,1.76,1.76,0,0,1-1-.19L176,91a5.44,5.44,0,0,0,3.3,1,5.29,5.29,0,0,0,3.46-1.12Z"/><path id="_Compound_Path_38" data-name="&lt;Compound Path&gt;" class="cls-3" d="M179.34,91.68a5.78,5.78,0,0,1-3.51-1.07l-.45-.35,3-1.29.14.08a1.44,1.44,0,0,0,.8.14c.45,0,.58,0,.8-.14l.14-.08,3.18,1.12-.43.38A5.66,5.66,0,0,1,179.34,91.68Zm-2.59-1.27a5.53,5.53,0,0,0,2.59.59,5.45,5.45,0,0,0,2.74-.68l-1.73-.61a2.07,2.07,0,0,1-1,.15,2.25,2.25,0,0,1-1-.15Z"/></g><g id="_Group_57" data-name="&lt;Group&gt;"><path id="_Path_58" data-name="&lt;Path&gt;" class="cls-1" d="M177.71,89.28c0-.07,0,.07,0,0a1.08,1.08,0,0,1,1.05-1.06l.26-1.47c-2.18.1-3.91,1.24-3.91,2.63a1.88,1.88,0,0,0,.46,1.19Z"/><path id="_Compound_Path_39" data-name="&lt;Compound Path&gt;" class="cls-3" d="M175.5,90.34l-.19-.23a2.23,2.23,0,0,1-.54-1.41c0-1.58,1.82-2.85,4.23-3l.42,0L179,87.85l-.25,0a.75.75,0,0,0-.75.66l.1.2-.07.05v.12l-.28,0Zm3.11-3.89c-1.8.21-3.16,1.15-3.16,2.25a1.43,1.43,0,0,0,.22.74l1.65-1,.08-.11a1.41,1.41,0,0,1,1.07-1.08Z"/></g></g><g id="_Group_58" data-name="&lt;Group&gt;"><path id="_Path_59" data-name="&lt;Path&gt;" class="cls-1" d="M181,88.61c0,.51-.73.92-1.63.92s-1.63-.41-1.63-.92.43-1.33,1-1.48c.21-.05.4.56.64.56s.42-.62.63-.56C180.52,87.27,181,88.24,181,88.61Z"/><path id="_Compound_Path_40" data-name="&lt;Compound Path&gt;" class="cls-3" d="M179.35,89.87c-1.1,0-2-.55-2-1.26a2.19,2.19,0,0,1,1.24-1.81c.33-.09.53.2.67.39l.05.07,0-.07c.12-.18.33-.49.67-.4a2.24,2.24,0,0,1,1.25,1.81C181.31,89.31,180.45,89.87,179.35,89.87Zm-.66-2.36a1.84,1.84,0,0,0-.62,1.1c0,.24.5.58,1.29.58s1.29-.35,1.29-.58a1.88,1.88,0,0,0-.63-1.1l0,.07c-.13.19-.3.45-.61.45s-.48-.26-.61-.44Z"/></g><g id="_Group_59" data-name="&lt;Group&gt;"><ellipse id="_Path_60" data-name="&lt;Path&gt;" class="cls-2" cx="179.35" cy="87.66" rx="1.13" ry="0.64"/><path id="_Compound_Path_41" data-name="&lt;Compound Path&gt;" class="cls-3" d="M179.35,88.63c-.84,0-1.47-.42-1.47-1s.63-1,1.47-1,1.47.42,1.47,1S180.18,88.63,179.35,88.63Zm0-1.28c-.52,0-.79.22-.79.3s.27.3.79.3.79-.22.79-.3S179.87,87.35,179.35,87.35Z"/></g></g><polygon id="_Path_61" data-name="&lt;Path&gt;" class="cls-3" points="179.16 88.3 179.16 89.71 180.25 89.53 180.91 88.86 180.55 87.88 179.84 88.35 179.16 88.3"/></g><g id="_Group_60" data-name="&lt;Group&gt;"><g id="_Group_61" data-name="&lt;Group&gt;"><path id="_Path_62" data-name="&lt;Path&gt;" class="cls-1" d="M196.65,92.3l-6.34.18.1,7.53h0c.16,1.42,1.46,1.7,3,1.7s2.87-.28,3-1.7h0Z"/><path id="_Compound_Path_42" data-name="&lt;Compound Path&gt;" class="cls-3" d="M193.46,101.46c-.73,0-2.89.33-3.32-1.7l-.08-.33L190,91.7l7,0-.22,8.1C196.35,101.79,194.2,101.46,193.46,101.46Zm-2.72-2.18,0,.09c.08.65.46,1.4,2.7,1.4s2.62-.75,2.7-1.4l0-.16.12-6.87-5.65,0Z"/></g><g id="_Group_62" data-name="&lt;Group&gt;"><ellipse id="_Path_63" data-name="&lt;Path&gt;" class="cls-1" cx="193.46" cy="91.67" rx="3.19" ry="1.99"/><path id="_Path_64" data-name="&lt;Path&gt;" class="cls-2" d="M193.46,91a3.45,3.45,0,0,0-3,1.31,4.05,4.05,0,0,0,6,0A3.45,3.45,0,0,0,193.46,91Z"/><path id="_Compound_Path_43" data-name="&lt;Compound Path&gt;" class="cls-3" d="M193.46,94c-2,0-3.53-1-3.53-2.33s1.55-2.33,3.53-2.33,3.53,1,3.53,2.33S195.44,94,193.46,94Zm0-4c-1.54,0-2.85.76-2.85,1.65s1.3,1.65,2.85,1.65,2.85-.76,2.85-1.65S195,90,193.46,90Z"/></g><path id="_Path_65" data-name="&lt;Path&gt;" class="cls-6" d="M193.86,93.66v7.41l1.62-.28,1-.87V92.48a5.87,5.87,0,0,1-.83.59C195.5,93.1,193.86,93.66,193.86,93.66Z"/></g><g id="_Group_63" data-name="&lt;Group&gt;"><g id="_Group_64" data-name="&lt;Group&gt;"><path id="_Path_66" data-name="&lt;Path&gt;" class="cls-1" d="M17.05,109.69H10.71l.1,7.35h0c.16.71,1.46,1.7,3,1.7s2.87-1,3-1.7h0Z"/><path id="_Compound_Path_44" data-name="&lt;Compound Path&gt;" class="cls-3" d="M13.86,119.08a4.29,4.29,0,0,1-3.27-1.7l-.12-.39-.1-7.75h7l-.26,8.14A4.29,4.29,0,0,1,13.86,119.08Zm-2.72-2.2v.05a3,3,0,0,0,2.71,1.45A3,3,0,0,0,16.57,117v-.08l.13-6.93H11.06Z"/></g><g id="_Group_65" data-name="&lt;Group&gt;"><ellipse id="_Path_67" data-name="&lt;Path&gt;" class="cls-1" cx="13.86" cy="109.42" rx="3.19" ry="1.99"/><path id="_Path_68" data-name="&lt;Path&gt;" class="cls-2" d="M13.88,108.78a3.46,3.46,0,0,0-3,1.31,3.45,3.45,0,0,0,3,1.31,3.45,3.45,0,0,0,3-1.31A3.46,3.46,0,0,0,13.88,108.78Z"/><path id="_Compound_Path_45" data-name="&lt;Compound Path&gt;" class="cls-3" d="M13.86,111.75c-2,0-3.53-1-3.53-2.33s1.55-2.33,3.53-2.33,3.53,1,3.53,2.33S15.84,111.75,13.86,111.75Zm0-4c-1.54,0-2.85.76-2.85,1.65s1.3,1.65,2.85,1.65,2.85-.76,2.85-1.65S15.41,107.77,13.86,107.77Z"/></g><polygon id="_Path_69" data-name="&lt;Path&gt;" class="cls-4" points="14.44 111.44 14.44 118.85 15.85 118.17 16.9 117.38 17.05 110.1 15.23 111.31 14.44 111.44"/></g><g id="_Group_66" data-name="&lt;Group&gt;"><g id="_Group_67" data-name="&lt;Group&gt;"><path id="_Path_70" data-name="&lt;Path&gt;" class="cls-1" d="M36.4,107.85c.21,0,6.49,3.83,6.49,3.83l-6.61,3.63-6.54-3.87,6.66-3.59Z"/><path id="_Path_71" data-name="&lt;Path&gt;" class="cls-2" d="M36.36,109.09c.21,0,6.49,3.83,6.49,3.83l-6.61,3.63-6.54-3.87,6.66-3.59Z"/><polygon id="_Path_72" data-name="&lt;Path&gt;" class="cls-7" points="36.25 117.25 36.28 115.31 42.89 111.69 42.86 113.73 36.25 117.25"/><g id="_Group_68" data-name="&lt;Group&gt;"><polygon id="_Path_73" data-name="&lt;Path&gt;" class="cls-1" points="29.73 111.44 29.7 113.23 36.25 117.25 36.28 115.31 29.73 111.44"/><path id="_Compound_Path_46" data-name="&lt;Compound Path&gt;" class="cls-3" d="M43.14,111.55s-6.53-3.91-6.7-3.94l-.09,0-6.62,3.56-.26.14v.3l0,1.79,6.79,4.17,6.87-3.67Zm-12.89-.09,6.15-3.31c.61.32,3.71,2.17,6,3.54L36.28,115l-4.38-2.59Zm-.27.43,2,1.19,4,2.39,0,1.35-6-3.71Zm12.62,1.69-6.1,3.25,0-1.36,5.69-3.12.41-.22Z"/></g><g id="_Group_69" data-name="&lt;Group&gt;"><polygon id="_Path_74" data-name="&lt;Path&gt;" class="cls-1" points="36.23 112.25 36.24 75.8 34.73 75.8 34.71 111.29 36.23 112.25"/><path id="_Compound_Path_47" data-name="&lt;Compound Path&gt;" class="cls-3" d="M36.48,112.72l-2-1.29,0-35.88h2ZM35,111.15l1,.64,0-35.73H35Z"/></g><g id="_Group_70" data-name="&lt;Group&gt;"><polygon id="_Path_75" data-name="&lt;Path&gt;" class="cls-4" points="36.23 112.25 36.24 75.8 37.79 75.8 37.77 111.29 36.23 112.25"/><path id="_Compound_Path_48" data-name="&lt;Compound Path&gt;" class="cls-3" d="M36,112.71l0-37.16H38l0,35.88Zm.53-36.66,0,35.74,1-.65,0-35.09Z"/></g><polygon id="_Path_76" data-name="&lt;Path&gt;" class="cls-4" points="36.16 82.29 33.78 83.47 33.78 78.79 32.55 79.56 32.55 85.48 36.32 83.69 36.16 82.29"/><path id="_Path_77" data-name="&lt;Path&gt;" class="cls-1" d="M31.33,78.79s1.22.77,1.22.77v5.92l-1.22-.73Z"/><polygon id="_Path_78" data-name="&lt;Path&gt;" class="cls-2" points="36.16 82.29 34.64 81.52 33.78 81.93 33.78 83.47 36.16 82.29"/><g id="_Group_71" data-name="&lt;Group&gt;"><polygon id="_Path_79" data-name="&lt;Path&gt;" class="cls-2" points="32.54 79.56 33.91 78.79 32.54 78.01 31.28 78.79 32.54 79.56"/><path id="_Compound_Path_49" data-name="&lt;Compound Path&gt;" class="cls-3" d="M36.4,82.13l-1.76-.89-.61.29v-3l-1.49-.86-1.48.92V84.9l1.46.87,4-1.93Zm-1.77-.33,1,.49L34,83.06v-1Zm-2.09-3.5.8.46-.79.5-.76-.49Zm-1,6.31V79.27l.71.43V85Zm1.22-4.91.71-.4v4.57L36,82.68l.09.86-3.24,1.54Z"/></g><polygon id="_Path_80" data-name="&lt;Path&gt;" class="cls-2" points="40.22 93.3 37.75 94.72 37.75 93.3 38.99 92.5 40.22 93.3"/><polygon id="_Path_81" data-name="&lt;Path&gt;" class="cls-5" points="37.73 96.54 37.72 94.72 40.2 93.3 40.2 91.5 41.72 90.73 41.72 94.27 37.73 96.54"/><g id="_Group_72" data-name="&lt;Group&gt;"><polygon id="_Path_82" data-name="&lt;Path&gt;" class="cls-1" points="40.2 91.5 38.97 90.73 38.97 92.5 40.2 93.3 40.2 91.5"/><path id="_Compound_Path_50" data-name="&lt;Compound Path&gt;" class="cls-3" d="M40.21,91.2l-1.49-.93v2.1l-1.22.79v1.4l0,0V97L42,94.42v-4.1Zm-.27.43v1.18l-.71-.46V91.19ZM38,93.44l1-.63.73.48-1.71,1Zm3.47.69-3.49,2V94.89l2.47-1.43V91.65l1-.51Z"/></g><g id="_Group_73" data-name="&lt;Group&gt;"><polygon id="_Path_83" data-name="&lt;Path&gt;" class="cls-1" points="45.65 67.35 39.83 64.01 36.34 65.94 32.79 64.02 27.13 66.55 31.98 71.8 35.28 72.55 37.1 73.1 45.65 67.35"/><polygon id="_Path_84" data-name="&lt;Path&gt;" class="cls-2" points="45.43 68.97 39.6 65.63 36.12 67.56 32.56 65.64 26.91 68.17 31.75 73.42 35.05 74.17 36.88 74.72 45.43 68.97"/><path id="_Compound_Path_51" data-name="&lt;Compound Path&gt;" class="cls-3" d="M37.14,73.38l-1.94-.58L31.84,72l-5-5.64,5.92-2.65,3.54,1.92,3.49-1.93L46,67.23Zm-5-1.8,3.22.73,1.73.52,8.11-5.45L39.82,64.3l-3.48,1.93L32.78,64.3l-5.22,2.34Z"/></g><g id="_Group_74" data-name="&lt;Group&gt;"><path id="_Path_85" data-name="&lt;Path&gt;" class="cls-1" d="M36.22,78.27V72l-2.11-1.21s-.68-.86-.95-.59a.34.34,0,0,1-.51,0s-.23-.53-.58-.22-1.48-.78-1.48-.78l.68,0-4.22-2.67v2s.6-.13.38.6c-.09.29-.38,0-.38,0v3.55l9.17,5.58Z"/><path id="_Compound_Path_52" data-name="&lt;Compound Path&gt;" class="cls-3" d="M36.47,78.73,26.8,72.83V68.5h0l.08-2.12L31.33,69v.52a1.23,1.23,0,0,0,.6.3.53.53,0,0,1,.48-.14.76.76,0,0,1,.46.41l.07,0L33,70a.46.46,0,0,1,.33-.12c.37,0,.79.5,1,.7l2.19,1.26ZM27.3,72.55,36,77.82V72.18L33.92,71a1.78,1.78,0,0,0-.62-.55.46.46,0,0,1-.39.16.67.67,0,0,1-.45-.23l0-.06a.37.37,0,0,0-.13-.17l-.05,0c-.48.42-1.44-.41-1.83-.79l-.48-.46.4,0L27.3,67v1.29a.54.54,0,0,1,.29.16.75.75,0,0,1,.08.76.4.4,0,0,1-.29.3H27.3Z"/></g><g id="_Group_75" data-name="&lt;Group&gt;"><path id="_Path_86" data-name="&lt;Path&gt;" class="cls-4" d="M45.7,67.35l-2.91,1.33s-.7,1.15-.77.8c-.1-.51-.93,0-.93,0L36.22,72v6.24l5.65-3s-.62-.85-.22-.67,4-.91,4-.91V72.19s-.14-1.09-.5-1.27.5-1.39.5-1.39Z"/><path id="_Compound_Path_53" data-name="&lt;Compound Path&gt;" class="cls-3" d="M36,78.7V71.88l5-2.63A1.29,1.29,0,0,1,42,69a.49.49,0,0,1,.17.12,5.9,5.9,0,0,0,.43-.62l0-.07L46,67.23v2.38l0,.07a3.33,3.33,0,0,0-.54,1c.4.27.55,1.16.58,1.43v1.67l-.18.05a24.8,24.8,0,0,1-3.87.93l.17.26.17.24Zm.51-6.51v5.66l5-2.71c-.32-.49-.26-.64-.17-.75a.33.33,0,0,1,.43-.06,20.72,20.72,0,0,0,3.69-.87V72.19a2.11,2.11,0,0,0-.36-1,.4.4,0,0,1-.21-.27c-.1-.39.33-1.08.57-1.43v-1.7L43,68.88c-.6,1-.82.94-.94.92a.32.32,0,0,1-.25-.27c-.07,0-.33,0-.55.17Z"/></g><g id="_Group_76" data-name="&lt;Group&gt;"><polygon id="_Path_87" data-name="&lt;Path&gt;" class="cls-1" points="43.6 59.84 37.78 56.51 36.35 57.39 35.11 56.83 29.45 59.37 34.3 64.61 35.28 63.99 37.1 64.54 43.6 59.84"/><polygon id="_Path_88" data-name="&lt;Path&gt;" class="cls-2" points="43.51 61.29 37.69 57.95 36.26 58.83 35.02 58.28 29.36 60.81 34.21 66.06 35.19 65.44 37.01 65.99 43.51 61.29"/><path id="_Compound_Path_54" data-name="&lt;Compound Path&gt;" class="cls-3" d="M34.26,64.94l-5-5.76,5.87-2.63,1.22.55,1.45-.89,6,3.46-6.66,5.15-1.83-.55Zm-4.38-5.49,4.46,4.83.9-.57,1.81.55,6.08-4.39L37.78,56.8l-1.42.87-1.25-.56Z"/></g><g id="_Group_77" data-name="&lt;Group&gt;"><path id="_Path_89" data-name="&lt;Path&gt;" class="cls-1" d="M36.22,69.71V63.48l.22.16s-.68-.86-.95-.59A.34.34,0,0,1,35,63s0-.51-.35-.19-.45-.39-.45-.39L33.66,62,29.5,59.37v2a3.48,3.48,0,0,0,.18.36c.15.27-.18,1.43-.18,1.43V65.5l6.72,4.21Z"/><path id="_Compound_Path_55" data-name="&lt;Compound Path&gt;" class="cls-3" d="M36.25,70l-7-4.39V62.83h.08a3,3,0,0,0,.13-1,3.69,3.69,0,0,1-.19-.38l0-.1V59.18l4.55,2.64.63.46v.11a.94.94,0,0,0,.06.21A.45.45,0,0,1,35,62.5a.48.48,0,0,1,.24.39h0l.06,0a.44.44,0,0,1,.33-.12c.39,0,.86.57,1,.74l1.13,1.43L36.47,64Zm-6.49-4.67L36,69.25V63.49a.94.94,0,0,0-.35-.25.45.45,0,0,1-.39.16.67.67,0,0,1-.45-.23l-.06-.07v0a.43.43,0,0,1-.4.06.74.74,0,0,1-.37-.56l-.45-.33-3.75-2.41v1.48c0,.06.08.17.14.29a3,3,0,0,1-.14,1.59Z"/></g><g id="_Group_78" data-name="&lt;Group&gt;"><path id="_Path_90" data-name="&lt;Path&gt;" class="cls-4" d="M43.56,59.84l-2.87,1.33s-.05.33-.54.38A3.45,3.45,0,0,0,39,62l-2.8,1.36v6.38l4.41-2.18s1.46-1.32,1.86-1.13,1.07-.27,1.07-.27V64.68s.06-1.24-.3-1.42.3-1.24.3-1.24Z"/><path id="_Compound_Path_56" data-name="&lt;Compound Path&gt;" class="cls-3" d="M36.25,70,36,63.17l2.95-1.43a3.63,3.63,0,0,1,1.21-.44c.27,0,.31-.17.32-.18l0-.12.11-.06,3.23-1.28v2.42l0,.06a2.09,2.09,0,0,0-.36.92c.42.19.42,1.2.4,1.62v1.58l-.11.08c-.08.05-.8.52-1.32.29a5.09,5.09,0,0,0-1.58,1.09l-.06,0Zm.23-6.54V69.3l4-2c.72-.65,1.65-1.36,2.11-1.15.15.07.48,0,.71-.18V64.68a2.39,2.39,0,0,0-.16-1.19.43.43,0,0,1-.22-.27,2.12,2.12,0,0,1,.38-1.27V60.24L40.9,61.36a.84.84,0,0,1-.72.45,3.21,3.21,0,0,0-1,.38Z"/></g><g id="_Group_79" data-name="&lt;Group&gt;"><polygon id="_Path_91" data-name="&lt;Path&gt;" class="cls-1" points="36.62 50 41.82 53.2 37.87 57.13 36.24 57.38 31.33 53.69 31.33 52.71 36.62 50"/><polygon id="_Path_92" data-name="&lt;Path&gt;" class="cls-2" points="36.63 51.3 41.83 54.5 37.89 58.43 36.26 58.68 31.34 54.99 31.34 54 36.63 51.3"/><path id="_Compound_Path_57" data-name="&lt;Compound Path&gt;" class="cls-3" d="M36.18,57.65l-5.1-3.83V52.55l5.55-2.84L42,53l-4,4.37Zm-4.59-4.08,4.73,3.55,1.44-.22,3.66-3.64-4.8-3-5,2.57Z"/></g><g id="_Group_80" data-name="&lt;Group&gt;"><path id="_Path_93" data-name="&lt;Path&gt;" class="cls-4" d="M36.22,61.56V55.95l1.22-.54,1,.23.5-1,2.78-1.45v2s.1,1.78-.23,1.95a.72.72,0,0,0-.35.59l.58.56v.54Z"/><path id="_Compound_Path_58" data-name="&lt;Compound Path&gt;" class="cls-3" d="M36.22,61.84,36,55.78l1.45-.64.89.2.45-.87L42,53v2.18c.07,1.28,0,2-.37,2.18a.4.4,0,0,0-.19.27l.56.54V59Zm.25-5.73v5l5-2.49v-.28l-.58-.56v-.11a1,1,0,0,1,.49-.81,5.6,5.6,0,0,0,.09-1.71V53.62l-2.34,1.22-.55,1.08-1.11-.25Z"/></g><g id="_Group_81" data-name="&lt;Group&gt;"><path id="_Path_94" data-name="&lt;Path&gt;" class="cls-1" d="M31.33,58.63l4.89,2.93V55.95l-2-1.21s-.65-.44-.86-.15-.59-.93-.59-.93l-1.42-1v2.58s.21-.12.3.38a2.47,2.47,0,0,1-.12,1.06l-.18.41Z"/><path id="_Compound_Path_59" data-name="&lt;Compound Path&gt;" class="cls-3" d="M36.22,61.84l-5.15-3.06,0-1.75.18-.41h0a2.23,2.23,0,0,0,.1-.91.84.84,0,0,0,0-.14l-.27.15V52.55l1.89,1,0,.09a4.27,4.27,0,0,0,.29.72c.37-.21.93.14,1.06.23l2.13,1.27Zm-4.64-3.35L36,61.11v-5L34.07,55a1,1,0,0,0-.53-.21.32.32,0,0,1-.32.14c-.1,0-.35-.06-.68-1.06l-.95-.64v1.89a.73.73,0,0,1,.29.55,2.72,2.72,0,0,1-.13,1.19l-.17.38Z"/></g><g id="_Group_82" data-name="&lt;Group&gt;"><path id="_Path_95" data-name="&lt;Path&gt;" class="cls-5" d="M40.19,91.49l4.59-2.1V87.72h-.61s-.88-.11-.54-.5a11.91,11.91,0,0,1,1.15-1v-2l-4.59,2.46Z"/><path id="_Compound_Path_60" data-name="&lt;Compound Path&gt;" class="cls-3" d="M39.94,91.89V86.54L45,84.06v2.25l-.1.08a12.16,12.16,0,0,0-1.1,1,1.3,1.3,0,0,0,.36.1H45v2.09Zm.51-5V91.1l4.08-1.87V88h-.35c-.23,0-.72-.12-.84-.44a.46.46,0,0,1,.11-.48,10.82,10.82,0,0,1,1.09-1V84.65Z"/></g><g id="_Group_83" data-name="&lt;Group&gt;"><polygon id="_Path_96" data-name="&lt;Path&gt;" class="cls-1" points="37.75 85.21 40.2 86.69 40.2 91.5 37.75 89.99 37.75 85.21"/><path id="_Compound_Path_61" data-name="&lt;Compound Path&gt;" class="cls-3" d="M40.45,91.95l-3-1.82V84.76l3,1.79ZM38,89.85,39.94,91V86.83L38,85.66Z"/></g><g id="_Group_84" data-name="&lt;Group&gt;"><path id="_Path_97" data-name="&lt;Path&gt;" class="cls-1" d="M44.73,84.23,42,82.66s-.25-.11-.59.2-.59,0-.67,0-.17-.69-.17-.69l-.2-.62-1,.62-.14.74-.32-.15-1.18.75v1.74l2.43,1.48Z"/><path id="_Path_98" data-name="&lt;Path&gt;" class="cls-2" d="M43.72,84.76l-1.73-1s-.25-.11-.59.2-.59,0-.67,0-.17-.69-.17-.69l-.2-.62-1,.62-.14.74-.32-.15-1.18.75v.64l2.45,1.48Z"/><path id="_Compound_Path_62" data-name="&lt;Compound Path&gt;" class="cls-3" d="M40.17,87,37.5,85.35v-2l1.42-.9.14.07.1-.52,1.35-.85.3.93a5,5,0,0,0,.11.58l0,0c.13.09.17.11.29,0a.81.81,0,0,1,.86-.24L45,84.06ZM38,85.07l2.18,1.33,4-2.17-2.34-1.34a.57.57,0,0,0-.29.16.67.67,0,0,1-.92,0c-.14-.05-.24-.14-.34-.91l-.08-.26-.61.39-.18,1L38.95,83l-.95.6Z"/></g><g id="_Group_85" data-name="&lt;Group&gt;"><polygon id="_Path_99" data-name="&lt;Path&gt;" class="cls-1" points="33.47 113.73 33.47 110.07 29.64 107.86 29.68 109.3 30.2 110.07 29.72 110.79 29.66 111.44 33.47 113.73"/><path id="_Compound_Path_63" data-name="&lt;Compound Path&gt;" class="cls-3" d="M33.45,114l-4-2.43.11-.93.38-.58-.46-.69-.06-2,4.35,2.52Zm-3.52-2.71,3.28,2v-3.06l-3.31-1.92,0,.92.57.85-.54.8Z"/></g><g id="_Group_86" data-name="&lt;Group&gt;"><polygon id="_Path_100" data-name="&lt;Path&gt;" class="cls-6" points="36.94 108.45 33.47 110.07 33.47 113.73 34.64 113.26 34.41 112.28 35.98 112.71 37.21 112.18 36.94 108.45"/><path id="_Compound_Path_64" data-name="&lt;Compound Path&gt;" class="cls-3" d="M33.45,114l-.23-4.1,4-1.65.29,4.09L36,113l-1.25-.34.18.77Zm.28-3.78v3.12l.62-.25-.27-1.18,1.9.51,1-.42-.23-3.18Z"/></g><g id="_Group_87" data-name="&lt;Group&gt;"><path id="_Path_101" data-name="&lt;Path&gt;" class="cls-1" d="M29.71,107.85l1.58-.86a.5.5,0,0,0,.63.43c.57-.09.23-.71.23-.71l.85-.45,4,2.18-3.41,1.62Z"/><polygon id="_Path_102" data-name="&lt;Path&gt;" class="cls-2" points="30.44 108.56 32.01 107.9 32.85 107.45 35.73 109.02 33.47 110.07 30.44 108.56"/><path id="_Compound_Path_65" data-name="&lt;Compound Path&gt;" class="cls-3" d="M33.59,110.36l-4.41-2.51,2.31-1.26,0,.37h0a.3.3,0,0,0,.1.17.31.31,0,0,0,.24,0c.06,0,.1,0,.11,0a.46.46,0,0,0-.06-.29l-.12-.23L33,106l4.19,2.28,0,.38Zm-3.36-2.5,3.38,1.93,2.84-1.35L33,106.56l-.53.28a.74.74,0,0,1,0,.51.61.61,0,0,1-.48.33.79.79,0,0,1-.63-.13.72.72,0,0,1-.17-.19Z"/></g></g><g id="_Group_88" data-name="&lt;Group&gt;"><polygon id="_Path_103" data-name="&lt;Path&gt;" class="cls-1" points="36.34 78.53 36.35 77.82 37.67 77.18 37.66 77.88 36.34 78.53"/></g><g id="_Group_89" data-name="&lt;Group&gt;"><polygon id="_Path_104" data-name="&lt;Path&gt;" class="cls-1" points="40.29 91.71 40.3 91.01 41.63 90.37 41.62 91.07 40.29 91.71"/></g><g id="_Group_90" data-name="&lt;Group&gt;"><polygon id="_Path_105" data-name="&lt;Path&gt;" class="cls-1" points="36.67 111.61 36.67 109.05 37.21 108.82 37.21 111.38 36.67 111.61"/></g></g><g id="_Group_91" data-name="&lt;Group&gt;"><g id="_Group_92" data-name="&lt;Group&gt;"><path id="_Path_106" data-name="&lt;Path&gt;" class="cls-1" d="M90.1,149.26c.16,0,4.87,2.88,4.87,2.88l-5,2.72L85.11,152l5-2.69Z"/><path id="_Path_107" data-name="&lt;Path&gt;" class="cls-2" d="M90,150.38c.16,0,4.87,2.88,4.87,2.88l-5,2.72L85,153.07l5-2.69Z"/><polygon id="_Path_108" data-name="&lt;Path&gt;" class="cls-4" points="89.99 156.31 90.02 154.86 94.97 152.14 94.95 153.67 89.99 156.31"/><g id="_Group_93" data-name="&lt;Group&gt;"><polygon id="_Path_109" data-name="&lt;Path&gt;" class="cls-1" points="85.11 151.95 85.08 153.3 89.99 156.31 90.02 154.86 85.11 151.95"/><path id="_Compound_Path_66" data-name="&lt;Compound Path&gt;" class="cls-3" d="M95.23,152s-5-3-5.08-3l-.09,0-5.21,2.8,0,1.64L90,156.61l5.22-2.79Zm-9.61,0,4.49-2.42c.5.27,2.7,1.58,4.35,2.58L90,154.57l-2.47-1.46Zm4.12,3.9-4.4-2.71v-.76L89.76,155v.86Zm.51,0V155l4.44-2.44v.94Z"/></g><polygon id="_Path_110" data-name="&lt;Path&gt;" class="cls-1" points="89.98 152.76 90 138.06 88.87 138.06 88.84 152.04 89.98 152.76"/><g id="_Group_94" data-name="&lt;Group&gt;"><polygon id="_Path_111" data-name="&lt;Path&gt;" class="cls-4" points="89.98 152.76 90 138.06 91.16 138.06 91.14 152.04 89.98 152.76"/><path id="_Compound_Path_67" data-name="&lt;Compound Path&gt;" class="cls-3" d="M91.42,137.8h-2.8l0,14.38,1.39.89,1.41-.88Zm-2.3.51h.63l0,14-.63-.4Zm1.77,13.59-.65.41,0-14h.65Z"/></g><polygon id="_Path_112" data-name="&lt;Path&gt;" class="cls-4" points="89.97 140.73 88.2 141.61 88.2 138.11 87.18 137.58 87.18 143.13 90.04 141.78 89.97 140.73"/><path id="_Path_113" data-name="&lt;Path&gt;" class="cls-1" d="M86.32,137.23s.86.36.86.36v5.54l-.86-.55Z"/><g id="_Group_95" data-name="&lt;Group&gt;"><polygon id="_Path_114" data-name="&lt;Path&gt;" class="cls-2" points="89.97 140.73 88.84 140.15 88.2 140.46 88.2 141.61 89.97 140.73"/><path id="_Compound_Path_68" data-name="&lt;Compound Path&gt;" class="cls-3" d="M90.24,140.89l0-.31-.24-.12-1.13-.58-.38.19V138l-1-.52h0l-.14-.06-.36-.19v0c-.6-.26-.62-.25-.74-.18l-.12.08v5.63l.85.54v.26l.24-.11.27.17v-.3L90.17,142Zm-1.4-.45.57.29-.95.47v-.58Zm-2.26,2V137.6l.35.15v4.91Zm.85-4.44.52.26V142l1.79-.89,0,.5-2.35,1.1Z"/></g><g id="_Group_96" data-name="&lt;Group&gt;"><polygon id="_Path_115" data-name="&lt;Path&gt;" class="cls-1" points="98.71 130.48 94.34 127.98 90.14 130.25 85.71 127.71 81.46 129.61 85.1 133.55 89.34 135.2 90.7 135.61 98.71 130.48"/><polygon id="_Path_116" data-name="&lt;Path&gt;" class="cls-2" points="98.77 131.84 94.4 129.34 90.2 131.61 85.77 129.07 81.52 130.97 85.16 134.91 89.39 136.56 90.76 136.97 98.77 131.84"/><path id="_Compound_Path_69" data-name="&lt;Compound Path&gt;" class="cls-3" d="M90.74,135.89l-1.48-.45-4.35-1.72-3.66-4.41,4.47-1.88L90.14,130l4.2-2.27,4.55,2.39Zm-5.5-2.56L89.43,135l1.24.37,7.72-5-4-2.05-4.2,2.27L85.7,128l-3.8,1.7Z"/></g><g id="_Group_97" data-name="&lt;Group&gt;"><path id="_Path_117" data-name="&lt;Path&gt;" class="cls-1" d="M89.92,139.5v-4.68l-3.28-2s-.42-.2-.62,0-.43-.47-.43-.47-.16-.4-.42-.17a.67.67,0,0,1-.56.17v-.73l-3.08-2v1.5s-.15,0,.22.45a.89.89,0,0,1,.11.94l-.34-.28v2l.67.44,2.17.79.22.72,5.32,3.33Z"/><path id="_Compound_Path_70" data-name="&lt;Compound Path&gt;" class="cls-3" d="M90.17,140l-5.79-3.62-.21-.69-2-.75-.84-.54v-2.69l.41.35a.57.57,0,0,0-.13-.29c-.23-.27-.37-.49-.29-.69h0l0-1.72,3.61,2.17v.6A.46.46,0,0,0,85,132a.47.47,0,0,1,.43-.12.64.64,0,0,1,.39.39,1.68,1.68,0,0,0,.13.29,1,1,0,0,1,.79,0l3.42,2.09ZM84.81,136l4.85,3V135L86.51,133c-.1,0-.27-.07-.31,0a.36.36,0,0,1-.34.1c-.25-.06-.42-.4-.51-.67a.25.25,0,0,0-.05-.08.8.8,0,0,1-.74.24l-.2,0v-.8l-2.57-1.67v1.1a2,2,0,0,0,.16.21,1.15,1.15,0,0,1,.15,1.21l-.14.29-.16-.14v1.32l.55.36,2.24.81Z"/></g><g id="_Group_98" data-name="&lt;Group&gt;"><path id="_Path_118" data-name="&lt;Path&gt;" class="cls-4" d="M98.64,130.48l-2.13,1s-.58.33-.55.6-.75,0-.75,0l-5.29,2.74v4.68l4.69-2.34,1.15-1.25.68.35s.5-.78.8-.64,1.4-.41,1.4-.41V133s-.13.1-.4,0,.4-.83.4-.83Z"/><path id="_Compound_Path_71" data-name="&lt;Compound Path&gt;" class="cls-3" d="M89.92,139.78l-.25-5.12,5.52-2.86.1,0a2.24,2.24,0,0,0,.43.1c.08-.32.48-.58.66-.68l2.51-1.18v2.14l-.07.07a2.58,2.58,0,0,0-.36.47h.05l.41-.3,0,.52v2.37l-.14.07c-.45.23-1.27.58-1.62.42a2.08,2.08,0,0,0-.48.55l-.12.19-.71-.36-1.09,1.17Zm.25-4.81v4.11L94.45,137l1.25-1.36.65.33c.23-.31.62-.71,1-.54a3.09,3.09,0,0,0,1-.34v-1.78a.91.91,0,0,1-.26-.09.36.36,0,0,1-.2-.26c0-.28.24-.66.46-.9v-1.13l-1.77.83a1.14,1.14,0,0,0-.41.36.32.32,0,0,1-.12.29c-.15.13-.44.12-.86,0Z"/></g><g id="_Group_99" data-name="&lt;Group&gt;"><polygon id="_Path_119" data-name="&lt;Path&gt;" class="cls-1" points="97.01 124.83 92.64 122.33 90.03 123.78 87.36 122.33 83.11 124.23 86.75 128.17 89.23 128.73 90.59 129.14 97.01 124.83"/><polygon id="_Path_120" data-name="&lt;Path&gt;" class="cls-2" points="97.12 126.16 92.75 123.66 90.14 125.11 87.47 123.67 83.22 125.57 86.86 129.5 89.33 130.06 90.7 130.48 97.12 126.16"/><path id="_Compound_Path_72" data-name="&lt;Compound Path&gt;" class="cls-3" d="M90.64,129.42,89.15,129l-2.54-.57L83,124,87.37,122,90,123.48,92.64,122l4.37,2.5Zm-3.75-1.48,2.4.54,1.27.38,6-4-3.89-2.23L90,124.06l-2.68-1.45-3.81,1.71Z"/></g><g id="_Group_100" data-name="&lt;Group&gt;"><path id="_Path_121" data-name="&lt;Path&gt;" class="cls-1" d="M89.92,133v-4.68l-1.57-.91s-.5-.65-.7-.45a.25.25,0,0,1-.38,0s-.17-.4-.44-.17-1.11-.59-1.11-.59l.52,0-3.16-2v1.5s.44-.1.28.45c-.07.22-.28,0-.28,0v2.66L89.92,133Z"/><path id="_Compound_Path_73" data-name="&lt;Compound Path&gt;" class="cls-3" d="M89.9,133.31,82.82,129v-3.46h0L83,124l4.14,2.5a.63.63,0,0,1,.34.31.43.43,0,0,1,.3-.1c.29,0,.6.36.75.54l1.65,1Zm-6.57-4.62,6.33,3.88v-4.08l-1.52-.9a1.75,1.75,0,0,0-.38-.37.48.48,0,0,1-.32.11.56.56,0,0,1-.38-.2l0-.06A.28.28,0,0,0,87,127c-.35.35-1-.21-1.42-.58l-.47-.46h.24l-2-1.25v.81a.45.45,0,0,1,.19.12.62.62,0,0,1,.08.63.36.36,0,0,1-.26.27h0Z"/></g><g id="_Group_101" data-name="&lt;Group&gt;"><path id="_Path_122" data-name="&lt;Path&gt;" class="cls-4" d="M96.93,124.83l-2.13,1s-.49.86-.55.6-.7,0-.7,0l-3.64,1.92V133l4.85-2.42s-.12-.43.18-.29,2-.76,2-.76v-1.09s.18-1.38-.09-1.51.09-.49.09-.49Z"/><path id="_Compound_Path_74" data-name="&lt;Compound Path&gt;" class="cls-3" d="M89.9,133.31l-.24-5.12,3.78-2a1,1,0,0,1,.8-.16l.09.05c.08-.11.17-.25.25-.39l0-.07,2.39-1.1.17,2-.07.07-.09.12c.13.1.33.42.16,1.73v1.21l-.13.07a5.76,5.76,0,0,1-2,.8l0,.16Zm.27-4.81v4.11l4.32-2.16a.43.43,0,0,1,.13-.35.38.38,0,0,1,.43,0,7.47,7.47,0,0,0,1.62-.68v-.94a3.77,3.77,0,0,0,0-1.32.34.34,0,0,1-.19-.27.68.68,0,0,1,.18-.5v-1.14L95,126c-.44.75-.61.73-.73.7l-.17,0-.07-.22s-.19.09-.31.16Z"/></g><g id="_Group_102" data-name="&lt;Group&gt;"><polygon id="_Path_123" data-name="&lt;Path&gt;" class="cls-1" points="95.47 119.19 91.11 116.69 90.03 117.35 89.1 116.94 85.14 118.84 88.49 122.78 89.23 122.31 90.6 122.72 95.47 119.19"/><polygon id="_Path_124" data-name="&lt;Path&gt;" class="cls-2" points="95.37 120.34 91 117.84 89.93 118.5 89 118.09 85.04 119.99 88.39 123.92 89.13 123.45 90.5 123.87 95.37 120.34"/><path id="_Compound_Path_75" data-name="&lt;Compound Path&gt;" class="cls-3" d="M88.45,123.1l-3.92-4.4,4.57-2,.91.41,1.09-.67,4.84,2.77L90.64,123l-1.38-.42Zm-3.17-4.18,3.25,3.52.65-.42,1.36.41L95,119.22,91.11,117l-1.06.65-.94-.42Z"/></g><g id="_Group_103" data-name="&lt;Group&gt;"><path id="_Path_125" data-name="&lt;Path&gt;" class="cls-1" d="M89.92,126.6v-4.68l.17.12s-.5-.65-.7-.45a.25.25,0,0,1-.38,0s0-.38-.26-.15-.34-.29-.34-.29l-.45-.29-3.08-1.78-.1,1.28s.12-.13.2,0-.2.43-.2.43v2.66l5.13,3.16Z"/><path id="_Compound_Path_76" data-name="&lt;Compound Path&gt;" class="cls-3" d="M89.92,126.88l-5.38-3.3v-4.88L88.64,121l0,.12v.07a.37.37,0,0,1,.36,0,.38.38,0,0,1,.2.26.42.42,0,0,1,.27-.08c.31,0,.65.41.78.58l1,1.29-1.13-.77ZM85,123.3l4.62,2.85V122l-.16-.12a.44.44,0,0,1-.32.11.56.56,0,0,1-.38-.2l0,0a.37.37,0,0,1-.29,0,.58.58,0,0,1-.31-.43l-.36-.23L85,119.3v.76a.38.38,0,0,1,.17.16.55.55,0,0,1-.17.67Z"/></g><g id="_Group_104" data-name="&lt;Group&gt;"><path id="_Path_126" data-name="&lt;Path&gt;" class="cls-4" d="M95.56,119.45l-2.21.75a.47.47,0,0,1-.43.29,2.84,2.84,0,0,0-.87.31l-2.13,1v4.79L93.23,125s1.16-1,1.46-.85.87-.2.87-.2v-1.09s0,0-.23-.1.23-1.89.23-1.89Z"/><path id="_Compound_Path_77" data-name="&lt;Compound Path&gt;" class="cls-3" d="M89.92,126.88l-.25-5.23,2.27-1.09a3.05,3.05,0,0,1,1-.34c.17,0,.22-.1.22-.1l0-.11,2.81-.84-.14,1.73a7.76,7.76,0,0,0-.3,1.55l.4.32-.08.13v1.16l-.12.07c-.11.07-.7.4-1.1.21a5.1,5.1,0,0,0-1.19.81Zm.25-4.91v4.22l3-1.46c.8-.69,1.38-1,1.68-.85a.88.88,0,0,0,.51-.12V123l-.09,0c-.15-.07-.45-.23.09-2.15v-1.21l-1.77.8a.76.76,0,0,1-.6.35,2.54,2.54,0,0,0-.77.28Z"/></g><g id="_Group_105" data-name="&lt;Group&gt;"><polygon id="_Path_127" data-name="&lt;Path&gt;" class="cls-1" points="90.26 111.82 94.15 114.22 91.18 117.16 89.98 117.35 86.32 114.58 86.32 113.84 90.26 111.82"/><polygon id="_Path_128" data-name="&lt;Path&gt;" class="cls-2" points="90.26 113.37 94.15 115.77 91.18 118.72 89.98 118.9 86.32 116.14 86.32 115.4 90.26 113.37"/><path id="_Compound_Path_78" data-name="&lt;Compound Path&gt;" class="cls-3" d="M89.92,117.62l-3.85-2.91v-1l4.2-2.16,4.17,2.58-3.14,3.3Zm-3.34-3.16,3.47,2.63,1-.16,2.68-2.66-3.49-2.16L86.58,114Z"/></g><g id="_Group_106" data-name="&lt;Group&gt;"><path id="_Path_129" data-name="&lt;Path&gt;" class="cls-4" d="M89.92,120.48v-4.21l.93-.41.76.17.44-.73,2.15-1.09v2.46a1.32,1.32,0,0,1-.43.41c-.25.12,0,.52,0,.52l.46.42v.41Z"/><path id="_Compound_Path_79" data-name="&lt;Compound Path&gt;" class="cls-3" d="M89.82,120.81l-.16-4.7,1.16-.5.66.15.38-.64,2.59-1v2.65l0,.06a1.54,1.54,0,0,1-.53.49.65.65,0,0,1,.06.13l.51.46v.68Zm.35-4.37v3.64l3.77-1.81v-.13l-.43-.41a.84.84,0,0,1-.1-.59.45.45,0,0,1,.24-.28,1,1,0,0,0,.29-.26v-2l-1.72.87-.5.83-.85-.19Z"/></g><g id="_Group_107" data-name="&lt;Group&gt;"><path id="_Path_130" data-name="&lt;Path&gt;" class="cls-1" d="M86.32,118.29l3.48,2.13.11-4.14-1.51-.9s-.48-.33-.64-.11-.41-.7-.41-.7l-1-.72v1.93s.13-.09.19.29a2,2,0,0,1-.07.79l-.12.31Z"/><path id="_Compound_Path_80" data-name="&lt;Compound Path&gt;" class="cls-3" d="M89.82,120.81l-3.75-2.38,0-1.36.12-.31h0a1.74,1.74,0,0,0,.06-.65l-.2.13v-1.53l.2-1.13,1.3.82,0,.09a3.62,3.62,0,0,0,.16.46,1,1,0,0,1,.79.21l1.62,1Zm-3.24-2.67L89.66,120v-3.61l-1.38-.83a.71.71,0,0,0-.35-.15.24.24,0,0,1-.27.1c-.1,0-.3-.05-.53-.82l-.56-.39v1.27a.71.71,0,0,1,.19.42,2.23,2.23,0,0,1-.08.91l-.11.28Z"/></g><g id="_Group_108" data-name="&lt;Group&gt;"><polygon id="_Path_131" data-name="&lt;Path&gt;" class="cls-1" points="91.16 140.77 92.11 140.28 95.44 142.36 91.67 146.75 90.21 144.81 88.86 145.45 85.71 143.55 86.91 142.94 87.22 143.13 88.84 142.36 89.97 142.99 91.14 142.41 91.16 140.77"/><polygon id="_Path_132" data-name="&lt;Path&gt;" class="cls-2" points="91.23 141.69 92.18 141.2 95.51 143.28 91.74 147.67 90.28 145.74 88.92 146.37 85.78 144.48 86.98 143.87 87.29 144.05 88.91 143.28 90.04 143.91 91.21 143.33 91.23 141.69"/><path id="_Compound_Path_81" data-name="&lt;Compound Path&gt;" class="cls-3" d="M91.66,147.15l-1.53-2-1.29.61-3.41-2.33,1.49-.75.32.18,1.62-.76,1.12.62.91-.45,0-1.64,1.21-.62,3.54,2.15Zm-1.37-2.66,1.4,1.85,3.37-3.93-3-1.84-.68.35,0,1.65-1.43.7-1.13-.63-1.62.76-.31-.18-.67.34,2.64,1.59Z"/></g><g id="_Group_109" data-name="&lt;Group&gt;"><polygon id="_Path_133" data-name="&lt;Path&gt;" class="cls-4" points="95.39 146.76 95.39 145.1 95.1 144.44 95.43 142.36 92.89 143.55 91.67 145.45 91.14 144.37 88.85 145.45 88.84 149.94 93.19 147.85 93.78 147.11 94.31 147.3 95.39 146.76"/><path id="_Compound_Path_82" data-name="&lt;Compound Path&gt;" class="cls-3" d="M88.59,150.35v-5.06L91.26,144l.44.89,1-1.58,2.95-1.22-.3,2.26.28.69v1.83l-1.31.65-.47-.16-.56.67Zm.52-4.74v3.93L93,147.64l.66-.83.61.21.84-.41v-1.46l-.3-.68.27-1.68-2,1L91.64,146,91,144.71Z"/></g><g id="_Group_110" data-name="&lt;Group&gt;"><path id="_Path_134" data-name="&lt;Path&gt;" class="cls-1" d="M85.71,143.55l3.15,1.9v4.49s-3.08-1.79-3.13-1.92,0-.48,0-1.08c0-.21.39-.56.39-.79s-.39-.43-.38-.7C85.7,144.46,85.71,143.55,85.71,143.55Z"/><path id="_Compound_Path_83" data-name="&lt;Compound Path&gt;" class="cls-3" d="M89.1,150.38l-.38-.22c-3.15-1.84-3.2-1.94-3.24-2a4.37,4.37,0,0,1,0-1.18,1,1,0,0,1,.23-.52,1.15,1.15,0,0,0,.16-.28s-.07-.12-.13-.18a.78.78,0,0,1-.26-.52c0-1,0-1.9,0-1.9l0-.14,3.68,1.9ZM86,147.9c.29.21,1.47.92,2.64,1.6v-3.91L86,144c0,.36,0,.89,0,1.45,0,0,.07.12.13.18a.77.77,0,0,1,.26.52,1.08,1.08,0,0,1-.25.56,1.22,1.22,0,0,0-.14.24C85.94,147.54,85.95,147.79,86,147.9Z"/></g></g><g id="_Group_111" data-name="&lt;Group&gt;"><polygon id="_Path_135" data-name="&lt;Path&gt;" class="cls-1" points="90.16 139.72 90.17 138.97 91.13 138.51 91.13 139.25 90.16 139.72"/></g><g id="_Group_112" data-name="&lt;Group&gt;"><polygon id="_Path_136" data-name="&lt;Path&gt;" class="cls-1" points="90.05 149.94 90.08 149.25 91.11 148.71 91.08 149.4 90.05 149.94"/></g></g><g id="_Group_113" data-name="&lt;Group&gt;"><polygon id="_Path_137" data-name="&lt;Path&gt;" class="cls-4" points="133.51 101.07 133.31 121.24 171.69 98.49 171.69 78.14 133.51 101.07"/><path id="_Compound_Path_84" data-name="&lt;Compound Path&gt;" class="cls-3" d="M133.26,121.45l.09-20.58.18-.1,38.88-23.23V98.68l-.18.1-38.66,22.85Zm.76-20.19-.12,19.38L171.7,98.3V78.74Z"/></g><g id="_Group_114" data-name="&lt;Group&gt;"><polygon id="_Path_138" data-name="&lt;Path&gt;" class="cls-1" points="169.97 74.02 155.49 65.56 116.36 88.28 130.88 96.55 169.97 74.02"/><polygon id="_Path_139" data-name="&lt;Path&gt;" class="cls-2" points="169.97 76.73 155.49 68.27 116.36 90.99 130.88 99.26 169.97 76.73"/><path id="_Compound_Path_85" data-name="&lt;Compound Path&gt;" class="cls-3" d="M173.06,77.53l-2.86-3.77-14.71-8.59L116,88.09l-.22,23.19,17.45,10.18.65-.81.12-19.38,39.06-22.79ZM133.8,100.61l-2.45-3.94,38.52-22.21L172.49,78ZM117,88.28,155.49,66,169.29,74,130.88,96.16l-10.56-6Zm-.55,22.61.2-22,3.61,2.06,10.33,5.88,2.71,4.36-.12,19.48Z"/></g><g id="_Group_115" data-name="&lt;Group&gt;"><path id="_Compound_Path_86" data-name="&lt;Compound Path&gt;" class="cls-3" d="M166.79,102l-.07-20.46,6.4-4V98.29Z"/></g><path id="_Compound_Path_87" data-name="&lt;Compound Path&gt;" class="cls-1" d="M148,97.6l-2.63-1.39-5.5,3.19v5.22l2.56,1.55L148,103Zm-2.62-.81,1.68.89-4.65,2.68-1.62-.91Zm-4.84,7.44v-4.15l1.52.85v4.22Zm6.78-1.62-4.54,2.56v-4.25l4.55-2.62Z"/><g id="_Group_116" data-name="&lt;Group&gt;"><path id="_Path_140" data-name="&lt;Path&gt;" class="cls-1" d="M163.8,106.27a2.69,2.69,0,0,0-1-2.11h0l-7.63-4.62a.76.76,0,0,0-.2-.05c-.42-.06-.95.66-1,1.17s0,.85.33,1h0l6.34,3.58c.74.44,1,.64,1,1.25,0,0,0,.09,0,.13h0l-.11,10.15a.65.65,0,0,0,0,.08,1,1,0,0,0,1.1.85c.61,0,1.1-.33,1.1-.8a1,1,0,0,0,0-.26Z"/><path id="_Compound_Path_88" data-name="&lt;Compound Path&gt;" class="cls-3" d="M162.59,118a1.33,1.33,0,0,1-1.44-1.19v-.11l.11-10v-.16a.35.35,0,0,1,0-.14c0-.41-.06-.53-.79-1l-6.33-3.57c-.28-.1-.63-.44-.5-1.33.09-.64.73-1.55,1.4-1.46a1.07,1.07,0,0,1,.3.08l7.89,4.63a3.23,3.23,0,0,1,1.4,2.4h0l-.37,10.31c0,.11-.08.23-.08.3C164.14,117.54,163.41,118,162.59,118Zm-.67-11.68h0v.26l-.11,10.15v.08c0,.27.35.51.76.51s.76-.2.76-.46a.74.74,0,0,0,0-.15l0-.11.14-10.36a2.36,2.36,0,0,0-.84-1.81L155,99.84s0,0-.07,0-.58.46-.64.88c0,.25,0,.56.12.62l6.38,3.6C161.52,105.36,161.88,105.65,161.92,106.35Z"/></g><g id="_Group_117" data-name="&lt;Group&gt;"><path id="_Path_141" data-name="&lt;Path&gt;" class="cls-1" d="M167.87,103.56a2.69,2.69,0,0,0-1-2.11h0l-7.63-4.62a.76.76,0,0,0-.2-.05c-.42-.06-.95.66-1,1.17s0,.85.33,1h0l6.34,3.58c.74.44,1,.64,1,1.25,0,0,0,.09,0,.13h0l-.11,10.15a.64.64,0,0,0,0,.08,1,1,0,0,0,1.1.85c.61,0,1.1-.33,1.1-.8a1,1,0,0,0,0-.26Z"/><path id="_Compound_Path_89" data-name="&lt;Compound Path&gt;" class="cls-3" d="M166.66,115.32a1.33,1.33,0,0,1-1.44-1.19V114l.11-10v-.16a.35.35,0,0,1,0-.13c0-.41-.06-.53-.79-1l-6.33-3.57c-.28-.1-.63-.44-.5-1.33.09-.64.73-1.55,1.4-1.46a1.07,1.07,0,0,1,.3.08l7.63,4.63a3,3,0,0,1,1.14,2.4h0L168,113.88a1.68,1.68,0,0,1,0,.3A1.27,1.27,0,0,1,166.66,115.32ZM166,103.64h0v.26l-.11,10.15v.08c0,.27.35.51.76.51s.76-.2.76-.46a.75.75,0,0,0,0-.15l0-.11.14-10.36a2.36,2.36,0,0,0-.84-1.81l-7.63-4.62s0,0-.07,0-.58.46-.64.88c0,.25,0,.56.12.62l6.38,3.6C165.59,102.65,165.95,102.94,166,103.64Z"/></g><g id="_Group_118" data-name="&lt;Group&gt;"><path id="_Compound_Path_90" data-name="&lt;Compound Path&gt;" class="cls-4" d="M206.19,96a.48.48,0,0,0,0-.07.93.93,0,0,0-.57-1,.47.47,0,0,0-.35,0l-20.39,11.56a.46.46,0,0,0-.21.28.8.8,0,0,0,.09.55v7c0,.31.3.53.72.53s.72-.22.72-.53V110l18.52-10.51V103c0,.31.3.53.72.53s.72-.22.72-.53Zm-20,11.43,18.52-10.51v.92l-18.52,10.51Z"/><path id="_Compound_Path_91" data-name="&lt;Compound Path&gt;" class="cls-4" d="M183.75,108.81a.93.93,0,0,0-.57-1,.45.45,0,0,0-.35,0L162.44,119.4a.46.46,0,0,0-.21.28.8.8,0,0,0,.09.55v7c0,.31.3.53.72.53s.72-.22.72-.53v-4.35l18.52-10.51v3.57c0,.31.3.53.72.53s.72-.22.72-.53v-7.07A.48.48,0,0,0,183.75,108.81Zm-20,11.5,18.52-10.51v.92l-18.52,10.51Z"/><path id="_Compound_Path_92" data-name="&lt;Compound Path&gt;" class="cls-4" d="M160.94,122a.76.76,0,0,0-.07-.67c-.2-.36-.55-.52-.82-.37l-20.39,11.56a.46.46,0,0,0-.21.28.8.8,0,0,0,.09.55v7c0,.31.3.53.72.53s.72-.22.72-.53V136l18.52-10.51v3.57c0,.31.3.53.72.53s.72-.22.72-.53Zm-20,11.44,18.52-10.51v.92L141,134.36Z"/></g><g id="_Group_119" data-name="&lt;Group&gt;"><path id="_Path_142" data-name="&lt;Path&gt;" class="cls-4" d="M166.45,53.7a.76.76,0,0,0-.66.84V73.29a.68.68,0,1,0,1.33,0V54.54A.76.76,0,0,0,166.45,53.7Z"/><g id="_Group_120" data-name="&lt;Group&gt;"><path id="_Path_143" data-name="&lt;Path&gt;" class="cls-2" d="M167.44,69.35V57.1s3.55.91,3.55,4v10Z"/><path id="_Compound_Path_93" data-name="&lt;Compound Path&gt;" class="cls-3" d="M170.28,70.31,166,68.21V55.3l.52.11s3.74,1,3.74,4.3Zm-3.55-2.52,2.84,1.4V59.72a3.43,3.43,0,0,0-2.84-3.49Z"/></g></g><g id="_Group_121" data-name="&lt;Group&gt;"><g id="_Group_122" data-name="&lt;Group&gt;"><g id="_Group_123" data-name="&lt;Group&gt;"><path id="_Path_144" data-name="&lt;Path&gt;" class="cls-1" d="M158.6,3.38l-9.6.06L145.8,74.7s0,.26,0,.29v.18h0c.06,2.84,3.74,4.94,8.26,4.94s8.27-2.39,8.27-5.24Z"/><path id="_Compound_Path_94" data-name="&lt;Compound Path&gt;" class="cls-3" d="M154.06,80.44c-4.67,0-8.53-2.43-8.6-5.27h0c0-.71,0-.14,0-.18s0-.24,0-.27l3.21-71.6L158.92,3l0,.32,3.73,71.48C162.67,77.92,158.81,80.44,154.06,80.44Zm-7.93-5.55V75c.06,2.53,3.69,4.68,7.93,4.68S162,77.51,162,74.83L158.28,3.72l-9,.05-3.18,70.94S146.13,74.84,146.13,74.89Z"/></g><g id="_Group_124" data-name="&lt;Group&gt;"><path id="_Path_145" data-name="&lt;Path&gt;" class="cls-1" d="M159.36,19.09,158.6,3.92,149,3.74l-.72,14.53c0,1.91,2.48,3.39,5.54,3.39s5.54-1,5.54-2.9c0-.07,0,.34,0,.34Z"/><path id="_Compound_Path_95" data-name="&lt;Compound Path&gt;" class="cls-3" d="M153.82,22c-3.3,0-5.88-1.64-5.88-3.73l.74-14.91,10.25.12.78,15.15s0,.07,0,.11l0,.39h-.08C159.25,21.22,157,22,153.82,22Zm-4.5-18-.7,14.24c0,1.67,2.33,3,5.2,3s5.07-1,5.2-2.56h0v-.07L158.28,4.1Z"/></g><g id="_Group_125" data-name="&lt;Group&gt;"><ellipse id="_Path_146" data-name="&lt;Path&gt;" class="cls-1" cx="153.82" cy="3.32" rx="4.78" ry="2.99"/><path id="_Compound_Path_96" data-name="&lt;Compound Path&gt;" class="cls-3" d="M153.82,6.65c-2.87,0-5.12-1.46-5.12-3.32S150.95,0,153.82,0s5.12,1.46,5.12,3.32S156.69,6.65,153.82,6.65Zm0-6c-2.45,0-4.44,1.19-4.44,2.65s2,2.65,4.44,2.65,4.44-1.19,4.44-2.65S156.27.68,153.82.68Z"/></g><g id="_Group_126" data-name="&lt;Group&gt;"><ellipse id="_Path_147" data-name="&lt;Path&gt;" class="cls-1" cx="153.82" cy="3.2" rx="3.33" ry="1.97"/><ellipse id="_Path_148" data-name="&lt;Path&gt;" class="cls-2" cx="153.82" cy="3.88" rx="3.33" ry="1.97"/><path id="_Compound_Path_97" data-name="&lt;Compound Path&gt;" class="cls-3" d="M153.82,5.51c-2.06,0-3.67-1-3.67-2.3S151.76.9,153.82.9s3.67,1,3.67,2.3S155.88,5.51,153.82,5.51Zm0-3.93c-1.62,0-3,.75-3,1.63s1.37,1.63,3,1.63,3-.75,3-1.63S155.44,1.57,153.82,1.57Z"/></g></g><polygon id="_Path_149" data-name="&lt;Path&gt;" class="cls-3" points="152.95 1.31 152.95 5.1 151.15 4.39 150.49 3.2 150.82 2.34 151.72 1.68 152.95 1.31"/><polygon id="_Path_150" data-name="&lt;Path&gt;" class="cls-3" points="152.95 6.31 152.95 21.65 155.61 21.5 157.81 20.77 159.36 19.13 158.6 3.94 157.49 5.24 155.44 6.2 152.95 6.31"/><polygon id="_Path_151" data-name="&lt;Path&gt;" class="cls-3" points="152.95 21.65 152.86 80.15 155.21 80.15 158.48 79.37 160.55 78.16 161.94 76.39 162.33 74.92 159.45 19.73 158.94 20 157.3 21.15 155.61 21.5 153.53 21.61 152.95 21.65"/><path id="_Path_152" data-name="&lt;Path&gt;" class="cls-1" d="M159,18.73h0c-.13,1.51-2.23,2.56-5.2,2.56l-.34,0V22l.34,0c2.51,0,4.43-.5,5.32-1.7L159,18.66Z"/></g><g id="_Group_127" data-name="&lt;Group&gt;"><g id="_Group_128" data-name="&lt;Group&gt;"><g id="_Group_129" data-name="&lt;Group&gt;"><g id="_Group_130" data-name="&lt;Group&gt;"><path id="_Path_153" data-name="&lt;Path&gt;" class="cls-1" d="M138.27,14.9l-9.6.06-3.2,71.26s0,.53,0,.57v.45h0c.06,2.13,3.74,4.66,8.26,4.66S142,89.37,142,86.52Z"/><path id="_Compound_Path_98" data-name="&lt;Compound Path&gt;" class="cls-3" d="M133.73,92.23c-4.67,0-8.53-2.87-8.6-5h0c0-.71,0-.41,0-.46s0-.37,0-.41l3.21-71.67,10.25-.1,0,.3,3.73,71.61C142.34,89.59,138.48,92.23,133.73,92.23Zm-7.93-5.82v.13c.06,2.54,3.69,4.68,7.93,4.68s7.93-2.18,7.93-4.87L138,15.24l-9,.05-3.18,70.94S125.81,86.36,125.8,86.41Z"/></g><g id="_Group_131" data-name="&lt;Group&gt;"><path id="_Path_154" data-name="&lt;Path&gt;" class="cls-1" d="M139,30.45l-.76-15.09-9.6-.15L128,29.76c0,1.91,2.48,3.4,5.54,3.4s5.54-1.06,5.54-3c0-.07,0,.27,0,.27Z"/><path id="_Compound_Path_99" data-name="&lt;Compound Path&gt;" class="cls-3" d="M133.49,33.39c-3.3,0-5.88-1.59-5.88-3.69l.74-14.89,10.25.13.78,15.16s0,0,0,0l0,.32h-.08C138.93,32.58,136.68,33.39,133.49,33.39ZM129,15.52l-.7,14.24c0,1.67,2.33,3,5.2,3s5.07-1,5.2-2.56h0v-.07l-.74-14.55Z"/></g><g id="_Group_132" data-name="&lt;Group&gt;"><ellipse id="_Path_155" data-name="&lt;Path&gt;" class="cls-1" cx="133.49" cy="14.84" rx="4.78" ry="2.99"/><path id="_Compound_Path_100" data-name="&lt;Compound Path&gt;" class="cls-3" d="M133.49,18.17c-2.87,0-5.12-1.46-5.12-3.32s2.25-3.32,5.12-3.32,5.12,1.46,5.12,3.32S136.36,18.17,133.49,18.17Zm0-6c-2.45,0-4.44,1.19-4.44,2.65s2,2.65,4.44,2.65,4.44-1.19,4.44-2.65S135.94,12.2,133.49,12.2Z"/></g><g id="_Group_133" data-name="&lt;Group&gt;"><ellipse id="_Path_156" data-name="&lt;Path&gt;" class="cls-1" cx="133.49" cy="14.72" rx="3.33" ry="1.97"/><ellipse id="_Path_157" data-name="&lt;Path&gt;" class="cls-2" cx="133.49" cy="15.4" rx="3.33" ry="1.97"/><path id="_Compound_Path_101" data-name="&lt;Compound Path&gt;" class="cls-3" d="M133.49,17c-2.06,0-3.67-1-3.67-2.3s1.61-2.3,3.67-2.3,3.67,1,3.67,2.3S135.55,17,133.49,17Zm0-3.93c-1.62,0-3,.75-3,1.63s1.37,1.63,3,1.63,3-.75,3-1.63S135.11,13.09,133.49,13.09Z"/></g></g><polygon id="_Path_158" data-name="&lt;Path&gt;" class="cls-3" points="132.62 12.82 132.62 16.62 130.82 15.91 130.16 14.72 130.5 13.86 131.39 13.2 132.62 12.82"/><polygon id="_Path_159" data-name="&lt;Path&gt;" class="cls-3" points="132.62 17.83 132.62 33.17 135.28 33.02 137.48 32.28 139.03 30.65 138.27 15.46 137.16 16.76 135.11 17.72 132.62 17.83"/><polygon id="_Path_160" data-name="&lt;Path&gt;" class="cls-3" points="132.62 33.17 132.53 91.67 134.89 91.67 138.15 90.89 140.22 89.68 141.61 87.92 142 86.43 139.13 31.25 138.61 31.52 136.97 32.66 135.28 33.02 133.2 33.13 132.62 33.17"/><path id="_Path_161" data-name="&lt;Path&gt;" class="cls-1" d="M138.69,30.25h0c-.13,1.51-2.23,2.56-5.2,2.56l-.34,0v.68l.34,0c2.51,0,4.43-.5,5.32-1.7l-.13-1.61Z"/></g><g id="_Group_134" data-name="&lt;Group&gt;"><polygon id="_Path_162" data-name="&lt;Path&gt;" class="cls-1" points="139.62 47.91 138.96 34.94 139.64 34.6 140.34 47.5 139.62 47.91"/></g></g><g id="_Group_135" data-name="&lt;Group&gt;"><g id="_Group_136" data-name="&lt;Group&gt;"><polygon id="_Path_163" data-name="&lt;Path&gt;" class="cls-1" points="104.62 121.24 104.93 112.34 116.26 118.74 116.33 127.55 104.62 121.24"/><polygon id="_Path_164" data-name="&lt;Path&gt;" class="cls-5" points="116.26 118.74 126.98 112.34 126.98 121.23 116.32 127.55 116.26 118.74"/><g id="_Group_137" data-name="&lt;Group&gt;"><polygon id="_Path_165" data-name="&lt;Path&gt;" class="cls-1" points="104.93 112.34 116.19 105.72 127.44 112.34 116.41 118.74 104.93 112.34"/><polygon id="_Path_166" data-name="&lt;Path&gt;" class="cls-2" points="104.93 113.69 116.19 107.07 126.32 113.03 116.49 118.6 116.41 120.1 104.93 113.69"/><path id="_Compound_Path_102" data-name="&lt;Compound Path&gt;" class="cls-3" d="M127.66,112.07l-11.47-6.74-11.57,6.8v9.31l12,6.5,11.07-6.5Zm-11.47-6,10.53,6.19-9.45,5.56-.84.49-10.79-6ZM105.3,121v-8.11l10.8,6,.13,8ZM116.92,127l-.15-8,.86-.51L127,113v8Z"/></g><g id="_Group_138" data-name="&lt;Group&gt;"><g id="_Group_139" data-name="&lt;Group&gt;"><path id="_Path_167" data-name="&lt;Path&gt;" class="cls-1" d="M116.89,111.56c.9.1,1.25.5,1.25,1,0,.07,0,0,0,.07l2.7,1.31a2.2,2.2,0,0,0,.42-1.26c0-1.67-2.07-3-4.7-3.16Z"/><path id="_Compound_Path_103" data-name="&lt;Compound Path&gt;" class="cls-3" d="M121,113.73l-3-1.47-.15,0v0l0,0,.09-.24c0-.16,0-.59-.95-.7l-.25,0-.43-2.67.42,0c2.86.13,5,1.64,5,3.5a2.52,2.52,0,0,1-.48,1.46Zm-2.48-2,2.24,1.09a1.76,1.76,0,0,0,.21-.83c0-1.38-1.71-2.56-4-2.79l.21,1.34C118.18,110.78,118.43,111.35,118.48,111.77Z"/></g><g id="_Group_140" data-name="&lt;Group&gt;"><path id="_Path_168" data-name="&lt;Path&gt;" class="cls-1" d="M117.36,113.49a1.89,1.89,0,0,1-1.17.22,2.12,2.12,0,0,1-1.16-.22l-2.81,1.2a6.54,6.54,0,0,0,4,1.2,6.36,6.36,0,0,0,4.16-1.35Z"/><path id="_Compound_Path_104" data-name="&lt;Compound Path&gt;" class="cls-3" d="M116.19,115.55a6.88,6.88,0,0,1-4.18-1.27l-.45-.35,3.49-1.49.14.08a1.81,1.81,0,0,0,1,.18,1.6,1.6,0,0,0,1-.17l.14-.08,3.68,1.29-.43.38A6.74,6.74,0,0,1,116.19,115.55Zm-3.27-1.47a6.62,6.62,0,0,0,3.27.79,6.52,6.52,0,0,0,3.45-.9l-2.25-.79a2.4,2.4,0,0,1-1.2.19,2.59,2.59,0,0,1-1.17-.19Z"/></g><g id="_Group_141" data-name="&lt;Group&gt;"><path id="_Path_169" data-name="&lt;Path&gt;" class="cls-1" d="M114.23,112.6c0-.08,0,.09,0,0a1.3,1.3,0,0,1,1.27-1.28l.31-1.77c-2.63.12-4.7,1.49-4.7,3.16a2.27,2.27,0,0,0,.56,1.44Z"/><path id="_Compound_Path_105" data-name="&lt;Compound Path&gt;" class="cls-3" d="M111.59,113.92l-.19-.23a2.61,2.61,0,0,1-.63-1.65c0-1.86,2.16-3.37,5-3.5l.42,0-.43,2.44-.25,0a1,1,0,0,0-1,.88l.26.2.09.05v.12l-.45.05Zm3.81-4.67c-2.25.23-4,1.41-4,2.79a1.81,1.81,0,0,0,.31,1l2.08-1.26.08-.11a1.63,1.63,0,0,1,1.29-1.3Z"/></g></g><g id="_Group_142" data-name="&lt;Group&gt;"><path id="_Path_170" data-name="&lt;Path&gt;" class="cls-1" d="M118.16,111.92c0,.61-.88,1.11-2,1.11s-2-.5-2-1.11c0-.45.52-1.61,1.19-1.78.25-.06.48.67.77.67s.5-.75.76-.68C117.61,110.32,118.16,111.48,118.16,111.92Z"/><path id="_Compound_Path_106" data-name="&lt;Compound Path&gt;" class="cls-3" d="M116.2,113.37c-1.29,0-2.3-.64-2.3-1.45,0-.51.56-1.88,1.44-2.11.35-.09.57.22.73.45l.12.16.12-.16c.15-.22.36-.55.73-.45a2.66,2.66,0,0,1,1.45,2.11C118.5,112.73,117.49,113.37,116.2,113.37Zm-.78-2.86a2.19,2.19,0,0,0-.84,1.42c0,.36.69.77,1.62.77s1.62-.41,1.62-.77a2.28,2.28,0,0,0-.85-1.42l-.09.13c-.15.23-.34.51-.68.51s-.52-.28-.68-.5Z"/></g><g id="_Group_143" data-name="&lt;Group&gt;"><ellipse id="_Path_171" data-name="&lt;Path&gt;" class="cls-2" cx="116.2" cy="110.78" rx="1.36" ry="0.77"/><path id="_Compound_Path_107" data-name="&lt;Compound Path&gt;" class="cls-3" d="M116.2,111.89c-1,0-1.7-.48-1.7-1.11s.73-1.11,1.7-1.11,1.7.48,1.7,1.11S117.17,111.89,116.2,111.89Zm0-1.54c-.63,0-1,.28-1,.43s.41.43,1,.43,1-.26,1-.43S116.83,110.35,116.2,110.35Z"/></g></g><polygon id="_Path_172" data-name="&lt;Path&gt;" class="cls-3" points="115.97 111.48 115.97 113.03 117.36 112.81 118.15 111.99 117.7 110.78 117.06 111.37 115.97 111.48"/></g><g id="_Group_144" data-name="&lt;Group&gt;"><path id="_Path_173" data-name="&lt;Path&gt;" class="cls-1" d="M110.24,121a2.53,2.53,0,0,0-.95-2h0l-7.2-4.35a.72.72,0,0,0-.19,0c-.39-.06-.89.62-1,1.1s0,.8.32.93h0l6,3.37c.7.41.91.61.91,1.18,0,0,0,.09,0,.13h0l-.1,4.92a.61.61,0,0,0,0,.07.94.94,0,0,0,1,.8c.57,0,1-.31,1-.76a1,1,0,0,0,0-.24Z"/><path id="_Compound_Path_108" data-name="&lt;Compound Path&gt;" class="cls-3" d="M109.1,127.41a1.28,1.28,0,0,1-1.38-1.14v-.11l.1-4.76v-.13a.32.32,0,0,1,0-.13c0-.38-.06-.49-.74-.89l-6-3.37c-.26-.1-.6-.42-.49-1.27.09-.61.69-1.49,1.34-1.39a1,1,0,0,1,.29.08l7.26,4.37a2.88,2.88,0,0,1,1.15,2.28h0l-.17,5.07a1.19,1.19,0,0,1,0,.28A1.25,1.25,0,0,1,109.1,127.41Zm-.62-6.43h0v.3l-.1,4.92v.07c0,.25.32.46.7.46s.7-.18.7-.42a.71.71,0,0,0,0-.14l0-.11.14-5.12a1.94,1.94,0,0,0-.78-1.57s-7.21-4.46-7.26-4.46h0a1.15,1.15,0,0,0-.58.8c0,.23,0,.5.1.56l6,3.39C108.09,120.07,108.43,120.34,108.48,121Z"/></g><g id="_Group_145" data-name="&lt;Group&gt;"><rect id="_Path_174" data-name="&lt;Path&gt;" class="cls-1" x="81.35" y="139.29" width="133.15" height="0.68" transform="translate(-49.68 91.37) rotate(-29.62)"/></g></g></g></g></svg>