<svg xmlns="http://www.w3.org/2000/svg" viewBox="0 0 158.18 172.31"><defs><style>.cls-1{fill:#fff;}.cls-2{fill:#16110d;}.cls-3{fill:#f2f2f0;}</style></defs><title>funnel_icon</title><g id="Layer_2" data-name="Layer 2"><g id="content"><g id="_6" data-name="6"><g id="_Group_" data-name="&lt;Group&gt;"><path id="_Path_" data-name="&lt;Path&gt;" class="cls-1" d="M90.71,127.54a4.88,4.88,0,0,0,.34-.71l1.93-4H90.51a8,8,0,0,0-2.69-2.38c-4.69-2.71-12.3-2.71-17,0a8,8,0,0,0-2.69,2.38H65.67l1.93,4a4.89,4.89,0,0,0,.34.72h0a7.72,7.72,0,0,0,2.89,2.68c4.69,2.71,12.3,2.71,17,0a7.72,7.72,0,0,0,2.89-2.68h0Z"/><path id="_Compound_Path_" data-name="&lt;Compound Path&gt;" class="cls-2" d="M79.33,132.53a17.65,17.65,0,0,1-8.63-2.06,8,8,0,0,1-3-2.78,5.19,5.19,0,0,1-.37-.76l-2.11-4.4H68a8.42,8.42,0,0,1,2.7-2.34c4.76-2.75,12.5-2.75,17.26,0a8.42,8.42,0,0,1,2.7,2.34h2.76l-2.12,4.42a5.07,5.07,0,0,1-.34.72l-.1.16a8.08,8.08,0,0,1-2.9,2.64A17.66,17.66,0,0,1,79.33,132.53Zm-13.22-9.46,1.74,3.63a4.81,4.81,0,0,0,.33.7A7.43,7.43,0,0,0,71,130c4.61,2.66,12.11,2.66,16.71,0a7.42,7.42,0,0,0,2.79-2.58l0,0a4.67,4.67,0,0,0,.31-.64l1.75-3.65H90.37l-.08-.12a7.75,7.75,0,0,0-2.6-2.29C83.08,118,75.58,118,71,120.66a7.75,7.75,0,0,0-2.6,2.29l-.08.12Z"/></g><path id="_Path_2" data-name="&lt;Path&gt;" class="cls-2" d="M90.71,127.55h0a4.88,4.88,0,0,0,.34-.71l1.93-4H90.51a8,8,0,0,0-2.69-2.38,15,15,0,0,0-4.43-1.62l-6.72,10.1s.59,2.43-3.73,2.29c4.64,1.68,10.84,1.37,14.88-1A7.72,7.72,0,0,0,90.71,127.55Z"/><path id="_Path_3" data-name="&lt;Path&gt;" class="cls-3" d="M68.73,126.32l1.89,2.49a5.35,5.35,0,0,0,2.83,1.92h0a1.33,1.33,0,0,0,1.64-1.65l0-.12Z"/><g id="_Group_2" data-name="&lt;Group&gt;"><path id="_Path_4" data-name="&lt;Path&gt;" class="cls-1" d="M128.81,73.57,31.22,73.5l34.86,50.13a9.1,9.1,0,0,0,3.33,3.05c5.48,3.16,14.35,3.16,19.83,0a9.1,9.1,0,0,0,3.33-3.05Z"/><path id="_Compound_Path_2" data-name="&lt;Compound Path&gt;" class="cls-2" d="M79.33,129.46A20.7,20.7,0,0,1,69.2,127a9.47,9.47,0,0,1-3.47-3.2L30.43,73.08l99.18.07L92.9,123.87A9.43,9.43,0,0,1,89.45,127,20.69,20.69,0,0,1,79.33,129.46ZM32,73.91,66.43,123.4a8.69,8.69,0,0,0,3.19,2.93c5.35,3.09,14.06,3.09,19.42,0a8.67,8.67,0,0,0,3.18-2.91L128,74Z"/><path id="_Path_5" data-name="&lt;Path&gt;" class="cls-3" d="M48.13,86.55l22.29,34a12.8,12.8,0,0,0,9,6.19h0c3.54.62,6.78-2,6.61-5.31V91.82Z"/></g><path id="_Path_6" data-name="&lt;Path&gt;" class="cls-2" d="M128.57,73.67H109.66L84.81,91.56l-1.75,28.15c-.37,2.8-1.72,9.1-6.38,9.19a24.21,24.21,0,0,0,5.81-.06v.06a20.84,20.84,0,0,0,3.81-.91l.46-.16h0a15.59,15.59,0,0,0,2.52-1.15,9.1,9.1,0,0,0,3.33-3.05l.47-.65,0-.27Z"/><g id="_Group_3" data-name="&lt;Group&gt;"><path id="_Path_7" data-name="&lt;Path&gt;" class="cls-1" d="M129.76,50.73h0v0q-.29-.44-.6-.88l-3.67-5.41h-1.32a43.09,43.09,0,0,0-6.6-4.63c-20.72-12-54.33-12-75.05,0a43.09,43.09,0,0,0-6.6,4.63H34.2l-4,6.58h0c-6.8,10.83-2.68,23.44,12.37,32.12,20.72,12,54.33,12,75.05,0C132.74,74.37,136.8,61.63,129.76,50.73Z"/><path id="_Compound_Path_3" data-name="&lt;Compound Path&gt;" class="cls-2" d="M80,92.49c-13.66,0-27.33-3-37.73-9C34,78.71,28.78,72.64,27.11,65.94A19.27,19.27,0,0,1,29.8,50.79L34,44h1.8a43.79,43.79,0,0,1,6.54-4.58c20.81-12,54.66-12,75.46,0A43.76,43.76,0,0,1,124.32,44h1.39l3.79,5.59c.21.29.41.59.6.89v0A19.35,19.35,0,0,1,133,65.81c-1.63,6.75-6.89,12.86-15.23,17.67C107.37,89.49,93.71,92.49,80,92.49ZM34.43,44.85,30.5,51.22a18.47,18.47,0,0,0-2.58,14.52c1.61,6.48,6.73,12.37,14.81,17C53,88.71,66.53,91.68,80,91.68s27-3,37.32-8.91c8.13-4.69,13.26-10.63,14.84-17.15A18.54,18.54,0,0,0,129.41,51v0c-.18-.28-.38-.57-.58-.86l-3.55-5.23H124l-.12-.1a42.84,42.84,0,0,0-6.53-4.59c-20.58-11.88-54.06-11.88-74.64,0a42.83,42.83,0,0,0-6.53,4.59l-.12.1Z"/></g><path id="_Path_8" data-name="&lt;Path&gt;" class="cls-3" d="M91.6,82.53c-2.14-5.78,5.46-14.78,5.46-14.78L37.91,56.53,31.7,59.83h0a15.6,15.6,0,0,0,.36,13.37l1.61,3.17a40,40,0,0,0,8.85,6.76c16.9,9.76,42.35,11.55,62.41,5.4l1.43-2.88S93.74,88.31,91.6,82.53Z"/><path id="_Path_9" data-name="&lt;Path&gt;" class="cls-1" d="M132.92,59.07c0,7.85-5.17,15.7-15.54,21.69-20.72,12-54.33,12-75.05,0C33,75.38,27.89,68.49,27,61.46c0,7.84,5.17,15.69,15.54,21.67,20.72,12,54.33,12,75.05,0C129,76.54,134.08,67.69,132.92,59.07Z"/><path id="_Path_10" data-name="&lt;Path&gt;" class="cls-3" d="M116.33,83.73c-.62.25-4.37,1.67-6.67.67-19.45,7.69-45.8,7.07-64.13-1.88h0s0,0,0,.08a3.61,3.61,0,0,0,2.17,3.21C68.12,94.85,97.27,94.14,116.33,83.73Z"/><path id="_Compound_Path_4" data-name="&lt;Compound Path&gt;" class="cls-2" d="M80,92.36c-13.64,0-27.28-3-37.66-9C32.24,77.53,26.67,69.75,26.68,61.46l.55,0c1,7.19,6.37,14,15.24,19.1,20.61,11.9,54.16,11.9,74.77,0,9.94-5.74,15.41-13.36,15.4-21.45l.55,0c1.22,9.06-4.43,17.93-15.51,24.33C107.29,89.36,93.65,92.36,80,92.36ZM27.72,65.63c1.55,6.5,6.71,12.52,14.91,17.26,20.62,11.9,54.16,11.9,74.77,0,9.14-5.28,14.52-12.24,15.3-19.56C131.14,70,125.89,76.17,117.52,81,96.75,93,63,93,42.19,81,34.88,76.78,29.87,71.43,27.72,65.63Z"/><path id="_Path_11" data-name="&lt;Path&gt;" class="cls-2" d="M125.47,74.44c3.59-2.39,5.3-6.36,6.81-10.6,1.61-4.53,0-9.28-2.87-13.78h0v0q-.29-.44-.6-.88l-3.67-5.41h-1.32a43.09,43.09,0,0,0-6.6-4.63c-.58-.33-1.17-.66-1.77-1v21L104.72,78.23s8,3.87,17.74-1.89C123.43,75.77,124.44,75.13,125.47,74.44Z"/><g id="_Group_4" data-name="&lt;Group&gt;"><path id="_Path_12" data-name="&lt;Path&gt;" class="cls-3" d="M114.47,34.69c19.12,11,19.12,28.94,0,40s-50.12,11-69.25,0-19.12-28.94,0-40S95.34,23.65,114.47,34.69Z"/><path id="_Compound_Path_5" data-name="&lt;Compound Path&gt;" class="cls-2" d="M79.84,83.34C67.23,83.34,54.62,80.57,45,75c-9.38-5.42-14.55-12.64-14.55-20.35S35.63,39.75,45,34.33c19.21-11.09,50.45-11.09,69.66,0,9.38,5.42,14.55,12.64,14.55,20.35S124.05,69.61,114.67,75C105.07,80.57,92.46,83.34,79.84,83.34Zm0-56.51c-12.46,0-24.93,2.74-34.42,8.22-9.11,5.26-14.13,12.23-14.13,19.63s5,14.37,14.13,19.63c19,11,49.85,11,68.83,0,9.11-5.26,14.13-12.23,14.13-19.63s-5-14.37-14.13-19.63C104.77,29.57,92.31,26.83,79.84,26.83Z"/></g><g id="_Group_5" data-name="&lt;Group&gt;"><path id="_Path_13" data-name="&lt;Path&gt;" class="cls-1" d="M109.39,34.37c22.25,11,22.25,29,0,40-17,8.38-42.11,8.38-59.09,0-22.25-11-22.25-29,0-40C67.28,26,92.41,26,109.39,34.37Z"/><path id="_Compound_Path_6" data-name="&lt;Compound Path&gt;" class="cls-2" d="M79.84,81c-10.54,0-21.07-2.12-29.67-6.36C39.32,69.26,33.33,62.07,33.33,54.37s6-14.89,16.84-20.25c17.19-8.48,42.14-8.48,59.33,0,10.86,5.36,16.84,12.55,16.84,20.25s-6,14.89-16.84,20.25C100.91,78.86,90.38,81,79.84,81Zm0-52.57c-10.52,0-21,2.07-29.42,6.21C39.76,39.88,33.88,46.89,33.88,54.37s5.87,14.49,16.54,19.75c16.77,8.28,42.07,8.28,58.84,0,10.66-5.26,16.54-12.28,16.54-19.75s-5.87-14.49-16.54-19.75C100.88,30.48,90.36,28.41,79.84,28.41Z"/></g><path id="_Path_14" data-name="&lt;Path&gt;" class="cls-2" d="M100.61,31.13c-16.1-4.79-36.11-3.66-50.37,3.38-22.25,11-22.25,29,0,40a64.38,64.38,0,0,0,22.42,6c-.15-.18-9.44-26.87,6-41.61A28.21,28.21,0,0,1,100.61,31.13Z"/><path id="_Path_15" data-name="&lt;Path&gt;" class="cls-2" d="M42.52,83.32c1.24.72,2.53,1.39,3.86,2a9.86,9.86,0,0,1-.82-2.61v-.08c-1.1-.54-2.18-1.1-3.21-1.7C33,75.57,27.91,68.69,27,61.65,27,69.5,32.15,77.34,42.52,83.32Z"/><path id="_Path_16" data-name="&lt;Path&gt;" class="cls-1" d="M91.9,125.77l.77-1.54a29.72,29.72,0,0,1-5.32,3c-3.54,1.53-9.1,1.36-9.16,1.36l-1.51.69a12.05,12.05,0,0,0,1.29.14c1.88,0,6.7-.14,9.7-1.43A29.71,29.71,0,0,0,91.9,125.77Z"/></g><g id="_5" data-name="5"><g id="_2" data-name="2"><path id="_Compound_Path_7" data-name="&lt;Compound Path&gt;" class="cls-1" d="M157.08,34.31l-7.47,8.12-10.2-2.28L146.89,32ZM149,40l3.95-4.29-5.39-1.21-3.95,4.29Z"/><path id="_Compound_Path_8" data-name="&lt;Compound Path&gt;" class="cls-3" d="M157.38,35.35l-7.47,8.12-10.2-2.28,7.47-8.12ZM149.27,41l3.95-4.29-5.39-1.21-3.95,4.29Z"/><polygon id="_Path_17" data-name="&lt;Path&gt;" class="cls-1" points="139.41 40.15 140.2 42.68 150.39 44.97 149.61 42.43 139.41 40.15"/><polygon id="_Path_18" data-name="&lt;Path&gt;" class="cls-2" points="157.08 34.31 157.87 36.84 150.39 44.97 149.61 42.43 157.08 34.31"/><polygon id="_Path_19" data-name="&lt;Path&gt;" class="cls-1" points="147.53 34.48 148.31 37.02 151.12 37.64 152.92 35.69 147.53 34.48"/><g id="_Group_6" data-name="&lt;Group&gt;"><polygon id="_Path_20" data-name="&lt;Path&gt;" class="cls-2" points="143.58 38.77 147.53 34.48 148.31 37.02 146.16 39.35 143.58 38.77"/><g id="_Group_7" data-name="&lt;Group&gt;"><path id="_Compound_Path_9" data-name="&lt;Compound Path&gt;" class="cls-2" d="M153.44,35.52l-5.7-1.28h0l-.31-.07-.22.23h0l-4.16,4.53,6,1.35ZM151,37.34l-2.5-.56-.59-1.93,4.46,1Zm-6.92,1.27,3.3-3.59.59,1.92L146.07,39Zm2.58.58,1.72-1.87,2.19.49-1.72,1.87Z"/><path id="_Compound_Path_10" data-name="&lt;Compound Path&gt;" class="cls-2" d="M150.7,45l7.47-8.12-.78-2.53h0l-.09-.3L157,34h0l-10.2-2.28-7.47,8.12h0l-.22.23.09.3h0l.78,2.53,10.2,2.28h0l.31.07.22-.23ZM157,34.85l.59,1.92-7,7.65-.59-1.92,2.76-3Zm-17,5.13,7-7.65,9.58,2.14-4.3,4.67-2.74,3-8.45-1.89Zm.47,2.46-.59-1.92,4.7,1.05,4.88,1.09.59,1.93Z"/></g></g></g><g id="_Group_8" data-name="&lt;Group&gt;"><g id="_5-2" data-name="5"><path id="_Path_21" data-name="&lt;Path&gt;" class="cls-2" d="M150.09,11.48l-.34-.69L148.63,9l.84-1.62a2.16,2.16,0,0,0,.12-2.15L148.19,3l-4.58,3.64-5.11.23A5.93,5.93,0,0,0,134,9.84l-3.93,7.55-6.31,5,1.28,2a1.41,1.41,0,0,0,.13.2l.11.17h0a2,2,0,0,0,1.47.52H127l10.51-.47a5.93,5.93,0,0,0,4.47-2.95l3.6-6.92,4.51-.2.05-.19A6,6,0,0,0,150.09,11.48Z"/><g id="_Group_9" data-name="&lt;Group&gt;"><path id="_Path_22" data-name="&lt;Path&gt;" class="cls-3" d="M131.8,6l-7.54,14.5c-.77,1.48-.11,2.62,1.46,2.55l10.51-.47a5.62,5.62,0,0,0,4.24-2.8l3.67-7.07,4.47-.2s1.13-4.07-2-4.55L148,5.33c.77-1.48.11-2.62-1.46-2.55L136,3.25A5.62,5.62,0,0,0,131.8,6Z"/><path id="_Compound_Path_11" data-name="&lt;Compound Path&gt;" class="cls-2" d="M125.59,23.37a1.88,1.88,0,0,1-1.68-.77,2.15,2.15,0,0,1,.11-2.18l7.54-14.5A5.93,5.93,0,0,1,136,3l10.51-.47a1.94,1.94,0,0,1,1.82.77,2.15,2.15,0,0,1-.11,2.18L147,7.82a2.54,2.54,0,0,1,1.54,1.09,5.28,5.28,0,0,1,.31,3.73l-.05.19-4.51.2L140.71,20a5.93,5.93,0,0,1-4.47,2.95l-10.51.47ZM132,6.17l-7.54,14.5a1.66,1.66,0,0,0-.13,1.63,1.42,1.42,0,0,0,1.33.52l10.51-.47a5.32,5.32,0,0,0,4-2.65L144,12.49l4.42-.2a4.52,4.52,0,0,0-.29-3.09,2.11,2.11,0,0,0-1.53-.92l-.38-.06,1.57-3a1.66,1.66,0,0,0,.13-1.63,1.43,1.43,0,0,0-1.33-.52l-10.51.47a5.32,5.32,0,0,0-4,2.65Z"/></g><g id="_Group_10" data-name="&lt;Group&gt;"><g id="_Group_11" data-name="&lt;Group&gt;"><path id="_Path_23" data-name="&lt;Path&gt;" class="cls-2" d="M135,16.79c1.13,0,1.59.77,1,1.82a4,4,0,0,1-3,2c-1.13,0-1.59-.77-1-1.82A4,4,0,0,1,135,16.79Z"/><path id="_Compound_Path_12" data-name="&lt;Compound Path&gt;" class="cls-2" d="M132.28,20a1.42,1.42,0,0,1-1.27-.59,1.61,1.61,0,0,1,.07-1.64,4.27,4.27,0,0,1,3.27-2.15,1.47,1.47,0,0,1,1.37.59,1.61,1.61,0,0,1-.07,1.64A4.27,4.27,0,0,1,132.39,20Zm2.18-3.83h-.09a3.72,3.72,0,0,0-2.8,1.86,1.12,1.12,0,0,0-.1,1.09,1,1,0,0,0,.89.33,3.72,3.72,0,0,0,2.8-1.86,1.12,1.12,0,0,0,.1-1.09A.9.9,0,0,0,134.46,16.18Z"/></g><g id="_Group_12" data-name="&lt;Group&gt;"><path id="_Path_24" data-name="&lt;Path&gt;" class="cls-2" d="M137.65,11.72c1.13,0,1.59.77,1,1.82a4,4,0,0,1-3,2c-1.13,0-1.59-.77-1-1.82A4,4,0,0,1,137.65,11.72Z"/><path id="_Compound_Path_13" data-name="&lt;Compound Path&gt;" class="cls-2" d="M134.92,14.93a1.42,1.42,0,0,1-1.27-.59,1.61,1.61,0,0,1,.07-1.64A4.27,4.27,0,0,1,137,10.55a1.46,1.46,0,0,1,1.37.59,1.61,1.61,0,0,1-.07,1.64A4.27,4.27,0,0,1,135,14.93Zm2.18-3.83H137a3.72,3.72,0,0,0-2.8,1.86,1.12,1.12,0,0,0-.1,1.09,1,1,0,0,0,.89.33,3.78,3.78,0,0,0,2.8-1.86,1.12,1.12,0,0,0,.1-1.09A.9.9,0,0,0,137.1,11.1Z"/></g><g id="_Group_13" data-name="&lt;Group&gt;"><path id="_Path_25" data-name="&lt;Path&gt;" class="cls-2" d="M140.29,6.64c1.13,0,1.59.77,1,1.82a4,4,0,0,1-3,2c-1.13,0-1.59-.77-1-1.82A4,4,0,0,1,140.29,6.64Z"/><path id="_Compound_Path_14" data-name="&lt;Compound Path&gt;" class="cls-2" d="M137.56,9.85a1.42,1.42,0,0,1-1.27-.59,1.61,1.61,0,0,1,.07-1.64,4.27,4.27,0,0,1,3.27-2.15h0a1.46,1.46,0,0,1,1.38.59,1.61,1.61,0,0,1-.07,1.64,4.27,4.27,0,0,1-3.27,2.15ZM139.66,6a3.78,3.78,0,0,0-2.8,1.86,1.12,1.12,0,0,0-.1,1.09,1,1,0,0,0,.89.33,3.78,3.78,0,0,0,2.8-1.86,1.12,1.12,0,0,0,.1-1.09,1,1,0,0,0-.89-.33Z"/></g></g><g id="_Group_14" data-name="&lt;Group&gt;"><polygon id="_Path_26" data-name="&lt;Path&gt;" class="cls-1" points="144.14 12.76 145.36 14.69 149.83 14.49 148.61 12.56 144.14 12.76"/><path id="_Compound_Path_15" data-name="&lt;Compound Path&gt;" class="cls-2" d="M145.21,15l-1.33-2.11a.25.25,0,0,1,.2-.38l4.68-.21,1.12,1.77a.48.48,0,0,1-.38.73Zm-.59-2,.88,1.39,3.84-.17-.88-1.39Z"/></g></g><path id="_Path_27" data-name="&lt;Path&gt;" class="cls-1" d="M135.64,17.84a2.18,2.18,0,0,0,.25-.83,1.2,1.2,0,0,0-.55-.21,1.43,1.43,0,0,1-.19.79,3.72,3.72,0,0,1-2.8,1.86,1.31,1.31,0,0,1-.58-.09,1.18,1.18,0,0,0,0,.59,2,2,0,0,0,.47.06h.11A4.27,4.27,0,0,0,135.64,17.84Z"/><path id="_Path_28" data-name="&lt;Path&gt;" class="cls-1" d="M138.28,12.76a2.18,2.18,0,0,0,.25-.83,1.2,1.2,0,0,0-.55-.21,1.43,1.43,0,0,1-.19.79,3.72,3.72,0,0,1-2.8,1.86,1.31,1.31,0,0,1-.58-.09,1.18,1.18,0,0,0,0,.59,2,2,0,0,0,.47.06H135A4.27,4.27,0,0,0,138.28,12.76Z"/><path id="_Path_29" data-name="&lt;Path&gt;" class="cls-1" d="M140.95,7.68a2.18,2.18,0,0,0,.25-.83,1.2,1.2,0,0,0-.55-.21,1.43,1.43,0,0,1-.19.79,3.72,3.72,0,0,1-2.8,1.86,1.31,1.31,0,0,1-.58-.09,1.18,1.18,0,0,0,0,.59,2,2,0,0,0,.47.06h.11A4.27,4.27,0,0,0,140.95,7.68Z"/></g><g id="_6-2" data-name="6"><g id="_Group_15" data-name="&lt;Group&gt;"><path id="_Path_30" data-name="&lt;Path&gt;" class="cls-1" d="M64.67,24.08l-.45-1a6.31,6.31,0,0,0,.8-1.42h0c1.25-3,.85-7.24-.88-9.47L57.09,3.16,55.78.3,53.41.62h0a4,4,0,0,0-2.71,2.71c-1.25,3-.85,7.24.88,9.47l8,10.31a2.87,2.87,0,0,0,2.56,1.31h0Z"/><path id="_Path_31" data-name="&lt;Path&gt;" class="cls-3" d="M53.49,13.23h0l2.5-.34-.45-1a6.32,6.32,0,0,0,.8-1.42h0c1.25-3,.85-7.24-.88-9.47L55.12.6,53.41.84h0a4,4,0,0,0-2.71,2.71,11,11,0,0,0,.2,8.34l0,0A2.87,2.87,0,0,0,53.49,13.23Z"/></g><g id="_Group_16" data-name="&lt;Group&gt;"><path id="_Compound_Path_16" data-name="&lt;Compound Path&gt;" class="cls-2" d="M66.72,11.73l-8-10.31A3.17,3.17,0,0,0,55.95,0h-.14L53.38.35,53,.41l0,0a4.58,4.58,0,0,0-2.58,2.79c-1.28,3.08-.87,7.45.92,9.74l8,10.31A3.22,3.22,0,0,0,62,24.7h0l2.57-.35h0l.44-.06,0,0a4.57,4.57,0,0,0,2.58-2.79C68.92,18.39,68.51,14,66.72,11.73ZM62.15,24.14a2.59,2.59,0,0,1-2.31-1.2l-8-10.31c-1.68-2.15-2.06-6.27-.85-9.19A3.79,3.79,0,0,1,53.47.9l.12,0,.67-.09a5.73,5.73,0,0,0-1.44,2.12c-1.28,3.08-.87,7.45.92,9.74l8,10.31h0A4.09,4.09,0,0,0,63,24l-.74.1Z"/><path id="_Path_32" data-name="&lt;Path&gt;" class="cls-3" d="M66.3,19.85c-.89,2.16-2.76,2.42-4.2.57a8.11,8.11,0,0,1-1-7.27c.89-2.16,2.76-2.42,4.2-.57A8.11,8.11,0,0,1,66.3,19.85Z"/></g></g><g id="_2-2" data-name="2"><path id="_Compound_Path_17" data-name="&lt;Compound Path&gt;" class="cls-1" d="M22.47,47.84,9.88,48.6l-6.59-10,12.59-.77ZM11.29,46.07l6.65-.4-3.48-5.26-6.65.4Z"/><path id="_Compound_Path_18" data-name="&lt;Compound Path&gt;" class="cls-3" d="M21.89,48.93,9.3,49.69l-6.59-10L15.3,39ZM10.72,47.16l6.65-.4-3.48-5.26-6.65.4Z"/><polygon id="_Path_33" data-name="&lt;Path&gt;" class="cls-1" points="3.29 38.64 1.93 41.35 8.51 51.31 9.88 48.6 3.29 38.64"/><polygon id="_Path_34" data-name="&lt;Path&gt;" class="cls-2" points="22.47 47.84 21.1 50.54 8.51 51.31 9.88 48.6 22.47 47.84"/><polygon id="_Path_35" data-name="&lt;Path&gt;" class="cls-1" points="14.46 40.41 13.1 43.11 14.91 45.85 17.94 45.67 14.46 40.41"/><g id="_Group_17" data-name="&lt;Group&gt;"><polygon id="_Path_36" data-name="&lt;Path&gt;" class="cls-2" points="7.81 40.81 14.46 40.41 13.1 43.11 9.48 43.33 7.81 40.81"/><g id="_Group_18" data-name="&lt;Group&gt;"><path id="_Compound_Path_19" data-name="&lt;Compound Path&gt;" class="cls-2" d="M18.51,46l-3.68-5.57h0l-.2-.3-.36,0h0l-7,.43,3.88,5.87Zm-3.43-.42-1.61-2.44,1-2.06,2.88,4.36Zm-6.7-4.44,5.56-.34-1,2.05L9.64,43ZM10,43.61l2.9-.18,1.41,2.14-2.9.18Z"/><path id="_Compound_Path_20" data-name="&lt;Compound Path&gt;" class="cls-2" d="M8.71,51.61l12.59-.77,1.36-2.71h0l.16-.32-.2-.3h0L16,37.55l-12.59.77h0l-.36,0-.16.32h0l-1.36,2.7,6.59,10h0l.2.3.36,0Zm13.22-3.43-1,2.05L9,51l1-2.05,4.65-.28ZM3.85,38.92l11.86-.72,6.19,9.35L14.66,48,10,48.28,4.58,40Zm-1.56,2.4,1-2.06,3,4.59,3.15,4.77-1,2.06Z"/></g></g></g><g id="_Group_19" data-name="&lt;Group&gt;"><path id="_Compound_Path_21" data-name="&lt;Compound Path&gt;" class="cls-2" d="M98.53,67.61h0l-.6-2.33a.56.56,0,0,0-.39-.4l-.06-.24-.12.21a.56.56,0,0,0-.49.28l-.14.24a5.51,5.51,0,0,0-1-.39l-.12,0a1.23,1.23,0,0,0-.08-.49c-.24-.53-3.34-1.36-3.37-1.37a17.4,17.4,0,0,0-3.86.5l-.09,0-3,3.61.48.14-.09.09a6.65,6.65,0,0,0-.68.73l-.93.1a.62.62,0,0,0-.54.78l.6,2.31,0,.12h0a3.77,3.77,0,0,0,2.63,2.2,8.4,8.4,0,0,0,2.47.34,11.89,11.89,0,0,0,7.67-2.81A4.13,4.13,0,0,0,98.53,67.61ZM90,70.12,88.15,69a3.12,3.12,0,0,1,.37-.41,5.77,5.77,0,0,1,5.07-1.24,2.28,2.28,0,0,1,.73.37Z"/><g id="_Group_20" data-name="&lt;Group&gt;"><g id="_Group_21" data-name="&lt;Group&gt;"><path id="_Compound_Path_22" data-name="&lt;Compound Path&gt;" class="cls-1" d="M96.12,68.68a11.25,11.25,0,0,1-9.87,2.4c-3-.93-3.47-3.52-1-5.78a11.25,11.25,0,0,1,9.87-2.4C98.1,63.83,98.56,66.42,96.12,68.68Zm-8.39-2.6c-1.32,1.22-1.07,2.62.55,3.12a6.08,6.08,0,0,0,5.34-1.3c1.32-1.22,1.07-2.62-.55-3.12A6.08,6.08,0,0,0,87.73,66.08Z"/><path id="_Compound_Path_23" data-name="&lt;Compound Path&gt;" class="cls-3" d="M96.46,69.65a11.25,11.25,0,0,1-9.87,2.4c-3-.93-3.47-3.52-1-5.78a11.25,11.25,0,0,1,9.87-2.4C98.44,64.8,98.9,67.39,96.46,69.65ZM88.07,67c-1.32,1.22-1.07,2.62.55,3.12A6.08,6.08,0,0,0,94,68.87c1.32-1.22,1.07-2.62-.55-3.12A6.08,6.08,0,0,0,88.07,67Z"/><path id="_Compound_Path_24" data-name="&lt;Compound Path&gt;" class="cls-2" d="M88.64,71.69a8.41,8.41,0,0,1-2.47-.34,3.62,3.62,0,0,1-2.72-2.48c-.28-1.22.29-2.56,1.59-3.76a11.56,11.56,0,0,1,10.14-2.46,3.62,3.62,0,0,1,2.72,2.48c.28,1.22-.29,2.56-1.59,3.76h0A11.9,11.9,0,0,1,88.64,71.69Zm4-8.85a11.28,11.28,0,0,0-7.27,2.67A3.57,3.57,0,0,0,84,68.74a3.1,3.1,0,0,0,2.34,2.08,11,11,0,0,0,9.6-2.34h0a3.57,3.57,0,0,0,1.42-3.24A3.1,3.1,0,0,0,95,63.16,7.93,7.93,0,0,0,92.68,62.84Zm-3.11,6.82a4.65,4.65,0,0,1-1.37-.19A2.07,2.07,0,0,1,86.65,68a2.3,2.3,0,0,1,.89-2.15,6.39,6.39,0,0,1,5.6-1.36A2.07,2.07,0,0,1,94.7,66a2.3,2.3,0,0,1-.89,2.15A6.57,6.57,0,0,1,89.57,69.66Zm2.18-4.78a6,6,0,0,0-3.84,1.41,1.81,1.81,0,0,0-.73,1.63,1.56,1.56,0,0,0,1.18,1,5.77,5.77,0,0,0,5.07-1.24,1.81,1.81,0,0,0,.73-1.63A1.56,1.56,0,0,0,93,65,4.18,4.18,0,0,0,91.75,64.87Z"/></g></g></g><g id="_7" data-name="7"><g id="_Group_22" data-name="&lt;Group&gt;"><path id="_Path_37" data-name="&lt;Path&gt;" class="cls-1" d="M74.26,65.56h0l2.12-2.21-3.08-5-4-14a8,8,0,0,0-5-5.19l-14.5-3.58-5.34-3.15-2.1,2.18-.14.15,0,0h0a3.05,3.05,0,0,0-.27,2.81L47.22,56a8,8,0,0,0,5,5.19l19.88,4.91A2.1,2.1,0,0,0,74.26,65.56Z"/><path id="_Compound_Path_25" data-name="&lt;Compound Path&gt;" class="cls-2" d="M72.83,66.44a3.45,3.45,0,0,1-.83-.11L52.12,61.42A8.3,8.3,0,0,1,47,56L41.64,37.66a3.48,3.48,0,0,1,.19-2.88l.15-.2h0l.19-.19,2.23-2.32,5.5,3.24,14.46,3.57a8.3,8.3,0,0,1,5.17,5.38l4,14,3.18,5.16-2.46,2.56h0A2.15,2.15,0,0,1,72.83,66.44ZM42.4,34.95h0a2.83,2.83,0,0,0-.22,2.56l5.31,18.37a7.69,7.69,0,0,0,4.77,5l19.88,4.91a1.85,1.85,0,0,0,1.92-.42l.19-.21h0L76,63.32l-3-4.89-4-14a7.69,7.69,0,0,0-4.77-5L49.65,35.81l-5.15-3-1.94,2-.13.14Z"/></g><g id="_Group_23" data-name="&lt;Group&gt;"><path id="_Path_38" data-name="&lt;Path&gt;" class="cls-1" d="M74.3,63.73,54.42,58.83a8,8,0,0,1-5-5.19L44.14,35.26c-.68-2.36.44-3.86,2.5-3.35l19.88,4.91a8,8,0,0,1,5,5.19l5.31,18.37C77.49,62.75,76.37,64.24,74.3,63.73Z"/><path id="_Path_39" data-name="&lt;Path&gt;" class="cls-3" d="M70.53,43a8,8,0,0,0-5-5.19L45.68,32.95a2.51,2.51,0,0,0-1.58.06,3.63,3.63,0,0,0,0,2.28l5.31,18.37a8,8,0,0,0,5,5.19L74.3,63.76a2.51,2.51,0,0,0,1.58-.06,3.63,3.63,0,0,0,0-2.28Z"/><path id="_Compound_Path_26" data-name="&lt;Compound Path&gt;" class="cls-2" d="M75.07,64.11a3.47,3.47,0,0,1-.83-.11L54.36,59.09a8.3,8.3,0,0,1-5.17-5.38L43.87,35.34a3.23,3.23,0,0,1,.42-3.18,2.41,2.41,0,0,1,2.41-.51l19.88,4.91a8.3,8.3,0,0,1,5.17,5.38l5.31,18.37a3.23,3.23,0,0,1-.42,3.18A2.12,2.12,0,0,1,75.07,64.11Zm-.7-.64a1.89,1.89,0,0,0,1.88-.36,2.72,2.72,0,0,0,.29-2.64L71.23,42.09a7.69,7.69,0,0,0-4.77-5L46.58,32.18a1.88,1.88,0,0,0-1.88.36,2.72,2.72,0,0,0-.29,2.64l5.31,18.37a7.69,7.69,0,0,0,4.77,5Z"/></g></g><g id="_3" data-name="3"><g id="_Group_24" data-name="&lt;Group&gt;"><path id="_Path_40" data-name="&lt;Path&gt;" class="cls-2" d="M108.81,9.86h0l-2-1.61-4,3-11.48,4.6a6.77,6.77,0,0,0-4,4.64l-1.8,12.54-2.21,4.78,2,1.58.14.11,0,0h0a2.59,2.59,0,0,0,2.39,0l15.06-6a6.77,6.77,0,0,0,4-4.64l2.46-17.2A1.78,1.78,0,0,0,108.81,9.86Z"/><path id="_Compound_Path_27" data-name="&lt;Compound Path&gt;" class="cls-2" d="M86.59,40.11a2.23,2.23,0,0,1-1-.21l0,0-.22-.17-.18-.14L83,37.92,85.3,33l1.79-12.5a7.09,7.09,0,0,1,4.13-4.85L102.67,11l4.11-3.13L109.2,9.8h0a2.15,2.15,0,0,1,.5,1.89l-2.46,17.2a7.09,7.09,0,0,1-4.13,4.85L88,39.8A4,4,0,0,1,86.59,40.11Zm-.92-.81,0,0a2.37,2.37,0,0,0,2.14,0l15.06-6a6.48,6.48,0,0,0,3.79-4.42l2.46-17.2a1.53,1.53,0,0,0-.5-1.55l-.23-.17h0L106.77,8.6l-3.86,2.93-11.48,4.6a6.48,6.48,0,0,0-3.79,4.42L85.82,33.17,83.7,37.75l1.85,1.45.13.1Z"/></g><g id="_Group_25" data-name="&lt;Group&gt;"><path id="_Path_41" data-name="&lt;Path&gt;" class="cls-1" d="M107.27,10l-2.46,17.2a6.77,6.77,0,0,1-4,4.64l-15.06,6c-1.93.78-3.29,0-3-1.83l2.46-17.2a6.77,6.77,0,0,1,4-4.64l15.06-6C106.17,7.37,107.53,8.19,107.27,10Z"/><path id="_Path_42" data-name="&lt;Path&gt;" class="cls-3" d="M85.78,37.86l15.06-6a6.77,6.77,0,0,0,4-4.64L107.27,10a2.12,2.12,0,0,0-.18-1.33,3.14,3.14,0,0,0-1.87.23l-15.06,6a6.77,6.77,0,0,0-4,4.64l-2.46,17.2a2.13,2.13,0,0,0,.18,1.33A3.14,3.14,0,0,0,85.78,37.86Z"/><path id="_Compound_Path_28" data-name="&lt;Compound Path&gt;" class="cls-2" d="M84.43,38.42a1.91,1.91,0,0,1-2-2.43l2.46-17.2a7.08,7.08,0,0,1,4.13-4.85l15.06-6a2.78,2.78,0,0,1,2.76.1,2.08,2.08,0,0,1,.65,2l-2.46,17.2a7.09,7.09,0,0,1-4.13,4.85l-15.06,6A4,4,0,0,1,84.43,38.42ZM105.59,8.13a3.43,3.43,0,0,0-1.25.27l-15.06,6a6.48,6.48,0,0,0-3.79,4.42L83,36.06a1.56,1.56,0,0,0,.45,1.52,2.27,2.27,0,0,0,2.21,0l15.06-6a6.48,6.48,0,0,0,3.79-4.42L107,9.94a1.56,1.56,0,0,0-.45-1.52A1.53,1.53,0,0,0,105.59,8.13Z"/></g><g id="_Group_26" data-name="&lt;Group&gt;"><g id="_Group_27" data-name="&lt;Group&gt;"><g id="_Group_28" data-name="&lt;Group&gt;"><path id="_Compound_Path_29" data-name="&lt;Compound Path&gt;" class="cls-1" d="M103.86,20.22a17.32,17.32,0,0,1-9.67,12.31c-4.62,1.85-7.81-.65-7.1-5.58a17.32,17.32,0,0,1,9.67-12.31C101.37,12.79,104.56,15.29,103.86,20.22Zm-14.93,6c-.55,3.85,1.94,5.8,5.55,4.36A13.52,13.52,0,0,0,102,21c.55-3.85-1.94-5.81-5.55-4.36A13.52,13.52,0,0,0,88.92,26.21Z"/><path id="_Compound_Path_30" data-name="&lt;Compound Path&gt;" class="cls-2" d="M90.87,32.82A4.5,4.5,0,0,1,88,31.91c-1.42-1.11-2-3.09-1.65-5.57a17.6,17.6,0,0,1,9.82-12.5c2.33-.93,4.38-.83,5.8.28s2,3.09,1.65,5.57h0a17.6,17.6,0,0,1-9.82,12.5A8,8,0,0,1,90.87,32.82Zm8.3-19.11a7.53,7.53,0,0,0-2.77.6,17,17,0,0,0-9.51,12.11c-.33,2.29.19,4.1,1.46,5.1s3.15,1.07,5.3.21a17,17,0,0,0,9.51-12.11h0c.33-2.29-.19-4.1-1.46-5.1A4,4,0,0,0,99.17,13.71Zm-7.39,17A3.56,3.56,0,0,1,89.53,30c-1.12-.88-1.59-2.45-1.31-4.4h0a13.8,13.8,0,0,1,7.7-9.81c1.83-.74,3.46-.65,4.59.23s1.59,2.45,1.31,4.4a13.8,13.8,0,0,1-7.7,9.81A6.32,6.32,0,0,1,91.78,30.73ZM98.26,15.8a5.82,5.82,0,0,0-2.14.46,13.24,13.24,0,0,0-7.39,9.41h0c-.25,1.77.14,3.16,1.12,3.93s2.42.82,4.08.16a13.24,13.24,0,0,0,7.39-9.41c.25-1.77-.14-3.16-1.12-3.93A3.07,3.07,0,0,0,98.26,15.8Z"/></g></g><g id="_Group_29" data-name="&lt;Group&gt;"><g id="_Group_30" data-name="&lt;Group&gt;"><polygon id="_Path_43" data-name="&lt;Path&gt;" class="cls-1" points="98.54 21.68 94.92 24.95 91.51 22.06 93.04 20.17 95.63 22.37 97.91 20.31 98.54 21.68"/><path id="_Compound_Path_31" data-name="&lt;Compound Path&gt;" class="cls-2" d="M94.47,24.72l-3.76-3.2,1.84-2.28,2.62,2.22,2.38-2.15.85,1.86Zm-3.06-3.26,3,2.59,3.32-3-.41-.89-2.19,2L92.62,20Z"/></g></g></g></g><g id="_Group_31" data-name="&lt;Group&gt;"><path id="_Path_44" data-name="&lt;Path&gt;" class="cls-2" d="M44.47,24.94c-.28-.7-1-.89-2.27-.56L21.09,6.22a2.41,2.41,0,0,0-2.34-.49L1.83,12.43c.19-.67.18-1,0-1.18s-.61.07-.87.27A2,2,0,0,0,0,13.08a2,2,0,0,0,.79,1.43L23.53,34.1a2.4,2.4,0,0,0,1.58.6,2.35,2.35,0,0,0,.73-.11l17.67-7a1.49,1.49,0,0,0,.44-.25A1.78,1.78,0,0,0,44.47,24.94Z"/><g id="_Group_32" data-name="&lt;Group&gt;"><path id="_Path_45" data-name="&lt;Path&gt;" class="cls-1" d="M44,24.55,21.22,4.9A2.28,2.28,0,0,0,19,4.44l-17.65,7a1,1,0,0,0-.3,1.7L23.81,32.72a2.24,2.24,0,0,0,2.16.46l17.65-7A1,1,0,0,0,44,24.55Z"/><g id="_Group_33" data-name="&lt;Group&gt;"><path id="_Path_46" data-name="&lt;Path&gt;" class="cls-3" d="M19.12,5,1.47,12a1,1,0,0,0-.64,1,1,1,0,0,0,.13.15L23.7,32.72a2.24,2.24,0,0,0,2.16.46l17.65-7a1,1,0,0,0,.74-.93l-.1-.12L21.32,5.5A2.28,2.28,0,0,0,19.12,5Z"/><path id="_Path_47" data-name="&lt;Path&gt;" class="cls-1" d="M41.87,24.35,24.11,31.22a.39.39,0,0,1-.37-.08L3.18,13.53a.14.14,0,0,1,0-.24L21,6.33a.35.35,0,0,1,.34.07L41.91,24.13A.13.13,0,0,1,41.87,24.35Z"/><path id="_Compound_Path_32" data-name="&lt;Compound Path&gt;" class="cls-2" d="M24,31.37a.52.52,0,0,1-.34-.13L3.09,13.63A.28.28,0,0,1,3,13.37a.26.26,0,0,1,.18-.2l17.75-7a.48.48,0,0,1,.47.1L42,24a.26.26,0,0,1,.09.25.25.25,0,0,1-.17.19L24.15,31.35ZM21.08,6.44H21l-17.75,7L23.82,31a.26.26,0,0,0,.25.06l17.75-6.87L21.23,6.5A.23.23,0,0,0,21.08,6.44Z"/></g><path id="_Compound_Path_33" data-name="&lt;Compound Path&gt;" class="cls-2" d="M25.3,33.43a2.4,2.4,0,0,1-1.58-.6L1,13.24a1.17,1.17,0,0,1-.37-1.12,1.07,1.07,0,0,1,.72-.82L19,4.31a2.41,2.41,0,0,1,2.34.49L44.14,24.45a1.1,1.1,0,0,1,.34,1,1.24,1.24,0,0,1-.81.88L26,33.31A2.35,2.35,0,0,1,25.3,33.43Zm-5.6-29a2.08,2.08,0,0,0-.64.1l-17.64,7a.8.8,0,0,0-.54.62.89.89,0,0,0,.28.85L23.9,32.62a2.1,2.1,0,0,0,2,.44l17.64-7a1,1,0,0,0,.65-.67.83.83,0,0,0-.26-.75L21.13,5A2.17,2.17,0,0,0,19.7,4.47Z"/></g><g id="_Group_34" data-name="&lt;Group&gt;"><g id="_Group_35" data-name="&lt;Group&gt;"><path id="_Path_48" data-name="&lt;Path&gt;" class="cls-2" d="M35.77,28.46h0c.08,0,.09-.12,0-.19h0a.33.33,0,0,0-.3-.07h0c-.08,0-.09.12,0,.19h0A.33.33,0,0,0,35.77,28.46Z"/></g><g id="_Group_36" data-name="&lt;Group&gt;"><path id="_Path_49" data-name="&lt;Path&gt;" class="cls-2" d="M32.4,29.77l2.89-1.13c.08,0,.09-.12,0-.19h0a.33.33,0,0,0-.3-.07l-2.89,1.13c-.08,0-.09.12,0,.19h0A.33.33,0,0,0,32.4,29.77Z"/></g></g><g id="_Group_37" data-name="&lt;Group&gt;"><path id="_Path_50" data-name="&lt;Path&gt;" class="cls-2" d="M10.6,9.17l1.1-.42c.22-.09.22-.3,0-.49h0a.85.85,0,0,0-.78-.17l-1.1.42c-.22.09-.22.3,0,.49h0A.85.85,0,0,0,10.6,9.17Z"/></g><g id="_Group_38" data-name="&lt;Group&gt;"><g id="_Group_39" data-name="&lt;Group&gt;"><polygon id="_Path_51" data-name="&lt;Path&gt;" class="cls-3" points="27.03 22.31 26.5 14.32 23.9 15.35 24.2 19.09 16.32 16.6 13.02 17.89 27.03 22.31"/><path id="_Compound_Path_34" data-name="&lt;Compound Path&gt;" class="cls-2" d="M27,21.85l-14.58-4.6,3.71-1.44,7.73,2.44-.3-3.64,2.87-1.13ZM13.3,17.22l13.44,4.24-.5-7.6-2.33.92.32,3.84-8-2.54Z"/></g></g></g><g id="_Group_40" data-name="&lt;Group&gt;"><path id="_Path_52" data-name="&lt;Path&gt;" class="cls-2" d="M97.93,52.45c.23-.64.87-.81,1.88-.5l17.48-16.44a1.87,1.87,0,0,1,1.94-.44l14,6.07c-.16-.6-.15-.93,0-1.07s.5.07.72.24a1.63,1.63,0,0,1,.13,2.7L115.27,60.74a1.89,1.89,0,0,1-1.31.54,1.8,1.8,0,0,1-.6-.1L98.74,54.85a1.21,1.21,0,0,1-.36-.23A1.7,1.7,0,0,1,97.93,52.45Z"/><g id="_Group_41" data-name="&lt;Group&gt;"><path id="_Path_53" data-name="&lt;Path&gt;" class="cls-1" d="M98.28,52.1l18.9-17.78A1.76,1.76,0,0,1,119,33.9l14.61,6.33a1,1,0,0,1,.25,1.54L115,59.5a1.74,1.74,0,0,1-1.79.42L98.64,53.59A.9.9,0,0,1,98.28,52.1Z"/><g id="_Group_42" data-name="&lt;Group&gt;"><path id="_Path_54" data-name="&lt;Path&gt;" class="cls-3" d="M118.92,34.44l14.61,6.33a.87.87,0,0,1,.53.87.88.88,0,0,1-.11.13L115.13,59.5a1.74,1.74,0,0,1-1.79.42L98.73,53.59a.93.93,0,0,1-.61-.84l.08-.11,18.9-17.78A1.76,1.76,0,0,1,118.92,34.44Z"/><path id="_Path_55" data-name="&lt;Path&gt;" class="cls-1" d="M100.09,51.92l14.7,6.22a.3.3,0,0,0,.31-.07l17-15.93a.13.13,0,0,0,0-.22l-14.7-6.3a.27.27,0,0,0-.28.07l-17,16A.12.12,0,0,0,100.09,51.92Z"/><path id="_Compound_Path_35" data-name="&lt;Compound Path&gt;" class="cls-2" d="M114.89,58.27a.41.41,0,0,0,.28-.12l17-15.93a.27.27,0,0,0,.07-.24.23.23,0,0,0-.15-.18l-14.69-6.3a.37.37,0,0,0-.39.09l-17,16a.25.25,0,0,0-.07.23.22.22,0,0,0,.14.17l14.7,6.22Zm2.41-22.55h.05L132,42,115,58a.2.2,0,0,1-.21,0l-14.7-6.21,17-16A.18.18,0,0,1,117.3,35.72Z"/></g><path id="_Compound_Path_36" data-name="&lt;Compound Path&gt;" class="cls-2" d="M113.8,60.13a1.9,1.9,0,0,0,1.31-.54l18.83-17.72a1.12,1.12,0,0,0,.31-1,1,1,0,0,0-.59-.74L119,33.78a1.87,1.87,0,0,0-1.94.44L98.2,52a1.05,1.05,0,0,0-.29.9,1.09,1.09,0,0,0,.67.79L113.2,60A1.8,1.8,0,0,0,113.8,60.13Zm4.63-26.21A1.59,1.59,0,0,1,119,34l14.6,6.33a.71.71,0,0,1,.45.56.85.85,0,0,1-.23.77L115,59.4a1.63,1.63,0,0,1-1.68.39l-14.6-6.32a.85.85,0,0,1-.53-.61.79.79,0,0,1,.22-.68l18.9-17.77A1.71,1.71,0,0,1,118.44,33.93Z"/></g><g id="_Group_43" data-name="&lt;Group&gt;"><g id="_Group_44" data-name="&lt;Group&gt;"><path id="_Path_56" data-name="&lt;Path&gt;" class="cls-2" d="M105.14,55.64h0c-.07,0-.07-.1,0-.17h0a.25.25,0,0,1,.25-.06h0c.07,0,.07.1,0,.17h0A.25.25,0,0,1,105.14,55.64Z"/></g><g id="_Group_45" data-name="&lt;Group&gt;"><path id="_Path_57" data-name="&lt;Path&gt;" class="cls-2" d="M107.92,56.82l-2.4-1c-.07,0-.07-.1,0-.17h0a.25.25,0,0,1,.25-.06l2.4,1c.07,0,.07.1,0,.17h0A.25.25,0,0,1,107.92,56.82Z"/></g></g><g id="_Group_46" data-name="&lt;Group&gt;"><path id="_Path_58" data-name="&lt;Path&gt;" class="cls-2" d="M126,38.18l-.91-.38c-.18-.08-.18-.28,0-.44h0a.66.66,0,0,1,.64-.15l.91.38c.18.08.18.28,0,.44h0A.66.66,0,0,1,126,38.18Z"/></g><g id="_Group_47" data-name="&lt;Group&gt;"><g id="_Group_48" data-name="&lt;Group&gt;"><polygon id="_Path_59" data-name="&lt;Path&gt;" class="cls-3" points="112.37 50.07 112.81 42.85 114.97 43.78 114.71 47.16 121.24 44.91 123.97 46.07 112.37 50.07"/><path id="_Compound_Path_37" data-name="&lt;Compound Path&gt;" class="cls-2" d="M112.36,49.66l12.07-4.16-3.07-1.31-6.4,2.21.25-3.29-2.38-1Zm11.38-4.19-11.13,3.84.42-6.87,1.93.83-.26,3.48,6.65-2.29Z"/></g></g></g></g><g id="_1" data-name="1"><g id="_Group_49" data-name="&lt;Group&gt;"><g id="_Group_50" data-name="&lt;Group&gt;"><path id="_Path_60" data-name="&lt;Path&gt;" class="cls-1" d="M103.15,158.06v-2.86l-3.32-.53L82.47,144.6c-2.59-1.5-7.12-1.32-10.12.4l-16,9.21-.38.23-2.11.37v2.76h0A3,3,0,0,0,55.61,160l18.93,11c2.59,1.5,7.12,1.32,10.12-.4l16-9.21c1.67-1,2.51-2.19,2.48-3.36Z"/><path id="_Compound_Path_38" data-name="&lt;Compound Path&gt;" class="cls-2" d="M103.42,155l-3.5-.56-17.31-10c-2.66-1.54-7.33-1.36-10.39.4l-16,9.21-.34.21-2.28.4v3.27h0a3.42,3.42,0,0,0,1.86,2.45l18.93,11a9.26,9.26,0,0,0,4.55,1,12,12,0,0,0,5.84-1.45l16-9.21c1.69-1,2.65-2.28,2.62-3.6ZM74.68,170.78l-18.93-11a2.79,2.79,0,0,1-1.61-2.25V155l1.88-.33.1,0,.36-.22,16-9.21c2.92-1.68,7.33-1.86,9.84-.4L99.69,154.9l3.18.53v.88l-.66,1.09-1.35,1.08-17.28,9.85-2.45.7-1.16.19v2.49A9.34,9.34,0,0,1,74.68,170.78Z"/><g id="_Group_51" data-name="&lt;Group&gt;"><path id="_Path_61" data-name="&lt;Path&gt;" class="cls-1" d="M74.54,168.21l-18.93-11c-2.59-1.5-2.26-4.12.74-5.84l16-9.21c3-1.72,7.53-1.9,10.12-.4l18.93,11c2.59,1.5,2.26,4.12-.74,5.84l-16,9.21C81.66,169.53,77.13,169.71,74.54,168.21Z"/><path id="_Path_62" data-name="&lt;Path&gt;" class="cls-3" d="M82.45,143.29c-2.59-1.5-7.12-1.32-10.12.4l-16,9.21A4.85,4.85,0,0,0,54,155.43a3.42,3.42,0,0,0,1.6,1.75l18.93,11c2.59,1.5,7.12,1.32,10.12-.4l16-9.21A4.85,4.85,0,0,0,103,156a3.42,3.42,0,0,0-1.6-1.75Z"/><path id="_Compound_Path_39" data-name="&lt;Compound Path&gt;" class="cls-2" d="M79,169.49a9.26,9.26,0,0,1-4.55-1l-18.93-11a3.28,3.28,0,0,1-1.88-2.78c0-1.29,1-2.58,2.62-3.54l16-9.21c3.07-1.76,7.73-1.94,10.39-.4l18.93,11a3.28,3.28,0,0,1,1.88,2.78c0,1.29-1,2.58-2.62,3.54L84.8,168A12,12,0,0,1,79,169.49ZM74.68,168c2.51,1.46,6.93,1.27,9.84-.4l16-9.21c1.49-.86,2.34-2,2.34-3.06a2.76,2.76,0,0,0-1.61-2.3L82.33,142c-2.51-1.46-6.92-1.27-9.84.4l-16,9.21c-1.49.86-2.34,2-2.34,3.06a2.76,2.76,0,0,0,1.61,2.3Z"/></g></g></g></g></g></g></svg>