<svg xmlns="http://www.w3.org/2000/svg" xmlns:xlink="http://www.w3.org/1999/xlink" viewBox="0 0 300 300"><defs><style>.cls-1{isolation:isolate;}.cls-2{fill:#1e1e1e;opacity:0.3;}.cls-3{fill:#33dd78;}.cls-4{fill:#777;}.cls-11,.cls-12,.cls-22,.cls-5,.cls-9{opacity:0.5;}.cls-10,.cls-5,.cls-7{mix-blend-mode:lighten;}.cls-5{fill:url(#_ÂÁ_Ï_ÌÌ_È_ËÂÌÚ_5);}.cls-6{fill:url(#_ÂÁ_Ï_ÌÌ_È_ËÂÌÚ_3);}.cls-10,.cls-7{opacity:0.7;}.cls-7{fill:url(#_ÂÁ_Ï_ÌÌ_È_ËÂÌÚ_4);}.cls-19,.cls-8{opacity:0.4;}.cls-9{fill:url(#_ÂÁ_Ï_ÌÌ_È_ËÂÌÚ_3-2);}.cls-10{fill:url(#_ÂÁ_Ï_ÌÌ_È_ËÂÌÚ_3-3);}.cls-11{fill:url(#_ÂÁ_Ï_ÌÌ_È_ËÂÌÚ_3-4);}.cls-12{fill:url(#_ÂÁ_Ï_ÌÌ_È_ËÂÌÚ_3-5);}.cls-13{opacity:0.9;fill:url(#_ÂÁ_Ï_ÌÌ_È_ËÂÌÚ_3-6);}.cls-14,.cls-15,.cls-16{fill:#fccc6b;}.cls-14{opacity:0.2;}.cls-15{opacity:0.6;}.cls-17{fill:#424240;}.cls-18,.cls-19{fill:#2bd978;}.cls-20{fill:#dd2140;}.cls-21{fill:#fff;}.cls-22{fill:#173d7a;}.cls-23{fill:#ff2c9c;}</style><radialGradient id="_ÂÁ_Ï_ÌÌ_È_ËÂÌÚ_5" cx="-16.52" cy="160.46" r="205.01" gradientUnits="userSpaceOnUse"><stop offset="0" stop-color="#2bd978"/><stop offset="0.05" stop-color="#30b86c"/><stop offset="0.11" stop-color="#359960"/><stop offset="0.17" stop-color="#397d56"/><stop offset="0.24" stop-color="#3c674e"/><stop offset="0.33" stop-color="#3f5648"/><stop offset="0.44" stop-color="#414b43"/><stop offset="0.59" stop-color="#424441"/><stop offset="1" stop-color="#424240"/></radialGradient><radialGradient id="_ÂÁ_Ï_ÌÌ_È_ËÂÌÚ_3" cx="114.25" cy="220.93" r="363.12" gradientUnits="userSpaceOnUse"><stop offset="0" stop-color="#2bd978"/><stop offset="0.15" stop-color="#2fbc6d"/><stop offset="0.43" stop-color="#37885a"/><stop offset="0.68" stop-color="#3d624c"/><stop offset="0.88" stop-color="#414b43"/><stop offset="1" stop-color="#424240"/></radialGradient><linearGradient id="_ÂÁ_Ï_ÌÌ_È_ËÂÌÚ_4" x1="22.65" y1="134.98" x2="283.11" y2="134.98" gradientUnits="userSpaceOnUse"><stop offset="0" stop-color="#424240"/><stop offset="0.12" stop-color="#414b43"/><stop offset="0.32" stop-color="#3d624c"/><stop offset="0.57" stop-color="#37885a"/><stop offset="0.85" stop-color="#2fbc6d"/><stop offset="1" stop-color="#2bd978"/></linearGradient><radialGradient id="_ÂÁ_Ï_ÌÌ_È_ËÂÌÚ_3-2" cx="20.07" cy="159.74" r="104.94" xlink:href="#_ÂÁ_Ï_ÌÌ_È_ËÂÌÚ_3"/><radialGradient id="_ÂÁ_Ï_ÌÌ_È_ËÂÌÚ_3-3" cx="25.94" cy="135.58" r="216.39" xlink:href="#_ÂÁ_Ï_ÌÌ_È_ËÂÌÚ_3"/><radialGradient id="_ÂÁ_Ï_ÌÌ_È_ËÂÌÚ_3-4" cx="43.11" cy="145.97" r="177.09" xlink:href="#_ÂÁ_Ï_ÌÌ_È_ËÂÌÚ_3"/><radialGradient id="_ÂÁ_Ï_ÌÌ_È_ËÂÌÚ_3-5" cx="20.07" cy="146.87" r="250.31" xlink:href="#_ÂÁ_Ï_ÌÌ_È_ËÂÌÚ_3"/><radialGradient id="_ÂÁ_Ï_ÌÌ_È_ËÂÌÚ_3-6" cx="20.21" cy="145.97" r="317.78" xlink:href="#_ÂÁ_Ï_ÌÌ_È_ËÂÌÚ_3"/></defs><title>raw_predictions</title><g class="cls-1"><g id="Layer_1" data-name="Layer 1"><path class="cls-2" d="M176.85,231.7l-153-88.37c-1.78-1-1.56-2.82.5-4l91.22-52.67a7.71,7.71,0,0,1,6.94-.29l153,88.37c1.78,1,1.56,2.82-.5,4l-91.22,52.67A7.71,7.71,0,0,1,176.85,231.7Z"/><path class="cls-3" d="M180.12,242.12a7.59,7.59,0,0,1-3.72-.86L9.49,144.85a2.83,2.83,0,0,1-1.62-2.4,3.75,3.75,0,0,1,2.2-3L116.21,78.15c2.51-1.45,6.33-1.6,8.51-.33l166.91,96.42a2.83,2.83,0,0,1,1.62,2.4,3.75,3.75,0,0,1-2.2,3L184.91,240.93A9.84,9.84,0,0,1,180.12,242.12Zm-3.29-1.61c1.95,1.12,5.37,1,7.64-.33l106.14-61.28a2.94,2.94,0,0,0,1.76-2.26,2,2,0,0,0-1.18-1.65L124.28,78.57c-1.95-1.12-5.37-1-7.64.33L10.51,140.19a2.94,2.94,0,0,0-1.76,2.26,2,2,0,0,0,1.18,1.65Z"/><path class="cls-4" d="M283.1,151.85,276.77,153l-150-86.62a8,8,0,0,0-7.24.3L33.78,116.18l-11.13,1.95v3.62h0a2.13,2.13,0,0,0,1.25,1.86l155,89.55a8,8,0,0,0,7.24-.3l95.14-54.93a3,3,0,0,0,1.77-2.35h0Z"/><path class="cls-5" d="M283.1,151.85,276.77,153l-150-86.62a8,8,0,0,0-7.24.3L33.78,116.18l-11.13,1.95v3.62h0a2.13,2.13,0,0,0,1.25,1.86l155,89.55a8,8,0,0,0,7.24-.3l95.14-54.93a3,3,0,0,0,1.77-2.35h0Z"/><path class="cls-6" d="M281.33,155.68l-95.14,54.93a8,8,0,0,1-7.24.3l-155-89.55a2.13,2.13,0,0,1-1.25-1.86h0v.95h0a2.13,2.13,0,0,0,1.25,1.86l155,89.55a8,8,0,0,0,7.24-.3l95.14-54.93a3,3,0,0,0,1.77-2.35h0v-.95h0A3,3,0,0,1,281.33,155.68Z"/><path class="cls-4" d="M179,209.46l-155-89.55c-1.86-1.07-1.62-2.94.52-4.18L119.57,60.8a8,8,0,0,1,7.24-.3l155,89.55c1.86,1.07,1.62,2.94-.52,4.18l-95.14,54.93A8,8,0,0,1,179,209.46Z"/><path class="cls-7" d="M179,209.46l-155-89.55c-1.86-1.07-1.62-2.94.52-4.18L119.57,60.8a8,8,0,0,1,7.24-.3l155,89.55c1.86,1.07,1.62,2.94-.52,4.18l-95.14,54.93A8,8,0,0,1,179,209.46Z"/><g class="cls-8"><path class="cls-9" d="M283.1,151.1l-6.33,1.11-150-86.62a8,8,0,0,0-7.24.3L33.78,115.42l-11.13,1.95V118h0a2.13,2.13,0,0,0,1.25,1.86l155,89.55a8,8,0,0,0,7.24-.3l95.14-54.93a3,3,0,0,0,1.77-2.35h0Z"/><path class="cls-10" d="M179,208.7l-155-89.55c-1.86-1.07-1.62-2.94.52-4.18L119.57,60a8,8,0,0,1,7.24-.3l155,89.55c1.86,1.07,1.62,2.94-.52,4.18L186.19,208.4A8,8,0,0,1,179,208.7Z"/><path class="cls-4" d="M179,208.7l-155-89.55c-1.86-1.07-1.62-2.94.52-4.18L119.57,60a8,8,0,0,1,7.24-.3l155,89.55c1.86,1.07,1.62,2.94-.52,4.18L186.19,208.4A8,8,0,0,1,179,208.7Z"/></g><path class="cls-11" d="M179,208.7l-155-89.55c-1.86-1.07-1.62-2.94.52-4.18L119.57,60a8,8,0,0,1,7.24-.3l155,89.55c1.86,1.07,1.62,2.94-.52,4.18L186.19,208.4A8,8,0,0,1,179,208.7Z"/><path class="cls-12" d="M179,208.7l-155-89.55c-1.86-1.07-1.62-2.94.52-4.18L119.57,60a8,8,0,0,1,7.24-.3l155,89.55c1.86,1.07,1.62,2.94-.52,4.18L186.19,208.4A8,8,0,0,1,179,208.7Z"/><path class="cls-13" d="M179.81,208.67l-155-89.55c-2-1.22-2.37-2.51.52-4.18L120.43,60a8.16,8.16,0,0,1,3.33-1,8.44,8.44,0,0,0-4.19,1L24.42,115c-2.14,1.24-2.37,3.11-.52,4.18L179,208.7a6.89,6.89,0,0,0,3.91.69A6.34,6.34,0,0,1,179.81,208.67Z"/><path class="cls-14" d="M268.62,155.82a.62.62,0,0,1,0,1.18,2.25,2.25,0,0,1-2,0,.62.62,0,0,1,0-1.18A2.25,2.25,0,0,1,268.62,155.82Z"/><path class="cls-15" d="M271.8,154a.62.62,0,0,1,0,1.18,2.25,2.25,0,0,1-2,0,.62.62,0,0,1,0-1.18A2.25,2.25,0,0,1,271.8,154Z"/><path class="cls-16" d="M275,152.15a.62.62,0,0,1,0,1.18,2.25,2.25,0,0,1-2,0,.62.62,0,0,1,0-1.18A2.25,2.25,0,0,1,275,152.15Z"/><path class="cls-17" d="M220.7,191.2c0,.39.27.54.61.35a1.34,1.34,0,0,0,.61-1.05c0-.39-.27-.54-.61-.35A1.34,1.34,0,0,0,220.7,191.2Z"/><path class="cls-17" d="M218.31,192.58c0,.39.27.54.61.35a1.34,1.34,0,0,0,.61-1.05c0-.39-.27-.54-.61-.35A1.34,1.34,0,0,0,218.31,192.58Z"/><path class="cls-17" d="M215.91,194c0,.39.27.54.61.35a1.34,1.34,0,0,0,.61-1.05c0-.39-.27-.54-.61-.35A1.34,1.34,0,0,0,215.91,194Z"/><path class="cls-17" d="M253.66,172.17c0,.39.27.54.61.35a1.34,1.34,0,0,0,.61-1.05c0-.39-.27-.54-.61-.35A1.34,1.34,0,0,0,253.66,172.17Z"/><path class="cls-17" d="M251.27,173.55c0,.39.27.54.61.35a1.34,1.34,0,0,0,.61-1.05c0-.39-.27-.54-.61-.35A1.34,1.34,0,0,0,251.27,173.55Z"/><path class="cls-17" d="M248.87,174.93c0,.39.27.54.61.35a1.34,1.34,0,0,0,.61-1.05c0-.39-.27-.54-.61-.35A1.34,1.34,0,0,0,248.87,174.93Z"/><path class="cls-17" d="M232.62,184.32h0c0,.48.29.7.65.49l4.25-2.45a1.56,1.56,0,0,0,.65-1.24h0c0-.48-.29-.7-.65-.49l-4.25,2.45A1.56,1.56,0,0,0,232.62,184.32Z"/><polygon class="cls-18" points="90.68 128.09 84.51 124.53 98.89 116.22 105.06 119.78 90.68 128.09"/><polygon class="cls-18" points="101.06 134.08 94.89 130.52 118.65 116.81 124.82 120.37 101.06 134.08"/><polygon class="cls-19" points="111.45 140.08 105.28 136.52 127.39 123.75 133.56 127.32 111.45 140.08"/><polygon class="cls-18" points="121.83 146.08 115.67 142.51 143.84 126.25 150.01 129.81 121.83 146.08"/><polygon class="cls-18" points="132.22 152.07 126.05 148.51 161.31 128.16 167.48 131.72 132.22 152.07"/><polygon class="cls-19" points="142.61 158.07 136.44 154.51 165.98 137.45 172.15 141.02 142.61 158.07"/><polygon class="cls-18" points="153 164.07 146.82 160.5 193.31 133.67 199.48 137.23 153 164.07"/><polygon class="cls-18" points="163.38 170.06 157.21 166.5 212.15 134.78 218.32 138.34 163.38 170.06"/><path class="cls-20" d="M128.42,117.16a5.58,5.58,0,0,1-2.74-.66,1.89,1.89,0,0,1,0-3.54,6,6,0,0,1,5.47,0,1.89,1.89,0,0,1,0,3.54A5.58,5.58,0,0,1,128.42,117.16Zm0-4.21a4.92,4.92,0,0,0-2.41.57,1.25,1.25,0,0,0,0,2.39,5.32,5.32,0,0,0,4.81,0,1.25,1.25,0,0,0,0-2.39A4.92,4.92,0,0,0,128.42,113Z"/><path class="cls-20" d="M108.7,116.55a5.57,5.57,0,0,1-2.74-.66,1.89,1.89,0,0,1,0-3.54,6,6,0,0,1,5.47,0,1.89,1.89,0,0,1,0,3.54A5.57,5.57,0,0,1,108.7,116.55Zm0-4.21a4.92,4.92,0,0,0-2.41.57,1.25,1.25,0,0,0,0,2.39,5.32,5.32,0,0,0,4.81,0h0a1.25,1.25,0,0,0,0-2.39A4.92,4.92,0,0,0,108.7,112.35Z"/><path class="cls-20" d="M137.16,124.11a5.57,5.57,0,0,1-2.74-.67,1.89,1.89,0,0,1,0-3.54,6,6,0,0,1,5.47,0,1.89,1.89,0,0,1,0,3.54h0A5.57,5.57,0,0,1,137.16,124.11Zm0-4.21a4.92,4.92,0,0,0-2.41.57,1.25,1.25,0,0,0,0,2.39,5.33,5.33,0,0,0,4.81,0h0a1.25,1.25,0,0,0,0-2.39A4.92,4.92,0,0,0,137.16,119.9Z"/><path class="cls-20" d="M153.61,126.6a5.58,5.58,0,0,1-2.74-.66,1.89,1.89,0,0,1,0-3.54,6,6,0,0,1,5.47,0,1.89,1.89,0,0,1,0,3.54A5.58,5.58,0,0,1,153.61,126.6Zm0-4.21a4.92,4.92,0,0,0-2.41.57,1.25,1.25,0,0,0,0,2.39,5.32,5.32,0,0,0,4.81,0,1.25,1.25,0,0,0,0-2.39A4.92,4.92,0,0,0,153.61,122.4Z"/><path class="cls-20" d="M171.08,128.51a5.58,5.58,0,0,1-2.74-.66,1.89,1.89,0,0,1,0-3.54,6,6,0,0,1,5.47,0,1.89,1.89,0,0,1,0,3.54h0A5.58,5.58,0,0,1,171.08,128.51Zm0-4.21a4.92,4.92,0,0,0-2.4.57,1.25,1.25,0,0,0,0,2.39,5.32,5.32,0,0,0,4.81,0,1.25,1.25,0,0,0,0-2.39A4.92,4.92,0,0,0,171.08,124.31Z"/><path class="cls-20" d="M175.75,137.81a5.58,5.58,0,0,1-2.74-.66,1.89,1.89,0,0,1,0-3.54,6,6,0,0,1,5.47,0,1.89,1.89,0,0,1,0,3.54h0A5.58,5.58,0,0,1,175.75,137.81Zm0-4.21a4.92,4.92,0,0,0-2.4.58,1.25,1.25,0,0,0,0,2.39,5.32,5.32,0,0,0,4.81,0h0a1.25,1.25,0,0,0,0-2.39A4.92,4.92,0,0,0,175.75,133.6Z"/><path class="cls-20" d="M203.08,134a5.58,5.58,0,0,1-2.74-.66,1.89,1.89,0,0,1,0-3.54,6,6,0,0,1,5.47,0,1.89,1.89,0,0,1,0,3.54A5.58,5.58,0,0,1,203.08,134Zm0-4.21a4.92,4.92,0,0,0-2.41.57,1.25,1.25,0,0,0,0,2.39,5.33,5.33,0,0,0,4.81,0,1.25,1.25,0,0,0,0-2.39A4.92,4.92,0,0,0,203.08,129.82Z"/><path class="cls-20" d="M221.92,135.14a5.57,5.57,0,0,1-2.74-.66,1.89,1.89,0,0,1,0-3.54,6,6,0,0,1,5.47,0,1.89,1.89,0,0,1,0,3.54h0A5.58,5.58,0,0,1,221.92,135.14Zm0-4.21a4.92,4.92,0,0,0-2.4.57,1.25,1.25,0,0,0,0,2.39,5.32,5.32,0,0,0,4.81,0h0a1.25,1.25,0,0,0,0-2.39A4.92,4.92,0,0,0,221.92,130.93Z"/><path class="cls-20" d="M218.31,132.82h0l-11.61-.69a.33.33,0,0,1-.31-.35.31.31,0,0,1,.35-.31l11.61.69a.33.33,0,0,1,0,.66Z"/><path class="cls-20" d="M179.28,135.22a.33.33,0,0,1,0-.66l20.26-2.81a.33.33,0,0,1,.09.66l-20.26,2.81Z"/><path class="cls-20" d="M174.73,133.69a.33.33,0,0,1-.3-.18l-2.64-5.26a.33.33,0,1,1,.59-.3l2.64,5.26a.33.33,0,0,1-.15.44A.33.33,0,0,1,174.73,133.69Z"/><path class="cls-20" d="M167.51,126h0l-10.32-1.13a.33.33,0,0,1-.29-.37.31.31,0,0,1,.37-.29l10.32,1.13a.33.33,0,0,1,0,.66Z"/><path class="cls-20" d="M150.1,124h0l-9.43-1.43a.33.33,0,1,1,.1-.66l9.43,1.43a.33.33,0,0,1,0,.66Z"/><path class="cls-20" d="M135,120.29a.33.33,0,0,1-.21-.07l-4.44-3.53a.33.33,0,0,1,.41-.52l4.44,3.53a.33.33,0,0,1,.05.47A.33.33,0,0,1,135,120.29Z"/><path class="cls-20" d="M124.79,114.95h0l-12.46-.39a.33.33,0,0,1,0-.66h0l12.46.39a.33.33,0,0,1,0,.66Z"/><path class="cls-21" d="M112,126.63a5.57,5.57,0,0,1-2.74-.67,1.89,1.89,0,0,1,0-3.54,6,6,0,0,1,5.47,0,1.89,1.89,0,0,1,0,3.54A5.57,5.57,0,0,1,112,126.63Zm0-4.21a4.92,4.92,0,0,0-2.41.57,1.25,1.25,0,0,0,0,2.39,5.33,5.33,0,0,0,4.81,0h0a1.25,1.25,0,0,0,0-2.39A4.92,4.92,0,0,0,112,122.43Z"/><path class="cls-21" d="M92.3,126a5.57,5.57,0,0,1-2.74-.67,1.89,1.89,0,0,1,0-3.54,6,6,0,0,1,5.47,0,1.89,1.89,0,0,1,0,3.54A5.57,5.57,0,0,1,92.3,126Zm0-4.21a4.92,4.92,0,0,0-2.4.57,1.25,1.25,0,0,0,0,2.39,5.33,5.33,0,0,0,4.81,0h0a1.25,1.25,0,0,0,0-2.39A4.92,4.92,0,0,0,92.3,121.81Z"/><path class="cls-21" d="M120.76,133.58a5.58,5.58,0,0,1-2.74-.66,1.89,1.89,0,0,1,0-3.54,6,6,0,0,1,5.47,0,1.89,1.89,0,0,1,0,3.54h0A5.58,5.58,0,0,1,120.76,133.58Zm0-4.21a4.92,4.92,0,0,0-2.4.57,1.25,1.25,0,0,0,0,2.39,5.32,5.32,0,0,0,4.81,0,1.25,1.25,0,0,0,0-2.39A4.92,4.92,0,0,0,120.76,129.37Z"/><path class="cls-21" d="M137.21,136.07a5.57,5.57,0,0,1-2.74-.67,1.89,1.89,0,0,1,0-3.54,6,6,0,0,1,5.47,0,1.89,1.89,0,0,1,0,3.54h0A5.57,5.57,0,0,1,137.21,136.07Zm0-4.21a4.92,4.92,0,0,0-2.41.57,1.25,1.25,0,0,0,0,2.39,5.32,5.32,0,0,0,4.81,0h0a1.25,1.25,0,0,0,0-2.39A4.92,4.92,0,0,0,137.21,131.87Z"/><path class="cls-21" d="M154.68,138a5.58,5.58,0,0,1-2.74-.66,1.89,1.89,0,0,1,0-3.54,6,6,0,0,1,5.47,0,1.89,1.89,0,0,1,0,3.54h0A5.58,5.58,0,0,1,154.68,138Zm0-4.21a4.91,4.91,0,0,0-2.4.57,1.25,1.25,0,0,0,0,2.39,5.32,5.32,0,0,0,4.81,0h0a1.25,1.25,0,0,0,0-2.39A4.92,4.92,0,0,0,154.68,133.78Z"/><path class="cls-21" d="M159.35,147.28a5.58,5.58,0,0,1-2.74-.66,1.89,1.89,0,0,1,0-3.54,6,6,0,0,1,5.47,0,1.89,1.89,0,0,1,0,3.54A5.58,5.58,0,0,1,159.35,147.28Zm0-4.21a4.92,4.92,0,0,0-2.41.57,1.25,1.25,0,0,0,0,2.39,5.32,5.32,0,0,0,4.81,0,1.25,1.25,0,0,0,0-2.39A4.92,4.92,0,0,0,159.35,143.07Z"/><path class="cls-21" d="M186.67,143.5a5.57,5.57,0,0,1-2.74-.66,1.89,1.89,0,0,1,0-3.54,6,6,0,0,1,5.47,0,1.89,1.89,0,0,1,0,3.54h0A5.57,5.57,0,0,1,186.67,143.5Zm0-4.21a4.92,4.92,0,0,0-2.41.57,1.25,1.25,0,0,0,0,2.39,5.33,5.33,0,0,0,4.81,0h0a1.25,1.25,0,0,0,0-2.39A4.92,4.92,0,0,0,186.68,139.29Z"/><path class="cls-21" d="M205.52,144.61a5.58,5.58,0,0,1-2.74-.66,1.89,1.89,0,0,1,0-3.54,6,6,0,0,1,5.47,0,1.89,1.89,0,0,1,0,3.54h0A5.58,5.58,0,0,1,205.52,144.61Zm0-4.21a4.92,4.92,0,0,0-2.41.57,1.25,1.25,0,0,0,0,2.39,5.32,5.32,0,0,0,4.81,0h0a1.25,1.25,0,0,0,0-2.39A4.92,4.92,0,0,0,205.52,140.4Z"/><path class="cls-21" d="M201.9,142.29h0l-11.61-.69a.33.33,0,0,1-.31-.35.32.32,0,0,1,.35-.31l11.61.69a.33.33,0,0,1,0,.66Z"/><path class="cls-21" d="M162.88,144.69a.33.33,0,0,1,0-.66l20.26-2.81a.33.33,0,0,1,.09.66l-20.26,2.81Z"/><path class="cls-21" d="M158.33,143.16a.33.33,0,0,1-.3-.18l-2.64-5.26a.33.33,0,0,1,.59-.3l2.64,5.26a.33.33,0,0,1-.15.44A.33.33,0,0,1,158.33,143.16Z"/><path class="cls-21" d="M151.1,135.49h0l-10.32-1.13a.33.33,0,0,1-.29-.37.32.32,0,0,1,.37-.29l10.32,1.13a.33.33,0,0,1,0,.66Z"/><path class="cls-21" d="M133.7,133.44h0L124.22,132a.33.33,0,1,1,.1-.66l9.43,1.43a.33.33,0,0,1,0,.66Z"/><path class="cls-21" d="M118.59,129.76a.33.33,0,0,1-.21-.07l-4.44-3.53a.33.33,0,0,1,.41-.52l4.44,3.53a.33.33,0,0,1,.05.47A.33.33,0,0,1,118.59,129.76Z"/><path class="cls-21" d="M108.39,124.42h0L95.92,124a.33.33,0,0,1,0-.66h0l12.47.39a.33.33,0,0,1,0,.66Z"/><path class="cls-18" d="M145.69,99.36l8.75,5.36c4.59-2.95,4.43-7.49-.48-10.33-3.52-2-8.55-2.65-13-1.87Z"/><path class="cls-19" d="M135.52,101.39l7.84-2L138.94,93a15.22,15.22,0,0,0-3.38,1.41c-3.64,2.1-4.67,5.15-3.09,7.78Z"/><path class="cls-19" d="M144.49,100.46c-3.39.86-7.72,2-11.13,2.86a9.76,9.76,0,0,0,2.2,1.69c4.73,2.73,12.19,2.92,17.3.57Z"/><path class="cls-22" d="M281.87,171c-7.88,4.15-20.65,4.15-28.53,0s-7.88-10.88,0-15,20.65-4.15,28.53,0S289.75,166.85,281.87,171Z"/><path class="cls-23" d="M290.55,154.4v-5.88h-1.22a14.18,14.18,0,0,0-5.51-4.7c-9-4.72-23.49-4.72-32.45,0a14.18,14.18,0,0,0-5.51,4.7h-1.21v5.85h0c0,3.1,2.22,6.21,6.72,8.58,9,4.72,23.49,4.72,32.45,0C288.31,160.59,290.55,157.49,290.55,154.4Z"/><path class="cls-23" d="M283.83,157.07c-9,4.72-23.49,4.72-32.45,0s-9-12.37,0-17.09,23.49-4.72,32.45,0S292.79,152.35,283.83,157.07Z"/><path class="cls-21" d="M283.83,157.07c-9,4.72-23.49,4.72-32.45,0-4.3-2.26-6.51-5.2-6.69-8.16-.19,3.22,2,6.47,6.69,8.93,9,4.72,23.49,4.72,32.45,0,4.67-2.46,6.88-5.71,6.69-8.93C290.34,151.87,288.13,154.81,283.83,157.07Z"/><path class="cls-21" d="M256.54,152.52a1,1,0,0,1-.6-.77l0-7.87c0-.6.93-1.09,2.07-1.09s2.06.49,2.06,1.09l0,6.53,20.77-2.32c1.12-.12,2.21.25,2.45.84s-.48,1.17-1.59,1.29l-23.27,2.6a3.56,3.56,0,0,1-1.73-.22Z"/></g></g></svg>