<svg id="Layer_1" data-name="Layer 1" xmlns="http://www.w3.org/2000/svg" xmlns:xlink="http://www.w3.org/1999/xlink" viewBox="0 0 150 225"><defs><style>.cls-1{mask:url(#mask);filter:url(#luminosity-noclip-12);}.cls-10,.cls-12,.cls-14,.cls-16,.cls-18,.cls-2,.cls-20,.cls-22,.cls-4,.cls-6,.cls-8{mix-blend-mode:multiply;}.cls-2{fill:url(#_ÂÁ_Ï_ÌÌ_È_ËÂÌÚ_117);}.cls-3{mask:url(#mask-2);filter:url(#luminosity-noclip-17);}.cls-4{fill:url(#_ÂÁ_Ï_ÌÌ_È_ËÂÌÚ_106);}.cls-5{mask:url(#mask-3);filter:url(#luminosity-noclip-18);}.cls-6{fill:url(#_ÂÁ_Ï_ÌÌ_È_ËÂÌÚ_106-2);}.cls-7{mask:url(#mask-4);filter:url(#luminosity-noclip-19);}.cls-8{fill:url(#_ÂÁ_Ï_ÌÌ_È_ËÂÌÚ_106-3);}.cls-9{mask:url(#mask-5);filter:url(#luminosity-noclip-20);}.cls-10{fill:url(#_ÂÁ_Ï_ÌÌ_È_ËÂÌÚ_106-4);}.cls-11{mask:url(#mask-6);filter:url(#luminosity-noclip-21);}.cls-12{fill:url(#_ÂÁ_Ï_ÌÌ_È_ËÂÌÚ_106-5);}.cls-13,.cls-17{mask:url(#mask-7);}.cls-13{filter:url(#luminosity-noclip-13);}.cls-14{fill:url(#_ÂÁ_Ï_ÌÌ_È_ËÂÌÚ_114);}.cls-15{mask:url(#mask-8);filter:url(#luminosity-noclip-22);}.cls-16{fill:url(#_ÂÁ_Ï_ÌÌ_È_ËÂÌÚ_106-6);}.cls-17{filter:url(#luminosity-noclip-14);}.cls-18{fill:url(#_ÂÁ_Ï_ÌÌ_È_ËÂÌÚ_114-2);}.cls-19{mask:url(#mask-10);filter:url(#luminosity-noclip-15);}.cls-20{fill:url(#_ÂÁ_Ï_ÌÌ_È_ËÂÌÚ_106-7);}.cls-21{mask:url(#mask-11);filter:url(#luminosity-noclip-16);}.cls-22{fill:url(#_ÂÁ_Ï_ÌÌ_È_ËÂÌÚ_106-8);}.cls-23{fill:none;}.cls-24{fill:#424240;}.cls-24,.cls-26,.cls-68,.cls-70,.cls-72,.cls-74,.cls-76,.cls-78,.cls-80,.cls-82{opacity:0.66;}.cls-25{mask:url(#mask-12);}.cls-26{fill:url(#_ÂÁ_Ï_ÌÌ_È_ËÂÌÚ_19);}.cls-27{fill:#2bd978;}.cls-28{clip-path:url(#clip-path);}.cls-29{fill:#f2f2f0;}.cls-30{fill:url(#_ÂÁ_Ï_ÌÌ_È_ËÂÌÚ_17);}.cls-31{fill:#1e1e1e;}.cls-32{opacity:0.51;}.cls-33{fill:#3a3a3a;}.cls-34{mask:url(#mask-13);}.cls-35,.cls-51{opacity:0.78;}.cls-35{fill:url(#_ÂÁ_Ï_ÌÌ_È_ËÂÌÚ_18);}.cls-36{fill:url(#_ÂÁ_Ï_ÌÌ_È_ËÂÌÚ_17-2);}.cls-37{fill:url(#_ÂÁ_Ï_ÌÌ_È_ËÂÌÚ_17-3);}.cls-38{fill:url(#_ÂÁ_Ï_ÌÌ_È_ËÂÌÚ_16);}.cls-39{fill:#232323;}.cls-40{fill:url(#_ÂÁ_Ï_ÌÌ_È_ËÂÌÚ_16-2);}.cls-41{fill:url(#_ÂÁ_Ï_ÌÌ_È_ËÂÌÚ_16-3);}.cls-42{fill:url(#_ÂÁ_Ï_ÌÌ_È_ËÂÌÚ_16-4);}.cls-43{fill:url(#_ÂÁ_Ï_ÌÌ_È_ËÂÌÚ_16-5);}.cls-44{fill:url(#_ÂÁ_Ï_ÌÌ_È_ËÂÌÚ_17-4);}.cls-45{fill:url(#_ÂÁ_Ï_ÌÌ_È_ËÂÌÚ_16-6);}.cls-46{fill:url(#_ÂÁ_Ï_ÌÌ_È_ËÂÌÚ_17-5);}.cls-47{fill:url(#_ÂÁ_Ï_ÌÌ_È_ËÂÌÚ_16-7);}.cls-48{fill:#fff;}.cls-49{fill:url(#_ÂÁ_Ï_ÌÌ_È_ËÂÌÚ_17-6);}.cls-50{mask:url(#mask-14);}.cls-51{fill:url(#_ÂÁ_Ï_ÌÌ_È_ËÂÌÚ_18-2);}.cls-52{fill:url(#_ÂÁ_Ï_ÌÌ_È_ËÂÌÚ_17-7);}.cls-53{fill:url(#_ÂÁ_Ï_ÌÌ_È_ËÂÌÚ_17-8);}.cls-54{fill:url(#_ÂÁ_Ï_ÌÌ_È_ËÂÌÚ_16-8);}.cls-55{fill:url(#_ÂÁ_Ï_ÌÌ_È_ËÂÌÚ_16-9);}.cls-56{fill:url(#_ÂÁ_Ï_ÌÌ_È_ËÂÌÚ_16-10);}.cls-57{fill:url(#_ÂÁ_Ï_ÌÌ_È_ËÂÌÚ_16-11);}.cls-58{fill:url(#_ÂÁ_Ï_ÌÌ_È_ËÂÌÚ_16-12);}.cls-59{fill:url(#_ÂÁ_Ï_ÌÌ_È_ËÂÌÚ_17-9);}.cls-60{fill:url(#_ÂÁ_Ï_ÌÌ_È_ËÂÌÚ_16-13);}.cls-61{fill:url(#_ÂÁ_Ï_ÌÌ_È_ËÂÌÚ_17-10);}.cls-62{fill:url(#_ÂÁ_Ï_ÌÌ_È_ËÂÌÚ_16-14);}.cls-63{fill:url(#_ÂÁ_Ï_ÌÌ_È_ËÂÌÚ_17-11);}.cls-64{fill:url(#_ÂÁ_Ï_ÌÌ_È_ËÂÌÚ_16-15);}.cls-65{fill:url(#_ÂÁ_Ï_ÌÌ_È_ËÂÌÚ_17-12);}.cls-66{fill:url(#_ÂÁ_Ï_ÌÌ_È_ËÂÌÚ_16-16);}.cls-67{mask:url(#mask-15);}.cls-68{fill:url(#_ÂÁ_Ï_ÌÌ_È_ËÂÌÚ_10);}.cls-69{mask:url(#mask-16);}.cls-70{fill:url(#_ÂÁ_Ï_ÌÌ_È_ËÂÌÚ_10-2);}.cls-71{mask:url(#mask-17);}.cls-72{fill:url(#_ÂÁ_Ï_ÌÌ_È_ËÂÌÚ_10-3);}.cls-73{mask:url(#mask-18);}.cls-74{fill:url(#_ÂÁ_Ï_ÌÌ_È_ËÂÌÚ_10-4);}.cls-75{mask:url(#mask-19);}.cls-76{fill:url(#_ÂÁ_Ï_ÌÌ_È_ËÂÌÚ_10-5);}.cls-77{mask:url(#mask-20);}.cls-78{fill:url(#_ÂÁ_Ï_ÌÌ_È_ËÂÌÚ_10-6);}.cls-79{mask:url(#mask-21);}.cls-80{fill:url(#_ÂÁ_Ï_ÌÌ_È_ËÂÌÚ_10-7);}.cls-81{mask:url(#mask-22);}.cls-82{fill:url(#_ÂÁ_Ï_ÌÌ_È_ËÂÌÚ_10-8);}.cls-83{filter:url(#luminosity-noclip-11);}.cls-84{filter:url(#luminosity-noclip-10);}.cls-85{filter:url(#luminosity-noclip-8);}.cls-86{filter:url(#luminosity-noclip-7);}.cls-87{filter:url(#luminosity-noclip-6);}.cls-88{filter:url(#luminosity-noclip-5);}.cls-89{filter:url(#luminosity-noclip-4);}.cls-90{filter:url(#luminosity-noclip-3);}.cls-91{filter:url(#luminosity-noclip-2);}.cls-92{filter:url(#luminosity-noclip);}</style><filter id="luminosity-noclip" x="9.31" y="-8304.5" width="132.82" height="32766" filterUnits="userSpaceOnUse" color-interpolation-filters="sRGB"><feFlood flood-color="#fff" result="bg"/><feBlend in="SourceGraphic" in2="bg"/></filter><mask id="mask" x="9.31" y="-8304.5" width="132.82" height="32766" maskUnits="userSpaceOnUse"><g class="cls-92"/></mask><radialGradient id="_ÂÁ_Ï_ÌÌ_È_ËÂÌÚ_117" cx="75.72" cy="207.74" r="54.22" gradientUnits="userSpaceOnUse"><stop offset="0" stop-color="#e6e6e6"/><stop offset="0.1" stop-color="#e0e0e0"/><stop offset="0.23" stop-color="#cdcdcd"/><stop offset="0.39" stop-color="#afafaf"/><stop offset="0.57" stop-color="#868686"/><stop offset="0.75" stop-color="#505050"/><stop offset="0.95" stop-color="#101010"/><stop offset="1"/></radialGradient><filter id="luminosity-noclip-2" x="135.34" y="-8304.5" width="4.62" height="32766" filterUnits="userSpaceOnUse" color-interpolation-filters="sRGB"><feFlood flood-color="#fff" result="bg"/><feBlend in="SourceGraphic" in2="bg"/></filter><mask id="mask-2" x="135.34" y="-8304.5" width="4.62" height="32766" maskUnits="userSpaceOnUse"><g class="cls-91"/></mask><linearGradient id="_ÂÁ_Ï_ÌÌ_È_ËÂÌÚ_106" x1="-651.27" y1="1144.08" x2="-651.27" y2="1113.72" gradientTransform="matrix(0.87, 0.5, 0, 1.15, 701.65, -803.83)" gradientUnits="userSpaceOnUse"><stop offset="0"/><stop offset="0.06" stop-color="#2a2a2a"/><stop offset="0.15" stop-color="#626262"/><stop offset="0.23" stop-color="#929292"/><stop offset="0.31" stop-color="#b6b6b6"/><stop offset="0.39" stop-color="#d1d1d1"/><stop offset="0.45" stop-color="#e0e0e0"/><stop offset="0.51" stop-color="#e6e6e6"/><stop offset="0.55" stop-color="#dedede"/><stop offset="0.62" stop-color="#c9c9c9"/><stop offset="0.71" stop-color="#a7a7a7"/><stop offset="0.8" stop-color="#787878"/><stop offset="0.91" stop-color="#3b3b3b"/><stop offset="1"/></linearGradient><filter id="luminosity-noclip-3" x="143.93" y="-8304.5" width="4.62" height="32766" filterUnits="userSpaceOnUse" color-interpolation-filters="sRGB"><feFlood flood-color="#fff" result="bg"/><feBlend in="SourceGraphic" in2="bg"/></filter><mask id="mask-3" x="143.93" y="-8304.5" width="4.62" height="32766" maskUnits="userSpaceOnUse"><g class="cls-90"/></mask><linearGradient id="_ÂÁ_Ï_ÌÌ_È_ËÂÌÚ_106-2" x1="-641.35" y1="1135.27" x2="-641.35" y2="1120.56" xlink:href="#_ÂÁ_Ï_ÌÌ_È_ËÂÌÚ_106"/><filter id="luminosity-noclip-4" x="28.82" y="-8304.5" width="4.62" height="32766" filterUnits="userSpaceOnUse" color-interpolation-filters="sRGB"><feFlood flood-color="#fff" result="bg"/><feBlend in="SourceGraphic" in2="bg"/></filter><mask id="mask-4" x="28.82" y="-8304.5" width="4.62" height="32766" maskUnits="userSpaceOnUse"><g class="cls-89"/></mask><linearGradient id="_ÂÁ_Ï_ÌÌ_È_ËÂÌÚ_106-3" x1="-2210.66" y1="1837.05" x2="-2210.66" y2="1751.5" gradientTransform="matrix(-0.87, 0.5, 0, 1.15, -1883.3, -803.83)" xlink:href="#_ÂÁ_Ï_ÌÌ_È_ËÂÌÚ_106"/><filter id="luminosity-noclip-5" x="20.15" y="-8304.5" width="4.62" height="32766" filterUnits="userSpaceOnUse" color-interpolation-filters="sRGB"><feFlood flood-color="#fff" result="bg"/><feBlend in="SourceGraphic" in2="bg"/></filter><mask id="mask-5" x="20.15" y="-8304.5" width="4.62" height="32766" maskUnits="userSpaceOnUse"><g class="cls-88"/></mask><linearGradient id="_ÂÁ_Ï_ÌÌ_È_ËÂÌÚ_106-4" x1="-2200.65" y1="1837.05" x2="-2200.65" y2="1764.34" gradientTransform="matrix(-0.87, 0.5, 0, 1.15, -1883.3, -803.83)" xlink:href="#_ÂÁ_Ï_ÌÌ_È_ËÂÌÚ_106"/><filter id="luminosity-noclip-6" x="11.49" y="-8304.5" width="4.62" height="32766" filterUnits="userSpaceOnUse" color-interpolation-filters="sRGB"><feFlood flood-color="#fff" result="bg"/><feBlend in="SourceGraphic" in2="bg"/></filter><mask id="mask-6" x="11.49" y="-8304.5" width="4.62" height="32766" maskUnits="userSpaceOnUse"><g class="cls-87"/></mask><linearGradient id="_ÂÁ_Ï_ÌÌ_È_ËÂÌÚ_106-5" x1="-2190.64" y1="1810.65" x2="-2190.64" y2="1780.29" gradientTransform="matrix(-0.87, 0.5, 0, 1.15, -1883.3, -803.83)" xlink:href="#_ÂÁ_Ï_ÌÌ_È_ËÂÌÚ_106"/><filter id="luminosity-noclip-7" x="35.35" y="-8304.5" width="40.38" height="32766" filterUnits="userSpaceOnUse" color-interpolation-filters="sRGB"><feFlood flood-color="#fff" result="bg"/><feBlend in="SourceGraphic" in2="bg"/></filter><mask id="mask-7" x="35.35" y="-8304.5" width="40.38" height="32766" maskUnits="userSpaceOnUse"><g class="cls-86"/></mask><linearGradient id="_ÂÁ_Ï_ÌÌ_È_ËÂÌÚ_114" x1="35.35" y1="165.14" x2="75.72" y2="165.14" gradientUnits="userSpaceOnUse"><stop offset="0"/><stop offset="0.05" stop-color="#2f2f2f"/><stop offset="0.1" stop-color="#5a5a5a"/><stop offset="0.15" stop-color="#828282"/><stop offset="0.22" stop-color="#a4a4a4"/><stop offset="0.28" stop-color="silver"/><stop offset="0.36" stop-color="#d7d7d7"/><stop offset="0.44" stop-color="#e9e9e9"/><stop offset="0.54" stop-color="#f6f6f6"/><stop offset="0.68" stop-color="#fdfdfd"/><stop offset="1" stop-color="#fff"/></linearGradient><filter id="luminosity-noclip-8" x="2.9" y="-8304.5" width="4.62" height="32766" filterUnits="userSpaceOnUse" color-interpolation-filters="sRGB"><feFlood flood-color="#fff" result="bg"/><feBlend in="SourceGraphic" in2="bg"/></filter><mask id="mask-8" x="2.9" y="-8304.5" width="4.62" height="32766" maskUnits="userSpaceOnUse"><g class="cls-85"/></mask><linearGradient id="_ÂÁ_Ï_ÌÌ_È_ËÂÌÚ_106-6" x1="-2180.72" y1="1801.83" x2="-2180.72" y2="1787.13" gradientTransform="matrix(-0.87, 0.5, 0, 1.15, -1883.3, -803.83)" xlink:href="#_ÂÁ_Ï_ÌÌ_È_ËÂÌÚ_106"/><linearGradient id="_ÂÁ_Ï_ÌÌ_È_ËÂÌÚ_114-2" x1="35.35" y1="42.1" x2="75.72" y2="42.1" xlink:href="#_ÂÁ_Ï_ÌÌ_È_ËÂÌÚ_114"/><filter id="luminosity-noclip-10" x="118" y="-8304.5" width="4.62" height="32766" filterUnits="userSpaceOnUse" color-interpolation-filters="sRGB"><feFlood flood-color="#fff" result="bg"/><feBlend in="SourceGraphic" in2="bg"/></filter><mask id="mask-10" x="118" y="-8304.5" width="4.62" height="32766" maskUnits="userSpaceOnUse"><g class="cls-84"/></mask><linearGradient id="_ÂÁ_Ï_ÌÌ_È_ËÂÌÚ_106-7" x1="-671.28" y1="1170.48" x2="-671.28" y2="1084.93" xlink:href="#_ÂÁ_Ï_ÌÌ_È_ËÂÌÚ_106"/><filter id="luminosity-noclip-11" x="126.67" y="-8304.5" width="4.62" height="32766" filterUnits="userSpaceOnUse" color-interpolation-filters="sRGB"><feFlood flood-color="#fff" result="bg"/><feBlend in="SourceGraphic" in2="bg"/></filter><mask id="mask-11" x="126.67" y="-8304.5" width="4.62" height="32766" maskUnits="userSpaceOnUse"><g class="cls-83"/></mask><linearGradient id="_ÂÁ_Ï_ÌÌ_È_ËÂÌÚ_106-8" x1="-661.28" y1="1170.48" x2="-661.28" y2="1097.77" xlink:href="#_ÂÁ_Ï_ÌÌ_È_ËÂÌÚ_106"/><filter id="luminosity-noclip-12" x="9.31" y="139.25" width="132.82" height="76.69" filterUnits="userSpaceOnUse" color-interpolation-filters="sRGB"><feFlood flood-color="#fff" result="bg"/><feBlend in="SourceGraphic" in2="bg"/></filter><mask id="mask-12" x="9.31" y="139.25" width="132.82" height="76.69" maskUnits="userSpaceOnUse"><g class="cls-1"><path class="cls-2" d="M71.3,215,11,180.15c-2.44-1.41-2.14-3.87.68-5.5l59-34c2.82-1.63,7.09-1.81,9.53-.4L140.49,175c2.44,1.41,2.14,3.87-.68,5.5l-59,34C78,216.22,73.74,216.4,71.3,215Z"/></g></mask><radialGradient id="_ÂÁ_Ï_ÌÌ_È_ËÂÌÚ_19" cx="75.72" cy="207.74" r="54.22" gradientUnits="userSpaceOnUse"><stop offset="0" stop-color="#2bd978"/><stop offset="0.13" stop-color="#2cd376"/><stop offset="0.31" stop-color="#2fc06f"/><stop offset="0.51" stop-color="#33a264"/><stop offset="0.74" stop-color="#3a7954"/><stop offset="0.99" stop-color="#424441"/><stop offset="1" stop-color="#424240"/></radialGradient><clipPath id="clip-path"><path id="SVGID" class="cls-23" d="M138.74-52.74,140.48,175c2.44,1.41,2.14,3.87-.68,5.5l-59,34c-2.82,1.63-7.09,1.81-9.53.4L11,180.15c-2.44-1.41-2.14-3.87.68-5.5L16-52.74"/></clipPath><linearGradient id="_ÂÁ_Ï_ÌÌ_È_ËÂÌÚ_17" x1="95.91" y1="253.5" x2="95.91" y2="168.29" gradientUnits="userSpaceOnUse"><stop offset="0" stop-color="#f2f2f0"/><stop offset="0.41" stop-color="#ededec"/><stop offset="0.9" stop-color="#dfdfde"/><stop offset="1" stop-color="#dbdbdb"/></linearGradient><filter id="luminosity-noclip-13" x="35.35" y="147.19" width="40.38" height="35.89" filterUnits="userSpaceOnUse" color-interpolation-filters="sRGB"><feFlood flood-color="#fff" result="bg"/><feBlend in="SourceGraphic" in2="bg"/></filter><mask id="mask-13" x="35.35" y="147.19" width="40.38" height="35.89" maskUnits="userSpaceOnUse"><g class="cls-13"><polygon class="cls-14" points="75.72 183.08 65.11 183.08 35.34 165.89 67.74 147.19 75.72 147.19 75.72 183.08"/></g></mask><linearGradient id="_ÂÁ_Ï_ÌÌ_È_ËÂÌÚ_18" x1="35.35" y1="165.14" x2="75.72" y2="165.14" gradientUnits="userSpaceOnUse"><stop offset="0" stop-color="#dbdbdb"/><stop offset="0.05" stop-color="#bdbdbc"/><stop offset="0.12" stop-color="#9c9c9b"/><stop offset="0.19" stop-color="#80807f"/><stop offset="0.28" stop-color="#696968"/><stop offset="0.37" stop-color="#575756"/><stop offset="0.49" stop-color="#4b4b49"/><stop offset="0.64" stop-color="#444442"/><stop offset="1" stop-color="#424240"/></linearGradient><linearGradient id="_ÂÁ_Ï_ÌÌ_È_ËÂÌÚ_17-2" x1="46.43" y1="164.11" x2="105.02" y2="164.11" xlink:href="#_ÂÁ_Ï_ÌÌ_È_ËÂÌÚ_17"/><linearGradient id="_ÂÁ_Ï_ÌÌ_È_ËÂÌÚ_17-3" x1="94.15" y1="180.2" x2="87.03" y2="167.76" xlink:href="#_ÂÁ_Ï_ÌÌ_È_ËÂÌÚ_17"/><linearGradient id="_ÂÁ_Ï_ÌÌ_È_ËÂÌÚ_16" x1="61.07" y1="174.3" x2="61.07" y2="155.32" gradientUnits="userSpaceOnUse"><stop offset="0" stop-color="#424240"/><stop offset="0.13" stop-color="#474745"/><stop offset="0.28" stop-color="#555553"/><stop offset="0.45" stop-color="#6d6d6b"/><stop offset="0.62" stop-color="#8e8e8c"/><stop offset="0.8" stop-color="#b9b9b7"/><stop offset="0.98" stop-color="#ececea"/><stop offset="1" stop-color="#f2f2f0"/></linearGradient><linearGradient id="_ÂÁ_Ï_ÌÌ_È_ËÂÌÚ_16-2" x1="62.23" y1="159.62" x2="77.4" y2="159.62" xlink:href="#_ÂÁ_Ï_ÌÌ_È_ËÂÌÚ_16"/><linearGradient id="_ÂÁ_Ï_ÌÌ_È_ËÂÌÚ_16-3" x1="66.17" y1="161.89" x2="81.34" y2="161.89" xlink:href="#_ÂÁ_Ï_ÌÌ_È_ËÂÌÚ_16"/><linearGradient id="_ÂÁ_Ï_ÌÌ_È_ËÂÌÚ_16-4" x1="70.11" y1="164.16" x2="85.28" y2="164.16" xlink:href="#_ÂÁ_Ï_ÌÌ_È_ËÂÌÚ_16"/><linearGradient id="_ÂÁ_Ï_ÌÌ_È_ËÂÌÚ_16-5" x1="74.04" y1="166.42" x2="89.22" y2="166.42" xlink:href="#_ÂÁ_Ï_ÌÌ_È_ËÂÌÚ_16"/><linearGradient id="_ÂÁ_Ï_ÌÌ_È_ËÂÌÚ_17-4" x1="70.24" y1="192.58" x2="74.12" y2="192.58" xlink:href="#_ÂÁ_Ï_ÌÌ_È_ËÂÌÚ_17"/><linearGradient id="_ÂÁ_Ï_ÌÌ_È_ËÂÌÚ_16-6" x1="69.77" y1="192.97" x2="72.98" y2="192.97" xlink:href="#_ÂÁ_Ï_ÌÌ_È_ËÂÌÚ_16"/><linearGradient id="_ÂÁ_Ï_ÌÌ_È_ËÂÌÚ_17-5" x1="36.37" y1="171.77" x2="40.26" y2="171.77" xlink:href="#_ÂÁ_Ï_ÌÌ_È_ËÂÌÚ_17"/><linearGradient id="_ÂÁ_Ï_ÌÌ_È_ËÂÌÚ_16-7" x1="35.9" y1="172.17" x2="39.11" y2="172.17" xlink:href="#_ÂÁ_Ï_ÌÌ_È_ËÂÌÚ_16"/><linearGradient id="_ÂÁ_Ï_ÌÌ_È_ËÂÌÚ_17-6" x1="95.91" y1="130.46" x2="95.91" y2="45.25" xlink:href="#_ÂÁ_Ï_ÌÌ_È_ËÂÌÚ_17"/><filter id="luminosity-noclip-14" x="35.35" y="24.16" width="40.38" height="35.89" filterUnits="userSpaceOnUse" color-interpolation-filters="sRGB"><feFlood flood-color="#fff" result="bg"/><feBlend in="SourceGraphic" in2="bg"/></filter><mask id="mask-14" x="35.35" y="24.16" width="40.38" height="35.89" maskUnits="userSpaceOnUse"><g class="cls-17"><polygon class="cls-18" points="75.72 60.04 65.11 60.04 35.34 42.86 67.74 24.16 75.72 24.16 75.72 60.04"/></g></mask><linearGradient id="_ÂÁ_Ï_ÌÌ_È_ËÂÌÚ_18-2" x1="35.35" y1="42.1" x2="75.72" y2="42.1" xlink:href="#_ÂÁ_Ï_ÌÌ_È_ËÂÌÚ_18"/><linearGradient id="_ÂÁ_Ï_ÌÌ_È_ËÂÌÚ_17-7" x1="46.43" y1="41.07" x2="105.02" y2="41.07" xlink:href="#_ÂÁ_Ï_ÌÌ_È_ËÂÌÚ_17"/><linearGradient id="_ÂÁ_Ï_ÌÌ_È_ËÂÌÚ_17-8" x1="94.15" y1="57.16" x2="87.03" y2="44.72" xlink:href="#_ÂÁ_Ï_ÌÌ_È_ËÂÌÚ_17"/><linearGradient id="_ÂÁ_Ï_ÌÌ_È_ËÂÌÚ_16-8" x1="61.07" y1="51.26" x2="61.07" y2="32.29" xlink:href="#_ÂÁ_Ï_ÌÌ_È_ËÂÌÚ_16"/><linearGradient id="_ÂÁ_Ï_ÌÌ_È_ËÂÌÚ_16-9" x1="62.23" y1="36.59" x2="77.4" y2="36.59" xlink:href="#_ÂÁ_Ï_ÌÌ_È_ËÂÌÚ_16"/><linearGradient id="_ÂÁ_Ï_ÌÌ_È_ËÂÌÚ_16-10" x1="66.17" y1="38.85" x2="81.34" y2="38.85" xlink:href="#_ÂÁ_Ï_ÌÌ_È_ËÂÌÚ_16"/><linearGradient id="_ÂÁ_Ï_ÌÌ_È_ËÂÌÚ_16-11" x1="70.11" y1="41.12" x2="85.28" y2="41.12" xlink:href="#_ÂÁ_Ï_ÌÌ_È_ËÂÌÚ_16"/><linearGradient id="_ÂÁ_Ï_ÌÌ_È_ËÂÌÚ_16-12" x1="74.04" y1="43.39" x2="89.22" y2="43.39" xlink:href="#_ÂÁ_Ï_ÌÌ_È_ËÂÌÚ_16"/><linearGradient id="_ÂÁ_Ï_ÌÌ_È_ËÂÌÚ_17-9" x1="70.24" y1="69.54" x2="74.12" y2="69.54" xlink:href="#_ÂÁ_Ï_ÌÌ_È_ËÂÌÚ_17"/><linearGradient id="_ÂÁ_Ï_ÌÌ_È_ËÂÌÚ_16-13" x1="69.77" y1="69.94" x2="72.98" y2="69.94" xlink:href="#_ÂÁ_Ï_ÌÌ_È_ËÂÌÚ_16"/><linearGradient id="_ÂÁ_Ï_ÌÌ_È_ËÂÌÚ_17-10" x1="36.37" y1="48.73" x2="40.26" y2="48.73" xlink:href="#_ÂÁ_Ï_ÌÌ_È_ËÂÌÚ_17"/><linearGradient id="_ÂÁ_Ï_ÌÌ_È_ËÂÌÚ_16-14" x1="35.9" y1="49.13" x2="39.11" y2="49.13" xlink:href="#_ÂÁ_Ï_ÌÌ_È_ËÂÌÚ_16"/><linearGradient id="_ÂÁ_Ï_ÌÌ_È_ËÂÌÚ_17-11" x1="70.24" y1="149.68" x2="74.12" y2="149.68" xlink:href="#_ÂÁ_Ï_ÌÌ_È_ËÂÌÚ_17"/><linearGradient id="_ÂÁ_Ï_ÌÌ_È_ËÂÌÚ_16-15" x1="69.77" y1="150.08" x2="72.98" y2="150.08" xlink:href="#_ÂÁ_Ï_ÌÌ_È_ËÂÌÚ_16"/><linearGradient id="_ÂÁ_Ï_ÌÌ_È_ËÂÌÚ_17-12" x1="36.37" y1="128.87" x2="40.26" y2="128.87" xlink:href="#_ÂÁ_Ï_ÌÌ_È_ËÂÌÚ_17"/><linearGradient id="_ÂÁ_Ï_ÌÌ_È_ËÂÌÚ_16-16" x1="35.9" y1="129.27" x2="39.11" y2="129.27" xlink:href="#_ÂÁ_Ï_ÌÌ_È_ËÂÌÚ_16"/><filter id="luminosity-noclip-15" x="118" y="112.95" width="4.62" height="99.48" filterUnits="userSpaceOnUse" color-interpolation-filters="sRGB"><feFlood flood-color="#fff" result="bg"/><feBlend in="SourceGraphic" in2="bg"/></filter><mask id="mask-15" x="118" y="112.95" width="4.62" height="99.48" maskUnits="userSpaceOnUse"><g class="cls-19"><path class="cls-20" d="M120.47,113.39l-.32-.19c-1.19-.69-2.15,0-2.15,1.63v93a5.15,5.15,0,0,0,2.15,4.11l.32.19c1.19.69,2.15,0,2.15-1.63v-93A5.15,5.15,0,0,0,120.47,113.39Z"/></g></mask><linearGradient id="_ÂÁ_Ï_ÌÌ_È_ËÂÌÚ_10" x1="-671.28" y1="1170.48" x2="-671.28" y2="1084.93" gradientTransform="matrix(0.87, 0.5, 0, 1.15, 701.65, -803.83)" gradientUnits="userSpaceOnUse"><stop offset="0" stop-color="#424240"/><stop offset="0.04" stop-color="#3f5647"/><stop offset="0.15" stop-color="#388559"/><stop offset="0.26" stop-color="#32a966"/><stop offset="0.35" stop-color="#2ec470"/><stop offset="0.44" stop-color="#2cd376"/><stop offset="0.51" stop-color="#2bd978"/><stop offset="0.57" stop-color="#2cd175"/><stop offset="0.66" stop-color="#2fbd6d"/><stop offset="0.77" stop-color="#359a61"/><stop offset="0.9" stop-color="#3c6b4f"/><stop offset="1" stop-color="#424240"/></linearGradient><filter id="luminosity-noclip-16" x="126.67" y="132.78" width="4.62" height="84.66" filterUnits="userSpaceOnUse" color-interpolation-filters="sRGB"><feFlood flood-color="#fff" result="bg"/><feBlend in="SourceGraphic" in2="bg"/></filter><mask id="mask-16" x="126.67" y="132.78" width="4.62" height="84.66" maskUnits="userSpaceOnUse"><g class="cls-21"><path class="cls-22" d="M129.14,133.22l-.32-.19c-1.19-.69-2.15,0-2.15,1.63v78.22a5.15,5.15,0,0,0,2.15,4.11l.32.19c1.19.69,2.15,0,2.15-1.63V137.33A5.15,5.15,0,0,0,129.14,133.22Z"/></g></mask><linearGradient id="_ÂÁ_Ï_ÌÌ_È_ËÂÌÚ_10-2" x1="-661.28" y1="1170.48" x2="-661.28" y2="1097.77" xlink:href="#_ÂÁ_Ï_ÌÌ_È_ËÂÌÚ_10"/><filter id="luminosity-noclip-17" x="135.34" y="156.2" width="4.62" height="35.75" filterUnits="userSpaceOnUse" color-interpolation-filters="sRGB"><feFlood flood-color="#fff" result="bg"/><feBlend in="SourceGraphic" in2="bg"/></filter><mask id="mask-17" x="135.34" y="156.2" width="4.62" height="35.75" maskUnits="userSpaceOnUse"><g class="cls-3"><path class="cls-4" d="M137.81,156.64l-.32-.19c-1.19-.69-2.15,0-2.15,1.63v29.31a5.15,5.15,0,0,0,2.15,4.11l.32.19c1.19.69,2.15,0,2.15-1.63V160.75A5.15,5.15,0,0,0,137.81,156.64Z"/></g></mask><linearGradient id="_ÂÁ_Ï_ÌÌ_È_ËÂÌÚ_10-3" x1="-651.27" y1="1144.08" x2="-651.27" y2="1113.72" xlink:href="#_ÂÁ_Ï_ÌÌ_È_ËÂÌÚ_10"/><filter id="luminosity-noclip-18" x="143.93" y="169.05" width="4.62" height="17.68" filterUnits="userSpaceOnUse" color-interpolation-filters="sRGB"><feFlood flood-color="#fff" result="bg"/><feBlend in="SourceGraphic" in2="bg"/></filter><mask id="mask-18" x="143.93" y="169.05" width="4.62" height="17.68" maskUnits="userSpaceOnUse"><g class="cls-5"><path class="cls-6" d="M146.4,169.5l-.32-.19c-1.19-.69-2.15,0-2.15,1.63v11.24a5.15,5.15,0,0,0,2.15,4.11l.32.19c1.19.69,2.15,0,2.15-1.63V173.6A5.15,5.15,0,0,0,146.4,169.5Z"/></g></mask><linearGradient id="_ÂÁ_Ï_ÌÌ_È_ËÂÌÚ_10-4" x1="-641.35" y1="1135.27" x2="-641.35" y2="1120.56" xlink:href="#_ÂÁ_Ï_ÌÌ_È_ËÂÌÚ_10"/><filter id="luminosity-noclip-19" x="28.82" y="112.95" width="4.62" height="99.48" filterUnits="userSpaceOnUse" color-interpolation-filters="sRGB"><feFlood flood-color="#fff" result="bg"/><feBlend in="SourceGraphic" in2="bg"/></filter><mask id="mask-19" x="28.82" y="112.95" width="4.62" height="99.48" maskUnits="userSpaceOnUse"><g class="cls-7"><path class="cls-8" d="M31,113.39l.32-.19c1.19-.69,2.15,0,2.15,1.63v93A5.15,5.15,0,0,1,31.29,212l-.32.19c-1.19.69-2.15,0-2.15-1.63v-93A5.15,5.15,0,0,1,31,113.39Z"/></g></mask><linearGradient id="_ÂÁ_Ï_ÌÌ_È_ËÂÌÚ_10-5" x1="-2210.66" y1="1837.05" x2="-2210.66" y2="1751.5" gradientTransform="matrix(-0.87, 0.5, 0, 1.15, -1883.3, -803.83)" xlink:href="#_ÂÁ_Ï_ÌÌ_È_ËÂÌÚ_10"/><filter id="luminosity-noclip-20" x="20.15" y="132.78" width="4.62" height="84.66" filterUnits="userSpaceOnUse" color-interpolation-filters="sRGB"><feFlood flood-color="#fff" result="bg"/><feBlend in="SourceGraphic" in2="bg"/></filter><mask id="mask-20" x="20.15" y="132.78" width="4.62" height="84.66" maskUnits="userSpaceOnUse"><g class="cls-9"><path class="cls-10" d="M22.3,133.22l.32-.19c1.19-.69,2.15,0,2.15,1.63v78.22A5.15,5.15,0,0,1,22.63,217l-.32.19c-1.19.69-2.15,0-2.15-1.63V137.33A5.15,5.15,0,0,1,22.3,133.22Z"/></g></mask><linearGradient id="_ÂÁ_Ï_ÌÌ_È_ËÂÌÚ_10-6" x1="-2200.65" y1="1837.05" x2="-2200.65" y2="1764.34" gradientTransform="matrix(-0.87, 0.5, 0, 1.15, -1883.3, -803.83)" xlink:href="#_ÂÁ_Ï_ÌÌ_È_ËÂÌÚ_10"/><filter id="luminosity-noclip-21" x="11.49" y="156.2" width="4.62" height="35.75" filterUnits="userSpaceOnUse" color-interpolation-filters="sRGB"><feFlood flood-color="#fff" result="bg"/><feBlend in="SourceGraphic" in2="bg"/></filter><mask id="mask-21" x="11.49" y="156.2" width="4.62" height="35.75" maskUnits="userSpaceOnUse"><g class="cls-11"><path class="cls-12" d="M13.64,156.64l.32-.19c1.19-.69,2.15,0,2.15,1.63v29.31A5.15,5.15,0,0,1,14,191.5l-.32.19c-1.19.69-2.15,0-2.15-1.63V160.75A5.15,5.15,0,0,1,13.64,156.64Z"/></g></mask><linearGradient id="_ÂÁ_Ï_ÌÌ_È_ËÂÌÚ_10-7" x1="-2190.64" y1="1810.65" x2="-2190.64" y2="1780.29" gradientTransform="matrix(-0.87, 0.5, 0, 1.15, -1883.3, -803.83)" xlink:href="#_ÂÁ_Ï_ÌÌ_È_ËÂÌÚ_10"/><filter id="luminosity-noclip-22" x="2.9" y="169.05" width="4.62" height="17.68" filterUnits="userSpaceOnUse" color-interpolation-filters="sRGB"><feFlood flood-color="#fff" result="bg"/><feBlend in="SourceGraphic" in2="bg"/></filter><mask id="mask-22" x="2.9" y="169.05" width="4.62" height="17.68" maskUnits="userSpaceOnUse"><g class="cls-15"><path class="cls-16" d="M5,169.5l.32-.19c1.19-.69,2.15,0,2.15,1.63v11.24a5.15,5.15,0,0,1-2.15,4.11l-.32.19c-1.19.69-2.15,0-2.15-1.63V173.6A5.15,5.15,0,0,1,5,169.5Z"/></g></mask><linearGradient id="_ÂÁ_Ï_ÌÌ_È_ËÂÌÚ_10-8" x1="-2180.72" y1="1801.83" x2="-2180.72" y2="1787.13" gradientTransform="matrix(-0.87, 0.5, 0, 1.15, -1883.3, -803.83)" xlink:href="#_ÂÁ_Ï_ÌÌ_È_ËÂÌÚ_10"/></defs><title>raw_data-warehouse</title><path class="cls-24" d="M71.3,215,11,180.15c-2.44-1.41-2.14-3.87.68-5.5l59-34c2.82-1.63,7.09-1.81,9.53-.4L140.49,175c2.44,1.41,2.14,3.87-.68,5.5l-59,34C78,216.22,73.74,216.4,71.3,215Z"/><g class="cls-25"><path class="cls-26" d="M71.3,215,11,180.15c-2.44-1.41-2.14-3.87.68-5.5l59-34c2.82-1.63,7.09-1.81,9.53-.4L140.49,175c2.44,1.41,2.14,3.87-.68,5.5l-59,34C78,216.22,73.74,216.4,71.3,215Z"/></g><path class="cls-27" d="M11,180.15l5.3,3.06,54.36-31.38c2.82-1.63,7.09-1.81,9.53-.4l55,31.78,4.62-2.67c2.82-1.63,3.13-4.09.68-5.5L80.14,140.2c-2.44-1.41-6.71-1.23-9.53.4l-59,34C8.82,176.27,8.52,178.74,11,180.15Z"/><g class="cls-28"><polygon class="cls-29" points="75.72 189.21 35.34 165.89 75.72 142.58 116.1 165.89 75.72 189.21"/><polygon class="cls-30" points="116.1 165.89 116.1 255.38 75.72 278.69 75.72 189.21 116.1 165.89"/><polygon class="cls-31" points="35.34 165.89 35.34 255.38 75.72 278.69 75.72 189.21 35.34 165.89"/><g class="cls-32"><polygon class="cls-33" points="38.08 171.83 38.08 252.26 72.99 272.42 72.99 191.98 38.08 171.83"/></g><polygon class="cls-33" points="110.04 187.51 110.04 189.88 81.78 206.2 81.78 203.83 110.04 187.51"/><polygon class="cls-33" points="110.04 197.51 110.04 199.88 81.78 216.2 81.78 213.83 110.04 197.51"/><polygon class="cls-33" points="110.04 207.52 110.04 209.88 81.78 226.2 81.78 223.83 110.04 207.52"/><polygon class="cls-33" points="110.04 217.52 110.04 219.88 81.78 236.2 81.78 233.83 110.04 217.52"/><g class="cls-34"><polygon class="cls-35" points="75.72 183.08 65.11 183.08 35.34 165.89 67.74 147.19 75.72 147.19 75.72 183.08"/></g><polygon class="cls-36" points="75.72 181.02 46.43 164.11 75.72 147.19 105.02 164.11 75.72 181.02"/><polygon class="cls-37" points="105.02 164.11 105.02 166.16 75.72 183.08 75.72 181.02 105.02 164.11"/><polygon class="cls-38" points="46.43 164.11 46.43 166.16 75.72 183.08 75.72 181.02 46.43 164.11"/><polygon class="cls-39" points="64.36 164.38 63.06 163.63 63.17 163.02 75.21 156.02 76.88 156.81 76.57 157.33 64.36 164.38"/><polygon class="cls-40" points="75.27 156.58 76.57 157.33 77.4 156.85 75.27 155.62 62.23 163.15 63.06 163.63 75.27 156.58"/><polygon class="cls-39" points="68.3 166.65 67 165.9 67.11 165.29 79.14 158.28 80.82 159.08 80.5 159.6 68.3 166.65"/><polygon class="cls-41" points="79.21 158.85 80.5 159.6 81.34 159.12 79.21 157.88 66.17 165.41 67 165.9 79.21 158.85"/><polygon class="cls-39" points="72.24 168.91 70.94 168.16 71.05 167.56 83.08 160.55 84.75 161.35 84.44 161.87 72.24 168.91"/><polygon class="cls-42" points="83.15 161.12 84.44 161.87 85.28 161.38 83.15 160.15 70.11 167.68 70.94 168.16 83.15 161.12"/><polygon class="cls-39" points="76.18 171.18 74.88 170.43 74.98 169.82 87.02 162.82 88.69 163.61 88.38 164.13 76.18 171.18"/><polygon class="cls-43" points="87.08 163.38 88.38 164.13 89.22 163.65 87.08 162.42 74.04 169.95 74.88 170.43 87.08 163.38"/><g class="cls-32"><polygon class="cls-33" points="35.34 241.24 75.72 216.86 75.72 189.21 35.34 165.89 35.34 241.24"/></g><path class="cls-44" d="M74.12,193.23a3.55,3.55,0,0,0-1.61-2.78,1.12,1.12,0,0,0-1.14-.11h0l-1.14.67.7,0a1.84,1.84,0,0,0,0,.35,3.55,3.55,0,0,0,1.61,2.78,1.81,1.81,0,0,0,.34.15l-.33.61,1.11-.65h0A1.12,1.12,0,0,0,74.12,193.23Z"/><path class="cls-45" d="M73,193.9c0,1-.72,1.44-1.61.93A3.55,3.55,0,0,1,69.77,192c0-1,.72-1.44,1.61-.93A3.55,3.55,0,0,1,73,193.9Z"/><path class="cls-39" d="M72.3,193.51c0,.59-.41.83-.92.53a2,2,0,0,1-.92-1.6c0-.59.41-.83.92-.53A2,2,0,0,1,72.3,193.51Z"/><path class="cls-46" d="M40.26,172.42a3.55,3.55,0,0,0-1.61-2.78,1.13,1.13,0,0,0-1.14-.11h0l-1.14.67.7,0a1.84,1.84,0,0,0,0,.35,3.55,3.55,0,0,0,1.61,2.78,1.81,1.81,0,0,0,.34.15l-.33.61,1.11-.65h0A1.12,1.12,0,0,0,40.26,172.42Z"/><path class="cls-47" d="M39.11,173.09c0,1-.72,1.44-1.61.93a3.55,3.55,0,0,1-1.61-2.78c0-1,.72-1.44,1.61-.93A3.55,3.55,0,0,1,39.11,173.09Z"/><path class="cls-39" d="M38.43,172.7c0,.59-.41.83-.92.53a2,2,0,0,1-.92-1.6c0-.59.41-.83.92-.53A2,2,0,0,1,38.43,172.7Z"/><polygon class="cls-27" points="49.3 197.28 40.4 192.14 40.4 190.18 49.3 195.32 49.3 197.28"/><polygon class="cls-27" points="53.87 199.91 50.66 198.06 50.66 196.1 53.87 197.96 53.87 199.91"/><polygon class="cls-27" points="57.4 201.95 55.22 200.69 55.22 198.74 57.4 200 57.4 201.95"/><polygon class="cls-27" points="45.25 199.4 40.4 196.6 40.4 194.65 45.25 197.45 45.25 199.4"/><polygon class="cls-27" points="52.55 203.62 46.61 200.19 46.61 198.23 52.55 201.66 52.55 203.62"/><polygon class="cls-27" points="56.09 205.66 53.91 204.4 53.91 202.45 56.09 203.7 56.09 205.66"/><polygon class="cls-27" points="59.45 207.6 57.28 206.34 57.28 204.39 59.45 205.65 59.45 207.6"/><polygon class="cls-27" points="43.91 203.09 40.4 201.06 40.4 199.11 43.91 201.14 43.91 203.09"/><polygon class="cls-27" points="46.47 204.57 45.27 203.88 45.27 201.92 46.47 202.61 46.47 204.57"/><polygon class="cls-27" points="50.01 206.61 47.83 205.35 47.83 203.4 50.01 204.66 50.01 206.61"/><polygon class="cls-27" points="53.35 213.01 40.4 205.53 40.4 203.58 53.35 211.05 53.35 213.01"/><polygon class="cls-27" points="57.91 215.64 54.71 213.79 54.71 211.84 57.91 213.69 57.91 215.64"/><polygon class="cls-27" points="43.91 212.02 40.4 209.99 40.4 208.04 43.91 210.07 43.91 212.02"/><polygon class="cls-27" points="52.14 216.77 45.27 212.81 45.27 210.85 52.14 214.82 52.14 216.77"/><polygon class="cls-27" points="55.68 218.82 53.5 217.56 53.5 215.6 55.68 216.86 55.68 218.82"/><polygon class="cls-27" points="47.58 218.6 40.4 214.46 40.4 212.5 47.58 216.65 47.58 218.6"/><polygon class="cls-27" points="54.13 222.39 48.94 219.39 48.94 217.43 54.13 220.43 54.13 222.39"/><polygon class="cls-27" points="59 225.2 55.49 223.17 55.49 221.22 59 223.24 59 225.2"/><polygon class="cls-27" points="42.83 220.32 40.4 218.92 40.4 216.97 42.83 218.37 42.83 220.32"/><polygon class="cls-27" points="47.39 222.96 44.19 221.11 44.19 219.15 47.39 221 47.39 222.96"/><polygon class="cls-27" points="53.91 226.72 48.75 223.74 48.75 221.79 53.91 224.77 53.91 226.72"/><polygon class="cls-27" points="47.83 227.68 40.4 223.39 40.4 221.43 47.83 225.72 47.83 227.68"/><polygon class="cls-27" points="63.46 205.45 69.63 209.01 69.63 207.06 63.46 203.5 63.46 205.45"/><polygon class="cls-27" points="64.78 210.68 69.63 213.48 69.63 211.52 64.78 208.72 64.78 210.68"/><polygon class="cls-27" points="66.12 215.92 69.63 217.94 69.63 215.99 66.12 213.96 66.12 215.92"/><polygon class="cls-27" points="64.53 219.46 69.63 222.41 69.63 220.45 64.53 217.5 64.53 219.46"/><polygon class="cls-27" points="66.12 224.84 69.63 226.87 69.63 224.92 66.12 222.89 66.12 224.84"/><polygon class="cls-29" points="75.72 66.17 35.34 42.86 75.72 19.55 116.1 42.86 75.72 66.17"/><polygon class="cls-48" points="75.72 155.65 35.34 132.34 75.72 109.03 116.1 132.34 75.72 155.65"/><polygon class="cls-49" points="116.1 42.86 116.1 132.34 75.72 155.65 75.72 66.17 116.1 42.86"/><polygon class="cls-31" points="35.34 42.86 35.34 132.34 75.72 155.65 75.72 66.17 35.34 42.86"/><g class="cls-32"><polygon class="cls-33" points="38.08 48.79 38.08 129.23 72.99 149.38 72.99 68.95 38.08 48.79"/></g><polygon class="cls-33" points="110.04 64.48 110.04 66.84 81.78 83.16 81.78 80.8 110.04 64.48"/><polygon class="cls-33" points="110.04 74.48 110.04 76.84 81.78 93.16 81.78 90.8 110.04 74.48"/><polygon class="cls-33" points="110.04 84.48 110.04 86.84 81.78 103.16 81.78 100.8 110.04 84.48"/><polygon class="cls-33" points="110.04 94.48 110.04 96.84 81.78 113.16 81.78 110.8 110.04 94.48"/><polygon class="cls-33" points="110.04 104.48 110.04 106.85 81.78 123.16 81.78 120.8 110.04 104.48"/><polygon class="cls-33" points="110.04 114.48 110.04 116.85 81.78 133.16 81.78 130.8 110.04 114.48"/><g class="cls-50"><polygon class="cls-51" points="75.72 60.04 65.11 60.04 35.34 42.86 67.74 24.16 75.72 24.16 75.72 60.04"/></g><polygon class="cls-52" points="75.72 57.99 46.43 41.07 75.72 24.16 105.02 41.07 75.72 57.99"/><polygon class="cls-53" points="105.02 41.07 105.02 43.13 75.72 60.04 75.72 57.99 105.02 41.07"/><polygon class="cls-54" points="46.43 41.07 46.43 43.13 75.72 60.04 75.72 57.99 46.43 41.07"/><polygon class="cls-39" points="64.36 41.34 63.06 40.59 63.17 39.98 75.21 32.98 76.88 33.78 76.57 34.3 64.36 41.34"/><polygon class="cls-55" points="75.27 33.55 76.57 34.3 77.4 33.81 75.27 32.58 62.23 40.11 63.06 40.59 75.27 33.55"/><polygon class="cls-39" points="68.3 43.61 67 42.86 67.11 42.25 79.14 35.25 80.82 36.04 80.5 36.56 68.3 43.61"/><polygon class="cls-56" points="79.21 35.81 80.5 36.56 81.34 36.08 79.21 34.85 66.17 42.38 67 42.86 79.21 35.81"/><polygon class="cls-39" points="72.24 45.88 70.94 45.13 71.05 44.52 83.08 37.51 84.75 38.31 84.44 38.83 72.24 45.88"/><polygon class="cls-57" points="83.15 38.08 84.44 38.83 85.28 38.35 83.15 37.12 70.11 44.65 70.94 45.13 83.15 38.08"/><polygon class="cls-39" points="76.18 48.14 74.88 47.39 74.98 46.78 87.02 39.78 88.69 40.58 88.38 41.1 76.18 48.14"/><polygon class="cls-58" points="87.08 40.35 88.38 41.1 89.22 40.61 87.08 39.38 74.04 46.91 74.88 47.39 87.08 40.35"/><g class="cls-32"><polygon class="cls-33" points="35.34 118.2 75.72 93.82 75.72 66.17 35.34 42.86 35.34 118.2"/></g><path class="cls-59" d="M74.12,70.19a3.55,3.55,0,0,0-1.61-2.78,1.13,1.13,0,0,0-1.14-.11h0L70.24,68l.7,0a1.83,1.83,0,0,0,0,.35,3.55,3.55,0,0,0,1.61,2.78,1.81,1.81,0,0,0,.34.15l-.33.61,1.11-.65h0A1.12,1.12,0,0,0,74.12,70.19Z"/><path class="cls-60" d="M73,70.86c0,1-.72,1.44-1.61.93A3.55,3.55,0,0,1,69.77,69c0-1,.72-1.44,1.61-.93A3.55,3.55,0,0,1,73,70.86Z"/><path class="cls-39" d="M72.3,70.47c0,.59-.41.83-.92.53a2,2,0,0,1-.92-1.6c0-.59.41-.83.92-.53A2,2,0,0,1,72.3,70.47Z"/><path class="cls-61" d="M40.26,49.39a3.55,3.55,0,0,0-1.61-2.78,1.12,1.12,0,0,0-1.14-.11h0l-1.14.67.7,0a1.84,1.84,0,0,0,0,.35,3.55,3.55,0,0,0,1.61,2.78,1.8,1.8,0,0,0,.34.15l-.33.61,1.11-.65h0A1.12,1.12,0,0,0,40.26,49.39Z"/><path class="cls-62" d="M39.11,50.06c0,1-.72,1.44-1.61.93A3.55,3.55,0,0,1,35.9,48.2c0-1,.72-1.44,1.61-.93A3.55,3.55,0,0,1,39.11,50.06Z"/><path class="cls-39" d="M38.43,49.66c0,.59-.41.83-.92.53a2,2,0,0,1-.92-1.6c0-.59.41-.83.92-.53A2,2,0,0,1,38.43,49.66Z"/><path class="cls-63" d="M74.12,150.33a3.55,3.55,0,0,0-1.61-2.78,1.12,1.12,0,0,0-1.14-.11h0l-1.14.67.7,0a1.83,1.83,0,0,0,0,.35,3.55,3.55,0,0,0,1.61,2.78,1.8,1.8,0,0,0,.34.15l-.33.61,1.11-.65h0A1.12,1.12,0,0,0,74.12,150.33Z"/><path class="cls-64" d="M73,151c0,1-.72,1.44-1.61.93a3.55,3.55,0,0,1-1.61-2.78c0-1,.72-1.44,1.61-.93A3.55,3.55,0,0,1,73,151Z"/><path class="cls-39" d="M72.3,150.61c0,.59-.41.83-.92.53a2,2,0,0,1-.92-1.6c0-.59.41-.83.92-.53A2,2,0,0,1,72.3,150.61Z"/><path class="cls-65" d="M40.26,129.53a3.55,3.55,0,0,0-1.61-2.78,1.13,1.13,0,0,0-1.14-.11h0l-1.14.67.7,0a1.84,1.84,0,0,0,0,.35,3.55,3.55,0,0,0,1.61,2.78,1.81,1.81,0,0,0,.34.15l-.33.61,1.11-.65h0A1.12,1.12,0,0,0,40.26,129.53Z"/><path class="cls-66" d="M39.11,130.2c0,1-.72,1.44-1.61.93a3.55,3.55,0,0,1-1.61-2.78c0-1,.72-1.44,1.61-.93A3.55,3.55,0,0,1,39.11,130.2Z"/><path class="cls-39" d="M38.43,129.8c0,.59-.41.83-.92.53a2,2,0,0,1-.92-1.6c0-.59.41-.83.92-.53A2,2,0,0,1,38.43,129.8Z"/><polygon class="cls-27" points="49.3 82.24 40.4 77.1 40.4 75.15 49.3 80.28 49.3 82.24"/><polygon class="cls-27" points="53.87 84.87 50.66 83.02 50.66 81.07 53.87 82.92 53.87 84.87"/><polygon class="cls-27" points="57.4 86.92 55.22 85.66 55.22 83.7 57.4 84.96 57.4 86.92"/><polygon class="cls-27" points="45.25 84.36 40.4 81.56 40.4 79.61 45.25 82.41 45.25 84.36"/><polygon class="cls-27" points="52.55 88.58 46.61 85.15 46.61 83.19 52.55 86.63 52.55 88.58"/><polygon class="cls-27" points="56.09 90.62 53.91 89.36 53.91 87.41 56.09 88.67 56.09 90.62"/><polygon class="cls-27" points="59.45 92.56 57.28 91.31 57.28 89.35 59.45 90.61 59.45 92.56"/><polygon class="cls-27" points="43.91 88.06 40.4 86.03 40.4 84.08 43.91 86.1 43.91 88.06"/><polygon class="cls-27" points="46.47 89.53 45.27 88.84 45.27 86.89 46.47 87.58 46.47 89.53"/><polygon class="cls-27" points="50.01 91.57 47.83 90.32 47.83 88.36 50.01 89.62 50.01 91.57"/><polygon class="cls-27" points="53.35 97.97 40.4 90.49 40.4 88.54 53.35 96.02 53.35 97.97"/><polygon class="cls-27" points="57.91 100.61 54.71 98.75 54.71 96.8 57.91 98.65 57.91 100.61"/><polygon class="cls-27" points="43.91 96.98 40.4 94.96 40.4 93 43.91 95.03 43.91 96.98"/><polygon class="cls-27" points="52.14 101.74 45.27 97.77 45.27 95.81 52.14 99.78 52.14 101.74"/><polygon class="cls-27" points="55.68 103.78 53.5 102.52 53.5 100.57 55.68 101.83 55.68 103.78"/><polygon class="cls-27" points="47.58 103.57 40.4 99.42 40.4 97.47 47.58 101.61 47.58 103.57"/><polygon class="cls-27" points="54.13 107.35 48.94 104.35 48.94 102.4 54.13 105.39 54.13 107.35"/><polygon class="cls-27" points="59 110.16 55.49 108.13 55.49 106.18 59 108.21 59 110.16"/><polygon class="cls-27" points="42.83 105.29 40.4 103.89 40.4 101.93 42.83 103.33 42.83 105.29"/><polygon class="cls-27" points="47.39 107.92 44.19 106.07 44.19 104.12 47.39 105.97 47.39 107.92"/><polygon class="cls-27" points="53.91 111.69 48.75 108.71 48.75 106.75 53.91 109.73 53.91 111.69"/><polygon class="cls-27" points="47.83 112.64 40.4 108.35 40.4 106.4 47.83 110.69 47.83 112.64"/><polygon class="cls-27" points="56.15 117.44 49.19 113.42 49.19 111.47 56.15 115.49 56.15 117.44"/><polygon class="cls-27" points="59.68 119.48 57.51 118.23 57.51 116.27 59.68 117.53 59.68 119.48"/><polygon class="cls-27" points="63.08 121.44 60.9 120.19 60.9 118.23 63.08 119.49 63.08 121.44"/><polygon class="cls-27" points="44.85 115.39 40.4 112.82 40.4 110.86 44.85 113.43 44.85 115.39"/><polygon class="cls-27" points="63.46 90.41 69.63 93.98 69.63 92.02 63.46 88.46 63.46 90.41"/><polygon class="cls-27" points="64.78 95.64 69.63 98.44 69.63 96.49 64.78 93.69 64.78 95.64"/><polygon class="cls-27" points="66.12 100.88 69.63 102.91 69.63 100.95 66.12 98.92 66.12 100.88"/><polygon class="cls-27" points="64.53 104.42 69.63 107.37 69.63 105.42 64.53 102.47 64.53 104.42"/><polygon class="cls-27" points="66.12 109.81 69.63 111.83 69.63 109.88 66.12 107.85 66.12 109.81"/><polygon class="cls-27" points="65.18 113.73 69.63 116.3 69.63 114.34 65.18 111.78 65.18 113.73"/><polygon class="cls-27" points="67.21 119.36 69.63 120.76 69.63 118.81 67.21 117.41 67.21 119.36"/><polygon class="cls-27" points="64.93 122.52 69.63 125.23 69.63 123.27 64.93 120.56 64.93 122.52"/><polygon class="cls-27" points="65.18 127.12 69.63 129.69 69.63 127.74 65.18 125.17 65.18 127.12"/><polygon class="cls-27" points="48.1 117.26 46.21 116.17 46.21 114.22 48.1 115.31 48.1 117.26"/><polygon class="cls-27" points="53.72 120.51 49.46 118.05 49.46 116.09 53.72 118.55 53.72 120.51"/><polygon class="cls-27" points="57.25 135.53 50.06 131.38 50.06 129.42 57.25 133.57 57.25 135.53"/><polygon class="cls-27" points="62.17 138.37 59.34 136.73 59.34 134.78 62.17 136.41 62.17 138.37"/><g class="cls-67"><path class="cls-68" d="M120.47,113.39l-.32-.19c-1.19-.69-2.15,0-2.15,1.63v93a5.15,5.15,0,0,0,2.15,4.11l.32.19c1.19.69,2.15,0,2.15-1.63v-93A5.15,5.15,0,0,0,120.47,113.39Z"/></g><g class="cls-69"><path class="cls-70" d="M129.14,133.22l-.32-.19c-1.19-.69-2.15,0-2.15,1.63v78.22a5.15,5.15,0,0,0,2.15,4.11l.32.19c1.19.69,2.15,0,2.15-1.63V137.33A5.15,5.15,0,0,0,129.14,133.22Z"/></g><g class="cls-71"><path class="cls-72" d="M137.81,156.64l-.32-.19c-1.19-.69-2.15,0-2.15,1.63v29.31a5.15,5.15,0,0,0,2.15,4.11l.32.19c1.19.69,2.15,0,2.15-1.63V160.75A5.15,5.15,0,0,0,137.81,156.64Z"/></g><g class="cls-73"><path class="cls-74" d="M146.4,169.5l-.32-.19c-1.19-.69-2.15,0-2.15,1.63v11.24a5.15,5.15,0,0,0,2.15,4.11l.32.19c1.19.69,2.15,0,2.15-1.63V173.6A5.15,5.15,0,0,0,146.4,169.5Z"/></g><g class="cls-75"><path class="cls-76" d="M31,113.39l.32-.19c1.19-.69,2.15,0,2.15,1.63v93A5.15,5.15,0,0,1,31.29,212l-.32.19c-1.19.69-2.15,0-2.15-1.63v-93A5.15,5.15,0,0,1,31,113.39Z"/></g><g class="cls-77"><path class="cls-78" d="M22.3,133.22l.32-.19c1.19-.69,2.15,0,2.15,1.63v78.22A5.15,5.15,0,0,1,22.63,217l-.32.19c-1.19.69-2.15,0-2.15-1.63V137.33A5.15,5.15,0,0,1,22.3,133.22Z"/></g><g class="cls-79"><path class="cls-80" d="M13.64,156.64l.32-.19c1.19-.69,2.15,0,2.15,1.63v29.31A5.15,5.15,0,0,1,14,191.5l-.32.19c-1.19.69-2.15,0-2.15-1.63V160.75A5.15,5.15,0,0,1,13.64,156.64Z"/></g><g class="cls-81"><path class="cls-82" d="M5,169.5l.32-.19c1.19-.69,2.15,0,2.15,1.63v11.24a5.15,5.15,0,0,1-2.15,4.11l-.32.19c-1.19.69-2.15,0-2.15-1.63V173.6A5.15,5.15,0,0,1,5,169.5Z"/></g></g><path class="cls-27" d="M42.52,64.68c-.3.87-.5,1-1.1.61l-.2-.12-.05-.1v-.48l.05,0,.2.12c.25.14.35.13.45,0v-.21L41,61v-.48l0,0,.3.17.05.1.7,3,.1.06.7-2.16.05,0,.3.17.05.1v.49Z"/><path class="cls-27" d="M45.19,66.42a2.9,2.9,0,0,1-1.26-2.53c0-1.11.5-1.52,1.26-1.08l.05,0a2.89,2.89,0,0,1,1.27,2.53c0,1.11-.51,1.52-1.27,1.08Zm.05-.6c.46.26.76,0,.76-.75a1.8,1.8,0,0,0-.76-1.62l-.05,0c-.46-.26-.76,0-.76.75a1.8,1.8,0,0,0,.76,1.62Z"/><path class="cls-27" d="M49.37,68.76,49,68.55l-.05-.1-.05-.31-.05,0s-.2.3-.66,0a2.34,2.34,0,0,1-1-2v-2l.05,0,.41.23.05.1v2a1.32,1.32,0,0,0,.56,1.16c.36.21.66,0,.66-.74V65.07L49,65l.41.23.05.1v3.36Z"/><path class="cls-27" d="M52.71,68.43l-.05,0-.41-.24-.05-.1a1.09,1.09,0,0,0-.57-1c-.46-.26-.72-.13-.72.71v1.75l-.05,0-.41-.24-.05-.1V65.92l.05,0,.36.21.05.1.05.31.05,0s.21-.3.72,0A2.15,2.15,0,0,1,52.71,68.43Z"/><path class="cls-27" d="M58.83,74.2,58.47,74l-.05-.1-.05-.31-.05,0s-.21.3-.73,0a2.86,2.86,0,0,1-1.15-2.49c0-1.06.42-1.6,1.15-1.18a1.83,1.83,0,0,1,.73.84l.05,0v-1.7l.05,0,.42.24.05.1v4.81Zm-1.2-3.66c-.42-.24-.68,0-.68.81a1.75,1.75,0,0,0,.68,1.59c.42.24.73.07.73-.78A1.75,1.75,0,0,0,57.63,70.55Z"/><path class="cls-27" d="M62,76l-.37-.21-.05-.1-.05-.31-.05,0s-.21.3-.79,0a1.84,1.84,0,0,1-.94-1.68c0-.85.52-.83,1.21-.44a3.27,3.27,0,0,1,.53.37l.05,0v-.14a1,1,0,0,0-.58-1c-.37-.21-.58-.19-.58.09l-.05,0-.42-.24-.05-.1c0-.57.31-.88,1.1-.43A2.23,2.23,0,0,1,62.09,74v2Zm-.47-1.76-.05-.1a2.33,2.33,0,0,0-.47-.34c-.47-.27-.73-.28-.73.15a.84.84,0,0,0,.52.8c.42.24.74.07.74-.29Z"/><path class="cls-27" d="M63.41,74l-.05-.1-.42-.24-.05-.1v-.5l.05,0,.42.24.05,0v-.92l.05,0,.42.24.05.1v.92l.05.1.9.51.05.1v.5l-.05,0-.9-.51-.05,0v1.42a1.18,1.18,0,0,0,.53,1.16c.21.12.48.13.48-.37v-.14l.05,0,.42.24.05.1v.14c0,1-.58.95-1,.7a2.3,2.3,0,0,1-1.06-2.1Z"/><path class="cls-27" d="M68.52,79.77l-.37-.22-.05-.1L68,79.14l-.05,0s-.21.31-.8,0a1.86,1.86,0,0,1-1-1.69c0-.86.53-.84,1.23-.44a3.34,3.34,0,0,1,.53.38l.05,0v-.14a1,1,0,0,0-.59-1c-.37-.21-.59-.19-.59.09l-.05,0L66.38,76l-.05-.1c0-.57.32-.89,1.12-.43a2.25,2.25,0,0,1,1.12,2.21v2ZM68,78l-.05-.1a2.38,2.38,0,0,0-.48-.35c-.48-.28-.75-.29-.75.14a.85.85,0,0,0,.53.81c.43.25.75.07.75-.29Z"/><path class="cls-27" d="M43,70.82l-.05,0-.4-.23-.05-.1-.35-2.42-.05,0-.35,2-.05,0-.4-.23-.05-.1-.5-3.13v-.48l0,0,.3.17.05.1.35,2.42.05,0,.35-2,.05,0,.35.2.05.1.35,2.42.05,0,.35-2,.05,0,.3.17.05.1v.49Z"/><path class="cls-27" d="M46.26,72.77l-.36-.21-.05-.1-.05-.31-.05,0s-.2.3-.76,0a1.81,1.81,0,0,1-.91-1.64c0-.83.51-.82,1.16-.44a3.14,3.14,0,0,1,.51.36l.05,0v-.14a1,1,0,0,0-.56-.95c-.35-.21-.56-.18-.56.09l-.05,0-.4-.23-.05-.1c0-.56.3-.87,1.06-.43a2.19,2.19,0,0,1,1.06,2.15v2ZM45.8,71l-.05-.1a2.24,2.24,0,0,0-.46-.33c-.46-.26-.71-.27-.71.15a.82.82,0,0,0,.51.78c.41.24.71.06.71-.28Z"/><path class="cls-27" d="M49.57,72.47l-.05,0-.41-.24-.05-.1a1.09,1.09,0,0,0-.56-1c-.46-.27-.71-.13-.71.7v1.74l-.05,0-.41-.24-.05-.1V70l.05,0,.36.21.05.1.05.31.05,0s.2-.3.71,0A2.16,2.16,0,0,1,49.57,72.47Z"/><path class="cls-27" d="M50.19,73.31c0-1,.36-1.61,1.23-1.11a2.85,2.85,0,0,1,1.23,2.54V75l-.05,0-1.8-1-.05,0a1.51,1.51,0,0,0,.72,1.26c.26.15.46.2.57-.09l.05,0,.41.24.05.1c-.05.53-.41.81-1.08.42A2.87,2.87,0,0,1,50.19,73.31Zm1.9.75a1.41,1.41,0,0,0-.67-1.23c-.62-.36-.67.24-.67.45l.05.1,1.23.71Z"/><path class="cls-27" d="M55.71,78.28,55.29,78l-.05-.1v-2a1.34,1.34,0,0,0-.57-1.17c-.41-.24-.72-.14-.72.71v1.76l-.05,0L53.48,77l-.05-.1V72.1l.05,0,.41.24.05.1v1.69l.05,0s.21-.3.72,0a2.3,2.3,0,0,1,1,2.08v2Z"/><path class="cls-27" d="M57.74,79.53a3,3,0,0,1-1.3-2.59c0-1.13.52-1.53,1.3-1.08l.05,0a3,3,0,0,1,1.31,2.59c0,1.13-.52,1.53-1.31,1.08Zm.05-.6c.47.27.78,0,.78-.75a1.85,1.85,0,0,0-.78-1.65l-.05,0c-.47-.27-.78,0-.78.75a1.85,1.85,0,0,0,.78,1.65Z"/><path class="cls-27" d="M62,82l-.37-.21-.05-.1-.05-.31-.05,0s-.21.3-.68,0a2.4,2.4,0,0,1-1-2.1V77.18l.05,0,.42.24.05.1v2.05a1.35,1.35,0,0,0,.58,1.19c.37.21.68,0,.68-.74V78.21l.05,0,.42.24.05.1v3.41Z"/><path class="cls-27" d="M63,79.92c0-.64.42-.75,1.11-.35a2,2,0,0,1,1.11,1.71l-.05,0-.42-.25-.05-.1c0-.28-.16-.52-.58-.76s-.58-.19-.58,0,.21.55.74.93a2,2,0,0,1,1,1.65c0,.71-.42.89-1.17.46A2.23,2.23,0,0,1,63,81.38l.05,0,.42.25.05.1a1.11,1.11,0,0,0,.63.94c.42.25.64.23.64-.13s-.21-.55-.74-.93A2,2,0,0,1,63,79.92Z"/><path class="cls-27" d="M66.12,82.56c0-1,.37-1.64,1.28-1.11A2.92,2.92,0,0,1,68.68,84v.21l-.05,0-1.87-1.08-.05,0a1.55,1.55,0,0,0,.75,1.29c.27.15.48.21.59-.09l.05,0,.43.25.05.1c-.05.54-.43.82-1.12.42A3,3,0,0,1,66.12,82.56Zm2,.79a1.44,1.44,0,0,0-.69-1.26c-.64-.37-.69.24-.69.46l.05.1,1.28.74Z"/></svg>