<svg id="Layer_1" data-name="Layer 1" xmlns="http://www.w3.org/2000/svg" xmlns:xlink="http://www.w3.org/1999/xlink" viewBox="0 0 250 250"><defs><style>.cls-1{mask:url(#mask);filter:url(#luminosity-noclip-7);}.cls-10,.cls-12,.cls-2,.cls-4,.cls-6,.cls-8{mix-blend-mode:multiply;}.cls-2{fill:url(#_ÂÁ_Ï_ÌÌ_È_ËÂÌÚ_117);}.cls-3{mask:url(#mask-2);filter:url(#luminosity-noclip-12);}.cls-4{fill:url(#_ÂÁ_Ï_ÌÌ_È_ËÂÌÚ_114);}.cls-5{mask:url(#mask-3);filter:url(#luminosity-noclip-8);}.cls-6{fill:url(#_ÂÁ_Ï_ÌÌ_È_ËÂÌÚ_114-2);}.cls-7{mask:url(#mask-4);filter:url(#luminosity-noclip-9);}.cls-8{fill:url(#_ÂÁ_Ï_ÌÌ_È_ËÂÌÚ_114-3);}.cls-9{mask:url(#mask-5);filter:url(#luminosity-noclip-10);}.cls-10{fill:url(#_ÂÁ_Ï_ÌÌ_È_ËÂÌÚ_114-4);}.cls-11{mask:url(#mask-6);filter:url(#luminosity-noclip-11);}.cls-12{fill:url(#_ÂÁ_Ï_ÌÌ_È_ËÂÌÚ_114-5);}.cls-13{opacity:0.67;}.cls-14,.cls-17{fill:#424240;}.cls-15{opacity:0.9;}.cls-16{fill:#2d2d2d;stroke:#f2f2f0;stroke-miterlimit:10;stroke-width:0.25px;}.cls-17,.cls-19{opacity:0.66;}.cls-18{mask:url(#mask-7);}.cls-19{fill:url(#_ÂÁ_Ï_ÌÌ_È_ËÂÌÚ_19);}.cls-20{fill:#2bd978;}.cls-21{fill:#f2f2f0;}.cls-22{fill:#fff;}.cls-23{fill:url(#_ÂÁ_Ï_ÌÌ_È_ËÂÌÚ_17);}.cls-24{fill:#1e1e1e;}.cls-25{opacity:0.51;}.cls-26{fill:#3a3a3a;}.cls-27{mask:url(#mask-8);}.cls-101,.cls-28,.cls-47,.cls-65,.cls-83{opacity:0.78;}.cls-28{fill:url(#_ÂÁ_Ï_ÌÌ_È_ËÂÌÚ_18);}.cls-29{fill:url(#_ÂÁ_Ï_ÌÌ_È_ËÂÌÚ_17-2);}.cls-30{fill:url(#_ÂÁ_Ï_ÌÌ_È_ËÂÌÚ_17-3);}.cls-31{fill:url(#_ÂÁ_Ï_ÌÌ_È_ËÂÌÚ_16);}.cls-32{fill:#232323;}.cls-33{fill:url(#_ÂÁ_Ï_ÌÌ_È_ËÂÌÚ_16-2);}.cls-34{fill:url(#_ÂÁ_Ï_ÌÌ_È_ËÂÌÚ_16-3);}.cls-35{fill:url(#_ÂÁ_Ï_ÌÌ_È_ËÂÌÚ_16-4);}.cls-36{fill:url(#_ÂÁ_Ï_ÌÌ_È_ËÂÌÚ_16-5);}.cls-37{fill:url(#_ÂÁ_Ï_ÌÌ_È_ËÂÌÚ_17-4);}.cls-38{fill:url(#_ÂÁ_Ï_ÌÌ_È_ËÂÌÚ_16-6);}.cls-39{fill:url(#_ÂÁ_Ï_ÌÌ_È_ËÂÌÚ_17-5);}.cls-40{fill:url(#_ÂÁ_Ï_ÌÌ_È_ËÂÌÚ_16-7);}.cls-41{fill:url(#_ÂÁ_Ï_ÌÌ_È_ËÂÌÚ_17-6);}.cls-42{fill:url(#_ÂÁ_Ï_ÌÌ_È_ËÂÌÚ_16-8);}.cls-43{fill:url(#_ÂÁ_Ï_ÌÌ_È_ËÂÌÚ_17-7);}.cls-44{fill:url(#_ÂÁ_Ï_ÌÌ_È_ËÂÌÚ_16-9);}.cls-45{fill:url(#_ÂÁ_Ï_ÌÌ_È_ËÂÌÚ_17-8);}.cls-46{mask:url(#mask-9);}.cls-47{fill:url(#_ÂÁ_Ï_ÌÌ_È_ËÂÌÚ_18-2);}.cls-48{fill:url(#_ÂÁ_Ï_ÌÌ_È_ËÂÌÚ_17-9);}.cls-49{fill:url(#_ÂÁ_Ï_ÌÌ_È_ËÂÌÚ_17-10);}.cls-50{fill:url(#_ÂÁ_Ï_ÌÌ_È_ËÂÌÚ_16-10);}.cls-51{fill:url(#_ÂÁ_Ï_ÌÌ_È_ËÂÌÚ_16-11);}.cls-52{fill:url(#_ÂÁ_Ï_ÌÌ_È_ËÂÌÚ_16-12);}.cls-53{fill:url(#_ÂÁ_Ï_ÌÌ_È_ËÂÌÚ_16-13);}.cls-54{fill:url(#_ÂÁ_Ï_ÌÌ_È_ËÂÌÚ_16-14);}.cls-55{fill:url(#_ÂÁ_Ï_ÌÌ_È_ËÂÌÚ_17-11);}.cls-56{fill:url(#_ÂÁ_Ï_ÌÌ_È_ËÂÌÚ_16-15);}.cls-57{fill:url(#_ÂÁ_Ï_ÌÌ_È_ËÂÌÚ_17-12);}.cls-58{fill:url(#_ÂÁ_Ï_ÌÌ_È_ËÂÌÚ_16-16);}.cls-59{fill:url(#_ÂÁ_Ï_ÌÌ_È_ËÂÌÚ_17-13);}.cls-60{fill:url(#_ÂÁ_Ï_ÌÌ_È_ËÂÌÚ_16-17);}.cls-61{fill:url(#_ÂÁ_Ï_ÌÌ_È_ËÂÌÚ_17-14);}.cls-62{fill:url(#_ÂÁ_Ï_ÌÌ_È_ËÂÌÚ_16-18);}.cls-63{fill:url(#_ÂÁ_Ï_ÌÌ_È_ËÂÌÚ_17-15);}.cls-64{mask:url(#mask-10);}.cls-65{fill:url(#_ÂÁ_Ï_ÌÌ_È_ËÂÌÚ_18-3);}.cls-66{fill:url(#_ÂÁ_Ï_ÌÌ_È_ËÂÌÚ_17-16);}.cls-67{fill:url(#_ÂÁ_Ï_ÌÌ_È_ËÂÌÚ_17-17);}.cls-68{fill:url(#_ÂÁ_Ï_ÌÌ_È_ËÂÌÚ_16-19);}.cls-69{fill:url(#_ÂÁ_Ï_ÌÌ_È_ËÂÌÚ_16-20);}.cls-70{fill:url(#_ÂÁ_Ï_ÌÌ_È_ËÂÌÚ_16-21);}.cls-71{fill:url(#_ÂÁ_Ï_ÌÌ_È_ËÂÌÚ_16-22);}.cls-72{fill:url(#_ÂÁ_Ï_ÌÌ_È_ËÂÌÚ_16-23);}.cls-73{fill:url(#_ÂÁ_Ï_ÌÌ_È_ËÂÌÚ_17-18);}.cls-74{fill:url(#_ÂÁ_Ï_ÌÌ_È_ËÂÌÚ_16-24);}.cls-75{fill:url(#_ÂÁ_Ï_ÌÌ_È_ËÂÌÚ_17-19);}.cls-76{fill:url(#_ÂÁ_Ï_ÌÌ_È_ËÂÌÚ_16-25);}.cls-77{fill:url(#_ÂÁ_Ï_ÌÌ_È_ËÂÌÚ_17-20);}.cls-78{fill:url(#_ÂÁ_Ï_ÌÌ_È_ËÂÌÚ_16-26);}.cls-79{fill:url(#_ÂÁ_Ï_ÌÌ_È_ËÂÌÚ_17-21);}.cls-80{fill:url(#_ÂÁ_Ï_ÌÌ_È_ËÂÌÚ_16-27);}.cls-81{fill:url(#_ÂÁ_Ï_ÌÌ_È_ËÂÌÚ_17-22);}.cls-82{mask:url(#mask-11);}.cls-83{fill:url(#_ÂÁ_Ï_ÌÌ_È_ËÂÌÚ_18-4);}.cls-84{fill:url(#_ÂÁ_Ï_ÌÌ_È_ËÂÌÚ_17-23);}.cls-85{fill:url(#_ÂÁ_Ï_ÌÌ_È_ËÂÌÚ_17-24);}.cls-86{fill:url(#_ÂÁ_Ï_ÌÌ_È_ËÂÌÚ_16-28);}.cls-87{fill:url(#_ÂÁ_Ï_ÌÌ_È_ËÂÌÚ_16-29);}.cls-88{fill:url(#_ÂÁ_Ï_ÌÌ_È_ËÂÌÚ_16-30);}.cls-89{fill:url(#_ÂÁ_Ï_ÌÌ_È_ËÂÌÚ_16-31);}.cls-90{fill:url(#_ÂÁ_Ï_ÌÌ_È_ËÂÌÚ_16-32);}.cls-91{fill:url(#_ÂÁ_Ï_ÌÌ_È_ËÂÌÚ_17-25);}.cls-92{fill:url(#_ÂÁ_Ï_ÌÌ_È_ËÂÌÚ_16-33);}.cls-93{fill:url(#_ÂÁ_Ï_ÌÌ_È_ËÂÌÚ_17-26);}.cls-94{fill:url(#_ÂÁ_Ï_ÌÌ_È_ËÂÌÚ_16-34);}.cls-95{fill:url(#_ÂÁ_Ï_ÌÌ_È_ËÂÌÚ_17-27);}.cls-96{fill:url(#_ÂÁ_Ï_ÌÌ_È_ËÂÌÚ_16-35);}.cls-97{fill:url(#_ÂÁ_Ï_ÌÌ_È_ËÂÌÚ_17-28);}.cls-98{fill:url(#_ÂÁ_Ï_ÌÌ_È_ËÂÌÚ_16-36);}.cls-99{fill:url(#_ÂÁ_Ï_ÌÌ_È_ËÂÌÚ_17-29);}.cls-100{mask:url(#mask-12);}.cls-101{fill:url(#_ÂÁ_Ï_ÌÌ_È_ËÂÌÚ_18-5);}.cls-102{fill:url(#_ÂÁ_Ï_ÌÌ_È_ËÂÌÚ_17-30);}.cls-103{fill:url(#_ÂÁ_Ï_ÌÌ_È_ËÂÌÚ_17-31);}.cls-104{fill:url(#_ÂÁ_Ï_ÌÌ_È_ËÂÌÚ_16-37);}.cls-105{fill:url(#_ÂÁ_Ï_ÌÌ_È_ËÂÌÚ_16-38);}.cls-106{fill:url(#_ÂÁ_Ï_ÌÌ_È_ËÂÌÚ_16-39);}.cls-107{fill:url(#_ÂÁ_Ï_ÌÌ_È_ËÂÌÚ_16-40);}.cls-108{fill:url(#_ÂÁ_Ï_ÌÌ_È_ËÂÌÚ_16-41);}.cls-109{fill:url(#_ÂÁ_Ï_ÌÌ_È_ËÂÌÚ_17-32);}.cls-110{fill:url(#_ÂÁ_Ï_ÌÌ_È_ËÂÌÚ_16-42);}.cls-111{fill:url(#_ÂÁ_Ï_ÌÌ_È_ËÂÌÚ_17-33);}.cls-112{fill:url(#_ÂÁ_Ï_ÌÌ_È_ËÂÌÚ_16-43);}.cls-113{fill:url(#_ÂÁ_Ï_ÌÌ_È_ËÂÌÚ_17-34);}.cls-114{fill:url(#_ÂÁ_Ï_ÌÌ_È_ËÂÌÚ_16-44);}.cls-115{fill:url(#_ÂÁ_Ï_ÌÌ_È_ËÂÌÚ_17-35);}.cls-116{fill:url(#_ÂÁ_Ï_ÌÌ_È_ËÂÌÚ_16-45);}.cls-117{filter:url(#luminosity-noclip-6);}.cls-118{filter:url(#luminosity-noclip-5);}.cls-119{filter:url(#luminosity-noclip-4);}.cls-120{filter:url(#luminosity-noclip-3);}.cls-121{filter:url(#luminosity-noclip-2);}.cls-122{filter:url(#luminosity-noclip);}</style><filter id="luminosity-noclip" x="83.28" y="-8317" width="84.69" height="32766" filterUnits="userSpaceOnUse" color-interpolation-filters="sRGB"><feFlood flood-color="#fff" result="bg"/><feBlend in="SourceGraphic" in2="bg"/></filter><mask id="mask" x="83.28" y="-8317" width="84.69" height="32766" maskUnits="userSpaceOnUse"><g class="cls-122"/></mask><radialGradient id="_ÂÁ_Ï_ÌÌ_È_ËÂÌÚ_117" cx="125.63" cy="166.78" r="34.57" gradientUnits="userSpaceOnUse"><stop offset="0" stop-color="#e6e6e6"/><stop offset="0.1" stop-color="#e0e0e0"/><stop offset="0.23" stop-color="#cdcdcd"/><stop offset="0.39" stop-color="#afafaf"/><stop offset="0.57" stop-color="#868686"/><stop offset="0.75" stop-color="#505050"/><stop offset="0.95" stop-color="#101010"/><stop offset="1"/></radialGradient><filter id="luminosity-noclip-2" x="84.44" y="-8317" width="40.38" height="32766" filterUnits="userSpaceOnUse" color-interpolation-filters="sRGB"><feFlood flood-color="#fff" result="bg"/><feBlend in="SourceGraphic" in2="bg"/></filter><mask id="mask-2" x="84.44" y="-8317" width="40.38" height="32766" maskUnits="userSpaceOnUse"><g class="cls-121"/></mask><linearGradient id="_ÂÁ_Ï_ÌÌ_È_ËÂÌÚ_114" x1="84.44" y1="99.85" x2="124.82" y2="99.85" gradientUnits="userSpaceOnUse"><stop offset="0"/><stop offset="0.05" stop-color="#2f2f2f"/><stop offset="0.1" stop-color="#5a5a5a"/><stop offset="0.15" stop-color="#828282"/><stop offset="0.22" stop-color="#a4a4a4"/><stop offset="0.28" stop-color="silver"/><stop offset="0.36" stop-color="#d7d7d7"/><stop offset="0.44" stop-color="#e9e9e9"/><stop offset="0.54" stop-color="#f6f6f6"/><stop offset="0.68" stop-color="#fdfdfd"/><stop offset="1" stop-color="#fff"/></linearGradient><filter id="luminosity-noclip-3" x="85.32" y="-8317" width="40.38" height="32766" filterUnits="userSpaceOnUse" color-interpolation-filters="sRGB"><feFlood flood-color="#fff" result="bg"/><feBlend in="SourceGraphic" in2="bg"/></filter><mask id="mask-3" x="85.32" y="-8317" width="40.38" height="32766" maskUnits="userSpaceOnUse"><g class="cls-120"/></mask><linearGradient id="_ÂÁ_Ï_ÌÌ_È_ËÂÌÚ_114-2" x1="85.32" y1="46.61" x2="125.69" y2="46.61" xlink:href="#_ÂÁ_Ï_ÌÌ_È_ËÂÌÚ_114"/><filter id="luminosity-noclip-4" x="130.97" y="-8317" width="40.38" height="32766" filterUnits="userSpaceOnUse" color-interpolation-filters="sRGB"><feFlood flood-color="#fff" result="bg"/><feBlend in="SourceGraphic" in2="bg"/></filter><mask id="mask-4" x="130.97" y="-8317" width="40.38" height="32766" maskUnits="userSpaceOnUse"><g class="cls-119"/></mask><linearGradient id="_ÂÁ_Ï_ÌÌ_È_ËÂÌÚ_114-3" x1="130.97" y1="72.98" x2="171.35" y2="72.98" xlink:href="#_ÂÁ_Ï_ÌÌ_È_ËÂÌÚ_114"/><filter id="luminosity-noclip-5" x="38.79" y="-8317" width="40.38" height="32766" filterUnits="userSpaceOnUse" color-interpolation-filters="sRGB"><feFlood flood-color="#fff" result="bg"/><feBlend in="SourceGraphic" in2="bg"/></filter><mask id="mask-5" x="38.79" y="-8317" width="40.38" height="32766" maskUnits="userSpaceOnUse"><g class="cls-118"/></mask><linearGradient id="_ÂÁ_Ï_ÌÌ_È_ËÂÌÚ_114-4" x1="38.79" y1="73.48" x2="79.17" y2="73.48" xlink:href="#_ÂÁ_Ï_ÌÌ_È_ËÂÌÚ_114"/><filter id="luminosity-noclip-6" x="38.79" y="-8317" width="40.38" height="32766" filterUnits="userSpaceOnUse" color-interpolation-filters="sRGB"><feFlood flood-color="#fff" result="bg"/><feBlend in="SourceGraphic" in2="bg"/></filter><mask id="mask-6" x="38.79" y="-8317" width="40.38" height="32766" maskUnits="userSpaceOnUse"><g class="cls-117"/></mask><linearGradient id="_ÂÁ_Ï_ÌÌ_È_ËÂÌÚ_114-5" x1="38.79" y1="73.48" x2="79.17" y2="73.48" xlink:href="#_ÂÁ_Ï_ÌÌ_È_ËÂÌÚ_114"/><filter id="luminosity-noclip-7" x="83.28" y="123.12" width="84.69" height="48.9" filterUnits="userSpaceOnUse" color-interpolation-filters="sRGB"><feFlood flood-color="#fff" result="bg"/><feBlend in="SourceGraphic" in2="bg"/></filter><mask id="mask-7" x="83.28" y="123.12" width="84.69" height="48.9" maskUnits="userSpaceOnUse"><g class="cls-1"><path class="cls-2" d="M122.81,171.4,84.33,149.19c-1.56-.9-1.36-2.47.44-3.51L122.37,124a6.75,6.75,0,0,1,6.08-.25l38.47,22.21c1.56.9,1.36,2.47-.44,3.51l-37.6,21.71A6.75,6.75,0,0,1,122.81,171.4Z"/></g></mask><radialGradient id="_ÂÁ_Ï_ÌÌ_È_ËÂÌÚ_19" cx="125.63" cy="166.78" r="34.57" gradientUnits="userSpaceOnUse"><stop offset="0" stop-color="#2bd978"/><stop offset="0.13" stop-color="#2cd376"/><stop offset="0.31" stop-color="#2fc06f"/><stop offset="0.51" stop-color="#33a264"/><stop offset="0.74" stop-color="#3a7954"/><stop offset="0.99" stop-color="#424441"/><stop offset="1" stop-color="#424240"/></radialGradient><linearGradient id="_ÂÁ_Ï_ÌÌ_È_ËÂÌÚ_17" x1="145.88" y1="134.97" x2="145.88" y2="49.76" gradientUnits="userSpaceOnUse"><stop offset="0" stop-color="#f2f2f0"/><stop offset="0.41" stop-color="#ededec"/><stop offset="0.9" stop-color="#dfdfde"/><stop offset="1" stop-color="#dbdbdb"/></linearGradient><filter id="luminosity-noclip-8" x="85.32" y="28.67" width="40.38" height="35.89" filterUnits="userSpaceOnUse" color-interpolation-filters="sRGB"><feFlood flood-color="#fff" result="bg"/><feBlend in="SourceGraphic" in2="bg"/></filter><mask id="mask-8" x="85.32" y="28.67" width="40.38" height="35.89" maskUnits="userSpaceOnUse"><g class="cls-5"><polygon class="cls-6" points="125.69 64.56 115.08 64.56 85.32 47.37 117.71 28.67 125.69 28.67 125.69 64.56"/></g></mask><linearGradient id="_ÂÁ_Ï_ÌÌ_È_ËÂÌÚ_18" x1="85.32" y1="46.61" x2="125.69" y2="46.61" gradientUnits="userSpaceOnUse"><stop offset="0" stop-color="#dbdbdb"/><stop offset="0.05" stop-color="#bdbdbc"/><stop offset="0.12" stop-color="#9c9c9b"/><stop offset="0.19" stop-color="#80807f"/><stop offset="0.28" stop-color="#696968"/><stop offset="0.37" stop-color="#575756"/><stop offset="0.49" stop-color="#4b4b49"/><stop offset="0.64" stop-color="#444442"/><stop offset="1" stop-color="#424240"/></linearGradient><linearGradient id="_ÂÁ_Ï_ÌÌ_È_ËÂÌÚ_17-2" x1="96.4" y1="45.58" x2="154.99" y2="45.58" xlink:href="#_ÂÁ_Ï_ÌÌ_È_ËÂÌÚ_17"/><linearGradient id="_ÂÁ_Ï_ÌÌ_È_ËÂÌÚ_17-3" x1="144.12" y1="61.67" x2="137" y2="49.24" xlink:href="#_ÂÁ_Ï_ÌÌ_È_ËÂÌÚ_17"/><linearGradient id="_ÂÁ_Ï_ÌÌ_È_ËÂÌÚ_16" x1="111.05" y1="55.77" x2="111.05" y2="36.8" gradientUnits="userSpaceOnUse"><stop offset="0" stop-color="#424240"/><stop offset="0.13" stop-color="#474745"/><stop offset="0.28" stop-color="#555553"/><stop offset="0.45" stop-color="#6d6d6b"/><stop offset="0.62" stop-color="#8e8e8c"/><stop offset="0.8" stop-color="#b9b9b7"/><stop offset="0.98" stop-color="#ececea"/><stop offset="1" stop-color="#f2f2f0"/></linearGradient><linearGradient id="_ÂÁ_Ï_ÌÌ_È_ËÂÌÚ_16-2" x1="112.2" y1="41.1" x2="127.37" y2="41.1" xlink:href="#_ÂÁ_Ï_ÌÌ_È_ËÂÌÚ_16"/><linearGradient id="_ÂÁ_Ï_ÌÌ_È_ËÂÌÚ_16-3" x1="116.14" y1="43.37" x2="131.31" y2="43.37" xlink:href="#_ÂÁ_Ï_ÌÌ_È_ËÂÌÚ_16"/><linearGradient id="_ÂÁ_Ï_ÌÌ_È_ËÂÌÚ_16-4" x1="120.08" y1="45.63" x2="135.25" y2="45.63" xlink:href="#_ÂÁ_Ï_ÌÌ_È_ËÂÌÚ_16"/><linearGradient id="_ÂÁ_Ï_ÌÌ_È_ËÂÌÚ_16-5" x1="124.02" y1="47.9" x2="139.19" y2="47.9" xlink:href="#_ÂÁ_Ï_ÌÌ_È_ËÂÌÚ_16"/><linearGradient id="_ÂÁ_Ï_ÌÌ_È_ËÂÌÚ_17-4" x1="120.21" y1="74.05" x2="124.09" y2="74.05" xlink:href="#_ÂÁ_Ï_ÌÌ_È_ËÂÌÚ_17"/><linearGradient id="_ÂÁ_Ï_ÌÌ_È_ËÂÌÚ_16-6" x1="119.74" y1="74.45" x2="122.95" y2="74.45" xlink:href="#_ÂÁ_Ï_ÌÌ_È_ËÂÌÚ_16"/><linearGradient id="_ÂÁ_Ï_ÌÌ_È_ËÂÌÚ_17-5" x1="86.35" y1="53.24" x2="90.23" y2="53.24" xlink:href="#_ÂÁ_Ï_ÌÌ_È_ËÂÌÚ_17"/><linearGradient id="_ÂÁ_Ï_ÌÌ_È_ËÂÌÚ_16-7" x1="85.87" y1="53.64" x2="89.09" y2="53.64" xlink:href="#_ÂÁ_Ï_ÌÌ_È_ËÂÌÚ_16"/><linearGradient id="_ÂÁ_Ï_ÌÌ_È_ËÂÌÚ_17-6" x1="120.21" y1="154.19" x2="124.09" y2="154.19" xlink:href="#_ÂÁ_Ï_ÌÌ_È_ËÂÌÚ_17"/><linearGradient id="_ÂÁ_Ï_ÌÌ_È_ËÂÌÚ_16-8" x1="119.74" y1="154.59" x2="122.95" y2="154.59" xlink:href="#_ÂÁ_Ï_ÌÌ_È_ËÂÌÚ_16"/><linearGradient id="_ÂÁ_Ï_ÌÌ_È_ËÂÌÚ_17-7" x1="86.35" y1="133.38" x2="90.23" y2="133.38" xlink:href="#_ÂÁ_Ï_ÌÌ_È_ËÂÌÚ_17"/><linearGradient id="_ÂÁ_Ï_ÌÌ_È_ËÂÌÚ_16-9" x1="85.87" y1="133.78" x2="89.09" y2="133.78" xlink:href="#_ÂÁ_Ï_ÌÌ_È_ËÂÌÚ_16"/><linearGradient id="_ÂÁ_Ï_ÌÌ_È_ËÂÌÚ_17-8" x1="191.54" y1="161.34" x2="191.54" y2="76.13" xlink:href="#_ÂÁ_Ï_ÌÌ_È_ËÂÌÚ_17"/><filter id="luminosity-noclip-9" x="130.97" y="55.03" width="40.38" height="35.89" filterUnits="userSpaceOnUse" color-interpolation-filters="sRGB"><feFlood flood-color="#fff" result="bg"/><feBlend in="SourceGraphic" in2="bg"/></filter><mask id="mask-9" x="130.97" y="55.03" width="40.38" height="35.89" maskUnits="userSpaceOnUse"><g class="cls-7"><polygon class="cls-8" points="171.35 90.92 160.74 90.92 130.97 73.73 163.36 55.03 171.35 55.03 171.35 90.92"/></g></mask><linearGradient id="_ÂÁ_Ï_ÌÌ_È_ËÂÌÚ_18-2" x1="130.97" y1="72.98" x2="171.35" y2="72.98" xlink:href="#_ÂÁ_Ï_ÌÌ_È_ËÂÌÚ_18"/><linearGradient id="_ÂÁ_Ï_ÌÌ_È_ËÂÌÚ_17-9" x1="142.05" y1="71.95" x2="200.65" y2="71.95" xlink:href="#_ÂÁ_Ï_ÌÌ_È_ËÂÌÚ_17"/><linearGradient id="_ÂÁ_Ï_ÌÌ_È_ËÂÌÚ_17-10" x1="189.78" y1="88.04" x2="182.66" y2="75.6" xlink:href="#_ÂÁ_Ï_ÌÌ_È_ËÂÌÚ_17"/><linearGradient id="_ÂÁ_Ï_ÌÌ_È_ËÂÌÚ_16-10" x1="156.7" y1="82.14" x2="156.7" y2="63.16" xlink:href="#_ÂÁ_Ï_ÌÌ_È_ËÂÌÚ_16"/><linearGradient id="_ÂÁ_Ï_ÌÌ_È_ËÂÌÚ_16-11" x1="157.85" y1="67.47" x2="173.03" y2="67.47" xlink:href="#_ÂÁ_Ï_ÌÌ_È_ËÂÌÚ_16"/><linearGradient id="_ÂÁ_Ï_ÌÌ_È_ËÂÌÚ_16-12" x1="161.79" y1="69.73" x2="176.97" y2="69.73" xlink:href="#_ÂÁ_Ï_ÌÌ_È_ËÂÌÚ_16"/><linearGradient id="_ÂÁ_Ï_ÌÌ_È_ËÂÌÚ_16-13" x1="165.73" y1="72" x2="180.9" y2="72" xlink:href="#_ÂÁ_Ï_ÌÌ_È_ËÂÌÚ_16"/><linearGradient id="_ÂÁ_Ï_ÌÌ_È_ËÂÌÚ_16-14" x1="169.67" y1="74.27" x2="184.84" y2="74.27" xlink:href="#_ÂÁ_Ï_ÌÌ_È_ËÂÌÚ_16"/><linearGradient id="_ÂÁ_Ï_ÌÌ_È_ËÂÌÚ_17-11" x1="165.86" y1="100.42" x2="169.75" y2="100.42" xlink:href="#_ÂÁ_Ï_ÌÌ_È_ËÂÌÚ_17"/><linearGradient id="_ÂÁ_Ï_ÌÌ_È_ËÂÌÚ_16-15" x1="165.39" y1="100.81" x2="168.6" y2="100.81" xlink:href="#_ÂÁ_Ï_ÌÌ_È_ËÂÌÚ_16"/><linearGradient id="_ÂÁ_Ï_ÌÌ_È_ËÂÌÚ_17-12" x1="132" y1="79.61" x2="135.88" y2="79.61" xlink:href="#_ÂÁ_Ï_ÌÌ_È_ËÂÌÚ_17"/><linearGradient id="_ÂÁ_Ï_ÌÌ_È_ËÂÌÚ_16-16" x1="131.53" y1="80.01" x2="134.74" y2="80.01" xlink:href="#_ÂÁ_Ï_ÌÌ_È_ËÂÌÚ_16"/><linearGradient id="_ÂÁ_Ï_ÌÌ_È_ËÂÌÚ_17-13" x1="165.86" y1="180.56" x2="169.75" y2="180.56" xlink:href="#_ÂÁ_Ï_ÌÌ_È_ËÂÌÚ_17"/><linearGradient id="_ÂÁ_Ï_ÌÌ_È_ËÂÌÚ_16-17" x1="165.39" y1="180.95" x2="168.6" y2="180.95" xlink:href="#_ÂÁ_Ï_ÌÌ_È_ËÂÌÚ_16"/><linearGradient id="_ÂÁ_Ï_ÌÌ_È_ËÂÌÚ_17-14" x1="132" y1="159.75" x2="135.88" y2="159.75" xlink:href="#_ÂÁ_Ï_ÌÌ_È_ËÂÌÚ_17"/><linearGradient id="_ÂÁ_Ï_ÌÌ_È_ËÂÌÚ_16-18" x1="131.53" y1="160.15" x2="134.74" y2="160.15" xlink:href="#_ÂÁ_Ï_ÌÌ_È_ËÂÌÚ_16"/><linearGradient id="_ÂÁ_Ï_ÌÌ_È_ËÂÌÚ_17-15" x1="99.36" y1="161.84" x2="99.36" y2="76.63" xlink:href="#_ÂÁ_Ï_ÌÌ_È_ËÂÌÚ_17"/><filter id="luminosity-noclip-10" x="38.79" y="55.54" width="40.38" height="35.89" filterUnits="userSpaceOnUse" color-interpolation-filters="sRGB"><feFlood flood-color="#fff" result="bg"/><feBlend in="SourceGraphic" in2="bg"/></filter><mask id="mask-10" x="38.79" y="55.54" width="40.38" height="35.89" maskUnits="userSpaceOnUse"><g class="cls-9"><polygon class="cls-10" points="79.17 91.43 68.56 91.43 38.8 74.24 71.19 55.54 79.17 55.54 79.17 91.43"/></g></mask><linearGradient id="_ÂÁ_Ï_ÌÌ_È_ËÂÌÚ_18-3" x1="38.79" y1="73.48" x2="79.17" y2="73.48" xlink:href="#_ÂÁ_Ï_ÌÌ_È_ËÂÌÚ_18"/><linearGradient id="_ÂÁ_Ï_ÌÌ_È_ËÂÌÚ_17-16" x1="49.88" y1="72.45" x2="108.47" y2="72.45" xlink:href="#_ÂÁ_Ï_ÌÌ_È_ËÂÌÚ_17"/><linearGradient id="_ÂÁ_Ï_ÌÌ_È_ËÂÌÚ_17-17" x1="97.6" y1="88.54" x2="90.48" y2="76.11" xlink:href="#_ÂÁ_Ï_ÌÌ_È_ËÂÌÚ_17"/><linearGradient id="_ÂÁ_Ï_ÌÌ_È_ËÂÌÚ_16-19" x1="64.52" y1="82.64" x2="64.52" y2="63.67" xlink:href="#_ÂÁ_Ï_ÌÌ_È_ËÂÌÚ_16"/><linearGradient id="_ÂÁ_Ï_ÌÌ_È_ËÂÌÚ_16-20" x1="65.68" y1="67.97" x2="80.85" y2="67.97" xlink:href="#_ÂÁ_Ï_ÌÌ_È_ËÂÌÚ_16"/><linearGradient id="_ÂÁ_Ï_ÌÌ_È_ËÂÌÚ_16-21" x1="69.62" y1="70.24" x2="84.79" y2="70.24" xlink:href="#_ÂÁ_Ï_ÌÌ_È_ËÂÌÚ_16"/><linearGradient id="_ÂÁ_Ï_ÌÌ_È_ËÂÌÚ_16-22" x1="73.56" y1="72.5" x2="88.73" y2="72.5" xlink:href="#_ÂÁ_Ï_ÌÌ_È_ËÂÌÚ_16"/><linearGradient id="_ÂÁ_Ï_ÌÌ_È_ËÂÌÚ_16-23" x1="77.49" y1="74.77" x2="92.67" y2="74.77" xlink:href="#_ÂÁ_Ï_ÌÌ_È_ËÂÌÚ_16"/><linearGradient id="_ÂÁ_Ï_ÌÌ_È_ËÂÌÚ_17-18" x1="73.69" y1="100.92" x2="77.57" y2="100.92" xlink:href="#_ÂÁ_Ï_ÌÌ_È_ËÂÌÚ_17"/><linearGradient id="_ÂÁ_Ï_ÌÌ_È_ËÂÌÚ_16-24" x1="73.22" y1="101.32" x2="76.43" y2="101.32" xlink:href="#_ÂÁ_Ï_ÌÌ_È_ËÂÌÚ_16"/><linearGradient id="_ÂÁ_Ï_ÌÌ_È_ËÂÌÚ_17-19" x1="39.82" y1="80.12" x2="43.71" y2="80.12" xlink:href="#_ÂÁ_Ï_ÌÌ_È_ËÂÌÚ_17"/><linearGradient id="_ÂÁ_Ï_ÌÌ_È_ËÂÌÚ_16-25" x1="39.35" y1="80.51" x2="42.56" y2="80.51" xlink:href="#_ÂÁ_Ï_ÌÌ_È_ËÂÌÚ_16"/><linearGradient id="_ÂÁ_Ï_ÌÌ_È_ËÂÌÚ_17-20" x1="73.69" y1="181.06" x2="77.57" y2="181.06" xlink:href="#_ÂÁ_Ï_ÌÌ_È_ËÂÌÚ_17"/><linearGradient id="_ÂÁ_Ï_ÌÌ_È_ËÂÌÚ_16-26" x1="73.22" y1="181.46" x2="76.43" y2="181.46" xlink:href="#_ÂÁ_Ï_ÌÌ_È_ËÂÌÚ_16"/><linearGradient id="_ÂÁ_Ï_ÌÌ_È_ËÂÌÚ_17-21" x1="39.82" y1="160.26" x2="43.71" y2="160.26" xlink:href="#_ÂÁ_Ï_ÌÌ_È_ËÂÌÚ_17"/><linearGradient id="_ÂÁ_Ï_ÌÌ_È_ËÂÌÚ_16-27" x1="39.35" y1="160.65" x2="42.56" y2="160.65" xlink:href="#_ÂÁ_Ï_ÌÌ_È_ËÂÌÚ_16"/><linearGradient id="_ÂÁ_Ï_ÌÌ_È_ËÂÌÚ_17-22" x1="99.36" y1="161.84" x2="99.36" y2="76.63" xlink:href="#_ÂÁ_Ï_ÌÌ_È_ËÂÌÚ_17"/><filter id="luminosity-noclip-11" x="38.79" y="55.54" width="40.38" height="35.89" filterUnits="userSpaceOnUse" color-interpolation-filters="sRGB"><feFlood flood-color="#fff" result="bg"/><feBlend in="SourceGraphic" in2="bg"/></filter><mask id="mask-11" x="38.79" y="55.54" width="40.38" height="35.89" maskUnits="userSpaceOnUse"><g class="cls-11"><polygon class="cls-12" points="79.17 91.43 68.56 91.43 38.79 74.24 71.18 55.54 79.17 55.54 79.17 91.43"/></g></mask><linearGradient id="_ÂÁ_Ï_ÌÌ_È_ËÂÌÚ_18-4" x1="38.79" y1="73.48" x2="79.17" y2="73.48" xlink:href="#_ÂÁ_Ï_ÌÌ_È_ËÂÌÚ_18"/><linearGradient id="_ÂÁ_Ï_ÌÌ_È_ËÂÌÚ_17-23" x1="49.87" y1="72.45" x2="108.46" y2="72.45" xlink:href="#_ÂÁ_Ï_ÌÌ_È_ËÂÌÚ_17"/><linearGradient id="_ÂÁ_Ï_ÌÌ_È_ËÂÌÚ_17-24" x1="97.6" y1="88.54" x2="90.47" y2="76.11" xlink:href="#_ÂÁ_Ï_ÌÌ_È_ËÂÌÚ_17"/><linearGradient id="_ÂÁ_Ï_ÌÌ_È_ËÂÌÚ_16-28" x1="64.52" y1="82.64" x2="64.52" y2="63.67" xlink:href="#_ÂÁ_Ï_ÌÌ_È_ËÂÌÚ_16"/><linearGradient id="_ÂÁ_Ï_ÌÌ_È_ËÂÌÚ_16-29" x1="65.67" y1="67.97" x2="80.85" y2="67.97" xlink:href="#_ÂÁ_Ï_ÌÌ_È_ËÂÌÚ_16"/><linearGradient id="_ÂÁ_Ï_ÌÌ_È_ËÂÌÚ_16-30" x1="69.61" y1="70.24" x2="84.78" y2="70.24" xlink:href="#_ÂÁ_Ï_ÌÌ_È_ËÂÌÚ_16"/><linearGradient id="_ÂÁ_Ï_ÌÌ_È_ËÂÌÚ_16-31" x1="73.55" y1="72.5" x2="88.72" y2="72.5" xlink:href="#_ÂÁ_Ï_ÌÌ_È_ËÂÌÚ_16"/><linearGradient id="_ÂÁ_Ï_ÌÌ_È_ËÂÌÚ_16-32" x1="77.49" y1="74.77" x2="92.66" y2="74.77" xlink:href="#_ÂÁ_Ï_ÌÌ_È_ËÂÌÚ_16"/><linearGradient id="_ÂÁ_Ï_ÌÌ_È_ËÂÌÚ_17-25" x1="73.68" y1="100.92" x2="77.57" y2="100.92" xlink:href="#_ÂÁ_Ï_ÌÌ_È_ËÂÌÚ_17"/><linearGradient id="_ÂÁ_Ï_ÌÌ_È_ËÂÌÚ_16-33" x1="73.21" y1="101.32" x2="76.42" y2="101.32" xlink:href="#_ÂÁ_Ï_ÌÌ_È_ËÂÌÚ_16"/><linearGradient id="_ÂÁ_Ï_ÌÌ_È_ËÂÌÚ_17-26" x1="39.82" y1="80.12" x2="43.7" y2="80.12" xlink:href="#_ÂÁ_Ï_ÌÌ_È_ËÂÌÚ_17"/><linearGradient id="_ÂÁ_Ï_ÌÌ_È_ËÂÌÚ_16-34" x1="39.35" y1="80.51" x2="42.56" y2="80.51" xlink:href="#_ÂÁ_Ï_ÌÌ_È_ËÂÌÚ_16"/><linearGradient id="_ÂÁ_Ï_ÌÌ_È_ËÂÌÚ_17-27" x1="73.68" y1="181.06" x2="77.57" y2="181.06" xlink:href="#_ÂÁ_Ï_ÌÌ_È_ËÂÌÚ_17"/><linearGradient id="_ÂÁ_Ï_ÌÌ_È_ËÂÌÚ_16-35" x1="73.21" y1="181.46" x2="76.42" y2="181.46" xlink:href="#_ÂÁ_Ï_ÌÌ_È_ËÂÌÚ_16"/><linearGradient id="_ÂÁ_Ï_ÌÌ_È_ËÂÌÚ_17-28" x1="39.82" y1="160.26" x2="43.7" y2="160.26" xlink:href="#_ÂÁ_Ï_ÌÌ_È_ËÂÌÚ_17"/><linearGradient id="_ÂÁ_Ï_ÌÌ_È_ËÂÌÚ_16-36" x1="39.35" y1="160.65" x2="42.56" y2="160.65" xlink:href="#_ÂÁ_Ï_ÌÌ_È_ËÂÌÚ_16"/><linearGradient id="_ÂÁ_Ï_ÌÌ_È_ËÂÌÚ_17-29" x1="145.01" y1="188.21" x2="145.01" y2="103" xlink:href="#_ÂÁ_Ï_ÌÌ_È_ËÂÌÚ_17"/><filter id="luminosity-noclip-12" x="84.44" y="81.91" width="40.38" height="35.89" filterUnits="userSpaceOnUse" color-interpolation-filters="sRGB"><feFlood flood-color="#fff" result="bg"/><feBlend in="SourceGraphic" in2="bg"/></filter><mask id="mask-12" x="84.44" y="81.91" width="40.38" height="35.89" maskUnits="userSpaceOnUse"><g class="cls-3"><polygon class="cls-4" points="124.82 117.79 114.21 117.79 84.44 100.61 116.83 81.91 124.82 81.91 124.82 117.79"/></g></mask><linearGradient id="_ÂÁ_Ï_ÌÌ_È_ËÂÌÚ_18-5" x1="84.44" y1="99.85" x2="124.82" y2="99.85" xlink:href="#_ÂÁ_Ï_ÌÌ_È_ËÂÌÚ_18"/><linearGradient id="_ÂÁ_Ï_ÌÌ_È_ËÂÌÚ_17-30" x1="95.52" y1="98.82" x2="154.12" y2="98.82" xlink:href="#_ÂÁ_Ï_ÌÌ_È_ËÂÌÚ_17"/><linearGradient id="_ÂÁ_Ï_ÌÌ_È_ËÂÌÚ_17-31" x1="143.25" y1="114.91" x2="136.13" y2="102.47" xlink:href="#_ÂÁ_Ï_ÌÌ_È_ËÂÌÚ_17"/><linearGradient id="_ÂÁ_Ï_ÌÌ_È_ËÂÌÚ_16-37" x1="110.17" y1="109.01" x2="110.17" y2="90.04" xlink:href="#_ÂÁ_Ï_ÌÌ_È_ËÂÌÚ_16"/><linearGradient id="_ÂÁ_Ï_ÌÌ_È_ËÂÌÚ_16-38" x1="111.33" y1="94.34" x2="126.5" y2="94.34" xlink:href="#_ÂÁ_Ï_ÌÌ_È_ËÂÌÚ_16"/><linearGradient id="_ÂÁ_Ï_ÌÌ_È_ËÂÌÚ_16-39" x1="115.27" y1="96.6" x2="130.44" y2="96.6" xlink:href="#_ÂÁ_Ï_ÌÌ_È_ËÂÌÚ_16"/><linearGradient id="_ÂÁ_Ï_ÌÌ_È_ËÂÌÚ_16-40" x1="119.2" y1="98.87" x2="134.38" y2="98.87" xlink:href="#_ÂÁ_Ï_ÌÌ_È_ËÂÌÚ_16"/><linearGradient id="_ÂÁ_Ï_ÌÌ_È_ËÂÌÚ_16-41" x1="123.14" y1="101.14" x2="138.31" y2="101.14" xlink:href="#_ÂÁ_Ï_ÌÌ_È_ËÂÌÚ_16"/><linearGradient id="_ÂÁ_Ï_ÌÌ_È_ËÂÌÚ_17-32" x1="119.34" y1="127.29" x2="123.22" y2="127.29" xlink:href="#_ÂÁ_Ï_ÌÌ_È_ËÂÌÚ_17"/><linearGradient id="_ÂÁ_Ï_ÌÌ_È_ËÂÌÚ_16-42" x1="118.86" y1="127.68" x2="122.08" y2="127.68" xlink:href="#_ÂÁ_Ï_ÌÌ_È_ËÂÌÚ_16"/><linearGradient id="_ÂÁ_Ï_ÌÌ_È_ËÂÌÚ_17-33" x1="85.47" y1="106.48" x2="89.36" y2="106.48" xlink:href="#_ÂÁ_Ï_ÌÌ_È_ËÂÌÚ_17"/><linearGradient id="_ÂÁ_Ï_ÌÌ_È_ËÂÌÚ_16-43" x1="85" y1="106.88" x2="88.21" y2="106.88" xlink:href="#_ÂÁ_Ï_ÌÌ_È_ËÂÌÚ_16"/><linearGradient id="_ÂÁ_Ï_ÌÌ_È_ËÂÌÚ_17-34" x1="119.34" y1="207.43" x2="123.22" y2="207.43" xlink:href="#_ÂÁ_Ï_ÌÌ_È_ËÂÌÚ_17"/><linearGradient id="_ÂÁ_Ï_ÌÌ_È_ËÂÌÚ_16-44" x1="118.86" y1="207.82" x2="122.08" y2="207.82" xlink:href="#_ÂÁ_Ï_ÌÌ_È_ËÂÌÚ_16"/><linearGradient id="_ÂÁ_Ï_ÌÌ_È_ËÂÌÚ_17-35" x1="85.47" y1="186.62" x2="89.36" y2="186.62" xlink:href="#_ÂÁ_Ï_ÌÌ_È_ËÂÌÚ_17"/><linearGradient id="_ÂÁ_Ï_ÌÌ_È_ËÂÌÚ_16-45" x1="85" y1="187.02" x2="88.21" y2="187.02" xlink:href="#_ÂÁ_Ï_ÌÌ_È_ËÂÌÚ_16"/></defs><title>raw_data-warehouse-four</title><g class="cls-13"><polygon class="cls-14" points="125 227.33 22.5 168.15 125 108.97 227.5 168.15 125 227.33"/></g><g class="cls-15"><polygon class="cls-16" points="125 220.65 34.13 168.19 125 115.72 215.87 168.19 125 220.65"/></g><path class="cls-17" d="M122.81,171.4,84.33,149.19c-1.56-.9-1.36-2.47.44-3.51L122.37,124a6.75,6.75,0,0,1,6.08-.25l38.47,22.21c1.56.9,1.36,2.47-.44,3.51l-37.6,21.71A6.75,6.75,0,0,1,122.81,171.4Z"/><g class="cls-18"><path class="cls-19" d="M122.81,171.4,84.33,149.19c-1.56-.9-1.36-2.47.44-3.51L122.37,124a6.75,6.75,0,0,1,6.08-.25l38.47,22.21c1.56.9,1.36,2.47-.44,3.51l-37.6,21.71A6.75,6.75,0,0,1,122.81,171.4Z"/></g><path class="cls-20" d="M84.33,149.19l3.38,2,34.66-20a6.75,6.75,0,0,1,6.08-.25l35.09,20.26,2.94-1.7c1.8-1,2-2.61.44-3.51l-38.47-22.21a6.75,6.75,0,0,0-6.08.25l-37.6,21.71C83,146.72,82.78,148.29,84.33,149.19Z"/><polygon class="cls-21" points="125.69 70.68 85.32 47.37 125.69 24.06 166.07 47.37 125.69 70.68"/><polygon class="cls-22" points="125.69 160.17 85.32 136.85 125.69 113.54 166.07 136.85 125.69 160.17"/><polygon class="cls-23" points="166.07 47.37 166.07 136.85 125.69 160.17 125.69 70.68 166.07 47.37"/><polygon class="cls-24" points="85.32 47.37 85.32 136.85 125.69 160.17 125.69 70.68 85.32 47.37"/><g class="cls-25"><polygon class="cls-26" points="88.05 53.31 88.05 133.74 122.96 153.89 122.96 73.46 88.05 53.31"/></g><polygon class="cls-26" points="160.01 68.99 160.01 71.36 131.75 87.67 131.75 85.31 160.01 68.99"/><polygon class="cls-26" points="160.01 78.99 160.01 81.36 131.75 97.67 131.75 95.31 160.01 78.99"/><polygon class="cls-26" points="160.01 88.99 160.01 91.36 131.75 107.67 131.75 105.31 160.01 88.99"/><polygon class="cls-26" points="160.01 98.99 160.01 101.36 131.75 117.67 131.75 115.31 160.01 98.99"/><polygon class="cls-26" points="160.01 108.99 160.01 111.36 131.75 127.68 131.75 125.31 160.01 108.99"/><polygon class="cls-26" points="160.01 118.99 160.01 121.36 131.75 137.68 131.75 135.31 160.01 118.99"/><g class="cls-27"><polygon class="cls-28" points="125.69 64.56 115.08 64.56 85.32 47.37 117.71 28.67 125.69 28.67 125.69 64.56"/></g><polygon class="cls-29" points="125.69 62.5 96.4 45.58 125.69 28.67 154.99 45.58 125.69 62.5"/><polygon class="cls-30" points="154.99 45.58 154.99 47.64 125.69 64.56 125.69 62.5 154.99 45.58"/><polygon class="cls-31" points="96.4 45.58 96.4 47.64 125.69 64.56 125.69 62.5 96.4 45.58"/><polygon class="cls-32" points="114.33 45.85 113.03 45.1 113.14 44.5 125.18 37.49 126.85 38.29 126.54 38.81 114.33 45.85"/><polygon class="cls-33" points="125.24 38.06 126.54 38.81 127.37 38.33 125.24 37.09 112.2 44.62 113.04 45.11 125.24 38.06"/><polygon class="cls-32" points="118.27 48.12 116.97 47.37 117.08 46.76 129.12 39.76 130.79 40.55 130.47 41.07 118.27 48.12"/><polygon class="cls-34" points="129.18 40.33 130.47 41.07 131.31 40.59 129.18 39.36 116.14 46.89 116.97 47.37 129.18 40.33"/><polygon class="cls-32" points="122.21 50.39 120.91 49.64 121.02 49.03 133.05 42.02 134.72 42.82 134.41 43.34 122.21 50.39"/><polygon class="cls-35" points="133.12 42.59 134.41 43.34 135.25 42.86 133.12 41.63 120.08 49.16 120.91 49.64 133.12 42.59"/><polygon class="cls-32" points="126.15 52.65 124.85 51.9 124.96 51.3 136.99 44.29 138.66 45.09 138.35 45.61 126.15 52.65"/><polygon class="cls-36" points="137.06 44.86 138.35 45.61 139.19 45.13 137.06 43.89 124.02 51.42 124.85 51.91 137.06 44.86"/><g class="cls-25"><polygon class="cls-26" points="85.32 122.71 125.69 98.33 125.69 70.68 85.32 47.37 85.32 122.71"/></g><path class="cls-37" d="M124.09,74.71a3.55,3.55,0,0,0-1.61-2.78,1.13,1.13,0,0,0-1.14-.11h0l-1.14.67.7,0a1.83,1.83,0,0,0,0,.35,3.55,3.55,0,0,0,1.61,2.78,1.81,1.81,0,0,0,.34.15l-.33.61,1.11-.65h0A1.12,1.12,0,0,0,124.09,74.71Z"/><path class="cls-38" d="M122.95,75.37c0,1-.72,1.44-1.61.93a3.55,3.55,0,0,1-1.61-2.78c0-1,.72-1.44,1.61-.93A3.55,3.55,0,0,1,122.95,75.37Z"/><path class="cls-32" d="M122.27,75c0,.59-.41.83-.92.53a2,2,0,0,1-.92-1.6c0-.59.41-.83.92-.53A2,2,0,0,1,122.27,75Z"/><path class="cls-39" d="M90.23,53.9a3.55,3.55,0,0,0-1.61-2.78A1.12,1.12,0,0,0,87.48,51h0l-1.14.67.7,0A1.84,1.84,0,0,0,87,52a3.55,3.55,0,0,0,1.61,2.78A1.8,1.8,0,0,0,89,55l-.33.61,1.11-.65h0A1.12,1.12,0,0,0,90.23,53.9Z"/><path class="cls-40" d="M89.09,54.57c0,1-.72,1.44-1.61.93a3.55,3.55,0,0,1-1.61-2.78c0-1,.72-1.44,1.61-.93A3.55,3.55,0,0,1,89.09,54.57Z"/><path class="cls-32" d="M88.4,54.17c0,.59-.41.83-.92.53a2,2,0,0,1-.92-1.6c0-.59.41-.83.92-.53A2,2,0,0,1,88.4,54.17Z"/><path class="cls-41" d="M124.09,154.84a3.55,3.55,0,0,0-1.61-2.78,1.12,1.12,0,0,0-1.14-.11h0l-1.14.67.7,0a1.83,1.83,0,0,0,0,.35,3.55,3.55,0,0,0,1.61,2.78,1.8,1.8,0,0,0,.34.15l-.33.61,1.11-.65h0A1.12,1.12,0,0,0,124.09,154.84Z"/><path class="cls-42" d="M122.95,155.51c0,1-.72,1.44-1.61.93a3.55,3.55,0,0,1-1.61-2.78c0-1,.72-1.44,1.61-.93A3.55,3.55,0,0,1,122.95,155.51Z"/><path class="cls-32" d="M122.27,155.12c0,.59-.41.83-.92.53a2,2,0,0,1-.92-1.6c0-.59.41-.83.92-.53A2,2,0,0,1,122.27,155.12Z"/><path class="cls-43" d="M90.23,134a3.55,3.55,0,0,0-1.61-2.78,1.13,1.13,0,0,0-1.14-.11h0l-1.14.67.7,0a1.84,1.84,0,0,0,0,.35A3.55,3.55,0,0,0,88.62,135a1.81,1.81,0,0,0,.34.15l-.33.61,1.11-.65h0A1.12,1.12,0,0,0,90.23,134Z"/><path class="cls-44" d="M89.09,134.71c0,1-.72,1.44-1.61.93a3.55,3.55,0,0,1-1.61-2.78c0-1,.72-1.44,1.61-.93A3.55,3.55,0,0,1,89.09,134.71Z"/><path class="cls-32" d="M88.4,134.31c0,.59-.41.83-.92.53a2,2,0,0,1-.92-1.6c0-.59.41-.83.92-.53A2,2,0,0,1,88.4,134.31Z"/><polygon class="cls-20" points="99.27 86.75 90.37 81.61 90.37 79.66 99.27 84.8 99.27 86.75"/><polygon class="cls-20" points="103.84 89.39 100.63 87.53 100.63 85.58 103.84 87.43 103.84 89.39"/><polygon class="cls-20" points="107.37 91.43 105.19 90.17 105.19 88.22 107.37 89.47 107.37 91.43"/><polygon class="cls-20" points="95.22 88.88 90.37 86.08 90.37 84.12 95.22 86.92 95.22 88.88"/><polygon class="cls-20" points="102.52 93.09 96.58 89.66 96.58 87.71 102.52 91.14 102.52 93.09"/><polygon class="cls-20" points="106.06 95.13 103.88 93.88 103.88 91.92 106.06 93.18 106.06 95.13"/><polygon class="cls-20" points="109.43 97.08 107.25 95.82 107.25 93.87 109.43 95.12 109.43 97.08"/><polygon class="cls-20" points="93.88 92.57 90.37 90.54 90.37 88.59 93.88 90.61 93.88 92.57"/><polygon class="cls-20" points="96.44 94.04 95.24 93.35 95.24 91.4 96.44 92.09 96.44 94.04"/><polygon class="cls-20" points="99.98 96.09 97.8 94.83 97.8 92.87 99.98 94.13 99.98 96.09"/><polygon class="cls-20" points="103.32 102.48 90.37 95 90.37 93.05 103.32 100.53 103.32 102.48"/><polygon class="cls-20" points="107.89 105.12 104.68 103.27 104.68 101.31 107.89 103.16 107.89 105.12"/><polygon class="cls-20" points="93.88 101.5 90.37 99.47 90.37 97.52 93.88 99.54 93.88 101.5"/><polygon class="cls-20" points="102.11 106.25 95.24 102.28 95.24 100.33 102.11 104.3 102.11 106.25"/><polygon class="cls-20" points="105.65 108.29 103.47 107.03 103.47 105.08 105.65 106.34 105.65 108.29"/><polygon class="cls-20" points="97.55 108.08 90.37 103.93 90.37 101.98 97.55 106.12 97.55 108.08"/><polygon class="cls-20" points="104.1 111.86 98.91 108.86 98.91 106.91 104.1 109.91 104.1 111.86"/><polygon class="cls-20" points="108.97 114.67 105.46 112.65 105.46 110.69 108.97 112.72 108.97 114.67"/><polygon class="cls-20" points="92.8 109.8 90.37 108.4 90.37 106.44 92.8 107.84 92.8 109.8"/><polygon class="cls-20" points="97.36 112.43 94.16 110.58 94.16 108.63 97.36 110.48 97.36 112.43"/><polygon class="cls-20" points="103.88 116.2 98.72 113.22 98.72 111.26 103.88 114.25 103.88 116.2"/><polygon class="cls-20" points="97.8 117.15 90.37 112.86 90.37 110.91 97.8 115.2 97.8 117.15"/><polygon class="cls-20" points="106.12 121.95 99.16 117.94 99.16 115.98 106.12 120 106.12 121.95"/><polygon class="cls-20" points="109.65 124 107.48 122.74 107.48 120.78 109.65 122.04 109.65 124"/><polygon class="cls-20" points="113.05 125.96 110.87 124.7 110.87 122.74 113.05 124 113.05 125.96"/><polygon class="cls-20" points="94.82 119.9 90.37 117.33 90.37 115.37 94.82 117.94 94.82 119.9"/><polygon class="cls-20" points="113.43 94.92 119.6 98.49 119.6 96.53 113.43 92.97 113.43 94.92"/><polygon class="cls-20" points="114.75 100.15 119.6 102.95 119.6 101 114.75 98.2 114.75 100.15"/><polygon class="cls-20" points="116.09 105.39 119.6 107.42 119.6 105.46 116.09 103.44 116.09 105.39"/><polygon class="cls-20" points="114.5 108.94 119.6 111.88 119.6 109.93 114.5 106.98 114.5 108.94"/><polygon class="cls-20" points="116.09 114.32 119.6 116.35 119.6 114.39 116.09 112.37 116.09 114.32"/><polygon class="cls-20" points="115.15 118.24 119.6 120.81 119.6 118.86 115.15 116.29 115.15 118.24"/><polygon class="cls-20" points="117.18 123.88 119.6 125.28 119.6 123.32 117.18 121.92 117.18 123.88"/><polygon class="cls-20" points="114.9 127.03 119.6 129.74 119.6 127.78 114.9 125.07 114.9 127.03"/><polygon class="cls-20" points="115.15 131.63 119.6 134.2 119.6 132.25 115.15 129.68 115.15 131.63"/><polygon class="cls-20" points="98.07 121.77 96.18 120.68 96.18 118.73 98.07 119.82 98.07 121.77"/><polygon class="cls-20" points="103.69 125.02 99.43 122.56 99.43 120.61 103.69 123.06 103.69 125.02"/><polygon class="cls-20" points="107.22 140.04 100.03 135.89 100.03 133.93 107.22 138.08 107.22 140.04"/><polygon class="cls-20" points="112.14 142.88 109.31 141.24 109.31 139.29 112.14 140.92 112.14 142.88"/><path class="cls-20" d="M92.49,69.19c-.3.87-.5,1-1.1.61l-.2-.12-.05-.1V69.1l.05,0,.2.12c.25.14.35.13.45,0V69L91,65.55v-.48l0,0,.3.17.05.1.7,3,.1.06.7-2.16.05,0,.3.17.05.1v.49Z"/><path class="cls-20" d="M95.17,70.94A2.9,2.9,0,0,1,93.9,68.4c0-1.11.5-1.52,1.26-1.08l.05,0a2.89,2.89,0,0,1,1.27,2.53C96.48,71,96,71.4,95.22,71Zm.05-.6c.46.26.76,0,.76-.75A1.8,1.8,0,0,0,95.22,68l-.05,0c-.46-.26-.76,0-.76.75a1.8,1.8,0,0,0,.76,1.62Z"/><path class="cls-20" d="M99.34,73.27,99,73.06l-.05-.1-.05-.31-.05,0s-.2.3-.66,0a2.34,2.34,0,0,1-1-2v-2l.05,0,.41.23.05.1v2a1.32,1.32,0,0,0,.56,1.16c.36.21.66,0,.66-.74V69.58l.05,0,.41.23.05.1v3.36Z"/><path class="cls-20" d="M102.68,72.94l-.05,0-.41-.24-.05-.1a1.09,1.09,0,0,0-.57-1c-.46-.26-.72-.13-.72.71v1.75l-.05,0-.41-.24-.05-.1V70.43l.05,0,.36.21.05.1.05.31.05,0s.21-.3.72,0A2.15,2.15,0,0,1,102.68,72.94Z"/><path class="cls-20" d="M108.81,78.71l-.37-.21-.05-.1-.05-.31-.05,0s-.21.3-.73,0a2.86,2.86,0,0,1-1.15-2.49c0-1.06.42-1.6,1.15-1.18a1.83,1.83,0,0,1,.73.84l.05,0v-1.7l.05,0,.42.24.05.1v4.81Zm-1.2-3.66c-.42-.24-.68,0-.68.81a1.75,1.75,0,0,0,.68,1.59c.42.24.73.07.73-.78A1.75,1.75,0,0,0,107.61,75.06Z"/><path class="cls-20" d="M112,80.56l-.37-.21-.05-.1-.05-.31-.05,0s-.21.3-.79,0a1.84,1.84,0,0,1-.94-1.68c0-.85.52-.83,1.21-.44a3.27,3.27,0,0,1,.53.37l.05,0v-.14a1,1,0,0,0-.58-1c-.37-.21-.58-.19-.58.09l-.05,0-.42-.24-.05-.1c0-.57.31-.88,1.1-.43a2.23,2.23,0,0,1,1.1,2.19v2Zm-.47-1.76-.05-.1a2.33,2.33,0,0,0-.47-.34c-.47-.27-.73-.28-.73.15a.84.84,0,0,0,.52.8c.42.24.74.07.74-.29Z"/><path class="cls-20" d="M113.38,78.5l-.05-.1-.42-.24-.05-.1v-.5l.05,0,.42.24.05,0V76.8l.05,0,.42.24.05.1V78l.05.1.9.51.05.1v.5l-.05,0-.9-.51-.05,0v1.42a1.18,1.18,0,0,0,.53,1.16c.21.12.48.13.48-.37v-.14l.05,0,.42.24.05.1v.14c0,1-.58.95-1,.7a2.3,2.3,0,0,1-1.06-2.1Z"/><path class="cls-20" d="M118.49,84.28l-.37-.22-.05-.1-.05-.32-.05,0s-.21.31-.8,0a1.86,1.86,0,0,1-1-1.69c0-.86.53-.84,1.23-.44a3.34,3.34,0,0,1,.53.38l.05,0v-.14a1,1,0,0,0-.59-1c-.37-.21-.59-.19-.59.09l-.05,0-.43-.24-.05-.1c0-.57.32-.89,1.12-.43a2.25,2.25,0,0,1,1.12,2.21v2ZM118,82.51l-.05-.1a2.38,2.38,0,0,0-.48-.35c-.48-.28-.75-.29-.75.14a.85.85,0,0,0,.53.81c.43.25.75.07.75-.29Z"/><path class="cls-20" d="M93,75.33l-.05,0-.4-.23-.05-.1-.35-2.42-.05,0-.35,2-.05,0-.4-.23-.05-.1-.5-3.13V70.7l0,0,.3.17.05.1.35,2.42.05,0,.35-2,.05,0,.35.2.05.1L92.69,74l.05,0,.35-2,.05,0,.3.17.05.1v.49Z"/><path class="cls-20" d="M96.23,77.29l-.36-.21-.05-.1-.05-.31-.05,0s-.2.3-.76,0A1.81,1.81,0,0,1,94.05,75c0-.83.51-.82,1.16-.44a3.14,3.14,0,0,1,.51.36l.05,0v-.14a1,1,0,0,0-.56-.95c-.35-.21-.56-.18-.56.09l-.05,0-.4-.23-.05-.1c0-.56.3-.87,1.06-.43a2.19,2.19,0,0,1,1.06,2.15v2Zm-.46-1.73-.05-.1a2.24,2.24,0,0,0-.46-.33c-.46-.26-.71-.27-.71.15a.82.82,0,0,0,.51.78c.41.24.71.06.71-.28Z"/><path class="cls-20" d="M99.54,77l-.05,0-.41-.24-.05-.1a1.09,1.09,0,0,0-.56-1c-.46-.27-.71-.13-.71.7v1.74l-.05,0-.41-.24-.05-.1V74.46l.05,0,.36.21.05.1.05.31.05,0s.2-.3.71,0A2.16,2.16,0,0,1,99.54,77Z"/><path class="cls-20" d="M100.16,77.83c0-1,.36-1.61,1.23-1.11a2.85,2.85,0,0,1,1.23,2.54v.21l-.05,0-1.8-1-.05,0a1.51,1.51,0,0,0,.72,1.26c.26.15.46.2.57-.09l.05,0,.41.24.05.1c-.05.53-.41.81-1.08.42A2.87,2.87,0,0,1,100.16,77.83Zm1.9.75a1.41,1.41,0,0,0-.67-1.23c-.62-.36-.67.24-.67.45l.05.1,1.23.71Z"/><path class="cls-20" d="M105.68,82.79l-.42-.24-.05-.1v-2a1.34,1.34,0,0,0-.57-1.17c-.41-.24-.72-.14-.72.71v1.76l-.05,0-.41-.24-.05-.1V76.62l.05,0,.41.24.05.1V78.6l.05,0s.21-.3.72,0a2.3,2.3,0,0,1,1,2.08v2Z"/><path class="cls-20" d="M107.71,84a3,3,0,0,1-1.3-2.59c0-1.13.52-1.53,1.3-1.08l.05,0A3,3,0,0,1,109.07,83c0,1.13-.52,1.53-1.31,1.08Zm.05-.6c.47.27.78,0,.78-.75a1.85,1.85,0,0,0-.78-1.65l-.05,0c-.47-.27-.78,0-.78.75a1.85,1.85,0,0,0,.78,1.65Z"/><path class="cls-20" d="M112,86.47l-.37-.21-.05-.1-.05-.31-.05,0s-.21.3-.68,0a2.4,2.4,0,0,1-1-2.1V81.69l.05,0,.42.24.05.1V84a1.35,1.35,0,0,0,.58,1.19c.37.21.68,0,.68-.74V82.72l.05,0,.42.24.05.1v3.41Z"/><path class="cls-20" d="M113,84.43c0-.64.42-.75,1.11-.35a2,2,0,0,1,1.11,1.71l-.05,0-.42-.25-.05-.1c0-.28-.16-.52-.58-.76s-.58-.19-.58,0,.21.55.74.93a2,2,0,0,1,1,1.65c0,.71-.42.89-1.17.46A2.23,2.23,0,0,1,113,85.89l.05,0,.42.25.05.1a1.11,1.11,0,0,0,.63.94c.42.25.64.23.64-.13s-.21-.55-.74-.93A2,2,0,0,1,113,84.43Z"/><path class="cls-20" d="M116.09,87.07c0-1,.37-1.64,1.28-1.11a2.92,2.92,0,0,1,1.28,2.6v.21l-.05,0-1.87-1.08-.05,0a1.55,1.55,0,0,0,.75,1.29c.27.15.48.21.59-.09l.05,0,.43.25.05.1c-.05.54-.43.82-1.12.42A3,3,0,0,1,116.09,87.07Zm2,.79a1.44,1.44,0,0,0-.69-1.26c-.64-.37-.69.24-.69.46l.05.1,1.28.74Z"/><polygon class="cls-21" points="171.35 97.05 130.97 73.73 171.35 50.42 211.73 73.73 171.35 97.05"/><polygon class="cls-22" points="171.35 186.53 130.97 163.22 171.35 139.91 211.73 163.22 171.35 186.53"/><polygon class="cls-45" points="211.73 73.73 211.73 163.22 171.35 186.53 171.35 97.05 211.73 73.73"/><polygon class="cls-24" points="130.97 73.73 130.97 163.22 171.35 186.53 171.35 97.05 130.97 73.73"/><g class="cls-25"><polygon class="cls-26" points="133.71 79.67 133.71 160.1 168.61 180.26 168.61 99.83 133.71 79.67"/></g><polygon class="cls-26" points="205.67 95.36 205.67 97.72 177.41 114.04 177.41 111.67 205.67 95.36"/><polygon class="cls-26" points="205.67 105.36 205.67 107.72 177.41 124.04 177.41 121.67 205.67 105.36"/><polygon class="cls-26" points="205.67 115.36 205.67 117.72 177.41 134.04 177.41 131.67 205.67 115.36"/><polygon class="cls-26" points="205.67 125.36 205.67 127.72 177.41 144.04 177.41 141.68 205.67 125.36"/><polygon class="cls-26" points="205.67 135.36 205.67 137.72 177.41 154.04 177.41 151.68 205.67 135.36"/><polygon class="cls-26" points="205.67 145.36 205.67 147.72 177.41 164.04 177.41 161.68 205.67 145.36"/><g class="cls-46"><polygon class="cls-47" points="171.35 90.92 160.74 90.92 130.97 73.73 163.36 55.03 171.35 55.03 171.35 90.92"/></g><polygon class="cls-48" points="171.35 88.86 142.05 71.95 171.35 55.03 200.65 71.95 171.35 88.86"/><polygon class="cls-49" points="200.65 71.95 200.65 74.01 171.35 90.92 171.35 88.86 200.65 71.95"/><polygon class="cls-50" points="142.05 71.95 142.05 74 171.35 90.92 171.35 88.86 142.05 71.95"/><polygon class="cls-32" points="159.99 72.22 158.69 71.47 158.79 70.86 170.83 63.86 172.5 64.65 172.19 65.17 159.99 72.22"/><polygon class="cls-51" points="170.9 64.42 172.19 65.17 173.03 64.69 170.9 63.46 157.85 70.99 158.69 71.47 170.9 64.42"/><polygon class="cls-32" points="163.92 74.49 162.63 73.74 162.73 73.13 174.77 66.12 176.44 66.92 176.13 67.44 163.92 74.49"/><polygon class="cls-52" points="174.83 66.69 176.13 67.44 176.97 66.96 174.83 65.73 161.79 73.25 162.63 73.74 174.83 66.69"/><polygon class="cls-32" points="167.86 76.75 166.56 76 166.67 75.39 178.71 68.39 180.38 69.19 180.07 69.71 167.86 76.75"/><polygon class="cls-53" points="178.77 68.96 180.07 69.71 180.9 69.22 178.77 67.99 165.73 75.52 166.57 76 178.77 68.96"/><polygon class="cls-32" points="171.8 79.02 170.5 78.27 170.61 77.66 182.65 70.66 184.32 71.45 184.01 71.97 171.8 79.02"/><polygon class="cls-54" points="182.71 71.22 184.01 71.97 184.84 71.49 182.71 70.26 169.67 77.79 170.5 78.27 182.71 71.22"/><g class="cls-25"><polygon class="cls-26" points="130.97 149.08 171.35 124.7 171.35 97.05 130.97 73.73 130.97 149.08"/></g><path class="cls-55" d="M169.75,101.07a3.55,3.55,0,0,0-1.61-2.78,1.13,1.13,0,0,0-1.14-.11h0l-1.14.67.7,0a1.83,1.83,0,0,0,0,.35,3.55,3.55,0,0,0,1.61,2.78,1.81,1.81,0,0,0,.34.15l-.33.61,1.11-.65h0A1.12,1.12,0,0,0,169.75,101.07Z"/><path class="cls-56" d="M168.6,101.74c0,1-.72,1.44-1.61.93a3.55,3.55,0,0,1-1.61-2.78c0-1,.72-1.44,1.61-.93A3.55,3.55,0,0,1,168.6,101.74Z"/><path class="cls-32" d="M167.92,101.35c0,.59-.41.83-.92.53a2,2,0,0,1-.92-1.6c0-.59.41-.83.92-.53A2,2,0,0,1,167.92,101.35Z"/><path class="cls-57" d="M135.88,80.26a3.55,3.55,0,0,0-1.61-2.78,1.12,1.12,0,0,0-1.14-.11h0L132,78l.7,0a1.84,1.84,0,0,0,0,.35,3.55,3.55,0,0,0,1.61,2.78,1.8,1.8,0,0,0,.34.15l-.33.61,1.11-.65h0A1.12,1.12,0,0,0,135.88,80.26Z"/><path class="cls-58" d="M134.74,80.93c0,1-.72,1.44-1.61.93a3.55,3.55,0,0,1-1.61-2.78c0-1,.72-1.44,1.61-.93A3.55,3.55,0,0,1,134.74,80.93Z"/><path class="cls-32" d="M134.06,80.54c0,.59-.41.83-.92.53a2,2,0,0,1-.92-1.6c0-.59.41-.83.92-.53A2,2,0,0,1,134.06,80.54Z"/><path class="cls-59" d="M169.75,181.21a3.55,3.55,0,0,0-1.61-2.78,1.12,1.12,0,0,0-1.14-.11h0l-1.14.67.7,0a1.83,1.83,0,0,0,0,.35,3.55,3.55,0,0,0,1.61,2.78,1.8,1.8,0,0,0,.34.15l-.33.61,1.11-.65h0A1.12,1.12,0,0,0,169.75,181.21Z"/><path class="cls-60" d="M168.6,181.88c0,1-.72,1.44-1.61.93a3.55,3.55,0,0,1-1.61-2.78c0-1,.72-1.44,1.61-.93A3.55,3.55,0,0,1,168.6,181.88Z"/><path class="cls-32" d="M167.92,181.49c0,.59-.41.83-.92.53a2,2,0,0,1-.92-1.6c0-.59.41-.83.92-.53A2,2,0,0,1,167.92,181.49Z"/><path class="cls-61" d="M135.88,160.4a3.55,3.55,0,0,0-1.61-2.78,1.13,1.13,0,0,0-1.14-.11h0l-1.14.67.7,0a1.84,1.84,0,0,0,0,.35,3.55,3.55,0,0,0,1.61,2.78,1.81,1.81,0,0,0,.34.15l-.33.61,1.11-.65h0A1.12,1.12,0,0,0,135.88,160.4Z"/><path class="cls-62" d="M134.74,161.07c0,1-.72,1.44-1.61.93a3.55,3.55,0,0,1-1.61-2.78c0-1,.72-1.44,1.61-.93A3.55,3.55,0,0,1,134.74,161.07Z"/><path class="cls-32" d="M134.06,160.68c0,.59-.41.83-.92.53a2,2,0,0,1-.92-1.6c0-.59.41-.83.92-.53A2,2,0,0,1,134.06,160.68Z"/><polygon class="cls-20" points="144.93 113.11 136.03 107.98 136.03 106.02 144.93 111.16 144.93 113.11"/><polygon class="cls-20" points="149.49 115.75 146.29 113.9 146.29 111.95 149.49 113.8 149.49 115.75"/><polygon class="cls-20" points="153.03 117.79 150.85 116.53 150.85 114.58 153.03 115.84 153.03 117.79"/><polygon class="cls-20" points="140.88 115.24 136.03 112.44 136.03 110.49 140.88 113.29 140.88 115.24"/><polygon class="cls-20" points="148.18 119.46 142.24 116.03 142.24 114.07 148.18 117.5 148.18 119.46"/><polygon class="cls-20" points="151.72 121.5 149.54 120.24 149.54 118.29 151.72 119.55 151.72 121.5"/><polygon class="cls-20" points="155.08 123.44 152.9 122.19 152.9 120.23 155.08 121.49 155.08 123.44"/><polygon class="cls-20" points="139.53 118.93 136.03 116.91 136.03 114.95 139.53 116.98 139.53 118.93"/><polygon class="cls-20" points="142.09 120.41 140.9 119.72 140.9 117.76 142.09 118.45 142.09 120.41"/><polygon class="cls-20" points="145.63 122.45 143.45 121.19 143.45 119.24 145.63 120.5 145.63 122.45"/><polygon class="cls-20" points="148.98 128.85 136.03 121.37 136.03 119.42 148.98 126.89 148.98 128.85"/><polygon class="cls-20" points="153.54 131.48 150.34 129.63 150.34 127.68 153.54 129.53 153.54 131.48"/><polygon class="cls-20" points="139.53 127.86 136.03 125.83 136.03 123.88 139.53 125.91 139.53 127.86"/><polygon class="cls-20" points="147.77 132.62 140.9 128.65 140.9 126.69 147.77 130.66 147.77 132.62"/><polygon class="cls-20" points="151.31 134.66 149.13 133.4 149.13 131.44 151.31 132.7 151.31 134.66"/><polygon class="cls-20" points="143.21 134.44 136.03 130.3 136.03 128.34 143.21 132.49 143.21 134.44"/><polygon class="cls-20" points="149.76 138.23 144.56 135.23 144.56 133.28 149.76 136.27 149.76 138.23"/><polygon class="cls-20" points="154.62 141.04 151.12 139.01 151.12 137.06 154.62 139.08 154.62 141.04"/><polygon class="cls-20" points="138.45 136.16 136.03 134.76 136.03 132.81 138.45 134.21 138.45 136.16"/><polygon class="cls-20" points="143.01 138.8 139.81 136.95 139.81 135 143.01 136.84 143.01 138.8"/><polygon class="cls-20" points="149.54 142.56 144.38 139.58 144.38 137.63 149.54 140.61 149.54 142.56"/><polygon class="cls-20" points="143.45 143.52 136.03 139.23 136.03 137.27 143.45 141.56 143.45 143.52"/><polygon class="cls-20" points="151.77 148.32 144.81 144.3 144.81 142.35 151.77 146.37 151.77 148.32"/><polygon class="cls-20" points="155.31 150.36 153.13 149.1 153.13 147.15 155.31 148.41 155.31 150.36"/><polygon class="cls-20" points="158.7 152.32 156.53 151.06 156.53 149.11 158.7 150.37 158.7 152.32"/><polygon class="cls-20" points="140.48 146.26 136.03 143.69 136.03 141.74 140.48 144.31 140.48 146.26"/><polygon class="cls-20" points="159.09 121.29 165.26 124.85 165.26 122.9 159.09 119.34 159.09 121.29"/><polygon class="cls-20" points="160.41 126.52 165.26 129.32 165.26 127.36 160.41 124.56 160.41 126.52"/><polygon class="cls-20" points="161.75 131.76 165.26 133.78 165.26 131.83 161.75 129.8 161.75 131.76"/><polygon class="cls-20" points="160.15 135.3 165.26 138.25 165.26 136.29 160.15 133.35 160.15 135.3"/><polygon class="cls-20" points="161.75 140.69 165.26 142.71 165.26 140.76 161.75 138.73 161.75 140.69"/><polygon class="cls-20" points="160.81 144.61 165.26 147.18 165.26 145.22 160.81 142.65 160.81 144.61"/><polygon class="cls-20" points="162.83 150.24 165.26 151.64 165.26 149.69 162.83 148.29 162.83 150.24"/><polygon class="cls-20" points="160.56 153.39 165.26 156.1 165.26 154.15 160.56 151.44 160.56 153.39"/><polygon class="cls-20" points="160.81 158 165.26 160.57 165.26 158.62 160.81 156.05 160.81 158"/><polygon class="cls-20" points="143.73 148.14 141.84 147.05 141.84 145.09 143.73 146.19 143.73 148.14"/><polygon class="cls-20" points="149.35 151.38 145.09 148.93 145.09 146.97 149.35 149.43 149.35 151.38"/><polygon class="cls-20" points="152.87 166.4 145.68 162.25 145.68 160.3 152.87 164.45 152.87 166.4"/><polygon class="cls-20" points="157.79 169.24 154.96 167.61 154.96 165.66 157.79 167.29 157.79 169.24"/><path class="cls-20" d="M138.14,95.55c-.3.87-.5,1-1.1.61l-.2-.12-.05-.1v-.48l.05,0,.2.12c.25.14.35.13.45,0v-.21l-.85-3.4v-.48l0,0,.3.17.05.1.7,3,.1.06.7-2.16.05,0,.3.17.05.1v.49Z"/><path class="cls-20" d="M140.82,97.3a2.9,2.9,0,0,1-1.26-2.53c0-1.11.5-1.52,1.26-1.08l.05,0a2.89,2.89,0,0,1,1.27,2.53c0,1.11-.51,1.52-1.27,1.08Zm.05-.6c.46.26.76,0,.76-.75a1.8,1.8,0,0,0-.76-1.62l-.05,0c-.46-.26-.76,0-.76.75a1.8,1.8,0,0,0,.76,1.62Z"/><path class="cls-20" d="M145,99.63l-.36-.21-.05-.1-.05-.31-.05,0s-.2.3-.66,0a2.34,2.34,0,0,1-1-2V95l.05,0,.41.23.05.1v2a1.32,1.32,0,0,0,.56,1.16c.36.21.66,0,.66-.74V95.95l.05,0,.41.23.05.1v3.36Z"/><path class="cls-20" d="M148.33,99.31l-.05,0-.41-.24-.05-.1a1.09,1.09,0,0,0-.57-1c-.46-.26-.72-.13-.72.71v1.75l-.05,0-.41-.24-.05-.1V96.79l.05,0,.36.21.05.1.05.31.05,0s.21-.3.72,0A2.15,2.15,0,0,1,148.33,99.31Z"/><path class="cls-20" d="M154.46,105.08l-.37-.21-.05-.1-.05-.31-.05,0s-.21.3-.73,0a2.86,2.86,0,0,1-1.15-2.49c0-1.06.42-1.6,1.15-1.18a1.83,1.83,0,0,1,.73.84l.05,0v-1.7l.05,0,.42.24.05.1V105Zm-1.2-3.66c-.42-.24-.68,0-.68.81a1.75,1.75,0,0,0,.68,1.59c.42.24.73.07.73-.78A1.75,1.75,0,0,0,153.26,101.42Z"/><path class="cls-20" d="M157.66,106.92l-.37-.21-.05-.1-.05-.31-.05,0s-.21.3-.79,0a1.84,1.84,0,0,1-.94-1.68c0-.85.52-.83,1.21-.44a3.27,3.27,0,0,1,.53.37l.05,0v-.14a1,1,0,0,0-.58-1c-.37-.21-.58-.19-.58.09l-.05,0-.42-.24-.05-.1c0-.57.31-.88,1.1-.43a2.23,2.23,0,0,1,1.1,2.19v2Zm-.47-1.76-.05-.1a2.33,2.33,0,0,0-.47-.34c-.47-.27-.73-.28-.73.15a.84.84,0,0,0,.52.8c.42.24.74.07.74-.29Z"/><path class="cls-20" d="M159,104.87l-.05-.1-.42-.24-.05-.1v-.5l.05,0,.42.24.05,0v-.92l.05,0,.42.24.05.1v.92l.05.1.9.51.05.1v.5l-.05,0-.9-.51-.05,0v1.42a1.18,1.18,0,0,0,.53,1.16c.21.12.48.13.48-.37v-.14l.05,0,.42.24.05.1v.14c0,1-.58.95-1,.7a2.3,2.3,0,0,1-1.06-2.1Z"/><path class="cls-20" d="M164.14,110.65l-.37-.22-.05-.1-.05-.32-.05,0s-.21.31-.8,0a1.86,1.86,0,0,1-1-1.69c0-.86.53-.84,1.23-.44a3.34,3.34,0,0,1,.53.38l.05,0V108a1,1,0,0,0-.59-1c-.37-.21-.59-.19-.59.09l-.05,0-.43-.24-.05-.1c0-.57.32-.89,1.12-.43a2.25,2.25,0,0,1,1.12,2.21v2Zm-.48-1.78-.05-.1a2.38,2.38,0,0,0-.48-.35c-.48-.28-.75-.29-.75.14a.85.85,0,0,0,.53.81c.43.25.75.07.75-.29Z"/><path class="cls-20" d="M138.65,101.7l-.05,0-.4-.23-.05-.1L137.79,99l-.05,0-.35,2-.05,0-.4-.23-.05-.1-.5-3.13v-.48l0,0,.3.17.05.1.35,2.42.05,0,.35-2,.05,0,.35.2.05.1.35,2.42.05,0,.35-2,.05,0,.3.17.05.1v.49Z"/><path class="cls-20" d="M141.88,103.65l-.36-.21-.05-.1-.05-.31-.05,0s-.2.3-.76,0a1.81,1.81,0,0,1-.91-1.64c0-.83.51-.82,1.16-.44a3.14,3.14,0,0,1,.51.36l.05,0v-.14a1,1,0,0,0-.56-.95c-.35-.21-.56-.18-.56.09l-.05,0-.4-.23-.05-.1c0-.56.3-.87,1.06-.43a2.19,2.19,0,0,1,1.06,2.15v2Zm-.46-1.73-.05-.1a2.24,2.24,0,0,0-.46-.33c-.46-.26-.71-.27-.71.15a.82.82,0,0,0,.51.78c.41.24.71.06.71-.28Z"/><path class="cls-20" d="M145.2,103.34l-.05,0-.41-.24-.05-.1a1.09,1.09,0,0,0-.56-1c-.46-.27-.71-.13-.71.7v1.74l-.05,0-.41-.24-.05-.1v-3.35l.05,0,.36.21.05.1.05.31.05,0s.2-.3.71,0A2.16,2.16,0,0,1,145.2,103.34Z"/><path class="cls-20" d="M145.81,104.19c0-1,.36-1.61,1.23-1.11a2.85,2.85,0,0,1,1.23,2.54v.21l-.05,0-1.8-1-.05,0a1.51,1.51,0,0,0,.72,1.26c.26.15.46.2.57-.09l.05,0,.41.24.05.1c-.05.53-.41.81-1.08.42A2.87,2.87,0,0,1,145.81,104.19Zm1.9.75a1.41,1.41,0,0,0-.67-1.23c-.62-.36-.67.24-.67.45l.05.1,1.23.71Z"/><path class="cls-20" d="M151.33,109.15l-.42-.24-.05-.1v-2a1.34,1.34,0,0,0-.57-1.17c-.41-.24-.72-.14-.72.71v1.76l-.05,0-.41-.24-.05-.1V103l.05,0,.41.24.05.1V105l.05,0s.21-.3.72,0a2.3,2.3,0,0,1,1,2.08v2Z"/><path class="cls-20" d="M153.36,110.41a3,3,0,0,1-1.3-2.59c0-1.13.52-1.53,1.3-1.08l.05,0a3,3,0,0,1,1.31,2.59c0,1.13-.52,1.53-1.31,1.08Zm.05-.6c.47.27.78,0,.78-.75a1.85,1.85,0,0,0-.78-1.65l-.05,0c-.47-.27-.78,0-.78.75a1.85,1.85,0,0,0,.78,1.65Z"/><path class="cls-20" d="M157.66,112.84l-.37-.21-.05-.1-.05-.31-.05,0s-.21.3-.68,0a2.4,2.4,0,0,1-1-2.1v-2.05l.05,0,.42.24.05.1v2.05a1.35,1.35,0,0,0,.58,1.19c.37.21.68,0,.68-.74v-1.77l.05,0,.42.24.05.1v3.41Z"/><path class="cls-20" d="M158.67,110.8c0-.64.42-.75,1.11-.35a2,2,0,0,1,1.11,1.71l-.05,0-.42-.25-.05-.1c0-.28-.16-.52-.58-.76s-.58-.19-.58,0,.21.55.74.93a2,2,0,0,1,1,1.65c0,.71-.42.89-1.17.46a2.23,2.23,0,0,1-1.16-1.88l.05,0,.42.25.05.1a1.11,1.11,0,0,0,.63.94c.42.25.64.23.64-.13s-.21-.55-.74-.93A2,2,0,0,1,158.67,110.8Z"/><path class="cls-20" d="M161.74,113.43c0-1,.37-1.64,1.28-1.11a2.92,2.92,0,0,1,1.28,2.6v.21l-.05,0-1.87-1.08-.05,0a1.55,1.55,0,0,0,.75,1.29c.27.15.48.21.59-.09l.05,0,.43.25.05.1c-.05.54-.43.82-1.12.42A3,3,0,0,1,161.74,113.43Zm2,.79A1.44,1.44,0,0,0,163,113c-.64-.37-.69.24-.69.46l.05.1,1.28.74Z"/><polygon class="cls-21" points="79.17 97.55 38.8 74.24 79.17 50.93 119.55 74.24 79.17 97.55"/><polygon class="cls-22" points="79.17 187.04 38.8 163.72 79.17 140.41 119.55 163.73 79.17 187.04"/><polygon class="cls-63" points="119.55 74.24 119.55 163.73 79.17 187.04 79.17 97.55 119.55 74.24"/><polygon class="cls-24" points="38.8 74.24 38.8 163.72 79.17 187.04 79.17 97.55 38.8 74.24"/><g class="cls-25"><polygon class="cls-26" points="41.53 80.18 41.53 160.61 76.44 180.76 76.44 100.33 41.53 80.18"/></g><polygon class="cls-26" points="113.49 95.86 113.49 98.23 85.23 114.55 85.23 112.18 113.49 95.86"/><polygon class="cls-26" points="113.49 105.86 113.49 108.23 85.23 124.55 85.23 122.18 113.49 105.86"/><polygon class="cls-26" points="113.49 115.86 113.49 118.23 85.23 134.55 85.23 132.18 113.49 115.86"/><polygon class="cls-26" points="113.49 125.86 113.49 128.23 85.23 144.55 85.23 142.18 113.49 125.86"/><polygon class="cls-26" points="113.49 135.86 113.49 138.23 85.23 154.55 85.23 152.18 113.49 135.86"/><polygon class="cls-26" points="113.49 145.87 113.49 148.23 85.23 164.55 85.23 162.18 113.49 145.87"/><g class="cls-64"><polygon class="cls-65" points="79.17 91.43 68.56 91.43 38.8 74.24 71.19 55.54 79.17 55.54 79.17 91.43"/></g><polygon class="cls-66" points="79.17 89.37 49.88 72.45 79.17 55.54 108.47 72.45 79.17 89.37"/><polygon class="cls-67" points="108.47 72.45 108.47 74.51 79.17 91.43 79.17 89.37 108.47 72.45"/><polygon class="cls-68" points="49.88 72.45 49.88 74.51 79.17 91.43 79.17 89.37 49.88 72.45"/><polygon class="cls-32" points="67.81 72.72 66.51 71.98 66.62 71.37 78.66 64.36 80.33 65.16 80.02 65.68 67.81 72.72"/><polygon class="cls-69" points="78.72 64.93 80.02 65.68 80.85 65.2 78.72 63.97 65.68 71.5 66.51 71.98 78.72 64.93"/><polygon class="cls-32" points="71.75 74.99 70.45 74.24 70.56 73.64 82.59 66.63 84.27 67.43 83.95 67.95 71.75 74.99"/><polygon class="cls-70" points="82.66 67.2 83.95 67.95 84.79 67.46 82.66 66.23 69.62 73.76 70.45 74.24 82.66 67.2"/><polygon class="cls-32" points="75.69 77.26 74.39 76.51 74.5 75.9 86.53 68.9 88.2 69.69 87.89 70.21 75.69 77.26"/><polygon class="cls-71" points="86.6 69.46 87.89 70.21 88.73 69.73 86.6 68.5 73.56 76.03 74.39 76.51 86.6 69.46"/><polygon class="cls-32" points="79.63 79.53 78.33 78.78 78.44 78.17 90.47 71.16 92.14 71.96 91.83 72.48 79.63 79.53"/><polygon class="cls-72" points="90.53 71.73 91.83 72.48 92.67 72 90.53 70.77 77.49 78.3 78.33 78.78 90.53 71.73"/><g class="cls-25"><polygon class="cls-26" points="38.8 149.58 79.17 125.2 79.17 97.55 38.8 74.24 38.8 149.58"/></g><path class="cls-73" d="M77.57,101.58A3.55,3.55,0,0,0,76,98.79a1.13,1.13,0,0,0-1.14-.11h0l-1.14.67.7,0a1.83,1.83,0,0,0,0,.35A3.55,3.55,0,0,0,76,102.5a1.81,1.81,0,0,0,.34.15l-.33.61,1.11-.65h0A1.12,1.12,0,0,0,77.57,101.58Z"/><path class="cls-74" d="M76.43,102.25c0,1-.72,1.44-1.61.93a3.55,3.55,0,0,1-1.61-2.78c0-1,.72-1.44,1.61-.93A3.55,3.55,0,0,1,76.43,102.25Z"/><path class="cls-32" d="M75.75,101.85c0,.59-.41.83-.92.53a2,2,0,0,1-.92-1.6c0-.59.41-.83.92-.53A2,2,0,0,1,75.75,101.85Z"/><path class="cls-75" d="M43.71,80.77A3.55,3.55,0,0,0,42.1,78,1.12,1.12,0,0,0,41,77.88h0l-1.14.67.7,0a1.84,1.84,0,0,0,0,.35A3.55,3.55,0,0,0,42.1,81.7a1.8,1.8,0,0,0,.34.15l-.33.61,1.11-.65h0A1.12,1.12,0,0,0,43.71,80.77Z"/><path class="cls-76" d="M42.56,81.44c0,1-.72,1.44-1.61.93a3.55,3.55,0,0,1-1.61-2.78c0-1,.72-1.44,1.61-.93A3.55,3.55,0,0,1,42.56,81.44Z"/><path class="cls-32" d="M41.88,81c0,.59-.41.83-.92.53A2,2,0,0,1,40,80c0-.59.41-.83.92-.53A2,2,0,0,1,41.88,81Z"/><path class="cls-77" d="M77.57,181.72A3.55,3.55,0,0,0,76,178.93a1.12,1.12,0,0,0-1.14-.11h0l-1.14.67.7,0a1.83,1.83,0,0,0,0,.35A3.55,3.55,0,0,0,76,182.64a1.8,1.8,0,0,0,.34.15l-.33.61,1.11-.65h0A1.12,1.12,0,0,0,77.57,181.72Z"/><path class="cls-78" d="M76.43,182.39c0,1-.72,1.44-1.61.93a3.55,3.55,0,0,1-1.61-2.78c0-1,.72-1.44,1.61-.93A3.55,3.55,0,0,1,76.43,182.39Z"/><path class="cls-32" d="M75.75,182c0,.59-.41.83-.92.53a2,2,0,0,1-.92-1.6c0-.59.41-.83.92-.53A2,2,0,0,1,75.75,182Z"/><path class="cls-79" d="M43.71,160.91a3.55,3.55,0,0,0-1.61-2.78A1.13,1.13,0,0,0,41,158h0l-1.14.67.7,0a1.84,1.84,0,0,0,0,.35,3.55,3.55,0,0,0,1.61,2.78,1.81,1.81,0,0,0,.34.15l-.33.61,1.11-.65h0A1.12,1.12,0,0,0,43.71,160.91Z"/><path class="cls-80" d="M42.56,161.58c0,1-.72,1.44-1.61.93a3.55,3.55,0,0,1-1.61-2.78c0-1,.72-1.44,1.61-.93A3.55,3.55,0,0,1,42.56,161.58Z"/><path class="cls-32" d="M41.88,161.19c0,.59-.41.83-.92.53a2,2,0,0,1-.92-1.6c0-.59.41-.83.92-.53A2,2,0,0,1,41.88,161.19Z"/><polygon class="cls-20" points="52.75 113.62 43.85 108.48 43.85 106.53 52.75 111.67 52.75 113.62"/><polygon class="cls-20" points="57.31 116.26 54.11 114.41 54.11 112.45 57.31 114.3 57.31 116.26"/><polygon class="cls-20" points="60.85 118.3 58.67 117.04 58.67 115.09 60.85 116.34 60.85 118.3"/><polygon class="cls-20" points="48.7 115.75 43.85 112.95 43.85 110.99 48.7 113.79 48.7 115.75"/><polygon class="cls-20" points="56 119.96 50.06 116.53 50.06 114.58 56 118.01 56 119.96"/><polygon class="cls-20" points="59.54 122.01 57.36 120.75 57.36 118.79 59.54 120.05 59.54 122.01"/><polygon class="cls-20" points="62.91 123.95 60.73 122.69 60.73 120.74 62.91 121.99 62.91 123.95"/><polygon class="cls-20" points="47.36 119.44 43.85 117.41 43.85 115.46 47.36 117.48 47.36 119.44"/><polygon class="cls-20" points="49.92 120.92 48.72 120.22 48.72 118.27 49.92 118.96 49.92 120.92"/><polygon class="cls-20" points="53.45 122.96 51.28 121.7 51.28 119.75 53.45 121 53.45 122.96"/><polygon class="cls-20" points="56.8 129.35 43.85 121.88 43.85 119.92 56.8 127.4 56.8 129.35"/><polygon class="cls-20" points="61.37 131.99 58.16 130.14 58.16 128.18 61.37 130.03 61.37 131.99"/><polygon class="cls-20" points="47.36 128.37 43.85 126.34 43.85 124.39 47.36 126.41 47.36 128.37"/><polygon class="cls-20" points="55.59 133.12 48.72 129.15 48.72 127.2 55.59 131.17 55.59 133.12"/><polygon class="cls-20" points="59.13 135.16 56.95 133.91 56.95 131.95 59.13 133.21 59.13 135.16"/><polygon class="cls-20" points="51.03 134.95 43.85 130.81 43.85 128.85 51.03 133 51.03 134.95"/><polygon class="cls-20" points="57.58 138.73 52.39 135.74 52.39 133.78 57.58 136.78 57.58 138.73"/><polygon class="cls-20" points="62.45 141.54 58.94 139.52 58.94 137.56 62.45 139.59 62.45 141.54"/><polygon class="cls-20" points="46.27 136.67 43.85 135.27 43.85 133.32 46.27 134.72 46.27 136.67"/><polygon class="cls-20" points="50.84 139.31 47.63 137.46 47.63 135.5 50.84 137.35 50.84 139.31"/><polygon class="cls-20" points="57.36 143.07 52.2 140.09 52.2 138.14 57.36 141.12 57.36 143.07"/><polygon class="cls-20" points="51.28 144.02 43.85 139.74 43.85 137.78 51.28 142.07 51.28 144.02"/><polygon class="cls-20" points="59.6 148.83 52.64 144.81 52.64 142.85 59.6 146.87 59.6 148.83"/><polygon class="cls-20" points="63.13 150.87 60.96 149.61 60.96 147.66 63.13 148.91 63.13 150.87"/><polygon class="cls-20" points="66.53 152.83 64.35 151.57 64.35 149.62 66.53 150.87 66.53 152.83"/><polygon class="cls-20" points="48.3 146.77 43.85 144.2 43.85 142.25 48.3 144.81 48.3 146.77"/><polygon class="cls-20" points="66.91 121.8 73.08 125.36 73.08 123.41 66.91 119.84 66.91 121.8"/><polygon class="cls-20" points="68.23 127.02 73.08 129.82 73.08 127.87 68.23 125.07 68.23 127.02"/><polygon class="cls-20" points="69.57 132.26 73.08 134.29 73.08 132.33 69.57 130.31 69.57 132.26"/><polygon class="cls-20" points="67.98 135.81 73.08 138.75 73.08 136.8 67.98 133.85 67.98 135.81"/><polygon class="cls-20" points="69.57 141.19 73.08 143.22 73.08 141.26 69.57 139.24 69.57 141.19"/><polygon class="cls-20" points="68.63 145.11 73.08 147.68 73.08 145.73 68.63 143.16 68.63 145.11"/><polygon class="cls-20" points="70.66 150.75 73.08 152.15 73.08 150.19 70.66 148.79 70.66 150.75"/><polygon class="cls-20" points="68.38 153.9 73.08 156.61 73.08 154.66 68.38 151.94 68.38 153.9"/><polygon class="cls-20" points="68.63 158.51 73.08 161.08 73.08 159.12 68.63 156.55 68.63 158.51"/><polygon class="cls-20" points="51.55 148.65 49.66 147.55 49.66 145.6 51.55 146.69 51.55 148.65"/><polygon class="cls-20" points="57.17 151.89 52.91 149.43 52.91 147.48 57.17 149.94 57.17 151.89"/><polygon class="cls-20" points="60.7 166.91 53.51 162.76 53.51 160.8 60.7 164.95 60.7 166.91"/><polygon class="cls-20" points="65.62 169.75 62.79 168.12 62.79 166.16 65.62 167.8 65.62 169.75"/><path class="cls-20" d="M46,96.06c-.3.87-.5,1-1.1.61l-.2-.12-.05-.1V96l.05,0,.2.12c.25.14.35.13.45,0v-.21l-.85-3.4v-.48l0,0,.3.17.05.1.7,3,.1.06.7-2.16.05,0,.3.17.05.1v.49Z"/><path class="cls-20" d="M48.64,97.81a2.9,2.9,0,0,1-1.26-2.53c0-1.11.5-1.52,1.26-1.08l.05,0A2.89,2.89,0,0,1,50,96.76c0,1.11-.51,1.52-1.27,1.08Zm.05-.6c.46.26.76,0,.76-.75a1.8,1.8,0,0,0-.76-1.62l-.05,0c-.46-.26-.76,0-.76.75a1.8,1.8,0,0,0,.76,1.62Z"/><path class="cls-20" d="M52.82,100.14l-.36-.21-.05-.1-.05-.31-.05,0s-.2.3-.66,0a2.34,2.34,0,0,1-1-2v-2l.05,0,.41.23.05.1v2a1.32,1.32,0,0,0,.56,1.16c.36.21.66,0,.66-.74V96.45l.05,0,.41.23.05.1v3.36Z"/><path class="cls-20" d="M56.16,99.81l-.05,0-.41-.24-.05-.1a1.09,1.09,0,0,0-.57-1c-.46-.26-.72-.13-.72.71V101l-.05,0-.41-.24-.05-.1V97.3l.05,0,.36.21.05.1.05.31.05,0s.21-.3.72,0A2.15,2.15,0,0,1,56.16,99.81Z"/><path class="cls-20" d="M62.28,105.59l-.37-.21-.05-.1-.05-.31-.05,0s-.21.3-.73,0a2.86,2.86,0,0,1-1.15-2.49c0-1.06.42-1.6,1.15-1.18a1.83,1.83,0,0,1,.73.84l.05,0v-1.7l.05,0,.42.24.05.1v4.81Zm-1.2-3.66c-.42-.24-.68,0-.68.81a1.75,1.75,0,0,0,.68,1.59c.42.24.73.07.73-.78A1.75,1.75,0,0,0,61.08,101.93Z"/><path class="cls-20" d="M65.49,107.43l-.37-.21-.05-.1L65,106.8l-.05,0s-.21.3-.79,0a1.84,1.84,0,0,1-.94-1.68c0-.85.52-.83,1.21-.44A3.27,3.27,0,0,1,65,105l.05,0v-.14a1,1,0,0,0-.58-1c-.37-.21-.58-.19-.58.09l-.05,0-.42-.24-.05-.1c0-.57.31-.88,1.1-.43a2.23,2.23,0,0,1,1.1,2.19v2ZM65,105.67l-.05-.1a2.33,2.33,0,0,0-.47-.34c-.47-.27-.73-.28-.73.15a.84.84,0,0,0,.52.8c.42.24.74.07.74-.29Z"/><path class="cls-20" d="M66.86,105.38l-.05-.1-.42-.24-.05-.1v-.5l.05,0,.42.24.05,0v-.92l.05,0,.42.24.05.1v.92l.05.1.9.51.05.1v.5l-.05,0-.9-.51-.05,0v1.42a1.18,1.18,0,0,0,.53,1.16c.21.12.48.13.48-.37v-.14l.05,0,.42.24.05.1v.14c0,1-.58.95-1,.7a2.3,2.3,0,0,1-1.06-2.1Z"/><path class="cls-20" d="M72,111.16l-.37-.22-.05-.1-.05-.32-.05,0s-.21.31-.8,0a1.86,1.86,0,0,1-1-1.69c0-.86.53-.84,1.23-.44a3.34,3.34,0,0,1,.53.38l.05,0v-.14a1,1,0,0,0-.59-1c-.37-.21-.59-.19-.59.09l-.05,0-.43-.24-.05-.1c0-.57.32-.89,1.12-.43A2.25,2.25,0,0,1,72,109.11v2Zm-.48-1.78-.05-.1a2.38,2.38,0,0,0-.48-.35c-.48-.28-.75-.29-.75.14a.85.85,0,0,0,.53.81c.43.25.75.07.75-.29Z"/><path class="cls-20" d="M46.47,102.2l-.05,0L46,102l-.05-.1-.35-2.42-.05,0-.35,2-.05,0-.4-.23-.05-.1-.5-3.13v-.48l0,0,.3.17.05.1.35,2.42.05,0,.35-2,.05,0,.35.2.05.1.35,2.42.05,0,.35-2,.05,0,.3.17.05.1v.49Z"/><path class="cls-20" d="M49.71,104.16l-.36-.21-.05-.1-.05-.31-.05,0s-.2.3-.76,0a1.81,1.81,0,0,1-.91-1.64c0-.83.51-.82,1.16-.44a3.14,3.14,0,0,1,.51.36l.05,0v-.14a1,1,0,0,0-.56-.95c-.35-.21-.56-.18-.56.09l-.05,0-.4-.23-.05-.1c0-.56.3-.87,1.06-.43a2.19,2.19,0,0,1,1.06,2.15v2Zm-.46-1.73-.05-.1a2.24,2.24,0,0,0-.46-.33c-.46-.26-.71-.27-.71.15a.82.82,0,0,0,.51.78c.41.24.71.06.71-.28Z"/><path class="cls-20" d="M53,103.85l-.05,0-.41-.24-.05-.1a1.09,1.09,0,0,0-.56-1c-.46-.27-.71-.13-.71.7V105l-.05,0-.41-.24-.05-.1v-3.35l.05,0,.36.21.05.1.05.31.05,0s.2-.3.71,0A2.16,2.16,0,0,1,53,103.85Z"/><path class="cls-20" d="M53.64,104.7c0-1,.36-1.61,1.23-1.11a2.85,2.85,0,0,1,1.23,2.54v.21l-.05,0-1.8-1-.05,0a1.51,1.51,0,0,0,.72,1.26c.26.15.46.2.57-.09l.05,0,.41.24.05.1c-.05.53-.41.81-1.08.42A2.87,2.87,0,0,1,53.64,104.7Zm1.9.75a1.41,1.41,0,0,0-.67-1.23c-.62-.36-.67.24-.67.45l.05.1,1.23.71Z"/><path class="cls-20" d="M59.16,109.66l-.42-.24-.05-.1v-2a1.34,1.34,0,0,0-.57-1.17c-.41-.24-.72-.14-.72.71v1.76l-.05,0-.41-.24-.05-.1v-4.78l.05,0,.41.24.05.1v1.69l.05,0s.21-.3.72,0a2.3,2.3,0,0,1,1,2.08v2Z"/><path class="cls-20" d="M61.19,110.91a3,3,0,0,1-1.3-2.59c0-1.13.52-1.53,1.3-1.08l.05,0a3,3,0,0,1,1.31,2.59c0,1.13-.52,1.53-1.31,1.08Zm.05-.6c.47.27.78,0,.78-.75a1.85,1.85,0,0,0-.78-1.65l-.05,0c-.47-.27-.78,0-.78.75a1.85,1.85,0,0,0,.78,1.65Z"/><path class="cls-20" d="M65.49,113.35l-.37-.21-.05-.1-.05-.31-.05,0s-.21.3-.68,0a2.4,2.4,0,0,1-1-2.1v-2.05l.05,0,.42.24.05.1v2.05a1.35,1.35,0,0,0,.58,1.19c.37.21.68,0,.68-.74V109.6l.05,0,.42.24.05.1v3.41Z"/><path class="cls-20" d="M66.49,111.3c0-.64.42-.75,1.11-.35a2,2,0,0,1,1.11,1.71l-.05,0-.42-.25-.05-.1c0-.28-.16-.52-.58-.76s-.58-.19-.58,0,.21.55.74.93a2,2,0,0,1,1,1.65c0,.71-.42.89-1.17.46a2.23,2.23,0,0,1-1.16-1.88l.05,0,.42.25.05.1a1.11,1.11,0,0,0,.63.94c.42.25.64.23.64-.13s-.21-.55-.74-.93A2,2,0,0,1,66.49,111.3Z"/><path class="cls-20" d="M69.57,113.94c0-1,.37-1.64,1.28-1.11a2.92,2.92,0,0,1,1.28,2.6v.21l-.05,0-1.87-1.08-.05,0a1.55,1.55,0,0,0,.75,1.29c.27.15.48.21.59-.09l.05,0L72,116l.05.1c-.05.54-.43.82-1.12.42A3,3,0,0,1,69.57,113.94Zm2,.79a1.44,1.44,0,0,0-.69-1.26c-.64-.37-.69.24-.69.46l.05.1,1.28.74Z"/><polygon class="cls-21" points="79.17 97.55 38.79 74.24 79.17 50.93 119.54 74.24 79.17 97.55"/><polygon class="cls-22" points="79.17 187.04 38.79 163.72 79.17 140.41 119.54 163.73 79.17 187.04"/><polygon class="cls-81" points="119.54 74.24 119.54 163.73 79.17 187.04 79.17 97.55 119.54 74.24"/><polygon class="cls-24" points="38.79 74.24 38.79 163.72 79.17 187.04 79.17 97.55 38.79 74.24"/><g class="cls-25"><polygon class="cls-26" points="41.52 80.18 41.52 160.61 76.43 180.76 76.43 100.33 41.52 80.18"/></g><polygon class="cls-26" points="113.49 95.86 113.49 98.23 85.22 114.55 85.22 112.18 113.49 95.86"/><polygon class="cls-26" points="113.49 105.86 113.49 108.23 85.22 124.55 85.22 122.18 113.49 105.86"/><polygon class="cls-26" points="113.49 115.86 113.49 118.23 85.22 134.55 85.22 132.18 113.49 115.86"/><polygon class="cls-26" points="113.49 125.86 113.49 128.23 85.22 144.55 85.22 142.18 113.49 125.86"/><polygon class="cls-26" points="113.49 135.86 113.49 138.23 85.22 154.55 85.22 152.18 113.49 135.86"/><polygon class="cls-26" points="113.49 145.87 113.49 148.23 85.22 164.55 85.22 162.18 113.49 145.87"/><g class="cls-82"><polygon class="cls-83" points="79.17 91.43 68.56 91.43 38.79 74.24 71.18 55.54 79.17 55.54 79.17 91.43"/></g><polygon class="cls-84" points="79.17 89.37 49.87 72.45 79.17 55.54 108.46 72.45 79.17 89.37"/><polygon class="cls-85" points="108.46 72.45 108.46 74.51 79.17 91.43 79.17 89.37 108.46 72.45"/><polygon class="cls-86" points="49.87 72.45 49.87 74.51 79.17 91.43 79.17 89.37 49.87 72.45"/><polygon class="cls-32" points="67.8 72.72 66.51 71.98 66.61 71.37 78.65 64.36 80.32 65.16 80.01 65.68 67.8 72.72"/><polygon class="cls-87" points="78.71 64.93 80.01 65.68 80.84 65.2 78.71 63.97 65.67 71.5 66.51 71.98 78.71 64.93"/><polygon class="cls-32" points="71.74 74.99 70.44 74.24 70.55 73.64 82.59 66.63 84.26 67.43 83.95 67.95 71.74 74.99"/><polygon class="cls-88" points="82.65 67.2 83.95 67.95 84.78 67.46 82.65 66.23 69.61 73.76 70.45 74.24 82.65 67.2"/><polygon class="cls-32" points="75.68 77.26 74.38 76.51 74.49 75.9 86.53 68.9 88.2 69.69 87.89 70.21 75.68 77.26"/><polygon class="cls-89" points="86.59 69.46 87.89 70.21 88.72 69.73 86.59 68.5 73.55 76.03 74.39 76.51 86.59 69.46"/><polygon class="cls-32" points="79.62 79.53 78.32 78.78 78.43 78.17 90.47 71.16 92.14 71.96 91.83 72.48 79.62 79.53"/><polygon class="cls-90" points="90.53 71.73 91.83 72.48 92.66 72 90.53 70.77 77.49 78.3 78.32 78.78 90.53 71.73"/><g class="cls-25"><polygon class="cls-26" points="38.79 149.58 79.17 125.2 79.17 97.55 38.79 74.24 38.79 149.58"/></g><path class="cls-91" d="M77.57,101.58A3.55,3.55,0,0,0,76,98.79a1.13,1.13,0,0,0-1.14-.11h0l-1.14.67.7,0a1.83,1.83,0,0,0,0,.35A3.55,3.55,0,0,0,76,102.5a1.81,1.81,0,0,0,.34.15l-.33.61,1.11-.65h0A1.12,1.12,0,0,0,77.57,101.58Z"/><path class="cls-92" d="M76.42,102.25c0,1-.72,1.44-1.61.93a3.55,3.55,0,0,1-1.61-2.78c0-1,.72-1.44,1.61-.93A3.55,3.55,0,0,1,76.42,102.25Z"/><path class="cls-32" d="M75.74,101.85c0,.59-.41.83-.92.53a2,2,0,0,1-.92-1.6c0-.59.41-.83.92-.53A2,2,0,0,1,75.74,101.85Z"/><path class="cls-93" d="M43.7,80.77A3.55,3.55,0,0,0,42.1,78,1.12,1.12,0,0,0,41,77.88h0l-1.14.67.7,0a1.84,1.84,0,0,0,0,.35A3.55,3.55,0,0,0,42.1,81.7a1.8,1.8,0,0,0,.34.15l-.33.61,1.11-.65h0A1.12,1.12,0,0,0,43.7,80.77Z"/><path class="cls-94" d="M42.56,81.44c0,1-.72,1.44-1.61.93a3.55,3.55,0,0,1-1.61-2.78c0-1,.72-1.44,1.61-.93A3.55,3.55,0,0,1,42.56,81.44Z"/><path class="cls-32" d="M41.88,81c0,.59-.41.83-.92.53A2,2,0,0,1,40,80c0-.59.41-.83.92-.53A2,2,0,0,1,41.88,81Z"/><path class="cls-95" d="M77.57,181.72A3.55,3.55,0,0,0,76,178.93a1.12,1.12,0,0,0-1.14-.11h0l-1.14.67.7,0a1.83,1.83,0,0,0,0,.35A3.55,3.55,0,0,0,76,182.64a1.8,1.8,0,0,0,.34.15l-.33.61,1.11-.65h0A1.12,1.12,0,0,0,77.57,181.72Z"/><path class="cls-96" d="M76.42,182.39c0,1-.72,1.44-1.61.93a3.55,3.55,0,0,1-1.61-2.78c0-1,.72-1.44,1.61-.93A3.55,3.55,0,0,1,76.42,182.39Z"/><path class="cls-32" d="M75.74,182c0,.59-.41.83-.92.53a2,2,0,0,1-.92-1.6c0-.59.41-.83.92-.53A2,2,0,0,1,75.74,182Z"/><path class="cls-97" d="M43.7,160.91a3.55,3.55,0,0,0-1.61-2.78A1.13,1.13,0,0,0,41,158h0l-1.14.67.7,0a1.84,1.84,0,0,0,0,.35,3.55,3.55,0,0,0,1.61,2.78,1.81,1.81,0,0,0,.34.15l-.33.61,1.11-.65h0A1.12,1.12,0,0,0,43.7,160.91Z"/><path class="cls-98" d="M42.56,161.58c0,1-.72,1.44-1.61.93a3.55,3.55,0,0,1-1.61-2.78c0-1,.72-1.44,1.61-.93A3.55,3.55,0,0,1,42.56,161.58Z"/><path class="cls-32" d="M41.88,161.19c0,.59-.41.83-.92.53a2,2,0,0,1-.92-1.6c0-.59.41-.83.92-.53A2,2,0,0,1,41.88,161.19Z"/><polygon class="cls-20" points="52.74 113.62 43.84 108.48 43.84 106.53 52.74 111.67 52.74 113.62"/><polygon class="cls-20" points="57.31 116.26 54.1 114.41 54.1 112.45 57.31 114.3 57.31 116.26"/><polygon class="cls-20" points="60.84 118.3 58.67 117.04 58.67 115.09 60.84 116.34 60.84 118.3"/><polygon class="cls-20" points="48.69 115.75 43.84 112.95 43.84 110.99 48.69 113.79 48.69 115.75"/><polygon class="cls-20" points="56 119.96 50.05 116.53 50.05 114.58 56 118.01 56 119.96"/><polygon class="cls-20" points="59.53 122.01 57.36 120.75 57.36 118.79 59.53 120.05 59.53 122.01"/><polygon class="cls-20" points="62.9 123.95 60.72 122.69 60.72 120.74 62.9 121.99 62.9 123.95"/><polygon class="cls-20" points="47.35 119.44 43.84 117.41 43.84 115.46 47.35 117.48 47.35 119.44"/><polygon class="cls-20" points="49.91 120.92 48.71 120.22 48.71 118.27 49.91 118.96 49.91 120.92"/><polygon class="cls-20" points="53.45 122.96 51.27 121.7 51.27 119.75 53.45 121 53.45 122.96"/><polygon class="cls-20" points="56.8 129.35 43.84 121.88 43.84 119.92 56.8 127.4 56.8 129.35"/><polygon class="cls-20" points="61.36 131.99 58.16 130.14 58.16 128.18 61.36 130.03 61.36 131.99"/><polygon class="cls-20" points="47.35 128.37 43.84 126.34 43.84 124.39 47.35 126.41 47.35 128.37"/><polygon class="cls-20" points="55.59 133.12 48.71 129.15 48.71 127.2 55.59 131.17 55.59 133.12"/><polygon class="cls-20" points="59.12 135.16 56.95 133.91 56.95 131.95 59.12 133.21 59.12 135.16"/><polygon class="cls-20" points="51.02 134.95 43.84 130.81 43.84 128.85 51.02 133 51.02 134.95"/><polygon class="cls-20" points="57.58 138.73 52.38 135.74 52.38 133.78 57.58 136.78 57.58 138.73"/><polygon class="cls-20" points="62.44 141.54 58.93 139.52 58.93 137.56 62.44 139.59 62.44 141.54"/><polygon class="cls-20" points="46.27 136.67 43.84 135.27 43.84 133.32 46.27 134.72 46.27 136.67"/><polygon class="cls-20" points="50.83 139.31 47.63 137.46 47.63 135.5 50.83 137.35 50.83 139.31"/><polygon class="cls-20" points="57.36 143.07 52.19 140.09 52.19 138.14 57.36 141.12 57.36 143.07"/><polygon class="cls-20" points="51.27 144.02 43.84 139.74 43.84 137.78 51.27 142.07 51.27 144.02"/><polygon class="cls-20" points="59.59 148.83 52.63 144.81 52.63 142.85 59.59 146.87 59.59 148.83"/><polygon class="cls-20" points="63.13 150.87 60.95 149.61 60.95 147.66 63.13 148.91 63.13 150.87"/><polygon class="cls-20" points="66.52 152.83 64.34 151.57 64.34 149.62 66.52 150.87 66.52 152.83"/><polygon class="cls-20" points="48.3 146.77 43.84 144.2 43.84 142.25 48.3 144.81 48.3 146.77"/><polygon class="cls-20" points="66.9 121.8 73.08 125.36 73.08 123.41 66.9 119.84 66.9 121.8"/><polygon class="cls-20" points="68.23 127.02 73.08 129.82 73.08 127.87 68.23 125.07 68.23 127.02"/><polygon class="cls-20" points="69.57 132.26 73.08 134.29 73.08 132.33 69.57 130.31 69.57 132.26"/><polygon class="cls-20" points="67.97 135.81 73.08 138.75 73.08 136.8 67.97 133.85 67.97 135.81"/><polygon class="cls-20" points="69.57 141.19 73.08 143.22 73.08 141.26 69.57 139.24 69.57 141.19"/><polygon class="cls-20" points="68.63 145.11 73.08 147.68 73.08 145.73 68.63 143.16 68.63 145.11"/><polygon class="cls-20" points="70.65 150.75 73.08 152.15 73.08 150.19 70.65 148.79 70.65 150.75"/><polygon class="cls-20" points="68.38 153.9 73.08 156.61 73.08 154.66 68.38 151.94 68.38 153.9"/><polygon class="cls-20" points="68.63 158.51 73.08 161.08 73.08 159.12 68.63 156.55 68.63 158.51"/><polygon class="cls-20" points="51.55 148.65 49.65 147.55 49.65 145.6 51.55 146.69 51.55 148.65"/><polygon class="cls-20" points="57.17 151.89 52.91 149.43 52.91 147.48 57.17 149.94 57.17 151.89"/><polygon class="cls-20" points="60.69 166.91 53.5 162.76 53.5 160.8 60.69 164.95 60.69 166.91"/><polygon class="cls-20" points="65.61 169.75 62.78 168.12 62.78 166.16 65.61 167.8 65.61 169.75"/><polygon class="cls-21" points="124.82 123.92 84.44 100.61 124.82 77.29 165.2 100.61 124.82 123.92"/><polygon class="cls-22" points="124.82 213.4 84.44 190.09 124.82 166.78 165.2 190.09 124.82 213.4"/><polygon class="cls-99" points="165.2 100.61 165.2 190.09 124.82 213.4 124.82 123.92 165.2 100.61"/><polygon class="cls-24" points="84.44 100.61 84.44 190.09 124.82 213.4 124.82 123.92 84.44 100.61"/><g class="cls-25"><polygon class="cls-26" points="87.18 106.54 87.18 186.97 122.09 207.13 122.09 126.7 87.18 106.54"/></g><polygon class="cls-26" points="159.14 122.23 159.14 124.59 130.88 140.91 130.88 138.54 159.14 122.23"/><polygon class="cls-26" points="159.14 132.23 159.14 134.59 130.88 150.91 130.88 148.55 159.14 132.23"/><polygon class="cls-26" points="159.14 142.23 159.14 144.59 130.88 160.91 130.88 158.55 159.14 142.23"/><polygon class="cls-26" points="159.14 152.23 159.14 154.59 130.88 170.91 130.88 168.55 159.14 152.23"/><polygon class="cls-26" points="159.14 162.23 159.14 164.59 130.88 180.91 130.88 178.55 159.14 162.23"/><polygon class="cls-26" points="159.14 172.23 159.14 174.59 130.88 190.91 130.88 188.55 159.14 172.23"/><g class="cls-100"><polygon class="cls-101" points="124.82 117.79 114.21 117.79 84.44 100.61 116.83 81.91 124.82 81.91 124.82 117.79"/></g><polygon class="cls-102" points="124.82 115.73 95.52 98.82 124.82 81.91 154.12 98.82 124.82 115.73"/><polygon class="cls-103" points="154.12 98.82 154.12 100.88 124.82 117.79 124.82 115.73 154.12 98.82"/><polygon class="cls-104" points="95.52 98.82 95.52 100.88 124.82 117.79 124.82 115.73 95.52 98.82"/><polygon class="cls-32" points="113.46 99.09 112.16 98.34 112.27 97.73 124.3 90.73 125.97 91.53 125.66 92.04 113.46 99.09"/><polygon class="cls-105" points="124.37 91.3 125.66 92.04 126.5 91.56 124.37 90.33 111.33 97.86 112.16 98.34 124.37 91.3"/><polygon class="cls-32" points="117.4 101.36 116.1 100.61 116.21 100 128.24 93 129.91 93.79 129.6 94.31 117.4 101.36"/><polygon class="cls-106" points="128.31 93.56 129.6 94.31 130.44 93.83 128.31 92.6 115.27 100.13 116.1 100.61 128.31 93.56"/><polygon class="cls-32" points="121.33 103.63 120.04 102.88 120.14 102.27 132.18 95.26 133.85 96.06 133.54 96.58 121.33 103.63"/><polygon class="cls-107" points="132.25 95.83 133.54 96.58 134.38 96.09 132.25 94.86 119.2 102.39 120.04 102.88 132.25 95.83"/><polygon class="cls-32" points="125.27 105.89 123.98 105.14 124.08 104.53 136.12 97.53 137.79 98.33 137.48 98.84 125.27 105.89"/><polygon class="cls-108" points="136.18 98.1 137.48 98.84 138.31 98.36 136.18 97.13 123.14 104.66 123.98 105.14 136.18 98.1"/><g class="cls-25"><polygon class="cls-26" points="84.44 175.95 124.82 151.57 124.82 123.92 84.44 100.61 84.44 175.95"/></g><path class="cls-109" d="M123.22,127.94a3.55,3.55,0,0,0-1.61-2.78,1.13,1.13,0,0,0-1.14-.11h0l-1.14.67.7,0a1.83,1.83,0,0,0,0,.35,3.55,3.55,0,0,0,1.61,2.78,1.81,1.81,0,0,0,.34.15l-.33.61,1.11-.65h0A1.12,1.12,0,0,0,123.22,127.94Z"/><path class="cls-110" d="M122.08,128.61c0,1-.72,1.44-1.61.93a3.55,3.55,0,0,1-1.61-2.78c0-1,.72-1.44,1.61-.93A3.55,3.55,0,0,1,122.08,128.61Z"/><path class="cls-32" d="M121.39,128.22c0,.59-.41.83-.92.53a2,2,0,0,1-.92-1.6c0-.59.41-.83.92-.53A2,2,0,0,1,121.39,128.22Z"/><path class="cls-111" d="M89.36,107.14a3.55,3.55,0,0,0-1.61-2.78,1.12,1.12,0,0,0-1.14-.11h0l-1.14.67.7,0a1.84,1.84,0,0,0,0,.35,3.55,3.55,0,0,0,1.61,2.78,1.8,1.8,0,0,0,.34.15l-.33.61,1.11-.65h0A1.12,1.12,0,0,0,89.36,107.14Z"/><path class="cls-112" d="M88.21,107.81c0,1-.72,1.44-1.61.93A3.55,3.55,0,0,1,85,106c0-1,.72-1.44,1.61-.93A3.55,3.55,0,0,1,88.21,107.81Z"/><path class="cls-32" d="M87.53,107.41c0,.59-.41.83-.92.53a2,2,0,0,1-.92-1.6c0-.59.41-.83.92-.53A2,2,0,0,1,87.53,107.41Z"/><path class="cls-113" d="M123.22,208.08a3.55,3.55,0,0,0-1.61-2.78,1.12,1.12,0,0,0-1.14-.11h0l-1.14.67.7,0a1.83,1.83,0,0,0,0,.35,3.55,3.55,0,0,0,1.61,2.78,1.8,1.8,0,0,0,.34.15l-.33.61,1.11-.65h0A1.12,1.12,0,0,0,123.22,208.08Z"/><path class="cls-114" d="M122.08,208.75c0,1-.72,1.44-1.61.93a3.55,3.55,0,0,1-1.61-2.78c0-1,.72-1.44,1.61-.93A3.55,3.55,0,0,1,122.08,208.75Z"/><path class="cls-32" d="M121.39,208.36c0,.59-.41.83-.92.53a2,2,0,0,1-.92-1.6c0-.59.41-.83.92-.53A2,2,0,0,1,121.39,208.36Z"/><path class="cls-115" d="M89.36,187.28a3.55,3.55,0,0,0-1.61-2.78,1.13,1.13,0,0,0-1.14-.11h0l-1.14.67.7,0a1.84,1.84,0,0,0,0,.35,3.55,3.55,0,0,0,1.61,2.78,1.81,1.81,0,0,0,.34.15l-.33.61,1.11-.65h0A1.12,1.12,0,0,0,89.36,187.28Z"/><path class="cls-116" d="M88.21,187.95c0,1-.72,1.44-1.61.93A3.55,3.55,0,0,1,85,186.09c0-1,.72-1.44,1.61-.93A3.55,3.55,0,0,1,88.21,187.95Z"/><path class="cls-32" d="M87.53,187.55c0,.59-.41.83-.92.53a2,2,0,0,1-.92-1.6c0-.59.41-.83.92-.53A2,2,0,0,1,87.53,187.55Z"/><polygon class="cls-20" points="98.4 139.99 89.5 134.85 89.5 132.9 98.4 138.03 98.4 139.99"/><polygon class="cls-20" points="102.96 142.62 99.76 140.77 99.76 138.82 102.96 140.67 102.96 142.62"/><polygon class="cls-20" points="106.5 144.66 104.32 143.41 104.32 141.45 106.5 142.71 106.5 144.66"/><polygon class="cls-20" points="94.35 142.11 89.5 139.31 89.5 137.36 94.35 140.16 94.35 142.11"/><polygon class="cls-20" points="101.65 146.33 95.71 142.9 95.71 140.94 101.65 144.38 101.65 146.33"/><polygon class="cls-20" points="105.19 148.37 103.01 147.11 103.01 145.16 105.19 146.42 105.19 148.37"/><polygon class="cls-20" points="108.55 150.31 106.38 149.06 106.38 147.1 108.55 148.36 108.55 150.31"/><polygon class="cls-20" points="93.01 145.8 89.5 143.78 89.5 141.82 93.01 143.85 93.01 145.8"/><polygon class="cls-20" points="95.57 147.28 94.37 146.59 94.37 144.63 95.57 145.33 95.57 147.28"/><polygon class="cls-20" points="99.1 149.32 96.93 148.07 96.93 146.11 99.1 147.37 99.1 149.32"/><polygon class="cls-20" points="102.45 155.72 89.5 148.24 89.5 146.29 102.45 153.76 102.45 155.72"/><polygon class="cls-20" points="107.01 158.35 103.81 156.5 103.81 154.55 107.01 156.4 107.01 158.35"/><polygon class="cls-20" points="93.01 154.73 89.5 152.71 89.5 150.75 93.01 152.78 93.01 154.73"/><polygon class="cls-20" points="101.24 159.49 94.37 155.52 94.37 153.56 101.24 157.53 101.24 159.49"/><polygon class="cls-20" points="104.78 161.53 102.6 160.27 102.6 158.32 104.78 159.57 104.78 161.53"/><polygon class="cls-20" points="96.68 161.32 89.5 157.17 89.5 155.22 96.68 159.36 96.68 161.32"/><polygon class="cls-20" points="103.23 165.1 98.04 162.1 98.04 160.15 103.23 163.14 103.23 165.1"/><polygon class="cls-20" points="108.1 167.91 104.59 165.88 104.59 163.93 108.1 165.95 108.1 167.91"/><polygon class="cls-20" points="91.92 163.04 89.5 161.64 89.5 159.68 91.92 161.08 91.92 163.04"/><polygon class="cls-20" points="96.49 165.67 93.28 163.82 93.28 161.87 96.49 163.72 96.49 165.67"/><polygon class="cls-20" points="103.01 169.44 97.85 166.46 97.85 164.5 103.01 167.48 103.01 169.44"/><polygon class="cls-20" points="96.93 170.39 89.5 166.1 89.5 164.15 96.93 168.43 96.93 170.39"/><polygon class="cls-20" points="105.25 175.19 98.29 171.17 98.29 169.22 105.25 173.24 105.25 175.19"/><polygon class="cls-20" points="108.78 177.23 106.6 175.98 106.6 174.02 108.78 175.28 108.78 177.23"/><polygon class="cls-20" points="112.18 179.19 110 177.94 110 175.98 112.18 177.24 112.18 179.19"/><polygon class="cls-20" points="93.95 173.13 89.5 170.56 89.5 168.61 93.95 171.18 93.95 173.13"/><polygon class="cls-20" points="112.56 148.16 118.73 151.72 118.73 149.77 112.56 146.21 112.56 148.16"/><polygon class="cls-20" points="113.88 153.39 118.73 156.19 118.73 154.24 113.88 151.44 113.88 153.39"/><polygon class="cls-20" points="115.22 158.63 118.73 160.65 118.73 158.7 115.22 156.67 115.22 158.63"/><polygon class="cls-20" points="113.63 162.17 118.73 165.12 118.73 163.16 113.63 160.22 113.63 162.17"/><polygon class="cls-20" points="115.22 167.56 118.73 169.58 118.73 167.63 115.22 165.6 115.22 167.56"/><polygon class="cls-20" points="114.28 171.48 118.73 174.05 118.73 172.09 114.28 169.52 114.28 171.48"/><polygon class="cls-20" points="116.31 177.11 118.73 178.51 118.73 176.56 116.31 175.16 116.31 177.11"/><polygon class="cls-20" points="114.03 180.26 118.73 182.98 118.73 181.02 114.03 178.31 114.03 180.26"/><polygon class="cls-20" points="114.28 184.87 118.73 187.44 118.73 185.49 114.28 182.92 114.28 184.87"/><polygon class="cls-20" points="97.2 175.01 95.31 173.92 95.31 171.97 97.2 173.06 97.2 175.01"/><polygon class="cls-20" points="102.82 178.26 98.56 175.8 98.56 173.84 102.82 176.3 102.82 178.26"/><polygon class="cls-20" points="106.34 193.27 99.16 189.12 99.16 187.17 106.34 191.32 106.34 193.27"/><polygon class="cls-20" points="111.27 196.12 108.44 194.48 108.44 192.53 111.27 194.16 111.27 196.12"/><path class="cls-20" d="M91.62,122.43c-.3.87-.5,1-1.1.61l-.2-.12-.05-.1v-.48l.05,0,.2.12c.25.14.35.13.45,0v-.21l-.85-3.4v-.48l0,0,.3.17.05.1.7,3,.1.06.7-2.16.05,0,.3.17.05.1v.49Z"/><path class="cls-20" d="M94.29,124.17A2.9,2.9,0,0,1,93,121.64c0-1.11.5-1.52,1.26-1.08l.05,0a2.89,2.89,0,0,1,1.27,2.53c0,1.11-.51,1.52-1.27,1.08Zm.05-.6c.46.26.76,0,.76-.75a1.8,1.8,0,0,0-.76-1.62l-.05,0c-.46-.26-.76,0-.76.75a1.8,1.8,0,0,0,.76,1.62Z"/><path class="cls-20" d="M98.47,126.51l-.36-.21-.05-.1-.05-.31-.05,0s-.2.3-.66,0a2.34,2.34,0,0,1-1-2v-2l.05,0,.41.23.05.1v2a1.32,1.32,0,0,0,.56,1.16c.36.21.66,0,.66-.74v-1.75l.05,0,.41.23.05.1v3.36Z"/><path class="cls-20" d="M101.8,126.18l-.05,0-.41-.24-.05-.1a1.09,1.09,0,0,0-.57-1c-.46-.26-.72-.13-.72.71v1.75l-.05,0-.41-.24-.05-.1v-3.36l.05,0,.36.21.05.1.05.31.05,0s.21-.3.72,0A2.15,2.15,0,0,1,101.8,126.18Z"/><path class="cls-20" d="M107.93,132l-.37-.21-.05-.1-.05-.31-.05,0s-.21.3-.73,0a2.86,2.86,0,0,1-1.15-2.49c0-1.06.42-1.6,1.15-1.18a1.83,1.83,0,0,1,.73.84l.05,0v-1.7l.05,0,.42.24.05.1v4.81Zm-1.2-3.66c-.42-.24-.68,0-.68.81a1.75,1.75,0,0,0,.68,1.59c.42.24.73.07.73-.78A1.75,1.75,0,0,0,106.73,128.3Z"/><path class="cls-20" d="M111.14,133.79l-.37-.21-.05-.1-.05-.31-.05,0s-.21.3-.79,0a1.84,1.84,0,0,1-.94-1.68c0-.85.52-.83,1.21-.44a3.27,3.27,0,0,1,.53.37l.05,0v-.14a1,1,0,0,0-.58-1c-.37-.21-.58-.19-.58.09l-.05,0-.42-.24L109,130c0-.57.31-.88,1.1-.43a2.23,2.23,0,0,1,1.1,2.19v2Zm-.47-1.76-.05-.1a2.33,2.33,0,0,0-.47-.34c-.47-.27-.73-.28-.73.15a.84.84,0,0,0,.52.8c.42.24.74.07.74-.29Z"/><path class="cls-20" d="M112.51,131.74l-.05-.1-.42-.24-.05-.1v-.5l.05,0,.42.24.05,0V130l.05,0,.42.24.05.1v.92l.05.1.9.51.05.1v.5l-.05,0-.9-.51-.05,0v1.42a1.18,1.18,0,0,0,.53,1.16c.21.12.48.13.48-.37v-.14l.05,0,.42.24.05.1v.14c0,1-.58.95-1,.7a2.3,2.3,0,0,1-1.06-2.1Z"/><path class="cls-20" d="M117.62,137.52l-.37-.22-.05-.1-.05-.32-.05,0s-.21.31-.8,0a1.86,1.86,0,0,1-1-1.69c0-.86.53-.84,1.23-.44a3.34,3.34,0,0,1,.53.38l.05,0v-.14a1,1,0,0,0-.59-1c-.37-.21-.59-.19-.59.09l-.05,0-.43-.24-.05-.1c0-.57.32-.89,1.12-.43a2.25,2.25,0,0,1,1.12,2.21v2Zm-.48-1.78-.05-.1a2.38,2.38,0,0,0-.48-.35c-.48-.28-.75-.29-.75.14a.85.85,0,0,0,.53.81c.43.25.75.07.75-.29Z"/><path class="cls-20" d="M92.12,128.57l-.05,0-.4-.23-.05-.1-.35-2.42-.05,0-.35,2-.05,0-.4-.23-.05-.1-.5-3.13v-.48l0,0,.3.17.05.1.35,2.42.05,0,.35-2,.05,0,.35.2.05.1.35,2.42.05,0,.35-2,.05,0,.3.17.05.1V126Z"/><path class="cls-20" d="M95.36,130.52l-.36-.21-.05-.1-.05-.31-.05,0s-.2.3-.76,0a1.81,1.81,0,0,1-.91-1.64c0-.83.51-.82,1.16-.44a3.14,3.14,0,0,1,.51.36l.05,0V128a1,1,0,0,0-.56-.95c-.35-.21-.56-.18-.56.09l-.05,0-.4-.23-.05-.1c0-.56.3-.87,1.06-.43a2.19,2.19,0,0,1,1.06,2.15v2Zm-.46-1.73-.05-.1a2.24,2.24,0,0,0-.46-.33c-.46-.26-.71-.27-.71.15a.82.82,0,0,0,.51.78c.41.24.71.06.71-.28Z"/><path class="cls-20" d="M98.67,130.22l-.05,0-.41-.24-.05-.1a1.09,1.09,0,0,0-.56-1c-.46-.27-.71-.13-.71.7v1.74l-.05,0-.41-.24-.05-.1V127.7l.05,0,.36.21.05.1.05.31.05,0s.2-.3.71,0A2.16,2.16,0,0,1,98.67,130.22Z"/><path class="cls-20" d="M99.29,131.06c0-1,.36-1.61,1.23-1.11a2.85,2.85,0,0,1,1.23,2.54v.21l-.05,0-1.8-1-.05,0a1.51,1.51,0,0,0,.72,1.26c.26.15.46.2.57-.09l.05,0,.41.24.05.1c-.05.53-.41.81-1.08.42A2.87,2.87,0,0,1,99.29,131.06Zm1.9.75a1.41,1.41,0,0,0-.67-1.23c-.62-.36-.67.24-.67.45l.05.1,1.23.71Z"/><path class="cls-20" d="M104.81,136l-.42-.24-.05-.1v-2a1.34,1.34,0,0,0-.57-1.17c-.41-.24-.72-.14-.72.71v1.76l-.05,0-.41-.24-.05-.1v-4.78l.05,0,.41.24.05.1v1.69l.05,0s.21-.3.72,0a2.3,2.3,0,0,1,1,2.08v2Z"/><path class="cls-20" d="M106.84,137.28a3,3,0,0,1-1.3-2.59c0-1.13.52-1.53,1.3-1.08l.05,0a3,3,0,0,1,1.31,2.59c0,1.13-.52,1.53-1.31,1.08Zm.05-.6c.47.27.78,0,.78-.75a1.85,1.85,0,0,0-.78-1.65l-.05,0c-.47-.27-.78,0-.78.75a1.85,1.85,0,0,0,.78,1.65Z"/><path class="cls-20" d="M111.14,139.71l-.37-.21-.05-.1-.05-.31-.05,0s-.21.3-.68,0a2.4,2.4,0,0,1-1-2.1v-2.05l.05,0,.42.24.05.1v2.05a1.35,1.35,0,0,0,.58,1.19c.37.21.68,0,.68-.74V136l.05,0,.42.24.05.1v3.41Z"/><path class="cls-20" d="M112.14,137.67c0-.64.42-.75,1.11-.35a2,2,0,0,1,1.11,1.71l-.05,0-.42-.25-.05-.1c0-.28-.16-.52-.58-.76s-.58-.19-.58,0,.21.55.74.93a2,2,0,0,1,1,1.65c0,.71-.42.89-1.17.46a2.23,2.23,0,0,1-1.16-1.88l.05,0,.42.25.05.1a1.11,1.11,0,0,0,.63.94c.42.25.64.23.64-.13s-.21-.55-.74-.93A2,2,0,0,1,112.14,137.67Z"/><path class="cls-20" d="M115.22,140.3c0-1,.37-1.64,1.28-1.11a2.92,2.92,0,0,1,1.28,2.6V142l-.05,0L115.85,141l-.05,0a1.55,1.55,0,0,0,.75,1.29c.27.15.48.21.59-.09l.05,0,.43.25.05.1c-.05.54-.43.82-1.12.42A3,3,0,0,1,115.22,140.3Zm2,.79a1.44,1.44,0,0,0-.69-1.26c-.64-.37-.69.24-.69.46l.05.1,1.28.74Z"/></svg>