<svg xmlns="http://www.w3.org/2000/svg" xmlns:xlink="http://www.w3.org/1999/xlink" viewBox="0 0 200 200"><defs><style>.cls-1{isolation:isolate;}.cls-11,.cls-14,.cls-15,.cls-2{fill:#2bd978;}.cls-2{mix-blend-mode:lighten;}.cls-3{fill:url(#_ÂÁ_Ï_ÌÌ_È_ËÂÌÚ_4);}.cls-4{fill:#f2f2f0;}.cls-5{fill:#fff;}.cls-6{fill:#0f054c;}.cls-10,.cls-11,.cls-12,.cls-13,.cls-7,.cls-8,.cls-9{opacity:0.5;}.cls-7{fill:url(#_ÂÁ_Ï_ÌÌ_È_ËÂÌÚ_5);}.cls-8{fill:url(#_ÂÁ_Ï_ÌÌ_È_ËÂÌÚ_5-2);}.cls-9{fill:url(#_ÂÁ_Ï_ÌÌ_È_ËÂÌÚ_5-3);}.cls-10{fill:url(#_ÂÁ_Ï_ÌÌ_È_ËÂÌÚ_5-4);}.cls-12{fill:url(#_ÂÁ_Ï_ÌÌ_È_ËÂÌÚ_5-5);}.cls-13{fill:url(#_ÂÁ_Ï_ÌÌ_È_ËÂÌÚ_5-6);}.cls-14{opacity:0.8;}.cls-16{fill:#41e583;}.cls-17{fill:#25bf63;opacity:0.7;}</style><linearGradient id="_ÂÁ_Ï_ÌÌ_È_ËÂÌÚ_4" x1="-19.82" y1="145.91" x2="187.18" y2="145.91" gradientUnits="userSpaceOnUse"><stop offset="0" stop-color="#424240"/><stop offset="0.11" stop-color="#494947"/><stop offset="0.28" stop-color="#5d5d5b"/><stop offset="0.48" stop-color="#7d7d7b"/><stop offset="0.7" stop-color="#aaaaa8"/><stop offset="0.94" stop-color="#e2e2e0"/><stop offset="1" stop-color="#f2f2f0"/></linearGradient><linearGradient id="_ÂÁ_Ï_ÌÌ_È_ËÂÌÚ_5" x1="38.76" y1="117.94" x2="163" y2="117.94" gradientUnits="userSpaceOnUse"><stop offset="0" stop-color="#2bd978"/><stop offset="0.14" stop-color="#2cd476"/><stop offset="0.31" stop-color="#2ec671"/><stop offset="0.49" stop-color="#32ae68"/><stop offset="0.68" stop-color="#378d5c"/><stop offset="0.87" stop-color="#3d634c"/><stop offset="1" stop-color="#424240"/></linearGradient><linearGradient id="_ÂÁ_Ï_ÌÌ_È_ËÂÌÚ_5-2" x1="100.88" y1="95.48" x2="163" y2="95.48" xlink:href="#_ÂÁ_Ï_ÌÌ_È_ËÂÌÚ_5"/><linearGradient id="_ÂÁ_Ï_ÌÌ_È_ËÂÌÚ_5-3" x1="38.76" y1="95.48" x2="100.88" y2="95.48" xlink:href="#_ÂÁ_Ï_ÌÌ_È_ËÂÌÚ_5"/><linearGradient id="_ÂÁ_Ï_ÌÌ_È_ËÂÌÚ_5-4" x1="38.76" y1="108.89" x2="163" y2="108.89" xlink:href="#_ÂÁ_Ï_ÌÌ_È_ËÂÌÚ_5"/><linearGradient id="_ÂÁ_Ï_ÌÌ_È_ËÂÌÚ_5-5" x1="100.88" y1="131.35" x2="163" y2="131.35" xlink:href="#_ÂÁ_Ï_ÌÌ_È_ËÂÌÚ_5"/><linearGradient id="_ÂÁ_Ï_ÌÌ_È_ËÂÌÚ_5-6" x1="38.76" y1="131.35" x2="100.88" y2="131.35" xlink:href="#_ÂÁ_Ï_ÌÌ_È_ËÂÌÚ_5"/></defs><title>raw_ai</title><g class="cls-1"><g id="Layer_1" data-name="Layer 1"><path class="cls-2" d="M109.22,77.88a1.8,1.8,0,0,1-.91-.24,2.39,2.39,0,0,1-1-2.2V72.91a1.79,1.79,0,0,0-3-1.71l-2.2,1.27-.16-.27,2.2-1.27a2.1,2.1,0,0,1,3.43,2v2.54a1.79,1.79,0,0,0,3,1.71l10.51-6.07.16.27-10.51,6.07A3.06,3.06,0,0,1,109.22,77.88Z"/><path class="cls-2" d="M113.31,80.23a1.8,1.8,0,0,1-.91-.24,2.39,2.39,0,0,1-1-2.2V75.26a1.79,1.79,0,0,0-3-1.71l-2.2,1.27-.16-.27,2.2-1.27a2.1,2.1,0,0,1,3.43,2v2.54a1.79,1.79,0,0,0,3,1.71l10.51-6.07.16.27-10.51,6.07A3.06,3.06,0,0,1,113.31,80.23Z"/><path class="cls-2" d="M117.4,82.58a1.8,1.8,0,0,1-.91-.24,2.39,2.39,0,0,1-1-2.2V77.61a1.79,1.79,0,0,0-3-1.71l-2.2,1.27-.16-.27,2.2-1.27a2.1,2.1,0,0,1,3.43,2v2.53a1.79,1.79,0,0,0,3,1.71l10.51-6.07.16.27-10.51,6.07A3.06,3.06,0,0,1,117.4,82.58Z"/><path class="cls-2" d="M121.49,84.93a1.8,1.8,0,0,1-.91-.23,2.39,2.39,0,0,1-1-2.21V80a1.79,1.79,0,0,0-3-1.71l-2.2,1.27-.16-.27,2.2-1.27a2.1,2.1,0,0,1,3.43,2v2.53a1.79,1.79,0,0,0,3,1.71l10.51-6.07.16.27L123,84.48A3,3,0,0,1,121.49,84.93Z"/><path class="cls-2" d="M125.58,87.29a1.79,1.79,0,0,1-.91-.23,2.39,2.39,0,0,1-1-2.21V82.31a1.79,1.79,0,0,0-3-1.71l-2.2,1.27-.16-.27,2.2-1.27a2.1,2.1,0,0,1,3.43,2v2.53a1.79,1.79,0,0,0,3,1.71l10.51-6.07.16.27-10.51,6.07A3.05,3.05,0,0,1,125.58,87.29Z"/><path class="cls-2" d="M129.66,89.64a1.79,1.79,0,0,1-.91-.23,2.39,2.39,0,0,1-1-2.2V84.66a1.79,1.79,0,0,0-3-1.71l-2.2,1.27-.16-.27,2.2-1.27a2.1,2.1,0,0,1,3.43,2V87.2a1.79,1.79,0,0,0,3,1.71l10.51-6.07.16.27-10.51,6.07A3.05,3.05,0,0,1,129.66,89.64Z"/><path class="cls-2" d="M133.75,92a1.79,1.79,0,0,1-.91-.23,2.39,2.39,0,0,1-1-2.2V87a1.79,1.79,0,0,0-3-1.71l-2.2,1.27-.16-.27,2.2-1.27a2.1,2.1,0,0,1,3.43,2v2.54a1.79,1.79,0,0,0,3,1.71l10.51-6.07.16.27-10.51,6.07A3.05,3.05,0,0,1,133.75,92Z"/><path class="cls-2" d="M137.84,94.34a1.8,1.8,0,0,1-.91-.24,2.39,2.39,0,0,1-1-2.2V89.37a1.79,1.79,0,0,0-3-1.71l-2.2,1.27-.16-.27,2.2-1.27a2.1,2.1,0,0,1,3.43,2V91.9a1.79,1.79,0,0,0,3,1.71l10.51-6.07.16.27-10.51,6.07A3.06,3.06,0,0,1,137.84,94.34Z"/><path class="cls-2" d="M158.28,106.1a1.79,1.79,0,0,1-.91-.23,2.39,2.39,0,0,1-1-2.21v-2.53a1.79,1.79,0,0,0-3-1.71l-2.2,1.27-.16-.27,2.2-1.27a2.1,2.1,0,0,1,3.43,2v2.53a1.79,1.79,0,0,0,3,1.71l10.51-6.07.16.27-10.51,6.07A3.05,3.05,0,0,1,158.28,106.1Z"/><path class="cls-2" d="M162.37,108.45a1.79,1.79,0,0,1-.91-.23,2.39,2.39,0,0,1-1-2.2v-2.54a1.79,1.79,0,0,0-3-1.71l-2.2,1.27-.16-.27,2.2-1.27a2.1,2.1,0,0,1,3.43,2V106a1.79,1.79,0,0,0,3,1.71l10.51-6.07.16.27L163.87,108A3.05,3.05,0,0,1,162.37,108.45Z"/><path class="cls-2" d="M166.46,110.8a1.8,1.8,0,0,1-.91-.23,2.39,2.39,0,0,1-1-2.2v-2.54a1.79,1.79,0,0,0-3-1.71l-2.2,1.27-.16-.27,2.2-1.27a2.1,2.1,0,0,1,3.43,2v2.54a1.79,1.79,0,0,0,3,1.71L178.31,104l.16.27L168,110.34A3.05,3.05,0,0,1,166.46,110.8Z"/><path class="cls-2" d="M170.55,113.16a1.8,1.8,0,0,1-.91-.24,2.39,2.39,0,0,1-1-2.2v-2.54a1.79,1.79,0,0,0-3-1.71l-2.2,1.27-.16-.27,2.2-1.27a2.1,2.1,0,0,1,3.43,2v2.54a1.79,1.79,0,0,0,3,1.71l10.51-6.07.16.27-10.51,6.07A3.06,3.06,0,0,1,170.55,113.16Z"/><path class="cls-2" d="M174.63,115.51a1.8,1.8,0,0,1-.91-.24,2.39,2.39,0,0,1-1-2.2v-2.54a1.79,1.79,0,0,0-3-1.71l-2.2,1.27-.16-.27,2.2-1.27a2.1,2.1,0,0,1,3.43,2v2.54a1.79,1.79,0,0,0,3,1.71l10.51-6.07.16.27L176.14,115A3.06,3.06,0,0,1,174.63,115.51Z"/><path class="cls-2" d="M178.72,117.86a1.8,1.8,0,0,1-.91-.24,2.39,2.39,0,0,1-1-2.2v-2.53a1.79,1.79,0,0,0-3-1.71l-2.2,1.27-.16-.27,2.2-1.27a2.1,2.1,0,0,1,3.43,2v2.53a1.79,1.79,0,0,0,3,1.71l10.51-6.07.16.27-10.51,6.07A3.06,3.06,0,0,1,178.72,117.86Z"/><path class="cls-2" d="M182.81,120.21a1.8,1.8,0,0,1-.91-.23,2.39,2.39,0,0,1-1-2.2v-2.53a1.79,1.79,0,0,0-3-1.71l-2.2,1.27-.16-.27,2.2-1.27a2.1,2.1,0,0,1,3.43,2v2.53a1.79,1.79,0,0,0,3,1.71l10.51-6.07.16.27-10.51,6.07A3,3,0,0,1,182.81,120.21Z"/><path class="cls-2" d="M186.9,122.56a1.79,1.79,0,0,1-.91-.23,2.39,2.39,0,0,1-1-2.21v-2.53a1.79,1.79,0,0,0-3-1.71l-2.2,1.27-.16-.27,2.2-1.27a2.1,2.1,0,0,1,3.43,2v2.53a1.79,1.79,0,0,0,3,1.71l10.51-6.07.16.27L188.4,122.1A3.05,3.05,0,0,1,186.9,122.56Z"/><path class="cls-2" d="M92.47,77.69A3,3,0,0,1,91,77.23L80.46,71.17l.16-.27L91.13,77a1.79,1.79,0,0,0,3-1.71V72.72a2.1,2.1,0,0,1,3.43-2L99.71,72l-.16.27L97.35,71a1.79,1.79,0,0,0-3,1.71v2.53a2.39,2.39,0,0,1-1,2.21A1.81,1.81,0,0,1,92.47,77.69Z"/><path class="cls-2" d="M88.38,80a3,3,0,0,1-1.51-.46L76.37,73.52l.16-.27L87,79.31a1.79,1.79,0,0,0,3-1.71V75.07a2.1,2.1,0,0,1,3.43-2l2.2,1.27-.16.27-2.2-1.27a1.79,1.79,0,0,0-3,1.71v2.53a2.39,2.39,0,0,1-1,2.21A1.79,1.79,0,0,1,88.38,80Z"/><path class="cls-2" d="M84.3,82.4a3.05,3.05,0,0,1-1.51-.46L72.28,75.87l.16-.27,10.51,6.07a1.79,1.79,0,0,0,3-1.71V77.42a2.1,2.1,0,0,1,3.43-2l2.2,1.27-.16.27-2.2-1.27a1.79,1.79,0,0,0-3,1.71V80a2.39,2.39,0,0,1-1,2.2A1.8,1.8,0,0,1,84.3,82.4Z"/><path class="cls-2" d="M80.21,84.75a3.05,3.05,0,0,1-1.51-.46L68.19,78.22l.16-.27L78.86,84a1.79,1.79,0,0,0,3-1.71V79.77a2.1,2.1,0,0,1,3.43-2l2.2,1.27-.16.27-2.2-1.27a1.79,1.79,0,0,0-3,1.71v2.54a2.39,2.39,0,0,1-1,2.2A1.79,1.79,0,0,1,80.21,84.75Z"/><path class="cls-2" d="M76.12,87.1a3.05,3.05,0,0,1-1.51-.46L64.1,80.57l.16-.27,10.51,6.07a1.79,1.79,0,0,0,3-1.71V82.13a2.1,2.1,0,0,1,3.43-2l2.2,1.27-.16.27L81,80.42a1.79,1.79,0,0,0-3,1.71v2.54a2.39,2.39,0,0,1-1,2.2A1.8,1.8,0,0,1,76.12,87.1Z"/><path class="cls-2" d="M72,89.45a3.06,3.06,0,0,1-1.5-.46L60,82.93l.16-.27,10.51,6.07a1.79,1.79,0,0,0,3-1.71V84.48a2.1,2.1,0,0,1,3.43-2l2.2,1.27-.16.27-2.2-1.27a1.79,1.79,0,0,0-3,1.71V87a2.39,2.39,0,0,1-1,2.2A1.8,1.8,0,0,1,72,89.45Z"/><path class="cls-2" d="M67.94,91.8a3.06,3.06,0,0,1-1.51-.46L55.93,85.28l.16-.27L66.6,91.07a1.79,1.79,0,0,0,3-1.71V86.83a2.1,2.1,0,0,1,3.43-2l2.2,1.27-.16.27-2.2-1.27a1.79,1.79,0,0,0-3,1.71v2.54a2.39,2.39,0,0,1-1,2.2A1.8,1.8,0,0,1,67.94,91.8Z"/><path class="cls-2" d="M63.86,94.16a3.06,3.06,0,0,1-1.5-.46L51.84,87.63l.16-.27,10.51,6.07a1.79,1.79,0,0,0,3-1.71V89.18a2.1,2.1,0,0,1,3.43-2l2.2,1.27-.16.27-2.2-1.27a1.79,1.79,0,0,0-3,1.71v2.53a2.39,2.39,0,0,1-1,2.2A1.8,1.8,0,0,1,63.86,94.16Z"/><path class="cls-2" d="M59.77,96.51A3,3,0,0,1,58.26,96L47.75,90l.16-.27,10.51,6.07a1.79,1.79,0,0,0,3-1.71V91.53a2.1,2.1,0,0,1,3.43-2L67,90.82l-.16.27-2.2-1.27a1.79,1.79,0,0,0-3,1.71v2.53a2.39,2.39,0,0,1-1,2.21A1.81,1.81,0,0,1,59.77,96.51Z"/><path class="cls-2" d="M55.68,98.86a3,3,0,0,1-1.51-.46L43.66,92.33l.16-.27,10.51,6.07a1.79,1.79,0,0,0,3-1.71V93.89a2.1,2.1,0,0,1,3.43-2l2.2,1.27-.16.27-2.2-1.27a1.79,1.79,0,0,0-3,1.71v2.53a2.39,2.39,0,0,1-1,2.21A1.79,1.79,0,0,1,55.68,98.86Z"/><path class="cls-2" d="M51.59,101.21a3.05,3.05,0,0,1-1.51-.46L39.58,94.68l.16-.27,10.51,6.07a1.79,1.79,0,0,0,3-1.71V96.24a2.1,2.1,0,0,1,3.43-2l2.2,1.27-.16.27-2.2-1.27a1.79,1.79,0,0,0-3,1.71v2.54a2.39,2.39,0,0,1-1,2.2A1.8,1.8,0,0,1,51.59,101.21Z"/><path class="cls-2" d="M47.5,103.56A3,3,0,0,1,46,103.1L35.49,97l.16-.27,10.51,6.07a1.79,1.79,0,0,0,3-1.71V98.59a2.1,2.1,0,0,1,3.43-2l2.2,1.27-.16.27-2.2-1.27a1.79,1.79,0,0,0-3,1.71v2.54a2.39,2.39,0,0,1-1,2.2A1.79,1.79,0,0,1,47.5,103.56Z"/><path class="cls-2" d="M43.41,105.91a3.06,3.06,0,0,1-1.51-.46L31.4,99.39l.16-.27,10.51,6.07a1.79,1.79,0,0,0,3-1.71v-2.54a2.1,2.1,0,0,1,3.43-2l2.2,1.27-.16.27-2.2-1.27a1.79,1.79,0,0,0-3,1.71v2.54a2.39,2.39,0,0,1-1,2.2A1.8,1.8,0,0,1,43.41,105.91Z"/><path class="cls-2" d="M39.33,108.27a3.06,3.06,0,0,1-1.51-.46l-10.51-6.07.16-.27L38,107.53a1.79,1.79,0,0,0,3-1.71v-2.54a2.1,2.1,0,0,1,3.43-2l2.2,1.27-.16.27-2.2-1.27a1.79,1.79,0,0,0-3,1.71v2.54a2.39,2.39,0,0,1-1,2.2A1.8,1.8,0,0,1,39.33,108.27Z"/><path class="cls-2" d="M35.24,110.62a3.06,3.06,0,0,1-1.51-.46l-10.51-6.07.16-.27,10.51,6.07a2.1,2.1,0,0,0,2.1.22,2.1,2.1,0,0,0,.86-1.93v-2.54a2.1,2.1,0,0,1,3.43-2l2.2,1.27-.16.27-2.2-1.27a1.79,1.79,0,0,0-3,1.71v2.54a2.39,2.39,0,0,1-1,2.2A1.8,1.8,0,0,1,35.24,110.62Z"/><path class="cls-2" d="M31.15,113a3,3,0,0,1-1.51-.46l-10.51-6.07.16-.27,10.51,6.07a2.1,2.1,0,0,0,2.1.22,2.1,2.1,0,0,0,.86-1.93V108a2.1,2.1,0,0,1,3.43-2l2.2,1.27-.16.27L36,106.29a2.09,2.09,0,0,0-2.1-.22,2.1,2.1,0,0,0-.86,1.93v2.53a2.39,2.39,0,0,1-1,2.21A1.8,1.8,0,0,1,31.15,113Z"/><path class="cls-2" d="M27.06,115.32a3,3,0,0,1-1.51-.46L15,108.79l.16-.27,10.51,6.07a2.09,2.09,0,0,0,2.1.22,2.1,2.1,0,0,0,.86-1.93v-2.53a2.39,2.39,0,0,1,1-2.21,2.39,2.39,0,0,1,2.42.22l2.2,1.27-.16.27-2.2-1.27a2.1,2.1,0,0,0-2.1-.22,2.1,2.1,0,0,0-.86,1.93v2.53a2.39,2.39,0,0,1-1,2.2A1.8,1.8,0,0,1,27.06,115.32Z"/><path class="cls-2" d="M23,117.67a3.05,3.05,0,0,1-1.51-.46L11,111.14l.16-.27,10.51,6.07a2.09,2.09,0,0,0,2.1.22,2.1,2.1,0,0,0,.86-1.93V112.7a2.39,2.39,0,0,1,1-2.2,2.39,2.39,0,0,1,2.42.22l2.2,1.27-.16.27L27.86,111a2.1,2.1,0,0,0-2.1-.22,2.1,2.1,0,0,0-.86,1.93v2.54a2.39,2.39,0,0,1-1,2.2A1.79,1.79,0,0,1,23,117.67Z"/><path class="cls-2" d="M18.89,120a3.05,3.05,0,0,1-1.51-.46L6.87,113.5l.16-.27,10.51,6.07a2.09,2.09,0,0,0,2.1.22,2.1,2.1,0,0,0,.86-1.93v-2.54a2.39,2.39,0,0,1,1-2.2,2.39,2.39,0,0,1,2.42.22l2.2,1.27-.16.27-2.2-1.27a2.1,2.1,0,0,0-2.1-.22,2.1,2.1,0,0,0-.86,1.93v2.54a2.39,2.39,0,0,1-1,2.2A1.8,1.8,0,0,1,18.89,120Z"/><path class="cls-2" d="M14.8,122.38a3.05,3.05,0,0,1-1.51-.46L2.78,115.85l.16-.27,10.51,6.07a2.09,2.09,0,0,0,2.1.22,2.1,2.1,0,0,0,.86-1.93V117.4a2.39,2.39,0,0,1,1-2.2,2.39,2.39,0,0,1,2.42.22l2.2,1.27-.16.27-2.2-1.27a2.1,2.1,0,0,0-2.1-.22,2.1,2.1,0,0,0-.86,1.93v2.54a2.39,2.39,0,0,1-1,2.2A1.79,1.79,0,0,1,14.8,122.38Z"/><path class="cls-2" d="M109.22,77.89a1.8,1.8,0,0,1-.91-.24,2.39,2.39,0,0,1-1-2.2V72.91a1.79,1.79,0,0,0-3-1.71l-2.2,1.27L102,72.2l2.2-1.27a2.1,2.1,0,0,1,3.43,2v2.54a1.79,1.79,0,0,0,3,1.71l10.51-6.07.16.27-10.51,6.07A3.06,3.06,0,0,1,109.22,77.89Z"/><path class="cls-2" d="M113.31,80.24a1.8,1.8,0,0,1-.91-.24,2.39,2.39,0,0,1-1-2.2V75.26a1.79,1.79,0,0,0-3-1.71l-2.2,1.27-.16-.27,2.2-1.27a2.1,2.1,0,0,1,3.43,2V77.8a1.79,1.79,0,0,0,3,1.71l10.51-6.07.16.27-10.51,6.07A3.06,3.06,0,0,1,113.31,80.24Z"/><path class="cls-2" d="M117.4,82.59a1.8,1.8,0,0,1-.91-.24,2.39,2.39,0,0,1-1-2.2V77.62a1.79,1.79,0,0,0-3-1.71l-2.2,1.27-.16-.27,2.2-1.27a2.1,2.1,0,0,1,3.43,2v2.53a1.79,1.79,0,0,0,3,1.71l10.51-6.07.16.27-10.51,6.07A3.06,3.06,0,0,1,117.4,82.59Z"/><path class="cls-2" d="M121.49,84.94a1.8,1.8,0,0,1-.91-.23,2.39,2.39,0,0,1-1-2.21V80a1.79,1.79,0,0,0-3-1.71l-2.2,1.27-.16-.27,2.2-1.27a2.1,2.1,0,0,1,3.43,2V82.5a1.79,1.79,0,0,0,3,1.71l10.51-6.07.16.27L123,84.48A3,3,0,0,1,121.49,84.94Z"/><path class="cls-2" d="M125.58,87.29a1.79,1.79,0,0,1-.91-.23,2.39,2.39,0,0,1-1-2.21V82.32a1.79,1.79,0,0,0-3-1.71l-2.2,1.27-.16-.27,2.2-1.27a2.1,2.1,0,0,1,3.43,2v2.53a1.79,1.79,0,0,0,3,1.71l10.51-6.07.16.27-10.51,6.07A3.05,3.05,0,0,1,125.58,87.29Z"/><path class="cls-2" d="M129.66,89.64a1.79,1.79,0,0,1-.91-.23,2.39,2.39,0,0,1-1-2.2V84.67a1.79,1.79,0,0,0-3-1.71l-2.2,1.27-.16-.27,2.2-1.27a2.1,2.1,0,0,1,3.43,2v2.54a1.79,1.79,0,0,0,3,1.71l10.51-6.07.16.27-10.51,6.07A3.05,3.05,0,0,1,129.66,89.64Z"/><path class="cls-2" d="M133.75,92a1.79,1.79,0,0,1-.91-.23,2.39,2.39,0,0,1-1-2.2V87a1.79,1.79,0,0,0-3-1.71l-2.2,1.27-.16-.27,2.2-1.27a2.1,2.1,0,0,1,3.43,2v2.54a1.79,1.79,0,0,0,3,1.71l10.51-6.07.16.27-10.51,6.07A3.05,3.05,0,0,1,133.75,92Z"/><path class="cls-2" d="M137.84,94.35a1.8,1.8,0,0,1-.91-.24,2.39,2.39,0,0,1-1-2.2V89.37a1.79,1.79,0,0,0-3-1.71l-2.2,1.27-.16-.27,2.2-1.27a2.1,2.1,0,0,1,3.43,2v2.54a1.79,1.79,0,0,0,3,1.71l10.51-6.07.16.27-10.51,6.07A3.06,3.06,0,0,1,137.84,94.35Z"/><path class="cls-2" d="M141.93,96.7a1.8,1.8,0,0,1-.91-.24,2.39,2.39,0,0,1-1-2.2V91.72A1.79,1.79,0,0,0,137,90l-2.2,1.27L134.7,91l2.2-1.27a2.1,2.1,0,0,1,3.43,2v2.54a1.79,1.79,0,0,0,3,1.71l10.19-5.86.16.27-10.19,5.86A3.06,3.06,0,0,1,141.93,96.7Z"/><path class="cls-2" d="M146,99.05a1.79,1.79,0,0,1-.91-.24,2.39,2.39,0,0,1-1-2.2V94.08a1.79,1.79,0,0,0-3-1.71l-2.2,1.27-.16-.27L141,92.1a2.1,2.1,0,0,1,3.43,2v2.54a1.79,1.79,0,0,0,3,1.71l10.19-5.86.16.27-10.19,5.86A3.06,3.06,0,0,1,146,99.05Z"/><path class="cls-2" d="M150.11,101.4a1.8,1.8,0,0,1-.91-.24,2.39,2.39,0,0,1-1-2.2V96.43a1.79,1.79,0,0,0-3-1.71L143,96l-.16-.27,2.2-1.27a2.1,2.1,0,0,1,3.43,2V99a1.79,1.79,0,0,0,3,1.71l10.19-5.86.16.27-10.19,5.86A3.06,3.06,0,0,1,150.11,101.4Z"/><path class="cls-2" d="M154.19,103.75a1.8,1.8,0,0,1-.91-.23,2.39,2.39,0,0,1-1-2.2V98.78a1.79,1.79,0,0,0-3-1.71l-2.2,1.27-.16-.27,2.2-1.27a2.1,2.1,0,0,1,3.43,2v2.53a1.79,1.79,0,0,0,3,1.71l10.19-5.86.16.27L155.7,103.3A3,3,0,0,1,154.19,103.75Z"/><path class="cls-2" d="M158.28,106.11a1.79,1.79,0,0,1-.91-.23,2.39,2.39,0,0,1-1-2.21v-2.53a1.79,1.79,0,0,0-3-1.71l-2.2,1.27-.16-.27,2.2-1.27a2.1,2.1,0,0,1,3.43,2v2.53a1.79,1.79,0,0,0,3,1.71l10.51-6.07.16.27-10.51,6.07A3.05,3.05,0,0,1,158.28,106.11Z"/><path class="cls-2" d="M162.37,108.46a1.79,1.79,0,0,1-.91-.23,2.39,2.39,0,0,1-1-2.2v-2.54a1.79,1.79,0,0,0-3-1.71l-2.2,1.27-.16-.27,2.2-1.27a2.1,2.1,0,0,1,3.43,2V106a1.79,1.79,0,0,0,3,1.71l10.51-6.07.16.27L163.88,108A3.05,3.05,0,0,1,162.37,108.46Z"/><path class="cls-2" d="M166.46,110.81a1.8,1.8,0,0,1-.91-.23,2.39,2.39,0,0,1-1-2.2v-2.54a1.79,1.79,0,0,0-3-1.71l-2.2,1.27-.16-.27,2.2-1.27a2.1,2.1,0,0,1,3.43,2v2.54a1.79,1.79,0,0,0,3,1.71L178.32,104l.16.27L168,110.35A3.05,3.05,0,0,1,166.46,110.81Z"/><path class="cls-2" d="M170.55,113.16a1.8,1.8,0,0,1-.91-.24,2.39,2.39,0,0,1-1-2.2v-2.54a1.79,1.79,0,0,0-3-1.71l-2.2,1.27-.16-.27,2.2-1.27a2.1,2.1,0,0,1,3.43,2v2.54a1.79,1.79,0,0,0,3,1.71l10.51-6.07.16.27-10.51,6.07A3.06,3.06,0,0,1,170.55,113.16Z"/><path class="cls-2" d="M174.63,115.51a1.8,1.8,0,0,1-.91-.24,2.39,2.39,0,0,1-1-2.2v-2.54a1.79,1.79,0,0,0-3-1.71l-2.2,1.27-.16-.27,2.2-1.27a2.1,2.1,0,0,1,3.43,2v2.54a1.79,1.79,0,0,0,3,1.71l10.51-6.07.16.27-10.51,6.07A3.06,3.06,0,0,1,174.63,115.51Z"/><path class="cls-2" d="M178.72,117.86a1.8,1.8,0,0,1-.91-.24,2.39,2.39,0,0,1-1-2.2v-2.53a1.79,1.79,0,0,0-3-1.71l-2.2,1.27-.16-.27,2.2-1.27a2.1,2.1,0,0,1,3.43,2v2.53a1.79,1.79,0,0,0,3,1.71l10.51-6.07.16.27-10.51,6.07A3.06,3.06,0,0,1,178.72,117.86Z"/><path class="cls-2" d="M182.81,120.22a1.8,1.8,0,0,1-.91-.23,2.39,2.39,0,0,1-1-2.2v-2.53a1.79,1.79,0,0,0-3-1.71l-2.2,1.27-.16-.27,2.2-1.27a2.1,2.1,0,0,1,3.43,2v2.53a1.79,1.79,0,0,0,3,1.71l10.51-6.07.16.27-10.51,6.07A3,3,0,0,1,182.81,120.22Z"/><path class="cls-2" d="M186.9,122.57a1.79,1.79,0,0,1-.91-.23,2.39,2.39,0,0,1-1-2.21v-2.53a1.79,1.79,0,0,0-3-1.71l-2.2,1.27-.16-.27,2.2-1.27a2.1,2.1,0,0,1,3.43,2v2.53a1.79,1.79,0,0,0,3,1.71l10.51-6.07.16.27-10.51,6.07A3.05,3.05,0,0,1,186.9,122.57Z"/><polygon class="cls-3" points="181.65 117.93 181.65 127.26 100.88 173.89 20.11 127.26 20.11 117.93 181.65 117.93"/><polygon class="cls-4" points="100.88 164.56 20.11 117.93 100.88 71.3 181.65 117.93 100.88 164.56"/><polygon class="cls-5" points="100.88 163.47 21.06 117.38 20.11 117.93 100.88 164.56 181.65 117.93 180.71 117.38 100.88 163.47"/><polygon class="cls-6" points="100.88 153.8 38.76 117.94 100.88 82.07 163 117.94 100.88 153.8"/><polygon class="cls-7" points="100.88 153.81 38.76 117.94 100.88 82.07 163 117.94 100.88 153.81"/><polygon class="cls-8" points="100.88 73.03 163 108.89 163 117.94 100.88 82.07 100.88 73.03"/><polygon class="cls-9" points="100.88 82.07 38.76 117.94 38.76 108.89 100.88 73.03 100.88 82.07"/><polygon class="cls-10" points="100.88 144.76 38.76 108.89 100.88 73.03 163 108.89 100.88 144.76"/><polygon class="cls-11" points="100.88 123.22 76.06 108.89 100.88 94.56 125.7 108.89 100.88 123.22"/><polygon class="cls-11" points="100.88 95.88 124.56 109.55 125.7 108.89 100.88 94.56 76.06 108.89 77.2 109.55 100.88 95.88"/><polygon class="cls-12" points="100.88 144.76 100.88 153.8 163 117.94 163 108.89 100.88 144.76"/><polygon class="cls-13" points="38.76 108.89 38.76 117.94 100.88 153.8 100.88 144.76 38.76 108.89"/><polygon class="cls-14" points="100.88 143.77 39.62 108.4 38.76 108.89 100.88 144.76 163 108.89 162.15 108.4 100.88 143.77"/><path class="cls-2" d="M121.08,184.86l-10.51-6.07a7.24,7.24,0,0,1-3.27-5.67v-2.54a6.89,6.89,0,0,0-3.11-5.39l-2.2-1.27.16-.27,2.2,1.27a7.24,7.24,0,0,1,3.27,5.67v2.54a6.89,6.89,0,0,0,3.11,5.39l10.51,6.07Z"/><path class="cls-2" d="M125.17,182.5l-10.51-6.07a7.24,7.24,0,0,1-3.27-5.67v-2.54a6.89,6.89,0,0,0-3.11-5.39l-2.2-1.27.16-.27,2.2,1.27a7.24,7.24,0,0,1,3.27,5.67v2.54a6.89,6.89,0,0,0,3.11,5.39l10.51,6.07Z"/><path class="cls-2" d="M129.26,180.15l-10.51-6.07a7.24,7.24,0,0,1-3.27-5.67v-2.53a6.9,6.9,0,0,0-3.11-5.39l-2.2-1.27.16-.27,2.2,1.27a7.24,7.24,0,0,1,3.27,5.67v2.53a6.9,6.9,0,0,0,3.11,5.39l10.51,6.07Z"/><path class="cls-2" d="M133.35,177.79l-10.51-6.07a7.24,7.24,0,0,1-3.27-5.67v-2.54a6.89,6.89,0,0,0-3.11-5.39l-2.2-1.27.16-.27,2.2,1.27a7.24,7.24,0,0,1,3.27,5.67v2.54a6.89,6.89,0,0,0,3.11,5.39l10.51,6.07Z"/><path class="cls-2" d="M137.43,175.43l-10.51-6.07a7.24,7.24,0,0,1-3.27-5.67v-2.54a6.89,6.89,0,0,0-3.11-5.39l-2.2-1.27.16-.27,2.2,1.27a7.24,7.24,0,0,1,3.27,5.67v2.54a6.89,6.89,0,0,0,3.11,5.39l10.51,6.07Z"/><path class="cls-2" d="M141.52,173.08,131,167a7.24,7.24,0,0,1-3.27-5.67v-2.53a6.9,6.9,0,0,0-3.11-5.39l-2.2-1.27.16-.27,2.2,1.27a7.24,7.24,0,0,1,3.27,5.67v2.53a6.9,6.9,0,0,0,3.11,5.39l10.51,6.07Z"/><path class="cls-2" d="M145.61,170.72l-10.51-6.07a7.24,7.24,0,0,1-3.27-5.67v-2.54a6.9,6.9,0,0,0-3.11-5.39l-2.2-1.27.16-.27,2.2,1.27a7.24,7.24,0,0,1,3.27,5.67V159a6.89,6.89,0,0,0,3.11,5.39l10.51,6.07Z"/><path class="cls-2" d="M149.7,168.37l-10.51-6.07a7.24,7.24,0,0,1-3.27-5.67V154.1a6.89,6.89,0,0,0-3.11-5.39l-2.2-1.27.16-.27,2.2,1.27a7.24,7.24,0,0,1,3.27,5.67v2.54a6.89,6.89,0,0,0,3.11,5.39l10.51,6.07Z"/><path class="cls-2" d="M153.79,166l-10.51-6.07a7.24,7.24,0,0,1-3.27-5.67v-2.53a6.9,6.9,0,0,0-3.11-5.39l-2.2-1.27.16-.27,2.2,1.27a7.24,7.24,0,0,1,3.27,5.67v2.53a6.9,6.9,0,0,0,3.11,5.39l10.51,6.07Z"/><path class="cls-2" d="M157.88,163.65l-10.51-6.07a7.24,7.24,0,0,1-3.27-5.67v-2.54A6.89,6.89,0,0,0,141,144l-2.2-1.27.16-.27,2.2,1.27a7.24,7.24,0,0,1,3.27,5.67v2.54a6.89,6.89,0,0,0,3.11,5.39L158,163.38Z"/><path class="cls-2" d="M162,161.3l-10.51-6.07a7.24,7.24,0,0,1-3.27-5.67V147a6.89,6.89,0,0,0-3.11-5.39l-2.2-1.27.16-.27,2.2,1.27A7.24,7.24,0,0,1,148.5,147v2.54a6.89,6.89,0,0,0,3.11,5.39L162.12,161Z"/><path class="cls-2" d="M166.05,158.94l-10.51-6.07a7.24,7.24,0,0,1-3.27-5.67v-2.53a6.9,6.9,0,0,0-3.11-5.39L147,138l.16-.27,2.2,1.27a7.24,7.24,0,0,1,3.27,5.67v2.53a6.89,6.89,0,0,0,3.11,5.39l10.51,6.07Z"/><path class="cls-2" d="M170.14,156.59l-10.51-6.07a7.24,7.24,0,0,1-3.27-5.67v-2.54a6.89,6.89,0,0,0-3.11-5.39l-2.2-1.27.16-.27,2.2,1.27a7.24,7.24,0,0,1,3.27,5.67v2.54a6.89,6.89,0,0,0,3.11,5.39l10.51,6.07Z"/><path class="cls-2" d="M174.23,154.23l-10.51-6.07a7.24,7.24,0,0,1-3.27-5.67V140a6.89,6.89,0,0,0-3.11-5.39l-2.2-1.27.16-.27,2.2,1.27a7.24,7.24,0,0,1,3.27,5.67v2.54a6.9,6.9,0,0,0,3.11,5.39L174.39,154Z"/><path class="cls-2" d="M178.32,151.88l-10.51-6.07a7.24,7.24,0,0,1-3.27-5.67v-2.53a6.9,6.9,0,0,0-3.11-5.39l-2.2-1.27.16-.27,2.2,1.27a7.24,7.24,0,0,1,3.27,5.67v2.53a6.89,6.89,0,0,0,3.11,5.39l10.51,6.07Z"/><path class="cls-2" d="M182.4,149.52l-10.51-6.07a7.24,7.24,0,0,1-3.27-5.67v-2.54a6.89,6.89,0,0,0-3.11-5.39l-2.2-1.27.16-.27,2.2,1.27a7.24,7.24,0,0,1,3.27,5.67v2.54a6.89,6.89,0,0,0,3.11,5.39l10.51,6.07Z"/><path class="cls-2" d="M186.49,147.16,176,141.1a7.24,7.24,0,0,1-3.27-5.67v-2.54a6.89,6.89,0,0,0-3.11-5.39l-2.2-1.27.16-.27,2.2,1.27a7.24,7.24,0,0,1,3.27,5.67v2.54a6.89,6.89,0,0,0,3.11,5.39l10.51,6.07Z"/><path class="cls-2" d="M190.58,144.81l-10.51-6.07a7.24,7.24,0,0,1-3.27-5.67v-2.53a6.9,6.9,0,0,0-3.11-5.39l-2.2-1.27.16-.27,2.2,1.27a7.24,7.24,0,0,1,3.27,5.67v2.53a6.89,6.89,0,0,0,3.11,5.39l10.51,6.07Z"/><path class="cls-2" d="M194.67,142.45l-10.51-6.07a7.24,7.24,0,0,1-3.27-5.67v-2.54a6.89,6.89,0,0,0-3.11-5.39l-2.2-1.27.16-.27,2.2,1.27a7.24,7.24,0,0,1,3.27,5.67v2.54a6.89,6.89,0,0,0,3.11,5.39l10.51,6.07Z"/><path class="cls-2" d="M198.76,140.1,188.25,134a7.24,7.24,0,0,1-3.27-5.67v-2.54a6.89,6.89,0,0,0-3.11-5.39l-2.2-1.27.16-.27,2.2,1.27a7.24,7.24,0,0,1,3.27,5.67v2.54a6.89,6.89,0,0,0,3.11,5.39l10.51,6.07Z"/><path class="cls-2" d="M80.4,184.86l-.16-.27,10.51-6.07a6.89,6.89,0,0,0,3.11-5.39v-2.54a7.24,7.24,0,0,1,3.27-5.67l2.2-1.27.16.27-2.2,1.27a6.89,6.89,0,0,0-3.11,5.39v2.54a7.24,7.24,0,0,1-3.27,5.67Z"/><path class="cls-2" d="M76.31,182.5l-.16-.27,10.51-6.07a6.89,6.89,0,0,0,3.11-5.39v-2.54A7.24,7.24,0,0,1,93,162.56l2.2-1.27.16.27-2.2,1.27a6.89,6.89,0,0,0-3.11,5.39v2.54a7.24,7.24,0,0,1-3.27,5.67Z"/><path class="cls-2" d="M72.22,180.15l-.16-.27,10.51-6.07a6.9,6.9,0,0,0,3.11-5.39v-2.53A7.24,7.24,0,0,1,89,160.21l2.2-1.27.16.27-2.2,1.27A6.9,6.9,0,0,0,86,165.88v2.53a7.24,7.24,0,0,1-3.27,5.67Z"/><path class="cls-2" d="M68.13,177.79l-.16-.27,10.51-6.07a6.89,6.89,0,0,0,3.11-5.39v-2.54a7.24,7.24,0,0,1,3.27-5.67l2.2-1.27.16.27L85,158.13a6.89,6.89,0,0,0-3.11,5.39v2.54a7.24,7.24,0,0,1-3.27,5.67Z"/><path class="cls-2" d="M64,175.43l-.16-.27,10.51-6.07a6.89,6.89,0,0,0,3.11-5.39v-2.54a7.24,7.24,0,0,1,3.27-5.67l2.2-1.27.16.27-2.2,1.27a6.89,6.89,0,0,0-3.11,5.39v2.54a7.24,7.24,0,0,1-3.27,5.67Z"/><path class="cls-2" d="M55.87,170.72l-.16-.27,10.51-6.07A6.89,6.89,0,0,0,69.33,159v-2.54a7.24,7.24,0,0,1,3.27-5.67l2.2-1.27.16.27-2.2,1.27a6.9,6.9,0,0,0-3.11,5.39V159a7.24,7.24,0,0,1-3.27,5.67Z"/><path class="cls-2" d="M51.78,168.37l-.16-.27L62.13,162a6.89,6.89,0,0,0,3.11-5.39V154.1a7.24,7.24,0,0,1,3.27-5.67l2.2-1.27.16.27-2.2,1.27a6.89,6.89,0,0,0-3.11,5.39v2.54a7.24,7.24,0,0,1-3.27,5.67Z"/><path class="cls-2" d="M43.6,163.65l-.16-.27L54,157.31a6.89,6.89,0,0,0,3.11-5.39v-2.54a7.24,7.24,0,0,1,3.27-5.67l2.2-1.27.16.27L60.5,144a6.89,6.89,0,0,0-3.11,5.39v2.54a7.24,7.24,0,0,1-3.27,5.67Z"/><path class="cls-2" d="M27.25,154.23l-.16-.27,10.51-6.07a6.9,6.9,0,0,0,3.11-5.39V140A7.24,7.24,0,0,1,44,134.29l2.2-1.27.16.27-2.2,1.27A6.89,6.89,0,0,0,41,140v2.54a7.24,7.24,0,0,1-3.27,5.67Z"/><path class="cls-2" d="M10.9,144.81l-.16-.27,10.51-6.07a6.89,6.89,0,0,0,3.11-5.39v-2.53a7.24,7.24,0,0,1,3.27-5.67l2.2-1.27.16.27-2.2,1.27a6.9,6.9,0,0,0-3.11,5.39v2.53a7.24,7.24,0,0,1-3.27,5.67Z"/><path class="cls-2" d="M6.81,142.45l-.16-.27,10.51-6.07a6.89,6.89,0,0,0,3.11-5.39v-2.54a7.24,7.24,0,0,1,3.27-5.67l2.2-1.27.16.27-2.2,1.27a6.89,6.89,0,0,0-3.11,5.39v2.54a7.24,7.24,0,0,1-3.27,5.67Z"/><path class="cls-2" d="M2.72,140.1l-.16-.27,10.51-6.07a6.89,6.89,0,0,0,3.11-5.39v-2.54a7.24,7.24,0,0,1,3.27-5.67l2.2-1.27.16.27-2.2,1.27a6.89,6.89,0,0,0-3.11,5.39v2.54A7.24,7.24,0,0,1,13.23,134Z"/><path class="cls-2" d="M64,175.43l-.16-.27,10.51-6.07a6.89,6.89,0,0,0,3.11-5.39v-2.54a7.24,7.24,0,0,1,3.27-5.67l2.2-1.27.16.27-2.2,1.27a6.89,6.89,0,0,0-3.11,5.39v2.54a7.24,7.24,0,0,1-3.27,5.67Z"/><path class="cls-2" d="M60,173.08l-.16-.27,10.51-6.07a6.89,6.89,0,0,0,3.11-5.39v-2.54a7.24,7.24,0,0,1,3.27-5.67l2.2-1.27.16.27-2.2,1.27a6.89,6.89,0,0,0-3.11,5.39v2.54A7.24,7.24,0,0,1,70.47,167Z"/><path class="cls-2" d="M19.07,149.52l-.16-.27,10.51-6.07a6.89,6.89,0,0,0,3.11-5.39v-2.53a7.24,7.24,0,0,1,3.27-5.67l2.2-1.27.16.27L36,129.86a6.9,6.9,0,0,0-3.11,5.39v2.53a7.24,7.24,0,0,1-3.27,5.67Z"/><path class="cls-2" d="M15,147.16l-.16-.27,10.51-6.07a6.89,6.89,0,0,0,3.11-5.39v-2.54a7.24,7.24,0,0,1,3.27-5.67l2.2-1.27.16.27-2.2,1.27a6.89,6.89,0,0,0-3.11,5.39v2.54a7.24,7.24,0,0,1-3.27,5.67Z"/><path class="cls-2" d="M10.9,144.81l-.16-.27,10.51-6.07a6.89,6.89,0,0,0,3.11-5.39v-2.54a7.24,7.24,0,0,1,3.27-5.67l2.2-1.27.16.27-2.2,1.27a6.89,6.89,0,0,0-3.11,5.39v2.54a7.24,7.24,0,0,1-3.27,5.67Z"/><path class="cls-2" d="M27.25,154.23l-.16-.27,10.51-6.07a6.89,6.89,0,0,0,3.11-5.39V140A7.24,7.24,0,0,1,44,134.29l2.2-1.27.16.27-2.2,1.27A6.9,6.9,0,0,0,41,140v2.53a7.24,7.24,0,0,1-3.27,5.67Z"/><path class="cls-2" d="M23.16,151.88,23,151.6l10.51-6.07a6.89,6.89,0,0,0,3.11-5.39V137.6a7.24,7.24,0,0,1,3.27-5.67l2.2-1.27.16.27-2.2,1.27a6.89,6.89,0,0,0-3.11,5.39v2.54a7.24,7.24,0,0,1-3.27,5.67Z"/><path class="cls-2" d="M19.07,149.52l-.16-.27,10.51-6.07a6.89,6.89,0,0,0,3.11-5.39v-2.54a7.24,7.24,0,0,1,3.27-5.67l2.2-1.27.16.27L36,129.86a6.89,6.89,0,0,0-3.11,5.39v2.54a7.24,7.24,0,0,1-3.27,5.67Z"/><path class="cls-2" d="M31.34,156.59l-.16-.27,10.51-6.07a6.89,6.89,0,0,0,3.11-5.39v-2.54a7.24,7.24,0,0,1,3.27-5.67l2.2-1.27.16.27-2.2,1.27a6.89,6.89,0,0,0-3.11,5.39v2.54a7.24,7.24,0,0,1-3.27,5.67Z"/><path class="cls-2" d="M27.25,154.23l-.16-.27,10.51-6.07a6.89,6.89,0,0,0,3.11-5.39V140A7.24,7.24,0,0,1,44,134.29l2.2-1.27.16.27-2.2,1.27A6.89,6.89,0,0,0,41,140v2.54a7.24,7.24,0,0,1-3.27,5.67Z"/><path class="cls-2" d="M43.6,163.65l-.16-.27L54,157.31a6.89,6.89,0,0,0,3.11-5.39v-2.53a7.24,7.24,0,0,1,3.27-5.67l2.2-1.27.16.27L60.5,144a6.9,6.9,0,0,0-3.11,5.39v2.53a7.24,7.24,0,0,1-3.27,5.67Z"/><path class="cls-2" d="M39.52,161.3l-.16-.27L49.87,155A6.89,6.89,0,0,0,53,149.56V147a7.24,7.24,0,0,1,3.27-5.67l2.2-1.27.16.27-2.2,1.27A6.89,6.89,0,0,0,53.3,147v2.54A7.24,7.24,0,0,1,50,155.23Z"/><path class="cls-2" d="M35.43,158.94l-.16-.27,10.51-6.07a6.89,6.89,0,0,0,3.11-5.39v-2.54A7.24,7.24,0,0,1,52.17,139l2.2-1.27.16.27-2.2,1.27a6.89,6.89,0,0,0-3.11,5.39v2.54a7.24,7.24,0,0,1-3.27,5.67Z"/><path class="cls-2" d="M47.69,166l-.16-.27L58,159.67a6.89,6.89,0,0,0,3.11-5.39v-2.53a7.24,7.24,0,0,1,3.27-5.67l2.2-1.27.16.27-2.2,1.27a6.9,6.9,0,0,0-3.11,5.39v2.53a7.24,7.24,0,0,1-3.27,5.67Z"/><path class="cls-2" d="M43.61,163.65l-.16-.27L54,157.31a6.89,6.89,0,0,0,3.11-5.39v-2.54a7.24,7.24,0,0,1,3.27-5.67l2.2-1.27.16.27L60.5,144a6.89,6.89,0,0,0-3.11,5.39v2.54a7.24,7.24,0,0,1-3.27,5.67Z"/><polygon class="cls-15" points="100.88 77.35 85.81 68.65 85.81 86.05 100.88 94.75 115.95 86.05 115.95 68.65 100.88 77.35"/><polygon class="cls-15" points="100.88 94.75 85.81 86.05 85.81 68.65 100.88 77.35 100.88 94.75"/><polygon class="cls-16" points="115.95 86.05 100.88 94.75 100.88 77.35 115.95 68.65 115.95 86.05"/><polygon class="cls-15" points="100.88 77.35 85.81 68.65 100.88 59.95 115.95 68.65 100.88 77.35"/><polygon class="cls-5" points="100.88 77.35 86.47 69.03 85.81 69.41 100.88 78.11 115.95 69.41 115.3 69.03 100.88 77.35"/><polygon class="cls-15" points="120.45 88.52 105.39 79.82 105.39 97.22 120.45 105.92 135.52 97.22 135.52 79.82 120.45 88.52"/><polygon class="cls-15" points="120.45 105.92 105.39 97.22 105.39 79.82 120.45 88.52 120.45 105.92"/><polygon class="cls-16" points="135.52 97.22 120.45 105.92 120.45 88.52 135.52 79.82 135.52 97.22"/><polygon class="cls-15" points="120.45 88.52 105.39 79.82 120.45 71.12 135.52 79.82 120.45 88.52"/><polygon class="cls-5" points="120.45 88.52 106.04 80.2 105.39 80.57 120.45 89.27 135.52 80.57 134.87 80.2 120.45 88.52"/><polygon class="cls-15" points="140.03 99.69 124.96 90.99 124.96 108.38 140.03 117.08 155.09 108.38 155.09 90.99 140.03 99.69"/><polygon class="cls-15" points="140.03 117.08 124.96 108.38 124.96 90.99 140.03 99.69 140.03 117.08"/><polygon class="cls-16" points="155.09 108.38 140.03 117.08 140.03 99.69 155.09 90.99 155.09 108.38"/><polygon class="cls-15" points="140.03 99.69 124.96 90.99 140.03 82.29 155.09 90.99 140.03 99.69"/><polygon class="cls-5" points="140.03 99.69 125.61 91.36 124.96 91.74 140.03 100.44 155.09 91.74 155.09 90.99 140.03 99.69"/><polygon class="cls-15" points="81.31 89.27 66.24 80.57 66.24 97.97 81.31 106.67 96.38 97.97 96.38 80.57 81.31 89.27"/><polygon class="cls-15" points="81.31 106.67 66.24 97.97 66.24 80.57 81.31 89.27 81.31 106.67"/><polygon class="cls-16" points="96.38 97.97 81.31 106.67 81.31 89.27 96.38 80.57 96.38 97.97"/><polygon class="cls-15" points="81.31 89.27 66.24 80.57 81.31 71.87 96.38 80.57 81.31 89.27"/><polygon class="cls-5" points="81.31 89.27 66.9 80.95 66.24 81.33 81.31 90.03 96.38 81.33 95.72 80.95 81.31 89.27"/><polygon class="cls-15" points="100.88 100.44 85.81 91.74 85.81 109.14 100.88 117.84 115.95 109.14 115.95 91.74 100.88 100.44"/><polygon class="cls-15" points="100.88 117.84 85.81 109.14 85.81 91.74 100.88 100.44 100.88 117.84"/><polygon class="cls-16" points="115.95 109.14 100.88 117.84 100.88 100.44 115.95 91.74 115.95 109.14"/><polygon class="cls-15" points="100.88 100.44 85.81 91.74 100.88 83.04 115.95 91.74 100.88 100.44"/><polygon class="cls-5" points="100.88 100.44 86.47 92.12 85.81 92.5 100.88 101.19 115.95 92.5 115.3 92.12 100.88 100.44"/><polygon class="cls-15" points="120.45 111.61 105.39 102.91 105.39 120.31 120.45 129 135.52 120.31 135.52 102.91 120.45 111.61"/><polygon class="cls-15" points="120.45 129 105.39 120.31 105.39 102.91 120.45 111.61 120.45 129"/><polygon class="cls-16" points="135.52 120.31 120.45 129 120.45 111.61 135.52 102.91 135.52 120.31"/><polygon class="cls-15" points="120.45 111.61 105.39 102.91 120.45 94.21 135.52 102.91 120.45 111.61"/><polygon class="cls-5" points="120.45 111.61 106.04 103.28 105.39 103.66 120.45 112.36 135.52 103.66 135.52 102.91 120.45 111.61"/><polygon class="cls-15" points="61.74 101.19 46.67 92.5 46.67 109.89 61.74 118.59 76.81 109.89 76.81 92.5 61.74 101.19"/><polygon class="cls-15" points="61.74 118.59 46.67 109.89 46.67 92.5 61.74 101.19 61.74 118.59"/><polygon class="cls-16" points="76.81 109.89 61.74 118.59 61.74 101.19 76.81 92.5 76.81 109.89"/><polygon class="cls-15" points="61.74 101.19 46.67 92.5 61.74 83.8 76.81 92.5 61.74 101.19"/><polygon class="cls-5" points="61.74 101.19 46.67 92.5 46.67 93.25 61.74 101.95 76.81 93.25 76.15 92.87 61.74 101.19"/><polygon class="cls-15" points="81.31 112.36 66.24 103.66 66.24 121.06 81.31 129.76 96.38 121.06 96.38 103.66 81.31 112.36"/><polygon class="cls-15" points="81.31 129.76 66.24 121.06 66.24 103.66 81.31 112.36 81.31 129.76"/><polygon class="cls-16" points="96.38 121.06 81.31 129.76 81.31 112.36 96.38 103.66 96.38 121.06"/><polygon class="cls-15" points="81.31 112.36 66.24 103.66 81.31 94.96 96.38 103.66 81.31 112.36"/><polygon class="cls-5" points="81.31 112.36 66.24 103.66 66.24 104.42 81.31 113.12 96.38 104.42 95.72 104.04 81.31 112.36"/><polygon class="cls-15" points="100.88 123.53 85.81 114.83 85.81 132.23 100.88 140.93 115.95 132.23 115.95 114.83 100.88 123.53"/><polygon class="cls-15" points="100.88 140.93 85.81 132.23 85.81 114.83 100.88 123.53 100.88 140.93"/><polygon class="cls-16" points="115.95 132.23 100.88 140.93 100.88 123.53 115.95 114.83 115.95 132.23"/><polygon class="cls-15" points="100.88 123.53 85.81 114.83 100.88 106.13 115.95 114.83 100.88 123.53"/><polygon class="cls-5" points="100.88 123.53 85.81 114.83 85.81 115.58 100.88 124.28 115.95 115.58 115.95 114.83 100.88 123.53"/><polygon class="cls-15" points="100.88 54.26 85.81 45.56 85.81 62.96 100.88 71.66 115.95 62.96 115.95 45.56 100.88 54.26"/><polygon class="cls-15" points="100.88 71.66 85.81 62.96 85.81 45.56 100.88 54.26 100.88 71.66"/><polygon class="cls-16" points="115.95 62.96 100.88 71.66 100.88 54.26 115.95 45.56 115.95 62.96"/><polygon class="cls-15" points="100.88 54.26 85.81 45.56 100.88 36.86 115.95 45.56 100.88 54.26"/><polygon class="cls-5" points="100.88 54.26 86.47 45.94 85.81 46.32 100.88 55.02 115.95 46.32 115.3 45.94 100.88 54.26"/><polygon class="cls-17" points="100.88 120.69 90.6 114.76 100.88 108.83 111.16 114.76 100.88 120.69"/><polygon class="cls-17" points="81.31 109.53 71.03 103.59 81.31 97.66 91.59 103.59 81.31 109.53"/><polygon class="cls-17" points="120.45 108.77 110.18 102.84 120.45 96.91 130.73 102.84 120.45 108.77"/><polygon class="cls-17" points="140.06 96.99 129.79 91.05 140.06 85.12 150.34 91.05 140.06 96.99"/><polygon class="cls-17" points="61.74 98.36 51.46 92.43 61.74 86.49 72.02 92.43 61.74 98.36"/><polygon class="cls-15" points="120.45 65.43 105.39 56.73 105.39 74.13 120.45 82.83 135.52 74.13 135.52 56.73 120.45 65.43"/><polygon class="cls-15" points="120.45 82.83 105.39 74.13 105.39 56.73 120.45 65.43 120.45 82.83"/><polygon class="cls-16" points="135.52 74.13 120.45 82.83 120.45 65.43 135.52 56.73 135.52 74.13"/><polygon class="cls-15" points="120.45 65.43 105.39 56.73 120.45 48.03 135.52 56.73 120.45 65.43"/><polygon class="cls-5" points="120.45 65.43 106.04 57.11 105.39 57.48 120.45 66.18 135.52 57.48 134.87 57.11 120.45 65.43"/><polygon class="cls-15" points="140.03 76.6 124.96 67.9 124.96 85.3 140.03 93.99 155.09 85.3 155.09 67.9 140.03 76.6"/><polygon class="cls-15" points="140.03 93.99 124.96 85.3 124.96 67.9 140.03 76.6 140.03 93.99"/><polygon class="cls-16" points="155.09 85.3 140.03 93.99 140.03 76.6 155.09 67.9 155.09 85.3"/><polygon class="cls-15" points="140.03 76.6 124.96 67.9 140.03 59.2 155.09 67.9 140.03 76.6"/><polygon class="cls-5" points="140.03 76.6 125.61 68.27 124.96 68.65 140.03 77.35 155.09 68.65 155.09 67.9 140.03 76.6"/><polygon class="cls-15" points="81.31 66.18 66.24 57.48 66.24 74.88 81.31 83.58 96.38 74.88 96.38 57.48 81.31 66.18"/><polygon class="cls-15" points="81.31 83.58 66.24 74.88 66.24 57.48 81.31 66.18 81.31 83.58"/><polygon class="cls-16" points="96.38 74.88 81.31 83.58 81.31 66.18 96.38 57.48 96.38 74.88"/><polygon class="cls-15" points="81.31 66.18 66.24 57.48 81.31 48.78 96.38 57.48 81.31 66.18"/><polygon class="cls-5" points="81.31 66.18 66.9 57.86 66.24 58.24 81.31 66.94 96.38 58.24 95.72 57.86 81.31 66.18"/><polygon class="cls-15" points="100.88 77.35 85.81 68.65 85.81 86.05 100.88 94.75 115.95 86.05 115.95 68.65 100.88 77.35"/><polygon class="cls-15" points="100.88 94.75 85.81 86.05 85.81 68.65 100.88 77.35 100.88 94.75"/><polygon class="cls-16" points="115.95 86.05 100.88 94.75 100.88 77.35 115.95 68.65 115.95 86.05"/><polygon class="cls-15" points="100.88 77.35 85.81 68.65 100.88 59.95 115.95 68.65 100.88 77.35"/><polygon class="cls-5" points="100.88 77.35 86.47 69.03 85.81 69.41 100.88 78.11 115.95 69.41 115.3 69.03 100.88 77.35"/><polygon class="cls-15" points="120.45 88.52 105.39 79.82 105.39 97.22 120.45 105.92 135.52 97.22 135.52 79.82 120.45 88.52"/><polygon class="cls-15" points="120.45 105.92 105.39 97.22 105.39 79.82 120.45 88.52 120.45 105.92"/><polygon class="cls-16" points="135.52 97.22 120.45 105.92 120.45 88.52 135.52 79.82 135.52 97.22"/><polygon class="cls-15" points="120.45 88.52 105.39 79.82 120.45 71.12 135.52 79.82 120.45 88.52"/><polygon class="cls-5" points="120.45 88.52 106.04 80.2 105.39 80.57 120.45 89.27 135.52 80.57 135.52 79.82 120.45 88.52"/><polygon class="cls-15" points="61.74 78.11 46.67 69.41 46.67 86.8 61.74 95.5 76.81 86.8 76.81 69.41 61.74 78.11"/><polygon class="cls-15" points="61.74 95.5 46.67 86.8 46.67 69.41 61.74 78.11 61.74 95.5"/><polygon class="cls-16" points="76.81 86.8 61.74 95.5 61.74 78.11 76.81 69.41 76.81 86.8"/><polygon class="cls-15" points="61.74 78.11 46.67 69.41 61.74 60.71 76.81 69.41 61.74 78.11"/><polygon class="cls-5" points="61.74 78.11 47.33 69.78 46.67 70.16 61.74 78.86 76.81 70.16 76.15 69.78 61.74 78.11"/><polygon class="cls-15" points="81.31 89.27 66.24 80.57 66.24 97.97 81.31 106.67 96.38 97.97 96.38 80.57 81.31 89.27"/><polygon class="cls-15" points="81.31 106.67 66.24 97.97 66.24 80.57 81.31 89.27 81.31 106.67"/><polygon class="cls-16" points="96.38 97.97 81.31 106.67 81.31 89.27 96.38 80.57 96.38 97.97"/><polygon class="cls-15" points="81.31 89.27 66.24 80.57 81.31 71.87 96.38 80.57 81.31 89.27"/><polygon class="cls-5" points="81.31 89.27 66.24 80.57 66.24 81.33 81.31 90.03 96.38 81.33 95.72 80.95 81.31 89.27"/><polygon class="cls-15" points="100.88 100.44 85.81 91.74 85.81 109.14 100.88 117.84 115.95 109.14 115.95 91.74 100.88 100.44"/><polygon class="cls-15" points="100.88 117.84 85.81 109.14 85.81 91.74 100.88 100.44 100.88 117.84"/><polygon class="cls-16" points="115.95 109.14 100.88 117.84 100.88 100.44 115.95 91.74 115.95 109.14"/><polygon class="cls-15" points="100.88 100.44 85.81 91.74 100.88 83.04 115.95 91.74 100.88 100.44"/><polygon class="cls-5" points="100.88 100.44 85.81 91.74 85.81 92.5 100.88 101.19 115.95 92.5 115.95 91.74 100.88 100.44"/><polygon class="cls-17" points="140.06 74 129.79 68.07 140.06 62.13 150.34 68.07 140.06 74"/><polygon class="cls-17" points="61.74 75.37 51.46 69.44 61.74 63.51 72.02 69.44 61.74 75.37"/><polygon class="cls-15" points="100.88 31.17 85.81 22.47 85.81 39.87 100.88 48.57 115.95 39.87 115.95 22.47 100.88 31.17"/><polygon class="cls-15" points="100.88 48.57 85.81 39.87 85.81 22.47 100.88 31.17 100.88 48.57"/><polygon class="cls-16" points="115.95 39.87 100.88 48.57 100.88 31.17 115.95 22.47 115.95 39.87"/><polygon class="cls-15" points="100.88 31.17 85.81 22.47 100.88 13.77 115.95 22.47 100.88 31.17"/><polygon class="cls-5" points="100.88 31.17 85.81 22.47 85.81 23.23 100.88 31.93 115.95 23.23 115.95 22.47 100.88 31.17"/><polygon class="cls-15" points="120.45 42.34 105.39 33.64 105.39 51.04 120.45 59.74 135.52 51.04 135.52 33.64 120.45 42.34"/><polygon class="cls-15" points="120.45 59.74 105.39 51.04 105.39 33.64 120.45 42.34 120.45 59.74"/><polygon class="cls-16" points="135.52 51.04 120.45 59.74 120.45 42.34 135.52 33.64 135.52 51.04"/><polygon class="cls-15" points="120.45 42.34 105.39 33.64 120.45 24.94 135.52 33.64 120.45 42.34"/><polygon class="cls-5" points="120.45 42.34 105.39 33.64 105.39 34.4 120.45 43.09 135.52 34.4 135.52 33.64 120.45 42.34"/><polygon class="cls-15" points="140.03 53.51 124.96 44.81 124.96 62.21 140.03 70.91 155.09 62.21 155.09 44.81 140.03 53.51"/><polygon class="cls-15" points="140.03 70.91 124.96 62.21 124.96 44.81 140.03 53.51 140.03 70.91"/><polygon class="cls-16" points="155.09 62.21 140.03 70.91 140.03 53.51 155.09 44.81 155.09 62.21"/><polygon class="cls-15" points="140.03 53.51 124.96 44.81 140.03 36.11 155.09 44.81 140.03 53.51"/><polygon class="cls-5" points="140.03 53.51 124.96 44.81 124.96 45.56 140.03 54.26 155.09 45.56 155.09 44.81 140.03 53.51"/><polygon class="cls-15" points="81.31 43.09 66.24 34.4 66.24 51.79 81.31 60.49 96.38 51.79 96.38 34.4 81.31 43.09"/><polygon class="cls-15" points="81.31 60.49 66.24 51.79 66.24 34.4 81.31 43.09 81.31 60.49"/><polygon class="cls-16" points="96.38 51.79 81.31 60.49 81.31 43.09 96.38 34.4 96.38 51.79"/><polygon class="cls-15" points="81.31 43.09 66.24 34.4 81.31 25.7 96.38 34.4 81.31 43.09"/><polygon class="cls-5" points="81.31 43.09 66.24 34.4 66.24 35.15 81.31 43.85 96.38 35.15 96.38 34.4 81.31 43.09"/><polygon class="cls-15" points="61.74 55.02 46.67 46.32 46.67 63.72 61.74 72.41 76.81 63.72 76.81 46.32 61.74 55.02"/><polygon class="cls-15" points="61.74 72.42 46.67 63.72 46.67 46.32 61.74 55.02 61.74 72.42"/><polygon class="cls-16" points="76.81 63.72 61.74 72.42 61.74 55.02 76.81 46.32 76.81 63.72"/><polygon class="cls-15" points="61.74 55.02 46.67 46.32 61.74 37.62 76.81 46.32 61.74 55.02"/><polygon class="cls-5" points="61.74 55.02 46.67 46.32 46.67 47.07 61.74 55.77 76.81 47.07 76.81 46.32 61.74 55.02"/><path class="cls-4" d="M92.2,105.49l-.14-.14-1.85-1.06-.14,0-.27.54-.07,0-.41-.23-.07-.1v-.4l1.5-2.66.07,0,.62.35.07.1L93,106.25v.4l-.07,0-.41-.24-.07-.1Zm-1.85-1.69.07.1,1.44.82.07,0-.75-2.22-.07,0Z"/><path class="cls-4" d="M96.66,108.8l-2.75-1.57-.07-.1v-.4l.07,0,1,.55.07,0v-2.89l-.07-.1-.89-.51-.07-.1v-.41l.07,0,2.61,1.49.07.1v.41l-.07,0-.89-.51-.07,0v2.9l.07.1,1,.55.07.1v.41Z"/><path class="cls-4" d="M53.2,83.49l-.14-.14L51.22,82.3l-.14,0-.27.54-.07,0-.41-.23-.07-.1v-.4l1.5-2.66.07,0,.62.35.07.1L54,84.25v.4l-.07,0-.41-.24-.07-.1ZM51.35,81.8l.07.1,1.44.82.07,0-.75-2.22-.07,0Z"/><path class="cls-4" d="M57.66,86.8l-2.75-1.57-.07-.1v-.4l.07,0,1,.55.07,0V82.34l-.07-.1L55,81.73l-.07-.1v-.41l.07,0,2.61,1.49.07.1v.41l-.07,0-.89-.51-.07,0v2.9l.07.1,1,.55.07.1v.41Z"/><path class="cls-4" d="M92.2,129.49l-.14-.14-1.85-1.06-.14,0-.27.54-.07,0-.41-.23-.07-.1v-.4l1.5-2.66.07,0,.62.35.07.1L93,130.25v.4l-.07,0-.41-.24-.07-.1Zm-1.85-1.69.07.1,1.44.82.07,0-.75-2.22-.07,0Z"/><path class="cls-4" d="M96.66,132.8l-2.75-1.57-.07-.1v-.4l.07,0,1,.55.07,0v-2.89l-.07-.1-.89-.51-.07-.1v-.41l.07,0,2.61,1.49.07.1v.41l-.07,0-.89-.51-.07,0v2.9l.07.1,1,.55.07.1v.41Z"/><path class="cls-4" d="M72.2,94.49l-.14-.14L70.22,93.3l-.14,0-.27.54-.07,0-.41-.23-.07-.1v-.4l1.5-2.66.07,0,.62.35.07.1L73,95.25v.4l-.07,0-.41-.24-.07-.1ZM70.35,92.8l.07.1,1.44.82.07,0-.75-2.22-.07,0Z"/><path class="cls-4" d="M76.66,97.8l-2.75-1.57-.07-.1v-.4l.07,0,1,.55.07,0V93.34l-.07-.1L74,92.73l-.07-.1v-.41l.07,0,2.61,1.49.07.1v.41l-.07,0-.89-.51-.07,0v2.9l.07.1,1,.55.07.1v.41Z"/><path class="cls-4" d="M53.2,107.49l-.14-.14-1.85-1.06-.14,0-.27.54-.07,0-.41-.23-.07-.1v-.4l1.5-2.66.07,0,.62.35.07.1L54,108.25v.4l-.07,0-.41-.24-.07-.1Zm-1.85-1.69.07.1,1.44.82.07,0-.75-2.22-.07,0Z"/><path class="cls-4" d="M57.66,110.8l-2.75-1.57-.07-.1v-.4l.07,0,1,.55.07,0v-2.89l-.07-.1-.89-.51-.07-.1v-.41l.07,0,2.61,1.49.07.1v.41l-.07,0-.89-.51-.07,0v2.9l.07.1,1,.55.07.1v.41Z"/><path class="cls-4" d="M72.2,118.49l-.14-.14-1.85-1.06-.14,0-.27.54-.07,0-.41-.23-.07-.1v-.4l1.5-2.66.07,0,.62.35.07.1L73,119.25v.4l-.07,0-.41-.24-.07-.1Zm-1.85-1.69.07.1,1.44.82.07,0-.75-2.22-.07,0Z"/><path class="cls-4" d="M76.66,121.8l-2.75-1.57-.07-.1v-.4l.07,0,1,.55.07,0v-2.89l-.07-.1-.89-.51-.07-.1v-.41l.07,0,2.61,1.49.07.1v.41l-.07,0-.89-.51-.07,0v2.9l.07.1,1,.55.07.1v.41Z"/><path class="cls-4" d="M131.2,59.49l-.14-.14-1.85-1.06-.14,0-.27.54-.07,0-.41-.23-.07-.1v-.4l1.5-2.66.07,0,.62.35.07.1L132,60.25v.4l-.07,0-.41-.24-.07-.1Zm-1.85-1.69.07.1,1.44.82.07,0-.75-2.22-.07,0Z"/><path class="cls-4" d="M135.66,62.8l-2.75-1.57-.07-.1v-.4l.07,0,1,.55.07,0V58.34l-.07-.1-.89-.51-.07-.1v-.41l.07,0,2.61,1.49.07.1v.41l-.07,0-.89-.51-.07,0v2.9l.07.1,1,.55.07.1v.41Z"/><path class="cls-4" d="M53.2,61.49l-.14-.14L51.22,60.3l-.14,0-.27.54-.07,0-.41-.23-.07-.1v-.4l1.5-2.66.07,0,.62.35.07.1L54,62.25v.4l-.07,0-.41-.24-.07-.1ZM51.35,59.8l.07.1,1.44.82.07,0-.75-2.22-.07,0Z"/><path class="cls-4" d="M57.66,64.8l-2.75-1.57-.07-.1v-.4l.07,0,1,.55.07,0V60.34l-.07-.1L55,59.73l-.07-.1v-.41l.07,0,2.61,1.49.07.1v.41l-.07,0-.89-.51-.07,0v2.9l.07.1,1,.55.07.1v.41Z"/><path class="cls-4" d="M111.2,48.49l-.14-.14-1.85-1.06-.14,0-.27.54-.07,0-.41-.23-.07-.1v-.4l1.5-2.66.07,0,.62.35.07.1L112,49.25v.4l-.07,0-.41-.24-.07-.1Zm-1.85-1.69.07.1,1.44.82.07,0-.75-2.22-.07,0Z"/><path class="cls-4" d="M115.66,51.8l-2.75-1.57-.07-.1v-.4l.07,0,1,.55.07,0V47.34l-.07-.1-.89-.51-.07-.1v-.41l.07,0,2.61,1.49.07.1v.41l-.07,0-.89-.51-.07,0v2.9l.07.1,1,.55.07.1v.41Z"/></g></g></svg>