<svg id="Layer_1" data-name="Layer 1" xmlns="http://www.w3.org/2000/svg" xmlns:xlink="http://www.w3.org/1999/xlink" viewBox="0 0 100 150"><defs><style>.cls-1{mask:url(#mask);filter:url(#luminosity-noclip-3);}.cls-2,.cls-4{mix-blend-mode:multiply;}.cls-2{fill:url(#_ÂÁ_Ï_ÌÌ_È_ËÂÌÚ_117);}.cls-3{mask:url(#mask-2);filter:url(#luminosity-noclip-4);}.cls-4{fill:url(#_ÂÁ_Ï_ÌÌ_È_ËÂÌÚ_114);}.cls-5{fill:#424240;}.cls-5,.cls-7{opacity:0.66;}.cls-6{mask:url(#mask-3);}.cls-7{fill:url(#_ÂÁ_Ï_ÌÌ_È_ËÂÌÚ_19);}.cls-8{fill:#2bd978;}.cls-9{fill:#f2f2f0;}.cls-10{fill:#fff;}.cls-11{fill:url(#_ÂÁ_Ï_ÌÌ_È_ËÂÌÚ_17);}.cls-12{fill:#1e1e1e;}.cls-13{opacity:0.51;}.cls-14{fill:#3a3a3a;}.cls-15{mask:url(#mask-4);}.cls-16{opacity:0.78;fill:url(#_ÂÁ_Ï_ÌÌ_È_ËÂÌÚ_18);}.cls-17{fill:url(#_ÂÁ_Ï_ÌÌ_È_ËÂÌÚ_17-2);}.cls-18{fill:url(#_ÂÁ_Ï_ÌÌ_È_ËÂÌÚ_17-3);}.cls-19{fill:url(#_ÂÁ_Ï_ÌÌ_È_ËÂÌÚ_16);}.cls-20{fill:#232323;}.cls-21{fill:url(#_ÂÁ_Ï_ÌÌ_È_ËÂÌÚ_16-2);}.cls-22{fill:url(#_ÂÁ_Ï_ÌÌ_È_ËÂÌÚ_16-3);}.cls-23{fill:url(#_ÂÁ_Ï_ÌÌ_È_ËÂÌÚ_16-4);}.cls-24{fill:url(#_ÂÁ_Ï_ÌÌ_È_ËÂÌÚ_16-5);}.cls-25{fill:url(#_ÂÁ_Ï_ÌÌ_È_ËÂÌÚ_17-4);}.cls-26{fill:url(#_ÂÁ_Ï_ÌÌ_È_ËÂÌÚ_16-6);}.cls-27{fill:url(#_ÂÁ_Ï_ÌÌ_È_ËÂÌÚ_17-5);}.cls-28{fill:url(#_ÂÁ_Ï_ÌÌ_È_ËÂÌÚ_16-7);}.cls-29{fill:url(#_ÂÁ_Ï_ÌÌ_È_ËÂÌÚ_17-6);}.cls-30{fill:url(#_ÂÁ_Ï_ÌÌ_È_ËÂÌÚ_16-8);}.cls-31{fill:url(#_ÂÁ_Ï_ÌÌ_È_ËÂÌÚ_17-7);}.cls-32{fill:url(#_ÂÁ_Ï_ÌÌ_È_ËÂÌÚ_16-9);}.cls-33{filter:url(#luminosity-noclip-2);}.cls-34{filter:url(#luminosity-noclip);}</style><filter id="luminosity-noclip" x="8.31" y="-8267" width="84.69" height="32766" filterUnits="userSpaceOnUse" color-interpolation-filters="sRGB"><feFlood flood-color="#fff" result="bg"/><feBlend in="SourceGraphic" in2="bg"/></filter><mask id="mask" x="8.31" y="-8267" width="84.69" height="32766" maskUnits="userSpaceOnUse"><g class="cls-34"/></mask><radialGradient id="_ÂÁ_Ï_ÌÌ_È_ËÂÌÚ_117" cx="50.66" cy="143.77" r="34.57" gradientUnits="userSpaceOnUse"><stop offset="0" stop-color="#e6e6e6"/><stop offset="0.1" stop-color="#e0e0e0"/><stop offset="0.23" stop-color="#cdcdcd"/><stop offset="0.39" stop-color="#afafaf"/><stop offset="0.57" stop-color="#868686"/><stop offset="0.75" stop-color="#505050"/><stop offset="0.95" stop-color="#101010"/><stop offset="1"/></radialGradient><filter id="luminosity-noclip-2" x="10.35" y="-8267" width="40.38" height="32766" filterUnits="userSpaceOnUse" color-interpolation-filters="sRGB"><feFlood flood-color="#fff" result="bg"/><feBlend in="SourceGraphic" in2="bg"/></filter><mask id="mask-2" x="10.35" y="-8267" width="40.38" height="32766" maskUnits="userSpaceOnUse"><g class="cls-33"/></mask><linearGradient id="_ÂÁ_Ï_ÌÌ_È_ËÂÌÚ_114" x1="10.35" y1="23.6" x2="50.72" y2="23.6" gradientUnits="userSpaceOnUse"><stop offset="0"/><stop offset="0.05" stop-color="#2f2f2f"/><stop offset="0.1" stop-color="#5a5a5a"/><stop offset="0.15" stop-color="#828282"/><stop offset="0.22" stop-color="#a4a4a4"/><stop offset="0.28" stop-color="silver"/><stop offset="0.36" stop-color="#d7d7d7"/><stop offset="0.44" stop-color="#e9e9e9"/><stop offset="0.54" stop-color="#f6f6f6"/><stop offset="0.68" stop-color="#fdfdfd"/><stop offset="1" stop-color="#fff"/></linearGradient><filter id="luminosity-noclip-3" x="8.31" y="100.1" width="84.69" height="48.9" filterUnits="userSpaceOnUse" color-interpolation-filters="sRGB"><feFlood flood-color="#fff" result="bg"/><feBlend in="SourceGraphic" in2="bg"/></filter><mask id="mask-3" x="8.31" y="100.1" width="84.69" height="48.9" maskUnits="userSpaceOnUse"><g class="cls-1"><path class="cls-2" d="M47.84,148.39,9.36,126.18c-1.56-.9-1.36-2.47.44-3.51L47.4,101a6.75,6.75,0,0,1,6.08-.25l38.47,22.21c1.56.9,1.36,2.47-.44,3.51l-37.6,21.71A6.75,6.75,0,0,1,47.84,148.39Z"/></g></mask><radialGradient id="_ÂÁ_Ï_ÌÌ_È_ËÂÌÚ_19" cx="50.66" cy="143.77" r="34.57" gradientUnits="userSpaceOnUse"><stop offset="0" stop-color="#2bd978"/><stop offset="0.13" stop-color="#2cd376"/><stop offset="0.31" stop-color="#2fc06f"/><stop offset="0.51" stop-color="#33a264"/><stop offset="0.74" stop-color="#3a7954"/><stop offset="0.99" stop-color="#424441"/><stop offset="1" stop-color="#424240"/></radialGradient><linearGradient id="_ÂÁ_Ï_ÌÌ_È_ËÂÌÚ_17" x1="70.91" y1="111.96" x2="70.91" y2="26.75" gradientUnits="userSpaceOnUse"><stop offset="0" stop-color="#f2f2f0"/><stop offset="0.41" stop-color="#ededec"/><stop offset="0.9" stop-color="#dfdfde"/><stop offset="1" stop-color="#dbdbdb"/></linearGradient><filter id="luminosity-noclip-4" x="10.35" y="5.66" width="40.38" height="35.89" filterUnits="userSpaceOnUse" color-interpolation-filters="sRGB"><feFlood flood-color="#fff" result="bg"/><feBlend in="SourceGraphic" in2="bg"/></filter><mask id="mask-4" x="10.35" y="5.66" width="40.38" height="35.89" maskUnits="userSpaceOnUse"><g class="cls-3"><polygon class="cls-4" points="50.72 41.54 40.11 41.54 10.35 24.36 42.74 5.66 50.72 5.66 50.72 41.54"/></g></mask><linearGradient id="_ÂÁ_Ï_ÌÌ_È_ËÂÌÚ_18" x1="10.35" y1="23.6" x2="50.72" y2="23.6" gradientUnits="userSpaceOnUse"><stop offset="0" stop-color="#dbdbdb"/><stop offset="0.05" stop-color="#bdbdbc"/><stop offset="0.12" stop-color="#9c9c9b"/><stop offset="0.19" stop-color="#80807f"/><stop offset="0.28" stop-color="#696968"/><stop offset="0.37" stop-color="#575756"/><stop offset="0.49" stop-color="#4b4b49"/><stop offset="0.64" stop-color="#444442"/><stop offset="1" stop-color="#424240"/></linearGradient><linearGradient id="_ÂÁ_Ï_ÌÌ_È_ËÂÌÚ_17-2" x1="21.43" y1="22.57" x2="80.02" y2="22.57" xlink:href="#_ÂÁ_Ï_ÌÌ_È_ËÂÌÚ_17"/><linearGradient id="_ÂÁ_Ï_ÌÌ_È_ËÂÌÚ_17-3" x1="69.15" y1="38.66" x2="62.03" y2="26.22" xlink:href="#_ÂÁ_Ï_ÌÌ_È_ËÂÌÚ_17"/><linearGradient id="_ÂÁ_Ï_ÌÌ_È_ËÂÌÚ_16" x1="36.07" y1="32.76" x2="36.07" y2="13.79" gradientUnits="userSpaceOnUse"><stop offset="0" stop-color="#424240"/><stop offset="0.13" stop-color="#474745"/><stop offset="0.28" stop-color="#555553"/><stop offset="0.45" stop-color="#6d6d6b"/><stop offset="0.62" stop-color="#8e8e8c"/><stop offset="0.8" stop-color="#b9b9b7"/><stop offset="0.98" stop-color="#ececea"/><stop offset="1" stop-color="#f2f2f0"/></linearGradient><linearGradient id="_ÂÁ_Ï_ÌÌ_È_ËÂÌÚ_16-2" x1="37.23" y1="18.09" x2="52.4" y2="18.09" xlink:href="#_ÂÁ_Ï_ÌÌ_È_ËÂÌÚ_16"/><linearGradient id="_ÂÁ_Ï_ÌÌ_È_ËÂÌÚ_16-3" x1="41.17" y1="20.35" x2="56.34" y2="20.35" xlink:href="#_ÂÁ_Ï_ÌÌ_È_ËÂÌÚ_16"/><linearGradient id="_ÂÁ_Ï_ÌÌ_È_ËÂÌÚ_16-4" x1="45.11" y1="22.62" x2="60.28" y2="22.62" xlink:href="#_ÂÁ_Ï_ÌÌ_È_ËÂÌÚ_16"/><linearGradient id="_ÂÁ_Ï_ÌÌ_È_ËÂÌÚ_16-5" x1="49.04" y1="24.89" x2="64.22" y2="24.89" xlink:href="#_ÂÁ_Ï_ÌÌ_È_ËÂÌÚ_16"/><linearGradient id="_ÂÁ_Ï_ÌÌ_È_ËÂÌÚ_17-4" x1="45.24" y1="51.04" x2="49.12" y2="51.04" xlink:href="#_ÂÁ_Ï_ÌÌ_È_ËÂÌÚ_17"/><linearGradient id="_ÂÁ_Ï_ÌÌ_È_ËÂÌÚ_16-6" x1="44.77" y1="51.44" x2="47.98" y2="51.44" xlink:href="#_ÂÁ_Ï_ÌÌ_È_ËÂÌÚ_16"/><linearGradient id="_ÂÁ_Ï_ÌÌ_È_ËÂÌÚ_17-5" x1="11.37" y1="30.23" x2="15.26" y2="30.23" xlink:href="#_ÂÁ_Ï_ÌÌ_È_ËÂÌÚ_17"/><linearGradient id="_ÂÁ_Ï_ÌÌ_È_ËÂÌÚ_16-7" x1="10.9" y1="30.63" x2="14.11" y2="30.63" xlink:href="#_ÂÁ_Ï_ÌÌ_È_ËÂÌÚ_16"/><linearGradient id="_ÂÁ_Ï_ÌÌ_È_ËÂÌÚ_17-6" x1="45.24" y1="131.18" x2="49.12" y2="131.18" xlink:href="#_ÂÁ_Ï_ÌÌ_È_ËÂÌÚ_17"/><linearGradient id="_ÂÁ_Ï_ÌÌ_È_ËÂÌÚ_16-8" x1="44.77" y1="131.58" x2="47.98" y2="131.58" xlink:href="#_ÂÁ_Ï_ÌÌ_È_ËÂÌÚ_16"/><linearGradient id="_ÂÁ_Ï_ÌÌ_È_ËÂÌÚ_17-7" x1="11.37" y1="110.37" x2="15.26" y2="110.37" xlink:href="#_ÂÁ_Ï_ÌÌ_È_ËÂÌÚ_17"/><linearGradient id="_ÂÁ_Ï_ÌÌ_È_ËÂÌÚ_16-9" x1="10.9" y1="110.77" x2="14.11" y2="110.77" xlink:href="#_ÂÁ_Ï_ÌÌ_È_ËÂÌÚ_16"/></defs><title>raw_data-warehouse-small</title><path class="cls-5" d="M47.84,148.39,9.36,126.18c-1.56-.9-1.36-2.47.44-3.51L47.4,101a6.75,6.75,0,0,1,6.08-.25l38.47,22.21c1.56.9,1.36,2.47-.44,3.51l-37.6,21.71A6.75,6.75,0,0,1,47.84,148.39Z"/><g class="cls-6"><path class="cls-7" d="M47.84,148.39,9.36,126.18c-1.56-.9-1.36-2.47.44-3.51L47.4,101a6.75,6.75,0,0,1,6.08-.25l38.47,22.21c1.56.9,1.36,2.47-.44,3.51l-37.6,21.71A6.75,6.75,0,0,1,47.84,148.39Z"/></g><path class="cls-8" d="M9.36,126.18l3.38,2,34.66-20a6.75,6.75,0,0,1,6.08-.25l35.09,20.26,2.94-1.7c1.8-1,2-2.61.44-3.51L53.47,100.71a6.75,6.75,0,0,0-6.08.25L9.8,122.67C8,123.71,7.81,125.28,9.36,126.18Z"/><polygon class="cls-9" points="50.72 47.67 10.35 24.36 50.72 1.04 91.1 24.36 50.72 47.67"/><polygon class="cls-10" points="50.72 137.15 10.35 113.84 50.72 90.53 91.1 113.84 50.72 137.15"/><polygon class="cls-11" points="91.1 24.36 91.1 113.84 50.72 137.15 50.72 47.67 91.1 24.36"/><polygon class="cls-12" points="10.35 24.36 10.35 113.84 50.72 137.15 50.72 47.67 10.35 24.36"/><g class="cls-13"><polygon class="cls-14" points="13.08 30.29 13.08 110.73 47.99 130.88 47.99 50.45 13.08 30.29"/></g><polygon class="cls-14" points="85.04 45.98 85.04 48.34 56.78 64.66 56.78 62.3 85.04 45.98"/><polygon class="cls-14" points="85.04 55.98 85.04 58.34 56.78 74.66 56.78 72.3 85.04 55.98"/><polygon class="cls-14" points="85.04 65.98 85.04 68.34 56.78 84.66 56.78 82.3 85.04 65.98"/><polygon class="cls-14" points="85.04 75.98 85.04 78.34 56.78 94.66 56.78 92.3 85.04 75.98"/><polygon class="cls-14" points="85.04 85.98 85.04 88.35 56.78 104.66 56.78 102.3 85.04 85.98"/><polygon class="cls-14" points="85.04 95.98 85.04 98.35 56.78 114.67 56.78 112.3 85.04 95.98"/><g class="cls-15"><polygon class="cls-16" points="50.72 41.54 40.11 41.54 10.35 24.36 42.74 5.66 50.72 5.66 50.72 41.54"/></g><polygon class="cls-17" points="50.72 39.49 21.43 22.57 50.72 5.66 80.02 22.57 50.72 39.49"/><polygon class="cls-18" points="80.02 22.57 80.02 24.63 50.72 41.54 50.72 39.49 80.02 22.57"/><polygon class="cls-19" points="21.43 22.57 21.43 24.63 50.72 41.54 50.72 39.49 21.43 22.57"/><polygon class="cls-20" points="39.36 22.84 38.06 22.09 38.17 21.48 50.21 14.48 51.88 15.28 51.57 15.79 39.36 22.84"/><polygon class="cls-21" points="50.27 15.05 51.57 15.8 52.4 15.31 50.27 14.08 37.23 21.61 38.06 22.09 50.27 15.05"/><polygon class="cls-20" points="43.3 25.11 42 24.36 42.11 23.75 54.14 16.75 55.82 17.54 55.5 18.06 43.3 25.11"/><polygon class="cls-22" points="54.21 17.31 55.5 18.06 56.34 17.58 54.21 16.35 41.17 23.88 42 24.36 54.21 17.31"/><polygon class="cls-20" points="47.24 27.38 45.94 26.63 46.05 26.02 58.08 19.01 59.75 19.81 59.44 20.33 47.24 27.38"/><polygon class="cls-23" points="58.15 19.58 59.44 20.33 60.28 19.85 58.15 18.62 45.11 26.14 45.94 26.63 58.15 19.58"/><polygon class="cls-20" points="51.18 29.64 49.88 28.89 49.98 28.29 62.02 21.28 63.69 22.08 63.38 22.6 51.18 29.64"/><polygon class="cls-24" points="62.09 21.85 63.38 22.6 64.22 22.11 62.09 20.88 49.04 28.41 49.88 28.89 62.09 21.85"/><g class="cls-13"><polygon class="cls-14" points="10.35 99.7 50.72 75.32 50.72 47.67 10.35 24.36 10.35 99.7"/></g><path class="cls-25" d="M49.12,51.69a3.55,3.55,0,0,0-1.61-2.78,1.13,1.13,0,0,0-1.14-.11h0l-1.14.67.7,0a1.83,1.83,0,0,0,0,.35,3.55,3.55,0,0,0,1.61,2.78,1.81,1.81,0,0,0,.34.15l-.33.61,1.11-.65h0A1.12,1.12,0,0,0,49.12,51.69Z"/><path class="cls-26" d="M48,52.36c0,1-.72,1.44-1.61.93a3.55,3.55,0,0,1-1.61-2.78c0-1,.72-1.44,1.61-.93A3.55,3.55,0,0,1,48,52.36Z"/><path class="cls-20" d="M47.3,52c0,.59-.41.83-.92.53a2,2,0,0,1-.92-1.6c0-.59.41-.83.92-.53A2,2,0,0,1,47.3,52Z"/><path class="cls-27" d="M15.26,30.89a3.55,3.55,0,0,0-1.61-2.78A1.12,1.12,0,0,0,12.51,28h0l-1.14.67.7,0A1.84,1.84,0,0,0,12,29a3.55,3.55,0,0,0,1.61,2.78A1.8,1.8,0,0,0,14,32l-.33.61,1.11-.65h0A1.12,1.12,0,0,0,15.26,30.89Z"/><path class="cls-28" d="M14.11,31.56c0,1-.72,1.44-1.61.93A3.55,3.55,0,0,1,10.9,29.7c0-1,.72-1.44,1.61-.93A3.55,3.55,0,0,1,14.11,31.56Z"/><path class="cls-20" d="M13.43,31.16c0,.59-.41.83-.92.53a2,2,0,0,1-.92-1.6c0-.59.41-.83.92-.53A2,2,0,0,1,13.43,31.16Z"/><path class="cls-29" d="M49.12,131.83a3.55,3.55,0,0,0-1.61-2.78,1.12,1.12,0,0,0-1.14-.11h0l-1.14.67.7,0a1.83,1.83,0,0,0,0,.35,3.55,3.55,0,0,0,1.61,2.78,1.8,1.8,0,0,0,.34.15l-.33.61,1.11-.65h0A1.12,1.12,0,0,0,49.12,131.83Z"/><path class="cls-30" d="M48,132.5c0,1-.72,1.44-1.61.93a3.55,3.55,0,0,1-1.61-2.78c0-1,.72-1.44,1.61-.93A3.55,3.55,0,0,1,48,132.5Z"/><path class="cls-20" d="M47.3,132.11c0,.59-.41.83-.92.53a2,2,0,0,1-.92-1.6c0-.59.41-.83.92-.53A2,2,0,0,1,47.3,132.11Z"/><path class="cls-31" d="M15.26,111a3.55,3.55,0,0,0-1.61-2.78,1.13,1.13,0,0,0-1.14-.11h0l-1.14.67.7,0a1.84,1.84,0,0,0,0,.35A3.55,3.55,0,0,0,13.65,112a1.81,1.81,0,0,0,.34.15l-.33.61,1.11-.65h0A1.12,1.12,0,0,0,15.26,111Z"/><path class="cls-32" d="M14.11,111.7c0,1-.72,1.44-1.61.93a3.55,3.55,0,0,1-1.61-2.78c0-1,.72-1.44,1.61-.93A3.55,3.55,0,0,1,14.11,111.7Z"/><path class="cls-20" d="M13.43,111.3c0,.59-.41.83-.92.53a2,2,0,0,1-.92-1.6c0-.59.41-.83.92-.53A2,2,0,0,1,13.43,111.3Z"/><polygon class="cls-8" points="24.3 63.74 15.4 58.6 15.4 56.65 24.3 61.78 24.3 63.74"/><polygon class="cls-8" points="28.86 66.37 25.66 64.52 25.66 62.57 28.86 64.42 28.86 66.37"/><polygon class="cls-8" points="32.4 68.42 30.22 67.16 30.22 65.2 32.4 66.46 32.4 68.42"/><polygon class="cls-8" points="20.25 65.86 15.4 63.06 15.4 61.11 20.25 63.91 20.25 65.86"/><polygon class="cls-8" points="27.55 70.08 21.61 66.65 21.61 64.69 27.55 68.13 27.55 70.08"/><polygon class="cls-8" points="31.09 72.12 28.91 70.86 28.91 68.91 31.09 70.17 31.09 72.12"/><polygon class="cls-8" points="34.45 74.06 32.28 72.81 32.28 70.85 34.45 72.11 34.45 74.06"/><polygon class="cls-8" points="18.91 69.56 15.4 67.53 15.4 65.58 18.91 67.6 18.91 69.56"/><polygon class="cls-8" points="21.47 71.03 20.27 70.34 20.27 68.39 21.47 69.08 21.47 71.03"/><polygon class="cls-8" points="25.01 73.07 22.83 71.82 22.83 69.86 25.01 71.12 25.01 73.07"/><polygon class="cls-8" points="28.35 79.47 15.4 71.99 15.4 70.04 28.35 77.52 28.35 79.47"/><polygon class="cls-8" points="32.91 82.11 29.71 80.25 29.71 78.3 32.91 80.15 32.91 82.11"/><polygon class="cls-8" points="18.91 78.48 15.4 76.46 15.4 74.5 18.91 76.53 18.91 78.48"/><polygon class="cls-8" points="27.14 83.24 20.27 79.27 20.27 77.31 27.14 81.28 27.14 83.24"/><polygon class="cls-8" points="30.68 85.28 28.5 84.02 28.5 82.07 30.68 83.33 30.68 85.28"/><polygon class="cls-8" points="22.58 85.07 15.4 80.92 15.4 78.97 22.58 83.11 22.58 85.07"/><polygon class="cls-8" points="29.13 88.85 23.94 85.85 23.94 83.9 29.13 86.89 29.13 88.85"/><polygon class="cls-8" points="34 91.66 30.49 89.63 30.49 87.68 34 89.71 34 91.66"/><polygon class="cls-8" points="17.83 86.79 15.4 85.39 15.4 83.43 17.83 84.83 17.83 86.79"/><polygon class="cls-8" points="22.39 89.42 19.19 87.57 19.19 85.62 22.39 87.47 22.39 89.42"/><polygon class="cls-8" points="28.91 93.19 23.75 90.21 23.75 88.25 28.91 91.23 28.91 93.19"/><polygon class="cls-8" points="22.83 94.14 15.4 89.85 15.4 87.9 22.83 92.19 22.83 94.14"/><polygon class="cls-8" points="31.15 98.94 24.19 94.92 24.19 92.97 31.15 96.99 31.15 98.94"/><polygon class="cls-8" points="34.68 100.98 32.51 99.73 32.51 97.77 34.68 99.03 34.68 100.98"/><polygon class="cls-8" points="38.08 102.94 35.9 101.69 35.9 99.73 38.08 100.99 38.08 102.94"/><polygon class="cls-8" points="19.85 96.89 15.4 94.32 15.4 92.36 19.85 94.93 19.85 96.89"/><polygon class="cls-8" points="38.46 71.91 44.63 75.48 44.63 73.52 38.46 69.96 38.46 71.91"/><polygon class="cls-8" points="39.78 77.14 44.63 79.94 44.63 77.99 39.78 75.19 39.78 77.14"/><polygon class="cls-8" points="41.12 82.38 44.63 84.41 44.63 82.45 41.12 80.42 41.12 82.38"/><polygon class="cls-8" points="39.53 85.92 44.63 88.87 44.63 86.92 39.53 83.97 39.53 85.92"/><polygon class="cls-8" points="41.12 91.31 44.63 93.33 44.63 91.38 41.12 89.35 41.12 91.31"/><polygon class="cls-8" points="40.18 95.23 44.63 97.8 44.63 95.84 40.18 93.28 40.18 95.23"/><polygon class="cls-8" points="42.21 100.86 44.63 102.26 44.63 100.31 42.21 98.91 42.21 100.86"/><polygon class="cls-8" points="39.93 104.02 44.63 106.73 44.63 104.77 39.93 102.06 39.93 104.02"/><polygon class="cls-8" points="40.18 108.62 44.63 111.19 44.63 109.24 40.18 106.67 40.18 108.62"/><polygon class="cls-8" points="23.1 98.76 21.21 97.67 21.21 95.72 23.1 96.81 23.1 98.76"/><polygon class="cls-8" points="28.72 102.01 24.46 99.55 24.46 97.59 28.72 100.05 28.72 102.01"/><polygon class="cls-8" points="32.25 117.03 25.06 112.88 25.06 110.92 32.25 115.07 32.25 117.03"/><polygon class="cls-8" points="37.17 119.87 34.34 118.23 34.34 116.28 37.17 117.91 37.17 119.87"/><path class="cls-8" d="M17.52,46.18c-.3.87-.5,1-1.1.61l-.2-.12-.05-.1v-.48l.05,0,.2.12c.25.14.35.13.45,0v-.21L16,42.54v-.48l0,0,.3.17.05.1.7,3,.1.06.7-2.16.05,0,.3.17.05.1v.49Z"/><path class="cls-8" d="M20.19,47.92a2.9,2.9,0,0,1-1.26-2.53c0-1.11.5-1.52,1.26-1.08l.05,0a2.89,2.89,0,0,1,1.27,2.53c0,1.11-.51,1.52-1.27,1.08Zm.05-.6c.46.26.76,0,.76-.75A1.8,1.8,0,0,0,20.25,45l-.05,0c-.46-.26-.76,0-.76.75a1.8,1.8,0,0,0,.76,1.62Z"/><path class="cls-8" d="M24.37,50.26,24,50.05,24,50l-.05-.31-.05,0s-.2.3-.66,0a2.34,2.34,0,0,1-1-2v-2l.05,0,.41.23.05.1v2a1.32,1.32,0,0,0,.56,1.16c.36.21.66,0,.66-.74V46.57l.05,0,.41.23.05.1v3.36Z"/><path class="cls-8" d="M27.71,49.93l-.05,0-.41-.24-.05-.1a1.09,1.09,0,0,0-.57-1c-.46-.26-.72-.13-.72.71v1.75l-.05,0-.41-.24-.05-.1V47.42l.05,0,.36.21.05.1.05.31L26,48s.21-.3.72,0A2.15,2.15,0,0,1,27.71,49.93Z"/><path class="cls-8" d="M33.83,55.7l-.37-.21-.05-.1-.05-.31-.05,0s-.21.3-.73,0a2.86,2.86,0,0,1-1.15-2.49c0-1.06.42-1.6,1.15-1.18a1.83,1.83,0,0,1,.73.84l.05,0v-1.7l.05,0,.42.24.05.1v4.81ZM32.63,52c-.42-.24-.68,0-.68.81a1.75,1.75,0,0,0,.68,1.59c.42.24.73.07.73-.78A1.75,1.75,0,0,0,32.63,52Z"/><path class="cls-8" d="M37,57.55l-.37-.21-.05-.1-.05-.31-.05,0s-.21.3-.79,0a1.84,1.84,0,0,1-.94-1.68c0-.85.52-.83,1.21-.44a3.27,3.27,0,0,1,.53.37l.05,0v-.14A1,1,0,0,0,36,54c-.37-.21-.58-.19-.58.09l-.05,0-.42-.24-.05-.1c0-.57.31-.88,1.1-.43a2.23,2.23,0,0,1,1.1,2.19v2Zm-.47-1.76-.05-.1a2.33,2.33,0,0,0-.47-.34c-.47-.27-.73-.28-.73.15a.84.84,0,0,0,.52.8c.42.24.74.07.74-.29Z"/><path class="cls-8" d="M38.41,55.49l-.05-.1-.42-.24-.05-.1v-.5l.05,0,.42.24.05,0v-.92l.05,0,.42.24.05.1V55l.05.1.9.51.05.1v.5l-.05,0-.9-.51-.05,0v1.42a1.18,1.18,0,0,0,.53,1.16c.21.12.48.13.48-.37v-.14l.05,0,.42.24.05.1v.14c0,1-.58.95-1,.7a2.3,2.3,0,0,1-1.06-2.1Z"/><path class="cls-8" d="M43.52,61.27l-.37-.22-.05-.1L43,60.64l-.05,0s-.21.31-.8,0a1.86,1.86,0,0,1-1-1.69c0-.86.53-.84,1.23-.44a3.34,3.34,0,0,1,.53.38l.05,0v-.14a1,1,0,0,0-.59-1c-.37-.21-.59-.19-.59.09l-.05,0-.43-.24-.05-.1c0-.57.32-.89,1.12-.43a2.25,2.25,0,0,1,1.12,2.21v2ZM43,59.5l-.05-.1A2.38,2.38,0,0,0,42.5,59c-.48-.28-.75-.29-.75.14a.85.85,0,0,0,.53.81c.43.25.75.07.75-.29Z"/><path class="cls-8" d="M18,52.32l-.05,0-.4-.23-.05-.1-.35-2.42-.05,0-.35,2-.05,0-.4-.23-.05-.1-.5-3.13v-.48l0,0,.3.17.05.1.35,2.42.05,0,.35-2,.05,0,.35.2.05.1L17.72,51l.05,0,.35-2,.05,0,.3.17.05.1v.49Z"/><path class="cls-8" d="M21.26,54.27l-.36-.21-.05-.1-.05-.31-.05,0s-.2.3-.76,0A1.81,1.81,0,0,1,19.08,52c0-.83.51-.82,1.16-.44a3.14,3.14,0,0,1,.51.36l.05,0v-.14a1,1,0,0,0-.56-.95c-.35-.21-.56-.18-.56.09l-.05,0-.4-.23-.05-.1c0-.56.3-.87,1.06-.43a2.19,2.19,0,0,1,1.06,2.15v2Zm-.46-1.73-.05-.1a2.24,2.24,0,0,0-.46-.33c-.46-.26-.71-.27-.71.15a.82.82,0,0,0,.51.78c.41.24.71.06.71-.28Z"/><path class="cls-8" d="M24.57,54l-.05,0-.41-.24-.05-.1a1.09,1.09,0,0,0-.56-1c-.46-.27-.71-.13-.71.7v1.74l-.05,0-.41-.24-.05-.1V51.45l.05,0,.36.21.05.1.05.31.05,0s.2-.3.71,0A2.16,2.16,0,0,1,24.57,54Z"/><path class="cls-8" d="M25.19,54.81c0-1,.36-1.61,1.23-1.11a2.85,2.85,0,0,1,1.23,2.54v.21l-.05,0-1.8-1-.05,0a1.51,1.51,0,0,0,.72,1.26c.26.15.46.2.57-.09l.05,0,.41.24.05.1c-.05.53-.41.81-1.08.42A2.87,2.87,0,0,1,25.19,54.81Zm1.9.75a1.41,1.41,0,0,0-.67-1.23c-.62-.36-.67.24-.67.45l.05.1,1.23.71Z"/><path class="cls-8" d="M30.71,59.78l-.42-.24-.05-.1v-2a1.34,1.34,0,0,0-.57-1.17c-.41-.24-.72-.14-.72.71v1.76l-.05,0-.41-.24-.05-.1V53.6l.05,0,.41.24.05.1v1.69l.05,0s.21-.3.72,0a2.3,2.3,0,0,1,1,2.08v2Z"/><path class="cls-8" d="M32.74,61a3,3,0,0,1-1.3-2.59c0-1.13.52-1.53,1.3-1.08l.05,0A3,3,0,0,1,34.1,60c0,1.13-.52,1.53-1.31,1.08Zm.05-.6c.47.27.78,0,.78-.75A1.85,1.85,0,0,0,32.79,58l-.05,0c-.47-.27-.78,0-.78.75a1.85,1.85,0,0,0,.78,1.65Z"/><path class="cls-8" d="M37,63.46l-.37-.21-.05-.1-.05-.31-.05,0s-.21.3-.68,0a2.4,2.4,0,0,1-1-2.1V58.68l.05,0,.42.24.05.1V61a1.35,1.35,0,0,0,.58,1.19c.37.21.68,0,.68-.74V59.71l.05,0,.42.24.05.1v3.41Z"/><path class="cls-8" d="M38,61.42c0-.64.42-.75,1.11-.35a2,2,0,0,1,1.11,1.71l-.05,0-.42-.25-.05-.1c0-.28-.16-.52-.58-.76s-.58-.19-.58,0,.21.55.74.93a2,2,0,0,1,1,1.65c0,.71-.42.89-1.17.46A2.23,2.23,0,0,1,38,62.88l.05,0,.42.25.05.1a1.11,1.11,0,0,0,.63.94c.42.25.64.23.64-.13s-.21-.55-.74-.93A2,2,0,0,1,38,61.42Z"/><path class="cls-8" d="M41.12,64.06c0-1,.37-1.64,1.28-1.11a2.92,2.92,0,0,1,1.28,2.6v.21l-.05,0-1.87-1.08-.05,0A1.55,1.55,0,0,0,42.45,66c.27.15.48.21.59-.09l.05,0,.43.25.05.1c-.05.54-.43.82-1.12.42A3,3,0,0,1,41.12,64.06Zm2,.79a1.44,1.44,0,0,0-.69-1.26c-.64-.37-.69.24-.69.46l.05.1,1.28.74Z"/></svg>