<svg xmlns="http://www.w3.org/2000/svg" viewBox="0 0 109.22 123.31"><defs><style>.cls-1{fill:#fff;}.cls-2{fill:#16110d;}.cls-3{fill:#f2f2f0;}</style></defs><title>servers_icon_1</title><g id="Layer_2" data-name="Layer 2"><g id="content"><g id="illustration"><g id="_Group_" data-name="&lt;Group&gt;"><g id="_Group_2" data-name="&lt;Group&gt;"><g id="_Group_3" data-name="&lt;Group&gt;"><g id="_Group_4" data-name="&lt;Group&gt;"><path id="_Path_" data-name="&lt;Path&gt;" class="cls-1" d="M67.88,81.48V19.27L5.67,18V79.73a1.58,1.58,0,0,0,.9,1.88L34.8,98.3a6.38,6.38,0,0,0,5.74-.18L66.47,83.5C67.49,82.93,68,82.18,67.88,81.48Z"/><path id="_Compound_Path_" data-name="&lt;Compound Path&gt;" class="cls-2" d="M37.36,99.25a5.48,5.48,0,0,1-2.74-.65L6.39,81.91a1.94,1.94,0,0,1-1.08-2.23v-62l62.91,1.24V81.45a2.56,2.56,0,0,1-1.59,2.36L40.71,98.42A7,7,0,0,1,37.36,99.25ZM6,18.41V79.79l0,.05c-.18.55.09,1.07.75,1.46L35,98a6,6,0,0,0,5.39-.18L66.3,83.2c.84-.47,1.3-1.1,1.23-1.68V19.62Z"/></g><g id="_Group_5" data-name="&lt;Group&gt;"><path id="_Path_2" data-name="&lt;Path&gt;" class="cls-1" d="M34.8,35.75,6.57,19.06c-1.46-.86-1.26-2.34.45-3.31L33,1.14A6.37,6.37,0,0,1,38.69,1L66.91,17.65c1.46.86,1.26,2.34-.45,3.31L40.53,35.57A6.38,6.38,0,0,1,34.8,35.75Z"/><path id="_Path_3" data-name="&lt;Path&gt;" class="cls-3" d="M34.85,38.76,6.93,22.25c-1.45-.85-1.25-2.32.44-3.27L33,4.52a6.31,6.31,0,0,1,5.68-.18L66.63,20.85c1.45.86,1.25,2.32-.44,3.27L40.53,38.59A6.31,6.31,0,0,1,34.85,38.76Z"/><path id="_Compound_Path_2" data-name="&lt;Compound Path&gt;" class="cls-2" d="M37.36,36.7A5.48,5.48,0,0,1,34.62,36L6.39,19.36A2,2,0,0,1,5.24,17.6a2.7,2.7,0,0,1,1.6-2.16L32.78.83A6.67,6.67,0,0,1,38.87.65L67.09,17.34a2,2,0,0,1,1.15,1.76,2.7,2.7,0,0,1-1.6,2.16L40.71,35.88A7,7,0,0,1,37.36,36.7ZM35,35.44a6,6,0,0,0,5.39-.18L66.29,20.65c.79-.44,1.24-1,1.24-1.56a1.4,1.4,0,0,0-.8-1.14L38.51,1.26a6,6,0,0,0-5.39.18L7.19,16.06c-.79.44-1.24,1-1.24,1.56a1.36,1.36,0,0,0,.8,1.14Z"/></g></g><g id="_Group_6" data-name="&lt;Group&gt;"><path id="_Path_4" data-name="&lt;Path&gt;" class="cls-1" d="M35.59,31.39,18.3,21.17c-.9-.53-.77-1.44.27-2l15.89-9A3.91,3.91,0,0,1,38,10.08L55.26,20.31c.9.53.77,1.44-.27,2l-15.89,9A3.91,3.91,0,0,1,35.59,31.39Z"/><path id="_Compound_Path_3" data-name="&lt;Compound Path&gt;" class="cls-2" d="M37.27,29.42A3.5,3.5,0,0,1,35.52,29L18.23,18.78a1.39,1.39,0,0,1-.77-1.2,1.79,1.79,0,0,1,1.05-1.44l15.89-9a4.24,4.24,0,0,1,3.87-.11L55.55,17.31a1.39,1.39,0,0,1,.77,1.2,1.78,1.78,0,0,1-1.05,1.44l-15.89,9A4.41,4.41,0,0,1,37.27,29.42Zm-1.39-1A3.58,3.58,0,0,0,39,28.29l15.89-9c.43-.24.69-.55.69-.84a.73.73,0,0,0-.43-.58L37.9,7.69a3.58,3.58,0,0,0-3.16.11l-15.89,9c-.43.24-.69.55-.69.83a.73.73,0,0,0,.43.58Z"/></g><g id="_Group_7" data-name="&lt;Group&gt;"><path id="_Compound_Path_4" data-name="&lt;Compound Path&gt;" class="cls-2" d="M52.49,21.55,37.9,12.93a3.58,3.58,0,0,0-3.16.11L21.28,20.62l-3.06-1.81a1.39,1.39,0,0,1-.77-1.2,1.79,1.79,0,0,1,1.05-1.44l15.89-9a4.23,4.23,0,0,1,3.87-.11L55.55,17.34a1.39,1.39,0,0,1,.77,1.19A1.79,1.79,0,0,1,55.27,20Zm-16-9.65a3.5,3.5,0,0,1,1.75.42l14.23,8.42,2.43-1.37c.43-.24.69-.56.69-.84a.73.73,0,0,0-.43-.58L37.9,7.73a3.57,3.57,0,0,0-3.16.11l-15.89,9c-.43.24-.69.55-.69.83a.73.73,0,0,0,.43.58l2.71,1.6,13.1-7.38A4.41,4.41,0,0,1,36.51,11.9Z"/></g><g id="_Group_8" data-name="&lt;Group&gt;"><g id="_Group_9" data-name="&lt;Group&gt;"><g id="_Group_10" data-name="&lt;Group&gt;"><g id="_Group_11" data-name="&lt;Group&gt;"><path id="_Path_5" data-name="&lt;Path&gt;" class="cls-1" d="M29.89,75.25a3.74,3.74,0,0,0-1.55-3l-21-12.4a1,1,0,0,0-1-.1h0l-.12.07L.95,62.88,23.85,79.73l5.29-3.15a.83.83,0,0,0,.32-.19h0A1.53,1.53,0,0,0,29.89,75.25Z"/><path id="_Path_6" data-name="&lt;Path&gt;" class="cls-3" d="M29.46,76.39c0-1.16-.13-2-1-2.57l-21-12.4a1,1,0,0,0-1-.1h0l-.12.07L1.06,64.5,22.84,79l5.45-1.82a4,4,0,0,0,.85-.59h0C29.39,76.35,29.45,76.91,29.46,76.39Z"/><path id="_Compound_Path_5" data-name="&lt;Compound Path&gt;" class="cls-2" d="M23.83,80.15.71,63.15a.33.33,0,0,1,0-.55L6,59.47l.12-.07a1.4,1.4,0,0,1,1.41.1l21,12.4a4.08,4.08,0,0,1,1.72,3.36,1.86,1.86,0,0,1-.55,1.39,1.19,1.19,0,0,1-.41.25ZM1.58,62.91,23.87,79.31,29,76.23a.47.47,0,0,0,.18-.11,1.2,1.2,0,0,0,.31-.88h0a3.41,3.41,0,0,0-1.38-2.73l-21-12.4a.74.74,0,0,0-.7-.09l-.11.06Z"/></g><g id="_Group_12" data-name="&lt;Group&gt;"><path id="_Path_7" data-name="&lt;Path&gt;" class="cls-1" d="M22.9,79.58l-21-12.4a3.74,3.74,0,0,1-1.55-3h0C.38,63,1.12,62.46,2,63l21,12.4a3.74,3.74,0,0,1,1.55,3h0C24.52,79.59,23.79,80.1,22.9,79.58Z"/><path id="_Compound_Path_6" data-name="&lt;Compound Path&gt;" class="cls-2" d="M23.56,80.14a1.66,1.66,0,0,1-.84-.25l-21-12.4A4.07,4.07,0,0,1,0,64.13a1.74,1.74,0,0,1,.76-1.56,1.39,1.39,0,0,1,1.42.1l21,12.4a4.08,4.08,0,0,1,1.72,3.36A1.74,1.74,0,0,1,24.14,80,1.18,1.18,0,0,1,23.56,80.14Zm-.48-.86a.76.76,0,0,0,.72.09,1.1,1.1,0,0,0,.39-1,3.41,3.41,0,0,0-1.38-2.73l-21-12.4a.76.76,0,0,0-.72-.09,1.1,1.1,0,0,0-.39,1,3.41,3.41,0,0,0,1.38,2.73Z"/></g></g><polygon id="_Path_8" data-name="&lt;Path&gt;" class="cls-2" points="23.98 76.42 29.39 73.25 29.89 75.25 29.46 76.39 24.2 79.73 24.52 77.94 23.98 76.42"/></g><g id="_Group_13" data-name="&lt;Group&gt;"><g id="_Group_14" data-name="&lt;Group&gt;"><g id="_Group_15" data-name="&lt;Group&gt;"><path id="_Path_9" data-name="&lt;Path&gt;" class="cls-1" d="M29.89,66a3.74,3.74,0,0,0-1.55-3l-21-12.4a1,1,0,0,0-1-.1h0l-.12.07L.95,53.59,23.85,70.44l5.29-3.15a.83.83,0,0,0,.32-.19h0A1.53,1.53,0,0,0,29.89,66Z"/><path id="_Path_10" data-name="&lt;Path&gt;" class="cls-3" d="M29.46,67.09c0-1.16-.13-2-1-2.57l-21-12.4a1,1,0,0,0-1-.1h0l-.12.07L1.06,55.2,22.84,69.69l5.45-1.82a4,4,0,0,0,.85-.59h0C29.39,67.06,29.45,67.62,29.46,67.09Z"/><path id="_Compound_Path_7" data-name="&lt;Compound Path&gt;" class="cls-2" d="M23.83,70.86.71,53.85a.33.33,0,0,1,0-.55L6,50.18l.12-.07a1.4,1.4,0,0,1,1.41.1l21,12.4A4.08,4.08,0,0,1,30.24,66a1.86,1.86,0,0,1-.55,1.39,1.19,1.19,0,0,1-.41.25ZM1.58,53.62,23.87,70,29,66.94a.47.47,0,0,0,.18-.11,1.2,1.2,0,0,0,.31-.88h0a3.41,3.41,0,0,0-1.38-2.73l-21-12.4a.74.74,0,0,0-.7-.09l-.11.06Z"/></g><g id="_Group_16" data-name="&lt;Group&gt;"><path id="_Path_11" data-name="&lt;Path&gt;" class="cls-1" d="M22.9,70.29l-21-12.4a3.74,3.74,0,0,1-1.55-3h0c0-1.16.76-1.68,1.64-1.16l21,12.4a3.74,3.74,0,0,1,1.55,3h0C24.52,70.29,23.79,70.81,22.9,70.29Z"/><path id="_Compound_Path_8" data-name="&lt;Compound Path&gt;" class="cls-2" d="M23.56,70.85a1.66,1.66,0,0,1-.84-.25l-21-12.4A4.07,4.07,0,0,1,0,54.84a1.74,1.74,0,0,1,.76-1.56,1.39,1.39,0,0,1,1.42.1l21,12.4a4.08,4.08,0,0,1,1.72,3.36,1.74,1.74,0,0,1-.76,1.56A1.18,1.18,0,0,1,23.56,70.85ZM23.08,70a.76.76,0,0,0,.72.09,1.1,1.1,0,0,0,.39-1,3.41,3.41,0,0,0-1.38-2.73L1.82,54a.76.76,0,0,0-.72-.09,1.1,1.1,0,0,0-.39,1,3.41,3.41,0,0,0,1.38,2.73Z"/></g></g><polygon id="_Path_12" data-name="&lt;Path&gt;" class="cls-2" points="23.98 67.13 29.39 63.96 29.89 65.95 29.46 67.09 24.2 70.44 24.52 68.65 23.98 67.13"/></g><g id="_Group_17" data-name="&lt;Group&gt;"><g id="_Group_18" data-name="&lt;Group&gt;"><g id="_Group_19" data-name="&lt;Group&gt;"><path id="_Path_13" data-name="&lt;Path&gt;" class="cls-1" d="M29.89,56.8a3.74,3.74,0,0,0-1.55-3l-21-12.4a1,1,0,0,0-1-.1h0l-.12.07L.95,44.43,23.85,61.28l5.29-3.15a.83.83,0,0,0,.32-.19h0A1.53,1.53,0,0,0,29.89,56.8Z"/><path id="_Path_14" data-name="&lt;Path&gt;" class="cls-3" d="M29.46,57.94c0-1.16-.13-2-1-2.57L7.45,43a1,1,0,0,0-1-.1h0l-.12.07L1.06,46,22.84,60.53l5.45-1.82a4,4,0,0,0,.85-.59h0C29.39,57.9,29.45,58.47,29.46,57.94Z"/><path id="_Compound_Path_9" data-name="&lt;Compound Path&gt;" class="cls-2" d="M23.83,61.7.71,44.7a.33.33,0,0,1,0-.55L6,41,6.11,41a1.4,1.4,0,0,1,1.41.1l21,12.4a4.08,4.08,0,0,1,1.72,3.36,1.86,1.86,0,0,1-.55,1.39,1.19,1.19,0,0,1-.41.25ZM1.58,44.47,23.87,60.86,29,57.79a.48.48,0,0,0,.18-.11,1.2,1.2,0,0,0,.31-.88h0a3.41,3.41,0,0,0-1.38-2.73l-21-12.4a.74.74,0,0,0-.7-.09l-.11.06Z"/></g><g id="_Group_20" data-name="&lt;Group&gt;"><path id="_Path_15" data-name="&lt;Path&gt;" class="cls-1" d="M22.9,61.14l-21-12.4a3.74,3.74,0,0,1-1.55-3h0c0-1.16.76-1.68,1.64-1.16l21,12.4a3.74,3.74,0,0,1,1.55,3h0C24.52,61.14,23.79,61.66,22.9,61.14Z"/><path id="_Compound_Path_10" data-name="&lt;Compound Path&gt;" class="cls-2" d="M23.56,61.69a1.66,1.66,0,0,1-.84-.25L1.73,49A4.07,4.07,0,0,1,0,45.68a1.74,1.74,0,0,1,.76-1.56,1.39,1.39,0,0,1,1.42.1l21,12.4A4.08,4.08,0,0,1,24.9,60a1.74,1.74,0,0,1-.76,1.56A1.18,1.18,0,0,1,23.56,61.69Zm-.48-.86a.76.76,0,0,0,.72.09,1.1,1.1,0,0,0,.39-1,3.41,3.41,0,0,0-1.38-2.73l-21-12.4a.76.76,0,0,0-.72-.09,1.1,1.1,0,0,0-.39,1,3.41,3.41,0,0,0,1.38,2.73Z"/></g></g><polygon id="_Path_16" data-name="&lt;Path&gt;" class="cls-2" points="23.98 57.97 29.39 54.81 29.89 56.8 29.46 57.94 24.2 61.28 24.52 59.49 23.98 57.97"/></g><g id="_Group_21" data-name="&lt;Group&gt;"><g id="_Group_22" data-name="&lt;Group&gt;"><g id="_Group_23" data-name="&lt;Group&gt;"><path id="_Path_17" data-name="&lt;Path&gt;" class="cls-1" d="M29.89,47.52a3.74,3.74,0,0,0-1.55-3l-21-12.4a1,1,0,0,0-1-.1h0l-.12.07L.95,35.16,23.85,52l5.29-3.15a.83.83,0,0,0,.32-.19h0A1.53,1.53,0,0,0,29.89,47.52Z"/><path id="_Path_18" data-name="&lt;Path&gt;" class="cls-3" d="M29.46,48.66c0-1.16-.13-2-1-2.57l-21-12.4a1,1,0,0,0-1-.1h0l-.12.07L1.06,36.77,22.84,51.25l5.45-1.82a4,4,0,0,0,.85-.59h0C29.39,48.62,29.45,49.19,29.46,48.66Z"/><path id="_Compound_Path_11" data-name="&lt;Compound Path&gt;" class="cls-2" d="M23.83,52.42.71,35.42a.33.33,0,0,1,0-.55L6,31.75l.12-.07a1.4,1.4,0,0,1,1.41.1l21,12.4a4.08,4.08,0,0,1,1.72,3.36,1.86,1.86,0,0,1-.55,1.39,1.19,1.19,0,0,1-.41.25ZM1.58,35.19,23.87,51.58,29,48.51a.47.47,0,0,0,.18-.11,1.2,1.2,0,0,0,.31-.88h0a3.41,3.41,0,0,0-1.38-2.73l-21-12.4a.74.74,0,0,0-.7-.09l-.11.06Z"/></g><g id="_Group_24" data-name="&lt;Group&gt;"><path id="_Path_19" data-name="&lt;Path&gt;" class="cls-1" d="M22.9,51.86l-21-12.4a3.74,3.74,0,0,1-1.55-3h0c0-1.16.76-1.68,1.64-1.16l21,12.4a3.74,3.74,0,0,1,1.55,3h0C24.52,51.86,23.79,52.38,22.9,51.86Z"/><path id="_Compound_Path_12" data-name="&lt;Compound Path&gt;" class="cls-2" d="M23.56,52.41a1.66,1.66,0,0,1-.84-.25l-21-12.4A4.07,4.07,0,0,1,0,36.4a1.74,1.74,0,0,1,.76-1.56,1.39,1.39,0,0,1,1.42.1l21,12.4a4.08,4.08,0,0,1,1.72,3.36,1.74,1.74,0,0,1-.76,1.56A1.18,1.18,0,0,1,23.56,52.41Zm-.48-.86a.76.76,0,0,0,.72.09,1.1,1.1,0,0,0,.39-1A3.41,3.41,0,0,0,22.82,48l-21-12.4a.76.76,0,0,0-.72-.09,1.1,1.1,0,0,0-.39,1,3.41,3.41,0,0,0,1.38,2.73Z"/></g></g><polygon id="_Path_20" data-name="&lt;Path&gt;" class="cls-2" points="23.98 48.7 29.39 45.53 29.89 47.52 29.46 48.66 24.2 52 24.52 50.21 23.98 48.7"/></g></g><polygon id="_Path_21" data-name="&lt;Path&gt;" class="cls-2" points="37.51 36 37.51 98.54 39.1 98.89 66.47 83.5 67.89 82.1 67.89 20.16 66.63 20.86 39.55 36 37.51 36"/><g id="_Group_25" data-name="&lt;Group&gt;"><g id="_Group_26" data-name="&lt;Group&gt;"><g id="_Group_27" data-name="&lt;Group&gt;"><path id="_Compound_Path_13" data-name="&lt;Compound Path&gt;" class="cls-1" d="M43.4,48.23V44.36l.18-.1L63.78,32.59v3.87l-.18.1Zm.7-3.47V47l19-11V33.81Z"/></g><g id="_Group_28" data-name="&lt;Group&gt;"><path id="_Compound_Path_14" data-name="&lt;Compound Path&gt;" class="cls-1" d="M57,46.23V42.36l6.74-3.89v3.87Zm.7-3.47V45l5.33-3.08V39.69Z"/></g><g id="_Group_29" data-name="&lt;Group&gt;"><path id="_Compound_Path_15" data-name="&lt;Compound Path&gt;" class="cls-1" d="M43.4,54.11V50.24l12.05-7v3.87Zm.7-3.47v2.24l10.64-6.15V44.5Z"/></g><g id="_Group_30" data-name="&lt;Group&gt;"><path id="_Compound_Path_16" data-name="&lt;Compound Path&gt;" class="cls-1" d="M49.07,56.51V52.64l14.71-8.51V48Zm.7-3.47v2.24l13.3-7.7V45.35Z"/></g><g id="_Group_31" data-name="&lt;Group&gt;"><path id="_Compound_Path_17" data-name="&lt;Compound Path&gt;" class="cls-1" d="M43.4,59.76V55.89l4.09-2.33v3.87Zm.7-3.46v2.25L46.78,57V54.77Z"/></g><g id="_Group_32" data-name="&lt;Group&gt;"><path id="_Compound_Path_18" data-name="&lt;Compound Path&gt;" class="cls-1" d="M43.4,65.68V61.8l.18-.1L63.78,50v3.87l-.18.1Zm.7-3.47v2.24l19-11V51.25Z"/></g><g id="_Group_33" data-name="&lt;Group&gt;"><path id="_Compound_Path_19" data-name="&lt;Compound Path&gt;" class="cls-1" d="M57,63.7V59.83l6.74-3.89v3.87Zm.7-3.47v2.24l5.33-3.08V57.15Z"/></g><g id="_Group_34" data-name="&lt;Group&gt;"><path id="_Compound_Path_20" data-name="&lt;Compound Path&gt;" class="cls-1" d="M43.4,71.58V67.7l12.05-7v3.87Zm.7-3.47v2.24l10.64-6.15V62Z"/></g><g id="_Group_35" data-name="&lt;Group&gt;"><path id="_Compound_Path_21" data-name="&lt;Compound Path&gt;" class="cls-1" d="M49.07,74V70.1l14.71-8.51v3.87Zm.7-3.47v2.24l13.3-7.7V62.81Z"/></g><g id="_Group_36" data-name="&lt;Group&gt;"><path id="_Compound_Path_22" data-name="&lt;Compound Path&gt;" class="cls-1" d="M43.4,77.23V73.36L47.48,71v3.87Zm.7-3.46V76l2.68-1.53V72.24Z"/></g><g id="_Group_37" data-name="&lt;Group&gt;"><path id="_Compound_Path_23" data-name="&lt;Compound Path&gt;" class="cls-1" d="M43.39,82.83V79l.18-.1L63.78,67.19v3.87l-.18.1Zm.7-3.47v2.24l19-11V68.41Z"/></g></g></g></g></g><g id="_Group_38" data-name="&lt;Group&gt;"><g id="_Group_39" data-name="&lt;Group&gt;"><g id="_Group_40" data-name="&lt;Group&gt;"><g id="_Group_41" data-name="&lt;Group&gt;"><path id="_Path_22" data-name="&lt;Path&gt;" class="cls-1" d="M108.86,105.53V43.33L46.65,42.1v61.68a1.58,1.58,0,0,0,.9,1.88l28.22,16.69a6.38,6.38,0,0,0,5.74-.18l25.93-14.61C108.46,107,108.94,106.23,108.86,105.53Z"/><path id="_Compound_Path_24" data-name="&lt;Compound Path&gt;" class="cls-2" d="M78.34,123.31a5.48,5.48,0,0,1-2.74-.65L47.37,106a1.94,1.94,0,0,1-1.08-2.23v-62L109.21,43v62.53a2.56,2.56,0,0,1-1.59,2.36L81.69,122.48A7,7,0,0,1,78.34,123.31ZM47,42.46v61.38l0,.05c-.18.55.09,1.07.75,1.46L76,122.05a6,6,0,0,0,5.39-.18l25.93-14.61c.84-.47,1.3-1.1,1.23-1.68V43.68Z"/></g><g id="_Group_42" data-name="&lt;Group&gt;"><path id="_Path_23" data-name="&lt;Path&gt;" class="cls-1" d="M75.77,59.8,47.55,43.11c-1.46-.86-1.26-2.34.45-3.31L73.93,25.19A6.37,6.37,0,0,1,79.67,25l28.22,16.69c1.46.86,1.26,2.34-.45,3.31L81.51,59.63A6.38,6.38,0,0,1,75.77,59.8Z"/><path id="_Path_24" data-name="&lt;Path&gt;" class="cls-3" d="M75.83,62.82,47.91,46.31c-1.45-.85-1.25-2.32.44-3.27L74,28.58a6.31,6.31,0,0,1,5.68-.18l27.92,16.51c1.45.86,1.25,2.32-.44,3.27L81.51,62.64A6.31,6.31,0,0,1,75.83,62.82Z"/><path id="_Compound_Path_25" data-name="&lt;Compound Path&gt;" class="cls-2" d="M78.34,60.76a5.48,5.48,0,0,1-2.74-.65L47.37,43.42a2,2,0,0,1-1.15-1.76,2.7,2.7,0,0,1,1.6-2.16L73.76,24.89a6.67,6.67,0,0,1,6.09-.17L108.07,41.4a2,2,0,0,1,1.15,1.76,2.7,2.7,0,0,1-1.6,2.16L81.69,59.93A7,7,0,0,1,78.34,60.76ZM76,59.5a6,6,0,0,0,5.39-.18l25.93-14.61c.79-.44,1.24-1,1.24-1.56a1.4,1.4,0,0,0-.8-1.14L79.49,25.32a6,6,0,0,0-5.39.18L48.17,40.11c-.79.44-1.24,1-1.24,1.56a1.36,1.36,0,0,0,.8,1.14Z"/></g></g><g id="_Group_43" data-name="&lt;Group&gt;"><path id="_Path_25" data-name="&lt;Path&gt;" class="cls-1" d="M76.56,55.45,59.27,45.23c-.9-.53-.77-1.44.27-2l15.89-9A3.91,3.91,0,0,1,79,34.14L96.24,44.36c.9.53.77,1.44-.27,2l-15.89,9A3.91,3.91,0,0,1,76.56,55.45Z"/><path id="_Compound_Path_26" data-name="&lt;Compound Path&gt;" class="cls-2" d="M78.25,53.48a3.5,3.5,0,0,1-1.75-.42L59.2,42.84a1.39,1.39,0,0,1-.77-1.2,1.79,1.79,0,0,1,1.05-1.44l15.89-9a4.24,4.24,0,0,1,3.87-.11L96.53,41.37a1.39,1.39,0,0,1,.77,1.2A1.78,1.78,0,0,1,96.25,44L80.36,53A4.41,4.41,0,0,1,78.25,53.48Zm-1.39-1A3.58,3.58,0,0,0,80,52.35l15.89-9c.43-.24.69-.55.69-.84a.73.73,0,0,0-.43-.58L78.88,31.75a3.58,3.58,0,0,0-3.16.11l-15.89,9c-.43.24-.69.55-.69.83a.73.73,0,0,0,.43.58Z"/></g><g id="_Group_44" data-name="&lt;Group&gt;"><path id="_Compound_Path_27" data-name="&lt;Compound Path&gt;" class="cls-2" d="M93.47,45.61,78.88,37a3.58,3.58,0,0,0-3.16.11L62.26,44.68,59.2,42.87a1.39,1.39,0,0,1-.77-1.2,1.79,1.79,0,0,1,1.05-1.44l15.89-9a4.23,4.23,0,0,1,3.87-.11L96.53,41.4a1.39,1.39,0,0,1,.77,1.19A1.79,1.79,0,0,1,96.25,44ZM77.49,36a3.5,3.5,0,0,1,1.75.42L93.47,44.8l2.43-1.37c.43-.24.69-.56.69-.84a.73.73,0,0,0-.43-.58L78.88,31.78a3.57,3.57,0,0,0-3.16.11l-15.89,9c-.43.24-.69.55-.69.83a.73.73,0,0,0,.43.58l2.71,1.6,13.1-7.38A4.41,4.41,0,0,1,77.49,36Z"/></g><g id="_Group_45" data-name="&lt;Group&gt;"><g id="_Group_46" data-name="&lt;Group&gt;"><g id="_Group_47" data-name="&lt;Group&gt;"><g id="_Group_48" data-name="&lt;Group&gt;"><path id="_Path_26" data-name="&lt;Path&gt;" class="cls-1" d="M70.87,99.3a3.74,3.74,0,0,0-1.55-3l-21-12.4a1,1,0,0,0-1-.1h0l-.12.07-5.22,3.11,22.91,16.85,5.29-3.15a.83.83,0,0,0,.32-.19h0A1.53,1.53,0,0,0,70.87,99.3Z"/><path id="_Path_27" data-name="&lt;Path&gt;" class="cls-3" d="M70.44,100.44c0-1.16-.13-2-1-2.57l-21-12.4a1,1,0,0,0-1-.1h0l-.12.07L42,88.56,63.82,103l5.45-1.82a4,4,0,0,0,.85-.59h0C70.37,100.41,70.43,101,70.44,100.44Z"/><path id="_Compound_Path_28" data-name="&lt;Compound Path&gt;" class="cls-2" d="M64.81,104.21l-23.12-17a.33.33,0,0,1,0-.55L47,83.53l.12-.07a1.4,1.4,0,0,1,1.41.1L69.5,96a4.08,4.08,0,0,1,1.72,3.36,1.86,1.86,0,0,1-.55,1.39,1.19,1.19,0,0,1-.41.25ZM42.56,87l22.29,16.39L70,100.29a.47.47,0,0,0,.18-.11,1.2,1.2,0,0,0,.31-.88h0a3.41,3.41,0,0,0-1.38-2.73l-21-12.4a.74.74,0,0,0-.7-.09l-.11.06Z"/></g><g id="_Group_49" data-name="&lt;Group&gt;"><path id="_Path_28" data-name="&lt;Path&gt;" class="cls-1" d="M63.88,103.64l-21-12.4a3.74,3.74,0,0,1-1.55-3h0c0-1.16.76-1.68,1.64-1.16l21,12.4a3.74,3.74,0,0,1,1.55,3h0C65.5,103.64,64.76,104.16,63.88,103.64Z"/><path id="_Compound_Path_29" data-name="&lt;Compound Path&gt;" class="cls-2" d="M64.54,104.2a1.66,1.66,0,0,1-.84-.25l-21-12.4A4.07,4.07,0,0,1,41,88.19a1.74,1.74,0,0,1,.76-1.56,1.39,1.39,0,0,1,1.42.1l21,12.4a4.08,4.08,0,0,1,1.72,3.36,1.74,1.74,0,0,1-.76,1.56A1.18,1.18,0,0,1,64.54,104.2Zm-.48-.86a.76.76,0,0,0,.72.09,1.1,1.1,0,0,0,.39-1,3.41,3.41,0,0,0-1.38-2.73l-21-12.4a.76.76,0,0,0-.72-.09,1.1,1.1,0,0,0-.39,1,3.41,3.41,0,0,0,1.38,2.73Z"/></g></g><polygon id="_Path_29" data-name="&lt;Path&gt;" class="cls-2" points="64.96 100.48 70.37 97.31 70.87 99.31 70.44 100.44 65.17 103.79 65.5 102 64.96 100.48"/></g><g id="_Group_50" data-name="&lt;Group&gt;"><g id="_Group_51" data-name="&lt;Group&gt;"><g id="_Group_52" data-name="&lt;Group&gt;"><path id="_Path_30" data-name="&lt;Path&gt;" class="cls-1" d="M70.87,90a3.74,3.74,0,0,0-1.55-3l-21-12.4a1,1,0,0,0-1-.1h0l-.12.07-5.22,3.11L64.83,94.49l5.29-3.15a.83.83,0,0,0,.32-.19h0A1.53,1.53,0,0,0,70.87,90Z"/><path id="_Path_31" data-name="&lt;Path&gt;" class="cls-3" d="M70.44,91.15c0-1.16-.13-2-1-2.57l-21-12.4a1,1,0,0,0-1-.1h0l-.12.07L42,79.26,63.82,93.75l5.45-1.82a4,4,0,0,0,.85-.59h0C70.37,91.12,70.43,91.68,70.44,91.15Z"/><path id="_Compound_Path_30" data-name="&lt;Compound Path&gt;" class="cls-2" d="M64.81,94.92l-23.12-17a.33.33,0,0,1,0-.55L47,74.24l.12-.07a1.4,1.4,0,0,1,1.41.1l21,12.4A4.08,4.08,0,0,1,71.22,90a1.86,1.86,0,0,1-.55,1.39,1.19,1.19,0,0,1-.41.25ZM42.56,77.68,64.85,94.07,70,91a.47.47,0,0,0,.18-.11,1.2,1.2,0,0,0,.31-.88h0a3.41,3.41,0,0,0-1.38-2.73l-21-12.4a.74.74,0,0,0-.7-.09l-.11.06Z"/></g><g id="_Group_53" data-name="&lt;Group&gt;"><path id="_Path_32" data-name="&lt;Path&gt;" class="cls-1" d="M63.88,94.35l-21-12.4a3.74,3.74,0,0,1-1.55-3h0c0-1.16.76-1.68,1.64-1.16l21,12.4a3.74,3.74,0,0,1,1.55,3h0C65.5,94.35,64.76,94.87,63.88,94.35Z"/><path id="_Compound_Path_31" data-name="&lt;Compound Path&gt;" class="cls-2" d="M64.54,94.9a1.66,1.66,0,0,1-.84-.25l-21-12.4A4.07,4.07,0,0,1,41,78.89a1.74,1.74,0,0,1,.76-1.56,1.39,1.39,0,0,1,1.42.1l21,12.4a4.08,4.08,0,0,1,1.72,3.36,1.74,1.74,0,0,1-.76,1.56A1.18,1.18,0,0,1,64.54,94.9ZM64.06,94a.76.76,0,0,0,.72.09,1.1,1.1,0,0,0,.39-1,3.41,3.41,0,0,0-1.38-2.73L42.8,78a.76.76,0,0,0-.72-.09,1.1,1.1,0,0,0-.39,1,3.41,3.41,0,0,0,1.38,2.73Z"/></g></g><polygon id="_Path_33" data-name="&lt;Path&gt;" class="cls-2" points="64.96 91.19 70.37 88.02 70.87 90.01 70.44 91.15 65.17 94.49 65.5 92.7 64.96 91.19"/></g><g id="_Group_54" data-name="&lt;Group&gt;"><g id="_Group_55" data-name="&lt;Group&gt;"><g id="_Group_56" data-name="&lt;Group&gt;"><path id="_Path_34" data-name="&lt;Path&gt;" class="cls-1" d="M70.87,80.86a3.74,3.74,0,0,0-1.55-3l-21-12.4a1,1,0,0,0-1-.1h0l-.12.07-5.22,3.11L64.83,85.34l5.29-3.15a.83.83,0,0,0,.32-.19h0A1.53,1.53,0,0,0,70.87,80.86Z"/><path id="_Path_35" data-name="&lt;Path&gt;" class="cls-3" d="M70.44,82c0-1.16-.13-2-1-2.57L48.43,67a1,1,0,0,0-1-.1h0l-.12.07L42,70.11,63.82,84.59l5.45-1.82a4,4,0,0,0,.85-.59h0C70.37,82,70.43,82.53,70.44,82Z"/><path id="_Compound_Path_32" data-name="&lt;Compound Path&gt;" class="cls-2" d="M64.81,85.76l-23.12-17a.33.33,0,0,1,0-.55L47,65.08l.12-.07a1.4,1.4,0,0,1,1.41.1l21,12.4a4.08,4.08,0,0,1,1.72,3.36,1.86,1.86,0,0,1-.55,1.39,1.19,1.19,0,0,1-.41.25ZM42.56,68.52,64.85,84.92,70,81.85a.48.48,0,0,0,.18-.11,1.2,1.2,0,0,0,.31-.88h0a3.41,3.41,0,0,0-1.38-2.73l-21-12.4a.74.74,0,0,0-.7-.09l-.11.06Z"/></g><g id="_Group_57" data-name="&lt;Group&gt;"><path id="_Path_36" data-name="&lt;Path&gt;" class="cls-1" d="M63.88,85.19l-21-12.4a3.74,3.74,0,0,1-1.55-3h0c0-1.16.76-1.68,1.64-1.16L64,81a3.74,3.74,0,0,1,1.55,3h0C65.5,85.2,64.76,85.71,63.88,85.19Z"/><path id="_Compound_Path_33" data-name="&lt;Compound Path&gt;" class="cls-2" d="M64.54,85.75a1.66,1.66,0,0,1-.84-.25l-21-12.4A4.07,4.07,0,0,1,41,69.74a1.74,1.74,0,0,1,.76-1.56,1.39,1.39,0,0,1,1.42.1l21,12.4A4.08,4.08,0,0,1,65.88,84a1.74,1.74,0,0,1-.76,1.56A1.18,1.18,0,0,1,64.54,85.75Zm-.48-.86a.76.76,0,0,0,.72.09,1.1,1.1,0,0,0,.39-1A3.41,3.41,0,0,0,63.8,81.3l-21-12.4a.76.76,0,0,0-.72-.09,1.1,1.1,0,0,0-.39,1,3.41,3.41,0,0,0,1.38,2.73Z"/></g></g><polygon id="_Path_37" data-name="&lt;Path&gt;" class="cls-2" points="64.96 82.03 70.37 78.86 70.87 80.86 70.44 82 65.17 85.34 65.5 83.55 64.96 82.03"/></g><g id="_Group_58" data-name="&lt;Group&gt;"><g id="_Group_59" data-name="&lt;Group&gt;"><g id="_Group_60" data-name="&lt;Group&gt;"><path id="_Path_38" data-name="&lt;Path&gt;" class="cls-1" d="M70.87,71.58a3.74,3.74,0,0,0-1.55-3l-21-12.4a1,1,0,0,0-1-.1h0l-.12.07-5.22,3.11L64.83,76.06l5.29-3.15a.83.83,0,0,0,.32-.19h0A1.53,1.53,0,0,0,70.87,71.58Z"/><path id="_Path_39" data-name="&lt;Path&gt;" class="cls-3" d="M70.44,72.72c0-1.16-.13-2-1-2.57l-21-12.4a1,1,0,0,0-1-.1h0l-.12.07L42,60.83,63.82,75.31l5.45-1.82a4,4,0,0,0,.85-.59h0C70.37,72.68,70.43,73.25,70.44,72.72Z"/><path id="_Compound_Path_34" data-name="&lt;Compound Path&gt;" class="cls-2" d="M64.81,76.48l-23.12-17a.33.33,0,0,1,0-.55L47,55.81l.12-.07a1.4,1.4,0,0,1,1.41.1l21,12.4a4.08,4.08,0,0,1,1.72,3.36A1.86,1.86,0,0,1,70.67,73a1.19,1.19,0,0,1-.41.25ZM42.56,59.25,64.85,75.64,70,72.57a.47.47,0,0,0,.18-.11,1.2,1.2,0,0,0,.31-.88h0a3.41,3.41,0,0,0-1.38-2.73l-21-12.4a.74.74,0,0,0-.7-.09l-.11.06Z"/></g><g id="_Group_61" data-name="&lt;Group&gt;"><path id="_Path_40" data-name="&lt;Path&gt;" class="cls-1" d="M63.88,75.91l-21-12.4a3.74,3.74,0,0,1-1.55-3h0c0-1.16.76-1.68,1.64-1.16l21,12.4a3.74,3.74,0,0,1,1.55,3h0C65.5,75.92,64.76,76.44,63.88,75.91Z"/><path id="_Compound_Path_35" data-name="&lt;Compound Path&gt;" class="cls-2" d="M64.54,76.47a1.66,1.66,0,0,1-.84-.25l-21-12.4A4.07,4.07,0,0,1,41,60.46a1.74,1.74,0,0,1,.76-1.56,1.39,1.39,0,0,1,1.42.1l21,12.4a4.08,4.08,0,0,1,1.72,3.36,1.74,1.74,0,0,1-.76,1.56A1.18,1.18,0,0,1,64.54,76.47Zm-.48-.86a.76.76,0,0,0,.72.09,1.1,1.1,0,0,0,.39-1A3.41,3.41,0,0,0,63.8,72l-21-12.4a.76.76,0,0,0-.72-.09,1.1,1.1,0,0,0-.39,1,3.41,3.41,0,0,0,1.38,2.73Z"/></g></g><polygon id="_Path_41" data-name="&lt;Path&gt;" class="cls-2" points="64.96 72.75 70.37 69.59 70.87 71.58 70.44 72.72 65.17 76.06 65.5 74.27 64.96 72.75"/></g></g><polygon id="_Path_42" data-name="&lt;Path&gt;" class="cls-2" points="78.49 60.06 78.49 122.6 80.08 122.95 107.45 107.56 108.87 106.15 108.87 44.21 107.61 44.91 80.53 60.06 78.49 60.06"/><g id="_Group_62" data-name="&lt;Group&gt;"><g id="_Group_63" data-name="&lt;Group&gt;"><g id="_Group_64" data-name="&lt;Group&gt;"><path id="_Compound_Path_36" data-name="&lt;Compound Path&gt;" class="cls-1" d="M84.37,72.29V68.42l.18-.1,20.21-11.67v3.87l-.18.1Zm.7-3.47v2.24l19-11V57.87Z"/></g><g id="_Group_65" data-name="&lt;Group&gt;"><path id="_Compound_Path_37" data-name="&lt;Compound Path&gt;" class="cls-1" d="M98,70.29V66.42l6.74-3.89V66.4Zm.7-3.47v2.24L104.05,66V63.75Z"/></g><g id="_Group_66" data-name="&lt;Group&gt;"><path id="_Compound_Path_38" data-name="&lt;Compound Path&gt;" class="cls-1" d="M84.37,78.17V74.3l12.05-7v3.87Zm.7-3.47v2.24L95.72,70.8V68.56Z"/></g><g id="_Group_67" data-name="&lt;Group&gt;"><path id="_Compound_Path_39" data-name="&lt;Compound Path&gt;" class="cls-1" d="M90,80.57V76.7l14.71-8.51v3.87Zm.7-3.47v2.24l13.3-7.7V69.4Z"/></g><g id="_Group_68" data-name="&lt;Group&gt;"><path id="_Compound_Path_40" data-name="&lt;Compound Path&gt;" class="cls-1" d="M84.37,83.82V79.95l4.09-2.33v3.87Zm.7-3.46v2.25l2.68-1.53V78.83Z"/></g><g id="_Group_69" data-name="&lt;Group&gt;"><path id="_Compound_Path_41" data-name="&lt;Compound Path&gt;" class="cls-1" d="M84.37,89.73V85.86l.18-.1,20.21-11.67V78l-.18.1Zm.7-3.47v2.24l19-11V75.31Z"/></g><g id="_Group_70" data-name="&lt;Group&gt;"><path id="_Compound_Path_42" data-name="&lt;Compound Path&gt;" class="cls-1" d="M98,87.76V83.88L104.76,80v3.87Zm.7-3.47v2.24l5.33-3.08V81.21Z"/></g><g id="_Group_71" data-name="&lt;Group&gt;"><path id="_Compound_Path_43" data-name="&lt;Compound Path&gt;" class="cls-1" d="M84.37,95.63V91.76l12.05-7v3.87Zm.7-3.47v2.24l10.64-6.15V86Z"/></g><g id="_Group_72" data-name="&lt;Group&gt;"><path id="_Compound_Path_44" data-name="&lt;Compound Path&gt;" class="cls-1" d="M90,98V94.16l14.71-8.51v3.87Zm.7-3.47v2.24l13.3-7.7V86.87Z"/></g><g id="_Group_73" data-name="&lt;Group&gt;"><path id="_Compound_Path_45" data-name="&lt;Compound Path&gt;" class="cls-1" d="M84.37,101.29V97.41l4.09-2.33V99Zm.7-3.46v2.25l2.68-1.53V96.29Z"/></g><g id="_Group_74" data-name="&lt;Group&gt;"><path id="_Compound_Path_46" data-name="&lt;Compound Path&gt;" class="cls-1" d="M84.37,106.89V103l.18-.1,20.21-11.67v3.87l-.18.1Zm.7-3.47v2.24l19-11V92.47Z"/></g></g></g></g></g></g></g></g></svg>