<svg xmlns="http://www.w3.org/2000/svg" viewBox="0 0 155.46 140.52"><defs><style>.cls-1{fill:#fff;}.cls-2{fill:#16110d;}.cls-3{fill:#f2f2f0;}</style></defs><title>servers_icon</title><g id="Layer_2" data-name="Layer 2"><g id="content"><g id="illustration"><g id="_Group_" data-name="&lt;Group&gt;"><g id="_Group_2" data-name="&lt;Group&gt;"><g id="_Group_3" data-name="&lt;Group&gt;"><g id="_Group_4" data-name="&lt;Group&gt;"><path id="_Path_" data-name="&lt;Path&gt;" class="cls-1" d="M67.88,81.48V19.27L5.67,18V79.73a1.58,1.58,0,0,0,.9,1.88L34.8,98.3a6.38,6.38,0,0,0,5.74-.18L66.47,83.5C67.49,82.93,68,82.18,67.88,81.48Z"/><path id="_Compound_Path_" data-name="&lt;Compound Path&gt;" class="cls-2" d="M37.36,99.25a5.48,5.48,0,0,1-2.74-.65L6.39,81.91a1.94,1.94,0,0,1-1.08-2.23v-62l62.91,1.24V81.45a2.56,2.56,0,0,1-1.59,2.36L40.71,98.42A7,7,0,0,1,37.36,99.25ZM6,18.41V79.79l0,.05c-.18.55.09,1.07.75,1.46L35,98a6,6,0,0,0,5.39-.18L66.3,83.2c.84-.47,1.3-1.1,1.23-1.68V19.62Z"/></g><g id="_Group_5" data-name="&lt;Group&gt;"><path id="_Path_2" data-name="&lt;Path&gt;" class="cls-1" d="M34.8,35.75,6.57,19.06c-1.46-.86-1.26-2.34.45-3.31L33,1.14A6.37,6.37,0,0,1,38.69,1L66.91,17.65c1.46.86,1.26,2.34-.45,3.31L40.53,35.57A6.38,6.38,0,0,1,34.8,35.75Z"/><path id="_Path_3" data-name="&lt;Path&gt;" class="cls-3" d="M34.85,38.76,6.93,22.25c-1.45-.85-1.25-2.32.44-3.27L33,4.52a6.31,6.31,0,0,1,5.68-.18L66.63,20.85c1.45.86,1.25,2.32-.44,3.27L40.53,38.59A6.31,6.31,0,0,1,34.85,38.76Z"/><path id="_Compound_Path_2" data-name="&lt;Compound Path&gt;" class="cls-2" d="M37.36,36.7A5.48,5.48,0,0,1,34.62,36L6.39,19.36A2,2,0,0,1,5.24,17.6a2.7,2.7,0,0,1,1.6-2.16L32.78.83A6.67,6.67,0,0,1,38.87.65L67.09,17.34a2,2,0,0,1,1.15,1.76,2.7,2.7,0,0,1-1.6,2.16L40.71,35.88A7,7,0,0,1,37.36,36.7ZM35,35.44a6,6,0,0,0,5.39-.18L66.29,20.65c.79-.44,1.24-1,1.24-1.56a1.4,1.4,0,0,0-.8-1.14L38.51,1.26a6,6,0,0,0-5.39.18L7.19,16.06c-.79.44-1.24,1-1.24,1.56a1.36,1.36,0,0,0,.8,1.14Z"/></g></g><g id="_Group_6" data-name="&lt;Group&gt;"><path id="_Path_4" data-name="&lt;Path&gt;" class="cls-1" d="M35.59,31.39,18.3,21.17c-.9-.53-.77-1.44.27-2l15.89-9A3.91,3.91,0,0,1,38,10.08L55.26,20.31c.9.53.77,1.44-.27,2l-15.89,9A3.91,3.91,0,0,1,35.59,31.39Z"/><path id="_Compound_Path_3" data-name="&lt;Compound Path&gt;" class="cls-2" d="M37.27,29.42A3.5,3.5,0,0,1,35.52,29L18.23,18.78a1.39,1.39,0,0,1-.77-1.2,1.79,1.79,0,0,1,1.05-1.44l15.89-9a4.24,4.24,0,0,1,3.87-.11L55.55,17.31a1.39,1.39,0,0,1,.77,1.2,1.78,1.78,0,0,1-1.05,1.44l-15.89,9A4.41,4.41,0,0,1,37.27,29.42Zm-1.39-1A3.58,3.58,0,0,0,39,28.29l15.89-9c.43-.24.69-.55.69-.84a.73.73,0,0,0-.43-.58L37.9,7.69a3.58,3.58,0,0,0-3.16.11l-15.89,9c-.43.24-.69.55-.69.83a.73.73,0,0,0,.43.58Z"/></g><g id="_Group_7" data-name="&lt;Group&gt;"><path id="_Compound_Path_4" data-name="&lt;Compound Path&gt;" class="cls-2" d="M52.49,21.55,37.9,12.93a3.58,3.58,0,0,0-3.16.11L21.28,20.62l-3.06-1.81a1.39,1.39,0,0,1-.77-1.2,1.79,1.79,0,0,1,1.05-1.44l15.89-9a4.23,4.23,0,0,1,3.87-.11L55.55,17.34a1.39,1.39,0,0,1,.77,1.19A1.79,1.79,0,0,1,55.27,20Zm-16-9.65a3.5,3.5,0,0,1,1.75.42l14.23,8.42,2.43-1.37c.43-.24.69-.56.69-.84a.73.73,0,0,0-.43-.58L37.9,7.73a3.57,3.57,0,0,0-3.16.11l-15.89,9c-.43.24-.69.55-.69.83a.73.73,0,0,0,.43.58l2.71,1.6,13.1-7.38A4.41,4.41,0,0,1,36.51,11.9Z"/></g><g id="_Group_8" data-name="&lt;Group&gt;"><g id="_Group_9" data-name="&lt;Group&gt;"><g id="_Group_10" data-name="&lt;Group&gt;"><g id="_Group_11" data-name="&lt;Group&gt;"><path id="_Path_5" data-name="&lt;Path&gt;" class="cls-1" d="M29.89,75.25a3.74,3.74,0,0,0-1.55-3l-21-12.4a1,1,0,0,0-1-.1h0l-.12.07L.95,62.88,23.85,79.73l5.29-3.15a.83.83,0,0,0,.32-.19h0A1.53,1.53,0,0,0,29.89,75.25Z"/><path id="_Path_6" data-name="&lt;Path&gt;" class="cls-3" d="M29.46,76.39c0-1.16-.13-2-1-2.57l-21-12.4a1,1,0,0,0-1-.1h0l-.12.07L1.06,64.5,22.84,79l5.45-1.82a4,4,0,0,0,.85-.59h0C29.39,76.35,29.45,76.91,29.46,76.39Z"/><path id="_Compound_Path_5" data-name="&lt;Compound Path&gt;" class="cls-2" d="M23.83,80.15.71,63.15a.33.33,0,0,1,0-.55L6,59.47l.12-.07a1.4,1.4,0,0,1,1.41.1l21,12.4a4.08,4.08,0,0,1,1.72,3.36,1.86,1.86,0,0,1-.55,1.39,1.19,1.19,0,0,1-.41.25ZM1.58,62.91,23.87,79.31,29,76.23a.47.47,0,0,0,.18-.11,1.2,1.2,0,0,0,.31-.88h0a3.41,3.41,0,0,0-1.38-2.73l-21-12.4a.74.74,0,0,0-.7-.09l-.11.06Z"/></g><g id="_Group_12" data-name="&lt;Group&gt;"><path id="_Path_7" data-name="&lt;Path&gt;" class="cls-1" d="M22.9,79.58l-21-12.4a3.74,3.74,0,0,1-1.55-3h0C.38,63,1.12,62.46,2,63l21,12.4a3.74,3.74,0,0,1,1.55,3h0C24.52,79.59,23.79,80.1,22.9,79.58Z"/><path id="_Compound_Path_6" data-name="&lt;Compound Path&gt;" class="cls-2" d="M23.56,80.14a1.66,1.66,0,0,1-.84-.25l-21-12.4A4.07,4.07,0,0,1,0,64.13a1.74,1.74,0,0,1,.76-1.56,1.39,1.39,0,0,1,1.42.1l21,12.4a4.08,4.08,0,0,1,1.72,3.36A1.74,1.74,0,0,1,24.14,80,1.18,1.18,0,0,1,23.56,80.14Zm-.48-.86a.76.76,0,0,0,.72.09,1.1,1.1,0,0,0,.39-1,3.41,3.41,0,0,0-1.38-2.73l-21-12.4a.76.76,0,0,0-.72-.09,1.1,1.1,0,0,0-.39,1,3.41,3.41,0,0,0,1.38,2.73Z"/></g></g><polygon id="_Path_8" data-name="&lt;Path&gt;" class="cls-2" points="23.98 76.42 29.39 73.25 29.89 75.25 29.46 76.39 24.2 79.73 24.52 77.94 23.98 76.42"/></g><g id="_Group_13" data-name="&lt;Group&gt;"><g id="_Group_14" data-name="&lt;Group&gt;"><g id="_Group_15" data-name="&lt;Group&gt;"><path id="_Path_9" data-name="&lt;Path&gt;" class="cls-1" d="M29.89,66a3.74,3.74,0,0,0-1.55-3l-21-12.4a1,1,0,0,0-1-.1h0l-.12.07L.95,53.59,23.85,70.44l5.29-3.15a.83.83,0,0,0,.32-.19h0A1.53,1.53,0,0,0,29.89,66Z"/><path id="_Path_10" data-name="&lt;Path&gt;" class="cls-3" d="M29.46,67.09c0-1.16-.13-2-1-2.57l-21-12.4a1,1,0,0,0-1-.1h0l-.12.07L1.06,55.2,22.84,69.69l5.45-1.82a4,4,0,0,0,.85-.59h0C29.39,67.06,29.45,67.62,29.46,67.09Z"/><path id="_Compound_Path_7" data-name="&lt;Compound Path&gt;" class="cls-2" d="M23.83,70.86.71,53.85a.33.33,0,0,1,0-.55L6,50.18l.12-.07a1.4,1.4,0,0,1,1.41.1l21,12.4A4.08,4.08,0,0,1,30.24,66a1.86,1.86,0,0,1-.55,1.39,1.19,1.19,0,0,1-.41.25ZM1.58,53.62,23.87,70,29,66.94a.47.47,0,0,0,.18-.11,1.2,1.2,0,0,0,.31-.88h0a3.41,3.41,0,0,0-1.38-2.73l-21-12.4a.74.74,0,0,0-.7-.09l-.11.06Z"/></g><g id="_Group_16" data-name="&lt;Group&gt;"><path id="_Path_11" data-name="&lt;Path&gt;" class="cls-1" d="M22.9,70.29l-21-12.4a3.74,3.74,0,0,1-1.55-3h0c0-1.16.76-1.68,1.64-1.16l21,12.4a3.74,3.74,0,0,1,1.55,3h0C24.52,70.29,23.79,70.81,22.9,70.29Z"/><path id="_Compound_Path_8" data-name="&lt;Compound Path&gt;" class="cls-2" d="M23.56,70.85a1.66,1.66,0,0,1-.84-.25l-21-12.4A4.07,4.07,0,0,1,0,54.84a1.74,1.74,0,0,1,.76-1.56,1.39,1.39,0,0,1,1.42.1l21,12.4a4.08,4.08,0,0,1,1.72,3.36,1.74,1.74,0,0,1-.76,1.56A1.18,1.18,0,0,1,23.56,70.85ZM23.08,70a.76.76,0,0,0,.72.09,1.1,1.1,0,0,0,.39-1,3.41,3.41,0,0,0-1.38-2.73L1.82,54a.76.76,0,0,0-.72-.09,1.1,1.1,0,0,0-.39,1,3.41,3.41,0,0,0,1.38,2.73Z"/></g></g><polygon id="_Path_12" data-name="&lt;Path&gt;" class="cls-2" points="23.98 67.13 29.39 63.96 29.89 65.95 29.46 67.09 24.2 70.44 24.52 68.65 23.98 67.13"/></g><g id="_Group_17" data-name="&lt;Group&gt;"><g id="_Group_18" data-name="&lt;Group&gt;"><g id="_Group_19" data-name="&lt;Group&gt;"><path id="_Path_13" data-name="&lt;Path&gt;" class="cls-1" d="M29.89,56.8a3.74,3.74,0,0,0-1.55-3l-21-12.4a1,1,0,0,0-1-.1h0l-.12.07L.95,44.43,23.85,61.28l5.29-3.15a.83.83,0,0,0,.32-.19h0A1.53,1.53,0,0,0,29.89,56.8Z"/><path id="_Path_14" data-name="&lt;Path&gt;" class="cls-3" d="M29.46,57.94c0-1.16-.13-2-1-2.57L7.45,43a1,1,0,0,0-1-.1h0l-.12.07L1.06,46,22.84,60.53l5.45-1.82a4,4,0,0,0,.85-.59h0C29.39,57.9,29.45,58.47,29.46,57.94Z"/><path id="_Compound_Path_9" data-name="&lt;Compound Path&gt;" class="cls-2" d="M23.83,61.7.71,44.7a.33.33,0,0,1,0-.55L6,41,6.11,41a1.4,1.4,0,0,1,1.41.1l21,12.4a4.08,4.08,0,0,1,1.72,3.36,1.86,1.86,0,0,1-.55,1.39,1.19,1.19,0,0,1-.41.25ZM1.58,44.47,23.87,60.86,29,57.79a.48.48,0,0,0,.18-.11,1.2,1.2,0,0,0,.31-.88h0a3.41,3.41,0,0,0-1.38-2.73l-21-12.4a.74.74,0,0,0-.7-.09l-.11.06Z"/></g><g id="_Group_20" data-name="&lt;Group&gt;"><path id="_Path_15" data-name="&lt;Path&gt;" class="cls-1" d="M22.9,61.14l-21-12.4a3.74,3.74,0,0,1-1.55-3h0c0-1.16.76-1.68,1.64-1.16l21,12.4a3.74,3.74,0,0,1,1.55,3h0C24.52,61.14,23.79,61.66,22.9,61.14Z"/><path id="_Compound_Path_10" data-name="&lt;Compound Path&gt;" class="cls-2" d="M23.56,61.69a1.66,1.66,0,0,1-.84-.25L1.73,49A4.07,4.07,0,0,1,0,45.68a1.74,1.74,0,0,1,.76-1.56,1.39,1.39,0,0,1,1.42.1l21,12.4A4.08,4.08,0,0,1,24.9,60a1.74,1.74,0,0,1-.76,1.56A1.18,1.18,0,0,1,23.56,61.69Zm-.48-.86a.76.76,0,0,0,.72.09,1.1,1.1,0,0,0,.39-1,3.41,3.41,0,0,0-1.38-2.73l-21-12.4a.76.76,0,0,0-.72-.09,1.1,1.1,0,0,0-.39,1,3.41,3.41,0,0,0,1.38,2.73Z"/></g></g><polygon id="_Path_16" data-name="&lt;Path&gt;" class="cls-2" points="23.98 57.97 29.39 54.81 29.89 56.8 29.46 57.94 24.2 61.28 24.52 59.49 23.98 57.97"/></g><g id="_Group_21" data-name="&lt;Group&gt;"><g id="_Group_22" data-name="&lt;Group&gt;"><g id="_Group_23" data-name="&lt;Group&gt;"><path id="_Path_17" data-name="&lt;Path&gt;" class="cls-1" d="M29.89,47.52a3.74,3.74,0,0,0-1.55-3l-21-12.4a1,1,0,0,0-1-.1h0l-.12.07L.95,35.16,23.85,52l5.29-3.15a.83.83,0,0,0,.32-.19h0A1.53,1.53,0,0,0,29.89,47.52Z"/><path id="_Path_18" data-name="&lt;Path&gt;" class="cls-3" d="M29.46,48.66c0-1.16-.13-2-1-2.57l-21-12.4a1,1,0,0,0-1-.1h0l-.12.07L1.06,36.77,22.84,51.25l5.45-1.82a4,4,0,0,0,.85-.59h0C29.39,48.62,29.45,49.19,29.46,48.66Z"/><path id="_Compound_Path_11" data-name="&lt;Compound Path&gt;" class="cls-2" d="M23.83,52.42.71,35.42a.33.33,0,0,1,0-.55L6,31.75l.12-.07a1.4,1.4,0,0,1,1.41.1l21,12.4a4.08,4.08,0,0,1,1.72,3.36,1.86,1.86,0,0,1-.55,1.39,1.19,1.19,0,0,1-.41.25ZM1.58,35.19,23.87,51.58,29,48.51a.47.47,0,0,0,.18-.11,1.2,1.2,0,0,0,.31-.88h0a3.41,3.41,0,0,0-1.38-2.73l-21-12.4a.74.74,0,0,0-.7-.09l-.11.06Z"/></g><g id="_Group_24" data-name="&lt;Group&gt;"><path id="_Path_19" data-name="&lt;Path&gt;" class="cls-1" d="M22.9,51.86l-21-12.4a3.74,3.74,0,0,1-1.55-3h0c0-1.16.76-1.68,1.64-1.16l21,12.4a3.74,3.74,0,0,1,1.55,3h0C24.52,51.86,23.79,52.38,22.9,51.86Z"/><path id="_Compound_Path_12" data-name="&lt;Compound Path&gt;" class="cls-2" d="M23.56,52.41a1.66,1.66,0,0,1-.84-.25l-21-12.4A4.07,4.07,0,0,1,0,36.4a1.74,1.74,0,0,1,.76-1.56,1.39,1.39,0,0,1,1.42.1l21,12.4a4.08,4.08,0,0,1,1.72,3.36,1.74,1.74,0,0,1-.76,1.56A1.18,1.18,0,0,1,23.56,52.41Zm-.48-.86a.76.76,0,0,0,.72.09,1.1,1.1,0,0,0,.39-1A3.41,3.41,0,0,0,22.82,48l-21-12.4a.76.76,0,0,0-.72-.09,1.1,1.1,0,0,0-.39,1,3.41,3.41,0,0,0,1.38,2.73Z"/></g></g><polygon id="_Path_20" data-name="&lt;Path&gt;" class="cls-2" points="23.98 48.7 29.39 45.53 29.89 47.52 29.46 48.66 24.2 52 24.52 50.21 23.98 48.7"/></g></g><polygon id="_Path_21" data-name="&lt;Path&gt;" class="cls-2" points="37.51 36 37.51 98.54 39.1 98.89 66.47 83.5 67.89 82.1 67.89 20.16 66.63 20.86 39.55 36 37.51 36"/><g id="_Group_25" data-name="&lt;Group&gt;"><g id="_Group_26" data-name="&lt;Group&gt;"><g id="_Group_27" data-name="&lt;Group&gt;"><path id="_Compound_Path_13" data-name="&lt;Compound Path&gt;" class="cls-1" d="M43.4,48.23V44.36l.18-.1L63.78,32.59v3.87l-.18.1Zm.7-3.47V47l19-11V33.81Z"/></g><g id="_Group_28" data-name="&lt;Group&gt;"><path id="_Compound_Path_14" data-name="&lt;Compound Path&gt;" class="cls-1" d="M57,46.23V42.36l6.74-3.89v3.87Zm.7-3.47V45l5.33-3.08V39.69Z"/></g><g id="_Group_29" data-name="&lt;Group&gt;"><path id="_Compound_Path_15" data-name="&lt;Compound Path&gt;" class="cls-1" d="M43.4,54.11V50.24l12.05-7v3.87Zm.7-3.47v2.24l10.64-6.15V44.5Z"/></g><g id="_Group_30" data-name="&lt;Group&gt;"><path id="_Compound_Path_16" data-name="&lt;Compound Path&gt;" class="cls-1" d="M49.07,56.51V52.64l14.71-8.51V48Zm.7-3.47v2.24l13.3-7.7V45.35Z"/></g><g id="_Group_31" data-name="&lt;Group&gt;"><path id="_Compound_Path_17" data-name="&lt;Compound Path&gt;" class="cls-1" d="M43.4,59.76V55.89l4.09-2.33v3.87Zm.7-3.46v2.25L46.78,57V54.77Z"/></g><g id="_Group_32" data-name="&lt;Group&gt;"><path id="_Compound_Path_18" data-name="&lt;Compound Path&gt;" class="cls-1" d="M43.4,65.68V61.8l.18-.1L63.78,50v3.87l-.18.1Zm.7-3.47v2.24l19-11V51.25Z"/></g><g id="_Group_33" data-name="&lt;Group&gt;"><path id="_Compound_Path_19" data-name="&lt;Compound Path&gt;" class="cls-1" d="M57,63.7V59.83l6.74-3.89v3.87Zm.7-3.47v2.24l5.33-3.08V57.15Z"/></g><g id="_Group_34" data-name="&lt;Group&gt;"><path id="_Compound_Path_20" data-name="&lt;Compound Path&gt;" class="cls-1" d="M43.4,71.58V67.7l12.05-7v3.87Zm.7-3.47v2.24l10.64-6.15V62Z"/></g><g id="_Group_35" data-name="&lt;Group&gt;"><path id="_Compound_Path_21" data-name="&lt;Compound Path&gt;" class="cls-1" d="M49.07,74V70.1l14.71-8.51v3.87Zm.7-3.47v2.24l13.3-7.7V62.81Z"/></g><g id="_Group_36" data-name="&lt;Group&gt;"><path id="_Compound_Path_22" data-name="&lt;Compound Path&gt;" class="cls-1" d="M43.4,77.23V73.36L47.48,71v3.87Zm.7-3.46V76l2.68-1.53V72.24Z"/></g><g id="_Group_37" data-name="&lt;Group&gt;"><path id="_Compound_Path_23" data-name="&lt;Compound Path&gt;" class="cls-1" d="M43.39,82.83V79l.18-.1L63.78,67.19v3.87l-.18.1Zm.7-3.47v2.24l19-11V68.41Z"/></g></g></g></g></g><g id="_Group_38" data-name="&lt;Group&gt;"><g id="_Group_39" data-name="&lt;Group&gt;"><g id="_Group_40" data-name="&lt;Group&gt;"><g id="_Group_41" data-name="&lt;Group&gt;"><path id="_Path_22" data-name="&lt;Path&gt;" class="cls-1" d="M155.09,122.74V60.54L92.88,59.31V121a1.58,1.58,0,0,0,.9,1.88L122,139.56a6.38,6.38,0,0,0,5.74-.18l25.93-14.61C154.7,124.19,155.18,123.44,155.09,122.74Z"/><path id="_Compound_Path_24" data-name="&lt;Compound Path&gt;" class="cls-2" d="M124.57,140.52a5.48,5.48,0,0,1-2.74-.65L93.61,123.17a1.94,1.94,0,0,1-1.08-2.23v-62l62.91,1.24v62.53a2.56,2.56,0,0,1-1.59,2.36l-25.93,14.61A7,7,0,0,1,124.57,140.52ZM93.24,59.67V121l0,.05c-.18.55.09,1.07.75,1.46l28.22,16.69a6,6,0,0,0,5.39-.18l25.93-14.61c.84-.47,1.3-1.1,1.23-1.68V60.88Z"/></g><g id="_Group_42" data-name="&lt;Group&gt;"><path id="_Path_23" data-name="&lt;Path&gt;" class="cls-1" d="M122,77,93.79,60.32c-1.46-.86-1.26-2.34.45-3.31L120.17,42.4a6.37,6.37,0,0,1,5.74-.18l28.22,16.69c1.46.86,1.26,2.34-.45,3.31L127.75,76.83A6.38,6.38,0,0,1,122,77Z"/><path id="_Path_24" data-name="&lt;Path&gt;" class="cls-3" d="M122.07,80,94.14,63.51c-1.45-.85-1.25-2.32.44-3.27l25.66-14.46a6.31,6.31,0,0,1,5.68-.18l27.92,16.51c1.45.86,1.25,2.32-.44,3.27L127.74,79.85A6.31,6.31,0,0,1,122.07,80Z"/><path id="_Compound_Path_25" data-name="&lt;Compound Path&gt;" class="cls-2" d="M124.57,78a5.48,5.48,0,0,1-2.74-.65L93.61,60.62a2,2,0,0,1-1.15-1.76,2.7,2.7,0,0,1,1.6-2.16L120,42.09a6.67,6.67,0,0,1,6.09-.17l28.22,16.69a2,2,0,0,1,1.15,1.76,2.7,2.7,0,0,1-1.6,2.16L127.92,77.14A7,7,0,0,1,124.57,78Zm-2.38-1.26a6,6,0,0,0,5.39-.18l25.93-14.61c.79-.44,1.24-1,1.24-1.56a1.4,1.4,0,0,0-.8-1.14L125.73,42.52a6,6,0,0,0-5.39.18L94.41,57.32c-.79.44-1.24,1-1.24,1.56A1.36,1.36,0,0,0,94,60Z"/></g></g><g id="_Group_43" data-name="&lt;Group&gt;"><path id="_Path_25" data-name="&lt;Path&gt;" class="cls-1" d="M122.8,72.66,105.51,62.43c-.9-.53-.77-1.44.27-2l15.89-9a3.91,3.91,0,0,1,3.52-.11l17.29,10.23c.9.53.77,1.44-.27,2l-15.89,9A3.91,3.91,0,0,1,122.8,72.66Z"/><path id="_Compound_Path_26" data-name="&lt;Compound Path&gt;" class="cls-2" d="M124.48,70.69a3.5,3.5,0,0,1-1.75-.42L105.44,60a1.39,1.39,0,0,1-.77-1.2,1.79,1.79,0,0,1,1.05-1.44l15.89-9a4.24,4.24,0,0,1,3.87-.11l17.29,10.23a1.39,1.39,0,0,1,.77,1.2,1.78,1.78,0,0,1-1.05,1.44l-15.89,9A4.41,4.41,0,0,1,124.48,70.69Zm-1.39-1a3.58,3.58,0,0,0,3.16-.11l15.89-9c.43-.24.69-.55.69-.84a.73.73,0,0,0-.43-.58L125.12,49a3.58,3.58,0,0,0-3.16.11l-15.89,9c-.43.24-.69.55-.69.83a.73.73,0,0,0,.43.58Z"/></g><g id="_Group_44" data-name="&lt;Group&gt;"><path id="_Compound_Path_27" data-name="&lt;Compound Path&gt;" class="cls-2" d="M139.7,62.81l-14.58-8.62a3.58,3.58,0,0,0-3.16.11L108.5,61.88l-3.06-1.81a1.39,1.39,0,0,1-.77-1.2,1.79,1.79,0,0,1,1.05-1.44l15.89-9a4.23,4.23,0,0,1,3.87-.11l17.29,10.23a1.39,1.39,0,0,1,.77,1.19,1.79,1.79,0,0,1-1.05,1.44Zm-16-9.65a3.5,3.5,0,0,1,1.75.42L139.71,62l2.43-1.37c.43-.24.69-.56.69-.84a.73.73,0,0,0-.43-.58L125.12,49a3.57,3.57,0,0,0-3.16.11l-15.89,9c-.43.24-.69.55-.69.83a.73.73,0,0,0,.43.58l2.71,1.6,13.1-7.38A4.41,4.41,0,0,1,123.73,53.17Z"/></g><g id="_Group_45" data-name="&lt;Group&gt;"><g id="_Group_46" data-name="&lt;Group&gt;"><g id="_Group_47" data-name="&lt;Group&gt;"><g id="_Group_48" data-name="&lt;Group&gt;"><path id="_Path_26" data-name="&lt;Path&gt;" class="cls-1" d="M117.11,116.51a3.74,3.74,0,0,0-1.55-3l-21-12.4a1,1,0,0,0-1-.1h0l-.12.07-5.22,3.11L111.07,121l5.29-3.15a.83.83,0,0,0,.32-.19h0A1.53,1.53,0,0,0,117.11,116.51Z"/><path id="_Path_27" data-name="&lt;Path&gt;" class="cls-3" d="M116.68,117.65c0-1.16-.13-2-1-2.57l-21-12.4a1,1,0,0,0-1-.1h0l-.12.07-5.22,3.11,21.78,14.48,5.45-1.82a4,4,0,0,0,.85-.59h0C116.61,117.61,116.67,118.18,116.68,117.65Z"/><path id="_Compound_Path_28" data-name="&lt;Compound Path&gt;" class="cls-2" d="M111,121.41l-23.12-17a.33.33,0,0,1,0-.55l5.25-3.12.12-.07a1.4,1.4,0,0,1,1.41.1l21,12.4a4.08,4.08,0,0,1,1.72,3.36,1.86,1.86,0,0,1-.55,1.39,1.19,1.19,0,0,1-.41.25ZM88.8,104.18l22.29,16.39,5.17-3.07a.47.47,0,0,0,.18-.11,1.2,1.2,0,0,0,.31-.88h0a3.41,3.41,0,0,0-1.38-2.73l-21-12.4a.74.74,0,0,0-.7-.09l-.11.06Z"/></g><g id="_Group_49" data-name="&lt;Group&gt;"><path id="_Path_28" data-name="&lt;Path&gt;" class="cls-1" d="M110.12,120.84l-21-12.4a3.74,3.74,0,0,1-1.55-3h0c0-1.16.76-1.68,1.64-1.16l21,12.4a3.74,3.74,0,0,1,1.55,3h0C111.74,120.85,111,121.37,110.12,120.84Z"/><path id="_Compound_Path_29" data-name="&lt;Compound Path&gt;" class="cls-2" d="M110.78,121.4a1.66,1.66,0,0,1-.84-.25l-21-12.4a4.07,4.07,0,0,1-1.72-3.36,1.74,1.74,0,0,1,.76-1.56,1.39,1.39,0,0,1,1.42.1l21,12.4a4.08,4.08,0,0,1,1.72,3.36,1.74,1.74,0,0,1-.76,1.56A1.18,1.18,0,0,1,110.78,121.4Zm-.48-.86a.76.76,0,0,0,.72.09,1.1,1.1,0,0,0,.39-1,3.41,3.41,0,0,0-1.38-2.73l-21-12.4a.76.76,0,0,0-.72-.09,1.1,1.1,0,0,0-.39,1,3.41,3.41,0,0,0,1.38,2.73Z"/></g></g><polygon id="_Path_29" data-name="&lt;Path&gt;" class="cls-2" points="111.19 117.68 116.6 114.52 117.11 116.51 116.68 117.65 111.41 120.99 111.73 119.2 111.19 117.68"/></g><g id="_Group_50" data-name="&lt;Group&gt;"><g id="_Group_51" data-name="&lt;Group&gt;"><g id="_Group_52" data-name="&lt;Group&gt;"><path id="_Path_30" data-name="&lt;Path&gt;" class="cls-1" d="M117.11,107.22a3.74,3.74,0,0,0-1.55-3l-21-12.4a1,1,0,0,0-1-.1h0l-.12.07-5.22,3.11,22.91,16.85,5.29-3.15a.83.83,0,0,0,.32-.19h0A1.53,1.53,0,0,0,117.11,107.22Z"/><path id="_Path_31" data-name="&lt;Path&gt;" class="cls-3" d="M116.68,108.36c0-1.16-.13-2-1-2.57l-21-12.4a1,1,0,0,0-1-.1h0l-.12.07-5.22,3.11L110.05,111l5.45-1.82a4,4,0,0,0,.85-.59h0C116.61,108.32,116.67,108.88,116.68,108.36Z"/><path id="_Compound_Path_30" data-name="&lt;Compound Path&gt;" class="cls-2" d="M111,112.12l-23.12-17a.33.33,0,0,1,0-.55l5.25-3.12.12-.07a1.4,1.4,0,0,1,1.41.1l21,12.4a4.08,4.08,0,0,1,1.72,3.36,1.86,1.86,0,0,1-.55,1.39,1.19,1.19,0,0,1-.41.25ZM88.8,94.88l22.29,16.39,5.17-3.07a.47.47,0,0,0,.18-.11,1.2,1.2,0,0,0,.31-.88h0a3.41,3.41,0,0,0-1.38-2.73l-21-12.4a.74.74,0,0,0-.7-.09l-.11.06Z"/></g><g id="_Group_53" data-name="&lt;Group&gt;"><path id="_Path_32" data-name="&lt;Path&gt;" class="cls-1" d="M110.12,111.55l-21-12.4a3.74,3.74,0,0,1-1.55-3h0c0-1.16.76-1.68,1.64-1.16l21,12.4a3.74,3.74,0,0,1,1.55,3h0C111.74,111.56,111,112.07,110.12,111.55Z"/><path id="_Compound_Path_31" data-name="&lt;Compound Path&gt;" class="cls-2" d="M110.78,112.11a1.66,1.66,0,0,1-.84-.25l-21-12.4a4.07,4.07,0,0,1-1.72-3.36A1.74,1.74,0,0,1,88,94.54a1.39,1.39,0,0,1,1.42.1l21,12.4a4.08,4.08,0,0,1,1.72,3.36,1.74,1.74,0,0,1-.76,1.56A1.18,1.18,0,0,1,110.78,112.11Zm-.48-.86a.76.76,0,0,0,.72.09,1.1,1.1,0,0,0,.39-1,3.41,3.41,0,0,0-1.38-2.73L89,95.25a.76.76,0,0,0-.72-.09,1.1,1.1,0,0,0-.39,1,3.41,3.41,0,0,0,1.38,2.73Z"/></g></g><polygon id="_Path_33" data-name="&lt;Path&gt;" class="cls-2" points="111.19 108.39 116.6 105.22 117.11 107.22 116.68 108.36 111.41 111.7 111.73 109.91 111.19 108.39"/></g><g id="_Group_54" data-name="&lt;Group&gt;"><g id="_Group_55" data-name="&lt;Group&gt;"><g id="_Group_56" data-name="&lt;Group&gt;"><path id="_Path_34" data-name="&lt;Path&gt;" class="cls-1" d="M117.11,98.06a3.74,3.74,0,0,0-1.55-3l-21-12.4a1,1,0,0,0-1-.1h0l-.12.07L88.16,85.7l22.91,16.85,5.29-3.15a.83.83,0,0,0,.32-.19h0A1.53,1.53,0,0,0,117.11,98.06Z"/><path id="_Path_35" data-name="&lt;Path&gt;" class="cls-3" d="M116.68,99.2c0-1.16-.13-2-1-2.57l-21-12.4a1,1,0,0,0-1-.1h0l-.12.07-5.22,3.11,21.78,14.48L115.5,100a4,4,0,0,0,.85-.59h0C116.61,99.16,116.67,99.73,116.68,99.2Z"/><path id="_Compound_Path_32" data-name="&lt;Compound Path&gt;" class="cls-2" d="M111,103,87.93,86a.33.33,0,0,1,0-.55l5.25-3.12.12-.07a1.4,1.4,0,0,1,1.41.1l21,12.4a4.08,4.08,0,0,1,1.72,3.36,1.86,1.86,0,0,1-.55,1.39,1.19,1.19,0,0,1-.41.25ZM88.8,85.73l22.29,16.39L116.26,99a.48.48,0,0,0,.18-.11,1.2,1.2,0,0,0,.31-.88h0a3.41,3.41,0,0,0-1.38-2.73l-21-12.4a.74.74,0,0,0-.7-.09l-.11.06Z"/></g><g id="_Group_57" data-name="&lt;Group&gt;"><path id="_Path_36" data-name="&lt;Path&gt;" class="cls-1" d="M110.12,102.4,89.12,90a3.74,3.74,0,0,1-1.55-3h0c0-1.16.76-1.68,1.64-1.16l21,12.4a3.74,3.74,0,0,1,1.55,3h0C111.74,102.4,111,102.92,110.12,102.4Z"/><path id="_Compound_Path_33" data-name="&lt;Compound Path&gt;" class="cls-2" d="M110.78,103a1.66,1.66,0,0,1-.84-.25l-21-12.4a4.07,4.07,0,0,1-1.72-3.36A1.74,1.74,0,0,1,88,85.39a1.39,1.39,0,0,1,1.42.1l21,12.4a4.08,4.08,0,0,1,1.72,3.36,1.74,1.74,0,0,1-.76,1.56A1.18,1.18,0,0,1,110.78,103Zm-.48-.86a.76.76,0,0,0,.72.09,1.1,1.1,0,0,0,.39-1A3.41,3.41,0,0,0,110,98.5L89,86.1a.76.76,0,0,0-.72-.09,1.1,1.1,0,0,0-.39,1,3.41,3.41,0,0,0,1.38,2.73Z"/></g></g><polygon id="_Path_37" data-name="&lt;Path&gt;" class="cls-2" points="111.19 99.24 116.6 96.07 117.11 98.06 116.68 99.2 111.41 102.54 111.73 100.75 111.19 99.24"/></g><g id="_Group_58" data-name="&lt;Group&gt;"><g id="_Group_59" data-name="&lt;Group&gt;"><g id="_Group_60" data-name="&lt;Group&gt;"><path id="_Path_38" data-name="&lt;Path&gt;" class="cls-1" d="M117.11,88.78a3.74,3.74,0,0,0-1.55-3l-21-12.4a1,1,0,0,0-1-.1h0l-.12.07-5.22,3.11,22.91,16.85,5.29-3.15a.83.83,0,0,0,.32-.19h0A1.53,1.53,0,0,0,117.11,88.78Z"/><path id="_Path_39" data-name="&lt;Path&gt;" class="cls-3" d="M116.68,89.92c0-1.16-.13-2-1-2.57L94.67,75a1,1,0,0,0-1-.1h0l-.12.07L88.27,78l21.78,14.48,5.45-1.82a4,4,0,0,0,.85-.59h0C116.61,89.89,116.67,90.45,116.68,89.92Z"/><path id="_Compound_Path_34" data-name="&lt;Compound Path&gt;" class="cls-2" d="M111,93.69l-23.12-17a.33.33,0,0,1,0-.55L93.2,73l.12-.07a1.4,1.4,0,0,1,1.41.1l21,12.4a4.08,4.08,0,0,1,1.72,3.36,1.86,1.86,0,0,1-.55,1.39,1.19,1.19,0,0,1-.41.25ZM88.8,76.45l22.29,16.39,5.17-3.07a.47.47,0,0,0,.18-.11,1.2,1.2,0,0,0,.31-.88h0A3.41,3.41,0,0,0,115.38,86l-21-12.4a.74.74,0,0,0-.7-.09l-.11.06Z"/></g><g id="_Group_61" data-name="&lt;Group&gt;"><path id="_Path_40" data-name="&lt;Path&gt;" class="cls-1" d="M110.12,93.12l-21-12.4a3.74,3.74,0,0,1-1.55-3h0c0-1.16.76-1.68,1.64-1.16l21,12.4a3.74,3.74,0,0,1,1.55,3h0C111.74,93.12,111,93.64,110.12,93.12Z"/><path id="_Compound_Path_35" data-name="&lt;Compound Path&gt;" class="cls-2" d="M110.78,93.68a1.66,1.66,0,0,1-.84-.25L88.94,81a4.07,4.07,0,0,1-1.72-3.36A1.74,1.74,0,0,1,88,76.11a1.39,1.39,0,0,1,1.42.1l21,12.4A4.08,4.08,0,0,1,112.12,92a1.74,1.74,0,0,1-.76,1.56A1.18,1.18,0,0,1,110.78,93.68Zm-.48-.86a.76.76,0,0,0,.72.09,1.1,1.1,0,0,0,.39-1A3.41,3.41,0,0,0,110,89.22L89,76.82a.76.76,0,0,0-.72-.09,1.1,1.1,0,0,0-.39,1,3.41,3.41,0,0,0,1.38,2.73Z"/></g></g><polygon id="_Path_41" data-name="&lt;Path&gt;" class="cls-2" points="111.19 89.96 116.6 86.79 117.11 88.78 116.68 89.92 111.41 93.27 111.73 91.48 111.19 89.96"/></g></g><polygon id="_Path_42" data-name="&lt;Path&gt;" class="cls-2" points="124.73 77.26 124.73 139.81 126.31 140.16 153.68 124.77 155.11 123.36 155.11 61.42 153.84 62.12 126.76 77.26 124.73 77.26"/><g id="_Group_62" data-name="&lt;Group&gt;"><g id="_Group_63" data-name="&lt;Group&gt;"><g id="_Group_64" data-name="&lt;Group&gt;"><path id="_Compound_Path_36" data-name="&lt;Compound Path&gt;" class="cls-1" d="M130.61,89.5V85.62l.18-.1L151,73.85v3.87l-.18.1Zm.7-3.47v2.24l19-11V75.08Z"/></g><g id="_Group_65" data-name="&lt;Group&gt;"><path id="_Compound_Path_37" data-name="&lt;Compound Path&gt;" class="cls-1" d="M144.25,87.5V83.62L151,79.73v3.87ZM145,84v2.24l5.33-3.08V81Z"/></g><g id="_Group_66" data-name="&lt;Group&gt;"><path id="_Compound_Path_38" data-name="&lt;Compound Path&gt;" class="cls-1" d="M130.61,95.37V91.5l12.05-7v3.87Zm.7-3.47v2.24L142,88V85.76Z"/></g><g id="_Group_67" data-name="&lt;Group&gt;"><path id="_Compound_Path_39" data-name="&lt;Compound Path&gt;" class="cls-1" d="M136.28,97.77V93.9L151,85.39v3.87Zm.7-3.47v2.24l13.3-7.7V86.61Z"/></g><g id="_Group_68" data-name="&lt;Group&gt;"><path id="_Compound_Path_40" data-name="&lt;Compound Path&gt;" class="cls-1" d="M130.61,101V97.15l4.09-2.33v3.87Zm.7-3.46v2.25L134,98.28V96Z"/></g><g id="_Group_69" data-name="&lt;Group&gt;"><path id="_Compound_Path_41" data-name="&lt;Compound Path&gt;" class="cls-1" d="M130.61,106.94v-3.87l.18-.1L151,91.3v3.87l-.18.1Zm.7-3.47v2.24l19-11V92.52Z"/></g><g id="_Group_70" data-name="&lt;Group&gt;"><path id="_Compound_Path_42" data-name="&lt;Compound Path&gt;" class="cls-1" d="M144.25,105v-3.87L151,97.2v3.87Zm.7-3.47v2.24l5.33-3.08V98.42Z"/></g><g id="_Group_71" data-name="&lt;Group&gt;"><path id="_Compound_Path_43" data-name="&lt;Compound Path&gt;" class="cls-1" d="M130.61,112.84V109l12.05-7v3.87Zm.7-3.47v2.24L142,105.47v-2.24Z"/></g><g id="_Group_72" data-name="&lt;Group&gt;"><path id="_Compound_Path_44" data-name="&lt;Compound Path&gt;" class="cls-1" d="M136.28,115.24v-3.87L151,102.85v3.87Zm.7-3.47V114l13.3-7.7v-2.24Z"/></g><g id="_Group_73" data-name="&lt;Group&gt;"><path id="_Compound_Path_45" data-name="&lt;Compound Path&gt;" class="cls-1" d="M130.61,118.49v-3.87l4.09-2.33v3.87Zm.7-3.46v2.25l2.68-1.53V113.5Z"/></g><g id="_Group_74" data-name="&lt;Group&gt;"><path id="_Compound_Path_46" data-name="&lt;Compound Path&gt;" class="cls-1" d="M130.61,124.09v-3.87l.18-.1L151,108.45v3.87l-.18.1Zm.7-3.47v2.24l19-11v-2.24Z"/></g></g></g></g></g></g></g></g></svg>