<svg xmlns="http://www.w3.org/2000/svg" viewBox="0 0 293.41 247.52"><defs><style>.cls-1{fill:#aaaaba;}.cls-2{fill:#e8e8ea;}.cls-3{fill:#e4e4ea;}.cls-4{fill:#424243;}.cls-5{fill:#fff;}.cls-6{fill:#9b9aac;}.cls-7{fill:#d3d0cf;}.cls-8{fill:#f2f2f2;}.cls-9{fill:#ffc2b0;}.cls-10{fill:#ea9c92;}.cls-11{fill:#431d93;}.cls-12{fill:#28c969;}.cls-13{fill:#2bd978;}</style></defs><title>signup</title><g id="Layer_2" data-name="Layer 2"><g id="_ÎÓÈ_1" data-name="—ÎÓÈ_1"><rect class="cls-1" x="251.39" y="218.77" width="1.91" height="5.54" transform="translate(404.29 -77.91) rotate(75.62)"/><rect class="cls-1" x="248.65" y="221.44" width="1.91" height="5.54" transform="translate(404.84 -73.23) rotate(75.63)"/><rect class="cls-1" x="245.91" y="224.11" width="1.91" height="5.54" transform="translate(405.36 -68.57) rotate(75.63)"/><rect class="cls-1" x="243.17" y="226.78" width="1.91" height="5.54" transform="translate(405.88 -63.92) rotate(75.62)"/><path class="cls-2" d="M136.44,55.06,86,84.63C73.27,80.71,57,81.92,46.25,88.23c-13.07,7.67-13,20,.19,27.44a40.16,40.16,0,0,0,9.91,3.89,52.85,52.85,0,0,0,7.88,1.36c10.48,1,21.67-.85,29.73-5.58,9.77-5.73,12.18-14,7.28-21l7-4.08-.2-4.41,7.32-.05-.18-4.13,7.32-.05-.18-4.13,7.32-.05-.18-4.13,7.32-.05-.18-4.13,7.81-.05,2.38-1.4,2.63-10.86ZM65.53,111.64a13.68,13.68,0,0,1-12.37.09c-3.43-1.95-3.45-5.15-.05-7.14a13.67,13.67,0,0,1,12.37-.09C68.91,106.44,68.93,109.64,65.53,111.64Z"/><path class="cls-2" d="M164,242.1,96,203c-4.58-2.64-4-7.26,1.28-10.31l66-38.09c5.28-3.05,13.28-3.38,17.85-.74l68,39.08c4.58,2.64,4,7.26-1.28,10.31l-66,38.09C176.58,244.41,168.59,244.74,164,242.1Z"/><path class="cls-1" d="M243.7,153.5l-11.75-6.78,43.32-25c2-1.18,2-3.1,0-4.28L231,91.87a8.21,8.21,0,0,0-7.42,0l-43.32,25-11.75-6.78,43.32-25c8.52-4.92,22.4-4.92,30.92,0L287,110.63c8.53,4.92,8.53,12.93,0,17.85Z"/><path class="cls-3" d="M262.66,156.49c0-6.28-3.82-13.58-8.53-16.3L175.63,94.87c-2.11-1.22-4-1.3-5.53-.47h0L76.38,148.86,167,217.15l92.33-53.59a4.28,4.28,0,0,0,.82-.47h0C261.7,161.92,262.66,159.63,262.66,156.49Z"/><path class="cls-4" d="M167,217.15l92.33-53.59a4.27,4.27,0,0,0,.82-.47h0c1.54-1.17,2.5-3.46,2.5-6.6a20.93,20.93,0,0,0-2.3-9.08L155.1,208.18Z"/><path class="cls-1" d="M161.11,216.91,82.61,171.59c-4.71-2.72-8.53-10-8.53-16.3h0c0-6.28,3.82-9.17,8.53-6.45l78.49,45.32c4.71,2.72,8.53,10,8.53,16.3h0C169.64,216.74,165.82,219.63,161.11,216.91Z"/><path class="cls-5" d="M149.35,201.62l-9.44-5.44a4.07,4.07,0,0,1-1.7-3.25h0c0-1.25.76-1.83,1.7-1.29l9.44,5.44a4.07,4.07,0,0,1,1.7,3.25h0C151.05,201.59,150.29,202.17,149.35,201.62Z"/><polygon class="cls-6" points="78.49 42.04 94.62 51.2 111.07 41.54 111.03 37.34 110.89 37.43 110.87 37.13 118.19 37.08 118.15 32.94 125.33 32.89 125.28 28.76 132.46 28.71 132.42 24.57 139.59 24.52 139.55 20.39 147.22 20.33 149.61 18.93 152.24 8.08 152.19 3.88 150.93 7.9 139.31 6.35 78.49 42.04"/><polygon class="cls-3" points="94.57 47 111.03 37.34 110.83 32.93 118.15 32.88 117.96 28.74 125.28 28.69 125.1 24.56 132.42 24.51 132.23 20.37 139.55 20.32 139.37 16.19 147.18 16.13 149.56 14.73 152.19 3.88 139.27 2.15 78.44 37.84 94.57 47"/><path class="cls-6" d="M105.53,40.57a22.67,22.67,0,0,0-7.47-6.44,38.56,38.56,0,0,0-7.73-3.26l-11.89,7L94.57,47Z"/><polygon class="cls-1" points="151.75 5.7 152.19 3.88 150.03 3.59 98.64 33.74 101.34 35.28 151.75 5.7"/><polygon class="cls-7" points="39.51 55.29 39.33 49.32 41.24 53.35 39.51 55.29"/><path class="cls-6" d="M49.44,68.72C62.62,76.2,83.9,76.05,97,68.39c6.55-3.84,9.8-8.85,9.74-13.83h0l-.18-6.33-1.07,1.2c-1.52-3.12-4.4-6.05-8.68-8.48-13.18-7.48-34.45-7.34-47.52.33S36.27,61.23,49.44,68.72Zm19-11.17c3.43,1.95,3.45,5.15.05,7.14a13.67,13.67,0,0,1-12.37.09c-3.43-1.95-3.45-5.15,0-7.14A13.67,13.67,0,0,1,68.48,57.55Z"/><path class="cls-8" d="M49.27,62.75c13.18,7.48,34.45,7.34,47.52-.33s13-20-.19-27.44-34.45-7.34-47.52.33S36.09,55.27,49.27,62.75Zm19-11.17c3.43,1.95,3.45,5.15.05,7.14A13.67,13.67,0,0,1,56,58.81c-3.43-1.95-3.45-5.15-.05-7.14A13.67,13.67,0,0,1,68.3,51.58Z"/><path class="cls-1" d="M64.54,66a13.49,13.49,0,0,1-8.39-1.24c-2.46-1.4-3.16-3.44-2.11-5.22l-6-4.73-6.21-7c-4.81,7-2.28,15.3,7.57,20.9A41.52,41.52,0,0,0,64.18,73.4Z"/><path class="cls-3" d="M49.27,62.75a40.12,40.12,0,0,0,9.91,3.89A52.87,52.87,0,0,0,67.06,68c10.48,1,21.67-.85,29.73-5.58,13.07-7.67,13-20-.19-27.44s-34.45-7.34-47.52.33S36.09,55.27,49.27,62.75Zm19-11.17c3.43,1.95,3.45,5.15.05,7.14A13.67,13.67,0,0,1,56,58.81c-3.43-1.95-3.45-5.15-.05-7.14A13.67,13.67,0,0,1,68.3,51.58Z"/><path class="cls-6" d="M43,49.16c.64-3.82,3.48-7.56,8.52-10.52,11.63-6.82,30.56-7,42.28-.3,5.83,3.31,8.77,7.67,8.84,12.06.84-5-2.06-10.12-8.7-13.89-11.72-6.66-30.65-6.53-42.28.3C45.86,40.24,43,44.71,43,49.16Z"/><path class="cls-6" d="M35.11,103.46a13.19,13.19,0,0,1-6.59-1.7c-4.72-2.68-7.35-8.06-7.4-15.16C21,73.65,30,57.79,41.21,51.23,47.33,47.64,53.3,47.14,58,49.82a13.21,13.21,0,0,1,4.89,4.89A20.36,20.36,0,0,1,65.42,65c.09,12.95-8.92,28.81-20.09,35.37A20.42,20.42,0,0,1,35.11,103.46Zm16.3-50.58a15.74,15.74,0,0,0-7.8,2.45c-9.86,5.79-17.82,19.8-17.74,31.24,0,5.33,1.81,9.26,5,11.06S38.33,99,42.93,96.26C52.79,90.47,60.75,76.46,60.67,65a15.94,15.94,0,0,0-1.86-7.9h0a8.25,8.25,0,0,0-7.39-4.24Z"/><path class="cls-3" d="M57.62,63.39,67,65.69l1.35-7A13.67,13.67,0,0,1,56,58.81Z"/><path class="cls-3" d="M49.27,62.75a40.12,40.12,0,0,0,9.91,3.89A52.87,52.87,0,0,0,67.06,68c10.48,1,21.67-.85,29.73-5.58l-38.2-.86Z"/><path class="cls-6" d="M63.38,67.57a55.43,55.43,0,0,1-8.3-2.14V71.3a45.44,45.44,0,0,0,8.2,2.1C72,74.55,63.38,67.57,63.38,67.57Z"/><path class="cls-1" d="M57.29,66.14a38.86,38.86,0,0,1-5.4-2c-5.11-2.39,1.35,6.47,1.35,6.47s1.74.69,4.05,1.4Z"/><polygon class="cls-1" points="153.13 169.12 136.41 179.9 128.28 178.58 148.15 168.97 153.13 169.12"/><path class="cls-4" d="M132.92,223.55s-4.81-2.43-7.77,1.19-7.18,12.15-7.31,17.92,4.56,5.38,7.35,4,10.94-13.19,11.44-15.51-.58-5.45-1.37-6.06S132.92,223.55,132.92,223.55Z"/><path class="cls-1" d="M134,222.39l.22,5a2.83,2.83,0,0,1-1.41,2.59,5.55,5.55,0,0,1-3.71.58c-3.63-.58-4-1.62-4.21-6.61S134,222.39,134,222.39Z"/><path class="cls-4" d="M115.3,214s-4.81-2.43-7.77,1.19-7.18,12.15-7.31,17.92,4.56,5.38,7.35,4,10.94-13.19,11.44-15.51-.58-5.45-1.37-6.06S115.3,214,115.3,214Z"/><path class="cls-1" d="M116.35,212.8l.22,5a2.83,2.83,0,0,1-1.41,2.59,5.55,5.55,0,0,1-3.71.58c-3.63-.58-4-1.62-4.21-6.61S116.35,212.8,116.35,212.8Z"/><path class="cls-3" d="M159.31,121.22c-1.42-23.19-25.11,3.41-25.11,3.41L118,140.52l-14.6,16a14.39,14.39,0,0,0-3.63,11.56l5.91,45a4.42,4.42,0,0,0,4.43,3.84,15,15,0,0,0,2.19-.19,5.49,5.49,0,0,0,4.88-5.83l-1.08-42.05,30.66-18.48S160.73,144.41,159.31,121.22Z"/><path class="cls-1" d="M127.8,160.9l-4.36-1.6c-.1,0-7.42,7.07-7.35,9.55l3.28,1.05,8.24-8Z"/><path class="cls-1" d="M153.13,169.12s18.22-10.4,20.4-14.76c.85-1.71,2.18-3.49-3.13-6.07L146.1,165.6l1.05,6Z"/><path class="cls-3" d="M176.93,130.17c-1.52-23.18-25.11,3.41-25.11,3.41l-16.21,15.89-14.6,16a14.39,14.39,0,0,0-3.63,11.56l5.91,45a4.42,4.42,0,0,0,4.43,3.84,15,15,0,0,0,2.19-.19,5.49,5.49,0,0,0,4.88-5.83l-1.08-42.05,30.66-18.48S178.32,151.36,176.93,130.17Z"/><path class="cls-1" d="M162.92,55.63c18,7.44,17.6,18.06,17.6,18.06s-3.52,38.91-2.32,64.9c.5,10.86-57.72,11.69-49-17.29,10.24-34.18,6.4-61.84,11.19-66S158.28,53.7,162.92,55.63Z"/><ellipse class="cls-9" cx="159.73" cy="62.73" rx="6.82" ry="9.26" transform="translate(59.14 201.76) rotate(-75.56)"/><path class="cls-5" d="M161.06,70.58a13,13,0,0,1-3.25-.42,12,12,0,0,1-6.3-3.86,6.86,6.86,0,0,1-1.59-6.1c1.05-4.1,6.31-6.3,11.71-4.91a11.94,11.94,0,0,1,6.29,3.86,6.86,6.86,0,0,1,1.59,6.1C168.69,68.52,165.18,70.58,161.06,70.58Zm-2.7-14c-3.34,0-6.12,1.55-6.77,4a5.2,5.2,0,0,0,1.26,4.59,10.23,10.23,0,0,0,5.39,3.28c4.49,1.15,8.8-.49,9.62-3.67a5.2,5.2,0,0,0-1.26-4.59A10.22,10.22,0,0,0,161.22,57,11.51,11.51,0,0,0,158.36,56.59Z"/><path class="cls-9" d="M155.72,54.82a44.26,44.26,0,0,1-.16,6.41c-.1,1.79,6.17,3.46,7.78,1.84s1-3.3,1.36-9.39S155.72,54.82,155.72,54.82Z"/><path class="cls-10" d="M164.71,53.68s-1.54,5.64-9.15,7.81l.12-5.13Z"/><circle class="cls-9" cx="156.15" cy="42.8" r="13.82" transform="matrix(0.97, -0.25, 0.25, 0.97, -5.74, 40.45)"/><path class="cls-10" d="M159.32,43.3s-7.61,3.26-12.88,3.3-4.11-4.38-4.11-4.38L158,40Z"/><path class="cls-11" d="M144.87,44.16s6.63-2.81,12.44-1.64a6.1,6.1,0,0,1,3.51,2.09,2.07,2.07,0,0,0,1.06.77c1,.23,2.72-4,4.72-4.14s3.34,1.32,1.7,4-1.09,5.58-.33,6,8.78-5.72,1.7-19.74-25-6.47-27.84-3.63c0,0-2.94,2.57-5.34.28C136.5,28.11,133.82,48.21,144.87,44.16Z"/><path class="cls-9" d="M170.44,102.12v10.51a4.28,4.28,0,0,1-1.4,3.17l-21.6,19.69,2.45,3.75,28.53-20.69a5.8,5.8,0,0,0,2.36-4.09l1.93-18.34Z"/><path class="cls-1" d="M179,68.43s6.55,9.86,9,35.8c0,0-11.19,3.62-17.55,1.57S179,68.43,179,68.43Z"/><path class="cls-6" d="M169.25,80.89s-2.57,13.73-2.71,20.18a4.12,4.12,0,0,0,2.71,4h0Z"/><path class="cls-4" d="M163.64,149.16l-4.77-.63-30.82-17.79a4.28,4.28,0,0,0-3.85.16l-21.84,12.6-2.89-.38V146h0a1.12,1.12,0,0,0,.66,1l34.93,20.16a4.28,4.28,0,0,0,3.85-.16l23.78-13.73a1.56,1.56,0,0,0,.94-1.3h0Z"/><path class="cls-6" d="M140.49,137.92l-2.19-1.26H114.23l-11.87,6.85-2.89-.38V146h0a1.12,1.12,0,0,0,.66,1l34.93,20.16a3.61,3.61,0,0,0,2,.37Z"/><path class="cls-1" d="M100.75,143.29l-1.28-.17V146h0a1.12,1.12,0,0,0,.66,1l.62.36Z"/><path class="cls-4" d="M135.42,167.34a4.47,4.47,0,0,0,3.28-.2v-4.89h-3.28Z"/><path class="cls-5" d="M135.06,164.3l-34.93-20.16c-1-.57-.86-1.57.28-2.23l23.78-13.73a4.28,4.28,0,0,1,3.85-.16L163,148.19c1,.57.86,1.57-.28,2.23l-23.78,13.73A4.28,4.28,0,0,1,135.06,164.3Z"/><path class="cls-3" d="M134.47,161.24l-29-16.77c-.82-.47-.72-1.3.23-1.85l12.74-7.17a3.56,3.56,0,0,1,3.21-.13l29,16.77c.82.47.72,1.3-.23,1.85l-12.74,7.17A3.56,3.56,0,0,1,134.47,161.24Z"/><path class="cls-9" d="M125.55,127.52l-.36,2.41a17.82,17.82,0,0,0,.16,6.18l.43,2.12a3,3,0,0,0,2.39,2.35h0a1.65,1.65,0,0,0,1.93-1.44l.58-5.15s1.32,1.73,2,1.73-.71-5.16-2.15-8.08S125.55,127.52,125.55,127.52Z"/><path class="cls-9" d="M137.39,89.22l-3.75,7.42a14.55,14.55,0,0,0-1.53,5.63l-1.63,25.37-4.93-.12L123.31,99a10.43,10.43,0,0,1,.13-2.63L126,81.95Z"/><path class="cls-4" d="M133.88,166.24,131,162.41l-30.8-17.83a4.28,4.28,0,0,1-1.78-3.42l0-25.21-1.77-2.31,1.66-1h0a1.12,1.12,0,0,1,1.21.07L134.4,133a4.28,4.28,0,0,1,1.78,3.42l0,27.46a1.56,1.56,0,0,1-.65,1.46h0Z"/><path class="cls-6" d="M112.58,151.78l-2.19-1.27-12-20.86v-13.7l-1.77-2.31,1.66-1h0a1.12,1.12,0,0,1,1.21.07L134.4,133a3.61,3.61,0,0,1,1.32,1.54Z"/><path class="cls-1" d="M97.41,114.66l-.79-1,1.66-1h0a1.12,1.12,0,0,1,1.21.07l.62.36Z"/><path class="cls-4" d="M134.72,133.18a4.47,4.47,0,0,1,1.46,2.94l-3.41,2-1.63-2.84Z"/><path class="cls-1" d="M132.74,133.92l-34.9-20.21c-1-.57-1.79,0-1.79,1.35l0,27.46a4.28,4.28,0,0,0,1.78,3.42l34.9,20.21c1,.57,1.79,0,1.79-1.35l0-27.46A4.28,4.28,0,0,0,132.74,133.92Z"/><path class="cls-9" d="M149.9,139.24l-.56,1.16a7.76,7.76,0,0,1-2.92,3.23L143,145.77a3.45,3.45,0,0,1-3.54.08l-.12-.07a2.09,2.09,0,0,1-.29-3.2l3.62-3.72s-2,1.56-2.61.93c-.42-.46,2-2.71,3.81-2.78a7.25,7.25,0,0,0,3.61-1.52Z"/><path class="cls-1" d="M140.71,55.23s-13.28,14.45-18.64,27.71a27.11,27.11,0,0,0,15.66,11.39C148.85,97.54,140.71,55.23,140.71,55.23Z"/><path class="cls-6" d="M135.23,93.47l2.15-20.79-5.07,19.48A29.09,29.09,0,0,0,135.23,93.47Z"/><path class="cls-5" d="M150.66,52.31l-3.57-1a8.61,8.61,0,0,0,4.19,3.36c2.49.68,2.87-1.42,2.87-1.42Z"/><path class="cls-3" d="M82.93,20.37a10,10,0,1,1,10-10A10,10,0,0,1,82.93,20.37Zm0-17.81a7.81,7.81,0,1,0,7.81,7.81A7.82,7.82,0,0,0,82.93,2.56Z"/><path class="cls-1" d="M285,92.4a7.09,7.09,0,1,1,7.09-7.09A7.1,7.1,0,0,1,285,92.4Zm0-12a4.91,4.91,0,1,0,4.91,4.91A4.91,4.91,0,0,0,285,80.4Z"/><path class="cls-1" d="M52.6,220.46l-4.81-9.79,9.79-4.81,4.81,9.79Zm-1.89-8.79,2.89,5.87,5.87-2.89-2.89-5.87Z"/><path class="cls-1" d="M194.62,68.79,189.81,59l9.79-4.81L204.41,64ZM192.73,60l2.89,5.87L201.49,63l-2.89-5.87Z"/><rect class="cls-1" x="35.81" y="161.63" width="5.01" height="5.01" transform="translate(-68.49 33.74) rotate(-26.18)"/><path class="cls-12" d="M215.77,15.69,189,.25a1.37,1.37,0,0,0-1.38-.11v0l-2.59,1.5,1.82.67V21.76A5.15,5.15,0,0,0,189,25.87l25.56,14.76v2.28l2.62-1.51h0a1.91,1.91,0,0,0,.73-1.71V19.8A5.15,5.15,0,0,0,215.77,15.69Z"/><path class="cls-13" d="M213.13,42.83,186.39,27.39a5.15,5.15,0,0,1-2.15-4.11V3.4c0-1.58,1-2.31,2.15-1.63l26.74,15.44a5.15,5.15,0,0,1,2.15,4.11V41.2C215.28,42.79,214.32,43.51,213.13,42.83Z"/><path class="cls-5" d="M195.38,20.54c0,1.15-.81,1.62-1.8,1a4,4,0,0,1-1.8-3.12c0-1.15.81-1.62,1.8-1A4,4,0,0,1,195.38,20.54Z"/><path class="cls-5" d="M200.85,23.7c0,1.15-.81,1.62-1.8,1a4,4,0,0,1-1.8-3.12c0-1.15.81-1.62,1.8-1A4,4,0,0,1,200.85,23.7Z"/><path class="cls-5" d="M206.32,26.85c0,1.15-.81,1.62-1.8,1a4,4,0,0,1-1.8-3.12c0-1.15.81-1.62,1.8-1A4,4,0,0,1,206.32,26.85Z"/><path class="cls-1" d="M30.93,184.84,4.7,169.7a1.34,1.34,0,0,0-1.36-.11v0L.8,171l1.79.65v19.1a5.05,5.05,0,0,0,2.11,4l25.07,14.48v2.24l2.57-1.48h0a1.87,1.87,0,0,0,.71-1.68v-19.5A5.05,5.05,0,0,0,30.93,184.84Z"/><path class="cls-3" d="M28.34,211.47,2.11,196.32a5.05,5.05,0,0,1-2.11-4v-19.5c0-1.55.94-2.27,2.11-1.6l26.23,15.14a5.05,5.05,0,0,1,2.11,4v19.5C30.45,211.43,29.51,212.14,28.34,211.47Z"/><path class="cls-5" d="M10.93,189.6c0,1.13-.79,1.59-1.77,1a3.91,3.91,0,0,1-1.77-3.07c0-1.13.79-1.59,1.77-1A3.91,3.91,0,0,1,10.93,189.6Z"/><path class="cls-5" d="M16.29,192.7c0,1.13-.79,1.59-1.77,1a3.91,3.91,0,0,1-1.77-3.07c0-1.13.79-1.59,1.77-1A3.91,3.91,0,0,1,16.29,192.7Z"/><path class="cls-5" d="M21.66,195.79c0,1.13-.79,1.59-1.77,1a3.91,3.91,0,0,1-1.77-3.07c0-1.13.79-1.59,1.77-1A3.91,3.91,0,0,1,21.66,195.79Z"/></g></g></svg>