<?xml version="1.0" encoding="UTF-8" standalone="no"?>
<!-- Created with Inkscape (http://www.inkscape.org/) -->
<svg
   xmlns:dc="http://purl.org/dc/elements/1.1/"
   xmlns:cc="http://web.resource.org/cc/"
   xmlns:rdf="http://www.w3.org/1999/02/22-rdf-syntax-ns#"
   xmlns:svg="http://www.w3.org/2000/svg"
   xmlns="http://www.w3.org/2000/svg"
   xmlns:sodipodi="http://sodipodi.sourceforge.net/DTD/sodipodi-0.dtd"
   xmlns:inkscape="http://www.inkscape.org/namespaces/inkscape"
   width="608.8999"
   height="609.70038"
   id="svg127772"
   sodipodi:version="0.32"
   inkscape:version="0.44"
   version="1.0"
   sodipodi:docbase="C:\Dokumente und Einstellungen\Andreas\Eigene Dateien\Eigene Bilder\sonstiges\Logos\Vektor"
   sodipodi:docname="ADAC-Logo.svg">
  <defs
     id="defs127774">
    <clipPath
       clip-rule="nonzero"
       id="clp766">
<path
   id="path7617"
   d="M 353.2,269.72 L 381.55,269.72 L 381.55,259.96 L 353.2,259.96 L 353.2,269.72 z " />

</clipPath>
    <clipPath
       clip-rule="nonzero"
       id="clp767">
<path
   id="path7626"
   d="M 353.2,269.72 L 381.55,269.72 L 381.55,259.96 L 353.2,259.96 L 353.2,269.72 z " />

</clipPath>
    <clipPath
       clip-rule="nonzero"
       id="clp768">
<path
   id="path7694"
   d="M 884.27,1291.1 L 1053.9,1291.1 L 1053.9,1266.6 L 884.27,1266.6 L 884.27,1291.1 z " />

</clipPath>
    <clipPath
       clip-rule="nonzero"
       id="clp769">
<path
   id="path7724"
   d="M 884.27,1291.1 L 1053.9,1291.1 L 1053.9,1266.6 L 884.27,1266.6 L 884.27,1291.1 z " />

</clipPath>
  </defs>
  <sodipodi:namedview
     id="base"
     pagecolor="#ffffff"
     bordercolor="#666666"
     borderopacity="1.0"
     inkscape:pageopacity="0.0"
     inkscape:pageshadow="2"
     inkscape:zoom="0.35"
     inkscape:cx="381.7"
     inkscape:cy="59.851019"
     inkscape:document-units="px"
     inkscape:current-layer="layer1"
     inkscape:window-width="904"
     inkscape:window-height="574"
     inkscape:window-x="138"
     inkscape:window-y="138" />
  <metadata
     id="metadata127777">
    <rdf:RDF>
      <cc:Work
         rdf:about="">
        <dc:format>image/svg+xml</dc:format>
        <dc:type
           rdf:resource="http://purl.org/dc/dcmitype/StillImage" />
      </cc:Work>
    </rdf:RDF>
  </metadata>
  <g
     inkscape:label="Ebene 1"
     inkscape:groupmode="layer"
     id="layer1"
     transform="translate(-1319.188,294.1203)">
    <g
       id="g128879">
      <path
         style="font-size:3.15269995px;letter-spacing:-0.063054;word-spacing:0;fill:#ffcf00;fill-rule:nonzero;stroke:none;stroke-width:0.92400002;stroke-linecap:butt;stroke-linejoin:miter;stroke-miterlimit:4;stroke-dasharray:none;font-family:fnt0, &quot;Futura&quot;, Arial"
         d="M 1319.188,-294.12032 L 1928.0879,-294.12032 L 1928.0879,315.58004 L 1319.188,315.58004 L 1319.188,-294.12032 z "
         class="ps0318 ps161 ps20"
         id="path7384" />
      <path
         style="font-size:3.15269995px;letter-spacing:-0.063054;word-spacing:0;fill:#231f1f;fill-rule:nonzero;stroke:none;stroke-width:0.92400002;stroke-linecap:butt;stroke-linejoin:miter;stroke-miterlimit:4;stroke-dasharray:none;font-family:fnt0, &quot;Futura&quot;, Arial"
         d="M 1348.4688,-77.516372 L 1385.3743,-77.516372 L 1393.1958,-115.62241 L 1434.309,-115.62241 L 1441.1295,-77.516372 L 1486.4538,-77.516372 L 1448.7509,-262.03093 L 1389.9858,-262.03093 L 1348.4688,-77.516372 z M 1414.655,-223.92456 L 1415.0555,-223.92456 L 1428.0925,-147.71214 L 1399.4123,-147.71214 L 1414.655,-223.92456"
         class="ps010 ps161 ps20"
         id="path7386" />
      <path
         style="font-size:3.15269995px;letter-spacing:-0.063054;word-spacing:0;fill:#231e1f;fill-rule:nonzero;stroke:none;stroke-width:0.033;stroke-linecap:butt;stroke-linejoin:miter;stroke-miterlimit:4;stroke-dasharray:none;font-family:fnt0, &quot;Futura&quot;, Arial"
         d="M 1498.69,-77.516372 L 1553.8446,-77.516372 C 1609.1961,-77.516372 1630.6587,-121.6394 1630.6587,-173.78487 C 1630.6587,-227.93577 1604.3844,-262.03093 1548.2287,-262.03093 L 1498.69,-262.03093 L 1498.69,-77.516372 z M 1544.4181,-229.94155 L 1548.2287,-229.94155 C 1578.5106,-229.94155 1581.5204,-195.84638 1581.5204,-175.79031 C 1581.5204,-151.72335 1581.5204,-111.6112 1549.43,-111.6112 L 1544.4181,-111.6112 L 1544.4181,-229.94155"
         class="ps07 ps162 ps20"
         id="path7390" />
      <path
         style="font-size:3.15269995px;letter-spacing:-0.063054;word-spacing:0;fill:#231e1f;fill-rule:nonzero;stroke:none;stroke-width:0.033;stroke-linecap:butt;stroke-linejoin:miter;stroke-miterlimit:4;stroke-dasharray:none;font-family:fnt0, &quot;Futura&quot;, Arial"
         d="M 1625.243,-77.516372 L 1663.3497,-77.516372 L 1671.3715,-115.62241 L 1713.6893,-115.62241 L 1720.9102,-77.516372 L 1767.6393,-77.516372 L 1728.5315,-262.03093 L 1668.1614,-262.03093 L 1625.243,-77.516372 z M 1693.4313,-223.92456 L 1694.0353,-223.92456 L 1707.2725,-147.71214 L 1677.7882,-147.71214 L 1693.4313,-223.92456"
         class="ps07 ps162 ps20"
         id="path7394" />
      <path
         style="font-size:3.15269995px;letter-spacing:-0.063054;word-spacing:0;fill:#231e1f;fill-rule:nonzero;stroke:none;stroke-width:0.033;stroke-linecap:butt;stroke-linejoin:miter;stroke-miterlimit:4;stroke-dasharray:none;font-family:fnt0, &quot;Futura&quot;, Arial"
         d="M 1857.2902,-197.85182 C 1857.2902,-209.88547 1854.0801,-231.94699 1837.6362,-231.94699 C 1818.3826,-231.94699 1815.573,-203.86881 1815.573,-169.77365 C 1815.573,-131.66728 1817.3782,-109.60576 1838.6372,-109.60576 C 1855.4849,-109.60576 1859.2956,-123.64484 1860.2967,-145.70636 L 1899.8082,-141.69515 C 1899.8082,-101.58333 1876.1433,-75.510597 1836.6318,-75.510597 C 1781.277,-75.510597 1766.2345,-121.6394 1766.2345,-169.77365 C 1766.2345,-215.90213 1781.0767,-266.04215 1836.6318,-266.04215 C 1880.3544,-266.04215 1899.8082,-235.9582 1899.8082,-197.85182 L 1857.2902,-197.85182"
         class="ps07 ps162 ps20"
         id="path7398" />
    </g>
  </g>
</svg>
