<?xml version="1.0" encoding="UTF-8" ?>
<!DOCTYPE svg PUBLIC "-//W3C//DTD SVG 1.1//EN" "http://www.w3.org/Graphics/SVG/1.1/DTD/svg11.dtd">
<svg width="1200pt" height="630pt" viewBox="0 0 1200 630" version="1.1" xmlns="http://www.w3.org/2000/svg">
<g id="#0d3f9bff">
<path fill="#0d3f9b" opacity="1.00" d=" M 160.03 229.29 C 167.84 227.03 176.00 228.35 184.00 228.07 C 188.92 228.16 193.86 227.64 198.76 228.21 C 206.17 229.94 213.78 230.62 221.19 232.36 C 260.20 240.82 296.08 262.74 321.57 293.43 C 342.10 317.92 355.98 347.94 361.28 379.46 C 365.28 403.54 364.61 428.43 358.94 452.19 C 351.52 483.83 335.24 513.30 312.59 536.57 C 288.72 561.32 257.66 579.06 224.20 586.97 C 215.53 589.16 206.59 589.98 197.88 591.91 C 188.92 592.19 179.94 591.72 170.97 592.04 C 165.81 592.47 160.91 590.56 155.84 589.99 C 125.98 585.83 97.31 573.85 73.19 555.79 C 35.55 527.86 9.33 484.88 2.35 438.47 C 1.79 434.60 1.22 430.71 0.00 426.99 L 0.00 410.32 C 6.72 410.30 13.44 410.20 20.15 410.39 C 20.02 452.48 37.31 494.20 67.03 523.97 C 91.82 549.18 125.07 565.96 160.15 570.61 C 196.22 575.47 233.87 568.00 265.02 549.07 C 295.67 530.72 319.95 502.00 332.83 468.67 C 349.14 427.09 347.10 378.74 327.24 338.72 C 312.05 307.71 286.69 281.85 255.98 266.08 C 231.43 253.39 203.57 247.20 175.96 248.34 C 149.73 249.01 123.93 256.74 101.15 269.62 C 97.76 264.02 94.59 258.29 91.32 252.63 C 112.07 239.77 135.95 232.57 160.03 229.29 Z" />
<path fill="#0d3f9b" opacity="1.00" d=" M 222.37 349.40 C 225.75 349.34 229.14 349.34 232.53 349.39 C 232.53 356.10 232.45 362.82 232.53 369.53 C 245.92 369.62 259.31 369.56 272.69 369.54 C 272.75 372.87 272.75 376.21 272.71 379.55 C 259.33 379.52 245.95 379.49 232.57 379.56 C 232.44 396.39 232.53 413.21 232.51 430.04 C 232.13 435.66 237.29 440.98 242.96 440.49 C 252.87 440.47 262.79 440.51 272.71 440.44 C 272.76 443.77 272.75 447.12 272.68 450.46 C 262.49 450.35 252.30 450.52 242.12 450.39 C 234.15 450.20 226.50 445.00 223.71 437.49 C 221.94 433.21 222.40 428.50 222.36 423.99 C 222.37 409.18 222.39 394.37 222.36 379.56 C 217.33 379.50 212.31 379.51 207.29 379.55 C 207.24 376.21 207.25 372.88 207.31 369.55 C 212.32 369.56 217.33 369.61 222.34 369.52 C 222.42 362.81 222.33 356.11 222.37 349.40 Z" />
<path fill="#0d3f9b" opacity="1.00" d=" M 192.08 349.45 C 195.45 349.32 198.83 349.32 202.21 349.43 C 202.26 352.74 202.27 356.06 202.21 359.38 C 198.84 359.48 195.48 359.48 192.11 359.39 C 191.95 356.07 191.96 352.76 192.08 349.45 Z" />
<path fill="#0d3f9b" opacity="1.00" d=" M 114.75 369.87 C 127.45 368.26 140.33 368.16 153.08 369.30 C 160.52 369.78 168.53 371.46 173.71 377.29 C 181.99 385.93 181.80 398.83 181.73 410.01 C 155.40 410.33 129.07 409.97 102.74 410.19 C 102.72 417.12 102.36 424.35 104.92 430.92 C 107.39 436.92 114.04 439.63 120.09 440.32 C 129.71 441.24 139.41 441.08 149.06 440.70 C 155.02 440.47 161.49 439.32 165.88 434.94 C 169.27 431.03 175.06 433.40 179.56 432.93 C 177.29 439.72 172.26 445.75 165.44 448.29 C 157.97 451.08 149.85 451.07 141.99 451.38 C 131.74 451.41 121.34 451.67 111.26 449.53 C 102.00 447.62 94.59 439.60 92.83 430.40 C 90.94 421.06 90.86 411.45 91.32 401.97 C 91.81 393.55 92.69 384.22 98.80 377.80 C 102.74 373.04 108.74 370.61 114.75 369.87 M 107.42 385.41 C 103.77 389.22 103.21 394.77 102.66 399.77 C 125.29 399.91 147.93 399.96 170.56 399.75 C 170.48 394.60 169.75 388.90 165.93 385.08 C 161.92 381.27 156.21 380.15 150.91 379.52 C 141.93 378.81 132.89 378.85 123.90 379.40 C 118.09 379.98 111.64 380.95 107.42 385.41 Z" />
<path fill="#0d3f9b" opacity="1.00" d=" M 518.37 369.66 C 521.18 369.66 523.98 369.66 526.79 369.63 C 527.47 385.74 526.90 401.88 527.09 418.00 C 526.93 428.82 527.42 439.66 526.81 450.48 C 523.99 450.44 521.17 450.44 518.36 450.45 C 518.36 423.52 518.33 396.59 518.37 369.66 Z" />
<path fill="#0d3f9b" opacity="1.00" d=" M 959.25 369.63 C 962.69 369.65 966.13 369.65 969.58 369.67 C 969.69 381.26 969.57 392.86 969.62 404.45 C 974.37 404.41 979.16 404.85 983.89 404.27 C 999.16 394.52 1014.13 384.26 1029.27 374.30 C 1031.82 372.77 1034.08 370.53 1037.02 369.77 C 1042.65 369.52 1048.31 369.57 1053.95 369.89 C 1034.67 383.46 1014.53 395.81 995.00 409.04 C 1014.29 422.15 1034.01 434.63 1053.45 447.53 C 1054.63 448.37 1055.76 449.27 1056.90 450.22 C 1050.76 450.24 1044.33 451.20 1038.37 449.80 C 1020.31 438.21 1002.60 426.02 984.54 414.43 C 979.80 412.87 974.59 414.06 969.68 413.77 C 969.50 425.99 969.70 438.21 969.59 450.43 C 966.14 450.44 962.69 450.44 959.26 450.46 C 959.17 423.52 959.19 396.58 959.25 369.63 Z" />
<path fill="#0d3f9b" opacity="1.00" d=" M 192.13 369.62 C 195.48 369.52 198.84 369.53 202.19 369.62 C 202.27 396.54 202.27 423.47 202.20 450.39 C 198.84 450.46 195.48 450.46 192.12 450.39 C 191.91 423.47 191.90 396.54 192.13 369.62 Z" />
<path fill="#0d3f9b" opacity="1.00" d=" M 433.44 370.71 C 447.57 369.37 461.79 369.25 475.97 369.72 C 481.86 370.11 487.83 370.29 493.59 371.72 C 498.21 372.86 502.56 376.01 504.37 380.52 C 506.10 385.61 505.69 391.08 505.71 396.38 C 502.58 396.35 499.44 396.35 496.32 396.37 C 495.76 391.52 496.93 384.91 491.83 382.13 C 485.68 379.23 478.65 379.61 472.02 379.23 C 460.60 379.12 449.15 378.91 437.77 379.93 C 433.63 380.63 428.20 380.85 426.24 385.29 C 423.27 392.79 423.67 401.07 423.64 409.00 C 423.52 415.68 424.15 422.33 424.63 428.98 C 424.94 432.14 425.54 435.76 428.19 437.86 C 431.26 440.11 435.25 440.24 438.90 440.49 C 449.94 440.97 460.99 441.69 472.03 440.85 C 479.02 440.24 486.61 441.44 493.06 438.06 C 497.69 434.71 496.13 428.17 496.60 423.24 C 499.97 422.83 503.38 422.79 506.78 422.98 C 506.63 429.20 506.89 435.72 504.45 441.58 C 502.36 446.26 497.22 448.47 492.45 449.23 C 485.02 450.31 477.50 450.57 470.01 450.60 C 456.86 450.61 443.66 450.77 430.59 449.19 C 426.13 448.57 421.45 447.10 418.46 443.54 C 415.23 439.63 414.44 434.42 413.74 429.57 C 412.43 416.85 412.57 404.01 413.76 391.29 C 414.48 385.98 415.16 380.12 419.11 376.12 C 422.82 372.23 428.35 371.28 433.44 370.71 Z" />
<path fill="#0d3f9b" opacity="1.00" d=" M 538.94 369.71 C 541.82 369.65 544.70 369.65 547.59 369.67 C 547.66 373.15 547.66 376.64 547.54 380.13 C 544.71 380.13 541.89 380.10 539.07 379.92 C 538.80 376.52 538.81 373.11 538.94 369.71 Z" />
<path fill="#0d3f9b" opacity="1.00" d=" M 1063.53 369.69 C 1067.02 369.63 1070.53 369.63 1074.04 369.73 C 1074.25 396.61 1074.17 423.49 1074.08 450.38 C 1070.57 450.47 1067.06 450.47 1063.56 450.42 C 1063.41 423.51 1063.46 396.60 1063.53 369.69 Z" />
<path fill="#0d3f9b" opacity="1.00" d=" M 1091.06 376.05 C 1095.27 371.84 1101.46 371.05 1107.12 370.56 C 1124.00 369.25 1141.02 368.92 1157.91 370.48 C 1163.48 371.07 1169.65 371.96 1173.61 376.39 C 1178.65 381.68 1177.51 389.66 1177.70 396.36 C 1174.53 396.35 1171.37 396.35 1168.21 396.32 C 1167.53 391.52 1168.90 384.93 1163.80 382.15 C 1157.03 378.99 1149.29 379.61 1142.02 379.18 C 1130.94 379.16 1119.82 378.90 1108.79 380.05 C 1104.93 380.70 1099.91 381.14 1098.18 385.30 C 1095.53 391.82 1095.61 399.06 1095.56 405.99 C 1095.45 414.21 1095.90 422.41 1096.73 430.58 C 1097.20 433.92 1098.50 437.77 1102.02 438.97 C 1107.73 441.10 1113.99 440.38 1119.97 440.88 C 1132.01 441.73 1144.05 440.82 1156.08 440.37 C 1160.15 439.99 1165.34 439.41 1167.37 435.28 C 1168.81 431.40 1168.30 427.17 1168.56 423.11 C 1171.99 422.81 1175.45 422.81 1178.91 422.94 C 1179.46 429.91 1179.13 437.21 1175.35 443.32 C 1172.37 447.64 1166.87 449.05 1161.94 449.56 C 1146.45 451.19 1130.84 450.63 1115.31 450.28 C 1107.84 449.46 1099.62 450.20 1093.05 445.93 C 1087.92 442.52 1086.57 436.07 1085.76 430.38 C 1084.29 417.45 1084.50 404.37 1085.66 391.42 C 1086.36 386.04 1087.12 380.14 1091.06 376.05 Z" />
<path fill="#0d3f9b" opacity="1.00" d=" M 771.87 380.50 C 774.77 380.41 777.67 380.40 780.58 380.41 C 780.61 385.07 780.61 389.72 780.61 394.37 C 793.70 394.40 806.79 394.23 819.89 394.44 C 819.81 396.86 819.79 399.29 819.81 401.71 C 806.75 401.74 793.70 401.61 780.64 401.74 C 780.59 412.18 780.53 422.62 780.70 433.05 C 780.60 436.24 781.79 439.65 784.67 441.34 C 789.30 443.97 794.86 443.40 799.99 443.46 C 803.95 443.47 808.76 442.84 810.88 439.00 C 813.00 434.74 812.08 429.81 812.25 425.24 C 815.08 425.25 817.92 425.25 820.76 425.24 C 820.58 431.91 821.75 439.59 817.21 445.16 C 812.59 450.81 804.63 450.76 797.99 451.16 C 791.33 450.93 784.15 451.20 778.20 447.72 C 774.15 445.38 772.39 440.55 772.21 436.08 C 771.37 424.62 772.18 413.12 771.73 401.65 C 767.23 401.72 762.74 401.72 758.25 401.71 C 758.23 399.25 758.23 396.80 758.23 394.35 C 762.74 394.35 767.25 394.34 771.76 394.39 C 771.90 389.76 771.82 385.13 771.87 380.50 Z" />
<path fill="#0d3f9b" opacity="1.00" d=" M 539.05 394.34 C 541.91 394.34 544.78 394.35 547.65 394.35 C 547.58 413.05 547.64 431.75 547.61 450.45 C 544.77 450.44 541.94 450.44 539.10 450.47 C 538.69 431.77 538.80 413.04 539.05 394.34 Z" />
<path fill="#0d3f9b" opacity="1.00" d=" M 561.07 394.36 C 563.91 394.35 566.76 394.34 569.61 394.34 C 569.63 396.64 569.67 398.94 569.78 401.25 C 572.94 398.72 575.88 395.48 580.04 394.70 C 586.26 393.44 592.66 393.55 598.97 393.79 C 604.22 394.24 609.70 394.26 614.59 396.50 C 617.65 397.85 619.74 400.56 621.94 402.96 C 623.90 400.59 625.80 398.02 628.60 396.59 C 632.75 394.49 637.48 394.18 642.03 393.82 C 649.04 393.47 656.10 393.63 663.04 394.68 C 668.23 395.50 673.49 398.08 676.21 402.76 C 678.99 407.32 678.61 412.87 678.74 418.00 C 678.75 428.82 678.79 439.64 678.72 450.47 C 675.91 450.44 673.10 450.44 670.29 450.46 C 670.16 439.29 670.35 428.13 670.21 416.96 C 669.78 412.96 669.85 408.22 666.81 405.19 C 661.44 401.20 654.35 401.50 648.00 401.39 C 642.09 401.48 635.66 401.14 630.46 404.43 C 625.93 407.39 624.89 413.22 624.60 418.24 C 624.20 428.96 624.60 439.69 624.37 450.41 C 621.46 450.45 618.56 450.45 615.66 450.41 C 615.50 438.58 615.73 426.75 615.55 414.93 C 615.52 411.16 614.84 406.76 611.36 404.58 C 605.57 401.11 598.51 401.46 592.00 401.39 C 586.01 401.50 579.28 401.37 574.35 405.32 C 570.59 408.36 570.10 413.51 569.80 417.99 C 569.48 428.81 569.78 439.64 569.62 450.46 C 566.81 450.44 564.01 450.43 561.22 450.46 C 560.58 442.66 561.04 434.82 560.90 427.00 C 561.01 416.12 560.69 405.23 561.07 394.36 Z" />
<path fill="#0d3f9b" opacity="1.00" d=" M 691.54 399.55 C 694.67 396.06 699.54 395.15 703.97 394.51 C 716.02 393.16 728.27 393.18 740.28 394.85 C 747.10 395.88 753.73 401.00 754.49 408.19 C 755.77 422.21 755.03 436.32 755.15 450.38 C 752.29 450.44 749.42 450.44 746.57 450.43 C 746.56 448.24 746.55 446.06 746.54 443.87 C 743.58 446.75 740.36 449.82 736.03 450.25 C 724.74 451.65 713.31 451.24 701.98 450.60 C 697.00 450.29 691.47 448.90 688.52 444.52 C 685.66 439.99 686.19 434.31 686.56 429.22 C 686.87 424.49 690.00 420.04 694.65 418.72 C 701.59 416.78 708.88 417.39 716.00 417.11 C 723.06 417.46 730.20 416.87 737.18 418.10 C 740.82 418.56 743.61 421.09 746.40 423.23 C 746.49 417.93 747.15 412.22 744.59 407.36 C 742.35 403.46 737.55 402.28 733.41 401.75 C 725.10 401.08 716.74 401.14 708.43 401.68 C 705.56 401.99 702.50 402.36 700.11 404.11 C 698.24 405.87 698.13 408.65 697.49 410.99 C 694.54 411.12 691.59 411.10 688.65 410.92 C 688.56 406.99 688.84 402.67 691.54 399.55 M 701.41 425.77 C 695.41 426.73 694.12 434.62 696.65 439.21 C 698.75 442.76 703.38 442.71 706.99 443.16 C 716.00 443.51 725.04 443.72 734.05 443.12 C 738.00 442.61 743.06 442.25 745.11 438.21 C 746.41 434.57 746.17 429.60 742.41 427.51 C 737.72 424.96 732.14 425.27 726.98 424.77 C 718.46 424.86 709.83 424.12 701.41 425.77 Z" />
<path fill="#0d3f9b" opacity="1.00" d=" M 833.83 399.82 C 837.08 396.50 841.73 395.14 846.21 394.58 C 857.62 393.28 869.20 393.27 880.59 394.72 C 886.47 395.45 892.20 398.51 895.31 403.68 C 899.05 409.83 898.70 417.32 898.90 424.25 C 878.06 424.44 857.21 424.15 836.38 424.39 C 836.82 430.29 837.39 437.72 843.35 440.79 C 850.10 443.81 857.77 443.23 865.00 443.48 C 871.94 443.26 879.42 444.20 885.80 440.85 C 888.60 439.43 889.20 436.15 889.95 433.41 C 892.94 433.28 895.93 433.24 898.94 433.34 C 898.67 437.21 897.96 441.31 895.26 444.29 C 891.87 448.27 886.50 449.45 881.58 450.27 C 870.59 451.69 859.45 451.22 848.45 450.27 C 842.51 449.53 835.79 448.12 832.11 442.93 C 827.07 435.68 827.00 426.40 827.30 417.92 C 827.62 411.48 828.96 404.44 833.83 399.82 M 843.09 403.97 C 838.45 406.44 837.22 412.01 836.59 416.79 C 854.21 416.97 871.83 416.89 889.46 416.83 C 889.52 412.13 888.08 406.70 883.63 404.34 C 877.32 400.99 869.90 401.58 863.00 401.40 C 856.35 401.58 849.20 400.81 843.09 403.97 Z" />
<path fill="#0d3f9b" opacity="1.00" d=" M 905.49 416.69 C 921.22 416.62 936.96 416.67 952.69 416.67 C 952.81 420.11 952.81 423.56 952.65 427.01 C 936.94 426.96 921.22 427.16 905.51 426.90 C 905.40 423.50 905.39 420.09 905.49 416.69 Z" />
</g>
<g id="#52b600ff">
<path fill="#52b600" opacity="1.00" d=" M 115.91 284.85 C 142.93 270.41 174.78 265.22 204.99 270.32 C 237.50 275.53 267.87 292.75 289.18 317.83 C 294.68 324.59 300.38 331.48 304.02 339.46 C 298.29 342.50 292.78 345.92 287.10 349.04 C 276.39 331.26 261.59 315.87 243.61 305.39 C 219.17 290.74 189.43 285.39 161.39 290.29 C 135.18 294.67 110.67 308.19 92.76 327.78 C 75.52 346.51 64.37 370.76 61.54 396.06 C 57.98 425.42 65.77 455.97 82.92 480.06 C 94.43 496.53 110.19 509.92 128.16 518.90 C 163.01 536.45 206.35 535.54 240.42 516.48 C 259.72 505.90 275.78 489.85 287.05 470.99 C 292.79 474.03 298.31 477.48 304.04 480.57 C 299.94 489.40 293.52 496.93 287.31 504.34 C 261.05 534.13 221.72 551.80 182.00 551.60 C 146.77 551.74 111.81 537.96 86.02 513.98 C 63.88 493.51 48.48 465.82 43.04 436.14 C 37.49 406.69 41.60 375.51 54.66 348.54 C 67.61 321.51 89.39 298.82 115.91 284.85 Z" />
</g>
</svg>
