<?xml version="1.0" encoding="UTF-8" ?>
<!DOCTYPE svg PUBLIC "-//W3C//DTD SVG 1.1//EN" "http://www.w3.org/Graphics/SVG/1.1/DTD/svg11.dtd">
<svg width="1200pt" height="630pt" viewBox="0 0 1200 630" version="1.1" xmlns="http://www.w3.org/2000/svg">
<g id="#000000ff">
<path fill="#000000" opacity="1.00" d=" M 580.23 255.49 C 588.75 255.48 597.27 255.49 605.80 255.48 C 605.78 285.89 605.72 316.29 605.82 346.69 C 612.83 341.01 620.86 336.10 629.98 334.94 C 641.64 333.25 654.35 335.79 663.43 343.61 C 669.49 348.56 672.98 355.98 674.55 363.52 C 676.71 373.20 676.12 383.17 676.19 393.00 C 676.18 411.71 676.19 430.43 676.19 449.15 C 667.65 449.23 659.11 449.23 650.58 449.17 C 650.50 426.44 650.60 403.71 650.54 380.99 C 650.35 374.90 649.51 368.33 645.58 363.43 C 642.34 359.40 637.05 357.75 632.05 357.58 C 625.91 357.30 619.24 358.31 614.43 362.43 C 610.55 365.70 608.71 370.65 607.62 375.46 C 605.55 384.82 605.73 394.47 605.77 404.00 C 605.77 419.07 605.78 434.13 605.77 449.20 C 597.26 449.21 588.75 449.19 580.25 449.20 C 580.24 384.63 580.28 320.06 580.23 255.49 Z" />
<path fill="#000000" opacity="1.00" d=" M 324.56 255.53 C 333.13 255.46 341.70 255.43 350.26 255.55 C 350.27 320.09 350.30 384.63 350.25 449.17 C 341.69 449.22 333.13 449.24 324.57 449.15 C 324.55 445.31 324.59 441.46 324.54 437.62 C 317.15 444.28 308.48 449.97 298.51 451.62 C 284.29 454.15 268.84 450.66 257.68 441.31 C 245.55 431.39 238.44 416.15 237.21 400.66 C 235.57 384.48 238.95 367.19 249.31 354.30 C 256.67 344.65 267.40 337.33 279.49 335.33 C 291.77 332.90 305.04 335.36 315.26 342.69 C 318.58 344.96 321.50 347.74 324.53 350.38 C 324.61 318.76 324.53 287.15 324.56 255.53 M 288.33 358.08 C 282.37 359.20 276.88 362.36 272.76 366.77 C 263.03 376.93 261.19 392.33 264.56 405.52 C 267.12 415.36 274.12 424.40 283.89 427.87 C 291.57 430.49 300.30 430.07 307.70 426.75 C 316.23 422.91 322.18 414.68 324.59 405.80 C 328.06 392.73 326.15 377.45 316.87 367.15 C 309.89 359.23 298.55 356.10 288.33 358.08 Z" />
<path fill="#000000" opacity="1.00" d=" M 817.73 255.55 C 826.27 255.44 834.80 255.45 843.34 255.54 C 843.37 287.15 843.31 318.76 843.37 350.37 C 850.31 343.73 858.38 337.87 867.91 335.72 C 882.08 332.41 897.86 335.58 909.27 344.75 C 921.57 354.43 929.33 369.39 930.72 384.93 C 932.72 403.15 928.33 422.89 915.38 436.42 C 901.00 452.75 875.17 457.26 856.06 446.91 C 851.37 444.50 847.41 441.00 843.40 437.65 C 843.31 441.48 843.34 445.32 843.33 449.16 C 834.80 449.23 826.27 449.21 817.75 449.17 C 817.69 384.63 817.71 320.09 817.73 255.55 M 865.43 358.57 C 860.18 359.87 855.36 362.74 851.61 366.63 C 842.26 376.18 840.22 390.77 842.79 403.44 C 844.78 413.98 851.96 423.81 862.19 427.61 C 870.29 430.49 879.68 430.32 887.39 426.31 C 894.01 422.86 899.06 416.81 901.96 409.99 C 905.24 402.33 905.49 393.69 904.25 385.55 C 902.73 375.80 897.08 366.63 888.61 361.44 C 881.72 357.27 873.13 356.63 865.43 358.57 Z" />
<path fill="#000000" opacity="1.00" d=" M 382.84 355.82 C 390.37 344.69 402.71 337.11 416.00 335.24 C 433.11 332.54 452.41 336.31 464.54 349.45 C 477.10 362.63 480.14 381.82 479.24 399.35 C 452.50 399.49 425.75 399.27 399.01 399.46 C 399.72 407.34 402.23 415.37 407.83 421.18 C 415.92 429.86 429.60 431.71 440.32 427.30 C 448.69 423.46 453.53 415.15 458.67 407.95 C 465.79 412.07 473.06 415.96 480.20 420.07 C 472.40 433.88 460.37 446.41 444.54 450.37 C 428.46 454.22 410.30 453.06 396.19 443.81 C 383.37 435.43 375.30 421.01 373.25 406.00 C 370.85 388.92 372.82 370.31 382.84 355.82 M 411.39 362.37 C 405.92 366.12 402.64 372.16 400.63 378.34 C 418.10 378.48 435.58 378.48 453.06 378.34 C 450.98 371.24 447.13 364.09 440.31 360.59 C 431.32 356.05 419.65 356.39 411.39 362.37 Z" />
<path fill="#000000" opacity="1.00" d=" M 526.31 335.13 C 534.53 332.40 544.27 339.20 543.94 347.99 C 544.52 355.27 538.20 361.93 530.99 362.13 C 523.60 362.78 516.58 356.42 516.45 349.02 C 516.01 342.83 520.34 336.77 526.31 335.13 Z" />
<path fill="#000000" opacity="1.00" d=" M 699.09 337.60 C 707.59 337.56 716.08 337.54 724.58 337.63 C 724.57 359.10 724.56 380.57 724.58 402.05 C 724.64 409.45 725.77 417.44 730.72 423.28 C 735.66 428.99 743.90 430.28 751.03 429.24 C 756.54 428.50 761.77 425.37 764.55 420.49 C 768.74 413.44 768.74 404.93 768.64 396.99 C 768.62 377.21 768.63 357.42 768.63 337.64 C 777.17 337.53 785.71 337.54 794.24 337.63 C 794.28 359.75 794.25 381.88 794.26 404.00 C 793.92 413.97 792.85 424.58 787.04 433.03 C 780.06 443.42 768.30 450.09 755.99 451.74 C 742.24 453.71 727.22 451.62 715.93 443.05 C 708.03 437.14 701.94 428.51 700.26 418.68 C 698.37 407.89 699.07 396.89 698.93 386.00 C 699.03 369.87 698.72 353.73 699.09 337.60 Z" />
<path fill="#000000" opacity="1.00" d=" M 265.33 476.15 C 267.34 476.13 269.35 476.09 271.36 476.05 C 271.43 493.77 271.43 511.49 271.35 529.21 C 269.39 529.17 267.43 529.16 265.47 529.15 C 265.39 527.71 265.31 526.28 265.23 524.85 C 259.48 530.94 249.12 531.85 242.73 526.29 C 233.81 518.77 235.02 502.01 245.84 496.81 C 252.31 493.49 260.30 495.24 265.36 500.28 C 265.39 492.24 265.39 484.19 265.33 476.15 M 250.42 501.47 C 242.02 504.30 240.94 517.14 247.69 522.26 C 252.13 525.56 259.10 524.96 262.67 520.64 C 266.61 515.75 266.30 507.70 261.56 503.44 C 258.60 500.77 254.12 500.05 250.42 501.47 Z" />
<path fill="#000000" opacity="1.00" d=" M 414.58 476.09 C 416.60 476.12 418.62 476.14 420.64 476.15 C 420.55 493.82 420.59 511.48 420.62 529.15 C 418.61 529.16 416.60 529.18 414.59 529.21 C 414.52 511.50 414.54 493.80 414.58 476.09 Z" />
<path fill="#000000" opacity="1.00" d=" M 282.50 479.46 C 285.93 478.27 289.60 482.33 287.91 485.59 C 286.97 488.38 282.92 489.45 280.82 487.31 C 277.97 485.20 279.13 480.26 282.50 479.46 Z" />
<path fill="#000000" opacity="1.00" d=" M 339.58 479.53 C 342.74 478.29 346.31 481.61 345.45 484.87 C 344.84 488.20 340.17 489.76 337.85 487.13 C 335.20 484.99 336.44 480.44 339.58 479.53 Z" />
<path fill="#000000" opacity="1.00" d=" M 657.34 486.53 C 659.35 486.56 661.38 486.58 663.41 486.58 C 663.39 489.67 663.47 492.75 663.47 495.85 C 666.45 495.88 669.43 496.02 672.42 496.13 C 672.36 497.81 672.35 499.49 672.41 501.18 C 669.41 501.19 666.41 501.30 663.42 501.31 C 663.50 507.19 663.29 513.07 663.47 518.94 C 663.46 520.96 664.21 523.23 666.21 524.10 C 668.38 524.51 670.58 524.03 672.75 523.78 C 672.67 525.53 672.66 527.29 672.70 529.06 C 668.74 530.01 664.18 530.74 660.53 528.50 C 658.02 526.94 657.38 523.81 657.35 521.08 C 657.21 514.50 657.40 507.93 657.30 501.35 C 654.93 501.26 652.56 501.24 650.20 501.18 C 650.16 499.52 650.06 497.86 649.94 496.21 C 652.38 496.01 654.83 495.91 657.28 495.77 C 657.27 492.69 657.35 489.61 657.34 486.53 Z" />
<path fill="#000000" opacity="1.00" d=" M 356.26 486.61 C 358.26 486.59 360.27 486.58 362.28 486.56 C 362.28 489.64 362.37 492.72 362.34 495.81 C 365.36 495.85 368.37 496.02 371.38 496.13 C 371.33 497.80 371.34 499.49 371.40 501.18 C 368.37 501.20 365.35 501.31 362.32 501.32 C 362.38 506.89 362.23 512.46 362.34 518.03 C 362.38 520.24 362.74 523.09 365.12 524.02 C 367.26 524.42 369.45 524.22 371.62 524.25 C 371.53 525.92 371.50 527.60 371.53 529.29 C 367.55 529.83 363.03 530.78 359.42 528.48 C 356.93 526.92 356.35 523.78 356.32 521.08 C 356.22 514.51 356.37 507.93 356.29 501.36 C 353.91 501.26 351.53 501.24 349.15 501.18 C 349.06 499.53 348.94 497.88 348.79 496.25 C 351.28 496.02 353.79 495.91 356.29 495.76 C 356.25 492.70 356.33 489.65 356.26 486.61 Z" />
<path fill="#000000" opacity="1.00" d=" M 303.58 496.58 C 309.90 493.58 317.47 495.38 322.35 500.21 C 322.48 498.77 322.62 497.33 322.76 495.90 C 324.72 495.92 326.68 495.93 328.65 495.94 C 328.60 507.29 328.74 518.65 328.59 530.00 C 328.52 536.33 324.49 542.47 318.50 544.70 C 310.51 547.68 300.85 546.10 294.53 540.26 C 295.86 538.56 297.20 536.88 298.50 535.16 C 301.57 537.57 304.90 540.15 308.97 540.38 C 313.30 540.82 318.30 539.56 320.79 535.71 C 322.99 532.21 322.45 527.89 322.74 523.96 C 320.37 525.97 318.03 528.28 314.91 529.07 C 308.95 530.68 302.06 528.75 298.05 523.99 C 291.11 515.83 293.38 500.99 303.58 496.58 M 308.37 501.23 C 300.30 503.35 298.05 514.76 303.40 520.61 C 306.73 524.28 312.54 524.70 316.90 522.79 C 322.62 519.92 323.95 512.10 321.30 506.68 C 319.16 501.96 313.21 499.67 308.37 501.23 Z" />
<path fill="#000000" opacity="1.00" d=" M 378.58 499.82 C 385.17 494.66 395.62 492.94 402.41 498.59 C 404.46 500.47 405.47 503.24 405.48 505.99 C 405.62 513.74 405.34 521.49 405.68 529.24 C 403.95 529.17 402.22 529.14 400.50 529.15 C 400.35 527.66 400.21 526.18 400.08 524.70 C 397.62 526.82 395.12 529.32 391.72 529.72 C 387.69 530.25 383.03 530.07 379.89 527.15 C 375.46 523.04 376.24 514.61 381.60 511.61 C 387.21 508.19 394.05 508.84 400.33 508.51 C 399.69 505.68 399.08 502.32 396.15 500.96 C 391.44 498.58 386.23 500.93 382.18 503.54 C 380.99 502.28 379.79 501.05 378.58 499.82 M 383.23 518.36 C 381.66 524.61 389.98 526.66 394.40 524.44 C 398.98 522.78 399.97 517.53 400.12 513.26 C 394.45 513.25 386.10 512.12 383.23 518.36 Z" />
<path fill="#000000" opacity="1.00" d=" M 452.40 499.40 C 458.91 493.43 470.71 493.45 476.26 500.73 C 479.48 504.64 479.86 509.89 479.99 514.75 C 471.00 514.86 462.01 514.65 453.02 514.87 C 453.74 520.33 458.49 524.76 464.06 524.74 C 468.06 525.18 471.18 522.32 474.01 519.94 C 475.46 521.08 476.93 522.21 478.40 523.34 C 473.09 530.31 462.62 531.87 455.06 527.91 C 445.15 522.37 444.08 506.80 452.40 499.40 M 456.19 503.17 C 454.37 504.93 453.79 507.47 453.07 509.81 C 459.93 510.01 466.80 509.98 473.67 509.82 C 473.03 507.23 472.62 504.32 470.52 502.46 C 466.60 498.68 459.82 499.30 456.19 503.17 Z" />
<path fill="#000000" opacity="1.00" d=" M 493.38 497.48 C 500.30 493.52 509.42 494.84 515.25 500.16 C 513.82 501.49 512.40 502.83 510.98 504.17 C 507.24 502.14 502.89 499.52 498.56 501.48 C 489.89 504.93 489.35 519.11 497.73 523.25 C 502.16 525.77 507.19 523.64 510.99 521.01 C 512.40 522.38 513.81 523.75 515.23 525.12 C 509.29 530.75 499.58 531.61 492.65 527.35 C 482.39 520.96 482.83 503.36 493.38 497.48 Z" />
<path fill="#000000" opacity="1.00" d=" M 530.50 495.69 C 538.38 493.51 547.49 497.47 550.88 504.99 C 554.58 512.49 552.09 522.49 544.98 527.04 C 536.56 533.00 523.22 529.65 519.17 520.00 C 514.46 510.63 520.22 498.01 530.50 495.69 M 531.42 501.38 C 523.93 503.66 522.07 513.86 526.15 519.85 C 529.51 524.95 537.35 525.82 541.99 522.00 C 546.64 518.13 547.37 510.79 544.27 505.75 C 541.74 501.49 536.01 499.72 531.42 501.38 Z" />
<path fill="#000000" opacity="1.00" d=" M 561.20 498.19 C 567.22 493.32 576.89 494.36 581.94 500.20 C 580.36 501.43 578.80 502.66 577.24 503.91 C 574.57 502.17 571.53 499.95 568.17 500.98 C 566.38 501.41 564.08 502.82 564.45 504.94 C 564.55 507.73 567.69 508.65 569.93 509.29 C 573.73 510.37 578.23 510.81 580.89 514.08 C 584.27 518.62 582.50 525.97 577.27 528.31 C 570.47 531.41 561.57 530.47 556.45 524.68 C 557.90 523.33 559.35 521.98 560.81 520.64 C 563.38 522.15 565.87 524.28 569.00 524.37 C 571.98 524.52 575.57 523.22 576.32 520.00 C 575.71 516.61 572.05 515.67 569.20 514.98 C 565.43 513.94 560.69 513.22 558.79 509.31 C 557.27 505.61 557.87 500.73 561.20 498.19 Z" />
<path fill="#000000" opacity="1.00" d=" M 625.80 497.78 C 631.93 493.43 641.13 494.50 646.06 500.21 C 644.48 501.44 642.90 502.67 641.33 503.92 C 638.31 501.78 634.32 499.42 630.67 501.60 C 628.44 502.44 627.65 505.69 629.66 507.20 C 633.96 510.64 640.50 509.43 644.50 513.48 C 648.56 517.95 646.82 526.00 641.23 528.39 C 634.45 531.34 625.58 530.50 620.58 524.63 C 622.01 523.32 623.43 522.00 624.86 520.68 C 628.31 522.89 632.37 525.56 636.64 523.88 C 639.20 523.32 641.59 519.99 639.39 517.74 C 635.10 513.88 628.13 515.27 624.04 511.00 C 620.77 507.19 621.64 500.62 625.80 497.78 Z" />
<path fill="#000000" opacity="1.00" d=" M 682.89 498.88 C 689.51 493.41 700.86 493.68 706.21 500.82 C 709.35 504.72 709.73 509.91 709.89 514.72 C 700.89 515.00 691.87 514.42 682.88 515.06 C 683.73 520.14 687.92 524.38 693.17 524.68 C 697.44 525.47 700.89 522.48 703.94 519.97 C 705.39 521.10 706.85 522.23 708.32 523.36 C 702.79 530.40 692.00 531.99 684.40 527.60 C 674.70 521.65 674.13 505.91 682.89 498.88 M 686.63 502.63 C 684.50 504.42 683.73 507.20 682.81 509.72 C 689.73 510.09 696.66 509.95 703.58 509.82 C 702.93 507.50 702.66 504.89 700.96 503.05 C 697.44 498.95 690.51 499.10 686.63 502.63 Z" />
<path fill="#000000" opacity="1.00" d=" M 722.74 500.22 C 725.88 497.49 729.55 494.68 733.99 495.15 C 738.11 494.89 741.33 497.75 743.79 500.70 C 746.62 497.49 750.45 494.68 754.98 495.15 C 760.52 494.87 765.61 499.12 766.24 504.66 C 767.19 512.78 766.38 521.00 766.69 529.16 C 764.68 529.16 762.66 529.17 760.66 529.20 C 760.55 523.12 760.65 517.04 760.64 510.96 C 760.53 508.11 760.56 504.82 758.41 502.65 C 755.72 500.08 751.22 500.23 748.25 502.23 C 745.58 504.30 744.86 507.93 744.78 511.14 C 744.70 517.16 744.83 523.19 744.77 529.21 C 742.76 529.17 740.76 529.16 738.77 529.18 C 738.72 523.09 738.83 517.00 738.76 510.91 C 738.61 508.05 738.62 504.77 736.51 502.57 C 733.50 499.56 728.16 500.51 725.59 503.61 C 723.56 505.85 723.05 508.97 723.01 511.90 C 722.92 517.66 723.16 523.42 722.88 529.18 C 720.95 529.16 719.03 529.17 717.12 529.20 C 716.80 518.08 716.72 506.94 717.16 495.83 C 718.89 495.94 720.64 496.04 722.39 496.10 C 722.50 497.47 722.62 498.84 722.74 500.22 Z" />
<path fill="#000000" opacity="1.00" d=" M 777.87 497.78 C 784.00 493.42 793.21 494.51 798.15 500.22 C 796.56 501.45 794.96 502.67 793.38 503.91 C 790.53 501.92 787.00 499.65 783.44 501.28 C 780.84 501.85 779.45 505.39 781.73 507.18 C 785.99 510.67 792.54 509.41 796.53 513.44 C 800.67 517.90 798.86 525.98 793.30 528.41 C 786.51 531.30 777.30 530.63 772.64 524.28 C 774.09 523.11 775.56 521.94 777.02 520.77 C 780.44 522.91 784.43 525.50 788.63 523.91 C 791.26 523.41 793.67 519.95 791.45 517.70 C 787.27 514.05 780.74 515.20 776.58 511.43 C 772.72 507.80 773.55 500.71 777.87 497.78 Z" />
<path fill="#000000" opacity="1.00" d=" M 280.74 495.89 C 282.73 495.91 284.73 495.93 286.74 495.93 C 286.70 507.01 286.69 518.09 286.74 529.17 C 284.74 529.16 282.74 529.17 280.74 529.19 C 280.66 518.09 280.66 506.99 280.74 495.89 Z" />
<path fill="#000000" opacity="1.00" d=" M 338.12 495.92 C 340.03 495.93 341.95 495.93 343.87 495.92 C 344.17 507.01 344.17 518.11 343.87 529.20 C 341.95 529.17 340.04 529.17 338.13 529.19 C 337.80 518.11 337.81 507.00 338.12 495.92 Z" />
<path fill="#000000" opacity="1.00" d=" M 585.82 495.90 C 588.13 495.91 590.44 495.95 592.76 496.02 C 596.24 504.64 599.03 513.53 602.80 522.04 C 606.08 513.40 608.96 504.63 612.26 496.01 C 614.43 495.94 616.60 495.90 618.78 495.87 C 614.15 507.85 609.50 519.81 604.90 531.80 C 603.08 536.12 602.00 541.17 598.25 544.31 C 594.81 546.91 590.26 546.16 586.33 545.43 C 586.60 543.72 586.83 542.01 587.02 540.29 C 589.45 540.18 592.17 540.82 594.37 539.47 C 596.12 538.02 596.97 535.82 597.83 533.79 C 598.49 531.83 599.70 529.65 598.59 527.62 C 594.41 517.02 589.82 506.57 585.82 495.90 Z" />
</g>
<g id="#f60000ff">
<path fill="#f60000" opacity="1.00" d=" M 528.29 379.86 C 536.38 378.37 544.68 385.72 543.90 393.99 C 544.12 402.27 535.36 408.92 527.42 407.04 C 519.97 405.67 514.85 397.46 516.85 390.15 C 518.12 384.81 522.87 380.60 528.29 379.86 Z" />
</g>
<g id="#fbd100ff">
<path fill="#fbd100" opacity="1.00" d=" M 526.32 425.10 C 530.86 424.27 536.34 424.79 539.53 428.50 C 542.69 431.08 544.06 435.10 544.62 439.02 C 543.86 445.02 539.58 450.66 533.56 452.29 C 529.83 454.17 525.95 452.12 522.70 450.27 C 518.34 447.40 515.33 441.92 516.50 436.67 C 516.89 431.20 521.38 426.91 526.32 425.10 Z" />
</g>
</svg>
