<?xml version="1.0" encoding="UTF-8" ?>
<!DOCTYPE svg PUBLIC "-//W3C//DTD SVG 1.1//EN" "http://www.w3.org/Graphics/SVG/1.1/DTD/svg11.dtd">
<svg width="1200pt" height="630pt" viewBox="0 0 1200 630" version="1.1" xmlns="http://www.w3.org/2000/svg">
<g id="#1d1d1dff">
<path fill="#1d1d1d" opacity="1.00" d=" M 107.25 260.22 C 108.40 259.10 109.58 258.00 110.77 256.92 C 118.84 264.96 126.91 273.00 134.91 281.11 C 115.36 300.85 95.62 320.39 76.06 340.13 C 88.93 353.48 102.46 366.20 115.17 379.69 C 107.11 387.73 99.13 395.84 91.01 403.81 C 77.85 390.82 64.89 377.63 51.76 364.61 C 44.46 370.91 38.70 379.23 36.51 388.71 C 32.85 403.01 37.05 419.04 47.38 429.60 C 63.40 445.76 79.63 461.73 95.56 477.98 C 87.50 486.10 79.60 494.39 71.21 502.17 C 55.34 486.25 39.43 470.36 23.55 454.45 C 12.08 443.06 4.47 427.94 1.92 412.00 C -2.11 387.49 6.00 361.25 23.81 343.81 C 51.62 315.95 79.45 288.10 107.25 260.22 Z" />
<path fill="#1d1d1d" opacity="1.00" d=" M 125.83 320.64 C 133.61 312.25 141.88 304.33 149.99 296.26 C 163.06 309.11 175.91 322.17 188.89 335.11 C 193.67 339.99 198.76 344.60 203.06 349.94 C 214.24 363.65 220.47 381.30 220.38 399.00 C 220.57 416.27 214.76 433.52 204.20 447.18 C 200.79 451.72 196.56 455.55 192.58 459.58 C 165.27 486.92 137.98 514.27 110.66 541.61 C 102.43 533.67 94.37 525.55 86.40 517.35 C 105.98 497.59 125.88 478.15 145.25 458.19 C 132.23 445.07 119.08 432.08 106.09 418.92 C 114.08 410.82 122.15 402.80 130.19 394.76 C 143.71 407.46 156.37 421.06 169.75 433.91 C 177.24 427.15 183.24 418.41 185.16 408.37 C 188.27 394.23 183.76 378.73 173.55 368.47 C 157.69 352.48 141.72 336.60 125.83 320.64 Z" />
<path fill="#1d1d1d" opacity="1.00" d=" M 609.37 346.73 C 632.53 346.48 655.70 346.61 678.87 346.67 C 678.88 350.73 678.89 354.79 678.86 358.86 C 660.35 358.99 641.83 358.72 623.32 358.99 C 623.31 369.57 623.30 380.15 623.32 390.73 C 639.35 390.82 655.37 390.68 671.40 390.80 C 671.49 394.88 671.49 398.96 671.40 403.04 C 655.37 403.17 639.34 402.99 623.31 403.13 C 623.27 418.69 623.39 434.25 623.26 449.81 C 618.63 449.88 614.01 449.88 609.39 449.81 C 609.38 415.45 609.41 381.09 609.37 346.73 Z" />
<path fill="#1d1d1d" opacity="1.00" d=" M 982.17 346.67 C 986.39 346.57 990.61 346.57 994.84 346.67 C 994.82 381.06 994.85 415.44 994.82 449.83 C 990.88 449.87 986.95 449.87 983.03 449.84 C 982.96 446.89 982.95 443.94 982.96 441.00 C 979.74 444.81 976.09 448.59 971.18 450.09 C 962.01 453.18 951.38 451.22 943.82 445.20 C 935.68 439.00 931.35 428.90 930.36 418.91 C 929.41 407.44 930.67 395.10 937.43 385.43 C 944.65 375.01 959.13 370.82 970.96 375.03 C 975.36 376.61 978.81 379.88 982.12 383.07 C 982.24 370.94 982.14 358.80 982.17 346.67 M 958.42 384.62 C 951.14 386.42 945.92 393.13 944.43 400.27 C 942.60 408.68 942.50 417.63 944.93 425.93 C 947.24 433.85 954.41 440.84 962.99 440.90 C 970.51 441.28 977.44 436.09 980.41 429.38 C 983.28 422.65 983.55 415.13 982.98 407.94 C 982.39 400.80 980.28 393.19 974.55 388.46 C 970.25 384.50 964.01 383.44 958.42 384.62 Z" />
<path fill="#1d1d1d" opacity="1.00" d=" M 288.26 347.84 C 315.75 347.72 343.25 347.73 370.75 347.84 C 370.84 354.15 370.81 360.47 370.79 366.79 C 360.78 366.89 350.78 366.73 340.78 366.86 C 340.64 394.52 340.77 422.17 340.71 449.82 C 333.26 449.87 325.81 449.87 318.36 449.82 C 318.31 422.16 318.45 394.51 318.29 366.85 C 308.27 366.74 298.24 366.88 288.22 366.79 C 288.21 360.47 288.17 354.15 288.26 347.84 Z" />
<path fill="#1d1d1d" opacity="1.00" d=" M 522.76 347.82 C 529.37 347.74 535.98 347.68 542.60 347.87 C 542.62 360.58 543.10 373.29 543.09 386.00 C 547.36 380.46 553.07 375.55 560.26 374.63 C 568.51 373.72 578.05 374.55 584.19 380.80 C 589.85 386.63 590.52 395.25 590.84 402.95 C 590.93 418.58 590.88 434.21 590.87 449.84 C 584.25 449.86 577.64 449.87 571.03 449.83 C 570.78 435.20 571.08 420.55 570.89 405.92 C 570.71 400.45 569.45 393.60 563.76 391.28 C 557.73 389.08 549.65 390.30 545.93 395.97 C 543.16 400.43 542.72 405.87 542.63 411.00 C 542.64 423.94 542.65 436.88 542.64 449.82 C 536.01 449.88 529.38 449.87 522.76 449.82 C 522.67 415.82 522.67 381.82 522.76 347.82 Z" />
<path fill="#1d1d1d" opacity="1.00" d=" M 371.82 385.82 C 383.95 372.10 407.05 370.31 421.30 381.71 C 431.80 390.30 435.55 404.64 434.60 417.75 C 417.08 417.95 399.55 417.63 382.03 417.90 C 382.34 423.77 383.95 430.37 389.18 433.80 C 398.07 439.56 411.14 436.23 416.24 426.93 C 421.89 426.75 427.54 426.75 433.19 426.91 C 430.79 435.38 425.63 443.48 417.67 447.66 C 410.23 451.84 401.41 452.27 393.10 451.55 C 381.96 450.45 371.53 443.56 366.49 433.51 C 358.96 418.48 360.28 398.52 371.82 385.82 M 386.79 393.78 C 383.77 396.68 382.63 400.85 381.91 404.84 C 392.82 405.42 403.76 405.07 414.68 405.05 C 413.52 399.41 411.23 392.91 405.38 390.65 C 399.28 388.45 391.51 388.92 386.79 393.78 Z" />
<path fill="#1d1d1d" opacity="1.00" d=" M 461.09 378.17 C 468.62 374.35 477.32 373.74 485.59 374.70 C 493.71 375.86 501.92 379.34 507.07 385.96 C 510.76 390.54 512.61 396.33 512.98 402.15 C 506.62 402.32 500.25 402.23 493.88 402.23 C 492.60 398.52 491.40 394.38 488.01 392.02 C 482.24 388.09 473.60 388.58 468.60 393.59 C 463.78 398.39 461.74 405.35 461.38 412.00 C 461.05 419.36 462.81 427.44 468.31 432.70 C 474.60 438.87 486.37 437.53 491.12 430.13 C 492.82 427.61 493.50 424.61 494.28 421.73 C 500.72 421.48 507.16 421.55 513.61 421.68 C 512.56 429.23 509.81 436.83 504.23 442.23 C 497.47 449.18 487.51 452.17 477.98 451.81 C 466.84 452.18 455.62 447.01 448.97 438.02 C 440.66 426.95 439.62 411.73 443.78 398.83 C 446.55 390.04 452.71 382.21 461.09 378.17 Z" />
<path fill="#1d1d1d" opacity="1.00" d=" M 717.33 374.15 C 726.01 372.62 735.43 373.39 743.20 377.83 C 750.42 381.91 755.86 388.90 758.21 396.84 C 760.89 405.74 760.65 415.27 759.14 424.36 C 757.74 432.38 753.46 440.01 746.75 444.74 C 733.32 454.43 712.81 453.96 700.67 442.33 C 693.61 435.58 690.58 425.63 690.29 416.07 C 689.86 406.97 690.75 397.42 695.37 389.37 C 699.92 381.35 708.33 375.83 717.33 374.15 M 720.39 384.62 C 712.28 386.31 706.15 393.48 704.48 401.42 C 702.70 409.43 702.73 418.00 705.14 425.88 C 707.60 434.09 715.30 440.74 724.05 440.88 C 731.33 441.47 738.63 437.68 742.52 431.54 C 746.18 425.76 747.04 418.72 747.20 412.02 C 747.10 403.61 745.12 394.28 738.25 388.74 C 733.41 384.48 726.57 383.43 720.39 384.62 Z" />
<path fill="#1d1d1d" opacity="1.00" d=" M 880.47 374.73 C 889.61 372.22 900.26 373.16 907.93 379.08 C 913.73 383.84 915.48 391.77 915.44 398.94 C 915.63 415.89 915.47 432.85 915.53 449.80 C 911.27 449.88 907.00 449.87 902.75 449.82 C 902.61 434.87 902.73 419.92 902.69 404.98 C 902.59 399.36 902.71 392.84 898.38 388.61 C 889.58 380.60 872.92 384.82 869.33 396.28 C 867.29 402.30 867.70 408.74 867.70 415.00 C 867.70 426.60 867.71 438.21 867.70 449.82 C 863.44 449.87 859.19 449.87 854.94 449.83 C 854.91 424.84 854.71 399.84 855.04 374.86 C 858.76 374.79 862.48 374.79 866.21 374.85 C 866.27 378.25 866.24 381.66 866.23 385.06 C 870.01 380.51 874.60 376.30 880.47 374.73 Z" />
<path fill="#1d1d1d" opacity="1.00" d=" M 1019.09 385.07 C 1031.10 370.15 1056.65 369.30 1069.62 383.39 C 1077.76 391.90 1079.77 404.34 1079.17 415.68 C 1060.62 415.79 1042.07 415.58 1023.52 415.78 C 1024.19 422.44 1025.82 429.43 1030.57 434.43 C 1036.94 441.31 1048.16 442.97 1056.27 438.30 C 1060.83 435.66 1063.39 430.83 1065.49 426.19 C 1070.05 426.08 1074.62 426.06 1079.19 426.20 C 1077.49 433.14 1074.08 439.88 1068.43 444.41 C 1061.67 450.00 1052.58 451.87 1044.00 451.48 C 1035.30 451.19 1026.40 448.11 1020.36 441.64 C 1013.42 434.67 1010.74 424.59 1010.56 414.99 C 1010.26 404.52 1012.13 393.29 1019.09 385.07 M 1031.91 388.89 C 1027.05 392.88 1024.97 399.09 1024.23 405.13 C 1038.08 405.23 1051.95 405.27 1065.81 405.11 C 1065.14 398.34 1062.73 391.09 1056.67 387.29 C 1049.33 382.38 1038.52 382.95 1031.91 388.89 Z" />
<path fill="#1d1d1d" opacity="1.00" d=" M 1117.35 374.21 C 1123.38 372.20 1129.77 374.37 1135.15 377.22 C 1133.95 381.22 1132.39 385.11 1130.81 388.98 C 1127.03 387.78 1123.10 386.05 1119.08 386.90 C 1115.12 387.69 1111.73 390.52 1110.18 394.23 C 1107.22 401.07 1107.28 408.68 1107.35 416.00 C 1107.33 427.28 1107.43 438.55 1107.30 449.83 C 1103.06 449.87 1098.82 449.86 1094.59 449.85 C 1094.49 424.85 1094.47 399.85 1094.61 374.85 C 1098.37 374.79 1102.15 374.79 1105.93 374.86 C 1106.09 378.38 1106.06 381.91 1106.13 385.43 C 1109.22 381.17 1112.01 375.96 1117.35 374.21 Z" />
<path fill="#1d1d1d" opacity="1.00" d=" M 1150.92 376.95 C 1158.92 373.00 1168.26 372.77 1176.91 374.33 C 1182.02 375.34 1187.14 377.38 1190.94 381.06 C 1194.43 384.65 1195.79 389.65 1196.91 394.40 C 1192.89 395.19 1188.84 395.73 1184.81 396.36 C 1183.22 392.56 1181.69 388.24 1177.84 386.18 C 1172.55 383.33 1166.17 383.59 1160.45 384.74 C 1156.16 385.60 1151.76 389.19 1152.14 393.93 C 1152.20 397.91 1155.97 400.48 1159.43 401.54 C 1168.87 404.55 1178.67 406.44 1187.88 410.15 C 1192.56 412.01 1196.69 415.64 1198.44 420.45 C 1200.85 427.29 1199.61 435.34 1195.05 441.01 C 1189.84 447.72 1181.24 450.77 1173.02 451.39 C 1164.46 451.86 1155.22 451.02 1148.00 446.01 C 1141.92 441.75 1138.86 434.63 1137.32 427.60 C 1141.45 426.67 1145.66 426.07 1149.86 425.41 C 1151.17 429.81 1152.64 434.61 1156.60 437.38 C 1162.28 441.41 1169.81 441.48 1176.40 440.19 C 1182.27 439.09 1187.77 433.36 1186.29 427.09 C 1185.34 423.47 1181.70 421.68 1178.43 420.64 C 1169.02 417.58 1159.06 416.12 1150.05 411.90 C 1143.70 408.88 1139.48 402.03 1139.60 395.01 C 1139.49 387.46 1144.16 380.20 1150.92 376.95 Z" />
<path fill="#1d1d1d" opacity="1.00" d=" M 774.48 375.08 C 778.76 374.71 783.07 374.77 787.37 374.86 C 787.57 390.91 787.34 406.97 787.48 423.03 C 787.53 428.13 788.43 433.95 792.81 437.21 C 800.29 442.79 811.77 440.56 817.69 433.69 C 821.82 428.83 822.04 422.07 822.31 416.01 C 822.39 402.35 822.28 388.69 822.35 375.03 C 826.59 374.71 830.84 374.76 835.09 374.91 C 835.25 399.87 835.21 424.84 835.12 449.81 C 831.29 449.87 827.46 449.86 823.64 449.85 C 823.58 446.43 823.60 443.01 823.52 439.60 C 819.70 443.84 815.50 448.11 809.92 449.88 C 800.78 453.06 790.00 451.63 782.27 445.74 C 776.41 441.05 774.70 433.10 774.61 425.95 C 774.33 409.00 774.54 392.04 774.48 375.08 Z" />
</g>
</svg>
