<?xml version="1.0" encoding="UTF-8" ?>
<!DOCTYPE svg PUBLIC "-//W3C//DTD SVG 1.1//EN" "http://www.w3.org/Graphics/SVG/1.1/DTD/svg11.dtd">
<svg width="1200pt" height="630pt" viewBox="0 0 1200 630" version="1.1" xmlns="http://www.w3.org/2000/svg">
<g id="#4c4a4bff">
<path fill="#4c4a4b" opacity="1.00" d=" M 571.77 282.05 C 573.99 279.21 578.38 281.22 581.53 280.69 C 581.80 293.40 581.45 306.11 581.71 318.82 C 582.43 325.39 582.09 332.00 582.17 338.60 C 585.22 337.45 587.05 334.57 589.80 332.94 C 597.24 328.27 607.02 327.26 615.07 331.03 C 623.22 334.38 627.93 343.38 627.76 351.95 C 627.79 385.23 627.71 418.51 627.80 451.80 C 624.52 451.78 621.25 451.78 617.98 451.74 C 617.50 419.48 618.09 387.20 617.69 354.93 C 617.84 348.67 614.66 341.76 608.43 339.60 C 600.44 337.12 590.24 339.07 585.50 346.48 C 583.45 349.59 581.40 353.07 581.58 356.93 C 581.65 388.53 581.59 420.12 581.62 451.72 C 578.30 451.78 574.98 451.78 571.67 451.65 C 571.60 398.10 571.67 344.55 571.63 291.00 C 571.65 288.02 571.47 285.02 571.77 282.05 Z" />
<path fill="#4c4a4b" opacity="1.00" d=" M 218.54 298.50 C 221.89 298.53 225.23 298.53 228.57 298.52 C 228.78 309.09 228.45 319.67 228.74 330.24 C 234.86 330.37 240.98 330.22 247.11 330.31 C 247.29 333.31 247.31 336.31 247.23 339.32 C 241.11 339.46 234.99 339.36 228.88 339.35 C 228.28 370.89 228.84 402.46 228.60 434.02 C 228.58 436.92 228.60 440.69 231.50 442.31 C 236.59 443.78 241.95 443.03 247.17 443.20 C 247.32 446.09 247.28 448.99 247.08 451.89 C 241.06 452.84 234.82 453.01 228.80 452.02 C 223.72 451.26 218.97 447.22 218.64 441.90 C 218.46 407.77 218.81 373.63 218.47 339.49 C 214.14 339.34 209.81 339.35 205.49 339.46 C 205.48 336.41 205.47 333.36 205.46 330.31 C 209.80 330.29 214.14 330.29 218.48 330.26 C 218.75 319.68 218.58 309.09 218.54 298.50 Z" />
<path fill="#4c4a4b" opacity="1.00" d=" M 358.63 350.04 C 364.06 340.12 372.71 331.76 383.33 327.64 C 383.54 331.81 383.49 336.00 383.42 340.18 C 377.56 342.15 371.51 344.54 367.50 349.48 C 362.47 355.56 357.47 362.73 357.73 370.98 C 357.81 397.91 357.70 424.85 357.79 451.78 C 354.59 451.77 351.39 451.78 348.20 451.77 C 348.14 411.27 348.13 370.78 348.20 330.28 C 351.37 330.26 354.54 330.27 357.72 330.28 C 357.79 336.21 357.52 342.13 357.77 348.05 C 357.98 348.55 358.41 349.54 358.63 350.04 Z" />
<path fill="#4c4a4b" opacity="1.00" d=" M 881.64 350.08 C 887.14 340.16 895.77 331.80 906.39 327.58 C 906.60 331.78 906.55 335.99 906.47 340.19 C 900.41 342.29 894.10 344.81 890.06 350.07 C 885.23 356.38 880.25 363.66 880.75 371.99 C 880.85 398.59 880.71 425.20 880.83 451.80 C 877.69 451.77 874.56 451.77 871.43 451.75 C 871.57 411.27 871.55 370.78 871.44 330.30 C 874.53 330.27 877.63 330.26 880.73 330.27 C 880.80 336.20 880.53 342.14 880.78 348.06 C 880.99 348.56 881.43 349.57 881.64 350.08 Z" />
<path fill="#4c4a4b" opacity="1.00" d=" M 153.48 330.61 C 161.80 327.11 171.87 328.59 178.91 334.17 C 183.97 338.55 186.15 345.45 186.35 351.97 C 186.42 385.21 186.23 418.47 186.45 451.71 C 183.09 451.78 179.73 451.79 176.37 451.74 C 176.40 419.49 176.37 387.24 176.39 354.99 C 176.38 350.06 175.51 344.72 171.96 341.04 C 168.35 337.51 162.89 336.78 158.09 337.46 C 151.17 338.22 145.43 343.21 141.93 348.98 C 140.03 351.97 140.57 355.64 140.50 359.01 C 140.57 389.91 140.48 420.82 140.55 451.72 C 137.19 451.79 133.84 451.78 130.49 451.73 C 130.65 411.26 130.62 370.79 130.50 330.32 C 133.75 330.26 137.00 330.26 140.25 330.28 C 140.63 333.90 140.42 337.53 140.38 341.16 C 144.77 337.67 147.99 332.53 153.48 330.61 Z" />
<path fill="#4c4a4b" opacity="1.00" d=" M 271.38 337.40 C 278.37 329.59 290.10 328.19 299.87 330.27 C 306.69 331.43 312.53 336.00 316.22 341.72 C 319.68 348.22 319.75 355.79 320.24 362.96 C 320.24 372.52 320.27 382.07 320.22 391.63 C 304.95 391.90 289.67 391.78 274.40 391.68 C 274.23 402.80 274.34 413.93 274.33 425.06 C 274.27 429.99 275.73 435.14 279.39 438.62 C 283.00 442.70 288.84 443.41 293.98 443.20 C 299.58 442.92 305.67 440.29 308.06 434.90 C 311.45 427.11 310.18 418.46 310.35 410.23 C 313.67 410.19 317.00 410.19 320.33 410.31 C 319.94 418.34 321.08 426.55 318.98 434.42 C 316.84 441.21 311.57 446.92 305.20 450.00 C 295.40 453.83 283.40 453.44 274.64 447.25 C 267.59 442.29 264.33 433.42 264.39 425.03 C 264.39 402.67 264.41 380.31 264.38 357.95 C 264.34 350.63 266.16 342.81 271.38 337.40 M 287.54 338.73 C 281.80 339.74 277.42 344.57 275.58 349.92 C 274.06 353.76 274.38 357.96 274.32 362.01 C 274.38 369.15 274.22 376.30 274.40 383.44 C 286.37 383.48 298.33 383.63 310.29 383.37 C 310.33 375.23 310.40 367.09 310.28 358.96 C 309.74 352.74 308.57 345.76 303.45 341.57 C 298.99 338.18 292.90 337.69 287.54 338.73 Z" />
<path fill="#4c4a4b" opacity="1.00" d=" M 426.79 330.94 C 434.95 327.23 445.14 328.16 452.19 333.82 C 458.84 339.04 460.11 348.04 460.30 355.96 C 460.26 387.86 460.31 419.75 460.27 451.64 C 456.99 451.78 453.71 451.78 450.44 451.70 C 450.42 419.13 450.46 386.55 450.42 353.98 C 450.41 348.10 448.01 341.38 442.34 338.78 C 431.15 333.70 416.15 341.84 414.34 353.96 C 414.33 386.53 414.21 419.11 414.41 451.69 C 411.06 451.78 407.71 451.78 404.36 451.76 C 404.42 411.27 404.41 370.79 404.37 330.30 C 407.71 330.25 411.05 330.26 414.39 330.36 C 414.28 333.85 414.24 337.34 414.49 340.82 C 418.28 337.19 421.68 332.80 426.79 330.94 Z" />
<path fill="#4c4a4b" opacity="1.00" d=" M 495.50 336.50 C 502.34 329.75 512.88 328.41 521.99 330.04 C 529.74 331.26 537.32 336.02 540.41 343.45 C 543.34 350.22 543.53 357.74 543.37 365.00 C 543.30 373.93 543.49 382.86 543.28 391.78 C 528.08 391.91 512.88 391.52 497.69 391.98 C 497.34 401.98 497.63 411.99 497.54 421.99 C 497.46 427.76 498.02 434.31 502.51 438.48 C 507.02 443.05 513.97 443.85 520.04 442.90 C 525.37 442.30 530.37 438.50 532.13 433.41 C 534.18 425.89 533.71 418.01 533.60 410.30 C 536.88 410.19 540.17 410.19 543.46 410.27 C 542.66 419.93 545.41 430.47 540.18 439.27 C 536.52 446.41 529.06 450.99 521.22 452.02 C 513.03 453.19 503.89 452.10 497.32 446.68 C 490.66 441.70 487.85 433.07 487.65 425.03 C 487.66 402.67 487.67 380.32 487.64 357.97 C 487.90 350.29 489.79 342.03 495.50 336.50 M 505.69 340.80 C 499.91 344.42 497.61 351.46 497.59 357.97 C 497.51 366.45 497.48 374.93 497.60 383.41 C 509.49 383.55 521.39 383.56 533.28 383.40 C 533.37 374.92 533.35 366.44 533.30 357.96 C 532.96 352.90 532.28 347.28 528.50 343.51 C 522.84 337.28 512.73 336.74 505.69 340.80 Z" />
<path fill="#4c4a4b" opacity="1.00" d=" M 683.01 330.08 C 691.40 326.92 701.98 329.17 707.56 336.43 C 709.19 338.44 710.41 340.74 711.70 342.98 C 714.38 341.25 715.73 338.20 718.01 336.04 C 723.96 330.14 732.81 327.85 741.00 328.85 C 746.52 329.96 752.04 332.85 755.02 337.79 C 758.84 343.76 759.32 351.08 759.54 357.97 C 759.60 389.22 759.52 420.48 759.59 451.74 C 756.20 451.78 752.82 451.78 749.45 451.75 C 749.65 425.17 749.48 398.58 749.53 372.00 C 749.42 363.81 750.09 355.52 748.30 347.46 C 747.04 342.70 742.72 338.90 737.81 338.38 C 731.89 337.80 725.13 338.21 720.58 342.52 C 716.60 346.21 713.00 351.28 713.47 356.97 C 713.59 388.56 713.40 420.15 713.57 451.74 C 710.18 451.78 706.79 451.78 703.40 451.75 C 703.57 420.83 703.41 389.92 703.49 359.01 C 703.53 354.45 703.75 349.64 701.46 345.52 C 699.63 341.34 695.37 338.81 691.03 338.00 C 683.98 336.60 676.56 339.56 671.82 344.84 C 669.84 347.17 667.31 349.69 667.47 352.99 C 667.41 385.93 667.60 418.88 667.39 451.81 C 664.10 451.78 660.83 451.78 657.55 451.70 C 657.67 411.26 657.55 370.82 657.61 330.38 C 660.99 330.25 664.37 330.25 667.76 330.31 C 667.88 333.46 667.72 336.62 667.73 339.78 C 672.53 336.11 677.02 331.74 683.01 330.08 Z" />
<path fill="#4c4a4b" opacity="1.00" d=" M 804.03 331.16 C 812.29 328.47 821.66 328.77 829.54 332.54 C 834.47 335.48 839.01 339.76 840.86 345.35 C 842.64 350.35 842.97 355.73 843.31 360.99 C 843.39 371.20 843.35 381.42 843.33 391.63 C 828.03 391.89 812.73 391.78 797.44 391.68 C 797.29 402.13 797.42 412.59 797.36 423.05 C 797.34 428.53 798.04 434.72 802.42 438.58 C 805.99 442.75 811.90 443.34 817.05 443.21 C 822.07 442.96 828.00 441.43 830.36 436.48 C 834.78 428.46 833.16 419.01 833.40 410.25 C 836.74 410.19 840.08 410.19 843.42 410.30 C 842.99 419.64 844.68 429.57 840.41 438.28 C 836.96 444.64 830.97 450.03 823.73 451.45 C 816.16 453.22 807.78 452.79 800.83 449.12 C 794.48 445.18 788.84 438.78 788.27 431.03 C 788.85 408.70 788.33 386.34 788.57 364.00 C 788.72 359.31 787.93 354.63 788.37 349.96 C 789.66 341.49 795.79 333.79 804.03 331.16 M 802.96 342.94 C 798.86 346.77 797.34 352.56 797.38 358.02 C 797.41 366.49 797.29 374.97 797.46 383.44 C 809.41 383.49 821.35 383.62 833.30 383.37 C 833.33 374.90 833.40 366.43 833.28 357.96 C 832.76 352.68 831.67 347.03 827.98 342.99 C 825.00 339.63 820.34 338.37 815.99 338.26 C 811.29 338.11 806.17 339.26 802.96 342.94 Z" />
<path fill="#4c4a4b" opacity="1.00" d=" M 1022.24 329.62 C 1025.69 329.63 1029.14 329.63 1032.59 329.62 C 1032.57 370.51 1032.78 411.40 1032.49 452.29 C 1032.38 418.53 1032.48 384.76 1032.44 351.00 C 1032.40 344.00 1032.72 336.99 1032.16 330.01 C 1029.04 329.86 1025.93 329.85 1022.82 329.97 C 1022.17 344.97 1022.74 359.99 1022.55 375.00 C 1022.56 391.69 1022.52 408.39 1022.61 425.09 C 1022.72 428.00 1021.75 430.81 1020.11 433.19 C 1021.01 430.56 1021.96 427.88 1021.83 425.06 C 1021.78 403.37 1021.81 381.68 1021.80 360.00 C 1022.05 349.88 1021.26 339.70 1022.24 329.62 Z" />
<path fill="#4c4a4b" opacity="1.00" d=" M 43.16 330.29 C 46.36 330.26 49.56 330.26 52.76 330.28 C 52.70 360.19 52.78 390.09 52.72 420.00 C 52.65 425.40 53.27 430.92 55.31 435.96 C 57.61 441.23 63.24 444.67 69.00 444.31 C 79.32 444.78 88.68 435.25 88.37 425.03 C 88.30 397.02 88.37 369.01 88.33 341.00 C 88.33 337.51 88.21 334.02 88.63 330.55 C 90.17 331.89 89.31 334.19 89.53 335.97 C 89.45 367.22 89.44 398.49 89.53 429.73 C 89.56 396.98 89.43 364.23 89.59 331.48 C 92.18 331.83 94.79 331.83 97.38 331.50 C 97.55 365.66 97.58 399.84 97.26 434.00 C 97.38 439.58 97.08 445.17 97.51 450.74 C 98.12 433.49 97.37 416.25 97.52 399.00 C 97.46 376.34 97.66 353.67 97.41 331.02 L 98.59 331.01 C 98.87 359.00 98.63 387.00 98.71 415.00 C 98.62 427.24 98.89 439.48 98.57 451.72 C 95.19 451.78 91.80 451.79 88.42 451.72 C 88.35 448.23 88.54 444.74 88.48 441.26 C 84.91 444.04 82.01 447.71 77.93 449.81 C 71.95 452.98 64.64 453.70 58.21 451.56 C 50.61 448.83 44.93 441.66 43.70 433.72 C 42.50 423.86 42.89 413.91 42.83 404.00 C 42.83 384.33 42.83 364.67 42.83 345.00 C 42.84 340.09 42.66 335.18 43.16 330.29 Z" />
<path fill="#4c4a4b" opacity="1.00" d=" M 90.34 330.67 C 91.93 329.82 95.81 329.32 96.59 331.06 C 94.75 331.21 91.61 331.98 90.34 330.67 Z" />
<path fill="#4c4a4b" opacity="1.00" d=" M 1063.49 363.00 C 1063.62 351.90 1063.23 340.79 1063.69 329.70 C 1063.77 370.56 1063.84 411.42 1063.65 452.28 C 1063.27 422.52 1063.60 392.76 1063.49 363.00 Z" />
<path fill="#4c4a4b" opacity="1.00" d=" M 787.75 353.73 C 788.26 356.11 788.51 358.54 788.52 360.98 C 788.44 381.32 788.46 401.67 788.51 422.02 C 788.49 424.44 788.25 426.86 787.76 429.24 C 787.03 414.18 787.64 399.08 787.44 384.00 C 787.61 373.91 787.06 363.80 787.75 353.73 Z" />
<path fill="#4c4a4b" opacity="1.00" d=" M 1155.07 353.67 C 1155.59 358.09 1155.65 362.55 1155.62 367.01 C 1155.48 395.46 1155.75 423.91 1155.49 452.35 C 1154.27 447.66 1155.02 442.78 1154.85 438.00 C 1154.99 409.89 1154.54 381.76 1155.07 353.67 Z" />
<path fill="#4c4a4b" opacity="1.00" d=" M 42.67 487.39 C 44.07 480.83 50.04 475.02 56.98 475.24 C 60.36 475.08 63.94 475.31 66.83 477.28 C 70.08 479.06 71.54 482.64 72.77 485.94 C 71.78 485.78 70.79 485.62 69.80 485.47 C 68.37 482.92 66.91 480.11 64.18 478.76 C 58.53 475.82 50.56 477.56 47.25 483.20 C 43.63 489.96 43.59 499.20 48.89 505.11 C 52.70 509.26 59.58 510.63 64.40 507.40 C 68.12 505.21 69.30 500.83 70.94 497.14 C 71.45 497.41 72.48 497.96 72.99 498.24 C 72.23 502.78 69.97 507.44 65.70 509.61 C 59.40 513.23 50.69 511.49 46.06 505.96 C 42.07 500.79 40.77 493.63 42.67 487.39 Z" />
<path fill="#4c4a4b" opacity="1.00" d=" M 205.99 476.99 C 207.75 475.62 210.04 475.60 212.16 475.52 C 212.35 475.98 212.75 476.91 212.95 477.37 C 211.14 477.78 209.35 478.23 207.55 478.69 C 207.32 480.87 207.15 483.06 207.02 485.26 C 208.60 485.39 210.19 485.52 211.78 485.64 C 211.80 486.10 211.84 487.02 211.86 487.48 C 210.31 487.62 208.76 487.76 207.21 487.92 C 207.03 495.42 207.24 502.93 207.11 510.43 C 206.45 510.46 205.11 510.53 204.45 510.56 C 204.34 502.96 204.44 495.36 204.42 487.76 C 202.88 487.64 201.35 487.51 199.82 487.36 C 200.02 485.05 202.55 485.59 204.17 485.17 C 204.52 482.42 204.15 479.27 205.99 476.99 Z" />
<path fill="#4c4a4b" opacity="1.00" d=" M 819.42 480.40 C 825.12 473.23 837.88 473.17 843.45 480.51 C 844.63 482.10 845.20 484.03 845.88 485.88 C 844.87 485.74 843.86 485.60 842.87 485.47 C 841.31 482.38 839.32 479.10 835.84 477.98 C 830.92 476.56 824.99 477.55 821.66 481.71 C 816.36 488.53 816.54 499.18 822.44 505.56 C 827.79 511.16 838.64 510.17 841.70 502.66 C 842.97 500.78 842.89 496.74 846.05 497.62 C 845.74 503.23 842.26 508.80 836.77 510.57 C 828.83 513.59 818.87 509.03 816.35 500.82 C 814.30 494.13 814.61 485.88 819.42 480.40 Z" />
<path fill="#4c4a4b" opacity="1.00" d=" M 1096.23 475.38 C 1096.82 475.43 1097.99 475.54 1098.57 475.60 C 1098.82 483.08 1098.55 490.57 1098.66 498.06 C 1098.78 501.02 1099.41 504.25 1101.49 506.52 C 1106.99 511.30 1118.41 509.88 1119.68 501.68 C 1121.08 493.02 1119.85 484.16 1120.36 475.43 C 1120.94 475.44 1122.10 475.46 1122.68 475.46 C 1123.63 481.93 1123.15 488.51 1123.13 495.02 C 1122.68 498.49 1123.07 502.26 1121.34 505.43 C 1116.27 513.72 1101.89 513.65 1097.23 504.99 C 1095.43 500.58 1095.71 495.67 1095.71 491.00 C 1095.82 485.79 1095.33 480.54 1096.23 475.38 Z" />
<path fill="#4c4a4b" opacity="1.00" d=" M 1130.48 475.51 C 1131.83 475.53 1133.19 475.53 1134.58 475.54 C 1139.06 485.39 1142.85 495.56 1146.68 505.68 C 1147.10 505.67 1147.93 505.65 1148.35 505.64 C 1152.01 495.56 1156.06 485.63 1160.02 475.66 C 1161.46 475.64 1162.91 475.63 1164.38 475.62 C 1164.56 487.26 1164.41 498.90 1164.46 510.55 C 1163.77 510.54 1162.39 510.51 1161.70 510.50 C 1161.61 500.88 1161.83 491.26 1161.63 481.64 C 1160.67 482.06 1160.00 482.73 1159.61 483.66 C 1156.19 492.00 1152.99 500.44 1149.66 508.82 C 1149.38 510.47 1147.69 510.60 1146.38 510.88 C 1142.36 501.94 1139.06 492.69 1135.30 483.65 C 1134.89 483.36 1134.06 482.79 1133.64 482.50 C 1133.17 491.85 1133.59 501.22 1133.44 510.58 C 1132.42 510.59 1131.42 510.62 1130.44 510.66 C 1130.45 498.94 1130.38 487.22 1130.48 475.51 Z" />
<path fill="#4c4a4b" opacity="1.00" d=" M 274.72 476.98 C 275.06 476.55 275.74 475.70 276.08 475.27 L 277.24 475.71 C 278.04 487.28 277.39 498.96 277.56 510.57 C 276.83 510.55 275.37 510.51 274.64 510.49 C 274.64 499.32 274.44 488.14 274.72 476.98 Z" />
<path fill="#4c4a4b" opacity="1.00" d=" M 431.56 475.62 C 432.27 475.63 433.68 475.63 434.38 475.63 C 434.37 477.17 434.37 478.72 434.37 480.28 C 433.67 480.28 432.28 480.28 431.59 480.29 C 431.57 478.73 431.56 477.17 431.56 475.62 Z" />
<path fill="#4c4a4b" opacity="1.00" d=" M 582.66 476.26 C 583.91 474.37 586.08 476.22 585.55 478.03 C 585.57 488.95 585.64 499.88 585.49 510.80 C 585.06 510.70 584.18 510.50 583.75 510.41 C 583.22 509.47 582.69 508.54 582.17 507.62 C 579.35 509.35 576.49 511.75 572.98 511.52 C 567.74 511.37 563.16 507.10 562.48 501.94 C 561.97 497.32 561.88 491.92 565.41 488.38 C 567.50 485.86 570.80 484.63 574.02 484.70 C 577.27 485.05 579.89 487.14 582.54 488.88 C 582.73 484.67 582.43 480.46 582.66 476.26 M 571.33 487.15 C 562.30 490.30 562.39 505.63 571.14 509.05 C 576.42 510.77 582.06 506.33 582.51 501.02 C 582.69 497.69 583.08 493.95 581.01 491.09 C 579.03 488.03 574.93 485.75 571.33 487.15 Z" />
<path fill="#4c4a4b" opacity="1.00" d=" M 606.81 477.05 C 607.10 476.71 607.67 476.03 607.96 475.69 C 613.94 475.67 620.03 475.11 625.94 476.19 C 629.67 476.69 633.14 480.05 632.62 484.01 C 633.09 487.35 630.38 489.68 628.49 492.03 C 632.03 494.40 635.19 498.40 633.84 502.91 C 633.41 507.67 628.40 510.47 624.02 510.50 C 618.31 510.61 612.61 510.45 606.91 510.57 C 606.49 499.41 606.63 488.21 606.81 477.05 M 609.67 478.47 C 609.60 482.72 609.59 486.98 609.72 491.23 C 615.24 491.03 621.05 492.23 626.36 490.34 C 631.29 488.54 631.02 480.14 625.93 478.75 C 620.57 477.86 615.08 478.34 609.67 478.47 M 609.70 493.63 C 609.60 498.50 609.58 503.37 609.71 508.25 C 615.56 508.10 621.67 509.19 627.34 507.32 C 632.67 505.24 632.66 496.59 627.28 494.59 C 621.71 492.50 615.52 493.95 609.70 493.63 Z" />
<path fill="#4c4a4b" opacity="1.00" d=" M 693.48 480.57 C 690.18 481.09 690.10 474.77 693.47 475.36 C 693.48 477.09 693.49 478.82 693.48 480.57 Z" />
<path fill="#4c4a4b" opacity="1.00" d=" M 933.85 475.86 C 934.48 475.75 935.74 475.53 936.38 475.42 C 936.38 477.10 936.39 478.79 936.39 480.48 C 933.06 481.15 933.59 478.06 933.85 475.86 Z" />
<path fill="#4c4a4b" opacity="1.00" d=" M 1064.55 475.65 C 1072.38 475.57 1080.21 475.64 1088.04 475.59 C 1089.80 475.45 1091.51 475.90 1092.91 477.04 C 1088.76 479.19 1083.99 477.99 1079.54 478.37 C 1079.62 489.11 1079.60 499.85 1079.57 510.58 C 1078.85 510.56 1077.40 510.50 1076.68 510.47 C 1076.52 499.76 1076.69 489.05 1076.61 478.35 C 1072.60 478.29 1068.59 478.29 1064.59 478.24 C 1064.58 477.59 1064.56 476.30 1064.55 475.65 Z" />
<path fill="#4c4a4b" opacity="1.00" d=" M 133.38 478.03 C 133.96 478.10 135.11 478.24 135.68 478.31 C 135.86 480.65 135.99 482.99 136.15 485.34 C 137.69 485.43 139.24 485.51 140.78 485.60 C 140.81 486.08 140.86 487.04 140.88 487.52 C 139.29 487.62 137.70 487.72 136.11 487.84 C 135.93 494.61 135.38 501.47 136.53 508.18 C 138.34 508.74 140.13 509.34 141.88 510.07 C 139.27 511.23 133.99 511.55 133.51 507.78 C 132.98 501.24 133.63 494.67 133.20 488.12 C 131.84 487.86 130.48 487.62 129.12 487.39 C 129.13 486.96 129.16 486.09 129.17 485.66 C 130.52 485.54 131.88 485.41 133.24 485.28 C 133.30 482.86 133.33 480.44 133.38 478.03 Z" />
<path fill="#4c4a4b" opacity="1.00" d=" M 418.68 477.42 C 422.57 477.71 420.80 482.69 421.34 485.39 C 423.34 485.45 425.33 485.56 427.00 486.82 C 425.12 487.42 423.18 487.76 421.27 488.17 C 421.30 494.84 420.98 501.53 421.50 508.19 C 423.33 508.76 425.14 509.36 426.93 510.08 C 424.31 511.16 420.15 511.55 418.71 508.50 C 418.23 501.65 418.85 494.76 418.43 487.91 C 416.72 487.47 413.69 488.38 413.90 485.70 C 415.44 485.59 416.99 485.51 418.54 485.44 C 418.54 482.77 418.57 480.09 418.68 477.42 Z" />
<path fill="#4c4a4b" opacity="1.00" d=" M 920.71 477.57 C 921.33 477.64 922.58 477.78 923.21 477.86 C 923.51 480.36 923.45 482.89 923.46 485.41 C 925.11 485.51 926.76 485.61 928.44 485.73 L 928.46 487.45 C 926.77 487.54 925.11 487.63 923.45 487.73 C 923.47 494.54 923.27 501.35 923.58 508.16 C 925.47 508.73 927.35 509.32 929.22 510.04 C 926.32 511.45 920.72 511.35 920.72 507.03 C 920.27 500.63 920.74 494.21 920.52 487.81 C 918.88 487.63 917.23 487.41 915.63 487.11 C 916.91 485.72 918.69 485.47 920.49 485.24 C 920.54 482.68 920.58 480.12 920.71 477.57 Z" />
<path fill="#4c4a4b" opacity="1.00" d=" M 1040.26 485.29 C 1040.91 482.78 1038.87 478.42 1042.02 477.42 C 1043.68 479.53 1042.79 482.75 1043.21 485.32 C 1044.72 485.42 1046.25 485.51 1047.79 485.60 C 1047.81 486.08 1047.87 487.04 1047.89 487.51 C 1046.30 487.62 1044.73 487.73 1043.16 487.85 C 1043.22 494.62 1042.70 501.44 1043.52 508.18 C 1045.34 508.74 1047.16 509.34 1048.96 510.07 C 1046.32 511.23 1041.03 511.56 1040.53 507.77 C 1040.01 501.17 1040.61 494.52 1040.25 487.91 C 1038.85 487.75 1037.46 487.60 1036.08 487.46 C 1036.11 487.01 1036.17 486.10 1036.20 485.65 C 1037.54 485.53 1038.89 485.41 1040.26 485.29 Z" />
<path fill="#4c4a4b" opacity="1.00" d=" M 79.47 489.42 C 82.99 483.60 92.32 483.17 96.49 488.46 C 98.90 491.26 99.48 495.02 99.66 498.59 C 92.95 498.90 86.22 498.53 79.51 498.83 C 79.95 501.56 80.23 504.62 82.33 506.68 C 84.76 509.53 89.17 510.17 92.44 508.47 C 95.08 506.91 95.99 503.39 99.06 502.40 C 98.55 511.17 86.28 514.51 80.58 508.42 C 76.14 503.26 76.03 495.11 79.47 489.42 M 79.74 496.56 C 85.47 496.61 91.21 496.62 96.95 496.56 C 96.96 491.56 93.25 486.77 88.04 486.67 C 83.11 487.17 79.80 491.81 79.74 496.56 Z" />
<path fill="#4c4a4b" opacity="1.00" d=" M 288.59 487.90 C 291.78 486.19 295.29 483.68 299.09 485.04 C 302.57 485.45 305.16 488.48 305.39 491.93 C 305.77 498.12 305.47 504.33 305.49 510.54 C 304.82 510.51 303.46 510.47 302.79 510.44 C 302.61 504.35 303.02 498.25 302.57 492.17 C 302.46 488.52 298.36 486.43 295.09 486.73 C 291.24 487.56 287.98 490.94 287.75 494.94 C 287.50 500.19 287.78 505.44 287.67 510.69 C 287.05 510.68 285.81 510.66 285.19 510.65 C 284.81 502.08 284.39 493.40 285.53 484.87 C 286.67 485.75 287.71 486.74 288.59 487.90 Z" />
<path fill="#4c4a4b" opacity="1.00" d=" M 539.94 487.98 C 542.90 486.04 546.39 483.70 550.10 485.02 C 553.65 485.46 556.34 488.68 556.48 492.20 C 556.72 498.34 556.47 504.49 556.58 510.63 C 556.00 510.66 554.85 510.70 554.28 510.73 C 553.92 504.29 555.08 497.70 553.48 491.39 C 552.71 487.61 547.84 485.59 544.50 487.34 C 540.97 488.61 538.66 492.27 538.66 495.96 C 538.55 500.87 538.70 505.78 538.66 510.69 C 538.07 510.69 536.89 510.69 536.30 510.69 C 536.36 502.08 536.06 493.46 536.49 484.87 C 537.69 485.84 538.83 486.89 539.94 487.98 Z" />
<path fill="#4c4a4b" opacity="1.00" d=" M 703.94 488.16 C 706.88 486.17 710.36 483.76 714.10 484.98 C 717.52 485.45 720.68 488.47 720.55 492.06 C 720.71 498.26 720.54 504.48 720.62 510.69 C 720.04 510.69 718.88 510.68 718.29 510.68 C 717.98 504.50 718.75 498.26 717.89 492.13 C 717.48 488.51 713.55 486.16 710.14 486.79 C 707.52 487.54 705.16 489.22 703.74 491.57 C 702.45 497.73 703.63 504.07 702.92 510.29 C 702.31 510.40 701.08 510.60 700.47 510.70 C 700.37 502.80 700.25 494.88 700.48 486.98 C 700.69 486.50 701.11 485.54 701.32 485.06 C 702.20 486.07 703.07 487.10 703.94 488.16 Z" />
<path fill="#4c4a4b" opacity="1.00" d=" M 973.90 489.05 C 976.90 486.83 980.25 483.81 984.31 484.84 C 988.06 485.14 991.37 488.23 991.48 492.07 C 991.75 498.26 991.49 504.47 991.60 510.66 C 991.01 510.67 989.83 510.69 989.24 510.70 C 988.94 504.53 989.79 498.28 988.70 492.18 C 988.28 488.01 983.16 485.42 979.50 487.34 C 975.86 488.58 973.90 492.44 973.67 496.08 C 973.45 500.95 973.66 505.82 973.63 510.70 C 973.05 510.69 971.90 510.68 971.32 510.68 C 971.25 502.23 971.23 493.77 971.36 485.32 C 971.86 485.35 972.88 485.41 973.38 485.44 C 973.54 486.64 973.71 487.84 973.90 489.05 Z" />
<path fill="#4c4a4b" opacity="1.00" d=" M 104.61 484.87 C 105.84 485.83 106.97 486.89 108.06 488.01 C 111.00 486.17 114.36 483.83 118.01 484.98 C 121.57 485.31 124.46 488.50 124.62 492.04 C 124.92 498.24 124.74 504.46 124.66 510.67 C 124.07 510.67 122.89 510.67 122.30 510.68 C 121.85 504.19 122.82 497.62 121.62 491.20 C 121.23 488.51 118.29 487.28 115.96 486.70 C 112.57 486.50 109.31 488.75 107.77 491.69 C 106.09 497.96 108.65 504.83 106.26 510.93 C 105.76 510.73 104.77 510.34 104.28 510.14 C 104.21 501.72 103.80 493.25 104.61 484.87 Z" />
<path fill="#4c4a4b" opacity="1.00" d=" M 148.90 487.90 C 153.13 483.32 161.46 483.82 164.99 489.01 C 167.13 491.72 167.55 495.22 167.77 498.56 C 161.03 498.94 154.27 498.49 147.53 498.86 C 147.71 503.97 151.24 509.80 156.99 509.38 C 161.57 509.54 163.67 504.98 166.28 502.07 C 167.95 505.51 164.67 509.21 161.57 510.46 C 155.82 513.30 147.94 510.42 146.07 504.11 C 144.70 498.75 144.63 492.03 148.90 487.90 M 153.58 487.50 C 149.75 488.79 148.42 492.88 147.59 496.43 C 153.35 496.70 159.11 496.61 164.86 496.52 C 165.54 490.76 159.18 484.62 153.58 487.50 Z" />
<path fill="#4c4a4b" opacity="1.00" d=" M 175.43 490.17 C 177.98 487.61 180.87 485.02 184.74 485.11 C 184.72 485.69 184.69 486.84 184.67 487.42 C 181.12 488.39 176.81 489.73 175.81 493.79 C 174.62 499.25 175.50 504.91 175.22 510.45 C 174.56 510.47 173.24 510.50 172.58 510.52 C 172.69 502.65 172.33 494.77 172.72 486.91 C 173.04 486.38 173.69 485.31 174.02 484.78 C 174.53 486.56 174.97 488.37 175.43 490.17 Z" />
<path fill="#4c4a4b" opacity="1.00" d=" M 222.38 485.52 C 227.26 483.53 233.24 485.52 236.12 489.88 C 239.83 495.87 239.21 504.85 233.43 509.33 C 227.89 513.44 218.89 511.47 216.07 505.04 C 212.64 498.33 214.85 488.28 222.38 485.52 M 224.33 487.15 C 214.50 489.98 214.89 507.21 225.04 509.28 C 231.86 510.55 236.61 503.19 235.68 497.06 C 236.05 491.28 230.14 485.26 224.33 487.15 Z" />
<path fill="#4c4a4b" opacity="1.00" d=" M 246.86 490.23 C 249.10 487.45 252.04 485.07 255.80 485.11 C 255.78 485.69 255.74 486.86 255.72 487.44 C 252.15 488.39 247.96 489.88 246.98 493.92 C 245.60 499.49 246.68 505.33 246.26 511.01 C 245.62 510.77 244.32 510.29 243.67 510.05 C 243.84 502.36 243.36 494.63 243.88 486.96 C 244.16 486.41 244.71 485.31 244.99 484.76 C 245.70 486.55 246.26 488.39 246.86 490.23 Z" />
<path fill="#4c4a4b" opacity="1.00" d=" M 312.44 484.88 C 313.70 485.81 314.85 486.86 315.93 487.99 C 319.04 485.70 323.02 483.68 326.93 485.25 C 330.53 485.83 332.42 489.60 332.49 492.96 C 332.75 498.81 332.57 504.67 332.53 510.53 C 331.84 510.51 330.48 510.46 329.79 510.44 C 329.63 504.34 330.00 498.23 329.61 492.15 C 329.63 489.12 326.55 487.32 323.95 486.70 C 319.37 486.42 315.03 490.35 314.82 494.96 C 314.48 500.19 314.83 505.44 314.67 510.68 C 314.06 510.67 312.85 510.67 312.25 510.66 C 311.81 502.09 311.53 493.43 312.44 484.88 Z" />
<path fill="#4c4a4b" opacity="1.00" d=" M 345.41 485.62 C 350.93 483.31 358.15 485.78 360.40 491.51 C 363.19 497.94 361.72 507.56 354.57 510.46 C 349.04 513.20 341.80 510.38 339.32 504.80 C 336.60 498.16 338.01 488.51 345.41 485.62 M 347.37 487.25 C 339.74 489.84 338.56 500.94 343.45 506.54 C 346.83 510.29 353.17 510.21 356.47 506.40 C 360.03 501.62 360.14 494.39 356.32 489.73 C 354.01 487.61 350.47 485.78 347.37 487.25 Z" />
<path fill="#4c4a4b" opacity="1.00" d=" M 390.04 492.82 C 390.75 484.66 401.50 482.62 407.30 486.76 C 408.53 487.92 409.35 489.52 409.50 491.22 C 409.90 496.12 409.32 501.05 409.70 505.96 C 410.32 507.74 411.86 508.99 412.95 510.51 C 411.51 510.50 410.08 510.51 408.66 510.51 C 407.98 509.38 407.31 508.26 406.63 507.16 C 404.06 509.06 401.46 511.63 398.03 511.53 C 394.79 511.73 391.26 510.33 389.65 507.39 C 389.14 504.68 388.58 501.00 391.22 499.18 C 395.51 495.90 401.30 497.22 406.07 495.23 C 407.42 492.87 407.24 488.74 404.20 487.73 C 399.68 485.01 393.77 487.69 392.39 492.66 C 391.80 492.70 390.62 492.78 390.04 492.82 M 394.18 500.05 C 391.42 501.17 390.74 505.00 392.78 507.11 C 395.89 510.52 401.66 509.90 404.61 506.58 C 407.31 504.41 406.67 500.66 406.93 497.62 C 402.61 497.81 398.18 498.33 394.18 500.05 Z" />
<path fill="#4c4a4b" opacity="1.00" d=" M 447.39 485.56 C 452.89 483.29 460.16 485.92 462.29 491.66 C 465.05 497.86 463.79 506.79 457.23 510.05 C 451.72 513.39 443.79 510.79 441.21 504.92 C 437.92 498.23 440.00 488.48 447.39 485.56 M 449.34 487.18 C 443.97 488.73 441.74 494.91 442.51 500.02 C 442.73 505.81 448.90 511.36 454.69 508.78 C 460.89 506.48 461.82 498.67 460.12 493.11 C 458.57 489.04 453.74 485.49 449.34 487.18 Z" />
<path fill="#4c4a4b" opacity="1.00" d=" M 472.39 488.01 C 475.78 485.87 479.85 483.60 483.92 485.29 C 487.52 485.88 489.20 489.65 489.34 492.94 C 489.75 498.77 489.51 504.64 489.44 510.49 C 488.74 510.49 487.34 510.50 486.64 510.50 C 486.53 504.36 486.81 498.21 486.52 492.08 C 486.54 489.14 483.40 487.46 480.96 486.70 C 476.66 486.45 471.92 489.68 471.69 494.22 C 471.43 499.66 471.75 505.11 471.56 510.55 C 470.86 510.52 469.48 510.47 468.79 510.44 C 468.74 503.61 468.77 496.79 468.74 489.97 C 468.64 488.26 469.17 486.64 469.64 485.03 C 470.57 486.00 471.49 486.99 472.39 488.01 Z" />
<path fill="#4c4a4b" opacity="1.00" d=" M 509.98 492.89 C 510.14 484.28 523.10 482.01 527.93 488.00 C 531.83 495.03 526.18 504.39 532.12 510.61 C 530.91 510.58 529.71 510.55 528.51 510.52 C 527.69 509.49 526.88 508.44 526.09 507.40 C 522.35 510.91 516.55 513.19 511.86 510.05 C 507.77 507.82 507.41 500.89 511.60 498.58 C 516.17 496.15 521.59 496.90 526.39 495.14 C 526.45 492.60 526.94 489.10 524.09 487.85 C 519.73 485.07 513.58 487.41 512.13 492.36 C 511.59 492.49 510.52 492.76 509.98 492.89 M 511.68 500.84 C 511.55 502.76 511.49 504.69 511.38 506.62 C 515.00 510.49 521.71 510.16 524.92 505.96 C 527.03 503.63 526.36 500.32 526.47 497.47 C 521.41 497.90 516.34 498.76 511.68 500.84 Z" />
<path fill="#4c4a4b" opacity="1.00" d=" M 667.31 488.26 C 671.99 482.31 684.73 483.97 684.69 492.69 C 681.51 492.11 680.87 487.87 677.67 487.20 C 674.04 485.59 670.22 488.04 668.15 490.96 C 670.55 498.68 681.05 494.80 684.99 500.91 C 685.99 502.53 685.63 504.66 685.38 506.46 C 681.97 512.42 673.12 512.95 667.98 508.99 C 666.19 507.41 665.76 504.93 665.09 502.77 C 668.03 502.31 668.54 505.99 670.38 507.53 C 674.16 510.90 682.61 509.82 683.25 504.02 C 682.68 500.19 678.35 499.54 675.28 498.79 C 672.22 497.90 668.27 497.51 666.64 494.35 C 666.09 492.37 665.86 489.91 667.31 488.26 Z" />
<path fill="#4c4a4b" opacity="1.00" d=" M 691.31 485.37 C 691.87 485.37 692.98 485.36 693.54 485.36 C 693.52 493.80 693.49 502.24 693.56 510.68 C 692.99 510.68 691.86 510.68 691.29 510.68 C 691.19 502.25 691.14 493.81 691.31 485.37 Z" />
<path fill="#4c4a4b" opacity="1.00" d=" M 729.91 487.89 C 733.85 483.78 741.21 483.63 745.07 487.92 C 747.88 490.71 748.59 494.80 748.81 498.60 C 742.16 498.89 735.50 498.53 728.86 498.84 C 729.27 501.28 729.14 504.07 730.97 506.01 C 733.39 509.49 738.58 510.45 742.12 508.17 C 744.15 506.42 745.28 503.67 747.95 502.72 C 747.88 509.88 739.12 513.40 733.22 510.66 C 729.09 509.35 726.77 505.00 726.37 500.91 C 725.94 496.38 726.41 491.20 729.91 487.89 M 728.82 496.38 C 734.48 496.73 740.15 496.62 745.83 496.48 C 746.28 491.42 742.14 486.68 737.04 486.69 C 732.26 487.36 729.05 491.72 728.82 496.38 Z" />
<path fill="#4c4a4b" opacity="1.00" d=" M 756.13 486.33 C 759.11 484.91 762.62 484.15 765.83 485.30 C 769.32 485.99 771.46 489.38 771.84 492.74 C 771.30 492.65 770.23 492.48 769.69 492.40 C 768.35 490.40 767.13 487.94 764.64 487.23 C 761.33 485.82 756.60 487.48 755.49 491.06 C 755.23 493.13 757.19 494.49 758.78 495.38 C 762.73 497.23 767.89 496.46 771.03 499.91 C 773.57 502.43 772.96 507.07 770.07 509.09 C 765.77 512.42 759.23 512.29 754.94 509.02 C 753.09 507.45 752.67 504.91 752.05 502.71 C 755.53 502.50 755.60 507.36 758.56 508.45 C 762.86 510.93 771.49 508.61 769.64 502.39 C 765.81 497.52 757.97 499.77 753.95 495.11 C 752.44 492.27 752.98 487.85 756.13 486.33 Z" />
<path fill="#4c4a4b" opacity="1.00" d=" M 777.94 488.98 C 782.22 482.14 795.79 483.69 795.92 492.78 C 795.38 492.67 794.30 492.44 793.76 492.32 C 792.21 488.04 786.97 485.06 782.77 487.65 C 780.07 488.42 779.34 492.02 780.91 494.06 C 784.72 497.05 790.11 496.33 794.16 498.86 C 797.68 501.11 797.66 506.85 794.25 509.20 C 789.84 512.32 783.31 512.36 779.05 508.97 C 777.43 507.21 775.35 504.17 777.74 502.19 C 779.30 504.28 780.32 506.94 782.57 508.42 C 785.91 510.08 790.32 509.63 793.12 507.09 C 794.76 505.25 793.95 502.82 793.30 500.78 C 789.16 499.37 784.80 498.73 780.74 497.13 C 777.51 495.99 776.38 491.85 777.94 488.98 Z" />
<path fill="#4c4a4b" opacity="1.00" d=" M 851.47 485.41 C 851.99 485.39 853.01 485.35 853.52 485.33 C 853.64 486.97 853.76 488.62 853.93 490.28 C 856.82 487.91 859.68 484.96 863.74 485.11 C 863.72 485.69 863.68 486.85 863.66 487.43 C 860.02 488.39 855.48 489.75 854.67 494.03 C 853.97 499.50 854.55 505.04 854.37 510.55 C 853.39 510.58 852.42 510.62 851.47 510.67 C 851.46 502.25 851.46 493.83 851.47 485.41 Z" />
<path fill="#4c4a4b" opacity="1.00" d=" M 868.48 488.45 C 872.38 483.63 880.69 483.45 884.60 488.37 C 887.16 491.13 887.66 495.02 887.85 498.63 C 881.24 498.86 874.62 498.55 868.01 498.83 C 868.29 501.48 868.46 504.42 870.46 506.45 C 872.78 509.43 877.13 510.17 880.50 508.60 C 883.41 507.21 884.15 503.08 887.54 502.49 C 886.84 509.24 879.20 513.27 873.06 510.93 C 869.67 510.05 867.16 507.25 866.17 503.96 C 864.60 498.83 864.86 492.68 868.48 488.45 M 868.12 496.51 C 873.93 496.61 879.75 496.71 885.57 496.42 C 884.69 492.87 883.33 488.68 879.46 487.44 C 873.85 484.72 867.68 490.84 868.12 496.51 Z" />
<path fill="#4c4a4b" opacity="1.00" d=" M 897.44 485.70 C 902.01 483.97 909.26 484.14 911.29 489.48 C 912.36 494.59 911.65 499.85 911.91 505.04 C 911.81 507.33 913.89 508.76 915.04 510.51 C 913.85 510.52 912.67 510.54 911.50 510.56 C 910.59 509.61 909.70 508.65 908.83 507.71 C 905.83 509.55 902.70 511.99 898.96 511.50 C 896.62 511.20 893.99 510.53 892.56 508.50 C 890.23 505.22 891.06 499.78 895.02 498.14 C 899.31 496.41 904.06 496.64 908.49 495.45 C 909.74 492.73 909.48 488.85 906.32 487.62 C 901.79 485.02 896.09 487.89 894.45 492.59 C 893.88 492.65 892.74 492.75 892.17 492.81 C 893.01 489.94 894.16 486.52 897.44 485.70 M 896.85 499.77 C 893.05 500.87 893.25 506.89 896.59 508.44 C 900.09 510.47 904.53 508.89 907.38 506.41 C 909.47 503.95 909.29 500.52 909.38 497.50 C 905.15 497.85 900.87 498.36 896.85 499.77 Z" />
<path fill="#4c4a4b" opacity="1.00" d=" M 949.42 485.65 C 955.45 482.96 963.10 486.44 964.98 492.78 C 966.42 498.09 966.08 504.74 961.59 508.57 C 956.20 513.82 946.02 511.64 943.33 504.60 C 940.28 498.06 942.19 488.46 949.42 485.65 M 951.36 487.26 C 941.53 490.20 942.57 508.18 953.00 509.36 C 960.75 510.17 965.11 500.80 962.69 494.33 C 961.65 489.54 956.27 485.20 951.36 487.26 Z" />
<path fill="#4c4a4b" opacity="1.00" d=" M 1012.53 493.28 C 1011.22 483.50 1028.41 481.40 1031.12 490.03 C 1031.72 494.98 1031.07 499.99 1031.37 504.96 C 1031.28 507.24 1033.30 508.75 1034.32 510.60 C 1031.76 510.84 1029.81 509.37 1028.04 507.75 C 1025.57 509.35 1023.11 511.50 1020.01 511.52 C 1016.56 511.79 1012.61 510.08 1011.35 506.70 C 1010.95 504.15 1010.80 500.79 1013.16 499.13 C 1017.40 495.77 1023.28 497.22 1028.03 495.18 C 1029.25 493.57 1028.39 491.19 1028.65 489.28 C 1025.91 487.59 1022.57 485.73 1019.33 487.20 C 1015.89 487.79 1015.46 491.95 1012.53 493.28 M 1015.99 499.93 C 1012.77 501.51 1012.93 506.37 1015.79 508.24 C 1020.03 510.98 1025.81 508.40 1028.37 504.48 C 1028.81 502.13 1028.69 499.73 1028.75 497.36 C 1024.48 498.06 1020.05 498.38 1015.99 499.93 Z" />
<path fill="#4c4a4b" opacity="1.00" d=" M 364.85 485.37 C 367.83 485.21 368.27 488.52 369.21 490.65 C 371.40 496.30 372.69 502.38 375.90 507.57 C 378.98 500.45 380.76 492.82 384.11 485.82 C 384.63 485.72 385.67 485.51 386.19 485.41 C 383.89 493.96 380.17 502.05 377.21 510.39 C 376.25 510.49 375.29 510.61 374.34 510.73 C 370.91 502.39 367.24 494.07 364.85 485.37 Z" />
<path fill="#4c4a4b" opacity="1.00" d=" M 431.60 485.55 C 432.28 485.55 433.66 485.56 434.35 485.56 C 434.46 493.87 434.42 502.19 434.37 510.50 C 433.67 510.50 432.27 510.51 431.58 510.51 C 431.51 502.19 431.47 493.87 431.60 485.55 Z" />
<path fill="#4c4a4b" opacity="1.00" d=" M 639.49 497.00 C 639.82 492.92 638.46 488.34 640.98 484.75 C 641.31 485.29 641.98 486.37 642.32 486.91 C 642.83 493.39 641.80 499.97 642.84 506.41 C 646.26 511.02 654.67 510.10 656.45 504.41 C 658.51 498.36 656.92 491.78 657.51 485.52 C 658.18 485.55 659.50 485.59 660.17 485.62 C 660.13 493.70 660.46 501.81 660.04 509.88 C 658.93 512.01 657.34 509.09 656.70 508.02 C 653.19 510.64 648.52 512.92 644.23 510.67 C 638.96 508.41 639.50 501.75 639.49 497.00 Z" />
<path fill="#4c4a4b" opacity="1.00" d=" M 933.88 485.78 C 934.50 485.68 935.74 485.46 936.36 485.35 C 936.48 493.75 936.39 502.16 936.41 510.56 C 935.74 510.53 934.41 510.47 933.74 510.43 C 933.83 502.22 933.51 493.99 933.88 485.78 Z" />
</g>
<g id="#0070beff">
<path fill="#0070be" opacity="1.00" d=" M 929.04 298.33 C 932.54 298.29 936.04 298.29 939.55 298.37 C 939.70 308.82 939.26 319.29 939.76 329.73 C 945.88 329.68 952.00 329.63 958.12 329.74 C 958.20 333.05 958.20 336.36 958.05 339.67 C 951.90 339.70 945.75 339.59 939.61 339.73 C 939.46 371.50 939.61 403.27 939.54 435.04 C 939.41 437.51 940.00 440.37 942.39 441.63 C 947.24 444.38 952.90 442.71 958.13 442.50 C 958.18 445.76 958.18 449.03 958.13 452.29 C 950.74 452.51 942.97 453.78 935.87 451.17 C 930.97 449.35 928.70 444.00 928.85 439.06 C 928.81 405.96 928.84 372.87 928.83 339.77 C 924.63 339.62 920.43 339.65 916.23 339.70 C 916.20 336.34 916.20 332.98 916.33 329.62 C 920.52 329.71 924.71 329.74 928.90 329.56 C 928.89 319.16 928.60 308.73 929.04 298.33 Z" />
<path fill="#0070be" opacity="1.00" d=" M 1074.36 339.37 C 1079.84 333.70 1086.95 329.26 1094.94 328.51 C 1100.56 328.04 1106.46 329.50 1110.88 333.09 C 1114.06 335.57 1116.01 339.18 1118.08 342.55 C 1121.75 338.08 1125.55 333.36 1130.96 330.91 C 1140.51 326.06 1153.82 327.67 1160.53 336.52 C 1165.29 342.56 1165.77 350.60 1165.82 357.99 C 1165.84 389.40 1165.81 420.80 1165.84 452.21 C 1162.38 452.29 1158.93 452.28 1155.49 452.35 C 1155.75 423.91 1155.48 395.46 1155.62 367.01 C 1155.65 362.55 1155.59 358.09 1155.07 353.67 C 1154.68 349.58 1153.98 345.14 1150.95 342.10 C 1147.79 339.10 1143.22 338.10 1138.98 338.38 C 1129.78 338.51 1121.33 345.99 1119.79 354.96 C 1119.72 387.37 1119.77 419.79 1119.77 452.20 C 1116.28 452.33 1112.80 452.33 1109.34 452.14 C 1109.41 420.09 1109.32 388.04 1109.38 356.00 C 1109.44 350.43 1107.88 344.21 1103.01 340.92 C 1098.92 337.70 1093.34 337.90 1088.48 338.69 C 1082.90 340.24 1078.00 344.10 1075.09 349.10 C 1074.27 350.23 1074.24 351.65 1074.22 352.98 C 1074.18 386.05 1074.32 419.12 1074.15 452.19 C 1070.65 452.31 1067.15 452.30 1063.65 452.28 C 1063.84 411.42 1063.77 370.56 1063.69 329.70 C 1067.20 329.66 1070.71 329.65 1074.23 329.78 C 1074.30 332.97 1074.27 336.17 1074.36 339.37 Z" />
<path fill="#0070be" opacity="1.00" d=" M 976.50 329.98 C 979.89 329.54 983.32 329.61 986.74 329.82 C 986.76 358.88 986.76 387.94 986.74 417.00 C 987.01 424.53 986.66 433.04 991.78 439.18 C 996.59 444.94 1005.46 444.94 1011.75 441.83 C 1015.44 439.99 1017.94 436.58 1020.11 433.19 C 1021.75 430.81 1022.72 428.00 1022.61 425.09 C 1022.52 408.39 1022.56 391.69 1022.55 375.00 C 1022.74 359.99 1022.17 344.97 1022.82 329.97 C 1025.93 329.85 1029.04 329.86 1032.16 330.01 C 1032.72 336.99 1032.40 344.00 1032.44 351.00 C 1032.48 384.76 1032.38 418.53 1032.49 452.29 C 1029.07 452.30 1025.66 452.31 1022.25 452.18 C 1022.26 448.73 1022.30 445.27 1022.17 441.82 C 1018.60 445.08 1015.21 448.73 1010.66 450.64 C 1005.88 452.58 1000.48 454.14 995.35 452.65 C 988.81 451.45 982.81 447.36 979.74 441.39 C 976.71 435.78 976.40 429.23 976.52 423.00 C 976.53 392.00 976.56 360.99 976.50 329.98 Z" />
</g>
</svg>
