<?xml version="1.0" encoding="UTF-8" ?>
<!DOCTYPE svg PUBLIC "-//W3C//DTD SVG 1.1//EN" "http://www.w3.org/Graphics/SVG/1.1/DTD/svg11.dtd">
<svg width="1200pt" height="630pt" viewBox="0 0 1200 630" version="1.1" xmlns="http://www.w3.org/2000/svg">
<g id="#000000ff">
<path fill="#000000" opacity="1.00" d=" M 517.59 162.76 C 571.65 162.73 625.70 162.68 679.76 162.78 C 679.76 216.95 679.73 271.12 679.77 325.29 C 625.69 325.33 571.60 325.31 517.52 325.29 C 517.66 271.12 517.51 216.94 517.59 162.76 M 539.32 180.74 C 553.54 201.58 567.73 222.45 582.16 243.16 C 567.21 264.74 552.27 286.34 537.54 308.08 C 548.31 307.99 559.09 308.30 569.86 307.90 C 579.22 293.95 588.54 279.98 597.78 265.95 C 607.13 280.02 616.90 293.82 626.32 307.84 C 637.42 308.36 648.54 307.96 659.66 308.08 C 652.68 297.53 645.38 287.20 638.27 276.74 C 616.15 244.76 594.38 212.53 572.08 180.68 C 561.16 180.92 550.24 180.81 539.32 180.74 M 606.12 210.76 C 611.39 218.33 616.49 226.03 621.88 233.51 C 633.85 215.89 645.99 198.39 657.90 180.72 C 647.19 180.81 636.48 180.95 625.78 180.66 C 619.13 190.63 612.56 200.65 606.12 210.76 Z" />
<path fill="#000000" opacity="1.00" d=" M 629.06 187.06 C 634.74 186.89 640.42 186.97 646.11 186.97 C 637.93 198.74 629.84 210.57 621.84 222.47 C 619.13 218.53 616.44 214.59 613.64 210.72 C 618.74 202.81 623.93 194.96 629.06 187.06 Z" />
<path fill="#000000" opacity="1.00" d=" M 1060.08 385.11 C 1068.38 378.53 1079.69 377.77 1089.79 379.30 C 1097.56 380.74 1104.81 385.15 1108.70 392.18 C 1105.45 393.98 1102.17 395.70 1098.90 397.42 C 1091.75 389.94 1079.55 387.06 1070.35 392.35 C 1066.24 394.46 1064.41 400.70 1067.88 404.16 C 1071.15 407.18 1075.75 408.10 1080.02 408.71 C 1087.46 409.41 1095.05 410.72 1101.71 414.27 C 1109.61 418.63 1113.31 428.94 1110.39 437.41 C 1108.78 442.77 1104.91 447.33 1099.93 449.87 C 1088.04 456.04 1073.18 455.88 1061.36 449.64 C 1056.31 446.85 1052.74 442.10 1050.30 436.98 C 1053.80 435.13 1057.30 433.25 1060.84 431.47 C 1066.86 442.91 1082.90 445.59 1093.66 439.67 C 1097.95 437.46 1098.99 431.80 1097.32 427.60 C 1094.53 422.75 1088.43 421.75 1083.40 420.83 C 1075.79 419.89 1067.81 419.05 1061.23 414.74 C 1051.32 408.51 1050.94 392.21 1060.08 385.11 Z" />
<path fill="#000000" opacity="1.00" d=" M 87.81 380.91 C 93.55 380.78 99.29 380.86 105.03 380.83 C 121.49 404.47 137.61 428.34 154.05 452.00 C 148.11 452.01 142.17 452.08 136.24 451.90 C 130.84 443.83 125.28 435.87 119.79 427.87 C 114.05 435.55 109.46 444.05 103.55 451.60 C 97.85 452.57 91.97 451.77 86.20 452.00 C 94.87 440.15 102.90 427.85 111.28 415.81 C 103.85 403.92 95.36 392.72 87.81 380.91 Z" />
<path fill="#000000" opacity="1.00" d=" M 125.01 397.15 C 128.98 391.96 131.68 385.72 136.11 380.97 C 141.64 380.60 147.21 380.88 152.75 380.93 C 146.29 390.41 139.88 399.91 133.27 409.28 C 130.53 405.23 127.70 401.24 125.01 397.15 Z" />
<path fill="#000000" opacity="1.00" d=" M 209.07 381.08 C 219.38 380.79 229.70 381.03 240.01 380.92 C 247.52 380.77 255.57 382.48 261.08 387.92 C 271.00 397.50 270.84 415.28 260.59 424.58 C 255.85 428.88 249.41 431.13 243.04 431.11 C 235.98 431.18 228.92 431.02 221.86 431.18 C 222.04 438.13 222.11 445.09 221.89 452.04 C 217.59 452.15 213.29 452.16 209.00 452.08 C 208.95 428.41 208.81 404.74 209.07 381.08 M 222.07 393.59 C 222.20 402.13 222.01 410.67 222.19 419.21 C 229.59 419.01 237.01 419.47 244.40 418.99 C 251.93 418.33 257.27 410.30 255.15 403.05 C 254.01 397.56 248.67 393.31 243.05 393.53 C 236.05 393.46 229.06 393.49 222.07 393.59 Z" />
<path fill="#000000" opacity="1.00" d=" M 329.08 381.07 C 339.73 380.84 350.39 381.04 361.04 380.94 C 368.26 380.82 375.98 382.51 381.31 387.68 C 390.23 395.79 390.79 410.99 383.06 420.07 C 380.03 423.63 375.49 425.14 371.29 426.80 C 370.64 428.20 372.01 429.17 372.76 430.18 C 379.34 437.37 385.77 444.71 392.20 452.04 C 388.10 452.13 384.00 452.21 379.91 452.14 C 378.29 452.01 376.32 452.23 375.23 450.76 C 368.43 443.54 362.38 435.61 355.51 428.47 C 351.12 427.67 346.59 428.25 342.15 428.18 C 342.02 436.15 342.13 444.12 342.09 452.08 C 337.76 452.16 333.43 452.15 329.11 452.04 C 328.90 428.38 328.95 404.72 329.08 381.07 M 342.31 393.34 C 342.31 401.02 342.28 408.71 342.33 416.39 C 349.52 416.32 356.71 416.47 363.90 416.35 C 368.34 416.43 372.73 413.68 374.41 409.54 C 377.10 403.28 373.62 394.86 366.62 393.62 C 358.54 392.94 350.40 393.49 342.31 393.34 Z" />
<path fill="#000000" opacity="1.00" d=" M 448.79 380.99 C 466.44 380.91 484.09 380.92 501.74 380.98 C 501.67 385.09 501.68 389.21 501.76 393.32 C 484.11 393.42 466.46 393.38 448.81 393.34 C 448.79 389.22 448.80 385.11 448.79 380.99 Z" />
<path fill="#000000" opacity="1.00" d=" M 566.81 380.97 C 570.41 380.92 574.02 380.92 577.62 381.10 C 587.46 394.29 597.98 406.94 608.01 419.97 C 609.33 421.74 610.88 423.33 612.68 424.63 C 613.15 410.09 612.75 395.54 612.88 381.00 C 617.22 380.91 621.57 380.89 625.92 381.07 C 626.04 404.73 626.10 428.41 625.89 452.07 C 623.24 452.10 620.59 452.12 617.95 452.16 C 608.92 440.80 600.18 429.21 591.15 417.84 C 587.38 413.18 584.13 408.07 579.83 403.87 C 579.53 419.93 579.71 436.01 579.75 452.08 C 575.43 452.15 571.12 452.15 566.81 452.09 C 566.82 428.38 566.81 404.68 566.81 380.97 Z" />
<path fill="#000000" opacity="1.00" d=" M 689.49 380.96 C 707.15 380.93 724.80 380.93 742.46 380.96 C 742.42 385.09 742.43 389.22 742.44 393.35 C 724.79 393.40 707.15 393.36 689.51 393.37 C 689.46 389.23 689.47 385.10 689.49 380.96 Z" />
<path fill="#000000" opacity="1.00" d=" M 804.43 381.15 C 808.65 380.95 812.88 380.94 817.11 381.12 C 817.23 395.09 817.07 409.07 817.17 423.05 C 817.13 430.14 820.67 437.85 827.63 440.50 C 834.97 443.39 844.84 442.59 849.87 435.87 C 853.32 431.37 854.14 425.54 853.92 420.02 C 853.91 407.05 853.81 394.08 853.96 381.11 C 858.26 380.93 862.58 380.92 866.89 381.23 C 867.14 393.49 866.93 405.75 867.01 418.00 C 866.75 426.93 865.73 436.62 859.74 443.72 C 854.69 450.05 846.62 452.76 838.90 454.04 C 832.13 454.73 825.31 452.68 819.28 449.71 C 810.14 445.06 804.68 434.95 804.56 424.86 C 804.33 410.29 804.58 395.72 804.43 381.15 Z" />
<path fill="#000000" opacity="1.00" d=" M 931.42 381.05 C 942.30 380.88 953.17 381.01 964.05 380.95 C 971.65 380.92 979.78 383.17 984.99 388.99 C 991.69 396.71 992.60 408.52 987.38 417.28 C 984.31 422.64 978.42 425.30 972.75 426.96 C 979.38 435.77 987.45 443.38 994.28 452.03 C 989.52 452.10 984.76 452.32 980.02 452.04 C 978.62 452.11 977.72 450.97 976.85 450.10 C 970.33 442.96 964.40 435.27 957.61 428.39 C 953.18 427.76 948.68 428.21 944.23 428.21 C 944.17 436.17 944.22 444.13 944.22 452.10 C 939.95 452.15 935.68 452.16 931.42 452.02 C 931.51 428.36 931.51 404.70 931.42 381.05 M 944.43 393.36 C 944.48 401.03 944.45 408.70 944.46 416.38 C 951.89 416.31 959.33 416.51 966.77 416.32 C 971.04 416.28 974.95 413.44 976.74 409.63 C 979.80 403.08 975.46 393.98 967.94 393.48 C 960.11 393.10 952.26 393.40 944.43 393.36 Z" />
<path fill="#000000" opacity="1.00" d=" M 448.80 410.78 C 465.98 410.72 483.15 410.72 500.33 410.78 C 500.32 414.82 500.33 418.87 500.32 422.92 C 487.39 423.12 474.46 423.00 461.53 422.97 C 461.51 428.44 461.47 433.92 461.56 439.39 C 474.96 439.61 488.37 439.36 501.78 439.52 C 501.67 443.70 501.67 447.90 501.73 452.09 C 484.08 452.16 466.43 452.14 448.79 452.10 C 448.82 438.33 448.80 424.55 448.80 410.78 Z" />
<path fill="#000000" opacity="1.00" d=" M 689.48 410.77 C 706.65 410.73 723.81 410.73 740.98 410.77 C 741.04 414.80 741.06 418.83 740.86 422.86 C 727.95 423.23 715.04 422.85 702.14 423.05 C 702.13 428.52 702.09 433.99 702.20 439.46 C 715.61 439.51 729.03 439.42 742.44 439.50 C 742.43 443.70 742.42 447.90 742.47 452.10 C 724.81 452.14 707.15 452.14 689.49 452.10 C 689.48 438.32 689.49 424.55 689.48 410.77 Z" />
</g>
<g id="#ffffffff">
<path fill="#ffffff" opacity="1.00" d=" M 539.32 180.74 C 550.24 180.81 561.16 180.92 572.08 180.68 C 594.38 212.53 616.15 244.76 638.27 276.74 C 645.38 287.20 652.68 297.53 659.66 308.08 C 648.54 307.96 637.42 308.36 626.32 307.84 C 616.90 293.82 607.13 280.02 597.78 265.95 C 588.54 279.98 579.22 293.95 569.86 307.90 C 559.09 308.30 548.31 307.99 537.54 308.08 C 552.27 286.34 567.21 264.74 582.16 243.16 C 567.73 222.45 553.54 201.58 539.32 180.74 Z" />
<path fill="#ffffff" opacity="1.00" d=" M 606.12 210.76 C 612.56 200.65 619.13 190.63 625.78 180.66 C 636.48 180.95 647.19 180.81 657.90 180.72 C 645.99 198.39 633.85 215.89 621.88 233.51 C 616.49 226.03 611.39 218.33 606.12 210.76 M 629.06 187.06 C 623.93 194.96 618.74 202.81 613.64 210.72 C 616.44 214.59 619.13 218.53 621.84 222.47 C 629.84 210.57 637.93 198.74 646.11 186.97 C 640.42 186.97 634.74 186.89 629.06 187.06 Z" />
</g>
</svg>
