<svg xmlns="http://www.w3.org/2000/svg" viewBox="0 0 714 302.89"><defs><style>.cls-1{isolation:isolate;}.cls-2,.cls-5{fill:#431d93;}.cls-3{fill:#c2c2c0;}.cls-4{fill:#424240;}.cls-5{opacity:0.24;mix-blend-mode:multiply;}.cls-6{fill:#2bd978;}.cls-7{fill:#4bea8b;}.cls-8{fill:#28c969;}.cls-9{fill:#214a81;}.cls-10{fill:#fff;}.cls-11{fill:#cee0f0;}.cls-12{fill:#3464a3;}.cls-13{fill:#f2f2f0;}.cls-14{fill:#d6d6d6;}</style></defs><title>signup</title><g class="cls-1"><g id="Layer_2" data-name="Layer 2"><g id="OBJECTS"><path class="cls-2" d="M715,.32V302.89H407.23c-5.61-21-6.06-66.39,16.11-77.55,11.14-5.6,24.07-5.83,36.5-6.8,2.48-.19,5-.43,7.49-.77,10-1.32,20-4.07,27.33-10.8,6.75-6.16,10.27-14.69,11.71-23.81a69.18,69.18,0,0,0,.79-10.88c0-.94,0-1.87-.06-2.8-.08-2-.23-4.07-.44-6.06-1.67-15.55-6.32-30.9-5.37-46.51,2.14-35,37-64.51,71.84-60.86,11,1.14,21.43,5,32.27,6.89,28,4.77,33.07-13,44.3-32.39C661.83,9.65,691.51-2.13,715,.32Z" transform="translate(-1)"/><path class="cls-3" d="M715,103.78v2.79L683.65,136.9l-5.35,5.17-4.18-6.62-19.69-31.16L626.17,151.4l-18.76-35.54-53,51.72-5.33,5.2-4.39-4.64L531.24,154l-3-3.16-3.06,3.11-18,18.37c0-.94,0-1.87-.06-2.8l16.67-17,4.5-4.59,4.42,4.67,13.13,13.87,3.28,3.47,4-3.86,54.87-53.52,18.35,34.77,28.11-46.84,21.23,33.6,3.06,4.84,3.92-3.79Z" transform="translate(-1)"/><circle class="cls-3" cx="527.26" cy="149.36" r="5.49"/><circle class="cls-3" cx="548.66" cy="170.38" r="5.49"/><circle class="cls-3" cx="653.41" cy="102.39" r="5.49"/><circle class="cls-3" cx="677.49" cy="138.76" r="5.49"/><path class="cls-4" d="M715,170.38V302.89H407.23c-5.61-21-6.06-66.39,16.11-77.55,11.14-5.6,24.07-5.83,36.5-6.8,2.48-.19,5-.43,7.49-.77,10-1.32,20-4.07,27.33-10.8,6.75-6.16,10.27-14.69,11.71-23.81h9.3a4.08,4.08,0,0,1,4.09,4.08v18a4.08,4.08,0,0,0,4.09,4.08h1.89a4.08,4.08,0,0,1,4.09,4.09v7.39a4.08,4.08,0,0,0,4.08,4.08h9.88a4.08,4.08,0,0,0,4.09-4.08V199.15a4.08,4.08,0,0,1,1.2-2.89l8-8a4.09,4.09,0,0,1,5.78,0l7.2,7.21a4.08,4.08,0,0,1,1.2,2.89v13a4.08,4.08,0,0,0,4.09,4.09h0a4.08,4.08,0,0,0,4.09-4.09V205a4.09,4.09,0,0,1,4.08-4.09h22.37A4.08,4.08,0,0,1,610,205v15.83a4.08,4.08,0,0,0,4.09,4.08H624a4.08,4.08,0,0,0,2.89-1.2l11.79-11.78a4.09,4.09,0,0,1,5.78,0l10.8,10.8a4.09,4.09,0,0,1,1.2,2.89v4.19a4.08,4.08,0,0,0,4.09,4.09h2.66a4.08,4.08,0,0,0,4.09-4.09V210.23a4.09,4.09,0,0,1,1.2-2.89l6.48-6.48a4.09,4.09,0,0,1,5.78,0l7,7a4.09,4.09,0,0,1,1.2,2.89v7.44a4.09,4.09,0,0,0,4.09,4.09h1.16a4.09,4.09,0,0,0,4.09-4.09V194.2a4.09,4.09,0,0,1,4.08-4.09h3.38a4.09,4.09,0,0,0,4.09-4.09V174.47a4.08,4.08,0,0,1,4.09-4.08Z" transform="translate(-1)"/><path class="cls-5" d="M430.62,236.47c11.13-5.6,24.07-5.84,36.5-6.8s25.61-3.16,34.81-11.57c11.55-10.54,13.66-28,12-43.56s-6.32-30.9-5.37-46.51c2.14-35,37-64.51,71.84-60.86,11,1.14,21.43,5,32.28,6.89,28,4.77,33.06-13,44.3-32.39,10.9-18.79,36-30.21,58-30.54V.32c-23.49-2.45-53.17,9.33-65.3,30.23-11.24,19.38-16.33,37.16-44.3,32.39-10.85-1.85-21.32-5.75-32.28-6.89-34.88-3.64-69.7,25.86-71.84,60.86-1,15.61,3.71,31,5.37,46.51s-.45,33-12,43.56c-9.2,8.41-22.39,10.6-34.81,11.57s-25.37,1.2-36.5,6.8c-22.17,11.16-21.72,56.57-16.11,77.55h5.13C409.29,280,411.83,245.92,430.62,236.47Z" transform="translate(-1)"/><path class="cls-6" d="M565.75,175.32c3.8-6.57,10.16-14.22,20.14-17.27l-8-31.53s-7.26,15.45-19.11,47.26c-.63,1.69,1.57,3.19,3.2,3.19H563A3.15,3.15,0,0,0,565.75,175.32Z" transform="translate(-1)"/><path class="cls-7" d="M577.88,126.52s-7.26,15.45-19.11,47.26c-.5,1.33.78,2.55,2.14,3,4.31-15.52,11.39-29.8,18.55-44Z" transform="translate(-1)"/><path class="cls-6" d="M560.91,176.78A3.45,3.45,0,0,0,562,177H563a3.15,3.15,0,0,0,2.7-1.65c3.8-6.57,10.16-14.22,20.14-17.27l-6.43-25.31C572.3,147,565.22,161.26,560.91,176.78Z" transform="translate(-1)"/><path class="cls-8" d="M642.34,175.32c-3.8-6.57-10.16-14.22-20.14-17.27l8-31.53s7.26,15.45,19.11,47.26c.63,1.69-1.57,3.19-3.2,3.19H645A3.15,3.15,0,0,1,642.34,175.32Z" transform="translate(-1)"/><path class="cls-9" d="M613.17,167.36h-19a1.66,1.66,0,0,1-1.57-1.4l-1-5.14a1.75,1.75,0,0,1,1.57-2.19h21.1a1.75,1.75,0,0,1,1.57,2.19l-1,5.14A1.66,1.66,0,0,1,613.17,167.36Z" transform="translate(-1)"/><path class="cls-10" d="M576.28,114.4s2.92,29.94,11.94,48.91a37.37,37.37,0,0,1,31.31,0S629.87,147.3,632,112c1.22-20.33-.24-43.53-6.26-63.53H583.65C578,64.79,574.06,86.66,576.28,114.4Z" transform="translate(-1)"/><path class="cls-10" d="M630.65,72.28a151.1,151.1,0,0,0-5-23.72H583.59c-5.6,16.29-9.59,38.16-7.37,65.9a224.71,224.71,0,0,0,3.59,22.34C604.9,126.3,623.26,101,630.65,72.28Z" transform="translate(-1)"/><path class="cls-11" d="M579.81,136.8c1.87,8.78,4.57,18.63,8.35,26.57a37.37,37.37,0,0,1,31.31,0s10.35-16,12.47-51.28a211.65,211.65,0,0,0-1.29-39.81C623.26,101,604.9,126.3,579.81,136.8Z" transform="translate(-1)"/><path class="cls-6" d="M600.71,16.12c-4.23,5.35-11.49,16.08-17.12,32.44h42.08c-3.86-12.8-9.58-24.28-17.67-32.84A4.72,4.72,0,0,0,600.71,16.12Z" transform="translate(-1)"/><path class="cls-6" d="M604.88,14.23a4.83,4.83,0,0,0-4.17,1.89c-4.23,5.35-11.49,16.08-17.12,32.44h24.64A11.21,11.21,0,0,0,609.7,45,60.59,60.59,0,0,0,604.88,14.23Z" transform="translate(-1)"/><path class="cls-7" d="M598.66,35.23c3-5,4.07-10,2.5-11.14S595.92,26,593,31s-4.07,10-2.5,11.14S595.7,40.23,598.66,35.23Z" transform="translate(-1)"/><path class="cls-8" d="M608,15.72a4.73,4.73,0,0,0-3.12-1.5A60.59,60.59,0,0,1,609.7,45a11.21,11.21,0,0,1-1.47,3.59h17.44C621.82,35.77,616.1,24.28,608,15.72Z" transform="translate(-1)"/><path class="cls-6" d="M606.67,174.32A105.45,105.45,0,0,0,603.35,113s-10.64,27-2.92,61.21a3.33,3.33,0,0,0,3.13,2.74h0A3.3,3.3,0,0,0,606.67,174.32Z" transform="translate(-1)"/><path class="cls-6" d="M603.05,113.82c-1.54,4.36-8.49,26.25-3.87,54C604.45,150.56,604.59,132.19,603.05,113.82Z" transform="translate(-1)"/><path class="cls-8" d="M603.35,113s-.11.28-.29.81c1.54,18.37,1.4,36.74-3.87,54q.52,3.15,1.25,6.39a3.15,3.15,0,0,0,6.24.09A105.45,105.45,0,0,0,603.35,113Z" transform="translate(-1)"/><circle class="cls-6" cx="603.67" cy="82.54" r="18.14"/><circle class="cls-9" cx="603.67" cy="82.54" r="12.59"/><path class="cls-12" d="M605.59,70c-3.48,7.06-6.57,14.2-10.06,21.19a12.61,12.61,0,0,0,5.76,3.47c2.92-7.86,6.36-15.39,10-22.85A12.54,12.54,0,0,0,605.59,70Z" transform="translate(-1)"/><path class="cls-9" d="M611.25,71.81c-3.6,7.45-7,15-10,22.85a12.58,12.58,0,0,0,10-22.85Z" transform="translate(-1)"/><path class="cls-9" d="M604.67,69.95a12.58,12.58,0,0,0-9.14,21.24c3.49-7,6.58-14.13,10.06-21.19C605.29,70,605,69.95,604.67,69.95Z" transform="translate(-1)"/><path class="cls-10" d="M683.94,70.35l1.36,3.32a.64.64,0,0,0,.35.35L689,75.37a.64.64,0,0,1,0,1.19l-3.32,1.36a.64.64,0,0,0-.35.35l-1.36,3.32a.64.64,0,0,1-1.19,0l-1.36-3.32a.64.64,0,0,0-.35-.35l-3.32-1.36a.64.64,0,0,1,0-1.19L681,74a.64.64,0,0,0,.35-.35l1.36-3.32A.64.64,0,0,1,683.94,70.35Z" transform="translate(-1)"/><path class="cls-10" d="M548.47,117.86l1.36,3.32a.64.64,0,0,0,.35.35l3.32,1.36a.64.64,0,0,1,0,1.19l-3.32,1.36a.64.64,0,0,0-.35.35l-1.36,3.32a.64.64,0,0,1-1.19,0l-1.36-3.32a.64.64,0,0,0-.35-.35l-3.32-1.36a.64.64,0,0,1,0-1.19l3.32-1.36a.64.64,0,0,0,.35-.35l1.36-3.32A.64.64,0,0,1,548.47,117.86Z" transform="translate(-1)"/><path class="cls-10" d="M640.36,185.81l1.36,3.32a.64.64,0,0,0,.35.35l3.32,1.36a.64.64,0,0,1,0,1.19l-3.32,1.36a.64.64,0,0,0-.35.35l-1.36,3.32a.64.64,0,0,1-1.19,0l-1.36-3.32a.64.64,0,0,0-.35-.35L634.14,192a.64.64,0,0,1,0-1.19l3.32-1.36a.64.64,0,0,0,.35-.35l1.36-3.32A.64.64,0,0,1,640.36,185.81Z" transform="translate(-1)"/><path class="cls-13" d="M715,257v45.88H409.8a7.43,7.43,0,0,1,.27-1.13,13.82,13.82,0,0,1,10-8.9c4.55-1.06,7-1.4,11,1a23.11,23.11,0,0,1,28.18-32.39,27.29,27.29,0,0,1,14.84,13,17.32,17.32,0,0,1,6.37-14,17.92,17.92,0,0,1,21.1,0,14.18,14.18,0,0,1,1.37,1.2,17.68,17.68,0,0,1-1-1.62c-3.55-6.83-2.09-15.87,3-21.75,5.5-6.36,14.49-9.11,22.84-8.12s16.37,6.29,22.47,12.07c43.33-14,44.73-74.88,44.73-74.88l8.07-2.46,8.08,2.46s1.39,60.88,44.73,74.88c6.1-5.78,14.12-11.07,22.47-12.07s17.34,1.76,22.84,8.12,6.76,16.41,2,23.37A16.76,16.76,0,0,1,715,257Z" transform="translate(-1)"/><path class="cls-14" d="M694.49,302.89H549.66c.85-7.61,4.21-15.06,10.92-18.51a20.37,20.37,0,0,1,24.19,4.87c-3.47-15.67,8.48-33,24.35-35.33s32.3,10.82,33.49,26.82c.51-7.08,8.08-12.76,15-11.27s11.5,9.78,9.06,16.44c6.36-5.74,17.19-5.54,23.34.43A17.69,17.69,0,0,1,694.49,302.89Z" transform="translate(-1)"/><path class="cls-10" d="M591.91,302.89H467.47a15.86,15.86,0,0,1,27.77-12.65c-2.76-9.36-1.43-20.12,4.59-27.79a22.39,22.39,0,0,1,1.77-2L502,260c6.25-6,15.79-8.75,23.94-5.78s13.64,11.78,12.69,20.13c2.57-6.74,10.78-11.23,17.77-8.92,8.11,2.68,12.09,13.71,7.56,21a17,17,0,0,1,27.94,16.47Z" transform="translate(-1)"/><circle class="cls-7" cx="680.63" cy="179.88" r="17.57" transform="translate(-24.21 165.11) rotate(-13.6)"/><path class="cls-6" d="M697.71,175.74a17.53,17.53,0,0,0-10.26-12,17.55,17.55,0,0,1-19,28.85,17.56,17.56,0,0,0,29.23-16.81Z" transform="translate(-1)"/><path class="cls-8" d="M696.38,172.08a17,17,0,0,1,1.14,3c3.31-.14,5.37.13,6.12.53-.49.73-2.28,2-5.45,3.4a109.54,109.54,0,0,1-33.57,8.12c-3.48.16-5.63-.11-6.4-.53.48-.69,2.19-1.88,5.2-3.26a17,17,0,0,1-.34-3.15c-4.75,2.1-8.52,4.6-7.9,7.15s5.58,3.09,11.09,2.68A113.93,113.93,0,0,0,698,182.28c5.09-2.15,9.28-4.78,8.63-7.45S701.56,171.78,696.38,172.08Z" transform="translate(-1)"/><path d="M19.65,130.95a3.33,3.33,0,0,1-.95-1.85L5,64.7l-.2-1.2a1.92,1.92,0,0,1,.6-1.4,1.92,1.92,0,0,1,1.4-.6H8.9q1.9,0,2.2,1.5l11.7,57L35.2,79.3A3.06,3.06,0,0,1,38.3,77h2.2a3.06,3.06,0,0,1,3.1,2.3L56,120,67.7,63q.3-1.5,2.2-1.5H72a2.05,2.05,0,0,1,2,2l-.2,1.2L60.1,129.1a3.34,3.34,0,0,1-1,1.85,2.78,2.78,0,0,1-1.85.55H55.8a3.08,3.08,0,0,1-3.1-2.4L39.4,86.9,26.1,129.1a3,3,0,0,1-3.1,2.4H21.5A2.78,2.78,0,0,1,19.65,130.95Z" transform="translate(-1)"/><path d="M88.7,126.25Q82.9,120,82.1,109.5l-.1-4,.1-4q.8-10.4,6.55-16.7T104,78.5q10.4,0,16.25,6.9t5.85,18.9v1.5a2.07,2.07,0,0,1-.65,1.6,2.34,2.34,0,0,1-1.65.6H88.2v1a22.11,22.11,0,0,0,2.15,8.75,16.5,16.5,0,0,0,5.45,6.5,13.93,13.93,0,0,0,8.2,2.45,16.7,16.7,0,0,0,9-2.15,16.35,16.35,0,0,0,4.95-4.35,7.17,7.17,0,0,1,1.35-1.5,3.19,3.19,0,0,1,1.65-.3h1.6a2.27,2.27,0,0,1,1.5.5,1.62,1.62,0,0,1,.6,1.3q0,2.1-2.65,5a22,22,0,0,1-7.35,5.1A25.22,25.22,0,0,1,104,132.5Q94.5,132.5,88.7,126.25ZM120,102.4V102a18.65,18.65,0,0,0-4.35-12.7,14.67,14.67,0,0,0-11.65-5q-7.3,0-11.55,5T88.2,102v.4Z" transform="translate(-1)"/><path d="M140,130.9a2.16,2.16,0,0,1-.6-1.6V62.7a2.06,2.06,0,0,1,2.2-2.2h1.7a2.06,2.06,0,0,1,2.2,2.2v66.6a2.07,2.07,0,0,1-2.2,2.2h-1.7A2.16,2.16,0,0,1,140,130.9Z" transform="translate(-1)"/><path d="M165.4,126.45q-5.7-6-6-17l-.1-4,.1-4q.3-10.9,6-17t16.1-6a24.73,24.73,0,0,1,11.25,2.35,17,17,0,0,1,7,6,15.53,15.53,0,0,1,2.5,7.55,1.76,1.76,0,0,1-.6,1.55,2.28,2.28,0,0,1-1.6.65h-1.4a2,2,0,0,1-1.45-.45,5.33,5.33,0,0,1-1-1.65q-2-5.5-5.6-7.85a16.35,16.35,0,0,0-9.1-2.35q-7.2,0-11.45,4.35T165.5,102l-.1,3.5.1,3.5q.3,9,4.55,13.35t11.45,4.35a16.33,16.33,0,0,0,9.1-2.35q3.6-2.35,5.6-7.85a5.34,5.34,0,0,1,1-1.65,2,2,0,0,1,1.45-.45H200a2.29,2.29,0,0,1,1.6.65,1.76,1.76,0,0,1,.6,1.55,15.52,15.52,0,0,1-2.5,7.55,17,17,0,0,1-7,6,24.72,24.72,0,0,1-11.25,2.35Q171.1,132.5,165.4,126.45Z" transform="translate(-1)"/><path d="M219,126.15q-5.75-6.35-6-16.45l-.1-4.2.1-4.2q.3-10.1,6-16.45T235.2,78.5q10.4,0,16.15,6.35t6.05,16.45q.1,1,.1,4.2t-.1,4.2q-.3,10.1-6.05,16.45T235.2,132.5Q224.8,132.5,219,126.15Zm27.6-4q4.35-4.55,4.65-12.95.1-1,.1-3.7t-.1-3.7q-.3-8.4-4.65-13a16.68,16.68,0,0,0-22.9,0q-4.35,4.55-4.65,13l-.1,3.7.1,3.7q.3,8.4,4.65,12.95a16.68,16.68,0,0,0,22.9,0Z" transform="translate(-1)"/><path d="M271.8,130.9a2.16,2.16,0,0,1-.6-1.6V81.7a2.06,2.06,0,0,1,2.2-2.2h1.7a2.06,2.06,0,0,1,2.2,2.2v3.5a17.56,17.56,0,0,1,6-5,18.5,18.5,0,0,1,8.25-1.7q11.2,0,16,9.4A17.8,17.8,0,0,1,314.45,81,20,20,0,0,1,324.6,78.5a17.51,17.51,0,0,1,13.5,5.65q5.2,5.65,5.2,16.05v29.1a2.07,2.07,0,0,1-2.2,2.2h-1.7a2.07,2.07,0,0,1-2.2-2.2V101.2q0-9.1-3.75-13a13,13,0,0,0-9.85-3.9,12.78,12.78,0,0,0-9.35,4q-4,4-3.95,13v28.1a2.07,2.07,0,0,1-2.2,2.2h-1.7a2.07,2.07,0,0,1-2.2-2.2V101.2q0-9-3.9-13a13.09,13.09,0,0,0-9.7-4,12.78,12.78,0,0,0-9.35,4q-4,4-3.95,12.85v28.2a2.07,2.07,0,0,1-2.2,2.2h-1.7A2.16,2.16,0,0,1,271.8,130.9Z" transform="translate(-1)"/><path d="M363,126.25q-5.8-6.25-6.6-16.75l-.1-4,.1-4q.8-10.4,6.55-16.7t15.35-6.3q10.4,0,16.25,6.9t5.85,18.9v1.5a2.07,2.07,0,0,1-.65,1.6,2.34,2.34,0,0,1-1.65.6H362.5v1a22.11,22.11,0,0,0,2.15,8.75,16.49,16.49,0,0,0,5.45,6.5,13.93,13.93,0,0,0,8.2,2.45,16.69,16.69,0,0,0,8.95-2.15,16.35,16.35,0,0,0,5-4.35,7.16,7.16,0,0,1,1.35-1.5,3.19,3.19,0,0,1,1.65-.3h1.6a2.27,2.27,0,0,1,1.5.5,1.62,1.62,0,0,1,.6,1.3q0,2.1-2.65,5a22,22,0,0,1-7.35,5.1,25.22,25.22,0,0,1-10.6,2.15Q368.79,132.5,363,126.25Zm31.3-23.85V102a18.65,18.65,0,0,0-4.35-12.7,14.67,14.67,0,0,0-11.65-5q-7.3,0-11.55,5T362.5,102v.4Z" transform="translate(-1)"/><path d="M7.55,189.27A10.58,10.58,0,0,1,6,183.15V168.4H2.1a1.08,1.08,0,0,1-.8-.3,1.08,1.08,0,0,1-.3-.8v-.7a1.08,1.08,0,0,1,.3-.8,1.08,1.08,0,0,1,.8-.3H6v-8.4A1,1,0,0,1,7.1,156H8A1,1,0,0,1,9,157.1v8.4h6.2a1,1,0,0,1,1.1,1.1v.7a1,1,0,0,1-1.1,1.1H9v14.55a7.82,7.82,0,0,0,.93,4.22A3.38,3.38,0,0,0,13,188.6h2.7a1,1,0,0,1,1.1,1.1v.7a1,1,0,0,1-1.1,1.1h-3Q9.1,191.5,7.55,189.27Z" transform="translate(-1)"/><path d="M23.82,188.82a12.36,12.36,0,0,1-3-8.23l-.05-2.1.05-2.1a12.36,12.36,0,0,1,3-8.22Q26.7,165,31.9,165T40,168.17a12.36,12.36,0,0,1,3,8.22q0,.5.05,2.1T43,180.6a12.36,12.36,0,0,1-3,8.23Q37.1,192,31.9,192T23.82,188.82Zm13.8-2a9.52,9.52,0,0,0,2.33-6.48q0-.5,0-1.85t0-1.85a9.52,9.52,0,0,0-2.33-6.47,7.56,7.56,0,0,0-5.72-2.28,7.56,7.56,0,0,0-5.73,2.28,9.52,9.52,0,0,0-2.33,6.47l0,1.85,0,1.85a9.52,9.52,0,0,0,2.33,6.48,7.56,7.56,0,0,0,5.73,2.27A7.56,7.56,0,0,0,37.62,186.82Z" transform="translate(-1)"/><path d="M65.2,189.27a10.58,10.58,0,0,1-1.55-6.13V168.4h-3.9a1,1,0,0,1-1.1-1.1v-.7a1,1,0,0,1,1.1-1.1h3.9v-8.4a1,1,0,0,1,1.1-1.1h.85a1,1,0,0,1,1.1,1.1v8.4h6.2a1,1,0,0,1,1.1,1.1v.7a1,1,0,0,1-1.1,1.1H66.7v14.55a7.82,7.82,0,0,0,.93,4.22,3.38,3.38,0,0,0,3.07,1.42h2.7a1,1,0,0,1,1.1,1.1v.7a1,1,0,0,1-1.1,1.1h-3Q66.75,191.5,65.2,189.27Z" transform="translate(-1)"/><path d="M80,191.2a1.08,1.08,0,0,1-.3-.8V157.1a1,1,0,0,1,1.1-1.1h.85a1,1,0,0,1,1.1,1.1v11.85a10.35,10.35,0,0,1,3.43-3,10.77,10.77,0,0,1,5-1,9.35,9.35,0,0,1,7.55,3.13,12.05,12.05,0,0,1,2.65,8.08v14.2a1,1,0,0,1-1.1,1.1H99.4a1,1,0,0,1-1.1-1.1v-14a9.24,9.24,0,0,0-2-6.3,7.15,7.15,0,0,0-5.68-2.25,7.54,7.54,0,0,0-5.75,2.28,8.77,8.77,0,0,0-2.15,6.28v14a1,1,0,0,1-1.1,1.1H80.8A1.08,1.08,0,0,1,80,191.2Z" transform="translate(-1)"/><path d="M111.2,188.87a13.39,13.39,0,0,1-3.3-8.37l0-2,0-2a13.52,13.52,0,0,1,3.27-8.35,9.89,9.89,0,0,1,7.68-3.15,10.08,10.08,0,0,1,8.13,3.45q2.92,3.45,2.92,9.45v.75a1,1,0,0,1-.33.8,1.17,1.17,0,0,1-.82.3h-17.8v.5a11.06,11.06,0,0,0,1.08,4.38,8.25,8.25,0,0,0,2.73,3.25,7,7,0,0,0,4.1,1.22,8.35,8.35,0,0,0,4.47-1.07,8.17,8.17,0,0,0,2.48-2.18,3.63,3.63,0,0,1,.68-.75,1.6,1.6,0,0,1,.82-.15h.8a1.13,1.13,0,0,1,.75.25.81.81,0,0,1,.3.65,4.17,4.17,0,0,1-1.33,2.53,11,11,0,0,1-3.67,2.55,12.6,12.6,0,0,1-5.3,1.08A9.94,9.94,0,0,1,111.2,188.87Zm15.65-11.92v-.2a9.33,9.33,0,0,0-2.18-6.35,7.33,7.33,0,0,0-5.82-2.5,7.19,7.19,0,0,0-5.78,2.5,9.47,9.47,0,0,0-2.12,6.35v.2Z" transform="translate(-1)"/><path d="M152.15,188.32q-3.25-3.68-3.5-9.87,0-1.35,0-4.4t0-4.5q.25-6.2,3.5-9.87T161.9,156a15.2,15.2,0,0,1,7.4,1.63,11,11,0,0,1,4.38,4.1,11.41,11.41,0,0,1,1.57,5.08v.1a.81.81,0,0,1-.3.65,1.13,1.13,0,0,1-.75.25h-1q-.9,0-1.1-1-1-4.25-3.45-6A11.57,11.57,0,0,0,161.9,159a9.76,9.76,0,0,0-7.3,2.65q-2.6,2.65-2.8,8.15-.05,1.35-.05,4.15t.05,4.25q.2,5.5,2.8,8.15a9.76,9.76,0,0,0,7.3,2.65,11.57,11.57,0,0,0,6.75-1.75q2.5-1.75,3.45-6,.2-1.05,1.1-1h1a1.17,1.17,0,0,1,.77.27.78.78,0,0,1,.27.73,11.41,11.41,0,0,1-1.57,5.08,11,11,0,0,1-4.37,4.1,15.19,15.19,0,0,1-7.4,1.63Q155.4,192,152.15,188.32Z" transform="translate(-1)"/><path d="M183.77,188.82a12.36,12.36,0,0,1-3-8.23l-.05-2.1.05-2.1a12.36,12.36,0,0,1,3-8.22q2.87-3.17,8.08-3.17t8.07,3.17a12.36,12.36,0,0,1,3,8.22q0,.5.05,2.1t-.05,2.1a12.36,12.36,0,0,1-3,8.23Q197,192,191.85,192T183.77,188.82Zm13.8-2a9.52,9.52,0,0,0,2.33-6.48q0-.5,0-1.85t0-1.85a9.52,9.52,0,0,0-2.33-6.47,8.34,8.34,0,0,0-11.45,0,9.52,9.52,0,0,0-2.33,6.47l0,1.85,0,1.85a9.52,9.52,0,0,0,2.33,6.48,8.34,8.34,0,0,0,11.45,0Z" transform="translate(-1)"/><path d="M210.15,191.2a1.08,1.08,0,0,1-.3-.8V166.65a1.17,1.17,0,0,1,.3-.82,1,1,0,0,1,.8-.33h.8a1.11,1.11,0,0,1,1.15,1.15v2.3q1.8-3.45,6.8-3.45h1.85a1,1,0,0,1,1.1,1.1v.7a1,1,0,0,1-1.1,1.1H219.4a6,6,0,0,0-6.5,6.5v15.5a1,1,0,0,1-.33.8,1.17,1.17,0,0,1-.82.3h-.8A1.08,1.08,0,0,1,210.15,191.2Z" transform="translate(-1)"/><path d="M228.65,188.87a13.39,13.39,0,0,1-3.3-8.37l0-2,0-2a13.52,13.52,0,0,1,3.27-8.35A9.89,9.89,0,0,1,236.3,165a10.08,10.08,0,0,1,8.13,3.45q2.92,3.45,2.92,9.45v.75a1,1,0,0,1-.33.8,1.17,1.17,0,0,1-.82.3H228.4v.5a11.06,11.06,0,0,0,1.08,4.38,8.25,8.25,0,0,0,2.73,3.25,7,7,0,0,0,4.1,1.22,8.35,8.35,0,0,0,4.47-1.07,8.17,8.17,0,0,0,2.48-2.18,3.63,3.63,0,0,1,.68-.75,1.6,1.6,0,0,1,.82-.15h.8a1.13,1.13,0,0,1,.75.25.81.81,0,0,1,.3.65,4.17,4.17,0,0,1-1.33,2.53,11,11,0,0,1-3.67,2.55,12.6,12.6,0,0,1-5.3,1.08A9.94,9.94,0,0,1,228.65,188.87Zm15.65-11.92v-.2a9.33,9.33,0,0,0-2.18-6.35,7.33,7.33,0,0,0-5.82-2.5,7.19,7.19,0,0,0-5.78,2.5,9.47,9.47,0,0,0-2.12,6.35v.2Z" transform="translate(-1)"/><path d="M267.8,191.2a1.08,1.08,0,0,1-.3-.8V157.65a1.17,1.17,0,0,1,.3-.82,1,1,0,0,1,.8-.33h19.5a1,1,0,0,1,1.15,1.15v.75a1,1,0,0,1-.33.8,1.17,1.17,0,0,1-.83.3H270.65v12.75H287a1,1,0,0,1,1.15,1.15v.75a1,1,0,0,1-.33.8,1.17,1.17,0,0,1-.82.3H270.65V188.5H288.5a1,1,0,0,1,1.15,1.15v.75a1,1,0,0,1-.33.8,1.17,1.17,0,0,1-.82.3H268.6A1.08,1.08,0,0,1,267.8,191.2Z" transform="translate(-1)"/><path d="M296.75,191.2a1.08,1.08,0,0,1-.3-.8V166.6a1,1,0,0,1,1.1-1.1h.85a1,1,0,0,1,1.1,1.1v2.35a10.35,10.35,0,0,1,3.42-3,10.77,10.77,0,0,1,5-1,9.35,9.35,0,0,1,7.55,3.13,12.05,12.05,0,0,1,2.65,8.08v14.2a1,1,0,0,1-1.1,1.1h-.85a1,1,0,0,1-1.1-1.1v-14a9.24,9.24,0,0,0-2-6.3,7.15,7.15,0,0,0-5.67-2.25,7.54,7.54,0,0,0-5.75,2.28,8.77,8.77,0,0,0-2.15,6.28v14a1,1,0,0,1-1.1,1.1h-.85A1.08,1.08,0,0,1,296.75,191.2Z" transform="translate(-1)"/><path d="M329.4,201.15a8.18,8.18,0,0,1-3.27-3.08,6.6,6.6,0,0,1-.93-3,1,1,0,0,1,.33-.75,1.1,1.1,0,0,1,.77-.3h.7a1.11,1.11,0,0,1,.73.22,1.8,1.8,0,0,1,.47.83q1.55,4.55,7.2,4.55,4.3,0,6.35-1.77t2-6.33V188a9.78,9.78,0,0,1-8.4,4q-5.4,0-8-3.53a14.92,14.92,0,0,1-2.73-8.58l0-1.4,0-1.4a14.92,14.92,0,0,1,2.73-8.58q2.57-3.52,8-3.52a9.86,9.86,0,0,1,8.4,4v-2.3a1.17,1.17,0,0,1,.3-.82,1,1,0,0,1,.8-.33h.8a1.11,1.11,0,0,1,1.15,1.15V191q0,5.35-2.5,8.42t-8.7,3.08A12.51,12.51,0,0,1,329.4,201.15Zm12.25-14.68a10.67,10.67,0,0,0,2.15-6.17q0-.5.05-1.8t-.05-1.8a10.67,10.67,0,0,0-2.15-6.18,7,7,0,0,0-6-2.62q-4,0-5.92,2.58a11.75,11.75,0,0,0-2,6.63l-.05,1.4.05,1.4a11.75,11.75,0,0,0,2,6.63q1.88,2.58,5.92,2.57A7,7,0,0,0,341.65,186.47Z" transform="translate(-1)"/><path d="M354.75,159.85a1.08,1.08,0,0,1-.3-.8v-1.9a1.17,1.17,0,0,1,.3-.82,1,1,0,0,1,.8-.33h1.9a1.11,1.11,0,0,1,1.15,1.15V159a1,1,0,0,1-.33.8,1.17,1.17,0,0,1-.83.3h-1.9A1.08,1.08,0,0,1,354.75,159.85Zm.55,31.35a1.08,1.08,0,0,1-.3-.8V166.6a1,1,0,0,1,1.1-1.1h.85a1,1,0,0,1,1.1,1.1v23.8a1,1,0,0,1-1.1,1.1h-.85A1.08,1.08,0,0,1,355.29,191.2Z" transform="translate(-1)"/><path d="M366.44,191.2a1.08,1.08,0,0,1-.3-.8V166.6a1,1,0,0,1,1.1-1.1h.85a1,1,0,0,1,1.1,1.1v2.35a10.35,10.35,0,0,1,3.43-3,10.77,10.77,0,0,1,5-1,9.35,9.35,0,0,1,7.55,3.13,12.05,12.05,0,0,1,2.65,8.08v14.2a1,1,0,0,1-1.1,1.1h-.85a1,1,0,0,1-1.1-1.1v-14a9.24,9.24,0,0,0-2-6.3,7.15,7.15,0,0,0-5.67-2.25,7.54,7.54,0,0,0-5.75,2.28,8.77,8.77,0,0,0-2.15,6.28v14a1,1,0,0,1-1.1,1.1h-.85A1.08,1.08,0,0,1,366.44,191.2Z" transform="translate(-1)"/><path d="M397.64,188.87a13.39,13.39,0,0,1-3.3-8.37l0-2,0-2a13.51,13.51,0,0,1,3.28-8.35,9.89,9.89,0,0,1,7.67-3.15,10.08,10.08,0,0,1,8.13,3.45q2.93,3.45,2.92,9.45v.75a1,1,0,0,1-.33.8,1.17,1.17,0,0,1-.83.3h-17.8v.5a11,11,0,0,0,1.08,4.38,8.26,8.26,0,0,0,2.72,3.25,7,7,0,0,0,4.1,1.22,8.35,8.35,0,0,0,4.47-1.07,8.17,8.17,0,0,0,2.48-2.18,3.62,3.62,0,0,1,.67-.75,1.6,1.6,0,0,1,.83-.15h.8a1.13,1.13,0,0,1,.75.25.81.81,0,0,1,.3.65,4.17,4.17,0,0,1-1.33,2.53,11,11,0,0,1-3.67,2.55,12.6,12.6,0,0,1-5.3,1.08A9.94,9.94,0,0,1,397.64,188.87Zm15.65-11.92v-.2a9.33,9.33,0,0,0-2.17-6.35,7.34,7.34,0,0,0-5.83-2.5,7.19,7.19,0,0,0-5.78,2.5,9.47,9.47,0,0,0-2.12,6.35v.2Z" transform="translate(-1)"/><path d="M422.74,191.2a1.08,1.08,0,0,1-.3-.8v-1.9a1.18,1.18,0,0,1,.3-.83,1,1,0,0,1,.8-.33h1.9a1.11,1.11,0,0,1,1.15,1.15v1.9a1,1,0,0,1-.33.8,1.17,1.17,0,0,1-.83.3h-1.9A1.08,1.08,0,0,1,422.74,191.2Zm.55-7.15a1.08,1.08,0,0,1-.3-.8V157.6a1,1,0,0,1,1.1-1.1h.85a1,1,0,0,1,1.1,1.1v25.65a1,1,0,0,1-1.1,1.1h-.85A1.08,1.08,0,0,1,423.29,184Z" transform="translate(-1)"/></g></g></g></svg>