<svg xmlns="http://www.w3.org/2000/svg" xmlns:xlink="http://www.w3.org/1999/xlink" viewBox="0 0 514.24 500"><defs><style>.cls-1,.cls-130,.cls-34,.cls-73,.cls-74,.cls-75,.cls-76,.cls-77,.cls-78,.cls-79,.cls-80,.cls-81,.cls-82,.cls-83{fill:none;}.cls-2{isolation:isolate;}.cls-3{fill:#fff;}.cls-4{clip-path:url(#clip-path);}.cls-5,.cls-6{opacity:0.46;}.cls-130,.cls-5,.cls-6{mix-blend-mode:multiply;}.cls-5{fill:url(#Degradado_sin_nombre_31);}.cls-6{fill:url(#Degradado_sin_nombre_31-2);}.cls-7{fill:#dbdbdb;}.cls-8{fill:url(#Degradado_sin_nombre_30);}.cls-9{fill:url(#Degradado_sin_nombre_14);}.cls-10{fill:url(#Degradado_sin_nombre_6);}.cls-11{fill:url(#Degradado_sin_nombre_9);}.cls-12{fill:url(#Degradado_sin_nombre_4);}.cls-13{fill:url(#Degradado_sin_nombre_7);}.cls-14{fill:url(#Degradado_sin_nombre_5);}.cls-15{fill:url(#Degradado_sin_nombre_7-2);}.cls-16,.cls-24,.cls-38{mix-blend-mode:hard-light;}.cls-16{fill:url(#Degradado_sin_nombre_26);}.cls-17{fill:url(#Degradado_sin_nombre_14-2);}.cls-18{fill:url(#Degradado_sin_nombre_6-2);}.cls-19{fill:url(#Degradado_sin_nombre_9-2);}.cls-20{fill:url(#Degradado_sin_nombre_4-2);}.cls-21{fill:url(#Degradado_sin_nombre_7-3);}.cls-22{fill:url(#Degradado_sin_nombre_5-2);}.cls-23{fill:url(#Degradado_sin_nombre_7-4);}.cls-24{fill:url(#Degradado_sin_nombre_26-2);}.cls-25{fill:url(#Degradado_sin_nombre_9-3);}.cls-26{fill:url(#Degradado_sin_nombre_4-3);}.cls-27{fill:url(#Degradado_sin_nombre_4-4);}.cls-28{fill:url(#Degradado_sin_nombre_14-3);}.cls-29{fill:url(#Degradado_sin_nombre_6-3);}.cls-30{fill:url(#Degradado_sin_nombre_6-4);}.cls-31{fill:url(#Degradado_sin_nombre_5-3);}.cls-32{fill:url(#Degradado_sin_nombre_7-5);}.cls-33{fill:url(#Degradado_sin_nombre_5-4);}.cls-34{stroke-linecap:round;stroke-linejoin:round;stroke:url(#Degradado_sin_nombre_6-5);}.cls-35{fill:url(#Degradado_sin_nombre_4-5);}.cls-36{fill:url(#Degradado_sin_nombre_7-6);}.cls-37{fill:url(#Degradado_sin_nombre_6-6);}.cls-39{fill:url(#Degradado_sin_nombre_26-3);}.cls-40{fill:url(#Degradado_sin_nombre_26-4);}.cls-41{fill:url(#Degradado_sin_nombre_26-5);}.cls-42{fill:url(#Degradado_sin_nombre_26-6);}.cls-43{fill:url(#Degradado_sin_nombre_26-7);}.cls-44{fill:url(#Degradado_sin_nombre_26-8);}.cls-45{fill:url(#Degradado_sin_nombre_26-9);}.cls-46{fill:url(#Degradado_sin_nombre_26-10);}.cls-47{fill:url(#Degradado_sin_nombre_26-11);}.cls-48{clip-path:url(#clip-path-2);}.cls-49{fill:gray;}.cls-50{fill:#838383;}.cls-51{fill:#878787;}.cls-52{fill:#8c8c8c;}.cls-53{fill:#909090;}.cls-54{fill:#959595;}.cls-55{fill:#999;}.cls-56{fill:#9d9d9d;}.cls-57{clip-path:url(#clip-path-3);}.cls-58{fill:#727272;}.cls-59{fill:url(#Degradado_sin_nombre_19);}.cls-60{fill:#767676;}.cls-61{clip-path:url(#clip-path-4);}.cls-62{fill:#7b7b7b;}.cls-63{fill:#777;}.cls-64{fill:url(#Degradado_sin_nombre_19-2);}.cls-65{fill:url(#Degradado_sin_nombre_19-3);}.cls-66{fill:url(#Degradado_sin_nombre_19-4);}.cls-67{fill:url(#Degradado_sin_nombre_19-5);}.cls-68{fill:url(#Degradado_sin_nombre_19-6);}.cls-69{fill:url(#Degradado_sin_nombre_24);}.cls-70{fill:url(#Degradado_sin_nombre_6-7);}.cls-125,.cls-71{opacity:0.88;}.cls-72{fill:url(#Degradado_sin_nombre_23);}.cls-130,.cls-73,.cls-74,.cls-75,.cls-76,.cls-77,.cls-78,.cls-79,.cls-80,.cls-81,.cls-82,.cls-83{stroke-miterlimit:10;stroke-width:0.25px;}.cls-73{stroke:url(#Degradado_sin_nombre_6-8);}.cls-74{stroke:url(#Degradado_sin_nombre_6-9);}.cls-75{stroke:url(#Degradado_sin_nombre_6-10);}.cls-76{stroke:url(#Degradado_sin_nombre_6-11);}.cls-77{stroke:url(#Degradado_sin_nombre_6-12);}.cls-78{stroke:url(#Degradado_sin_nombre_6-13);}.cls-79{stroke:url(#Degradado_sin_nombre_6-14);}.cls-80{stroke:url(#Degradado_sin_nombre_6-15);}.cls-81{stroke:url(#Degradado_sin_nombre_6-16);}.cls-82{stroke:url(#Degradado_sin_nombre_6-17);}.cls-83{stroke:url(#Degradado_sin_nombre_6-18);}.cls-84{fill:url(#Degradado_sin_nombre_6-19);}.cls-85{fill:url(#Degradado_sin_nombre_23-2);}.cls-86{fill:url(#Degradado_sin_nombre_23-3);}.cls-87{fill:url(#Degradado_sin_nombre_23-4);}.cls-88{fill:url(#Degradado_sin_nombre_23-5);}.cls-89{fill:url(#Degradado_sin_nombre_23-6);}.cls-90{fill:url(#Degradado_sin_nombre_23-7);}.cls-91{fill:url(#Degradado_sin_nombre_23-8);}.cls-92{fill:url(#Degradado_sin_nombre_23-9);}.cls-93{fill:url(#Degradado_sin_nombre_23-10);}.cls-94{fill:url(#Degradado_sin_nombre_23-11);}.cls-95{fill:url(#Degradado_sin_nombre_23-12);}.cls-96{fill:url(#Degradado_sin_nombre_23-13);}.cls-97{fill:#b5e1ff;}.cls-98{fill:url(#Degradado_sin_nombre_6-20);}.cls-99{fill:url(#Degradado_sin_nombre_6-21);}.cls-100{fill:url(#Degradado_sin_nombre_6-22);}.cls-101{fill:url(#Degradado_sin_nombre_6-23);}.cls-102{fill:url(#Degradado_sin_nombre_17);}.cls-103{fill:url(#Degradado_sin_nombre_6-24);}.cls-104{fill:url(#Degradado_sin_nombre_6-25);}.cls-105{fill:url(#Degradado_sin_nombre_6-26);}.cls-106{fill:url(#Degradado_sin_nombre_6-27);}.cls-107{fill:url(#Degradado_sin_nombre_6-28);}.cls-108{fill:url(#Degradado_sin_nombre_6-29);}.cls-109{fill:url(#Degradado_sin_nombre_6-30);}.cls-110{fill:url(#Degradado_sin_nombre_6-31);}.cls-111{fill:url(#Degradado_sin_nombre_5-5);}.cls-112{fill:url(#Degradado_sin_nombre_7-7);}.cls-113{fill:url(#Degradado_sin_nombre_7-8);}.cls-114{fill:url(#Degradado_sin_nombre_7-9);}.cls-115{fill:url(#Degradado_sin_nombre_18);}.cls-116{fill:url(#Degradado_sin_nombre_7-10);}.cls-117{fill:url(#Degradado_sin_nombre_7-11);}.cls-118{fill:url(#Degradado_sin_nombre_7-12);}.cls-119{fill:url(#Degradado_sin_nombre_7-13);}.cls-120{fill:url(#Degradado_sin_nombre_7-14);}.cls-121{fill:url(#Degradado_sin_nombre_7-15);}.cls-122{fill:url(#Degradado_sin_nombre_7-16);}.cls-123{fill:url(#Degradado_sin_nombre_7-17);}.cls-124{fill:url(#Degradado_sin_nombre_4-6);}.cls-125{fill:url(#Degradado_sin_nombre_4-7);}.cls-126{fill:url(#Degradado_sin_nombre_5-6);}.cls-127{fill:url(#Degradado_sin_nombre_5-7);}.cls-128{fill:url(#Degradado_sin_nombre_5-8);}.cls-129,.cls-149{opacity:0.82;}.cls-129{fill:url(#Degradado_sin_nombre_13);}.cls-130{stroke:url(#Degradado_sin_nombre_15);}.cls-131{fill:url(#Degradado_sin_nombre_16);}.cls-132{fill:url(#Degradado_sin_nombre_4-8);}.cls-133{fill:url(#Degradado_sin_nombre_4-9);}.cls-134{fill:url(#Degradado_sin_nombre_4-10);}.cls-135{fill:url(#Degradado_sin_nombre_4-11);}.cls-136{fill:url(#Degradado_sin_nombre_4-12);}.cls-137{fill:url(#Degradado_sin_nombre_4-13);}.cls-138{fill:url(#Degradado_sin_nombre_4-14);}.cls-139{fill:url(#Degradado_sin_nombre_4-15);}.cls-140{opacity:0.84;}.cls-141{fill:url(#Degradado_sin_nombre_9-4);}.cls-142{fill:url(#Degradado_sin_nombre_8);}.cls-143{fill:url(#Degradado_sin_nombre_4-16);}.cls-144{fill:url(#Degradado_sin_nombre_7-18);}.cls-145{fill:url(#Degradado_sin_nombre_5-9);}.cls-146{fill:url(#Degradado_sin_nombre_14-4);}.cls-147{fill:url(#Degradado_sin_nombre_14-5);}.cls-148{fill:url(#Degradado_sin_nombre_6-32);}.cls-150{fill:url(#Degradado_sin_nombre_11);}.cls-151{fill:url(#Degradado_sin_nombre_14-6);}.cls-152{fill:url(#Degradado_sin_nombre_11-2);}.cls-153{fill:url(#Degradado_sin_nombre_6-33);}.cls-154{fill:url(#Degradado_sin_nombre_8-2);}.cls-155{fill:url(#Degradado_sin_nombre_9-5);}.cls-156{fill:url(#Degradado_sin_nombre_8-3);}.cls-157{fill:url(#Degradado_sin_nombre_4-17);}.cls-158{fill:url(#Degradado_sin_nombre_7-19);}.cls-159{fill:url(#Degradado_sin_nombre_7-20);}.cls-160{fill:url(#Degradado_sin_nombre_7-21);}.cls-161{fill:url(#Degradado_sin_nombre_5-10);}</style><clipPath id="clip-path" transform="translate(11.5 107.5)"><rect class="cls-1" x="1.51" y="-0.29" width="475.22" height="284.99"/></clipPath><linearGradient id="Degradado_sin_nombre_31" x1="139.85" y1="152.18" x2="487.89" y2="152.18" gradientUnits="userSpaceOnUse"><stop offset="0" stop-color="#e5f2ff"/><stop offset="1" stop-color="#c9e7ff"/></linearGradient><linearGradient id="Degradado_sin_nombre_31-2" x1="139.75" y1="144.8" x2="502.74" y2="144.8" xlink:href="#Degradado_sin_nombre_31"/><linearGradient id="Degradado_sin_nombre_30" x1="309.96" y1="85.83" x2="312.12" y2="106.53" gradientUnits="userSpaceOnUse"><stop offset="0" stop-color="#c6e3ff"/><stop offset="1" stop-color="#9db4c6"/></linearGradient><linearGradient id="Degradado_sin_nombre_14" x1="281.61" y1="98.23" x2="298.87" y2="98.23" gradientUnits="userSpaceOnUse"><stop offset="0" stop-color="#998cf8"/><stop offset="1" stop-color="#7d6ae6"/></linearGradient><linearGradient id="Degradado_sin_nombre_6" x1="281.62" y1="94.13" x2="298.87" y2="94.13" gradientUnits="userSpaceOnUse"><stop offset="0" stop-color="#c0bff5"/><stop offset="1" stop-color="#998cf8"/></linearGradient><linearGradient id="Degradado_sin_nombre_9" x1="281.61" y1="89.59" x2="298.87" y2="89.59" gradientUnits="userSpaceOnUse"><stop offset="0" stop-color="#00dff3"/><stop offset="1" stop-color="#00bdce"/></linearGradient><linearGradient id="Degradado_sin_nombre_4" x1="281.62" y1="85.49" x2="298.87" y2="85.49" gradientUnits="userSpaceOnUse"><stop offset="0" stop-color="#01f7fd"/><stop offset="1" stop-color="#00dff3"/></linearGradient><linearGradient id="Degradado_sin_nombre_7" x1="281.6" y1="80.46" x2="298.87" y2="80.46" gradientUnits="userSpaceOnUse"><stop offset="0.02" stop-color="#4f84e8"/><stop offset="1" stop-color="#1d67c5"/></linearGradient><linearGradient id="Degradado_sin_nombre_5" x1="281.61" y1="76.36" x2="298.87" y2="76.36" gradientUnits="userSpaceOnUse"><stop offset="0" stop-color="#8fbffd"/><stop offset="0.25" stop-color="#8bbbfc"/><stop offset="0.5" stop-color="#7fb1f8"/><stop offset="0.75" stop-color="#6c9ff1"/><stop offset="0.99" stop-color="#5085e8"/><stop offset="1" stop-color="#4f84e8"/></linearGradient><linearGradient id="Degradado_sin_nombre_7-2" x1="287.69" y1="76.31" x2="292.83" y2="76.31" xlink:href="#Degradado_sin_nombre_7"/><linearGradient id="Degradado_sin_nombre_26" x1="289.83" y1="60.79" x2="290.75" y2="77.2" gradientUnits="userSpaceOnUse"><stop offset="0" stop-color="#e5f2ff" stop-opacity="0"/><stop offset="1" stop-color="#c9e7ff"/></linearGradient><linearGradient id="Degradado_sin_nombre_14-2" x1="446.86" y1="158.44" x2="464.13" y2="158.44" xlink:href="#Degradado_sin_nombre_14"/><linearGradient id="Degradado_sin_nombre_6-2" x1="446.87" y1="154.34" x2="464.13" y2="154.34" xlink:href="#Degradado_sin_nombre_6"/><linearGradient id="Degradado_sin_nombre_9-2" x1="446.86" y1="149.8" x2="464.13" y2="149.8" xlink:href="#Degradado_sin_nombre_9"/><linearGradient id="Degradado_sin_nombre_4-2" x1="446.87" y1="145.7" x2="464.13" y2="145.7" xlink:href="#Degradado_sin_nombre_4"/><linearGradient id="Degradado_sin_nombre_7-3" x1="446.86" y1="140.68" x2="464.12" y2="140.68" xlink:href="#Degradado_sin_nombre_7"/><linearGradient id="Degradado_sin_nombre_5-2" x1="446.87" y1="136.58" x2="464.13" y2="136.58" xlink:href="#Degradado_sin_nombre_5"/><linearGradient id="Degradado_sin_nombre_7-4" x1="452.94" y1="136.52" x2="458.09" y2="136.52" xlink:href="#Degradado_sin_nombre_7"/><linearGradient id="Degradado_sin_nombre_26-2" x1="455.08" y1="121" x2="456" y2="137.41" xlink:href="#Degradado_sin_nombre_26"/><linearGradient id="Degradado_sin_nombre_9-3" x1="1194.12" y1="133.33" x2="1182.61" y2="138.6" gradientTransform="matrix(-1, 0, 0, 1, 1366.49, 0)" xlink:href="#Degradado_sin_nombre_9"/><linearGradient id="Degradado_sin_nombre_4-3" x1="1180.65" y1="133.79" x2="1194.84" y2="133.79" gradientTransform="matrix(-1, 0, 0, 1, 1366.49, 0)" xlink:href="#Degradado_sin_nombre_4"/><linearGradient id="Degradado_sin_nombre_4-4" x1="218.24" y1="98.72" x2="261.21" y2="98.72" gradientTransform="matrix(1, 0, 0, -1, -39.03, 220.01)" xlink:href="#Degradado_sin_nombre_4"/><linearGradient id="Degradado_sin_nombre_14-3" x1="1184.09" y1="142.07" x2="1172.58" y2="147.34" gradientTransform="matrix(-1, 0, 0, 1, 1366.49, 0)" xlink:href="#Degradado_sin_nombre_14"/><linearGradient id="Degradado_sin_nombre_6-3" x1="1170.62" y1="142.53" x2="1184.81" y2="142.53" gradientTransform="matrix(-1, 0, 0, 1, 1366.49, 0)" xlink:href="#Degradado_sin_nombre_6"/><linearGradient id="Degradado_sin_nombre_6-4" x1="216.43" y1="112.34" x2="272.2" y2="112.34" gradientTransform="matrix(1, 0.01, 0.01, -1, -26.57, 236.43)" xlink:href="#Degradado_sin_nombre_6"/><linearGradient id="Degradado_sin_nombre_5-3" x1="231.45" y1="135.26" x2="215.6" y2="145.43" xlink:href="#Degradado_sin_nombre_5"/><linearGradient id="Degradado_sin_nombre_7-5" x1="1169.26" y1="150.48" x2="1157.75" y2="155.75" gradientTransform="matrix(-1, 0, 0, 1, 1366.49, 0)" xlink:href="#Degradado_sin_nombre_7"/><linearGradient id="Degradado_sin_nombre_5-4" x1="1155.79" y1="150.93" x2="1169.99" y2="150.93" gradientTransform="matrix(-1, 0, 0, 1, 1366.49, 0)" xlink:href="#Degradado_sin_nombre_5"/><linearGradient id="Degradado_sin_nombre_6-5" x1="360.4" y1="326.34" x2="470.24" y2="326.34" xlink:href="#Degradado_sin_nombre_6"/><linearGradient id="Degradado_sin_nombre_4-5" x1="446.58" y1="309.32" x2="466.99" y2="309.32" xlink:href="#Degradado_sin_nombre_4"/><linearGradient id="Degradado_sin_nombre_7-6" x1="398.12" y1="339.85" x2="418.54" y2="339.85" xlink:href="#Degradado_sin_nombre_7"/><linearGradient id="Degradado_sin_nombre_6-6" x1="423.42" y1="324.53" x2="443.83" y2="324.53" xlink:href="#Degradado_sin_nombre_6"/><linearGradient id="Degradado_sin_nombre_26-3" x1="377.87" y1="218.99" x2="393.25" y2="218.99" xlink:href="#Degradado_sin_nombre_26"/><linearGradient id="Degradado_sin_nombre_26-4" x1="370.2" y1="224.5" x2="385.58" y2="224.5" xlink:href="#Degradado_sin_nombre_26"/><linearGradient id="Degradado_sin_nombre_26-5" x1="374.63" y1="220.81" x2="386.1" y2="220.81" xlink:href="#Degradado_sin_nombre_26"/><linearGradient id="Degradado_sin_nombre_26-6" x1="403.08" y1="202.08" x2="418.47" y2="202.08" xlink:href="#Degradado_sin_nombre_26"/><linearGradient id="Degradado_sin_nombre_26-7" x1="395.42" y1="207.59" x2="410.8" y2="207.59" xlink:href="#Degradado_sin_nombre_26"/><linearGradient id="Degradado_sin_nombre_26-8" x1="399.85" y1="203.91" x2="411.31" y2="203.91" xlink:href="#Degradado_sin_nombre_26"/><linearGradient id="Degradado_sin_nombre_26-9" x1="423.1" y1="186.87" x2="438.49" y2="186.87" xlink:href="#Degradado_sin_nombre_26"/><linearGradient id="Degradado_sin_nombre_26-10" x1="415.44" y1="192.38" x2="430.82" y2="192.38" xlink:href="#Degradado_sin_nombre_26"/><linearGradient id="Degradado_sin_nombre_26-11" x1="419.87" y1="188.7" x2="431.34" y2="188.7" xlink:href="#Degradado_sin_nombre_26"/><clipPath id="clip-path-2" transform="translate(11.5 107.5)"><path class="cls-1" d="M424.89,87.83v3.41a3,3,0,0,1-1.75,2.45V90.28A3,3,0,0,0,424.89,87.83Z"/></clipPath><clipPath id="clip-path-3" transform="translate(11.5 107.5)"><path class="cls-1" d="M382.37,94.37V91a3,3,0,0,0,1.78,2.48v3.41A3,3,0,0,1,382.37,94.37Z"/></clipPath><linearGradient id="Degradado_sin_nombre_19" x1="416.72" y1="204.69" x2="434.63" y2="204.69" gradientUnits="userSpaceOnUse"><stop offset="0" stop-color="#bad0fa"/><stop offset="1" stop-color="#daecfd"/></linearGradient><clipPath id="clip-path-4" transform="translate(11.5 107.5)"><path class="cls-1" d="M405.23,100.69v3.41a9.4,9.4,0,0,1-8.53,0v-3.41A9.4,9.4,0,0,0,405.23,100.69Z"/></clipPath><linearGradient id="Degradado_sin_nombre_19-2" x1="391.27" y1="127.47" x2="405.5" y2="127.47" xlink:href="#Degradado_sin_nombre_19"/><linearGradient id="Degradado_sin_nombre_19-3" x1="349.39" y1="122.47" x2="391.28" y2="122.47" xlink:href="#Degradado_sin_nombre_19"/><linearGradient id="Degradado_sin_nombre_19-4" x1="398.68" y1="114.29" x2="412.91" y2="114.29" xlink:href="#Degradado_sin_nombre_19"/><linearGradient id="Degradado_sin_nombre_19-5" x1="356.8" y1="109.29" x2="398.68" y2="109.29" xlink:href="#Degradado_sin_nombre_19"/><linearGradient id="Degradado_sin_nombre_19-6" x1="385.4" y1="174.93" x2="455.66" y2="174.93" xlink:href="#Degradado_sin_nombre_19"/><linearGradient id="Degradado_sin_nombre_24" x1="382.49" y1="158.28" x2="542.39" y2="228.27" gradientUnits="userSpaceOnUse"><stop offset="0" stop-color="#fff"/><stop offset="1" stop-color="#daecfd"/></linearGradient><linearGradient id="Degradado_sin_nombre_6-7" x1="381.56" y1="70.6" x2="437.13" y2="70.6" xlink:href="#Degradado_sin_nombre_6"/><linearGradient id="Degradado_sin_nombre_23" x1="413.46" y1="64.09" x2="406.44" y2="75.16" gradientUnits="userSpaceOnUse"><stop offset="0" stop-color="#01f7fd"/><stop offset="1" stop-color="#90c0fe"/></linearGradient><linearGradient id="Degradado_sin_nombre_6-8" x1="392.93" y1="157.66" x2="393.18" y2="157.66" xlink:href="#Degradado_sin_nombre_6"/><linearGradient id="Degradado_sin_nombre_6-9" x1="398.49" y1="161.22" x2="398.74" y2="161.22" xlink:href="#Degradado_sin_nombre_6"/><linearGradient id="Degradado_sin_nombre_6-10" x1="404.05" y1="164.77" x2="404.3" y2="164.77" xlink:href="#Degradado_sin_nombre_6"/><linearGradient id="Degradado_sin_nombre_6-11" x1="409.6" y1="168.33" x2="409.85" y2="168.33" xlink:href="#Degradado_sin_nombre_6"/><linearGradient id="Degradado_sin_nombre_6-12" x1="415.16" y1="171.89" x2="415.41" y2="171.89" xlink:href="#Degradado_sin_nombre_6"/><linearGradient id="Degradado_sin_nombre_6-13" x1="420.72" y1="175.45" x2="420.97" y2="175.45" xlink:href="#Degradado_sin_nombre_6"/><linearGradient id="Degradado_sin_nombre_6-14" x1="426.28" y1="179" x2="426.53" y2="179" xlink:href="#Degradado_sin_nombre_6"/><linearGradient id="Degradado_sin_nombre_6-15" x1="431.83" y1="182.56" x2="432.08" y2="182.56" xlink:href="#Degradado_sin_nombre_6"/><linearGradient id="Degradado_sin_nombre_6-16" x1="437.39" y1="186.12" x2="437.64" y2="186.12" xlink:href="#Degradado_sin_nombre_6"/><linearGradient id="Degradado_sin_nombre_6-17" x1="442.95" y1="188.94" x2="443.2" y2="188.94" xlink:href="#Degradado_sin_nombre_6"/><linearGradient id="Degradado_sin_nombre_6-18" x1="448.51" y1="192.09" x2="448.76" y2="192.09" xlink:href="#Degradado_sin_nombre_6"/><linearGradient id="Degradado_sin_nombre_6-19" x1="416.67" y1="188.24" x2="419.43" y2="188.24" gradientTransform="translate(578.55 -374.38) rotate(90)" xlink:href="#Degradado_sin_nombre_6"/><linearGradient id="Degradado_sin_nombre_23-2" x1="453.68" y1="198.72" x2="456.44" y2="198.72" gradientTransform="translate(621.83 -391.33) rotate(90)" xlink:href="#Degradado_sin_nombre_23"/><linearGradient id="Degradado_sin_nombre_23-3" x1="392.4" y1="176.29" x2="393.47" y2="176.29" xlink:href="#Degradado_sin_nombre_23"/><linearGradient id="Degradado_sin_nombre_23-4" x1="398.08" y1="179.41" x2="399.15" y2="179.41" xlink:href="#Degradado_sin_nombre_23"/><linearGradient id="Degradado_sin_nombre_23-5" x1="403.51" y1="182.75" x2="404.58" y2="182.75" xlink:href="#Degradado_sin_nombre_23"/><linearGradient id="Degradado_sin_nombre_23-6" x1="409.2" y1="186.08" x2="410.26" y2="186.08" xlink:href="#Degradado_sin_nombre_23"/><linearGradient id="Degradado_sin_nombre_23-7" x1="414.75" y1="189.55" x2="415.82" y2="189.55" xlink:href="#Degradado_sin_nombre_23"/><linearGradient id="Degradado_sin_nombre_23-8" x1="420.31" y1="193.13" x2="421.38" y2="193.13" xlink:href="#Degradado_sin_nombre_23"/><linearGradient id="Degradado_sin_nombre_23-9" x1="425.87" y1="196.64" x2="426.94" y2="196.64" xlink:href="#Degradado_sin_nombre_23"/><linearGradient id="Degradado_sin_nombre_23-10" x1="431.43" y1="200.12" x2="432.49" y2="200.12" xlink:href="#Degradado_sin_nombre_23"/><linearGradient id="Degradado_sin_nombre_23-11" x1="436.98" y1="202.77" x2="438.05" y2="202.77" xlink:href="#Degradado_sin_nombre_23"/><linearGradient id="Degradado_sin_nombre_23-12" x1="442.54" y1="205.29" x2="443.61" y2="205.29" xlink:href="#Degradado_sin_nombre_23"/><linearGradient id="Degradado_sin_nombre_23-13" x1="448.1" y1="207.85" x2="449.17" y2="207.85" xlink:href="#Degradado_sin_nombre_23"/><linearGradient id="Degradado_sin_nombre_6-20" x1="307.04" y1="127.05" x2="337.44" y2="127.05" xlink:href="#Degradado_sin_nombre_6"/><linearGradient id="Degradado_sin_nombre_6-21" x1="320.04" y1="96.2" x2="330.92" y2="96.2" xlink:href="#Degradado_sin_nombre_6"/><linearGradient id="Degradado_sin_nombre_6-22" x1="315.61" y1="106.14" x2="324.48" y2="106.14" xlink:href="#Degradado_sin_nombre_6"/><linearGradient id="Degradado_sin_nombre_6-23" x1="325.29" y1="105.64" x2="330.95" y2="105.64" xlink:href="#Degradado_sin_nombre_6"/><linearGradient id="Degradado_sin_nombre_17" x1="324.25" y1="126.47" x2="324.03" y2="111.14" gradientUnits="userSpaceOnUse"><stop offset="0" stop-color="#998cf8" stop-opacity="0.8"/><stop offset="0.99" stop-color="#7d6ae6" stop-opacity="0"/></linearGradient><linearGradient id="Degradado_sin_nombre_6-24" x1="333.27" y1="221.25" x2="334.21" y2="221.25" xlink:href="#Degradado_sin_nombre_6"/><linearGradient id="Degradado_sin_nombre_6-25" x1="336.52" y1="222.74" x2="337.46" y2="222.74" xlink:href="#Degradado_sin_nombre_6"/><linearGradient id="Degradado_sin_nombre_6-26" x1="334.02" y1="225.43" x2="334.97" y2="225.43" xlink:href="#Degradado_sin_nombre_6"/><linearGradient id="Degradado_sin_nombre_6-27" x1="337.27" y1="229.5" x2="338.21" y2="229.5" xlink:href="#Degradado_sin_nombre_6"/><linearGradient id="Degradado_sin_nombre_6-28" x1="333.07" y1="232" x2="334.02" y2="232" xlink:href="#Degradado_sin_nombre_6"/><linearGradient id="Degradado_sin_nombre_6-29" x1="336.52" y1="226.78" x2="337.46" y2="226.78" xlink:href="#Degradado_sin_nombre_6"/><linearGradient id="Degradado_sin_nombre_6-30" x1="334.49" y1="229.03" x2="335.44" y2="229.03" xlink:href="#Degradado_sin_nombre_6"/><linearGradient id="Degradado_sin_nombre_6-31" x1="336.32" y1="232.77" x2="337.27" y2="232.77" xlink:href="#Degradado_sin_nombre_6"/><linearGradient id="Degradado_sin_nombre_5-5" x1="340.18" y1="145.24" x2="375.75" y2="145.24" xlink:href="#Degradado_sin_nombre_5"/><linearGradient id="Degradado_sin_nombre_7-7" x1="364.37" y1="228.72" x2="377.02" y2="228.72" xlink:href="#Degradado_sin_nombre_7"/><linearGradient id="Degradado_sin_nombre_7-8" x1="370.69" y1="233.4" x2="370.69" y2="232.42" xlink:href="#Degradado_sin_nombre_7"/><linearGradient id="Degradado_sin_nombre_7-9" x1="370.69" y1="223.29" x2="370.69" y2="234.48" xlink:href="#Degradado_sin_nombre_7"/><linearGradient id="Degradado_sin_nombre_18" x1="358.92" y1="144.34" x2="358.69" y2="129.01" gradientUnits="userSpaceOnUse"><stop offset="0" stop-color="#4f84e8"/><stop offset="1" stop-color="#8fbffd" stop-opacity="0"/></linearGradient><linearGradient id="Degradado_sin_nombre_7-10" x1="367.91" y1="238.42" x2="368.85" y2="238.42" xlink:href="#Degradado_sin_nombre_7"/><linearGradient id="Degradado_sin_nombre_7-11" x1="371.16" y1="239.91" x2="372.1" y2="239.91" xlink:href="#Degradado_sin_nombre_7"/><linearGradient id="Degradado_sin_nombre_7-12" x1="368.66" y1="242.6" x2="369.6" y2="242.6" xlink:href="#Degradado_sin_nombre_7"/><linearGradient id="Degradado_sin_nombre_7-13" x1="371.91" y1="246.67" x2="372.85" y2="246.67" xlink:href="#Degradado_sin_nombre_7"/><linearGradient id="Degradado_sin_nombre_7-14" x1="367.71" y1="249.18" x2="368.66" y2="249.18" xlink:href="#Degradado_sin_nombre_7"/><linearGradient id="Degradado_sin_nombre_7-15" x1="371.16" y1="243.96" x2="372.1" y2="243.96" xlink:href="#Degradado_sin_nombre_7"/><linearGradient id="Degradado_sin_nombre_7-16" x1="369.13" y1="246.2" x2="370.08" y2="246.2" xlink:href="#Degradado_sin_nombre_7"/><linearGradient id="Degradado_sin_nombre_7-17" x1="370.96" y1="249.94" x2="371.91" y2="249.94" xlink:href="#Degradado_sin_nombre_7"/><linearGradient id="Degradado_sin_nombre_4-6" x1="379.08" y1="169.54" x2="409.48" y2="169.54" xlink:href="#Degradado_sin_nombre_4"/><linearGradient id="Degradado_sin_nombre_4-7" x1="392.36" y1="145.46" x2="404.41" y2="145.46" xlink:href="#Degradado_sin_nombre_4"/><linearGradient id="Degradado_sin_nombre_5-6" x1="398.37" y1="151.47" x2="398.54" y2="153.75" xlink:href="#Degradado_sin_nombre_5"/><linearGradient id="Degradado_sin_nombre_5-7" x1="398.44" y1="150.95" x2="398.43" y2="151.74" xlink:href="#Degradado_sin_nombre_5"/><linearGradient id="Degradado_sin_nombre_5-8" x1="398.43" y1="151.95" x2="398.44" y2="152.65" xlink:href="#Degradado_sin_nombre_5"/><linearGradient id="Degradado_sin_nombre_13" x1="415.08" y1="248.06" x2="410.64" y2="252.43" gradientTransform="translate(39.46 -184.9) rotate(11.12)" gradientUnits="userSpaceOnUse"><stop offset="0" stop-color="#fff" stop-opacity="0"/><stop offset="1" stop-color="#fff"/></linearGradient><linearGradient id="Degradado_sin_nombre_15" x1="394.35" y1="146.69" x2="400.1" y2="146.69" gradientUnits="userSpaceOnUse"><stop offset="0" stop-color="#01f7fd"/><stop offset="0.48" stop-color="#90c0fe"/><stop offset="1" stop-color="#00dff3"/></linearGradient><linearGradient id="Degradado_sin_nombre_16" x1="410.31" y1="279.23" x2="410.09" y2="263.9" gradientUnits="userSpaceOnUse"><stop offset="0" stop-color="#00dff3"/><stop offset="1" stop-color="#01f7fd" stop-opacity="0"/></linearGradient><linearGradient id="Degradado_sin_nombre_4-8" x1="407.8" y1="265.81" x2="408.74" y2="265.81" xlink:href="#Degradado_sin_nombre_4"/><linearGradient id="Degradado_sin_nombre_4-9" x1="411.05" y1="267.3" x2="412" y2="267.3" xlink:href="#Degradado_sin_nombre_4"/><linearGradient id="Degradado_sin_nombre_4-10" x1="408.55" y1="269.99" x2="409.5" y2="269.99" xlink:href="#Degradado_sin_nombre_4"/><linearGradient id="Degradado_sin_nombre_4-11" x1="411.8" y1="274.06" x2="412.74" y2="274.06" xlink:href="#Degradado_sin_nombre_4"/><linearGradient id="Degradado_sin_nombre_4-12" x1="407.61" y1="276.56" x2="408.55" y2="276.56" xlink:href="#Degradado_sin_nombre_4"/><linearGradient id="Degradado_sin_nombre_4-13" x1="411.05" y1="271.35" x2="412" y2="271.35" xlink:href="#Degradado_sin_nombre_4"/><linearGradient id="Degradado_sin_nombre_4-14" x1="409.02" y1="273.59" x2="409.97" y2="273.59" xlink:href="#Degradado_sin_nombre_4"/><linearGradient id="Degradado_sin_nombre_4-15" x1="410.85" y1="277.33" x2="411.8" y2="277.33" xlink:href="#Degradado_sin_nombre_4"/><linearGradient id="Degradado_sin_nombre_9-4" x1="335.56" y1="290.91" x2="360.56" y2="290.91" xlink:href="#Degradado_sin_nombre_9"/><linearGradient id="Degradado_sin_nombre_8" x1="302.87" y1="296.62" x2="335.66" y2="296.62" gradientUnits="userSpaceOnUse"><stop offset="0" stop-color="#00b3c2"/><stop offset="1" stop-color="#01808b"/></linearGradient><linearGradient id="Degradado_sin_nombre_4-16" x1="291.46" y1="163.03" x2="349.06" y2="163.03" xlink:href="#Degradado_sin_nombre_4"/><linearGradient id="Degradado_sin_nombre_7-18" x1="321.37" y1="204.25" x2="356.57" y2="204.25" xlink:href="#Degradado_sin_nombre_7"/><linearGradient id="Degradado_sin_nombre_5-9" x1="349.26" y1="201.56" x2="299.12" y2="149.53" xlink:href="#Degradado_sin_nombre_5"/><linearGradient id="Degradado_sin_nombre_14-4" x1="328.24" y1="318.3" x2="330.71" y2="318.3" xlink:href="#Degradado_sin_nombre_14"/><linearGradient id="Degradado_sin_nombre_14-5" x1="286.4" y1="210.8" x2="316.83" y2="210.8" xlink:href="#Degradado_sin_nombre_14"/><linearGradient id="Degradado_sin_nombre_6-32" x1="286.49" y1="204.84" x2="319.21" y2="204.84" xlink:href="#Degradado_sin_nombre_6"/><linearGradient id="Degradado_sin_nombre_11" x1="268.31" y1="229.44" x2="271.2" y2="229.44" gradientUnits="userSpaceOnUse"><stop offset="0.06" stop-color="#5242a5"/><stop offset="1" stop-color="#7d6ae6"/></linearGradient><linearGradient id="Degradado_sin_nombre_14-6" x1="258.33" y1="233.11" x2="268.55" y2="233.11" xlink:href="#Degradado_sin_nombre_14"/><linearGradient id="Degradado_sin_nombre_11-2" x1="251" y1="231.77" x2="258.58" y2="231.77" xlink:href="#Degradado_sin_nombre_11"/><linearGradient id="Degradado_sin_nombre_6-33" x1="251.25" y1="184.5" x2="271.2" y2="184.5" xlink:href="#Degradado_sin_nombre_6"/><linearGradient id="Degradado_sin_nombre_8-2" x1="294.83" y1="246.81" x2="297.62" y2="246.81" xlink:href="#Degradado_sin_nombre_8"/><linearGradient id="Degradado_sin_nombre_9-5" x1="284.86" y1="250.48" x2="294.98" y2="250.48" xlink:href="#Degradado_sin_nombre_9"/><linearGradient id="Degradado_sin_nombre_8-3" x1="277.52" y1="249.13" x2="285" y2="249.13" xlink:href="#Degradado_sin_nombre_8"/><linearGradient id="Degradado_sin_nombre_4-17" x1="277.67" y1="220.26" x2="297.62" y2="220.26" xlink:href="#Degradado_sin_nombre_4"/><linearGradient id="Degradado_sin_nombre_7-19" x1="278.73" y1="276.45" x2="281.44" y2="276.45" xlink:href="#Degradado_sin_nombre_7"/><linearGradient id="Degradado_sin_nombre_7-20" x1="268.76" y1="280.11" x2="278.8" y2="280.11" xlink:href="#Degradado_sin_nombre_7"/><linearGradient id="Degradado_sin_nombre_7-21" x1="261.43" y1="278.77" x2="268.82" y2="278.77" xlink:href="#Degradado_sin_nombre_7"/><linearGradient id="Degradado_sin_nombre_5-10" x1="261.49" y1="264.2" x2="281.44" y2="264.2" xlink:href="#Degradado_sin_nombre_5"/></defs><title>header</title><g class="cls-2"><g id="BACKGROUND"><rect class="cls-3" width="500" height="500"/></g><g id="OBJECTS"><g class="cls-4"><path class="cls-5" d="M169.22,294.47s-57.17-18.25-12-60.93S111.31,132.6,175,119.78s240.55-162.66,284.9-105S482.6,302.72,482.6,302.72Z" transform="translate(11.5 107.5)"/><path class="cls-6" d="M169.11,294.15s-57.17-18.25-12-60.93-45.92-100.94,17.78-113.76S438.87-58.27,483.22-.6s-.72,303-.72,303Z" transform="translate(11.5 107.5)"/></g><g class="cls-2"><path class="cls-7" d="M437.31,168.21v1A3.45,3.45,0,0,0,437.31,168.21Z" transform="translate(11.5 107.5)"/><path class="cls-7" d="M199.91,169.52v-1.6A3.79,3.79,0,0,0,199.91,169.52Z" transform="translate(11.5 107.5)"/><path class="cls-8" d="M437.31,168.21a3.58,3.58,0,0,0-1.95-2.64L324.74,101.7a14.4,14.4,0,0,0-13.06,0L201.77,165.57a3.65,3.65,0,0,0-1.85,2.35v1.6a5.34,5.34,0,0,0,.48,1.36,4.53,4.53,0,0,1,.32-.47,5.55,5.55,0,0,1,.6-.64,7.45,7.45,0,0,1,1.22-.9l.12-.07,108.72-63.18a10,10,0,0,1,.91-.46l.28-.12.75-.29.28-.1.5-.14.38-.1.53-.11.37-.07c.36-.06.73-.11,1.1-.15l.34,0,.66,0h1.39l.5,0,.44,0,.49.05.43.06.51.09.4.08.6.15.33.09c.35.1.7.22,1,.35l.14.06a10.42,10.42,0,0,1,1.3.62L434.46,168.8a18.74,18.74,0,0,0,2.68,1.06s.14-.46.17-.69Z" transform="translate(11.5 107.5)"/></g><path class="cls-3" d="M373.56,208.92l60.07-35.11a7.67,7.67,0,0,0,3.51-3.95,2.57,2.57,0,0,1-2.68-1.06L325,105.62a10.42,10.42,0,0,0-1.3-.62l-.14-.06c-.33-.13-.68-.25-1-.35l-.33-.09-.6-.15-.4-.08-.51-.09-.43-.06-.49-.05-.44,0-.5,0h-1.39l-.66,0-.34,0c-.37,0-.74.09-1.1.15l-.37.07-.53.11-.38.1-.5.14-.28.1-.75.29-.28.12a10,10,0,0,0-.91.46L202.64,168.8l-.12.07a7.45,7.45,0,0,0-1.22.9,5.55,5.55,0,0,0-.6.64,4.53,4.53,0,0,0-.32.47,8.27,8.27,0,0,0,3.23,3.31L312.43,237a14.4,14.4,0,0,0,13.07,0l48.06-28.09" transform="translate(11.5 107.5)"/><g class="cls-2"><path class="cls-9" d="M298.85,94.41c0,.09,0,.18,0,.27s0,.15-.06.22,0,.17-.07.26-.06.14-.09.21-.08.18-.13.27l-.12.19c-.06.1-.13.2-.2.3l-.23.28-.06.07c-.11.12-.23.24-.36.36l-.27.22-.24.19-.31.21-.33.21a9,9,0,0,1-.81.41l-.25.11-.68.26-.25.08-.45.13-.34.09-.48.1-.33.07c-.32.06-.65.1-1,.14l-.31,0-.58,0h-1.24l-.44,0-.4,0-.43,0L288,99l-.46-.08-.36-.07-.54-.13-.3-.08c-.32-.09-.63-.2-.93-.31l-.44-.19-.22-.1c-.22-.1-.43-.21-.63-.33-1.7-1-2.55-2.27-2.55-3.56v3.23c0,1.29.85,2.58,2.55,3.56.2.12.42.23.63.33l.22.1.39.17,0,0c.3.12.61.22.93.31l.07,0,.22.05.54.13.14,0,.21,0,.46.08.18,0,.2,0,.43,0,.21,0h.19l.44,0h1.24l.58,0,.24,0h.07q.5-.05,1-.14h0l.28-.06.48-.1.34-.09.45-.13.09,0,.15-.06.68-.26.25-.11a9,9,0,0,0,.81-.41l.11-.06.22-.15.31-.21.24-.19.27-.22.05,0,.31-.31.06-.07.17-.2.06-.09c.07-.1.14-.2.2-.3l.09-.13,0-.07c0-.09.09-.18.13-.27s.05-.1.07-.16l0-.05c0-.09.05-.17.07-.26s0-.12,0-.17,0,0,0,0,0-.18,0-.27,0-.12,0-.18,0-.05,0-.08V94.15C298.87,94.24,298.86,94.32,298.85,94.41Z" transform="translate(11.5 107.5)"/><path class="cls-10" d="M296.33,90.59c3.38,2,3.4,5.12,0,7.07a13.44,13.44,0,0,1-12.2,0c-3.38-2-3.4-5.12,0-7.07A13.45,13.45,0,0,1,296.33,90.59Z" transform="translate(11.5 107.5)"/></g><g class="cls-2"><path class="cls-11" d="M298.85,85.76c0,.09,0,.18,0,.27s0,.15-.06.22,0,.17-.07.26-.06.14-.09.21-.08.18-.13.27l-.12.19c-.06.1-.13.2-.2.3l-.23.28-.06.07c-.11.12-.23.24-.36.36l-.27.22-.24.19-.31.21-.33.21a9,9,0,0,1-.81.41l-.25.11-.68.26-.25.08-.45.13-.34.09-.48.1-.33.07c-.32.06-.65.1-1,.14l-.31,0-.58,0h-1.24l-.44,0-.4,0-.43,0-.39-.05-.46-.08-.36-.07-.54-.13-.3-.08c-.32-.09-.63-.2-.93-.31l-.44-.19-.22-.1c-.22-.1-.43-.21-.63-.33-1.7-1-2.55-2.27-2.55-3.56v3.23c0,1.29.85,2.58,2.55,3.56.2.12.42.23.63.33l.22.1.39.17,0,0c.3.12.61.22.93.31l.07,0,.22.05.54.13.14,0,.21,0,.46.08.18,0,.2,0,.43,0,.21,0h.19l.44,0h1.24l.58,0,.24,0h.07q.5-.05,1-.14h0l.28-.06.48-.1.34-.09.45-.13.09,0,.15-.06.68-.26.25-.11a9,9,0,0,0,.81-.41l.11-.06.22-.15.31-.21.24-.19.27-.22.05,0,.31-.31.06-.07.17-.2.06-.09c.07-.1.14-.2.2-.3l.09-.13,0-.07c0-.09.09-.18.13-.27s.05-.1.07-.16l0-.05c0-.09.05-.17.07-.26s0-.12,0-.17,0,0,0,0,0-.18,0-.27,0-.12,0-.18,0-.05,0-.08V85.51C298.87,85.59,298.86,85.68,298.85,85.76Z" transform="translate(11.5 107.5)"/><path class="cls-12" d="M296.33,82c3.38,2,3.4,5.12,0,7.07a13.44,13.44,0,0,1-12.2,0c-3.38-2-3.4-5.12,0-7.07A13.45,13.45,0,0,1,296.33,82Z" transform="translate(11.5 107.5)"/></g><g class="cls-2"><path class="cls-13" d="M298.85,76.64c0,.09,0,.18,0,.27s0,.15-.06.22,0,.17-.07.26-.06.14-.09.21-.08.18-.13.27l-.12.19c-.06.1-.13.2-.2.3l-.23.28-.06.07c-.11.12-.23.24-.36.36l-.27.22-.24.19-.31.21-.33.21a9,9,0,0,1-.81.41l-.25.11-.68.26-.25.08-.45.13-.34.09-.48.1-.33.07c-.32.06-.65.1-1,.14l-.31,0-.58,0h-1.24l-.44,0-.4,0-.43,0-.39-.05-.46-.08-.36-.07-.54-.13-.3-.08c-.32-.09-.63-.2-.93-.31l-.44-.19-.22-.1c-.22-.1-.43-.21-.63-.33-1.7-1-2.55-2.27-2.55-3.56v3.23c0,1.29.85,2.58,2.55,3.56.2.12.42.23.63.33l.22.1.39.17,0,0c.3.12.61.22.93.31l.08,0,.22.05.54.13.14,0,.21,0,.46.08.18,0,.2,0,.43,0,.21,0h.19l.44,0h1.24l.58,0,.24,0h.07q.5-.05,1-.14h0l.28-.06.48-.1.34-.09.45-.13.09,0,.15-.06.68-.26.25-.11a9,9,0,0,0,.81-.41l.11-.06.22-.15.31-.21.24-.19.27-.22.05,0,.31-.31.06-.07.17-.2.06-.09c.07-.1.14-.2.2-.3l.08-.13,0-.07c0-.09.09-.18.13-.27s.05-.1.07-.16l0-.05c0-.09.05-.17.07-.26s0-.12,0-.17,0,0,0,0,0-.18,0-.27,0-.12,0-.18,0-.05,0-.08V76.39C298.87,76.47,298.86,76.56,298.85,76.64Z" transform="translate(11.5 107.5)"/><path class="cls-14" d="M296.32,72.83c3.38,2,3.4,5.12,0,7.07a13.44,13.44,0,0,1-12.2,0c-3.38-2-3.4-5.12,0-7.07A13.45,13.45,0,0,1,296.32,72.83Z" transform="translate(11.5 107.5)"/><path class="cls-15" d="M292.07,75a1.49,1.49,0,0,1,0,2.59,3.35,3.35,0,0,1-3.64,0,1.49,1.49,0,0,1,0-2.59A3.35,3.35,0,0,1,292.07,75Z" transform="translate(11.5 107.5)"/></g><path class="cls-16" d="M290.25,78.14h0A3.24,3.24,0,0,1,287,74.9V61.51h6.49V74.9A3.24,3.24,0,0,1,290.25,78.14Z" transform="translate(11.5 107.5)"/><g class="cls-2"><path class="cls-17" d="M464.11,154.62c0,.09,0,.18,0,.27s0,.15-.06.22,0,.17-.07.26-.06.14-.09.21-.08.18-.13.27l-.12.19c-.06.1-.13.2-.2.3l-.23.28-.06.07c-.11.12-.23.24-.36.36l-.27.22-.24.19-.31.21-.33.21a9,9,0,0,1-.81.41l-.25.11-.68.26-.25.08-.45.13-.34.09-.48.1-.33.07c-.32.06-.65.1-1,.14l-.31,0-.58,0h-1.24l-.44,0-.4,0-.43,0-.39-.05-.46-.08-.36-.07-.54-.13-.3-.08c-.32-.09-.63-.2-.93-.31l-.44-.19-.22-.1c-.22-.1-.43-.21-.63-.33-1.7-1-2.55-2.27-2.55-3.56v3.23c0,1.29.85,2.58,2.55,3.56.2.12.42.23.63.33l.22.1.39.17,0,0c.3.12.61.22.93.31l.07,0,.22.05.54.13.14,0,.21,0,.46.08.18,0,.2,0,.43,0,.21,0h.19l.44,0h1.24l.58,0,.24,0h.07c.33,0,.66-.08,1-.14h0l.28-.06.48-.1.34-.09.45-.13.09,0,.15-.06.68-.26.25-.11a9,9,0,0,0,.81-.41l.11-.06.22-.15.31-.21.24-.19.27-.22.05,0,.31-.31.06-.07.17-.2.06-.09c.07-.1.14-.2.2-.3l.09-.13,0-.07c0-.09.09-.18.13-.27s.05-.1.07-.16l0-.05c0-.09.05-.17.07-.26s0-.12.05-.17,0,0,0,0,0-.18,0-.27,0-.12,0-.18,0-.05,0-.08v-3.23C464.13,154.45,464.12,154.53,464.11,154.62Z" transform="translate(11.5 107.5)"/><path class="cls-18" d="M461.58,150.81c3.38,2,3.4,5.12,0,7.07a13.44,13.44,0,0,1-12.2,0c-3.38-2-3.4-5.12,0-7.07A13.45,13.45,0,0,1,461.58,150.81Z" transform="translate(11.5 107.5)"/></g><g class="cls-2"><path class="cls-19" d="M464.11,146c0,.09,0,.18,0,.27s0,.15-.06.22,0,.17-.07.26-.06.14-.09.21-.08.18-.13.27l-.12.19c-.06.1-.13.2-.2.3l-.23.28-.06.07c-.11.12-.23.24-.36.36l-.27.22-.24.19L462,149l-.33.21a9,9,0,0,1-.81.41l-.25.11-.68.26-.25.08-.45.13-.34.09-.48.1-.33.07q-.48.09-1,.14l-.31,0-.58,0h-1.24l-.44,0-.4,0-.43,0-.39-.05-.46-.08-.36-.07-.54-.13-.3-.08c-.32-.09-.63-.2-.93-.31l-.44-.19-.22-.1c-.22-.1-.43-.21-.63-.33-1.7-1-2.55-2.27-2.55-3.56v3.23c0,1.29.85,2.58,2.55,3.56.2.12.42.23.63.33l.22.1.39.17,0,0c.3.12.61.22.93.31l.07,0,.22.05.54.13.14,0,.21,0,.46.08.18,0,.2,0,.43,0,.21,0h.19l.44,0h1.24l.58,0,.24,0h.07q.5-.05,1-.14h0l.28-.06.48-.1.34-.09.45-.13.09,0,.15-.06.68-.26.25-.11a9,9,0,0,0,.81-.41l.11-.06.22-.15.31-.21.24-.19.27-.22.05,0,.31-.31.06-.07.17-.2.06-.09c.07-.1.14-.2.2-.3l.09-.13,0-.07c0-.09.09-.18.13-.27s.05-.1.07-.16l0-.05c0-.09.05-.17.07-.26s0-.12.05-.17,0,0,0,0,0-.18,0-.27,0-.12,0-.18,0-.05,0-.08v-3.23C464.13,145.81,464.12,145.89,464.11,146Z" transform="translate(11.5 107.5)"/><path class="cls-20" d="M461.58,142.16c3.38,2,3.4,5.12,0,7.07a13.44,13.44,0,0,1-12.2,0c-3.38-2-3.4-5.12,0-7.07A13.45,13.45,0,0,1,461.58,142.16Z" transform="translate(11.5 107.5)"/></g><g class="cls-2"><path class="cls-21" d="M464.1,136.85c0,.09,0,.18,0,.27s0,.15-.06.22,0,.17-.07.26-.06.14-.09.21-.08.18-.13.27l-.12.19c-.06.1-.13.2-.2.3l-.23.28-.06.07c-.11.12-.23.24-.36.36l-.27.22-.24.19-.31.21-.33.21a9,9,0,0,1-.81.41l-.25.11-.68.26-.25.08-.45.13-.34.09-.48.1-.33.07c-.32.06-.65.1-1,.14l-.31,0-.58,0h-1.24l-.44,0-.4,0-.43,0-.39-.05-.46-.08-.36-.07-.54-.13-.3-.08c-.32-.09-.63-.2-.93-.31l-.44-.19-.22-.1c-.22-.1-.43-.21-.63-.33-1.7-1-2.55-2.27-2.55-3.56v3.23c0,1.29.85,2.58,2.55,3.56.2.12.42.23.63.33l.22.1.39.17,0,0c.3.12.61.22.93.31l.07,0,.22.05.54.13.14,0,.21,0,.46.08.18,0,.2,0,.43,0,.21,0h.19l.44,0h1.24l.58,0,.24,0h.07c.33,0,.66-.08,1-.14h0l.28-.06.48-.1.34-.09.45-.13.09,0,.15-.06.68-.26.25-.11a9,9,0,0,0,.81-.41l.11-.06.22-.15.31-.21.24-.19.27-.22.05,0,.31-.31.06-.07.17-.2.06-.09c.07-.1.14-.2.2-.3l.08-.13,0-.07c0-.09.09-.18.13-.27s.05-.1.07-.16l0-.05c0-.09.05-.17.07-.26s0-.12.05-.17,0,0,0,0,0-.18,0-.27,0-.12,0-.18,0-.05,0-.08V136.6C464.12,136.68,464.11,136.77,464.1,136.85Z" transform="translate(11.5 107.5)"/><path class="cls-22" d="M461.58,133c3.38,2,3.4,5.12,0,7.07a13.44,13.44,0,0,1-12.2,0c-3.38-2-3.4-5.12,0-7.07A13.45,13.45,0,0,1,461.58,133Z" transform="translate(11.5 107.5)"/><path class="cls-23" d="M457.33,135.23a1.49,1.49,0,0,1,0,2.59,3.35,3.35,0,0,1-3.64,0,1.49,1.49,0,0,1,0-2.59A3.35,3.35,0,0,1,457.33,135.23Z" transform="translate(11.5 107.5)"/></g><path class="cls-24" d="M455.5,138.36h0a3.24,3.24,0,0,1-3.24-3.24V121.73h6.49v13.38A3.24,3.24,0,0,1,455.5,138.36Z" transform="translate(11.5 107.5)"/><g class="cls-2"><path class="cls-25" d="M171.69,134v0a.94.94,0,0,0,.11.21l0,0a1.26,1.26,0,0,0,.18.2l.16.12.14.1,4.84,2.81a2.71,2.71,0,0,0,.69.26l.11,0a3.71,3.71,0,0,0,.77.09h0a3.71,3.71,0,0,0,.82-.09h0a2.73,2.73,0,0,0,.73-.28l4.87-2.81a1.12,1.12,0,0,0,.66-.92v3.71a1.12,1.12,0,0,1-.66.92l-4.87,2.81-.32.15-.27.09-.14,0h0l-.07,0-.22,0-.22,0h-.45l-.25,0-.29,0-.12,0-.11,0-.19,0a2.55,2.55,0,0,1-.49-.22l-4.84-2.81,0,0-.11-.08-.16-.11h0l-.14-.15,0,0,0,0,0-.06-.06-.13v0l0-.08a.77.77,0,0,1,0-.13v-3.73A.78.78,0,0,0,171.69,134Z" transform="translate(11.5 107.5)"/><path class="cls-26" d="M172.31,132.87a1,1,0,0,0,0,1.83l4.84,2.81a3.5,3.5,0,0,0,3.17,0l4.87-2.81a1,1,0,0,0,0-1.84l-4.84-2.81a3.49,3.49,0,0,0-3.17,0Z" transform="translate(11.5 107.5)"/></g><path class="cls-27" d="M221.94,112.36c.45-.26.25-.7-.36-.8l-3.25-.51a.67.67,0,0,1-.59-.38l-.36-1.35c-.1-.38-.91-.54-1.39-.26l-36.54,21.1a.35.35,0,0,0,0,.67l4.66,2.71a1.27,1.27,0,0,0,1.15,0Z" transform="translate(11.5 107.5)"/><g class="cls-2"><path class="cls-28" d="M181.72,142.76v0a.94.94,0,0,0,.11.21l0,0a1.26,1.26,0,0,0,.18.2l.16.12.14.1,4.84,2.81a2.71,2.71,0,0,0,.69.26l.11,0a3.71,3.71,0,0,0,.77.09h0a3.73,3.73,0,0,0,.82-.09h0a2.73,2.73,0,0,0,.73-.28l4.87-2.81a1.12,1.12,0,0,0,.66-.92v3.71a1.12,1.12,0,0,1-.66.92L190.35,150l-.32.15-.27.09-.14,0h0l-.07,0-.22,0-.22,0h-.45l-.25,0-.29,0-.12,0-.11,0-.19,0a2.55,2.55,0,0,1-.49-.22l-4.84-2.81,0,0-.11-.08-.16-.12h0l-.14-.15,0,0,0,0,0-.06-.06-.13v0l0-.08a.77.77,0,0,1,0-.13v-3.73A.78.78,0,0,0,181.72,142.76Z" transform="translate(11.5 107.5)"/><path class="cls-29" d="M182.34,141.61a1,1,0,0,0,0,1.83l4.84,2.81a3.5,3.5,0,0,0,3.17,0l4.87-2.81a1,1,0,0,0,0-1.84l-4.84-2.81a3.49,3.49,0,0,0-3.17,0Z" transform="translate(11.5 107.5)"/></g><path class="cls-30" d="M246.6,113.91c.36-.2.16-.56-.34-.6l-4-.35c-.3,0-.52-.17-.52-.35l0-1.79c0-.31-.65-.47-1-.25L191,138.67a.26.26,0,0,0,0,.5l4.93,2.92a.94.94,0,0,0,.86,0Z" transform="translate(11.5 107.5)"/><path class="cls-31" d="M239.44,134.69c.2-.11.12-.31-.13-.37l-4-.91a.35.35,0,0,1-.24-.15l-.87-1.84c-.08-.17-.44-.22-.65-.1l-28.66,16.39a.17.17,0,0,0,0,.32l5.25,3.08a.61.61,0,0,0,.55,0Z" transform="translate(11.5 107.5)"/><g class="cls-2"><path class="cls-32" d="M196.55,151.16v0a.94.94,0,0,0,.11.21l0,0a1.26,1.26,0,0,0,.18.2l.16.12.14.1,4.84,2.81a2.71,2.71,0,0,0,.69.26l.11,0a3.72,3.72,0,0,0,.77.09h0a3.72,3.72,0,0,0,.82-.09h0a2.73,2.73,0,0,0,.73-.28l4.87-2.81a1.12,1.12,0,0,0,.66-.92v3.71a1.12,1.12,0,0,1-.66.92l-4.87,2.81-.32.15-.27.09-.14,0h0l-.07,0-.22,0-.22,0h-.45l-.25,0-.29,0-.12,0-.11,0-.19,0a2.54,2.54,0,0,1-.49-.22l-4.84-2.81,0,0-.11-.08-.16-.11h0l-.14-.15,0,0,0,0,0-.06-.06-.13v0l0-.08a.76.76,0,0,1,0-.13v-3.73A.78.78,0,0,0,196.55,151.16Z" transform="translate(11.5 107.5)"/><path class="cls-33" d="M197.17,150a1,1,0,0,0,0,1.83l4.84,2.81a3.49,3.49,0,0,0,3.17,0l4.87-2.81a1,1,0,0,0,0-1.84l-4.84-2.81a3.49,3.49,0,0,0-3.17,0Z" transform="translate(11.5 107.5)"/></g><polyline class="cls-34" points="360.9 331.6 390.58 350.26 469.74 302.42"/><ellipse class="cls-35" cx="456.79" cy="309.32" rx="10.21" ry="5.59"/><path class="cls-3" d="M448.41,198.83a1.55,1.55,0,0,1,.76.85l.24.77.47,1.55c.25.84-.86,1.61-2.33,1.61H443.4a3.94,3.94,0,0,1-1.93-.46,1.33,1.33,0,0,1-.8-1.2c.08-.85,1.39-1.49,2.87-1.49h.35l-.05-.17c-.25-.81.56-1.64,1.93-1.85A4.21,4.21,0,0,1,448.41,198.83Z" transform="translate(11.5 107.5)"/><ellipse class="cls-36" cx="408.33" cy="339.85" rx="10.21" ry="5.59"/><path class="cls-3" d="M400.18,230.42c.13.08.19.19.09.31l-1,1.15c-.09.1-.05.23.09.31l1.58.91c.31.18,0,.49-.4.45l-2.2-.2a.6.6,0,0,0-.48.15l-1,1.15a.68.68,0,0,1-.74.07.25.25,0,0,1-.13-.15l-.36-1.28a.26.26,0,0,0-.13-.14.64.64,0,0,0-.25-.08l-2.2-.2a.63.63,0,0,1-.26-.07c-.21-.12-.19-.34.11-.43l2-.58c.18-.05.28-.17.25-.28l-.35-1.27c-.07-.26.46-.41.78-.23l1.58.91a.74.74,0,0,0,.54.05l2-.59A.71.71,0,0,1,400.18,230.42Z" transform="translate(11.5 107.5)"/><ellipse class="cls-37" cx="433.63" cy="324.53" rx="10.21" ry="5.59"/><path class="cls-3" d="M429.1,215.25a.66.66,0,0,1,0,1.24l-6.58,3.83a2.36,2.36,0,0,1-2.14,0l-2.88-1.66-1.51-.87-.59-.34a.36.36,0,0,1,0-.69l3.61-2.1a2.47,2.47,0,0,1,2.23,0l.07,0,2.48-1.44a2,2,0,0,1,1.85,0Z" transform="translate(11.5 107.5)"/><g class="cls-38"><path class="cls-39" d="M392.83,222a.62.62,0,0,1,0,1.17,2.23,2.23,0,0,1-2,0L378.29,216a.62.62,0,0,1,0-1.17,2.23,2.23,0,0,1,2,0Z" transform="translate(11.5 107.5)"/></g><g class="cls-38"><path class="cls-40" d="M385.16,227.53a.62.62,0,0,1,0,1.17,2.23,2.23,0,0,1-2,0l-12.52-7.23a.62.62,0,0,1,0-1.17,2.23,2.23,0,0,1,2,0Z" transform="translate(11.5 107.5)"/></g><g class="cls-38"><path class="cls-41" d="M385.68,222.71a.62.62,0,0,1,0,1.17,2.23,2.23,0,0,1-2,0l-8.61-5a.62.62,0,0,1,0-1.17,2.23,2.23,0,0,1,2,0Z" transform="translate(11.5 107.5)"/></g><g class="cls-38"><path class="cls-42" d="M418,205.11a.62.62,0,0,1,0,1.17,2.23,2.23,0,0,1-2,0l-12.52-7.23a.62.62,0,0,1,0-1.17,2.23,2.23,0,0,1,2,0Z" transform="translate(11.5 107.5)"/></g><g class="cls-38"><path class="cls-43" d="M410.38,210.62a.62.62,0,0,1,0,1.17,2.23,2.23,0,0,1-2,0l-12.52-7.23a.62.62,0,0,1,0-1.17,2.23,2.23,0,0,1,2,0Z" transform="translate(11.5 107.5)"/></g><g class="cls-38"><path class="cls-44" d="M410.89,205.81a.62.62,0,0,1,0,1.17,2.23,2.23,0,0,1-2,0l-8.61-5a.62.62,0,0,1,0-1.17,2.23,2.23,0,0,1,2,0Z" transform="translate(11.5 107.5)"/></g><g class="cls-38"><path class="cls-45" d="M438.07,189.9a.62.62,0,0,1,0,1.17,2.23,2.23,0,0,1-2,0l-12.52-7.23a.62.62,0,0,1,0-1.17,2.23,2.23,0,0,1,2,0Z" transform="translate(11.5 107.5)"/></g><g class="cls-38"><path class="cls-46" d="M430.4,195.41a.62.62,0,0,1,0,1.17,2.23,2.23,0,0,1-2,0l-12.52-7.23a.62.62,0,0,1,0-1.17,2.23,2.23,0,0,1,2,0Z" transform="translate(11.5 107.5)"/></g><g class="cls-38"><path class="cls-47" d="M430.91,190.59a.62.62,0,0,1,0,1.17,2.23,2.23,0,0,1-2,0l-8.61-5a.62.62,0,0,1,0-1.17,2.23,2.23,0,0,1,2,0Z" transform="translate(11.5 107.5)"/></g><g class="cls-2"><g class="cls-2"><g class="cls-48"><g class="cls-2"><path class="cls-49" d="M424.89,87.83v0" transform="translate(11.5 107.5)"/><path class="cls-50" d="M424.89,87.88v3.41a2.06,2.06,0,0,1,0,.35V88.23a2.07,2.07,0,0,0,0-.35" transform="translate(11.5 107.5)"/><path class="cls-51" d="M424.85,88.23v3.41a2.19,2.19,0,0,1-.1.34V88.57a2.19,2.19,0,0,0,.1-.34" transform="translate(11.5 107.5)"/><path class="cls-52" d="M424.75,88.57V92a2.44,2.44,0,0,1-.16.34V88.91a2.44,2.44,0,0,0,.16-.34" transform="translate(11.5 107.5)"/><path class="cls-53" d="M424.59,88.91v3.41a2.85,2.85,0,0,1-.24.36V89.27a2.84,2.84,0,0,0,.24-.36" transform="translate(11.5 107.5)"/><path class="cls-54" d="M424.34,89.27v3.41a3.49,3.49,0,0,1-.37.4V89.67a3.49,3.49,0,0,0,.37-.4" transform="translate(11.5 107.5)"/><path class="cls-55" d="M424,89.67v3.41a4.68,4.68,0,0,1-.76.57V90.24a4.68,4.68,0,0,0,.76-.57" transform="translate(11.5 107.5)"/><path class="cls-56" d="M423.21,90.24v3.41l-.07,0V90.28l.07,0" transform="translate(11.5 107.5)"/></g></g></g><g class="cls-2"><g class="cls-57"><g class="cls-2"><path class="cls-58" d="M384.16,93.44v3.41a3,3,0,0,1-1.78-2.48V91a3,3,0,0,0,1.78,2.48" transform="translate(11.5 107.5)"/></g></g></g><polygon class="cls-59" points="434.63 197.78 434.62 201.19 416.72 211.59 416.73 208.19 434.63 197.78"/><polygon class="cls-60" points="408.21 208.19 408.2 211.6 395.65 204.35 395.66 200.94 408.21 208.19"/><g class="cls-2"><g class="cls-61"><g class="cls-2"><path class="cls-56" d="M405.23,100.69v3.41a6.82,6.82,0,0,1-1.32.58v-3.41a6.82,6.82,0,0,0,1.32-.58" transform="translate(11.5 107.5)"/><path class="cls-55" d="M403.91,101.27v3.41a8.73,8.73,0,0,1-1.14.28v-3.41a8.73,8.73,0,0,0,1.14-.28" transform="translate(11.5 107.5)"/><path class="cls-54" d="M402.77,101.55V105c-.25,0-.51.08-.77.11v-3.41c.26,0,.52-.06.77-.11" transform="translate(11.5 107.5)"/><path class="cls-53" d="M402,101.66v3.41l-.67,0V101.7l.67,0" transform="translate(11.5 107.5)"/><path class="cls-52" d="M401.33,101.7v3.41h-.62v-3.41h.62" transform="translate(11.5 107.5)"/><path class="cls-51" d="M400.71,101.71v3.41l-.59,0v-3.41l.59,0" transform="translate(11.5 107.5)"/><path class="cls-50" d="M400.12,101.68v3.41l-.59-.07v-3.41l.59.07" transform="translate(11.5 107.5)"/><path class="cls-49" d="M399.53,101.61V105l-.6-.1v-3.41l.6.1" transform="translate(11.5 107.5)"/><path class="cls-62" d="M398.93,101.51v3.41l-.63-.15v-3.41l.63.15" transform="translate(11.5 107.5)"/><path class="cls-63" d="M398.31,101.35v3.41c-.25-.07-.5-.15-.73-.25v-3.41c.24.09.48.18.73.25" transform="translate(11.5 107.5)"/><path class="cls-58" d="M397.57,101.11v3.41a6.54,6.54,0,0,1-.87-.42v-3.41a6.54,6.54,0,0,0,.87.42" transform="translate(11.5 107.5)"/></g></g></g><path class="cls-3" d="M423.11,85.35c2.36,1.36,2.37,3.57,0,4.94l-17.9,10.4a9.4,9.4,0,0,1-8.53,0l-12.55-7.25c-2.36-1.36-2.37-3.57,0-4.94L402,78.1a9.39,9.39,0,0,1,8.53,0Z" transform="translate(11.5 107.5)"/></g><g class="cls-2"><path class="cls-64" d="M405.49,121.09c0,.06,0,.13,0,.19s0,.1,0,.15,0,.12-.05.18l-.06.15-.09.19-.08.13-.14.21-.1.12a3.5,3.5,0,0,1-.25.27l-.1.1-.19.15-.17.13-.22.15-.23.15-12.46,7.24V134l12.46-7.24.08,0,.15-.1.22-.15.17-.13.19-.15,0,0,.06-.07a3.47,3.47,0,0,0,.25-.27l.06-.06,0-.06.14-.21.06-.09,0,0,.09-.19.05-.11v0c0-.06,0-.12.05-.18s0-.08,0-.12v0c0-.06,0-.13,0-.19s0-.08,0-.13v-3.46C405.5,121,405.49,121,405.49,121.09Z" transform="translate(11.5 107.5)"/><path class="cls-65" d="M390.44,131l-.24.09c-.18.07-.37.12-.57.17l-.6.15c-.24,0-.48.09-.73.13l-.18,0c-.33,0-.67.05-1,.06h-.16c-.34,0-.67,0-1-.06l-.15,0a9.55,9.55,0,0,1-1-.17l-.17,0a8.18,8.18,0,0,1-.84-.25l-.15-.05a6.61,6.61,0,0,1-.92-.43l-31.58-18.23a3,3,0,0,1-1.78-2.48v3.41a3,3,0,0,0,1.78,2.48L382.74,134a6.54,6.54,0,0,0,.87.42l0,0,.15.05.53.18.3.07.17,0,.15,0,.6.1.22,0,.15,0,.22,0,.59,0h.62l.67,0h.08l.18,0,.51-.07.22-.05.6-.15.32-.08.25-.09.24-.09a6.5,6.5,0,0,0,.84-.4v-3.41A6.51,6.51,0,0,1,390.44,131Z" transform="translate(11.5 107.5)"/><path class="cls-3" d="M403.72,118.43c2.36,1.36,2.37,3.57,0,4.94l-12.46,7.24a9.39,9.39,0,0,1-8.53,0l-31.58-18.23c-2.36-1.36-2.37-3.57,0-4.94l12.46-7.24a9.4,9.4,0,0,1,8.53,0Z" transform="translate(11.5 107.5)"/></g><g class="cls-2"><path class="cls-66" d="M412.9,107.91c0,.06,0,.13,0,.19s0,.1,0,.15,0,.12-.05.18l-.06.15-.09.19-.08.13-.14.21-.1.12a3.46,3.46,0,0,1-.26.27l-.1.1-.19.15-.17.13-.22.15-.23.15-12.47,7.25v3.41l12.47-7.25.08,0,.16-.1.22-.14.17-.13.19-.15,0,0,.06-.07a3.48,3.48,0,0,0,.26-.27l.06-.06,0-.06.14-.21.06-.09,0,0,.09-.19.05-.11v0c0-.06,0-.12.05-.18s0-.08,0-.12v0c0-.06,0-.13,0-.19s0-.08,0-.13v-3.46C412.91,107.8,412.9,107.86,412.9,107.91Z" transform="translate(11.5 107.5)"/><path class="cls-67" d="M397.84,117.84l-.23.09c-.18.07-.37.12-.57.17l-.6.15c-.24,0-.48.09-.73.13l-.18,0c-.33,0-.67.05-1,.06h-.16c-.33,0-.67,0-1-.06l-.15,0a9.54,9.54,0,0,1-1-.17l-.17,0a8.22,8.22,0,0,1-.84-.25l-.15,0a6.6,6.6,0,0,1-.92-.43L358.58,99.21a3,3,0,0,1-1.78-2.48v3.41a3,3,0,0,0,1.78,2.48l31.58,18.23a6.56,6.56,0,0,0,.87.42l0,0,.15.05.53.18.3.07.17,0,.15,0,.6.1.22,0,.15,0,.22,0,.59,0h.62l.67,0h.08l.18,0,.51-.07.22-.05.6-.15.32-.08.25-.09.23-.09a6.46,6.46,0,0,0,.84-.4v-3.41A6.5,6.5,0,0,1,397.84,117.84Z" transform="translate(11.5 107.5)"/><path class="cls-3" d="M411.13,105.25c2.36,1.37,2.37,3.57,0,4.94l-12.47,7.25a9.39,9.39,0,0,1-8.52,0L358.58,99.21c-2.36-1.36-2.37-3.57,0-4.94L371,87a9.39,9.39,0,0,1,8.53,0Z" transform="translate(11.5 107.5)"/></g><polygon class="cls-68" points="455.66 168.67 455.51 221.67 385.4 181.2 385.55 128.19 455.66 168.67"/><polygon class="cls-69" points="453.93 171.05 453.8 217.3 387.13 178.81 387.26 132.56 453.93 171.05"/><path class="cls-70" d="M412.82,55c3.28,1.88,4.73,8.08,6.48,14.45s3.78,12.9,8.24,15.45l.19.1c.26-.62,5.3-12.49,7.73-11.1a1,1,0,0,1,.25.2c2.3,2.48,1.15,19.85,1.09,20.76l-55.24-31.6c.1-1,2.05-20.32,9.13-16.27,7.23,4.33,6.58,21.61,13.4,25.51,7,3.86,1.3-20.85,8.34-17.7Z" transform="translate(11.5 107.5)"/><g class="cls-71"><path class="cls-72" d="M422.53,65.94a8.74,8.74,0,0,1,2.18,1.88c6.13,7,11.49,15.91,12,17.51s0,9.77,0,10.2l-55.24-31.6.26-17.8c.1.57,2.05,11.33,7.75,14.59a6.88,6.88,0,0,0,.92.44c6.06,2.36,5.27-8.47,10.69-5.37a8.62,8.62,0,0,1,1,.67c5.88,4.55,6.43,13.19,8.94,14.62a1.49,1.49,0,0,0,.89.2C414.79,71,417.73,63.19,422.53,65.94Z" transform="translate(11.5 107.5)"/></g><line class="cls-73" x1="393.06" y1="140.39" x2="393.06" y2="174.93"/><line class="cls-74" x1="398.61" y1="143.95" x2="398.61" y2="178.49"/><line class="cls-75" x1="404.17" y1="147.5" x2="404.17" y2="182.04"/><line class="cls-76" x1="409.73" y1="151.06" x2="409.73" y2="185.6"/><line class="cls-77" x1="415.29" y1="154.62" x2="415.29" y2="189.16"/><line class="cls-78" x1="420.84" y1="158.18" x2="420.84" y2="192.72"/><line class="cls-79" x1="426.4" y1="161.73" x2="426.4" y2="196.27"/><line class="cls-80" x1="431.96" y1="165.29" x2="431.96" y2="199.83"/><line class="cls-81" x1="437.52" y1="168.85" x2="437.52" y2="203.39"/><line class="cls-82" x1="443.07" y1="172.41" x2="443.07" y2="205.48"/><line class="cls-83" x1="448.63" y1="175.96" x2="448.63" y2="208.22"/><ellipse class="cls-84" cx="390.31" cy="43.68" rx="1.12" ry="1.38" transform="translate(254.36 515.2) rotate(-74.34)"/><ellipse class="cls-85" cx="423.12" cy="63.76" rx="1.12" ry="1.38" transform="translate(258.97 561.45) rotate(-74.33)"/><polygon class="cls-86" points="393.47 175.98 393.46 177.21 392.4 176.59 392.4 175.37 393.47 175.98"/><polygon class="cls-87" points="399.15 179.1 399.15 180.32 398.08 179.71 398.08 178.49 399.15 179.1"/><polygon class="cls-88" points="404.58 182.44 404.58 183.67 403.51 183.05 403.52 181.83 404.58 182.44"/><polygon class="cls-89" points="410.26 185.78 410.26 187 409.2 186.38 409.2 185.16 410.26 185.78"/><polygon class="cls-90" points="415.82 189.25 415.82 190.47 414.75 189.85 414.76 188.63 415.82 189.25"/><polygon class="cls-91" points="421.38 192.83 421.38 194.05 420.31 193.44 420.31 192.22 421.38 192.83"/><polygon class="cls-92" points="426.94 196.34 426.93 197.56 425.87 196.95 425.87 195.72 426.94 196.34"/><polygon class="cls-93" points="432.49 199.82 432.49 201.04 431.43 200.43 431.43 199.2 432.49 199.82"/><polygon class="cls-94" points="438.05 202.46 438.05 203.69 436.98 203.07 436.99 201.85 438.05 202.46"/><polygon class="cls-95" points="443.61 204.99 443.61 206.21 442.54 205.6 442.54 204.38 443.61 204.99"/><polygon class="cls-96" points="449.17 207.55 449.16 208.77 448.1 208.16 448.1 206.93 449.17 207.55"/><path class="cls-97" d="M308.77,136.08a.62.62,0,0,1,0,1.17l-12.44,7.23a2.24,2.24,0,0,1-2,0,.62.62,0,0,1,0-1.17l12.44-7.23A2.23,2.23,0,0,1,308.77,136.08Z" transform="translate(11.5 107.5)"/><path class="cls-97" d="M303.26,129.38a.62.62,0,0,1,0,1.17l-12.44,7.23a2.23,2.23,0,0,1-2,0,.62.62,0,0,1,0-1.17l12.44-7.23A2.23,2.23,0,0,1,303.26,129.38Z" transform="translate(11.5 107.5)"/><path class="cls-97" d="M305,133a.62.62,0,0,1,0,1.17l-8.55,5a2.23,2.23,0,0,1-2,0,.62.62,0,0,1,0-1.17l8.55-5A2.23,2.23,0,0,1,305,133Z" transform="translate(11.5 107.5)"/><path class="cls-98" d="M337.44,132.82c-6.92,4-18.19,4-25.16,0s-7-10.55-.08-14.57l3.15,1.82c-5.2,3-5.17,7.91.06,10.93s13.68,3,18.87,0Z" transform="translate(11.5 107.5)"/><path class="cls-97" d="M337.36,118.25c7,4,7,10.55.09,14.57L334.29,131c5.19-3,5.16-7.91-.07-10.93s-13.67-3-18.86,0l-3.15-1.82C319.13,114.23,330.39,114.23,337.36,118.25Z" transform="translate(11.5 107.5)"/><path class="cls-99" d="M326.14,101.64h-1.35a.34.34,0,0,1-.25-.31,3.84,3.84,0,0,1-.11-.57.85.85,0,0,0-.74-.9.41.41,0,0,0-.28,0c-.29.18-.58.37-.86.58a.35.35,0,0,1-.52-.05c-.25-.26-.51-.52-.77-.76a.35.35,0,0,1,0-.53c.2-.28.39-.57.59-.85a1.26,1.26,0,0,0-.32-.92h-.1c-.33-.06-.67-.11-1-.2a1.37,1.37,0,0,1-.36-.23v-1.4a1.17,1.17,0,0,1,.86-.34.83.83,0,0,0,.91-.72.47.47,0,0,0,0-.3c-.19-.32-.4-.62-.61-.93a.27.27,0,0,1,0-.39l.9-.91a.26.26,0,0,1,.37,0,3.87,3.87,0,0,1,.56.38.78.78,0,0,0,1.07.11.46.46,0,0,0,.26-.34c.06-.32.13-.65.19-1a.32.32,0,0,1,.36-.31H326a.33.33,0,0,1,.37.32,4.67,4.67,0,0,1,.09.5.88.88,0,0,0,.77.95.45.45,0,0,0,.3,0c.32-.19.62-.4.92-.61a.28.28,0,0,1,.41,0l.88.9a.26.26,0,0,1,0,.37l-.36.54c-.37.55-.38.55-.1,1.14a.4.4,0,0,0,.24.19c.34.08.68.14,1,.2.18,0,.32.12.32.33,0,.41,0,.82,0,1.23a.28.28,0,0,1-.26.3c-.21,0-.41.1-.61.12-.42,0-.79.14-.85.65a.15.15,0,0,1,0,.07.28.28,0,0,0,0,.37c.21.29.39.59.6.88a.29.29,0,0,1,0,.43l-.86.85a.29.29,0,0,1-.41,0,4.6,4.6,0,0,1-.52-.36.83.83,0,0,0-1.11-.13.45.45,0,0,0-.26.33c-.06.32-.13.65-.19,1A.34.34,0,0,1,326.14,101.64Zm-2.92-5.47a2.27,2.27,0,1,0,4.55.05,2.27,2.27,0,1,0-4.55-.05Z" transform="translate(11.5 107.5)"/><path class="cls-100" d="M320.58,110.57h-1.1a.28.28,0,0,1-.2-.26,3.13,3.13,0,0,1-.09-.46.69.69,0,0,0-.6-.74.34.34,0,0,0-.23,0c-.24.15-.48.3-.7.47a.28.28,0,0,1-.43,0c-.21-.21-.41-.42-.63-.62a.28.28,0,0,1,0-.43l.48-.69a1,1,0,0,0-.26-.75h-.08c-.27-.05-.54-.09-.81-.16a1.12,1.12,0,0,1-.29-.19v-1.14a1,1,0,0,1,.7-.27.68.68,0,0,0,.74-.59.38.38,0,0,0,0-.24c-.16-.26-.33-.51-.5-.75a.22.22,0,0,1,0-.32l.74-.74a.21.21,0,0,1,.3,0,3.15,3.15,0,0,1,.45.31.64.64,0,0,0,.87.09.37.37,0,0,0,.21-.28c0-.26.11-.53.15-.79a.26.26,0,0,1,.29-.25h.93a.27.27,0,0,1,.3.26,3.81,3.81,0,0,1,.08.4.72.72,0,0,0,.63.77.37.37,0,0,0,.24,0c.26-.16.51-.33.75-.5a.23.23,0,0,1,.33,0l.72.73a.21.21,0,0,1,0,.3l-.29.44c-.3.45-.31.45-.08.93a.32.32,0,0,0,.19.15c.27.07.55.11.83.17s.26.1.26.27c0,.33,0,.67,0,1a.23.23,0,0,1-.21.24c-.17,0-.33.08-.5.1-.34,0-.64.12-.7.53a.13.13,0,0,1,0,.05.23.23,0,0,0,0,.3c.17.23.32.48.49.72a.24.24,0,0,1,0,.35l-.7.69a.23.23,0,0,1-.33,0,3.77,3.77,0,0,1-.42-.29.68.68,0,0,0-.91-.11.37.37,0,0,0-.21.27c0,.26-.11.53-.15.79A.28.28,0,0,1,320.58,110.57Zm-2.38-4.46a1.85,1.85,0,1,0,3.71,0,1.85,1.85,0,1,0-3.71,0Z" transform="translate(11.5 107.5)"/><path class="cls-101" d="M328.46,108.47h-.7a.18.18,0,0,1-.13-.16,2,2,0,0,1-.06-.29.44.44,0,0,0-.38-.47.21.21,0,0,0-.14,0c-.15.09-.3.19-.45.3a.18.18,0,0,1-.27,0l-.4-.4a.18.18,0,0,1,0-.27l.31-.44a.65.65,0,0,0-.17-.48h0c-.17,0-.35-.06-.51-.1a.71.71,0,0,1-.19-.12v-.73a.85.85,0,0,1,.18-.12.85.85,0,0,1,.27-.05.43.43,0,0,0,.47-.37.24.24,0,0,0,0-.16c-.1-.16-.21-.32-.32-.48a.14.14,0,0,1,0-.2l.47-.47a.14.14,0,0,1,.19,0,2,2,0,0,1,.29.2.41.41,0,0,0,.55.06.24.24,0,0,0,.13-.18c0-.17.07-.34.1-.5a.17.17,0,0,1,.19-.16h.59a.17.17,0,0,1,.19.17,2.42,2.42,0,0,1,0,.26.46.46,0,0,0,.4.49.23.23,0,0,0,.16,0l.48-.32a.15.15,0,0,1,.21,0l.46.47a.13.13,0,0,1,0,.19l-.19.28c-.19.28-.2.29-.05.59a.21.21,0,0,0,.12.1l.53.11c.09,0,.17.06.17.17s0,.43,0,.64a.14.14,0,0,1-.13.15l-.32.06c-.22,0-.41.07-.44.34l0,0a.15.15,0,0,0,0,.19l.31.46a.15.15,0,0,1,0,.22l-.44.44a.15.15,0,0,1-.21,0,2.41,2.41,0,0,1-.27-.18.43.43,0,0,0-.58-.07.23.23,0,0,0-.14.17c0,.17-.07.34-.1.5A.18.18,0,0,1,328.46,108.47Zm-1.52-2.84a1.18,1.18,0,1,0,2.36,0,1.18,1.18,0,1,0-2.36,0Z" transform="translate(11.5 107.5)"/><path class="cls-102" d="M324.12,127.12h0a3.24,3.24,0,0,1-3.24-3.24V110.5h6.49v13.38A3.24,3.24,0,0,1,324.12,127.12Z" transform="translate(11.5 107.5)"/><circle class="cls-103" cx="333.74" cy="221.25" r="0.47"/><circle class="cls-104" cx="336.99" cy="222.74" r="0.47"/><circle class="cls-105" cx="334.49" cy="225.43" r="0.47"/><circle class="cls-106" cx="337.74" cy="229.5" r="0.47"/><circle class="cls-107" cx="333.55" cy="232" r="0.47"/><circle class="cls-108" cx="336.99" cy="226.78" r="0.47"/><circle class="cls-109" cx="334.97" cy="229.03" r="0.47"/><circle class="cls-110" cx="336.79" cy="232.77" r="0.47"/><path class="cls-97" d="M347.43,159a.62.62,0,0,1,0,1.17L335,167.35a2.24,2.24,0,0,1-2,0,.62.62,0,0,1,0-1.17L345.41,159A2.23,2.23,0,0,1,347.43,159Z" transform="translate(11.5 107.5)"/><path class="cls-97" d="M341.92,152.24a.62.62,0,0,1,0,1.17l-12.44,7.23a2.23,2.23,0,0,1-2,0,.62.62,0,0,1,0-1.17l12.44-7.23A2.23,2.23,0,0,1,341.92,152.24Z" transform="translate(11.5 107.5)"/><path class="cls-97" d="M343.65,155.85a.62.62,0,0,1,0,1.17l-8.55,5a2.23,2.23,0,0,1-2,0,.62.62,0,0,1,0-1.17l8.55-5A2.23,2.23,0,0,1,343.65,155.85Z" transform="translate(11.5 107.5)"/><path class="cls-111" d="M366.44,136.2l-1.94,2.32c-5.09-1.67-11.68-1.25-16,1.26-5.19,3-5.16,7.91.07,10.93a15.64,15.64,0,0,0,3.6,1.48c5,1.4,11.14.91,15.26-1.48,2.76-1.6,4-3.73,3.86-5.83l4.45.05c.15,2.74-1.56,5.51-5.16,7.6-6.11,3.55-15.61,4-22.55,1.24a19.67,19.67,0,0,1-2.6-1.24c-7-4-7-10.55-.09-14.57C351,134.65,359.67,134.06,366.44,136.2Z" transform="translate(11.5 107.5)"/><path class="cls-97" d="M370.5,138c3.35,1.93,5.08,4.44,5.24,7l-4.45-.05c-.16-1.85-1.47-3.68-3.92-5.1a15.13,15.13,0,0,0-2.87-1.26l1.94-2.32A20.52,20.52,0,0,1,370.5,138Z" transform="translate(11.5 107.5)"/><rect class="cls-112" x="364.37" y="224.49" width="12.65" height="8.45"/><polygon class="cls-113" points="364.37 232.94 370.69 228.72 377.02 232.94 364.37 232.94"/><polygon class="cls-114" points="364.37 224.49 370.69 230.15 377.02 224.49 364.37 224.49"/><path class="cls-115" d="M358.78,145h0a3.24,3.24,0,0,1-3.24-3.24V128.37H362v13.38A3.24,3.24,0,0,1,358.78,145Z" transform="translate(11.5 107.5)"/><circle class="cls-116" cx="368.38" cy="238.42" r="0.47"/><circle class="cls-117" cx="371.63" cy="239.91" r="0.47"/><circle class="cls-118" cx="369.13" cy="242.6" r="0.47"/><circle class="cls-119" cx="372.38" cy="246.67" r="0.47"/><circle class="cls-120" cx="368.18" cy="249.18" r="0.47"/><circle class="cls-121" cx="371.63" cy="243.96" r="0.47"/><circle class="cls-122" cx="369.6" cy="246.2" r="0.47"/><circle class="cls-123" cx="371.43" cy="249.94" r="0.47"/><path class="cls-97" d="M383.79,180.48a.62.62,0,0,1,0,1.17l-12.44,7.23a2.24,2.24,0,0,1-2,0,.62.62,0,0,1,0-1.17l12.44-7.23A2.23,2.23,0,0,1,383.79,180.48Z" transform="translate(11.5 107.5)"/><path class="cls-97" d="M378.28,173.77a.62.62,0,0,1,0,1.17l-12.44,7.23a2.23,2.23,0,0,1-2,0,.62.62,0,0,1,0-1.17l12.44-7.23A2.23,2.23,0,0,1,378.28,173.77Z" transform="translate(11.5 107.5)"/><path class="cls-97" d="M380,177.38a.62.62,0,0,1,0,1.17l-8.55,5a2.23,2.23,0,0,1-2,0,.62.62,0,0,1,0-1.17l8.55-5A2.23,2.23,0,0,1,380,177.38Z" transform="translate(11.5 107.5)"/><path class="cls-124" d="M405.33,160.49l-1.93,2.32c-5.1-1.67-11.68-1.25-16,1.26-5.2,3-5.17,7.91.06,10.93s13.67,3,18.87,0l3.15,1.82c-6.92,4-18.18,4-25.15,0s-7-10.55-.08-14.57C389.95,158.94,398.57,158.36,405.33,160.49Z" transform="translate(11.5 107.5)"/><path class="cls-97" d="M409.4,162.25c7,4,7,10.54.08,14.57L406.33,175c5.19-3,5.16-7.91-.06-10.92a15.39,15.39,0,0,0-2.86-1.26l1.93-2.32A20.51,20.51,0,0,1,409.4,162.25Z" transform="translate(11.5 107.5)"/><path class="cls-125" d="M404.41,143.67a6,6,0,1,0-9,5.23,2.2,2.2,0,0,1,1.07,1.93v.42a2,2,0,0,0,1.72,2,1.92,1.92,0,0,0,2.12-1.91v-.64a2,2,0,0,1,1-1.78A6,6,0,0,0,404.41,143.67Z" transform="translate(11.5 107.5)"/><path class="cls-126" d="M398.38,153.85h0a1.92,1.92,0,0,1-1.92-1.92v-.69h3.84v.69A1.92,1.92,0,0,1,398.38,153.85Z" transform="translate(11.5 107.5)"/><path class="cls-127" d="M400.19,151.81h-3.52a.42.42,0,0,1-.42-.42h0a.42.42,0,0,1,.42-.42h3.52a.42.42,0,0,1,.42.42h0A.42.42,0,0,1,400.19,151.81Z" transform="translate(11.5 107.5)"/><path class="cls-128" d="M400.19,152.64h-3.52a.42.42,0,0,1-.42-.42h0a.42.42,0,0,1,.42-.42h3.52a.42.42,0,0,1,.42.42h0A.42.42,0,0,1,400.19,152.64Z" transform="translate(11.5 107.5)"/><path class="cls-129" d="M393.72,140.85a6.26,6.26,0,0,1,5.8-2,11.29,11.29,0,0,0-4.21,3.19,1,1,0,0,1-1.66.1h0A1,1,0,0,1,393.72,140.85Z" transform="translate(11.5 107.5)"/><path class="cls-130" d="M397.85,151a29.76,29.76,0,0,0-2.25-7.17c-1.38-2.46-2.14,3.81,1.65,2.3s2.69-4.1,2.14-3.5-.71,8.37-.71,8.37" transform="translate(11.5 107.5)"/><path class="cls-131" d="M406.93,263.26h6.49a0,0,0,0,1,0,0v13.38a3.24,3.24,0,0,1-3.24,3.24h0a3.24,3.24,0,0,1-3.24-3.24V263.26A0,0,0,0,1,406.93,263.26Z"/><circle class="cls-132" cx="408.27" cy="265.81" r="0.47"/><circle class="cls-133" cx="411.52" cy="267.3" r="0.47"/><circle class="cls-134" cx="409.02" cy="269.99" r="0.47"/><circle class="cls-135" cx="412.27" cy="274.06" r="0.47"/><circle class="cls-136" cx="408.08" cy="276.56" r="0.47"/><circle class="cls-137" cx="411.52" cy="271.35" r="0.47"/><circle class="cls-138" cx="409.5" cy="273.59" r="0.47"/><circle class="cls-139" cx="411.33" cy="277.33" r="0.47"/><g class="cls-140"><g class="cls-2"><polygon class="cls-141" points="360.56 267.75 360.46 301.82 335.56 314.07 335.66 280 360.56 267.75"/><polygon class="cls-142" points="335.66 280 335.56 314.07 302.87 313.24 302.96 279.17 335.66 280"/><path class="cls-143" d="M347.24,159.11c.64.37,1.24.75,1.82,1.14l-24.9,12.25-32.69-.83c.31-4.42,3.27-8.8,8.94-12.26,12.44-7.57,33.15-7.85,46.27-.63Z" transform="translate(11.5 107.5)"/></g></g><g class="cls-140"><g class="cls-2"><path class="cls-144" d="M356.54,184.2c0,.17,0,.34,0,.51s0,.27,0,.4,0,.34-.08.5-.05.27-.08.41-.08.33-.12.49-.07.27-.12.41-.1.33-.16.49l-.15.4c-.07.17-.14.34-.22.52l-.17.38c-.08.18-.18.35-.27.52l-.19.36c-.15.26-.31.52-.48.77l-.09.15c-.2.3-.42.6-.66.9l-.16.2q-.33.41-.7.81l-.27.29q-.39.41-.82.82l-.17.16-.5.44-.38.33-.57.45-.39.3-.69.49-.34.24q-.53.36-1.1.71l-.26.15q-.69.41-1.41.79l-.52.27q-.61.31-1.25.6l-.51.23c-.58.26-1.18.5-1.78.73l-.08,0c-.58.22-1.18.43-1.78.62l-.45.14c-.87.27-1.76.53-2.66.75l-.3.07c-.95.23-1.91.44-2.88.61l-.2,0-1.72.27-.64.08-1.32.16-.8.08-.93.08-.85.06-.94,0-.89,0-.79,0H322.9l-1.43,0-.1,22.34,1.06,0h2.1l.8,0h.45l.44,0,.94,0,.85-.06.94-.08.46,0,.33,0,1.32-.16.64-.08,1.72-.27.18,0h0c1-.18,1.93-.38,2.88-.61l.3-.07c.9-.23,1.79-.48,2.66-.75l.24-.07.21-.07c.6-.2,1.2-.4,1.78-.62l.08,0c.61-.23,1.2-.48,1.78-.73l.51-.23q.63-.29,1.25-.6l.52-.27q.72-.38,1.41-.79l.18-.1.08,0q.57-.35,1.1-.71l.34-.24.69-.49.39-.3.57-.45.38-.33.5-.44,0,0,.12-.12q.43-.4.82-.82l.27-.29q.37-.4.7-.81l.12-.14,0-.05c.23-.3.45-.6.66-.9l.09-.15c.17-.26.33-.51.48-.77l.05-.08.14-.28c.09-.17.19-.35.27-.52l.17-.38c.08-.17.15-.34.22-.52l.07-.16c0-.08.05-.16.08-.24s.11-.33.16-.49l.12-.41q.07-.24.12-.49c0-.07,0-.14.05-.21s0-.13,0-.19.06-.33.08-.5,0-.27,0-.4,0-.34,0-.51,0-.18,0-.26,0-.19,0-.29l.1-22.34C356.57,183.83,356.55,184,356.54,184.2Z" transform="translate(11.5 107.5)"/><path class="cls-145" d="M348.74,171.67c10.74,7.3,10.48,18.25-1.16,25.34-7,4.28-16.68,6.23-26.12,5.81l2.37-18.9Z" transform="translate(11.5 107.5)"/></g></g><g class="cls-140"><g class="cls-2"><polygon class="cls-146" points="330.71 303.18 330.61 314.52 328.24 333.42 328.33 322.08 330.71 303.18"/><path class="cls-147" d="M314.41,214.5q-1.32-.12-2.63-.29l-.33,0-.11,0c-.77-.11-1.53-.24-2.29-.39l-.44-.08q-1.15-.23-2.28-.51l-.44-.12c-.59-.15-1.17-.32-1.75-.5l-.79-.25c-.55-.18-1.09-.37-1.63-.57l-.61-.22c-.52-.2-1-.42-1.52-.64l-.74-.32c-.73-.34-1.45-.7-2.14-1.08l-.57-.32c-5.62-3.24-8.79-7.39-9.49-11.65a11.14,11.14,0,0,1-.15-1.83l-.1,11.25c0,4.89,3.21,9.78,9.63,13.48l.57.32c.69.38,1.4.74,2.14,1.08l.75.32c.44.19.88.39,1.33.57l.18.07.61.22c.54.2,1.08.39,1.63.57l.79.25.72.22,1,.27.44.12c.64.16,1.29.31,1.95.45l.34.06.44.08c.76.14,1.52.28,2.29.39l.11,0h0l.29,0q1.31.18,2.63.29l.24,0q1.09.09,2.18.14l.1-11.25C316,214.63,315.22,214.57,314.41,214.5Z" transform="translate(11.5 107.5)"/><path class="cls-148" d="M319.21,195.81l-2.37,18.9a46.52,46.52,0,0,1-20.14-5.19l-.57-.32c-6.75-3.9-10-9.1-9.61-14.23Z" transform="translate(11.5 107.5)"/></g></g><g class="cls-149"><g class="cls-2"><polygon class="cls-150" points="271.2 182.95 270.95 270.15 268.31 275.94 268.55 188.73 271.2 182.95"/><polygon class="cls-151" points="268.55 188.73 268.31 275.94 258.33 277.49 258.58 190.28 268.55 188.73"/><polygon class="cls-152" points="258.58 190.28 258.33 277.49 251 273.25 251.25 186.05 258.58 190.28"/><polygon class="cls-153" points="271.2 182.95 268.55 188.73 258.58 190.28 251.25 186.05 253.89 180.26 263.86 178.71 271.2 182.95"/></g></g><g class="cls-149"><g class="cls-2"><polygon class="cls-154" points="297.62 218.71 297.48 269.13 294.83 274.91 294.98 224.49 297.62 218.71"/><polygon class="cls-155" points="294.98 224.49 294.83 274.91 284.86 276.46 285 226.04 294.98 224.49"/><polygon class="cls-156" points="285 226.04 284.86 276.46 277.52 272.23 277.67 221.81 285 226.04"/><polygon class="cls-157" points="297.62 218.71 294.98 224.49 285 226.04 277.67 221.81 280.31 216.03 290.28 214.47 297.62 218.71"/></g></g><g class="cls-149"><g class="cls-2"><polygon class="cls-158" points="281.44 262.65 281.38 284.46 278.73 290.24 278.8 268.44 281.44 262.65"/><polygon class="cls-159" points="278.8 268.44 278.73 290.24 268.76 291.79 268.82 269.99 278.8 268.44"/><polygon class="cls-160" points="268.82 269.99 268.76 291.79 261.43 287.56 261.49 265.75 268.82 269.99"/><polygon class="cls-161" points="281.44 262.65 278.8 268.44 268.82 269.99 261.49 265.75 264.13 259.97 274.11 258.42 281.44 262.65"/></g></g></g></g></svg>