<svg xmlns="http://www.w3.org/2000/svg" xmlns:xlink="http://www.w3.org/1999/xlink" viewBox="0 0 313.19 136.04"><defs><style>.cls-1{fill:url(#_ÂÁ_Ï_ÌÌ_È_ËÂÌÚ_32);}.cls-2{fill:url(#_ÂÁ_Ï_ÌÌ_È_ËÂÌÚ_32-2);}.cls-3{fill:url(#_ÂÁ_Ï_ÌÌ_È_ËÂÌÚ_3);}.cls-34,.cls-4{fill:#333242;}.cls-5{fill:#0a429f;}.cls-40,.cls-6{fill:#ffb725;}.cls-7{fill:#0d5bd9;}.cls-8{fill:url(#_ÂÁ_Ï_ÌÌ_È_ËÂÌÚ_3-2);}.cls-9{fill:url(#_ÂÁ_Ï_ÌÌ_È_ËÂÌÚ_3-3);}.cls-10{fill:url(#_ÂÁ_Ï_ÌÌ_È_ËÂÌÚ_40);}.cls-11{fill:#42445d;}.cls-12{fill:url(#_ÂÁ_Ï_ÌÌ_È_ËÂÌÚ_3-4);}.cls-13,.cls-35{fill:#fd4b1b;}.cls-14{fill:url(#_ÂÁ_Ï_ÌÌ_È_ËÂÌÚ_3-5);}.cls-15{fill:url(#_ÂÁ_Ï_ÌÌ_È_ËÂÌÚ_32-3);}.cls-16{fill:url(#_ÂÁ_Ï_ÌÌ_È_ËÂÌÚ_3-6);}.cls-17,.cls-18,.cls-30{fill:#d0ddfd;}.cls-18{opacity:0.25;}.cls-19{fill:url(#_ÂÁ_Ï_ÌÌ_È_ËÂÌÚ_3-7);}.cls-20{fill:#fff;}.cls-21{fill:url(#_ÂÁ_Ï_ÌÌ_È_ËÂÌÚ_32-4);}.cls-22{fill:url(#_ÂÁ_Ï_ÌÌ_È_ËÂÌÚ_3-8);}.cls-23{fill:url(#_ÂÁ_Ï_ÌÌ_È_ËÂÌÚ_32-5);}.cls-24{fill:url(#_ÂÁ_Ï_ÌÌ_È_ËÂÌÚ_32-6);}.cls-25{opacity:0.3;}.cls-26{fill:url(#_ÂÁ_Ï_ÌÌ_È_ËÂÌÚ_3-9);}.cls-27{fill:url(#_ÂÁ_Ï_ÌÌ_È_ËÂÌÚ_40-2);}.cls-28{fill:url(#_ÂÁ_Ï_ÌÌ_È_ËÂÌÚ_32-7);}.cls-29,.cls-30,.cls-31,.cls-32,.cls-33,.cls-34,.cls-35,.cls-36,.cls-38,.cls-39,.cls-40,.cls-48,.cls-49{fill-rule:evenodd;}.cls-29{fill:url(#_ÂÁ_Ï_ÌÌ_È_ËÂÌÚ_40-3);}.cls-31{fill:url(#_ÂÁ_Ï_ÌÌ_È_ËÂÌÚ_40-4);}.cls-32,.cls-41{fill:#ffcab8;}.cls-33,.cls-42{fill:#ffc3ab;}.cls-36{fill:#c3391c;}.cls-37{fill:url(#_ÂÁ_Ï_ÌÌ_È_ËÂÌÚ_40-5);}.cls-38{fill:url(#_ÂÁ_Ï_ÌÌ_È_ËÂÌÚ_3-10);}.cls-39{fill:url(#_ÂÁ_Ï_ÌÌ_È_ËÂÌÚ_3-11);}.cls-43{fill:url(#_ÂÁ_Ï_ÌÌ_È_ËÂÌÚ_3-12);}.cls-44{fill:#d0aecf;}.cls-45{fill:url(#_ÂÁ_Ï_ÌÌ_È_ËÂÌÚ_40-6);}.cls-46{fill:url(#_ÂÁ_Ï_ÌÌ_È_ËÂÌÚ_40-7);}.cls-47{fill:url(#_ÂÁ_Ï_ÌÌ_È_ËÂÌÚ_3-13);}.cls-48{fill:url(#_ÂÁ_Ï_ÌÌ_È_ËÂÌÚ_3-14);}.cls-49{fill:url(#_ÂÁ_Ï_ÌÌ_È_ËÂÌÚ_3-15);}.cls-50{fill:#3251b4;}.cls-51{fill:#fb660a;}.cls-52{fill:#23399b;}.cls-53{fill:#608fdf;}.cls-54{fill:#ffc8b7;}.cls-55{fill:#101e41;}</style><linearGradient id="_ÂÁ_Ï_ÌÌ_È_ËÂÌÚ_32" x1="88.63" y1="72.46" x2="303.87" y2="72.46" gradientUnits="userSpaceOnUse"><stop offset="0" stop-color="#eff6ff"/><stop offset="1" stop-color="#c4d8fb"/></linearGradient><linearGradient id="_ÂÁ_Ï_ÌÌ_È_ËÂÌÚ_32-2" x1="5.59" y1="115.03" x2="270.77" y2="115.03" xlink:href="#_ÂÁ_Ï_ÌÌ_È_ËÂÌÚ_32"/><linearGradient id="_ÂÁ_Ï_ÌÌ_È_ËÂÌÚ_3" x1="288.82" y1="87.98" x2="288.82" y2="67.77" gradientUnits="userSpaceOnUse"><stop offset="0" stop-color="#fb6b14"/><stop offset="1" stop-color="#fdb522"/></linearGradient><linearGradient id="_ÂÁ_Ï_ÌÌ_È_ËÂÌÚ_3-2" x1="294.92" y1="104.95" x2="300.49" y2="102.82" xlink:href="#_ÂÁ_Ï_ÌÌ_È_ËÂÌÚ_3"/><linearGradient id="_ÂÁ_Ï_ÌÌ_È_ËÂÌÚ_3-3" x1="298.49" y1="92.24" x2="301.07" y2="90.62" xlink:href="#_ÂÁ_Ï_ÌÌ_È_ËÂÌÚ_3"/><linearGradient id="_ÂÁ_Ï_ÌÌ_È_ËÂÌÚ_40" x1="270.87" y1="89.78" x2="266.99" y2="87.4" gradientUnits="userSpaceOnUse"><stop offset="0" stop-color="#eff6ff"/><stop offset="1" stop-color="#8aa8da"/></linearGradient><linearGradient id="_ÂÁ_Ï_ÌÌ_È_ËÂÌÚ_3-4" x1="256.94" y1="21.79" x2="137.99" y2="21.79" xlink:href="#_ÂÁ_Ï_ÌÌ_È_ËÂÌÚ_3"/><linearGradient id="_ÂÁ_Ï_ÌÌ_È_ËÂÌÚ_3-5" x1="181.51" y1="85.15" x2="181.51" y2="93.44" xlink:href="#_ÂÁ_Ï_ÌÌ_È_ËÂÌÚ_3"/><linearGradient id="_ÂÁ_Ï_ÌÌ_È_ËÂÌÚ_32-3" x1="186.15" y1="81.4" x2="186.15" y2="89.67" xlink:href="#_ÂÁ_Ï_ÌÌ_È_ËÂÌÚ_32"/><linearGradient id="_ÂÁ_Ï_ÌÌ_È_ËÂÌÚ_3-6" x1="199.13" y1="85.66" x2="242.14" y2="85.66" xlink:href="#_ÂÁ_Ï_ÌÌ_È_ËÂÌÚ_3"/><linearGradient id="_ÂÁ_Ï_ÌÌ_È_ËÂÌÚ_3-7" x1="197.44" y1="42.91" x2="244.97" y2="42.91" xlink:href="#_ÂÁ_Ï_ÌÌ_È_ËÂÌÚ_3"/><linearGradient id="_ÂÁ_Ï_ÌÌ_È_ËÂÌÚ_32-4" x1="262.92" y1="55.02" x2="272.15" y2="55.02" xlink:href="#_ÂÁ_Ï_ÌÌ_È_ËÂÌÚ_32"/><linearGradient id="_ÂÁ_Ï_ÌÌ_È_ËÂÌÚ_3-8" x1="268.73" y1="47.41" x2="273.66" y2="47.41" xlink:href="#_ÂÁ_Ï_ÌÌ_È_ËÂÌÚ_3"/><linearGradient id="_ÂÁ_Ï_ÌÌ_È_ËÂÌÚ_32-5" x1="261.64" y1="87.86" x2="273.95" y2="87.86" xlink:href="#_ÂÁ_Ï_ÌÌ_È_ËÂÌÚ_32"/><linearGradient id="_ÂÁ_Ï_ÌÌ_È_ËÂÌÚ_32-6" x1="123.21" y1="44.14" x2="139.5" y2="44.14" xlink:href="#_ÂÁ_Ï_ÌÌ_È_ËÂÌÚ_32"/><linearGradient id="_ÂÁ_Ï_ÌÌ_È_ËÂÌÚ_3-9" x1="123.84" y1="100.48" x2="137.42" y2="100.48" xlink:href="#_ÂÁ_Ï_ÌÌ_È_ËÂÌÚ_3"/><linearGradient id="_ÂÁ_Ï_ÌÌ_È_ËÂÌÚ_40-2" x1="124.71" y1="89.9" x2="128.79" y2="86.94" xlink:href="#_ÂÁ_Ï_ÌÌ_È_ËÂÌÚ_40"/><linearGradient id="_ÂÁ_Ï_ÌÌ_È_ËÂÌÚ_32-7" x1="91.83" y1="84.14" x2="87.33" y2="80.17" xlink:href="#_ÂÁ_Ï_ÌÌ_È_ËÂÌÚ_32"/><linearGradient id="_ÂÁ_Ï_ÌÌ_È_ËÂÌÚ_40-3" x1="89.13" y1="41.48" x2="91.2" y2="43.55" xlink:href="#_ÂÁ_Ï_ÌÌ_È_ËÂÌÚ_40"/><linearGradient id="_ÂÁ_Ï_ÌÌ_È_ËÂÌÚ_40-4" x1="89.35" y1="45.85" x2="92.25" y2="48.75" xlink:href="#_ÂÁ_Ï_ÌÌ_È_ËÂÌÚ_40"/><linearGradient id="_ÂÁ_Ï_ÌÌ_È_ËÂÌÚ_40-5" x1="94.01" y1="63.32" x2="108.6" y2="63.32" xlink:href="#_ÂÁ_Ï_ÌÌ_È_ËÂÌÚ_40"/><linearGradient id="_ÂÁ_Ï_ÌÌ_È_ËÂÌÚ_3-10" x1="127.09" y1="56.2" x2="139.22" y2="51.48" xlink:href="#_ÂÁ_Ï_ÌÌ_È_ËÂÌÚ_3"/><linearGradient id="_ÂÁ_Ï_ÌÌ_È_ËÂÌÚ_3-11" x1="127.06" y1="56.11" x2="139.18" y2="51.39" xlink:href="#_ÂÁ_Ï_ÌÌ_È_ËÂÌÚ_3"/><linearGradient id="_ÂÁ_Ï_ÌÌ_È_ËÂÌÚ_3-12" x1="118.6" y1="48.57" x2="122.36" y2="48.57" xlink:href="#_ÂÁ_Ï_ÌÌ_È_ËÂÌÚ_3"/><linearGradient id="_ÂÁ_Ï_ÌÌ_È_ËÂÌÚ_40-6" x1="121.13" y1="104.24" x2="123.19" y2="84.1" xlink:href="#_ÂÁ_Ï_ÌÌ_È_ËÂÌÚ_40"/><linearGradient id="_ÂÁ_Ï_ÌÌ_È_ËÂÌÚ_40-7" x1="133.68" y1="104.33" x2="127.74" y2="78.96" xlink:href="#_ÂÁ_Ï_ÌÌ_È_ËÂÌÚ_40"/><linearGradient id="_ÂÁ_Ï_ÌÌ_È_ËÂÌÚ_3-13" x1="126.45" y1="70.89" x2="120.01" y2="55.57" xlink:href="#_ÂÁ_Ï_ÌÌ_È_ËÂÌÚ_3"/><linearGradient id="_ÂÁ_Ï_ÌÌ_È_ËÂÌÚ_3-14" x1="135.68" y1="62.13" x2="123.76" y2="56.38" xlink:href="#_ÂÁ_Ï_ÌÌ_È_ËÂÌÚ_3"/><linearGradient id="_ÂÁ_Ï_ÌÌ_È_ËÂÌÚ_3-15" x1="136.42" y1="60.59" x2="124.5" y2="54.84" xlink:href="#_ÂÁ_Ï_ÌÌ_È_ËÂÌÚ_3"/></defs><title>data</title><g id="Layer_2" data-name="Layer 2"><g id="Layer_2-2" data-name="Layer 2"><path class="cls-1" d="M237.46,8.88c-70.86,0-65.93,38-121.71,52.38-29.64,7.65-39.36,45.21-6.75,52.3,17.07,3.71,37.8-.13,55.48,2.67,21.47,3.4,34.39,11.08,55.64,16.3s52.36,6.69,69.33-10.73C320.69,89.74,300.18,8.88,237.46,8.88Z"/><path class="cls-2" d="M228.86,97.47c-27.78,0-59.26.26-82.16.58-40.93.57-78.69,9-118.81,9.18-30.69.12-41.4,16.48-4.36,15.93,20.8-.31,43.78-1.54,66.69-.29,29.47,1.61,55.51,6.26,88.86,8.43,50.06,3.26,74.87.4,107.16-8.81C327.5,110.7,312.53,97.47,228.86,97.47Z"/><path class="cls-3" d="M287.71,71.5a3.31,3.31,0,0,0-.9,3.42,6.86,6.86,0,0,0-2.15-.49c-1.35-.11-2.71,2.86-2.71,2.86l.88,4.05-1.74-.79a37.25,37.25,0,0,0,4.9,23.89,7,7,0,0,0,.71-2.52c.23-3.27-2.51-5.45-2.32-11.4.44-14,8-9.18,8.93-14.71a26.06,26.06,0,0,1,3.59-9.29h0C293.39,68.45,289.31,70.05,287.71,71.5Z"/><path class="cls-4" d="M287.79,91.23C286.21,92.94,281,105,286.44,105c1.85,0,3.71-4.54,6.25-10.2,1.43-3.2,4.22-1.09,4.22-1.09S291.16,87.61,287.79,91.23Z"/><path class="cls-5" d="M305.38,75.15c-3.37-.19-5.57,3.08-5.57,3.08A6.91,6.91,0,0,1,301.45,75c-.2,0-6.64.91-7.13,1.58A23.26,23.26,0,0,0,292.83,80s-1-1.88-.82-2.44S281.26,84.46,285.2,101h0c0,.19.09.38.14.56a8.87,8.87,0,0,1-.11-.91,0,0,0,0,0,0,0,14.29,14.29,0,0,1,.61-5.29,15,15,0,0,1,5.59-7.65c2.29-1.69,6.55-2.24,10.46-4.51s5-2.3,11.28-9.72l0,0S308.74,75.34,305.38,75.15Z"/><path class="cls-4" d="M264,95c-2.22.7-7.09,2.91-9.23,7.23,0,0,5-6.15,12.21-6.15,6.18,0,14.81,4.11,15.61,7.48l2.5-2.18S276,91.27,264,95Z"/><path class="cls-6" d="M283.52,85.51c-.83,5.83.56,14,1.77,16.95.23-3.27-1.09-6-.9-11.92.44-14,8-9.18,8.93-14.71a26.06,26.06,0,0,1,3.59-9.29A41.05,41.05,0,0,0,291.33,75C289.26,79.67,284.57,78.14,283.52,85.51Z"/><path class="cls-7" d="M264.38,99.31c-1.94.89-6.12,3.53-7.64,8,0,0,3.94-6.57,10.43-7.21,5.21-.51,13.15,2.34,15,5.38l1.9-1.73S274.85,94.49,264.38,99.31Z"/><path class="cls-5" d="M268.31,89.39s2.72,0,5.1,3.25c2.74,3.77,7.47,12.38,9.6,12.38,6.22,0-2.86-15.94-4.59-18C274.74,82.67,268.31,89.39,268.31,89.39Z"/><path class="cls-4" d="M291.6,100.72s-5.4-3.17-7.93,4.79h7.46C289,104.26,289.49,102.18,291.6,100.72Z"/><path class="cls-8" d="M301.24,99.44c-2.79-1.81-6.93-.95-7.23-.79-8-1.75-11.23,5.3-11.83,6.85h1.55c.41-3.18,6.39-7.82,9.82-2.87a24.51,24.51,0,0,0,9.51,7.73l0,0C305.24,105.78,304.66,101.67,301.24,99.44Z"/><path class="cls-7" d="M301.24,99.44a8.69,8.69,0,0,0-6.89-.89c3,.35,5.54,1.77,6.57,3.29,2.35,3.46,1.95,6.63,2.14,8.48C305.24,105.78,304.68,101.63,301.24,99.44Z"/><path class="cls-5" d="M299.12,88.52c-3.23-1.55-5,.21-5,.21a5.35,5.35,0,0,0-6.57,2.7s4.5-1.36,6.53,1.79,6.16,4.18,6.16,4.18C302.46,94.35,302.35,90.07,299.12,88.52Z"/><path class="cls-9" d="M299.12,88.52c-3.23-1.55-5,.21-5,.21s3.84,0,6.12,8.67C302.46,94.35,302.35,90.07,299.12,88.52Z"/><path class="cls-10" d="M271.53,84.21s-1.89-2.13-5.7-.51-4.17,6.55-1.81,10.18a15,15,0,0,0,7.33-4.5C275,84.81,279,87.67,279,87.67S275.92,82.39,271.53,84.21Z"/><path class="cls-7" d="M265.83,83.71c-3.81,1.62-4.17,6.55-1.81,10.18,3.09-9.86,7.51-9.67,7.51-9.67S269.63,82.09,265.83,83.71Z"/><path class="cls-7" d="M285.84,95.37a15,15,0,0,1,5.59-7.65c2.29-1.69,6.55-2.24,10.46-4.51s5-2.3,11.28-9.72c-.36.36-6.28,6.08-12.35,6.58C295.18,80.53,286.45,82.05,285.84,95.37Z"/><rect class="cls-11" x="116.4" y="23.81" width="162.88" height="81.69"/><rect class="cls-12" x="112.52" y="19.77" width="170.64" height="4.04"/><path class="cls-4" d="M262.11,51.66c-8.84,16-7.41,37.53-20,37.53-6.59,0-18-37.72-28.09-24-19.18,26.21-26.38-.32-37.19,8S162.38,96.05,152.5,96.05c-6,0-9.58-8.69-15.86-6-7.71,3.25-7.93,11.08-18.65,15.49.43-.21,161.3,0,161.3,0V43C275.86,40.48,266.86,43,262.11,51.66Z"/><rect class="cls-7" x="166.29" y="80.41" width="2.53" height="13.49"/><rect class="cls-13" x="170.94" y="85.41" width="2.53" height="8.49"/><rect class="cls-5" x="175.59" y="81.64" width="2.53" height="12.26"/><rect class="cls-14" x="180.24" y="83.53" width="2.53" height="10.37"/><rect class="cls-15" x="184.89" y="77.76" width="2.53" height="16.14"/><path class="cls-7" d="M222.4,78.06c-2.78,4.94-3.28,14-7.35,14-3.39,0-2.37-19.11-8.34-19.11-8.38,0-7.58,21.48-7.58,21.48h32.06s-.58-7-.88-9.28C228.83,73.78,224.31,74.67,222.4,78.06Z"/><path class="cls-16" d="M234.46,76.9c-5.43,0-7.84,13.9-13.82,13.9-5,0-5.57-12.27-12.23-12.27-7.15,0-9.28,15.9-9.28,15.9h43S240.56,76.9,234.46,76.9Z"/><path class="cls-17" d="M230.4,79.64c-6.25,0-3.78,12.14-9.77,12.14-5,0-4.31-7.95-10.75-7.95-7.15,0-10.75,10.6-10.75,10.6h43S236.08,79.64,230.4,79.64Z"/><path class="cls-18" d="M238.42,46.9c-1.44-.88-1.72-3.34-1.8-5-.43-9.69-5-11.88-8.33-9.26-4.8,3.75-.59,18.87-8,18.87-6,0-3.82-13.89-12.22-14-9.78-.12-10.37,16.67-10.37,16.67h47C244.55,44.43,240.52,48.19,238.42,46.9Z"/><path class="cls-19" d="M240.48,47.2a3.27,3.27,0,0,1-1.93-.21c-1-.62-1.57-2.2-1.68-4.83-.23-5.31-1.79-9-4.27-10.16a4.23,4.23,0,0,0-4.45.71c-2.17,1.7-2.56,5.58-2.94,9.34-.49,4.87-1,9.47-4.93,9.47-2.56,0-3.53-2.74-4.66-5.92-1.33-3.76-2.84-8-7.56-8.07h-.11c-4.06,0-7.17,2.87-9,8.31a33.69,33.69,0,0,0-1.53,8.3l.49,0c0-.16.68-16.14,10-16.14h.1c4.38.05,5.77,4,7.1,7.75C216.29,49,217.36,52,220.27,52c4.42,0,4.92-5,5.41-9.91.37-3.66.75-7.44,2.75-9a3.71,3.71,0,0,1,4-.65c2.31,1.06,3.76,4.61,4,9.74.12,2.8.75,4.51,1.91,5.22a3.65,3.65,0,0,0,2.22.28,3.1,3.1,0,0,1,2.52.5c.92.84,1.39,2.79,1.45,6H245c-.06-3.37-.57-5.38-1.61-6.32A3.56,3.56,0,0,0,240.48,47.2Z"/><circle class="cls-20" cx="230.82" cy="31.89" r="1.01"/><rect class="cls-17" x="230.76" y="33.27" width="0.12" height="0.61"/><rect class="cls-17" x="230.76" y="50.06" width="0.12" height="1.24"/><rect class="cls-17" x="230.76" y="51.8" width="0.12" height="1.24"/><rect class="cls-17" x="230.76" y="48.32" width="0.12" height="1.24"/><rect class="cls-17" x="230.76" y="37.86" width="0.12" height="1.24"/><rect class="cls-17" x="230.76" y="39.6" width="0.12" height="1.24"/><rect class="cls-17" x="230.76" y="46.58" width="0.12" height="1.24"/><rect class="cls-17" x="230.76" y="34.38" width="0.12" height="1.25"/><rect class="cls-17" x="230.76" y="36.12" width="0.12" height="1.24"/><rect class="cls-17" x="230.76" y="41.35" width="0.12" height="1.25"/><rect class="cls-17" x="230.76" y="44.83" width="0.12" height="1.25"/><rect class="cls-17" x="230.76" y="43.09" width="0.12" height="1.25"/><rect class="cls-17" x="230.76" y="53.55" width="0.12" height="0.61"/><circle class="cls-20" cx="207.59" cy="37.82" r="1.01"/><rect class="cls-17" x="207.53" y="39.2" width="0.12" height="0.61"/><rect class="cls-17" x="207.53" y="45.26" width="0.12" height="1.18"/><rect class="cls-17" x="207.53" y="41.94" width="0.12" height="1.18"/><rect class="cls-17" x="207.53" y="43.6" width="0.12" height="1.18"/><rect class="cls-17" x="207.53" y="51.89" width="0.12" height="1.18"/><rect class="cls-17" x="207.53" y="40.28" width="0.12" height="1.18"/><rect class="cls-17" x="207.53" y="50.23" width="0.12" height="1.18"/><rect class="cls-17" x="207.53" y="46.91" width="0.12" height="1.18"/><rect class="cls-17" x="207.53" y="48.57" width="0.12" height="1.18"/><rect class="cls-17" x="207.53" y="53.55" width="0.12" height="0.61"/><rect class="cls-20" x="197.43" y="54.12" width="47.29" height="0.06"/><path class="cls-20" d="M262.43,39.3a7,7,0,1,0,7,7A7,7,0,0,0,262.43,39.3Zm0,13.88a6.84,6.84,0,1,1,6.84-6.84A6.85,6.85,0,0,1,262.43,53.18Z"/><path class="cls-21" d="M262.92,54.88v3.68a11.21,11.21,0,0,0,9.23-4.83l-2.93-2.24A7.54,7.54,0,0,1,262.92,54.88Z"/><path class="cls-13" d="M255.12,48.21l-3.48,1.2a11.23,11.23,0,0,0,10.8,8.15h0V53.89h0A7.55,7.55,0,0,1,255.12,48.21Z"/><path class="cls-17" d="M253.83,39.12a11.22,11.22,0,0,0-2.2,10.3l3.48-1.2a7.56,7.56,0,0,1,1.65-6.86Z"/><path class="cls-22" d="M269.34,43.3a7.55,7.55,0,0,1-.61,7.2l2.93,2.24a11.23,11.23,0,0,0,1.17-10.64Z"/><path class="cls-20" d="M262.64,34.8v3.68a7.55,7.55,0,0,1,6.91,4.5l3.48-1.2A11.23,11.23,0,0,0,262.64,34.8Z"/><path class="cls-7" d="M253.83,39.12l2.93,2.24a7.53,7.53,0,0,1,5.67-2.56h0V35.11h0A11.2,11.2,0,0,0,253.83,39.12Z"/><path class="cls-7" d="M261.64,75.89a5.82,5.82,0,1,0,5.82,5.82A5.83,5.83,0,0,0,261.64,75.89Zm0,11.44a5.62,5.62,0,1,1,5.62-5.62A5.63,5.63,0,0,1,261.64,87.33Z"/><path class="cls-17" d="M261.64,74.53a7.18,7.18,0,1,0,7.18,7.18A7.19,7.19,0,0,0,261.64,74.53Zm0,13.57A6.39,6.39,0,1,1,268,81.7,6.4,6.4,0,0,1,261.64,88.09Z"/><path class="cls-7" d="M261.64,73.24a8.4,8.4,0,0,0-6,2.5l.56.56a7.67,7.67,0,1,1,5.44,13.08v.79a8.46,8.46,0,1,0,0-16.92Z"/><path class="cls-20" d="M261.64,72a9.76,9.76,0,0,0-9.74,9.74h.79a9,9,0,1,1,9,9v.79a9.74,9.74,0,1,0,0-19.49Z"/><path class="cls-6" d="M268.67,73.21l-.5.61a10.24,10.24,0,0,1-6.53,18.12v.79a11,11,0,0,0,7-19.52Z"/><path class="cls-23" d="M261.64,93.23V94A12.32,12.32,0,0,0,273.95,81.7h-.79A11.53,11.53,0,0,1,261.64,93.23Z"/><path class="cls-24" d="M131.36,36a8.15,8.15,0,1,0,8.15,8.15A8.15,8.15,0,0,0,131.36,36Zm0,14.94a6.79,6.79,0,1,1,6.79-6.79A6.8,6.8,0,0,1,131.36,50.94Z"/><path class="cls-17" d="M131.36,36v1.35a6.8,6.8,0,0,1,6.79,6.8h1.35A8.15,8.15,0,0,0,131.36,36Z"/><path class="cls-17" d="M131.36,38.12a6,6,0,1,0,6,6A6,6,0,0,0,131.36,38.12Zm0,11.75a5.72,5.72,0,1,1,5.72-5.72A5.73,5.73,0,0,1,131.36,49.86Z"/><g class="cls-25"><path class="cls-20" d="M153.89,36A8.15,8.15,0,1,0,162,44.14,8.15,8.15,0,0,0,153.89,36Zm0,14.94a6.79,6.79,0,1,1,6.79-6.79A6.8,6.8,0,0,1,153.89,50.94Z"/></g><path class="cls-6" d="M153.89,36v1.35a6.79,6.79,0,0,1,0,13.59v1.35a8.15,8.15,0,1,0,0-16.29Z"/><path class="cls-17" d="M153.89,38.12a6,6,0,1,0,6,6A6,6,0,0,0,153.89,38.12Zm0,11.75a5.72,5.72,0,1,1,5.72-5.72A5.73,5.73,0,0,1,153.89,49.86Z"/><path class="cls-20" d="M131.36,58.23a8.15,8.15,0,1,0,8.15,8.14A8.16,8.16,0,0,0,131.36,58.23Zm0,14.94a6.8,6.8,0,1,1,6.79-6.8A6.8,6.8,0,0,1,131.36,73.17Z"/><path class="cls-7" d="M131.36,58.23v1.35a6.8,6.8,0,1,1-6.8,6.79h-1.35a8.15,8.15,0,1,0,8.15-8.14Z"/><path class="cls-7" d="M131.36,60.35a6,6,0,1,0,6,6A6,6,0,0,0,131.36,60.35Zm0,11.74a5.72,5.72,0,1,1,5.72-5.72A5.73,5.73,0,0,1,131.36,72.1Z"/><path class="cls-17" d="M153.89,58.23A8.15,8.15,0,1,0,162,66.38,8.15,8.15,0,0,0,153.89,58.23Zm0,14.94a6.8,6.8,0,1,1,6.79-6.8A6.8,6.8,0,0,1,153.89,73.17Z"/><path class="cls-17" d="M153.89,60.35a6,6,0,1,0,6,6A6,6,0,0,0,153.89,60.35Zm0,11.74a5.72,5.72,0,1,1,5.72-5.72A5.73,5.73,0,0,1,153.89,72.1Z"/><polygon class="cls-17" points="204.03 64.91 204.04 66.37 215.21 66.39 215.2 64.93 204.03 64.91"/><polygon class="cls-17" points="216.38 64.93 216.38 66.39 219.14 66.4 219.14 64.93 216.38 64.93"/><polygon class="cls-17" points="203.6 68.26 203.61 69.73 209.54 69.74 209.53 68.27 203.6 68.26"/><polygon class="cls-17" points="210.71 68.28 210.71 69.74 212.59 69.74 212.59 68.28 210.71 68.28"/><polygon class="cls-17" points="220.69 64.92 220.7 66.39 226.89 66.4 226.88 64.93 220.69 64.92"/><polygon class="cls-17" points="228.06 64.94 228.06 66.4 232.54 66.41 232.54 64.94 228.06 64.94"/><polygon class="cls-17" points="233.71 64.95 233.71 66.41 236.74 66.41 236.74 64.95 233.71 64.95"/><polygon class="cls-17" points="184.78 43.64 184.79 45.1 187.81 45.1 187.81 43.64 184.78 43.64"/><polygon class="cls-17" points="184.79 46.98 184.8 48.44 187.82 48.45 187.82 46.98 184.79 46.98"/><polygon class="cls-17" points="167.41 46.95 167.41 48.42 173.6 48.43 173.6 46.97 167.41 46.95"/><polygon class="cls-17" points="174.77 46.97 174.78 48.43 179.26 48.44 179.25 46.98 174.77 46.97"/><polygon class="cls-17" points="180.42 46.98 180.43 48.44 183.46 48.45 183.45 46.98 180.42 46.98"/><polygon class="cls-17" points="167.44 43.61 167.44 45.07 173.63 45.08 173.63 43.62 167.44 43.61"/><polygon class="cls-17" points="174.8 43.62 174.81 45.08 179.28 45.09 179.28 43.63 174.8 43.62"/><polygon class="cls-17" points="180.45 43.63 180.46 45.09 183.48 45.1 183.48 43.64 180.45 43.63"/><polygon class="cls-17" points="167.43 40.27 167.43 41.73 169.52 41.73 169.52 40.27 167.43 40.27"/><polygon class="cls-17" points="170.69 40.27 170.69 41.74 173.46 41.74 173.46 40.28 170.69 40.27"/><polygon class="cls-17" points="174.63 40.28 174.63 41.74 179.09 41.75 179.08 40.29 174.63 40.28"/><polygon class="cls-17" points="184.78 64.89 184.79 66.35 187.81 66.36 187.81 64.89 184.78 64.89"/><polygon class="cls-17" points="184.79 68.23 184.8 69.69 187.82 69.7 187.82 68.24 184.79 68.23"/><polygon class="cls-17" points="167.41 68.21 167.41 69.67 173.6 69.68 173.6 68.22 167.41 68.21"/><polygon class="cls-17" points="174.77 68.22 174.78 69.68 179.26 69.69 179.25 68.23 174.77 68.22"/><polygon class="cls-17" points="180.42 68.23 180.43 69.69 183.46 69.7 183.45 68.23 180.42 68.23"/><polygon class="cls-17" points="167.44 64.86 167.44 66.32 173.63 66.33 173.63 64.87 167.44 64.86"/><polygon class="cls-17" points="174.8 64.87 174.81 66.33 179.28 66.34 179.28 64.88 174.8 64.87"/><polygon class="cls-17" points="180.45 64.88 180.46 66.35 183.48 66.35 183.48 64.89 180.45 64.88"/><polygon class="cls-17" points="167.43 61.52 167.43 62.98 169.52 62.99 169.52 61.52 167.43 61.52"/><polygon class="cls-17" points="170.69 61.53 170.69 62.99 173.46 62.99 173.46 61.53 170.69 61.53"/><polygon class="cls-17" points="174.63 61.53 174.63 62.99 179.09 63 179.08 61.54 174.63 61.53"/><polygon class="cls-17" points="126.4 86.94 131.22 86.93 131.22 85.47 126.41 85.48 126.4 86.94"/><polygon class="cls-17" points="126.39 90.28 131.2 90.28 131.21 88.81 126.39 88.82 126.39 90.28"/><polygon class="cls-17" points="149 90.26 158.85 90.25 158.86 88.79 149.01 88.8 149 90.26"/><polygon class="cls-17" points="140.01 90.27 147.14 90.27 147.14 88.8 140.02 88.81 140.01 90.27"/><polygon class="cls-17" points="133.33 90.28 138.15 90.28 138.16 88.81 133.34 88.82 133.33 90.28"/><polygon class="cls-17" points="148.96 86.92 158.81 86.91 158.81 85.44 148.97 85.45 148.96 86.92"/><polygon class="cls-17" points="139.97 86.93 147.09 86.92 147.1 85.46 139.98 85.47 139.97 86.93"/><polygon class="cls-17" points="133.29 86.93 138.1 86.93 138.11 85.47 133.3 85.47 133.29 86.93"/><polygon class="cls-17" points="155.5 83.57 158.82 83.57 158.83 82.1 155.5 82.11 155.5 83.57"/><polygon class="cls-17" points="149.24 83.58 153.63 83.57 153.64 82.11 149.24 82.11 149.24 83.58"/><polygon class="cls-17" points="140.28 83.59 147.37 83.58 147.38 82.12 140.29 82.12 140.28 83.59"/><path class="cls-7" d="M118.1,67.55s-1.09-4.3-2.93-4.48a9.31,9.31,0,0,0-3,.13,4.49,4.49,0,0,0-.38-4.79C110,56.1,104.94,53,100.71,49.57h0a35.37,35.37,0,0,1,2.56,13.27c-.14,7.61,11.18,3,8.39,21.81-1.18,8-5.37,10.25-5.85,14.68a9.49,9.49,0,0,0,.35,3.54,50.58,50.58,0,0,0,12.31-30.75l-2.52.63Z"/><path class="cls-4" d="M117,86.2c-2,2.11-9.54,15.1-2.78,15.1,2.29,0,6.52-5.59,9.65-9.5a8,8,0,0,1,6.79-2.88S121.13,81.72,117,86.2Z"/><path class="cls-5" d="M103.83,63.53c.06.78-1.68,3.06-1.68,3.06A31.55,31.55,0,0,0,101,61.76c-.5-1-8.89-3.75-9.16-3.83a9.38,9.38,0,0,1,1.43,4.66s-2.17-4.89-6.71-5.46S76.5,53,76.5,53l0,0c6.61,11.43,8.07,11.75,12.73,15.71s10.27,5.71,12.89,8.54c8.46,9.15,5.18,18.77,4.48,20.11,0,0,1.28,2.19,1.28,2.19C117.18,78.4,103.77,62.76,103.83,63.53Z"/><path class="cls-7" d="M82.6,91.17c-3,.95-9.62,4-12.54,9.82,0,0,6.83-8.35,16.58-8.35,8.4,0,20.11,5.59,21.21,10.15l3.4-3S98.87,86.05,82.6,91.17Z"/><path class="cls-5" d="M106.11,62.25a55.77,55.77,0,0,0-5.4-12.67,35.37,35.37,0,0,1,2.56,13.27c-.14,7.61,11.18,3,8.39,21.81-1.18,8-3.89,10.12-4.37,14.55,2.33-3.64,6.45-13.07,6.74-21.06C114.39,68.06,107.76,69,106.11,62.25Z"/><path class="cls-7" d="M79.32,103.35c0-.07,0-.13,0-.2A1.55,1.55,0,0,0,79.32,103.35Z"/><path class="cls-11" d="M84.77,82.93a10.12,10.12,0,0,1,8.43,4c3.72,5.13,12.66,15.42,15.55,15.55,8.55.39-4.18-19.46-6.53-22.24C97.2,74.37,84.77,82.93,84.77,82.93Z"/><path class="cls-4" d="M109.33,105.38h9.59c-1.41-1.19-2.56-4.32.74-7C119.66,98.36,110.47,96.52,109.33,105.38Z"/><path class="cls-5" d="M133.19,97.14c-3.85-2.45-7.94-1.08-9.35-1.21-14.51-1.38-15.71,7.34-16.54,9.45h2.1c.56-4.32,9.58-11.06,13.44-3.57a18.3,18.3,0,0,0,2.52,3.69h12A9,9,0,0,0,133.19,97.14Z"/><path class="cls-26" d="M133.19,97.14a11.79,11.79,0,0,0-9.35-1.21c3.47.29,7.52,2.4,8.93,4.47a19.62,19.62,0,0,1,2.58,5.1h2.06A9,9,0,0,0,133.19,97.14Z"/><path class="cls-27" d="M130.63,83.27c-4-1.92-6.14.26-6.14.26-4.7-1.65-8.14,3.34-8.14,3.34s5.58-1.68,8.08,2.21,7.63,5.18,7.63,5.18C134.77,90.49,134.63,85.19,130.63,83.27Z"/><path class="cls-7" d="M130.63,83.27c-4-1.92-6.14.26-6.14.26s4.75,0,7.57,10.73C134.77,90.49,134.63,85.19,130.63,83.27Z"/><path class="cls-28" d="M92.84,76.47s-2.57-2.89-7.74-.69-5.66,8.9-2.46,13.82c0,0,6.55-1.32,10-6.11s10.35-2.33,10.35-2.33S98.8,74,92.84,76.47Z"/><path class="cls-7" d="M85.1,75.78c-5.17,2.2-5.66,8.9-2.46,13.82,4.2-13.39,10.2-13.13,10.2-13.13S90.27,73.58,85.1,75.78Z"/><path class="cls-7" d="M91.44,64.81C83.46,62.68,76.92,53.6,76.52,53c6.61,11.43,8.07,11.75,12.73,15.71s10.25,5.73,12.89,8.54a20.3,20.3,0,0,1,5.63,11.57C108.25,67.43,98.88,66.79,91.44,64.81Z"/><path class="cls-5" d="M84.9,96.09c-2.72.86-6.42,3.23-5.62,7.07-.11-.86,0-4.32,7.65-5.08,7.08-.7,17.23,3.17,19.74,7.3h1.21l2-2.34S98.89,91.69,84.9,96.09Z"/><circle class="cls-17" cx="90.16" cy="42.51" r="2.12"/><path class="cls-29" d="M90.16,40.39a2.11,2.11,0,0,0-.69.13,1.87,1.87,0,0,1,.35,0,1.69,1.69,0,1,1-1.5,1,2.09,2.09,0,0,0-.28,1,2.12,2.12,0,1,0,2.12-2.12Z"/><path class="cls-30" d="M89.19,40a2.6,2.6,0,0,0,.95,4.81,2.6,2.6,0,0,1,1.3-5A2.59,2.59,0,0,0,89.19,40Z"/><path class="cls-30" d="M89.94,42.89c-4.5,1-3.41,5.05-3.2,6.13.42,2.1,2.33,3.34,4.8,3.34,3.25,0,5.07-4.84,3.23-7.65A4.36,4.36,0,0,0,89.94,42.89Z"/><path class="cls-31" d="M89.94,42.89l-.08,0,.17,0a2.76,2.76,0,0,1,1,.51,3.56,3.56,0,0,1,1.8,1.92,3.88,3.88,0,0,1,.2,2.51A3.61,3.61,0,0,1,91.31,50a3.69,3.69,0,0,1-2.86.42,3.88,3.88,0,0,1-1.5-.9l-.09-.1c.59,1.82,2.39,2.89,4.67,2.89,3.25,0,5.07-4.84,3.23-7.65A4.36,4.36,0,0,0,89.94,42.89Z"/><path class="cls-32" d="M90.13,91.94c-.06.77-.28,1.4-.32,2s.08,1.34.12,2.21a7.62,7.62,0,0,1-.49,2.42c-.81,4.05,0,5.08-.84,8.17a13.06,13.06,0,0,1-.75,1.8c-.2.59,0,1.3-.23,2.47-.28,1.51-1,3-.76,3.88s2.08,1.57,2.77,1.57.42-1,.38-1.54a52,52,0,0,1,.58-7.38c.89-3.36,2.91-6.92,3.31-10.11.39-3,.13-3.59.82-7.14.08-.41,1.53-9.93,1.65-13.76L90.2,79.69A111.74,111.74,0,0,1,90.13,91.94Z"/><path class="cls-33" d="M93,89.08c.77,3.23,0,6.43-.95,9.57-1.1,3.51-2,5.09-2.21,8.79-.06,1.17-.87,2.06-1.19,3.23-.46,1.68.62,3.27-.54,5.33a4.16,4.16,0,0,0,1.56.49c.82,0,.42-1,.38-1.54a52,52,0,0,1,.58-7.38c.89-3.36,2.91-6.92,3.31-10.11.39-3,.13-3.59.82-7.14.08-.41,1.53-9.93,1.65-13.76L92.16,78.7C92.78,82.15,92.15,85.67,93,89.08Z"/><path class="cls-34" d="M90,114a1.17,1.17,0,0,1-2,.14,4.53,4.53,0,0,1-.66-1.88l0-.08a6.22,6.22,0,0,0-.48,2.73c.24.8,2.08,1.57,2.77,1.57s.42-1,.38-1.54C90,114.78,90,114.45,90,114Z"/><path class="cls-32" d="M93.47,55.15c-1.73.47-1.34-1.44-1.56-3.11l-2.34.83c.29,1.57.51,2.69-.76,3.18a24.56,24.56,0,0,1-2.55.78c-1.13.27-1.73,8.33-1.95,10.48l2,.8a24.59,24.59,0,0,0,1.33-5.95l7.59-1-.62-2.57,2.56-.91C96.51,55,95.53,54.58,93.47,55.15Z"/><path class="cls-33" d="M94.79,57.37s2,7.41,3,9.49l2.19-.8c-.45-1.92-1.48-7.13-2.48-9.43Z"/><path class="cls-33" d="M93.47,55.15c-1.73.47-1.34-1.44-1.56-3.11l-2.34.83c.06.31.11.6.15.87.63,1,1.89,2.43,3,2.29.6-.07,1.15-.76,1.84-.85a3.62,3.62,0,0,1,1.46.14A2.7,2.7,0,0,0,93.47,55.15Z"/><path class="cls-33" d="M86.61,62.38c0,.38-.05.76-.06,1.16a24.16,24.16,0,0,1-1.16,4.19l.91.36a24.38,24.38,0,0,0,1.31-4.86A3.79,3.79,0,0,1,86.61,62.38Z"/><path class="cls-32" d="M92.05,45.62a3.19,3.19,0,0,0-2-.2c-2,.36-2.51,2.12-2.37,3.87a5.79,5.79,0,0,0,.6,2.61c.22.37,1.57,1.94,2.53,1.94s2.31-1.77,2.49-2.25a7.08,7.08,0,0,0,.32-2.24c0-.07,0-.14,0-.21C93.61,47.61,93.21,46.19,92.05,45.62Z"/><path class="cls-33" d="M92.05,45.62a4.58,4.58,0,0,0-2.75.18,4.86,4.86,0,0,0,4.3,3.34C93.61,47.61,93.21,46.19,92.05,45.62Z"/><path class="cls-32" d="M94,109.93a13.19,13.19,0,0,1-.65-1.69c-.89-3.09-.12-4.23-.93-8.28a7.61,7.61,0,0,1-.49-2.42c0-.87.16-1.54.12-2.21s-.26-1.27-.32-2a61.35,61.35,0,0,1-.19-7c.06-5.42.49-8-1.48-12H86l-.48,3.69A84.29,84.29,0,0,0,87,91.39c.69,3.55.86,4.79,1.51,7.72.69,3.14,3.32,10.84,3.42,12.06,0,.33.1,4.58.16,5.15s0,2,.8,2,2-1.49,2.15-2c.27-.84-.48-2.37-.76-3.88C94,111.23,94.21,110.52,94,109.93Z"/><path class="cls-34" d="M92.68,116.28c-.28,0-.48-.31-.66-.48,0,.24,0,.42,0,.51.07.59,0,2,.8,2s2-1.49,2.15-2a5.85,5.85,0,0,0-.47-2.69C94.47,113.79,94.1,116.28,92.68,116.28Z"/><path class="cls-35" d="M97.8,70.1c-1.23.32-8.66,1.5-11.38-.07-.21,1.19-2.35,2.84-2.35,6.62,0,5.51,2.33,16.56,2.33,16.56s5.2,1.44,8.87.21c1.49-7.16,3.54-14.62,2.93-20C98.18,73.23,97.83,70.28,97.8,70.1Z"/><path class="cls-36" d="M97.81,70.17l-.05.07c-2.59,2.65-6.67,2.77-6,4.18.5,1,3.21,2.86,3.89,3.49,1.46,1.35-2.68,3.12-2.4,6.26a20.11,20.11,0,0,1-1,5.51c-.6,2.17-3.68,2-5.06,3.73,1.61.35,5.27,1,8.06,0,1.49-7.16,3.54-14.62,2.93-20C98.18,73.24,97.87,70.64,97.81,70.17Z"/><path class="cls-35" d="M97.75,55.86c-1.27-1.39-4-1-4-1-1,.92-3,2.35-3,2.35l-2.93-.92s-2.92.1-3.27,2.85c-.12.92,1.77.8,1.77,2.12a2.8,2.8,0,0,0,1.09,2.14,19.57,19.57,0,0,1,.23,3.86c-.1,1.74-1.14,1.6-1,2.57.28,1.65,10,1.31,10.85.34s0-7.15-.36-10.36C96.9,57.89,98.47,56.65,97.75,55.86Z"/><path class="cls-36" d="M97.75,55.86c-1.27-1.39-4-1-4-1-1,.92-3,2.35-3,2.35l-2.93-.92a4.29,4.29,0,0,0-1.66.48,11.48,11.48,0,0,1,1.19.5c3.86,2,3.42,4.8,2.24,5.37-.81.39,1.92,3.1,1.92,5.48,0,1,2.4,0,3.22-.62s1.24,0,.51.52A7.94,7.94,0,0,1,90,70.16a6.51,6.51,0,0,0-2.09.46c2.75.67,8.89.3,9.54-.46.86-1,0-7.15-.36-10.36C96.9,57.88,98.47,56.65,97.75,55.86Zm-1.63,4.87a2.32,2.32,0,0,0-.45,1.74c.22.91-.46,1.22-1.24.72-.45-.29-2.21.75-3.23.58s-.29-.6,0-.56c1,.14,3.16-2.26,3.59-3.28.23-.54,1.11-.73,1.42-.38C96.52,59.73,96.36,60.36,96.12,60.73Z"/><path class="cls-33" d="M90.19,51.45c-.08.1.13.16.24.17l.17,0a.59.59,0,0,0,.27,0l.17,0c.1,0,.29,0,.23-.17a.94.94,0,0,0-.57-.16A.75.75,0,0,0,90.19,51.45Z"/><path class="cls-30" d="M89,45.07a5.67,5.67,0,0,0,6.25,3.46S94.67,43.4,89,45.07Z"/><path class="cls-32" d="M97.83,67.42c0,2.44.52,6.49-.44,7.31a2.29,2.29,0,0,0-.85,1.4c-.16.58.49.09.39.81-.06.42-.38,1.63-.23,1.71.3.17.41-.2.51-.62a.32.32,0,0,0,.52-.18.44.44,0,0,0,.57-.31c.35.09.52-.14.58-.61s.31-1.26.48-2.61c.23-1.77,1.65-6.08.36-8.85C99.44,64.89,97.83,64.72,97.83,67.42Z"/><path class="cls-33" d="M98,66.31A1,1,0,0,1,99,67.58c-.68,2.89,1.28,8.71-2.31,10.36-.07.36-.11.67,0,.71.3.17.41-.2.51-.62a.32.32,0,0,0,.52-.18.44.44,0,0,0,.57-.31c.35.09.52-.14.58-.61s.31-1.26.48-2.61c.23-1.77,1.65-6.13.35-8.91C99.48,64.93,97.94,64.56,98,66.31Z"/><path class="cls-32" d="M96.17,76.22a4.77,4.77,0,0,1-.45,1.08c.35,0,.64-.19.75-.66a1.46,1.46,0,0,0,.64-.64l-.08-.9Z"/><path class="cls-32" d="M95.34,69.09c-.32,0-.87,0-.57-.41s-1.38-.2-2,.26c-.27.22-.57.13-.88.12-1.3,0-3.07-.95-5.51-1.3-.83-.12-1.28-.31-2.12-.46a2.69,2.69,0,0,0,.45,2.05c1.29,1.21,2.74,1,4,1.12a23.62,23.62,0,0,1,3.4.22,15.27,15.27,0,0,0,2.64.26c.47,0,.73,0,.74-.39A.44.44,0,0,0,96,70.1a.32.32,0,0,0,.32-.45c.44,0,.82,0,.74-.31C97,69.17,95.76,69.13,95.34,69.09Z"/><path class="cls-33" d="M93.12,70.59A4.3,4.3,0,0,1,92,69.91c-2.19,0-2.89-1.62-7.65-1.62a2,2,0,0,0,.44,1.06c1.29,1.21,2.74,1,4,1.12a23.62,23.62,0,0,1,3.4.22,15.27,15.27,0,0,0,2.64.26c.41,0,.65,0,.72-.26A6.4,6.4,0,0,1,93.12,70.59Z"/><path class="cls-20" d="M83.12,68.14h0a.46.46,0,0,0,.46.46H94.33a.46.46,0,0,0,.46-.46H83.12Z"/><path class="cls-20" d="M95.95,58.65,93.7,68c0,.15,0,.58.55.58l9.11-.11V58h-6.6A.83.83,0,0,0,95.95,58.65Z"/><path class="cls-37" d="M108.33,58H96.68a.27.27,0,0,0-.26.2l-2.4,10a.27.27,0,0,0,.26.34h10.85a1.32,1.32,0,0,0,1.27-1l2.18-9.25A.27.27,0,0,0,108.33,58Z"/><path class="cls-32" d="M93.37,68.65l.74.27a1.59,1.59,0,0,0,.9-.38c.48,0,.78-.19.84-.54a4.79,4.79,0,0,1-1.16.13Z"/><path class="cls-38" d="M125,54.18a2.09,2.09,0,0,0,.43,4.16,30.52,30.52,0,0,0,8.81-2l-.44-2.58C132.6,53.94,128.87,53.76,125,54.18Z"/><path class="cls-32" d="M141.65,46.23a.5.5,0,0,0-.21-.7c.16-.27-.08-.46-.32-.49.26-.42.44-.8.06-.9-.19-.05-.83,1.1-1.11,1.49-.49.66-.83.13-1.16.74a2.89,2.89,0,0,0-.21,1.77,1.64,1.64,0,0,1-.38.93c-.74,1.29-3.22,3.24-5.27,5.11-.7.64.06,2.27.78,2.24,1.81-.09,4.89-5.1,6.11-6.72.93-1.24,1.34-2.06,1.69-2.51S142,46.44,141.65,46.23Z"/><path class="cls-33" d="M141.65,46.23a.5.5,0,0,0-.21-.7c.16-.27-.08-.46-.32-.49.26-.42.44-.8.06-.9-.19-.05-.83,1.1-1.11,1.49a1.32,1.32,0,0,0,.29,1.81,1.07,1.07,0,0,0,1.27-.26C142,46.76,142,46.44,141.65,46.23Z"/><path class="cls-39" d="M132.54,54.12c-.7.64.45,2.47,1.17,2.43,1.8-.09,5.2-4.85,6.45-6.52a6.65,6.65,0,0,1-1.93-1.37C138.18,48.73,134.59,52.25,132.54,54.12Z"/><path class="cls-40" d="M139,50.89c-1.47,1.21-4,3.39-5.35,4.4-1.6,1.19-3,.89-4.85,1.12s-3.39,1.34-5.18,1.2a1.75,1.75,0,0,0,1.8.72,32.85,32.85,0,0,0,8.28-1.79h0c1.48-.07,4-3.3,5.59-5.37A.21.21,0,0,0,139,50.89Z"/><path class="cls-32" d="M139.37,44.36a5.45,5.45,0,0,1-.49,1.23l-.2,1.46.67-.46a1.82,1.82,0,0,0,.11-1.11A.81.81,0,0,0,139.37,44.36Z"/><path class="cls-41" d="M125.8,51.64c.56-.93-.82-1.59-1.84-2q-.91-.36-1.85-.64c-.12,0-.26-.06-.34,0s0,.28,0,.41c.47.88.28,4-.08,5.18,0,.08,4.28.72,4.28.72S125.12,52.78,125.8,51.64Z"/><path class="cls-42" d="M124.48,50c-.52-.2-1.83-.86-2.36-1-.12,0-.26-.06-.34,0s0,.28,0,.41c.47.88.28,4-.08,5.18,0,.06,2.05.38,3.32.58A8.94,8.94,0,0,1,124.48,50Z"/><path class="cls-41" d="M127.54,47.4a5.52,5.52,0,0,1-1.75-2.3c-.7-1.73-3.28-1-4.14.82a4.37,4.37,0,0,0-.09,3.07A4.6,4.6,0,0,0,124,52a6,6,0,0,0,2.8.24c.64-.39.62-3.15.92-3.91S127.73,47.51,127.54,47.4Z"/><path class="cls-42" d="M122.87,50a4.16,4.16,0,0,1-.77-4.19,3.2,3.2,0,0,1,.81-1.25,3.28,3.28,0,0,0-1.25,1.38,4.37,4.37,0,0,0-.09,3.07A4.6,4.6,0,0,0,124,52a6.75,6.75,0,0,0,2.69.29,3.93,3.93,0,0,1-.75-.1A6.45,6.45,0,0,1,122.87,50Z"/><path class="cls-6" d="M123.64,43.38c-4.18-.75-5.09,2.16-5,4.36s2.4,4.19,3.33,4.48a2.91,2.91,0,0,0,2.82-2c.19-.42.31-.84.09-1-.76-.43-1.05-1.67-.73-2,.49-.48.72.33,1,.09a3,3,0,0,0,.24-2.57A2.79,2.79,0,0,0,123.64,43.38Z"/><path class="cls-43" d="M121.33,48.6c0-.35.28-1.11.35-1.46.32-1.53-1-2.77-2.32-2-.76.46-1.35,3.08.28,5.15.6.77,1.87,1.95,2.55,1.94S121.18,50,121.33,48.6Z"/><path class="cls-6" d="M118.47,44.58a2.31,2.31,0,0,0,0,4.61c1.27,0,1.72-1,1.72-2.31S119.74,44.58,118.47,44.58Z"/><path class="cls-41" d="M138.71,109.29a12.33,12.33,0,0,1-3.11-1.67,1.62,1.62,0,0,1-.4-1.16,2.66,2.66,0,0,1-1.13.22,3.23,3.23,0,0,1-1.14-.2c0,.65,0,1.3-.1,1.94a1.45,1.45,0,0,0,0,.92c.21.36.71.4,1.12.4.94,0,1.88.07,2.81.17a5.69,5.69,0,0,0,2.41-.06c.16,0,.34-.17.28-.33A4.5,4.5,0,0,1,138.71,109.29Z"/><path class="cls-42" d="M138.71,109.29l-.07,0a4.18,4.18,0,0,1-1.06.08,3.83,3.83,0,0,1-3.5-2.67,3.23,3.23,0,0,1-1.14-.2c0,.65,0,1.3-.1,1.94a1.45,1.45,0,0,0,0,.92c.21.36.71.4,1.12.4.94,0,1.88.07,2.81.17a5.69,5.69,0,0,0,2.41-.06c.16,0,.34-.17.28-.33A4.5,4.5,0,0,1,138.71,109.29Z"/><path class="cls-4" d="M139.73,109.41c-.16-.07-1.64-.6-2.48-.9-.31-.11-.56.32-.56.57-1.91,0-3.57-1.3-3.83-1.11a1.13,1.13,0,0,0,.1,1.92,4.93,4.93,0,0,0,1.44.1c.91,0,1.81.53,2.37.53h3C140,110.54,140.26,109.64,139.73,109.41Z"/><path class="cls-6" d="M139.33,109.87a12.94,12.94,0,0,1-3.84-.28,7.9,7.9,0,0,1-3-1.11,1,1,0,0,0,.47,1.41,4.93,4.93,0,0,0,1.44.1c.91,0,1.81.53,2.37.53h3c.28,0,.48-.7.15-1A.74.74,0,0,1,139.33,109.87Z"/><path class="cls-6" d="M134.61,110l-2.2-.64.46,1.2h1.86A1.07,1.07,0,0,1,134.61,110Z"/><path class="cls-44" d="M133.72,106.31h0l-.1.06Z"/><path class="cls-41" d="M123.81,107.63c-.53-.48-.37-1.43-.41-2s-2.17-.11-2.18,0c-.13.94-.05,1.9-.17,2.85a1.45,1.45,0,0,0,0,.92c.21.36.71.4,1.13.4q1.41,0,2.81.16a5.69,5.69,0,0,0,2.41-.06c.15-.05.33-.18.28-.34A11.57,11.57,0,0,1,123.81,107.63Z"/><path class="cls-42" d="M122.16,105.49c0-.07.07-.13.1-.2a2.89,2.89,0,0,0-1,.3c-.13.94-.05,1.9-.17,2.85a1.45,1.45,0,0,0,0,.92c.21.36.71.4,1.13.4.87,0,1.74.06,2.61.14C123.12,109.11,121.32,107.53,122.16,105.49Z"/><path class="cls-4" d="M127.94,109.41c-.17-.07-1.64-.6-2.48-.89-.32-.11-.56.32-.56.57-1.91,0-3.57-1.29-3.83-1.09a1.13,1.13,0,0,0,.11,1.92,4.91,4.91,0,0,0,1.44.09c.91,0,1.81.52,2.37.52h3C128.27,110.53,128.48,109.63,127.94,109.41Z"/><path class="cls-6" d="M127.44,109.82a3.06,3.06,0,0,1-1.58,0c-.36-.1-2.48-.35-3.16-.39a2.29,2.29,0,0,1-1.9-1.1,1,1,0,0,0,.38,1.6,4.91,4.91,0,0,0,1.44.09c.91,0,1.81.52,2.37.52h3c.28,0,.47-.69.15-1A2.23,2.23,0,0,1,127.44,109.82Z"/><path class="cls-45" d="M121.23,87.19c.27,4.36-.57,5.56-.78,8.07s.42,12.18.42,12.18a5.72,5.72,0,0,0,2.84,0L128,75.33l-7.77-.68S121,82.83,121.23,87.19Z"/><path class="cls-20" d="M121.23,87.19c.27,4.36-.57,5.56-.78,8.07s.42,12.18.42,12.18a6.58,6.58,0,0,0,1.46.19c-.28-3.58-.93-6.93.59-9.94a16,16,0,0,0,.67-4.86c0-2.29-.64-6.2.35-9.44.38-1.24.49-8.34.49-8.34l-4.2-.41S121,82.83,121.23,87.19Z"/><path class="cls-46" d="M123.3,75.48a2.15,2.15,0,0,0,.12,1.37c.46,1.19,4.91,12.61,4.85,13.68-.24,4.07,2.34,7.85,4.4,17,.79.27,2.32.49,3.08-.35-.44-5-4.49-28.9-4.93-31.5C130.78,75.68,125.37,76.21,123.3,75.48Z"/><path class="cls-20" d="M132.5,98.16a47.56,47.56,0,0,1-2.47-6c-.39-1.78-.24-6.81-.59-8.4a10.81,10.81,0,0,0-.86-3.11c-.36-.62-.9-1-1.27-1.62a3.29,3.29,0,0,1-.49-2.72,26.4,26.4,0,0,1-3.52-.81,2.15,2.15,0,0,0,.12,1.37c.46,1.19,4.91,12.61,4.85,13.68-.24,4.07,2.34,7.85,4.4,17a2.79,2.79,0,0,0,1.65.24,37.19,37.19,0,0,1-.9-5C133.1,101.1,133.17,99.72,132.5,98.16Z"/><path class="cls-47" d="M131,61c0-1.22-2.65-4.91-4.22-5.89s-2.13-1.55-4.13-1.19c-2.17.39-1.74,3.56-1.74,9.82,0,.49-1,11.21-1.16,12.12,1.74,1.22,9.64,1.25,11.61.58,0-5.45-.87-9.41-.87-12C130.49,63.6,131,62.94,131,61Z"/><path class="cls-6" d="M122.64,54c-2.26.63-1.74,3.56-1.74,9.82,0,.49-1,11.21-1.16,12.12.75.52,2.63.81,4.68.92,0-2.47-1.74-3.37-1.74-5.54,0-1.34,1.61-2.75,1.51-3.82-.19-2-.67-7,.23-10C124.72,56.49,123.34,53.77,122.64,54Z"/><path class="cls-6" d="M120.62,109.34l.47,1.19H123a1.08,1.08,0,0,1-.13-.56Z"/><path class="cls-48" d="M124.22,56.43a2.09,2.09,0,0,0,.79,2.79,30.5,30.5,0,0,0,8.3,3.57l1.17-2.34c-1.08-.54-4-2.89-7.36-4.84A2.09,2.09,0,0,0,124.22,56.43Z"/><path class="cls-32" d="M145.3,57.28c-.78.25-.36-.58-1-.29a3.12,3.12,0,0,0-1.61,1.5c-.17.36-6.33,1.56-9.1,1.86-.95.1-1.29,1.87-.69,2.27,1.52,1,7.93-1.55,9.87-2.14,1.48-.45,2.29-.87,2.85-1s.74-.38.58-.76a.5.5,0,0,0,.24-.69.37.37,0,0,0,.11-.62c.46-.19,1-.4.77-.71S145.76,57.14,145.3,57.28Z"/><path class="cls-49" d="M133.24,60c-.95.1-1.09,2.26-.49,2.65,1.5,1,7.06-.85,9-1.46a6.62,6.62,0,0,1-.75-2.24C141,59,136,59.72,133.24,60Z"/><path class="cls-40" d="M141.36,60.34a9.93,9.93,0,0,1-7.4,1.15c-.2,0-7.45-2.82-9.28-5,0-.06-.48-.72-.52-.78-.26-.43-1.06,2.41-.09,3a41.53,41.53,0,0,0,8.68,4h0c1.5,1,7.07-.85,9-1.46a3.42,3.42,0,0,1-.41-.89Z"/><path class="cls-32" d="M144.35,56.56l-1.11,1.18.89-.09a1.82,1.82,0,0,0,.74-.83c.51-.21.71-.58.6-1A5.38,5.38,0,0,1,144.35,56.56Z"/><path class="cls-32" d="M142.51,44.77c-.09-.07-.24,0-.35.19a11.83,11.83,0,0,0-.56,1.12c-.22.48.05.52.27.22a8.34,8.34,0,0,0,.68-1.12C142.67,44.94,142.6,44.83,142.51,44.77Z"/><path class="cls-32" d="M142.6,45.71c-.14-.09-.3,0-.41.16-.26.49-.46.84-.72,1.33s0,.51.24.23a11.44,11.44,0,0,0,.91-1.3C142.76,45.89,142.69,45.76,142.6,45.71Z"/><path class="cls-32" d="M142.51,46.46c-.26.43-.45.68-.7,1.11s0,.51.24.26a9.31,9.31,0,0,0,.89-1.12c.14-.21.07-.31,0-.38A.3.3,0,0,0,142.51,46.46Z"/><path class="cls-32" d="M143.18,46.83c-.1,0-.21-.09-.31.08-.26.43-.33.61-.43.77-.24.41,0,.46.24.22a3.65,3.65,0,0,0,.54-.72C143.36,47,143.27,46.86,143.18,46.83Z"/><path class="cls-32" d="M148.33,56.17a14.52,14.52,0,0,0-1.63.56c-.25.11.13.12.16.22s-.17.36,0,.28c.52-.21,1-.47,1.49-.72S148.68,56.07,148.33,56.17Z"/><path class="cls-50" d="M290.62,2.72C285.83,3,279.4,2.66,275.4.1a.62.62,0,0,0-.69,0c-3.87,2.75-10.31,3.35-15.08,3.33A.63.63,0,0,0,259,4c-.42,10.2,3,26.41,16.36,29.93a1.78,1.78,0,0,0,1,0c12.87-4.06,15.87-20.05,14.93-30.66A.63.63,0,0,0,290.62,2.72Z"/><path class="cls-20" d="M288.4,5.31c-5.32,0-9.62-.69-12.83-2.21a1,1,0,0,0-.91,0,28.49,28.49,0,0,1-11.59,2.75L262,5.93a.29.29,0,0,0-.28.29,38.12,38.12,0,0,0,2.88,14.14C267,26,270.66,29.52,275.46,31a1,1,0,0,0,.65,0,15.37,15.37,0,0,0,6-3.94l.44-.49A21.81,21.81,0,0,0,286.4,20a37.63,37.63,0,0,0,2.3-14.43A.29.29,0,0,0,288.4,5.31Z"/><path class="cls-51" d="M279.63,13.23h-.21V12.1a4.26,4.26,0,0,0-8.52,0v1.13h-.13a1.51,1.51,0,0,0-1.51,1.51v6.85a1.51,1.51,0,0,0,1.51,1.51h8.86a1.51,1.51,0,0,0,1.51-1.51V14.74A1.51,1.51,0,0,0,279.63,13.23Zm-3,6.19c0,.46-.63.84-1.41.84s-1.41-.38-1.41-.84v-2.5c0-.46.63-.84,1.41-.84s1.41.38,1.41.84Zm.78-6.19h-4.46V12.1a2.24,2.24,0,1,1,4.46,0Z"/><path class="cls-20" d="M279.09,114.48h-1.74c-3.7,0-6.73-3.74-6.73-8.31V99.11c0-4.57-.1-8.31,6.73-8.31h1.74c6.58-.3,6.73,3.74,6.73,8.31v7.06C285.83,110.74,282.8,114.48,279.09,114.48Z"/><path class="cls-52" d="M271.72,114.89a7.27,7.27,0,0,0-2.24.67c-.17.05-2.3.94-2,2.61s.59,1.48,1.59,1.56a4.41,4.41,0,0,0,2.26-.36c1-.31,1.23-.41,1.47-.5a.05.05,0,0,0,0-.05l-.33-4a0,0,0,0,0-.06,0Z"/><path class="cls-20" d="M273,114.34a13.52,13.52,0,0,1-1.42.56c-.18,0-2.3.94-2,2.61s.59,1.48,1.59,1.56a4.42,4.42,0,0,0,2.26-.36c1-.31,1.23-.41,1.47-.5a.05.05,0,0,0,0-.05l-.33-4a0,0,0,0,0-.06,0Z"/><path class="cls-52" d="M284,114.39a7.19,7.19,0,0,1,2.25.58c.17,0,2.33.85,2.07,2.53s-.55,1.5-1.55,1.62a4.4,4.4,0,0,1-2.26-.27c-1-.27-1.24-.36-1.49-.44a.05.05,0,0,1,0-.05l.23-4a0,0,0,0,1,.05,0Z"/><path class="cls-20" d="M282.66,113.9a13.36,13.36,0,0,0,1.44.51c.18,0,2.33.85,2.07,2.53s-.55,1.5-1.55,1.62a4.39,4.39,0,0,1-2.26-.27c-1-.27-1.24-.36-1.49-.44a.05.05,0,0,1,0-.05l.23-4a0,0,0,0,1,.05,0Z"/><path class="cls-50" d="M284.4,114.92a.91.91,0,0,0-.46-.79,5.58,5.58,0,0,0-1.56-.5c-1.14-.18-2.3,3.29-2.19,3.63s1,.62,2.21.68,2.18-.49,2.1-1.33C284.46,116.11,284.42,115.4,284.4,114.92Z"/><path class="cls-53" d="M266.08,109.17c-.74,3.37,3.24,4.73,8.14,6.4s8.9,3,9.61-.34-3.24-4.73-8.14-6.4S266.82,105.8,266.08,109.17Z"/><path class="cls-50" d="M271,110.78q1,.36,2.06.75,3.2,1.22,6.33,2.72c1,.5,2.09,1,3.1,1.57a3.9,3.9,0,0,1,.85.63c-1.31,2-4.91.56-9.09-.87-4.71-1.61-8.62-2.95-8.21-6a3.57,3.57,0,0,1,.52,0A22.77,22.77,0,0,1,271,110.78Z"/><path class="cls-50" d="M272,115.69a.86.86,0,0,1,.44-.76,5.89,5.89,0,0,1,1.55-.52c1.14-.2,2.38,3,2.28,3.38s-1,.61-2.21.71-2.2-.4-2.14-1.2C272,116.82,272,116.15,272,115.69Z"/><path class="cls-53" d="M290.32,109.73c.81,3.17-3.15,4.57-8,6.3s-8.88,3.14-9.67,0,3.15-4.57,8-6.3S289.51,106.55,290.32,109.73Z"/><path class="cls-50" d="M285.44,111.39q-1,.37-2.05.77-3.19,1.25-6.3,2.76c-1,.5-2.08,1-3.09,1.58a4,4,0,0,0-.84.62c1.36,1.82,5,.39,9.12-1.08,4.7-1.66,8.61-3,8.12-5.94a3.78,3.78,0,0,0-.53.05A24.15,24.15,0,0,0,285.44,111.39Z"/><path class="cls-51" d="M285.87,96.3H270.26A1.42,1.42,0,0,0,269,98l.88,10a1,1,0,0,0,.94,1h14.85a1,1,0,0,0,.94-1l.85-9.37A1.92,1.92,0,0,0,285.87,96.3Z"/><path class="cls-54" d="M279.67,89.35c1.08-.43,1.81-2.43,1.81-4,0-2.55-1.34-4.62-3-4.62s-3,2.07-3,4.62c0,1.57.51,3.65,1.81,4.06l-.94,1.36c-.42.77-.05,1.87.7,2a8.37,8.37,0,0,0,2.58,0,1.33,1.33,0,0,0,.78-1.92Z"/><path class="cls-52" d="M279.73,87.46s.64-1,.57-1.36-.3-1.21.21-1.42.87.43.66,1.12c0,0-.23,1.35.2.85s2.29-3.12,1.55-5.06-1.73-.87-2.73-1.34-2.35-1.95-3.64-2.08c-1.68-.17-2.42.86-3,2a5,5,0,0,0,.28,3.42c.81,1.95,1.21-.11,2.66.52s2.17.06,2.64.7A7.29,7.29,0,0,1,279.73,87.46Z"/><path class="cls-55" d="M280.07,101.5H280v-.6a1.86,1.86,0,1,0-3.66,0v.6h-.05a.74.74,0,0,0-.65.8v3.63a.74.74,0,0,0,.65.8h3.8a.74.74,0,0,0,.65-.8V102.3A.74.74,0,0,0,280.07,101.5Zm-1.3,3.28c0,.25-.27.44-.61.44s-.61-.2-.61-.44v-1.32c0-.25.27-.44.61-.44s.61.2.61.44Zm.33-3.28H277.2v-.6c0-.72.43-1.31,1-1.31s1,.59,1,1.31Z"/></g></g></svg>