<svg xmlns="http://www.w3.org/2000/svg" viewBox="0 0 194.8 144.34"><defs><style>.cls-1{isolation:isolate;}.cls-2{fill:#489aff;}.cls-3,.cls-8{fill:#e3eaff;}.cls-4{fill:#6db8ff;}.cls-5{fill:#2f6dff;}.cls-6{fill:#c8d6f2;}.cls-7{fill:#424261;opacity:0.2;mix-blend-mode:multiply;}.cls-8{opacity:0.21;}.cls-9{fill:#f9fbfc;}.cls-10{fill:#9570ee;}.cls-11{fill:#bb87ee;}.cls-12{fill:#7f57ee;}.cls-13{fill:#ced6ff;}.cls-14{fill:#cdd4ff;}.cls-15{fill:#ffc240;}.cls-16{fill:#90c240;}.cls-17{fill:#eb4f24;}.cls-18{fill:#fff;}.cls-19{fill:#fd4940;}.cls-20{fill:#544db8;}.cls-21{fill:#0cf;}.cls-22{fill:#ff56a9;}.cls-23{fill:#ffc359;}.cls-24{fill:#ff4dd1;}.cls-25{fill:#f7d3a9;}.cls-26{fill:#ff4f72;}</style></defs><title>frontend</title><g class="cls-1"><g id="OBJECTS"><path class="cls-2" d="M191.45,177A16.39,16.39,0,0,0,193,150.1a61.34,61.34,0,0,1,6.76-8c1.18-1.18,2.38-2.29,3.6-3.36q.73.61,1.42,1.27l4-2.47a4.38,4.38,0,0,1,6,1.45l4,6.54a4.38,4.38,0,0,1-1.45,6l-4,2.47a31.57,31.57,0,0,1,1.29,9.32l4.56,1.27a4.38,4.38,0,0,1,3,5.4l-2.06,7.38a4.38,4.38,0,0,1-5.4,3l-4.56-1.27a31.53,31.53,0,0,1-4.34,5.74l2.47,4a4.38,4.38,0,0,1-1.45,6l-6.54,4a4.38,4.38,0,0,1-6-1.45l-2.47-4a31.49,31.49,0,0,1-7.18,1.24,50.22,50.22,0,0,1-1.8-15.29A16.32,16.32,0,0,0,191.45,177Z" transform="translate(-27.6 -55.3)"/><rect class="cls-3" x="4.48" y="30.77" width="154.86" height="110.03" rx="6.93" ry="6.93"/><rect class="cls-4" x="6.52" y="32.22" width="150.78" height="107.13" rx="5.49" ry="5.49"/><rect class="cls-5" x="13.04" y="37.26" width="137.74" height="92.64" rx="3.38" ry="3.38"/><path class="cls-3" d="M28.32,190.39a5.74,5.74,0,0,0-.72,2.75,5.81,5.81,0,0,0,5.81,5.81H185.62a5.81,5.81,0,0,0,5.81-5.81,5.74,5.74,0,0,0-.72-2.75Z" transform="translate(-27.6 -55.3)"/><path class="cls-6" d="M28.32,195.89a5.78,5.78,0,0,0,5.08,3.06H185.62a5.78,5.78,0,0,0,5.08-3.06Z" transform="translate(-27.6 -55.3)"/><path class="cls-7" d="M180,86.06H76.68v69.06a2.76,2.76,0,0,0,2.76,2.77h107.5V93A6.93,6.93,0,0,0,180,86.06Z" transform="translate(-27.6 -55.3)"/><rect class="cls-8" x="52.88" y="22.75" width="120.97" height="76.73" rx="2.76" ry="2.76"/><path class="cls-9" d="M60.48,17.57H175.92a2.76,2.76,0,0,1,2.76,2.76v71.2a2.76,2.76,0,0,1-2.76,2.76H60.48a2.76,2.76,0,0,1-2.76-2.76V20.33A2.77,2.77,0,0,1,60.48,17.57Z"/><rect class="cls-7" x="21.39" y="53.51" width="15.73" height="16.42" rx="1.73" ry="1.73"/><rect class="cls-4" x="20.48" y="77.36" width="15.73" height="16.42" rx="1.73" ry="1.73"/><rect class="cls-4" x="20.48" y="100.69" width="15.73" height="16.42" rx="1.73" ry="1.73"/><path class="cls-10" d="M59.38,162.39a3.74,3.74,0,0,0-7.48,0s-.53,4,3.74,7.11C59.91,166.34,59.38,162.39,59.38,162.39Z" transform="translate(-27.6 -55.3)"/><path class="cls-9" d="M55.86,165.08a2.71,2.71,0,1,1,2.48-2.48A2.71,2.71,0,0,1,55.86,165.08Z" transform="translate(-27.6 -55.3)"/><circle class="cls-10" cx="27.96" cy="85.35" r="5.17"/><circle class="cls-9" cx="27.96" cy="85.35" r="4.17"/><path class="cls-11" d="M55.57,136.48a4.17,4.17,0,0,1,4,3,.17.17,0,0,0,.16.12h0a.17.17,0,0,0,.16-.21,4.5,4.5,0,0,0-8.64,0,.17.17,0,0,0,.16.21h0a.17.17,0,0,0,.16-.12A4.17,4.17,0,0,1,55.57,136.48Z" transform="translate(-27.6 -55.3)"/><path class="cls-12" d="M60.19,140.78a.5.5,0,0,0-.49.43,4.17,4.17,0,0,1-8.26,0,.5.5,0,0,0-.49-.43h0a.5.5,0,0,0-.5.56,5.17,5.17,0,0,0,10.25,0,.5.5,0,0,0-.5-.56Z" transform="translate(-27.6 -55.3)"/><circle class="cls-9" cx="27.96" cy="85.35" r="4.17"/><path class="cls-10" d="M59.63,142a.17.17,0,0,0-.16.11,4.17,4.17,0,0,1-7.82,0,.17.17,0,0,0-.16-.11h0a.17.17,0,0,0-.16.22,4.51,4.51,0,0,0,8.45,0,.17.17,0,0,0-.16-.22Z" transform="translate(-27.6 -55.3)"/><path class="cls-10" d="M55.56,141h0a.2.2,0,0,1-.2-.2v-2.94a.2.2,0,0,1,.2-.2h0a.2.2,0,0,1,.2.2v2.94A.2.2,0,0,1,55.56,141Z" transform="translate(-27.6 -55.3)"/><path class="cls-10" d="M55.41,140.7h0a.2.2,0,0,1,.28,0l1.81,1.53a.2.2,0,0,1,0,.28h0a.2.2,0,0,1-.28,0L55.44,141A.2.2,0,0,1,55.41,140.7Z" transform="translate(-27.6 -55.3)"/><rect class="cls-13" x="27.85" y="81.46" width="0.15" height="0.4"/><rect class="cls-13" x="27.85" y="88.77" width="0.15" height="0.4"/><rect class="cls-13" x="51.8" y="140.41" width="0.15" height="0.4" transform="translate(-116.34 137.19) rotate(-90)"/><rect class="cls-13" x="59.1" y="140.41" width="0.15" height="0.4" transform="translate(-109.04 144.5) rotate(-90)"/><rect class="cls-13" x="52.87" y="137.83" width="0.15" height="0.4" transform="translate(-109.67 22.51) rotate(-44.98)"/><rect class="cls-13" x="58.03" y="143" width="0.15" height="0.4" transform="translate(-111.84 27.73) rotate(-45)"/><rect class="cls-13" x="52.87" y="143" width="0.15" height="0.4" transform="translate(-38.49 226.59) rotate(-135)"/><rect class="cls-13" x="58.03" y="137.83" width="0.15" height="0.4" transform="translate(-25.94 221.45) rotate(-135.03)"/><rect class="cls-3" x="65.15" y="25.6" width="36.29" height="61.17" rx="1.3" ry="1.3"/><rect class="cls-4" x="71.37" y="30.53" width="23.5" height="5.18" rx="1.04" ry="1.04"/><path class="cls-4" d="M106.84,119.82h-4.67a2,2,0,0,1-2-2h0a2,2,0,0,1,2-2h4.67a2,2,0,0,1,2,2h0A2,2,0,0,1,106.84,119.82Z" transform="translate(-27.6 -55.3)"/><path class="cls-10" d="M120.31,119.82h-4.67a2,2,0,0,1-2-2h0a2,2,0,0,1,2-2h4.67a2,2,0,0,1,2,2h0A2,2,0,0,1,120.31,119.82Z" transform="translate(-27.6 -55.3)"/><rect class="cls-9" x="70.85" y="40.9" width="25.23" height="3.97"/><rect class="cls-9" x="70.85" y="47.64" width="25.23" height="3.97"/><rect class="cls-14" x="76.3" y="54.12" width="14.52" height="0.91"/><path class="cls-10" d="M203.82,130.76H158.46a5.05,5.05,0,0,1-5.05-5.05h0a5.05,5.05,0,0,1,5.05-5.05h45.36a5.05,5.05,0,0,1,5.05,5.05h0A5.05,5.05,0,0,1,203.82,130.76Z" transform="translate(-27.6 -55.3)"/><path class="cls-3" d="M164.55,87.9H136.3a4.15,4.15,0,0,1-4.15-4.15h0a4.15,4.15,0,0,1,4.15-4.15h28.25a4.15,4.15,0,0,1,4.15,4.15h0A4.15,4.15,0,0,1,164.55,87.9Z" transform="translate(-27.6 -55.3)"/><circle class="cls-15" cx="114.14" cy="28.45" r="1.3"/><circle class="cls-16" cx="123.04" cy="28.45" r="1.3"/><circle class="cls-17" cx="131.25" cy="28.45" r="1.3"/><circle class="cls-18" cx="28.16" cy="62.21" r="3.16"/><path class="cls-10" d="M59,113.7h-.56l-.8-1.13a.34.34,0,0,0-.27-.14H54.22a.34.34,0,0,0-.27.14l-.8,1.13h-.56A1.58,1.58,0,0,0,51,115.27v4.58a1.58,1.58,0,0,0,1.57,1.57H59a1.58,1.58,0,0,0,1.57-1.57v-4.58A1.58,1.58,0,0,0,59,113.7Zm-3.22,6.14a2.32,2.32,0,1,1,2.32-2.32A2.32,2.32,0,0,1,55.81,119.84Z" transform="translate(-27.6 -55.3)"/><circle class="cls-4" cx="28.21" cy="62.22" r="1.53"/><rect class="cls-3" x="115.29" y="41.09" width="27.81" height="18.27" rx="2.04" ry="2.04"/><path class="cls-19" d="M156.82,105.38h-.05a.73.73,0,0,1-.36-.09l-10.72-6a.73.73,0,1,1,.71-1.28l10.39,5.77,10.39-5.77a.73.73,0,1,1,.71,1.28l-10.72,6A.73.73,0,0,1,156.82,105.38Z" transform="translate(-27.6 -55.3)"/><rect class="cls-20" x="149.39" y="12.9" width="34.48" height="44.58" rx="1.81" ry="1.81"/><path class="cls-21" d="M184.7,74.17h-2.3c-.12,0-.22-.2-.22-.44h0c0-.25.1-.44.22-.44h2.3c.12,0,.22.2.22.44h0C184.92,74,184.82,74.17,184.7,74.17Z" transform="translate(-27.6 -55.3)"/><path class="cls-21" d="M198.92,74.17H185.78c-.12,0-.22-.2-.22-.44h0c0-.25.1-.44.22-.44h13.14c.12,0,.22.2.22.44h0C199.14,74,199,74.17,198.92,74.17Z" transform="translate(-27.6 -55.3)"/><path class="cls-22" d="M190,76h-4.19c-.12,0-.22-.2-.22-.44h0c0-.25.1-.44.22-.44H190c.12,0,.22.2.22.44h0C190.19,75.81,190.09,76,190,76Z" transform="translate(-27.6 -55.3)"/><path class="cls-3" d="M196.86,76h-6c-.12,0-.22-.2-.22-.44h0c0-.25.1-.44.22-.44h6c.12,0,.22.2.22.44h0C197.09,75.81,197,76,196.86,76Z" transform="translate(-27.6 -55.3)"/><path class="cls-3" d="M198.92,84.95H185.78c-.12,0-.22-.2-.22-.44h0c0-.25.1-.44.22-.44h13.14c.12,0,.22.2.22.44h0C199.14,84.75,199,84.95,198.92,84.95Z" transform="translate(-27.6 -55.3)"/><path class="cls-21" d="M184.7,86.78h-2.3c-.12,0-.22-.2-.22-.44h0c0-.25.1-.44.22-.44h2.3c.12,0,.22.2.22.44h0C184.92,86.59,184.82,86.78,184.7,86.78Z" transform="translate(-27.6 -55.3)"/><path class="cls-3" d="M190,86.78h-4.19c-.12,0-.22-.2-.22-.44h0c0-.25.1-.44.22-.44H190c.12,0,.22.2.22.44h0C190.19,86.59,190.09,86.78,190,86.78Z" transform="translate(-27.6 -55.3)"/><path class="cls-22" d="M196.86,86.78h-6c-.12,0-.22-.2-.22-.44h0c0-.25.1-.44.22-.44h6c.12,0,.22.2.22.44h0C197.09,86.59,197,86.78,196.86,86.78Z" transform="translate(-27.6 -55.3)"/><path class="cls-22" d="M202.18,77.85h-16.4c-.12,0-.22-.2-.22-.44h0c0-.25.1-.44.22-.44h16.4c.12,0,.22.2.22.44h0C202.4,77.65,202.3,77.85,202.18,77.85Z" transform="translate(-27.6 -55.3)"/><rect class="cls-21" x="167.09" y="23.5" width="4.29" height="0.89" rx="0.23" ry="0.23"/><path class="cls-3" d="M191.23,79.68h-5.45c-.12,0-.22-.2-.22-.44h0c0-.25.1-.44.22-.44h5.45c.12,0,.22.2.22.44h0C191.45,79.48,191.35,79.68,191.23,79.68Z" transform="translate(-27.6 -55.3)"/><path class="cls-21" d="M194.13,79.68H192c-.12,0-.22-.2-.22-.44h0c0-.25.1-.44.22-.44h2.16c.12,0,.22.2.22.44h0C194.35,79.48,194.25,79.68,194.13,79.68Z" transform="translate(-27.6 -55.3)"/><path class="cls-3" d="M184.7,81.46h-2.3c-.12,0-.22-.2-.22-.44h0c0-.25.1-.44.22-.44h2.3c.12,0,.22.2.22.44h0C184.92,81.26,184.82,81.46,184.7,81.46Z" transform="translate(-27.6 -55.3)"/><path class="cls-3" d="M202.18,81.46h-16.4c-.12,0-.22-.2-.22-.44h0c0-.25.1-.44.22-.44h16.4c.12,0,.22.2.22.44h0C202.4,81.26,202.3,81.46,202.18,81.46Z" transform="translate(-27.6 -55.3)"/><path class="cls-3" d="M184.7,88.48h-2.3c-.12,0-.22-.2-.22-.44h0c0-.25.1-.44.22-.44h2.3c.12,0,.22.2.22.44h0C184.92,88.29,184.82,88.48,184.7,88.48Z" transform="translate(-27.6 -55.3)"/><rect class="cls-3" x="167.09" y="32.3" width="5.93" height="0.89" rx="0.28" ry="0.28"/><path class="cls-3" d="M191.23,88.48h-5.45c-.12,0-.22-.2-.22-.44h0c0-.25.1-.44.22-.44h5.45c.12,0,.22.2.22.44h0C191.45,88.29,191.35,88.48,191.23,88.48Z" transform="translate(-27.6 -55.3)"/><path class="cls-3" d="M194.13,88.48H192c-.12,0-.22-.2-.22-.44h0c0-.25.1-.44.22-.44h2.16c.12,0,.22.2.22.44h0C194.35,88.29,194.25,88.48,194.13,88.48Z" transform="translate(-27.6 -55.3)"/><path class="cls-23" d="M184.7,90.26h-2.3c-.12,0-.22-.2-.22-.44h0c0-.25.1-.44.22-.44h2.3c.12,0,.22.2.22.44h0C184.92,90.06,184.82,90.26,184.7,90.26Z" transform="translate(-27.6 -55.3)"/><path class="cls-21" d="M188.62,90.26h-2.84c-.12,0-.22-.2-.22-.44h0c0-.25.1-.44.22-.44h2.84c.12,0,.22.2.22.44h0C188.84,90.06,188.74,90.26,188.62,90.26Z" transform="translate(-27.6 -55.3)"/><path class="cls-21" d="M182.4,83.29c-.12,0-.22-.2-.22-.44h0c0-.25.1-.44.22-.44h2.3c.12,0,.22.2.22.44h0c0,.25-.1.44-.22.44" transform="translate(-27.6 -55.3)"/><rect class="cls-3" x="167.09" y="27.11" width="6.7" height="0.89" rx="0.29" ry="0.29"/><path class="cls-23" d="M191.23,83.29h-5.45c-.12,0-.22-.2-.22-.44h0c0-.25.1-.44.22-.44h5.45c.12,0,.22.2.22.44h0C191.45,83.09,191.35,83.29,191.23,83.29Z" transform="translate(-27.6 -55.3)"/><path class="cls-23" d="M194.13,83.29H192c-.12,0-.22-.2-.22-.44h0c0-.25.1-.44.22-.44h2.16c.12,0,.22.2.22.44h0C194.35,83.09,194.25,83.29,194.13,83.29Z" transform="translate(-27.6 -55.3)"/><path class="cls-3" d="M198.92,92.15H185.78c-.12,0-.22-.2-.22-.44h0c0-.25.1-.44.22-.44h13.14c.12,0,.22.2.22.44h0C199.14,91.95,199,92.15,198.92,92.15Z" transform="translate(-27.6 -55.3)"/><path class="cls-3" d="M190,94h-4.19c-.12,0-.22-.2-.22-.44h0c0-.25.1-.44.22-.44H190c.12,0,.22.2.22.44h0C190.19,93.78,190.09,94,190,94Z" transform="translate(-27.6 -55.3)"/><path class="cls-3" d="M196.86,94h-6c-.12,0-.22-.2-.22-.44h0c0-.25.1-.44.22-.44h6c.12,0,.22.2.22.44h0C197.09,93.78,197,94,196.86,94Z" transform="translate(-27.6 -55.3)"/><path class="cls-3" d="M198.92,102.92H185.78c-.12,0-.22-.2-.22-.44h0c0-.25.1-.44.22-.44h13.14c.12,0,.22.2.22.44h0C199.14,102.72,199,102.92,198.92,102.92Z" transform="translate(-27.6 -55.3)"/><path class="cls-22" d="M184.7,104.76h-2.3c-.12,0-.22-.2-.22-.44h0c0-.25.1-.44.22-.44h2.3c.12,0,.22.2.22.44h0C184.92,104.56,184.82,104.76,184.7,104.76Z" transform="translate(-27.6 -55.3)"/><path class="cls-21" d="M190,104.76h-4.19c-.12,0-.22-.2-.22-.44h0c0-.25.1-.44.22-.44H190c.12,0,.22.2.22.44h0C190.19,104.56,190.09,104.76,190,104.76Z" transform="translate(-27.6 -55.3)"/><path class="cls-3" d="M196.86,104.76h-6c-.12,0-.22-.2-.22-.44h0c0-.25.1-.44.22-.44h6c.12,0,.22.2.22.44h0C197.09,104.56,197,104.76,196.86,104.76Z" transform="translate(-27.6 -55.3)"/><path class="cls-22" d="M184.7,95.82h-2.3c-.12,0-.22-.2-.22-.44h0c0-.25.1-.44.22-.44h2.3c.12,0,.22.2.22.44h0C184.92,95.62,184.82,95.82,184.7,95.82Z" transform="translate(-27.6 -55.3)"/><rect class="cls-22" x="157.96" y="39.63" width="12.22" height="0.89" rx="0.27" ry="0.27"/><path class="cls-3" d="M184.7,97.65h-2.3c-.12,0-.22-.2-.22-.44h0c0-.25.1-.44.22-.44h2.3c.12,0,.22.2.22.44h0C184.92,97.46,184.82,97.65,184.7,97.65Z" transform="translate(-27.6 -55.3)"/><path class="cls-3" d="M191.23,97.65h-5.45c-.12,0-.22-.2-.22-.44h0c0-.25.1-.44.22-.44h5.45c.12,0,.22.2.22.44h0C191.45,97.46,191.35,97.65,191.23,97.65Z" transform="translate(-27.6 -55.3)"/><path class="cls-3" d="M194.13,97.65H192c-.12,0-.22-.2-.22-.44h0c0-.25.1-.44.22-.44h2.16c.12,0,.22.2.22.44h0C194.35,97.46,194.25,97.65,194.13,97.65Z" transform="translate(-27.6 -55.3)"/><path class="cls-3" d="M184.7,99.43h-2.3c-.12,0-.22-.2-.22-.44h0c0-.25.1-.44.22-.44h2.3c.12,0,.22.2.22.44h0C184.92,99.23,184.82,99.43,184.7,99.43Z" transform="translate(-27.6 -55.3)"/><rect class="cls-3" x="157.96" y="43.24" width="15.39" height="0.89" rx="0.3" ry="0.3"/><path class="cls-3" d="M184.7,106.46h-2.3c-.12,0-.22-.2-.22-.44h0c0-.25.1-.44.22-.44h2.3c.12,0,.22.2.22.44h0C184.92,106.26,184.82,106.46,184.7,106.46Z" transform="translate(-27.6 -55.3)"/><path class="cls-3" d="M202.16,106.46h-7.25c-.12,0-.22-.2-.22-.44h0c0-.25.1-.44.22-.44h7.25c.12,0,.22.2.22.44h0C202.38,106.26,202.28,106.46,202.16,106.46Z" transform="translate(-27.6 -55.3)"/><path class="cls-3" d="M191.23,106.46h-5.45c-.12,0-.22-.2-.22-.44h0c0-.25.1-.44.22-.44h5.45c.12,0,.22.2.22.44h0C191.45,106.26,191.35,106.46,191.23,106.46Z" transform="translate(-27.6 -55.3)"/><path class="cls-3" d="M194.13,106.46H192c-.12,0-.22-.2-.22-.44h0c0-.25.1-.44.22-.44h2.16c.12,0,.22.2.22.44h0C194.35,106.26,194.25,106.46,194.13,106.46Z" transform="translate(-27.6 -55.3)"/><rect class="cls-23" x="157.96" y="52.05" width="10.16" height="0.89" rx="0.24" ry="0.24"/><rect class="cls-22" x="167.09" y="45.08" width="7.09" height="0.89" rx="0.3" ry="0.3"/><path class="cls-23" d="M191.23,101.26h-5.45c-.12,0-.22-.2-.22-.44h0c0-.25.1-.44.22-.44h5.45c.12,0,.22.2.22.44h0C191.45,101.07,191.35,101.26,191.23,101.26Z" transform="translate(-27.6 -55.3)"/><path class="cls-23" d="M194.13,101.26H192c-.12,0-.22-.2-.22-.44h0c0-.25.1-.44.22-.44h2.16c.12,0,.22.2.22.44h0C194.35,101.07,194.25,101.26,194.13,101.26Z" transform="translate(-27.6 -55.3)"/><circle class="cls-24" cx="181.09" cy="13.82" r="7.26"/><path class="cls-9" d="M208.17,68.44l-2.88,1.06,2.88,1v1.08L204,70.06V68.93l4.12-1.57Z" transform="translate(-27.6 -55.3)"/><path class="cls-9" d="M209.11,67.37l4.12,1.57v1.13l-4.12,1.57V70.54l2.88-1-2.88-1.06Z" transform="translate(-27.6 -55.3)"/><circle class="cls-15" cx="133.08" cy="136.2" r="7.87"/><path class="cls-18" d="M164.84,191a3.71,3.71,0,0,1-.23,1.34,2.22,2.22,0,0,1-.66,1,1.53,1.53,0,0,1-1,.35,1.24,1.24,0,0,1-.67-.18,1,1,0,0,1-.42-.48h-.08a1.75,1.75,0,0,1-1.4.66,1.87,1.87,0,0,1-1.42-.54,2.06,2.06,0,0,1-.52-1.48,2.29,2.29,0,0,1,.68-1.73,2.46,2.46,0,0,1,1.78-.66,6.18,6.18,0,0,1,1,.08,5.3,5.3,0,0,1,.87.2l-.12,2.49q0,.71.39.71t.52-.48a3.36,3.36,0,0,0,.19-1.24,3,3,0,0,0-.34-1.45,2.32,2.32,0,0,0-1-1,3,3,0,0,0-1.41-.33,3.61,3.61,0,0,0-1.79.42,2.82,2.82,0,0,0-1.16,1.22,4,4,0,0,0-.4,1.84,2.92,2.92,0,0,0,.75,2.16,3,3,0,0,0,2.18.75,6.54,6.54,0,0,0,1.19-.12,7.87,7.87,0,0,0,1.27-.35v1a6.12,6.12,0,0,1-2.42.46,4.23,4.23,0,0,1-3-1,3.7,3.7,0,0,1-1.08-2.83,4.74,4.74,0,0,1,.55-2.28,4,4,0,0,1,1.57-1.61,4.65,4.65,0,0,1,2.35-.58,4.27,4.27,0,0,1,2,.46,3.25,3.25,0,0,1,1.36,1.3A3.89,3.89,0,0,1,164.84,191Zm-5.21.64q0,1.07.88,1.07a.81.81,0,0,0,.7-.32,2,2,0,0,0,.29-1.05l.07-1.13a2.78,2.78,0,0,0-.59-.06,1.26,1.26,0,0,0-1,.4A1.57,1.57,0,0,0,159.63,191.69Z" transform="translate(-27.6 -55.3)"/><path class="cls-10" d="M121.12,55.3H71.73a7.26,7.26,0,1,0,0,14.53h3.63l3.51,3.51,3.51-3.51h38.74a7.26,7.26,0,1,0,0-14.53Z" transform="translate(-27.6 -55.3)"/><path class="cls-18" d="M107,64.88H74.48a.81.81,0,0,1-.81-.81h0a.81.81,0,0,1,.81-.81H107a.81.81,0,0,1,.81.81h0A.81.81,0,0,1,107,64.88Z" transform="translate(-27.6 -55.3)"/><path class="cls-18" d="M96.83,60.41H74.48a.81.81,0,0,1-.81-.81h0a.81.81,0,0,1,.81-.81H96.83a.81.81,0,0,1,.81.81h0A.81.81,0,0,1,96.83,60.41Z" transform="translate(-27.6 -55.3)"/><polygon class="cls-9" points="56.57 125.61 56.1 124.68 68.66 118.4 84.5 118.66 101.7 112.18 114.83 112.18 128.86 107.51 128.97 107.52 140.22 108.8 146.56 105.5 147.04 106.42 140.42 109.86 140.26 109.84 128.97 108.56 114.92 113.22 101.79 113.22 84.68 119.7 84.58 119.7 68.9 119.44 56.57 125.61"/><path class="cls-20" d="M161.46,160.36s14,22.64,12.23,38.39l9.51.2-4.08-2.36,1.16-.2S176.8,172,173.5,163.31c-3.46-9.07-4.47-5.71-4.47-5.71Z" transform="translate(-27.6 -55.3)"/><path class="cls-20" d="M156.41,159s.78,15.73-.39,21.74-4.66,17.86-4.66,17.86l8.93.19-2.35-1.66-1.49-.87s6.36-17.08,6.94-25.24A106.89,106.89,0,0,1,165,158.18Z" transform="translate(-27.6 -55.3)"/><polyline class="cls-25" points="147.08 57.12 148.54 56.1 149.19 53.69 148.47 53.55 148.03 54.42 148.47 50.27 147.74 50.42 147.01 54.42 146.13 56.31 146.94 56.82"/><polygon class="cls-25" points="155.7 61.44 155.89 59.69 158.03 57.55 158.51 58.23 157.74 59.1 161.81 58.13 161.81 59.01 158.03 60.46 157.25 61.82 155.7 61.44"/><path class="cls-4" d="M173.67,110.94s-16.58,20.12-18.51,24.14c0,0-.8,1.45-.8,5.63s1.45,19.64,1.45,19.64l16.9,1s-5.47-18.83-5.63-19.31a11.5,11.5,0,0,0-5.47-4l14.16-25.59Z" transform="translate(-27.6 -55.3)"/><path class="cls-25" d="M163.18,136s.7,2.09,1.09,3.35c0,0-3.45-.07-4.66-1.68l1.29-3.09Z" transform="translate(-27.6 -55.3)"/><path class="cls-25" d="M165.8,129.51s1,5.94,0,7.29-4.52-.95-6-3.11-1.75-7,.73-7.43A4.58,4.58,0,0,1,165.8,129.51Z" transform="translate(-27.6 -55.3)"/><path class="cls-4" d="M164.23,140.51s13.29-8.36,14.36-10.08S182.67,116,182.67,116l2.57.64s-1.5,14.26-1.93,15.76S169.8,147.8,166.8,147.8,162.73,143.94,164.23,140.51Z" transform="translate(-27.6 -55.3)"/><path class="cls-20" d="M164.86,128.19s.68-2.33-.78-3.49-4-1-4.37-.58c0,.68,1.55,1.07,1.16,1.46s-2.43,0-2.91,2,.19,2.43.19,2.43a2.41,2.41,0,0,0,.19,3c1.26,1.75,4.11,3.19,4.82,3s.32-2.9.32-2.9-1.65-.19-1.75-1.26.78-1.16,1.16-.78.49,1.26.78,1.07-.1-2.23-.1-2.23A4.09,4.09,0,0,0,164.86,128.19Z" transform="translate(-27.6 -55.3)"/><path class="cls-10" d="M140.24,180.32l-8.89,2.44a4.62,4.62,0,0,0-3.22,5.66l1.68,6.13a4.62,4.62,0,0,0,5.66,3.22l2.66-.73,2.62,2.59.93-3.57,2.66-.73a4.62,4.62,0,0,0,3.22-5.66l-1.68-6.13A4.62,4.62,0,0,0,140.24,180.32Z" transform="translate(-27.6 -55.3)"/><circle class="cls-18" cx="133.38" cy="190.64" r="1.02" transform="translate(-73.28 -13.22) rotate(-15.34)"/><circle class="cls-18" cx="137.85" cy="189.41" r="1.02" transform="translate(-72.79 -12.09) rotate(-15.34)"/><circle class="cls-18" cx="142.33" cy="188.18" r="1.02" transform="translate(-72.31 -10.94) rotate(-15.34)"/><circle class="cls-15" cx="68.69" cy="118.66" r="1.64"/><circle class="cls-26" cx="129" cy="108.12" r="1.64"/></g></g></svg>