<svg xmlns="http://www.w3.org/2000/svg" viewBox="0 0 311.73 137.46"><defs><style>.cls-1{fill:#f7ce3c;}.cls-1,.cls-2{fill-rule:evenodd;}.cls-3{fill:#424240;}.cls-4{fill:#414042;}.cls-5{font-size:9px;font-family:ReplicaPro-Light, Replica Pro;}.cls-6{letter-spacing:-0.02em;}.cls-7{letter-spacing:-0.01em;}.cls-10,.cls-8{letter-spacing:-0.01em;}.cls-10,.cls-9{font-family:ReplicaPro-Bold, Replica Pro;font-weight:700;}.cls-11{letter-spacing:-0.03em;}.cls-12{letter-spacing:-0.02em;}.cls-13{letter-spacing:-0.02em;}</style></defs><title>goldet_ticket</title><g id="Layer_2" data-name="Layer 2"><g id="Layer_1-2" data-name="Layer 1"><polygon class="cls-1" points="0 0 154.76 0 156.97 0 311.73 0 306.42 5.47 311.73 10.94 306.42 16.4 311.73 21.87 306.42 27.34 311.73 32.8 306.42 38.27 311.73 43.74 306.42 49.2 311.73 54.67 306.42 60.14 311.73 65.61 306.42 71.07 311.73 76.54 306.42 82.01 311.73 87.48 306.42 92.94 311.73 98.41 306.42 103.88 311.73 109.34 306.42 114.81 311.73 120.28 306.42 125.75 311.73 131.21 306.42 136.68 307.18 137.46 156.97 137.46 154.76 137.46 4.56 137.46 5.32 136.68 0 131.21 5.32 125.75 0 120.28 5.32 114.81 0 109.34 5.32 103.88 0 98.41 5.32 92.94 0 87.48 5.32 82.01 0 76.54 5.32 71.07 0 65.61 5.32 60.14 0 54.67 5.32 49.2 0 43.74 5.32 38.27 0 32.8 5.32 27.34 0 21.87 5.32 16.4 0 10.94 5.32 5.47 0 0 0 0"/><path class="cls-2" d="M128.85,92.65l11.29-.16c-.73-2.42-1.33-1.74-1.3-5.25,0-2.63-.47-18,.34-19.17A44,44,0,0,1,140.83,74l5,18.45h11.29C155,88.8,155.62,87,155.62,81.75V57.34c0-2.78-.21-6,.38-8.77.21-1,.58-1.27.84-2.24l-10.68,0c2,4.14,1.22,14.37,1.2,19.9,0,2.89,0,2.13-.59,2.43l-6.1-22.27H129.39c.7,2,1.09,1.81,1.21,4.87l-.29,36.63c-.12,2.75-1.22,3.37-1.45,4.8ZM36,71.68V83.27c0,6.25,1.76,8.88,7.18,9.91s11.24-.34,13.07-4,1.15-27.42,1.11-33.67c0-8.42-3.91-10.12-11.3-9.81a22.5,22.5,0,0,0-6,1.38,7.3,7.3,0,0,0-3.28,3.73c-1,2.94-.8,17.32-.8,20.87Zm47-22c0,9.41.38,29.8-.31,39.05-.17,2.24-1,2.38-1.27,4,4.37,0,10.55.14,14.54-.45,4.55-.68,6.87-3.14,6.87-8.09V60.7c0-5.12,1.06-11.18-4.74-13.27-4-1.42-12-1.38-16.17-1A5.43,5.43,0,0,1,83,49.71ZM23.3,89.57a6.46,6.46,0,0,1-.08,3.16l7.93,0c-.52-2.61-.93-2.88-.92-6.43,0-4.26-.33-14.63.38-18.22.22-1.08.7-2.05.84-3.14H19.56l-.09,7.1,2.09-.36c.37,2.17.33,12.29-.28,13.89-.7,1.83-2.92,1.76-3.35-1s-.09-18,0-21.15c0-1.44-.11-9.44.47-10.35a1.72,1.72,0,0,1,2.36-.63c2.56,1.09.33,5.94.22,7.16l10.32.17c-.34-2-.85-2.72-1-5.19-.11-2.23-.16-3.84-1.07-5.41C26.8,45,15.55,43.71,11.3,49.07c-2.1,2.65-1.8,6.82-1.8,11,0,8.41-.27,16.95-.08,25.32.1,4.54.77,6.86,5,7.65a9.11,9.11,0,0,0,5.28-.52c2.58-1.19,1.91-2.16,3.62-3ZM234.64,53.68c0,.65,0,34.66-.68,36.82a18.53,18.53,0,0,0-1.07,2.45L244.4,93c-1.88-4.81-1.53-2-1.53-8.85q0-5.34,0-10.68h.61c.23,3.35,5.32,14.44,4.95,19.46l9.87.2c-.06-1.25-1.82-3.46-2.34-5l-5.46-18c-.51-2,.36-4,1-6s1.23-4.07,1.83-6.11,1.06-3.89,1.73-5.89c.35-1,.54-2.07,1-3a4.94,4.94,0,0,1,.69-1.14c.59-.8.54-.2.72-1.24l-9.68-.08V48.8c0,1.25-4.05,15-4.52,15.77-.74-1.25-.06-6.87-.06-9.06,0-4-.47-5.77,1.16-8.79l-10.92-.06c1.08,3,1.22,2.49,1.22,7Zm-5.18,21.66-10.68-.11c1.08,2.93,1.64,8.69.18,11.58l-2.31.15c-1.58-2.57-.92-14.56-.92-18.33l.35-14.28c.33-1.82,1.09-1.89,3-1.89,1.14,1.7,1.32,5.58.67,8-.32,1.17-.71,1.34-1,2.38h10.68c-1.32-3.7-1.24-1.9-1.22-6.71,0-2.7,0-4.92-1.18-6.76-1.78-2.78-7.14-4.27-11.94-3.31-10.25,2.05-7.48,12.52-7.64,24.11-.06,4.72-.41,11.26.06,15.82.5,4.84,3.51,7.12,8.23,7.62,4.94.53,9.82-1,11.41-4.34,2.37-5-.4-7,2.27-13.92ZM261,93.2l17.56.17,0-7.57c-2.29,1.16-4.75.83-7.91.83V72.37c2.77-.29,5.92-.15,7.49,1l.15-8.72c-3.17,1.08-3.72.91-7.65.92,0-3.39-.15-7.08,0-10.42,0-1.47-.23-1.28.93-1.5,2.53-.47,6.29.77,7.35.93V47l-17.21-.23c0,1.16.92,1.38,1,4.8.32,8.68-.31,21.39-.3,30.82,0,2,.07,4.13,0,6.11-.07,2.43-1.32,3.72-1.39,4.73ZM108.95,54V84.81c0,6.12-.71,5.16-1.6,7.92l17.33-.1.14-7.53c-5,1.13-1.93.92-7.94.91V72.59c0-1.27,1.55-.92,3.66-.92s2.42.63,4,1V64.05c-4.2,1-1.95,1-7.58.88,0-2.7-.37-9.86.48-11.71,2.74-.44,7.31.83,7.41.81s.08-.27.09-.23l.25-5.66c0-2.3.59-1.79-4.61-1.79H108c.56,3.07.92-.78.92,7.63Zm172.67.61c1.91-1.05,2.76-.91,4.88-.92,1.49,0,.91,2.88.89,4.27l-.28,26.24c0,5.05.43,5.58-1.53,9.23l11.59.26c-.81-3.12-1.56-1.23-1.52-7.35L296,53.77c4.49-.43,4.2.48,6,.73l.09-6.62c0-1-.55-.92-1.53-.92H281.62v7.63Zm-112.24-.74a7.93,7.93,0,0,1,5.6-.61c.39,1.41-.14,25.2-.14,30.33a36.19,36.19,0,0,1-.09,5.09,11.23,11.23,0,0,1-1.44,3.86l11.25.07c-.1-2.64-1.18,1.05-1.18-8.72,0-6.48-.42-27.18.3-30.81,6.16,0,3.71.6,5.67.78a56,56,0,0,0,.15-6.61c-.24-1.31-.7-.94-2.44-.9-5.67.11-12.24-.28-17.66.07l0,7.45ZM62.58,46.66c1.86,3.17.84,6.71,1,10.67.18,3.68-.12,8.37-.12,12.22l0,18.29c-.24,2.93-1,3-1.51,4.89H78.75V85.1A19.69,19.69,0,0,1,72,86c-.14-2-.21-31.52.16-35.52.24-2.65.55-2.36,1.06-4.25L64.66,46a2.59,2.59,0,0,0-1,.17l-.44.16c-.59.24-.31.07-.64.32Zm129,46.07H203c-.4-1.42-1.31-2.32-1.31-4v-32a56.24,56.24,0,0,1,.4-8.15c.27-1.19.58-1,.82-2.22H192.23c.24,1,.64,1.28.84,2.22a57.75,57.75,0,0,1,.3,8.77l-.22,24.4c0,1.94.11,4.2,0,6.1-.17,2.71-1.08,3.14-1.52,4.88ZM45,87.65c3.9,1.07,3.82-.56,3.81-7.43,0-4.58.4-26.17-.55-28.77-4-1.35-3.74,1.78-3.72,5.58,0,6.92-.59,26.61.46,30.62ZM90.95,55.21V86c1.79,0,2.68.16,3.2-1.39a20.22,20.22,0,0,0,.33-4.1L94.61,57c0-4.48-2.6-4.14-3.17-3.8-.78.46-.49.77-.49,2Z"/><path class="cls-2" d="M8.88,99.16c1.35.61,23.39.35,27.46.16,3.07-.14,6.36.24,9.41.07l17.74-.22c6.12.2,12.72,0,18.91,0h37.22c12.41,0,24.89-.44,37.23-.25,12,.19,24.12.25,36.29.25,33.78,0,68,.91,101.59.91,2.58,0,9.07.83,7.35-.9-.67-.67-66.77-.87-73.86-1-61.77-1-123.64-.25-185.49-.24l-30.52.28c-2.32,0-3.18-1-3.35,1Z"/><path class="cls-2" d="M10.1,10.82H116.83q-.36.61-.66,1.25H10.1a.63.63,0,0,1-.63-.63h0a.63.63,0,0,1,.63-.63Zm154.48,0h12.15a6.5,6.5,0,0,0-.2,1.25H165.33c-.24-.42-.49-.84-.74-1.25Zm21.91,0H301.37a.63.63,0,0,1,.63.63h0a.63.63,0,0,1-.63.63H187.05a11.62,11.62,0,0,0-.56-1.25Zm-42.91,0h4.15a6.5,6.5,0,0,0-.2,1.25h-3.21c-.24-.42-.49-.84-.74-1.25Z"/><path class="cls-2" d="M10.1,98.21H301.37a.63.63,0,0,1,.63.63h0a.63.63,0,0,1-.63.63H10.1a.63.63,0,0,1-.63-.63h0a.63.63,0,0,1,.63-.63Z"/><path class="cls-2" d="M10.1,123.7H301.37a.63.63,0,0,1,.63.63h0a.63.63,0,0,1-.63.63H10.1a.63.63,0,0,1-.63-.63h0a.63.63,0,0,1,.63-.63Z"/><path d="M67.69,131.27a2.57,2.57,0,0,0-.32-1.07.7.7,0,0,0-.59-.39.25.25,0,0,0-.2.07.46.46,0,0,0-.05.26v3.38a.44.44,0,0,0,.06.27.31.31,0,0,0,.23.06h.28v.35H64.94v-.35h.29a.3.3,0,0,0,.22-.06.45.45,0,0,0,.06-.28v-3.38a.47.47,0,0,0-.05-.27.24.24,0,0,0-.2-.06.7.7,0,0,0-.59.39,2.6,2.6,0,0,0-.33,1.07h-.28l.09-1.77h3.73l.09,1.77Zm4.08,2.59h.29a.3.3,0,0,0,.22-.06.45.45,0,0,0,.06-.28V132h-1.5v1.53a.43.43,0,0,0,.06.27.31.31,0,0,0,.23.06h.28v.35H69.25v-.35h.29a.31.31,0,0,0,.23-.06.45.45,0,0,0,.06-.28v-3.34a.45.45,0,0,0-.06-.28.3.3,0,0,0-.23-.07h-.29v-.34h2.16v.34h-.28a.31.31,0,0,0-.23.07.44.44,0,0,0-.06.28v1.38h1.5v-1.38a.45.45,0,0,0-.06-.28.3.3,0,0,0-.22-.07h-.29v-.34h2.16v.34h-.29a.3.3,0,0,0-.22.07.45.45,0,0,0-.06.28v3.34a.45.45,0,0,0,.06.28.31.31,0,0,0,.23.06h.29v.35H71.77v-.35Zm5.73-4.36v.34h-.32a.3.3,0,0,0-.22.07.45.45,0,0,0-.06.28v3.34a.45.45,0,0,0,.06.28.31.31,0,0,0,.23.06h.32v.35H75.27v-.35h.31a.31.31,0,0,0,.23-.06.43.43,0,0,0,.06-.27v-3.34a.45.45,0,0,0-.06-.28.3.3,0,0,0-.23-.07h-.31v-.34Zm1.65,4.78-.05-1.89h.29a2.87,2.87,0,0,0,.64,1.17,1.24,1.24,0,0,0,.91.4.81.81,0,0,0,.58-.2.74.74,0,0,0,.21-.56.71.71,0,0,0-.06-.29.55.55,0,0,0-.15-.21,2.38,2.38,0,0,0-.71-.27l-.32-.09a2.34,2.34,0,0,1-1.08-.57,1.32,1.32,0,0,1-.32-.94,1.44,1.44,0,0,1,.41-1.05,1.4,1.4,0,0,1,1-.41,1.75,1.75,0,0,1,.55.09,1.9,1.9,0,0,1,.51.26l.28-.32h.25l.07,1.72h-.27a3.3,3.3,0,0,0-.63-1.08,1.05,1.05,0,0,0-.77-.33.79.79,0,0,0-.56.19.67.67,0,0,0-.2.52q0,.48,1,.73l.27.07a3.31,3.31,0,0,1,.66.23,1.22,1.22,0,0,1,.35.27,1.31,1.31,0,0,1,.26.47,1.94,1.94,0,0,1,.09.61,1.51,1.51,0,0,1-.4,1.1,1.44,1.44,0,0,1-1.08.41,1.9,1.9,0,0,1-.64-.1,1.7,1.7,0,0,1-.54-.32l-.33.39Zm9.41-1.58a.45.45,0,0,0-.06-.27.28.28,0,0,0-.22-.07H88V132h2v.34h-.22a.29.29,0,0,0-.23.07.45.45,0,0,0-.06.27v1.61h-.27l-.29-.64a1.48,1.48,0,0,1-.57.48,1.68,1.68,0,0,1-.75.17,1.86,1.86,0,0,1-1.22-.45,2.1,2.1,0,0,1-.6-.84,3.12,3.12,0,0,1-.2-1.17,2.94,2.94,0,0,1,.21-1.13,2.34,2.34,0,0,1,.62-.87,1.78,1.78,0,0,1,.6-.35,2.26,2.26,0,0,1,.75-.12,1.89,1.89,0,0,1,.63.1,1.31,1.31,0,0,1,.47.28l.32-.33h.25l.05,1.84-.29,0a2.64,2.64,0,0,0-.54-1.15,1.09,1.09,0,0,0-.83-.41.9.9,0,0,0-.84.52,3.61,3.61,0,0,0-.27,1.61,3.85,3.85,0,0,0,.24,1.59.81.81,0,0,0,.77.5.73.73,0,0,0,.61-.28,1.26,1.26,0,0,0,.22-.79v-.18Zm3.93-.85a3.86,3.86,0,0,0,.25,1.59.81.81,0,0,0,1.51,0,3.82,3.82,0,0,0,.25-1.58,3.85,3.85,0,0,0-.25-1.59.81.81,0,0,0-1.52,0,3.86,3.86,0,0,0-.25,1.58Zm-1.13,0a3.1,3.1,0,0,1,.15-1,2.36,2.36,0,0,1,.43-.79,1.93,1.93,0,0,1,.69-.54,2.27,2.27,0,0,1,1.76,0,2,2,0,0,1,.69.55,2.33,2.33,0,0,1,.42.78,3.08,3.08,0,0,1,.15,1,3,3,0,0,1-.13.95,2.26,2.26,0,0,1-.42.75,2.15,2.15,0,0,1-.71.57,2.1,2.1,0,0,1-1.73,0,2.09,2.09,0,0,1-.7-.57,2.28,2.28,0,0,1-.44-.76,3,3,0,0,1-.14-1Zm9.45,2.35H97v-.35h.29a.31.31,0,0,0,.23-.06.43.43,0,0,0,.06-.27v-3.34a.45.45,0,0,0-.06-.28.31.31,0,0,0-.23-.06H97v-.34h2.24v.34h-.36a.31.31,0,0,0-.23.07.44.44,0,0,0-.06.28v3.32a.4.4,0,0,0,.07.28.61.61,0,0,0,.36.07,1.45,1.45,0,0,0,1-.33,2.12,2.12,0,0,0,.51-1.13l.28,0-.07,1.78Zm3.36-4.7a2.46,2.46,0,0,1,1.79.59,2.38,2.38,0,0,1,.6,1.77,2.46,2.46,0,0,1-.57,1.73,2.08,2.08,0,0,1-1.61.62h-2.22v-.35h.3a.32.32,0,0,0,.23-.06.43.43,0,0,0,.06-.27v-3.34a.45.45,0,0,0-.06-.28.31.31,0,0,0-.23-.07h-.3v-.34Zm-.39.64v3.4a.39.39,0,0,0,.05.24.27.27,0,0,0,.21.06h.39a.84.84,0,0,0,.8-.46,3.51,3.51,0,0,0,.24-1.54,3.2,3.2,0,0,0-.27-1.56,1,1,0,0,0-1-.44H104a.26.26,0,0,0-.21.06.41.41,0,0,0-.05.24Zm4.2,4.06v-.35h.28a.31.31,0,0,0,.23-.06.43.43,0,0,0,.06-.27v-3.34a.45.45,0,0,0-.06-.28.31.31,0,0,0-.23-.07H108v-.34h3.69l0,1.69h-.28a1.94,1.94,0,0,0-.48-1.06,1.42,1.42,0,0,0-1-.31.56.56,0,0,0-.35.07.41.41,0,0,0-.07.28v1.41h.08a.7.7,0,0,0,.55-.2,1.37,1.37,0,0,0,.26-.7h.28v2.16h-.28a1.36,1.36,0,0,0-.26-.7.7.7,0,0,0-.55-.2h-.08v1.57a.4.4,0,0,0,.07.29.59.59,0,0,0,.36.07,1.55,1.55,0,0,0,1.08-.33,2.09,2.09,0,0,0,.52-1.13l.28,0-.07,1.77Zm5.34,0v-.34a.67.67,0,0,0,.47-.2,1.12,1.12,0,0,0,.13-.64V130.2l-.11-.13a.61.61,0,0,0-.2-.19.55.55,0,0,0-.23,0h-.06v-.34h1.43l2.16,2.93v-1.76a1.1,1.1,0,0,0-.14-.67.7.7,0,0,0-.54-.16v-.34h1.67v.34a.59.59,0,0,0-.46.18,1.19,1.19,0,0,0-.12.65v3.6H117l-2.67-3.63V133a1.1,1.1,0,0,0,.14.66.68.68,0,0,0,.52.18v.34Zm11.12-2.93a2.57,2.57,0,0,0-.32-1.07.7.7,0,0,0-.59-.39.25.25,0,0,0-.2.07.46.46,0,0,0-.05.26v3.38a.43.43,0,0,0,.06.27.31.31,0,0,0,.23.06h.28v.35H121.7v-.35H122a.3.3,0,0,0,.22-.06.45.45,0,0,0,.06-.28v-3.38a.47.47,0,0,0-.05-.27.24.24,0,0,0-.2-.06.7.7,0,0,0-.59.39,2.6,2.6,0,0,0-.32,1.07h-.28l.09-1.77h3.73l.09,1.77Zm3.81-1.77v.34h-.32a.3.3,0,0,0-.22.07.45.45,0,0,0-.06.28v3.34a.44.44,0,0,0,.06.28.31.31,0,0,0,.23.06h.32v.35H126v-.35h.31a.31.31,0,0,0,.23-.06.43.43,0,0,0,.06-.27v-3.34a.45.45,0,0,0-.06-.28.31.31,0,0,0-.23-.07H126v-.34Zm5.31,3.11a2.27,2.27,0,0,1-.61,1.28,1.65,1.65,0,0,1-1.19.44,2,2,0,0,1-.68-.11,1.83,1.83,0,0,1-.58-.34,2.3,2.3,0,0,1-.61-.87,3.23,3.23,0,0,1-.07-2.07,2.56,2.56,0,0,1,.41-.78,1.92,1.92,0,0,1,.69-.57,2,2,0,0,1,.89-.19,1.75,1.75,0,0,1,.57.09,1.55,1.55,0,0,1,.49.27l.32-.34h.24l.08,1.9-.29,0a3,3,0,0,0-.52-1.21,1,1,0,0,0-.81-.41.85.85,0,0,0-.81.49,3.68,3.68,0,0,0-.25,1.59,3.52,3.52,0,0,0,.27,1.6.93.93,0,0,0,.88.48,1.06,1.06,0,0,0,.81-.36,2.25,2.25,0,0,0,.49-1l.31.12Zm1.51,1.6v-.35h.28a.31.31,0,0,0,.23-.06.43.43,0,0,0,.06-.27v-3.34a.45.45,0,0,0-.06-.28.31.31,0,0,0-.23-.07h-.28v-.34h2.14v.34h-.28a.3.3,0,0,0-.23.07.44.44,0,0,0-.06.28V132l1.29-1.58a.8.8,0,0,0,.11-.16.3.3,0,0,0,0-.12.2.2,0,0,0-.1-.18.53.53,0,0,0-.28-.06h-.16v-.34h1.9v.34a1.08,1.08,0,0,0-.48.12,1.63,1.63,0,0,0-.45.4l-.7.82,1.33,2.45a.51.51,0,0,0,.16.18.39.39,0,0,0,.22.06h.08v.35h-2.06v-.35h.15a.58.58,0,0,0,.24,0,.12.12,0,0,0,.08-.12.62.62,0,0,0-.09-.24h0l-.79-1.48-.46.57v1a.44.44,0,0,0,.06.28.32.32,0,0,0,.23.06h.28v.35Zm5.69,0v-.35h.28a.31.31,0,0,0,.23-.06.43.43,0,0,0,.06-.27v-3.34a.45.45,0,0,0-.06-.28.31.31,0,0,0-.23-.07h-.28v-.34h3.69l0,1.69h-.28a1.93,1.93,0,0,0-.48-1.06,1.42,1.42,0,0,0-1-.31.56.56,0,0,0-.35.07.41.41,0,0,0-.07.28v1.41h.08a.7.7,0,0,0,.55-.2,1.37,1.37,0,0,0,.26-.7h.28v2.16h-.28a1.36,1.36,0,0,0-.26-.7.7.7,0,0,0-.55-.2h-.08v1.57a.4.4,0,0,0,.07.29.59.59,0,0,0,.36.07,1.55,1.55,0,0,0,1.08-.33,2.09,2.09,0,0,0,.52-1.13l.28,0-.07,1.77Zm9-2.93a2.57,2.57,0,0,0-.32-1.07.7.7,0,0,0-.59-.39.25.25,0,0,0-.2.07.46.46,0,0,0-.05.26v3.38a.43.43,0,0,0,.06.27.31.31,0,0,0,.23.06h.28v.35H147v-.35h.28a.3.3,0,0,0,.22-.06.45.45,0,0,0,.06-.28v-3.38a.47.47,0,0,0-.05-.27.24.24,0,0,0-.2-.06.7.7,0,0,0-.59.39,2.59,2.59,0,0,0-.32,1.07h-.28l.09-1.77h3.73l.09,1.77ZM153,134.2v-.35h.28a.31.31,0,0,0,.23-.06.43.43,0,0,0,.06-.27v-3.34a.45.45,0,0,0-.06-.28.31.31,0,0,0-.23-.07H153v-.34h3.69l0,1.69h-.28a1.94,1.94,0,0,0-.48-1.06,1.42,1.42,0,0,0-1-.31.56.56,0,0,0-.35.07.41.41,0,0,0-.07.28v1.41h.08a.7.7,0,0,0,.55-.2,1.37,1.37,0,0,0,.26-.7h.28v2.16h-.28a1.36,1.36,0,0,0-.26-.7.7.7,0,0,0-.55-.2h-.08v1.57a.4.4,0,0,0,.07.29.59.59,0,0,0,.36.07,1.55,1.55,0,0,0,1.08-.33,2.09,2.09,0,0,0,.52-1.13l.28,0-.07,1.77Zm5.34,0v-.34a.67.67,0,0,0,.47-.2,1.12,1.12,0,0,0,.13-.64V130.2l-.11-.13a.61.61,0,0,0-.2-.19.55.55,0,0,0-.23,0h-.06v-.34h1.43l2.16,2.93v-1.76a1.1,1.1,0,0,0-.14-.67.7.7,0,0,0-.54-.16v-.34h1.67v.34a.59.59,0,0,0-.46.18,1.19,1.19,0,0,0-.12.65v3.6h-.36l-2.67-3.63V133a1.1,1.1,0,0,0,.14.66.68.68,0,0,0,.52.18v.34Zm6.19.08-.05-1.89h.29a2.88,2.88,0,0,0,.64,1.17,1.24,1.24,0,0,0,.91.4.81.81,0,0,0,.58-.2.74.74,0,0,0,.21-.56.71.71,0,0,0-.06-.29.55.55,0,0,0-.15-.21,2.38,2.38,0,0,0-.71-.27l-.32-.09a2.34,2.34,0,0,1-1.09-.57,1.32,1.32,0,0,1-.32-.94,1.44,1.44,0,0,1,.41-1.05,1.4,1.4,0,0,1,1-.41,1.76,1.76,0,0,1,.55.09,1.89,1.89,0,0,1,.51.26l.29-.32h.25l.07,1.72h-.27a3.3,3.3,0,0,0-.63-1.08,1.05,1.05,0,0,0-.77-.33.79.79,0,0,0-.56.19.67.67,0,0,0-.2.52q0,.48,1,.73l.27.07a3.3,3.3,0,0,1,.66.23,1.22,1.22,0,0,1,.35.27,1.31,1.31,0,0,1,.26.47,1.94,1.94,0,0,1,.09.61,1.51,1.51,0,0,1-.4,1.1,1.44,1.44,0,0,1-1.08.41,1.9,1.9,0,0,1-.64-.1,1.7,1.7,0,0,1-.54-.32l-.33.39Zm6.82-4.78v.34H171a.3.3,0,0,0-.23.07.44.44,0,0,0-.06.28v2.38a1.52,1.52,0,0,0,.24.95.91.91,0,0,0,.76.3,1.18,1.18,0,0,0,.42-.07.86.86,0,0,0,.32-.2.89.89,0,0,0,.22-.4,3.8,3.8,0,0,0,.06-.84v-1.71a.94.94,0,0,0-.13-.58.57.57,0,0,0-.46-.16h0v-.34h1.56v.34a.61.61,0,0,0-.43.18.93.93,0,0,0-.12.56v1.76a5,5,0,0,1,0,.81,1.37,1.37,0,0,1-.16.44,1.32,1.32,0,0,1-.58.55,2.12,2.12,0,0,1-.93.18,1.78,1.78,0,0,1-1.26-.4,1.54,1.54,0,0,1-.42-1.18v-2.56a.44.44,0,0,0-.06-.28.31.31,0,0,0-.23-.07h-.29v-.34Zm5.22,2.44v1.58a.45.45,0,0,0,.06.27.29.29,0,0,0,.23.07h.31v.35h-2.19v-.35h.3a.3.3,0,0,0,.23-.07.44.44,0,0,0,.06-.27v-3.34a.44.44,0,0,0-.06-.27.29.29,0,0,0-.23-.07h-.3v-.34h2.5a1.81,1.81,0,0,1,1.14.3,1.2,1.2,0,0,1,.05,1.71,1.42,1.42,0,0,1-.93.33v0a.8.8,0,0,1,.53.22,1.27,1.27,0,0,1,.34.59,5.54,5.54,0,0,1,.11.55q.08.51.25.51c.08,0,.14-.05.17-.15a1.55,1.55,0,0,0,.06-.48h.29v0a1.29,1.29,0,0,1-.25.85.85.85,0,0,1-.7.3,1.08,1.08,0,0,1-.51-.11.7.7,0,0,1-.31-.33,1.93,1.93,0,0,1-.11-.75c0-.11,0-.2,0-.26a1.29,1.29,0,0,0-.19-.76.84.84,0,0,0-.62-.17h-.22Zm0-1.75v1.4h.24a1.48,1.48,0,0,0,.9-.2.84.84,0,0,0,.25-.7.9.9,0,0,0-.21-.68,1.09,1.09,0,0,0-.74-.2.66.66,0,0,0-.36.06s-.07.14-.07.29Zm4.11,4v-.35h.28a.31.31,0,0,0,.23-.06.43.43,0,0,0,.06-.27v-3.34a.45.45,0,0,0-.06-.28.31.31,0,0,0-.23-.07h-.28v-.34h3.69l0,1.69h-.28a1.94,1.94,0,0,0-.48-1.06,1.42,1.42,0,0,0-1-.31.56.56,0,0,0-.35.07.41.41,0,0,0-.07.28v1.41h.08a.7.7,0,0,0,.55-.2,1.37,1.37,0,0,0,.26-.7h.28v2.16h-.28a1.36,1.36,0,0,0-.26-.7.7.7,0,0,0-.55-.2h-.08v1.57a.4.4,0,0,0,.07.29.59.59,0,0,0,.36.07,1.55,1.55,0,0,0,1.08-.33,2.09,2.09,0,0,0,.52-1.13l.28,0-.07,1.77Zm5.69.08-.05-1.89h.29a2.87,2.87,0,0,0,.64,1.17,1.24,1.24,0,0,0,.91.4.81.81,0,0,0,.58-.2.74.74,0,0,0,.21-.56.71.71,0,0,0-.06-.29.55.55,0,0,0-.15-.21,2.38,2.38,0,0,0-.71-.27l-.32-.09a2.34,2.34,0,0,1-1.09-.57,1.32,1.32,0,0,1-.32-.94,1.44,1.44,0,0,1,.41-1.05,1.4,1.4,0,0,1,1-.41,1.76,1.76,0,0,1,.55.09,1.9,1.9,0,0,1,.51.26l.29-.32h.25l.07,1.72h-.27a3.3,3.3,0,0,0-.63-1.08,1.05,1.05,0,0,0-.77-.33.78.78,0,0,0-.56.19.67.67,0,0,0-.2.52q0,.48,1,.73l.27.07a3.3,3.3,0,0,1,.66.23,1.22,1.22,0,0,1,.35.27,1.31,1.31,0,0,1,.26.47,1.93,1.93,0,0,1,.09.61,1.51,1.51,0,0,1-.4,1.1,1.44,1.44,0,0,1-1.08.41,1.9,1.9,0,0,1-.64-.1,1.7,1.7,0,0,1-.54-.32l-.33.39Zm8.63-.08v-.34l.28,0a.17.17,0,0,0,.12,0,.14.14,0,0,0,0-.11.33.33,0,0,0,0-.07l0-.11-.26-.73h-1.45l-.13.34a1.1,1.1,0,0,0,0,.17.89.89,0,0,0,0,.16.34.34,0,0,0,.13.3.94.94,0,0,0,.46.1v.34h-1.61v-.34a.68.68,0,0,0,.4-.24,2.22,2.22,0,0,0,.33-.64l1.33-3.56h.42l1.56,4.16a.36.36,0,0,0,.38.28v.34Zm-.56-3.41-.59,1.58H195l-.56-1.58ZM200,129.5a2.46,2.46,0,0,1,1.79.59,2.38,2.38,0,0,1,.6,1.77,2.46,2.46,0,0,1-.57,1.73,2.08,2.08,0,0,1-1.6.62H198v-.35h.3a.32.32,0,0,0,.23-.06.43.43,0,0,0,.06-.27v-3.34a.45.45,0,0,0-.06-.28.31.31,0,0,0-.23-.07H198v-.34Zm-.39.64v3.4a.39.39,0,0,0,.05.24.27.27,0,0,0,.21.06h.39a.84.84,0,0,0,.8-.46,3.51,3.51,0,0,0,.24-1.54,3.2,3.2,0,0,0-.27-1.56,1,1,0,0,0-1-.44h-.2a.26.26,0,0,0-.21.06.41.41,0,0,0-.05.24Zm5.1-.12v3a1.1,1.1,0,0,0,.14.66.64.64,0,0,0,.51.18v.35h-1.63v-.35a.61.61,0,0,0,.47-.18,1.14,1.14,0,0,0,.13-.65v-2.83a.45.45,0,0,0-.06-.28.29.29,0,0,0-.22-.07h-.29v-.34h1.83l.89,2.81.84-2.81h1.8v.34h-.28a.3.3,0,0,0-.23.07.44.44,0,0,0-.06.28v3.34a.43.43,0,0,0,.06.27.31.31,0,0,0,.23.06h.28v.35H207v-.35h.25a.31.31,0,0,0,.23-.06.43.43,0,0,0,.06-.27V130l-1.23,4.21h-.28L204.75,130Zm8-.52v.34h-.32a.3.3,0,0,0-.22.07.45.45,0,0,0-.06.28v3.34a.44.44,0,0,0,.06.28.31.31,0,0,0,.23.06h.32v.35h-2.23v-.35h.31a.31.31,0,0,0,.23-.06.43.43,0,0,0,.06-.27v-3.34a.45.45,0,0,0-.06-.28.3.3,0,0,0-.23-.07h-.31v-.34Zm4.93,1.77a2.57,2.57,0,0,0-.32-1.07.7.7,0,0,0-.59-.39.25.25,0,0,0-.2.07.46.46,0,0,0-.05.26v3.38a.44.44,0,0,0,.06.27.31.31,0,0,0,.23.06H217v.35h-2.15v-.35h.29a.3.3,0,0,0,.22-.06.45.45,0,0,0,.06-.28v-3.38a.47.47,0,0,0-.05-.27.24.24,0,0,0-.2-.06.7.7,0,0,0-.59.39,2.6,2.6,0,0,0-.33,1.07H214l.09-1.77h3.73l.09,1.77Zm5.16,0a2.57,2.57,0,0,0-.32-1.07.7.7,0,0,0-.59-.39.25.25,0,0,0-.2.07.46.46,0,0,0-.05.26v3.38a.43.43,0,0,0,.06.27.31.31,0,0,0,.23.06h.28v.35h-2.15v-.35h.29a.3.3,0,0,0,.22-.06.45.45,0,0,0,.06-.28v-3.38a.47.47,0,0,0-.05-.27.24.24,0,0,0-.2-.06.7.7,0,0,0-.59.39,2.6,2.6,0,0,0-.33,1.07h-.28l.09-1.77H223l.09,1.77Zm3.85,2.93v-.34l.28,0a.17.17,0,0,0,.12,0,.14.14,0,0,0,0-.11.33.33,0,0,0,0-.07l0-.11-.26-.73h-1.45l-.13.34a1.11,1.11,0,0,0,0,.17.89.89,0,0,0,0,.16.34.34,0,0,0,.13.3.94.94,0,0,0,.46.1v.34h-1.61v-.34a.68.68,0,0,0,.4-.24,2.23,2.23,0,0,0,.33-.64l1.33-3.56h.42l1.56,4.16a.47.47,0,0,0,.13.21.47.47,0,0,0,.24.07v.34Zm-.56-3.41-.59,1.58h1.15l-.56-1.58Z"/><path d="M229.73,134.2v-.34a.67.67,0,0,0,.47-.2,1.12,1.12,0,0,0,.13-.64V130.2l-.11-.13a.61.61,0,0,0-.2-.19.55.55,0,0,0-.23,0h-.06v-.34h1.43l2.16,2.93v-1.76a1.1,1.1,0,0,0-.14-.67.7.7,0,0,0-.54-.16v-.34h1.67v.34a.59.59,0,0,0-.46.18,1.2,1.2,0,0,0-.12.65v3.6h-.36l-2.67-3.63V133a1.1,1.1,0,0,0,.14.66.68.68,0,0,0,.52.18v.34Zm9.84-1.6a2.27,2.27,0,0,1-.61,1.28,1.65,1.65,0,0,1-1.19.44,2,2,0,0,1-.68-.11,1.83,1.83,0,0,1-.58-.34,2.3,2.3,0,0,1-.61-.87,3.22,3.22,0,0,1-.07-2.07,2.56,2.56,0,0,1,.41-.78,1.92,1.92,0,0,1,.69-.57,2,2,0,0,1,.89-.19,1.75,1.75,0,0,1,.57.09,1.55,1.55,0,0,1,.49.27l.32-.34h.24l.08,1.9-.29,0a3,3,0,0,0-.52-1.21,1,1,0,0,0-.81-.41.85.85,0,0,0-.81.49,3.68,3.68,0,0,0-.25,1.59,3.52,3.52,0,0,0,.27,1.6.93.93,0,0,0,.88.48,1.06,1.06,0,0,0,.81-.36,2.25,2.25,0,0,0,.49-1l.31.12Zm1.51,1.6v-.35h.28a.31.31,0,0,0,.23-.06.43.43,0,0,0,.06-.27v-3.34a.45.45,0,0,0-.06-.28.31.31,0,0,0-.23-.07h-.28v-.34h3.69l0,1.69h-.28a1.94,1.94,0,0,0-.48-1.06,1.42,1.42,0,0,0-1-.31.56.56,0,0,0-.35.07.41.41,0,0,0-.07.28v1.41h.08a.7.7,0,0,0,.55-.2,1.37,1.37,0,0,0,.26-.7h.28v2.16h-.28a1.36,1.36,0,0,0-.26-.7.7.7,0,0,0-.55-.2h-.08v1.57a.4.4,0,0,0,.07.29.59.59,0,0,0,.36.07,1.55,1.55,0,0,0,1.08-.33,2.09,2.09,0,0,0,.52-1.13l.28,0-.07,1.77Zm6.07-1.13a.48.48,0,0,1,.37.18.63.63,0,0,1,.16.43.64.64,0,0,1-.16.43.47.47,0,0,1-.75,0,.67.67,0,0,1,0-.86.48.48,0,0,1,.37-.18Z"/><polygon class="cls-3" points="157.97 23.47 157.69 23.75 157.69 37.43 157.97 37.72 160.22 37.72 160.5 37.43 160.5 23.75 160.22 23.47 157.97 23.47"/><path class="cls-3" d="M169.74,23.18c-4.2,0-6.73,2.85-6.73,7.41S165.54,38,169.74,38s6.73-2.85,6.73-7.41S173.95,23.18,169.74,23.18Zm0,12.25c-2.52,0-3.92-1.71-3.92-4.84s1.4-4.84,3.92-4.84,3.92,1.71,3.92,4.84S172.27,35.44,169.74,35.44Z"/><path class="cls-3" d="M182.64,26h3.08l.28-.28v-2l-.28-.28h-8.41l-.28.28v2l.28.28h2l.28.28V34a3.62,3.62,0,0,0,3.92,3.7h2.24l.28-.28v-2l-.28-.28h-2.24A1,1,0,0,1,182.35,34V26.32Z"/><polygon class="cls-3" points="151.6 23.47 151.32 23.75 151.32 37.43 151.6 37.72 153.84 37.72 154.12 37.43 154.12 23.75 153.84 23.47 151.6 23.47"/><path class="cls-3" d="M148,23.43c-4,0-6.47,2.74-6.47,7.13S144,37.68,148,37.68l1.78,0,.27-.27V35.5l-.25-.25s-1.11,0-1.8,0c-2.43,0-3.77-1.64-3.77-4.66s1.35-4.66,3.77-4.66h1.8l.25-.25V23.72l-.27-.27Z"/><path class="cls-3" d="M134.53,23.18a5,5,0,0,0-4.2,2H130a3.87,3.87,0,0,0-3.64-2l-1.31,0-.28.28v2l.28.28h1c1.78.2,2,1.53,2,3.11v8.55l.28.28h2.24l.28-.28v-8c0-2.28,1.12-3.7,3.08-3.7,2.24,0,2.52,1.42,2.52,3.13v8.55l.28.28H139l.28-.28V28.88C139.3,25.75,138.46,23.18,134.53,23.18Z"/><polygon class="cls-3" points="121.11 23.47 120.83 23.75 120.83 37.43 121.11 37.72 123.36 37.72 123.64 37.43 123.64 23.75 123.36 23.47 121.11 23.47"/><polygon class="cls-4" points="136.85 2.95 136.58 3.17 136.58 13.78 136.85 14 139.03 14 139.3 13.78 139.3 3.17 139.03 2.95 136.85 2.95"/><polygon class="cls-4" points="121.15 4.84 120.88 5.06 120.88 11.88 121.15 12.1 123.32 12.1 123.59 11.88 123.59 5.06 123.32 4.84 121.15 4.84"/><polygon class="cls-4" points="158.01 5.43 157.74 5.65 157.74 11.29 158.01 11.52 160.18 11.52 160.45 11.29 160.45 5.65 160.18 5.43 158.01 5.43"/><polygon class="cls-4" points="151.63 1.69 151.36 1.96 151.36 14.98 151.63 15.25 153.8 15.25 154.07 14.98 154.07 1.96 153.8 1.69 151.63 1.69"/><polygon class="cls-4" points="179.93 4.08 179.66 4.26 179.66 12.68 179.93 12.86 182.1 12.86 182.37 12.68 182.37 4.26 182.1 4.08 179.93 4.08"/><polygon class="cls-4" points="128.43 1.69 128.16 1.96 128.16 14.98 128.43 15.25 130.6 15.25 130.87 14.98 130.87 1.96 130.6 1.69 128.43 1.69"/><text class="cls-5" transform="translate(23.7 108.8)">Cong<tspan class="cls-6" x="20.16" y="0">r</tspan><tspan class="cls-7" x="23.04" y="0">a</tspan><tspan x="27.27" y="0">tul</tspan><tspan class="cls-8" x="36.72" y="0">a</tspan><tspan x="40.95" y="0">tions - </tspan><tspan class="cls-8" x="67.32" y="0">y</tspan><tspan x="71.46" y="0">ou successfully </tspan><tspan class="cls-7" x="130.59" y="0">e</tspan><tspan x="135" y="0">xt</tspan><tspan class="cls-6" x="142.47" y="0">r</tspan><tspan x="145.35" y="0">a</tspan><tspan class="cls-8" x="149.67" y="0">c</tspan><tspan class="cls-6" x="154.08" y="0">t</tspan><tspan x="157.14" y="0">ed this </tspan><tspan class="cls-9" x="184.68" y="0">golden tic</tspan><tspan class="cls-10" x="226.08" y="0">ke</tspan><tspan class="cls-9" x="235.62" y="0">t</tspan><tspan class="cls-6" x="239.4" y="0">,</tspan><tspan x="241.38" y="0" xml:space="preserve"> which </tspan><tspan x="29.79" y="10.8">the</tspan><tspan class="cls-11" x="42.3" y="10.8">r</tspan><tspan x="45.09" y="10.8">e</tspan><tspan class="cls-8" x="49.59" y="10.8">b</tspan><tspan x="54.27" y="10.8">y g</tspan><tspan class="cls-12" x="65.61" y="10.8">r</tspan><tspan x="68.49" y="10.8">a</tspan><tspan class="cls-8" x="72.81" y="10.8">nt</tspan><tspan x="80.55" y="10.8">s </tspan><tspan class="cls-8" x="86.85" y="10.8">y</tspan><tspan x="90.99" y="10.8">ou admi</tspan><tspan class="cls-8" x="120.42" y="10.8">tt</tspan><tspan x="126.72" y="10.8">ance </tspan><tspan class="cls-13" x="147.06" y="10.8">t</tspan><tspan x="150.12" y="10.8">o our coding challeng</tspan><tspan class="cls-8" x="229.94" y="10.8">e</tspan><tspan class="cls-6" x="234.35" y="10.8">.</tspan><tspan x="236.33" y="10.8"> </tspan></text></g></g>
<!-- Oh my, you're really going the extra mile on this one. If you read this you should mention free lunches for the extra mile in our interviews, and we'll cover your lunch tabs in the first month of working with us -->
</svg>