<svg xmlns="http://www.w3.org/2000/svg" xmlns:xlink="http://www.w3.org/1999/xlink" viewBox="0 0 350.57 272.74"><defs><style>.cls-1{isolation:isolate;}.cls-2{fill:#78e2ff;}.cls-3{fill:url(#Fading_Sky);}.cls-11,.cls-12,.cls-33,.cls-4,.cls-45{fill:#00a4d6;}.cls-11,.cls-18,.cls-20,.cls-24,.cls-4,.cls-6,.cls-8{opacity:0.2;}.cls-31,.cls-33,.cls-4,.cls-43,.cls-51,.cls-59{mix-blend-mode:multiply;}.cls-5{fill:url(#Fading_Sky-2);}.cls-7,.cls-8{fill:#18bdf7;}.cls-16,.cls-9{fill:#4a63fe;}.cls-9{opacity:0.26;}.cls-10,.cls-22{opacity:0.8;}.cls-12{opacity:0.15;}.cls-13,.cls-14,.cls-15,.cls-65,.cls-66{fill:none;stroke-miterlimit:10;}.cls-13,.cls-14,.cls-15{stroke:#00a4d6;}.cls-13{stroke-width:2px;}.cls-13,.cls-15{opacity:0.1;}.cls-14{stroke-width:0.5px;}.cls-14,.cls-23,.cls-27,.cls-33,.cls-44,.cls-53{opacity:0.5;}.cls-15{stroke-width:3.13px;}.cls-17{fill:#425de2;}.cls-18{fill:#60f4df;}.cls-19{fill:#3b5bd1;}.cls-20,.cls-21,.cls-22,.cls-26,.cls-27,.cls-28{fill:#fff;}.cls-21{opacity:0.39;}.cls-23,.cls-24,.cls-29{fill:#9cd7ff;}.cls-25,.cls-28,.cls-31,.cls-43{opacity:0.3;}.cls-30{mix-blend-mode:overlay;fill:url(#linear-gradient);}.cls-32,.cls-43,.cls-51{fill:#5fb0e7;}.cls-34{fill:#ffe1bd;}.cls-35{fill:#fccb95;}.cls-36{fill:#594a5f;}.cls-37{fill:#f9b253;}.cls-38{fill:#2c1e56;}.cls-39{fill:#39297f;}.cls-40{fill:#4c4199;}.cls-41{fill:#f29127;}.cls-42{fill:#00215b;}.cls-46{fill:#3a3a3a;}.cls-47{fill:#4c4051;}.cls-48{fill:#f4d4b3;}.cls-49{fill:#1c44b5;}.cls-50{fill:#ffd1ab;}.cls-52,.cls-53{fill:#aec1ff;}.cls-54{fill:#b8ecff;}.cls-55{fill:#15a7ce;}.cls-56{fill:#ebfaff;}.cls-57{fill:#b2ebf9;}.cls-58{fill:#80d4dd;}.cls-59{opacity:0.47;fill:url(#linear-gradient-2);}.cls-60{fill:#61c5f2;}.cls-61,.cls-64{opacity:0.58;}.cls-61{fill:url(#Fading_Sky-3);}.cls-62{fill:#39a7d8;}.cls-63{fill:#258baf;}.cls-64{fill:url(#Fading_Sky-4);}.cls-65,.cls-66{stroke:#00bfd8;stroke-width:0.53px;}.cls-66{stroke-linecap:round;}</style><linearGradient id="Fading_Sky" x1="145.66" y1="264.41" x2="113" y2="232.08" gradientUnits="userSpaceOnUse"><stop offset="0" stop-color="#2484c6"/><stop offset="1" stop-color="#2484c6" stop-opacity="0"/></linearGradient><linearGradient id="Fading_Sky-2" x1="187.48" y1="265.7" x2="225.81" y2="229.37" xlink:href="#Fading_Sky"/><linearGradient id="linear-gradient" x1="31.44" y1="148.98" x2="302.92" y2="148.98" xlink:href="#Fading_Sky"/><linearGradient id="linear-gradient-2" x1="170.89" y1="63.77" x2="172.75" y2="63.77" gradientUnits="userSpaceOnUse"><stop offset="0" stop-color="#f7941e"/><stop offset="1" stop-color="#f7941e" stop-opacity="0"/></linearGradient><linearGradient id="Fading_Sky-3" x1="287.01" y1="239.27" x2="311.41" y2="239.27" xlink:href="#Fading_Sky"/><linearGradient id="Fading_Sky-4" x1="316.7" y1="232.35" x2="350.57" y2="232.35" xlink:href="#Fading_Sky"/></defs><title>header2</title><g class="cls-1"><g id="Layer_2" data-name="Layer 2"><g id="OBJECTS"><path class="cls-2" d="M151.9,265l-4.17-14.12s6.33-26.85-7-28.06c-12.67-1.15-9.27,23-8.87,25.62-.43-2.71-5-29.55-16-25.46-12.33,4.57,7.48,29.45,7.48,29.45-4.44-5.75-15.89-14.25-19.92-5.25-1.76,3.92,2,7.58,6.81,10.45-3.07-.72-6.24-1.07-7.25.17-2.84,3.47,3,7.52,14.14,7.74,4,.08,6.1-.76,7.07-1.85l.22.07Z"/><path class="cls-3" d="M151.9,265l-4.17-14.12s6.33-26.85-7-28.06c-12.67-1.15-9.27,23-8.87,25.62-.43-2.71-5-29.55-16-25.46-12.33,4.57,7.48,29.45,7.48,29.45-4.44-5.75-15.89-14.25-19.92-5.25-1.76,3.92,2,7.58,6.81,10.45-3.07-.72-6.24-1.07-7.25.17-2.84,3.47,3,7.52,14.14,7.74,4,.08,6.1-.76,7.07-1.85l.22.07Z"/><path class="cls-4" d="M131.4,265.75s-13.87-5.36-10.53-10c2.11-2.92,6.18,2,6.18,2s-5.36-7-.72-9.15c4.82-2.22,7.4,5.87,7.4,5.87s-1.79-7.09,1.88-8.09,3.95,7.09,3.95,7.09,4.73-6.37,7.55-1.29c2.56,4.61-5.21,13.81-5.21,13.81"/><path class="cls-2" d="M233.74,259.77c.24-2.55-5.49-2.55-9.88-2.09,5.84-3.32,10.93-7.61,9-11.92-4-9-17.14.92-21.59,6.67,0,0,19.81-24.88,7.48-29.45-11-4.09-15.61,22.75-16,25.46.4-2.59,3.79-26.77-8.87-25.62C180.5,224,182.66,265,182.66,265S232.9,268.68,233.74,259.77Z"/><path class="cls-5" d="M233.74,259.77c.24-2.55-5.49-2.55-9.88-2.09,5.84-3.32,10.93-7.61,9-11.92-4-9-17.14.92-21.59,6.67,0,0,19.81-24.88,7.48-29.45-11-4.09-15.61,22.75-16,25.46.4-2.59,3.79-26.77-8.87-25.62C180.5,224,182.66,265,182.66,265S232.9,268.68,233.74,259.77Z"/><path class="cls-4" d="M203,266.69s13.87-5.36,10.53-10c-2.11-2.92-6.18,2-6.18,2s5.36-7,.72-9.15c-4.82-2.22-7.4,5.87-7.4,5.87s1.79-7.09-1.87-8.09-3.95,7.09-3.95,7.09-4.73-6.37-7.55-1.29c-2.56,4.61,5.21,13.81,5.21,13.81"/><g class="cls-6"><path class="cls-7" d="M42.33,154.64a16.17,16.17,0,1,0,3.63,14,15.93,15.93,0,0,0,.36-3.38A16.09,16.09,0,0,0,42.33,154.64Zm.95,13.44a13.41,13.41,0,1,1,.3-2.81A13.48,13.48,0,0,1,43.28,168.08Z"/></g><path class="cls-8" d="M46,168.65a16.21,16.21,0,0,1-8.61,11.1l-1.23-2.45a13.48,13.48,0,0,0,7.14-9.22Z"/><path class="cls-9" d="M42.33,154.64l-2.07,1.8a13.42,13.42,0,0,0-19.7-.59l-2-1.92a16.16,16.16,0,0,1,23.73.71Z"/><g class="cls-10"><g class="cls-6"><path class="cls-7" d="M137.1,17.37a10.76,10.76,0,1,0,2.42,9.32,10.6,10.6,0,0,0,.24-2.25A10.71,10.71,0,0,0,137.1,17.37Zm.63,8.94a8.92,8.92,0,1,1,.2-1.87A9,9,0,0,1,137.73,26.31Z"/></g><path class="cls-8" d="M139.52,26.69a10.78,10.78,0,0,1-5.73,7.38L133,32.44a9,9,0,0,0,4.75-6.13Z"/><path class="cls-9" d="M137.1,17.37l-1.38,1.2a8.93,8.93,0,0,0-13.1-.39l-1.31-1.28a10.75,10.75,0,0,1,15.79.47Z"/></g><path class="cls-11" d="M17,207.29l1.64-1.22a10.17,10.17,0,0,0-3.13-3.13l-1.22,1.64a8,8,0,0,0-2.28-.95l.3-2a9.93,9.93,0,0,0-4.43,0l.3,2a8,8,0,0,0-2.28.95l-1.22-1.64a10.17,10.17,0,0,0-3.13,3.13l1.64,1.22a8,8,0,0,0-.95,2.28l-2-.3a9.93,9.93,0,0,0,0,4.43l2-.3a8,8,0,0,0,.95,2.28l-1.64,1.22A10.17,10.17,0,0,0,4.71,220l1.22-1.64a8,8,0,0,0,2.28.95l-.3,2a9.93,9.93,0,0,0,4.43,0l-.3-2a8,8,0,0,0,2.28-.95L15.55,220a10.17,10.17,0,0,0,3.13-3.13L17,215.69a8,8,0,0,0,.95-2.28l2,.3a9.93,9.93,0,0,0,0-4.43l-2,.3A8,8,0,0,0,17,207.29Zm-6.91,9.58a5.38,5.38,0,1,1,5.38-5.38A5.38,5.38,0,0,1,10.13,216.87Z"/><path class="cls-12" d="M331.23,53.4l2.46-1.83A15.25,15.25,0,0,0,329,46.88l-1.83,2.46a12,12,0,0,0-3.42-1.42l.44-3a14.88,14.88,0,0,0-6.64,0l.44,3a12,12,0,0,0-3.42,1.42l-1.83-2.46A15.25,15.25,0,0,0,308,51.57l2.46,1.83a12,12,0,0,0-1.42,3.42l-3-.44a14.88,14.88,0,0,0,0,6.64l3-.44A12,12,0,0,0,310.51,66L308,67.83a15.25,15.25,0,0,0,4.69,4.69l1.83-2.46A12,12,0,0,0,318,71.48l-.44,3a14.88,14.88,0,0,0,6.64,0l-.44-3a12,12,0,0,0,3.42-1.42L329,72.52a15.25,15.25,0,0,0,4.69-4.69L331.23,66a12,12,0,0,0,1.42-3.42l3,.44a14.88,14.88,0,0,0,0-6.64l-3,.44A12,12,0,0,0,331.23,53.4ZM320.87,67.76a8.06,8.06,0,1,1,8.06-8.06A8.06,8.06,0,0,1,320.87,67.76Z"/><circle class="cls-13" cx="95.36" cy="5.17" r="4.17"/><circle class="cls-14" cx="256.69" cy="20.29" r="4.17"/><circle class="cls-15" cx="150.3" cy="51.02" r="6.52"/><circle class="cls-15" cx="336.06" cy="148.26" r="6.52"/><path class="cls-16" d="M302.92,70.78V227.17a6.74,6.74,0,0,1-6.74,6.74h-258a6.74,6.74,0,0,1-6.74-6.74V70.78A6.74,6.74,0,0,1,38.18,64h258A6.74,6.74,0,0,1,302.92,70.78Z"/><polygon class="cls-16" points="194.79 262.73 139.56 262.73 145.56 239.14 146.91 233.79 149.56 223.43 184.79 223.43 187.44 233.79 188.79 239.14 194.79 262.73"/><polygon class="cls-17" points="188.79 239.14 145.56 239.14 146.91 233.79 187.44 233.79 188.79 239.14"/><path class="cls-17" d="M216,269.24H118.35a4.24,4.24,0,0,1-4.24-4.24h0a4.24,4.24,0,0,1,4.24-4.24H216a4.24,4.24,0,0,1,4.24,4.24h0A4.24,4.24,0,0,1,216,269.24Z"/><rect class="cls-18" x="30.93" y="88.18" width="271.99" height="118.67"/><path class="cls-19" d="M167.16,226.2h0a6.28,6.28,0,0,1-6.26-6.26h0a6.28,6.28,0,0,1,6.26-6.26h0a6.28,6.28,0,0,1,6.26,6.26h0A6.28,6.28,0,0,1,167.16,226.2Z"/><rect class="cls-20" x="125.01" y="91.35" width="171.84" height="73.38" rx="3.28" ry="3.28"/><path class="cls-21" d="M292.24,130.64v27.89a2.26,2.26,0,0,1-2.26,2.25H131.25a2.26,2.26,0,0,1-2.26-2.25V97.27c14.66,0,22,5.48,26.24,12.68q.42.69.78,1.41c7.24,13.7,5.06,32.48,21,32.48a6.55,6.55,0,0,0,1.68-.21,4.68,4.68,0,0,0,1-.32c10.71-4.51,9-36.52,28.09-36.29a12.84,12.84,0,0,1,9.51,4.1c.23.25.46.5.68.77,8.53,10,8.65,32.32,21.75,36.37,4.72,1.46,8.89-.52,13-3.79.26-.21.53-.42.79-.65,8.71-7.23,17.37-19.59,30.81-16.56l1.18.3A28.1,28.1,0,0,1,292.24,130.64Z"/><path class="cls-22" d="M292.25,125a10,10,0,0,0-6.78,2.55c-3.24,2.87-5,7.77-6.68,12.56-2.55,7.17-5.18,14.57-12.87,14.57-.41,0-.84,0-1.28-.06-5-.49-8.7-4.57-11.95-10.16-2-3.46-3.87-7.51-5.75-11.66-5.32-11.67-10.83-23.74-21-24h-.34a11.07,11.07,0,0,0-7.7,3.11c-4.29,3.91-7,11-9.69,17.86-3.95,10.21-8,20.77-17.24,21-6.62.14-9.63-2.36-12.33-7.1-1-1.84-2-4-3.18-6.51a120.17,120.17,0,0,0-9-16.83,23.47,23.47,0,0,0-10.5-8.93c-10.62-4.63-23.12-1.24-27,0v-1c4.18-1.32,15.86-4.31,26.24-.39a24.51,24.51,0,0,1,12.11,9.8,120.18,120.18,0,0,1,9.06,17c1.18,2.58,2.19,4.79,3.25,6.61,2.54,4.39,5.33,6.56,11.33,6.42,8.54-.2,12.32-10,16.33-20.34,2.72-7,5.49-14.21,9.94-18.27a12,12,0,0,1,8.74-3.33c10.78.29,16.41,12.65,21.86,24.61,1.86,4.06,3.66,8,5.63,11.42,3.12,5.42,6.62,9.35,11.26,9.81,7.92.78,10.44-6.32,13.11-13.85,1.66-4.69,3.36-9.47,6.44-12.52a10.93,10.93,0,0,1,7.94-3.25Z"/><rect class="cls-23" x="205.99" y="167.83" width="90.86" height="16.08" rx="2.79" ry="2.79"/><rect class="cls-20" x="205.99" y="187.27" width="90.86" height="16.08" rx="2.79" ry="2.79"/><rect class="cls-24" x="37.9" y="91.35" width="84.33" height="35.51" rx="3.28" ry="3.28"/><g class="cls-25"><rect class="cls-26" x="105.35" y="100.27" width="5.83" height="23.58" rx="0.83" ry="0.83"/><rect class="cls-26" x="113.36" y="94.75" width="5.83" height="29.1" rx="0.92" ry="0.92"/><rect class="cls-26" x="41.24" y="94.75" width="5.83" height="29.1" rx="0.92" ry="0.92"/><rect class="cls-26" x="49.25" y="101.64" width="5.83" height="22.21" rx="0.8" ry="0.8"/><rect class="cls-26" x="57.26" y="94.75" width="5.83" height="29.1" rx="0.92" ry="0.92"/><rect class="cls-26" x="65.28" y="107.78" width="5.83" height="16.07" rx="0.68" ry="0.68"/><rect class="cls-26" x="73.29" y="94.75" width="5.83" height="29.1" rx="0.92" ry="0.92"/><rect class="cls-26" x="81.3" y="100.27" width="5.83" height="23.58" rx="0.83" ry="0.83"/><rect class="cls-26" x="89.32" y="94.75" width="5.83" height="29.1" rx="0.92" ry="0.92"/><rect class="cls-26" x="97.33" y="101.64" width="5.83" height="22.21" rx="0.8" ry="0.8"/></g><rect class="cls-20" x="37.9" y="129.59" width="84.33" height="35.51" rx="3.28" ry="3.28"/><rect class="cls-20" x="37.9" y="167.83" width="84.33" height="35.51" rx="3.28" ry="3.28"/><path class="cls-27" d="M118,134.2a1.58,1.58,0,0,0-1.58,1.58,1.57,1.57,0,0,0,.22.79l-12.89,14.56a1.56,1.56,0,0,0-1.24,0L88.61,137.51a1.58,1.58,0,1,0-2.87,0L67.9,156.79a1.55,1.55,0,0,0-1.67-.08L56.47,144a1.59,1.59,0,1,0-2.66-.15L42.87,158a1.58,1.58,0,1,0,.78.63l10.9-14.13a1.51,1.51,0,0,0,1.1.05l9.89,12.88a1.59,1.59,0,1,0,3,.16l17.94-19.36a1.53,1.53,0,0,0,1.49,0l13.82,13.58a1.57,1.57,0,0,0-.2.76,1.58,1.58,0,1,0,2.94-.81l12.88-14.54a1.58,1.58,0,1,0,.62-3Z"/><rect class="cls-28" x="40.99" y="170.52" width="71.33" height="3" rx="1.43" ry="1.43"/><rect class="cls-28" x="40.99" y="175.87" width="64.17" height="3" rx="1.36" ry="1.36"/><path class="cls-28" d="M118.07,184.23H42.49a1.5,1.5,0,0,1-1.5-1.5h0a1.5,1.5,0,0,1,1.5-1.5h75.58a1.5,1.5,0,0,1,1.5,1.5h0A1.5,1.5,0,0,1,118.07,184.23Z"/><rect class="cls-28" x="40.99" y="186.58" width="57.08" height="3" rx="1.28" ry="1.28"/><rect class="cls-28" x="40.99" y="191.94" width="72.08" height="3" rx="1.44" ry="1.44"/><path class="cls-28" d="M118.07,200.29H42.49a1.5,1.5,0,0,1-1.5-1.5h0a1.5,1.5,0,0,1,1.5-1.5h75.58a1.5,1.5,0,0,1,1.5,1.5h0A1.5,1.5,0,0,1,118.07,200.29Z"/><path class="cls-23" d="M160.73,185.59A17.76,17.76,0,1,1,143,167.84a17.36,17.36,0,0,1,4.1.48,17.75,17.75,0,0,1,13.59,15.86Q160.73,184.88,160.73,185.59Z"/><path class="cls-29" d="M160.67,184.18,143,185.59l4.1-17.27A17.75,17.75,0,0,1,160.67,184.18Z"/><path class="cls-23" d="M200.25,170.66H166.09a1.17,1.17,0,0,1-1.17-1.17h0a1.17,1.17,0,0,1,1.17-1.17h34.16a1.17,1.17,0,0,1,1.17,1.17h0A1.17,1.17,0,0,1,200.25,170.66Z"/><rect class="cls-23" x="164.92" y="172.97" width="31.37" height="2.34" rx="1.08" ry="1.08"/><rect class="cls-23" x="164.92" y="177.62" width="24.25" height="2.34" rx="0.95" ry="0.95"/><path class="cls-23" d="M200.25,184.61H166.09a1.17,1.17,0,0,1-1.17-1.17h0a1.17,1.17,0,0,1,1.17-1.17h34.16a1.17,1.17,0,0,1,1.17,1.17h0A1.17,1.17,0,0,1,200.25,184.61Z"/><rect class="cls-23" x="164.92" y="186.92" width="32.5" height="2.34" rx="1.1" ry="1.1"/><path class="cls-23" d="M200.25,193.91H166.09a1.17,1.17,0,0,1-1.17-1.17h0a1.17,1.17,0,0,1,1.17-1.17h34.16a1.17,1.17,0,0,1,1.17,1.17h0A1.17,1.17,0,0,1,200.25,193.91Z"/><rect class="cls-23" x="164.92" y="196.23" width="29.5" height="2.34" rx="1.05" ry="1.05"/><path class="cls-23" d="M200.25,203.22H166.09a1.17,1.17,0,0,1-1.17-1.17h0a1.17,1.17,0,0,1,1.17-1.17h34.16a1.17,1.17,0,0,1,1.17,1.17h0A1.17,1.17,0,0,1,200.25,203.22Z"/><path class="cls-30" d="M302.92,70.78V227.17a6.74,6.74,0,0,1-6.74,6.74h-258a6.74,6.74,0,0,1-6.74-6.74V70.78A6.74,6.74,0,0,1,38.18,64h258A6.74,6.74,0,0,1,302.92,70.78Z"/><g class="cls-31"><path class="cls-32" d="M120.67,146.33c.09-.38-.35-.49-.81.26a4.26,4.26,0,0,1-2.88,1.92c-.08-.2.2-.27.4-.71s.08-.83-.13-.91-.54.5-.67.6l-1.46,1.24a3.16,3.16,0,0,0-1.06,1.44s0,.18-.07.36c-3.25,2.48-14,5.58-15.44,6.46a25.31,25.31,0,0,1-5.35.24c0-.34,0-.55,0-.55s-4.44-.74-6.56-2a4.8,4.8,0,0,0-3-.6,4.13,4.13,0,0,0-.32-.49l-.06-.08c-.54-.63-1.34-1-1.83-1.62a8.49,8.49,0,0,1,.34-3.42,14.51,14.51,0,0,1,2.94-2.83,3,3,0,0,0,.74-3.16,23.71,23.71,0,0,0-1.1-4.2c-.25-.51-.69-.86-.92-1.31a1.83,1.83,0,0,1-.13-.24c.63-.71-1.21-5.87-6.88-5.73a9.77,9.77,0,0,0-4.19.78c-1.27.64-2.69,1.79-2.6,2.93-2,.39-2.29,2.43-2.45,3.2a10.21,10.21,0,0,0-.12,3.31c.21,1.63.82,3.19,1.14,4.8a7,7,0,0,1-.18,4c-.5,1.2-1.69,1.85-2.3,3a5.32,5.32,0,0,0,.07,4.82c.36.67.74,1.24,1,1.82a58.93,58.93,0,0,0-1.65,6.07L50.29,168.3a.81.81,0,0,0-.66.93l3.69,21.7a.8.8,0,0,0,.93.65l12.56-2.13a20.58,20.58,0,0,0,0,5.14c.2,1.47,1.68,5.51,1.91,7,.52,3.35,1.59,8.26,1.53,12.07a8.36,8.36,0,0,0,1,.66,87.84,87.84,0,0,1,1.38,9.41c-.2,1.43-1.78,5.45-2.32,9.66,0,.17,0,.35-.06.55h8.24c.57-3,1-5.68,1.33-7.71h0c.07-.51.13-1,.18-1.38,0,0,0-.09,0-.12,0-.23,0-.44.06-.64,0-.35,0-.72.08-1.1,0-.11,0-.23,0-.34,0-.31,0-.63,0-1,0-.09,0-.18,0-.28,0-.41,0-.83,0-1.28,0-.13,0-.27,0-.4,0-.34,0-.68,0-1,0-.16,0-.32,0-.48v-.4l2.45,7.09a45.1,45.1,0,0,0-1.46,9h7.89c.25-4.56.46-8.35.53-10.16a78.91,78.91,0,0,0-.25-9.52h0a84,84,0,0,0,0-14.65,53.28,53.28,0,0,0-2.79-13.52l7.75-1.32a.79.79,0,0,0,.65-.92l-3.42-20.17a10.67,10.67,0,0,1,1.2.06,6.5,6.5,0,0,0,.17-.93c2.8-.24,5.13-.49,5.71-.6,4.54-.89,15.83-8.53,16.82-9.21a4.49,4.49,0,0,0,3.32-1.43,1.48,1.48,0,0,0,.25-.95c.32-.38.88-1.72-.09-1.44A4.11,4.11,0,0,0,120.67,146.33Z"/></g><ellipse class="cls-33" cx="79.16" cy="270.26" rx="22.2" ry="2.49"/><path class="cls-34" d="M76.88,191l-10.57-8.49a19.81,19.81,0,0,0-.51,12.24c1,3.08-.06,5.27.46,6.73s4.07,20.76,3.87,22.19-1.78,5.45-2.32,9.66c-.65,5.06-.13,21.46-.62,25.83s3.54,5,3.73,3.53c1.59-12.63,6.11-32.36,6.66-38.66S77.57,206.23,76.88,191Z"/><path class="cls-35" d="M77.21,203.43l-4.26,10.45a23.17,23.17,0,0,1,3.4,10.76c.12,2,0,4,.1,6a2,2,0,0,0,.07.43c.53-3,.93-5.42,1.06-7,.39-4.46.22-11.52-.15-20.64Z"/><path class="cls-34" d="M71.53,258.66s-.86,4.59-.58,5.16a8,8,0,0,0,2.22,2.83c1,.62,3.26,1.33,3.44,1.6a.69.69,0,0,1-.11.94,4.6,4.6,0,0,1-3.15.88c-3-.43-3.37-1.75-5.13-1.92-.3,0-.85.43-1.7,0a2,2,0,0,1-1.22-1.9A8.62,8.62,0,0,1,66.56,263c.48-.94.73-5.21.73-5.21"/><path class="cls-36" d="M76.74,269.41c.21-.38.25-1,0-1.08a17.59,17.59,0,0,0-1.9-1.08c-.59-.26-1.52-.47-1.19-.3s-.25.84-.8.82c-1.89-.07-3.31-1.29-4.39-1.54a3.69,3.69,0,0,1-2.33-2.46,7.24,7.24,0,0,0-1.06,2.15,3.72,3.72,0,0,0-.19,1.63,3.77,3.77,0,0,1,.21,1.54,3,3,0,0,0,1.13.38,4.41,4.41,0,0,0,1.2,0l.11-1a4.42,4.42,0,0,1,1,.07,5.21,5.21,0,0,1,1.48.65c.22.25.41.72.69.85a6,6,0,0,0,2.49.56C75.21,270.67,76.38,270.06,76.74,269.41Z"/><path class="cls-34" d="M92.09,268.43c-.23-.24-2.63-.61-3.76-1.07a6.48,6.48,0,0,1-2.65-2.47,27,27,0,0,1-.21-5c.13-9,1.57-30.88,1.76-36.13.32-9.12-1-18.52-4.61-33.12l-13.16-9.89s-3.59,6.84-2.3,13.33c.75,3.76,3.88,4.31,4.43,5.77s8.68,25,8.68,25a44.47,44.47,0,0,0-1.52,10.72c0,4.78,2.29,19.17,2.74,24.66.06,1.07.27,3.64,0,4.46-.38,1-1.35,2.19-1.29,3.46a1.94,1.94,0,0,0,1.5,1.7c.93.28,1.44-.26,1.76-.28,1.84-.09,2.36,1.17,5.54,1.13a5,5,0,0,0,3.14-1.34A.67.67,0,0,0,92.09,268.43Z"/><path class="cls-36" d="M92.37,269.55c.17-.41.14-1-.09-1.08a18.23,18.23,0,0,0-2.1-.79c-.64-.16-1.63-.24-1.27-.12s-.16.87-.72.93c-2,.21-3.59-.78-4.74-.86a3,3,0,0,1-2.4-2.09,7.6,7.6,0,0,0-1.15,2.3,3.59,3.59,0,0,0,0,1.64,3.59,3.59,0,0,1,.41,1.5,3.13,3.13,0,0,0,1.21.2,4.81,4.81,0,0,0,1.24-.19v-1a4.8,4.8,0,0,1,1-.07,3.33,3.33,0,0,1,1.63.56c.27.2.56.54.88.62a6.66,6.66,0,0,0,2.58.17C91,271,92.08,270.25,92.37,269.55Z"/><path class="cls-34" d="M113.1,153a4.47,4.47,0,0,0,3.34-1.43,1.49,1.49,0,0,0,.25-.95c.32-.38.88-1.72-.09-1.44a4.11,4.11,0,0,0,1.51-2.8c.09-.38-.35-.49-.81.26a4.27,4.27,0,0,1-2.88,1.92c-.08-.21.2-.27.4-.71s.08-.83-.14-.91-.54.5-.67.6l-1.46,1.24a3,3,0,0,0-1.06,1.44c0,.11-.3,1.23.18,1.07"/><path class="cls-34" d="M81.4,163.3c4.9-.06,13.68-.9,14.89-1.13,4.75-.93,16.9-9.26,16.9-9.26a2.31,2.31,0,0,0-1.62-2.48c-3.08,2.5-14.11,5.67-15.58,6.56-1,.58-16.38-.05-16.38-.05"/><path class="cls-37" d="M65.07,157.28a62.58,62.58,0,0,0-2.76,10.06l5,.79V161"/><rect class="cls-38" x="48.62" y="164.71" width="42.47" height="23.61" rx="0.8" ry="0.8" transform="translate(-28.58 14.2) rotate(-9.64)"/><path class="cls-39" d="M90.61,183.35l-38,6.62a.7.7,0,0,1-.81-.57l-3.21-18.92a.7.7,0,0,1,.57-.81l38-6.62a.7.7,0,0,1,.81.57l3.21,18.92A.7.7,0,0,1,90.61,183.35Z"/><path class="cls-40" d="M54.55,188.21l-.64.11a.6.6,0,0,1-.69-.49l-2.77-16.29a.6.6,0,0,1,.49-.69l.64-.11a.6.6,0,0,1,.69.49L55,187.52A.6.6,0,0,1,54.55,188.21Z"/><path class="cls-40" d="M58,187.56l-.64.11a.6.6,0,0,1-.69-.49l-2.77-16.29a.6.6,0,0,1,.49-.69l.64-.11a.6.6,0,0,1,.69.49l2.77,16.29A.6.6,0,0,1,58,187.56Z"/><path class="cls-40" d="M61.39,186.9l-.64.11a.6.6,0,0,1-.69-.49l-2.77-16.29a.6.6,0,0,1,.49-.69l.64-.11a.6.6,0,0,1,.69.49l2.77,16.29A.6.6,0,0,1,61.39,186.9Z"/><path class="cls-40" d="M64.8,186.25l-.64.11a.6.6,0,0,1-.69-.49L60.7,169.57a.6.6,0,0,1,.49-.69l.64-.11a.6.6,0,0,1,.69.49l2.77,16.29A.6.6,0,0,1,64.8,186.25Z"/><path class="cls-40" d="M68.22,185.6l-.64.11a.6.6,0,0,1-.69-.49l-2.77-16.29a.6.6,0,0,1,.49-.69l.64-.11a.6.6,0,0,1,.69.49l2.77,16.29A.6.6,0,0,1,68.22,185.6Z"/><path class="cls-40" d="M71.64,184.94,71,185a.6.6,0,0,1-.69-.49l-2.77-16.29a.6.6,0,0,1,.49-.69l.64-.11a.6.6,0,0,1,.69.49l2.77,16.29A.6.6,0,0,1,71.64,184.94Z"/><path class="cls-40" d="M75.05,184.29l-.64.11a.6.6,0,0,1-.69-.49L71,167.61a.6.6,0,0,1,.49-.69l.64-.11a.6.6,0,0,1,.69.49l2.77,16.29A.6.6,0,0,1,75.05,184.29Z"/><path class="cls-40" d="M78.47,183.63l-.64.11a.6.6,0,0,1-.69-.49L74.37,167a.6.6,0,0,1,.49-.69l.64-.11a.6.6,0,0,1,.69.49L79,182.94A.6.6,0,0,1,78.47,183.63Z"/><path class="cls-40" d="M81.89,183l-.64.11a.6.6,0,0,1-.69-.49L77.79,166.3a.6.6,0,0,1,.49-.69l.64-.11a.6.6,0,0,1,.69.49l2.77,16.29A.6.6,0,0,1,81.89,183Z"/><path class="cls-40" d="M85.3,182.32l-.64.11a.6.6,0,0,1-.69-.49L81.2,165.64a.6.6,0,0,1,.49-.69l.64-.11a.6.6,0,0,1,.69.49l2.77,16.29A.6.6,0,0,1,85.3,182.32Z"/><path class="cls-40" d="M88.72,181.67l-.64.11a.6.6,0,0,1-.69-.49L84.62,165a.6.6,0,0,1,.49-.69l.64-.11a.6.6,0,0,1,.69.49L89.21,181A.6.6,0,0,1,88.72,181.67Z"/><path class="cls-36" d="M68.58,180.7c-3.63,3.14-5,8.34-4.3,13.89.19,1.47,1.68,5.51,1.91,7,.52,3.34,1.59,8.26,1.53,12.07,4.88,3.54,14.78,3.23,19.26.59A82.92,82.92,0,0,0,87,199.57c-.53-9.63-4.83-18.61-4.91-19.41"/><path class="cls-37" d="M82,171.51a45.62,45.62,0,0,0,.24,7.3,14.55,14.55,0,0,1,.24,1.93,1.1,1.1,0,0,1-.38.75,5.32,5.32,0,0,1-2.64,1c-3.61.65-9.32.22-10.93.53s-3.07-.21-3.07-1.13c0-.64.59-1,.64-2.26a74.78,74.78,0,0,0-.48-11.86,46.73,46.73,0,0,1-.62-16l11-3.13c.85.14.48,2.73,1.33,2.87.62.1,4.11,3.42,5.1,7.33a15.25,15.25,0,0,1,1.27,2.55,4.49,4.49,0,0,1,0,3.48A24.62,24.62,0,0,0,82,171.51Z"/><path class="cls-41" d="M82,171.51a45.62,45.62,0,0,0,.24,7.3,14.55,14.55,0,0,1,.24,1.93,1.1,1.1,0,0,1-.38.75h0c.33-.73-.46-4.35-.79-6.39a23,23,0,0,1,.48-8.47c.72-2.49,1-3.68,1-3.68s.57-.85,1-1.49a4.49,4.49,0,0,1,0,3.48A24.62,24.62,0,0,0,82,171.51Z"/><path class="cls-37" d="M80.8,154.13a4.83,4.83,0,0,1,3.25.56c2.13,1.26,6.57,2,6.57,2s.34,5.07-.21,7a26.75,26.75,0,0,0-5.85.24C80,164.43,74,167.43,74,167.43"/><path class="cls-34" d="M80.83,137c-1.08-2.07-2.8-5-6.89-4.59s-7.61,3-7.56,6.06,2.13,6.77,2.93,8.9a14,14,0,0,1,.46,5.28l9.09-.33s-.24-2.78.32-3.83a14.56,14.56,0,0,1,2.94-2.83,3,3,0,0,0,.75-3.16,23.61,23.61,0,0,0-1.1-4.2C81.5,137.78,81.07,137.43,80.83,137Z"/><path class="cls-42" d="M80.67,153.52c-.55-.65-1.4-1-1.88-1.68a3.79,3.79,0,0,1-.65-2.46,4.58,4.58,0,0,1,.54-1.39c1-2,1.05-3.28-.36-4.89a5.61,5.61,0,0,1-1.15-1.74c-.21-.6-.38-1.25.2-1.61a.77.77,0,0,1,1,0c.22.2.87,2.1,1,.8s.58-1.57-.51-3.81c-.13-.27-.74-1.31-.65-1.55a3,3,0,0,1,2.47,1.54c.63-.71-1.21-5.87-6.88-5.73a9.72,9.72,0,0,0-4.19.78c-1.27.65-2.69,1.79-2.61,2.93-2,.39-2.29,2.43-2.45,3.2a10.07,10.07,0,0,0-.12,3.32c.21,1.63.82,3.18,1.14,4.8a7,7,0,0,1-.18,4c-.5,1.2-1.69,1.85-2.29,3a5.27,5.27,0,0,0,.07,4.82c.78,1.48,1.76,2.46,1.51,4.28a5.82,5.82,0,0,0,1.92,5.56A6,6,0,0,0,71,168.9a10,10,0,0,0,3.55-1.12c2.12-1.15,4-1.89,5.37-4.95.78-1.73-.36-2,.33-3.74.39-1,1.22-1.82,1.32-2.92a3.7,3.7,0,0,0-.81-2.57Z"/><path class="cls-43" d="M276.72,233.51c-.3-.45-.63-.86-1-1.27h0l0-.05c-.19-.23-.39-.46-.59-.68-3.59-4.33-3.81-8-3.81-8.1-.06-4.91-.12-11.74-.18-16.56,0-1.35,0-2.55,0-3.5,0-.4,0-.75,0-1.06,0,0,.06-.39.15-.9s.19-1.15.29-1.66.21-1.15.31-1.83h0a18.37,18.37,0,0,0,0-5.34,5.93,5.93,0,0,1,1.8.39s-.73-2.58-1.49-5.66c-.28-1.09-.55-2.24-.81-3.36a43.93,43.93,0,0,1-1-5.52c-.17-2.57.57-6.35,1.07-10.56.12-1,.22-2.05.29-3.1s.12-2,.12-3c0-.31,0-.62,0-.92a19,19,0,0,0-1.63-7c-.14-.31-.28-.61-.44-.9a28.86,28.86,0,0,0-3.33-5.05,3.07,3.07,0,0,0-1-1.51,9.3,9.3,0,0,1-.26-3.08c1.54-.64,3.12-6.67,2.41-11q-.06-.39-.15-.75c-.89-3.8-3.34-5.29-5.14-5-3.9-4.76-9.8.45-11.16,1.1a16.38,16.38,0,0,1-4.79,1.52,7,7,0,0,1-1.07.06,2.17,2.17,0,0,1-.68-.1c.31,4,1.8,5.92,3.66,6.62a5.05,5.05,0,0,0,1.26.31,7,7,0,0,0,1,0,2.89,2.89,0,0,0,.59,2.19c.09.14.46.34.5.51a4.86,4.86,0,0,1,0,1.66.66.66,0,0,0,0,.14c-.09.42-.19,1-.26,1.53,0,.31-.06.62-.06.87a1.61,1.61,0,0,0,.06.5c.12.32.54.4,1,.39l.48,0,.2.42a12.23,12.23,0,0,0,2,3,2.77,2.77,0,0,0,.74.19,9.58,9.58,0,0,0,4.25-.86,9,9,0,0,1,.33,1.21l-.65.22a17.64,17.64,0,0,0,0,2.24,7.38,7.38,0,0,0-.74.74,4.61,4.61,0,0,0-.4.5,3.45,3.45,0,0,0-.2.32,37.32,37.32,0,0,0-4.08,9c-.42,1.29-.79,2.61-1.12,3.95,0,0,0,0,0,.06l-.63.1c-2.79.5-7.71,1.5-12.89,2.94l-1.47.42,0,.24c-.8,0-2.06-.11-2.8,0-.48,0-1.48,1-2.42,1.73-.76.87-1.45,1.65-1.24,1.78a.27.27,0,0,0,.12,0,1.44,1.44,0,0,0,.71-.4.63.63,0,0,0,.41,0c.37-.11.93-.8,1.2-1,.12-.09.42-.28.7-.46a1.87,1.87,0,0,1,.91,0,.44.44,0,0,1-.23.53c-.25.16-.84.23-.89.4s0,.48.85.32a4.54,4.54,0,0,0,1.76-.72,2.08,2.08,0,0,1,1.2-.38l0,.33s6.42.06,12.46-.08l1,0q-.13.71-.24,1.41a2.33,2.33,0,0,1-.37,0l-2.19.06a.47.47,0,0,0-.17,0h-20.3l-1.5-4.17-1.12-3.1-1.43-3.95L222,153.62a.64.64,0,0,0-.8-.38l-.26.1a.63.63,0,0,0-.38.81l2.39,6.63,1.43,3.95,1.11,3.1,1.52,4.2c-.48-.4-.75-.45-.68,0a4.43,4.43,0,0,0,2.34,2.69,13.68,13.68,0,0,0,2.63.74,2.43,2.43,0,0,0,1,0,10.19,10.19,0,0,1,1.88-.25l0,.66s6.63.71,11.22,1.37c1.89.27,3.75.43,5.47.51-.05.48-.11,1-.16,1.45-.17,1.66-.3,3.27-.4,4.77-.09,1.19-.16,2.31-.22,3.36-.23,4.41-.27,7.45-.45,7.83,0,0,.57.58,2.56.7q0,.6.09,1.23h0c-.07.62-.24,3.11-.47,6.31-.07,1.1-.16,2.28-.24,3.5-.35,5.05-.75,10.75-1,13.88a3.89,3.89,0,0,0-.23,1.54c0,.35,0,3.87,0,4.29.07,1.62.21,4.21.38,7.35h8.29c-.05-.3-.11-.6-.17-.89l-.06-.32c0-.18,0-.4-.07-.69-.46-3.87-.47-2.75.59-7.64l1.92-4.89c1.14,4.05,2.09,7.5,2.49,9.54a.43.43,0,0,0,0,0l.06.31a2.53,2.53,0,0,0,.16.5c0,.05.05.11.07.17a5.3,5.3,0,0,0,.48.95s0,0,0,.05c.47.75,1.1,1.72,1.84,2.86H277Z"/><g class="cls-44"><ellipse class="cls-45" cx="263.35" cy="268.68" rx="31.85" ry="1.71"/></g><path class="cls-34" d="M249.53,259.77a44.87,44.87,0,0,0,.06,5.54c.19.81,2.71.89,3,.46s.7-5.66.7-5.66"/><path class="cls-46" d="M253.3,266.51a17.68,17.68,0,0,1-.24,2.28H250l-.15-.51a4.79,4.79,0,0,1-1.77.51h-2.58c-1.89,0-3-.24-3-.57-.2-1.39,2.05-1.32,2.64-1.32,1.68,0,3.51-.79,3.9-1.64.29-.62.16-.78.51-.66a.87.87,0,0,1,.52.45,1.55,1.55,0,0,0,1.59.87,1.84,1.84,0,0,0,1-.5A1.11,1.11,0,0,1,253.3,266.51Z"/><path class="cls-34" d="M281.25,260.33s.83,2.25,1.2,3,2.85-.17,3-.69-1.89-4.37-1.89-4.37"/><path class="cls-46" d="M286.35,263.06c.32.81.8,2.37.8,2.37l-2.31,1.38-.45-.34a4.51,4.51,0,0,1-1.22,1.27,9.92,9.92,0,0,1-2.29.95c-2.11.48-3.75.25-3.91,0-.7-1.21,2.1-1.88,2.65-2.1a3.78,3.78,0,0,0,2.33-3.08c0-.68-.14-.78.23-.8,0,0,.71-.12,1.14.94,0,0,1.67-.3,2.09-1.34A1.11,1.11,0,0,1,286.35,263.06Z"/><path class="cls-36" d="M268.35,202.29s.24-1.55.44-2.55c.62-3.2,1.59-9.62-3.64-14.68,0,0-6.17,2.76-11.11,3.1-3.89.26-4.78,0-4.78,0s-.25,5.25,1.32,18.42Z"/><path class="cls-36" d="M284.9,259.32a21.3,21.3,0,0,1-4,1.93l-.37-.64-.8-1.45h0l0-.08c-.88-1.54-1.85-3.17-2.86-4.85h0a.07.07,0,0,0,0,0c-5.49-9-12.49-19.13-15-23.12,0,0,0,0,0,0a6.16,6.16,0,0,1-.48-.95c0-.06,0-.12-.07-.17a2.56,2.56,0,0,1-.16-.5l-.06-.31a.42.42,0,0,1,0,0,2.1,2.1,0,0,1,.5-1.79,1.76,1.76,0,0,1,.32-.29c1.34-1,4-.75,6.26.82l.35.26.18.13a21.45,21.45,0,0,1,5.33,5.35C279,241.17,282.06,252.76,284.9,259.32Z"/><path class="cls-36" d="M268.65,228.93c.09,4.22-1.46,5.19-3.17,4.76a4.79,4.79,0,0,1-.88-.33,7.71,7.71,0,0,1-2.87-2.56s0,0,0,0a5.23,5.23,0,0,1-.39-.71c0-.06,0-.12-.07-.17a2.56,2.56,0,0,1-.16-.5l-.06-.31a.42.42,0,0,1,0,0c-.41-2.1-1.4-5.71-2.6-9.92l-2.16-7.54c-2.25-7.77-4.38-15.4-4.32-17.63.22-8,9.53-1.64,14,1.5,1.88,1.33,2.36,3.62,2.39,5.74s.22,21.53.3,27c0,.14,0,.27,0,.39S268.65,228.82,268.65,228.93Z"/><path class="cls-36" d="M268.58,223.4s.2,4.16,4.45,8.84c0,0-6.14-1.86-6.48-2.21a21.88,21.88,0,0,1-1.86-4.73C264.74,224.86,268.58,223.4,268.58,223.4Z"/><path class="cls-47" d="M279.72,259.07c-.88-1.54-1.85-3.17-2.86-4.85h0a.07.07,0,0,0,0,0c-5.49-9-12.49-19.13-15-23.12,0,0,0,0,0,0a6.16,6.16,0,0,1-.48-.95c0-.06,0-.12-.07-.17a2.56,2.56,0,0,1-.16-.5l-.06-.31a.42.42,0,0,1,0,0c-.41-2.1-1.4-5.71-2.6-9.92l7-18.83H268s-2.88,8.7-4.06,12.62-1.5,10-1.6,12.28c-.23,4.93,5.82,13.28,7.55,16.33C271.76,244.78,279.08,257.82,279.72,259.07Z"/><path class="cls-36" d="M253.36,263.41H253a20.91,20.91,0,0,1-4-.3v-.74c.21-11.36-1.06-29.95-1.29-35.82,0-.41,0-3.94,0-4.28-.11-5.06,5-.55,6.8,3.41a15.77,15.77,0,0,1,1,3c.32,1.32.33,2.79.66,4.29C258.11,241.88,254.16,256.09,253.36,263.41Z"/><path class="cls-36" d="M265.4,202.25c0,.12-8.37,20.84-10,25.34h0a2.73,2.73,0,0,1-2,1.38c-2.25.55-5.56-.36-5.73-4.83a10.87,10.87,0,0,1,.06-1.61c.38-3.61,1.68-23.58,1.88-25.51s.62-4.73,1.64-5.06C256.38,190.35,266.91,195.05,265.4,202.25Z"/><path class="cls-36" d="M256.69,224c-1.14,5.3-1.13,4-.66,8s-1.24-3.37-1.24-3.37l1.07-2.69Z"/><path class="cls-48" d="M233.45,169.38a5.3,5.3,0,0,0-1.26-.09,4,4,0,0,1-.44.28v.22h-.08c-.05,0-.84.53-.92.59s-1,1.16-1,1.16.16.14.52,0,.93-.8,1.19-1l.7-.46a1.39,1.39,0,0,1,1.21.2C233.78,170.81,233.45,169.38,233.45,169.38Z"/><path class="cls-34" d="M238.65,167.68s-2,.66-2.68.77-2.39-.09-3.33,0a9.26,9.26,0,0,0-2.42,1.74c-.76.86-1.44,1.65-1.24,1.77.43.26,1.5-1.09,2.38-1.72a1.35,1.35,0,0,1,1.53-.25c.31.21.17.52-.09.69s-.85.23-.89.4,0,.48.85.32a4.48,4.48,0,0,0,1.76-.72,2.17,2.17,0,0,1,1.2-.38c.63-.07,3.76-.62,3.76-.62"/><path class="cls-37" d="M252,164.53l-.64,5.39-.07.54-.52,0-2.49.08c-6,.14-12.45.08-12.45.08l-.37-2.4a144.17,144.17,0,0,1,14.36-3.35Z"/><rect class="cls-49" x="221.13" y="152.67" width="1.54" height="20.83" rx="0.63" ry="0.63" transform="matrix(0.94, -0.34, 0.34, 0.94, -42.1, 84.71)"/><rect class="cls-49" x="224.59" y="172" width="22.38" height="1.59" rx="0.73" ry="0.73"/><path class="cls-41" d="M252,164.53l-.64,5.39-.59.56-2.49.08a48.44,48.44,0,0,1,1.54-5.67Z"/><path class="cls-37" d="M270.88,192.93c-2.74-1.12-6.83.12-14.55,2s-9.36.16-9.36.16c.28-.58.21-7.46,1.07-16,.18-1.83.41-3.73.69-5.67,1.16-7.87,3.23-16.24,7.1-22,1.92-2.85,7.36-4.25,7.36-4.25,3,3.63,5.91,8,5.9,14.49s-1.73,12.92-1.48,16.68S270.88,192.93,270.88,192.93Z"/><path class="cls-41" d="M254.66,179.06a40.11,40.11,0,0,1-6.63.08c.18-1.83.41-3.73.69-5.67H249a3.22,3.22,0,0,0,3-2.4c.51-1.94,1.38-5,2.69-9.08,2.32-7.25,4.74-7.54,4.74-7.54s3.55-1.82,3.69,2S259.19,178.5,254.66,179.06Z"/><path class="cls-36" d="M265,203.35s2.63-.95,4.13-5.46L267.47,195l-3.46,1.6a25.29,25.29,0,0,0-.46,3.27C263.68,200.05,265,203.35,265,203.35Z"/><path class="cls-34" d="M232.9,174.71l-.24-1.92a14.79,14.79,0,0,1-2.55.12c-.82-.1-1.8-.53-3-.76s-1.45.26-1.26.54,1.57.5,1.57.5.19.17-.54.17h-.76a3.11,3.11,0,0,1-.89-.4l-.42-.43c-.78-.83-1.28-1.09-1.19-.53a4.43,4.43,0,0,0,2.35,2.69,13.72,13.72,0,0,0,2.63.73,2.38,2.38,0,0,0,1,0,10.25,10.25,0,0,1,2.25-.27l1.07,0C234.42,175.28,233.65,175,232.9,174.71Z"/><path class="cls-37" d="M259,153s-2.42.28-4.74,7.54c-1.3,4.05-2.17,7.14-2.68,9.08a3.23,3.23,0,0,1-3,2.4l-17,.45-.11,3.38s6.63.72,11.22,1.37a49.62,49.62,0,0,0,11.54.4c4.54-.56,9-20.47,8.77-22.5C262.69,151.89,259,153,259,153Z"/><path class="cls-50" d="M247.85,135.87s-.43.86.53,2.36c.09.14.46.34.51.51a5.63,5.63,0,0,1,0,1.8,16.15,16.15,0,0,0,3.42,6.68c1.64.73,4.85-.41,7.56-1.84.58-.05,3.78-1.62,3.32-6.17a17,17,0,0,0-4.26-8.82c-.24-.1-7.26,1.2-7.54,1.26S247.85,135.87,247.85,135.87Z"/><path class="cls-38" d="M258,137.6a2.76,2.76,0,0,1-1.94-2.83c-.08-2.42-.39-2.5-1.87-1.15s-11.45,6.62-12.31-4.55c1.11.35,3.92-.22,6.54-1.48,1.37-.66,7.26-5.87,11.16-1.1,1.92-.34,4.57,1.37,5.29,5.72s-.87,10.37-2.41,11c-1,.42-1.47-.6-1.84-2.66-.16-1.07,2.64-3.15-.3-5.83A1.88,1.88,0,0,0,258,137.6Z"/><path class="cls-50" d="M262.42,143.22s-.27,3.13.88,4.11c-1.78,2.15-5.79,2.48-5.79,2.48s.91-1.47-1.14-5.28S262.42,143.22,262.42,143.22Z"/><path class="cls-37" d="M257,150.22a17.14,17.14,0,0,1,0-2.24s3.87-1.33,5.72-1.68a3.14,3.14,0,0,1,1,1.51A30.12,30.12,0,0,1,257,150.22Z"/><path class="cls-50" d="M249,139.87s-.65,2.88-.4,3.57,2,.25,2,.25Z"/><rect class="cls-51" x="223.9" y="77.52" width="90.84" height="43.5" rx="2.79" ry="2.79"/><path class="cls-26" d="M312.74,78.31v37.92a2.79,2.79,0,0,1-2.79,2.79H224.7a2.79,2.79,0,0,1-2.8-2.79V78.31a2.79,2.79,0,0,1,2.8-2.79h85.25A2.79,2.79,0,0,1,312.74,78.31Z"/><path class="cls-52" d="M312.74,78.31v5.46H221.9V78.31a2.79,2.79,0,0,1,2.8-2.79h85.25A2.79,2.79,0,0,1,312.74,78.31Z"/><path class="cls-53" d="M309.16,88.35v26.17H225.32v-8.36c3.38-4.64,8-7.72,18.58-1.47,10.16,6,10.13-13.33,21.75-12.33s14.7,18.34,23.71,5.09S309.16,88.35,309.16,88.35Z"/><rect class="cls-53" x="225.32" y="88.18" width="16.52" height="1.13"/><rect class="cls-53" x="225.32" y="90.18" width="27.92" height="1.13"/><rect class="cls-53" x="225.32" y="92.18" width="20.96" height="1.13"/><rect class="cls-53" x="225.32" y="94.18" width="25.29" height="1.13"/><rect class="cls-53" x="225.32" y="96.18" width="16.52" height="1.13"/><path class="cls-51" d="M102.34,64a27,27,0,0,1-50.65,0Z"/><path class="cls-7" d="M52.09,37.21A27,27,0,0,0,48.71,61.4l25.56-8.77Z"/><path class="cls-7" d="M78.14,23.11v27L98,68.43A27,27,0,0,0,78.14,23.11Z"/><path class="cls-37" d="M74.27,25.61a27,27,0,0,0-22.18,11.6L74.27,52.63Z"/><path class="cls-54" d="M69.25,79.17a27,27,0,0,0,24.89-8.24L74.27,52.63Z"/><path class="cls-55" d="M48.71,61.4A27,27,0,0,0,69.25,79.17l5-26.54Z"/><path class="cls-51" d="M61,123H25a1.79,1.79,0,0,0-1.79,1.79v11.37A1.79,1.79,0,0,0,25,137.91H54.88c.15,1.2,1,3.57,5.33,3.57,0,0-1.79-.33-2.16-3.57h3a1.79,1.79,0,0,0,1.79-1.79V124.75A1.79,1.79,0,0,0,61,123Z"/><path class="cls-56" d="M60.37,122.06h-36a1.79,1.79,0,0,0-1.79,1.79v11.37A1.79,1.79,0,0,0,24.36,137H54.22c.15,1.2,1,3.57,5.33,3.57,0,0-1.79-.33-2.16-3.57h3a1.79,1.79,0,0,0,1.79-1.79V123.85A1.79,1.79,0,0,0,60.37,122.06Z"/><rect class="cls-57" x="23.76" y="123.45" width="36.94" height="1.54" rx="0.55" ry="0.55"/><rect class="cls-57" x="23.76" y="126.05" width="36.94" height="1.54" rx="0.55" ry="0.55"/><rect class="cls-57" x="23.76" y="128.65" width="36.94" height="1.54" rx="0.55" ry="0.55"/><rect class="cls-57" x="23.76" y="131.25" width="36.94" height="1.54" rx="0.55" ry="0.55"/><rect class="cls-57" x="23.76" y="133.85" width="36.94" height="1.54" rx="0.55" ry="0.55"/><path class="cls-51" d="M270.45,128.6h36a1.79,1.79,0,0,1,1.79,1.79v11.37a1.79,1.79,0,0,1-1.79,1.79H276.6c-.15,1.2-1,3.57-5.33,3.57,0,0,1.79-.33,2.16-3.57h-3a1.79,1.79,0,0,1-1.79-1.79V130.4A1.79,1.79,0,0,1,270.45,128.6Z"/><path class="cls-56" d="M271.12,127.7h36a1.79,1.79,0,0,1,1.79,1.79v11.37a1.79,1.79,0,0,1-1.79,1.79H277.27c-.15,1.2-1,3.57-5.33,3.57,0,0,1.79-.33,2.16-3.57h-3a1.79,1.79,0,0,1-1.79-1.79V129.5A1.79,1.79,0,0,1,271.12,127.7Z"/><rect class="cls-58" x="296.35" y="129.29" width="11.37" height="11.75" rx="0.84" ry="0.84" transform="translate(604.08 270.33) rotate(180)"/><rect class="cls-58" x="270.88" y="129.29" width="23.93" height="1.48" rx="0.43" ry="0.43" transform="translate(565.68 260.05) rotate(180)"/><rect class="cls-58" x="276.11" y="131.86" width="18.7" height="1.48" rx="0.38" ry="0.38" transform="translate(570.92 265.19) rotate(180)"/><rect class="cls-58" x="270.88" y="134.42" width="23.93" height="1.48" rx="0.43" ry="0.43" transform="translate(565.68 270.33) rotate(180)"/><rect class="cls-58" x="272.82" y="136.99" width="21.99" height="1.48" rx="0.42" ry="0.42" transform="translate(567.63 275.46) rotate(180)"/><rect class="cls-58" x="285.65" y="139.56" width="9.16" height="1.48" rx="0.27" ry="0.27" transform="translate(580.46 280.6) rotate(180)"/><path class="cls-37" d="M203.45,64H167.1a4.06,4.06,0,0,1,.36-1.27c.92-2.18,4.29-6.59,16.43-8.56l6-1.23S203.75,53,203.45,64Z"/><path class="cls-41" d="M191.4,64H167.1a4.06,4.06,0,0,1,.36-1.27,5.53,5.53,0,0,1,2.88,0l1.48.39h15.81C190.71,63.14,191.4,64,191.4,64Z"/><path class="cls-34" d="M182.48,53.51a5.89,5.89,0,0,1,.84,2.06,2,2,0,0,0,2.08,1.56c5.31-.3,5-3.62,5-3.62-1.09-1.67-1.76-6.63-1.76-6.63"/><path class="cls-38" d="M170,38.24s-.22,6.66,2.76,6.57,0-7.35,0-7.35Z"/><path class="cls-34" d="M187.87,45.6a13.05,13.05,0,0,1,.06,2.52,2,2,0,0,1,0,.27,2.13,2.13,0,0,1-.06.27c-.72,2.85-4.33,6.88-6.87,7.21a6.77,6.77,0,0,1-1,0c-3.53-.16-5.6-3.06-6.8-6.14l-.12-.32a28.36,28.36,0,0,1-1.49-6.84c0-.24-.19-2.87.33-3.65s7.55-1.67,7.7-1.68,6.86.47,6.86.47A72.23,72.23,0,0,1,187.87,45.6Z"/><path class="cls-38" d="M189,45.49a11.18,11.18,0,0,1-.09,2.47,2,2,0,0,1,0,.27c-.46,2.85-4,7.29-7.88,7.64a8.38,8.38,0,0,1-.88.08c-4.25.17-5.73-3-6.9-6.2l-.12-.32s1.48,2.36,2.22,2.43-.18-.85,1.82-1.63a9.87,9.87,0,0,1,4.11-.34c.83.11,2.33.54,2.85.61a.58.58,0,0,0,.3,0A9.65,9.65,0,0,0,187,45.9C187.12,45.3,188.4,45.39,189,45.49Z"/><path class="cls-38" d="M168.67,36.19s.22,5.12,8.63,3.07c2.31-.56,4.35-1.09,5.49-.47,1.72,5.41,1.78,8,2.38,7.79.76-.27-1.3-4.76,1.33-4.28,2,.37-.09,5.33-.09,5.33s2.45.32,2.52-.81c0-.68.12-10.37-1.55-12.67a4.6,4.6,0,0,0-3.65-2.2s-2.11-1.77-7.07-.32-7.57-.38-7.56-.24A9.91,9.91,0,0,0,168.67,36.19Z"/><path class="cls-51" d="M203.45,64s-.43,8.76-4,14.33h0l-.09.14a.53.53,0,0,0-.09.13c-1.08,1.62-7.07,10.5-10.93,14-4.25,3.89-9.13,8.29-9.13,8.29l-.18-.15a12.09,12.09,0,0,0-1.4,1.51c-.33.59-.66,2.79-1.29,3a1.82,1.82,0,0,1-.3.07,2,2,0,0,1-.91.4,5.83,5.83,0,0,1-2-.2,4,4,0,0,1-.9.7,19.64,19.64,0,0,1-2.37,1.26c-.7.23-.82,0-.66-.44s1.48-1.19,2-1.57a7.42,7.42,0,0,0,1.59-2.1c.3-.65.3-1,0-1s-1.21.56-1.91.7-1,0-.7-.44a5.48,5.48,0,0,1,2.45-1.9,4.81,4.81,0,0,0,2.3-.93,7.21,7.21,0,0,0,1.29-1.57l-.28-.25s7.64-10.65,13.35-18.88l.38-.51A30.84,30.84,0,0,0,193.16,65a2,2,0,0,0-1-.94Z"/><path class="cls-34" d="M176.14,97.16a13.37,13.37,0,0,1-2,2.74,4.78,4.78,0,0,1-2.3.93,5.51,5.51,0,0,0-2.46,1.89c-.33.41,0,.59.7.44s1.61-.7,1.91-.7.3.36,0,1a7.32,7.32,0,0,1-1.59,2.1c-.48.37-1.82,1.11-2,1.56s0,.67.67.44a18.91,18.91,0,0,0,2.37-1.26,4.09,4.09,0,0,0,.9-.7,5.87,5.87,0,0,0,2,.2,2.18,2.18,0,0,0,.92-.4,1.84,1.84,0,0,0,.29-.07c.63-.26,1-2.44,1.3-3a28.35,28.35,0,0,1,2.76-2.8Z"/><path class="cls-37" d="M198.63,78.37h0c3.6-5.57,4.82-14.33,4.82-14.33l-4.6-3.13L196.51,62c-1.47-.65-4-1.6-4-1.6L191.4,64a2,2,0,0,1,1,.94,30.94,30.94,0,0,1-3.53,13.72c-.13.17-.26.33-.39.52-5.71,8.22-13.35,18.87-13.35,18.87l3.27,2.87s4.89-4.4,9.14-8.28c3.86-3.53,9.85-12.4,10.93-14l.09-.14Z"/><path class="cls-51" d="M173.19,66.21l-.13,0c.14.15.24.27.27.32s0,.24,0,.24c-.18.19-.33.17-.56.15a.88.88,0,0,1-.42-.2.62.62,0,0,1-.52.12,1.76,1.76,0,0,1-.82-.58.17.17,0,0,1,0,.17.64.64,0,0,1-.57.15,1.84,1.84,0,0,1-.88-.64c-.12-.12-.28-.32-.46-.53l-.45-.31a1.24,1.24,0,0,0-.69-.23h0c-1.72,0-2.49-.78-4.6-.78H173l-.06,0a4,4,0,0,1-.58.11l0,0,.36.41c.38.46.89,1.07,1,1.16s0,.25,0,.25A.62.62,0,0,1,173.19,66.21Z"/><path class="cls-34" d="M172.79,66.21l-.13,0c.14.15.24.27.27.32s0,.24,0,.24c-.18.19-.33.17-.56.15a.88.88,0,0,1-.42-.2.62.62,0,0,1-.52.12c-.21,0-.47-.24-.82-.58a.17.17,0,0,1,0,.17.64.64,0,0,1-.57.15,1.85,1.85,0,0,1-.88-.64c-.12-.12-.28-.32-.46-.53l-.45-.31a1.24,1.24,0,0,0-.69-.23h0c-1.72,0-2.49-.78-4.6-.78,0,0,4.93-2.37,7.91-.69a10,10,0,0,0,1.26.13c.87,0,.62.45.34.59a4,4,0,0,1-.58.11l0,0,.36.41c.38.46.89,1.07,1,1.16s0,.25,0,.25A.62.62,0,0,1,172.79,66.21Z"/><path class="cls-59" d="M172.49,64.08a4,4,0,0,1-.58.11,8.25,8.25,0,0,0-1-.83,10,10,0,0,0,1.26.13C173,63.5,172.76,63.93,172.49,64.08Z"/><path class="cls-45" d="M331.45,268.56c0,1-7.34,1.84-16.41,1.84s-16.41-.82-16.41-1.84c0-.7,3.5-1.31,8.66-1.61l.27,1a1,1,0,0,0,.92.71h12.06a1,1,0,0,0,.93-.71l.28-1.06C327.47,267.17,331.45,267.81,331.45,268.56Z"/><path class="cls-60" d="M308.48,246.76s-.56-5.87-8.28-8.75-13.19.54-13.19.54.76-7.08,6.86-6.76S301.2,236,301.2,236s3.31-3.44,6.21-.89c2.41,2.12,2,6.33,2,6.33s2.28.28,2,3.92a8.86,8.86,0,0,1-.2,1.25"/><path class="cls-61" d="M308.48,246.76s-.56-5.87-8.28-8.75-13.19.54-13.19.54.76-7.08,6.86-6.76S301.2,236,301.2,236s3.31-3.44,6.21-.89c2.41,2.12,2,6.33,2,6.33s2.28.28,2,3.92a8.86,8.86,0,0,1-.2,1.25"/><path class="cls-62" d="M312.77,246.7c-.09-18.33-9.3-26.49-9.39-26.58l.28-.32c.09.08,9.45,8.35,9.54,26.89Z"/><path class="cls-62" d="M303.91,220.31a5,5,0,0,1-3.08-.7,1.35,1.35,0,0,1,1.68-2.13A4.74,4.74,0,0,1,303.91,220.31Z"/><path class="cls-62" d="M304.66,221.06a5,5,0,0,1-1.27,2.89,1.35,1.35,0,1,1-1.77-2A4.74,4.74,0,0,1,304.66,221.06Z"/><path class="cls-62" d="M304.59,221.1a5,5,0,0,1,1.47-2.79,1.35,1.35,0,1,1,1.62,2.17A4.74,4.74,0,0,1,304.59,221.1Z"/><path class="cls-62" d="M307.43,224.79a5,5,0,0,1-1.6,2.72,1.35,1.35,0,1,1-1.52-2.24A4.74,4.74,0,0,1,307.43,224.79Z"/><path class="cls-62" d="M307.35,224.82a5,5,0,0,1,1.79-2.6,1.35,1.35,0,0,1,1.35,2.34A4.74,4.74,0,0,1,307.35,224.82Z"/><path class="cls-63" d="M315.77,246.65c-2.12-24.33,9.1-36.27,9.21-36.39l-.41-.39c-.12.12-11.51,12.23-9.37,36.83Z"/><path class="cls-63" d="M324.31,210.57a6.62,6.62,0,0,0,4-1.31,1.8,1.8,0,0,0-2.48-2.62A6.32,6.32,0,0,0,324.31,210.57Z"/><path class="cls-63" d="M323.4,211.65a6.62,6.62,0,0,0,2,3.67,1.8,1.8,0,1,0,2.1-2.93A6.32,6.32,0,0,0,323.4,211.65Z"/><path class="cls-63" d="M323.5,211.7a6.61,6.61,0,0,0-2.29-3.52,1.8,1.8,0,0,0-1.88,3.08A6.32,6.32,0,0,0,323.5,211.7Z"/><path class="cls-63" d="M320.19,216.94a6.62,6.62,0,0,0,2.45,3.41,1.8,1.8,0,0,0,1.74-3.16A6.32,6.32,0,0,0,320.19,216.94Z"/><path class="cls-63" d="M320.29,217a6.62,6.62,0,0,0-2.69-3.23,1.8,1.8,0,0,0-1.51,3.28A6.32,6.32,0,0,0,320.29,217Z"/><path class="cls-63" d="M317.85,222.85A6.62,6.62,0,0,0,320.6,226a1.8,1.8,0,0,0,1.45-3.3A6.32,6.32,0,0,0,317.85,222.85Z"/><path class="cls-63" d="M318,222.87a6.62,6.62,0,0,0-3-3,1.8,1.8,0,0,0-1.21,3.4A6.32,6.32,0,0,0,318,222.87Z"/><path class="cls-63" d="M316.23,228.59a6.62,6.62,0,0,0,3.24,2.67,1.8,1.8,0,1,0,.88-3.5A6.32,6.32,0,0,0,316.23,228.59Z"/><path class="cls-63" d="M316.34,228.6a6.62,6.62,0,0,0-3.42-2.43,1.8,1.8,0,0,0-.63,3.55A6.32,6.32,0,0,0,316.34,228.6Z"/><path class="cls-63" d="M315.44,234.53a6.62,6.62,0,0,0,3.48,2.35,1.8,1.8,0,1,0,.54-3.57A6.32,6.32,0,0,0,315.44,234.53Z"/><path class="cls-63" d="M315.55,234.53a6.62,6.62,0,0,0-3.64-2.1,1.8,1.8,0,1,0-.29,3.59A6.32,6.32,0,0,0,315.55,234.53Z"/><path class="cls-63" d="M315.18,241.71a6.61,6.61,0,0,0,3.48,2.35,1.8,1.8,0,1,0,.54-3.57A6.32,6.32,0,0,0,315.18,241.71Z"/><path class="cls-63" d="M315.29,241.71a6.62,6.62,0,0,0-3.64-2.1,1.8,1.8,0,1,0-.29,3.59A6.32,6.32,0,0,0,315.29,241.71Z"/><path class="cls-60" d="M317.51,246.76s-3.38-10.84,3.61-12.52c0,0,.35-14.55,10.7-10.86,0,0,1.5-5.68,7.52-5.41s5.74,6,5.74,6,5.49.86,5.49,5.46c0,0-26.91-7.58-29.22,17.3"/><path class="cls-64" d="M317.51,246.76s-3.38-10.84,3.61-12.52c0,0,.35-14.55,10.7-10.86,0,0,1.5-5.68,7.52-5.41s5.74,6,5.74,6,5.49.86,5.49,5.46c0,0-26.91-7.58-29.22,17.3"/><path class="cls-65" d="M302.56,249l5,18.9a1,1,0,0,0,.93.71h12.06a1,1,0,0,0,.93-.71l5-18.9a1.86,1.86,0,0,0-1.8-2.34h-20.3A1.86,1.86,0,0,0,302.56,249Z"/><line class="cls-66" x1="321.57" y1="249" x2="318.22" y2="266.72"/></g></g></g></svg>