<svg xmlns="http://www.w3.org/2000/svg" xmlns:xlink="http://www.w3.org/1999/xlink" viewBox="0 0 599.74 374.72"><defs><style>.cls-1{fill:#d08b73;}.cls-2{fill:#ee5f43;}.cls-3{fill:#434e84;}.cls-4{fill:#12a189;}.cls-5{fill:#4485f4;}.cls-47,.cls-6{fill:#bc6c56;}.cls-52,.cls-68,.cls-7{fill:#034c8a;}.cls-8{fill:#38aae3;}.cls-9{fill:#faae26;}.cls-10{isolation:isolate;}.cls-11{fill:#a5def6;opacity:0.47;}.cls-12{opacity:0.3;}.cls-13{fill:#4385f4;}.cls-14,.cls-15,.cls-16,.cls-17,.cls-18,.cls-19,.cls-20,.cls-21,.cls-24,.cls-25,.cls-26,.cls-27,.cls-28,.cls-29,.cls-34,.cls-35,.cls-51,.cls-60,.cls-67,.cls-71,.cls-76{fill:none;}.cls-14,.cls-15,.cls-16,.cls-17,.cls-18,.cls-19,.cls-20{stroke:#0254a9;}.cls-14,.cls-15,.cls-16,.cls-17,.cls-18,.cls-19,.cls-20,.cls-21,.cls-24,.cls-25,.cls-26,.cls-27,.cls-28,.cls-29,.cls-34,.cls-35,.cls-51,.cls-52,.cls-60,.cls-67,.cls-68,.cls-76{stroke-linecap:round;}.cls-14,.cls-15,.cls-16,.cls-17,.cls-18,.cls-19,.cls-20,.cls-25,.cls-26,.cls-27,.cls-28,.cls-29,.cls-34,.cls-35,.cls-51,.cls-52,.cls-60,.cls-67,.cls-68,.cls-76{stroke-linejoin:round;}.cls-14{stroke-width:0.77px;}.cls-15{stroke-width:1.9px;}.cls-16{stroke-width:1.72px;}.cls-17{stroke-width:2.73px;}.cls-18{stroke-width:3.22px;}.cls-19{stroke-width:1.99px;}.cls-20{stroke-width:2.4px;}.cls-21,.cls-24{stroke:#363a69;}.cls-21,.cls-24,.cls-71{stroke-miterlimit:10;}.cls-21{stroke-width:1.22px;}.cls-22{fill:#3ca3a4;}.cls-23{fill:#f8ad26;}.cls-24{stroke-width:1.54px;}.cls-25,.cls-26,.cls-27,.cls-28,.cls-29{stroke:#148b7a;}.cls-25{stroke-width:0.41px;}.cls-26{stroke-width:0.59px;}.cls-27{stroke-width:0.42px;}.cls-28{stroke-width:0.43px;}.cls-29{stroke-width:0.44px;}.cls-30{fill:#ee5e43;}.cls-31,.cls-75{fill:#c4422b;}.cls-32{fill:#bec6c4;}.cls-33{fill:#fefefe;}.cls-34,.cls-35{stroke:#baccc6;}.cls-34{stroke-width:1.43px;}.cls-35{stroke-width:2.04px;}.cls-36{fill:#0254a9;}.cls-37{fill:#fabb49;}.cls-38{fill:#d38309;}.cls-39{fill:#13b5a0;}.cls-40{fill:#148a77;}.cls-41{clip-path:url(#clip-path);}.cls-42{clip-path:url(#clip-path-2);}.cls-43{fill:#282e5b;}.cls-44{clip-path:url(#clip-path-3);}.cls-45{clip-path:url(#clip-path-4);}.cls-46{clip-path:url(#clip-path-5);}.cls-47,.cls-63,.cls-75{opacity:0.5;mix-blend-mode:multiply;}.cls-48{clip-path:url(#clip-path-6);}.cls-49{fill:#363a68;}.cls-50{fill:#346ec1;}.cls-51,.cls-52,.cls-67,.cls-68,.cls-71{stroke:#034c8a;}.cls-51{stroke-width:3.44px;}.cls-52{stroke-width:0.97px;}.cls-53{clip-path:url(#clip-path-7);}.cls-54{clip-path:url(#clip-path-8);}.cls-55{clip-path:url(#clip-path-9);}.cls-56{fill:#ff6b6b;}.cls-57{clip-path:url(#clip-path-10);}.cls-58{clip-path:url(#clip-path-11);}.cls-59{clip-path:url(#clip-path-12);}.cls-60{stroke:#282e5b;stroke-width:0.93px;}.cls-61{clip-path:url(#clip-path-13);}.cls-62{clip-path:url(#clip-path-14);}.cls-64{clip-path:url(#clip-path-15);}.cls-65{clip-path:url(#clip-path-16);}.cls-66{clip-path:url(#clip-path-17);}.cls-67{stroke-width:3.05px;}.cls-68{stroke-width:1.03px;}.cls-69{clip-path:url(#clip-path-18);}.cls-70{clip-path:url(#clip-path-19);}.cls-71{stroke-width:0.9px;}.cls-72{clip-path:url(#clip-path-20);}.cls-73{clip-path:url(#clip-path-21);}.cls-74{clip-path:url(#clip-path-22);}.cls-76{stroke:#434e84;stroke-width:4.29px;}</style><clipPath id="clip-path" transform="translate(-334.32 -66.7)"><path id="_Clipping_Path_" data-name="&lt;Clipping Path&gt;" class="cls-1" d="M510,231.23q.17.76.29,1.53a19.6,19.6,0,0,1,.21,3.33c0,1-.25,2-.22,3.07a3.83,3.83,0,0,0,.67,1.66,18.31,18.31,0,0,1,1.29,2.63c.15.45.23,1.09-.31,1.29s-1.67-.1-1.89.71c-.11.41,0,.87-.1,1.27s-.35.35-.55.54a1,1,0,0,0-.28.64,5.42,5.42,0,0,1-.17,1.45c-.16.43-.47.63-.72,1a1.83,1.83,0,0,0-.19,1c0,1,0,2.17-1.24,2.44a6.61,6.61,0,0,1-2.18-.08,10.79,10.79,0,0,0-2.76-.19,1.66,1.66,0,0,0-1.07.62,7.25,7.25,0,0,0-1.24,2.06,29.52,29.52,0,0,0,1.4,5.8c.8,1.69-2.53,2.4-2.53,2.4l-8.72-4-3.08-4.75,2-5.28a8.84,8.84,0,0,0,.61-2.64l.45-17.38,11.74-4.16,8.58,4.92Z"/></clipPath><clipPath id="clip-path-2" transform="translate(-334.32 -66.7)"><path id="_Clipping_Path_2" data-name="&lt;Clipping Path&gt;" class="cls-2" d="M485.34,284.25a34.24,34.24,0,0,1-2.7-10.22,26.36,26.36,0,0,1,.94-10.07c.49-1.62,1.36-3,1.7-4.7l2.4-6.5a50.56,50.56,0,0,0,8.31,6.69,9.06,9.06,0,0,0,4.12,1.39h.53l10.13,11.71a9.07,9.07,0,0,1,2.3,2.59,10.3,10.3,0,0,1,1.13,5.74c-.09,1.21-.32,2.41-.4,3.63a13.62,13.62,0,0,0,.22,3.18c.41,2.4.81,4.79,1.06,7.21.27,2.62,1.43,17.69,1.6,19.06s.36,2.44.5,3.16a16.91,16.91,0,0,1-7.6,2.59c-4,.31-8.56-1-10.79,0a2,2,0,0,1-1.51.16c-.32-.18-.31-.8-.35-1.1-.09-.6-.16-1.21-.26-1.81a1.72,1.72,0,0,0-.14-.59c-.1-.17-.2-.19-.38-.12s-2.11,2.06-2.42,2.31c-.79.63-3.39-.44-10.78-7.07a9.62,9.62,0,0,0,2.79-2.08,8.77,8.77,0,0,0,1-1.32,2.76,2.76,0,0,1,1.12-1.27,3.13,3.13,0,0,0,1.05-1c.25-.39.26-.87.5-1.24s.58-.38.86-.56a2.61,2.61,0,0,0,.81-1Z"/></clipPath><clipPath id="clip-path-3" transform="translate(-334.32 -66.7)"><path id="_Clipping_Path_3" data-name="&lt;Clipping Path&gt;" class="cls-5" d="M630.47,314.28s-5,15.9-5.3,20.21-4.92,32.49-5.48,35.08c-2.78,12.76-5.78,40.86-5.78,40.86l2,2.59-2,3.86v5a27,27,0,0,1,4.72-.87c1.49,0,5.59,1.74,5.59,1.74s4.43-12.18,4.43-14,2-2.65,1.82-4-.64-4.8,0-6.29a143.4,143.4,0,0,0,3.8-18.22c.25-3.48,4.22-14.41,4.22-14.41s4.72-13.92,5.47-15.9,1.93-12.42,6.55-12.42,12.08,14.91,13.32,20.38,9.19,32.3,10.44,34.29,6,8.7,6,8.7l-1.84,7.23,1.26,9.9s.81,5.13.94,6.25,4.26,0,4.26,0,7.69-1.63,8.93-2.25,1.37-3.35,1.12-4.22a18.3,18.3,0,0,1-1-3.48c0-.87-5.35-36.17-5.85-38.91S683.43,363,682.52,359a111.24,111.24,0,0,1-1.78-16.35c0-3-.5-6.21-.5-7.45s-7-23.11-7-23.11Z"/></clipPath><clipPath id="clip-path-4" transform="translate(-334.32 -66.7)"><path id="_Clipping_Path_4" data-name="&lt;Clipping Path&gt;" class="cls-7" d="M635.11,241.89c-1.45.8-1.71.7-6.42,2.4a43.34,43.34,0,0,0-4.85,1.86c-2.65,2.36-1,6.27-2.32,12.47-.69,3.23-3.22,6.27-3,7.62s4.37,1.19,7.62,1.16c3.61,0,4.18-.88,5.14-.33,3.82,2.18-3.55,16.64-3,31.64.05,1.42.3,6,0,12.18-.14,2.84-.34,5.17-.5,6.71a126.51,126.51,0,0,0,23.36,4c9.77.72,14.2-.12,18.14-2.24a23.36,23.36,0,0,0,6.71-5.47,15.71,15.71,0,0,1-1.49-6.21c0-2.07.39-2.84.25-5.47a28.32,28.32,0,0,0-.75-4.72c-.8-3.75-1.31-5.09-1.74-7-.52-2.26-2.43-10.52,1.74-16.4a12.49,12.49,0,0,1,1.24-1.49c.72.44,1.33,1.78,2.15,1.33s2-9.07,3.06-11.68a18.51,18.51,0,0,0,2-6.79,9.3,9.3,0,0,0-4-9.11c-.65-.51-2-1.52-7.45-4-1.87-.84-2.8-1.26-3.73-1.57a30,30,0,0,0-6.21-1.41c-8.81-1.1-10.86,1.31-17.19,0a9.07,9.07,0,0,0-4.43-.08C637.68,239.8,637.46,240.59,635.11,241.89Z"/></clipPath><clipPath id="clip-path-5" transform="translate(-334.32 -66.7)"><path id="_Clipping_Path_5" data-name="&lt;Clipping Path&gt;" class="cls-6" d="M650.51,226.82l-2.15,13.92h12.42l-2-14.25Z"/></clipPath><clipPath id="clip-path-6" transform="translate(-334.32 -66.7)"><path id="_Clipping_Path_6" data-name="&lt;Clipping Path&gt;" class="cls-6" d="M619.8,266.29c-.5,3.4.7,12.06.89,18.35a6.57,6.57,0,0,0,5.47,7.12c4,1.07,15.77,2.13,31.64,2.65l11.1-5.3c3.54-3.73,5.33-7.82,4-9.84-1.66-2.59-8.2-1.42-12.32,1.06a16.09,16.09,0,0,0-6.13,7c-3.72-.76-7.72-1.73-11.93-3-3.68-1.09-7.11-2.27-10.27-3.48a38.75,38.75,0,0,0,.48-7.44A28.43,28.43,0,0,0,632,267C627.93,265.89,622.23,265.6,619.8,266.29Z"/></clipPath><clipPath id="clip-path-7" transform="translate(-334.32 -66.7)"><path id="_Clipping_Path_7" data-name="&lt;Clipping Path&gt;" class="cls-8" d="M710.57,410.29c.68-4.5,1.54-8.83,1.14-13.4-.46-5.15-.86-10.25-1-15.42,0-2.59-.05-5.18-.06-7.77a49.84,49.84,0,0,1,.22-6.81,7.81,7.81,0,0,1,2.88-5.42c2.7-2,6.52-2,9.74-2.06,1.2,0,2.4,0,3.6,0l0,.33h0a.33.33,0,0,0,.28-.15.33.33,0,0,0,0-.28h.22c13.19-1,26.37-2.14,39.54-3.33a3.26,3.26,0,0,0,2.82-1.89,74.41,74.41,0,0,1,13.49,10.82c-.08.35-.16.7-.26,1s-.21.58-.34.9a4.16,4.16,0,0,0-.21.71l.25,0c.22,2.54,0,6.23-2,8.09-2.25,2-6,2.08-8.82,2.26-5.11.32-10.25.19-15.37.07-5.36-.13-10.72-.32-16.07-.6-2.47-.13-4.94-.32-7.4-.61a43.61,43.61,0,0,1-7-1.17c-.38-.11-1.1-.39-1.1-.39a56,56,0,0,1,.71,13.53,143.55,143.55,0,0,1-2.4,14.67,34.8,34.8,0,0,0-.76,6.55,22.47,22.47,0,0,0,.24,2.87c0,.18.1.45.16.73a2,2,0,0,1,0,1.23c-.16.3-.63.37-.92.43a17.89,17.89,0,0,1-3,.29,27.05,27.05,0,0,1-6.76-.49,7.71,7.71,0,0,1-1.21-.32,1.57,1.57,0,0,1-.86-.67C709.89,413,710.41,411.28,710.57,410.29Z"/></clipPath><clipPath id="clip-path-8" transform="translate(-334.32 -66.7)"><path id="_Clipping_Path_8" data-name="&lt;Clipping Path&gt;" class="cls-1" d="M770.16,304.29A97,97,0,0,0,760,310.6v0a.33.33,0,0,0-.24-.43.43.43,0,0,1,0-.19,3.31,3.31,0,0,1,.09-.61c.32-1.54.73-3.11,1.11-4.66a5.63,5.63,0,0,1,.82-2,4.13,4.13,0,0,1,.58-.62c.12-.1.25-.19.4-.31a.8.8,0,0,0,.3-.62V301h0a3.1,3.1,0,0,0-.8-1.57,2.33,2.33,0,0,0-1.7-.84c-.42,0-.4.22-1.14.46a2.42,2.42,0,0,1-1.71.11,1.9,1.9,0,0,1-.78-.7,3.17,3.17,0,0,1-.28-.43,4,4,0,0,1-.41-1.26c-.07-.52-.64-2-2.44-5.82a1.5,1.5,0,0,0-.91-.54,3,3,0,0,1-.78-.19.48.48,0,0,1-.25-.22.77.77,0,0,1-.08-.37,1.73,1.73,0,0,1,.16-.69c.27-.62.92-1.14,1.27-2a6.67,6.67,0,0,0,.24-2.22c.08-1.33.44-2.71.59-4.12a29,29,0,0,1,.78-4.58c.15-.57.36-1.12.57-1.69l0-.16a6.87,6.87,0,0,1-.06-.8c0-.45,0-.82.25-1,4.91-3.47,29.86-5.68,19.69,19.57a6.17,6.17,0,0,0-.24,1.18,1.69,1.69,0,0,1-.33.85l-.07.06a.33.33,0,0,0-.43.31,12.45,12.45,0,0,0,.09,1.44c0,.07,0,.23,0,.39a1.09,1.09,0,0,0,.15.54.7.7,0,0,0,.19.21.51.51,0,0,0,.29.08h.25a.87.87,0,0,1,.68.27,3.34,3.34,0,0,1,.68,1.42,7.2,7.2,0,0,1,.22,1.73c0,.1,0,.19,0,.28s-.05.3-.08.53,0,.16,0,.23a1,1,0,0,0,0,.12,13.11,13.11,0,0,0-3,1.18A32.16,32.16,0,0,0,770.16,304.29Z"/></clipPath><clipPath id="clip-path-9" transform="translate(-334.32 -66.7)"><path id="_Compound_Clipping_Path_" data-name="&lt;Compound Clipping Path&gt;" class="cls-9" d="M783.51,364.91a12.17,12.17,0,0,0,.31-2.12v-.2c0-1.48-.72-2.78-1.06-4.39-.63-3.06,1.42,4-.14-22v0c0-4.92,4.48-8.54-.32-22.45a62.55,62.55,0,0,0-3.3-7.87c-.63-1.24-1.31-2.46-2-3.65-.1-.16,0-.62-.07-.74s-.22.17-.23.07c-1,.26-2.66-.57-3.62-.07a37.36,37.36,0,0,0-3.89,1.3c-3.54,1.71-5.87,5.63-9.2,7.78-1.42,4.34-6.43,7.73-4.46,17.83a96,96,0,0,1,1.78,10.41c.08.94.15,1.9.15,2.87,0,.49,0,1-.06,1.47a27.26,27.26,0,0,1-.66,2.95c-.15.74-.26,1.49-.35,2.24,0,.26-.37,3.31-.39,3.57,1.59.29,3.46-2.16,5-1.76C769.6,352.43,777.12,358.68,783.51,364.91ZM771.38,320l0,0a1.36,1.36,0,0,1,.21.32A1.49,1.49,0,0,1,771.38,320Z"/></clipPath><clipPath id="clip-path-10" transform="translate(-334.32 -66.7)"><path id="_Clipping_Path_9" data-name="&lt;Clipping Path&gt;" class="cls-9" d="M776.91,301.51a50.6,50.6,0,0,1,5.2,10.76,38.61,38.61,0,0,1,2.78,11.89,22.21,22.21,0,0,1-.43,5c-.37,1.86-1.1,3.63-1.4,5.5a23.34,23.34,0,0,0,0,4.87c.1,2,.35,4,.52,6a58.9,58.9,0,0,1,.2,6.15,17.6,17.6,0,0,1-.56,4.68c-.63,2.09.88,3.86.91,6a13.82,13.82,0,0,1-.76,4.28c-1.43,4.5-4.88-2.28-15.83-2.29-7.75,0-6-5.93-9.79-5.72l11.12-10Z"/></clipPath><clipPath id="clip-path-11" transform="translate(-334.32 -66.7)"><path id="_Clipping_Path_10" data-name="&lt;Clipping Path&gt;" class="cls-1" d="M847.5,419.67s.46,5.65.61,7,1.53,2.9,1.53,5.5-14.81,5-14.81,5H824.75l2.44-6.26s7.79-3.21,9-4.58,2.08-7.94,2.08-7.94Z"/></clipPath><clipPath id="clip-path-12" transform="translate(-334.32 -66.7)"><path id="_Clipping_Path_11" data-name="&lt;Clipping Path&gt;" class="cls-3" d="M850.4,313.56s4.12,9.16,3.66,12.67-3.36,9.16-3.66,15.73-3.21,17.71-3.21,19.7.46,12.06.46,12.06,4.35,5.65,5,16.41,1.41,30.69,1.41,30.69a39.27,39.27,0,0,1-6.91,1.37c-2.06,0-10.08-2.29-10.08-2.29s.69-19.47,0-22.44-2.75-9.85-3-11.91-3.21-3.89-3.21-6.18-2.29-18.55-3.44-19.47-4.78-19.7-4.57-21.53.72,1.15-.1-4.35,0-8.24,0-8.24l.26-2.64s7.62-11.79,10.52-12S850.4,313.56,850.4,313.56Z"/></clipPath><clipPath id="clip-path-13" transform="translate(-334.32 -66.7)"><path id="_Clipping_Path_12" data-name="&lt;Clipping Path&gt;" class="cls-1" d="M843.66,250.08q-1.36-1.54-2.55-3a7.25,7.25,0,0,1-1.42-2.23,6,6,0,0,1-.36-1.86,4.86,4.86,0,0,1-.89-1,5.27,5.27,0,0,1-.78-2c-.19-.86-.88-2.06-3.13-3.48,0-.35.47-3.81-1.61-5.58a4.81,4.81,0,0,0-1.87-.94c-3.36-.86-4.45,2.67-2,5.05a6.86,6.86,0,0,1,.83,8.8c-.92,1.44-1.43,2.53-1.84,3a8.1,8.1,0,0,1-.81.81c-.49.42-1.62.81-4.43,2,2.16-.88,4.79,1.33,5.87,3.69s-.08,4.46.78,5.2C830.46,259.42,833.88,258.15,843.66,250.08Z"/></clipPath><clipPath id="clip-path-14" transform="translate(-334.32 -66.7)"><path id="_Clipping_Path_13" data-name="&lt;Clipping Path&gt;" class="cls-1" d="M851.32,269.66,858,291.19s2.06,3.32,1.37,4.92-6.41,8.59-6.41,8.59-14.12,15-15.34,15.88-1.22,5.65-1.45,6.64-3.82,3.74-4.89,4.12-5.5-5-5.57-5.73.61-2.67.38-3.28-2.67.53-3.05-.61,1.07-2.9,2-2.9,5.8.31,6.57-.31,15.42-24.12,15-26-2.75-3-3.66-5-6-16.49-6-16.49Z"/></clipPath><clipPath id="clip-path-15" transform="translate(-334.32 -66.7)"><path id="_Clipping_Path_14" data-name="&lt;Clipping Path&gt;" class="cls-4" d="M414.33,294a18.73,18.73,0,0,0-2,3.94c-.69,1.68-1.32,3.39-1.9,5.11a82.3,82.3,0,0,0-2.87,10.64c-1.51,7.74-1.81,15.64-2.29,23.49-.23,3.7-.49,7.4-.75,11.1a17.46,17.46,0,0,0,1.14,8.36c.38.85,1.11,2.22,2.25,1.84a4,4,0,0,0,1.46-1.16,22.12,22.12,0,0,1,3-3c2.65-1.9,6.12-2.73,9.22-3.57,3.61-1,7.29-1.5,10.91-2.38a20.77,20.77,0,0,0,2.26-.69c.63-6,1.25-12,2-17.93a44.35,44.35,0,0,0-1.18-18.36,34.52,34.52,0,0,0-3.9-8.67c-1.78-2.8-4.26-5.32-6.31-8l-9.81-2.11Z"/></clipPath><clipPath id="clip-path-16" transform="translate(-334.32 -66.7)"><path id="_Clipping_Path_15" data-name="&lt;Clipping Path&gt;" class="cls-1" d="M423.71,335.27a25.49,25.49,0,0,0,2.1,7.12,9,9,0,0,0,2,3,18.65,18.65,0,0,0,5.34,3.16c6.51,2.91,4.2,2.06,8.39,3.46a198.41,198.41,0,0,0,20.9,5.38c3,3.16,5.43,3.83,6.37,4a20.58,20.58,0,0,0,3.35.41,21,21,0,0,1,2.86.12c1.44.25,2.7,1.07,4.11,1.43s2.78-.06,3-1.55a2.17,2.17,0,0,0-.77-1.78,15.91,15.91,0,0,0-5.24-3.5c-3.41-1.13-7.23-2.35-11.5-3.57a133,133,0,0,0-17.84-10.35c-2.24-1-6.81-2.9-9.94-7.6a22.74,22.74,0,0,1-1.67-2.9Z"/></clipPath><clipPath id="clip-path-17" transform="translate(-334.32 -66.7)"><path id="_Clipping_Path_16" data-name="&lt;Clipping Path&gt;" class="cls-1" d="M428.46,296a7.32,7.32,0,0,1,1.93-2.73,9.86,9.86,0,0,1,3.85-1.66c.89-.27,1.71-.55,1.78-1.58,0-.09,1.2-6.88,1.28-7,.34-.41,1.13-.34,1.58-.5,2.57-.91-.81-4.58-1.42-5.55s-.13-1.36-.14-2.3a4.81,4.81,0,0,0-.52-1.6,5.76,5.76,0,0,1-.3-1.88c0-.44-.08-.86-.13-1.29-.74.39-.5-.09-1.29-.08s-1.15.85-1.42,1.6a7.6,7.6,0,0,1-1.84,3.28,5.18,5.18,0,0,0-1.88,2.74c-.08.4.27,4.8-1.34,3.72-.8-.54-.73-2.39-.87-3.15a4.12,4.12,0,0,0-1.5-2.33c-1-.94-1.15-2.74-2.95-2.26-2.37.63-1.23,3.46-.83,5a6,6,0,0,0,1.37,2.9,1.06,1.06,0,1,1,1.83.3c-.45.86.07,1.68.09,2.42,0,1.23-1.33,2.2-2,2.66a5.93,5.93,0,0,1-4.06,1,5.4,5.4,0,0,1-4.24,2.26Z"/></clipPath><clipPath id="clip-path-18" transform="translate(-334.32 -66.7)"><path id="_Clipping_Path_17" data-name="&lt;Clipping Path&gt;" class="cls-3" d="M540.69,343.65s-9.78,4.56-13.37,9.62-4.89,4.56-6.52,6.68-2,3.75-.82,6.36,1.79,47.93,1.79,47.93v6.2s3.79-1.14,5.58-1,6.64,1,8.44,1.3,1.14-5.54,1.14-5.54l1.47-4.73s1.3-30.81,2.28-33.42,9.13-7.17,9.13-7.17,0-1.3,8.8,0,17.28-2.93,19.24-.65,2.28,13.69,2.28,19.89.65,10.43,0,14,1.3,13,1.63,14.35a10.45,10.45,0,0,1,.22,2.82,9.37,9.37,0,0,1,5-1.19c3.26,0,8.8-.33,8.8-.33s-2.28-7.5,0-12.39,3.26-23.15,3.26-28.37,2.28-15.32,0-19.24-24.13-15.16-24.13-15.16Z"/></clipPath><clipPath id="clip-path-19" transform="translate(-334.32 -66.7)"><path id="_Clipping_Path_18" data-name="&lt;Clipping Path&gt;" class="cls-5" d="M550,286.18c-9.7,3.93-21.49,6.73-24.36,18-.7,2.77-1.07,5.61-1.81,8.37-.51,1.89-2.5,4.94-1.57,6.91,1.26,2.65,7.86,3.45,10.38,3.65L550,351.31l22.5-5.38,13-24.78,4.08-1.22s2.45.24,2.45-1.06c0-3.18-1.4-6.78-2.12-9.84-1-4.5-1.48-10.23-3.51-14.34-2.34-4.76-8.42-4.93-13-6q-5.18-1.26-10.37-2.45Z"/></clipPath><clipPath id="clip-path-20" transform="translate(-334.32 -66.7)"><path id="_Clipping_Path_19" data-name="&lt;Clipping Path&gt;" class="cls-1" d="M548.35,286.59c-.25.06,0,6.19,0,6.73a4.87,4.87,0,0,0,.32,2.47,7,7,0,0,0,5.28,3.83,11.49,11.49,0,0,0,12.66-5.7V282.19Z"/></clipPath><clipPath id="clip-path-21" transform="translate(-334.32 -66.7)"><path id="_Clipping_Path_20" data-name="&lt;Clipping Path&gt;" class="cls-1" d="M577.37,322.62s2.38-3.63,5.32-3.87a59.16,59.16,0,0,1,8.07.26l-3.12,19.5s1,2.2.24,3.3-4.4,2.45-4.4,2.45l-19.93,11.62h-1.71l-1-2.32-2.69-.49-2.08,2.81h-2.45v-7.09l3.79-2.32,2.81,1.83s13.21-8.18,14.92-10.45l1.71-2.27Z"/></clipPath><clipPath id="clip-path-22" transform="translate(-334.32 -66.7)"><path id="_Clipping_Path_21" data-name="&lt;Clipping Path&gt;" class="cls-6" d="M538.49,322.25l.49,13.08,14.67,13.45v7.09h2.45l2.08-2.81,2.69.49,1,2.32s3.06.73,3.3,1.59-1.71,7.09-2.69,7.34-7.83-.61-7.83-.61l-6-4s.24-7.34,0-8.44-17-7.95-18.59-9.9c-.66-.82-1-2.38-1.83-5.38A127.59,127.59,0,0,1,524.59,320c1.29-.33,3.47,0,5.22-.06C533.72,319.77,536.43,321.48,538.49,322.25Z"/></clipPath></defs><title>team</title><g class="cls-10"><g id="BACKGROUND"><path class="cls-11" d="M833.55,438c13.2-14.57,27.36-35.45,25.19-59s-20.93-29.79-26.55-54.92c-8.7-38.9,15.39-55.75,17.25-91.08C852.8,169.59,782,94.9,714.07,87c-41.05-4.77-46.82,18.81-98.22,15.93C552.56,99.39,541.32,62.52,496.4,67.1c-51.26,5.22-104.77,60.18-104.85,110.16-.08,51.54,56.69,74.63,45.13,114.14-7.64,26.11-37,24.73-53.09,55.74-15.28,29.45,9.13,74.74,21.91,90.86Z" transform="translate(-334.32 -66.7)"/><circle class="cls-11" cx="63.5" cy="26.12" r="19.66"/><circle class="cls-11" cx="71.17" cy="212.24" r="19.66"/><circle class="cls-11" cx="109.95" cy="58.51" r="10.77"/><circle class="cls-11" cx="520.38" cy="239.75" r="11.5"/><circle class="cls-11" cx="516.94" cy="214.07" r="8.05"/><circle class="cls-11" cx="52.09" cy="69.28" r="8.25"/><circle class="cls-11" cx="273.88" cy="20.08" r="8.25"/><circle class="cls-11" cx="446.58" cy="28.33" r="8.25"/><g class="cls-12"><path class="cls-13" d="M576.69,424.21a9.65,9.65,0,0,0,0-4.06,11.13,11.13,0,0,0-1.51-3.59,12.67,12.67,0,0,0-2.53-2.87,13.17,13.17,0,0,0-1.62-1.15,15.35,15.35,0,0,0-1.62-.86,23.91,23.91,0,0,0-6.12-1.71l-2.53-.39-2.53-.34A147.7,147.7,0,0,0,535,408.14c-14.35.45-33.4,3.17-33.43,6.36s18.63,6.43,33.4,7.11a137.88,137.88,0,0,0,23-.87c1.68-.2,3.41-.45,4.85-.68a19.33,19.33,0,0,1,3.85-.33,6.86,6.86,0,0,1,1.65.27,5.58,5.58,0,0,1,1.53.74,4.49,4.49,0,0,1,1.95,2.85Z" transform="translate(-334.32 -66.7)"/><path class="cls-14" d="M574.2,423.48a7,7,0,0,0-.68-3.13,8.27,8.27,0,0,0-1.69-2.35,9,9,0,0,0-2.22-1.61,11,11,0,0,0-2.41-.88,20.66,20.66,0,0,0-4.59-.49l-4.26,0-17-.1-34-.2" transform="translate(-334.32 -66.7)"/><line class="cls-14" x1="187.96" y1="348.07" x2="184.47" y2="351.27"/><line class="cls-14" x1="191.98" y1="348.09" x2="189.29" y2="343.86"/><line class="cls-14" x1="200.72" y1="348.15" x2="198.17" y2="351.91"/><line class="cls-14" x1="207.02" y1="348.18" x2="203.3" y2="343.73"/><line class="cls-14" x1="214.06" y1="348.22" x2="210.35" y2="352.85"/><line class="cls-14" x1="225.45" y1="348.29" x2="222.35" y2="345.19"/><path class="cls-13" d="M610.75,438.86c-.56-2.51-5.85-9-7.28-11.37a32.64,32.64,0,0,0-5.38-6.54,60.66,60.66,0,0,0-11.35-8.16c-3.25-1.89-6.65-3.86-10.25-5.77s-7.36-3.84-11.34-5.64q-3-1.37-6.07-2.74t-6.35-2.6q-3.23-1.31-6.6-2.5c-2.25-.8-4.53-1.61-6.85-2.38a241.87,241.87,0,0,0-29.86-7.64c-17.76-3.31-38.73-4.89-55.18-4s-28.34,3.67-28.64,7.52,10.58,8.52,25.58,13.54,34.16,10.59,51.12,15.18C521.79,421,539.79,424.92,556,428c4.06.76,8,1.52,11.81,2.15s7.54,1.32,11,1.86a48.22,48.22,0,0,1,9.26,2.12,16.94,16.94,0,0,1,3.9,2,12.13,12.13,0,0,1,3.09,3.15Z" transform="translate(-334.32 -66.7)"/><path class="cls-15" d="M600.33,436.35a19.17,19.17,0,0,0-1.65-3.06c-.32-.48-.68-.93-1-1.39s-.78-.9-1.18-1.34a26,26,0,0,0-5.14-4.07A55.78,55.78,0,0,0,581,421.8q-9.84-3.63-19.77-6.93-19.87-6.56-40.08-11.67a579.37,579.37,0,0,0-81.52-14.51" transform="translate(-334.32 -66.7)"/><path class="cls-15" d="M475.6,393.59c-3.22,2.13-6.41,4.29-9.55,6.45" transform="translate(-334.32 -66.7)"/><path class="cls-15" d="M485.24,395.31q-2.31-5.67-4.74-11.35" transform="translate(-334.32 -66.7)"/><path class="cls-15" d="M506.15,399.61c-2.68,2.54-5.35,5.16-8,7.75" transform="translate(-334.32 -66.7)"/><path class="cls-15" d="M521.17,403.2c-2.09-4.24-4.22-8.55-6.45-12.75" transform="translate(-334.32 -66.7)"/><path class="cls-15" d="M537.83,407.68q-5.89,4.2-11.67,8.58" transform="translate(-334.32 -66.7)"/><path class="cls-15" d="M564.6,416c-1.62-3.22-3.3-6.38-5-9.6" transform="translate(-334.32 -66.7)"/><path class="cls-13" d="M692.1,435.59c9.87-4,21.82-8.94,35.38-14.63s28.79-12.07,45.48-19.47c14-6.22,30.63-13.25,44-19.06s23.39-10.68,22.83-14.25c-.52-3.4-11.66-5.36-27-4.62-1.91.1-3.9.21-5.93.37s-4.1.43-6.21.69c-4.24.46-8.58,1.27-13,2.07-2.21.38-4.39.94-6.59,1.43s-4.39,1-6.56,1.62-4.3,1.24-6.42,1.88l-3.15,1-3.07,1.07q-3.49,1.24-6.86,2.52t-6.56,2.8l-3.19,1.43c-1,.5-2.08,1-3.1,1.53q-3.07,1.54-6,3.09c-2,1.06-3.84,2.18-5.71,3.28s-3.69,2.17-5.43,3.34-3.46,2.31-5.13,3.46l-2.47,1.72-2.37,1.79a167.82,167.82,0,0,0-28.85,27.64Z" transform="translate(-334.32 -66.7)"/><path class="cls-16" d="M689.54,430.48a348.34,348.34,0,0,1,137.25-60.27" transform="translate(-334.32 -66.7)"/><path class="cls-16" d="M794.24,378.37c1.79-3,3.62-6.11,5.54-9.06" transform="translate(-334.32 -66.7)"/><polyline class="cls-16" points="451.34 314.37 455.65 317.87 459.91 321.48"/><polyline class="cls-16" points="432.99 321 434.09 316.03 435.27 311.11"/><path class="cls-16" d="M754.35,393.11c3.88,1.9,7.66,3.78,11.42,5.84" transform="translate(-334.32 -66.7)"/><path class="cls-16" d="M740.21,399.7c.9-4.31,1.92-8.55,3-12.87" transform="translate(-334.32 -66.7)"/><path class="cls-16" d="M718.07,411.71c3.15.83,6.21,1.6,9.31,2.53" transform="translate(-334.32 -66.7)"/><path class="cls-13" d="M613.9,344.26C605.28,329.11,590.08,302.68,575,283A362,362,0,0,0,517,222.74c-2.49-2.08-5.17-4.09-7.84-6.14s-5.39-4.11-8.2-6.11-5.69-4-8.56-5.9l-4.32-2.9-4.42-2.76q-4.42-2.73-8.81-5.34c-2.93-1.73-5.93-3.29-8.84-4.86s-5.77-3.07-8.63-4.44-5.69-2.62-8.41-3.82l-4-1.74-2-.82-2-.73c-2.6-1-5.1-1.83-7.47-2.61s-4.63-1.46-6.74-2-4.17-.94-6-1.26c-7.43-1.28-12.3-.89-13.64,1.58s.83,6.86,5.35,12.42c1.12,1.41,2.44,2.81,3.8,4.42s2.88,3.25,4.5,5,3.36,3.48,5.2,5.29,3.68,3.82,5.66,5.78,4,4,6.16,6,4.23,4.25,6.45,6.4c4.47,4.22,8.95,8.85,13.65,13.31l1.76,1.68,1.73,1.73,3.5,3.45c2.33,2.31,4.73,4.52,7.06,6.83s4.66,4.58,7,6.8l3.49,3.31,3.42,3.31c2.61,2.5,5.22,4.94,7.82,7.34s5.14,4.84,7.7,7.17l3.85,3.46L509,280q3.79,3.41,7.56,6.67c5,4.41,9.94,8.6,14.8,12.66S541,307.2,545.68,311a591,591,0,0,0,50.76,36.16Z" transform="translate(-334.32 -66.7)"/><path class="cls-17" d="M608,343.15c-27.34-29.08-60.49-60.33-89.79-87.46-14.64-13.56-29.71-26.61-45.33-38.81a484.08,484.08,0,0,0-48.63-33.58" transform="translate(-334.32 -66.7)"/><path class="cls-17" d="M467.12,212.5c-5.52.58-10.9,1.12-16.38,1.93" transform="translate(-334.32 -66.7)"/><path class="cls-17" d="M478.22,221.13l.9-8.83c.27-2.95.49-5.86.71-8.82" transform="translate(-334.32 -66.7)"/><polyline class="cls-17" points="167.42 174.12 159.72 176.21 152.03 178.43"/><path class="cls-17" d="M518.21,255.69c.28-6.8.58-13.71.65-20.55" transform="translate(-334.32 -66.7)"/><path class="cls-17" d="M536.2,272.77c-6.89.87-13.82,1.86-20.65,2.86" transform="translate(-334.32 -66.7)"/><path class="cls-17" d="M564.58,301.29c0-5.16.08-10.35,0-15.52" transform="translate(-334.32 -66.7)"/><path class="cls-13" d="M665.91,340a457.45,457.45,0,0,0-27.53-119c-2.93-7.7-6.08-15.47-9.65-23.46-1.74-4-3.68-8-5.61-12s-4.06-8.11-6.24-12.19a300.75,300.75,0,0,0-26.74-41.44c-10.26-13.28-21.78-25.25-33.07-34.25-2.74-2.31-5.63-4.32-8.35-6.21-1.37-.95-2.69-1.86-4-2.72s-2.7-1.61-4-2.36-2.56-1.45-3.79-2.12l-1.82-1c-.61-.3-1.23-.57-1.83-.84q-3.61-1.62-6.72-2.75a35,35,0,0,0-5.8-1.61,26.2,26.2,0,0,0-4.69-.54c-2.72,0-4.59.62-5.55,2s-1,3.36-.3,5.87a26.76,26.76,0,0,0,1.56,4.13c.34.75.74,1.51,1.15,2.32s.82,1.7,1.28,2.59c.93,1.77,2,3.64,3.18,5.59s2.34,4.18,3.68,6.37,2.67,4.61,4.12,7c.71,1.23,1.48,2.44,2.21,3.73l2.21,4c6.05,10.67,12.52,23.09,18.8,36.35s12.42,27.34,18.33,40.77l5.09,11.47L576.92,221c3.43,7.46,6.89,14.79,10.35,21.84,6.94,14.13,13.89,27.37,20.73,39.71,13.67,24.66,26.8,45.72,38,62.73Z" transform="translate(-334.32 -66.7)"/><path class="cls-18" d="M655.35,341.72q-23.07-67.27-52.11-131.79c-9.65-21.48-20.12-42.59-32.28-62.41a297.57,297.57,0,0,0-19.85-28.33l-2.69-3.33-1.34-1.66c-.45-.55-.94-1.07-1.41-1.61L540,106.2l-5.91-6.07c-1-1-2-2-3-2.92L528,94.35" transform="translate(-334.32 -66.7)"/><path class="cls-18" d="M566.4,140.37c-3.11-.8-6.35-1.45-9.48-2.11s-6.25-1.27-9.4-1.78" transform="translate(-334.32 -66.7)"/><path class="cls-18" d="M575.07,154.38c3.13-6.16,6.23-12.48,9-18.9" transform="translate(-334.32 -66.7)"/><path class="cls-18" d="M592.12,186.21c-6.24-.83-12.51-1.54-18.71-2.19" transform="translate(-334.32 -66.7)"/><path class="cls-18" d="M603.24,209.92c3.48-7.27,6.82-14.6,10.13-22.06" transform="translate(-334.32 -66.7)"/><path class="cls-18" d="M615,236.72q-11.89-3.26-23.78-6.32" transform="translate(-334.32 -66.7)"/><path class="cls-18" d="M633,280.69q3.6-8.41,7.1-16.9" transform="translate(-334.32 -66.7)"/><path class="cls-13" d="M640.75,437.37c-7.8-10-28.05-33.5-40.27-46.31a427.65,427.65,0,0,0-43.92-40.17c-28.85-22.86-70.51-49.73-75.93-43.53s25.42,43.94,53.49,70a320.69,320.69,0,0,0,47.27,36.34c15,9.46,28.59,19.47,40.12,24.56Z" transform="translate(-334.32 -66.7)"/><path class="cls-19" d="M631.93,435.59c-45.67-36-96.3-79.69-140.26-118.06" transform="translate(-334.32 -66.7)"/><line class="cls-19" x1="186.35" y1="276.06" x2="174.18" y2="276.45"/><line class="cls-19" x1="194.18" y1="282.83" x2="196.01" y2="270.04"/><line class="cls-19" x1="211.25" y1="297.5" x2="199.97" y2="300.66"/><line class="cls-19" x1="223.61" y1="308.03" x2="223.65" y2="293.09"/><line class="cls-19" x1="237.45" y1="319.7" x2="222.49" y2="322.74"/><line class="cls-19" x1="260.02" y1="338.41" x2="258.87" y2="327.18"/><path class="cls-13" d="M656.7,439.69c9.59-11.53,21.1-25.65,33.81-42.05s26.75-35,41.44-56.14c12.33-17.74,26.81-38.58,38-55.66s18.93-30.56,15.5-34.22S767.92,254.52,750.7,267c-2.15,1.56-4.36,3.18-6.59,4.9s-4.44,3.57-6.71,5.45c-4.57,3.71-9.06,7.85-13.6,12.05-2.29,2.08-4.45,4.32-6.66,6.51s-4.4,4.42-6.5,6.69-4.17,4.57-6.2,6.86l-3,3.42-2.86,3.46q-3.23,4-6.3,7.9t-5.8,8l-2.78,4c-.9,1.33-1.76,2.67-2.62,4q-2.58,4-5,7.91c-1.6,2.63-3.08,5.29-4.55,7.89s-2.91,5.17-4.2,7.78-2.57,5.16-3.79,7.69l-1.79,3.78L660.09,379c-8.71,20-15.08,44.5-18.09,59.37Z" transform="translate(-334.32 -66.7)"/><path class="cls-20" d="M648,438.36A672.89,672.89,0,0,1,703.6,345,627,627,0,0,1,772,264" transform="translate(-334.32 -66.7)"/><path class="cls-20" d="M740.23,298.27c-.15-4.9-.31-9.88-.31-14.79" transform="translate(-334.32 -66.7)"/><polyline class="cls-20" points="397.8 241.14 405.51 242.09 413.22 243.17"/><polyline class="cls-20" points="380.87 262.46 378.58 255.74 376.38 249.03"/><path class="cls-20" d="M703.6,345c6-.49,11.9-1,17.89-1.24" transform="translate(-334.32 -66.7)"/><path class="cls-20" d="M691.25,362.92c-1.93-5.83-3.72-11.66-5.51-17.6" transform="translate(-334.32 -66.7)"/><path class="cls-20" d="M672.7,392.84c4.4-1.15,8.68-2.31,13.09-3.34" transform="translate(-334.32 -66.7)"/></g></g><g id="OBJECTS"><path class="cls-2" d="M817.39,357.2l-.34.16c-3.51,1.68-5.38,1.4-8.8-.18a35.86,35.86,0,0,1-8.82-5.49A18.43,18.43,0,0,1,793,340.44a4,4,0,0,1,.47-2.86,3.21,3.21,0,0,1,3.71-.77,11.23,11.23,0,0,1,3.28,2.39,3.71,3.71,0,0,0,1.44.93,1.35,1.35,0,0,0,1.53-.51c.46-.8-.33-1.73-1-2.32-1.64-1.37-3.18-2.16-4.91-3.37a16.22,16.22,0,0,1-5.35-5.75,8.48,8.48,0,0,1-.22-7.63,4.65,4.65,0,0,1,1.57-1.79,5.6,5.6,0,0,1,4.15-.42,40,40,0,0,0,4.16,1c3.35.35,4.67-2,4.61-5.1,0-2.07-.71-4.08-.83-6.15-.21-3.64,1.59-7.52,4.88-9.07s7.9-.07,9.08,3.38c1.28,3.75-1.64,8,.29,11.54a11,11,0,0,0,3.17,3.46c1.84,1.14,4.49-.2,6.63-.1a1.93,1.93,0,0,1,1.33.43,1.82,1.82,0,0,1,.41,1,7.93,7.93,0,0,1-2.4,7.23c-2.22,2-6.06,3-7,6.21-.59,2-.33,6.86,2.79,6.36,1.17-.19,2-1.34,3.08-1.73a3.12,3.12,0,0,1,3.61,1.78,5.47,5.47,0,0,1-.1,4.28,17.93,17.93,0,0,1-4.11,5.55C823.93,351.77,821.76,355,817.39,357.2Z" transform="translate(-334.32 -66.7)"/><line class="cls-21" x1="478.43" y1="244.88" x2="478.43" y2="372.42"/><polyline class="cls-21" points="487.27 258.09 478.43 266.93 469.58 258.09"/><polyline class="cls-21" points="487.27 275.85 478.43 284.69 469.58 275.85"/><path class="cls-22" d="M831.2,411.05l-.3.15c-3.15,1.51-4.82,1.25-7.89-.16a32.15,32.15,0,0,1-7.91-4.92A16.52,16.52,0,0,1,809.35,396a3.59,3.59,0,0,1,.42-2.56,2.88,2.88,0,0,1,3.33-.69,10.06,10.06,0,0,1,2.94,2.14,3.33,3.33,0,0,0,1.29.83,1.21,1.21,0,0,0,1.37-.46c.41-.72-.29-1.55-.93-2.08-1.47-1.23-2.85-1.94-4.4-3a14.54,14.54,0,0,1-4.8-5.15,7.6,7.6,0,0,1-.19-6.84,4.17,4.17,0,0,1,1.41-1.61,5,5,0,0,1,3.72-.38,35.77,35.77,0,0,0,3.73.88c3,.31,4.19-1.8,4.13-4.57,0-1.85-.64-3.66-.75-5.51-.19-3.26,1.42-6.74,4.38-8.13s7.08-.06,8.14,3c1.15,3.36-1.47,7.13.26,10.34a9.81,9.81,0,0,0,2.84,3.11c1.65,1,4-.18,5.94-.09a1.73,1.73,0,0,1,1.19.38,1.63,1.63,0,0,1,.37.86A7.11,7.11,0,0,1,841.6,383c-2,1.81-5.43,2.73-6.28,5.56-.53,1.76-.3,6.14,2.5,5.7,1.05-.17,1.75-1.21,2.76-1.55a2.8,2.8,0,0,1,3.23,1.6,4.91,4.91,0,0,1-.09,3.84,16.07,16.07,0,0,1-3.69,5C837.06,406.18,835.11,409.12,831.2,411.05Z" transform="translate(-334.32 -66.7)"/><line class="cls-21" x1="492.72" y1="303.46" x2="492.72" y2="371.63"/><polyline class="cls-21" points="500.64 315.3 492.71 323.23 484.79 315.3"/><polyline class="cls-21" points="500.64 331.22 492.71 339.15 484.79 331.22"/><path class="cls-23" d="M376.31,424.93l-.4.19c-4.19,2-6.41,1.67-10.49-.22a42.74,42.74,0,0,1-10.52-6.54c-3.94-3.48-7-8.19-7.64-13.41a4.77,4.77,0,0,1,.56-3.41,3.83,3.83,0,0,1,4.43-.92,13.37,13.37,0,0,1,3.9,2.85,4.42,4.42,0,0,0,1.72,1.1,1.61,1.61,0,0,0,1.82-.61c.54-1-.39-2.06-1.23-2.76-2-1.63-3.79-2.57-5.85-4a19.33,19.33,0,0,1-6.38-6.85,10.11,10.11,0,0,1-.26-9.1,5.54,5.54,0,0,1,1.87-2.14,6.68,6.68,0,0,1,4.95-.51,47.66,47.66,0,0,0,5,1.16c4,.42,5.57-2.4,5.49-6.08-.05-2.47-.85-4.86-1-7.33-.25-4.34,1.89-9,5.82-10.81s9.42-.08,10.82,4c1.53,4.47-2,9.48.35,13.75a13,13,0,0,0,3.78,4.13c2.19,1.36,5.35-.24,7.9-.12a2.3,2.3,0,0,1,1.58.51A2.17,2.17,0,0,1,393,379a9.45,9.45,0,0,1-2.86,8.62c-2.64,2.41-7.23,3.63-8.35,7.4-.7,2.34-.4,8.17,3.33,7.58,1.4-.22,2.33-1.6,3.67-2.06a3.72,3.72,0,0,1,4.3,2.12,6.52,6.52,0,0,1-.12,5.1c-1,2.57-3,4.63-4.9,6.61C384.1,418.46,381.51,422.36,376.31,424.93Z" transform="translate(-334.32 -66.7)"/><line class="cls-24" x1="36.45" y1="303.86" x2="36.45" y2="372.58"/><polyline class="cls-24" points="46.99 319.6 36.45 330.14 25.91 319.6"/><polyline class="cls-24" points="46.99 340.77 36.45 351.31 25.91 340.77"/><path class="cls-22" d="M887.83,393.65a40.51,40.51,0,0,0-8.86-4.54,77.56,77.56,0,0,0-12.85-3.4c-8.27-1.55-20.29-2.38-20.27-4.16,0-.83,2.89-1.77,7-2.46a54.07,54.07,0,0,1,14.5-.42,34.2,34.2,0,0,1,14.39,5,24.57,24.57,0,0,1,7.88,8.07Z" transform="translate(-334.32 -66.7)"/><path class="cls-25" d="M888.66,392.57c-4.58-5-11.16-8.08-18-9.63s-14.1-1.67-21.17-1.55" transform="translate(-334.32 -66.7)"/><line class="cls-25" x1="524.52" y1="314.75" x2="522.42" y2="312.98"/><path class="cls-25" d="M861.35,381.6q-1,1.05-1.86,2.13" transform="translate(-334.32 -66.7)"/><path class="cls-25" d="M866.79,382.2c-.4-.74-.82-1.48-1.26-2.21" transform="translate(-334.32 -66.7)"/><path class="cls-25" d="M870.65,382.93c-1,.59-1.87,1.2-2.76,1.84" transform="translate(-334.32 -66.7)"/><path class="cls-25" d="M874.85,384.1c-.45-1-.93-2-1.46-3" transform="translate(-334.32 -66.7)"/><path class="cls-25" d="M881.27,386.88c-.84.18-1.64.36-2.43.59" transform="translate(-334.32 -66.7)"/><path class="cls-22" d="M892.5,394.54a36.85,36.85,0,0,1-6.08-5.38c-1.94-2.1-3.79-4.44-5.63-6.71a64.25,64.25,0,0,0-5.92-6.5,75.46,75.46,0,0,0-7.62-6.24A147.9,147.9,0,0,0,851.06,360c-5.14-2.73-9-4.88-8.64-6.08s4.79-1.29,10.88-.16a61,61,0,0,1,9.93,2.72,54.34,54.34,0,0,1,10,4.87,43.13,43.13,0,0,1,9.12,7.67,39.79,39.79,0,0,1,5.86,8.71c1.4,2.81,2.48,5.39,3.54,7.73a51.24,51.24,0,0,0,3.28,6.26Z" transform="translate(-334.32 -66.7)"/><path class="cls-26" d="M893.61,392.91c-3.82-3.88-6.3-8.42-9-12.63-.68-1.06-1.38-2.09-2.11-3.11s-1.54-2-2.32-2.94a51.9,51.9,0,0,0-5.4-5.27,64,64,0,0,0-12.89-8.17,100.21,100.21,0,0,0-14.35-5.53" transform="translate(-334.32 -66.7)"/><path class="cls-26" d="M860.19,360c-.59-1.18-1.22-2.33-1.88-3.49" transform="translate(-334.32 -66.7)"/><path class="cls-26" d="M863.46,361.59c-1.25.58-2.44,1.15-3.64,1.8" transform="translate(-334.32 -66.7)"/><path class="cls-26" d="M870.25,365.57c-.07-1.22-.17-2.44-.32-3.65" transform="translate(-334.32 -66.7)"/><path class="cls-26" d="M874.77,369c-1.58.1-3.18.37-4.69.61" transform="translate(-334.32 -66.7)"/><path class="cls-26" d="M879.3,373.27a42.42,42.42,0,0,0,.21-4.84" transform="translate(-334.32 -66.7)"/><path class="cls-26" d="M885.29,381.35c-1.17-.38-2.33-.75-3.49-1.06" transform="translate(-334.32 -66.7)"/><path class="cls-22" d="M890.12,391.25c-1-6.16-2.33-15-3.13-25.67-.34-4.5-.69-9.76-.85-14s-.09-7.35.77-7.54,2.4,2.59,3.9,6.66A74.26,74.26,0,0,1,894.33,365a66.56,66.56,0,0,1-1.5,26.22Z" transform="translate(-334.32 -66.7)"/><path class="cls-27" d="M891.51,391.06a172.87,172.87,0,0,0-3.69-43.32" transform="translate(-334.32 -66.7)"/><line class="cls-27" x1="555.25" y1="290.5" x2="556.63" y2="288.05"/><path class="cls-27" d="M890,359.76q-1.26-.73-2.54-1.43" transform="translate(-334.32 -66.7)"/><line class="cls-27" x1="556.33" y1="298.64" x2="558.21" y2="296.83"/><path class="cls-27" d="M891,369.37c-.88-.75-1.74-1.49-2.64-2.21" transform="translate(-334.32 -66.7)"/><line class="cls-27" x1="557.04" y1="307.16" x2="559.42" y2="304.68"/><line class="cls-27" x1="557.31" y1="314.44" x2="555.58" y2="312.46"/><path class="cls-22" d="M893.29,393.09a105.28,105.28,0,0,1,4.91-26.7c2.91-9,8.13-20.53,9.84-19.95s-.27,12.83-2.62,22.24A117.19,117.19,0,0,1,896,393.63Z" transform="translate(-334.32 -66.7)"/><path class="cls-28" d="M894.74,393.2q5.67-21.69,12.25-43.07" transform="translate(-334.32 -66.7)"/><line class="cls-28" x1="569.82" y1="292.83" x2="572.19" y2="291.2"/><line class="cls-28" x1="569.07" y1="295.37" x2="567.32" y2="292.93"/><line class="cls-28" x1="567.46" y1="300.89" x2="569.95" y2="299.93"/><line class="cls-28" x1="566.31" y1="304.88" x2="564.62" y2="301.76"/><line class="cls-28" x1="565.06" y1="309.34" x2="568.21" y2="307.77"/><line class="cls-28" x1="563.06" y1="316.59" x2="561.94" y2="314.1"/><path class="cls-22" d="M887.52,397.67a29.74,29.74,0,0,1,8.87-9.72,50.13,50.13,0,0,1,14.6-7.4,53.41,53.41,0,0,1,7.68-1.76,59.38,59.38,0,0,1,7.36-.59,49.57,49.57,0,0,0,5.38-.41c1.39-.19,2.34-.36,2.6,0s-.26,1.32-1.54,2.39a18.33,18.33,0,0,1-5.53,2.87c-2.25.77-4.53,1.51-6.76,2.27s-4.66,1.68-6.85,2.54c-5,2-9.56,3.91-13.61,5.73a44.28,44.28,0,0,0-9.88,5.67Z" transform="translate(-334.32 -66.7)"/><path class="cls-29" d="M888.83,398.36a33.16,33.16,0,0,1,9.06-7.48,76,76,0,0,1,10.24-5.14,77.3,77.3,0,0,1,10.79-3.53c1.83-.46,3.67-.82,5.53-1.15a40.52,40.52,0,0,0,5.73-1.28" transform="translate(-334.32 -66.7)"/><path class="cls-29" d="M920.25,381.89c.88.44,1.73.87,2.57,1.34" transform="translate(-334.32 -66.7)"/><path class="cls-29" d="M917.66,382.54c.39-.94.81-1.87,1.25-2.81" transform="translate(-334.32 -66.7)"/><path class="cls-29" d="M912.07,384.24c.76.5,1.5,1,2.23,1.54" transform="translate(-334.32 -66.7)"/><path class="cls-29" d="M908.12,385.74c.47-1.12,1-2.21,1.51-3.32" transform="translate(-334.32 -66.7)"/><path class="cls-29" d="M903.8,387.68c1.11.44,2.21.92,3.28,1.4" transform="translate(-334.32 -66.7)"/><path class="cls-29" d="M897.05,391.4c.3-.88.63-1.77,1-2.64" transform="translate(-334.32 -66.7)"/><path class="cls-30" d="M542.73,322.12h25.92a7.4,7.4,0,0,1,7.4,7.4v24.08a19,19,0,0,1-19,19h-5.12a16.2,16.2,0,0,1-16.2-16.2V329.13A7,7,0,0,1,542.73,322.12Z"/><path class="cls-31" d="M876.61,426V394.56a5.74,5.74,0,0,1,5.74-5.74h-6.56a5.74,5.74,0,0,0-5.74,5.74V426a13.28,13.28,0,0,0,13.28,13.28h6.56A13.28,13.28,0,0,1,876.61,426Z" transform="translate(-334.32 -66.7)"/><rect class="cls-30" x="530.86" y="320.24" width="49.21" height="9.21" rx="3" ry="3"/><rect class="cls-32" x="318.78" y="118.27" width="144.93" height="104.24" rx="8.27" ry="8.27"/><rect class="cls-33" x="322.1" y="120.56" width="138.29" height="99.67" rx="8.27" ry="8.27"/><line class="cls-34" x1="382.33" y1="194.2" x2="409.73" y2="194.2"/><line class="cls-34" x1="382.33" y1="198.18" x2="409.73" y2="198.18"/><line class="cls-34" x1="382.33" y1="202.16" x2="409.73" y2="202.16"/><line class="cls-34" x1="382.33" y1="206.13" x2="409.73" y2="206.13"/><line class="cls-34" x1="382.33" y1="210.11" x2="392.96" y2="210.11"/><line class="cls-35" x1="359.44" y1="139.75" x2="398.55" y2="139.75"/><line class="cls-35" x1="359.44" y1="145.43" x2="398.55" y2="145.43"/><line class="cls-35" x1="359.44" y1="151.1" x2="398.55" y2="151.1"/><line class="cls-35" x1="359.44" y1="156.78" x2="398.55" y2="156.78"/><line class="cls-35" x1="359.44" y1="162.46" x2="374.61" y2="162.46"/><path class="cls-8" d="M751,219.32h3.66a5,5,0,0,0,.12-1.07v-8.17h-9.56v13.19h4.55a5,5,0,0,0,1.24-.16Z" transform="translate(-334.32 -66.7)"/><path class="cls-36" d="M751,223.1a5,5,0,0,0,3.66-3.78H751Z" transform="translate(-334.32 -66.7)"/><path class="cls-37" d="M767.65,256.85h7.85a10.78,10.78,0,0,0,.25-2.3V237H755.24v28.3H765a10.74,10.74,0,0,0,2.65-.34Z" transform="translate(-334.32 -66.7)"/><path class="cls-38" d="M767.65,265a10.76,10.76,0,0,0,7.85-8.11h-7.85Z" transform="translate(-334.32 -66.7)"/><path class="cls-37" d="M773.73,215.76h7.85a10.78,10.78,0,0,0,.25-2.3V195.92H761.32v28.3h9.77a10.74,10.74,0,0,0,2.65-.34Z" transform="translate(-334.32 -66.7)"/><path class="cls-38" d="M773.73,223.88a10.76,10.76,0,0,0,7.85-8.11h-7.85Z" transform="translate(-334.32 -66.7)"/><path class="cls-39" d="M891.84,189.15H836l-15,9.73V157.55c0-8.31,7.72-15,17.25-15h53.57c9.53,0,17.25,6.73,17.25,15v16.56C909.1,182.42,901.37,189.15,891.84,189.15Z" transform="translate(-334.32 -66.7)"/><rect class="cls-40" x="502.72" y="87.16" width="54.8" height="5.15" rx="1.45" ry="1.45"/><rect class="cls-40" x="502.72" y="96.48" width="54.8" height="5.15" rx="1.45" ry="1.45"/><rect class="cls-40" x="502.72" y="105.78" width="32.97" height="5.15" rx="1.45" ry="1.45"/><path class="cls-39" d="M438,205.5H469l16.88,11V169.91c0-9.36-8.7-16.94-19.43-16.94H438c-10.73,0-19.43,7.58-19.43,16.94v18.65C418.61,197.92,427.31,205.5,438,205.5Z" transform="translate(-334.32 -66.7)"/><path class="cls-33" d="M452.14,195.29a4.31,4.31,0,1,1,.1,0Zm-2.63-11.11-1.05-21.69H456L455,184.18Z" transform="translate(-334.32 -66.7)"/><path class="cls-13" d="M702.47,171.16H671.53l-16.88,11V135.57c0-9.36,8.7-16.94,19.43-16.94h28.39c10.73,0,19.43,7.58,19.43,16.94v18.65C721.9,163.58,713.2,171.16,702.47,171.16Z" transform="translate(-334.32 -66.7)"/><path class="cls-33" d="M673,160.49a.78.78,0,0,1,0-.19c.93-1.84-.59-2.73-1.49-3.85a.59.59,0,0,0-.57-.15c-.29,0-.57.08-.86.1-1.13.09-1.13.09-1.6-.93a14.22,14.22,0,0,1-.85-2.46c-.1-.4-.06-.73.33-.88,1.38-.53,1.57-1.61,1.61-2.94a1.77,1.77,0,0,0-.87-1.82c-.21-.13-.38-.32-.58-.46a.56.56,0,0,1-.21-.7,13.74,13.74,0,0,1,1.47-3.14.52.52,0,0,1,.68-.27c1.41.6,2.4,0,3.37-1a1.73,1.73,0,0,0,.62-1.63c-.22-1.43-.17-1.44,1.18-2a14.46,14.46,0,0,1,2.18-.72c.38-.1.66,0,.83.31a2.58,2.58,0,0,0,2.68,1.62,2.28,2.28,0,0,0,2.22-1c.59-.89.66-.84,1.67-.46a17.54,17.54,0,0,1,2.29,1.1c.45.25.66.57.47,1a2.47,2.47,0,0,0,.71,2.82,2.28,2.28,0,0,0,2.56.87c.62-.17.9.09,1.14.62a15,15,0,0,1,1,2.86c.08.35.06.64-.29.78-1.43.55-1.66,1.65-1.66,3a1.69,1.69,0,0,0,.82,1.72c.21.12.38.32.58.46a.58.58,0,0,1,.25.75,14.31,14.31,0,0,1-1.42,3.09.6.6,0,0,1-.78.31c-1.3-.52-2.17,0-3.18.87a2.22,2.22,0,0,0-.66,2.4.88.88,0,0,1-.6,1.11,14.71,14.71,0,0,1-2.86,1c-.38.09-.68.06-.83-.31-.56-1.36-1.61-1.58-3-1.65a2,2,0,0,0-1.92,1.07c-.62.77-.62.76-1.53.43a13.07,13.07,0,0,1-2.56-1.25C673.15,160.91,672.91,160.77,673,160.49Zm7.31-16.79a6.39,6.39,0,1,0,6.4,6.4A6.26,6.26,0,0,0,680.33,143.7Z" transform="translate(-334.32 -66.7)"/><path class="cls-33" d="M693.89,145.18a.58.58,0,0,1,0-.14c.7-1.38-.44-2-1.12-2.9a.44.44,0,0,0-.43-.12l-.65.08c-.85.07-.85.07-1.2-.7a10.68,10.68,0,0,1-.64-1.85c-.08-.3,0-.55.25-.66,1-.4,1.18-1.21,1.21-2.21a1.33,1.33,0,0,0-.66-1.37c-.16-.1-.29-.24-.44-.35a.42.42,0,0,1-.16-.53,10.32,10.32,0,0,1,1.1-2.36.39.39,0,0,1,.51-.21,2.06,2.06,0,0,0,2.53-.76,1.3,1.3,0,0,0,.47-1.23c-.17-1.07-.13-1.08.89-1.52a10.85,10.85,0,0,1,1.64-.54c.28-.07.5,0,.62.24a1.94,1.94,0,0,0,2,1.22,1.71,1.71,0,0,0,1.67-.73c.45-.67.5-.63,1.25-.35a13.17,13.17,0,0,1,1.72.83c.34.19.49.43.35.79a1.86,1.86,0,0,0,.54,2.12,1.71,1.71,0,0,0,1.92.65c.46-.13.68.07.86.46a11.3,11.3,0,0,1,.76,2.15c.06.26,0,.48-.22.58-1.07.41-1.25,1.24-1.24,2.28a1.27,1.27,0,0,0,.62,1.29c.16.09.29.24.44.34a.44.44,0,0,1,.19.56,10.75,10.75,0,0,1-1.07,2.32.45.45,0,0,1-.59.23,2.08,2.08,0,0,0-2.39.65,1.67,1.67,0,0,0-.49,1.8.66.66,0,0,1-.45.83,11.05,11.05,0,0,1-2.15.76c-.28.07-.51,0-.62-.23-.42-1-1.21-1.18-2.24-1.24a1.53,1.53,0,0,0-1.44.81c-.47.58-.46.57-1.15.33a9.82,9.82,0,0,1-1.92-.94C694,145.5,693.81,145.39,693.89,145.18Zm5.49-12.61a4.8,4.8,0,1,0,4.8,4.81A4.7,4.7,0,0,0,699.39,132.57Z" transform="translate(-334.32 -66.7)"/><path class="cls-13" d="M600.31,223.23H569.37l-16.88,11V187.64c0-9.36,8.7-16.94,19.43-16.94h28.39c10.73,0,19.43,7.58,19.43,16.94v18.65C619.74,215.65,611,223.23,600.31,223.23Z" transform="translate(-334.32 -66.7)"/><polygon class="cls-9" points="251.8 112.88 257 123.42 268.63 125.12 260.21 133.32 262.2 144.91 251.8 139.44 241.39 144.91 243.38 133.32 234.96 125.12 246.59 123.42 251.8 112.88"/><path class="cls-6" d="M504.42,272.81a4.83,4.83,0,0,0,1.29-3.16,5,5,0,0,0-.6-2.67,5.38,5.38,0,0,0-2.19-2.07,5.14,5.14,0,0,0-3-.51,8.61,8.61,0,0,0-4.21,1.68A5.28,5.28,0,0,0,494,268.6a9.35,9.35,0,0,0-.35,4.7,9.71,9.71,0,0,0,.83,2.15c.47,1,.95,2,1.46,3,1,1.92,2.14,3.76,3.25,5.63a21.88,21.88,0,0,1,1.36,2.53,14.85,14.85,0,0,0,1,2.25,3,3,0,0,0,1.15,1.07c.83.44,1.69.79,2.49,1.29,1.78,1.12,3.51,2.29,5.38,3.27A30.16,30.16,0,0,0,516,296.6,41.94,41.94,0,0,0,521.9,298c1.24.2,2.41.44,4,.59a35.84,35.84,0,0,0,4.86.11l8-3.82.42-3.65-2.58-3.58-1.91-.43-6,2.95-1.69,2.3-2.81.17a40.68,40.68,0,0,1-5.34-3.43,51.93,51.93,0,0,0-4.9-3.64c-1.55-1-2.41-1.44-2.41-1.44a17,17,0,0,1-2.46-1.4,6.53,6.53,0,0,1-2-3.1c-.42-1.05-.84-2.1-1.24-3.16s-.8-1.91-1.2-2.87c-.61-1.45-1.5-3.36-2.63-5.65Z" transform="translate(-334.32 -66.7)"/><path class="cls-7" d="M520.11,433.92a12.63,12.63,0,0,0-4-.41A13.64,13.64,0,0,1,511,432a31.48,31.48,0,0,1-4.75-3,21.9,21.9,0,0,1-2.16-1.78,1.8,1.8,0,0,0-.81-.58,2.37,2.37,0,0,0-.38-.06c.49-.3.22-.9.08-1.35-.31-1-.68-2-1-3-.2-.74-.22-1.48-.36-2.23-.21-1.11-1-2.14-.92-3.31a2.37,2.37,0,0,0,0-.84c-.08-.32-.37-.54-.45-.85a7.45,7.45,0,0,1,0-1.55c0-1.16-.1-2.31-.15-3.47-.09-2.07-.13-4.14-.07-6.21s.18-3.92.41-5.86c.27-2.32.53-4.63.64-7a21,21,0,0,1,.28-2.77,18.51,18.51,0,0,0,.17-2.66,6.51,6.51,0,0,1,.38-2c.32-.9.52-1.83.81-2.73a16.41,16.41,0,0,1,.94-2,11.35,11.35,0,0,0,.79-2.53,34.21,34.21,0,0,0,.42-6.19,29.93,29.93,0,0,1,1-5.82c.53-2.3,1.18-4.56,1.78-6.84.5-1.88,1-3.76,1.44-5.65a56.77,56.77,0,0,0,1.06-5.93c.27-2.28.59-4.56.78-6.84.09-1,.1-2.1.18-3.14.07-.89.27-1.75.35-2.63a23.62,23.62,0,0,0-.07-2.47,8.87,8.87,0,0,1,.62-2.89,11.88,11.88,0,0,1,.65-1.47,6.6,6.6,0,0,0,.72-1.44,27.64,27.64,0,0,0,.58-3,23.39,23.39,0,0,0,.18-2.87L490,311.83c-.68.78-1.31,1.6-1.92,2.43a26,26,0,0,0-3.29,5.62,15.11,15.11,0,0,0-1,6.23,28.75,28.75,0,0,0,1.42,6.8c.34,1.14.72,2.27,1.08,3.4a13.29,13.29,0,0,0,1,2.57c.21.36.56.61.76,1a1.54,1.54,0,0,1,.11.84c0,1.5.82,2.77,1,4.23a5.23,5.23,0,0,1-.17,1.45A5,5,0,0,0,489,348a18.17,18.17,0,0,1,.1,2.85c0,1.27,0,2.54,0,3.81,0,2.33,0,4.66.12,7,.06,1.44.13,2.88.18,4.32a13.17,13.17,0,0,1-.15,2.78,8.55,8.55,0,0,0-.28,2.22,5.48,5.48,0,0,1-.15,1.82,9.56,9.56,0,0,0-.41,2.26,11.57,11.57,0,0,0,.26,1.63,11,11,0,0,1-.07,2c0,1.11,0,2.22-.07,3.33-.18,2.32-.58,4.62-.81,6.93a67.61,67.61,0,0,0-.41,7.11,49,49,0,0,0,.58,7c.35,2.33.8,4.64,1.05,7,.28,2.59.4,5.2.57,7.81.15,2.2.52,4.38.67,6.58.09,1.19.1,2.39.15,3.59a4.74,4.74,0,0,0,.3,1.8c-.46.1-.63.61-.76,1a23.08,23.08,0,0,0-.86,5.61,14.76,14.76,0,0,0,0,2.52,1.33,1.33,0,0,0,.19.64c.4.57,1.43.66,2,.74a35.26,35.26,0,0,0,4.72.19h8.23a102.7,102.7,0,0,0,11.56-.29,15.31,15.31,0,0,0,5.08-1.31c.56-.28,1.07-.61,1.12-1.28A3.36,3.36,0,0,0,520.11,433.92Z" transform="translate(-334.32 -66.7)"/><path id="_Clipping_Path_22" data-name="&lt;Clipping Path&gt;" class="cls-1" d="M510,231.23q.17.76.29,1.53a19.6,19.6,0,0,1,.21,3.33c0,1-.25,2-.22,3.07a3.83,3.83,0,0,0,.67,1.66,18.31,18.31,0,0,1,1.29,2.63c.15.45.23,1.09-.31,1.29s-1.67-.1-1.89.71c-.11.41,0,.87-.1,1.27s-.35.35-.55.54a1,1,0,0,0-.28.64,5.42,5.42,0,0,1-.17,1.45c-.16.43-.47.63-.72,1a1.83,1.83,0,0,0-.19,1c0,1,0,2.17-1.24,2.44a6.61,6.61,0,0,1-2.18-.08,10.79,10.79,0,0,0-2.76-.19,1.66,1.66,0,0,0-1.07.62,7.25,7.25,0,0,0-1.24,2.06,29.52,29.52,0,0,0,1.4,5.8c.8,1.69-2.53,2.4-2.53,2.4l-8.72-4-3.08-4.75,2-5.28a8.84,8.84,0,0,0,.61-2.64l.45-17.38,11.74-4.16,8.58,4.92Z" transform="translate(-334.32 -66.7)"/><g class="cls-41"><path class="cls-6" d="M502.63,253.61s-5.06-2.25-6.51-6.89c.08,3.67,4.42,9.69,4.42,9.69Z" transform="translate(-334.32 -66.7)"/></g><path class="cls-8" d="M508.38,319.1a23.38,23.38,0,0,1-.18,2.87,27.69,27.69,0,0,1-.58,3,6.6,6.6,0,0,1-.72,1.44,11.93,11.93,0,0,0-.65,1.47,8.87,8.87,0,0,0-.62,2.89,23.56,23.56,0,0,1,.07,2.47c-.08.88-.28,1.75-.35,2.63-.08,1-.09,2.1-.18,3.14-.19,2.29-.51,4.57-.78,6.84a56.71,56.71,0,0,1-1.06,5.93c-.44,1.9-.94,3.77-1.44,5.65-.6,2.28-1.25,4.54-1.78,6.84a29.89,29.89,0,0,0-1,5.82,34.25,34.25,0,0,1-.42,6.19,11.36,11.36,0,0,1-.79,2.53,16.37,16.37,0,0,0-.94,2c-.29.91-.49,1.83-.81,2.73a6.51,6.51,0,0,0-.38,2,18.54,18.54,0,0,1-.17,2.66,21.06,21.06,0,0,0-.28,2.77c-.11,2.34-.37,4.64-.64,7-.22,1.94-.35,3.9-.41,5.86s0,4.14.07,6.21c0,1.16.11,2.31.15,3.47a7.46,7.46,0,0,0,0,1.55c.08.31.37.53.45.85a2.37,2.37,0,0,1,0,.84c-.12,1.17.71,2.2.92,3.31.14.75.16,1.49.36,2.23.27,1,.64,2,1,3,.15.47.43,1.09-.11,1.37l-2.79,4.5c-1.86.9-9.46-1.34-9.46-1.34a4.75,4.75,0,0,1-.3-1.8c-.05-1.2-.07-2.39-.15-3.59-.16-2.2-.53-4.38-.67-6.58-.17-2.6-.29-5.21-.57-7.81-.25-2.34-.71-4.65-1.05-7a49,49,0,0,1-.58-7,67.59,67.59,0,0,1,.41-7.11c.23-2.31.64-4.62.81-6.93.08-1.11,0-2.22.07-3.33a11,11,0,0,0,.07-2,11.58,11.58,0,0,1-.26-1.63,9.55,9.55,0,0,1,.41-2.26,5.48,5.48,0,0,0,.15-1.82,8.54,8.54,0,0,1,.28-2.22,13.2,13.2,0,0,0,.15-2.78c0-1.44-.12-2.88-.18-4.32-.1-2.33-.11-4.66-.12-7,0-1.27,0-2.54,0-3.81a18.19,18.19,0,0,0-.1-2.85,5,5,0,0,1-.16-1.59,5.23,5.23,0,0,0,.17-1.45c-.15-1.46-1-2.73-1-4.23a1.54,1.54,0,0,0-.11-.84c-.2-.35-.55-.6-.76-1a13.27,13.27,0,0,1-1-2.57c-.37-1.13-.74-2.26-1.08-3.4a28.75,28.75,0,0,1-1.42-6.8,15.11,15.11,0,0,1,1-6.23,26,26,0,0,1,3.29-5.62c.6-.84,1.24-1.65,1.92-2.43Z" transform="translate(-334.32 -66.7)"/><path id="_Clipping_Path_23" data-name="&lt;Clipping Path&gt;" class="cls-2" d="M485.34,284.25a34.24,34.24,0,0,1-2.7-10.22,26.36,26.36,0,0,1,.94-10.07c.49-1.62,1.36-3,1.7-4.7l2.4-6.5a50.56,50.56,0,0,0,8.31,6.69,9.06,9.06,0,0,0,4.12,1.39h.53l10.13,11.71a9.07,9.07,0,0,1,2.3,2.59,10.3,10.3,0,0,1,1.13,5.74c-.09,1.21-.32,2.41-.4,3.63a13.62,13.62,0,0,0,.22,3.18c.41,2.4.81,4.79,1.06,7.21.27,2.62,1.43,17.69,1.6,19.06s.36,2.44.5,3.16a16.91,16.91,0,0,1-7.6,2.59c-4,.31-8.56-1-10.79,0a2,2,0,0,1-1.51.16c-.32-.18-.31-.8-.35-1.1-.09-.6-.16-1.21-.26-1.81a1.72,1.72,0,0,0-.14-.59c-.1-.17-.2-.19-.38-.12s-2.11,2.06-2.42,2.31c-.79.63-3.39-.44-10.78-7.07a9.62,9.62,0,0,0,2.79-2.08,8.77,8.77,0,0,0,1-1.32,2.76,2.76,0,0,1,1.12-1.27,3.13,3.13,0,0,0,1.05-1c.25-.39.26-.87.5-1.24s.58-.38.86-.56a2.61,2.61,0,0,0,.81-1Z" transform="translate(-334.32 -66.7)"/><g class="cls-42"><path class="cls-31" d="M499.45,272.25s-3.46,13.65-3.12,14.58S500.21,307,500.21,307l-11-22.67,6.32-12.3Z" transform="translate(-334.32 -66.7)"/></g><path class="cls-43" d="M484.79,429.74c-.46.1-.63.61-.76,1a23.05,23.05,0,0,0-.86,5.61,14.75,14.75,0,0,0,0,2.52,1.33,1.33,0,0,0,.19.64c.4.57,1.43.66,2,.74a35.31,35.31,0,0,0,4.72.19h8.23a102.66,102.66,0,0,0,11.56-.29,15.32,15.32,0,0,0,5.08-1.31c.56-.28,1.07-.61,1.12-1.28a3.36,3.36,0,0,0-1.81-3.64,12.63,12.63,0,0,0-4-.41,13.63,13.63,0,0,1-5.13-1.5,31.5,31.5,0,0,1-4.75-3,21.89,21.89,0,0,1-2.16-1.78,1.8,1.8,0,0,0-.81-.58c-2-.48-2.76,1.84-3.95,2.89a5,5,0,0,1-2.72,1.1,8.34,8.34,0,0,1-2.56-.1c-.89-.17-1.72-.5-2.6-.7A2,2,0,0,0,484.79,429.74Z" transform="translate(-334.32 -66.7)"/><path class="cls-1" d="M495.47,277.15a5.54,5.54,0,0,0,3-2.66,6.3,6.3,0,0,0,.81-3.25,7.06,7.06,0,0,0-1.16-3.54,6.27,6.27,0,0,0-2.81-2.32,9.59,9.59,0,0,0-5.27-.68,5.87,5.87,0,0,0-3.17,1.68,11.32,11.32,0,0,0-2.87,4.9,12.59,12.59,0,0,0-.29,2.83c0,1.35-.08,2.71-.07,4.06,0,2.68.21,5.35.35,8a28.71,28.71,0,0,1,.05,3.55,19.36,19.36,0,0,0-.16,3,4,4,0,0,0,.62,1.84c.62,1,1.33,1.86,1.89,2.88,1.25,2.27,2.42,4.57,3.82,6.74a43.49,43.49,0,0,0,4.48,5.56c1.8,2,3.56,4,5.51,5.87s3.84,3.37,5.84,4.92a13.89,13.89,0,0,0,4.9,2,16.08,16.08,0,0,0,8.22-.28,9.63,9.63,0,0,0,2.37-5.67,10,10,0,0,0-.67-4.32,16.5,16.5,0,0,1-5.58-1.85l-.7-.41a10,10,0,0,1,2.85-1.32c1-.27,1.69-.3,1.94-.86a1.8,1.8,0,0,0-.34-1.61,2.85,2.85,0,0,0-3.19-.75l-9.23,5.61c-.13-.12-.33-.3-.55-.53-2-2-2.48-4-3.91-6.71-1.24-2.39-2.35-4.85-3.59-7.23-.53-1-1.1-2-1.73-3a21.88,21.88,0,0,1-1.8-3,8.59,8.59,0,0,1-.37-4.52c.13-1.39.25-2.78.41-4.17s.19-2.54.29-3.82a71.1,71.1,0,0,0,.3-7.68Z" transform="translate(-334.32 -66.7)"/><path class="cls-7" d="M509.57,233.48c-3.13,2.76-5.12,3-6.41,2.65-1.47-.44-2.79-2-3.77-1.44a1.46,1.46,0,0,0-.64,1,4.78,4.78,0,0,1,.56,2.4c0,1.06-.47,2.53-1,2.57-1,.06-1.6-3.68-2.4-3.61s-.6,2.84-1.49,6.26c-.71,2.73-1.81,6.95-5.22,9-.47.28-3.79,2.2-6.83.63A6.17,6.17,0,0,1,479,248a6.33,6.33,0,0,1,1.46-4.5,7.32,7.32,0,0,1-3.71-3.84c-.1-.25-1.33-3.43.24-5.77,1.14-1.7,2.67-1.38,3.13-2.81s-1.13-2.21-1.2-4.49c-.1-3,2.58-5.1,2.73-5.21a7.06,7.06,0,0,1,3.45-1.36,8.5,8.5,0,0,1,5.77,1.44,6.8,6.8,0,0,1,2.48-3.45,7.21,7.21,0,0,1,5.37-1,6.31,6.31,0,0,1,4,1.84A5.52,5.52,0,0,1,504,221a7.67,7.67,0,0,1,3.93-2.32,6.65,6.65,0,0,1,4.73.48c2.83,1.55,3.25,4.91,3.29,5.29.25,2.37-1,2.69-.88,5.21.13,3.36,2.38,4.64,1.6,6.09-.63,1.18-2.77,1.58-4.41,1A4.53,4.53,0,0,1,509.57,233.48Z" transform="translate(-334.32 -66.7)"/><path class="cls-1" d="M497.29,238.84c0-.11-.09-.27-.17-.45a4.63,4.63,0,0,0-.33-.72,3.33,3.33,0,0,0-2-1.57,1.93,1.93,0,0,0-2,.89c-.65,1.11-.08,2.85.44,3.89s1.41,2.37,2.59,2.62a1.67,1.67,0,0,0,1.54-.49,1.31,1.31,0,0,0,.14-1Z" transform="translate(-334.32 -66.7)"/><path class="cls-6" d="M495.47,240.17c-.07-.81-1-.35-1.13-1.05s.79-.57.74-1.18-1.77-.49-1.47,1.54S495.53,240.86,495.47,240.17Z" transform="translate(-334.32 -66.7)"/><path class="cls-43" d="M682.65,426.93c0,1.49,2.82,10.44,2.82,10.44h13.75s1.16-3,.83-4.14-4.76-4.47-5-5.14-3.64-9.28-3.64-9.28S682.65,425.44,682.65,426.93Z" transform="translate(-334.32 -66.7)"/><path class="cls-43" d="M615.64,418.73s-2.11,6.71-3.11,8.32-6.71,5.72-7,6.21-1,5.09-1,5.09h19s.87-7,.87-8.45-.62-5.59-.62-5.59l-.5-4.85Z" transform="translate(-334.32 -66.7)"/><path id="_Clipping_Path_24" data-name="&lt;Clipping Path&gt;" class="cls-5" d="M630.47,314.28s-5,15.9-5.3,20.21-4.92,32.49-5.48,35.08c-2.78,12.76-5.78,40.86-5.78,40.86l2,2.59-2,3.86v5a27,27,0,0,1,4.72-.87c1.49,0,5.59,1.74,5.59,1.74s4.43-12.18,4.43-14,2-2.65,1.82-4-.64-4.8,0-6.29a143.4,143.4,0,0,0,3.8-18.22c.25-3.48,4.22-14.41,4.22-14.41s4.72-13.92,5.47-15.9,1.93-12.42,6.55-12.42,12.08,14.91,13.32,20.38,9.19,32.3,10.44,34.29,6,8.7,6,8.7l-1.84,7.23,1.26,9.9s.81,5.13.94,6.25,4.26,0,4.26,0,7.69-1.63,8.93-2.25,1.37-3.35,1.12-4.22a18.3,18.3,0,0,1-1-3.48c0-.87-5.35-36.17-5.85-38.91S683.43,363,682.52,359a111.24,111.24,0,0,1-1.78-16.35c0-3-.5-6.21-.5-7.45s-7-23.11-7-23.11Z" transform="translate(-334.32 -66.7)"/><g class="cls-44"><path class="cls-43" d="M642.23,334.87c2.68,1.71,6.15,2.37,9.67,3C647,345.37,645.38,338.59,642.23,334.87Z" transform="translate(-334.32 -66.7)"/><polygon class="cls-43" points="297.97 339.85 291.35 341.18 295.49 345.32 297.97 339.85"/><polygon class="cls-43" points="341.08 330.29 348.79 335.63 342.32 334.14 341.08 330.29"/></g><path id="_Clipping_Path_25" data-name="&lt;Clipping Path&gt;" class="cls-7" d="M635.11,241.89c-1.45.8-1.71.7-6.42,2.4a43.34,43.34,0,0,0-4.85,1.86c-2.65,2.36-1,6.27-2.32,12.47-.69,3.23-3.22,6.27-3,7.62s4.37,1.19,7.62,1.16c3.61,0,4.18-.88,5.14-.33,3.82,2.18-3.55,16.64-3,31.64.05,1.42.3,6,0,12.18-.14,2.84-.34,5.17-.5,6.71a126.51,126.51,0,0,0,23.36,4c9.77.72,14.2-.12,18.14-2.24a23.36,23.36,0,0,0,6.71-5.47,15.71,15.71,0,0,1-1.49-6.21c0-2.07.39-2.84.25-5.47a28.32,28.32,0,0,0-.75-4.72c-.8-3.75-1.31-5.09-1.74-7-.52-2.26-2.43-10.52,1.74-16.4a12.49,12.49,0,0,1,1.24-1.49c.72.44,1.33,1.78,2.15,1.33s2-9.07,3.06-11.68a18.51,18.51,0,0,0,2-6.79,9.3,9.3,0,0,0-4-9.11c-.65-.51-2-1.52-7.45-4-1.87-.84-2.8-1.26-3.73-1.57a30,30,0,0,0-6.21-1.41c-8.81-1.1-10.86,1.31-17.19,0a9.07,9.07,0,0,0-4.43-.08C637.68,239.8,637.46,240.59,635.11,241.89Z" transform="translate(-334.32 -66.7)"/><g class="cls-45"><path class="cls-43" d="M632.79,255s.62,6.76.62,11.37c0,1.82-1.71.1-1.87.9-.54,2.83-1.18,4.58-2.4,5.79C633.08,275.44,638.84,266.25,632.79,255Z" transform="translate(-334.32 -66.7)"/><path class="cls-43" d="M666.06,265.57s4.16-9.6,4.66-11.09-8.12,9.77-8.12,9.77Z" transform="translate(-334.32 -66.7)"/></g><path id="_Clipping_Path_26" data-name="&lt;Clipping Path&gt;" class="cls-6" d="M650.51,226.82l-2.15,13.92h12.42l-2-14.25Z" transform="translate(-334.32 -66.7)"/><g class="cls-46"><path class="cls-47" d="M646.33,231.46l17.27,1.28s-2,6.34-8.63,6.34-8.63-7-8.63-7" transform="translate(-334.32 -66.7)"/></g><path class="cls-6" d="M639.5,239.33a14.39,14.39,0,0,0,27.83,1.49,41.89,41.89,0,0,0-27.83-1.49Z" transform="translate(-334.32 -66.7)"/><path class="cls-43" d="M646.2,222.93,645.58,212a11.2,11.2,0,0,1,20.38.37l-.75,11.31Z" transform="translate(-334.32 -66.7)"/><polygon class="cls-47" points="310.11 171.49 309.94 176.26 314.04 179.55 315.59 183.67 319.09 195.27 316.2 178.17 312.19 174.99 310.55 169.41 310.11 171.49"/><path id="_Clipping_Path_27" data-name="&lt;Clipping Path&gt;" class="cls-6" d="M619.8,266.29c-.5,3.4.7,12.06.89,18.35a6.57,6.57,0,0,0,5.47,7.12c4,1.07,15.77,2.13,31.64,2.65l11.1-5.3c3.54-3.73,5.33-7.82,4-9.84-1.66-2.59-8.2-1.42-12.32,1.06a16.09,16.09,0,0,0-6.13,7c-3.72-.76-7.72-1.73-11.93-3-3.68-1.09-7.11-2.27-10.27-3.48a38.75,38.75,0,0,0,.48-7.44A28.43,28.43,0,0,0,632,267C627.93,265.89,622.23,265.6,619.8,266.29Z" transform="translate(-334.32 -66.7)"/><g class="cls-48"><rect class="cls-47" x="283.68" y="196.48" width="16.28" height="5.72"/><path class="cls-47" d="M656.16,281.88s4,4.25,8.42,3.75,10.75-7.25,10.75-7.25l-6.75-1.25Z" transform="translate(-334.32 -66.7)"/></g><path class="cls-6" d="M663.72,214.1l.33,7a2,2,0,0,1,1.58.2c.87.61.71,2,.62,2.77a2.49,2.49,0,0,1-.7,1.78,2.09,2.09,0,0,1-1.37.46,13.91,13.91,0,0,1-2.69,6.54c-1.13,1.47-3.35,4.37-6.34,4.22-2.72-.13-4.53-2.72-5.84-4.6a15.68,15.68,0,0,1-2.61-6.58,1.42,1.42,0,0,1-1.12-.25c-.22-.19-.34-.49-.25-2.11.12-2.08.37-2.4.53-2.56a2.08,2.08,0,0,1,1.33-.54l1.24-7.58a11.08,11.08,0,0,1,6.62-2.56A11.55,11.55,0,0,1,663.72,214.1Z" transform="translate(-334.32 -66.7)"/><path class="cls-47" d="M651.35,245.44c.4,2.83.84,3.38,1.23,5.9,2.15-1.06,4.66-.46,7.09-1.82-1.45-3.29-1.72-3.77-2.13-5,.25-2.17.54-3.91.77-5.12s.39-1.85.58-3.06a40.13,40.13,0,0,0,.43-4.1l-1.49.31-1.68,2.55c-.8-1-1.71-2-2.73-3s-2-1.87-2.9-2.65l-1.75,1.75c.21,1.78,3.1,4.1,3.31,5.88C653.9,238.89,649.52,243.65,651.35,245.44Z" transform="translate(-334.32 -66.7)"/><path class="cls-6" d="M668.07,266.74c1.63,1.05,2.89,1.28,5.3,2.82a25.22,25.22,0,0,1,2.9,2.15c-1,5.78-4.65,10.37-9.45,11.72a12.05,12.05,0,0,1-6.68-.13,7.09,7.09,0,0,1-1.77-1,9.09,9.09,0,0,1-3.06-5.31c-.83-3.44-2.83-14.48-5-29.57l-5.47-5.38-.62-5.34,5.26-5.26c.93.78,1.9,1.66,2.9,2.65s1.93,2,2.73,3l1.68-2.55,1.49-.31a40.1,40.1,0,0,1-.43,4.1c-.19,1.21-.35,1.86-.58,3.06s-.53,2.95-.77,5.12c.75,2.28,3.45,10.11,7.4,15.76A14.62,14.62,0,0,0,668.07,266.74Z" transform="translate(-334.32 -66.7)"/><path class="cls-49" d="M735.47,381.95l.51.06-.55.22,0-.27Z" transform="translate(-334.32 -66.7)"/><path class="cls-49" d="M727.9,438.34a.84.84,0,0,1,.18-.24,5.83,5.83,0,0,1,.62-.47,39.63,39.63,0,0,0,3.62-3.39c.13-.13.39-.24.61-.45a1.42,1.42,0,0,0,.35-.66c.07-.24.11-.48.14-.68a13.79,13.79,0,0,0-.09-3.84c-.24-2.18-1-8.09-1-8.88,0-.15,0-.4,0-.65a3.42,3.42,0,0,0-.06-.77l0-.15a6.29,6.29,0,0,0,1,0,22,22,0,0,0,5.6-.92,14.52,14.52,0,0,0,2.41-.84c.23-.11.6-.26.66-.55a1.82,1.82,0,0,0-.28-1,4.92,4.92,0,0,0,.47.28c.39.2.81.37,1.08.52a5.7,5.7,0,0,1,1.18.79,4.63,4.63,0,0,1,1.09,1.61,7.82,7.82,0,0,1,.43,1.29c.54,2.2.14,4.48.39,6.91.2,1.93.51,3.85.86,5.76.09.5.3,1.53.3,1.53,0,.19.19.62.28,1,0,.09,0,.18.05.24h0l-.06,0-.46.13-.28.06h0v0c0-.12-.06-.28-.08-.42s0-.25-.06-.34c-.54-2.2-1.65-6.61-1.65-6.61,0-.15-.09-.64-.2-1.09a2.84,2.84,0,0,0-.18-.54.91.91,0,0,0-.36-.42.56.56,0,0,0-.41-.05,2.63,2.63,0,0,0-1.12.77,9.42,9.42,0,0,0-.81,1,6.16,6.16,0,0,0-.88,1.86,36.22,36.22,0,0,0-.8,5.28,3.32,3.32,0,0,1-.61,1.79,4.93,4.93,0,0,1-2.26,1.07c-.59.17-1.19.33-1.79.48-1.36.33-2.74.61-4.1.93h0c-.28.07-.7.2-1.17.32a6.52,6.52,0,0,1-1.22.2,1.77,1.77,0,0,1-1-.17.71.71,0,0,1-.31-.38v0A.28.28,0,0,1,727.9,438.34Z" transform="translate(-334.32 -66.7)"/><path class="cls-49" d="M730.7,414.61c-.36-3.91-.55-7.72-1.81-11.48-1.42-4.23-2.8-8.44-3.93-12.77-.57-2.17-1.1-4.34-1.63-6.51a44.49,44.49,0,0,1-1.21-5.76,6.82,6.82,0,0,1,1.23-5.12c1.79-2.23,4.89-3,7.5-3.66,1-.25,2-.48,2.93-.71l0,.29h0a.28.28,0,0,0,.2-.18.29.29,0,0,0,0-.24l.18,0c10.53-3.42,21-7,31.48-10.63a2.73,2.73,0,0,0,1.9-2.15A62.69,62.69,0,0,1,780.76,362c0,.31,0,.62,0,.93s-.05.53-.09.83a3.68,3.68,0,0,0,0,.63l.2-.08c.7,2.09,1.3,5.23,0,7.19-1.42,2.15-4.45,2.93-6.71,3.64-4.09,1.28-8.3,2.19-12.49,3.1-4.38,1-8.78,1.86-13.19,2.68-2,.38-4.08.71-6.14,1a35.44,35.44,0,0,1-5.92.4c-2.69-.13.26-1.53,2.37,11.12a127.81,127.81,0,0,1,1,12.8,31,31,0,0,0,.72,5.65,20,20,0,0,0,.78,2.36c.06.15.17.36.28.58a1.82,1.82,0,0,1,.28,1c-.07.28-.43.43-.66.55a14.52,14.52,0,0,1-2.41.84,22,22,0,0,1-5.6.92,6.29,6.29,0,0,1-1,0,1.32,1.32,0,0,1-.84-.4C730.71,417,730.78,415.47,730.7,414.61Z" transform="translate(-334.32 -66.7)"/><rect class="cls-50" x="736.55" y="374.87" width="44.3" height="8.46" rx="2.03" ry="2.03" transform="translate(1183.08 691.5) rotate(180)"/><path class="cls-50" d="M791.47,348.07c0-7.2-.19-14.31.09-21.48a77.33,77.33,0,0,0-.55-14.23c-.3-2.07-1.69-11.52-5.79-9.74-.79.34-1.15,1.47-1.28,2l.55,43.45a3.17,3.17,0,0,0,2.82,3.42h1.34A3.17,3.17,0,0,0,791.47,348.07Z" transform="translate(-334.32 -66.7)"/><path class="cls-51" d="M791.65,323.69v45.46A13.81,13.81,0,0,1,777.84,383h-34" transform="translate(-334.32 -66.7)"/><rect class="cls-52" x="759.77" y="383.33" width="3.45" height="49.38" transform="translate(1188.66 749.34) rotate(180)"/><rect class="cls-52" x="757.01" y="405.9" width="8.96" height="16.89" transform="translate(1188.66 761.97) rotate(180)"/><path class="cls-52" d="M731.33,434.36a54.4,54.4,0,0,1,60.33,0v-2.8a56.15,56.15,0,0,0-60.33,0Z" transform="translate(-334.32 -66.7)"/><circle class="cls-52" cx="457.33" cy="367.66" r="3.86"/><circle class="cls-52" cx="397.01" cy="367.66" r="3.86"/><circle class="cls-52" cx="427.17" cy="367.66" r="3.64"/><path class="cls-49" d="M748.39,438.65Z" transform="translate(-334.32 -66.7)"/><path class="cls-1" d="M700.61,436.2a1,1,0,0,1,.28-.22,7.07,7.07,0,0,1,.85-.36,47.8,47.8,0,0,0,5.16-2.82c.19-.11.52-.16.83-.34a1.66,1.66,0,0,0,.59-.65,7.89,7.89,0,0,0,.35-.72,15.52,15.52,0,0,0,1-4.35c.33-2.51,1.16-9.36,1.3-10.27,0-.17.1-.45.18-.74a3.84,3.84,0,0,0,.14-.88v-.18a7.71,7.71,0,0,0,1.21.32,27.05,27.05,0,0,0,6.76.49,17.89,17.89,0,0,0,3-.29c.29-.06.76-.13.92-.43a2,2,0,0,0,0-1.23,5.76,5.76,0,0,0,.46.44c.4.34.83.64,1.11.88a6.68,6.68,0,0,1,1.15,1.21,5.26,5.26,0,0,1,.81,2.11,8.77,8.77,0,0,1,.14,1.56c0,2.62-1.1,5.08-1.5,7.87-.31,2.22-.5,4.47-.63,6.71,0,.58-.08,1.8-.08,1.8,0,.23,0,.75,0,1.17,0,.11,0,.21,0,.29h-.08l-.57,0h-.36v-.06c0-.14,0-.33,0-.49s0-.29,0-.39c0-2.62-.05-7.88-.05-7.88,0-.18.07-.75.08-1.28a3.17,3.17,0,0,0-.06-.65,1,1,0,0,0-.3-.58.68.68,0,0,0-.46-.17,3.2,3.2,0,0,0-1.51.56,11.22,11.22,0,0,0-1.22.88,7.18,7.18,0,0,0-1.55,1.85,41.17,41.17,0,0,0-2.42,5.72,3.82,3.82,0,0,1-1.21,1.84,6.05,6.05,0,0,1-2.92.58c-.74,0-1.48,0-2.22,0-1.67,0-3.35-.06-5-.08h-.05c-.34,0-.87,0-1.45,0a8,8,0,0,1-1.47-.11,2.14,2.14,0,0,1-1.06-.45.81.81,0,0,1-.26-.51v0A.32.32,0,0,1,700.61,436.2Z" transform="translate(-334.32 -66.7)"/><path id="_Clipping_Path_28" data-name="&lt;Clipping Path&gt;" class="cls-8" d="M710.57,410.29c.68-4.5,1.54-8.83,1.14-13.4-.46-5.15-.86-10.25-1-15.42,0-2.59-.05-5.18-.06-7.77a49.84,49.84,0,0,1,.22-6.81,7.81,7.81,0,0,1,2.88-5.42c2.7-2,6.52-2,9.74-2.06,1.2,0,2.4,0,3.6,0l0,.33h0a.33.33,0,0,0,.28-.15.33.33,0,0,0,0-.28h.22c13.19-1,26.37-2.14,39.54-3.33a3.26,3.26,0,0,0,2.82-1.89,74.41,74.41,0,0,1,13.49,10.82c-.08.35-.16.7-.26,1s-.21.58-.34.9a4.16,4.16,0,0,0-.21.71l.25,0c.22,2.54,0,6.23-2,8.09-2.25,2-6,2.08-8.82,2.26-5.11.32-10.25.19-15.37.07-5.36-.13-10.72-.32-16.07-.6-2.47-.13-4.94-.32-7.4-.61a43.61,43.61,0,0,1-7-1.17c-.38-.11-1.1-.39-1.1-.39a56,56,0,0,1,.71,13.53,143.55,143.55,0,0,1-2.4,14.67,34.8,34.8,0,0,0-.76,6.55,22.47,22.47,0,0,0,.24,2.87c0,.18.1.45.16.73a2,2,0,0,1,0,1.23c-.16.3-.63.37-.92.43a17.89,17.89,0,0,1-3,.29,27.05,27.05,0,0,1-6.76-.49,7.71,7.71,0,0,1-1.21-.32,1.57,1.57,0,0,1-.86-.67C709.89,413,710.41,411.28,710.57,410.29Z" transform="translate(-334.32 -66.7)"/><g class="cls-53"><path class="cls-7" d="M719.85,371.2l8.18,6v4.45S720.49,375.73,719.85,371.2Z" transform="translate(-334.32 -66.7)"/></g><path id="_Clipping_Path_29" data-name="&lt;Clipping Path&gt;" class="cls-1" d="M770.16,304.29A97,97,0,0,0,760,310.6v0a.33.33,0,0,0-.24-.43.43.43,0,0,1,0-.19,3.31,3.31,0,0,1,.09-.61c.32-1.54.73-3.11,1.11-4.66a5.63,5.63,0,0,1,.82-2,4.13,4.13,0,0,1,.58-.62c.12-.1.25-.19.4-.31a.8.8,0,0,0,.3-.62V301h0a3.1,3.1,0,0,0-.8-1.57,2.33,2.33,0,0,0-1.7-.84c-.42,0-.4.22-1.14.46a2.42,2.42,0,0,1-1.71.11,1.9,1.9,0,0,1-.78-.7,3.17,3.17,0,0,1-.28-.43,4,4,0,0,1-.41-1.26c-.07-.52-.64-2-2.44-5.82a1.5,1.5,0,0,0-.91-.54,3,3,0,0,1-.78-.19.48.48,0,0,1-.25-.22.77.77,0,0,1-.08-.37,1.73,1.73,0,0,1,.16-.69c.27-.62.92-1.14,1.27-2a6.67,6.67,0,0,0,.24-2.22c.08-1.33.44-2.71.59-4.12a29,29,0,0,1,.78-4.58c.15-.57.36-1.12.57-1.69l0-.16a6.87,6.87,0,0,1-.06-.8c0-.45,0-.82.25-1,4.91-3.47,29.86-5.68,19.69,19.57a6.17,6.17,0,0,0-.24,1.18,1.69,1.69,0,0,1-.33.85l-.07.06a.33.33,0,0,0-.43.31,12.45,12.45,0,0,0,.09,1.44c0,.07,0,.23,0,.39a1.09,1.09,0,0,0,.15.54.7.7,0,0,0,.19.21.51.51,0,0,0,.29.08h.25a.87.87,0,0,1,.68.27,3.34,3.34,0,0,1,.68,1.42,7.2,7.2,0,0,1,.22,1.73c0,.1,0,.19,0,.28s-.05.3-.08.53,0,.16,0,.23a1,1,0,0,0,0,.12,13.11,13.11,0,0,0-3,1.18A32.16,32.16,0,0,0,770.16,304.29Z" transform="translate(-334.32 -66.7)"/><g class="cls-54"><path class="cls-6" d="M760.19,298.78s4.35-2.47,5.89-5l1.54-2.49-5.35,9.26Z" transform="translate(-334.32 -66.7)"/></g><path class="cls-1" d="M771.42,320a1.36,1.36,0,0,1,.21.32,1.49,1.49,0,0,1-.25-.28Z" transform="translate(-334.32 -66.7)"/><path id="_Compound_Clipping_Path_2" data-name="&lt;Compound Clipping Path&gt;" class="cls-9" d="M783.51,364.91a12.17,12.17,0,0,0,.31-2.12v-.2c0-1.48-.72-2.78-1.06-4.39-.63-3.06,1.42,4-.14-22v0c0-4.92,4.48-8.54-.32-22.45a62.55,62.55,0,0,0-3.3-7.87c-.63-1.24-1.31-2.46-2-3.65-.1-.16,0-.62-.07-.74s-.22.17-.23.07c-1,.26-2.66-.57-3.62-.07a37.36,37.36,0,0,0-3.89,1.3c-3.54,1.71-5.87,5.63-9.2,7.78-1.42,4.34-6.43,7.73-4.46,17.83a96,96,0,0,1,1.78,10.41c.08.94.15,1.9.15,2.87,0,.49,0,1-.06,1.47a27.26,27.26,0,0,1-.66,2.95c-.15.74-.26,1.49-.35,2.24,0,.26-.37,3.31-.39,3.57,1.59.29,3.46-2.16,5-1.76C769.6,352.43,777.12,358.68,783.51,364.91ZM771.38,320l0,0a1.36,1.36,0,0,1,.21.32A1.49,1.49,0,0,1,771.38,320Z" transform="translate(-334.32 -66.7)"/><g class="cls-55"><path class="cls-38" d="M767.62,320.12s-5,13.76-5.72,20.75-.42,8.57-.42,8.57l7.83-3.6Z" transform="translate(-334.32 -66.7)"/></g><path class="cls-56" d="M725.17,438.08Z" transform="translate(-334.32 -66.7)"/><path class="cls-56" d="M763,301Z" transform="translate(-334.32 -66.7)"/><path id="_Clipping_Path_30" data-name="&lt;Clipping Path&gt;" class="cls-9" d="M776.91,301.51a50.6,50.6,0,0,1,5.2,10.76,38.61,38.61,0,0,1,2.78,11.89,22.21,22.21,0,0,1-.43,5c-.37,1.86-1.1,3.63-1.4,5.5a23.34,23.34,0,0,0,0,4.87c.1,2,.35,4,.52,6a58.9,58.9,0,0,1,.2,6.15,17.6,17.6,0,0,1-.56,4.68c-.63,2.09.88,3.86.91,6a13.82,13.82,0,0,1-.76,4.28c-1.43,4.5-4.88-2.28-15.83-2.29-7.75,0-6-5.93-9.79-5.72l11.12-10Z" transform="translate(-334.32 -66.7)"/><g class="cls-57"><path class="cls-38" d="M779.58,322.45s-.64,28.69-1.27,30.81-20.12,5.53-20.12,5.53l16.74-12Z" transform="translate(-334.32 -66.7)"/></g><path class="cls-43" d="M722.4,415.17a18.19,18.19,0,0,1-.78,2.43,43.12,43.12,0,0,1-3.79,6.23c-1.42,2.17-2.74,4.42-4.18,6.58a4.19,4.19,0,0,1-2.93,2.15,6.26,6.26,0,0,1-1.89,0c-.38-.07-.77-.32-1.15-.35a1.74,1.74,0,0,0-.9.32c-1,.56-2,1.26-3,1.84s-1.86.8-2.78,1.24c-.29.14-.69.31-.79.65-.15.5.37,1,.76,1.22,1.16.64,2.91.38,4.18.39a61,61,0,0,0,8.18-.07,3.43,3.43,0,0,0,2.37-1c1.09-1.33,1.46-3.33,2.09-4.88a10.76,10.76,0,0,1,2.17-3.69,7.3,7.3,0,0,1,2.64-1.64c.34-.12.5-.23.67.13a6.24,6.24,0,0,1,0,2.19c0,1.26.05,7.62.05,8.07,0,.18-.09.65,0,.81s0,.08.31.15a3.31,3.31,0,0,0,1.15,0c.22-.16.11-1.44.12-1.8q.07-1.89.22-3.77a41.21,41.21,0,0,1,1-7.25,17.41,17.41,0,0,0,1-5.6,7.31,7.31,0,0,0-.75-3.17,14.62,14.62,0,0,0-3.42-3.44Z" transform="translate(-334.32 -66.7)"/><path class="cls-38" d="M773.46,297a41.66,41.66,0,0,0-7.54,2.59,11.85,11.85,0,0,0-4.33,2.76c-1.08,1.31-1.19,3.26-1.57,4.84-.1.42-1.25,3.15-.27,3.33s2.11-1.31,2.59-1.76a29.15,29.15,0,0,1,6.39-4.87,14.31,14.31,0,0,1,5.68-1.81c.79,0,2.21.24,2.58-.73a5.53,5.53,0,0,0-.43-3.41,1.53,1.53,0,0,0-1.81-1.19A12.48,12.48,0,0,0,773.46,297Z" transform="translate(-334.32 -66.7)"/><path class="cls-43" d="M769.68,287.85a29.3,29.3,0,0,1,.91,4.49c.73,5.93-.93,7.61.42,10,1.8,3.19,5.64,1.83,7.41,5.19,1.29,2.46-.42,3.85.85,6.67s4.52,5.2,7.44,4.68c3.88-.69,6.47-6.57,5.37-10.61-1.21-4.45-6.27-4.49-7.41-9.53-.66-2.91.92-3.37.11-6.67-.95-3.82-3.31-4.15-4.12-7.92-.59-2.75.59-2.94.31-6.48-.13-1.67-.53-6.7-4.32-9.31a9.56,9.56,0,0,0-6.31-1.5,11,11,0,0,0-9.11-.95,10.52,10.52,0,0,0-5.87,6c-.52,1.23-1.27,3.66-.56,4.13.18.12.31,0,.62.06,1.14.16,1.61,1.78,2.4,3A8.29,8.29,0,0,0,761,281.6c2.63,1.26,5.55.29,6.74-.2Z" transform="translate(-334.32 -66.7)"/><path class="cls-1" d="M766.08,287.88a1.6,1.6,0,0,0,2,1.28c1.08-.25,1.78-1.44,2.23-2.35a7.1,7.1,0,0,0,.89-3.91c-.24-1.81-2-2.71-3.46-1.49Z" transform="translate(-334.32 -66.7)"/><path class="cls-6" d="M768.18,282.9c-.23.87.92.74.77,1.5s-1,.29-1.21.94,1.65,1.16,2.09-1S768.37,282.16,768.18,282.9Z" transform="translate(-334.32 -66.7)"/><path class="cls-9" d="M766.92,319.81c-.26,1-.59,2.49-.89,4.23a68.06,68.06,0,0,0-.85,9.74c-.09,3-.09,6.88.21,11.43-3,1.8-5.65,3.16-7.66,4.13a69,69,0,0,1-7.42,3.16,50.67,50.67,0,0,1-7.48,1.91c-.85.17-.89.7-.73,1.48.37,1.8,1.33,3.44,1.45,5.29.05.82,0,1.66,1,1.75,1.74.14,3.71-.82,5.32-1.34q4.18-1.35,8.33-2.8c2.61-.92,5.2-1.9,7.78-2.92s5.21-1.93,7.7-3.14c2.73-1.33,3.42-4.07,3.92-6.88.4-2.22.6-4.47.81-6.72l1.1-11.81c.21-2.23.46-4.46.48-6.7a35.31,35.31,0,0,0-1-8.25Z" transform="translate(-334.32 -66.7)"/><path class="cls-1" d="M742,355c-8-.43-3.1-4.46-12.56,1.21-.37.22-4.58,3.73-.9,3.06,6.19-1.13,7.42.69,11.23,1.38a10.67,10.67,0,0,0,3.71-.09Z" transform="translate(-334.32 -66.7)"/><path id="_Clipping_Path_31" data-name="&lt;Clipping Path&gt;" class="cls-1" d="M847.5,419.67s.46,5.65.61,7,1.53,2.9,1.53,5.5-14.81,5-14.81,5H824.75l2.44-6.26s7.79-3.21,9-4.58,2.08-7.94,2.08-7.94Z" transform="translate(-334.32 -66.7)"/><g class="cls-58"><path class="cls-6" d="M835.26,422.19s7.21,1.72,8.95,1.63,7.79,0,7.79,0l-2.36-6.48-20.42-.81Z" transform="translate(-334.32 -66.7)"/></g><path class="cls-43" d="M849.88,428.6a2,2,0,0,0-3.14-1.11,40.63,40.63,0,0,1-4.32,3c-1.6.8-8.32.31-10.95.31s-4.28.15-4.28.15-7.82,2.9-9.54,3a1.85,1.85,0,0,0-1.15,3.24c1.26,1.11,32.64,1,32.64,1s2.63-1.83,2.06-4.24C850.9,432.71,850.34,430.45,849.88,428.6Z" transform="translate(-334.32 -66.7)"/><path id="_Clipping_Path_32" data-name="&lt;Clipping Path&gt;" class="cls-3" d="M850.4,313.56s4.12,9.16,3.66,12.67-3.36,9.16-3.66,15.73-3.21,17.71-3.21,19.7.46,12.06.46,12.06,4.35,5.65,5,16.41,1.41,30.69,1.41,30.69a39.27,39.27,0,0,1-6.91,1.37c-2.06,0-10.08-2.29-10.08-2.29s.69-19.47,0-22.44-2.75-9.85-3-11.91-3.21-3.89-3.21-6.18-2.29-18.55-3.44-19.47-4.78-19.7-4.57-21.53.72,1.15-.1-4.35,0-8.24,0-8.24l.26-2.64s7.62-11.79,10.52-12S850.4,313.56,850.4,313.56Z" transform="translate(-334.32 -66.7)"/><g class="cls-59"><path class="cls-60" d="M825.16,325.36s5.56,9.28,13.71,10.05" transform="translate(-334.32 -66.7)"/><path class="cls-60" d="M839.56,322.4s-1.71,29.36-1.28,35.76,6.63,28.69,6.94,30.71,4.42,35,4.42,35" transform="translate(-334.32 -66.7)"/><polyline class="cls-60" points="521.2 252.29 515.7 253.92 501.6 255.7 482.15 261.05"/></g><path class="cls-39" d="M842.17,248.36s-14.82,8.86-16.81,13.13-3.21,12.83-2.14,15.27.31,18,.31,18l-.46,29.16s11-4,17.56-5.19,12.52-2.44,12.52-2.44-4.12-11-4.43-19.85,2.14-25,.61-31.76S842.17,248.36,842.17,248.36Z" transform="translate(-334.32 -66.7)"/><path class="cls-43" d="M838,245.2c10.46-11.46-.26-23.19-4.8-28.46-3.26-3.79-18.77,4.1-19.39,4.82-1,1.15-1.35,3.43,0,4.16s2.81.94,4.15,1.65c1.72,1.4,3.51,2.75,5.28,4.1-.37,1.28,1.9,2.85,2.77,5.09s4.76,1.19,4.75-2.44C830.75,233.05,836.83,245.69,838,245.2Z" transform="translate(-334.32 -66.7)"/><path class="cls-1" d="M815.68,226.38a27,27,0,0,0-1,4.87c-.09,1.53.54,1.54,1,3s-1.43,3.62-1.31,5a1,1,0,0,0,.17.46c.6.94,2.37.73,2.77.67,1.13,2.5,2.29,5,3.4,7.51a2.8,2.8,0,0,0,1.18,1.38c1.73.93,4.12-.79,4.89-1.35a10.68,10.68,0,0,0,3.88-5.74,11.64,11.64,0,0,0-.4-7.26l-3.17,1.34A29.44,29.44,0,0,0,825,231.6a2.18,2.18,0,0,0-.82-.89c-.84-.45-1.71.08-2.31-1-.81-1.41-1.46-3.93-3-3.87S817,226.33,815.68,226.38Z" transform="translate(-334.32 -66.7)"/><path id="_Clipping_Path_33" data-name="&lt;Clipping Path&gt;" class="cls-1" d="M843.66,250.08q-1.36-1.54-2.55-3a7.25,7.25,0,0,1-1.42-2.23,6,6,0,0,1-.36-1.86,4.86,4.86,0,0,1-.89-1,5.27,5.27,0,0,1-.78-2c-.19-.86-.88-2.06-3.13-3.48,0-.35.47-3.81-1.61-5.58a4.81,4.81,0,0,0-1.87-.94c-3.36-.86-4.45,2.67-2,5.05a6.86,6.86,0,0,1,.83,8.8c-.92,1.44-1.43,2.53-1.84,3a8.1,8.1,0,0,1-.81.81c-.49.42-1.62.81-4.43,2,2.16-.88,4.79,1.33,5.87,3.69s-.08,4.46.78,5.2C830.46,259.42,833.88,258.15,843.66,250.08Z" transform="translate(-334.32 -66.7)"/><g class="cls-61"><polygon class="cls-6" points="488.97 182.08 496.77 173.35 492.87 185.91 487.17 182.54 488.97 182.08"/></g><path class="cls-40" d="M834.22,265.38l11,24.08c-2.42.34-12.05-13.68-11-16.43C835.15,270.62,834.22,265.38,834.22,265.38Z" transform="translate(-334.32 -66.7)"/><path id="_Clipping_Path_34" data-name="&lt;Clipping Path&gt;" class="cls-1" d="M851.32,269.66,858,291.19s2.06,3.32,1.37,4.92-6.41,8.59-6.41,8.59-14.12,15-15.34,15.88-1.22,5.65-1.45,6.64-3.82,3.74-4.89,4.12-5.5-5-5.57-5.73.61-2.67.38-3.28-2.67.53-3.05-.61,1.07-2.9,2-2.9,5.8.31,6.57-.31,15.42-24.12,15-26-2.75-3-3.66-5-6-16.49-6-16.49Z" transform="translate(-334.32 -66.7)"/><g class="cls-62"><path class="cls-6" d="M839.59,278.7s5.08-4.06,6.59-4.53,7,1.43,7,1.43l-1.62-5s-5.46-1.16-7.44,0A58,58,0,0,0,838,275.5Z" transform="translate(-334.32 -66.7)"/></g><path class="cls-39" d="M842.16,247.9s7.94,6.72,9.47,11.91,1.53,14,1.53,14-3.44-2.6-5-2.14a33.73,33.73,0,0,0-7.33,3.78,6.9,6.9,0,0,1-1.83,1.26l-7.1-9.28s-5-6.45-4.2-7.82S831.16,252.79,842.16,247.9Z" transform="translate(-334.32 -66.7)"/><g class="cls-63"><path class="cls-2" d="M832.35,234.08c-.06-.1.28-.29.3-.63a1.49,1.49,0,0,0-.86-1.18,1.47,1.47,0,0,0-1.48.1c-.34.31-.7.53-.75.42s.07-.31.36-.78a1.82,1.82,0,0,1,2.2-.41,1.77,1.77,0,0,1,1,2,.83.83,0,0,1-.54.52C832.46,234.14,832.37,234.13,832.35,234.08Z" transform="translate(-334.32 -66.7)"/></g><path class="cls-43" d="M463.57,433.39c-.1-1.37-1.18-2.39-1.89-3.43a20,20,0,0,1-3.12-6.37,26.42,26.42,0,0,1-.86-5.63c0-1.14.12-2.27.08-3.41a2.44,2.44,0,0,0-.17-1c-.15-.26-.61-.24-.71-.39s0,0,0,0c.91-1,1.76-2.08,2.65-3.12.4.18.74.36,1.16.53a7.26,7.26,0,0,0,3,.76c1.92-.1,3.29-2.24,4.31-3.42a87,87,0,0,0,13.77-20.57c1.87-4,2.61-7.81,3.62-12,.46-1.91,1-3.64,1.55-5.49a12.23,12.23,0,0,0,.53-2.91,10,10,0,0,0-.76-3.62c-13.79-10-27.58-17.06-44.39-21.15-7,.38-18.73,2.51-23.7,6s-4.49,6.33-5.34,10.14-.05,5.69.85,8.81a11.94,11.94,0,0,0,3.78,5.86c1.49,1.24,3.39,1.38,5.22,1.45a48,48,0,0,0,10.43-1.21,212,212,0,0,1,22.19-3.38c1.77-.14,3.41.07,5.07,0s3.08-.37,4.67-.51a6.37,6.37,0,0,1,3.46.26,1.58,1.58,0,0,1,.84.88,1.51,1.51,0,0,1,0,.72,7.72,7.72,0,0,1-.78,2.15c-.67,1.58-1.15,3-1.94,4.59a46,46,0,0,1-5.47,8.64,63.17,63.17,0,0,1-7.11,7.86c-2.39,2.12-5.2,4.39-7.13,7-.49.67,0,1.42-.34,2.12,0,0,0,0,0,0L445,405.34c-.06-.08-.09-.19-.15-.28a1.46,1.46,0,0,0-1.65-.69,16,16,0,0,0-4.8,2c-1.58.89-3.52,1.83-4.63,3.36a1.82,1.82,0,0,0-.28,2,11.56,11.56,0,0,0,2.58,3.08c2.36,2.39,4.67,4.64,7,7,3.57,3.66,7.06,7.41,11,10.77a22.32,22.32,0,0,0,4.91,3.33,3.77,3.77,0,0,0,2.56.47A2.82,2.82,0,0,0,463.57,433.39Z" transform="translate(-334.32 -66.7)"/><path class="cls-6" d="M419.86,318.3a25.49,25.49,0,0,0,2.75,6.9,9,9,0,0,0,2.27,2.81,18.65,18.65,0,0,0,5.61,2.65c2.86,1,5.78,1.8,8.67,2.67,4.65,1.4,7,1.91,7.7,2a39.68,39.68,0,0,0,12.75.3,12.1,12.1,0,0,0,3.26,2.9,11.9,11.9,0,0,0,4.31,1.59,14.64,14.64,0,0,0,3.37.1,21,21,0,0,1,2.86-.14c1.46.12,2.79.81,4.22,1,1.28.21,2.76-.31,2.83-1.82,0-.28-.06-.55-.93-1.7-.68-.91-1.29-1.63-1.73-2.12-1.91-.43-3.42-.83-4.37-1.1-5.23-1.46-8.22-2.4-13.42-3.53h0c-.34-.06-.85-.16-1.46-.29-6.15-1.36-8.19-3.55-15.76-7.45-5.08-2.62-7.34-3.28-9.91-6.3a18.53,18.53,0,0,1-1.93-2.73Z" transform="translate(-334.32 -66.7)"/><path class="cls-43" d="M420.57,292.58c-.79-.07-.58-.25-3-1-2.2-.67-3.3-1-3.71-1.43a3.74,3.74,0,0,1-1.07-2,5,5,0,0,1-4.34-8,9.31,9.31,0,0,1-.67-6.53,9.44,9.44,0,0,1,4.73-5.75,7.08,7.08,0,0,1,2.22-6.1,6.73,6.73,0,0,1,7.2-.92,6.44,6.44,0,0,1,6.46-3.14,6.64,6.64,0,0,1,4.62,3.51,8.1,8.1,0,0,1,4.55,3.72c1.67,3.22.64,7.7-2.75,10.77a46.79,46.79,0,0,1-2.68,5.5,39.83,39.83,0,0,1-4.36,6.26C425.16,290.39,423.06,292.79,420.57,292.58Z" transform="translate(-334.32 -66.7)"/><path class="cls-1" d="M486.87,421.9c-.29-1.31-.54-2.62-.76-3.95l-9.6-1.76-4.11,5.14.94,7.33,15.4-.22Z" transform="translate(-334.32 -66.7)"/><path class="cls-36" d="M405.46,359.21a14.29,14.29,0,0,0,.66,8.39,14.5,14.5,0,0,0,3.8,5.95,11.43,11.43,0,0,0,5.45,1.95,64.39,64.39,0,0,0,10.8.65c7.88-.06,15.68-.64,23.56-.18a40.73,40.73,0,0,0,5.6.12c1.76-.14,3.49-.5,5.24-.68a15.4,15.4,0,0,1,4.06,0,1.44,1.44,0,0,1,1.21.66,2.36,2.36,0,0,1,.14.78c.09.94.15,1.88.23,2.82.18,2.06.39,4.11.61,6.17.41,4,1,7.92,1.53,11.87s1.11,7.69,1.43,11.57c.27,3.36.15,7,1.11,10.31.26.89.67,1.83,1.73,1.83a17,17,0,0,0,3.68-.86c2-.47,4-.93,6-1.45a44.36,44.36,0,0,0,5-1.51,7.53,7.53,0,0,0,2.52-1.36c1.24-1.19.51-3.62.32-5.07-1-7.91-2.06-15.82-3.37-23.69-.7-4.17-1.48-8.34-2-12.54-.25-1.91-.34-3.81-.47-5.73a9.94,9.94,0,0,0-.57-2.92,14.56,14.56,0,0,0-2-3.42l-46.55-16.71s-19.19,0-24.07,3.58A15.12,15.12,0,0,0,405.46,359.21Z" transform="translate(-334.32 -66.7)"/><path class="cls-43" d="M472.43,424a1.25,1.25,0,0,0-1.61.66,13.83,13.83,0,0,0-1.39,5,19.93,19.93,0,0,0-.32,5.89,2,2,0,0,0,1.12,1.73,11.23,11.23,0,0,0,4.08.37l10,.05c5.07,0,10.23.29,15.29-.16a20.49,20.49,0,0,0,5.73-1.15,4.24,4.24,0,0,0,2.14-1.56,3.31,3.31,0,0,0-.61-3.86c-1-.92-2.46-1-3.69-1.15a28.17,28.17,0,0,1-6.91-2.11,20.9,20.9,0,0,1-5.05-3.07c-.89-.76-1.69-1.63-2.6-2.37a2.82,2.82,0,0,0-.93-.59c-1-.27-1.35,1.19-1.72,1.81a4.53,4.53,0,0,1-1.79,1.71c-2.79,1.52-5.65,1-8.5,0C474.6,424.77,473.53,424.33,472.43,424Z" transform="translate(-334.32 -66.7)"/><path id="_Clipping_Path_35" data-name="&lt;Clipping Path&gt;" class="cls-4" d="M414.33,294a18.73,18.73,0,0,0-2,3.94c-.69,1.68-1.32,3.39-1.9,5.11a82.3,82.3,0,0,0-2.87,10.64c-1.51,7.74-1.81,15.64-2.29,23.49-.23,3.7-.49,7.4-.75,11.1a17.46,17.46,0,0,0,1.14,8.36c.38.85,1.11,2.22,2.25,1.84a4,4,0,0,0,1.46-1.16,22.12,22.12,0,0,1,3-3c2.65-1.9,6.12-2.73,9.22-3.57,3.61-1,7.29-1.5,10.91-2.38a20.77,20.77,0,0,0,2.26-.69c.63-6,1.25-12,2-17.93a44.35,44.35,0,0,0-1.18-18.36,34.52,34.52,0,0,0-3.9-8.67c-1.78-2.8-4.26-5.32-6.31-8l-9.81-2.11Z" transform="translate(-334.32 -66.7)"/><g class="cls-64"><path class="cls-40" d="M413.48,311c0,3.64.11,3.64.28,7.27.18,3.91.08,7.92,1.17,11.71,1,3.52,3.37,7.62,7.48,7.65,1,0,4.91-.39,5.11-1.45.06-.33-.54-1.25-.67-1.55L419.69,318a5.89,5.89,0,0,0-.3-.71Z" transform="translate(-334.32 -66.7)"/></g><path id="_Clipping_Path_36" data-name="&lt;Clipping Path&gt;" class="cls-1" d="M423.71,335.27a25.49,25.49,0,0,0,2.1,7.12,9,9,0,0,0,2,3,18.65,18.65,0,0,0,5.34,3.16c6.51,2.91,4.2,2.06,8.39,3.46a198.41,198.41,0,0,0,20.9,5.38c3,3.16,5.43,3.83,6.37,4a20.58,20.58,0,0,0,3.35.41,21,21,0,0,1,2.86.12c1.44.25,2.7,1.07,4.11,1.43s2.78-.06,3-1.55a2.17,2.17,0,0,0-.77-1.78,15.91,15.91,0,0,0-5.24-3.5c-3.41-1.13-7.23-2.35-11.5-3.57a133,133,0,0,0-17.84-10.35c-2.24-1-6.81-2.9-9.94-7.6a22.74,22.74,0,0,1-1.67-2.9Z" transform="translate(-334.32 -66.7)"/><g class="cls-65"><path class="cls-6" d="M422.26,338.4s5.69-2.76,7.64-2.87,9.16-.76,9.16-.76l-3.74-5.1L422.58,334Z" transform="translate(-334.32 -66.7)"/></g><path id="_Clipping_Path_37" data-name="&lt;Clipping Path&gt;" class="cls-1" d="M428.46,296a7.32,7.32,0,0,1,1.93-2.73,9.86,9.86,0,0,1,3.85-1.66c.89-.27,1.71-.55,1.78-1.58,0-.09,1.2-6.88,1.28-7,.34-.41,1.13-.34,1.58-.5,2.57-.91-.81-4.58-1.42-5.55s-.13-1.36-.14-2.3a4.81,4.81,0,0,0-.52-1.6,5.76,5.76,0,0,1-.3-1.88c0-.44-.08-.86-.13-1.29-.74.39-.5-.09-1.29-.08s-1.15.85-1.42,1.6a7.6,7.6,0,0,1-1.84,3.28,5.18,5.18,0,0,0-1.88,2.74c-.08.4.27,4.8-1.34,3.72-.8-.54-.73-2.39-.87-3.15a4.12,4.12,0,0,0-1.5-2.33c-1-.94-1.15-2.74-2.95-2.26-2.37.63-1.23,3.46-.83,5a6,6,0,0,0,1.37,2.9,1.06,1.06,0,1,1,1.83.3c-.45.86.07,1.68.09,2.42,0,1.23-1.33,2.2-2,2.66a5.93,5.93,0,0,1-4.06,1,5.4,5.4,0,0,1-4.24,2.26Z" transform="translate(-334.32 -66.7)"/><g class="cls-66"><path class="cls-6" d="M435.16,291.36c.38.53-6.16.42-9.13-3.5,1,2.93,6.51,7.75,6.51,7.75Z" transform="translate(-334.32 -66.7)"/></g><path class="cls-40" d="M412.26,294.71c-.94-.27.83-2.74,1.05-3.05a4,4,0,0,1,2.89-1.82,9,9,0,0,1,4.57.92,39.51,39.51,0,0,1,7,4.69,18.83,18.83,0,0,1,4.76,4.64,5.47,5.47,0,0,1,.62,1.44,7.84,7.84,0,0,1,.19,1.09,4.85,4.85,0,0,1,.15,1.56c-.13.49-.37.15-.64-.14-.94-1-1.69-2.22-2.54-3.31a19.62,19.62,0,0,0-5.77-4.91,12.73,12.73,0,0,0-5.41-1.85c-2.18-.16-4.19.63-6.33.77A1.94,1.94,0,0,1,412.26,294.71Z" transform="translate(-334.32 -66.7)"/><path class="cls-4" d="M413.44,310c1.67,6,3.07,12,4.8,18a17,17,0,0,0,2.51,5.88,5.25,5.25,0,0,0,2.23,1.51,4.53,4.53,0,0,0,1.07.42c1.15.24,2-.39,3.25-1,2.25-1,2.4-.32,4.88-1.42a10.11,10.11,0,0,1,2.67-1.13c.57-.1,1.08-.1,1.32-.46s-.11-1.31-.22-1.52a49.17,49.17,0,0,0-1.27-7.74c-1.22-5.91-2-12-4.11-17.65-.27-.72-.56-1.44-.87-2.15Z" transform="translate(-334.32 -66.7)"/><path class="cls-6" d="M425.29,278.34c-.21-1-1.06-.42-1.28-1.32s.68-.75.53-1.53-1.81-.58-1.17,2S425.47,279.23,425.29,278.34Z" transform="translate(-334.32 -66.7)"/><rect class="cls-50" x="73.98" y="308.17" width="44.3" height="8.46" rx="2.03" ry="2.03"/><path class="cls-50" d="M397.69,348.07c0-7.2.19-14.31-.09-21.48a77.33,77.33,0,0,1,.55-14.23c.3-2.07,1.69-11.52,5.79-9.74.79.34,1.15,1.47,1.28,2l-.55,43.45a3.17,3.17,0,0,1-2.82,3.42h-1.34A3.17,3.17,0,0,1,397.69,348.07Z" transform="translate(-334.32 -66.7)"/><path class="cls-51" d="M397.51,323.69v45.46A13.81,13.81,0,0,0,411.31,383h34" transform="translate(-334.32 -66.7)"/><rect class="cls-52" x="91.63" y="316.63" width="3.45" height="49.38"/><rect class="cls-52" x="88.87" y="339.19" width="8.96" height="16.89"/><path class="cls-52" d="M457.83,434.36a54.41,54.41,0,0,0-60.33,0v-2.8a56.15,56.15,0,0,1,60.33,0Z" transform="translate(-334.32 -66.7)"/><circle class="cls-52" cx="63.19" cy="367.66" r="3.86"/><circle class="cls-52" cx="123.51" cy="367.66" r="3.86"/><circle class="cls-52" cx="93.35" cy="367.66" r="3.64"/><rect class="cls-50" x="536.2" y="368.64" width="44.3" height="8.46" rx="2.03" ry="2.03" transform="translate(782.38 679.03) rotate(180)"/><path class="cls-67" d="M580.5,376.48H536.2" transform="translate(-334.32 -66.7)"/><rect class="cls-68" x="556.63" y="377.1" width="3.45" height="55.61" transform="translate(782.38 743.1) rotate(180)"/><rect class="cls-52" x="553.87" y="405.9" width="8.96" height="16.89" transform="translate(782.38 761.97) rotate(180)"/><path class="cls-52" d="M528.19,434.36a54.4,54.4,0,0,1,60.33,0v-2.8a56.15,56.15,0,0,0-60.33,0Z" transform="translate(-334.32 -66.7)"/><circle class="cls-52" cx="254.19" cy="367.66" r="3.86"/><circle class="cls-52" cx="193.87" cy="367.66" r="3.86"/><circle class="cls-52" cx="224.03" cy="367.66" r="3.64"/><path class="cls-43" d="M583.08,417s-3.59,10.43-4.08,15,.65,6.85,2,6.85S596,437.77,596,437.77s2.28-3.64,2.28-4.29-2.77-7.34-2.77-9.46-2-7-2-7Z" transform="translate(-334.32 -66.7)"/><path class="cls-43" d="M523.57,417v8.31s-7.34,6.85-7.34,9.13,3,4.09,5.13,3.76,12.86.3,13.83-.68,1.26-12.87,1.26-12.87L534.82,417Z" transform="translate(-334.32 -66.7)"/><path id="_Clipping_Path_38" data-name="&lt;Clipping Path&gt;" class="cls-3" d="M540.69,343.65s-9.78,4.56-13.37,9.62-4.89,4.56-6.52,6.68-2,3.75-.82,6.36,1.79,47.93,1.79,47.93v6.2s3.79-1.14,5.58-1,6.64,1,8.44,1.3,1.14-5.54,1.14-5.54l1.47-4.73s1.3-30.81,2.28-33.42,9.13-7.17,9.13-7.17,0-1.3,8.8,0,17.28-2.93,19.24-.65,2.28,13.69,2.28,19.89.65,10.43,0,14,1.3,13,1.63,14.35a10.45,10.45,0,0,1,.22,2.82,9.37,9.37,0,0,1,5-1.19c3.26,0,8.8-.33,8.8-.33s-2.28-7.5,0-12.39,3.26-23.15,3.26-28.37,2.28-15.32,0-19.24-24.13-15.16-24.13-15.16Z" transform="translate(-334.32 -66.7)"/><g class="cls-69"><path class="cls-43" d="M549.82,369.9s-11.09,6.77-14.51,6.77,3.91.73,4.56,7.44C540.23,387.88,549.82,369.9,549.82,369.9Z" transform="translate(-334.32 -66.7)"/><path class="cls-43" d="M548,411.75s-11.09,2.57-14.51,2.57,3.91.28,4.56,2.82C538.36,418.58,548,411.75,548,411.75Z" transform="translate(-334.32 -66.7)"/><path class="cls-43" d="M576.44,368.64s6.46,3.86,9.89,3.86-6.52,2.3-6.52,6.09S576.44,368.64,576.44,368.64Z" transform="translate(-334.32 -66.7)"/><path class="cls-43" d="M576.44,406.4s6.46,3.86,9.89,3.86-6.52,2.3-6.52,6.09S576.44,406.4,576.44,406.4Z" transform="translate(-334.32 -66.7)"/></g><path id="_Clipping_Path_39" data-name="&lt;Clipping Path&gt;" class="cls-5" d="M550,286.18c-9.7,3.93-21.49,6.73-24.36,18-.7,2.77-1.07,5.61-1.81,8.37-.51,1.89-2.5,4.94-1.57,6.91,1.26,2.65,7.86,3.45,10.38,3.65L550,351.31l22.5-5.38,13-24.78,4.08-1.22s2.45.24,2.45-1.06c0-3.18-1.4-6.78-2.12-9.84-1-4.5-1.48-10.23-3.51-14.34-2.34-4.76-8.42-4.93-13-6q-5.18-1.26-10.37-2.45Z" transform="translate(-334.32 -66.7)"/><g class="cls-70"><path class="cls-7" d="M538.49,322.25s1,.39,1.41-1a72.69,72.69,0,0,0,1.77-13.65c-.16-2.77,1.15,11.9,0,16.3a16.6,16.6,0,0,1-3.76,7Z" transform="translate(-334.32 -66.7)"/><path class="cls-7" d="M576.63,322.44a1.15,1.15,0,0,1-.86-.92c-.46-2.69-2-12-1.87-14.32.16-2.77-1.15,11.9,0,16.3a16.6,16.6,0,0,0,3.76,7l-.29-7.89Z" transform="translate(-334.32 -66.7)"/><ellipse class="cls-71" cx="222.52" cy="224.62" rx="12.06" ry="10.76"/></g><path id="_Clipping_Path_40" data-name="&lt;Clipping Path&gt;" class="cls-1" d="M548.35,286.59c-.25.06,0,6.19,0,6.73a4.87,4.87,0,0,0,.32,2.47,7,7,0,0,0,5.28,3.83,11.49,11.49,0,0,0,12.66-5.7V282.19Z" transform="translate(-334.32 -66.7)"/><g class="cls-72"><path class="cls-6" d="M546.8,292.3c3.67,2.45,6.7,3.42,10.63,3.06S569,287.58,569,287.58l-1.51-5.39-20.66,2.89Z" transform="translate(-334.32 -66.7)"/></g><path class="cls-49" d="M543.79,263s-.33,14.84,0,19.24,5.22,9.46,8.31,9.94,6.68,2.12,8.48,0,6.36-4.88,7.17-8.47-.33-13.7,0-14.84-.82-9.46-2.61-11.09-7-2.12-9.3-2.12S545.26,256.76,543.79,263Z" transform="translate(-334.32 -66.7)"/><path class="cls-1" d="M547.21,267.68s-1.63,7.17-1.47,9.46.16,6.68,2.12,6.52,4.08-4.89,7.83-4.89,5.38,3.91,7.83,3.75,2.93-2.93,3.1-7.5S563,263,560.74,263s-1.47,2.28-4.57,2.28S552.92,263,550.8,263,547.21,267.68,547.21,267.68Z" transform="translate(-334.32 -66.7)"/><path id="_Clipping_Path_41" data-name="&lt;Clipping Path&gt;" class="cls-1" d="M577.37,322.62s2.38-3.63,5.32-3.87a59.16,59.16,0,0,1,8.07.26l-3.12,19.5s1,2.2.24,3.3-4.4,2.45-4.4,2.45l-19.93,11.62h-1.71l-1-2.32-2.69-.49-2.08,2.81h-2.45v-7.09l3.79-2.32,2.81,1.83s13.21-8.18,14.92-10.45l1.71-2.27Z" transform="translate(-334.32 -66.7)"/><g class="cls-73"><path class="cls-6" d="M574.27,327.35s4.24-4.73,8.48-5.05,10.92-.16,10.92-.16l.65-5.05-13.53-1.63-8.59,8Z" transform="translate(-334.32 -66.7)"/></g><path id="_Clipping_Path_42" data-name="&lt;Clipping Path&gt;" class="cls-6" d="M538.49,322.25l.49,13.08,14.67,13.45v7.09h2.45l2.08-2.81,2.69.49,1,2.32s3.06.73,3.3,1.59-1.71,7.09-2.69,7.34-7.83-.61-7.83-.61l-6-4s.24-7.34,0-8.44-17-7.95-18.59-9.9c-.66-.82-1-2.38-1.83-5.38A127.59,127.59,0,0,1,524.59,320c1.29-.33,3.47,0,5.22-.06C533.72,319.77,536.43,321.48,538.49,322.25Z" transform="translate(-334.32 -66.7)"/><g class="cls-74"><path class="cls-47" d="M524.22,319.28v3.59a69.2,69.2,0,0,1,7.66-.65c1.39.16,7.5,2.28,7.5,2.28l1.47-3.26S525.91,318.73,524.22,319.28Z" transform="translate(-334.32 -66.7)"/></g><rect class="cls-31" x="128.31" y="273.68" width="273.37" height="9.57" rx="3.6" ry="3.6"/><path class="cls-75" d="M732.4,347.86H466.23a3.6,3.6,0,0,1-3.6-3.6v2.09a3.6,3.6,0,0,0,3.6,3.6H732.4a3.6,3.6,0,0,0,3.6-3.6v-2.09A3.6,3.6,0,0,1,732.4,347.86Z" transform="translate(-334.32 -66.7)"/><path class="cls-3" d="M689.81,350l1.11,1.91a6.42,6.42,0,0,0,5.56,3.2H709l-.51-5.11Z" transform="translate(-334.32 -66.7)"/><polygon class="cls-43" points="374.72 288.36 383.11 371.66 386.81 371.66 386.81 283.25 374.21 283.25 374.72 288.36"/><path class="cls-3" d="M489.58,355.07h12.56a6.42,6.42,0,0,0,5.56-3.2l1.11-1.91H490.1Z" transform="translate(-334.32 -66.7)"/><polygon class="cls-43" points="143.17 283.25 143.17 371.66 146.88 371.66 155.78 283.25 143.17 283.25"/><polygon class="cls-3" points="200.9 271 171.52 271 182.4 235.6 211.78 235.6 200.9 271"/><polygon class="cls-43" points="203.34 271 173.97 271 184.85 235.6 214.22 235.6 203.34 271"/><rect class="cls-3" x="143.17" y="269.94" width="53.92" height="3.74"/><rect class="cls-43" x="170.13" y="269.94" width="31.01" height="3.74"/><path class="cls-32" d="M531.73,320.68c.43-2-.14-3.84-1.28-4.22s-2.4.91-2.83,2.87.14,3.84,1.28,4.22S531.3,322.63,531.73,320.68Z" transform="translate(-334.32 -66.7)"/><rect class="cls-3" x="237.74" y="235.6" width="44.75" height="35.39"/><rect class="cls-43" x="239.17" y="235.6" width="47.05" height="35.39"/><rect class="cls-43" x="239.34" y="271" width="45.41" height="2.69"/><circle class="cls-32" cx="262.05" cy="253.3" r="3.54"/><polygon class="cls-3" points="338.55 271 367.92 271 357.04 235.6 327.67 235.6 338.55 271"/><polygon class="cls-43" points="336.1 271 365.47 271 354.59 235.6 325.22 235.6 336.1 271"/><rect class="cls-3" x="676.67" y="336.64" width="53.92" height="3.74" transform="translate(1072.95 610.32) rotate(180)"/><rect class="cls-43" x="672.62" y="336.64" width="31.01" height="3.74" transform="translate(1041.93 610.32) rotate(180)"/><path class="cls-32" d="M676.35,320.68c-.43-2,.14-3.84,1.28-4.22s2.4.91,2.83,2.87-.14,3.84-1.28,4.22S676.78,322.63,676.35,320.68Z" transform="translate(-334.32 -66.7)"/><line class="cls-76" x1="2.14" y1="372.58" x2="578.14" y2="372.58"/></g></g></svg>