<svg xmlns="http://www.w3.org/2000/svg" xmlns:xlink="http://www.w3.org/1999/xlink" viewBox="0 0 377.79 312.87"><defs><style>.cls-1{mask:url(#mask);filter:url(#luminosity-noclip-5);}.cls-2,.cls-4,.cls-43,.cls-44,.cls-45,.cls-46,.cls-47,.cls-48,.cls-6,.cls-8{mix-blend-mode:multiply;}.cls-2{fill:url(#linear-gradient);}.cls-3{mask:url(#mask-2);filter:url(#luminosity-noclip-6);}.cls-4{fill:url(#linear-gradient-2);}.cls-5{mask:url(#mask-3);filter:url(#luminosity-noclip-7);}.cls-6{fill:url(#linear-gradient-3);}.cls-7{mask:url(#mask-4);filter:url(#luminosity-noclip-8);}.cls-8{fill:url(#linear-gradient-4);}.cls-9{isolation:isolate;}.cls-10{mask:url(#mask-5);}.cls-11{fill:url(#linear-gradient-5);}.cls-12{opacity:0.2;}.cls-13{fill:url(#linear-gradient-6);}.cls-14{fill:url(#linear-gradient-7);}.cls-15{fill:url(#linear-gradient-8);}.cls-16{fill:url(#linear-gradient-9);}.cls-17{fill:#fff;}.cls-18{fill:url(#linear-gradient-10);}.cls-19{fill:url(#linear-gradient-11);}.cls-20{fill:url(#linear-gradient-12);}.cls-21{fill:url(#linear-gradient-13);}.cls-22{fill:url(#linear-gradient-14);}.cls-23{fill:url(#linear-gradient-15);}.cls-24{fill:url(#linear-gradient-16);}.cls-25{fill:url(#linear-gradient-17);}.cls-26{fill:url(#linear-gradient-18);}.cls-27{fill:url(#linear-gradient-19);}.cls-28{fill:url(#linear-gradient-20);}.cls-29{fill:url(#linear-gradient-21);}.cls-30{fill:url(#linear-gradient-22);}.cls-31{fill:url(#linear-gradient-23);}.cls-32{fill:url(#linear-gradient-24);}.cls-33{fill:url(#linear-gradient-25);}.cls-34{fill:url(#linear-gradient-26);}.cls-35{fill:url(#linear-gradient-27);}.cls-36{fill:url(#linear-gradient-28);}.cls-37{fill:url(#linear-gradient-29);}.cls-38{fill:url(#linear-gradient-30);}.cls-39{fill:url(#linear-gradient-31);}.cls-40{fill:url(#linear-gradient-32);}.cls-41{fill:url(#linear-gradient-33);}.cls-42{fill:url(#linear-gradient-34);}.cls-43,.cls-44,.cls-45,.cls-46,.cls-47,.cls-48{opacity:0.5;}.cls-43{fill:url(#linear-gradient-35);}.cls-44{fill:url(#linear-gradient-36);}.cls-45{fill:url(#linear-gradient-37);}.cls-46{fill:url(#linear-gradient-38);}.cls-47{fill:url(#linear-gradient-39);}.cls-48{fill:url(#linear-gradient-40);}.cls-49{fill:url(#linear-gradient-41);}.cls-50{fill:url(#linear-gradient-42);}.cls-51{fill:url(#linear-gradient-43);}.cls-52{fill:url(#linear-gradient-44);}.cls-53{fill:url(#linear-gradient-45);}.cls-54{fill:url(#linear-gradient-46);}.cls-55{fill:url(#linear-gradient-47);}.cls-56{fill:url(#linear-gradient-48);}.cls-57{fill:url(#linear-gradient-49);}.cls-58{fill:url(#linear-gradient-50);}.cls-59{fill:url(#linear-gradient-51);}.cls-60{fill:url(#linear-gradient-52);}.cls-61{fill:url(#linear-gradient-53);}.cls-62{fill:url(#linear-gradient-54);}.cls-63{fill:url(#linear-gradient-55);}.cls-64{fill:url(#linear-gradient-56);}.cls-65{fill:url(#linear-gradient-57);}.cls-66{fill:url(#linear-gradient-58);}.cls-67{fill:url(#linear-gradient-59);}.cls-68{fill:url(#linear-gradient-60);}.cls-69{fill:url(#linear-gradient-61);}.cls-70{fill:url(#linear-gradient-62);}.cls-71{fill:url(#linear-gradient-63);}.cls-72{fill:url(#linear-gradient-64);}.cls-73{mask:url(#mask-6);}.cls-74{fill:url(#linear-gradient-65);}.cls-75{mask:url(#mask-7);}.cls-76{fill:url(#linear-gradient-66);}.cls-77{mask:url(#mask-8);}.cls-78{fill:url(#linear-gradient-67);}.cls-79{fill:#434244;}.cls-80{fill:#59bb73;}.cls-81{fill:url(#linear-gradient-68);}.cls-82{fill:url(#linear-gradient-69);}.cls-83{fill:url(#linear-gradient-70);}.cls-84{fill:url(#linear-gradient-71);}.cls-85{fill:url(#linear-gradient-72);}.cls-86{fill:url(#linear-gradient-73);}.cls-87{fill:url(#linear-gradient-74);}.cls-88{fill:url(#linear-gradient-75);}.cls-89{fill:url(#linear-gradient-76);}.cls-90{fill:url(#linear-gradient-77);}.cls-91{fill:url(#linear-gradient-78);}.cls-92{filter:url(#luminosity-noclip-4);}.cls-93{filter:url(#luminosity-noclip-3);}.cls-94{filter:url(#luminosity-noclip-2);}.cls-95{filter:url(#luminosity-noclip);}</style><filter id="luminosity-noclip" x="261.66" y="-8341.87" width="116.13" height="32766" filterUnits="userSpaceOnUse" color-interpolation-filters="sRGB"><feFlood flood-color="#fff" result="bg"/><feBlend in="SourceGraphic" in2="bg"/></filter><mask id="mask" x="261.66" y="-8341.87" width="116.13" height="32766" maskUnits="userSpaceOnUse"><g class="cls-95"/></mask><linearGradient id="linear-gradient" x1="377.78" y1="147.13" x2="261.66" y2="80.57" gradientUnits="userSpaceOnUse"><stop offset="0" stop-color="#fff"/><stop offset="0.1" stop-color="#ececec"/><stop offset="0.31" stop-color="#bcbcbc"/><stop offset="0.61" stop-color="#6f6f6f"/><stop offset="0.98" stop-color="#050505"/><stop offset="1"/></linearGradient><filter id="luminosity-noclip-2" x="0" y="-8341.87" width="116.13" height="32766" filterUnits="userSpaceOnUse" color-interpolation-filters="sRGB"><feFlood flood-color="#fff" result="bg"/><feBlend in="SourceGraphic" in2="bg"/></filter><mask id="mask-2" x="0" y="-8341.87" width="116.13" height="32766" maskUnits="userSpaceOnUse"><g class="cls-94"/></mask><linearGradient id="linear-gradient-2" x1="116.12" y1="173.37" x2="0.01" y2="106.81" xlink:href="#linear-gradient"/><filter id="luminosity-noclip-3" x="41.6" y="-8341.87" width="66.99" height="32766" filterUnits="userSpaceOnUse" color-interpolation-filters="sRGB"><feFlood flood-color="#fff" result="bg"/><feBlend in="SourceGraphic" in2="bg"/></filter><mask id="mask-3" x="41.6" y="-8341.87" width="66.99" height="32766" maskUnits="userSpaceOnUse"><g class="cls-93"/></mask><linearGradient id="linear-gradient-3" x1="724.27" y1="268.22" x2="657.38" y2="229.88" gradientTransform="translate(765.92 534.08) rotate(180)" xlink:href="#linear-gradient"/><filter id="luminosity-noclip-4" x="268.35" y="-8341.87" width="90.14" height="32766" filterUnits="userSpaceOnUse" color-interpolation-filters="sRGB"><feFlood flood-color="#fff" result="bg"/><feBlend in="SourceGraphic" in2="bg"/></filter><mask id="mask-4" x="268.35" y="-8341.87" width="90.14" height="32766" maskUnits="userSpaceOnUse"><g class="cls-92"/></mask><linearGradient id="linear-gradient-4" x1="-240.4" y1="303.7" x2="-330.49" y2="252.07" gradientTransform="matrix(-1, 0, 0, 1, 27.97, 0)" xlink:href="#linear-gradient"/><filter id="luminosity-noclip-5" x="261.66" y="79.98" width="116.13" height="67.73" filterUnits="userSpaceOnUse" color-interpolation-filters="sRGB"><feFlood flood-color="#fff" result="bg"/><feBlend in="SourceGraphic" in2="bg"/></filter><mask id="mask-5" x="261.66" y="79.98" width="116.13" height="67.73" maskUnits="userSpaceOnUse"><g class="cls-1"><path class="cls-2" d="M377,147.72a.79.79,0,0,1-.4-.11L262.06,81.49a.81.81,0,1,1,.81-1.4l114.51,66.11a.81.81,0,0,1-.4,1.51Z"/></g></mask><linearGradient id="linear-gradient-5" x1="377.78" y1="147.13" x2="261.66" y2="80.57" gradientUnits="userSpaceOnUse"><stop offset="0" stop-color="#4ab969"/><stop offset="1" stop-color="#4daa74"/></linearGradient><linearGradient id="linear-gradient-6" x1="878.01" y1="193.8" x2="475.9" y2="193.8" gradientTransform="matrix(-1, 0, 0, 1, 873.6, 0)" gradientUnits="userSpaceOnUse"><stop offset="0" stop-color="#fff"/><stop offset="0.13" stop-color="#fcfcfc"/><stop offset="1" stop-color="#e9e8ea"/></linearGradient><linearGradient id="linear-gradient-7" x1="726.15" y1="253.27" x2="625.33" y2="253.27" gradientTransform="matrix(-1, 0, 0, 1, 873.6, 0)" gradientUnits="userSpaceOnUse"><stop offset="0" stop-color="#d4d4dc"/><stop offset="0.63" stop-color="#adacbc"/><stop offset="1" stop-color="#9b9aad"/></linearGradient><linearGradient id="linear-gradient-8" x1="878.01" y1="180.2" x2="475.9" y2="180.2" xlink:href="#linear-gradient-6"/><linearGradient id="linear-gradient-9" x1="726.15" y1="239.67" x2="625.33" y2="239.67" xlink:href="#linear-gradient-7"/><linearGradient id="linear-gradient-10" x1="719.89" y1="214.83" x2="636.16" y2="214.83" xlink:href="#linear-gradient-7"/><linearGradient id="linear-gradient-11" x1="-735.73" y1="265.75" x2="-729.43" y2="265.75" gradientTransform="translate(982.58)" gradientUnits="userSpaceOnUse"><stop offset="0" stop-color="#74c482"/><stop offset="0.51" stop-color="#5cbe74"/><stop offset="1" stop-color="#4ab969"/></linearGradient><linearGradient id="linear-gradient-12" x1="-730.46" y1="232.92" x2="-744.97" y2="259.21" gradientTransform="translate(982.58)" gradientUnits="userSpaceOnUse"><stop offset="0" stop-color="#4daa74"/><stop offset="1" stop-color="#58bc73"/></linearGradient><linearGradient id="linear-gradient-13" x1="-727.88" y1="258.12" x2="-727.88" y2="278.58" xlink:href="#linear-gradient-11"/><linearGradient id="linear-gradient-14" x1="-756.75" y1="242" x2="-693.28" y2="278.73" xlink:href="#linear-gradient-11"/><linearGradient id="linear-gradient-15" x1="-717.51" y1="255.2" x2="-711.21" y2="255.2" xlink:href="#linear-gradient-11"/><linearGradient id="linear-gradient-16" x1="-712.25" y1="222.37" x2="-726.75" y2="248.66" xlink:href="#linear-gradient-12"/><linearGradient id="linear-gradient-17" x1="-709.66" y1="247.57" x2="-709.66" y2="268.03" xlink:href="#linear-gradient-11"/><linearGradient id="linear-gradient-18" x1="-738.53" y1="231.45" x2="-675.07" y2="268.18" xlink:href="#linear-gradient-11"/><linearGradient id="linear-gradient-19" x1="-699.29" y1="244.65" x2="-692.99" y2="244.65" xlink:href="#linear-gradient-11"/><linearGradient id="linear-gradient-20" x1="-694.03" y1="211.82" x2="-708.53" y2="238.11" xlink:href="#linear-gradient-12"/><linearGradient id="linear-gradient-21" x1="-691.45" y1="237.02" x2="-691.45" y2="257.48" xlink:href="#linear-gradient-11"/><linearGradient id="linear-gradient-22" x1="-720.31" y1="220.9" x2="-656.85" y2="257.63" xlink:href="#linear-gradient-11"/><linearGradient id="linear-gradient-23" x1="-681.08" y1="234.1" x2="-674.78" y2="234.1" xlink:href="#linear-gradient-11"/><linearGradient id="linear-gradient-24" x1="-675.81" y1="201.27" x2="-690.32" y2="227.56" xlink:href="#linear-gradient-12"/><linearGradient id="linear-gradient-25" x1="-673.23" y1="226.47" x2="-673.23" y2="246.93" xlink:href="#linear-gradient-11"/><linearGradient id="linear-gradient-26" x1="-702.1" y1="210.35" x2="-638.63" y2="247.08" xlink:href="#linear-gradient-11"/><linearGradient id="linear-gradient-27" x1="-662.86" y1="223.55" x2="-656.56" y2="223.55" xlink:href="#linear-gradient-11"/><linearGradient id="linear-gradient-28" x1="-657.6" y1="190.72" x2="-672.1" y2="217.01" xlink:href="#linear-gradient-12"/><linearGradient id="linear-gradient-29" x1="-655.01" y1="215.92" x2="-655.01" y2="236.38" xlink:href="#linear-gradient-11"/><linearGradient id="linear-gradient-30" x1="-683.88" y1="199.8" x2="-620.42" y2="236.53" xlink:href="#linear-gradient-11"/><linearGradient id="linear-gradient-31" x1="-644.64" y1="213" x2="-638.34" y2="213" xlink:href="#linear-gradient-11"/><linearGradient id="linear-gradient-32" x1="-639.38" y1="180.17" x2="-653.88" y2="206.46" xlink:href="#linear-gradient-12"/><linearGradient id="linear-gradient-33" x1="-636.8" y1="205.37" x2="-636.8" y2="225.83" xlink:href="#linear-gradient-11"/><linearGradient id="linear-gradient-34" x1="-665.67" y1="189.25" x2="-602.2" y2="225.98" xlink:href="#linear-gradient-11"/><linearGradient id="linear-gradient-35" x1="739.09" y1="259.1" x2="751.25" y2="238.17" xlink:href="#linear-gradient-7"/><linearGradient id="linear-gradient-36" x1="757.3" y1="248.55" x2="769.47" y2="227.62" xlink:href="#linear-gradient-7"/><linearGradient id="linear-gradient-37" x1="775.52" y1="238" x2="787.69" y2="217.07" xlink:href="#linear-gradient-7"/><linearGradient id="linear-gradient-38" x1="793.73" y1="227.45" x2="805.9" y2="206.52" xlink:href="#linear-gradient-7"/><linearGradient id="linear-gradient-39" x1="811.95" y1="216.9" x2="824.12" y2="195.97" xlink:href="#linear-gradient-7"/><linearGradient id="linear-gradient-40" x1="830.17" y1="206.35" x2="842.33" y2="185.42" xlink:href="#linear-gradient-7"/><linearGradient id="linear-gradient-41" x1="751.27" y1="265.75" x2="757.57" y2="265.75" gradientTransform="matrix(-1, 0, 0, 1, 873.6, 0)" xlink:href="#linear-gradient-11"/><linearGradient id="linear-gradient-42" x1="756.53" y1="232.92" x2="742.03" y2="259.21" gradientTransform="matrix(-1, 0, 0, 1, 873.6, 0)" xlink:href="#linear-gradient-12"/><linearGradient id="linear-gradient-43" x1="759.11" y1="258.12" x2="759.11" y2="278.58" gradientTransform="matrix(-1, 0, 0, 1, 873.6, 0)" xlink:href="#linear-gradient-11"/><linearGradient id="linear-gradient-44" x1="730.25" y1="242" x2="793.71" y2="278.73" gradientTransform="matrix(-1, 0, 0, 1, 873.6, 0)" xlink:href="#linear-gradient-11"/><linearGradient id="linear-gradient-45" x1="769.48" y1="255.2" x2="775.78" y2="255.2" gradientTransform="matrix(-1, 0, 0, 1, 873.6, 0)" xlink:href="#linear-gradient-11"/><linearGradient id="linear-gradient-46" x1="774.75" y1="222.37" x2="760.24" y2="248.66" gradientTransform="matrix(-1, 0, 0, 1, 873.6, 0)" xlink:href="#linear-gradient-12"/><linearGradient id="linear-gradient-47" x1="777.33" y1="247.57" x2="777.33" y2="268.03" gradientTransform="matrix(-1, 0, 0, 1, 873.6, 0)" xlink:href="#linear-gradient-11"/><linearGradient id="linear-gradient-48" x1="748.46" y1="231.45" x2="811.93" y2="268.18" gradientTransform="matrix(-1, 0, 0, 1, 873.6, 0)" xlink:href="#linear-gradient-11"/><linearGradient id="linear-gradient-49" x1="787.7" y1="244.65" x2="794" y2="244.65" gradientTransform="matrix(-1, 0, 0, 1, 873.6, 0)" xlink:href="#linear-gradient-11"/><linearGradient id="linear-gradient-50" x1="792.96" y1="211.82" x2="778.46" y2="238.11" gradientTransform="matrix(-1, 0, 0, 1, 873.6, 0)" xlink:href="#linear-gradient-12"/><linearGradient id="linear-gradient-51" x1="795.55" y1="237.02" x2="795.55" y2="257.48" gradientTransform="matrix(-1, 0, 0, 1, 873.6, 0)" xlink:href="#linear-gradient-11"/><linearGradient id="linear-gradient-52" x1="766.68" y1="220.9" x2="830.14" y2="257.63" gradientTransform="matrix(-1, 0, 0, 1, 873.6, 0)" xlink:href="#linear-gradient-11"/><linearGradient id="linear-gradient-53" x1="805.92" y1="234.1" x2="812.22" y2="234.1" gradientTransform="matrix(-1, 0, 0, 1, 873.6, 0)" xlink:href="#linear-gradient-11"/><linearGradient id="linear-gradient-54" x1="811.18" y1="201.27" x2="796.68" y2="227.56" gradientTransform="matrix(-1, 0, 0, 1, 873.6, 0)" xlink:href="#linear-gradient-12"/><linearGradient id="linear-gradient-55" x1="813.76" y1="226.47" x2="813.76" y2="246.93" gradientTransform="matrix(-1, 0, 0, 1, 873.6, 0)" xlink:href="#linear-gradient-11"/><linearGradient id="linear-gradient-56" x1="784.9" y1="210.35" x2="848.36" y2="247.08" gradientTransform="matrix(-1, 0, 0, 1, 873.6, 0)" xlink:href="#linear-gradient-11"/><linearGradient id="linear-gradient-57" x1="824.13" y1="223.55" x2="830.43" y2="223.55" gradientTransform="matrix(-1, 0, 0, 1, 873.6, 0)" xlink:href="#linear-gradient-11"/><linearGradient id="linear-gradient-58" x1="829.4" y1="190.72" x2="814.89" y2="217.01" gradientTransform="matrix(-1, 0, 0, 1, 873.6, 0)" xlink:href="#linear-gradient-12"/><linearGradient id="linear-gradient-59" x1="831.98" y1="215.92" x2="831.98" y2="236.38" gradientTransform="matrix(-1, 0, 0, 1, 873.6, 0)" xlink:href="#linear-gradient-11"/><linearGradient id="linear-gradient-60" x1="803.11" y1="199.8" x2="866.58" y2="236.53" gradientTransform="matrix(-1, 0, 0, 1, 873.6, 0)" xlink:href="#linear-gradient-11"/><linearGradient id="linear-gradient-61" x1="842.35" y1="213" x2="848.65" y2="213" gradientTransform="matrix(-1, 0, 0, 1, 873.6, 0)" xlink:href="#linear-gradient-11"/><linearGradient id="linear-gradient-62" x1="847.61" y1="180.17" x2="833.11" y2="206.46" gradientTransform="matrix(-1, 0, 0, 1, 873.6, 0)" xlink:href="#linear-gradient-12"/><linearGradient id="linear-gradient-63" x1="850.2" y1="205.37" x2="850.2" y2="225.83" gradientTransform="matrix(-1, 0, 0, 1, 873.6, 0)" xlink:href="#linear-gradient-11"/><linearGradient id="linear-gradient-64" x1="821.33" y1="189.25" x2="884.79" y2="225.98" gradientTransform="matrix(-1, 0, 0, 1, 873.6, 0)" xlink:href="#linear-gradient-11"/><filter id="luminosity-noclip-6" x="0" y="106.23" width="116.13" height="67.73" filterUnits="userSpaceOnUse" color-interpolation-filters="sRGB"><feFlood flood-color="#fff" result="bg"/><feBlend in="SourceGraphic" in2="bg"/></filter><mask id="mask-6" x="0" y="106.23" width="116.13" height="67.73" maskUnits="userSpaceOnUse"><g class="cls-3"><path class="cls-4" d="M115.32,174a.79.79,0,0,1-.4-.11L.4,107.74a.81.81,0,0,1,.81-1.4l114.51,66.11a.81.81,0,0,1-.41,1.51Z"/></g></mask><linearGradient id="linear-gradient-65" x1="116.12" y1="173.37" x2="0.01" y2="106.81" xlink:href="#linear-gradient-5"/><filter id="luminosity-noclip-7" x="41.6" y="265.35" width="66.99" height="39.36" filterUnits="userSpaceOnUse" color-interpolation-filters="sRGB"><feFlood flood-color="#fff" result="bg"/><feBlend in="SourceGraphic" in2="bg"/></filter><mask id="mask-7" x="41.6" y="265.35" width="66.99" height="39.36" maskUnits="userSpaceOnUse"><g class="cls-5"><path class="cls-6" d="M107.78,304.71a.82.82,0,0,1-.4-.11L42,266.86a.81.81,0,0,1,.81-1.4l65.37,37.74a.81.81,0,0,1-.41,1.51Z"/></g></mask><linearGradient id="linear-gradient-66" x1="724.27" y1="268.22" x2="657.38" y2="229.88" gradientTransform="translate(765.92 534.08) rotate(180)" xlink:href="#linear-gradient-5"/><filter id="luminosity-noclip-8" x="268.35" y="251.52" width="90.14" height="52.72" filterUnits="userSpaceOnUse" color-interpolation-filters="sRGB"><feFlood flood-color="#fff" result="bg"/><feBlend in="SourceGraphic" in2="bg"/></filter><mask id="mask-8" x="268.35" y="251.52" width="90.14" height="52.72" maskUnits="userSpaceOnUse"><g class="cls-7"><path class="cls-8" d="M269.16,304.25a.81.81,0,0,1-.4-1.51l88.52-51.11a.81.81,0,0,1,.81,1.4l-88.52,51.11A.83.83,0,0,1,269.16,304.25Z"/></g></mask><linearGradient id="linear-gradient-67" x1="-240.4" y1="303.7" x2="-330.49" y2="252.07" gradientTransform="matrix(-1, 0, 0, 1, 27.97, 0)" xlink:href="#linear-gradient-5"/><linearGradient id="linear-gradient-68" x1="114.43" y1="161.89" x2="157.68" y2="161.89" gradientUnits="userSpaceOnUse"><stop offset="0" stop-color="#fff"/><stop offset="1" stop-color="#9b9aad"/></linearGradient><linearGradient id="linear-gradient-69" x1="160.22" y1="170.95" x2="257.92" y2="170.95" gradientUnits="userSpaceOnUse"><stop offset="0" stop-color="#9b9aad"/><stop offset="1" stop-color="#fff"/></linearGradient><linearGradient id="linear-gradient-70" x1="159.47" y1="174.99" x2="192.83" y2="174.99" gradientUnits="userSpaceOnUse"><stop offset="0" stop-color="#4ab969"/><stop offset="1" stop-color="#59bb73"/></linearGradient><linearGradient id="linear-gradient-71" x1="105.8" y1="113.69" x2="193.43" y2="113.69" gradientUnits="userSpaceOnUse"><stop offset="0" stop-color="#58bc73"/><stop offset="1" stop-color="#4daa74"/></linearGradient><linearGradient id="linear-gradient-72" x1="139.25" y1="110.78" x2="228.64" y2="110.78" xlink:href="#linear-gradient-70"/><linearGradient id="linear-gradient-73" x1="159.9" y1="26.55" x2="193.24" y2="26.55" xlink:href="#linear-gradient-70"/><linearGradient id="linear-gradient-74" x1="183.94" y1="73.73" x2="227.5" y2="73.73" xlink:href="#linear-gradient-70"/><linearGradient id="linear-gradient-75" x1="113.55" y1="20.32" x2="175.48" y2="20.32" xlink:href="#linear-gradient-71"/><linearGradient id="linear-gradient-76" x1="159.9" y1="47.92" x2="227.5" y2="47.92" xlink:href="#linear-gradient-71"/><linearGradient id="linear-gradient-77" x1="142.22" y1="14.79" x2="193.24" y2="14.79" xlink:href="#linear-gradient-71"/><linearGradient id="linear-gradient-78" x1="106.96" y1="154.73" x2="190.47" y2="55.2" gradientUnits="userSpaceOnUse"><stop offset="0" stop-color="#74c482"/><stop offset="1" stop-color="#58bc73"/></linearGradient></defs><title>01 - header - pricing</title><g class="cls-9"><g id="Layer_2" data-name="Layer 2"><g id="Layer_1-2" data-name="Layer 1"><g class="cls-10"><path class="cls-11" d="M377,147.72a.79.79,0,0,1-.4-.11L262.06,81.49a.81.81,0,1,1,.81-1.4l114.51,66.11a.81.81,0,0,1-.4,1.51Z"/></g><g class="cls-12"><path class="cls-13" d="M15,176.14,154.39,95.67c16.9-9.76,44.2-9.76,61,0l138.47,80.47c16.79,9.76,16.7,25.57-.2,35.33L214.27,291.94c-16.9,9.76-44.21,9.75-61,0L14.81,211.47C-2,201.71-1.89,185.89,15,176.14Z"/><path class="cls-14" d="M2.31,194.69c0,.22,0,.43,0,.65s0,.38.07.57.06.43.1.65.08.38.12.57.1.42.15.63.11.38.17.57.13.42.21.63.14.37.21.56.18.44.28.65l.25.54c.11.22.22.43.33.65l.29.52c.15.26.31.51.47.76l.3.46c.19.28.4.56.61.83l.27.37c.35.44.72.87,1.12,1.3l.32.33q.47.49,1,1l.47.44.62.54.59.49.68.53.64.48.73.52.69.46.79.5c.33.2.65.41,1,.61l138.47,80.47c.93.54,1.91,1,2.91,1.53l.79.37c.9.42,1.82.81,2.76,1.18l.36.15c1,.38,2,.73,3.1,1.06.73.23,1.47.43,2.22.63.56.15,1.12.32,1.7.46.78.19,1.58.35,2.38.51.58.12,1.16.25,1.74.35l.73.12q1.48.24,3,.42l.87.1q1.74.19,3.5.29l.65,0c.79,0,1.58.05,2.37.07s1.57,0,2.36,0l2-.05q1.1,0,2.19-.12l2-.17q1.08-.1,2.15-.24l1.93-.27c.77-.12,1.53-.25,2.29-.4s1.59-.3,2.37-.48l.56-.13c1.1-.26,2.18-.56,3.25-.87l.91-.28q1.33-.42,2.62-.9l.75-.27c.78-.3,1.54-.64,2.29-1,.37-.16.75-.31,1.11-.49,1.09-.52,2.15-1.06,3.16-1.65l139.38-80.47c8.5-4.91,12.75-11.35,12.73-17.79l.07,13.63c0,6.43-4.23,12.88-12.73,17.79L214.34,305.57c-1,.59-2.08,1.13-3.16,1.65-.36.17-.75.32-1.12.49-.64.29-1.28.58-1.94.85l-.35.13L207,309q-1.29.48-2.62.9l-.91.28-.61.19c-.87.25-1.75.47-2.64.68l-.56.13-1.3.29c-.35.07-.72.12-1.07.19-.76.14-1.52.28-2.29.4l-.92.16c-.33,0-.68.07-1,.11-.72.09-1.43.17-2.16.24-.34,0-.68.09-1,.11l-1,.05c-.73.05-1.46.09-2.19.12-.37,0-.73,0-1.1.06h-.88c-.79,0-1.58,0-2.37,0-.39,0-.78,0-1.17,0l-1.19-.06-.65,0c-1-.06-2-.13-2.94-.23l-.56-.07-.87-.1q-1.5-.18-3-.42l-.73-.12-.35-.06c-.47-.08-.92-.2-1.39-.3-.8-.16-1.6-.32-2.38-.51-.57-.14-1.13-.3-1.69-.46-.75-.2-1.49-.4-2.22-.63l-.48-.14q-1.33-.43-2.62-.93l-.37-.15c-.94-.37-1.86-.76-2.76-1.18l-.79-.37c-1-.48-2-1-2.91-1.53L14.88,225.1l-.53-.31-.47-.3-.78-.5-.69-.47-.73-.51-.64-.48-.68-.53-.59-.5L9.15,221l-.26-.22-.21-.21q-.51-.48-1-1l-.31-.33q-.59-.64-1.12-1.3l0-.06L6,217.56c-.21-.28-.42-.55-.61-.83l-.3-.46c-.16-.25-.32-.51-.47-.76l-.13-.21L4.32,215c-.12-.22-.23-.43-.33-.65l-.25-.54q-.15-.33-.28-.65c0-.1-.09-.19-.12-.29s-.06-.18-.09-.26S3.1,212.16,3,212s-.12-.38-.17-.57-.11-.42-.15-.63-.06-.23-.08-.34,0-.15,0-.23-.07-.43-.1-.65-.05-.38-.07-.57,0-.43,0-.65,0-.25,0-.38,0-.25,0-.38l-.07-13.63C2.28,194.18,2.3,194.43,2.31,194.69Z"/></g><path class="cls-15" d="M15,162.54,154.39,82.07c16.9-9.76,44.2-9.76,61,0l138.47,80.47c16.79,9.76,16.7,25.57-.2,35.33L214.27,278.34c-16.9,9.76-44.21,9.76-61,0L14.81,197.87C-2,188.11-1.89,172.29,15,162.54Z"/><path class="cls-16" d="M2.31,181.08c0,.22,0,.43,0,.65s0,.38.07.57.06.43.1.65.08.38.12.57.1.42.15.63.11.38.17.57.13.42.21.63.14.37.21.55.18.44.28.65l.25.54c.11.22.22.43.33.65l.29.52c.15.26.31.51.47.76l.3.46c.19.28.4.56.61.83l.27.37c.35.44.72.87,1.12,1.3l.32.33q.47.49,1,1l.47.44.62.54.59.49.68.53.64.48.73.52.69.46.79.5c.33.2.65.41,1,.61l138.47,80.47c.93.54,1.91,1,2.91,1.53l.79.37c.9.42,1.82.81,2.76,1.18l.36.15c1,.38,2,.73,3.1,1.06.73.23,1.47.43,2.22.63.56.15,1.12.32,1.7.46.78.19,1.58.35,2.38.51.58.12,1.16.25,1.74.35l.73.12q1.48.24,3,.42l.87.1q1.74.19,3.5.29l.65,0c.79,0,1.58.05,2.37.07s1.57,0,2.36,0l2-.05c.73,0,1.46-.07,2.19-.12l2-.17q1.08-.1,2.15-.24l1.93-.27c.77-.12,1.53-.25,2.29-.4s1.59-.3,2.37-.48l.56-.13c1.1-.26,2.18-.56,3.25-.87l.91-.28q1.33-.42,2.62-.9l.75-.27c.78-.3,1.54-.64,2.29-1,.37-.16.75-.31,1.11-.49,1.09-.52,2.15-1.06,3.16-1.65l139.38-80.47c8.5-4.91,12.75-11.35,12.73-17.79l.07,13.63c0,6.43-4.23,12.88-12.73,17.79L214.34,292c-1,.59-2.08,1.13-3.16,1.65-.36.17-.75.32-1.12.49-.64.29-1.28.58-1.94.85l-.35.13-.75.27q-1.29.48-2.62.89l-.91.28-.61.19c-.87.25-1.75.47-2.64.68l-.56.13-1.3.29c-.35.07-.72.12-1.07.19-.76.14-1.52.28-2.29.4-.31,0-.61.12-.92.16l-1,.11c-.72.09-1.43.17-2.16.24-.34,0-.68.09-1,.11l-1,.05c-.73.05-1.46.09-2.19.12-.37,0-.73,0-1.1.06h-.88c-.79,0-1.58,0-2.37,0-.39,0-.78,0-1.17,0l-1.19-.06-.65,0c-1-.06-2-.13-2.94-.23l-.56-.07-.87-.1q-1.5-.18-3-.42l-.73-.12-.35-.06c-.47-.08-.92-.2-1.39-.3-.8-.16-1.6-.32-2.38-.51-.57-.14-1.13-.3-1.69-.46-.75-.2-1.49-.4-2.22-.63l-.48-.14q-1.33-.43-2.62-.93l-.37-.15c-.94-.37-1.86-.76-2.76-1.18l-.79-.37c-1-.48-2-1-2.91-1.53L14.88,211.5l-.53-.31-.47-.3-.78-.5-.69-.47-.73-.51-.64-.48-.68-.53-.59-.5-.62-.54-.26-.22-.21-.21q-.51-.48-1-1l-.31-.33q-.59-.64-1.12-1.3l0-.06L6,204c-.21-.28-.42-.55-.61-.83l-.3-.46c-.16-.25-.32-.51-.47-.76l-.13-.21c-.06-.1-.11-.21-.16-.31s-.23-.43-.33-.65l-.25-.54q-.15-.33-.28-.65c0-.1-.09-.19-.12-.29s-.06-.18-.09-.26-.14-.42-.21-.62-.12-.38-.17-.57-.11-.42-.15-.63-.06-.23-.08-.34,0-.15,0-.23-.07-.43-.1-.65-.05-.38-.07-.57,0-.43,0-.65,0-.25,0-.38,0-.25,0-.38l-.07-13.63C2.28,180.58,2.3,180.83,2.31,181.08Z"/><path class="cls-17" d="M325,180.11,209.21,246.94c-14,8.1-36.72,8.1-50.66,0l-115-66.83c-13.94-8.11-13.86-21.24.17-29.34L159.47,83.93c14-8.1,36.71-8.1,50.66,0l17.24,10,22.24,12.92,1.92,1.12,22.41,13,35.24,20.48,16,9.27a26.28,26.28,0,0,1,6.36,5C338.56,163.61,336.37,173.52,325,180.11Z"/><path class="cls-18" d="M33.16,166.17c0,.18,0,.36,0,.54s0,.31.06.47.05.36.08.54.06.32.1.47.08.35.13.52.09.32.14.47.11.35.17.52l.17.46q.11.27.23.54l.21.45.28.54.24.43c.12.21.26.42.39.64l.25.38c.16.23.33.46.5.69l.23.3c.29.37.6.73.93,1.08l.26.27q.39.41.81.81l.39.36.52.45.49.41.56.44.53.4.61.43.57.38.65.41.83.51,115,66.84c.78.45,1.59.87,2.42,1.27l.66.31c.75.35,1.51.67,2.3,1l.3.12c.84.32,1.7.61,2.57.88.6.19,1.22.36,1.84.53.47.13.93.26,1.41.38.65.16,1.32.29,2,.42.48.1,1,.21,1.45.29l.6.1q1.23.2,2.48.35l.72.09q1.45.16,2.91.24l.54,0c.66,0,1.31,0,2,.05s1.31,0,2,0l1.64,0,1.82-.1,1.65-.14,1.79-.2,1.6-.23c.64-.1,1.27-.21,1.9-.33s1.32-.25,2-.4l.47-.11c.91-.22,1.81-.46,2.7-.72l.75-.23q1.11-.35,2.18-.74l.62-.23c.65-.25,1.28-.53,1.9-.81.31-.14.62-.26.93-.4.9-.43,1.78-.88,2.63-1.37L325,180.11c7.06-4.08,10.59-9.43,10.57-14.77l.06,11.32c0,5.34-3.51,10.7-10.57,14.77L209.26,258.26c-.84.49-1.72.94-2.63,1.37-.3.14-.62.27-.93.4-.53.24-1.06.48-1.61.7l-.29.11-.62.23q-1.07.4-2.18.74l-.76.23-.51.16c-.72.21-1.45.39-2.19.57l-.46.1-1.08.24-.89.15c-.63.12-1.26.23-1.9.33l-.76.13-.84.09-1.79.2-.85.1-.8,0-1.82.1-.91,0h-.73c-.66,0-1.31,0-2,0h-1l-1,0-.54,0c-.82,0-1.63-.11-2.44-.19l-.47-.06-.73-.09q-1.25-.15-2.48-.35l-.61-.1-.29,0c-.39-.07-.77-.17-1.15-.25-.66-.13-1.33-.27-2-.42-.48-.12-.94-.25-1.41-.38-.62-.17-1.24-.34-1.84-.53l-.4-.11q-1.11-.36-2.18-.77l-.31-.13c-.78-.3-1.54-.63-2.29-1l-.66-.31c-.83-.4-1.64-.82-2.42-1.27l-115-66.84-.44-.26-.39-.25-.65-.41-.57-.39-.61-.43-.53-.4-.56-.44-.49-.41-.52-.45-.21-.19-.18-.18q-.42-.4-.81-.81l-.26-.27q-.49-.54-.93-1.08l0,0-.19-.26c-.17-.23-.35-.46-.5-.69l-.25-.38c-.14-.21-.27-.42-.39-.64l-.11-.17-.13-.26-.28-.54-.21-.45q-.12-.27-.23-.54l-.1-.24-.07-.22c-.06-.17-.12-.35-.17-.52s-.1-.32-.14-.47-.09-.35-.13-.52,0-.19-.07-.28,0-.13,0-.19-.06-.36-.08-.54,0-.31-.06-.47,0-.36,0-.54,0-.21,0-.32,0-.21,0-.31l-.06-11.32C33.13,165.75,33.15,166,33.16,166.17Z"/><g class="cls-9"><polygon class="cls-19" points="246.86 265.97 250.38 263.93 253.16 265.53 249.64 267.57 246.86 265.97"/><polygon class="cls-20" points="223.59 242.81 223.58 246.59 249.65 261.56 249.64 267.57 246.86 265.97 246.85 269.75 252.94 273.25 252.94 259.68 223.59 242.81"/><polygon class="cls-21" points="252.94 259.68 252.94 273.25 256.47 271.21 256.47 257.63 252.94 259.68"/><polygon class="cls-22" points="227.11 240.76 223.59 242.81 252.94 259.68 256.47 257.63 227.11 240.76"/></g><g class="cls-9"><polygon class="cls-23" points="265.07 255.42 268.59 253.38 271.37 254.98 267.86 257.02 265.07 255.42"/><polygon class="cls-24" points="241.81 232.26 241.8 236.04 267.87 251 267.86 257.02 265.07 255.42 265.06 259.2 271.15 262.7 271.15 249.13 241.81 232.26"/><polygon class="cls-25" points="271.15 249.13 271.15 262.7 274.69 260.66 274.69 247.08 271.15 249.13"/><polygon class="cls-26" points="245.33 230.22 241.81 232.26 271.15 249.13 274.69 247.08 245.33 230.22"/></g><g class="cls-9"><polygon class="cls-27" points="283.29 244.87 286.81 242.83 289.59 244.43 286.07 246.47 283.29 244.87"/><polygon class="cls-28" points="260.03 221.71 260.02 225.49 286.08 240.46 286.07 246.48 283.29 244.87 283.28 248.65 289.37 252.15 289.37 238.57 260.03 221.71"/><polygon class="cls-29" points="289.37 238.57 289.37 252.15 292.9 250.11 292.9 236.53 289.37 238.57"/><polygon class="cls-30" points="263.55 219.66 260.03 221.71 289.37 238.57 292.9 236.53 263.55 219.66"/></g><g class="cls-9"><polygon class="cls-31" points="301.51 234.32 305.02 232.28 307.81 233.88 304.29 235.93 301.51 234.32"/><polygon class="cls-32" points="278.24 211.16 278.23 214.94 304.3 229.91 304.29 235.93 301.51 234.32 301.5 238.1 307.59 241.6 307.59 228.03 278.24 211.16"/><polygon class="cls-33" points="307.59 228.03 307.59 241.6 311.12 239.56 311.12 225.98 307.59 228.03"/><polygon class="cls-34" points="281.76 209.12 278.24 211.16 307.59 228.03 311.12 225.98 281.76 209.12"/></g><g class="cls-9"><polygon class="cls-35" points="319.72 223.77 323.24 221.73 326.02 223.33 322.5 225.38 319.72 223.77"/><polygon class="cls-36" points="296.46 200.61 296.45 204.39 322.52 219.36 322.5 225.38 319.72 223.77 319.71 227.55 325.8 231.05 325.8 217.47 296.46 200.61"/><polygon class="cls-37" points="325.8 217.47 325.8 231.05 329.33 229.01 329.33 215.43 325.8 217.47"/><polygon class="cls-38" points="299.98 198.56 296.46 200.61 325.8 217.47 329.33 215.43 299.98 198.56"/></g><g class="cls-9"><polygon class="cls-39" points="337.94 213.22 341.46 211.18 344.24 212.78 340.72 214.82 337.94 213.22"/><polygon class="cls-40" points="314.68 190.06 314.67 193.84 340.74 208.81 340.72 214.83 337.94 213.22 337.93 217 344.02 220.5 344.02 206.93 314.68 190.06"/><polygon class="cls-41" points="344.02 206.93 344.02 220.5 347.55 218.46 347.55 204.88 344.02 206.93"/><polygon class="cls-42" points="318.19 188.01 314.68 190.06 344.02 206.93 347.55 204.88 318.19 188.01"/></g><polygon class="cls-43" points="122.34 269.75 127.39 263.29 147.47 251.79 145.61 246.59 142.44 248.41 142.57 248.94 122.34 260.36 119.54 263.7 119.55 264.35 122.33 265.97 122.34 269.75"/><polygon class="cls-44" points="104.13 259.2 109.17 252.74 129.26 241.25 127.39 236.04 124.22 237.86 124.36 238.4 104.13 249.81 101.33 253.15 101.33 253.8 104.12 255.42 104.13 259.2"/><polygon class="cls-45" points="85.91 248.65 90.96 242.19 111.04 230.69 109.17 225.49 106 227.31 106.14 227.84 85.91 239.26 83.11 242.6 83.11 243.25 85.9 244.87 85.91 248.65"/><polygon class="cls-46" points="67.7 238.1 72.74 231.64 92.83 220.14 90.96 214.94 87.79 216.76 87.92 217.29 67.7 228.71 64.89 232.05 64.9 232.7 67.69 234.32 67.7 238.1"/><polygon class="cls-47" points="49.48 227.55 54.53 221.09 74.61 209.59 72.74 204.39 69.57 206.21 69.71 206.74 49.48 218.16 46.68 221.5 46.68 222.15 49.47 223.77 49.48 227.55"/><polygon class="cls-48" points="31.26 217 36.31 210.54 56.39 199.04 54.53 193.84 51.36 195.66 51.49 196.19 31.26 207.61 28.46 210.95 28.46 211.6 31.25 213.22 31.26 217"/><g class="cls-9"><polygon class="cls-49" points="122.33 265.97 118.82 263.93 116.03 265.53 119.55 267.57 122.33 265.97"/><polygon class="cls-50" points="145.6 242.81 145.61 246.59 119.54 261.56 119.55 267.57 122.33 265.97 122.34 269.75 116.25 273.25 116.25 259.68 145.6 242.81"/><polygon class="cls-51" points="116.25 259.68 116.25 273.25 112.72 271.21 112.72 257.63 116.25 259.68"/><polygon class="cls-52" points="142.08 240.76 145.6 242.81 116.25 259.68 112.72 257.63 142.08 240.76"/></g><g class="cls-9"><polygon class="cls-53" points="104.12 255.42 100.6 253.38 97.82 254.98 101.34 257.02 104.12 255.42"/><polygon class="cls-54" points="127.38 232.26 127.39 236.04 101.32 251 101.34 257.02 104.12 255.42 104.13 259.2 98.04 262.7 98.04 249.13 127.38 232.26"/><polygon class="cls-55" points="98.04 249.13 98.04 262.7 94.51 260.66 94.51 247.08 98.04 249.13"/><polygon class="cls-56" points="123.86 230.22 127.38 232.26 98.04 249.13 94.51 247.08 123.86 230.22"/></g><g class="cls-9"><polygon class="cls-57" points="85.9 244.87 82.38 242.83 79.6 244.43 83.12 246.47 85.9 244.87"/><polygon class="cls-58" points="109.16 221.71 109.17 225.49 83.11 240.46 83.12 246.48 85.9 244.87 85.91 248.65 79.82 252.15 79.82 238.57 109.16 221.71"/><polygon class="cls-59" points="79.82 238.57 79.82 252.15 76.29 250.11 76.29 236.53 79.82 238.57"/><polygon class="cls-60" points="105.65 219.66 109.16 221.71 79.82 238.57 76.29 236.53 105.65 219.66"/></g><g class="cls-9"><polygon class="cls-61" points="67.68 234.32 64.17 232.28 61.38 233.88 64.9 235.93 67.68 234.32"/><polygon class="cls-62" points="90.95 211.16 90.96 214.94 64.89 229.91 64.9 235.93 67.68 234.32 67.69 238.1 61.6 241.6 61.6 228.03 90.95 211.16"/><polygon class="cls-63" points="61.6 228.03 61.6 241.6 58.07 239.56 58.07 225.98 61.6 228.03"/><polygon class="cls-64" points="87.43 209.12 90.95 211.16 61.6 228.03 58.07 225.98 87.43 209.12"/></g><g class="cls-9"><polygon class="cls-65" points="49.47 223.77 45.95 221.73 43.17 223.33 46.69 225.38 49.47 223.77"/><polygon class="cls-66" points="72.73 200.61 72.74 204.39 46.67 219.36 46.69 225.38 49.47 223.77 49.48 227.55 43.39 231.05 43.39 217.47 72.73 200.61"/><polygon class="cls-67" points="43.39 217.47 43.39 231.05 39.86 229.01 39.86 215.43 43.39 217.47"/><polygon class="cls-68" points="69.21 198.56 72.73 200.61 43.39 217.47 39.86 215.43 69.21 198.56"/></g><g class="cls-9"><polygon class="cls-69" points="31.25 213.22 27.73 211.18 24.95 212.78 28.47 214.82 31.25 213.22"/><polygon class="cls-70" points="54.51 190.06 54.52 193.84 28.46 208.81 28.47 214.83 31.25 213.22 31.26 217 25.17 220.5 25.17 206.93 54.51 190.06"/><polygon class="cls-71" points="25.17 206.93 25.17 220.5 21.64 218.46 21.64 204.88 25.17 206.93"/><polygon class="cls-72" points="51 188.01 54.51 190.06 25.17 206.93 21.64 204.88 51 188.01"/></g><g class="cls-73"><path class="cls-74" d="M115.32,174a.79.79,0,0,1-.4-.11L.4,107.74a.81.81,0,0,1,.81-1.4l114.51,66.11a.81.81,0,0,1-.41,1.51Z"/></g><g class="cls-75"><path class="cls-76" d="M107.78,304.71a.82.82,0,0,1-.4-.11L42,266.86a.81.81,0,0,1,.81-1.4l65.37,37.74a.81.81,0,0,1-.41,1.51Z"/></g><g class="cls-77"><path class="cls-78" d="M269.16,304.25a.81.81,0,0,1-.4-1.51l88.52-51.11a.81.81,0,0,1,.81,1.4l-88.52,51.11A.83.83,0,0,1,269.16,304.25Z"/></g><polygon class="cls-79" points="310.59 152.85 310.3 152.86 302.67 157.27 302.64 157.44 303.73 158.06 304.02 158.05 311.65 153.64 311.68 153.47 310.59 152.85"/><path class="cls-79" d="M316.44,156c-2-1.17-4.84-1-7.38.51s-2.92,3.09-.88,4.26,4.84,1,7.38-.51S318.47,157.21,316.44,156ZM309.6,160c-1.22-.7-.94-1.65.81-2.66s3.38-1.17,4.6-.47.94,1.65-.81,2.66S310.82,160.69,309.6,160Z"/><path class="cls-79" d="M321.08,160.55l1.49.86h.29l1.11-.64,0-.17-4.06-2.35h-.29l-1.11.64,0,.17.95.55,0,.17-4.29,2.48c-1.43.83-1.12,1.74-.17,2.29l1.08.63h.29l1.11-.64,0-.17-1.08-.63c-.27-.16-.38-.4.09-.68l4.29-2.48Z"/><polygon class="cls-79" points="307.51 151.07 307.22 151.08 299.58 155.49 299.56 155.66 300.64 156.28 300.94 156.27 308.57 151.86 308.59 151.69 307.51 151.07"/><path class="cls-79" d="M305.8,150.05c-2-1.13-4.66-.92-7.1.49s-2.8,3-.85,4.1l.85.5H299l1.07-.62,0-.15-.85-.51c-1.17-.68-.91-1.58.78-2.55s3.25-1.13,4.42-.45l.87.5h.26l1.07-.62,0-.16Z"/><path class="cls-79" d="M299.42,146.21a5.07,5.07,0,0,0-3.14-.53l-.14-.08c.21-.43.44-1-.65-1.66l-.65-.36h-.29l-1.12.64,0,.17.47.27c.75.56.12,1.06-.76,1.57L288.36,149l0,.17,1.08.63h.29l4.45-2.57a3.62,3.62,0,0,1,3.56-.33c1.08.63.42,1.16-.53,1.71l-4.77,2.75,0,.17,1.08.63h.29l4.77-2.75C300.29,148.37,301.32,147.31,299.42,146.21Z"/><polygon class="cls-79" points="292.78 142.56 292.49 142.57 284.85 146.98 284.83 147.15 285.91 147.78 286.21 147.76 293.84 143.36 293.86 143.19 292.78 142.56"/><polygon class="cls-80" points="287.42 154.44 287.17 154.43 281.25 157.85 281.25 158 282.3 158.6 282.56 158.61 288.48 155.19 288.47 155.04 287.42 154.44"/><polygon class="cls-80" points="278.77 150.67 278.52 150.66 274.71 152.86 274.72 153.01 275.77 153.61 276.03 153.62 279.83 151.42 279.82 151.27 278.77 150.67"/><polygon class="cls-80" points="296.26 161.14 296.01 161.14 292.86 162.96 292.86 163.1 293.91 163.71 294.17 163.71 297.32 161.89 297.31 161.75 296.26 161.14"/><polygon class="cls-80" points="295.26 158.16 294.98 158.17 287.71 162.36 287.69 162.53 288.74 163.13 289.03 163.12 296.29 158.93 296.31 158.76 295.26 158.16"/><polygon class="cls-80" points="307.6 166.82 307.37 166.81 302.68 169.52 302.71 169.65 303.76 170.26 303.99 170.28 308.69 167.56 308.65 167.43 307.6 166.82"/><polygon class="cls-80" points="284.05 151.68 283.77 151.69 276.5 155.89 276.48 156.05 277.53 156.66 277.81 156.65 285.08 152.45 285.1 152.29 284.05 151.68"/><path class="cls-81" d="M141.76,183.93s-23.31-13.34-27.32-23.38c22.5-16.19,30.28-20.7,30.28-20.7l13,25.63Z"/><path class="cls-82" d="M160.22,194.4s23.35,11.17,39.73,2.11l58-32.09-37.74-22.57-17.48,15.32Z"/><polygon class="cls-83" points="159.53 175.17 192.83 155.82 192.77 174.81 159.47 194.16 159.53 175.17"/><path class="cls-84" d="M191.75,125q-3.38.07-10.66-4.14-8.82-5.09-20.45-15.7-2.79-2.54-5.47-5.14c-.59-.57-1.16-1.15-1.74-1.72-1.19-1.17-2.38-2.34-3.54-3.52-.68-.7-1.34-1.4-2-2.1-1-1.08-2.06-2.16-3.07-3.26-.7-.75-1.38-1.52-2.06-2.28-1.23-1.37-2.46-2.73-3.66-4.12l-33.3,19.35,1.75,2c.63.71,1.28,1.41,1.91,2.12s1.36,1.52,2.06,2.27c1,1.1,2,2.18,3.08,3.26.67.7,1.33,1.4,2,2.1,1.16,1.19,2.35,2.36,3.54,3.53.58.57,1.15,1.15,1.74,1.72q2.69,2.59,5.47,5.14,11.64,10.61,20.45,15.7,7.28,4.2,10.66,4.14a3.41,3.41,0,0,0,1.67-.42l33.3-19.35A3.4,3.4,0,0,1,191.75,125Z"/><path class="cls-85" d="M228.57,134.19c0-.19,0-.37,0-.56,0-.84-.11-1.68-.19-2.52,0-.14,0-.27,0-.41q-.13-1.15-.3-2.29c0-.15,0-.3-.07-.45q-.2-1.25-.46-2.48l-.12-.54c-.18-.81-.37-1.62-.59-2.43l0-.12c-.23-.84-.48-1.67-.75-2.5l-.18-.55c-.27-.82-.56-1.64-.87-2.45l-.14-.34q-.44-1.12-.92-2.24l-.12-.3-.08-.16q-.55-1.24-1.16-2.47l-.26-.51c-.43-.85-.87-1.69-1.35-2.53-.38-.67-.78-1.35-1.19-2l-.39-.63q-.45-.74-.94-1.49l-.45-.69q-.54-.82-1.11-1.65l-.33-.49q-.75-1.07-1.55-2.17l-.39-.53q-.63-.85-1.28-1.7l-.57-.74-1.28-1.62-.55-.69c-.62-.76-1.25-1.53-1.91-2.31l-.06-.07c-.64-.75-1.29-1.52-2-2.28l-.21-.25-.38-.42-1.87-2.08-.59-.64q-1.2-1.31-2.46-2.64l-.48-.5-2.19-2.27L198,79.7c-.9-.92-1.82-1.84-2.77-2.77q-8.81-8.54-13.77-14l-1.31-1.47-.81-.93-.19-.22-.94-1.12L178,58.9l-.63-.77-.29-.36-.5-.64-.28-.37-.43-.59-.25-.34-.4-.58-.19-.28c-.18-.27-.35-.54-.51-.8s-.34-.58-.5-.87l-.14-.29c-.1-.19-.2-.39-.28-.58l-.11-.25q-.18-.42-.33-.85l-.09-.26c-.11-.35-.21-.69-.29-1l0-.17q-.09-.45-.15-.89c0-.09,0-.19,0-.28,0-.35-.06-.69-.06-1q0-2.77,1.54-3.66l-33.3,19.35q-1.53.89-1.54,3.66c0,.35,0,.69.06,1,0,.09,0,.19,0,.28,0,.3.08.59.15.89,0,.06,0,.11,0,.17.08.34.17.69.28,1l.09.27q.15.42.33.85l.06.16,0,.09c.09.19.19.39.28.58l.14.29c.15.29.32.58.5.87s.33.52.51.8l.18.27.41.59.24.34.43.59.28.37.49.64.29.37.62.76.24.3.94,1.11.21.24.68.79.11.12,1.32,1.48q5,5.48,13.77,14c.95.93,1.86,1.85,2.77,2.77l.73.75,2.18,2.26.48.51q1.26,1.33,2.46,2.63l.59.64q1,1,1.87,2.08l.59.67c.67.77,1.33,1.53,2,2.28l.06.07c.65.78,1.29,1.54,1.91,2.31l.55.69,1.28,1.62.57.74q.66.86,1.28,1.71l.39.53q.8,1.09,1.55,2.17l.33.49q.57.83,1.11,1.65l.45.69q.48.75.94,1.49l.39.63c.41.69.82,1.37,1.19,2,.47.84.92,1.68,1.35,2.53l.26.51q.61,1.23,1.16,2.47l.2.46q.49,1.12.93,2.24l.13.34c.31.82.6,1.64.87,2.46l.18.55c.27.83.52,1.67.75,2.5l0,.12c.22.81.41,1.62.59,2.43l.12.54q.26,1.24.46,2.49c0,.15,0,.3.07.44q.18,1.14.3,2.29c0,.13,0,.27,0,.4.09.84.15,1.68.19,2.52,0,.19,0,.37,0,.56,0,.86.06,1.73.06,2.59q0,16.27-8.91,21.43l33.3-19.35q8.87-5.16,8.91-21.43C228.64,135.92,228.61,135.05,228.57,134.19Z"/><polygon class="cls-86" points="159.94 29.58 193.24 10.23 193.2 23.51 159.9 42.86 159.94 29.58"/><polygon class="cls-87" points="194.2 72.33 227.5 52.97 217.24 75.13 183.94 94.48 194.2 72.33"/><path class="cls-88" d="M113.55,29.11l33.3-19.35a12.74,12.74,0,0,1,1.37-.69q9.1-3.91,27.26,4.41l-33.3,19.35Q124,24.52,114.92,28.42A12.73,12.73,0,0,0,113.55,29.11Z"/><path class="cls-89" d="M159.9,42.86l33.3-19.35q17,10.91,34.3,29.46L194.2,72.32Q176.93,53.78,159.9,42.86Z"/><polygon class="cls-90" points="142.22 19.35 175.52 0 193.24 10.23 159.94 29.58 142.22 19.35"/><path class="cls-91" d="M159.94,29.58l0,13.28q17,10.91,34.3,29.46L183.94,94.48Q166.07,74.9,151.69,66.6q-6.85-4-9.64-3.64T139.25,67a12.32,12.32,0,0,0,2,6.52,64.32,64.32,0,0,0,7,8.75q5,5.48,13.77,14,17.87,17.61,25.64,31.4a56.94,56.94,0,0,1,7.72,28.45q0,16.52-9.19,21.59t-26.62-2.56l-.05,19-17.72-10.23.05-18.4A181.77,181.77,0,0,1,105.7,135l.09-32.66a254.15,254.15,0,0,0,21.55,22.15q11.64,10.61,20.45,15.7,7.28,4.2,10.66,4.14t3.4-4.78a12.61,12.61,0,0,0-2.42-6.92,84.56,84.56,0,0,0-8.12-9.81q-5.68-6.14-15.35-15.76a154.61,154.61,0,0,1-17.52-20.51,75.37,75.37,0,0,1-9.68-18.49,59.8,59.8,0,0,1-3-19.52q0-16.23,9.15-20.14t27.26,4.41l0-13.48Z"/></g></g></g></svg>