<?xml version="1.0" encoding="utf-8"?>
<!-- Generator: Adobe Illustrator 21.0.2, SVG Export Plug-In . SVG Version: 6.00 Build 0)  -->
<svg version="1.1" id="Layer_1" xmlns="http://www.w3.org/2000/svg" xmlns:xlink="http://www.w3.org/1999/xlink" x="0px" y="0px"
	 viewBox="0 0 282 313.5" style="enable-background:new 0 0 282 313.5;" xml:space="preserve">
<style type="text/css">
	.st0{fill:#E8E8EA;}
	.st1{fill:#424143;}
	.st2{fill:#AAAABA;}
	.st3{fill:#95D359;}
	.st4{fill:#C13D1A;}
	.st5{fill:#DB5126;}
	.st6{fill:#EF602E;}
	.st7{fill:#D4D4DC;}
	.st8{fill:#9B9AAC;}
	.st9{fill:#FFFFFF;}
	.st10{fill:#4FAA73;}
	.st11{fill:#2BD978;}
	.st12{fill:#57BB73;}
</style>
<title>data-right</title>
<g id="Layer_2">
	<g id="_ÎÓÈ_1">
		<polygon class="st0" points="172.4,139.3 157.8,130.9 172.4,122.4 187,130.9 187,130.9 201.6,139.3 187,147.7 187,147.7 
			172.4,156.1 157.8,147.7 172.4,139.3 		"/>
		<polygon class="st1" points="172.4,118.3 172.4,56.4 157.8,48 157.8,109.8 		"/>
		<polygon class="st2" points="172.4,56.4 187,48 187,109.8 172.4,118.3 		"/>
		<polygon class="st0" points="157.8,48 172.4,39.6 187,48 172.4,56.4 		"/>
		<polygon class="st3" points="157.8,121.1 172.4,112.7 172.4,118.3 157.8,126.7 		"/>
		<polygon class="st4" points="187,126.7 187,81.7 172.4,73.3 172.4,118.3 		"/>
		<polygon class="st5" points="187,81.7 201.6,73.3 201.6,118.3 187,126.7 		"/>
		<polygon class="st6" points="172.4,73.3 187,64.9 201.6,73.3 187,81.7 		"/>
		<polygon class="st2" points="187,126.7 187,81.7 172.4,73.3 172.4,118.3 		"/>
		<polygon class="st7" points="187,81.7 201.6,73.3 201.6,118.3 187,126.7 		"/>
		<polygon class="st0" points="172.4,73.3 187,64.9 201.6,73.3 187,81.7 		"/>
		<polygon class="st1" points="172.4,135.1 172.4,109.8 157.8,101.4 157.8,126.7 		"/>
		<polygon class="st2" points="172.4,109.8 187,101.4 187,126.7 172.4,135.1 		"/>
		<polygon class="st0" points="157.8,101.4 172.4,93 187,101.4 172.4,109.8 		"/>
		<path class="st0" d="M111,292.6l110.3-63.7c3.1-1.8,2.7-4.9-0.9-7l-75.1-43.4c-3.6-2.1-9.1-2.3-12.2-0.5L22.9,241.7
			c-3.1,1.8-2.7,4.9,0.9,7L98.9,292C102.5,294.2,107.9,294.4,111,292.6z"/>
		<path class="st1" d="M18.8,116.4l112.1-64.7c1.1-0.8,2.6-1,3.8-0.5l0,0l0.2,0.1l0,0l3.7,1.7l-4,2c0,0.1,0,0.1,0,0.2v92.1
			c0,4.6-2.9,10-6.4,12l-109.1,63l-0.6,5.1l-4-1.9c-1.3-0.8-2.1-2.5-2.1-5v-92.1C12.4,123.8,15.3,118.4,18.8,116.4z"/>
		<path class="st2" d="M18.8,116.4l112.1-64.7c1.1-0.8,2.6-1,3.8-0.5l0,0l0.2,0.1l0,0l3.7,1.7l-4,2c0,0.1,0,0.1,0,0.2v60.7l-51,40.3
			l-69.3-34.9C15.3,119.3,16.9,117.6,18.8,116.4z"/>
		<path class="st8" d="M16.9,117.9l11,4.6l-8.3,6.4l-6.9-2.9C13.3,122.9,14.8,120.1,16.9,117.9z"/>
		<path class="st0" d="M22.4,226.9l112.1-64.7c3.5-2,6.4-7.4,6.4-12V58.2c0-4.6-2.9-6.7-6.4-4.7L22.5,118.2c-3.5,2-6.4,7.4-6.4,12
			v92.1C16.1,226.9,18.9,229,22.4,226.9z"/>
		<path class="st9" d="M26.2,220.1l104.7-60.4c3.2-1.9,5.8-6.8,5.8-11V64.4c0-4.2-2.6-6.1-5.8-4.3L26.2,120.6
			c-3.2,1.9-5.8,6.8-5.8,11v84.3C20.3,220,23,222,26.2,220.1z"/>
		<path class="st9" d="M26.2,220.1l104.7-60.4c3.2-1.9,5.8-6.8,5.8-11V64.4c0-4.2-2.6-6.1-5.8-4.3L26.2,120.6
			c-3.2,1.9-5.8,6.8-5.8,11v84.3C20.3,220,23,222,26.2,220.1z"/>
		<path class="st1" d="M20.8,229.8l15.1-2l97.3-56.2c3.1-1.8,8.6-1.6,12.2,0.5l69,39.8l9.1-1.2v5.2l0,0c0,1.4-0.8,2.6-2.1,3.2
			L111,282.8c-3.1,1.8-8.6,1.6-12.2-0.5l-75.1-43.4c-2-1.2-3-2.7-3-4.1l0,0L20.8,229.8z"/>
		<path class="st2" d="M93.9,194.3l6.9-4h76l37.5,21.6l9.1-1.2v5.2l0,0c0,1.4-0.8,2.6-2.1,3.2L111,282.8c-1.9,1-4.1,1.4-6.3,1.2
			L93.9,194.3z"/>
		<path class="st7" d="M219.4,211.3l4-0.5v5.2l0,0c0,1.4-0.8,2.6-2.1,3.2l-1.9,1.1L219.4,211.3z"/>
		<path class="st8" d="M109.9,283.3c-3.4,1.1-7.1,0.9-10.3-0.6v-11.5h10.3V283.3z"/>
		<path class="st0" d="M111,277.6l110.3-63.7c3.1-1.8,2.7-4.9-0.9-7l-75.1-43.4c-3.6-2.1-9.1-2.3-12.2-0.5L22.9,226.7
			c-3.1,1.8-2.7,4.9,0.9,7l75.1,43.3C102.5,279.2,107.9,279.4,111,277.6z"/>
		<path class="st9" d="M23.7,231.9l75.1,43.4c3.6,2.1,9.1,2.3,12.2,0.5L221.3,212c0.9-0.5,1.6-1.2,1.9-2.1c0.5,1.5-0.1,3-1.9,4
			L111,277.6c-3.1,1.8-8.6,1.6-12.2-0.5l-75.1-43.4c-2.4-1.4-3.4-3.3-2.8-4.9C21.5,230.2,22.5,231.2,23.7,231.9z"/>
		<path class="st1" d="M174.4,192.9l5-2.9c0.4-0.2,0.4-0.6-0.1-0.9l-5.9-3.4c-0.5-0.3-1.1-0.3-1.6-0.1l-5,2.9
			c-0.4,0.2-0.4,0.6,0.1,0.9l5.9,3.4C173.3,193.1,173.9,193.1,174.4,192.9z"/>
		<path class="st1" d="M166.7,197.3l5-2.9c0.4-0.2,0.4-0.6-0.1-0.9l-5.9-3.4c-0.5-0.3-1.1-0.3-1.6-0.1l-5,2.9
			c-0.4,0.2-0.4,0.6,0.1,0.9l5.9,3.4C165.6,197.5,166.2,197.5,166.7,197.3z"/>
		<path class="st1" d="M159,201.8l5-2.9c0.4-0.2,0.4-0.6-0.1-0.9l-5.9-3.4c-0.5-0.3-1.1-0.3-1.6-0.1l-5,2.9
			c-0.4,0.2-0.4,0.6,0.1,0.9l5.9,3.4C157.9,202,158.5,202,159,201.8z"/>
		<path class="st1" d="M148.4,198.1l5-2.9c0.4-0.2,0.4-0.6-0.1-0.9l-4.9-2.9c-0.5-0.3-1.1-0.3-1.6-0.1l-5,2.9
			c-0.4,0.2-0.4,0.6,0.1,0.9l4.9,2.9C147.3,198.3,147.8,198.3,148.4,198.1z"/>
		<path class="st1" d="M140.6,202.5l5-2.9c0.4-0.2,0.4-0.6-0.1-0.9l-4.9-2.9c-0.5-0.3-1.1-0.3-1.6-0.1l-5,2.9
			c-0.4,0.2-0.4,0.6,0.1,0.9l4.9,2.9C139.6,202.7,140.1,202.7,140.6,202.5z"/>
		<path class="st1" d="M132.9,207l5-2.9c0.4-0.2,0.4-0.6-0.1-0.9l-4.9-2.9c-0.5-0.3-1.1-0.3-1.6-0.1l-5,2.9
			c-0.4,0.2-0.3,0.6,0.1,0.9l4.9,2.9C131.9,207.2,132.4,207.2,132.9,207z"/>
		<path class="st1" d="M125.2,211.4l5-2.9c0.4-0.2,0.4-0.6-0.1-0.9l-4.9-2.9c-0.5-0.3-1.1-0.3-1.6-0.1l-5,2.9
			c-0.4,0.2-0.3,0.6,0.1,0.9l4.9,2.9C124.1,211.6,124.7,211.6,125.2,211.4z"/>
		<path class="st1" d="M117.5,215.9l5-2.9c0.4-0.2,0.3-0.6-0.1-0.9l-4.9-2.9c-0.5-0.3-1.1-0.3-1.6-0.1l-5,2.9
			c-0.4,0.2-0.3,0.6,0.1,0.9l4.9,2.9C116.4,216.1,117,216.1,117.5,215.9z"/>
		<path class="st1" d="M109.8,220.3l5-2.9c0.4-0.2,0.3-0.6-0.1-0.9l-4.9-2.9c-0.5-0.3-1.1-0.3-1.6-0.1l-5,2.9
			c-0.4,0.2-0.3,0.6,0.1,0.9l4.9,2.9C108.7,220.5,109.3,220.5,109.8,220.3z"/>
		<path class="st1" d="M102.1,224.8l5-2.9c0.4-0.2,0.3-0.6-0.1-0.9l-5-2.9c-0.5-0.3-1.1-0.3-1.6-0.1l-5,2.9
			c-0.4,0.2-0.3,0.6,0.1,0.9l4.9,2.9C101,225,101.6,225,102.1,224.8z"/>
		<path class="st1" d="M94.4,229.2l5-2.9c0.4-0.2,0.3-0.6-0.1-0.9l-4.9-2.9c-0.5-0.3-1.1-0.3-1.6-0.1l-5,2.9
			c-0.4,0.2-0.3,0.6,0.1,0.9l4.9,2.9C93.3,229.4,93.9,229.4,94.4,229.2z"/>
		<path class="st1" d="M86.7,233.7l5-2.9c0.4-0.2,0.3-0.6-0.1-0.9l-5-2.9c-0.5-0.3-1.1-0.3-1.6-0.1l-5,2.9c-0.4,0.2-0.3,0.6,0.1,0.9
			l4.9,2.9C85.6,233.9,86.2,233.9,86.7,233.7z"/>
		<path class="st1" d="M79,238.1l5-2.9c0.4-0.2,0.3-0.6-0.1-0.9l-4.9-2.9c-0.5-0.3-1.1-0.3-1.6-0.1l-5,2.9c-0.4,0.2-0.3,0.6,0.1,0.9
			l4.9,2.9C77.9,238.3,78.5,238.3,79,238.1z"/>
		<path class="st2" d="M137,196l5-2.9c0.4-0.2,0.4-0.6-0.1-0.9l-4.9-2.9c-0.5-0.3-1.1-0.3-1.6-0.1l-5,2.9c-0.4,0.2-0.4,0.6,0.1,0.9
			l4.9,2.9C135.9,196.2,136.5,196.2,137,196z"/>
		<path class="st2" d="M144.8,191.4l5-2.9c0.4-0.2,0.4-0.6-0.1-0.9l-4.9-2.9c-0.5-0.3-1.1-0.3-1.6-0.1l-5,2.9
			c-0.4,0.2-0.4,0.6,0.1,0.9l4.9,2.9C143.7,191.7,144.3,191.7,144.8,191.4z"/>
		<path class="st1" d="M152.6,186.9l10.8-6.2c0.4-0.2,0.4-0.6-0.1-0.9l-4.9-2.8c-0.5-0.3-1.1-0.3-1.6-0.1l-10.8,6.2
			c-0.4,0.2-0.4,0.6,0.1,0.9l4.9,2.9C151.5,187.1,152.1,187.2,152.6,186.9z"/>
		<path class="st1" d="M147.2,181.4l8.7-5c0.4-0.2,0.4-0.6-0.1-0.9l-4.9-2.9c-0.5-0.3-1.1-0.3-1.6-0.1l-8.7,5
			c-0.4,0.2-0.4,0.6,0.1,0.9l4.9,2.9C146.1,181.6,146.7,181.6,147.2,181.4z"/>
		<path class="st2" d="M129.3,200.4l5-2.9c0.4-0.2,0.4-0.6-0.1-0.9l-4.9-2.9c-0.5-0.3-1.1-0.3-1.6-0.1l-5,2.9
			c-0.4,0.2-0.3,0.6,0.1,0.9l4.9,2.9C128.2,200.6,128.8,200.6,129.3,200.4z"/>
		<path class="st1" d="M121.6,204.9l5-2.9c0.4-0.2,0.3-0.6-0.1-0.9l-4.9-2.9c-0.5-0.3-1.1-0.3-1.6-0.1l-5,2.8
			c-0.4,0.2-0.3,0.6,0.1,0.9l4.9,2.9C120.5,205.1,121.1,205.1,121.6,204.9z"/>
		<path class="st1" d="M113.9,209.3l5-2.9c0.4-0.2,0.3-0.6-0.1-0.9l-4.9-2.9c-0.5-0.3-1.1-0.3-1.6-0.1l-5,2.9
			c-0.4,0.2-0.3,0.6,0.1,0.9l4.9,2.9C112.8,209.5,113.4,209.5,113.9,209.3z"/>
		<path class="st1" d="M106.2,213.8l5-2.9c0.4-0.2,0.3-0.6-0.1-0.9l-4.9-2.9c-0.5-0.3-1.1-0.3-1.6-0.1l-5,2.9
			c-0.4,0.2-0.3,0.6,0.1,0.9l4.9,2.9C105.1,214,105.7,214,106.2,213.8z"/>
		<path class="st1" d="M98.4,218.2l5-2.9c0.4-0.2,0.3-0.6-0.1-0.9l-4.9-2.9c-0.5-0.3-1.1-0.3-1.6-0.1l-5,2.9
			c-0.4,0.2-0.3,0.6,0.1,0.9l4.9,2.9C97.4,218.4,97.9,218.4,98.4,218.2z"/>
		<path class="st1" d="M90.7,222.7l5-2.9c0.4-0.2,0.3-0.6-0.1-0.9l-4.9-2.9c-0.5-0.3-1.1-0.3-1.6-0.1l-5,2.9
			c-0.4,0.2-0.3,0.6,0.1,0.9l4.9,2.9C89.7,222.9,90.2,222.9,90.7,222.7z"/>
		<path class="st1" d="M83,227.1l5-2.9c0.4-0.2,0.3-0.6-0.1-0.9l-4.9-2.9c-0.5-0.3-1.1-0.3-1.6-0.1l-5,2.9c-0.4,0.2-0.3,0.6,0.1,0.9
			l4.9,2.8C81.9,227.3,82.5,227.3,83,227.1z"/>
		<path class="st1" d="M75.3,231.6l5-2.9c0.4-0.2,0.3-0.6-0.1-0.9l-4.9-2.9c-0.5-0.3-1.1-0.3-1.6-0.1l-5,2.9
			c-0.4,0.2-0.3,0.6,0.1,0.9l4.9,2.9C74.3,231.8,74.8,231.8,75.3,231.6z"/>
		<path class="st1" d="M67.6,236l5-2.9c0.4-0.2,0.3-0.6-0.1-0.9l-4.9-2.9c-0.5-0.3-1.1-0.3-1.6-0.1l-5,2.9c-0.4,0.2-0.3,0.6,0.1,0.9
			l4.9,2.9C66.5,236.2,67.1,236.2,67.6,236z"/>
		<path class="st1" d="M53.9,243.9l10.9-6.3c0.4-0.2,0.3-0.6-0.1-0.9l-5-2.9c-0.5-0.3-1.1-0.3-1.6-0.1l-10.9,6.3
			c-0.4,0.2-0.3,0.6,0.1,0.9l5,2.9C52.8,244.1,53.4,244.2,53.9,243.9z"/>
		<path class="st1" d="M38.9,235.3l9.2-5.3c0.4-0.2,0.3-0.6-0.1-0.9l-5-2.9c-0.5-0.3-1.1-0.3-1.6-0.1l-9.2,5.3
			c-0.4,0.2-0.4,0.6,0.1,0.9l5,2.9C37.8,235.5,38.4,235.5,38.9,235.3z"/>
		<path class="st1" d="M115.8,199.5l5-2.9c0.4-0.2,0.3-0.6-0.1-0.9l-4.9-2.9c-0.5-0.3-1.1-0.3-1.6-0.1l-5,2.9
			c-0.4,0.2-0.3,0.6,0.1,0.9l4.9,2.9C114.7,199.7,115.3,199.8,115.8,199.5z"/>
		<path class="st1" d="M123.7,195l5-2.9c0.4-0.2,0.4-0.6-0.1-0.9l-4.9-2.9c-0.5-0.3-1.1-0.3-1.6-0.1l-5,2.9
			c-0.4,0.2-0.3,0.6,0.1,0.9l4.9,2.9C122.6,195.2,123.2,195.2,123.7,195z"/>
		<path class="st2" d="M131.6,190.4l5-2.9c0.4-0.2,0.4-0.6-0.1-0.9l-4.9-2.9c-0.5-0.3-1.1-0.3-1.6-0.1l-5,2.9
			c-0.4,0.2-0.3,0.6,0.1,0.9l4.9,2.9C130.5,190.6,131.1,190.6,131.6,190.4z"/>
		<path class="st1" d="M139.5,185.9l5-2.9c0.4-0.2,0.4-0.6-0.1-0.9l-4.9-2.9c-0.5-0.3-1.1-0.3-1.6-0.1l-5,2.9
			c-0.4,0.2-0.4,0.6,0.1,0.9l4.9,2.9C138.4,186.1,139,186.1,139.5,185.9z"/>
		<path class="st1" d="M108.1,204l5-2.9c0.4-0.2,0.3-0.6-0.1-0.9l-5-2.9c-0.5-0.3-1.1-0.3-1.6-0.1l-5,2.9c-0.4,0.2-0.3,0.6,0.1,0.9
			l4.9,2.9C107,204.2,107.6,204.2,108.1,204z"/>
		<path class="st1" d="M100.4,208.4l5-2.9c0.4-0.2,0.3-0.6-0.1-0.9l-4.9-2.9c-0.5-0.3-1.1-0.3-1.6-0.1l-5,2.9
			c-0.4,0.2-0.3,0.6,0.1,0.9l4.9,2.9C99.3,208.6,99.9,208.7,100.4,208.4z"/>
		<path class="st1" d="M92.7,212.9l5-2.9c0.4-0.2,0.3-0.6-0.1-0.9l-4.9-2.9c-0.5-0.3-1.1-0.3-1.6-0.1l-5,2.9
			c-0.4,0.2-0.3,0.6,0.1,0.9l4.9,2.9C91.6,213.1,92.2,213.1,92.7,212.9z"/>
		<path class="st1" d="M85,217.3l5-2.9c0.4-0.2,0.3-0.6-0.1-0.9l-4.9-2.9c-0.5-0.3-1.1-0.3-1.6-0.1l-5,2.9c-0.4,0.2-0.3,0.6,0.1,0.9
			l4.9,2.9C83.9,217.5,84.5,217.6,85,217.3z"/>
		<path class="st1" d="M77.2,221.8l5-2.9c0.4-0.2,0.3-0.6-0.1-0.9l-4.9-2.9c-0.5-0.3-1.1-0.3-1.6-0.1l-5,2.9
			c-0.4,0.2-0.3,0.6,0.1,0.9l4.9,2.9C76.2,222,76.7,222,77.2,221.8z"/>
		<path class="st1" d="M69.5,226.2l5-2.9c0.4-0.2,0.3-0.6-0.1-0.9l-4.9-2.9c-0.5-0.3-1.1-0.3-1.6-0.1l-5,2.9
			c-0.4,0.2-0.3,0.6,0.1,0.9l5,2.9C68.5,226.4,69,226.5,69.5,226.2z"/>
		<path class="st1" d="M61.8,230.7l5-2.9c0.4-0.2,0.3-0.6-0.1-0.9l-5-2.9c-0.5-0.3-1.1-0.3-1.6-0.1l-5,2.9c-0.4,0.2-0.3,0.6,0.1,0.9
			l5,2.9C60.7,230.9,61.3,230.9,61.8,230.7z"/>
		<path class="st1" d="M54.1,235.1l5-2.9c0.4-0.2,0.3-0.6-0.1-0.9l-5-2.9c-0.5-0.3-1.1-0.3-1.6-0.1l-5,2.9c-0.4,0.2-0.3,0.6,0.1,0.9
			l5,2.9C53,235.3,53.6,235.4,54.1,235.1z"/>
		<path class="st1" d="M46.4,239.6l5-2.9c0.4-0.2,0.3-0.6-0.1-0.9l-5-2.8c-0.5-0.3-1.1-0.3-1.6-0.1l-5,2.9c-0.4,0.2-0.3,0.6,0.1,0.9
			l5,2.9C45.3,239.8,45.9,239.8,46.4,239.6z"/>
		<path class="st1" d="M119.8,188.5l5-2.9c0.4-0.2,0.3-0.6-0.1-0.9l-4.9-2.9c-0.5-0.3-1.1-0.3-1.6-0.1l-5,2.9
			c-0.4,0.2-0.3,0.6,0.1,0.9l4.9,2.9C118.8,188.7,119.3,188.8,119.8,188.5z"/>
		<path class="st1" d="M127.5,184.1l5-2.9c0.4-0.2,0.4-0.6-0.1-0.9l-4.9-2.9c-0.5-0.3-1.1-0.3-1.6-0.1l-5,2.9
			c-0.4,0.2-0.3,0.6,0.1,0.9l4.9,2.9C126.4,184.3,127,184.3,127.5,184.1z"/>
		<path class="st1" d="M135.2,179.7l5-2.9c0.4-0.2,0.4-0.6-0.1-0.9l-4.9-2.9c-0.5-0.3-1.1-0.3-1.6-0.1l-5,2.9
			c-0.4,0.2-0.4,0.6,0.1,0.9l4.9,2.9C134.1,179.9,134.7,179.9,135.2,179.7z"/>
		<path class="st1" d="M142.9,175.2l5-2.9c0.4-0.2,0.4-0.6-0.1-0.9l-4.9-2.9c-0.5-0.3-1.1-0.3-1.6-0.1l-5,2.9
			c-0.4,0.2-0.4,0.6,0.1,0.9l4.9,2.9C141.8,175.5,142.3,175.5,142.9,175.2z"/>
		<path class="st1" d="M135,170.7l5-2.9c0.4-0.2,0.4-0.6-0.1-0.9l-1.6-0.9c-0.5-0.3-1.1-0.3-1.6-0.1l-5,2.9
			c-0.4,0.2-0.4,0.6,0.1,0.9l1.6,0.9C133.9,170.9,134.5,170.9,135,170.7z"/>
		<path class="st1" d="M125,176.5l5-2.9c0.4-0.2,0.4-0.6-0.1-0.9l-1.6-0.9c-0.5-0.3-1.1-0.3-1.6-0.1l-5,2.9
			c-0.4,0.2-0.3,0.6,0.1,0.9l1.6,0.9C123.9,176.7,124.5,176.7,125,176.5z"/>
		<path class="st1" d="M117.3,180.9l5-2.9c0.4-0.2,0.3-0.6-0.1-0.9l-1.6-0.9c-0.5-0.3-1.1-0.3-1.6-0.1l-5,2.9
			c-0.4,0.2-0.3,0.6,0.1,0.9l1.6,0.9C116.2,181.1,116.8,181.1,117.3,180.9z"/>
		<path class="st1" d="M109.7,185.3l5-2.9c0.4-0.2,0.3-0.6-0.1-0.9l-1.6-0.9c-0.5-0.3-1.1-0.3-1.6-0.1l-5,2.9
			c-0.4,0.2-0.3,0.6,0.1,0.9l1.6,0.9C108.6,185.5,109.2,185.5,109.7,185.3z"/>
		<path class="st1" d="M102,189.7l5-2.9c0.4-0.2,0.3-0.6-0.1-0.9l-1.6-0.9c-0.5-0.3-1.1-0.3-1.6-0.1l-5,2.9
			c-0.4,0.2-0.3,0.6,0.1,0.9l1.6,0.9C100.9,189.9,101.5,189.9,102,189.7z"/>
		<path class="st1" d="M59.4,214.3l5-2.9c0.4-0.2,0.3-0.6-0.1-0.9l-1.6-0.9c-0.5-0.3-1.1-0.3-1.6-0.1l-5,2.9
			c-0.4,0.2-0.3,0.6,0.1,0.9l1.6,0.9C58.3,214.5,58.9,214.5,59.4,214.3z"/>
		<path class="st1" d="M51.8,218.7l5-2.9c0.4-0.2,0.3-0.6-0.1-0.9L55,214c-0.5-0.3-1.1-0.3-1.6-0.1l-5,2.9c-0.4,0.2-0.3,0.6,0.1,0.9
			l1.6,0.9C50.7,218.9,51.3,219,51.8,218.7z"/>
		<path class="st1" d="M44.1,223.1l5-2.9c0.4-0.2,0.3-0.6-0.1-0.9l-1.6-0.9c-0.5-0.3-1.1-0.3-1.6-0.1l-5,2.9
			c-0.4,0.2-0.3,0.6,0.1,0.9l1.6,0.9C43.1,223.3,43.6,223.4,44.1,223.1z"/>
		<path class="st1" d="M36.5,227.6l5-2.9c0.4-0.2,0.3-0.6-0.1-0.9l-1.6-0.9c-0.5-0.3-1.1-0.3-1.6-0.1l-5,2.9
			c-0.4,0.2-0.3,0.6,0.1,0.9l1.6,0.9C35.4,227.8,36,227.8,36.5,227.6z"/>
		<path class="st1" d="M112.1,193l5-2.9c0.4-0.2,0.3-0.6-0.1-0.9l-4.9-2.9c-0.5-0.3-1.1-0.3-1.6-0.1l-5,2.9
			c-0.4,0.2-0.3,0.6,0.1,0.9l4.9,2.9C111.1,193.2,111.6,193.2,112.1,193z"/>
		<path class="st1" d="M104.4,197.4l5-2.9c0.4-0.2,0.3-0.6-0.1-0.9l-4.9-2.9c-0.5-0.3-1.1-0.3-1.6-0.1l-5,2.9
			c-0.4,0.2-0.3,0.6,0.1,0.9l4.9,2.9C103.4,197.6,103.9,197.7,104.4,197.4z"/>
		<path class="st1" d="M96.7,201.9l5-2.9c0.4-0.2,0.3-0.6-0.1-0.9l-4.9-2.9c-0.5-0.3-1.1-0.3-1.6-0.1l-5,2.9
			c-0.4,0.2-0.3,0.6,0.1,0.9l4.9,2.9C95.6,202.1,96.2,202.1,96.7,201.9z"/>
		<path class="st1" d="M89,206.3l5-2.9c0.4-0.2,0.3-0.6-0.1-0.9l-4.9-2.9c-0.5-0.3-1.1-0.3-1.6-0.1l-5,2.9c-0.4,0.2-0.3,0.6,0.1,0.9
			l4.9,2.9C87.9,206.5,88.5,206.6,89,206.3z"/>
		<path class="st1" d="M81.3,210.8l5-2.9c0.4-0.2,0.3-0.6-0.1-0.9l-4.9-2.9c-0.5-0.3-1.1-0.3-1.6-0.1l-5,2.9
			c-0.4,0.2-0.3,0.6,0.1,0.9l4.9,2.9C80.2,211,80.8,211,81.3,210.8z"/>
		<path class="st1" d="M73.6,215.2l5-2.9c0.4-0.2,0.3-0.6-0.1-0.9l-4.9-2.9c-0.5-0.3-1.1-0.3-1.6-0.1l-5,2.9
			c-0.4,0.2-0.3,0.6,0.1,0.9l4.9,2.8C72.5,215.5,73.1,215.5,73.6,215.2z"/>
		<path class="st1" d="M65.9,219.7l5-2.9c0.4-0.2,0.3-0.6-0.1-0.9l-5-2.9c-0.5-0.3-1.1-0.3-1.6-0.1l-5,2.9c-0.4,0.2-0.3,0.6,0.1,0.9
			l4.9,2.9C64.8,219.9,65.4,219.9,65.9,219.7z"/>
		<path class="st1" d="M58.2,224.1l5-2.9c0.4-0.2,0.3-0.6-0.1-0.9l-5-2.9c-0.5-0.3-1.1-0.3-1.6-0.1l-5,2.9c-0.4,0.2-0.3,0.6,0.1,0.9
			l5,2.9C57.1,224.3,57.7,224.4,58.2,224.1z"/>
		<path class="st1" d="M50.5,228.6l5-2.9c0.4-0.2,0.3-0.6-0.1-0.9l-5-2.9c-0.5-0.3-1.1-0.3-1.6-0.1l-5,2.9c-0.4,0.2-0.3,0.6,0.1,0.9
			l5,2.9C49.4,228.8,50,228.8,50.5,228.6z"/>
		<path class="st1" d="M156.2,193.5l14.7-8.5c0.4-0.2,0.4-0.6-0.1-0.9l-4.9-2.9c-0.5-0.3-1.1-0.3-1.6-0.1l-14.7,8.5
			c-0.4,0.2-0.4,0.6,0.1,0.9l4.9,2.9C155.1,193.7,155.7,193.8,156.2,193.5z"/>
		<path class="st1" d="M61.5,248.2l14.7-8.5c0.4-0.2,0.3-0.6-0.1-0.9l-4.9-2.8c-0.5-0.3-1.1-0.3-1.6-0.1l-14.7,8.5
			c-0.4,0.2-0.3,0.6,0.1,0.9l5,2.9C60.4,248.4,61,248.4,61.5,248.2z"/>
		<path class="st1" d="M92.3,240.2l5-2.9c0.4-0.2,0.3-0.6-0.1-0.9l-5.9-3.4c-0.5-0.3-1.1-0.3-1.6-0.1l-5,2.9
			c-0.4,0.2-0.3,0.6,0.1,0.9l5.9,3.4C91.3,240.4,91.8,240.5,92.3,240.2z"/>
		<path class="st1" d="M148.3,207.9l8-4.6c0.4-0.2,0.4-0.6-0.1-0.9l-5.9-3.4c-0.5-0.3-1.1-0.3-1.6-0.1l-8,4.6
			c-0.4,0.2-0.4,0.6,0.1,0.9l5.9,3.4C147.2,208.1,147.8,208.1,148.3,207.9z"/>
		<path class="st1" d="M99.8,236l8-4.6c0.4-0.2,0.3-0.6-0.1-0.9l-5.9-3.4c-0.5-0.3-1.1-0.3-1.6-0.1l-8,4.6c-0.4,0.2-0.3,0.6,0.1,0.9
			l5.9,3.4C98.7,236.2,99.3,236.2,99.8,236z"/>
		<path class="st1" d="M137.2,214.3l8-4.6c0.4-0.2,0.4-0.6-0.1-0.9l-5.9-3.4c-0.5-0.3-1.1-0.3-1.6-0.1l-8,4.6
			c-0.4,0.2-0.4,0.6,0.1,0.9l5.9,3.4C136.1,214.5,136.7,214.6,137.2,214.3z"/>
		<path class="st1" d="M137.6,205.4l-34.7,20c-0.2,0.1-0.4,0.4-0.3,0.6c0,0.1,0.2,0.2,0.3,0.3l6,3.5c0.5,0.2,1.1,0.2,1.6,0l34.7-20
			L137.6,205.4z"/>
		<path class="st1" d="M70.8,248.3l-5.6,3.2c-0.3,0.2-0.3,0.5,0.1,0.7l2.4,1.4c0.4,0.2,0.9,0.2,1.3,0.1l5.6-3.2
			c0.3-0.2,0.3-0.5-0.1-0.7l-2.4-1.4C71.7,248.1,71.2,248.1,70.8,248.3z"/>
		<path class="st1" d="M78.6,243.8L73,247c-0.3,0.2-0.3,0.5,0.1,0.7l2.4,1.4c0.4,0.2,0.9,0.2,1.3,0.1l5.6-3.2
			c0.3-0.2,0.3-0.5-0.1-0.7l-2.4-1.4C79.5,243.6,79,243.6,78.6,243.8z"/>
		<path class="st1" d="M86.3,239.4l-5.6,3.2c-0.3,0.2-0.3,0.5,0.1,0.7l2.4,1.4c0.4,0.2,0.9,0.2,1.3,0.1l5.6-3.2
			c0.3-0.2,0.3-0.5-0.1-0.7l-2.4-1.4C87.2,239.2,86.7,239.2,86.3,239.4z"/>
		<path class="st1" d="M74.3,241.4l-5.6,3.2c-0.3,0.2-0.3,0.5,0.1,0.7l2.4,1.4c0.4,0.2,0.9,0.2,1.3,0.1l5.6-3.2
			c0.3-0.2,0.3-0.5-0.1-0.7l-2.4-1.4C75.2,241.2,74.7,241.2,74.3,241.4z"/>
		<path class="st0" d="M66,131.8l4.8-2.8c0.5-0.4,0.8-0.9,0.8-1.5l0,0c0-0.6-0.3-0.9-0.8-0.6l-4.8,2.8c-0.5,0.4-0.8,0.9-0.8,1.5l0,0
			C65.2,131.8,65.6,132,66,131.8z"/>
		<path class="st0" d="M54.7,138.4l7-4.1c0.5-0.4,0.8-0.9,0.8-1.5l0,0c0-0.6-0.3-0.9-0.8-0.6l-7,4.1c-0.5,0.4-0.8,0.9-0.8,1.5l0,0
			C53.9,138.3,54.2,138.6,54.7,138.4z"/>
		<path class="st0" d="M68.4,157.2l4.8-2.8c0.5-0.4,0.8-0.9,0.8-1.5l0,0c0-0.6-0.3-0.9-0.8-0.6l-4.8,2.8c-0.5,0.4-0.8,0.9-0.8,1.5
			l0,0C67.6,157.2,68,157.5,68.4,157.2z"/>
		<path class="st0" d="M58.3,163.1l7-4.1c0.5-0.4,0.8-0.9,0.8-1.5l0,0c0-0.6-0.3-0.9-0.8-0.6l-7,4.1c-0.5,0.4-0.8,0.9-0.8,1.5l0,0
			C57.5,163.1,57.8,163.4,58.3,163.1z"/>
		<path class="st0" d="M79.1,128.7l3-1.7c0.5-0.4,0.8-0.9,0.8-1.5l0,0c0-0.6-0.3-0.9-0.8-0.6l-3,1.7c-0.5,0.4-0.8,0.9-0.8,1.5l0,0
			C78.3,128.7,78.7,129,79.1,128.7z"/>
		<path class="st0" d="M68.9,139l9.1-5.3c0.5-0.4,0.8-0.9,0.8-1.5l0,0c0-0.6-0.3-0.9-0.8-0.6l-9.1,5.3c-0.5,0.4-0.8,0.9-0.8,1.5l0,0
			C68.2,139,68.5,139.3,68.9,139z"/>
		<path class="st0" d="M74.9,144.5l3-1.7c0.5-0.4,0.8-0.9,0.8-1.5l0,0c0-0.6-0.3-0.9-0.8-0.6l-3,1.7c-0.5,0.4-0.8,0.9-0.8,1.5l0,0
			C74.1,144.5,74.5,144.8,74.9,144.5z"/>
		<path class="st0" d="M54.7,174.1l8-4.6c0.5-0.4,0.8-0.9,0.8-1.5l0,0c0-0.6-0.3-0.9-0.8-0.6l-8,4.6c-0.5,0.4-0.8,0.9-0.8,1.5l0,0
			C54,174,54.3,174.3,54.7,174.1z"/>
		<path class="st0" d="M75.8,152.9l1.9-1.1c0.5-0.4,0.8-0.9,0.8-1.5l0,0c0-0.6-0.3-0.9-0.8-0.6l-1.9,1.1c-0.5,0.4-0.8,0.9-0.8,1.5
			l0,0C75.1,152.9,75.4,153.2,75.8,152.9z"/>
		<path class="st0" d="M75.2,162.2l2.4-1.4c0.5-0.4,0.8-0.9,0.8-1.5l0,0c0-0.6-0.3-0.9-0.8-0.6l-2.4,1.4c-0.5,0.4-0.8,0.9-0.8,1.5
			l0,0C74.4,162.2,74.8,162.5,75.2,162.2z"/>
		<path class="st0" d="M66,167.6l6.2-3.6c0.5-0.4,0.8-0.9,0.8-1.5l0,0c0-0.6-0.3-0.9-0.8-0.6l-6.3,3.6c-0.5,0.4-0.8,1-0.8,1.6l0,0
			C65.2,167.6,65.5,167.8,66,167.6z"/>
		<path class="st0" d="M73,168l4.5-2.6c0.5-0.4,0.8-0.9,0.8-1.5l0,0c0-0.6-0.3-0.9-0.8-0.6l-4.5,2.6c-0.5,0.4-0.8,0.9-0.8,1.5l0,0
			C72.2,168,72.6,168.2,73,168z"/>
		<path class="st0" d="M47.9,178l2.9-1.7c0.5-0.4,0.8-0.9,0.8-1.5l0,0c0-0.6-0.3-0.9-0.8-0.6l-2.9,1.7c-0.5,0.4-0.8,0.9-0.8,1.5l0,0
			C47.1,178,47.5,178.3,47.9,178z"/>
		<path class="st0" d="M63.8,150.9l8-4.6c0.5-0.4,0.8-0.9,0.8-1.5l0,0c0-0.6-0.3-0.9-0.8-0.6l-8,4.6c-0.5,0.4-0.8,0.9-0.8,1.5l0,0
			C63,150.9,63.4,151.2,63.8,150.9z"/>
		<path class="st0" d="M64.1,146.3l13.9-8c0.5-0.4,0.8-0.9,0.8-1.5l0,0c0-0.6-0.3-0.9-0.8-0.6l-13.9,8c-0.5,0.4-0.8,0.9-0.8,1.5l0,0
			C63.3,146.3,63.7,146.6,64.1,146.3z"/>
		<path class="st0" d="M69.9,151.9l8-4.6c0.5-0.4,0.8-0.9,0.8-1.5l0,0c0-0.6-0.3-0.9-0.8-0.6l-8,4.6c-0.5,0.4-0.8,0.9-0.8,1.5l0,0
			C69.1,151.9,69.4,152.2,69.9,151.9z"/>
		<path class="st0" d="M57.8,154.4l2.9-1.7c0.5-0.4,0.8-0.9,0.8-1.5l0,0c0-0.6-0.3-0.9-0.8-0.6l-2.9,1.7c-0.5,0.4-0.8,0.9-0.8,1.5
			l0,0C57,154.4,57.3,154.7,57.8,154.4z"/>
		<path class="st0" d="M33.2,150.8l17.1-9.9c0.5-0.4,0.8-0.9,0.8-1.5l0,0c0-0.6-0.3-0.9-0.8-0.6l-17.1,9.9c-0.5,0.4-0.8,0.9-0.8,1.5
			l0,0C32.4,150.7,32.8,151,33.2,150.8z"/>
		<path class="st0" d="M68.1,161.9l9.6-5.5c0.5-0.4,0.8-0.9,0.8-1.5l0,0c0-0.6-0.3-0.9-0.8-0.6l-9.6,5.5c-0.5,0.4-0.8,0.9-0.8,1.5
			l0,0C67.3,161.9,67.7,162.1,68.1,161.9z"/>
		<path class="st0" d="M75.1,126.5l7-4.1c0.5-0.4,0.8-0.9,0.8-1.5l0,0c0-0.6-0.3-0.9-0.8-0.6l-7,4.1c-0.5,0.4-0.8,0.9-0.8,1.5l0,0
			C74.3,126.5,74.7,126.8,75.1,126.5z"/>
		<path class="st0" d="M73.3,172.3l8.2-4.7c0.5-0.4,0.8-0.9,0.8-1.5l0,0c0-0.6-0.3-0.9-0.8-0.6l-8.2,4.7c-0.5,0.4-0.8,0.9-0.8,1.5
			l0,0C72.5,172.3,72.8,172.6,73.3,172.3z"/>
		<path class="st0" d="M281.7,179.4l-42-24.4c-8.3-4.8-16.2-5.6-22.1-2.1s-9.2,10.6-9.2,20.2v3.1c0.3,0.2,0.6,0.4,0.9,0.6V173
			c0-9.3,3.1-16.1,8.7-19.4s13.1-2.5,21.2,2.1l42,24.4c0.2,0.1,0.5,0.1,0.6-0.2C282,179.8,282,179.5,281.7,179.4L281.7,179.4z"/>
		<path class="st0" d="M150.8,150.3V55.6c0-18.9-13.4-42.1-29.8-51.5c-8-4.6-15.6-5.4-21.3-2.1s-8.9,10.2-8.9,19.5v6.6l0.9,0.9v-7.5
			c0-8.9,3-15.6,8.4-18.7s12.7-2.4,20.4,2.1c16.1,9.3,29.3,32.1,29.3,50.7v94.6c0,15.7,9.2,34.3,21.8,45.5v-1.2
			C159.6,183.4,150.8,165.5,150.8,150.3z"/>
		<path class="st1" d="M90.8,31L90.8,31c-5.3-4.9-11.9-8.1-19-9.3C60.2,20,55.3,33.7,55.3,33.7c-0.7,3.7-1.2,7.5-1.3,11.3
			c0,4.2,0.3,19.5,0.3,19.5l37.1-21.4l0,0c0.2-0.1,0.3-0.2,0.2-0.4V31.8C91.4,31.5,91.1,31.4,90.8,31z"/>
		<path class="st0" d="M26,44.5L54.6,53c0,0,11.9,9.7,16.4,23.5s4.9,11.4,5,25.1s0.2,83.4,0.2,83.4s-1,12.2,2,21.7s8.5,20,15,26.8
			s16.1,15,24.9,14.2s14.8-4.1,16.5-18.1v-13l-0.4-0.4c6.1,5.6,13.7,10.8,20.9,10.1c8.9-0.8,14.8-4.1,16.5-18.1v-13
			c0,0-10.7-10.9-14.8-19.8s-6.3-17.3-6.4-24.7s-0.1-71.1-0.1-71.1s0.5-26.4-0.6-30.6s-3.7-26.4-25.5-42.4c-11-8-19.2-7.7-24.6-4.2
			L99.7,2L64.5,22.3L26,44.5z"/>
		<path class="st1" d="M125.8,246.5c0.5-0.7,6.8-4.9,8.4-12.3c0.6-3.4,0.8-6.9,0.8-10.4c0,0,0-3.5-0.1-6.6l-0.2-0.2v-1.2l0.2,0.1
			c0-0.7-0.1-1.4-0.1-2c-0.2-3.3,2.2-10.3,2.2-10.3s3.4-9.4,13.7-9.8c9.1-0.3,18.7,6.2,20.8,7.7v-4.2l0.4,0.3c0-0.6,0-1.1,0-1.7
			l-0.2-0.2v-1.2l0.2,0.1c0-0.7-0.1-1.4-0.1-2c-0.2-3.3,2.2-10.3,2.2-10.3s3.4-9.4,13.7-9.8c9.1-0.3,18.7,6.2,20.8,7.7V176
			c0.3,0.2,0.6,0.4,0.9,0.6v7.4c0,9-3,15.8-8.4,19.1l0,0l-0.2,0.1l-0.1,0.1h-0.1L162.9,225V225L125.8,246.5z"/>
		<path class="st0" d="M180.6,174.1c0,0,0.3-0.1,0.8-0.4l0.5-0.2l35.8-20.7c4.6-2.1,9.8-2.3,14.5-0.5c8,2.9,49.6,27.9,49.6,27.9
			l-37.2,21.4l0,0h-0.1l-36.9,21.3c0,0-20.9-12.9-35.3-21.3l-0.9-0.5c-5.9-3.4-10.6-5.9-12.1-6.3c-8.9-2.4-15.1,0.5-16.7,1.4
			L180.6,174.1z"/>
		<path class="st0" d="M142.5,196.1l-0.4,0.2L142.5,196.1z"/>
		<path class="st1" d="M53.8,52.3L53.8,52.3c-5.3-4.9-11.9-8.1-19-9.3C23.1,41.3,18.3,55,18.3,55c-0.7,3.7-1.2,7.5-1.3,11.3
			c0,4.2,0.4,19.5,0.4,19.5l37.1-21.4l0,0c0.2-0.1,0.3-0.2,0.3-0.4V53.1C54.4,52.8,54.1,52.6,53.8,52.3z"/>
		<path class="st2" d="M118.6,248.2c-4.1,0-8.6-1.4-13.3-4.1c-16.3-9.4-29.5-32.3-29.5-51.2V98.3c0-18.7-13.1-41.4-29.3-50.7
			c-7.7-4.5-15-5.2-20.4-2.1s-8.4,9.8-8.4,18.7v21.2c0,0.3-0.2,0.5-0.5,0.5c-0.3,0-0.5-0.2-0.5-0.5l0,0V64.2
			c0-9.3,3.1-16.2,8.9-19.5s13.3-2.6,21.3,2.1c16.4,9.5,29.8,32.6,29.8,51.5V193c0,18.5,13,41.1,29.1,50.4
			c7.7,4.4,14.9,5.2,20.3,2.1s8.4-9.7,8.4-18.6v-11.1c0-9.6,3.3-16.8,9.2-20.2s13.8-2.7,22.1,2.1l42,24.4c0.2,0.1,0.3,0.4,0.2,0.6
			s-0.4,0.3-0.6,0.2l-42-24.4c-8-4.6-15.5-5.4-21.2-2.1s-8.7,10.1-8.7,19.4v11.1c0,9.2-3.1,16.1-8.8,19.4
			C124,247.5,121.3,248.2,118.6,248.2z"/>
		<path class="st7" d="M115.7,121.5l6.2-3.6c0.6-0.5,1-1.2,1.1-2l0,0c0-0.8-0.4-1.1-1-0.8l-6.2,3.6c-0.6,0.5-1,1.2-1.1,2l0,0
			C114.6,121.5,115.1,121.8,115.7,121.5z"/>
		<path class="st7" d="M102.5,129.1l9.2-5.3c0.6-0.5,1-1.2,1.1-2l0,0c0-0.8-0.4-1.1-1-0.8l-9.2,5.3c-0.6,0.5-1,1.2-1.1,2l0,0
			C101.4,129.1,101.9,129.5,102.5,129.1z"/>
		<path class="st7" d="M116.3,97.9l11.8-6.9c0.6-0.5,1-1.2,1.1-2l0,0c0-0.8-0.4-1.1-1-0.8l-11.9,6.9c-0.6,0.5-1,1.2-1.1,2l0,0
			C115.3,97.8,115.8,98.2,116.3,97.9z"/>
		<path class="st7" d="M124.1,105l3.9-2.2c0.6-0.5,1-1.2,1.1-2l0,0c0-0.8-0.4-1.1-1-0.8l-3.9,2.2c-0.6,0.5-1,1.2-1.1,2l0,0
			C123.1,105,123.6,105.3,124.1,105z"/>
		<path class="st7" d="M125.3,115.9l2.5-1.4c0.6-0.5,1-1.2,1.1-2l0,0c0-0.8-0.4-1.1-1-0.8l-2.5,1.4c-0.6,0.5-1,1.2-1.1,2l0,0
			C124.3,115.9,124.8,116.3,125.3,115.9z"/>
		<path class="st7" d="M109.7,113.3l10.4-6c0.6-0.5,1-1.2,1.1-2l0,0c0-0.8-0.4-1.1-1-0.8l-10.4,6c-0.6,0.5-1,1.2-1.1,2l0,0
			C108.7,113.3,109.1,113.7,109.7,113.3z"/>
		<path class="st7" d="M110.1,107.3l18.1-10.4c0.6-0.5,1-1.2,1.1-2l0,0c0-0.8-0.4-1.1-1-0.8l-18.1,10.4c-0.6,0.5-1,1.2-1.1,2l0,0
			C109,107.3,109.5,107.6,110.1,107.3z"/>
		<path class="st7" d="M117.6,114.6l10.4-6c0.6-0.5,1-1.2,1.1-2l0,0c0-0.8-0.4-1.1-1-0.8l-10.4,6c-0.6,0.5-1,1.2-1.1,2l0,0
			C116.5,114.6,117,114.9,117.6,114.6z"/>
		<path class="st7" d="M101.8,117.8l3.8-2.2c0.6-0.5,1-1.2,1.1-2l0,0c0-0.8-0.4-1.1-1-0.8l-3.8,2.2c-0.6,0.5-1,1.2-1.1,2l0,0
			C100.8,117.8,101.3,118.2,101.8,117.8z"/>
		<path class="st7" d="M112.6,88.4l6.2-3.6c0.6-0.5,1-1.2,1.1-2l0,0c0-0.8-0.4-1.1-1-0.8l-6.2,3.6c-0.6,0.5-1,1.2-1.1,2l0,0
			C111.5,88.4,112,88.7,112.6,88.4z"/>
		<path class="st7" d="M97.8,96.9l9.2-5.3c0.6-0.5,1-1.2,1.1-2l0,0c0-0.8-0.4-1.1-1-0.8l-9.2,5.3c-0.6,0.5-1,1.2-1.1,2l0,0
			C96.8,96.9,97.2,97.3,97.8,96.9z"/>
		<path class="st7" d="M115.7,121.5l6.2-3.6c0.6-0.5,1-1.2,1.1-2l0,0c0-0.8-0.4-1.1-1-0.8l-6.2,3.6c-0.6,0.5-1,1.2-1.1,2l0,0
			C114.6,121.5,115.1,121.8,115.7,121.5z"/>
		<path class="st7" d="M102.5,129.1l9.2-5.3c0.6-0.5,1-1.2,1.1-2l0,0c0-0.8-0.4-1.1-1-0.8l-9.2,5.3c-0.6,0.5-1,1.2-1.1,2l0,0
			C101.4,129.1,101.9,129.5,102.5,129.1z"/>
		<path class="st7" d="M129.6,84.4l3.9-2.2c0.6-0.5,1-1.2,1.1-2l0,0c0-0.8-0.4-1.1-1-0.8l-3.9,2.2c-0.6,0.5-1,1.2-1.1,2l0,0
			C128.6,84.4,129,84.7,129.6,84.4z"/>
		<path class="st7" d="M116.3,97.9l11.8-6.9c0.6-0.5,1-1.2,1.1-2l0,0c0-0.8-0.4-1.1-1-0.8l-11.9,6.9c-0.6,0.5-1,1.2-1.1,2l0,0
			C115.3,97.8,115.8,98.2,116.3,97.9z"/>
		<path class="st7" d="M124.1,105l3.9-2.2c0.6-0.5,1-1.2,1.1-2l0,0c0-0.8-0.4-1.1-1-0.8l-3.9,2.2c-0.6,0.5-1,1.2-1.1,2l0,0
			C123.1,105,123.6,105.3,124.1,105z"/>
		<path class="st7" d="M97.9,143.4l10.4-6c0.6-0.5,1-1.2,1.1-2l0,0c0-0.8-0.4-1.1-1-0.8l-10.4,6c-0.6,0.5-1,1.2-1.1,2l0,0
			C96.9,143.4,97.3,143.7,97.9,143.4z"/>
		<path class="st7" d="M125.3,115.9l2.5-1.4c0.6-0.5,1-1.2,1.1-2l0,0c0-0.8-0.4-1.1-1-0.8l-2.5,1.4c-0.6,0.5-1,1.2-1.1,2l0,0
			C124.3,115.9,124.8,116.3,125.3,115.9z"/>
		<path class="st7" d="M124.5,128l3.1-1.8c0.6-0.5,1-1.2,1.1-2l0,0c0-0.8-0.4-1.1-1-0.8l-3.1,1.8c-0.6,0.5-1,1.2-1.1,2l0,0
			C123.5,128,124,128.3,124.5,128z"/>
		<path class="st7" d="M112.5,135l8.2-4.7c0.6-0.5,1-1.2,1.1-2l0,0c0-0.8-0.4-1.1-1-0.8l-8.2,4.7c-0.6,0.5-1,1.2-1.1,2l0,0
			C111.5,134.9,111.9,135.3,112.5,135z"/>
		<path class="st7" d="M121.7,135.5l5.9-3.4c0.6-0.5,1-1.2,1.1-2l0,0c0-0.8-0.4-1.1-1-0.8l-5.9,3.4c-0.6,0.5-1,1.2-1.1,2l0,0
			C120.6,135.4,121.1,135.8,121.7,135.5z"/>
		<path class="st7" d="M109.7,113.3l10.4-6c0.6-0.5,1-1.2,1.1-2l0,0c0-0.8-0.4-1.1-1-0.8l-10.4,6c-0.6,0.5-1,1.2-1.1,2l0,0
			C108.7,113.3,109.1,113.7,109.7,113.3z"/>
		<path class="st7" d="M110.1,107.3l18.1-10.4c0.6-0.5,1-1.2,1.1-2l0,0c0-0.8-0.4-1.1-1-0.8l-18.1,10.4c-0.6,0.5-1,1.2-1.1,2l0,0
			C109,107.3,109.5,107.6,110.1,107.3z"/>
		<path class="st7" d="M117.6,114.6l10.4-6c0.6-0.5,1-1.2,1.1-2l0,0c0-0.8-0.4-1.1-1-0.8l-10.4,6c-0.6,0.5-1,1.2-1.1,2l0,0
			C116.5,114.6,117,114.9,117.6,114.6z"/>
		<path class="st7" d="M101.8,117.8l3.8-2.2c0.6-0.5,1-1.2,1.1-2l0,0c0-0.8-0.4-1.1-1-0.8l-3.8,2.2c-0.6,0.5-1,1.2-1.1,2l0,0
			C100.8,117.8,101.3,118.2,101.8,117.8z"/>
		<path class="st7" d="M115.3,127.5l12.4-7.2c0.6-0.5,1-1.2,1.1-2l0,0c0-0.8-0.4-1.1-1-0.8l-12.4,7.2c-0.6,0.5-1,1.2-1.1,2l0,0
			C114.2,127.5,114.7,127.9,115.3,127.5z"/>
		<path class="st7" d="M124.4,81.6l9.1-5.3c0.6-0.5,1-1.2,1.1-2l0,0c0-0.8-0.4-1.1-1-0.8l-9.2,5.3c-0.6,0.5-1,1.2-1.1,2l0,0
			C123.4,81.6,123.8,81.9,124.4,81.6z"/>
		<path class="st7" d="M122,141.1l10.6-6.1c0.6-0.5,1-1.2,1.1-2l0,0c0-0.8-0.4-1.1-1-0.8l-10.6,6.1c-0.6,0.5-1,1.2-1.1,2l0,0
			C121,141.1,121.4,141.4,122,141.1z"/>
		<path class="st7" d="M117.1,177.2l6.2-3.6c0.6-0.5,1-1.2,1.1-2l0,0c0-0.8-0.4-1.1-1-0.8l-6.2,3.6c-0.6,0.5-1,1.2-1.1,2l0,0
			C116.1,177.2,116.5,177.5,117.1,177.2z"/>
		<path class="st7" d="M103.9,184.8l9.2-5.3c0.6-0.5,1-1.2,1.1-2l0,0c0-0.8-0.4-1.1-1-0.8L104,182c-0.6,0.5-1,1.2-1.1,2l0,0
			C102.9,184.8,103.3,185.1,103.9,184.8z"/>
		<path class="st7" d="M117.8,153.5l11.9-6.8c0.6-0.5,1-1.2,1.1-2l0,0c0-0.8-0.4-1.1-1-0.8l-11.8,6.8c-0.6,0.5-1,1.2-1.1,2l0,0
			C116.8,153.5,117.2,153.9,117.8,153.5z"/>
		<path class="st7" d="M125.6,160.7l3.9-2.2c0.6-0.5,1-1.2,1.1-2l0,0c0-0.8-0.4-1.1-1-0.8l-3.9,2.2c-0.6,0.5-1,1.2-1.1,2l0,0
			C124.6,160.6,125,161,125.6,160.7z"/>
		<path class="st7" d="M126.8,171.6l2.5-1.4c0.6-0.5,1-1.2,1.1-2l0,0c0-0.8-0.4-1.1-1-0.8l-2.5,1.4c-0.6,0.5-1,1.2-1.1,2l0,0
			C125.8,171.6,126.2,171.9,126.8,171.6z"/>
		<path class="st7" d="M111.2,169l10.4-6c0.6-0.5,1-1.2,1.1-2l0,0c0-0.8-0.4-1.1-1-0.8l-10.4,6c-0.6,0.5-1,1.2-1.1,2l0,0
			C110.1,169,110.6,169.3,111.2,169z"/>
		<path class="st7" d="M111.5,163l18-10.4c0.6-0.5,1-1.2,1.1-2l0,0c0-0.8-0.4-1.1-1-0.8l-18.1,10.4c-0.6,0.5-1,1.2-1.1,2l0,0
			C110.5,163,110.9,163.3,111.5,163z"/>
		<path class="st7" d="M119,170.3l10.4-6c0.6-0.5,1-1.2,1.1-2l0,0c0-0.8-0.4-1.1-1-0.8l-10.4,6c-0.6,0.5-1,1.2-1.1,2l0,0
			C118,170.3,118.4,170.6,119,170.3z"/>
		<path class="st7" d="M103.3,173.5l3.8-2.2c0.6-0.5,1-1.2,1.1-2l0,0c0-0.8-0.4-1.1-1-0.8l-3.8,2.2c-0.6,0.5-1,1.2-1.1,2l0,0
			C102.3,173.5,102.7,173.9,103.3,173.5z"/>
		<polygon class="st0" points="71.7,306.8 60.2,300.2 48.7,306.8 60.2,313.5 		"/>
		<polygon class="st0" points="47.3,292.5 35.8,285.9 24.3,292.5 35.8,299.2 		"/>
		<polygon class="st0" points="23,278.6 11.5,272 0,278.6 11.5,285.2 		"/>
		<polygon class="st4" points="35.8,292.5 35.8,257.1 47.3,250.5 47.3,285.9 		"/>
		<polygon class="st10" points="35.8,257.1 24.3,250.5 24.3,285.9 35.8,292.5 		"/>
		<polygon class="st10" points="35.8,292.5 35.8,257.1 47.3,250.5 47.3,285.9 		"/>
		<polygon class="st10" points="60.2,306.8 60.2,286.9 71.7,280.3 71.7,300.2 		"/>
		<polygon class="st10" points="60.2,286.9 48.7,280.3 48.7,300.2 60.2,306.8 		"/>
		<polygon class="st11" points="71.7,280.3 60.2,273.6 48.7,280.3 60.2,286.9 		"/>
		<polygon class="st10" points="11.5,278.6 11.5,229.9 23,223.3 23,272 		"/>
		<polygon class="st10" points="11.5,229.9 0,223.3 0,272 11.5,278.6 		"/>
		<polygon class="st11" points="23,223.3 11.5,216.6 0,223.3 11.5,229.9 		"/>
		<polygon class="st11" points="47.3,250.5 35.8,243.9 24.3,250.5 35.8,257.1 		"/>
		<path class="st0" d="M178.8,307c9.8,5.7,25.7,5.7,35.5,0s9.8-14.8,0-20.5s-25.7-5.7-35.5,0S169,301.4,178.8,307z M188.3,292
			c4.5-2.6,11.8-2.6,16.3,0s4.5,6.8,0,9.4s-11.8,2.6-16.3,0S183.8,294.7,188.3,292L188.3,292z"/>
		<path class="st12" d="M217.9,283.2l-9,0.1c-0.8-1-1.7-1.8-2.8-2.4c-4.9-2.8-12.7-3.1-18-0.7l-5.3-5l-8.2,0.1
			c0.4-0.3,0.8-0.5,1.3-0.8c11.4-6.6,29.8-6.6,41.2,0c1.9,1.1,3.6,2.4,5.1,4L217.9,283.2z"/>
		<polygon class="st10" points="174.6,262.4 174.6,275.4 182.8,275.3 182.8,262.3 		"/>
		<polygon class="st12" points="188.1,267.3 188.1,280.3 182.8,275.3 182.8,262.3 		"/>
		<path class="st12" d="M209,270.3v13l-11.8-9.6l-9.1,6.6v-13l8.4-4c0,0,11.5,3.5,12.1,3.7S209,270.3,209,270.3z"/>
		<polygon class="st12" points="217.9,270.2 217.9,283.2 209,283.3 209,270.3 		"/>
		<polygon class="st10" points="222.2,265.6 222.2,278.6 217.9,283.2 217.9,270.2 		"/>
		<path class="st11" d="M217.9,270.2l-9,0.1c-0.8-1-1.7-1.8-2.8-2.4c-4.9-2.8-12.7-3.1-18-0.7l-5.3-5l-8.2,0.1
			c0.4-0.3,0.8-0.5,1.3-0.8c11.4-6.6,29.8-6.6,41.2,0c1.9,1.1,3.6,2.4,5.1,4L217.9,270.2z"/>
		<path class="st7" d="M185.4,268.9v12l-7.7-1.9c0,0,0.4-7,0.6-7.2S185.4,268.9,185.4,268.9z"/>
		<path class="st1" d="M191.3,280.9v13l-0.8,0.9l-5.5-3.2c0,0,0.9-9.9,0.9-10.1C187.7,281.2,189.5,281,191.3,280.9z"/>
		<path class="st2" d="M180.8,277.5l4.7,4.4c-3.9,3.1-3.4,7.4,1.4,10.2c1.4,0.8,2.9,1.4,4.5,1.7l-4.8,5.1l4.3,4
			c-5.2-0.5-10.3-2.1-14.9-4.6c-9.8-5.6-11.1-14.3-4.1-20.8L180.8,277.5z"/>
		<polygon class="st2" points="190.8,290 190.8,303 180.1,298.9 167.4,286.8 167.4,273 180.9,283.7 		"/>
		<path class="st0" d="M180.8,264.5l4.7,4.4c-3.9,3.1-3.4,7.4,1.4,10.2c1.4,0.8,2.9,1.4,4.5,1.7l-4.8,5.1l4.3,4
			c-5.2-0.5-10.3-2.1-14.9-4.6c-9.8-5.6-11.1-14.3-4.1-20.8L180.8,264.5z"/>
		<path class="st2" d="M190.8,298.9l4.3-4.5c3.8,0.3,7.7-0.5,11.1-2.3c3.1-1.8,4.4-4.3,3.9-6.6l10.2-0.2l3.9-4.2
			c3.4,5.9,1.1,12.6-7,17.3c-5.9,3.4-13.8,5.1-21.6,4.9L190.8,298.9z"/>
		<polygon class="st2" points="195.5,290.4 195.5,303.4 225.6,286.6 225.6,273.6 221.2,275.4 		"/>
		<polygon class="st1" points="190.8,285.9 190.8,298.9 195.5,303.4 195.5,290.4 		"/>
		<path class="st7" d="M190.8,285.9l4.3-4.5c3.8,0.3,7.7-0.5,11.1-2.3c3.1-1.8,4.4-4.3,3.9-6.6l10.2-0.2l3.9-4.2
			c3.4,5.9,1.1,12.6-7,17.3c-5.9,3.4-13.8,5.1-21.6,4.9L190.8,285.9z"/>
		<path class="st10" d="M63.4,67.5l26.7-15.4c0.4-0.3,0.9-0.3,1.4-0.1l0,0l2.6,1.5l-1.8,0.7v19.4c0,1.6-0.8,3.2-2.2,4.1L64.6,92.4
			v2.3l-2.6-1.5l0,0c-0.5-0.4-0.8-1.1-0.7-1.7V71.6C61.2,70,62,68.5,63.4,67.5z"/>
		<path class="st11" d="M66,94.7l26.8-15.4c1.3-1,2.1-2.5,2.2-4.1V55.2c0-1.6-1-2.3-2.2-1.6L66,69c-1.3,1-2.1,2.5-2.2,4.1V93
			C63.9,94.6,64.8,95.3,66,94.7z"/>
		<path class="st9" d="M83.8,72.4c0,1.2,0.8,1.6,1.8,1c1.1-0.7,1.7-1.9,1.8-3.1c0-1.2-0.8-1.6-1.8-1C84.5,69.9,83.8,71.1,83.8,72.4z
			"/>
		<path class="st9" d="M78.3,75.5c0,1.2,0.8,1.6,1.8,1c1.1-0.7,1.7-1.9,1.8-3.1c0-1.2-0.8-1.6-1.8-1C79,73.1,78.4,74.3,78.3,75.5z"
			/>
		<path class="st9" d="M72.8,78.7c0,1.2,0.8,1.6,1.8,1c1.1-0.7,1.7-1.9,1.8-3.1c0-1.2-0.8-1.6-1.8-1C73.6,76.2,72.9,77.4,72.8,78.7z
			"/>
		<path class="st7" d="M193.4,37.1L219.6,22c0.4-0.3,0.9-0.3,1.4-0.1l0,0l2.5,1.5l-1.8,0.6v19.1c0,1.6-0.8,3.1-2.1,4l-25.1,14.5v2.2
			l-2.5-1.5l0,0c-0.5-0.4-0.8-1-0.7-1.7V41.2C191.3,39.6,192.1,38.1,193.4,37.1z"/>
		<path class="st0" d="M196,63.8l26.2-15.1c1.3-0.9,2.1-2.4,2.1-4V25.1c0-1.5-0.9-2.3-2.1-1.6L196,38.6c-1.3,0.9-2.1,2.4-2.1,4v19.5
			C193.9,63.7,194.8,64.4,196,63.8z"/>
		<path class="st9" d="M213.4,41.9c0,1.1,0.8,1.6,1.8,1c1-0.7,1.7-1.8,1.8-3.1c0-1.1-0.8-1.6-1.8-1
			C214.1,39.5,213.5,40.7,213.4,41.9z"/>
		<path class="st9" d="M208,45c0,1.1,0.8,1.6,1.8,1c1-0.7,1.7-1.8,1.8-3c0-1.1-0.8-1.6-1.8-1C208.8,42.7,208.1,43.8,208,45z"/>
		<path class="st9" d="M202.7,48.1c0,1.1,0.8,1.6,1.8,1c1.1-0.7,1.7-1.8,1.8-3.1c0-1.1-0.8-1.6-1.8-1
			C203.4,45.7,202.7,46.8,202.7,48.1z"/>
	</g>
</g>
</svg>
