<?xml version="1.0" encoding="utf-8"?>
<!-- Generator: Adobe Illustrator 21.0.2, SVG Export Plug-In . SVG Version: 6.00 Build 0)  -->
<svg version="1.1" id="Layer_1" xmlns="http://www.w3.org/2000/svg" xmlns:xlink="http://www.w3.org/1999/xlink" x="0px" y="0px"
	 viewBox="0 0 1992.4 1474.6" style="enable-background:new 0 0 1992.4 1474.6;" xml:space="preserve">
<style type="text/css">
	.st0{fill:url(#SVGID_1_);}
	.st1{fill:url(#SVGID_2_);}
	.st2{fill:url(#SVGID_3_);}
	.st3{fill:url(#SVGID_4_);}
	.st4{fill:url(#SVGID_5_);}
	.st5{fill:url(#SVGID_6_);}
	.st6{fill:url(#SVGID_7_);}
	.st7{fill:url(#SVGID_8_);}
	.st8{fill:url(#SVGID_9_);}
	.st9{fill:url(#SVGID_10_);}
	.st10{fill:url(#SVGID_11_);}
	.st11{fill:url(#SVGID_12_);}
	.st12{fill:url(#SVGID_13_);}
	.st13{fill:url(#SVGID_14_);}
	.st14{fill:url(#SVGID_15_);}
	.st15{fill:url(#SVGID_16_);}
	.st16{fill:#F3F6FF;}
	.st17{fill:url(#SVGID_17_);}
	.st18{fill:url(#SVGID_18_);}
	.st19{fill:url(#SVGID_19_);}
	.st20{fill:url(#SVGID_20_);}
	.st21{fill:url(#SVGID_21_);}
	.st22{fill:url(#SVGID_22_);}
	.st23{fill:url(#SVGID_23_);}
	.st24{fill:url(#SVGID_24_);}
	.st25{fill:url(#SVGID_25_);}
	.st26{fill:url(#SVGID_26_);}
	.st27{fill:url(#SVGID_27_);}
	.st28{fill:url(#SVGID_28_);}
	.st29{fill:url(#SVGID_29_);}
	.st30{fill:url(#SVGID_30_);}
	.st31{fill:url(#SVGID_31_);}
	.st32{fill:url(#SVGID_32_);}
	.st33{fill:url(#SVGID_33_);}
	.st34{fill:url(#SVGID_34_);}
	.st35{fill:url(#SVGID_35_);}
	.st36{fill:url(#SVGID_36_);}
	.st37{fill:url(#SVGID_37_);}
	.st38{fill:url(#SVGID_38_);}
	.st39{fill:url(#SVGID_39_);}
	.st40{fill:none;stroke:#000000;stroke-miterlimit:10;}
	.st41{fill:url(#SVGID_40_);}
	.st42{fill:url(#SVGID_41_);}
	.st43{fill:url(#SVGID_42_);}
	.st44{fill:url(#SVGID_43_);}
	.st45{fill:url(#SVGID_44_);}
	.st46{fill:url(#SVGID_45_);}
	.st47{fill:url(#SVGID_46_);}
	.st48{fill:url(#SVGID_47_);}
	.st49{fill:url(#SVGID_48_);}
	.st50{fill:url(#SVGID_49_);}
	.st51{fill:url(#SVGID_50_);}
	.st52{fill:url(#SVGID_51_);}
	.st53{fill:url(#SVGID_52_);}
	.st54{fill:url(#SVGID_53_);}
	.st55{fill:url(#SVGID_54_);}
	.st56{fill:url(#SVGID_55_);}
	.st57{fill:url(#SVGID_56_);}
	.st58{fill:#9B9AAC;}
	.st59{fill:url(#SVGID_57_);}
	.st60{fill:url(#SVGID_58_);}
	.st61{fill:url(#SVGID_59_);}
	.st62{fill:url(#SVGID_60_);}
	.st63{fill:url(#SVGID_61_);}
	.st64{fill:url(#SVGID_62_);}
	.st65{fill:url(#SVGID_63_);}
	.st66{fill:url(#SVGID_64_);}
	.st67{fill:url(#SVGID_65_);}
	.st68{fill:url(#SVGID_66_);}
	.st69{fill:url(#SVGID_67_);}
	.st70{fill:url(#SVGID_68_);}
	.st71{fill:#424143;}
	.st72{fill:url(#SVGID_69_);}
	.st73{fill:url(#SVGID_70_);}
	.st74{fill:url(#SVGID_71_);}
	.st75{fill:url(#SVGID_72_);}
	.st76{fill:url(#SVGID_73_);}
	.st77{fill:url(#SVGID_74_);}
	.st78{fill:url(#SVGID_75_);}
	.st79{fill:url(#SVGID_76_);}
	.st80{fill:url(#SVGID_77_);}
	.st81{fill:url(#SVGID_78_);}
	.st82{fill:url(#SVGID_79_);}
	.st83{fill:url(#SVGID_80_);}
	.st84{fill:url(#SVGID_81_);}
	.st85{fill:url(#SVGID_82_);}
	.st86{fill:url(#SVGID_83_);}
	.st87{fill:url(#SVGID_84_);}
	.st88{fill:url(#SVGID_85_);}
	.st89{fill:url(#SVGID_86_);}
	.st90{fill:url(#SVGID_87_);}
	.st91{fill:url(#SVGID_88_);}
	.st92{fill:url(#SVGID_89_);}
	.st93{fill:url(#SVGID_90_);}
	.st94{fill:url(#SVGID_91_);}
	.st95{fill:url(#SVGID_92_);}
	.st96{fill:url(#SVGID_93_);}
	.st97{fill:url(#SVGID_94_);}
	.st98{fill:url(#SVGID_95_);}
	.st99{fill:url(#SVGID_96_);}
	.st100{fill:url(#SVGID_97_);}
	.st101{fill:url(#SVGID_98_);}
	.st102{fill:url(#SVGID_99_);}
	.st103{fill:url(#SVGID_100_);}
	.st104{fill:url(#SVGID_101_);}
	.st105{fill:url(#SVGID_102_);}
	.st106{fill:url(#SVGID_103_);}
	.st107{fill:url(#SVGID_104_);}
	.st108{fill:url(#SVGID_105_);}
	.st109{fill:url(#SVGID_106_);}
	.st110{fill:url(#SVGID_107_);}
	.st111{fill:url(#SVGID_108_);}
	.st112{fill:url(#SVGID_109_);}
	.st113{fill:url(#SVGID_110_);}
	.st114{fill:url(#SVGID_111_);}
	.st115{fill:url(#SVGID_112_);}
	.st116{fill:url(#SVGID_113_);}
	.st117{fill:url(#SVGID_114_);}
	.st118{fill:url(#SVGID_115_);}
	.st119{fill:url(#SVGID_116_);}
	.st120{fill:url(#SVGID_117_);}
	.st121{fill:url(#SVGID_118_);}
	.st122{fill:url(#SVGID_119_);}
	.st123{fill:url(#SVGID_120_);}
	.st124{fill:url(#SVGID_121_);}
	.st125{fill:url(#SVGID_122_);}
	.st126{fill:url(#SVGID_123_);}
	.st127{fill:url(#SVGID_124_);}
	.st128{fill:url(#SVGID_125_);}
	.st129{fill:url(#SVGID_126_);}
	.st130{fill:url(#SVGID_127_);}
	.st131{fill:url(#SVGID_128_);}
	.st132{fill:url(#SVGID_129_);}
	.st133{fill:url(#SVGID_130_);}
	.st134{fill:url(#SVGID_131_);}
</style>
<g>
	
		<linearGradient id="SVGID_1_" gradientUnits="userSpaceOnUse" x1="280.35" y1="444.385" x2="565.44" y2="444.385" gradientTransform="matrix(1 0 0 -1 0 1476)">
		<stop  offset="0" style="stop-color:#666666"/>
		<stop  offset="6.000000e-02" style="stop-color:#737373"/>
		<stop  offset="0.28" style="stop-color:#A5A5A5"/>
		<stop  offset="0.5" style="stop-color:#CCCCCC"/>
		<stop  offset="0.7" style="stop-color:#E8E8E8"/>
		<stop  offset="0.87" style="stop-color:#F9F9F9"/>
		<stop  offset="1" style="stop-color:#FFFFFF"/>
	</linearGradient>
	<path class="st0" d="M282.7,1194.9c0,0,50.9-192.8-2.4-325.1l2.4-1.4l282.7,163.3L282.7,1194.9z"/>
</g>
<g>
	
		<linearGradient id="SVGID_2_" gradientUnits="userSpaceOnUse" x1="-3772.061" y1="709.0699" x2="-3769.0911" y2="634.28" gradientTransform="matrix(-1 0 0 -1 -3179.52 1476)">
		<stop  offset="0" style="stop-color:#999999"/>
		<stop  offset="0.2" style="stop-color:#B4B4B4"/>
		<stop  offset="0.55" style="stop-color:#DCDCDC"/>
		<stop  offset="0.83" style="stop-color:#F6F6F6"/>
		<stop  offset="1" style="stop-color:#FFFFFF"/>
	</linearGradient>
	<polygon class="st1" points="609.5,752.9 573.4,732.1 573.4,836.4 609.5,857.2 	"/>
</g>
<g>
	
		<linearGradient id="SVGID_3_" gradientUnits="userSpaceOnUse" x1="-3845.3735" y1="726.1899" x2="-3839.7634" y2="584.2999" gradientTransform="matrix(-1 0 0 -1 -3179.52 1476)">
		<stop  offset="0" style="stop-color:#999999"/>
		<stop  offset="0.2" style="stop-color:#B4B4B4"/>
		<stop  offset="0.55" style="stop-color:#DCDCDC"/>
		<stop  offset="0.83" style="stop-color:#F6F6F6"/>
		<stop  offset="1" style="stop-color:#FFFFFF"/>
	</linearGradient>
	<polygon class="st2" points="681.8,732 645.6,711.2 645.6,878 681.7,898.9 	"/>
</g>
<g>
	
		<linearGradient id="SVGID_4_" gradientUnits="userSpaceOnUse" x1="-3914.9858" y1="857.43" x2="-3916.156" y2="550.61" gradientTransform="matrix(-1 0 0 -1 -3179.52 1476)">
		<stop  offset="0" style="stop-color:#999999"/>
		<stop  offset="0.2" style="stop-color:#B4B4B4"/>
		<stop  offset="0.55" style="stop-color:#DCDCDC"/>
		<stop  offset="0.83" style="stop-color:#F6F6F6"/>
		<stop  offset="1" style="stop-color:#FFFFFF"/>
	</linearGradient>
	<polygon class="st3" points="754,563.3 717.9,543.1 717.8,919.8 754,940.7 	"/>
</g>
<g>
	
		<linearGradient id="SVGID_5_" gradientUnits="userSpaceOnUse" x1="-3987.7432" y1="762.81" x2="-3987.6531" y2="527.12" gradientTransform="matrix(-1 0 0 -1 -3179.52 1476)">
		<stop  offset="0" style="stop-color:#999999"/>
		<stop  offset="0.2" style="stop-color:#B4B4B4"/>
		<stop  offset="0.55" style="stop-color:#DCDCDC"/>
		<stop  offset="0.83" style="stop-color:#F6F6F6"/>
		<stop  offset="1" style="stop-color:#FFFFFF"/>
	</linearGradient>
	<polygon class="st4" points="826.3,690.4 790.2,669.5 790.1,961.5 826.2,982.3 	"/>
</g>
<g>
	
		<linearGradient id="SVGID_6_" gradientUnits="userSpaceOnUse" x1="297.92" y1="947.1564" x2="1756.75" y2="947.1564" gradientTransform="matrix(1 0 0 -1 0 1476)">
		<stop  offset="0" style="stop-color:#000000"/>
		<stop  offset="0" style="stop-color:#000000"/>
		<stop  offset="0.4" style="stop-color:#1C1C1C"/>
		<stop  offset="0.74" style="stop-color:#2D2D2D"/>
		<stop  offset="1" style="stop-color:#333333"/>
	</linearGradient>
	<path class="st5" d="M1756.8,732.9v0.4c0,0.6,0,1.3-0.1,1.9v0.2c-0.2,3.6-0.8,7.1-1.9,10.5c-0.8,2.5-1.9,5-3.2,7.3
		c-530-43.7-1276.2-25.6-1453.6-20.6c0.2-14,7.7-26.9,19.9-33.9l659.7-380.9c31.1-17.9,69.3-17.9,100.4,0l658.7,380.6
		C1749,705.5,1756.7,718.6,1756.8,732.9z"/>
</g>
<g>
	
		<linearGradient id="SVGID_7_" gradientUnits="userSpaceOnUse" x1="1396.2379" y1="392.3518" x2="1929.0079" y2="392.3518" gradientTransform="matrix(0.99 5.000000e-02 6.000000e-02 -1.01 -108.44 1568.6)">
		<stop  offset="0" style="stop-color:#666666"/>
		<stop  offset="6.000000e-02" style="stop-color:#737373"/>
		<stop  offset="0.28" style="stop-color:#A5A5A5"/>
		<stop  offset="0.5" style="stop-color:#CCCCCC"/>
		<stop  offset="0.7" style="stop-color:#E8E8E8"/>
		<stop  offset="0.87" style="stop-color:#F9F9F9"/>
		<stop  offset="1" style="stop-color:#FFFFFF"/>
	</linearGradient>
	<path class="st6" d="M1822.9,1277.6l-25.2,33.5l-1.2,1.6l-15.3,20.3l-58.3-12c-10.7,7.2-22.1,13.4-33.9,18.4l22.3,27.5l2.6,3.2
		l-14.5,3.4l-88.6,20.7l-25-30.8c-15.9,1.2-31.8,1.3-47.7,0.5l-23.7,31.6l-95.9-19.7l-3.9-0.8l-4.3-0.9l0.7-0.9l23-30.6
		c-11.9-4.7-23.4-10.5-34.2-17.4l-58.6,13.7l-17.2-21.2l-26.9-33.2l23.6-5.5l34.5-8c-2.2-8.4-2.5-17.1-0.8-25.6l-34.4-7.1l-23.9-4.9
		l41.7-55.4l57.7,11.9c2.2-1.6,4.6-3.1,7-4.6c0.8-0.6,1.6-1,2.5-1.6c3.1-1.9,6.3-3.7,9.6-5.5c4.8-2.5,9.8-5,15-7.2l-2.9-3.6
		l-21.4-26.5l103.1-24.1l24.1,29.8c6.3-0.5,12.6-0.8,19-1c8.7-0.3,17.4-0.2,26.2,0.1c1.5,0.1,3,0.1,4.4,0.2l6.4-8.5l0.5-0.6l2.2-2.9
		l13.7-18.2l20.9,4.3l83.2,17.1l-22.8,30.3c6.9,2.8,13.7,5.9,20.3,9.3c5.2,2.7,10.2,5.6,15.1,8.8l56.4-13.2l44.1,54.4l-29.4,6.8
		l-27.5,6.4c2.1,8.5,2.2,17.4,0.3,26l30.4,6.3L1822.9,1277.6z"/>
</g>
<g>
	
		<linearGradient id="SVGID_8_" gradientUnits="userSpaceOnUse" x1="1363.6127" y1="1259.8127" x2="1468.3715" y2="1259.8127" gradientTransform="matrix(1 0 0 -1 0 1476)">
		<stop  offset="0" style="stop-color:#FFFFFF"/>
		<stop  offset="0.48" style="stop-color:#F6F6F6"/>
		<stop  offset="1" style="stop-color:#E6E6E6"/>
	</linearGradient>
	<path class="st7" d="M1464.2,210.7l-2.8,1.7c5.9,18.1,5.2,36.5-3.5,48.9c-5.2,7.7-13.8,12.6-23.1,13.1c-13.9,1-29.8-6.3-42.8-19.5
		l-2.8,1.8c13.1,13.6,28.5,21.1,43,21.1c1,0,2,0,2.9-0.1c10.3-0.6,19.8-5.9,25.6-14.5C1469.8,249.9,1470.6,230.1,1464.2,210.7z
		 M1399.8,157.7c13.8,0,29.2,7.8,41.7,21.1c1.8,1.9,3.5,3.9,5.1,5.9l2.8-1.7c-1.7-2.2-3.6-4.4-5.5-6.5c-14.2-15.1-31.3-23.2-46.9-22
		c-10.3,0.6-19.7,5.9-25.5,14.5c-6.7,9.6-9.2,23-7.2,37.7c1.1,7.9,3.3,15.7,6.6,23l2.8-1.7c-3.1-6.9-5.2-14.2-6.2-21.7
		c-0.4-3.1-0.7-6.2-0.7-9.3c0-10.1,2.5-19.2,7.3-26.1c5.2-7.7,13.8-12.6,23.1-13.1C1398.1,157.8,1398.9,157.8,1399.8,157.7
		L1399.8,157.7z"/>
</g>
<g>
	
		<linearGradient id="SVGID_9_" gradientUnits="userSpaceOnUse" x1="1344.1687" y1="1260.5983" x2="1488.9812" y2="1260.5983" gradientTransform="matrix(1 0 0 -1 0 1476)">
		<stop  offset="0" style="stop-color:#FFFFFF"/>
		<stop  offset="0.48" style="stop-color:#F6F6F6"/>
		<stop  offset="1" style="stop-color:#E6E6E6"/>
	</linearGradient>
	<path class="st8" d="M1438.8,300.7c-20.4,0-42.4-11-60.8-30.6c-5.8-6.2-10.9-12.9-15.4-20.1c-9.1-14.5-15.1-30.7-17.6-47.6
		c-2.8-20.3,0.7-38.8,9.9-52.1c8-11.8,21-19.2,35.2-20c21.6-1.6,45.2,9.5,64.8,30.5c16.3,17.4,27.6,39.3,32,61.9
		c4.4,22.7,1.3,43.2-8.9,57.9c-8,11.8-21,19.2-35.2,20C1441.5,300.6,1440.2,300.7,1438.8,300.7z M1356.7,151.4l1.7,1.1
		c-8.6,12.4-11.9,29.9-9.2,49.2c2.4,16.4,8.2,32.1,17,46.1c4.3,7,9.3,13.5,14.9,19.5c18.5,19.8,41.5,30.7,61.6,29.2
		c13-0.7,24.9-7.5,32.2-18.3c19.9-28.6,9.7-80.1-22.7-114.7c-18.5-19.8-41.5-30.7-61.6-29.2c-13,0.7-24.9,7.5-32.2,18.2
		L1356.7,151.4z"/>
</g>
<g>
	
		<linearGradient id="SVGID_10_" gradientUnits="userSpaceOnUse" x1="1810.537" y1="788.7205" x2="1962.4683" y2="788.7205" gradientTransform="matrix(1 0 0 -1 0 1476)">
		<stop  offset="0" style="stop-color:#FFFFFF"/>
		<stop  offset="0.48" style="stop-color:#F6F6F6"/>
		<stop  offset="1" style="stop-color:#E6E6E6"/>
	</linearGradient>
	<path class="st9" d="M1956.4,679.4l-4.1,2.5c8.6,26.3,7.5,53-5,71c-7.6,11.2-20,18.2-33.5,19c-20.2,1.5-43.2-9.1-62.1-28.3
		l-4.1,2.5c19,19.7,41.4,30.7,62.3,30.7c1.4,0,2.8,0,4.3-0.2c15-0.8,28.7-8.6,37.1-21C1964.6,736.2,1965.7,707.4,1956.4,679.4z
		 M1863,602.6c20,0,42.3,11.2,60.5,30.6c2.6,2.8,5,5.6,7.3,8.6l4.1-2.4c-2.5-3.2-5.2-6.4-8-9.4c-20.6-22-45.4-33.6-68-32
		c-14.9,0.8-28.6,8.6-37,21c-9.7,13.9-13.4,33.3-10.4,54.6c1.6,11.5,4.8,22.7,9.6,33.3l4.1-2.4c-4.5-10-7.5-20.7-9-31.5
		c-0.6-4.5-1-9-1-13.5c0-14.7,3.6-27.8,10.6-37.8c7.6-11.2,20-18.2,33.5-19C1860.5,602.6,1861.7,602.6,1863,602.6z"/>
</g>
<g>
	
		<linearGradient id="SVGID_11_" gradientUnits="userSpaceOnUse" x1="1782.3007" y1="789.8414" x2="1992.3853" y2="789.8414" gradientTransform="matrix(1 0 0 -1 0 1476)">
		<stop  offset="0" style="stop-color:#FFFFFF"/>
		<stop  offset="0.48" style="stop-color:#F6F6F6"/>
		<stop  offset="1" style="stop-color:#E6E6E6"/>
	</linearGradient>
	<path class="st10" d="M1919.6,809.9c-29.7,0-61.5-16-88.1-44.5c-8.4-9-15.9-18.7-22.3-29.2c-13.5-21.8-22.3-45.7-25.5-69.1
		c-4.1-29.5,1-56.3,14.3-75.5c12.1-17.4,29.7-27.4,51-29c31.3-2.3,65.6,13.8,94.1,44.2c23.6,25.2,40.1,57.1,46.5,89.7
		c6.4,32.9,1.8,62.7-13,84c-12.1,17.4-29.8,27.5-51.1,29C1923.5,809.8,1921.6,809.9,1919.6,809.9z M1800.4,593.3l2.4,1.7
		c-12.5,18-17.3,43.4-13.3,71.4c3,22.6,11.6,45.7,24.6,66.8c6.3,10.1,13.5,19.6,21.7,28.3c26.8,28.7,60.2,44.5,89.3,42.4
		c19.5-1.4,35.7-10.6,46.8-26.5c28.8-41.5,14.1-116.2-33-166.4c-26.8-28.7-60.2-44.5-89.4-42.4c-19.5,1.4-35.6,10.6-46.7,26.5
		L1800.4,593.3z"/>
</g>
<g>
	
		<linearGradient id="SVGID_12_" gradientUnits="userSpaceOnUse" x1="1476.1597" y1="1063.5626" x2="1610.8492" y2="1063.5626" gradientTransform="matrix(1 0 0 -1 0 1476)">
		<stop  offset="0" style="stop-color:#E6E6E6"/>
		<stop  offset="0.52" style="stop-color:#F6F6F6"/>
		<stop  offset="1" style="stop-color:#FFFFFF"/>
	</linearGradient>
	<path class="st11" d="M1609.2,452c-0.3,0-0.6-0.1-0.8-0.2L1477,376c-0.8-0.5-1.1-1.5-0.6-2.3c0.5-0.8,1.5-1.1,2.3-0.6l0,0
		l131.3,75.8c0.8,0.5,1.1,1.5,0.6,2.3C1610.3,451.7,1609.8,452,1609.2,452L1609.2,452z"/>
</g>
<g>
	
		<linearGradient id="SVGID_13_" gradientUnits="userSpaceOnUse" x1="1479.0597" y1="1087.4827" x2="1610.8492" y2="1087.4827" gradientTransform="matrix(1 0 0 -1 0 1476)">
		<stop  offset="0" style="stop-color:#E6E6E6"/>
		<stop  offset="0.52" style="stop-color:#F6F6F6"/>
		<stop  offset="1" style="stop-color:#FFFFFF"/>
	</linearGradient>
	<path class="st12" d="M1609.2,427.3c-0.3,0-0.6-0.1-0.8-0.2l-128.4-74.1c-0.8-0.5-1.1-1.5-0.6-2.3c0.5-0.8,1.5-1.1,2.3-0.6l0,0
		l128.4,74.1c0.8,0.5,1.1,1.5,0.6,2.3C1610.3,426.9,1609.8,427.3,1609.2,427.3L1609.2,427.3z"/>
</g>
<g>
	
		<linearGradient id="SVGID_14_" gradientUnits="userSpaceOnUse" x1="1479.0797" y1="1112.1627" x2="1610.8492" y2="1112.1627" gradientTransform="matrix(1 0 0 -1 0 1476)">
		<stop  offset="0" style="stop-color:#E6E6E6"/>
		<stop  offset="0.52" style="stop-color:#F6F6F6"/>
		<stop  offset="1" style="stop-color:#FFFFFF"/>
	</linearGradient>
	<path class="st13" d="M1609.2,402.6c-0.3,0-0.6-0.1-0.8-0.2l-128.4-74.1c-0.8-0.5-1.1-1.5-0.6-2.3c0.5-0.8,1.5-1.1,2.3-0.6
		l128.4,74.1c0.8,0.5,1.1,1.5,0.6,2.3C1610.3,402.3,1609.8,402.6,1609.2,402.6L1609.2,402.6z"/>
</g>
<g>
	
		<linearGradient id="SVGID_15_" gradientUnits="userSpaceOnUse" x1="1500.48" y1="1136.8298" x2="1589.41" y2="1136.8298" gradientTransform="matrix(1 0 0 -1 0 1476)">
		<stop  offset="0" style="stop-color:#E6E6E6"/>
		<stop  offset="0.52" style="stop-color:#F6F6F6"/>
		<stop  offset="1" style="stop-color:#FFFFFF"/>
	</linearGradient>
	<path class="st14" d="M1587.7,365.5c-0.3,0-0.6-0.1-0.8-0.2l-85.6-49.4c-0.8-0.5-0.9-1.6-0.4-2.3c0.5-0.6,1.3-0.9,2.1-0.5
		l85.6,49.4c0.8,0.5,1.1,1.5,0.6,2.3C1588.9,365.2,1588.3,365.5,1587.7,365.5L1587.7,365.5z"/>
</g>
<title>lifecycle</title>
<g id="Layer_2">
	<g id="Layer_1-2">
		
			<linearGradient id="SVGID_16_" gradientUnits="userSpaceOnUse" x1="1422.29" y1="1082.8434" x2="1901.6606" y2="1082.8434" gradientTransform="matrix(1 0 0 -1 0 1476)">
			<stop  offset="0" style="stop-color:#D4D4DC"/>
			<stop  offset="1" style="stop-color:#9B9AAC"/>
		</linearGradient>
		<path class="st15" d="M1422.3,102.4c3.7-2.3,8.3-2.3,12-0.2l4.8,2.8l436,251.8c7.6,4.4,12.3,12.5,12.3,21.3v305.8
			c0,1.9-0.3,3.7-1,5.5c-0.9,2.3-2.3,4.3-4.2,5.9l12-7.9l0.1,0c4.6-2.7,7.5-7.6,7.4-13V368.5c0-8.8-4.7-16.9-12.3-21.3L1448.6,92.7
			c-4.1-2.4-9.3-2-13.1,0.9L1422.3,102.4z"/>
		<path class="st16" d="M1416.6,421.5c0,10.2,5.4,19.6,14.2,24.7l434,250.6c7.2,4.1,16.3,1.7,20.5-5.5c0.4-0.6,0.7-1.3,1-2
			c0.7-1.7,1-3.6,1-5.5V378.1c0-8.8-4.7-16.9-12.3-21.3L1439.1,105l-4.8-2.8c-3.7-2.2-8.3-2.1-12,0.2l-0.2,0.1c-1.6,1-3,2.4-3.9,4.1
			c-1,1.8-1.5,3.8-1.5,5.8L1416.6,421.5z"/>
		
			<linearGradient id="SVGID_17_" gradientUnits="userSpaceOnUse" x1="1754.4399" y1="1044.78" x2="1835.7999" y2="1044.78" gradientTransform="matrix(1 0 0 -1 0 1476)">
			<stop  offset="0" style="stop-color:#D4D4DC"/>
			<stop  offset="1" style="stop-color:#9B9AAC"/>
		</linearGradient>
		<path class="st17" d="M1754.4,375.1v94.3l81.4,18c-2.7-28.1-16.1-58.6-38.4-82.4C1784,390.6,1769.1,380.6,1754.4,375.1z"/>
		
			<linearGradient id="SVGID_18_" gradientUnits="userSpaceOnUse" x1="1698.25" y1="961.965" x2="1754.4399" y2="961.965" gradientTransform="matrix(1 0 0 -1 0 1476)">
			<stop  offset="0" style="stop-color:#E9EFFF"/>
			<stop  offset="1" style="stop-color:#D4D4DC"/>
		</linearGradient>
		<path class="st18" d="M1754.4,558.7v-89.3l-56.2,43.2c4,5.7,8.4,11.1,13.1,16.2C1724.8,543.2,1739.7,553.2,1754.4,558.7z"/>
		
			<linearGradient id="SVGID_19_" gradientUnits="userSpaceOnUse" x1="1672.5726" y1="1051.8149" x2="1754.4501" y2="1051.8149" gradientTransform="matrix(1 0 0 -1 0 1476)">
			<stop  offset="0" style="stop-color:#E9EFFF"/>
			<stop  offset="1" style="stop-color:#D4D4DC"/>
		</linearGradient>
		<path class="st19" d="M1673.7,451.3c0.2,1.4,0.4,2.8,0.7,4.2l80.1,13.8l-56.3-90.4c-5.2,3.6-9.8,8.2-13.4,13.4
			C1674,408,1670.6,429,1673.7,451.3z"/>
		
			<linearGradient id="SVGID_20_" gradientUnits="userSpaceOnUse" x1="1698.15" y1="1056.2825" x2="1754.4401" y2="1056.2825" gradientTransform="matrix(1 0 0 -1 0 1476)">
			<stop  offset="0" style="stop-color:#F22AFF"/>
			<stop  offset="1" style="stop-color:#6C00E9"/>
		</linearGradient>
		<path class="st20" d="M1698.2,379l56.3,90.4v-94.3C1733.8,367.3,1713.5,368.5,1698.2,379z"/>
		
			<linearGradient id="SVGID_21_" gradientUnits="userSpaceOnUse" x1="1754.4399" y1="959.472" x2="1836.3116" y2="959.472" gradientTransform="matrix(1 0 0 -1 0 1476)">
			<stop  offset="0" style="stop-color:#2BD978"/>
			<stop  offset="1" style="stop-color:#4BEA8B"/>
		</linearGradient>
		<path class="st21" d="M1754.4,469.4v89.3c27.4,10.2,54.2,4.8,69.7-17.4c10-14.4,13.7-33.5,11.7-53.9L1754.4,469.4z"/>
		
			<linearGradient id="SVGID_22_" gradientUnits="userSpaceOnUse" x1="1674.3199" y1="991.935" x2="1754.4299" y2="991.935" gradientTransform="matrix(1 0 0 -1 0 1476)">
			<stop  offset="0" style="stop-color:#424143"/>
			<stop  offset="1" style="stop-color:#9B9AAC"/>
		</linearGradient>
		<path class="st22" d="M1674.3,455.5c3.2,17.8,9.8,34.9,19.4,50.2c1.4,2.3,2.9,4.6,4.5,6.8l56.2-43.2L1674.3,455.5z"/>
		
			<linearGradient id="SVGID_23_" gradientUnits="userSpaceOnUse" x1="1459.39" y1="1236.3662" x2="1630.5699" y2="1236.3662" gradientTransform="matrix(1 0 0 -1 0 1476)">
			<stop  offset="0" style="stop-color:#F22AFF"/>
			<stop  offset="1" style="stop-color:#6C00E9"/>
		</linearGradient>
		<path class="st23" d="M1630.6,272.3v30.5c0,3.7-3,6.7-6.7,6.7c-1.2,0-2.3-0.3-3.4-0.9l-155-89.5c-3.8-2.2-6.1-6.2-6.1-10.6v-33.7
			c0-2.8,2.3-5,5-5c0.9,0,1.7,0.2,2.5,0.7l157.4,90.9C1628.2,263.6,1630.6,267.8,1630.6,272.3z"/>
		
			<linearGradient id="SVGID_24_" gradientUnits="userSpaceOnUse" x1="1459.3199" y1="1101.4928" x2="1630.53" y2="1101.4928" gradientTransform="matrix(1 0 0 -1 0 1476)">
			<stop  offset="0" style="stop-color:#E9EFFF"/>
			<stop  offset="1" style="stop-color:#D4D4DC"/>
		</linearGradient>
		<path class="st24" d="M1630.5,350.5V493c0,5.6-4.6,10.2-10.2,10.2c-1.8,0-3.5-0.5-5-1.3l-146.5-83.2c-5.9-3.3-9.5-9.6-9.5-16.3
			V253.5c0-4.2,3.4-7.6,7.6-7.6c1.3,0,2.6,0.4,3.8,1l150,86.6C1626.8,337,1630.5,343.5,1630.5,350.5z"/>
		<g>
			
				<linearGradient id="SVGID_25_" gradientUnits="userSpaceOnUse" x1="1500.48" y1="1136.8298" x2="1589.41" y2="1136.8298" gradientTransform="matrix(1 0 0 -1 0 1476)">
				<stop  offset="0" style="stop-color:#E9EFFF"/>
				<stop  offset="9.000000e-02" style="stop-color:#D4D4DC"/>
				<stop  offset="0.49" style="stop-color:#AAAABA"/>
				<stop  offset="0.81" style="stop-color:#D4D4DC"/>
				<stop  offset="1" style="stop-color:#D4D4DC"/>
			</linearGradient>
			<path class="st25" d="M1587.7,365.5c-0.3,0-0.6-0.1-0.8-0.2l-85.6-49.4c-0.8-0.5-0.9-1.6-0.4-2.3c0.5-0.6,1.3-0.9,2.1-0.5
				l85.6,49.4c0.8,0.5,1.1,1.5,0.6,2.3C1588.9,365.2,1588.3,365.5,1587.7,365.5L1587.7,365.5z"/>
		</g>
		<g>
			
				<linearGradient id="SVGID_26_" gradientUnits="userSpaceOnUse" x1="1479.0797" y1="1112.1627" x2="1610.8492" y2="1112.1627" gradientTransform="matrix(1 0 0 -1 0 1476)">
				<stop  offset="0" style="stop-color:#E9EFFF"/>
				<stop  offset="9.000000e-02" style="stop-color:#D4D4DC"/>
				<stop  offset="0.49" style="stop-color:#AAAABA"/>
				<stop  offset="0.81" style="stop-color:#D4D4DC"/>
				<stop  offset="1" style="stop-color:#D4D4DC"/>
			</linearGradient>
			<path class="st26" d="M1609.2,402.6c-0.3,0-0.6-0.1-0.8-0.2l-128.4-74.1c-0.8-0.5-1.1-1.5-0.6-2.3c0.5-0.8,1.5-1.1,2.3-0.6
				l128.4,74.1c0.8,0.5,1.1,1.5,0.6,2.3C1610.3,402.3,1609.8,402.6,1609.2,402.6L1609.2,402.6z"/>
		</g>
		<g>
			
				<linearGradient id="SVGID_27_" gradientUnits="userSpaceOnUse" x1="1479.0597" y1="1087.4827" x2="1610.8492" y2="1087.4827" gradientTransform="matrix(1 0 0 -1 0 1476)">
				<stop  offset="0" style="stop-color:#E9EFFF"/>
				<stop  offset="9.000000e-02" style="stop-color:#D4D4DC"/>
				<stop  offset="0.49" style="stop-color:#AAAABA"/>
				<stop  offset="0.81" style="stop-color:#D4D4DC"/>
				<stop  offset="1" style="stop-color:#D4D4DC"/>
			</linearGradient>
			<path class="st27" d="M1609.2,427.3c-0.3,0-0.6-0.1-0.8-0.2l-128.4-74.1c-0.8-0.5-1.1-1.5-0.6-2.3c0.5-0.8,1.5-1.1,2.3-0.6l0,0
				l128.4,74.1c0.8,0.5,1.1,1.5,0.6,2.3C1610.3,426.9,1609.8,427.3,1609.2,427.3L1609.2,427.3z"/>
		</g>
		<g>
			
				<linearGradient id="SVGID_28_" gradientUnits="userSpaceOnUse" x1="1476.1597" y1="1063.5626" x2="1610.8492" y2="1063.5626" gradientTransform="matrix(1 0 0 -1 0 1476)">
				<stop  offset="0" style="stop-color:#E9EFFF"/>
				<stop  offset="9.000000e-02" style="stop-color:#D4D4DC"/>
				<stop  offset="0.49" style="stop-color:#AAAABA"/>
				<stop  offset="0.81" style="stop-color:#D4D4DC"/>
				<stop  offset="1" style="stop-color:#D4D4DC"/>
			</linearGradient>
			<path class="st28" d="M1609.2,452c-0.3,0-0.6-0.1-0.8-0.2L1477,376c-0.8-0.5-1.1-1.5-0.6-2.3c0.5-0.8,1.5-1.1,2.3-0.6l0,0
				l131.3,75.8c0.8,0.5,1.1,1.5,0.6,2.3C1610.3,451.7,1609.8,452,1609.2,452L1609.2,452z"/>
		</g>
		<g>
			
				<linearGradient id="SVGID_29_" gradientUnits="userSpaceOnUse" x1="1782.3007" y1="789.8414" x2="1992.3853" y2="789.8414" gradientTransform="matrix(1 0 0 -1 0 1476)">
				<stop  offset="0" style="stop-color:#D4D4DC"/>
				<stop  offset="0.19" style="stop-color:#D4D4DC"/>
				<stop  offset="0.51" style="stop-color:#AAAABA"/>
				<stop  offset="0.91" style="stop-color:#D4D4DC"/>
				<stop  offset="1" style="stop-color:#E9EFFF"/>
			</linearGradient>
			<path class="st29" d="M1919.6,809.9c-29.7,0-61.5-16-88.1-44.5c-8.4-9-15.9-18.7-22.3-29.2c-13.5-21.8-22.3-45.7-25.5-69.1
				c-4.1-29.5,1-56.3,14.3-75.5c12.1-17.4,29.7-27.4,51-29c31.3-2.3,65.6,13.8,94.1,44.2c23.6,25.2,40.1,57.1,46.5,89.7
				c6.4,32.9,1.8,62.7-13,84c-12.1,17.4-29.8,27.5-51.1,29C1923.5,809.8,1921.6,809.9,1919.6,809.9z M1800.4,593.3l2.4,1.7
				c-12.5,18-17.3,43.4-13.3,71.4c3,22.6,11.6,45.7,24.6,66.8c6.3,10.1,13.5,19.6,21.7,28.3c26.8,28.7,60.2,44.5,89.3,42.4
				c19.5-1.4,35.7-10.6,46.8-26.5c28.8-41.5,14.1-116.2-33-166.4c-26.8-28.7-60.2-44.5-89.4-42.4c-19.5,1.4-35.6,10.6-46.7,26.5
				L1800.4,593.3z"/>
		</g>
		<g>
			
				<linearGradient id="SVGID_30_" gradientUnits="userSpaceOnUse" x1="1810.537" y1="788.7205" x2="1962.4683" y2="788.7205" gradientTransform="matrix(1 0 0 -1 0 1476)">
				<stop  offset="0" style="stop-color:#D4D4DC"/>
				<stop  offset="0.19" style="stop-color:#D4D4DC"/>
				<stop  offset="0.51" style="stop-color:#AAAABA"/>
				<stop  offset="0.91" style="stop-color:#D4D4DC"/>
				<stop  offset="1" style="stop-color:#E9EFFF"/>
			</linearGradient>
			<path class="st30" d="M1956.4,679.4l-4.1,2.5c8.6,26.3,7.5,53-5,71c-7.6,11.2-20,18.2-33.5,19c-20.2,1.5-43.2-9.1-62.1-28.3
				l-4.1,2.5c19,19.7,41.4,30.7,62.3,30.7c1.4,0,2.8,0,4.3-0.2c15-0.8,28.7-8.6,37.1-21C1964.6,736.2,1965.7,707.4,1956.4,679.4z
				 M1863,602.6c20,0,42.3,11.2,60.5,30.6c2.6,2.8,5,5.6,7.3,8.6l4.1-2.4c-2.5-3.2-5.2-6.4-8-9.4c-20.6-22-45.4-33.6-68-32
				c-14.9,0.8-28.6,8.6-37,21c-9.7,13.9-13.4,33.3-10.4,54.6c1.6,11.5,4.8,22.7,9.6,33.3l4.1-2.4c-4.5-10-7.5-20.7-9-31.5
				c-0.6-4.5-1-9-1-13.5c0-14.7,3.6-27.8,10.6-37.8c7.6-11.2,20-18.2,33.5-19C1860.5,602.6,1861.7,602.6,1863,602.6z"/>
		</g>
		
			<linearGradient id="SVGID_31_" gradientUnits="userSpaceOnUse" x1="1860.6309" y1="784.0735" x2="1902.2159" y2="784.0735" gradientTransform="matrix(1 0 0 -1 0 1476)">
			<stop  offset="0" style="stop-color:#F22AFF"/>
			<stop  offset="1" style="stop-color:#6C00E9"/>
		</linearGradient>
		<path class="st31" d="M1863.7,673c-2.7,3.9-3.6,9.3-2.8,15c0.7,4.9,2.5,9.6,5.1,13.8c1.3,2.1,2.8,4.1,4.5,5.8
			c9.8,10.4,22.6,11.8,28.6,3.2s3-24.2-6.8-34.6S1869.8,664.3,1863.7,673z"/>
		
			<linearGradient id="SVGID_32_" gradientUnits="userSpaceOnUse" x1="1884.85" y1="793.3438" x2="1908.17" y2="793.3438" gradientTransform="matrix(1 0 0 -1 0 1476)">
			<stop  offset="0" style="stop-color:#2BD978"/>
			<stop  offset="1" style="stop-color:#4BEA8B"/>
		</linearGradient>
		<path class="st32" d="M1886.6,672c-1.6,2.5-2.1,5.5-1.6,8.4c0.4,2.8,1.4,5.4,2.9,7.8c0.7,1.2,1.6,2.3,2.5,3.3
			c5.5,5.9,12.7,6.7,16.1,1.8s1.7-13.6-3.8-19.4S1890,667.2,1886.6,672z"/>
		<g>
			
				<linearGradient id="SVGID_33_" gradientUnits="userSpaceOnUse" x1="1344.1687" y1="1260.5983" x2="1488.9812" y2="1260.5983" gradientTransform="matrix(1 0 0 -1 0 1476)">
				<stop  offset="0" style="stop-color:#D4D4DC"/>
				<stop  offset="0.19" style="stop-color:#D4D4DC"/>
				<stop  offset="0.51" style="stop-color:#AAAABA"/>
				<stop  offset="0.91" style="stop-color:#D4D4DC"/>
				<stop  offset="1" style="stop-color:#E9EFFF"/>
			</linearGradient>
			<path class="st33" d="M1438.8,300.7c-20.4,0-42.4-11-60.8-30.6c-5.8-6.2-10.9-12.9-15.4-20.1c-9.1-14.5-15.1-30.7-17.6-47.6
				c-2.8-20.3,0.7-38.8,9.9-52.1c8-11.8,21-19.2,35.2-20c21.6-1.6,45.2,9.5,64.8,30.5c16.3,17.4,27.6,39.3,32,61.9
				c4.4,22.7,1.3,43.2-8.9,57.9c-8,11.8-21,19.2-35.2,20C1441.5,300.6,1440.2,300.7,1438.8,300.7z M1356.7,151.4l1.7,1.1
				c-8.6,12.4-11.9,29.9-9.2,49.2c2.4,16.4,8.2,32.1,17,46.1c4.3,7,9.3,13.5,14.9,19.5c18.5,19.8,41.5,30.7,61.6,29.2
				c13-0.7,24.9-7.5,32.2-18.3c19.9-28.6,9.7-80.1-22.7-114.7c-18.5-19.8-41.5-30.7-61.6-29.2c-13,0.7-24.9,7.5-32.2,18.2
				L1356.7,151.4z"/>
		</g>
		<g>
			
				<linearGradient id="SVGID_34_" gradientUnits="userSpaceOnUse" x1="1363.6127" y1="1259.8127" x2="1468.3715" y2="1259.8127" gradientTransform="matrix(1 0 0 -1 0 1476)">
				<stop  offset="0" style="stop-color:#D4D4DC"/>
				<stop  offset="0.19" style="stop-color:#D4D4DC"/>
				<stop  offset="0.51" style="stop-color:#AAAABA"/>
				<stop  offset="0.91" style="stop-color:#D4D4DC"/>
				<stop  offset="1" style="stop-color:#E9EFFF"/>
			</linearGradient>
			<path class="st34" d="M1464.2,210.7l-2.8,1.7c5.9,18.1,5.2,36.5-3.5,48.9c-5.2,7.7-13.8,12.6-23.1,13.1
				c-13.9,1-29.8-6.3-42.8-19.5l-2.8,1.8c13.1,13.6,28.5,21.1,43,21.1c1,0,2,0,2.9-0.1c10.3-0.6,19.8-5.9,25.6-14.5
				C1469.8,249.9,1470.6,230.1,1464.2,210.7z M1399.8,157.7c13.8,0,29.2,7.8,41.7,21.1c1.8,1.9,3.5,3.9,5.1,5.9l2.8-1.7
				c-1.7-2.2-3.6-4.4-5.5-6.5c-14.2-15.1-31.3-23.2-46.9-22c-10.3,0.6-19.7,5.9-25.5,14.5c-6.7,9.6-9.2,23-7.2,37.7
				c1.1,7.9,3.3,15.7,6.6,23l2.8-1.7c-3.1-6.9-5.2-14.2-6.2-21.7c-0.4-3.1-0.7-6.2-0.7-9.3c0-10.1,2.5-19.2,7.3-26.1
				c5.2-7.7,13.8-12.6,23.1-13.1C1398.1,157.8,1398.9,157.8,1399.8,157.7L1399.8,157.7z"/>
		</g>
		
			<linearGradient id="SVGID_35_" gradientUnits="userSpaceOnUse" x1="1398.1747" y1="1256.672" x2="1426.8398" y2="1256.672" gradientTransform="matrix(1 0 0 -1 0 1476)">
			<stop  offset="0" style="stop-color:#F22AFF"/>
			<stop  offset="1" style="stop-color:#6C00E9"/>
		</linearGradient>
		<path class="st35" d="M1400.3,206.3c-1.9,2.7-2.5,6.4-1.9,10.3c0.5,3.4,1.7,6.6,3.5,9.5c0.9,1.4,1.9,2.8,3.1,4
			c6.7,7.2,15.6,8.2,19.7,2.2s2.1-16.7-4.7-23.9S1404.5,200.3,1400.3,206.3z"/>
		
			<linearGradient id="SVGID_36_" gradientUnits="userSpaceOnUse" x1="1414.87" y1="1263.0115" x2="1430.9399" y2="1263.0115" gradientTransform="matrix(1 0 0 -1 0 1476)">
			<stop  offset="0" style="stop-color:#2BD978"/>
			<stop  offset="1" style="stop-color:#4BEA8B"/>
		</linearGradient>
		<path class="st36" d="M1416.1,205.7c-1.1,1.7-1.5,3.8-1.1,5.8c0.3,1.9,1,3.7,2,5.4c0.5,0.8,1.1,1.6,1.7,2.3
			c3.8,4,8.7,4.6,11.1,1.2s1.2-9.4-2.6-13.4S1418.4,202.3,1416.1,205.7z"/>
		<g>
			
				<linearGradient id="SVGID_37_" gradientUnits="userSpaceOnUse" x1="1396.2379" y1="392.3518" x2="1929.0079" y2="392.3518" gradientTransform="matrix(0.99 5.000000e-02 6.000000e-02 -1.01 -108.44 1568.6)">
				<stop  offset="0" style="stop-color:#E8E8EA"/>
				<stop  offset="1" style="stop-color:#E9F1FF"/>
			</linearGradient>
			<path class="st37" d="M1822.9,1277.6l-25.2,33.5l-1.2,1.6l-15.3,20.3l-58.3-12c-10.7,7.2-22.1,13.4-33.9,18.4l22.3,27.5l2.6,3.2
				l-14.5,3.4l-88.6,20.7l-25-30.8c-15.9,1.2-31.8,1.3-47.7,0.5l-23.7,31.6l-95.9-19.7l-3.9-0.8l-4.3-0.9l0.7-0.9l23-30.6
				c-11.9-4.7-23.4-10.5-34.2-17.4l-58.6,13.7l-17.2-21.2l-26.9-33.2l23.6-5.5l34.5-8c-2.2-8.4-2.5-17.1-0.8-25.6l-34.4-7.1
				l-23.9-4.9l41.7-55.4l57.7,11.9c2.2-1.6,4.6-3.1,7-4.6c0.8-0.6,1.6-1,2.5-1.6c3.1-1.9,6.3-3.7,9.6-5.5c4.8-2.5,9.8-5,15-7.2
				l-2.9-3.6l-21.4-26.5l103.1-24.1l24.1,29.8c6.3-0.5,12.6-0.8,19-1c8.7-0.3,17.4-0.2,26.2,0.1c1.5,0.1,3,0.1,4.4,0.2l6.4-8.5
				l0.5-0.6l2.2-2.9l13.7-18.2l20.9,4.3l83.2,17.1l-22.8,30.3c6.9,2.8,13.7,5.9,20.3,9.3c5.2,2.7,10.2,5.6,15.1,8.8l56.4-13.2
				l44.1,54.4l-29.4,6.8l-27.5,6.4c2.1,8.5,2.2,17.4,0.3,26l30.4,6.3L1822.9,1277.6z"/>
		</g>
		
			<linearGradient id="SVGID_38_" gradientUnits="userSpaceOnUse" x1="1396.2379" y1="455.5405" x2="1929.0079" y2="455.5405" gradientTransform="matrix(0.99 5.000000e-02 6.000000e-02 -1.01 -108.44 1568.6)">
			<stop  offset="0" style="stop-color:#E9EFFF"/>
			<stop  offset="1" style="stop-color:#D4D4DC"/>
		</linearGradient>
		<path class="st38" d="M1826.9,1213.8l-25.2,33.5l-1.2,1.6l-15.3,20.3l-58.3-12c-10.7,7.2-22.1,13.4-33.9,18.4l22.3,27.5l2.6,3.2
			l-14.5,3.4l-88.6,20.7l-25-30.8c-15.9,1.2-31.8,1.3-47.7,0.5l-23.7,31.6l-95.9-19.7l-3.9-0.8l-4.3-0.9l0.7-0.9l23-30.6
			c-11.9-4.7-23.4-10.5-34.2-17.4l-58.6,13.6l-17.2-21.2l-26.9-33.2l23.6-5.5l34.5-8c-2.2-8.4-2.5-17.1-0.8-25.6l-34.4-7.1
			l-23.9-4.9l41.7-55.4l57.7,11.9c2.2-1.6,4.6-3.1,7-4.6c0.8-0.6,1.6-1,2.5-1.6c3.1-1.9,6.3-3.7,9.6-5.5c4.8-2.5,9.8-5,15-7.2
			l-2.9-3.6l-21.4-26.4l103.1-24.1l24.1,29.8c6.3-0.5,12.6-0.8,19-1c8.7-0.3,17.4-0.2,26.2,0.1c1.5,0.1,3,0.1,4.4,0.2l6.4-8.5
			l0.5-0.6l2.2-2.9l13.7-18.2l20.9,4.3l83.2,17.1l-22.8,30.3c6.9,2.8,13.7,5.9,20.3,9.3c5.2,2.7,10.2,5.6,15.1,8.8l56.4-13.2
			l44.1,54.4l-29.4,6.8l-27.5,6.4c2.1,8.5,2.2,17.4,0.3,26l30.4,6.3L1826.9,1213.8z"/>
		
			<linearGradient id="SVGID_39_" gradientUnits="userSpaceOnUse" x1="1542.3055" y1="356.5771" x2="1709.1455" y2="356.5771" gradientTransform="matrix(0.99 2.000000e-02 3.000000e-02 -1.01 -64.5 1519.64)">
			<stop  offset="0" style="stop-color:#F22AFF"/>
			<stop  offset="1" style="stop-color:#6C00E9"/>
		</linearGradient>
		<path class="st39" d="M1639.8,1208c-17,22.6-65.2,33.9-107.7,25.1s-63.1-34.1-46.1-56.8s65.2-33.9,107.7-25.1
			S1656.8,1185.4,1639.8,1208z"/>
		<path class="st40" d="M1715.2,1303.1l9.1-5.9C1721.3,1299.2,1718.3,1301.2,1715.2,1303.1z"/>
		
			<linearGradient id="SVGID_40_" gradientUnits="userSpaceOnUse" x1="1500.1578" y1="539.1758" x2="1526.5278" y2="539.1758" gradientTransform="matrix(0.99 5.000000e-02 6.000000e-02 -1.01 -108.44 1568.6)">
			<stop  offset="0" style="stop-color:#9B9AAC"/>
			<stop  offset="1" style="stop-color:#424143"/>
		</linearGradient>
		<path class="st41" d="M1433.3,1106.8c-5.2,2.3-10.2,4.7-15,7.2c-3.3,1.8-6.5,3.6-9.6,5.5c-0.8,0.5-1.7,1-2.5,1.5l2.8-44.2
			L1433.3,1106.8z"/>
		
			<linearGradient id="SVGID_41_" gradientUnits="userSpaceOnUse" x1="1784.2878" y1="560.4039" x2="1805.2778" y2="560.4039" gradientTransform="matrix(0.99 5.000000e-02 6.000000e-02 -1.01 -108.44 1568.6)">
			<stop  offset="0" style="stop-color:#9B9AAC"/>
			<stop  offset="1" style="stop-color:#424143"/>
		</linearGradient>
		<path class="st42" d="M1712.6,1073l-2.5,39.6c-6.6-3.5-13.4-6.6-20.3-9.3L1712.6,1073z"/>
		
			<linearGradient id="SVGID_42_" gradientUnits="userSpaceOnUse" x1="1868.2979" y1="474.0645" x2="1924.6678" y2="474.0645" gradientTransform="matrix(0.99 5.000000e-02 6.000000e-02 -1.01 -108.44 1568.6)">
			<stop  offset="0" style="stop-color:#9B9AAC"/>
			<stop  offset="1" style="stop-color:#424143"/>
		</linearGradient>
		<path class="st43" d="M1825.8,1162.6l-2.5,40l-23.6,5.5l-30.4-6.3c1.9-8.6,1.7-17.5-0.3-26l27.5-6.4L1825.8,1162.6z"/>
		
			<linearGradient id="SVGID_43_" gradientUnits="userSpaceOnUse" x1="1890.5479" y1="398.5276" x2="1928.9979" y2="398.5276" gradientTransform="matrix(0.99 5.000000e-02 6.000000e-02 -1.01 -108.44 1568.6)">
			<stop  offset="0" style="stop-color:#D4D4DC"/>
			<stop  offset="1" style="stop-color:#9B9AAC"/>
		</linearGradient>
		<polygon class="st44" points="1826.9,1213.8 1824.3,1253.8 1782.6,1309.2 1785.1,1269.2 1800.5,1248.9 		"/>
		
			<linearGradient id="SVGID_44_" gradientUnits="userSpaceOnUse" x1="1831.1179" y1="374.5924" x2="1890.5479" y2="374.5924" gradientTransform="matrix(0.99 5.000000e-02 6.000000e-02 -1.01 -108.44 1568.6)">
			<stop  offset="0" style="stop-color:#9B9AAC"/>
			<stop  offset="1" style="stop-color:#424143"/>
		</linearGradient>
		<polygon class="st45" points="1785.1,1269.2 1782.6,1309.2 1724.3,1297.2 1726.8,1257.2 		"/>
		
			<linearGradient id="SVGID_45_" gradientUnits="userSpaceOnUse" x1="1798.1779" y1="375.9554" x2="1831.1179" y2="375.9554" gradientTransform="matrix(0.99 5.000000e-02 6.000000e-02 -1.01 -108.44 1568.6)">
			<stop  offset="0" style="stop-color:#424143"/>
			<stop  offset="1" style="stop-color:#9B9AAC"/>
		</linearGradient>
		<path class="st46" d="M1726.8,1257.2l-2.5,40l-9.1,5.9l-22.3-27.5C1704.7,1270.6,1716.1,1264.4,1726.8,1257.2z"/>
		
			<linearGradient id="SVGID_46_" gradientUnits="userSpaceOnUse" x1="1722.9279" y1="315.7493" x2="1825.0979" y2="315.7493" gradientTransform="matrix(0.99 5.000000e-02 6.000000e-02 -1.01 -108.44 1568.6)">
			<stop  offset="0" style="stop-color:#D4D4DC"/>
			<stop  offset="1" style="stop-color:#9B9AAC"/>
		</linearGradient>
		<polygon class="st47" points="1717.7,1306.3 1715.2,1346.3 1612.1,1370.3 1614.6,1330.3 1703.2,1309.7 		"/>
		
			<linearGradient id="SVGID_47_" gradientUnits="userSpaceOnUse" x1="1695.7878" y1="315.9156" x2="1722.9279" y2="315.9156" gradientTransform="matrix(0.99 5.000000e-02 6.000000e-02 -1.01 -108.44 1568.6)">
			<stop  offset="0" style="stop-color:#9B9AAC"/>
			<stop  offset="1" style="stop-color:#424143"/>
		</linearGradient>
		<polygon class="st48" points="1614.6,1330.3 1612.1,1370.3 1587.1,1339.4 1589.6,1299.4 		"/>
		
			<linearGradient id="SVGID_48_" gradientUnits="userSpaceOnUse" x1="1647.8779" y1="329.0769" x2="1695.7878" y2="329.0769" gradientTransform="matrix(0.99 5.000000e-02 6.000000e-02 -1.01 -108.44 1568.6)">
			<stop  offset="0" style="stop-color:#424143"/>
			<stop  offset="1" style="stop-color:#9B9AAC"/>
		</linearGradient>
		<path class="st49" d="M1589.6,1299.4l-2.5,40c-15.9,1.2-31.8,1.4-47.7,0.6l2.5-40C1557.8,1300.8,1573.7,1300.6,1589.6,1299.4z"/>
		
			<linearGradient id="SVGID_49_" gradientUnits="userSpaceOnUse" x1="1626.0179" y1="311.4485" x2="1647.8779" y2="311.4485" gradientTransform="matrix(0.99 5.000000e-02 6.000000e-02 -1.01 -108.44 1568.6)">
			<stop  offset="0" style="stop-color:#9B9AAC"/>
			<stop  offset="1" style="stop-color:#424143"/>
		</linearGradient>
		<polygon class="st50" points="1541.9,1300 1539.4,1340 1515.7,1371.6 1518.2,1331.6 		"/>
		
			<linearGradient id="SVGID_50_" gradientUnits="userSpaceOnUse" x1="1506.3879" y1="355.4657" x2="1541.8479" y2="355.4657" gradientTransform="matrix(0.99 5.000000e-02 6.000000e-02 -1.01 -108.44 1568.6)">
			<stop  offset="0" style="stop-color:#424143"/>
			<stop  offset="1" style="stop-color:#9B9AAC"/>
		</linearGradient>
		<path class="st51" d="M1437.8,1278.6l-23,30.6c-4.8-2.5-9.4-5.2-13.7-8l2.5-40C1414.4,1268,1425.8,1273.9,1437.8,1278.6z"/>
		
			<linearGradient id="SVGID_51_" gradientUnits="userSpaceOnUse" x1="1519.9779" y1="303.2721" x2="1626.0179" y2="303.2721" gradientTransform="matrix(0.99 5.000000e-02 6.000000e-02 -1.01 -108.44 1568.6)">
			<stop  offset="0" style="stop-color:#D4D4DC"/>
			<stop  offset="1" style="stop-color:#9B9AAC"/>
		</linearGradient>
		<polygon class="st52" points="1518.2,1331.6 1515.7,1371.6 1411.5,1350.1 1414,1310.1 1418.4,1311 1422.3,1311.8 		"/>
		
			<linearGradient id="SVGID_52_" gradientUnits="userSpaceOnUse" x1="1448.3779" y1="350.8567" x2="1506.3879" y2="350.8567" gradientTransform="matrix(0.99 5.000000e-02 6.000000e-02 -1.01 -108.44 1568.6)">
			<stop  offset="0" style="stop-color:#9B9AAC"/>
			<stop  offset="1" style="stop-color:#424143"/>
		</linearGradient>
		<polygon class="st53" points="1403.6,1261.2 1401.1,1301.2 1342.5,1314.8 1345,1274.8 		"/>
		
			<linearGradient id="SVGID_53_" gradientUnits="userSpaceOnUse" x1="1400.5879" y1="368.3906" x2="1448.397" y2="368.3906" gradientTransform="matrix(0.99 5.000000e-02 6.000000e-02 -1.01 -108.44 1568.6)">
			<stop  offset="0" style="stop-color:#D4D4DC"/>
			<stop  offset="1" style="stop-color:#9B9AAC"/>
		</linearGradient>
		<polygon class="st54" points="1345,1274.8 1342.5,1314.8 1298.4,1260.5 1300.9,1220.4 1327.8,1253.6 		"/>
		
			<linearGradient id="SVGID_54_" gradientUnits="userSpaceOnUse" x1="1396.2479" y1="442.4924" x2="1458.1379" y2="442.4924" gradientTransform="matrix(0.99 5.000000e-02 6.000000e-02 -1.01 -108.44 1568.6)">
			<stop  offset="0" style="stop-color:#9B9AAC"/>
			<stop  offset="1" style="stop-color:#424143"/>
		</linearGradient>
		<path class="st55" d="M1359,1206.9l-34.5,8l-27.2-5.6l2.5-40l23.9,4.9l34.4,7.1C1356.5,1189.8,1356.8,1198.5,1359,1206.9z"/>
		
			<linearGradient id="SVGID_55_" gradientUnits="userSpaceOnUse" x1="1500.1678" y1="504.2099" x2="1929.1787" y2="504.2099" gradientTransform="matrix(0.99 5.000000e-02 6.000000e-02 -1.01 -108.44 1568.6)">
			<stop  offset="0" style="stop-color:#D4D4DC"/>
			<stop  offset="1" style="stop-color:#E9EFFF"/>
		</linearGradient>
		<path class="st56" d="M1826.9,1213.8l-25.2,33.5c-116.6-111.1-256.7-141.8-371.3-144.1l-21.4-26.4l103.1-24.1l24.1,29.8
			c6.3-0.5,12.6-0.8,19-1c8.7-0.3,17.4-0.2,26.2,0.1c1.5,0.1,3,0.1,4.4,0.2l6.4-8.5l0.5-0.6l2.2-2.9l13.7-18.2l20.9,4.3l83.2,17.1
			l-22.8,30.3c6.9,2.8,13.7,5.9,20.3,9.3c5.2,2.7,10.2,5.6,15.1,8.8l56.4-13.2l44.1,54.4l-29.4,6.8l-27.5,6.4
			c2.1,8.5,2.2,17.4,0.3,26l30.4,6.3L1826.9,1213.8z"/>
		<path class="st16" d="M1756.8,732.9v0.4c0,0.6,0,1.3-0.1,1.9v0.2c-0.2,3.6-0.8,7.1-1.9,10.5c-0.8,2.5-1.9,5-3.2,7.3
			c-1.8,3.2-4,6.2-6.7,8.7c-1.9,2-4.1,3.7-6.4,5.2c-0.6,0.4-1.2,0.8-1.8,1.2l-19.5,11.3l-636.7,367.6c-32.7,18.9-73.1,18.9-105.8,0
			L348.6,785.9l-30.7-17.7c-2.9-1.7-5.6-3.7-8-6.1l0,0c-4.5-4.4-7.9-9.8-9.9-15.8c-1.2-3.6-1.8-7.3-2-11v-2.5
			c0.2-14,7.7-26.9,19.9-33.9l659.7-380.9c31.1-17.9,69.3-17.9,100.4,0l658.7,380.6C1749,705.5,1756.7,718.6,1756.8,732.9z"/>
		<g>
			
				<linearGradient id="SVGID_56_" gradientUnits="userSpaceOnUse" x1="297.92" y1="947.1564" x2="1756.75" y2="947.1564" gradientTransform="matrix(1 0 0 -1 0 1476)">
				<stop  offset="0" style="stop-color:#E8E8EA"/>
				<stop  offset="0.32" style="stop-color:#E4E4EA"/>
				<stop  offset="0.71" style="stop-color:#E8E8EA"/>
				<stop  offset="1" style="stop-color:#E4E4EA"/>
			</linearGradient>
			<path class="st57" d="M1756.8,732.9v0.4c0,0.6,0,1.3-0.1,1.9v0.2c-0.2,3.6-0.8,7.1-1.9,10.5c-0.8,2.5-1.9,5-3.2,7.3
				c-530-43.7-1276.2-25.6-1453.6-20.6c0.2-14,7.7-26.9,19.9-33.9l659.7-380.9c31.1-17.9,69.3-17.9,100.4,0l658.7,380.6
				C1749,705.5,1756.7,718.6,1756.8,732.9z"/>
		</g>
		<path class="st58" d="M1180.8,722.5c0,5.7-0.8,11.4-2.4,16.9c-0.5,1.9-1.2,3.8-1.9,5.7c-17,42.6-80.8,74.3-156.7,74.3
			c-70.4,0-130.2-27.1-152.2-65c-1.7-3-3.3-6.1-4.5-9.3c-0.8-1.9-1.4-3.8-2-5.7c-1.6-5.5-2.4-11.2-2.5-16.9
			c0-53.5,72.2-96.9,161.1-96.9c13,0,25.9,0.9,38.8,2.8C1128.8,638.9,1180.8,677,1180.8,722.5z"/>
		
			<linearGradient id="SVGID_57_" gradientUnits="userSpaceOnUse" x1="297.92" y1="514.9778" x2="1756.751" y2="514.9778" gradientTransform="matrix(1 0 0 -1 0 1476)">
			<stop  offset="0" style="stop-color:#D4D4DC"/>
			<stop  offset="1" style="stop-color:#9B9AAC"/>
		</linearGradient>
		<path class="st59" d="M1756.8,758.3v0.4c0.1,10.8-4.2,21.1-11.9,28.7c-2.5,2.5-5.2,4.6-8.3,6.3l-19.5,11.3l-636.7,367.6
			c-32.7,18.9-73.1,18.9-105.8,0L348.6,811.2l-30.7-17.7c-2.9-1.7-5.6-3.8-8-6.1c-7.3-7.1-11.5-16.7-11.9-26.8v-25.4
			c0.2,3.7,0.8,7.4,2,11c2,6,5.4,11.4,9.9,15.8l0,0c2.4,2.4,5.1,4.5,8,6.1l30.7,17.7l626,361.4c32.7,18.9,73.1,18.9,105.8,0
			l636.7-367.6l19.5-11.3c0.6-0.4,1.2-0.8,1.8-1.2c7.7-5,13.4-12.5,16.3-21.2c1.1-3.4,1.8-7,1.9-10.5v20.9
			C1756.7,757,1756.8,757.6,1756.8,758.3z"/>
		
			<linearGradient id="SVGID_58_" gradientUnits="userSpaceOnUse" x1="891.9299" y1="1062.2" x2="1149.21" y2="1062.2" gradientTransform="matrix(1 0 0 -1 0 1476)">
			<stop  offset="0" style="stop-color:#F22AFF"/>
			<stop  offset="1" style="stop-color:#6C00E9"/>
		</linearGradient>
		<path class="st60" d="M1120.8,368.2c-0.5,5.1-1.3,10-2.1,14.9c-1.1,7.3-2.4,14.4-3.9,21.2c-3.9,19.6-9.4,38.9-16.5,57.7
			c-2.6,6.7-5.3,13.2-8.2,19.2c-19.9,42-45.7,65.9-70.6,65.9s-50.7-23.9-70.5-65.9c-7.3,3.1-14.4,5.9-21.5,8.4
			c23.3,48.6,55.6,78.2,92,78.2c36.4,0,68.7-29.7,92-78.3c3-6.1,5.7-12.4,8.3-19c8.2-20.6,14.8-44,19.8-69.3
			c1.3-6.9,2.5-14.1,3.6-21.4c1.8-11.9,3.2-24.1,4.1-36.7C1139,351.5,1130.1,359.9,1120.8,368.2z M1149.1,285.3
			c-7.8-8.5-16.1-17-25-25.5c0.8,12.1,1.2,24.6,1.2,37.5s-0.4,25.3-1.2,37.4c8.9-8.5,17.3-17,25-25.5c0.1-4,0.2-7.9,0.2-11.9
			S1149.1,289.3,1149.1,285.3L1149.1,285.3z M924.4,404.3c-1.5-6.8-2.8-13.9-3.8-21.2c-0.8-4.9-1.6-9.9-2.1-15
			c-9.2-8.3-18.1-16.7-26.5-25c0.9,12.6,2.3,24.8,4.1,36.6c1,7.3,2.2,14.5,3.6,21.4c4.5,23.7,11.1,46.9,19.7,69.4
			c7-2.5,14.1-5.4,21.5-8.6C933.8,443.2,928.3,424,924.4,404.3L924.4,404.3z"/>
		
			<linearGradient id="SVGID_59_" gradientUnits="userSpaceOnUse" x1="890.0398" y1="1295.22" x2="1147.38" y2="1295.22" gradientTransform="matrix(1 0 0 -1 0 1476)">
			<stop  offset="0" style="stop-color:#F22AFF"/>
			<stop  offset="1" style="stop-color:#6C00E9"/>
		</linearGradient>
		<path class="st61" d="M1147.4,251.4c-8.4-8.4-17.2-16.8-26.6-25.1c-0.6-5-1.3-10.1-2.1-14.9c-1.1-7.3-2.4-14.3-3.9-21.2
			c-3.9-19.6-9.4-38.9-16.5-57.6c-2.6-6.8-5.3-13.2-8.2-19.2c-19.9-41.9-45.7-65.9-70.6-65.9s-50.7,24-70.5,65.9
			c-2.9,6-5.6,12.4-8.2,19.2c-7,18.7-12.5,38-16.5,57.6c-1.5,6.9-2.8,14-3.8,21.2c-0.8,4.9-1.5,9.9-2.1,14.9
			c-1.5,10.8-2.5,21.9-3.2,33.4c-0.8,12.1-1.2,24.7-1.2,37.5s0.4,25.4,1.2,37.5c-8.8-8.6-17.2-17.1-25-25.5c-0.1-4-0.2-7.9-0.2-12
			s0.1-8.1,0.2-12c0.2-11.5,0.8-22.9,1.7-33.9c0.9-12.6,2.3-24.8,4.1-36.6c1-7.3,2.2-14.4,3.6-21.4c4.5-23.7,11.1-46.9,19.8-69.3
			c2.7-6.6,5.4-13,8.3-19c23.3-48.6,55.6-78.2,92-78.2s68.7,29.7,92,78.3c3,6.1,5.7,12.4,8.3,19c8.7,22.5,15.3,45.7,19.8,69.4
			c1.4,6.9,2.5,14.1,3.6,21.4C1145.1,226.6,1146.5,238.9,1147.4,251.4z"/>
		
			<linearGradient id="SVGID_60_" gradientUnits="userSpaceOnUse" x1="864.84" y1="1270.67" x2="1098.3899" y2="1270.67" gradientTransform="matrix(1 0 0 -1 0 1476)">
			<stop  offset="0" style="stop-color:#4BEA8B"/>
			<stop  offset="1" style="stop-color:#2BD978"/>
		</linearGradient>
		<path class="st62" d="M864.8,279.9c4.6,5.7,9.5,11.5,14.6,17.4c3.4-4,7.1-8,10.8-12c0.2-11.5,0.8-22.9,1.7-33.9
			C882.3,260.9,873.2,270.5,864.8,279.9z M999.5,163.1c-10.9,7.3-21.9,15.2-32.9,23.5c-9.6,7.3-19.2,14.9-28.8,22.9
			c-3.2,2.7-6.5,5.5-9.8,8.3s-6.5,5.7-9.6,8.5c-1.5,10.8-2.5,21.9-3.2,33.4c9.3-9,19.2-18.1,29.7-27.2s21.1-17.7,31.4-25.8
			c9.9-7.7,19.7-14.9,29.4-21.6c4.7-3.2,9.3-6.4,13.9-9.4C1012.8,171.3,1006.2,167.1,999.5,163.1z M1090.2,113.4
			c-24.4,10.5-48,22.8-70.5,36.9c6.6,4.1,13.3,8.4,20,12.9c18.9-11.5,38.5-21.7,58.7-30.6C1095.8,125.8,1093,119.4,1090.2,113.4z"/>
		
			<linearGradient id="SVGID_61_" gradientUnits="userSpaceOnUse" x1="779.9312" y1="1178.7556" x2="1259.3088" y2="1178.7556" gradientTransform="matrix(1 0 0 -1 0 1476)">
			<stop  offset="0" style="stop-color:#4BEA8B"/>
			<stop  offset="1" style="stop-color:#2BD978"/>
		</linearGradient>
		<path class="st63" d="M1241.6,217.6c-2.8,6.1-6,12.2-9.7,18.5c-11,19.6-25.3,40.2-42.6,61.2c-4.7,5.8-9.7,11.6-14.8,17.4
			c-8.5,9.5-17.5,19-27.1,28.4c-8.4,8.4-17.2,16.8-26.6,25.1c-3.1,2.8-6.3,5.6-9.5,8.4s-6.6,5.6-9.8,8.3c-9.6,8-19.2,15.6-28.8,22.9
			c-11,8.3-22,16.2-33,23.5c-6.7,4.5-13.4,8.8-20.1,12.9c-15.6,9.7-31.7,18.6-48.2,26.7c-7.6,3.7-15,7.1-22.3,10.2
			s-14.4,5.9-21.5,8.4c-28.1,10-54,15.3-75.9,15.3s-40.1-5.2-52.9-16.3c-25.6-22.2-24.3-63-1.1-111.7c2.8-6,6.1-12.2,9.7-18.5
			c11-19.6,25.3-40.1,42.6-61.1c4.7,5.8,9.7,11.6,14.9,17.4c-13.1,16-24.9,33-35.3,50.8c-3.7,6.4-7,12.6-9.8,18.6
			c-20.2,41.9-21.5,74.5-3.9,89.8s55.3,14.1,103.6-3.3c7-2.5,14.1-5.4,21.5-8.6c20.2-8.9,39.8-19.1,58.7-30.6
			c6.6-4,13.4-8.2,20.1-12.6c4.6-3,9.2-6.1,13.9-9.4c9.7-6.7,19.5-14,29.4-21.6c10.4-8.1,20.9-16.7,31.4-25.8s20.4-18.2,29.7-27.2
			c8.9-8.5,17.3-17,25-25.5c3.7-4,7.3-8,10.8-11.9c5.2-5.9,10.1-11.7,14.7-17.5c13-16,24.8-33,35.3-50.8c3.7-6.4,7-12.6,9.9-18.6
			c10.8-22.4,16.2-42.1,16.2-58c0-13.8-4.1-24.7-12.3-31.8s-20.8-10.6-36.7-10.6c-18.3,0-41.1,4.7-66.9,14c-2.6-6.6-5.3-12.9-8.3-19
			c56.1-20.2,103.2-21.3,128.8,0.9S1264.8,169,1241.6,217.6z"/>
		
			<linearGradient id="SVGID_62_" gradientUnits="userSpaceOnUse" x1="779.9" y1="1178.6901" x2="1259.3102" y2="1178.6901" gradientTransform="matrix(1 0 0 -1 0 1476)">
			<stop  offset="0" style="stop-color:#D4D4DC"/>
			<stop  offset="1" style="stop-color:#9B9AAC"/>
		</linearGradient>
		<path class="st64" d="M798.8,106c-12.8,11.1-18.9,26.8-18.9,45.8s6.1,41.5,17.8,65.8c2.8,6,6.1,12.2,9.7,18.5
			c6.9-2.5,14.3-4.8,22.1-7.1c-3.7-6.4-7-12.6-9.8-18.6c-20.2-41.8-21.5-74.5-3.9-89.8s55.3-14.1,103.6,3.4c2.7-6.6,5.4-13,8.3-19
			C871.5,84.9,824.5,83.7,798.8,106z M1241.6,377c-2.8-6-6-12.2-9.7-18.5c-11-19.6-25.3-40.1-42.6-61.1c-4.7,5.8-9.7,11.6-14.8,17.4
			c13,16,24.8,33,35.3,50.8c3.7,6.4,7,12.6,9.9,18.6c20.2,41.8,21.5,74.5,3.9,89.8s-55.4,14.1-103.6-3.4c-6.9-2.5-14.1-5.4-21.5-8.5
			c-20.2-8.9-39.8-19.1-58.7-30.6c-6.7,4.5-13.4,8.8-20.1,12.9c22.6,14,46.2,26.4,70.6,36.9c7.2,3.1,14.4,5.9,21.4,8.3
			c28.1,10.1,54,15.4,75.9,15.4s40.1-5.2,52.9-16.3c25.6-22.3,24.3-63.1,1.1-111.8L1241.6,377z"/>
		
			<linearGradient id="SVGID_63_" gradientUnits="userSpaceOnUse" x1="940.91" y1="1270.7" x2="1174.48" y2="1270.7" gradientTransform="matrix(1 0 0 -1 0 1476)">
			<stop  offset="0" style="stop-color:#D4D4DC"/>
			<stop  offset="1" style="stop-color:#9B9AAC"/>
		</linearGradient>
		<path class="st65" d="M1174.5,279.8c-4.6,5.8-9.5,11.6-14.7,17.5c-3.4-4-7-7.9-10.8-12c-7.8-8.5-16.1-17-25-25.5
			c-9.2-9.1-19.1-18.1-29.7-27.2c-10.6-9.1-21.1-17.7-31.5-25.8c-9.8-7.7-19.6-14.9-29.4-21.6c-4.6-3.2-9.2-6.4-13.8-9.4
			c-6.8-4.4-13.4-8.7-20.1-12.6c-18.8-11.5-38.5-21.7-58.7-30.6c2.6-6.8,5.3-13.2,8.2-19.2c24.4,10.5,48,22.9,70.6,36.9
			c6.6,4.1,13.3,8.4,20,12.9c10.9,7.3,22,15.1,33,23.5c9.6,7.3,19.2,14.9,28.8,22.9c3.2,2.7,6.5,5.5,9.8,8.3s6.4,5.6,9.5,8.4
			c9.3,8.3,18.2,16.7,26.6,25.1C1157,260.9,1166,270.4,1174.5,279.8z"/>
		
			<linearGradient id="SVGID_64_" gradientUnits="userSpaceOnUse" x1="807.3799" y1="1145.795" x2="1019.62" y2="1145.795" gradientTransform="matrix(1 0 0 -1 0 1476)">
			<stop  offset="0" style="stop-color:#D4D4DC"/>
			<stop  offset="1" style="stop-color:#9B9AAC"/>
		</linearGradient>
		<path class="st66" d="M1019.6,418.8c-6.7,4.4-13.4,8.7-20.1,12.6c-10.9-7.3-21.9-15.2-32.9-23.5c-9.6-7.3-19.2-14.9-28.8-22.9
			c-3.2-2.7-6.5-5.5-9.8-8.3s-6.5-5.6-9.6-8.5c-9.2-8.3-18.1-16.7-26.5-25c-9.6-9.5-18.6-19-27.1-28.5c-5.2-5.8-10.2-11.6-14.9-17.4
			c-17.2-21-31.5-41.5-42.6-61.2c6.9-2.5,14.3-4.8,22.1-7.1c10.5,17.8,22.3,34.9,35.3,50.9c4.6,5.7,9.5,11.5,14.6,17.4
			c3.5,4,7.1,7.9,10.8,12c7.7,8.4,16.1,16.9,25,25.5c9.3,9,19.2,18.1,29.7,27.2s21.1,17.7,31.5,25.8c9.8,7.7,19.6,14.9,29.4,21.6
			C1010.4,412.6,1015,415.7,1019.6,418.8z"/>
		
			<linearGradient id="SVGID_65_" gradientUnits="userSpaceOnUse" x1="838.13" y1="908.21" x2="891.55" y2="908.21" gradientTransform="matrix(1 0 0 -1 0 1476)">
			<stop  offset="0" style="stop-color:#D4D4DC"/>
			<stop  offset="1" style="stop-color:#9B9AAC"/>
		</linearGradient>
		<circle class="st67" cx="864.8" cy="567.8" r="26.7"/>
		
			<linearGradient id="SVGID_66_" gradientUnits="userSpaceOnUse" x1="1147.77" y1="1449.29" x2="1201.1899" y2="1449.29" gradientTransform="matrix(1 0 0 -1 0 1476)">
			<stop  offset="0" style="stop-color:#F22AFF"/>
			<stop  offset="1" style="stop-color:#6C00E9"/>
		</linearGradient>
		<circle class="st68" cx="1174.5" cy="26.7" r="26.7"/>
		
			<linearGradient id="SVGID_67_" gradientUnits="userSpaceOnUse" x1="356.58" y1="396.175" x2="490.91" y2="396.175" gradientTransform="matrix(1 0 0 -1 0 1476)">
			<stop  offset="0" style="stop-color:#E9EFFF"/>
			<stop  offset="1" style="stop-color:#D4D4DC"/>
		</linearGradient>
		<polygon class="st69" points="359.5,1295.7 356.6,1290.6 431.1,1247.7 431.1,896.7 487.9,863.9 490.9,869.1 437.1,900.2 
			437.1,1251.1 		"/>
		
			<linearGradient id="SVGID_68_" gradientUnits="userSpaceOnUse" x1="378.79" y1="383.81" x2="511.52" y2="383.81" gradientTransform="matrix(1 0 0 -1 0 1476)">
			<stop  offset="0" style="stop-color:#E9EFFF"/>
			<stop  offset="1" style="stop-color:#D4D4DC"/>
		</linearGradient>
		<polygon class="st70" points="381.9,1308.6 378.8,1303.4 451.9,1259.6 451.9,908.7 508.5,875.8 511.5,881 457.8,912.1 457.8,1263 
					"/>
		<path class="st71" d="M1178.4,739.4c-0.5,1.9-1.2,3.8-1.9,5.7c-17,42.6-80.8,74.3-156.7,74.3c-70.4,0-130.2-27.1-152.2-65
			c-1.7-3-3.3-6.1-4.5-9.3c-0.8-1.9-1.4-3.8-2-5.7c13.3-45.4,79.3-79.9,158.7-79.9c13,0,25.9,0.9,38.8,2.8
			C1119.8,671.4,1167.3,701.6,1178.4,739.4z"/>
		<g>
			
				<linearGradient id="SVGID_69_" gradientUnits="userSpaceOnUse" x1="-3987.7432" y1="762.81" x2="-3987.6531" y2="527.12" gradientTransform="matrix(-1 0 0 -1 -3179.52 1476)">
				<stop  offset="0" style="stop-color:#E9EFFF"/>
				<stop  offset="9.000000e-02" style="stop-color:#D4D4DC"/>
				<stop  offset="0.49" style="stop-color:#AAAABA"/>
				<stop  offset="0.81" style="stop-color:#D4D4DC"/>
				<stop  offset="1" style="stop-color:#D4D4DC"/>
			</linearGradient>
			<polygon class="st72" points="826.3,690.4 790.2,669.5 790.1,961.5 826.2,982.3 			"/>
		</g>
		<g>
			
				<linearGradient id="SVGID_70_" gradientUnits="userSpaceOnUse" x1="-3914.9858" y1="857.43" x2="-3916.156" y2="550.61" gradientTransform="matrix(-1 0 0 -1 -3179.52 1476)">
				<stop  offset="0" style="stop-color:#E9EFFF"/>
				<stop  offset="9.000000e-02" style="stop-color:#D4D4DC"/>
				<stop  offset="0.49" style="stop-color:#AAAABA"/>
				<stop  offset="0.81" style="stop-color:#D4D4DC"/>
				<stop  offset="1" style="stop-color:#D4D4DC"/>
			</linearGradient>
			<polygon class="st73" points="754,563.3 717.9,543.1 717.8,919.8 754,940.7 			"/>
		</g>
		<g>
			
				<linearGradient id="SVGID_71_" gradientUnits="userSpaceOnUse" x1="-3845.3735" y1="726.1899" x2="-3839.7634" y2="584.2999" gradientTransform="matrix(-1 0 0 -1 -3179.52 1476)">
				<stop  offset="0" style="stop-color:#E9EFFF"/>
				<stop  offset="9.000000e-02" style="stop-color:#D4D4DC"/>
				<stop  offset="0.49" style="stop-color:#AAAABA"/>
				<stop  offset="0.81" style="stop-color:#D4D4DC"/>
				<stop  offset="1" style="stop-color:#D4D4DC"/>
			</linearGradient>
			<polygon class="st74" points="681.8,732 645.6,711.2 645.6,878 681.7,898.9 			"/>
		</g>
		<g>
			
				<linearGradient id="SVGID_72_" gradientUnits="userSpaceOnUse" x1="-3772.061" y1="709.0699" x2="-3769.0911" y2="634.28" gradientTransform="matrix(-1 0 0 -1 -3179.52 1476)">
				<stop  offset="0" style="stop-color:#E9EFFF"/>
				<stop  offset="9.000000e-02" style="stop-color:#D4D4DC"/>
				<stop  offset="0.49" style="stop-color:#AAAABA"/>
				<stop  offset="0.81" style="stop-color:#D4D4DC"/>
				<stop  offset="1" style="stop-color:#D4D4DC"/>
			</linearGradient>
			<polygon class="st75" points="609.5,752.9 573.4,732.1 573.4,836.4 609.5,857.2 			"/>
		</g>
		
			<linearGradient id="SVGID_73_" gradientUnits="userSpaceOnUse" x1="1020.5998" y1="459.155" x2="1196.0002" y2="459.155" gradientTransform="matrix(1 0 0 -1 0 1476)">
			<stop  offset="0" style="stop-color:#D4D4DC"/>
			<stop  offset="1" style="stop-color:#9B9AAC"/>
		</linearGradient>
		<path class="st76" d="M1196,978.2v24.6c0,1.6-0.1,3.2-0.4,4.7c-4,26.9-41.6,48-87.3,48s-83.4-21.1-87.3-48
			c-0.3-1.6-0.4-3.1-0.4-4.7v-24.6c0,1.1,0.1,2.1,0.2,3.2c0.1,1,0.2,2.1,0.5,3.1c0.1,0.5,0.2,1,0.3,1.5c0.2,1,0.5,2,0.9,3l0,0
			c0.2,0.5,0.3,1,0.5,1.5c0.3,0.7,0.6,1.5,1,2.2c0.4,0.7,0.7,1.4,1.1,2.1c0.1,0.2,0.2,0.3,0.3,0.5c0.2,0.4,0.5,0.8,0.7,1.2
			s0.5,0.8,0.8,1.2c0.6,0.9,1.2,1.7,1.8,2.6c1.8,2.4,3.9,4.6,6.1,6.6c0.5,0.5,1,1,1.6,1.4s1.2,1,1.8,1.5c0.4,0.3,0.8,0.6,1.2,0.9
			l0.9,0.7c0.4,0.3,0.8,0.6,1.2,0.9c0.6,0.5,1.3,0.9,1.9,1.3l1.5,0.9c0.6,0.3,1.1,0.7,1.7,1c0,0,0,0,0.1,0c0.7,0.4,1.3,0.8,2,1.1
			s1.5,0.8,2.2,1.2s1.4,0.7,2.1,1.1c0.4,0.2,0.8,0.4,1.1,0.5c0.9,0.4,1.8,0.8,2.7,1.2c1.8,0.8,3.7,1.5,5.6,2.3s3.8,1.3,5.8,1.9
			c0.8,0.3,1.6,0.5,2.5,0.7c1.3,0.4,2.7,0.8,4,1.1c0.9,0.2,1.9,0.4,2.8,0.7s1.7,0.4,2.5,0.5l1.7,0.3c0.3,0.1,0.7,0.1,1,0.2
			c0.8,0.2,1.7,0.3,2.6,0.4c0.3,0.1,0.6,0.1,0.9,0.1c0.7,0.1,1.4,0.2,2.1,0.3s1.3,0.2,1.9,0.3c0.3,0.1,0.7,0.1,1,0.1
			c0.9,0.1,1.8,0.2,2.7,0.3c1.4,0.2,2.9,0.3,4.3,0.3c0.9,0.1,1.9,0.1,2.8,0.2s2.2,0.1,3.3,0.1c1.3,0,2.5,0.1,3.8,0.1h0.1
			c1.3,0,2.6,0,3.8-0.1c1.1,0,2.2-0.1,3.3-0.1c0.8,0,1.6-0.1,2.4-0.1c1.7-0.1,3.3-0.2,4.9-0.4c0.7-0.1,1.4-0.1,2.1-0.2
			c0.5-0.1,1.1-0.1,1.6-0.2s1.1-0.1,1.6-0.2c0.9-0.1,1.7-0.2,2.6-0.4c0.1,0,0.2,0,0.2,0c1.1-0.2,2.1-0.3,3.1-0.5l0.8-0.1l1.9-0.4
			c0.8-0.2,1.5-0.3,2.2-0.5c0.9-0.2,1.8-0.4,2.8-0.7c0.6-0.1,1.2-0.3,1.8-0.5c0.8-0.2,1.5-0.4,2.2-0.6c0.9-0.3,1.8-0.5,2.7-0.8
			c2-0.6,3.9-1.3,5.8-2s3.8-1.5,5.6-2.3c0.9-0.4,1.8-0.8,2.7-1.2c0.5-0.2,1-0.5,1.5-0.7s1.2-0.6,1.8-0.9s1.4-0.7,2-1.1l1.8-1.1
			c0.2-0.1,0.4-0.3,0.7-0.4c0.5-0.3,1-0.6,1.5-0.9c0.7-0.5,1.4-0.9,2.1-1.4c0.5-0.3,1-0.7,1.4-1c0.7-0.5,1.3-0.9,1.9-1.4
			c0.4-0.3,0.8-0.6,1.2-0.9c0.6-0.4,1.2-0.9,1.7-1.4s1.4-1.2,2-1.8s1.3-1.2,1.9-1.8s1.2-1.3,1.8-1.9c1.8-2,3.4-4.1,4.8-6.4
			c0.2-0.4,0.5-0.8,0.7-1.2c0.1-0.2,0.2-0.3,0.3-0.5c0.4-0.7,0.8-1.4,1.1-2.1s0.7-1.4,1-2.2c0.2-0.5,0.4-1,0.6-1.5s0.3-1,0.5-1.5
			c0.2-0.5,0.3-0.9,0.4-1.4l0,0c0.1-0.5,0.3-1.1,0.3-1.6C1195.8,982.4,1196,980.3,1196,978.2z"/>
		<path class="st16" d="M1195,986c-0.1,0.5-0.3,1-0.4,1.5c-0.1,0.5-0.3,1-0.5,1.5s-0.4,1-0.6,1.5c-0.3,0.7-0.6,1.4-0.9,2.2
			s-0.7,1.4-1.1,2.1s-0.6,1.1-1,1.7c-1.4,2.3-3,4.4-4.8,6.4c-0.6,0.7-1.2,1.3-1.8,1.9s-1.2,1.2-1.9,1.8s-1.3,1.2-2,1.8
			s-1.1,1-1.7,1.4c-0.4,0.3-0.8,0.6-1.2,0.9c-0.6,0.5-1.3,1-1.9,1.4l-1.4,1c-0.7,0.5-1.4,0.9-2.1,1.4c-0.5,0.3-1,0.6-1.5,0.9
			c-0.2,0.1-0.4,0.3-0.7,0.4l-1.8,1.1c-0.7,0.4-1.3,0.7-2,1.1s-1.2,0.6-1.8,0.9s-1,0.5-1.5,0.7c-0.9,0.4-1.8,0.8-2.7,1.2
			c-1.8,0.8-3.7,1.5-5.6,2.3s-3.8,1.4-5.8,1.9c-0.9,0.3-1.8,0.5-2.7,0.8c-0.8,0.2-1.5,0.4-2.2,0.6c-0.6,0.2-1.2,0.3-1.8,0.5
			c-0.9,0.2-1.9,0.5-2.8,0.7c-0.8,0.2-1.5,0.3-2.2,0.5s-1.3,0.3-1.9,0.4l-0.8,0.1c-1,0.2-2.1,0.4-3.1,0.5c-0.1,0-0.2,0-0.2,0
			c-0.8,0.1-1.7,0.3-2.6,0.4c-0.5,0.1-1.1,0.2-1.6,0.2s-1,0.1-1.6,0.2c-0.7,0.1-1.4,0.2-2.1,0.2c-1.6,0.2-3.3,0.3-4.9,0.4
			c-0.8,0.1-1.6,0.1-2.4,0.1c-1.1,0.1-2.2,0.1-3.3,0.1c-1.3,0-2.6,0.1-3.8,0.1h-0.1c-1.3,0-2.6,0-3.8-0.1c-1.1,0-2.2-0.1-3.3-0.1
			s-1.9-0.1-2.8-0.2c-1.5-0.1-2.9-0.2-4.3-0.3c-0.9-0.1-1.8-0.2-2.7-0.3c-0.3,0-0.7-0.1-1-0.1c-0.7-0.1-1.3-0.2-1.9-0.3
			s-1.4-0.2-2.1-0.3c-0.3,0-0.6-0.1-0.9-0.1c-0.9-0.1-1.7-0.3-2.6-0.4c-0.3,0-0.7-0.1-1-0.2c-0.6-0.1-1.2-0.2-1.7-0.3
			c-0.8-0.2-1.7-0.3-2.5-0.5s-1.9-0.4-2.8-0.7c-1.4-0.3-2.7-0.7-4-1.1c-0.8-0.2-1.7-0.5-2.5-0.7c-2-0.6-3.9-1.3-5.8-2
			s-3.8-1.5-5.6-2.3c-0.9-0.4-1.8-0.8-2.7-1.2c-0.4-0.2-0.8-0.4-1.1-0.5c-0.7-0.3-1.4-0.7-2.1-1.1s-1.5-0.8-2.2-1.2s-1.3-0.8-2-1.1
			c0,0,0,0-0.1,0c-0.6-0.3-1.2-0.7-1.7-1s-1-0.6-1.5-0.9c-0.7-0.4-1.3-0.9-1.9-1.3c-0.4-0.3-0.8-0.6-1.2-0.9l-0.9-0.7
			c-0.4-0.3-0.8-0.6-1.2-0.9c-0.6-0.5-1.2-1-1.8-1.5s-1.1-0.9-1.6-1.4c-2.2-2-4.3-4.2-6.1-6.6c-0.7-0.8-1.3-1.7-1.8-2.6
			c-0.3-0.4-0.6-0.8-0.8-1.2s-0.7-1.1-1-1.7s-0.8-1.4-1.1-2.1s-0.7-1.4-0.9-2.2c-0.2-0.5-0.4-1-0.6-1.5l0,0c-0.3-1-0.7-2-0.9-3
			c-0.1-0.5-0.2-1-0.3-1.5c-0.2-1-0.3-2.1-0.5-3.1s-0.2-2.1-0.2-3.2l0,0c0-28.8,38.6-52.3,86.4-52.7l-9.2,25.7
			c3.7-0.6,7.5-0.8,11.3-0.8c25.5,0,46.3,12.5,46.3,27.8c0,2.2-0.4,4.4-1.3,6.5c-0.2,0.5-0.4,0.9-0.6,1.3L1195,986z"/>
		
			<linearGradient id="SVGID_74_" gradientUnits="userSpaceOnUse" x1="1062.7999" y1="497.81" x2="1155.3199" y2="497.81" gradientTransform="matrix(1 0 0 -1 0 1476)">
			<stop  offset="0" style="stop-color:#E9EFFF"/>
			<stop  offset="1" style="stop-color:#D4D4DC"/>
		</linearGradient>
		<path class="st77" d="M1155.3,978.2c0,2.2-0.4,4.4-1.3,6.5c-0.2,0.5-0.4,0.9-0.6,1.3c-5.6,11.5-23.4,20-44.4,20
			c-21.8,0-40.1-9.1-45-21.3c-0.8-2.1-1.3-4.3-1.3-6.5c0-13,14.9-24,35-27c3.7-0.6,7.5-0.8,11.3-0.8
			C1134.6,950.4,1155.3,962.8,1155.3,978.2z"/>
		
			<linearGradient id="SVGID_75_" gradientUnits="userSpaceOnUse" x1="1243.4401" y1="588.505" x2="1418.8199" y2="588.505" gradientTransform="matrix(1 0 0 -1 0 1476)">
			<stop  offset="0" style="stop-color:#D4D4DC"/>
			<stop  offset="1" style="stop-color:#9B9AAC"/>
		</linearGradient>
		<path class="st78" d="M1418.8,848.8v24.6c0,1.6-0.1,3.2-0.3,4.7c-4,26.9-41.6,48-87.3,48s-83.4-21.1-87.3-48
			c-0.2-1.6-0.4-3.1-0.3-4.7v-24.6c0,1.6,0.1,3.2,0.3,4.7c0,0.1,0,0.2,0,0.3c0.2,1.5,0.6,2.9,1,4.3l0,0c0.3,1,0.7,2,1,3l0,0
			c0,0.1,0.1,0.2,0.1,0.2c0.3,0.7,0.5,1.3,0.8,1.9s0.7,1.4,1.1,2.1c0.1,0.2,0.2,0.3,0.3,0.5c0.2,0.4,0.5,0.8,0.7,1.2
			c2.4,3.9,5.4,7.4,8.8,10.5c0.5,0.5,1,0.9,1.5,1.4c0.1,0.1,0.2,0.2,0.3,0.2c0.6,0.5,1.2,1,1.8,1.5c0.1,0.1,0.2,0.1,0.2,0.2
			c0.6,0.5,1.2,0.9,1.8,1.4c1,0.7,2,1.4,3,2.1c0.5,0.3,1,0.7,1.6,1s1.3,0.8,2,1.2c0.5,0.3,1,0.6,1.6,0.9c0.8,0.4,1.5,0.8,2.3,1.3
			c0.6,0.3,1.2,0.6,1.8,0.9c0.4,0.2,0.9,0.4,1.3,0.6c0.9,0.4,1.8,0.8,2.7,1.2c1.1,0.5,2.3,1,3.5,1.4c1.4,0.6,2.9,1.1,4.3,1.6
			c3.7,1.3,7.5,2.4,11.4,3.3c0.8,0.2,1.6,0.4,2.4,0.5c0.4,0.1,0.8,0.2,1.2,0.3c0.7,0.2,1.4,0.3,2.1,0.4l1,0.2
			c0.9,0.2,1.9,0.3,2.9,0.5c0.2,0,0.3,0.1,0.5,0.1c0.8,0.1,1.6,0.3,2.4,0.3c0.6,0.1,1.2,0.2,1.8,0.2c0.4,0.1,0.8,0.1,1.3,0.2
			c0.8,0.1,1.5,0.2,2.3,0.2c1.6,0.2,3.2,0.3,4.7,0.4c0.8,0.1,1.7,0.1,2.6,0.2c1.1,0.1,2.2,0.1,3.3,0.1c1.3,0,2.6,0.1,3.9,0.1
			s2.6,0,3.9-0.1c1.1,0,2.2,0,3.3-0.1c0.9,0,1.7-0.1,2.6-0.2c1.6-0.1,3.1-0.2,4.6-0.4c0.8-0.1,1.6-0.2,2.3-0.3
			c0.5,0,0.9-0.1,1.4-0.2s1.1-0.1,1.7-0.2c0.8-0.1,1.5-0.2,2.3-0.3c0.2,0,0.5-0.1,0.7-0.1c1-0.1,1.9-0.3,2.9-0.5
			c1.5-0.3,2.9-0.5,4.3-0.8c0.9-0.2,1.8-0.4,2.7-0.6c0.2,0,0.3-0.1,0.5-0.1c0.7-0.2,1.4-0.3,2-0.5c1.5-0.4,3-0.8,4.5-1.3
			c1-0.3,2.1-0.7,3.1-1c3-1,6-2.1,8.8-3.4c0.9-0.4,1.8-0.8,2.7-1.2c0.4-0.2,0.9-0.4,1.3-0.6c0.6-0.3,1.2-0.6,1.8-0.9
			c0.8-0.4,1.6-0.8,2.3-1.3c0.5-0.3,1-0.6,1.6-0.9c0.7-0.4,1.3-0.8,2-1.2s1.2-0.7,1.7-1.1c0.2-0.1,0.3-0.2,0.5-0.3
			c0.6-0.4,1.2-0.8,1.8-1.2l0.5-0.3c0.7-0.5,1.3-0.9,1.9-1.4c0.1-0.1,0.1-0.1,0.2-0.2c0.6-0.5,1.2-1,1.8-1.5l0.3-0.2
			c0.7-0.5,1.3-1.1,1.9-1.7s1.3-1.2,1.9-1.8s1.2-1.3,1.8-1.9c0,0,0.1-0.1,0.1-0.1c1.1-1.2,2.1-2.5,3-3.8c0.5-0.7,1-1.4,1.4-2
			c0.3-0.5,0.7-1.1,1-1.6c0.5-0.8,0.9-1.7,1.3-2.6c0.3-0.7,0.7-1.4,0.9-2.2c0.4-1,0.8-2,1-3s0.5-1.8,0.7-2.8
			C1418.5,853.2,1418.8,851,1418.8,848.8z"/>
		<path class="st16" d="M1418.8,848.8c0,2.2-0.2,4.4-0.7,6.5c-0.2,0.9-0.4,1.8-0.7,2.8s-0.7,2-1,3c-0.3,0.7-0.6,1.4-0.9,2.2
			c-0.7,1.4-1.5,2.8-2.3,4.2c-0.4,0.7-0.9,1.4-1.4,2c-0.9,1.3-1.9,2.6-3,3.8c0,0-0.1,0.1-0.1,0.1c-0.6,0.7-1.2,1.3-1.8,1.9
			s-1.2,1.2-1.9,1.8s-1.3,1.2-1.9,1.7l-0.3,0.2c-0.6,0.5-1.2,1-1.8,1.5c-0.1,0.1-0.2,0.1-0.2,0.2c-0.6,0.5-1.3,1-1.9,1.4l-0.5,0.3
			l-1.8,1.2c-0.2,0.1-0.3,0.2-0.5,0.3c-0.6,0.4-1.1,0.8-1.7,1.1s-1.3,0.8-2,1.2c-0.5,0.3-1,0.6-1.6,0.9c-0.8,0.4-1.5,0.8-2.3,1.3
			c-0.6,0.3-1.2,0.6-1.8,0.9c-0.4,0.2-0.9,0.4-1.3,0.6c-0.9,0.4-1.8,0.8-2.7,1.2c-2.8,1.2-5.7,2.4-8.8,3.4c-1,0.3-2,0.7-3.1,1
			c-1.5,0.5-3,0.9-4.5,1.3c-0.7,0.2-1.4,0.4-2,0.5c-0.2,0.1-0.3,0.1-0.5,0.1c-0.9,0.2-1.8,0.4-2.7,0.6c-1.4,0.3-2.8,0.6-4.3,0.8
			c-0.9,0.2-1.9,0.3-2.9,0.5c-0.2,0.1-0.5,0.1-0.7,0.1c-0.8,0.1-1.5,0.2-2.3,0.3c-0.6,0.1-1.1,0.2-1.7,0.2s-0.9,0.1-1.4,0.2
			c-0.8,0.1-1.5,0.2-2.3,0.3c-1.5,0.2-3.1,0.3-4.6,0.4c-0.8,0.1-1.7,0.1-2.6,0.2c-1.1,0.1-2.2,0.1-3.3,0.1c-1.3,0-2.6,0.1-3.9,0.1
			s-2.6,0-3.9-0.1c-1.1,0-2.2,0-3.3-0.1c-0.9,0-1.7-0.1-2.6-0.2c-1.6-0.1-3.2-0.2-4.7-0.4c-0.8-0.1-1.5-0.1-2.3-0.2
			c-0.4,0-0.8-0.1-1.3-0.2c-0.6-0.1-1.2-0.1-1.8-0.2c-0.8-0.1-1.6-0.2-2.4-0.3c-0.2,0-0.3,0-0.5-0.1c-1-0.1-1.9-0.3-2.9-0.5l-1-0.2
			c-0.7-0.1-1.4-0.3-2.1-0.4c-0.4-0.1-0.8-0.2-1.2-0.3l-2.4-0.5c-4-0.9-7.8-2.1-11.4-3.3c-1.5-0.5-2.9-1-4.3-1.6
			c-1.2-0.5-2.3-0.9-3.5-1.4c-0.9-0.4-1.8-0.8-2.7-1.2c-0.4-0.2-0.9-0.4-1.3-0.6c-0.6-0.3-1.2-0.6-1.8-0.9c-0.8-0.4-1.6-0.8-2.3-1.3
			c-0.5-0.3-1-0.6-1.6-0.9c-0.7-0.4-1.3-0.8-2-1.2s-1.1-0.7-1.6-1c-1.1-0.7-2.1-1.4-3-2.1c-0.6-0.5-1.2-0.9-1.8-1.4
			c-0.1-0.1-0.1-0.1-0.2-0.2c-0.6-0.5-1.3-1-1.8-1.5c-0.1-0.1-0.2-0.2-0.3-0.2c-0.5-0.5-1-0.9-1.5-1.4c-3.4-3.1-6.4-6.6-8.8-10.5
			c-0.3-0.5-0.7-1.1-1-1.7s-0.8-1.4-1.1-2.1s-0.6-1.3-0.8-1.9c0-0.1-0.1-0.2-0.1-0.2l0,0c-0.4-1-0.8-2-1-3l0,0
			c-0.4-1.4-0.8-2.9-1-4.3l44.4,4.2c-0.5-0.9-0.9-1.7-1.3-2.7c-0.8-2.1-1.3-4.3-1.3-6.5c0-15.4,20.7-27.8,46.3-27.8
			c3.7,0,7.4,0.3,11.1,0.8v-25.2C1385.8,800.1,1418.8,822.1,1418.8,848.8z"/>
		
			<linearGradient id="SVGID_76_" gradientUnits="userSpaceOnUse" x1="1285.6698" y1="627.18" x2="1378.1899" y2="627.18" gradientTransform="matrix(1 0 0 -1 0 1476)">
			<stop  offset="0" style="stop-color:#D4D4DC"/>
			<stop  offset="1" style="stop-color:#9B9AAC"/>
		</linearGradient>
		<path class="st79" d="M1378.2,848.8c0,2.2-0.4,4.4-1.3,6.5c-4.9,12.2-23.2,21.3-45,21.3c-20.2,0-37.4-7.8-43.7-18.7
			c-0.5-0.9-0.9-1.7-1.3-2.7c-0.8-2.1-1.3-4.3-1.3-6.5c0-15.4,20.7-27.8,46.3-27.8c3.7,0,7.4,0.3,11.1,0.8
			C1363.2,824.8,1378.2,835.8,1378.2,848.8z"/>
		
			<linearGradient id="SVGID_77_" gradientUnits="userSpaceOnUse" x1="1451.1001" y1="711.435" x2="1626.4801" y2="711.435" gradientTransform="matrix(1 0 0 -1 0 1476)">
			<stop  offset="0" style="stop-color:#D4D4DC"/>
			<stop  offset="1" style="stop-color:#9B9AAC"/>
		</linearGradient>
		<path class="st80" d="M1626.5,725.9v24.6c0,1.6-0.1,3.2-0.3,4.7c-4,26.9-41.6,48-87.3,48c-23.1,0-44.1-5.3-59.8-14.1
			c-15.4-8.6-25.6-20.5-27.6-33.9c-0.2-1.6-0.4-3.1-0.3-4.7v-24.6c0,1.1,0.1,2.1,0.2,3.2c0.1,1,0.2,2.1,0.4,3.1
			c0.4,2.1,1,4.1,1.8,6.1c0,0.1,0.1,0.2,0.1,0.2c0.3,0.7,0.5,1.3,0.8,1.9s0.7,1.4,1.1,2.1c0.1,0.2,0.2,0.3,0.3,0.5s0.3,0.5,0.4,0.8
			c0.2,0.4,0.5,0.8,0.7,1.2c1.8,2.7,3.8,5.3,6.1,7.6c0.6,0.6,1.2,1.2,1.9,1.8s1.2,1.1,1.9,1.7s1.2,1,1.8,1.5
			c0.4,0.3,0.8,0.7,1.2,0.9c0.6,0.5,1.2,0.9,1.9,1.4s1.3,0.9,2,1.4s1.1,0.8,1.7,1.1s1.1,0.7,1.7,1.1s1.5,0.9,2.2,1.3l2,1.1
			c0.6,0.3,1.2,0.6,1.8,0.9s1,0.5,1.5,0.7c0.9,0.4,1.8,0.8,2.7,1.2c1.3,0.6,2.6,1.1,4,1.6l1.7,0.7c1.9,0.7,3.8,1.3,5.8,2
			c0.9,0.3,1.8,0.5,2.7,0.8c1.3,0.4,2.6,0.7,3.8,1c0.9,0.2,1.8,0.4,2.7,0.6c0,0,0.1,0,0.1,0c0.8,0.2,1.7,0.4,2.6,0.5
			s1.8,0.4,2.7,0.5s1.7,0.3,2.6,0.5c0.3,0.1,0.6,0.1,0.9,0.1c0.7,0.1,1.4,0.2,2.1,0.3s1.3,0.2,1.9,0.3c0.3,0.1,0.7,0.1,1.1,0.1
			c0.8,0.1,1.7,0.2,2.5,0.3c1.5,0.2,2.9,0.3,4.4,0.3c0.9,0.1,1.9,0.1,2.8,0.2s2.2,0.1,3.3,0.1c1.3,0,2.5,0.1,3.8,0.1h0.1
			c1.3,0,2.6,0,3.8-0.1c1.1,0,2.2-0.1,3.3-0.1c0.8,0,1.6-0.1,2.4-0.1c1.7-0.1,3.3-0.2,4.9-0.4c0.7-0.1,1.5-0.1,2.2-0.2
			c1-0.1,2-0.2,3-0.4s1.7-0.2,2.6-0.4c0.1,0,0.3,0,0.4-0.1c1.1-0.2,2.1-0.3,3.1-0.5c0.2,0,0.3-0.1,0.5-0.1c0.7-0.1,1.4-0.3,2.1-0.4
			s1.6-0.3,2.4-0.5s1.8-0.4,2.6-0.6l2.1-0.5c0.8-0.2,1.7-0.5,2.5-0.7s1.5-0.4,2.2-0.7c1-0.3,2-0.6,3-1c2.9-1,5.8-2.1,8.5-3.3
			c0.9-0.4,1.8-0.8,2.7-1.2c0.3-0.2,0.7-0.3,1-0.5c1.6-0.8,3-1.5,4.5-2.3c0.5-0.3,1-0.5,1.5-0.8c0.7-0.4,1.3-0.8,1.9-1.2
			c0.7-0.4,1.4-0.8,2-1.3c0.8-0.5,1.6-1.1,2.3-1.6s1.4-1,2.1-1.6c0.1-0.1,0.2-0.1,0.2-0.2c0.7-0.5,1.4-1.1,2-1.7s1.4-1.2,2-1.8
			s1.3-1.2,1.9-1.8s1.2-1.3,1.8-1.9c0,0,0.1-0.1,0.1-0.1c1-1.2,2-2.4,2.9-3.7c0.1-0.2,0.3-0.4,0.4-0.6c0.4-0.5,0.8-1.1,1.1-1.6
			l0.1-0.2c0.3-0.5,0.6-0.9,0.9-1.4c0.1-0.2,0.2-0.3,0.3-0.5c0.3-0.6,0.7-1.2,1-1.9c0.1-0.1,0.1-0.3,0.2-0.4
			c0.3-0.6,0.6-1.2,0.8-1.8c0-0.1,0.1-0.2,0.1-0.2c0.2-0.5,0.4-1,0.6-1.5c0.5-1.4,0.9-2.8,1.2-4.3
			C1626.3,730.2,1626.5,728.1,1626.5,725.9z"/>
		<path class="st16" d="M1626.5,725.9c0,2.2-0.2,4.4-0.7,6.5c-0.3,1.4-0.7,2.9-1.2,4.3c-0.2,0.5-0.3,1-0.6,1.5
			c0,0.1-0.1,0.2-0.1,0.2c-0.2,0.6-0.5,1.2-0.8,1.8c0,0.1-0.1,0.3-0.2,0.4c-0.3,0.6-0.6,1.3-1,1.9s-0.7,1.3-1.1,1.9l-35.1-17
			c-0.2,1.7-0.6,3.4-1.2,5c-4.9,12.2-23.2,21.3-45,21.3c-12.7,0-24.1-3.1-32.5-8l-15.8,24.5c-1.4-0.5-2.7-1.1-4-1.6
			c-0.9-0.4-1.8-0.8-2.7-1.2c-0.5-0.2-1-0.5-1.5-0.7s-1.2-0.6-1.8-0.9l-2-1.1c-0.8-0.4-1.5-0.8-2.2-1.3s-1.2-0.7-1.7-1.1
			s-1.2-0.7-1.7-1.1s-1.3-0.9-2-1.4s-1.3-0.9-1.9-1.4c-0.4-0.3-0.8-0.6-1.2-0.9c-0.6-0.5-1.2-1-1.8-1.5s-1.3-1.1-1.9-1.7
			s-1.3-1.2-1.9-1.8c-2.3-2.3-4.3-4.8-6.1-7.6c-0.3-0.4-0.5-0.8-0.7-1.2s-0.5-0.8-0.7-1.2c-0.4-0.7-0.8-1.4-1.1-2.1
			s-0.6-1.3-0.8-1.9c0-0.1-0.1-0.2-0.1-0.2c-0.8-2-1.4-4-1.8-6.1c-0.2-1-0.3-2-0.4-3.1s-0.2-2.1-0.2-3.2c0-29.1,39.3-52.7,87.7-52.7
			S1626.5,696.8,1626.5,725.9z"/>
		
			<linearGradient id="SVGID_78_" gradientUnits="userSpaceOnUse" x1="1493.33" y1="750.09" x2="1585.87" y2="750.09" gradientTransform="matrix(1 0 0 -1 0 1476)">
			<stop  offset="0" style="stop-color:#D4D4DC"/>
			<stop  offset="1" style="stop-color:#9B9AAC"/>
		</linearGradient>
		<path class="st81" d="M1585.9,725.9c0,0.5,0,1-0.1,1.5c-0.2,1.7-0.6,3.4-1.2,5c-4.9,12.2-23.2,21.3-45,21.3
			c-12.7,0-24.1-3.1-32.5-8c-6-3.6-10.5-8.2-12.5-13.3c-0.8-2.1-1.3-4.3-1.3-6.5c0-15.4,20.7-27.8,46.3-27.8
			S1585.9,710.5,1585.9,725.9z"/>
		
			<linearGradient id="SVGID_79_" gradientUnits="userSpaceOnUse" x1="1097.84" y1="520.29" x2="1196" y2="520.29" gradientTransform="matrix(1 0 0 -1 0 1476)">
			<stop  offset="0" style="stop-color:#D4D4DC"/>
			<stop  offset="1" style="stop-color:#9B9AAC"/>
		</linearGradient>
		<path class="st82" d="M1196,978.2L1196,978.2c0,2.1-0.2,4.2-0.6,6.2c-0.1,0.5-0.2,1.1-0.3,1.6h-41.5c0.2-0.5,0.4-0.9,0.6-1.3
			c0.8-2.1,1.3-4.3,1.3-6.5c0-15.4-20.7-27.8-46.3-27.8c-3.8,0-7.5,0.3-11.3,0.8l9.2-25.7c0.4,0,0.8,0,1.3,0
			C1156.7,925.5,1196,949,1196,978.2z"/>
		
			<linearGradient id="SVGID_80_" gradientUnits="userSpaceOnUse" x1="1243.4901" y1="648.9701" x2="1343.0601" y2="648.9701" gradientTransform="matrix(1 0 0 -1 0 1476)">
			<stop  offset="0" style="stop-color:#F22AFF"/>
			<stop  offset="1" style="stop-color:#6C00E9"/>
		</linearGradient>
		<path class="st83" d="M1343.1,796.6v25.2c-3.7-0.5-7.4-0.8-11.1-0.8c-25.6,0-46.3,12.5-46.3,27.8c0,2.2,0.4,4.4,1.3,6.5
			c0.4,0.9,0.8,1.8,1.3,2.7l-44.4-4.2c0-0.1,0-0.2,0-0.3c-0.2-1.6-0.3-3.1-0.3-4.7v0.8c0-0.3,0-0.5,0-0.8
			c0-29.1,39.3-52.7,87.7-52.7C1335.2,796.1,1339.2,796.2,1343.1,796.6z"/>
		
			<linearGradient id="SVGID_81_" gradientUnits="userSpaceOnUse" x1="1491.3695" y1="722.9401" x2="1620.9399" y2="722.9401" gradientTransform="matrix(1 0 0 -1 0 1476)">
			<stop  offset="0" style="stop-color:#2BD978"/>
			<stop  offset="1" style="stop-color:#4BEA8B"/>
		</linearGradient>
		<path class="st84" d="M1620.9,744.4l-0.1,0.2c-0.3,0.5-0.7,1.1-1.1,1.6c-0.1,0.2-0.3,0.4-0.4,0.6c-0.9,1.3-1.9,2.5-2.9,3.7
			c0,0-0.1,0.1-0.1,0.1c-0.6,0.7-1.1,1.3-1.8,1.9s-1.2,1.2-1.9,1.8s-1.3,1.2-2,1.8s-1.3,1.1-2,1.7c-0.1,0.1-0.1,0.1-0.2,0.2
			c-0.7,0.5-1.4,1.1-2.1,1.6s-1.6,1.1-2.3,1.6s-1.3,0.9-2,1.3s-1.3,0.8-1.9,1.2c-0.5,0.3-1,0.6-1.5,0.8c-1.5,0.8-3,1.6-4.5,2.3
			c-0.3,0.2-0.7,0.3-1,0.5c-0.9,0.4-1.8,0.8-2.7,1.2c-2.7,1.2-5.6,2.3-8.5,3.3c-1,0.3-2,0.7-3,1c-0.7,0.2-1.4,0.4-2.2,0.7
			s-1.7,0.5-2.5,0.7c-0.7,0.2-1.4,0.4-2.1,0.5c-0.9,0.2-1.7,0.4-2.6,0.6s-1.6,0.3-2.4,0.5s-1.4,0.3-2.1,0.4c-0.2,0-0.3,0.1-0.5,0.1
			c-1,0.2-2.1,0.4-3.1,0.5c-0.1,0-0.3,0.1-0.4,0.1c-0.8,0.1-1.7,0.3-2.6,0.4s-2,0.3-3,0.4c-0.7,0.1-1.4,0.2-2.2,0.2
			c-1.6,0.2-3.3,0.3-4.9,0.4c-0.8,0.1-1.6,0.1-2.4,0.1c-1.1,0.1-2.2,0.1-3.3,0.1c-1.3,0-2.6,0.1-3.8,0.1h-0.1c-1.3,0-2.6,0-3.8-0.1
			c-1.1,0-2.2-0.1-3.3-0.1s-1.9-0.1-2.8-0.2c-1.5-0.1-3-0.2-4.4-0.3c-0.8-0.1-1.7-0.2-2.5-0.3c-0.3,0-0.7-0.1-1.1-0.1
			c-0.7-0.1-1.3-0.2-1.9-0.3s-1.4-0.2-2.1-0.3c-0.3,0-0.6-0.1-0.9-0.1c-0.9-0.1-1.7-0.3-2.6-0.5s-1.8-0.3-2.7-0.5s-1.7-0.3-2.6-0.5
			c0,0-0.1,0-0.1,0c-0.9-0.2-1.8-0.4-2.7-0.6c-1.3-0.3-2.6-0.7-3.8-1c-0.9-0.3-1.8-0.5-2.7-0.8c-2-0.6-3.9-1.3-5.8-2l-1.7-0.7
			l15.8-24.5c8.3,5,19.8,8,32.5,8c21.8,0,40.1-9.1,45-21.3c0.6-1.6,1-3.3,1.2-5L1620.9,744.4z"/>
		
			<linearGradient id="SVGID_82_" gradientUnits="userSpaceOnUse" x1="-4158.7598" y1="671.67" x2="-3778.79" y2="671.67" gradientTransform="matrix(-1 0 0 -1 -3266.74 1476)">
			<stop  offset="0" style="stop-color:#F22AFF"/>
			<stop  offset="1" style="stop-color:#6C00E9"/>
		</linearGradient>
		<polygon class="st85" points="887.4,945.8 892,943.2 819,816.7 747,858.2 657.4,744.5 604.2,775.1 569.2,694.4 514.7,662.8 
			512,667.5 565,698.1 601.7,782.7 656.1,751.4 745.7,865.2 817,824 		"/>
		
			<linearGradient id="SVGID_83_" gradientUnits="userSpaceOnUse" x1="-3782.79" y1="809.39" x2="-3764.8599" y2="809.39" gradientTransform="matrix(-1 0 0 -1 -3266.74 1476)">
			<stop  offset="0" style="stop-color:#6C00E9"/>
			<stop  offset="1" style="stop-color:#F22AFF"/>
		</linearGradient>
		<polygon class="st86" points="516,645.9 516,687.3 498.1,656.2 		"/>
		
			<linearGradient id="SVGID_84_" gradientUnits="userSpaceOnUse" x1="-4092.0637" y1="662.4086" x2="-4077.0137" y2="662.4086" gradientTransform="matrix(-1.0012 -2.313793e-03 2.313793e-03 -1.0012 -3275.4382 1474.0962)">
			<stop  offset="0" style="stop-color:#D4D4DC"/>
			<stop  offset="1" style="stop-color:#9B9AAC"/>
		</linearGradient>
		<path class="st87" d="M817.5,808.9c4.1-0.2,7.7,4.7,8,11s-2.8,11.6-7,11.8c-4.1,0.2-7.7-4.7-8-11S813.3,809.1,817.5,808.9z"/>
		
			<linearGradient id="SVGID_85_" gradientUnits="userSpaceOnUse" x1="-4020.3835" y1="621.0739" x2="-4005.3572" y2="621.0739" gradientTransform="matrix(-1.0012 -2.313793e-03 2.313793e-03 -1.0012 -3275.4456 1474.1028)">
			<stop  offset="0" style="stop-color:#D4D4DC"/>
			<stop  offset="1" style="stop-color:#9B9AAC"/>
		</linearGradient>
		<path class="st88" d="M745.8,850.1c4.1-0.2,7.7,4.7,8,11c0.3,6.3-2.8,11.6-7,11.8s-7.7-4.7-8-11
			C738.5,855.6,741.7,850.3,745.8,850.1z"/>
		
			<linearGradient id="SVGID_86_" gradientUnits="userSpaceOnUse" x1="-3925.5261" y1="729.6339" x2="-3910.4763" y2="729.6339" gradientTransform="matrix(-1.0025 0 0 -1.0025 -3270.855 1479.691)">
			<stop  offset="0" style="stop-color:#D4D4DC"/>
			<stop  offset="1" style="stop-color:#9B9AAC"/>
		</linearGradient>
		<path class="st89" d="M658.7,736.8c4.1-0.2,7.8,4.7,8.1,11c0.3,6.3-2.8,11.6-6.9,11.8s-7.8-4.7-8.1-11
			C651.5,742.3,654.6,737,658.7,736.8z"/>
		
			<linearGradient id="SVGID_87_" gradientUnits="userSpaceOnUse" x1="-3871.7761" y1="699.5831" x2="-3856.7263" y2="699.5831" gradientTransform="matrix(-1.0025 0 0 -1.0025 -3270.845 1479.6925)">
			<stop  offset="0" style="stop-color:#D4D4DC"/>
			<stop  offset="1" style="stop-color:#9B9AAC"/>
		</linearGradient>
		<path class="st90" d="M605,766.9c4.1-0.2,7.8,4.7,8.1,11c0.3,6.3-2.8,11.6-6.9,11.8c-4.1,0.2-7.8-4.7-8.1-11
			C597.7,772.4,600.8,767.1,605,766.9z"/>
		<polygon class="st16" points="565.4,1031.6 282.7,1194.9 0,1031.6 280.4,869.7 282.7,868.4 		"/>
		
			<linearGradient id="SVGID_88_" gradientUnits="userSpaceOnUse" x1="1.000000e-02" y1="316.175" x2="282.72" y2="316.175" gradientTransform="matrix(1 0 0 -1 0 1476)">
			<stop  offset="0" style="stop-color:#E9EFFF"/>
			<stop  offset="1" style="stop-color:#D4D4DC"/>
		</linearGradient>
		<polygon class="st91" points="0,1031.6 0,1124.8 282.7,1288.1 282.7,1194.9 		"/>
		
			<linearGradient id="SVGID_89_" gradientUnits="userSpaceOnUse" x1="282.72" y1="316.15" x2="565.43" y2="316.15" gradientTransform="matrix(1 0 0 -1 0 1476)">
			<stop  offset="0" style="stop-color:#E9EFFF"/>
			<stop  offset="1" style="stop-color:#D4D4DC"/>
		</linearGradient>
		<polygon class="st92" points="282.7,1288.1 565.4,1124.9 565.4,1031.6 282.7,1194.9 		"/>
		
			<linearGradient id="SVGID_90_" gradientUnits="userSpaceOnUse" x1="189.9313" y1="285.5479" x2="205.2213" y2="285.5479" gradientTransform="matrix(1 0 0 -1 0 1476)">
			<stop  offset="0" style="stop-color:#D4D4DC"/>
			<stop  offset="1" style="stop-color:#9B9AAC"/>
		</linearGradient>
		<path class="st93" d="M191.1,1183.5c-1,1.6-1.4,3.6-1,5.5c0.3,1.8,0.9,3.5,1.9,5.1c0.5,0.8,1,1.5,1.6,2.2
			c3.6,3.8,8.3,4.4,10.5,1.2s1.1-8.9-2.5-12.7S193.3,1180.3,191.1,1183.5z"/>
		
			<linearGradient id="SVGID_91_" gradientUnits="userSpaceOnUse" x1="214.4913" y1="270.7358" x2="229.7912" y2="270.7358" gradientTransform="matrix(1 0 0 -1 0 1476)">
			<stop  offset="0" style="stop-color:#D4D4DC"/>
			<stop  offset="1" style="stop-color:#9B9AAC"/>
		</linearGradient>
		<path class="st94" d="M215.6,1198.3c-1,1.6-1.4,3.6-1,5.5c0.3,1.8,0.9,3.5,1.9,5.1c0.5,0.8,1,1.5,1.6,2.2
			c3.6,3.8,8.3,4.4,10.5,1.2s1.1-8.9-2.5-12.7S217.9,1195.1,215.6,1198.3z"/>
		
			<linearGradient id="SVGID_92_" gradientUnits="userSpaceOnUse" x1="239.0513" y1="256.4259" x2="254.3412" y2="256.4259" gradientTransform="matrix(1 0 0 -1 0 1476)">
			<stop  offset="0" style="stop-color:#D4D4DC"/>
			<stop  offset="1" style="stop-color:#9B9AAC"/>
		</linearGradient>
		<path class="st95" d="M240.2,1212.6c-1,1.6-1.4,3.6-1,5.5c0.3,1.8,0.9,3.5,1.9,5.1c0.5,0.8,1,1.5,1.6,2.2
			c3.6,3.8,8.3,4.4,10.5,1.2s1.1-8.9-2.5-12.7S242.4,1209.4,240.2,1212.6z"/>
		
			<linearGradient id="SVGID_93_" gradientUnits="userSpaceOnUse" x1="44.5887" y1="362.3829" x2="76.62" y2="362.3829" gradientTransform="matrix(1 0 0 -1 0 1476)">
			<stop  offset="0" style="stop-color:#2BD978"/>
			<stop  offset="1" style="stop-color:#4BEA8B"/>
		</linearGradient>
		<path class="st96" d="M44.6,1100.9v8c0,1,0.5,1.9,1.4,2.4l28.5,16.5c0.7,0.4,1.6,0.1,2-0.5c0.1-0.2,0.2-0.5,0.2-0.7v-7.9
			c0-1.2-0.6-2.3-1.7-2.9l-28-16.2c-0.7-0.4-1.7-0.2-2.1,0.5C44.7,1100.3,44.6,1100.6,44.6,1100.9z"/>
		
			<linearGradient id="SVGID_94_" gradientUnits="userSpaceOnUse" x1="525.05" y1="380.3159" x2="540.34" y2="380.3159" gradientTransform="matrix(1 0 0 -1 0 1476)">
			<stop  offset="0" style="stop-color:#D4D4DC"/>
			<stop  offset="1" style="stop-color:#9B9AAC"/>
		</linearGradient>
		<path class="st97" d="M539.2,1088.7c1,1.6,1.4,3.6,1,5.5c-0.3,1.8-0.9,3.5-1.9,5.1c-0.5,0.8-1,1.5-1.7,2.2
			c-3.6,3.8-8.3,4.4-10.5,1.2s-1.1-8.9,2.5-12.7S537,1085.5,539.2,1088.7z"/>
		
			<linearGradient id="SVGID_95_" gradientUnits="userSpaceOnUse" x1="500.49" y1="365.4979" x2="515.79" y2="365.4979" gradientTransform="matrix(1 0 0 -1 0 1476)">
			<stop  offset="0" style="stop-color:#D4D4DC"/>
			<stop  offset="1" style="stop-color:#9B9AAC"/>
		</linearGradient>
		<path class="st98" d="M514.7,1103.6c1,1.6,1.4,3.6,1,5.5c-0.3,1.8-0.9,3.5-1.9,5.1c-0.5,0.8-1,1.5-1.7,2.2
			c-3.6,3.8-8.3,4.4-10.5,1.2s-1.1-8.9,2.5-12.7S512.4,1100.3,514.7,1103.6z"/>
		
			<linearGradient id="SVGID_96_" gradientUnits="userSpaceOnUse" x1="475.94" y1="351.1959" x2="491.23" y2="351.1959" gradientTransform="matrix(1 0 0 -1 0 1476)">
			<stop  offset="0" style="stop-color:#D4D4DC"/>
			<stop  offset="1" style="stop-color:#9B9AAC"/>
		</linearGradient>
		<path class="st99" d="M490.1,1117.8c1,1.6,1.4,3.6,1,5.5c-0.3,1.8-0.9,3.5-1.9,5.1c-0.5,0.8-1,1.5-1.6,2.2
			c-3.6,3.8-8.3,4.4-10.5,1.2s-1.1-8.9,2.5-12.7S487.9,1114.7,490.1,1117.8z"/>
		
			<linearGradient id="SVGID_97_" gradientUnits="userSpaceOnUse" x1="327.32" y1="269.393" x2="359.3513" y2="269.393" gradientTransform="matrix(1 0 0 -1 0 1476)">
			<stop  offset="0" style="stop-color:#2BD978"/>
			<stop  offset="1" style="stop-color:#4BEA8B"/>
		</linearGradient>
		<path class="st100" d="M359.4,1193.9v8c0,1-0.5,1.9-1.4,2.4l-28.5,16.5c-0.7,0.4-1.6,0.1-2-0.5c-0.1-0.2-0.2-0.5-0.2-0.7v-7.9
			c0-1.2,0.6-2.3,1.7-2.9l28-16.2c0.7-0.4,1.7-0.2,2.1,0.5C359.3,1193.3,359.4,1193.6,359.4,1193.9z"/>
		
			<linearGradient id="SVGID_98_" gradientUnits="userSpaceOnUse" x1="23.58" y1="447.775" x2="40.45" y2="447.775" gradientTransform="matrix(1 0 0 -1 0 1476)">
			<stop  offset="0" style="stop-color:#D4D4DC"/>
			<stop  offset="1" style="stop-color:#9B9AAC"/>
		</linearGradient>
		<path class="st101" d="M40.5,1017.5v15.7c0,3.2-3.8,5.7-8.4,5.7s-8.4-2.6-8.4-5.7v-15.7c0,3.2,3.8,5.7,8.4,5.7
			S40.5,1020.7,40.5,1017.5z"/>
		
			<linearGradient id="SVGID_99_" gradientUnits="userSpaceOnUse" x1="23.59" y1="458.48" x2="40.45" y2="458.48" gradientTransform="matrix(1 0 0 -1 0 1476)">
			<stop  offset="0" style="stop-color:#E9EFFF"/>
			<stop  offset="1" style="stop-color:#D4D4DC"/>
		</linearGradient>
		<ellipse class="st102" cx="32" cy="1017.5" rx="8.4" ry="5.7"/>
		<g>
			
				<linearGradient id="SVGID_100_" gradientUnits="userSpaceOnUse" x1="280.35" y1="444.385" x2="565.44" y2="444.385" gradientTransform="matrix(1 0 0 -1 0 1476)">
				<stop  offset="0" style="stop-color:#E8E8EA"/>
				<stop  offset="0.55" style="stop-color:#E4E4EA"/>
				<stop  offset="1" style="stop-color:#E8E8EA"/>
			</linearGradient>
			<path class="st103" d="M282.7,1194.9c0,0,50.9-192.8-2.4-325.1l2.4-1.4l282.7,163.3L282.7,1194.9z"/>
		</g>
		
			<linearGradient id="SVGID_101_" gradientUnits="userSpaceOnUse" x1="531.91" y1="449.885" x2="548.78" y2="449.885" gradientTransform="matrix(1 0 0 -1 0 1476)">
			<stop  offset="0" style="stop-color:#D4D4DC"/>
			<stop  offset="1" style="stop-color:#9B9AAC"/>
		</linearGradient>
		<path class="st104" d="M548.8,1015.4v15.7c0,3.2-3.8,5.7-8.4,5.7s-8.4-2.6-8.4-5.7v-15.7c0,3.2,3.8,5.7,8.4,5.7
			S548.8,1018.6,548.8,1015.4z"/>
		
			<linearGradient id="SVGID_102_" gradientUnits="userSpaceOnUse" x1="531.92" y1="460.58" x2="548.78" y2="460.58" gradientTransform="matrix(1 0 0 -1 0 1476)">
			<stop  offset="0" style="stop-color:#E9EFFF"/>
			<stop  offset="1" style="stop-color:#D4D4DC"/>
		</linearGradient>
		<ellipse class="st105" cx="540.3" cy="1015.4" rx="8.4" ry="5.7"/>
		
			<linearGradient id="SVGID_103_" gradientUnits="userSpaceOnUse" x1="274.28" y1="305.305" x2="291.15" y2="305.305" gradientTransform="matrix(1 0 0 -1 0 1476)">
			<stop  offset="0" style="stop-color:#D4D4DC"/>
			<stop  offset="1" style="stop-color:#9B9AAC"/>
		</linearGradient>
		<path class="st106" d="M291.1,1160v15.7c0,3.2-3.8,5.7-8.4,5.7s-8.4-2.6-8.4-5.7V1160c0,3.2,3.8,5.7,8.4,5.7
			S291.1,1163.2,291.1,1160z"/>
		
			<linearGradient id="SVGID_104_" gradientUnits="userSpaceOnUse" x1="274.29" y1="315.98" x2="291.15" y2="315.98" gradientTransform="matrix(1 0 0 -1 0 1476)">
			<stop  offset="0" style="stop-color:#E9EFFF"/>
			<stop  offset="1" style="stop-color:#D4D4DC"/>
		</linearGradient>
		<ellipse class="st107" cx="282.7" cy="1160" rx="8.4" ry="5.7"/>
		
			<linearGradient id="SVGID_105_" gradientUnits="userSpaceOnUse" x1="0.17" y1="222.855" x2="282.88" y2="222.855" gradientTransform="matrix(1 0 0 -1 0 1476)">
			<stop  offset="0" style="stop-color:#D4D4DC"/>
			<stop  offset="1" style="stop-color:#9B9AAC"/>
		</linearGradient>
		<polygon class="st108" points="0.2,1124.9 0.2,1218.2 282.9,1381.4 282.9,1288.2 		"/>
		
			<linearGradient id="SVGID_106_" gradientUnits="userSpaceOnUse" x1="282.88" y1="222.83" x2="565.59" y2="222.83" gradientTransform="matrix(1 0 0 -1 0 1476)">
			<stop  offset="0" style="stop-color:#D4D4DC"/>
			<stop  offset="1" style="stop-color:#9B9AAC"/>
		</linearGradient>
		<polygon class="st109" points="282.9,1381.4 565.6,1218.2 565.6,1124.9 282.9,1288.2 		"/>
		
			<linearGradient id="SVGID_107_" gradientUnits="userSpaceOnUse" x1="190.0912" y1="192.2358" x2="205.3913" y2="192.2358" gradientTransform="matrix(1 0 0 -1 0 1476)">
			<stop  offset="0" style="stop-color:#E9EFFF"/>
			<stop  offset="1" style="stop-color:#D4D4DC"/>
		</linearGradient>
		<path class="st110" d="M191.2,1276.8c-1,1.6-1.4,3.6-1,5.5c0.3,1.8,0.9,3.5,1.9,5.1c0.5,0.8,1,1.5,1.6,2.2
			c3.6,3.8,8.3,4.4,10.5,1.2s1.1-8.9-2.5-12.7S193.4,1273.6,191.2,1276.8z"/>
		
			<linearGradient id="SVGID_108_" gradientUnits="userSpaceOnUse" x1="214.6512" y1="177.4179" x2="229.9413" y2="177.4179" gradientTransform="matrix(1 0 0 -1 0 1476)">
			<stop  offset="0" style="stop-color:#E9EFFF"/>
			<stop  offset="1" style="stop-color:#D4D4DC"/>
		</linearGradient>
		<path class="st111" d="M215.8,1291.6c-1,1.6-1.4,3.6-1,5.5c0.3,1.8,0.9,3.5,1.9,5.1c0.5,0.8,1,1.5,1.6,2.2
			c3.6,3.8,8.3,4.4,10.5,1.2s1.1-8.9-2.5-12.7S218,1288.4,215.8,1291.6z"/>
		
			<linearGradient id="SVGID_109_" gradientUnits="userSpaceOnUse" x1="239.2113" y1="163.1158" x2="254.5013" y2="163.1158" gradientTransform="matrix(1 0 0 -1 0 1476)">
			<stop  offset="0" style="stop-color:#E9EFFF"/>
			<stop  offset="1" style="stop-color:#D4D4DC"/>
		</linearGradient>
		<path class="st112" d="M240.4,1305.9c-1,1.6-1.4,3.6-1,5.5c0.3,1.8,0.9,3.5,1.9,5.1c0.5,0.8,1,1.5,1.6,2.2
			c3.6,3.8,8.3,4.4,10.5,1.2s1.1-8.9-2.5-12.7S242.6,1302.7,240.4,1305.9z"/>
		<path class="st16" d="M44.8,1194.2v8c0,1,0.5,1.9,1.4,2.4l28.5,16.5c0.7,0.4,1.6,0.1,2-0.5c0.1-0.2,0.2-0.5,0.2-0.7v-7.8
			c0-1.2-0.6-2.3-1.7-2.9l-28-16.2c-0.7-0.4-1.7-0.2-2.1,0.5C44.8,1193.7,44.8,1193.9,44.8,1194.2z"/>
		
			<linearGradient id="SVGID_110_" gradientUnits="userSpaceOnUse" x1="525.21" y1="287.0355" x2="540.5" y2="287.0355" gradientTransform="matrix(1 0 0 -1 0 1476)">
			<stop  offset="0" style="stop-color:#E9EFFF"/>
			<stop  offset="1" style="stop-color:#D4D4DC"/>
		</linearGradient>
		<path class="st113" d="M539.4,1182c1,1.6,1.4,3.6,1,5.5c-0.3,1.8-0.9,3.5-1.9,5.1c-0.5,0.8-1,1.5-1.7,2.2
			c-3.6,3.8-8.3,4.4-10.5,1.2s-1.1-8.9,2.5-12.7S537.2,1178.9,539.4,1182z"/>
		
			<linearGradient id="SVGID_111_" gradientUnits="userSpaceOnUse" x1="500.65" y1="272.1859" x2="515.94" y2="272.1859" gradientTransform="matrix(1 0 0 -1 0 1476)">
			<stop  offset="0" style="stop-color:#E9EFFF"/>
			<stop  offset="1" style="stop-color:#D4D4DC"/>
		</linearGradient>
		<path class="st114" d="M514.8,1196.9c1,1.6,1.4,3.6,1,5.5c-0.3,1.8-0.9,3.5-1.9,5.1c-0.5,0.8-1,1.5-1.7,2.2
			c-3.6,3.8-8.3,4.4-10.5,1.2s-1.1-8.9,2.5-12.7S512.6,1193.7,514.8,1196.9z"/>
		
			<linearGradient id="SVGID_112_" gradientUnits="userSpaceOnUse" x1="476.09" y1="257.8717" x2="491.39" y2="257.8717" gradientTransform="matrix(1 0 0 -1 0 1476)">
			<stop  offset="0" style="stop-color:#E9EFFF"/>
			<stop  offset="1" style="stop-color:#D4D4DC"/>
		</linearGradient>
		<path class="st115" d="M490.2,1211.2c1,1.6,1.4,3.6,1,5.5c-0.3,1.8-0.9,3.5-1.9,5.1c-0.5,0.8-1,1.5-1.6,2.2
			c-3.6,3.8-8.3,4.4-10.5,1.2s-1.1-8.9,2.5-12.7S488,1208,490.2,1211.2z"/>
		<path class="st16" d="M359.5,1287.2v8c0,1-0.5,1.9-1.4,2.4l-28.5,16.5c-0.7,0.4-1.6,0.1-2-0.5c-0.1-0.2-0.2-0.5-0.2-0.7v-7.9
			c0-1.2,0.6-2.3,1.7-2.9l28-16.2c0.7-0.4,1.7-0.2,2.1,0.5C359.4,1286.6,359.5,1286.9,359.5,1287.2z"/>
		
			<linearGradient id="SVGID_113_" gradientUnits="userSpaceOnUse" x1="1.000000e-02" y1="129.675" x2="282.73" y2="129.675" gradientTransform="matrix(1 0 0 -1 0 1476)">
			<stop  offset="0" style="stop-color:#E9EFFF"/>
			<stop  offset="1" style="stop-color:#D4D4DC"/>
		</linearGradient>
		<polygon class="st116" points="0,1218.1 0,1311.3 282.7,1474.6 282.7,1381.4 		"/>
		
			<linearGradient id="SVGID_114_" gradientUnits="userSpaceOnUse" x1="282.73" y1="129.65" x2="565.44" y2="129.65" gradientTransform="matrix(1 0 0 -1 0 1476)">
			<stop  offset="0" style="stop-color:#E9EFFF"/>
			<stop  offset="1" style="stop-color:#D4D4DC"/>
		</linearGradient>
		<polygon class="st117" points="282.7,1474.6 565.4,1311.4 565.4,1218.1 282.7,1381.4 		"/>
		
			<linearGradient id="SVGID_115_" gradientUnits="userSpaceOnUse" x1="189.9413" y1="99.0479" x2="205.2312" y2="99.0479" gradientTransform="matrix(1 0 0 -1 0 1476)">
			<stop  offset="0" style="stop-color:#D4D4DC"/>
			<stop  offset="1" style="stop-color:#9B9AAC"/>
		</linearGradient>
		<path class="st118" d="M191.1,1370c-1,1.6-1.4,3.6-1,5.5c0.3,1.8,0.9,3.5,1.9,5.1c0.5,0.8,1,1.5,1.6,2.2c3.6,3.8,8.3,4.4,10.5,1.2
			s1.1-8.9-2.5-12.7S193.3,1366.8,191.1,1370z"/>
		
			<linearGradient id="SVGID_116_" gradientUnits="userSpaceOnUse" x1="214.5013" y1="84.2358" x2="229.7912" y2="84.2358" gradientTransform="matrix(1 0 0 -1 0 1476)">
			<stop  offset="0" style="stop-color:#D4D4DC"/>
			<stop  offset="1" style="stop-color:#9B9AAC"/>
		</linearGradient>
		<path class="st119" d="M215.6,1384.8c-1,1.6-1.4,3.6-1,5.5c0.3,1.8,0.9,3.5,1.9,5.1c0.5,0.8,1,1.5,1.6,2.2
			c3.6,3.8,8.3,4.4,10.5,1.2s1.1-8.9-2.5-12.7S217.9,1381.6,215.6,1384.8z"/>
		
			<linearGradient id="SVGID_117_" gradientUnits="userSpaceOnUse" x1="239.0513" y1="69.9359" x2="254.3513" y2="69.9359" gradientTransform="matrix(1 0 0 -1 0 1476)">
			<stop  offset="0" style="stop-color:#D4D4DC"/>
			<stop  offset="1" style="stop-color:#9B9AAC"/>
		</linearGradient>
		<path class="st120" d="M240.2,1399.1c-1,1.6-1.4,3.6-1,5.5c0.3,1.8,0.9,3.5,1.9,5.1c0.5,0.8,1,1.5,1.6,2.2
			c3.6,3.8,8.3,4.4,10.5,1.2s1.1-8.9-2.5-12.7S242.4,1395.9,240.2,1399.1z"/>
		
			<linearGradient id="SVGID_118_" gradientUnits="userSpaceOnUse" x1="44.5987" y1="175.8829" x2="76.63" y2="175.8829" gradientTransform="matrix(1 0 0 -1 0 1476)">
			<stop  offset="0" style="stop-color:#2BD978"/>
			<stop  offset="1" style="stop-color:#4BEA8B"/>
		</linearGradient>
		<path class="st121" d="M44.6,1287.4v8c0,1,0.5,1.9,1.4,2.4l28.5,16.5c0.7,0.4,1.6,0.1,2-0.5c0.1-0.2,0.2-0.5,0.2-0.7v-7.9
			c0-1.2-0.6-2.3-1.7-2.9l-28-16.2c-0.7-0.4-1.7-0.2-2.1,0.5C44.7,1286.8,44.6,1287.1,44.6,1287.4z"/>
		
			<linearGradient id="SVGID_119_" gradientUnits="userSpaceOnUse" x1="525.05" y1="193.8242" x2="540.35" y2="193.8242" gradientTransform="matrix(1 0 0 -1 0 1476)">
			<stop  offset="0" style="stop-color:#D4D4DC"/>
			<stop  offset="1" style="stop-color:#9B9AAC"/>
		</linearGradient>
		<path class="st122" d="M539.2,1275.2c1,1.6,1.4,3.6,1,5.5c-0.3,1.8-0.9,3.5-1.9,5.1c-0.5,0.8-1,1.5-1.7,2.2
			c-3.6,3.8-8.3,4.4-10.5,1.2s-1.1-8.9,2.5-12.7S537,1272,539.2,1275.2z"/>
		
			<linearGradient id="SVGID_120_" gradientUnits="userSpaceOnUse" x1="500.5" y1="179.0376" x2="515.79" y2="179.0376" gradientTransform="matrix(1 0 0 -1 0 1476)">
			<stop  offset="0" style="stop-color:#D4D4DC"/>
			<stop  offset="1" style="stop-color:#9B9AAC"/>
		</linearGradient>
		<path class="st123" d="M514.7,1290c1,1.6,1.4,3.6,1,5.5c-0.3,1.8-0.9,3.5-1.9,5.1c-0.5,0.8-1,1.5-1.7,2.2
			c-3.6,3.8-8.3,4.4-10.5,1.2s-1.1-8.9,2.5-12.7S512.4,1286.8,514.7,1290z"/>
		
			<linearGradient id="SVGID_121_" gradientUnits="userSpaceOnUse" x1="475.94" y1="164.6959" x2="491.23" y2="164.6959" gradientTransform="matrix(1 0 0 -1 0 1476)">
			<stop  offset="0" style="stop-color:#D4D4DC"/>
			<stop  offset="1" style="stop-color:#9B9AAC"/>
		</linearGradient>
		<path class="st124" d="M490.1,1304.3c1,1.6,1.4,3.6,1,5.5c-0.3,1.8-0.9,3.5-1.9,5.1c-0.5,0.8-1,1.5-1.6,2.2
			c-3.6,3.8-8.3,4.4-10.5,1.2s-1.1-8.9,2.5-12.7S487.9,1301.2,490.1,1304.3z"/>
		
			<linearGradient id="SVGID_122_" gradientUnits="userSpaceOnUse" x1="327.32" y1="82.8879" x2="359.3509" y2="82.8879" gradientTransform="matrix(1 0 0 -1 0 1476)">
			<stop  offset="0" style="stop-color:#2BD978"/>
			<stop  offset="1" style="stop-color:#4BEA8B"/>
		</linearGradient>
		<path class="st125" d="M359.4,1380.4v8c0,1-0.5,1.9-1.4,2.4l-28.5,16.5c-0.7,0.4-1.6,0.1-2-0.5c-0.1-0.2-0.2-0.5-0.2-0.7v-7.9
			c0-1.2,0.6-2.3,1.7-2.9l28-16.2c0.7-0.4,1.7-0.2,2.1,0.5C359.3,1379.8,359.4,1380.1,359.4,1380.4z"/>
		
			<linearGradient id="SVGID_123_" gradientUnits="userSpaceOnUse" x1="274.44" y1="593.16" x2="291.31" y2="593.16" gradientTransform="matrix(1 0 0 -1 0 1476)">
			<stop  offset="0" style="stop-color:#D4D4DC"/>
			<stop  offset="1" style="stop-color:#9B9AAC"/>
		</linearGradient>
		<path class="st126" d="M291.3,872.2v15.6c0,3.2-3.8,5.7-8.4,5.7s-8.4-2.6-8.4-5.7v-15.6c0,3.2,3.8,5.7,8.4,5.7
			S291.3,875.3,291.3,872.2z"/>
		
			<linearGradient id="SVGID_124_" gradientUnits="userSpaceOnUse" x1="274.45" y1="603.85" x2="291.31" y2="603.85" gradientTransform="matrix(1 0 0 -1 0 1476)">
			<stop  offset="0" style="stop-color:#E9EFFF"/>
			<stop  offset="1" style="stop-color:#D4D4DC"/>
		</linearGradient>
		<ellipse class="st127" cx="282.9" cy="872.2" rx="8.4" ry="5.7"/>
		
			<linearGradient id="SVGID_125_" gradientUnits="userSpaceOnUse" x1="270.7698" y1="1130.6821" x2="608.47" y2="1130.6821" gradientTransform="matrix(1 0 0 -1 0 1476)">
			<stop  offset="0" style="stop-color:#D4D4DC"/>
			<stop  offset="1" style="stop-color:#9B9AAC"/>
		</linearGradient>
		<path class="st128" d="M608.5,91.8c-1.8-1-3.9-1.6-6-1.5c-2,0-3.9,0.6-5.6,1.6l-3.6,2.1l-302,174.4c-5.8,3.4-9.4,9.6-9.4,16.3
			v308.6v5.4c0,3.6,1.6,7,4.4,9.2l-9.1-6.1h0c-3.9-2.1-6.3-6.1-6.3-10.5l0-314c0-6.7,3.6-12.9,9.4-16.3L585.8,84.4
			c3.7-2.2,8.3-2.1,11.9,0.2l0.6,0.4L608.5,91.8z"/>
		<path class="st16" d="M614.4,413.7c0,8.4-4.5,16.2-11.8,20.4L299.8,608.9c-3.6,2.1-8,2.2-11.6,0.2l-1.9-1.3
			c-2.8-2.3-4.4-5.7-4.4-9.2v-5.4V284.6c0-6.7,3.6-12.9,9.4-16.3l302-174.4l3.6-2.1c1.7-1,3.6-1.5,5.6-1.6c2.1,0,4.2,0.5,6,1.5
			l0.1,0.1c3.6,2,5.8,5.9,5.8,10.1L614.4,413.7z"/>
		
			<linearGradient id="SVGID_126_" gradientUnits="userSpaceOnUse" x1="338.54" y1="1084.23" x2="382.24" y2="1084.23" gradientTransform="matrix(1 0 0 -1 0 1476)">
			<stop  offset="0" style="stop-color:#D4D4DC"/>
			<stop  offset="1" style="stop-color:#9B9AAC"/>
		</linearGradient>
		<polygon class="st129" points="338.5,337.1 338.5,471.6 382.2,446.5 382.2,311.9 		"/>
		
			<linearGradient id="SVGID_127_" gradientUnits="userSpaceOnUse" x1="425.94" y1="1151.5" x2="469.64" y2="1151.5" gradientTransform="matrix(1 0 0 -1 0 1476)">
			<stop  offset="0" style="stop-color:#4BEA8B"/>
			<stop  offset="1" style="stop-color:#2BD978"/>
		</linearGradient>
		<polygon class="st130" points="426,421.2 425.9,253 469.6,227.8 469.6,396 		"/>
		
			<linearGradient id="SVGID_128_" gradientUnits="userSpaceOnUse" x1="513.34" y1="1151.51" x2="557.05" y2="1151.51" gradientTransform="matrix(1 0 0 -1 0 1476)">
			<stop  offset="0" style="stop-color:#D4D4DC"/>
			<stop  offset="1" style="stop-color:#9B9AAC"/>
		</linearGradient>
		<polygon class="st131" points="513.3,370.7 513.3,303.5 557,278.2 557,345.5 		"/>
		
			<linearGradient id="SVGID_129_" gradientUnits="userSpaceOnUse" x1="347.29" y1="971.54" x2="380" y2="971.54" gradientTransform="matrix(1 0 0 -1 0 1476)">
			<stop  offset="0" style="stop-color:#D4D4DC"/>
			<stop  offset="1" style="stop-color:#9B9AAC"/>
		</linearGradient>
		<polygon class="st132" points="347.3,504.5 347.3,523.3 380,504.5 380,485.6 		"/>
		
			<linearGradient id="SVGID_130_" gradientUnits="userSpaceOnUse" x1="440.51" y1="1024.4299" x2="473.22" y2="1024.4299" gradientTransform="matrix(1 0 0 -1 0 1476)">
			<stop  offset="0" style="stop-color:#F22AFF"/>
			<stop  offset="1" style="stop-color:#6C00E9"/>
		</linearGradient>
		<polygon class="st133" points="440.5,451.6 440.5,470.4 473.2,451.6 473.2,432.7 		"/>
		
			<linearGradient id="SVGID_131_" gradientUnits="userSpaceOnUse" x1="533.74" y1="1068.83" x2="566.44" y2="1068.83" gradientTransform="matrix(1 0 0 -1 0 1476)">
			<stop  offset="0" style="stop-color:#2BD978"/>
			<stop  offset="1" style="stop-color:#4BEA8B"/>
		</linearGradient>
		<polygon class="st134" points="533.7,407.2 533.7,426 566.4,407.2 566.4,388.3 		"/>
	</g>
</g>
</svg>
