<svg xmlns="http://www.w3.org/2000/svg" viewBox="0 0 361.86 389.04"><defs><style>.cls-1,.cls-11{fill:#e4e4ea;}.cls-2{fill:#424143;}.cls-3{fill:#d4d4dc;}.cls-4{fill:#aaaaba;}.cls-5{fill:#c13d1a;}.cls-6{fill:#d3008d;}.cls-7{fill:#ff2c9c;}.cls-8{fill:#e8e8ea;}.cls-9{fill:#fff;}.cls-10{fill:#9b9aac;}.cls-11{opacity:0.4;}.cls-12{fill:#2bd978;}.cls-13{fill:#4bea8b;}.cls-14{fill:#431d93;}</style></defs><title>00 - lifecycle 02 - colorcorrected</title><g id="Layer_2" data-name="Layer 2"><g id="Layer_2-2" data-name="Layer 2"><path class="cls-1" d="M64.68,210.07c-13.52-7.81-35.44-7.81-49,0s-13.52,20.46,0,28.27,35.44,7.81,49,0S78.21,217.87,64.68,210.07ZM51.46,230.7c-6.21,3.59-16.29,3.59-22.51,0s-6.22-9.41,0-13,16.29-3.59,22.51,0S57.67,227.11,51.46,230.7Z"/><path class="cls-2" d="M10.62,205.44l12.35.19a13.13,13.13,0,0,1,3.9-3.28c6.79-3.92,17.47-4.22,24.87-.91l7.34-6.9,11.3.18c-.56-.37-1.13-.73-1.74-1.07-15.7-9.07-41.16-9.07-56.87,0a29.87,29.87,0,0,0-7.07,5.5Z"/><polygon class="cls-3" points="70.37 176.78 70.37 194.72 59.07 194.54 59.07 176.6 70.37 176.78"/><polygon class="cls-2" points="51.74 183.51 51.74 201.44 59.07 194.54 59.07 176.6 51.74 183.51"/><path class="cls-2" d="M23,187.7v17.93L39.21,192.4l12.52,9V183.51L40.2,177.91S24.33,182.77,23.5,183,23,187.7,23,187.7Z"/><polygon class="cls-2" points="10.62 187.51 10.62 205.44 22.97 205.63 22.97 187.7 10.62 187.51"/><polygon class="cls-3" points="4.7 181.21 4.7 199.14 10.62 205.44 10.62 187.51 4.7 181.21"/><path class="cls-1" d="M10.62,187.51,23,187.7a13.14,13.14,0,0,1,3.9-3.28c6.79-3.92,17.47-4.22,24.87-.91l7.34-6.9,11.3.18c-.56-.37-1.13-.73-1.74-1.08-15.7-9.07-41.16-9.07-56.87,0a29.86,29.86,0,0,0-7.07,5.5Z"/><path class="cls-3" d="M55.46,185.71V202.2l10.69-2.56s-.63-9.65-.86-9.9S55.46,185.71,55.46,185.71Z"/><path class="cls-2" d="M47.37,202.2v17.93l1.15,1.23L56.06,217s-1.17-13.69-1.31-14S47.37,202.2,47.37,202.2Z"/><path class="cls-4" d="M61.92,197.57l-6.46,6.08c5.38,4.26,4.75,10.26-1.91,14.11a23,23,0,0,1-6.18,2.38L54,227.25l-5.92,5.57a53.78,53.78,0,0,0,20.51-6.34c13.5-7.79,15.38-19.75,5.67-28.71Z"/><polygon class="cls-4" points="48.13 214.88 48.13 232.82 62.78 227.16 80.41 210.34 80.34 191.3 61.69 206.08 48.13 214.88"/><path class="cls-1" d="M61.92,179.63l-6.46,6.08C60.84,190,60.2,196,53.54,199.82a23,23,0,0,1-6.18,2.38L54,209.32l-5.92,5.57a53.78,53.78,0,0,0,20.51-6.34c13.5-7.79,15.38-19.75,5.67-28.71Z"/><path class="cls-4" d="M48.08,227.16l-5.89-6.27c-5.47.33-11.14-.71-15.32-3.13s-6.11-5.91-5.35-9.16l-14-.22L2.1,202.64C-2.61,210.73.6,220,11.77,226.47c8.21,4.74,19.08,7,29.83,6.78Z"/><polygon class="cls-4" points="41.6 215.32 41.6 233.25 0 210.2 0 192.26 6.08 194.72 41.6 215.32"/><polygon class="cls-2" points="48.08 209.22 48.08 227.16 41.6 233.25 41.6 215.32 48.08 209.22"/><path class="cls-3" d="M48.08,209.22l-5.89-6.27c-5.47.33-11.14-.71-15.32-3.13s-6.11-5.91-5.35-9.16l-14-.22L2.1,184.7c-4.72,8.09-1.5,17.39,9.67,23.84,8.21,4.74,19.08,7,29.83,6.78Z"/><circle class="cls-1" cx="89.11" cy="178.63" r="6.9"/><polygon class="cls-1" points="82.42 187.12 96.89 178.76 111.36 187.12 96.89 195.47 82.42 187.12"/><polygon class="cls-1" points="113.13 169.15 127.6 160.79 142.07 169.15 127.6 177.5 113.13 169.15"/><polygon class="cls-1" points="143.76 151.6 158.23 143.25 172.7 151.6 158.23 159.96 143.76 151.6"/><polygon class="cls-5" points="127.6 169.15 127.6 124.59 113.13 116.23 113.13 160.79 127.6 169.15"/><polygon class="cls-6" points="127.6 124.59 142.07 116.23 142.07 160.79 127.6 169.15 127.6 124.59"/><polygon class="cls-7" points="127.6 169.15 127.6 124.59 113.13 116.23 113.13 160.79 127.6 169.15"/><polygon class="cls-7" points="96.89 187.12 96.89 162.05 82.42 153.7 82.42 178.76 96.89 187.12"/><polygon class="cls-6" points="96.89 162.05 111.36 153.7 111.36 178.76 96.89 187.12 96.89 162.05"/><polygon class="cls-7" points="82.42 153.7 96.89 145.34 111.36 153.7 96.89 162.05 82.42 153.7"/><polygon class="cls-7" points="158.23 151.6 158.23 90.33 143.76 81.98 143.76 143.25 158.23 151.6"/><polygon class="cls-6" points="158.23 90.33 172.7 81.98 172.7 143.25 158.23 151.6 158.23 90.33"/><polygon class="cls-7" points="143.76 81.98 158.23 73.63 172.7 81.98 158.23 90.33 143.76 81.98"/><polygon class="cls-7" points="113.13 116.23 127.6 107.88 142.07 116.23 127.6 124.59 113.13 116.23"/><path class="cls-3" d="M73.24,257.88a.65.65,0,0,1-.33-.09l-9.66-5.71a2,2,0,0,1,0-3.5l70.44-39.28a7.27,7.27,0,0,0,3.73-6.34v-37.6a1.75,1.75,0,0,1,2.63-1.52l6.66,3.84a.65.65,0,0,1-.65,1.13L139.44,165a.45.45,0,0,0-.68.39v37.6a8.57,8.57,0,0,1-4.39,7.48L63.93,249.71a.72.72,0,0,0,0,1.25l9.66,5.71a.65.65,0,0,1-.33,1.21Z"/><rect class="cls-3" x="71.64" y="252" width="5.36" height="11.57" transform="translate(334.92 321.54) rotate(119.83)"/><path class="cls-3" d="M67.41,256a4.19,4.19,0,0,1,1.89-3.29c1-.61,1.9-.12,1.9,1.09a4.19,4.19,0,0,1-1.89,3.29C68.26,257.7,67.41,257.21,67.41,256Z"/><rect class="cls-3" x="81.11" y="255.09" width="8.69" height="18.15" transform="translate(357.13 321.44) rotate(119.83)"/><path class="cls-4" d="M79,257.39l-3.4-1.95A6.94,6.94,0,0,0,73,260.09l3.4,1.95A6.94,6.94,0,0,0,79,257.39Z"/><path class="cls-3" d="M74.52,261.44a6.79,6.79,0,0,1,3.06-5.33c1.69-1,3.07-.19,3.08,1.76a6.79,6.79,0,0,1-3.06,5.33C75.9,264.18,74.53,263.39,74.52,261.44Z"/><path class="cls-1" d="M70.58,254.76a.54.54,0,0,1,0-1,2,2,0,0,1,1.78,0,.54.54,0,0,1,0,1A2,2,0,0,1,70.58,254.76Z"/><rect class="cls-3" x="147.86" y="164.79" width="5.36" height="11.57" transform="translate(373.4 124.84) rotate(119.83)"/><path class="cls-3" d="M143.63,168.8a4.19,4.19,0,0,1,1.89-3.29c1-.61,1.9-.12,1.9,1.09a4.19,4.19,0,0,1-1.89,3.29C144.48,170.5,143.63,170,143.63,168.8Z"/><rect class="cls-3" x="157.33" y="167.89" width="8.69" height="18.15" transform="translate(395.61 124.74) rotate(119.83)"/><path class="cls-4" d="M155.24,170.18l-3.4-1.95a6.93,6.93,0,0,0-2.67,4.65l3.4,1.95A6.94,6.94,0,0,0,155.24,170.18Z"/><path class="cls-3" d="M150.74,174.23a6.79,6.79,0,0,1,3.06-5.33c1.69-1,3.07-.19,3.08,1.76a6.79,6.79,0,0,1-3.06,5.33C152.12,177,150.74,176.19,150.74,174.23Z"/><path class="cls-1" d="M146.79,167.56a.54.54,0,0,1,0-1,2,2,0,0,1,1.78,0,.54.54,0,0,1,0,1A2,2,0,0,1,146.79,167.56Z"/><path class="cls-3" d="M185.64,191.6a.65.65,0,0,1-.33-1.21l24.28-14a6.64,6.64,0,0,0,3.31-5.74V164a2,2,0,0,1,3-1.72L255.14,185V154.47a.65.65,0,1,1,1.3,0v31.69a.65.65,0,0,1-1,.56l-40.21-23.31a.69.69,0,0,0-1,.6v6.62a8,8,0,0,1-4,6.86l-24.28,14A.65.65,0,0,1,185.64,191.6Z"/><path class="cls-3" d="M234.21,218.89a.65.65,0,0,1-.33-1.21l30.2-17.43a6.64,6.64,0,0,0,3.31-5.74V131.44c0-.36.29,29.35.65,29.35s.65-29.71.65-29.35v63.07a7.94,7.94,0,0,1-4,6.86l-30.2,17.43A.65.65,0,0,1,234.21,218.89Z"/><path class="cls-3" d="M288.35,249.21a.7.7,0,0,1-.35-1.3l27.38-15.81a6.59,6.59,0,0,0,3.29-5.71l-.09.56a6.6,6.6,0,0,0-3.29-5.68l-35.34-20.35a.7.7,0,0,1-.35-.6V168.42a.7.7,0,0,1,1.4,0V199.9l35,20.15a8,8,0,0,1,4,6.89l.09-.56a8,8,0,0,1-4,6.93L288.7,249.12A.69.69,0,0,1,288.35,249.21Z"/><rect class="cls-3" x="277.61" y="166.47" width="5.36" height="11.57"/><path class="cls-3" d="M282.19,179.14a4.19,4.19,0,0,1-3.79,0,1.16,1.16,0,0,1,0-2.19,4.19,4.19,0,0,1,3.79,0A1.16,1.16,0,0,1,282.19,179.14Z"/><rect class="cls-3" x="275.95" y="150.35" width="8.69" height="18.15"/><path class="cls-4" d="M277.61,168.38v3.92a6.94,6.94,0,0,0,5.36,0v-3.92A6.94,6.94,0,0,0,277.61,168.38Z"/><path class="cls-3" d="M283.36,170.27a6.79,6.79,0,0,1-6.14,0c-1.7-1-1.7-2.57,0-3.55a6.79,6.79,0,0,1,6.14,0C285.06,167.7,285.06,169.29,283.36,170.27Z"/><rect class="cls-3" x="265.36" y="159.5" width="5.36" height="11.57"/><path class="cls-3" d="M269.93,172.16a4.19,4.19,0,0,1-3.79,0,1.16,1.16,0,0,1,0-2.19,4.19,4.19,0,0,1,3.79,0A1.16,1.16,0,0,1,269.93,172.16Z"/><rect class="cls-3" x="263.7" y="143.38" width="8.69" height="18.15"/><path class="cls-4" d="M265.36,161.4v3.92a6.94,6.94,0,0,0,5.36,0V161.4A6.94,6.94,0,0,0,265.36,161.4Z"/><path class="cls-3" d="M271.11,163.3a6.79,6.79,0,0,1-6.14,0c-1.7-1-1.7-2.57,0-3.55a6.79,6.79,0,0,1,6.14,0C272.81,160.73,272.81,162.32,271.11,163.3Z"/><rect class="cls-3" x="253.1" y="152.53" width="5.36" height="11.57"/><path class="cls-3" d="M257.68,165.19a4.19,4.19,0,0,1-3.79,0,1.16,1.16,0,0,1,0-2.19,4.19,4.19,0,0,1,3.79,0A1.16,1.16,0,0,1,257.68,165.19Z"/><rect class="cls-3" x="251.44" y="136.4" width="8.69" height="18.15"/><path class="cls-4" d="M253.1,154.43v3.92a6.94,6.94,0,0,0,5.36,0v-3.92A6.94,6.94,0,0,0,253.1,154.43Z"/><path class="cls-3" d="M258.86,156.32a6.79,6.79,0,0,1-6.14,0c-1.7-1-1.7-2.57,0-3.55a6.79,6.79,0,0,1,6.14,0C260.55,153.75,260.55,155.34,258.86,156.32Z"/><path class="cls-1" d="M255,163.06c0,.57-.4.8-.89.51a2,2,0,0,1-.89-1.54c0-.57.4-.8.89-.51A2,2,0,0,1,255,163.06Z"/><path class="cls-8" d="M182.79,259.74l24.52-14.16c1.5-.87,1.32-2.39-.42-3.39l-23.67-13.67a6.52,6.52,0,0,0-5.87-.24l-24.52,14.16c-1.5.87-1.32,2.39.42,3.39l23.67,13.67A6.53,6.53,0,0,0,182.79,259.74Z"/><path class="cls-4" d="M144.69,231.66h0V221.06h23.75l8.21-4.74a8.17,8.17,0,0,1,7.35.3l7.66,4.42h23.77v10.89a2.13,2.13,0,0,1-1.26,2l-30.7,17.73a8.17,8.17,0,0,1-7.35-.3l-29.64-17.12C145.22,233.47,144.62,232.53,144.69,231.66Z"/><path class="cls-4" d="M180.06,215.58a8.48,8.48,0,0,1,3.94,1l7.66,4.42h23.77v10.89a2.13,2.13,0,0,1-1.26,2l-30.7,17.73a6.65,6.65,0,0,1-3.41.73Z"/><path class="cls-3" d="M212.75,221h2.69v10.89a2.13,2.13,0,0,1-1.26,2l-1.43.82Z"/><path class="cls-3" d="M183,251.85a8.38,8.38,0,0,1-5.88-.07V239.41H183Z"/><path class="cls-1" d="M183.48,240.76,214.18,223c1.88-1.09,1.65-3-.53-4.24L184,201.67a8.17,8.17,0,0,0-7.35-.3L146,219.1c-1.88,1.09-1.65,3,.53,4.24l29.64,17.12A8.17,8.17,0,0,0,183.48,240.76Z"/><path class="cls-3" d="M182.92,237.57l25.73-14.85c1.58-.91,1.38-2.5-.44-3.56l-24.84-14.34a6.85,6.85,0,0,0-6.16-.26l-25.73,14.85c-1.58.91-1.38,2.5.44,3.56l24.84,14.34A6.85,6.85,0,0,0,182.92,237.57Z"/><path class="cls-1" d="M156,234.45a2.74,2.74,0,0,0,1.24,2.15c.68.4,1.24.07,1.24-.72a2.74,2.74,0,0,0-1.24-2.15C156.54,233.34,156,233.66,156,234.45Z"/><path class="cls-1" d="M152,232.15a2.74,2.74,0,0,0,1.24,2.15c.68.4,1.24.07,1.24-.72a2.74,2.74,0,0,0-1.24-2.15C152.55,231,152,231.36,152,232.15Z"/><path class="cls-1" d="M148,229.85a2.74,2.74,0,0,0,1.24,2.15c.68.4,1.24.07,1.24-.72a2.74,2.74,0,0,0-1.24-2.15C148.56,228.74,148,229.06,148,229.85Z"/><path class="cls-4" d="M144.69,214.73h0V204.14h23.75l8.21-4.74a8.17,8.17,0,0,1,7.35.3l7.66,4.42h23.77V215a2.13,2.13,0,0,1-1.26,2l-30.7,17.73a8.17,8.17,0,0,1-7.35-.3l-29.64-17.12C145.22,216.54,144.62,215.6,144.69,214.73Z"/><path class="cls-4" d="M180.06,198.65a8.48,8.48,0,0,1,3.94,1l7.66,4.42h23.77V215a2.13,2.13,0,0,1-1.26,2l-30.7,17.73a6.65,6.65,0,0,1-3.41.73Z"/><path class="cls-3" d="M212.75,204.1h2.69V215a2.13,2.13,0,0,1-1.26,2l-1.43.82Z"/><path class="cls-3" d="M183,234.92a8.38,8.38,0,0,1-5.88-.07V222.48H183Z"/><path class="cls-1" d="M183.48,223.83l30.7-17.73c1.88-1.09,1.65-3-.53-4.24L184,184.75a8.17,8.17,0,0,0-7.35-.3L146,202.17c-1.88,1.09-1.65,3,.53,4.24l29.64,17.12A8.17,8.17,0,0,0,183.48,223.83Z"/><path class="cls-3" d="M182.92,220.64l25.73-14.85c1.58-.91,1.38-2.5-.44-3.56l-24.84-14.34a6.85,6.85,0,0,0-6.16-.26l-25.73,14.85c-1.58.91-1.38,2.5.44,3.56l24.84,14.34A6.85,6.85,0,0,0,182.92,220.64Z"/><path class="cls-1" d="M156,217.52a2.74,2.74,0,0,0,1.24,2.15c.68.4,1.24.07,1.24-.72a2.74,2.74,0,0,0-1.24-2.15C156.54,216.41,156,216.73,156,217.52Z"/><path class="cls-3" d="M152,215.22a2.74,2.74,0,0,0,1.24,2.15c.68.4,1.24.07,1.24-.72a2.74,2.74,0,0,0-1.24-2.15C152.55,214.11,152,214.43,152,215.22Z"/><path class="cls-3" d="M148,212.92a2.74,2.74,0,0,0,1.24,2.15c.68.4,1.24.07,1.24-.72a2.74,2.74,0,0,0-1.24-2.15C148.56,211.81,148,212.13,148,212.92Z"/><path class="cls-4" d="M144.69,197.8h0V187.21h23.75l8.21-4.74a8.17,8.17,0,0,1,7.35.3l7.66,4.42h23.77v10.89a2.13,2.13,0,0,1-1.26,2l-30.7,17.73a8.17,8.17,0,0,1-7.35-.3l-29.64-17.12C145.22,199.61,144.62,198.67,144.69,197.8Z"/><path class="cls-4" d="M180.06,181.73a8.48,8.48,0,0,1,3.94,1l7.66,4.42h23.77v10.89a2.13,2.13,0,0,1-1.26,2l-30.7,17.73a6.65,6.65,0,0,1-3.41.73Z"/><path class="cls-3" d="M212.75,187.17h2.69v10.89a2.13,2.13,0,0,1-1.26,2l-1.43.82Z"/><path class="cls-3" d="M183,218a8.38,8.38,0,0,1-5.88-.07V205.55H183Z"/><path class="cls-1" d="M183.48,206.9l30.7-17.73c1.88-1.09,1.65-3-.53-4.24L184,167.82a8.17,8.17,0,0,0-7.35-.3L146,185.24c-1.88,1.09-1.65,3,.53,4.24l29.64,17.12A8.17,8.17,0,0,0,183.48,206.9Z"/><path class="cls-9" d="M146.48,187.4l29.64,17.12a8.17,8.17,0,0,0,7.35.3l30.7-17.73a2.84,2.84,0,0,0,.94-.83c.65,1,.35,2.17-.94,2.92l-30.7,17.73a8.17,8.17,0,0,1-7.35-.3l-29.64-17.12c-1.69-1-2.2-2.34-1.47-3.41A4.11,4.11,0,0,0,146.48,187.4Z"/><path class="cls-3" d="M156,200.6a2.74,2.74,0,0,0,1.24,2.15c.68.4,1.24.07,1.24-.72a2.74,2.74,0,0,0-1.24-2.15C156.54,199.48,156,199.81,156,200.6Z"/><path class="cls-1" d="M152,198.29a2.74,2.74,0,0,0,1.24,2.15c.68.4,1.24.07,1.24-.72a2.74,2.74,0,0,0-1.24-2.15C152.55,197.18,152,197.5,152,198.29Z"/><path class="cls-1" d="M148,196a2.74,2.74,0,0,0,1.24,2.15c.68.4,1.24.07,1.24-.72a2.74,2.74,0,0,0-1.24-2.15C148.56,194.88,148,195.2,148,196Z"/><path class="cls-3" d="M181.66,195.91,196,187.62c.88-.51.77-1.4-.25-2l-13.87-8a3.82,3.82,0,0,0-3.44-.14l-14.37,8.29c-.88.51-.77,1.4.25,2l13.87,8A3.82,3.82,0,0,0,181.66,195.91Z"/><path class="cls-1" d="M180.29,189l2-1.15c.12-.07.11-.19,0-.27l-1.92-1.11a.53.53,0,0,0-.48,0l-2,1.15c-.12.07-.11.19,0,.27l1.92,1.11A.53.53,0,0,0,180.29,189Z"/><path class="cls-4" d="M196,187.62l0,0-.21-.14-13.87-8a3.82,3.82,0,0,0-3.44-.14l-14.33,8.27c-.81-.58-.86-1.37,0-1.84l14.37-8.29a3.82,3.82,0,0,1,3.44.14l13.87,8C196.8,186.22,196.91,187.11,196,187.62Z"/><path class="cls-8" d="M236.93,290.2,261.45,276c1.5-.87,1.32-2.39-.42-3.39L237.35,259a6.53,6.53,0,0,0-5.87-.24L207,272.9c-1.5.87-1.32,2.39.42,3.39L231.06,290A6.53,6.53,0,0,0,236.93,290.2Z"/><path class="cls-4" d="M198.83,262.12h0V251.52h23.75l8.21-4.74a8.17,8.17,0,0,1,7.35.3l7.66,4.42h23.77v10.89a2.13,2.13,0,0,1-1.26,2l-30.7,17.73a8.17,8.17,0,0,1-7.35-.3l-29.64-17.12C199.37,263.93,198.76,263,198.83,262.12Z"/><path class="cls-4" d="M234.21,246a8.48,8.48,0,0,1,3.94,1l7.66,4.42h23.77v10.89a2.13,2.13,0,0,1-1.26,2l-30.7,17.73a6.65,6.65,0,0,1-3.41.73Z"/><path class="cls-3" d="M266.89,251.49h2.69v10.89a2.13,2.13,0,0,1-1.26,2l-1.43.82Z"/><path class="cls-3" d="M237.14,282.31a8.38,8.38,0,0,1-5.88-.07V269.87h5.88Z"/><path class="cls-1" d="M237.62,271.22l30.7-17.73c1.88-1.09,1.65-3-.53-4.24l-29.64-17.12a8.17,8.17,0,0,0-7.35-.3l-30.7,17.73c-1.88,1.09-1.65,3,.53,4.24l29.64,17.12A8.17,8.17,0,0,0,237.62,271.22Z"/><path class="cls-3" d="M237.07,268l25.73-14.85c1.58-.91,1.38-2.5-.44-3.56l-24.84-14.34a6.85,6.85,0,0,0-6.16-.26l-25.73,14.85c-1.58.91-1.38,2.5.44,3.56l24.84,14.34A6.85,6.85,0,0,0,237.07,268Z"/><path class="cls-1" d="M210.12,264.91a2.74,2.74,0,0,0,1.24,2.15c.68.4,1.24.07,1.24-.72a2.74,2.74,0,0,0-1.24-2.15C210.68,263.8,210.12,264.12,210.12,264.91Z"/><path class="cls-3" d="M206.13,262.61a2.74,2.74,0,0,0,1.24,2.15c.68.4,1.24.07,1.24-.72a2.74,2.74,0,0,0-1.24-2.15C206.69,261.5,206.13,261.82,206.13,262.61Z"/><path class="cls-1" d="M202.14,260.31a2.74,2.74,0,0,0,1.24,2.15c.68.4,1.24.07,1.24-.72a2.74,2.74,0,0,0-1.24-2.15C202.7,259.2,202.14,259.52,202.14,260.31Z"/><path class="cls-4" d="M198.83,245.19h0V234.6h23.75l8.21-4.74a8.17,8.17,0,0,1,7.35.3l7.66,4.42h23.77v10.89a2.13,2.13,0,0,1-1.26,2l-30.7,17.73a8.17,8.17,0,0,1-7.35-.3l-29.64-17.12C199.37,247,198.76,246.06,198.83,245.19Z"/><path class="cls-4" d="M234.21,229.11a8.48,8.48,0,0,1,3.94,1l7.66,4.42h23.77v10.89a2.13,2.13,0,0,1-1.26,2l-30.7,17.73a6.65,6.65,0,0,1-3.41.73Z"/><path class="cls-3" d="M266.89,234.56h2.69v10.89a2.13,2.13,0,0,1-1.26,2l-1.43.82Z"/><path class="cls-3" d="M237.14,265.38a8.38,8.38,0,0,1-5.88-.07V252.94h5.88Z"/><path class="cls-1" d="M237.62,254.29l30.7-17.73c1.88-1.09,1.65-3-.53-4.24l-29.64-17.12a8.17,8.17,0,0,0-7.35-.3l-30.7,17.73c-1.88,1.09-1.65,3,.53,4.24L230.27,254A8.17,8.17,0,0,0,237.62,254.29Z"/><path class="cls-3" d="M237.07,251.1l25.73-14.85c1.58-.91,1.38-2.5-.44-3.56l-24.84-14.34a6.85,6.85,0,0,0-6.16-.26l-25.73,14.85c-1.58.91-1.38,2.5.44,3.56l24.84,14.34A6.85,6.85,0,0,0,237.07,251.1Z"/><path class="cls-1" d="M210.12,248a2.74,2.74,0,0,0,1.24,2.15c.68.4,1.24.07,1.24-.72a2.74,2.74,0,0,0-1.24-2.15C210.68,246.87,210.12,247.19,210.12,248Z"/><path class="cls-1" d="M206.13,245.68a2.74,2.74,0,0,0,1.24,2.15c.68.4,1.24.07,1.24-.72a2.74,2.74,0,0,0-1.24-2.15C206.69,244.57,206.13,244.89,206.13,245.68Z"/><path class="cls-3" d="M202.14,243.38a2.74,2.74,0,0,0,1.24,2.15c.68.4,1.24.07,1.24-.72a2.74,2.74,0,0,0-1.24-2.15C202.7,242.27,202.14,242.59,202.14,243.38Z"/><path class="cls-4" d="M198.83,228.26h0V217.67h23.75l8.21-4.74a8.17,8.17,0,0,1,7.35.3l7.66,4.42h23.77v10.89a2.13,2.13,0,0,1-1.26,2l-30.7,17.73a8.17,8.17,0,0,1-7.35-.3L200.62,230.8C199.37,230.07,198.76,229.13,198.83,228.26Z"/><path class="cls-4" d="M234.21,212.19a8.48,8.48,0,0,1,3.94,1l7.66,4.42h23.77v10.89a2.13,2.13,0,0,1-1.26,2l-30.7,17.73a6.65,6.65,0,0,1-3.41.73Z"/><path class="cls-3" d="M266.89,217.63h2.69v10.89a2.13,2.13,0,0,1-1.26,2l-1.43.82Z"/><path class="cls-3" d="M237.14,248.45a8.38,8.38,0,0,1-5.88-.07V236h5.88Z"/><path class="cls-1" d="M237.62,237.36l30.7-17.73c1.88-1.09,1.65-3-.53-4.24l-29.64-17.12a8.17,8.17,0,0,0-7.35-.3l-30.7,17.73c-1.88,1.09-1.65,3,.53,4.24l29.64,17.12A8.17,8.17,0,0,0,237.62,237.36Z"/><path class="cls-9" d="M200.62,217.86,230.27,235a8.17,8.17,0,0,0,7.35.3l30.7-17.73a2.84,2.84,0,0,0,.94-.83c.65,1,.35,2.17-.94,2.92l-30.7,17.73a8.17,8.17,0,0,1-7.35-.3l-29.64-17.12c-1.69-1-2.2-2.34-1.47-3.41A4.11,4.11,0,0,0,200.62,217.86Z"/><path class="cls-3" d="M210.12,231.06a2.74,2.74,0,0,0,1.24,2.15c.68.4,1.24.07,1.24-.72a2.74,2.74,0,0,0-1.24-2.15C210.68,229.94,210.12,230.27,210.12,231.06Z"/><path class="cls-3" d="M206.13,228.75a2.74,2.74,0,0,0,1.24,2.15c.68.4,1.24.07,1.24-.72a2.74,2.74,0,0,0-1.24-2.15C206.69,227.64,206.13,228,206.13,228.75Z"/><path class="cls-1" d="M202.14,226.45a2.74,2.74,0,0,0,1.24,2.15c.68.4,1.24.07,1.24-.72a2.74,2.74,0,0,0-1.24-2.15C202.7,225.34,202.14,225.66,202.14,226.45Z"/><path class="cls-3" d="M235.8,226.37l14.37-8.29c.88-.51.77-1.4-.25-2l-13.87-8a3.82,3.82,0,0,0-3.44-.14l-14.37,8.29c-.88.51-.77,1.4.25,2l13.87,8A3.82,3.82,0,0,0,235.8,226.37Z"/><path class="cls-1" d="M234.43,219.43l2-1.15c.12-.07.11-.19,0-.27l-1.92-1.11a.53.53,0,0,0-.48,0L232,218c-.12.07-.11.19,0,.27l1.92,1.11A.53.53,0,0,0,234.43,219.43Z"/><path class="cls-4" d="M250.17,218.08l0,0-.21-.14L236,210a3.82,3.82,0,0,0-3.44-.14l-14.33,8.27c-.81-.58-.86-1.37,0-1.84l14.37-8.29a3.82,3.82,0,0,1,3.44.14l13.87,8C250.94,216.68,251.05,217.57,250.17,218.08Z"/><path class="cls-1" d="M240.35,256.82c0,.57.4.8.89.51a2,2,0,0,0,.89-1.54c0-.57-.4-.8-.89-.51A2,2,0,0,0,240.35,256.82Z"/><path class="cls-1" d="M243.1,255.23c0,.57.4.8.89.51a2,2,0,0,0,.89-1.54c0-.57-.4-.8-.89-.51A2,2,0,0,0,243.1,255.23Z"/><path class="cls-1" d="M240.35,260.15c0,.57.4.8.89.51a2,2,0,0,0,.89-1.54c0-.57-.4-.8-.89-.51A2,2,0,0,0,240.35,260.15Z"/><path class="cls-3" d="M243.1,258.56c0,.57.4.8.89.51a2,2,0,0,0,.89-1.54c0-.57-.4-.8-.89-.51A2,2,0,0,0,243.1,258.56Z"/><path class="cls-8" d="M291.07,320.66l24.52-14.16c1.5-.87,1.32-2.39-.42-3.39l-23.67-13.67a6.52,6.52,0,0,0-5.87-.24l-24.52,14.16c-1.5.87-1.32,2.39.42,3.39l23.67,13.67A6.53,6.53,0,0,0,291.07,320.66Z"/><path class="cls-4" d="M253,292.58h0V282h23.75l8.21-4.74a8.17,8.17,0,0,1,7.35.3l7.66,4.42h23.77v10.89a2.13,2.13,0,0,1-1.26,2l-30.7,17.73a8.17,8.17,0,0,1-7.35-.3l-29.64-17.12C253.51,294.39,252.9,293.45,253,292.58Z"/><path class="cls-4" d="M288.35,276.5a8.48,8.48,0,0,1,3.94,1l7.66,4.42h23.77v10.89a2.13,2.13,0,0,1-1.26,2l-30.7,17.73a6.65,6.65,0,0,1-3.41.73Z"/><path class="cls-3" d="M321,281.95h2.69v10.89a2.13,2.13,0,0,1-1.26,2l-1.43.82Z"/><path class="cls-3" d="M291.29,312.77a8.38,8.38,0,0,1-5.88-.07V300.33h5.88Z"/><path class="cls-1" d="M291.76,301.68,322.46,284c1.88-1.09,1.65-3-.53-4.24l-29.64-17.12a8.17,8.17,0,0,0-7.35-.3L254.23,280c-1.88,1.09-1.65,3,.53,4.24l29.64,17.12A8.17,8.17,0,0,0,291.76,301.68Z"/><path class="cls-3" d="M291.21,298.49l25.73-14.85c1.58-.91,1.38-2.5-.44-3.56l-24.84-14.34a6.85,6.85,0,0,0-6.16-.26l-25.73,14.85c-1.58.91-1.38,2.5.44,3.56L285,298.23A6.85,6.85,0,0,0,291.21,298.49Z"/><path class="cls-1" d="M264.26,295.37a2.74,2.74,0,0,0,1.24,2.15c.68.4,1.24.07,1.24-.72a2.74,2.74,0,0,0-1.24-2.15C264.82,294.26,264.26,294.58,264.26,295.37Z"/><path class="cls-3" d="M260.28,293.07a2.74,2.74,0,0,0,1.24,2.15c.68.4,1.24.07,1.24-.72a2.74,2.74,0,0,0-1.24-2.15C260.83,292,260.28,292.28,260.28,293.07Z"/><path class="cls-1" d="M256.29,290.77a2.74,2.74,0,0,0,1.24,2.15c.68.4,1.24.07,1.24-.72a2.74,2.74,0,0,0-1.24-2.15C256.84,289.66,256.29,290,256.29,290.77Z"/><path class="cls-4" d="M253,275.65h0V265.06h23.75l8.21-4.74a8.17,8.17,0,0,1,7.35.3l7.66,4.42h23.77v10.89a2.13,2.13,0,0,1-1.26,2l-30.7,17.73a8.17,8.17,0,0,1-7.35-.3l-29.64-17.12C253.51,277.46,252.9,276.52,253,275.65Z"/><path class="cls-4" d="M288.35,259.57a8.48,8.48,0,0,1,3.94,1l7.66,4.42h23.77v10.89a2.13,2.13,0,0,1-1.26,2l-30.7,17.73a6.65,6.65,0,0,1-3.41.73Z"/><path class="cls-3" d="M321,265h2.69v10.89a2.13,2.13,0,0,1-1.26,2l-1.43.82Z"/><path class="cls-3" d="M291.29,295.84a8.38,8.38,0,0,1-5.88-.07V283.4h5.88Z"/><path class="cls-1" d="M291.76,284.75,322.46,267c1.88-1.09,1.65-3-.53-4.24l-29.64-17.12a8.17,8.17,0,0,0-7.35-.3l-30.7,17.73c-1.88,1.09-1.65,3,.53,4.24l29.64,17.12A8.17,8.17,0,0,0,291.76,284.75Z"/><path class="cls-3" d="M291.21,281.56l25.73-14.85c1.58-.91,1.38-2.5-.44-3.56l-24.84-14.34a6.85,6.85,0,0,0-6.16-.26l-25.73,14.85c-1.58.91-1.38,2.5.44,3.56L285,281.31A6.85,6.85,0,0,0,291.21,281.56Z"/><path class="cls-3" d="M264.26,278.45a2.74,2.74,0,0,0,1.24,2.15c.68.4,1.24.07,1.24-.72a2.74,2.74,0,0,0-1.24-2.15C264.82,277.33,264.26,277.65,264.26,278.45Z"/><path class="cls-3" d="M260.28,276.14a2.74,2.74,0,0,0,1.24,2.15c.68.4,1.24.07,1.24-.72a2.74,2.74,0,0,0-1.24-2.15C260.83,275,260.28,275.35,260.28,276.14Z"/><path class="cls-1" d="M256.29,273.84a2.74,2.74,0,0,0,1.24,2.15c.68.4,1.24.07,1.24-.72a2.74,2.74,0,0,0-1.24-2.15C256.84,272.73,256.29,273,256.29,273.84Z"/><path class="cls-4" d="M253,258.72h0V248.13h23.75l8.21-4.74a8.17,8.17,0,0,1,7.35.3l7.66,4.42h23.77V259a2.13,2.13,0,0,1-1.26,2l-30.7,17.73a8.17,8.17,0,0,1-7.35-.3l-29.64-17.12C253.51,260.53,252.9,259.59,253,258.72Z"/><path class="cls-4" d="M288.35,242.65a8.48,8.48,0,0,1,3.94,1l7.66,4.42h23.77V259a2.13,2.13,0,0,1-1.26,2l-30.7,17.73a6.65,6.65,0,0,1-3.41.73Z"/><path class="cls-3" d="M321,248.09h2.69V259a2.13,2.13,0,0,1-1.26,2l-1.43.82Z"/><path class="cls-3" d="M291.29,278.91a8.38,8.38,0,0,1-5.88-.07V266.47h5.88Z"/><path class="cls-1" d="M291.76,267.82l30.7-17.73c1.88-1.09,1.65-3-.53-4.24l-29.64-17.12a8.17,8.17,0,0,0-7.35-.3l-30.7,17.73c-1.88,1.09-1.65,3,.53,4.24l29.64,17.12A8.17,8.17,0,0,0,291.76,267.82Z"/><path class="cls-9" d="M254.76,248.32l29.64,17.12a8.17,8.17,0,0,0,7.35.3L322.46,248a2.84,2.84,0,0,0,.94-.83c.65,1,.35,2.17-.94,2.92l-30.7,17.73a8.17,8.17,0,0,1-7.35-.3L254.76,250.4c-1.69-1-2.2-2.34-1.47-3.41A4.11,4.11,0,0,0,254.76,248.32Z"/><path class="cls-1" d="M264.26,261.52a2.74,2.74,0,0,0,1.24,2.15c.68.4,1.24.07,1.24-.72a2.74,2.74,0,0,0-1.24-2.15C264.82,260.4,264.26,260.73,264.26,261.52Z"/><path class="cls-1" d="M260.28,259.21a2.74,2.74,0,0,0,1.24,2.15c.68.4,1.24.07,1.24-.72a2.74,2.74,0,0,0-1.24-2.15C260.83,258.1,260.28,258.42,260.28,259.21Z"/><path class="cls-3" d="M256.29,256.91a2.74,2.74,0,0,0,1.24,2.15c.68.4,1.24.07,1.24-.72a2.74,2.74,0,0,0-1.24-2.15C256.84,255.8,256.29,256.12,256.29,256.91Z"/><path class="cls-3" d="M289.94,256.83l14.37-8.29c.88-.51.77-1.4-.25-2l-13.87-8a3.82,3.82,0,0,0-3.44-.14l-14.37,8.29c-.88.51-.77,1.4.25,2l13.87,8A3.82,3.82,0,0,0,289.94,256.83Z"/><path class="cls-1" d="M288.57,249.89l2-1.15c.12-.07.11-.19,0-.27l-1.92-1.11a.53.53,0,0,0-.48,0l-2,1.15c-.12.07-.11.19,0,.27l1.92,1.11A.53.53,0,0,0,288.57,249.89Z"/><path class="cls-4" d="M304.31,248.54l0,0-.21-.14-13.87-8a3.82,3.82,0,0,0-3.44-.14l-14.33,8.27c-.81-.58-.86-1.37,0-1.84l14.37-8.29a3.82,3.82,0,0,1,3.44.14l13.87,8C305.08,247.14,305.19,248,304.31,248.54Z"/><path class="cls-1" d="M294.1,270.59c0,.57.4.8.89.51a2,2,0,0,0,.89-1.54c0-.57-.4-.8-.89-.51A2,2,0,0,0,294.1,270.59Z"/><path class="cls-1" d="M296.85,269c0,.57.4.8.89.51a2,2,0,0,0,.89-1.54c0-.57-.4-.8-.89-.51A2,2,0,0,0,296.85,269Z"/><path class="cls-1" d="M294.1,273.92c0,.57.4.8.89.51a2,2,0,0,0,.89-1.54c0-.57-.4-.8-.89-.51A2,2,0,0,0,294.1,273.92Z"/><path class="cls-3" d="M296.85,272.34c0,.57.4.8.89.51a2,2,0,0,0,.89-1.54c0-.57-.4-.8-.89-.51A2,2,0,0,0,296.85,272.34Z"/><path class="cls-3" d="M294.1,287.52c0,.57.4.8.89.51a2,2,0,0,0,.89-1.54c0-.57-.4-.8-.89-.51A2,2,0,0,0,294.1,287.52Z"/><path class="cls-1" d="M296.85,285.94c0,.57.4.8.89.51a2,2,0,0,0,.89-1.54c0-.57-.4-.8-.89-.51A2,2,0,0,0,296.85,285.94Z"/><path class="cls-3" d="M294.1,290.85c0,.57.4.8.89.51a2,2,0,0,0,.89-1.54c0-.57-.4-.8-.89-.51A2,2,0,0,0,294.1,290.85Z"/><path class="cls-1" d="M296.85,289.27c0,.57.4.8.89.51a2,2,0,0,0,.89-1.54c0-.57-.4-.8-.89-.51A2,2,0,0,0,296.85,289.27Z"/><path class="cls-1" d="M294.1,304.45c0,.57.4.8.89.51a2,2,0,0,0,.89-1.54c0-.57-.4-.8-.89-.51A2,2,0,0,0,294.1,304.45Z"/><path class="cls-3" d="M296.85,302.86c0,.57.4.8.89.51a2,2,0,0,0,.89-1.54c0-.57-.4-.8-.89-.51A2,2,0,0,0,296.85,302.86Z"/><path class="cls-1" d="M294.1,307.78c0,.57.4.8.89.51a2,2,0,0,0,.89-1.54c0-.57-.4-.8-.89-.51A2,2,0,0,0,294.1,307.78Z"/><path class="cls-1" d="M296.85,306.19c0,.57.4.8.89.51a2,2,0,0,0,.89-1.54c0-.57-.4-.8-.89-.51A2,2,0,0,0,296.85,306.19Z"/><path class="cls-8" d="M54,307.22l58-33.32c4.57-2.63,12.55-2.28,17.82.78l118.92,69c5.27,3.06,5.83,7.66,1.26,10.29l-58,33.32c-4.57,2.63-12.55,2.28-17.82-.78l-118.92-69C50,314.45,49.46,309.85,54,307.22Z"/><path class="cls-4" d="M194.33,376.26l59.38-34.12c2.6-1.49,3.91-3.48,4-5.58h0l.05-10.22-1.91,3.29a14.28,14.28,0,0,0-3.73-3L132.53,257.26c-6.77-3.93-17-4.38-22.92-1L50.23,290.38a10.55,10.55,0,0,0-1.66,1.17l-2.28-2.92,0,9.61h0c-.08,2.65,1.81,5.46,5.59,7.65l119.57,69.37C178.19,379.2,188.45,379.64,194.33,376.26Z"/><path class="cls-1" d="M50.27,282.78l59.38-34.12c5.88-3.38,16.14-2.93,22.92,1L252.14,319c6.77,3.93,7.5,9.86,1.62,13.24l-59.38,34.12c-5.88,3.38-16.14,2.93-22.92-1L51.89,296C45.12,292.09,44.39,286.16,50.27,282.78Z"/><path class="cls-9" d="M253.76,332.27l-59.38,34.12c-5.88,3.38-16.14,2.93-22.92-1L51.89,296c-3.28-1.9-5.13-4.28-5.51-6.6-.47,2.84,1.39,6,5.51,8.35l119.57,69.37c6.77,3.93,17,4.38,22.92,1L253.76,334c3-1.74,4.3-4.16,3.89-6.64C257.35,329.22,256.07,330.94,253.76,332.27Z"/><path class="cls-9" d="M54,284.16l58-33.32c4.57-2.63,12.55-2.28,17.82.78l118.92,69c5.27,3.06,5.83,7.66,1.26,10.29l-58,33.32c-4.57,2.63-12.55,2.28-17.82-.78l-118.92-69C50,291.39,49.46,286.78,54,284.16Z"/><path class="cls-1" d="M267.32,169.7c0,.57-.4.8-.89.51a2,2,0,0,1-.89-1.54c0-.57.4-.8.89-.51A2,2,0,0,1,267.32,169.7Z"/><path class="cls-1" d="M279.61,176.34c0,.57-.4.8-.89.51a2,2,0,0,1-.89-1.54c0-.57.4-.8.89-.51A2,2,0,0,1,279.61,176.34Z"/><path class="cls-8" d="M147.45,296.28,126,283.88c-.8-.46-.7-1.26.22-1.79h0a3.45,3.45,0,0,1,3.11-.13l21.47,12.39c.8.46.7,1.26-.22,1.79h0A3.45,3.45,0,0,1,147.45,296.28Z"/><path class="cls-8" d="M127.1,292.08l-7.66-4.42c-.8-.46-.7-1.26.22-1.79h0a3.45,3.45,0,0,1,3.11-.13l7.66,4.42c.8.46.7,1.26-.22,1.79h0A3.45,3.45,0,0,1,127.1,292.08Z"/><path class="cls-4" d="M140,299.5l-7.66-4.42c-.8-.46-.7-1.26.22-1.79h0a3.45,3.45,0,0,1,3.11-.13l7.66,4.42c.8.46.7,1.26-.22,1.79h0A3.45,3.45,0,0,1,140,299.5Z"/><path class="cls-8" d="M165.94,314.5l-20.79-12c-.8-.46-.7-1.26.22-1.79h0a3.45,3.45,0,0,1,3.11-.13l20.79,12c.8.46.7,1.26-.22,1.79h0A3.45,3.45,0,0,1,165.94,314.5Z"/><path class="cls-8" d="M139.73,306.92l-26.82-15.48c-.8-.46-.7-1.26.22-1.79h0a3.45,3.45,0,0,1,3.11-.13L143.05,305c.8.46.7,1.26-.22,1.79h0A3.45,3.45,0,0,1,139.73,306.92Z"/><path class="cls-4" d="M172,333.09l-65.61-37.88c-.8-.46-.7-1.26.22-1.79h0a3.45,3.45,0,0,1,3.11-.13l65.61,37.88c.8.46.7,1.26-.22,1.79h0A3.45,3.45,0,0,1,172,333.09Z"/><path class="cls-8" d="M191.13,321.5l-37.75-21.8c-.8-.46-.7-1.26.22-1.79h0a3.45,3.45,0,0,1,3.11-.13l37.75,21.8c.8.46.7,1.26-.22,1.79h0A3.45,3.45,0,0,1,191.13,321.5Z"/><path class="cls-4" d="M197.86,193.15l2-1.15c.12-.07.11-.19,0-.27l-1.92-1.11a.53.53,0,0,0-.48,0l-2,1.15c-.12.07-.11.19,0,.27l1.92,1.11A.53.53,0,0,0,197.86,193.15Z"/><path class="cls-4" d="M193.28,195.8l2-1.15c.12-.07.11-.19,0-.27l-1.92-1.11a.53.53,0,0,0-.48,0l-2,1.15c-.12.07-.11.19,0,.27l1.92,1.11A.53.53,0,0,0,193.28,195.8Z"/><path class="cls-4" d="M188.7,198.44l2-1.15c.12-.07.11-.19,0-.27l-1.92-1.11a.53.53,0,0,0-.48,0l-2,1.15c-.12.07-.11.19,0,.27l1.92,1.11A.53.53,0,0,0,188.7,198.44Z"/><path class="cls-4" d="M171.61,177.42l2-1.15c.12-.07.11-.19,0-.27l-1.92-1.11a.53.53,0,0,0-.48,0l-2,1.15c-.12.07-.11.19,0,.27l1.92,1.11A.53.53,0,0,0,171.61,177.42Z"/><path class="cls-4" d="M167,180.07l2-1.15c.12-.07.11-.19,0-.27l-1.92-1.11a.53.53,0,0,0-.48,0l-2,1.15c-.12.07-.11.19,0,.27l1.92,1.11A.53.53,0,0,0,167,180.07Z"/><path class="cls-4" d="M162.45,182.71l2-1.15c.12-.07.11-.19,0-.27l-1.92-1.11a.53.53,0,0,0-.48,0l-2,1.15c-.12.07-.11.19,0,.27l1.92,1.11A.53.53,0,0,0,162.45,182.71Z"/><path class="cls-2" d="M347.32,74.32,220,.87a4.88,4.88,0,0,0-4.36-.59h0l-.21.1-.05,0-4.15,2,4.5,2.24c0,.08,0,.16,0,.25l0,104.58c0,5.23,3.24,11.34,7.23,13.65l123.93,71.49.7,5.83,4.53-2.16c1.49-.88,2.43-2.85,2.43-5.67l0-104.58C354.55,82.74,351.31,76.63,347.32,74.32Z"/><path class="cls-4" d="M347.32,74.32,220,.87a4.88,4.88,0,0,0-4.36-.59h0l-.21.1-.05,0-4.15,2,4.5,2.24c0,.08,0,.16,0,.25l0,68.92,57.95,45.78,78.68-39.6A14.28,14.28,0,0,0,347.32,74.32Z"/><path class="cls-10" d="M349.45,76,337,81.22l9.42,7.26,7.87-3.35A18.31,18.31,0,0,0,349.45,76Z"/><path class="cls-1" d="M343.17,199.83,215.85,126.38c-4-2.3-7.23-8.41-7.23-13.65l0-104.58c0-5.23,3.23-7.61,7.23-5.31L343.13,76.3c4,2.3,7.23,8.41,7.23,13.65l0,104.58C350.4,199.76,347.17,202.13,343.17,199.83Z"/><path class="cls-9" d="M338.94,192.05,220,123.48c-3.65-2.11-6.62-7.7-6.62-12.49l0-95.7c0-4.79,3-7,6.61-4.85L338.9,79c3.65,2.11,6.62,7.7,6.62,12.49l0,65.7C345.55,162,342.59,194.16,338.94,192.05Z"/><path class="cls-9" d="M338.94,192.05,220,123.48c-3.65-2.11-6.62-7.7-6.62-12.49l0-95.7c0-4.79,3-7,6.61-4.85L338.9,79c3.65,2.11,6.62,7.7,6.62,12.49l0,65.7C345.55,162,342.59,194.16,338.94,192.05Z"/><path class="cls-11" d="M271.37,97.75l-41.55-24A4.43,4.43,0,0,1,228,70.23V37.54c0-1.36.83-2,1.85-1.4l41.55,24a4.43,4.43,0,0,1,1.85,3.53V96.36C273.22,97.72,272.39,98.34,271.37,97.75Z"/><path class="cls-8" d="M242.38,75.67l-.29-.17a4.7,4.7,0,0,1-2-3.75V56.18c0-1.44.88-2.11,2-1.48l.29.17a4.7,4.7,0,0,1,2,3.75V74.19C244.35,75.64,243.47,76.3,242.38,75.67Z"/><path class="cls-8" d="M250.74,80.5l-.29-.17a4.7,4.7,0,0,1-2-3.75V67.46c0-1.44.88-2.11,2-1.48l.29.17a4.7,4.7,0,0,1,2,3.75V79C252.7,80.46,251.82,81.12,250.74,80.5Z"/><path class="cls-12" d="M259.1,85.32l-.29-.17a4.7,4.7,0,0,1-2-3.75V59.7c0-1.44.88-2.11,2-1.48l.29.17a4.7,4.7,0,0,1,2,3.75V83.84C261.06,85.29,260.18,85.95,259.1,85.32Z"/><path class="cls-8" d="M311,89l-25.82-14.9a4.15,4.15,0,0,1-1.73-3.31h0c0-1.28.78-1.86,1.73-1.31L311,84.34a4.15,4.15,0,0,1,1.73,3.31h0C312.72,88.93,311.94,89.52,311,89Z"/><path class="cls-8" d="M294.38,88.45l-9.21-5.32a4.15,4.15,0,0,1-1.73-3.31h0c0-1.28.78-1.86,1.73-1.31l9.21,5.32a4.15,4.15,0,0,1,1.73,3.31h0C296.11,88.42,295.34,89,294.38,88.45Z"/><path class="cls-4" d="M309.83,97.38l-9.21-5.32a4.15,4.15,0,0,1-1.73-3.31h0c0-1.28.78-1.86,1.73-1.31l9.21,5.32a4.15,4.15,0,0,1,1.73,3.31h0C311.57,97.34,310.79,97.93,309.83,97.38Z"/><path class="cls-8" d="M329.25,108.62,316.08,101a4.15,4.15,0,0,1-1.73-3.31h0c0-1.28.78-1.86,1.73-1.31L329.25,104a4.15,4.15,0,0,1,1.73,3.31h0C331,108.59,330.21,109.18,329.25,108.62Z"/><path class="cls-8" d="M317.43,110.84,285.17,92.22a4.15,4.15,0,0,1-1.73-3.31h0c0-1.28.78-1.86,1.73-1.31l32.26,18.62a4.15,4.15,0,0,1,1.73,3.31h0C319.16,110.8,318.38,111.39,317.43,110.84Z"/><path class="cls-4" d="M331,127.64l-45.82-26.35A4.15,4.15,0,0,1,283.44,98h0c0-1.28.78-1.86,1.73-1.31L331,123a4.15,4.15,0,0,1,1.73,3.31h0C332.72,127.61,331.94,128.2,331,127.64Z"/><path class="cls-8" d="M334.86,102.71l-16.75-9.63a4.15,4.15,0,0,1-1.73-3.31h0c0-1.28.78-1.86,1.73-1.31l16.75,9.63a4.15,4.15,0,0,1,1.73,3.31h0C336.6,102.67,335.82,103.26,334.86,102.71Z"/><polygon class="cls-13" points="236.01 103.4 227.86 98.7 227.86 108.11 236.01 112.81 236.01 103.4"/><polygon class="cls-14" points="248.89 103.06 240.74 98.36 240.74 115.54 248.89 120.25 248.89 103.06"/><polygon class="cls-14" points="261.76 115.41 253.61 110.7 253.61 122.97 261.76 127.68 261.76 115.41"/><polygon class="cls-14" points="274.64 119.29 266.49 114.59 266.49 130.41 274.64 135.11 274.64 119.29"/><polygon class="cls-13" points="287.51 127.68 279.36 122.98 279.36 137.84 287.51 142.55 287.51 127.68"/><polygon class="cls-12" points="300.39 131.37 292.24 126.67 292.24 145.28 300.39 149.98 300.39 131.37"/><polygon class="cls-14" points="313.26 136.82 305.11 132.11 305.11 152.71 313.26 157.41 313.26 136.82"/><polygon class="cls-13" points="326.14 139.23 317.99 134.53 317.99 160.14 326.14 164.85 326.14 139.23"/><path class="cls-6" d="M360.16,75.45,339,63.25a1.08,1.08,0,0,0-1.09-.09h0l-2.05,1.18,1.44.53V80.25A4.07,4.07,0,0,0,339,83.5l20.2,11.67V97l2.07-1.19h0a1.51,1.51,0,0,0,.57-1.36V78.7A4.07,4.07,0,0,0,360.16,75.45Z"/><path class="cls-7" d="M358.07,96.91,336.93,84.7a4.07,4.07,0,0,1-1.7-3.25V65.73c0-1.25.76-1.83,1.7-1.29l21.14,12.2a4.07,4.07,0,0,1,1.7,3.25V95.62C359.77,96.87,359,97.45,358.07,96.91Z"/><path class="cls-9" d="M344,79.29c0,.91-.64,1.28-1.43.82a3.15,3.15,0,0,1-1.43-2.47c0-.91.64-1.28,1.43-.82A3.15,3.15,0,0,1,344,79.29Z"/><path class="cls-9" d="M348.36,81.78c0,.91-.64,1.28-1.43.82a3.15,3.15,0,0,1-1.43-2.47c0-.91.64-1.28,1.43-.82A3.15,3.15,0,0,1,348.36,81.78Z"/><path class="cls-9" d="M352.68,84.28c0,.91-.64,1.28-1.43.82a3.15,3.15,0,0,1-1.43-2.47c0-.91.64-1.28,1.43-.82A3.15,3.15,0,0,1,352.68,84.28Z"/></g></g></svg>