<svg xmlns="http://www.w3.org/2000/svg" viewBox="0 0 128 115.03"><defs><style>.cls-1{fill:#4285f4;}.cls-2{opacity:0.07;isolation:isolate;}.cls-3{fill:#fff;}</style></defs><title>dataflow</title><g id="Layer_2" data-name="Layer 2"><g id="Layer_1-2" data-name="Layer 1"><path class="cls-1" d="M126.47,51.62,100.17,5.88A11.56,11.56,0,0,0,90.31,0H37.7a11.55,11.55,0,0,0-9.86,5.88L1.53,51.5a11.48,11.48,0,0,0,0,11.44l26.3,46A11.77,11.77,0,0,0,37.69,115H90.3a11.73,11.73,0,0,0,9.87-6.06l26.3-45.74A11.73,11.73,0,0,0,126.47,51.62Z"/><path class="cls-2" d="M80.37,29.15,64.12,33,47.63,29.15l9,9L42,51.7l3.87,3.87-3.6,4.62,4.51,4.51L42,70.24,55.84,84,47.63,86.1,76.53,115H90.3a11.73,11.73,0,0,0,9.87-6.06l21.9-38.09Z"/><g id="art"><circle class="cls-3" cx="83.16" cy="57.65" r="3.57"/><circle class="cls-3" cx="44.84" cy="57.65" r="3.57"/><circle class="cls-3" cx="64" cy="52.29" r="3.57"/><circle class="cls-3" cx="64" cy="63.01" r="3.57"/><polygon class="cls-3" points="69.39 35.49 80.37 29.15 75.05 26.08 74.91 26.08 64 32.38 64 32.38 64 32.38 53.09 26.08 52.95 26.08 47.63 29.15 58.61 35.49 42.05 45 42.05 51.7 47.7 51.7 47.7 48.11 61.28 40.17 61.28 46 66.72 46 66.72 40.17 80.27 48.11 80.27 51.7 85.95 51.7 85.95 45 69.39 35.49"/><polygon class="cls-3" points="80.27 67.13 66.72 75.07 66.72 69.3 61.28 69.3 61.28 75.07 47.7 67.13 47.7 63.54 42.05 63.54 42.05 70.24 58.63 79.75 47.63 86.1 52.95 89.17 53.09 89.17 64 82.87 74.91 89.17 75.05 89.17 80.37 86.1 69.37 79.75 85.95 70.24 85.95 63.54 80.27 63.54 80.27 67.13"/></g></g></g></svg>