<svg xmlns="http://www.w3.org/2000/svg" viewBox="0 0 338.26 396.31"><defs><style>.cls-1{fill:#4f4f4f;}.cls-2{fill:#777778;}.cls-3{fill:#f37826;}.cls-4{fill:#9e9e9e;}.cls-5{fill:#616363;}</style></defs><title>jupyter</title><g id="Layer_2" data-name="Layer 2"><g id="Layer_3" data-name="Layer 3"><g id="Canvas"><g id="Group"><g id="Group-2" data-name="Group"><g id="Group-3" data-name="Group"><g id="g"><g id="path"><g id="path9_fill" data-name="path9 fill"><path id="path0_fill" data-name="path0 fill" class="cls-1" d="M13.83,207.21c0,12.35-1,16.37-3.53,19.33a15.38,15.38,0,0,1-10.3,4l1,7.06a24.13,24.13,0,0,0,16.09-5.86,28.22,28.22,0,0,0,5.26-10,28.22,28.22,0,0,0,1-11.22V163.82H13.83v43.39Z"/></g></g><g id="path-2" data-name="path"><g id="path10_fill" data-name="path10 fill"><path id="path1_fill" data-name="path1 fill" class="cls-1" d="M84.34,201.65c0,5.29,0,10,.42,14.11h-8.4l-.56-8.4A19.55,19.55,0,0,1,58.66,217c-8.18,0-17.92-4.45-17.92-22.58V164.25h9.46v28.22c0,9.81,3,16.37,11.57,16.37A13.19,13.19,0,0,0,75.1,195.51V163.9h9.45v37.47Z"/></g></g><g id="path-3" data-name="path"><g id="path11_fill" data-name="path11 fill"><path id="path2_fill" data-name="path2 fill" class="cls-1" d="M102.26,181c0-6.56,0-11.92-.42-16.79h8.47l.42,8.82a20.46,20.46,0,0,1,18.49-10c12.56,0,22,10.51,22,26.18,0,18.49-11.36,27.66-23.64,27.66a18.28,18.28,0,0,1-16-8.11h0V237h-9.31V181Zm9.31,13.76a21.17,21.17,0,0,0,.42,3.81,14.54,14.54,0,0,0,14.11,10.94c9.95,0,15.81-8.11,15.81-19.9,0-10.3-5.5-19.12-15.45-19.12A16.23,16.23,0,0,0,111.58,186Z"/></g></g><g id="path-4" data-name="path"><g id="path12_fill" data-name="path12 fill"><path id="path3_fill" data-name="path3 fill" class="cls-1" d="M168.08,164.2l11.36,30.41c1.2,3.39,2.47,7.48,3.32,10.51,1-3.1,2-7.06,3.32-10.73l10.3-30.2h9.95l-14.11,36.69c-7.06,17.64-11.36,26.74-17.85,32.25a25.68,25.68,0,0,1-11.57,6.07l-2.33-7.9a25,25,0,0,0,8.26-4.59,28.22,28.22,0,0,0,8-10.44,7.06,7.06,0,0,0,.78-2.26,8.12,8.12,0,0,0-.63-2.47l-19.19-47.49h10.3Z"/></g></g><g id="path-5" data-name="path"><g id="path13_fill" data-name="path13 fill"><path id="path4_fill" data-name="path4 fill" class="cls-1" d="M231.42,149.39v14.82H245v7.06H231.42v27.8c0,6.35,1.83,10,7.06,10a21.17,21.17,0,0,0,5.5-.63l.42,7.06a23.29,23.29,0,0,1-8.4,1.27,13.12,13.12,0,0,1-10.23-4,19,19,0,0,1-3.67-13.41V171.2h-8v-7.06h8.18V151.58Z"/></g></g><g id="path-6" data-name="path"><g id="path14_fill" data-name="path14 fill"><path id="path5_fill" data-name="path5 fill" class="cls-1" d="M262.39,191.63a16.58,16.58,0,0,0,17.85,17.85,34.43,34.43,0,0,0,14.11-2.68l1.62,7.06A42.34,42.34,0,0,1,278.69,217a24,24,0,0,1-25.54-26c0-15.52,9.24-27.8,24.34-27.8,16.93,0,21.17,14.82,21.17,24.27a35.28,35.28,0,0,1,0,4.37H262.18ZM290,184.57a13.34,13.34,0,0,0-13.12-15.24,15.59,15.59,0,0,0-14.46,15.24Z"/></g></g><g id="path-7" data-name="path"><g id="path15_fill" data-name="path15 fill"><path id="path6_fill" data-name="path6 fill" class="cls-1" d="M313,180.24c0-6.07,0-11.29-.42-16.09H321v10.09h.42A15.59,15.59,0,0,1,335.58,163a10.3,10.3,0,0,1,2.68,0v8.82a14.1,14.1,0,0,0-3.25,0,13.19,13.19,0,0,0-12.63,12,26.1,26.1,0,0,0-.42,4.37v27.45h-9.31V180.31Z"/></g></g></g></g><g id="g-2" data-name="g"><g id="path-8" data-name="path"><g id="path16_fill" data-name="path16 fill"><path id="path7_fill" data-name="path7 fill" class="cls-2" d="M308.86,22.47A23.92,23.92,0,1,1,283.95,0a23.64,23.64,0,0,1,24.91,22.44Z"/></g></g><g id="path-9" data-name="path"><g id="path17_fill" data-name="path17 fill"><path id="path8_fill" data-name="path8 fill" class="cls-3" d="M169.34,298.81C105.83,298.81,50,276,21.16,242.36a158,158,0,0,0,296.35,0C288.72,276,233.12,298.81,169.34,298.81Z"/></g></g><g id="path-10" data-name="path"><g id="path18_fill" data-name="path18 fill"><path id="path9_fill-2" data-name="path9 fill" class="cls-3" d="M169.34,79.95c63.5,0,119.32,22.79,148.18,56.45a158,158,0,0,0-296.35,0C50,102.67,105.55,79.95,169.34,79.95Z"/></g></g><g id="path-11" data-name="path"><g id="path19_fill" data-name="path19 fill"><path id="path10_fill-2" data-name="path10 fill" class="cls-4" d="M81.92,364.31A29.85,29.85,0,1,1,79,353a30.13,30.13,0,0,1,2.88,11.29Z"/></g></g><g id="path-12" data-name="path"><g id="path20_fill" data-name="path20 fill"><path id="path11_fill-2" data-name="path11 fill" class="cls-5" d="M28.38,72.28A17.36,17.36,0,1,1,45.24,54.21,17.57,17.57,0,0,1,28.38,72.28Z"/></g></g></g></g></g></g></g></g></svg>