<svg xmlns="http://www.w3.org/2000/svg" viewBox="0 0 289.26 289.09"><defs><style>.cls-1{fill:#cf2026;}.cls-2{fill:#fff;}</style></defs><title>keras</title><g id="Layer_2" data-name="Layer 2"><g id="Layer_2-2" data-name="Layer 2"><g id="_7OPicw.tif" data-name="7OPicw.tif"><path class="cls-1" d="M0,289.09V0H289.26V289.09ZM150.55,127.37c.89-1,1.43-1.6,2-2.18,18.29-18.23,36.55-36.51,54.94-54.64,2.34-2.3,2.65-4.3,1.14-7s-1.41-6.59-6.38-6.14a115,115,0,0,1-16,0A10.53,10.53,0,0,0,177.54,61q-32.88,33.22-66,66.18c-1,1-2.08,1.81-3.72,3.23,0-21.52,0-42.15,0-62.79,0-6.24-3.87-10.06-10.16-10.09q-4.5,0-9,0c-6,0-10,3.93-10,9.8q0,76.24,0,152.48c0,5.75,4.15,9.78,10,9.81q4.5,0,9,0c6.29,0,10.16-3.85,10.16-10.09,0-15.33,0-30.66,0-46,0-1.58,0-3.7.94-4.66,6.79-7,13.82-13.8,21-20.9,1.54,2.18,2.7,3.78,3.81,5.42q20,29.6,39.91,59.19c3.82,5.64,6.63,13.43,12,16.16,5.58,2.85,13.67.79,20.66.87a3.32,3.32,0,0,1,.5,0c4.23.71,4.6-3,6.06-5.37,1.31-2.13,2.34-4,.3-6.7-4.25-5.54-8-11.43-12-17.18Z"/><path class="cls-2" d="M150.55,127.37l50.45,73c4,5.75,7.77,11.64,12,17.18,2,2.66,1,4.57-.3,6.7-1.47,2.39-1.83,6.08-6.06,5.37a3.32,3.32,0,0,0-.5,0c-7-.08-15.08,2-20.66-.87-5.35-2.74-8.17-10.52-12-16.16q-20-29.57-39.91-59.19c-1.1-1.64-2.27-3.24-3.81-5.42-7.2,7.1-14.23,13.88-21,20.9-.93,1-.93,3.08-.94,4.66-.07,15.33,0,30.66,0,46,0,6.24-3.87,10.06-10.16,10.09q-4.5,0-9,0c-5.82,0-10-4.05-10-9.81q0-76.24,0-152.48c0-5.86,4-9.75,10-9.8q4.5,0,9,0c6.28,0,10.15,3.85,10.16,10.09,0,20.63,0,41.27,0,62.79,1.64-1.41,2.75-2.25,3.72-3.23q33.05-33,66-66.18a10.53,10.53,0,0,1,8.75-3.55,115,115,0,0,0,16,0c5-.44,4.86,3.48,6.38,6.14s1.19,4.66-1.14,7c-18.39,18.13-36.65,36.41-54.94,54.64C152,125.77,151.44,126.4,150.55,127.37Z"/></g></g></g></svg>