<?xml version="1.0" encoding="UTF-8" ?>
<!DOCTYPE svg PUBLIC "-//W3C//DTD SVG 1.1//EN" "http://www.w3.org/Graphics/SVG/1.1/DTD/svg11.dtd">
<svg width="317pt" height="314pt" viewBox="0 0 317 314" version="1.1" xmlns="http://www.w3.org/2000/svg">
<g id="#afcfffff">
<path fill="#afcfff" opacity="1.00" d=" M 163.28 0.00 L 163.40 0.00 C 186.20 10.92 208.88 22.10 231.78 32.80 C 194.80 39.61 157.85 46.60 120.83 53.15 C 135.01 35.46 149.10 17.70 163.28 0.00 Z" />
<path fill="#afcfff" opacity="1.00" d=" M 68.75 38.71 C 92.43 26.78 116.68 15.88 140.33 3.86 C 110.63 41.40 80.64 78.71 50.87 116.20 C 56.92 90.40 62.44 64.43 68.75 38.71 Z" />
</g>
<g id="#4279f4ff">
<path fill="#4279f4" opacity="1.00" d=" M 109.99 71.16 C 154.98 62.43 200.19 54.65 245.20 45.99 C 251.10 70.98 256.80 96.04 262.35 121.12 C 244.60 107.06 227.10 92.68 209.30 78.68 C 205.79 75.79 200.50 77.42 198.23 81.07 C 170.29 116.75 142.25 152.35 114.42 188.12 C 113.32 156.77 111.83 125.42 110.79 94.06 C 110.09 86.44 110.04 78.80 109.99 71.16 Z" />
<path fill="#4279f4" opacity="1.00" d=" M 86.97 254.21 C 90.25 254.19 93.53 254.19 96.81 254.20 C 96.80 260.47 96.84 266.73 96.79 273.00 C 100.98 271.41 105.64 271.58 110.03 272.05 C 117.42 273.57 121.86 281.02 122.45 288.13 C 123.44 296.04 121.44 305.52 114.03 309.80 C 105.74 314.29 96.00 312.70 86.97 313.00 C 86.97 293.40 86.96 273.81 86.97 254.21 M 96.81 281.99 C 96.83 289.24 96.80 296.48 96.82 303.72 C 100.84 303.75 105.14 303.90 108.74 301.81 C 112.83 298.99 113.12 293.42 112.72 288.93 C 112.23 285.88 111.09 282.21 107.87 281.10 C 104.19 280.34 100.38 280.98 96.81 281.99 Z" />
<path fill="#4279f4" opacity="1.00" d=" M 0.00 258.13 C 3.43 257.97 6.87 257.97 10.31 258.00 C 10.27 265.96 10.32 273.93 10.28 281.89 C 17.27 273.92 24.20 265.89 31.27 257.99 C 35.32 258.00 39.37 258.00 43.42 257.99 C 36.20 266.10 29.08 274.29 21.82 282.36 C 29.41 292.68 37.23 302.82 45.03 312.99 C 40.84 313.00 36.66 313.02 32.47 312.96 C 26.88 305.27 20.95 297.83 15.19 290.26 C 13.53 292.00 11.91 293.79 10.30 295.58 C 10.29 301.39 10.29 307.19 10.30 313.00 C 6.87 313.01 3.43 313.01 0.00 312.92 L 0.00 258.13 Z" />
<path fill="#4279f4" opacity="1.00" d=" M 127.40 286.55 C 128.80 279.72 134.03 273.51 141.00 272.07 C 146.31 271.30 152.44 271.39 156.56 275.35 C 162.34 280.78 162.80 289.37 162.80 296.80 C 154.09 296.83 145.39 296.76 136.68 296.84 C 138.11 299.63 139.47 303.02 142.74 304.07 C 148.85 306.17 155.48 304.05 161.12 301.48 C 161.09 304.72 161.09 307.97 161.16 311.22 C 157.66 312.75 153.91 313.53 150.15 314.00 L 145.99 314.00 C 140.40 313.49 134.58 311.45 131.18 306.74 C 126.65 301.09 126.36 293.40 127.40 286.55 M 137.05 288.50 C 142.34 288.44 147.63 288.51 152.93 288.45 C 151.87 285.48 150.76 281.44 147.10 280.89 C 142.16 279.80 138.26 284.17 137.05 288.50 Z" />
<path fill="#4279f4" opacity="1.00" d=" M 45.95 272.79 C 49.24 272.79 52.53 272.80 55.82 272.80 C 55.84 282.53 55.71 292.26 55.90 301.99 C 59.79 305.79 66.28 305.86 70.07 301.86 C 69.96 292.18 70.07 282.49 70.02 272.80 C 73.32 272.79 76.62 272.79 79.92 272.80 C 79.82 282.53 80.07 292.28 79.81 302.01 C 78.86 309.34 71.22 313.35 64.51 314.00 L 61.59 314.00 C 54.78 313.46 47.04 309.47 46.07 302.03 C 45.76 292.29 46.04 282.54 45.95 272.79 Z" />
</g>
<g id="#6ca1ffff">
<path fill="#6ca1ff" opacity="1.00" d=" M 52.03 139.46 C 66.30 121.48 80.69 103.60 94.94 85.61 C 95.90 110.05 96.71 134.51 97.94 158.94 C 97.92 165.30 98.00 171.67 98.63 178.02 C 99.30 184.96 98.84 191.95 99.37 198.91 C 85.37 181.77 71.77 164.30 57.89 147.06 C 56.00 144.47 53.67 142.22 52.03 139.46 Z" />
</g>
<g id="#014bd1ff">
<path fill="#014bd1" opacity="1.00" d=" M 155.80 160.17 C 172.73 138.82 189.32 117.20 206.32 95.92 C 224.28 110.46 242.31 124.90 260.36 139.33 C 243.61 160.76 226.44 181.87 209.58 203.21 C 191.58 188.96 173.73 174.52 155.80 160.17 Z" />
</g>
<g id="#0028aaff">
<path fill="#0028aa" opacity="1.00" d=" M 117.44 209.21 C 127.04 196.88 136.73 184.61 146.33 172.28 C 161.52 184.71 176.98 196.83 192.21 209.21 C 167.29 209.18 142.37 209.17 117.44 209.21 Z" />
<path fill="#0028aa" opacity="1.00" d=" M 175.62 257.70 C 180.43 252.73 187.97 254.94 194.10 254.45 C 194.11 257.53 194.11 260.62 194.10 263.71 C 190.50 263.71 186.89 263.55 183.31 264.03 C 182.15 266.81 182.15 269.83 182.26 272.80 C 185.51 272.79 188.75 272.79 191.99 272.80 C 192.00 275.83 192.00 278.86 191.99 281.89 C 188.74 281.88 185.50 281.89 182.25 281.90 C 182.29 292.26 182.25 302.63 182.27 313.00 C 178.98 313.00 175.68 313.00 172.38 313.00 C 172.45 302.63 172.39 292.26 172.42 281.89 C 170.59 281.89 168.77 281.90 166.95 281.91 C 166.94 278.87 166.94 275.83 166.95 272.80 C 168.77 272.79 170.60 272.79 172.43 272.78 C 172.49 267.71 171.53 261.57 175.62 257.70 Z" />
<path fill="#0028aa" opacity="1.00" d=" M 198.94 254.32 C 202.19 254.31 205.44 254.31 208.69 254.32 C 208.72 273.88 208.65 293.44 208.73 313.00 C 205.46 313.00 202.20 313.00 198.93 312.99 C 198.93 293.44 198.92 273.88 198.94 254.32 Z" />
<path fill="#0028aa" opacity="1.00" d=" M 220.49 278.43 C 228.77 268.92 245.77 269.36 253.46 279.41 C 260.06 287.52 259.48 300.60 251.85 307.86 C 248.41 311.61 243.44 313.45 238.47 314.00 L 234.68 314.00 C 226.12 313.46 218.16 307.33 216.02 298.94 C 213.79 291.95 215.64 283.90 220.49 278.43 M 232.38 281.42 C 228.90 282.65 226.33 285.83 225.44 289.36 C 223.61 295.41 227.01 302.92 233.41 304.45 C 240.54 306.84 248.75 300.55 248.04 292.99 C 249.01 284.81 239.91 278.30 232.38 281.42 Z" />
<path fill="#0028aa" opacity="1.00" d=" M 258.87 272.78 C 262.35 272.80 265.84 272.81 269.32 272.75 C 271.94 280.80 273.78 289.09 276.62 297.06 C 278.25 288.85 281.43 281.03 283.23 272.86 C 286.21 272.81 289.20 272.67 292.18 272.85 C 295.13 280.72 296.62 289.17 299.70 297.03 C 301.21 288.80 304.38 280.98 306.26 272.83 C 309.81 272.77 313.36 272.80 316.91 272.78 C 312.49 286.14 308.47 299.63 304.14 313.03 C 300.86 313.00 297.58 313.03 294.30 312.92 C 292.56 305.25 290.27 297.71 288.05 290.17 C 285.80 297.74 283.74 305.36 281.71 312.99 C 278.26 313.00 274.81 313.08 271.37 312.85 C 267.47 299.42 263.17 286.09 258.87 272.78 Z" />
</g>
</svg>
