<?xml version="1.0" encoding="UTF-8" ?>
<!DOCTYPE svg PUBLIC "-//W3C//DTD SVG 1.1//EN" "http://www.w3.org/Graphics/SVG/1.1/DTD/svg11.dtd">
<svg width="381pt" height="560pt" viewBox="0 0 381 560" version="1.1" xmlns="http://www.w3.org/2000/svg">
<g id="#ffffffff">
<path fill="#ffffff" opacity="1.00" d=" M 183.73 3.79 C 186.04 2.63 188.20 0.62 190.92 0.69 C 193.67 1.43 195.95 3.28 198.42 4.61 C 257.72 38.99 317.01 73.37 376.32 107.72 C 378.01 108.69 379.55 109.89 381.00 111.19 L 381.00 326.98 C 380.25 328.51 379.38 330.06 377.77 330.82 C 347.35 348.47 316.90 366.05 286.51 383.75 C 286.51 399.19 286.47 414.62 286.53 430.06 C 287.64 437.41 287.93 444.96 286.58 452.30 C 286.37 464.88 286.58 477.48 286.51 490.06 C 286.48 491.69 286.40 493.74 284.60 494.43 C 253.06 512.98 221.11 530.84 189.81 549.78 C 188.75 548.45 187.66 547.14 186.73 545.73 C 188.08 537.57 187.30 529.24 187.50 521.00 C 187.48 498.31 187.54 475.62 187.47 452.94 C 186.19 445.37 186.26 437.62 187.48 430.05 C 187.56 394.81 187.42 359.57 187.55 324.33 C 218.04 306.34 248.89 288.94 279.47 271.10 C 280.98 270.41 280.27 268.36 280.52 267.07 C 280.45 233.70 280.54 200.33 280.48 166.97 C 250.44 149.64 220.42 132.28 190.35 115.01 C 160.41 132.30 130.44 149.55 100.51 166.85 C 100.49 198.23 100.50 229.61 100.50 260.99 C 100.48 265.39 100.64 269.79 100.26 274.18 C 69.21 292.56 38.01 310.68 6.93 329.00 C 4.89 330.59 2.30 329.82 0.00 329.49 L 0.00 111.77 C 1.57 108.66 5.06 107.56 7.81 105.78 C 66.46 71.80 125.11 37.82 183.73 3.79 M 188.87 7.90 C 130.61 41.61 72.41 75.44 14.15 109.15 C 11.66 110.75 8.67 111.80 6.71 114.07 C 6.40 116.36 6.49 118.69 6.48 121.00 C 6.67 151.92 6.24 182.86 6.69 213.78 C 23.98 204.13 41.00 194.01 58.20 184.21 C 101.11 159.44 144.05 134.71 186.95 109.93 C 188.85 108.66 191.31 108.24 193.27 109.64 C 229.27 130.32 265.14 151.22 301.25 171.71 C 325.63 185.68 349.84 199.96 374.34 213.70 C 374.72 182.12 374.34 150.53 374.53 118.94 C 374.36 116.69 375.16 113.58 372.48 112.55 C 312.75 77.91 252.98 43.33 193.28 8.63 C 191.93 7.97 190.31 6.69 188.87 7.90 M 12.02 218.02 C 10.28 219.02 8.51 219.99 6.92 221.22 C 6.31 222.71 6.55 224.38 6.47 225.95 C 6.63 257.94 6.31 289.93 6.63 321.91 C 35.46 305.41 63.96 288.35 92.67 271.64 C 95.05 270.81 94.37 268.00 94.53 266.05 C 94.38 234.25 94.67 202.45 94.39 170.65 C 66.84 186.29 39.53 202.32 12.02 218.02 M 286.63 170.64 C 286.42 202.70 286.42 234.77 286.64 266.83 C 296.17 261.76 305.37 256.09 314.77 250.78 C 333.20 240.04 351.83 229.64 370.13 218.68 C 342.29 202.68 314.58 186.45 286.63 170.64 M 366.06 227.93 C 353.11 235.76 339.83 243.01 326.82 250.73 C 312.76 258.62 298.97 266.99 284.85 274.77 C 255.45 291.63 226.16 308.69 196.74 325.50 C 194.04 326.56 193.45 329.33 193.58 331.96 C 193.68 357.31 193.60 382.65 193.64 408.00 C 193.67 415.20 193.37 422.40 193.88 429.59 C 197.61 428.40 201.06 426.57 204.31 424.39 C 236.41 405.79 268.53 387.19 300.75 368.79 C 324.34 355.02 347.97 341.32 371.66 327.75 C 374.94 326.12 374.33 322.04 374.48 319.01 C 374.10 287.25 374.70 255.47 374.18 223.71 C 371.43 225.03 368.68 226.37 366.06 227.93 M 227.66 417.70 C 216.51 424.32 205.03 430.42 194.06 437.31 C 192.87 440.66 193.74 444.47 193.50 448.01 C 193.61 478.65 193.32 509.30 193.64 539.94 C 221.98 524.00 249.94 507.38 278.12 491.18 C 281.28 490.17 280.38 486.58 280.53 484.03 C 280.36 451.85 280.69 419.66 280.36 387.49 C 262.65 397.29 245.25 407.67 227.66 417.70 Z" />
</g>
<g id="#f7911fff">
<path fill="#f7911f" opacity="1.00" d=" M 188.87 7.90 C 190.31 6.69 191.93 7.97 193.28 8.63 C 252.98 43.33 312.75 77.91 372.48 112.55 C 375.16 113.58 374.36 116.69 374.53 118.94 C 374.34 150.53 374.72 182.12 374.34 213.70 C 349.84 199.96 325.63 185.68 301.25 171.71 C 265.14 151.22 229.27 130.32 193.27 109.64 C 191.31 108.24 188.85 108.66 186.95 109.93 C 144.05 134.71 101.11 159.44 58.20 184.21 C 41.00 194.01 23.98 204.13 6.69 213.78 C 6.24 182.86 6.67 151.92 6.48 121.00 C 6.49 118.69 6.40 116.36 6.71 114.07 C 8.67 111.80 11.66 110.75 14.15 109.15 C 72.41 75.44 130.61 41.61 188.87 7.90 Z" />
</g>
<g id="#01b6cdff">
<path fill="#01b6cd" opacity="1.00" d=" M 12.02 218.02 C 39.53 202.32 66.84 186.29 94.39 170.65 C 94.67 202.45 94.38 234.25 94.53 266.05 C 94.37 268.00 95.05 270.81 92.67 271.64 C 63.96 288.35 35.46 305.41 6.63 321.91 C 6.31 289.93 6.63 257.94 6.47 225.95 C 6.55 224.38 6.31 222.71 6.92 221.22 C 8.51 219.99 10.28 219.02 12.02 218.02 Z" />
</g>
<g id="#f06528fe">
<path fill="#f06528" opacity="1.00" d=" M 286.63 170.64 C 314.58 186.45 342.29 202.68 370.13 218.68 C 351.83 229.64 333.20 240.04 314.77 250.78 C 305.37 256.09 296.17 261.76 286.64 266.83 C 286.42 234.77 286.42 202.70 286.63 170.64 Z" />
<path fill="#f06528" opacity="1.00" d=" M 227.66 417.70 C 245.25 407.67 262.65 397.29 280.36 387.49 C 280.69 419.66 280.36 451.85 280.53 484.03 C 280.38 486.58 281.28 490.17 278.12 491.18 C 249.94 507.38 221.98 524.00 193.64 539.94 C 193.32 509.30 193.61 478.65 193.50 448.01 C 193.74 444.47 192.87 440.66 194.06 437.31 C 205.03 430.42 216.51 424.32 227.66 417.70 Z" />
</g>
<g id="#caf0f9ff">
<path fill="#caf0f9" opacity="1.00" d=" M 366.06 227.93 C 368.68 226.37 371.43 225.03 374.18 223.71 C 374.70 255.47 374.10 287.25 374.48 319.01 C 374.33 322.04 374.94 326.12 371.66 327.75 C 347.97 341.32 324.34 355.02 300.75 368.79 C 268.53 387.19 236.41 405.79 204.31 424.39 C 201.06 426.57 197.61 428.40 193.88 429.59 C 193.37 422.40 193.67 415.20 193.64 408.00 C 193.60 382.65 193.68 357.31 193.58 331.96 C 193.45 329.33 194.04 326.56 196.74 325.50 C 226.16 308.69 255.45 291.63 284.85 274.77 C 298.97 266.99 312.76 258.62 326.82 250.73 C 339.83 243.01 353.11 235.76 366.06 227.93 Z" />
</g>
</svg>
