<svg xmlns="http://www.w3.org/2000/svg" viewBox="0 0 957 460"><defs><style>.cls-1{fill:#f2f2f0;}.cls-2,.cls-5{fill:none;}.cls-2,.cls-4{stroke:#424240;}.cls-2{stroke-linejoin:round;}.cls-3{fill-opacity:0;}.cls-4{fill:#424240;stroke-miterlimit:10;}</style></defs><title>1_1</title><g id="Layer_2" data-name="Layer 2"><g id="Layer_1-2" data-name="Layer 1"><path class="cls-1" d="M243.24,171.47h0a14.64,14.64,0,0,1,14.64-14.64H377.42a14.64,14.64,0,0,1,14.64,14.64V230a14.64,14.64,0,0,1-14.64,14.64H257.88A14.64,14.64,0,0,1,243.24,230Z"/><path class="cls-2" d="M243.24,171.47h0a14.64,14.64,0,0,1,14.64-14.64H377.42a14.64,14.64,0,0,1,14.64,14.64V230a14.64,14.64,0,0,1-14.64,14.64H257.88A14.64,14.64,0,0,1,243.24,230Z"/><path d="M288.88,196.86a5.5,5.5,0,0,1-3.37-1,3.6,3.6,0,0,1-1.39-2.94.38.38,0,0,1,.11-.28.36.36,0,0,1,.28-.12h1a.42.42,0,0,1,.45.42,2.37,2.37,0,0,0,.94,1.8,3.49,3.49,0,0,0,2,.58,2.66,2.66,0,0,0,2.19-.94,3.81,3.81,0,0,0,.78-2.52v-6.69h-6.66a.38.38,0,0,1-.42-.42V184a.46.46,0,0,1,.11-.31.42.42,0,0,1,.31-.12h8a.43.43,0,0,1,.45.45v7.83a5.67,5.67,0,0,1-.58,2.63,4.12,4.12,0,0,1-1.64,1.73A5.13,5.13,0,0,1,288.88,196.86Zm11.23,0a3.39,3.39,0,0,1-2.73-1.14,4.61,4.61,0,0,1-1-3.06v-5.25a.46.46,0,0,1,.11-.31.42.42,0,0,1,.31-.12h.86a.37.37,0,0,1,.3.13.42.42,0,0,1,.13.31v5.16q0,2.84,2.47,2.84a2.47,2.47,0,0,0,1.89-.75,3,3,0,0,0,.7-2.09v-5.16a.42.42,0,0,1,.13-.31.41.41,0,0,1,.3-.12h.86a.43.43,0,0,1,.44.44v8.84a.41.41,0,0,1-.12.3.42.42,0,0,1-.31.13h-.8a.42.42,0,0,1-.31-.12.44.44,0,0,1-.11-.3v-.84A3.75,3.75,0,0,1,302,196.5,4.12,4.12,0,0,1,300.11,196.86Zm8,3.36a.46.46,0,0,1-.31-.11.45.45,0,0,1-.11-.33V187.41a.45.45,0,0,1,.11-.33.46.46,0,0,1,.31-.11h.78a.42.42,0,0,1,.31.11.41.41,0,0,1,.13.33v.81a3.62,3.62,0,0,1,3.08-1.44,3.51,3.51,0,0,1,2.94,1.25,5.11,5.11,0,0,1,1,3.16q0,.2,0,.64t0,.63a5.16,5.16,0,0,1-1,3.16,4,4,0,0,1-6-.17v4.34a.42.42,0,0,1-.12.31.37.37,0,0,1-.3.13Zm3.94-4.81a2.24,2.24,0,0,0,2-.84,3.84,3.84,0,0,0,.67-2.2,3.44,3.44,0,0,0,0-.53q0-3.59-2.66-3.59a2.33,2.33,0,0,0-2,.88,3.51,3.51,0,0,0-.7,2q0,.2,0,.72t0,.73a3.25,3.25,0,0,0,.72,2A2.4,2.4,0,0,0,312.07,195.41Zm8,4.81a.38.38,0,0,1-.28-.11.36.36,0,0,1-.11-.27,1.72,1.72,0,0,1,.09-.34l1.45-3.41-3.56-8.42a.85.85,0,0,1-.11-.31.44.44,0,0,1,.13-.28A.4.4,0,0,1,318,187h.86a.49.49,0,0,1,.45.3l2.88,6.88,2.94-6.87a.49.49,0,0,1,.45-.3h.84a.34.34,0,0,1,.25.11.36.36,0,0,1,.11.27.84.84,0,0,1-.09.33l-5.27,12.25a.83.83,0,0,1-.2.22.45.45,0,0,1-.27.08Zm12.27-3.55q-2.89,0-2.89-3.27v-5H328a.38.38,0,0,1-.41-.41v-.59a.46.46,0,0,1,.11-.31.37.37,0,0,1,.3-.12h1.47v-3.11a.46.46,0,0,1,.11-.31.42.42,0,0,1,.31-.12h.81a.43.43,0,0,1,.44.44V187h2.31a.37.37,0,0,1,.3.13.42.42,0,0,1,.13.31V188a.37.37,0,0,1-.12.3.4.4,0,0,1-.3.11h-2.31v4.88a2.79,2.79,0,0,0,.3,1.44,1.17,1.17,0,0,0,1.06.48h1.14a.36.36,0,0,1,.28.13.37.37,0,0,1,.13.3v.63a.41.41,0,0,1-.12.3.36.36,0,0,1-.28.13Zm7.36.19a4,4,0,0,1-3-1.19,4.87,4.87,0,0,1-1.25-3.23l0-.64,0-.61a4.83,4.83,0,0,1,1.25-3.2,4,4,0,0,1,3-1.2,4,4,0,0,1,3.17,1.31,5.23,5.23,0,0,1,1.13,3.55V192a.42.42,0,0,1-.12.31.37.37,0,0,1-.3.13h-6.47v.16a3.44,3.44,0,0,0,.73,2.08,2.22,2.22,0,0,0,1.83.86,2.64,2.64,0,0,0,1.42-.34,3,3,0,0,0,.84-.72,1.21,1.21,0,0,1,.25-.28.8.8,0,0,1,.33,0h.81a.48.48,0,0,1,.3.09.3.3,0,0,1,.13.25,1.64,1.64,0,0,1-.52,1,4.1,4.1,0,0,1-1.42,1A5,5,0,0,1,339.73,196.86Zm2.61-5.73v0a3.09,3.09,0,0,0-.72-2.12,2.59,2.59,0,0,0-3.8,0,3.18,3.18,0,0,0-.69,2.13v0Zm4.4,5.55a.42.42,0,0,1-.31-.12.44.44,0,0,1-.11-.3v-8.83a.46.46,0,0,1,.11-.31.4.4,0,0,1,.31-.14h.78a.43.43,0,0,1,.45.45v.81a2.79,2.79,0,0,1,2.59-1.27h.72a.42.42,0,0,1,.31.11.41.41,0,0,1,.13.33v.69a.4.4,0,0,1-.44.42h-1.06a2.14,2.14,0,0,0-1.61.61,2.17,2.17,0,0,0-.59,1.61v5.52a.41.41,0,0,1-.12.3.42.42,0,0,1-.31.13Z"/><path d="M273.47,218.67a.37.37,0,0,1-.3-.12.44.44,0,0,1-.11-.3V206.06a.48.48,0,0,1,.11-.33.37.37,0,0,1,.3-.12h.83a.43.43,0,0,1,.28.08,1.59,1.59,0,0,1,.19.19L281,215.5v-9.44a.48.48,0,0,1,.11-.33.42.42,0,0,1,.31-.12h.84a.43.43,0,0,1,.45.45v12.16a.48.48,0,0,1-.12.33.42.42,0,0,1-.31.13h-.84a.44.44,0,0,1-.44-.27l-6.25-9.53v9.38a.41.41,0,0,1-.12.3.42.42,0,0,1-.31.13Zm16.21.19a4.17,4.17,0,0,1-3.16-1.16,4.54,4.54,0,0,1-1.19-3.08l0-.8,0-.81a4.5,4.5,0,0,1,1.2-3.08,4.84,4.84,0,0,1,6.28,0A4.47,4.47,0,0,1,294,213q0,.41,0,.81t0,.8a4.54,4.54,0,0,1-1.19,3.08A4.19,4.19,0,0,1,289.68,218.86Zm0-1.41a2.44,2.44,0,0,0,1.89-.75,3.28,3.28,0,0,0,.77-2.17q0-.19,0-.7t0-.72a3.28,3.28,0,0,0-.77-2.17,2.44,2.44,0,0,0-1.89-.75,2.47,2.47,0,0,0-1.89.75,3.33,3.33,0,0,0-.75,2.17l0,.72,0,.7a3.33,3.33,0,0,0,.75,2.17A2.47,2.47,0,0,0,289.68,217.45Zm10.37,1.22q-2.89,0-2.89-3.27v-5h-1.47a.38.38,0,0,1-.41-.41v-.59a.46.46,0,0,1,.11-.31.37.37,0,0,1,.3-.12h1.47v-3.11a.46.46,0,0,1,.11-.31.42.42,0,0,1,.31-.12h.81a.43.43,0,0,1,.44.44V209h2.31a.37.37,0,0,1,.3.13.42.42,0,0,1,.13.31V210a.37.37,0,0,1-.12.3.4.4,0,0,1-.3.11h-2.31v4.88a2.79,2.79,0,0,0,.3,1.44,1.17,1.17,0,0,0,1.06.48h1.14a.36.36,0,0,1,.28.13.37.37,0,0,1,.13.3v.63a.41.41,0,0,1-.12.3.36.36,0,0,1-.28.13Zm7.36.19a4,4,0,0,1-3-1.19,4.87,4.87,0,0,1-1.25-3.23l0-.64,0-.61a4.83,4.83,0,0,1,1.25-3.2,4,4,0,0,1,3-1.2,4,4,0,0,1,3.17,1.31,5.23,5.23,0,0,1,1.13,3.55V214a.42.42,0,0,1-.12.31.37.37,0,0,1-.3.13h-6.47v.16a3.44,3.44,0,0,0,.73,2.08,2.22,2.22,0,0,0,1.83.86,2.64,2.64,0,0,0,1.42-.34,3,3,0,0,0,.84-.72,1.21,1.21,0,0,1,.25-.28.8.8,0,0,1,.33,0H311a.48.48,0,0,1,.3.09.3.3,0,0,1,.13.25,1.64,1.64,0,0,1-.52,1,4.1,4.1,0,0,1-1.42,1A5,5,0,0,1,307.42,218.86Zm2.61-5.73v0a3.09,3.09,0,0,0-.72-2.12,2.59,2.59,0,0,0-3.8,0,3.18,3.18,0,0,0-.69,2.13v0Zm8.71,5.73a3.61,3.61,0,0,1-3.08-1.42v.81a.41.41,0,0,1-.12.3.42.42,0,0,1-.31.13h-.78a.42.42,0,0,1-.31-.12.44.44,0,0,1-.11-.3V205.86a.4.4,0,0,1,.42-.44h.84a.37.37,0,0,1,.3.13.42.42,0,0,1,.13.31v4.31a3.56,3.56,0,0,1,3-1.39,3.47,3.47,0,0,1,2.94,1.28,5.33,5.33,0,0,1,1,3.2q0,.2,0,.56t0,.55a5.33,5.33,0,0,1-1,3.2A3.47,3.47,0,0,1,318.74,218.86Zm-.36-1.45a2.24,2.24,0,0,0,2-.84,3.84,3.84,0,0,0,.67-2.2,3.44,3.44,0,0,0,0-.53q0-3.59-2.66-3.59a2.38,2.38,0,0,0-2,.84,3.23,3.23,0,0,0-.72,2q0,.22,0,.73t0,.7a3.61,3.61,0,0,0,.7,2.08A2.35,2.35,0,0,0,318.38,217.41ZM329,218.86a4.17,4.17,0,0,1-3.16-1.16,4.54,4.54,0,0,1-1.19-3.08l0-.8,0-.81a4.5,4.5,0,0,1,1.2-3.08,4.84,4.84,0,0,1,6.28,0,4.47,4.47,0,0,1,1.22,3.08q0,.41,0,.81t0,.8a4.54,4.54,0,0,1-1.19,3.08A4.19,4.19,0,0,1,329,218.86Zm0-1.41a2.44,2.44,0,0,0,1.89-.75,3.28,3.28,0,0,0,.77-2.17q0-.19,0-.7t0-.72a3.28,3.28,0,0,0-.77-2.17,2.44,2.44,0,0,0-1.89-.75,2.47,2.47,0,0,0-1.89.75,3.33,3.33,0,0,0-.75,2.17l0,.72,0,.7a3.33,3.33,0,0,0,.75,2.17A2.47,2.47,0,0,0,329,217.45Zm10.67,1.41a4.17,4.17,0,0,1-3.16-1.16,4.54,4.54,0,0,1-1.19-3.08l0-.8,0-.81a4.5,4.5,0,0,1,1.2-3.08,4.84,4.84,0,0,1,6.28,0A4.47,4.47,0,0,1,344,213q0,.41,0,.81t0,.8a4.54,4.54,0,0,1-1.19,3.08A4.19,4.19,0,0,1,339.68,218.86Zm0-1.41a2.44,2.44,0,0,0,1.89-.75,3.28,3.28,0,0,0,.77-2.17q0-.19,0-.7t0-.72a3.28,3.28,0,0,0-.77-2.17,2.44,2.44,0,0,0-1.89-.75,2.47,2.47,0,0,0-1.89.75,3.33,3.33,0,0,0-.75,2.17l0,.72,0,.7a3.33,3.33,0,0,0,.75,2.17A2.47,2.47,0,0,0,339.68,217.45Zm7.19,1.22a.42.42,0,0,1-.31-.12.44.44,0,0,1-.11-.3V205.86a.4.4,0,0,1,.42-.44h.81a.41.41,0,0,1,.3.13.42.42,0,0,1,.13.31v6.5l3.73-3.08a2.6,2.6,0,0,1,.39-.25.76.76,0,0,1,.36-.06h.92a.33.33,0,0,1,.27.11.35.35,0,0,1,.11.28.52.52,0,0,1-.2.36l-4.36,3.58,4.83,4.63a.56.56,0,0,1,.2.36.38.38,0,0,1-.11.28.33.33,0,0,1-.27.11h-.91a1.26,1.26,0,0,1-.41,0,1.7,1.7,0,0,1-.34-.27l-4.22-4v3.89a.43.43,0,0,1-.42.42Zm12.26.19a5,5,0,0,1-2.17-.42,3.8,3.8,0,0,1-1.33-1,1.64,1.64,0,0,1-.42-.91.33.33,0,0,1,.13-.28.48.48,0,0,1,.3-.11h.78a.28.28,0,0,1,.17,0,.69.69,0,0,1,.17.16,3.42,3.42,0,0,0,1,.83,2.92,2.92,0,0,0,1.42.3,3,3,0,0,0,1.61-.37,1.19,1.19,0,0,0,.61-1.08,1,1,0,0,0-.27-.75,2.09,2.09,0,0,0-.86-.5,16.08,16.08,0,0,0-1.8-.48,4.68,4.68,0,0,1-2.3-1,2.35,2.35,0,0,1-.67-1.73,2.45,2.45,0,0,1,.41-1.33,3.1,3.1,0,0,1,1.22-1,4.29,4.29,0,0,1,1.94-.41,4.66,4.66,0,0,1,2,.39,3.26,3.26,0,0,1,1.25.92,1.51,1.51,0,0,1,.42.88.36.36,0,0,1-.12.28.38.38,0,0,1-.28.11h-.7a.39.39,0,0,1-.37-.2,5.46,5.46,0,0,0-.53-.55,1.76,1.76,0,0,0-.62-.34,3.2,3.2,0,0,0-1-.14,2.17,2.17,0,0,0-1.39.39,1.22,1.22,0,0,0-.48,1,1,1,0,0,0,.2.66,1.86,1.86,0,0,0,.78.5,11.34,11.34,0,0,0,1.72.48,5.31,5.31,0,0,1,2.5,1.06,2.31,2.31,0,0,1,.73,1.77,2.53,2.53,0,0,1-.45,1.47,3,3,0,0,1-1.36,1A5.62,5.62,0,0,1,359.12,218.86Z"/><path class="cls-1" d="M86.88,166.76h0c0-9.39,18.24-17,40.75-17s40.75,7.61,40.75,17v68c0,9.39-18.24,17-40.75,17s-40.75-7.61-40.75-17Z"/><path class="cls-3" d="M168.38,166.76h0c0,9.39-18.24,17-40.75,17s-40.75-7.61-40.75-17"/><path class="cls-3" d="M86.88,166.76h0c0-9.39,18.24-17,40.75-17s40.75,7.61,40.75,17v68c0,9.39-18.24,17-40.75,17s-40.75-7.61-40.75-17Z"/><path class="cls-2" d="M168.38,166.76h0c0,9.39-18.24,17-40.75,17s-40.75-7.61-40.75-17"/><path class="cls-2" d="M86.88,166.76h0c0-9.39,18.24-17,40.75-17s40.75,7.61,40.75,17v68c0,9.39-18.24,17-40.75,17s-40.75-7.61-40.75-17Z"/><path d="M105.15,200.87l1.66-.14a3.81,3.81,0,0,0,.55,1.64,3.11,3.11,0,0,0,1.34,1,5.24,5.24,0,0,0,2.06.39,5,5,0,0,0,1.78-.3,2.46,2.46,0,0,0,1.16-.81,2,2,0,0,0,.38-1.16,1.7,1.7,0,0,0-.37-1.09,2.72,2.72,0,0,0-1.19-.8q-.55-.2-2.39-.64a12.41,12.41,0,0,1-2.56-.84,3.62,3.62,0,0,1-1.44-1.23,3.09,3.09,0,0,1-.47-1.67,3.34,3.34,0,0,1,.58-1.87A3.54,3.54,0,0,1,107.9,192a6.43,6.43,0,0,1,2.45-.45,6.55,6.55,0,0,1,2.61.48,3.69,3.69,0,0,1,1.75,1.41,4,4,0,0,1,.66,2.09l-1.69.13a2.71,2.71,0,0,0-.94-1.91,3.52,3.52,0,0,0-2.31-.66,3.72,3.72,0,0,0-2.34.59,1.78,1.78,0,0,0-.73,1.42,1.47,1.47,0,0,0,.53,1.17,6.94,6.94,0,0,0,2.66,1,17.77,17.77,0,0,1,3,.84,3.93,3.93,0,0,1,1.72,1.36,3.31,3.31,0,0,1,.56,1.91,3.68,3.68,0,0,1-.61,2,4.08,4.08,0,0,1-1.75,1.47,6.19,6.19,0,0,1-2.58.52,7.71,7.71,0,0,1-3-.53,4.31,4.31,0,0,1-1.92-1.59A4.53,4.53,0,0,1,105.15,200.87Zm16.41,2.83.23,1.45a6.22,6.22,0,0,1-1.23.14,2.86,2.86,0,0,1-1.39-.28,1.61,1.61,0,0,1-.69-.73,5.85,5.85,0,0,1-.2-1.94v-5.58h-1.2V195.5h1.2v-2.39l1.63-1v3.38h1.66v1.27H119.9v5.67a3.11,3.11,0,0,0,.08.89.78.78,0,0,0,.28.33,1.24,1.24,0,0,0,.58.11A5.56,5.56,0,0,0,121.56,203.7Zm7.92.28a6.53,6.53,0,0,1-1.77,1.09,5,5,0,0,1-1.8.31,3.52,3.52,0,0,1-2.45-.78,2.72,2.72,0,0,1-.53-3.28,2.63,2.63,0,0,1,.84-.94,4.13,4.13,0,0,1,1.19-.55,12.08,12.08,0,0,1,1.45-.25,14.87,14.87,0,0,0,2.92-.56q0-.34,0-.42a1.84,1.84,0,0,0-.47-1.42,2.78,2.78,0,0,0-1.87-.55,2.87,2.87,0,0,0-1.7.41,2.49,2.49,0,0,0-.81,1.42l-1.61-.22a3.91,3.91,0,0,1,.72-1.64,3.13,3.13,0,0,1,1.45-1,6.43,6.43,0,0,1,2.19-.34,5.68,5.68,0,0,1,2,.3,2.49,2.49,0,0,1,1.14.73,2.44,2.44,0,0,1,.52,1.11,9.75,9.75,0,0,1,.08,1.52v2.19a22.27,22.27,0,0,0,.11,2.89,4,4,0,0,0,.41,1.16h-1.7A3.22,3.22,0,0,1,129.48,204Zm-.14-3.67a11.37,11.37,0,0,1-2.67.63,5.91,5.91,0,0,0-1.44.33,1.52,1.52,0,0,0-.66.53,1.42,1.42,0,0,0-.22.78,1.39,1.39,0,0,0,.5,1.09,2.14,2.14,0,0,0,1.45.44,3.4,3.4,0,0,0,1.67-.41,2.56,2.56,0,0,0,1.09-1.14,4,4,0,0,0,.27-1.64Zm7.78,3.39.23,1.45a6.22,6.22,0,0,1-1.23.14,2.86,2.86,0,0,1-1.39-.28,1.61,1.61,0,0,1-.69-.73,5.85,5.85,0,0,1-.2-1.94v-5.58h-1.2V195.5h1.2v-2.39l1.63-1v3.38h1.66v1.27h-1.66v5.67a3.11,3.11,0,0,0,.08.89.78.78,0,0,0,.28.33,1.24,1.24,0,0,0,.58.11A5.56,5.56,0,0,0,137.12,203.7Zm1.61-10v-1.89h1.64v1.89Zm0,11.47V195.5h1.64v9.67Zm10.46-3.55,1.61.22a4.21,4.21,0,0,1-1.36,2.61,3.93,3.93,0,0,1-2.67.94,4.14,4.14,0,0,1-3.19-1.3,5.27,5.27,0,0,1-1.2-3.72,6.78,6.78,0,0,1,.52-2.75,3.55,3.55,0,0,1,1.58-1.75,4.66,4.66,0,0,1,2.31-.59,4,4,0,0,1,2.58.8,3.65,3.65,0,0,1,1.28,2.27l-1.59.23a2.64,2.64,0,0,0-.81-1.45,2.05,2.05,0,0,0-1.39-.5,2.56,2.56,0,0,0-2,.89,4.2,4.2,0,0,0-.78,2.81,4.38,4.38,0,0,0,.75,2.84,2.45,2.45,0,0,0,2,.88,2.28,2.28,0,0,0,1.61-.59A2.92,2.92,0,0,0,149.18,201.62Z"/><path d="M117,227.17V226a3,3,0,0,1-2.7,1.44,3.77,3.77,0,0,1-2.12-.64,4.21,4.21,0,0,1-1.5-1.78,6.15,6.15,0,0,1-.53-2.62,6.81,6.81,0,0,1,.48-2.62A3.82,3.82,0,0,1,112,217.9a3.92,3.92,0,0,1,2.17-.62,3.27,3.27,0,0,1,2.66,1.33v-4.8h1.64v13.36Zm-5.17-4.83a4.22,4.22,0,0,0,.78,2.78,2.35,2.35,0,0,0,1.84.92,2.32,2.32,0,0,0,1.83-.87,4.1,4.1,0,0,0,.75-2.69,4.51,4.51,0,0,0-.77-2.91,2.35,2.35,0,0,0-1.89-.94,2.26,2.26,0,0,0-1.81.89A4.39,4.39,0,0,0,111.81,222.34ZM127.4,226a6.53,6.53,0,0,1-1.77,1.09,5,5,0,0,1-1.8.31,3.52,3.52,0,0,1-2.45-.78,2.72,2.72,0,0,1-.53-3.28,2.63,2.63,0,0,1,.84-.94,4.13,4.13,0,0,1,1.19-.55,12.08,12.08,0,0,1,1.45-.25,14.87,14.87,0,0,0,2.92-.56q0-.34,0-.42a1.84,1.84,0,0,0-.47-1.42,2.78,2.78,0,0,0-1.87-.55,2.87,2.87,0,0,0-1.7.41,2.49,2.49,0,0,0-.81,1.42l-1.61-.22a3.91,3.91,0,0,1,.72-1.64,3.13,3.13,0,0,1,1.45-1,6.43,6.43,0,0,1,2.19-.34,5.68,5.68,0,0,1,2,.3,2.49,2.49,0,0,1,1.14.73,2.44,2.44,0,0,1,.52,1.11,9.75,9.75,0,0,1,.08,1.52v2.19A22.27,22.27,0,0,0,129,226a4,4,0,0,0,.41,1.16h-1.7A3.22,3.22,0,0,1,127.4,226Zm-.14-3.67a11.37,11.37,0,0,1-2.67.63,5.91,5.91,0,0,0-1.44.33,1.52,1.52,0,0,0-.66.53,1.42,1.42,0,0,0-.22.78,1.39,1.39,0,0,0,.5,1.09,2.14,2.14,0,0,0,1.45.44,3.4,3.4,0,0,0,1.67-.41,2.56,2.56,0,0,0,1.09-1.14,4,4,0,0,0,.27-1.64ZM135,225.7l.23,1.45a6.22,6.22,0,0,1-1.23.14,2.86,2.86,0,0,1-1.39-.28,1.61,1.61,0,0,1-.69-.73,5.85,5.85,0,0,1-.2-1.94v-5.58h-1.2V217.5h1.2v-2.39l1.63-1v3.38H135v1.27h-1.66v5.67a3.11,3.11,0,0,0,.08.89.78.78,0,0,0,.28.33,1.24,1.24,0,0,0,.58.11A5.56,5.56,0,0,0,135,225.7ZM143,226a6.53,6.53,0,0,1-1.77,1.09,5,5,0,0,1-1.8.31,3.52,3.52,0,0,1-2.45-.78,2.72,2.72,0,0,1-.53-3.28,2.63,2.63,0,0,1,.84-.94,4.13,4.13,0,0,1,1.19-.55,12.08,12.08,0,0,1,1.45-.25,14.87,14.87,0,0,0,2.92-.56q0-.34,0-.42a1.84,1.84,0,0,0-.47-1.42,2.78,2.78,0,0,0-1.87-.55,2.87,2.87,0,0,0-1.7.41,2.49,2.49,0,0,0-.81,1.42l-1.61-.22a3.91,3.91,0,0,1,.72-1.64,3.13,3.13,0,0,1,1.45-1,6.43,6.43,0,0,1,2.19-.34,5.68,5.68,0,0,1,2,.3,2.49,2.49,0,0,1,1.14.73,2.44,2.44,0,0,1,.52,1.11,9.75,9.75,0,0,1,.08,1.52v2.19a22.27,22.27,0,0,0,.11,2.89,4,4,0,0,0,.41,1.16h-1.7A3.22,3.22,0,0,1,143,226Zm-.14-3.67a11.37,11.37,0,0,1-2.67.63,5.91,5.91,0,0,0-1.44.33,1.52,1.52,0,0,0-.66.53,1.42,1.42,0,0,0-.22.78,1.39,1.39,0,0,0,.5,1.09,2.14,2.14,0,0,0,1.45.44,3.4,3.4,0,0,0,1.67-.41,2.56,2.56,0,0,0,1.09-1.14,4,4,0,0,0,.27-1.64Z"/><path class="cls-1" d="M479,79.93H638v76c-79.48,0-79.48,28.94-159,12.5Z"/><path class="cls-2" d="M479,79.93H638v76c-79.48,0-79.48,28.94-159,12.5Z"/><path d="M489.47,124.83V111.47h9.66V113h-7.87v4.09h7.38v1.56h-7.37v4.55h8.19v1.58Zm11.12,0,3.53-5-3.27-4.64h2l1.48,2.27q.42.64.67,1.08l.73-1.06,1.64-2.28h2L506,119.7l3.59,5.13h-2l-2-3-.52-.81-2.55,3.81Zm10.42,3.7V115.16h1.48v1.25a3.65,3.65,0,0,1,1.19-1.09,3.29,3.29,0,0,1,1.63-.37,3.76,3.76,0,0,1,2.17.64,3.83,3.83,0,0,1,1.44,1.8,7,7,0,0,1,0,5.22,4,4,0,0,1-3.69,2.45,3.12,3.12,0,0,1-1.47-.34,3.15,3.15,0,0,1-1.06-.87v4.7Zm1.48-8.48a4.28,4.28,0,0,0,.75,2.77,2.34,2.34,0,0,0,1.83.89,2.38,2.38,0,0,0,1.88-.92,4.43,4.43,0,0,0,.78-2.87,4.25,4.25,0,0,0-.77-2.77,2.26,2.26,0,0,0-1.81-.92,2.37,2.37,0,0,0-1.86,1A4.39,4.39,0,0,0,512.49,120Zm8.28-.06a5,5,0,0,1,1.48-4,4.5,4.5,0,0,1,3-1.08,4.34,4.34,0,0,1,3.27,1.31,5,5,0,0,1,1.27,3.61,6.41,6.41,0,0,1-.56,2.94,4,4,0,0,1-1.64,1.66,4.69,4.69,0,0,1-2.33.59,4.35,4.35,0,0,1-3.28-1.3A5.25,5.25,0,0,1,520.77,120Zm1.69,0a4.23,4.23,0,0,0,.8,2.8,2.72,2.72,0,0,0,4.08,0,4.25,4.25,0,0,0,.81-2.84,4,4,0,0,0-.81-2.72,2.72,2.72,0,0,0-4.08,0A4.1,4.1,0,0,0,522.46,120Zm9.28,4.84v-9.67h1.47v1.47a4.07,4.07,0,0,1,1-1.36,1.86,1.86,0,0,1,1.06-.33,3.2,3.2,0,0,1,1.69.53l-.56,1.52a2.36,2.36,0,0,0-1.2-.36,1.53,1.53,0,0,0-1,.33,1.83,1.83,0,0,0-.61.89,6.25,6.25,0,0,0-.28,1.92v5.06Zm9.81-1.47.23,1.45a6.22,6.22,0,0,1-1.23.14,2.86,2.86,0,0,1-1.39-.28,1.61,1.61,0,0,1-.69-.73,5.85,5.85,0,0,1-.2-1.94v-5.58h-1.2v-1.27h1.2v-2.39l1.63-1v3.38h1.66v1.27h-1.66v5.67a3.11,3.11,0,0,0,.08.89.78.78,0,0,0,.28.33,1.24,1.24,0,0,0,.58.11A5.56,5.56,0,0,0,541.55,123.36Zm8.23-1.64,1.69.2a4.21,4.21,0,0,1-1.48,2.31,5.07,5.07,0,0,1-6.14-.48,5.15,5.15,0,0,1-1.23-3.67,5.37,5.37,0,0,1,1.25-3.8,4.28,4.28,0,0,1,3.27-1.34,4.09,4.09,0,0,1,3.16,1.33,5.2,5.2,0,0,1,1.23,3.7v.44h-7.22a3.77,3.77,0,0,0,.91,2.45,2.69,2.69,0,0,0,2,.84,2.55,2.55,0,0,0,1.55-.47A3.21,3.21,0,0,0,549.78,121.72Zm-5.39-2.66h5.41a3.24,3.24,0,0,0-.62-1.83,2.5,2.5,0,0,0-2-1,2.62,2.62,0,0,0-1.91.77A3,3,0,0,0,544.39,119.06Zm15.41,5.77v-1.22a3,3,0,0,1-2.7,1.44,3.77,3.77,0,0,1-2.12-.64,4.21,4.21,0,0,1-1.5-1.78,6.15,6.15,0,0,1-.53-2.62,6.81,6.81,0,0,1,.48-2.62,3.82,3.82,0,0,1,1.44-1.81,3.92,3.92,0,0,1,2.17-.62,3.27,3.27,0,0,1,2.66,1.33v-4.8h1.64v13.36ZM554.62,120a4.22,4.22,0,0,0,.78,2.78,2.35,2.35,0,0,0,1.84.92,2.32,2.32,0,0,0,1.83-.87,4.1,4.1,0,0,0,.75-2.69,4.51,4.51,0,0,0-.77-2.91,2.35,2.35,0,0,0-1.89-.94,2.26,2.26,0,0,0-1.81.89A4.39,4.39,0,0,0,554.62,120Zm14.47,4.83v-9.67h1.47v1.36a3.33,3.33,0,0,1,1.2-1.14,3.4,3.4,0,0,1,1.72-.44,3.15,3.15,0,0,1,1.77.45,2.34,2.34,0,0,1,1,1.23,3.49,3.49,0,0,1,3-1.69,2.94,2.94,0,0,1,2.22.8,3.38,3.38,0,0,1,.78,2.45v6.64h-1.64v-6.09a4.46,4.46,0,0,0-.16-1.41,1.36,1.36,0,0,0-.58-.7,1.81,1.81,0,0,0-1-.27,2.26,2.26,0,0,0-1.69.69,3,3,0,0,0-.67,2.16v5.63h-1.64v-6.28a2.74,2.74,0,0,0-.41-1.64,1.53,1.53,0,0,0-1.31-.55,2.43,2.43,0,0,0-1.28.36,2,2,0,0,0-.86,1.06,6.36,6.36,0,0,0-.25,2v5ZM584,120a5,5,0,0,1,1.48-4,4.5,4.5,0,0,1,3-1.08,4.34,4.34,0,0,1,3.27,1.31,5,5,0,0,1,1.27,3.61,6.41,6.41,0,0,1-.56,2.94,4,4,0,0,1-1.64,1.66,4.69,4.69,0,0,1-2.33.59,4.35,4.35,0,0,1-3.28-1.3A5.25,5.25,0,0,1,584,120Zm1.69,0a4.23,4.23,0,0,0,.8,2.8,2.72,2.72,0,0,0,4.08,0,4.25,4.25,0,0,0,.81-2.84,4,4,0,0,0-.81-2.72,2.72,2.72,0,0,0-4.08,0A4.1,4.1,0,0,0,585.71,120Zm15.56,4.84v-1.22a3,3,0,0,1-2.7,1.44,3.77,3.77,0,0,1-2.12-.64,4.21,4.21,0,0,1-1.5-1.78,6.15,6.15,0,0,1-.53-2.62,6.81,6.81,0,0,1,.48-2.62,3.82,3.82,0,0,1,1.44-1.81,3.92,3.92,0,0,1,2.17-.62,3.27,3.27,0,0,1,2.66,1.33v-4.8h1.64v13.36ZM596.1,120a4.22,4.22,0,0,0,.78,2.78,2.35,2.35,0,0,0,1.84.92,2.32,2.32,0,0,0,1.83-.87,4.1,4.1,0,0,0,.75-2.69,4.51,4.51,0,0,0-.77-2.91,2.35,2.35,0,0,0-1.89-.94,2.26,2.26,0,0,0-1.81.89A4.39,4.39,0,0,0,596.1,120ZM612,121.72l1.69.2a4.21,4.21,0,0,1-1.48,2.31,5.07,5.07,0,0,1-6.14-.48,5.15,5.15,0,0,1-1.23-3.67,5.37,5.37,0,0,1,1.25-3.8,4.28,4.28,0,0,1,3.27-1.34,4.09,4.09,0,0,1,3.16,1.33,5.2,5.2,0,0,1,1.23,3.7v.44h-7.22a3.77,3.77,0,0,0,.91,2.45,2.69,2.69,0,0,0,2,.84,2.55,2.55,0,0,0,1.55-.47A3.21,3.21,0,0,0,612,121.72Zm-5.39-2.66H612a3.24,3.24,0,0,0-.62-1.83,2.5,2.5,0,0,0-2-1,2.62,2.62,0,0,0-1.91.77A3,3,0,0,0,606.61,119.06Zm9.09,5.77V111.47h1.64v13.36Z"/><path class="cls-1" d="M479,237.79H638v76c-79.48,0-79.48,28.94-159,12.5Z"/><path class="cls-2" d="M479,237.79H638v76c-79.48,0-79.48,28.94-159,12.5Z"/><path d="M489.61,262.85a.32.32,0,0,1-.23-.09.38.38,0,0,1-.08-.25v-9.56a.38.38,0,0,1,.08-.25.3.3,0,0,1,.23-.11h6a.31.31,0,0,1,.25.11.34.34,0,0,1,.09.25v.53a.32.32,0,0,1-.09.23.38.38,0,0,1-.25.08h-5v3.27h4.67a.37.37,0,0,1,.36.36v.5a.3.3,0,0,1-.11.23.34.34,0,0,1-.25.09h-4.67v3.39h5.11a.33.33,0,0,1,.36.36v.52a.31.31,0,0,1-.11.25.34.34,0,0,1-.25.09Zm10.79,0a.57.57,0,0,1-.55-.36l-2.72-6.81a.39.39,0,0,1,0-.14.3.3,0,0,1,.08-.22.3.3,0,0,1,.22-.09h.67a.36.36,0,0,1,.34.23l2.27,5.86,2.25-5.86a.41.41,0,0,1,.13-.16.35.35,0,0,1,.23-.08H504a.25.25,0,0,1,.2.09.27.27,0,0,1,.09.22l0,.14-2.72,6.81a.54.54,0,0,1-.53.36Zm7.25.14a3.13,3.13,0,0,1-1.33-.28,2.56,2.56,0,0,1-1-.8,2,2,0,0,1,.42-2.7,4.53,4.53,0,0,1,2.16-.83l2.2-.31v-.42q0-1.52-1.75-1.52a1.86,1.86,0,0,0-1.08.28,1.78,1.78,0,0,0-.61.64.33.33,0,0,1-.12.19.28.28,0,0,1-.17,0h-.58a.35.35,0,0,1-.23-.09.3.3,0,0,1-.09-.22,1.4,1.4,0,0,1,.31-.78,2.64,2.64,0,0,1,1-.78,3.57,3.57,0,0,1,1.61-.33,3.06,3.06,0,0,1,2.34.77,2.64,2.64,0,0,1,.72,1.91v4.75a.34.34,0,0,1-.09.25.32.32,0,0,1-.23.09h-.66a.32.32,0,0,1-.23-.09.38.38,0,0,1-.08-.25v-.64a2.55,2.55,0,0,1-1,.81A3.46,3.46,0,0,1,507.65,263Zm.3-1.06a2.11,2.11,0,0,0,1.58-.62,2.53,2.53,0,0,0,.63-1.84v-.41l-1.72.25a3.88,3.88,0,0,0-1.59.5,1,1,0,0,0-.55.88,1.06,1.06,0,0,0,.48.94A2.16,2.16,0,0,0,507.94,261.93Zm6,.92a.32.32,0,0,1-.34-.34v-9.72a.31.31,0,0,1,.09-.25.34.34,0,0,1,.25-.09h.64a.32.32,0,0,1,.34.34v9.72a.32.32,0,0,1-.34.34Zm6,.14a2.69,2.69,0,0,1-2.16-.89,3.65,3.65,0,0,1-.75-2.41v-4.13a.34.34,0,0,1,.09-.25.32.32,0,0,1,.23-.09h.67a.32.32,0,0,1,.34.34v4.06q0,2.22,1.94,2.22a1.92,1.92,0,0,0,1.48-.59,2.31,2.31,0,0,0,.55-1.62v-4.06a.32.32,0,0,1,.34-.34h.67a.32.32,0,0,1,.23.09.34.34,0,0,1,.09.25v6.94a.34.34,0,0,1-.09.25.32.32,0,0,1-.23.09h-.62a.32.32,0,0,1-.34-.34v-.66a2.7,2.7,0,0,1-1,.86A3.25,3.25,0,0,1,520,263Zm8.06,0a3.13,3.13,0,0,1-1.33-.28,2.56,2.56,0,0,1-1-.8,2,2,0,0,1,.42-2.7,4.53,4.53,0,0,1,2.16-.83l2.2-.31v-.42q0-1.52-1.75-1.52a1.86,1.86,0,0,0-1.08.28,1.78,1.78,0,0,0-.61.64.33.33,0,0,1-.12.19.28.28,0,0,1-.17,0h-.58a.35.35,0,0,1-.23-.09.3.3,0,0,1-.09-.22,1.4,1.4,0,0,1,.31-.78,2.64,2.64,0,0,1,1-.78,3.57,3.57,0,0,1,1.61-.33,3.06,3.06,0,0,1,2.34.77,2.64,2.64,0,0,1,.72,1.91v4.75a.34.34,0,0,1-.09.25.32.32,0,0,1-.23.09h-.66a.32.32,0,0,1-.23-.09.38.38,0,0,1-.08-.25v-.64a2.55,2.55,0,0,1-1,.81A3.46,3.46,0,0,1,528,263Zm.3-1.06a2.11,2.11,0,0,0,1.58-.62,2.53,2.53,0,0,0,.63-1.84v-.41l-1.72.25a3.88,3.88,0,0,0-1.59.5,1,1,0,0,0-.55.88,1.06,1.06,0,0,0,.48.94A2.16,2.16,0,0,0,528.33,261.93Zm8.52.92q-2.27,0-2.27-2.56v-3.94h-1.17a.28.28,0,0,1-.31-.31v-.47a.38.38,0,0,1,.08-.25.32.32,0,0,1,.23-.09h1.17v-2.44a.38.38,0,0,1,.08-.25.32.32,0,0,1,.23-.09h.64a.32.32,0,0,1,.34.34v2.44h1.81a.32.32,0,0,1,.34.34V256a.32.32,0,0,1-.09.23.38.38,0,0,1-.25.08h-1.81v3.83a2.25,2.25,0,0,0,.23,1.14.94.94,0,0,0,.84.38h.89a.27.27,0,0,1,.22.09.32.32,0,0,1,.09.23v.48a.34.34,0,0,1-.09.25.27.27,0,0,1-.22.09Zm3-9.06a.32.32,0,0,1-.33-.33v-.77a.37.37,0,0,1,.09-.25.3.3,0,0,1,.23-.11h.88a.3.3,0,0,1,.23.11.34.34,0,0,1,.11.25v.77a.3.3,0,0,1-.11.23.32.32,0,0,1-.23.09Zm.13,9.06a.37.37,0,0,1-.25-.09.34.34,0,0,1-.09-.25v-6.94a.34.34,0,0,1,.09-.25.37.37,0,0,1,.25-.09h.64a.32.32,0,0,1,.34.34v6.94a.32.32,0,0,1-.34.34Zm6.27.14a3.29,3.29,0,0,1-2.48-.91,3.5,3.5,0,0,1-.92-2.42l0-.62,0-.62a3.47,3.47,0,0,1,.94-2.42,3.82,3.82,0,0,1,4.94,0,3.52,3.52,0,0,1,1,2.42q0,.31,0,.63t0,.63a3.56,3.56,0,0,1-.94,2.42A3.29,3.29,0,0,1,546.21,263Zm0-1.09a1.92,1.92,0,0,0,1.48-.59,2.49,2.49,0,0,0,.59-1.7q0-.16,0-.56t0-.56a2.49,2.49,0,0,0-.59-1.7,2.15,2.15,0,0,0-3,0,2.6,2.6,0,0,0-.59,1.7l0,.56,0,.56a2.6,2.6,0,0,0,.59,1.7A1.92,1.92,0,0,0,546.21,261.89Zm5.63,1a.37.37,0,0,1-.25-.09.34.34,0,0,1-.09-.25v-6.94a.34.34,0,0,1,.09-.25.37.37,0,0,1,.25-.09h.63a.32.32,0,0,1,.34.34v.64a3,3,0,0,1,1-.83,3.13,3.13,0,0,1,1.44-.3,2.73,2.73,0,0,1,2.19.91,3.47,3.47,0,0,1,.78,2.38v4.14a.32.32,0,0,1-.34.34h-.67a.32.32,0,0,1-.23-.09.34.34,0,0,1-.09-.25v-4a2.38,2.38,0,0,0-.52-1.64,1.84,1.84,0,0,0-1.47-.59,2,2,0,0,0-1.5.59,2.33,2.33,0,0,0-.55,1.64v4a.31.31,0,0,1-.11.25.32.32,0,0,1-.23.09Zm12.46,0a.37.37,0,0,1-.25-.09.34.34,0,0,1-.09-.25v-6.92a.34.34,0,0,1,.09-.25.34.34,0,0,1,.25-.11h.61a.33.33,0,0,1,.36.36v.64a2.17,2.17,0,0,1,2-1h.58a.29.29,0,0,1,.23.09.31.31,0,0,1,.09.25v.55a.32.32,0,0,1-.09.23.29.29,0,0,1-.23.09H567a1.71,1.71,0,0,0-1.27.47,1.77,1.77,0,0,0-.45,1.28v4.31a.31.31,0,0,1-.11.25.34.34,0,0,1-.25.09Zm8.05.14a3.22,3.22,0,0,1-2.41-.92,3.83,3.83,0,0,1-1-2.55l0-.5,0-.48a3.79,3.79,0,0,1,1-2.52,3.19,3.19,0,0,1,2.41-.94,3.08,3.08,0,0,1,2.48,1,4.07,4.07,0,0,1,.89,2.78v.27a.32.32,0,0,1-.33.33h-5.09v.14a2.77,2.77,0,0,0,.58,1.63,1.78,1.78,0,0,0,1.45.67,2.06,2.06,0,0,0,1.11-.27,2.45,2.45,0,0,0,.66-.58.87.87,0,0,1,.2-.2.51.51,0,0,1,.25,0h.64a.35.35,0,0,1,.23.08.24.24,0,0,1,.09.19,1.28,1.28,0,0,1-.41.78,3.18,3.18,0,0,1-1.11.78A4,4,0,0,1,572.35,263Zm2-4.5v0a2.44,2.44,0,0,0-.56-1.67,2,2,0,0,0-3,0,2.49,2.49,0,0,0-.55,1.67v0Zm5.72,4.5a4,4,0,0,1-1.7-.33,2.92,2.92,0,0,1-1-.75,1.26,1.26,0,0,1-.33-.7.27.27,0,0,1,.09-.22.35.35,0,0,1,.23-.09H578a.26.26,0,0,1,.14,0,.44.44,0,0,1,.14.14,2.86,2.86,0,0,0,.75.64,2.32,2.32,0,0,0,1.13.23,2.35,2.35,0,0,0,1.27-.3.94.94,0,0,0,.48-.84.84.84,0,0,0-.2-.59,1.73,1.73,0,0,0-.69-.39,12.94,12.94,0,0,0-1.41-.39,3.59,3.59,0,0,1-1.81-.8,1.84,1.84,0,0,1-.53-1.36,1.88,1.88,0,0,1,.33-1,2.33,2.33,0,0,1,1-.83,3.46,3.46,0,0,1,1.53-.31,3.54,3.54,0,0,1,1.56.31,2.54,2.54,0,0,1,1,.72,1.2,1.2,0,0,1,.33.69.3.3,0,0,1-.09.22.33.33,0,0,1-.22.08h-.56a.32.32,0,0,1-.3-.16,6,6,0,0,0-.42-.44,1.23,1.23,0,0,0-.48-.27,2.45,2.45,0,0,0-.8-.11,1.74,1.74,0,0,0-1.11.31,1,1,0,0,0-.37.8.86.86,0,0,0,.16.52,1.54,1.54,0,0,0,.63.41,9.66,9.66,0,0,0,1.34.36,4.15,4.15,0,0,1,2,.84,1.8,1.8,0,0,1,.58,1.39,2,2,0,0,1-.36,1.14,2.37,2.37,0,0,1-1.08.81A4.54,4.54,0,0,1,580.12,263Zm7.68,0a2.69,2.69,0,0,1-2.16-.89,3.65,3.65,0,0,1-.75-2.41v-4.13a.34.34,0,0,1,.09-.25.32.32,0,0,1,.23-.09h.67a.32.32,0,0,1,.34.34v4.06q0,2.22,1.94,2.22a1.92,1.92,0,0,0,1.48-.59,2.31,2.31,0,0,0,.55-1.62v-4.06a.32.32,0,0,1,.34-.34h.67a.32.32,0,0,1,.23.09.34.34,0,0,1,.09.25v6.94a.34.34,0,0,1-.09.25.32.32,0,0,1-.23.09h-.62a.32.32,0,0,1-.34-.34v-.66a2.7,2.7,0,0,1-1,.86A3.25,3.25,0,0,1,587.8,263Zm6.31-.14a.32.32,0,0,1-.34-.34v-9.72a.31.31,0,0,1,.09-.25.34.34,0,0,1,.25-.09h.64a.32.32,0,0,1,.34.34v9.72a.32.32,0,0,1-.34.34Zm6.11,0q-2.27,0-2.27-2.56v-3.94h-1.17a.28.28,0,0,1-.31-.31v-.47a.38.38,0,0,1,.08-.25.32.32,0,0,1,.23-.09H598v-2.44a.38.38,0,0,1,.08-.25.32.32,0,0,1,.23-.09h.64a.32.32,0,0,1,.34.34v2.44h1.81a.32.32,0,0,1,.34.34V256a.32.32,0,0,1-.09.23.38.38,0,0,1-.25.08h-1.81v3.83a2.25,2.25,0,0,0,.23,1.14.94.94,0,0,0,.84.38h.89a.27.27,0,0,1,.22.09.32.32,0,0,1,.09.23v.48a.34.34,0,0,1-.09.25.27.27,0,0,1-.22.09Zm5.36.14a4,4,0,0,1-1.7-.33,2.92,2.92,0,0,1-1-.75,1.26,1.26,0,0,1-.33-.7.27.27,0,0,1,.09-.22.35.35,0,0,1,.23-.09h.61a.26.26,0,0,1,.14,0,.44.44,0,0,1,.14.14,2.86,2.86,0,0,0,.75.64,2.32,2.32,0,0,0,1.13.23,2.35,2.35,0,0,0,1.27-.3.94.94,0,0,0,.48-.84.84.84,0,0,0-.2-.59,1.73,1.73,0,0,0-.69-.39,12.94,12.94,0,0,0-1.41-.39,3.59,3.59,0,0,1-1.81-.8,1.84,1.84,0,0,1-.53-1.36,1.88,1.88,0,0,1,.33-1,2.33,2.33,0,0,1,1-.83,3.46,3.46,0,0,1,1.53-.31,3.54,3.54,0,0,1,1.56.31,2.54,2.54,0,0,1,1,.72,1.2,1.2,0,0,1,.33.69.3.3,0,0,1-.09.22.33.33,0,0,1-.22.08h-.56a.32.32,0,0,1-.3-.16,6,6,0,0,0-.42-.44,1.23,1.23,0,0,0-.48-.27,2.45,2.45,0,0,0-.8-.11,1.74,1.74,0,0,0-1.11.31,1,1,0,0,0-.37.8.86.86,0,0,0,.16.52,1.54,1.54,0,0,0,.63.41,9.66,9.66,0,0,0,1.34.36,4.15,4.15,0,0,1,2,.84,1.8,1.8,0,0,1,.58,1.39,2,2,0,0,1-.36,1.14,2.37,2.37,0,0,1-1.08.81A4.54,4.54,0,0,1,605.58,263Zm5.09-5.27a.32.32,0,0,1-.23-.09.38.38,0,0,1-.08-.25v-1a.38.38,0,0,1,.08-.25.32.32,0,0,1,.23-.09h1a.34.34,0,0,1,.25.09.31.31,0,0,1,.11.25v1a.31.31,0,0,1-.11.25.37.37,0,0,1-.25.09Zm0,5.13a.32.32,0,0,1-.23-.09.38.38,0,0,1-.08-.25v-1a.4.4,0,0,1,.08-.27.32.32,0,0,1,.23-.09h1a.34.34,0,0,1,.25.09.33.33,0,0,1,.11.27v1a.31.31,0,0,1-.11.25.37.37,0,0,1-.25.09Z"/><path d="M489.61,280.85a.32.32,0,0,1-.23-.09.38.38,0,0,1-.08-.25v-9.56a.38.38,0,0,1,.08-.25.3.3,0,0,1,.23-.11h6a.31.31,0,0,1,.25.11.34.34,0,0,1,.09.25v.53a.32.32,0,0,1-.09.23.38.38,0,0,1-.25.08h-5v3.27h4.67a.37.37,0,0,1,.36.36v.5a.3.3,0,0,1-.11.23.34.34,0,0,1-.25.09h-4.67v3.39h5.11a.33.33,0,0,1,.36.36v.52a.31.31,0,0,1-.11.25.34.34,0,0,1-.25.09Zm8,0a.28.28,0,0,1-.31-.31.51.51,0,0,1,.11-.28l2.55-3.31-2.39-3.14a.5.5,0,0,1-.11-.27.27.27,0,0,1,.09-.22.28.28,0,0,1,.2-.09h.7a.49.49,0,0,1,.39.23l2,2.56,2-2.56a1.33,1.33,0,0,1,.17-.17.32.32,0,0,1,.2-.06h.67a.32.32,0,0,1,.3.3.5.5,0,0,1-.09.28L501.63,277l2.55,3.28a.51.51,0,0,1,.11.28.32.32,0,0,1-.09.23.33.33,0,0,1-.22.08h-.72a.45.45,0,0,1-.37-.22l-2.11-2.72-2.09,2.72a.81.81,0,0,1-.17.16.32.32,0,0,1-.2.06Zm11.06.14a3.29,3.29,0,0,1-2.44-.87,3.55,3.55,0,0,1-.92-2.48l0-.59,0-.58a3.51,3.51,0,0,1,.92-2.48,3.26,3.26,0,0,1,2.44-.89,3.82,3.82,0,0,1,1.78.38,2.73,2.73,0,0,1,1.09.94,2.23,2.23,0,0,1,.39,1.11.28.28,0,0,1-.09.23.37.37,0,0,1-.25.09H511a.37.37,0,0,1-.23-.06.85.85,0,0,1-.14-.23,1.87,1.87,0,0,0-.72-1,2.07,2.07,0,0,0-1.17-.31,1.93,1.93,0,0,0-1.47.58,2.61,2.61,0,0,0-.58,1.73l0,.52,0,.52a2.68,2.68,0,0,0,.58,1.75,2,2,0,0,0,1.47.56,2.1,2.1,0,0,0,1.17-.3,1.87,1.87,0,0,0,.72-1,.83.83,0,0,1,.14-.25.37.37,0,0,1,.23-.06h.64a.34.34,0,0,1,.25.11.26.26,0,0,1,.09.23,2.29,2.29,0,0,1-.39,1.09,2.73,2.73,0,0,1-1.09.94A3.82,3.82,0,0,1,508.67,281Zm8,0a3.22,3.22,0,0,1-2.41-.92,3.83,3.83,0,0,1-1-2.55l0-.5,0-.48a3.79,3.79,0,0,1,1-2.52,3.19,3.19,0,0,1,2.41-.94,3.08,3.08,0,0,1,2.48,1,4.07,4.07,0,0,1,.89,2.78v.27a.32.32,0,0,1-.33.33h-5.09v.14a2.77,2.77,0,0,0,.58,1.63,1.78,1.78,0,0,0,1.45.67,2.06,2.06,0,0,0,1.11-.27,2.45,2.45,0,0,0,.66-.58.87.87,0,0,1,.2-.2.51.51,0,0,1,.25,0h.64a.35.35,0,0,1,.23.08.24.24,0,0,1,.09.19,1.28,1.28,0,0,1-.41.78,3.18,3.18,0,0,1-1.11.78A4,4,0,0,1,516.72,281Zm2-4.5v0a2.44,2.44,0,0,0-.56-1.67,2,2,0,0,0-3,0,2.49,2.49,0,0,0-.55,1.67v0Zm3.47,4.36a.32.32,0,0,1-.34-.34v-9.72a.31.31,0,0,1,.09-.25.34.34,0,0,1,.25-.09h.64a.32.32,0,0,1,.34.34v9.72a.32.32,0,0,1-.34.34Zm3.08,1.09a.23.23,0,0,1-.2-.09.22.22,0,0,1,0-.2l.31-2.08q.06-.42.42-.42h.94a.31.31,0,0,1,.25.25.55.55,0,0,1-.06.25l-.77,2a.43.43,0,0,1-.41.33Zm11.19-1a3.92,3.92,0,0,1-3-1.06,4.31,4.31,0,0,1-1.09-2.91q0-.39,0-1.28t0-1.33a4.31,4.31,0,0,1,1.09-2.91,3.92,3.92,0,0,1,3-1.06,4.79,4.79,0,0,1,2.22.47,3.21,3.21,0,0,1,1.36,1.2,3.31,3.31,0,0,1,.52,1.59.27.27,0,0,1-.09.22.35.35,0,0,1-.23.08h-.73a.41.41,0,0,1-.23-.06.57.57,0,0,1-.12-.27,2.47,2.47,0,0,0-.91-1.58,3.06,3.06,0,0,0-1.77-.45q-2.55,0-2.66,2.84,0,.39,0,1.22t0,1.23q.11,2.84,2.66,2.84a3,3,0,0,0,1.75-.45,2.5,2.5,0,0,0,.92-1.58.56.56,0,0,1,.13-.25.35.35,0,0,1,.23-.08h.73a.32.32,0,0,1,.23.09.25.25,0,0,1,.09.2,3.31,3.31,0,0,1-1.87,2.81A4.93,4.93,0,0,1,536.51,281Zm9.36,0a5.37,5.37,0,0,1-2.09-.37,3.2,3.2,0,0,1-1.36-1,2.43,2.43,0,0,1-.48-1.34.25.25,0,0,1,.09-.2.3.3,0,0,1,.22-.09H543a.36.36,0,0,1,.36.3,1.83,1.83,0,0,0,.77,1.06,3,3,0,0,0,1.78.45,3.17,3.17,0,0,0,1.84-.44,1.43,1.43,0,0,0,.63-1.22,1.19,1.19,0,0,0-.3-.83,2.34,2.34,0,0,0-.89-.56,17.4,17.4,0,0,0-1.78-.59,9.6,9.6,0,0,1-1.8-.69,2.8,2.8,0,0,1-1-.91,2.55,2.55,0,0,1-.33-1.36,2.46,2.46,0,0,1,.42-1.41,2.81,2.81,0,0,1,1.23-1,4.68,4.68,0,0,1,1.91-.36,4.33,4.33,0,0,1,2,.41,3.2,3.2,0,0,1,1.23,1,2.23,2.23,0,0,1,.47,1.22.32.32,0,0,1-.31.31h-.73a.4.4,0,0,1-.23-.08.38.38,0,0,1-.12-.22,1.48,1.48,0,0,0-.72-1,2.7,2.7,0,0,0-1.53-.41,2.86,2.86,0,0,0-1.59.39,1.44,1.44,0,0,0-.31,2,2.35,2.35,0,0,0,.84.58q.56.23,1.66.56a11.41,11.41,0,0,1,1.94.72,2.56,2.56,0,0,1,1.06.86,2.3,2.3,0,0,1,.36,1.34,2.5,2.5,0,0,1-1,2.14A4.69,4.69,0,0,1,545.87,281Zm8.53-.14a.53.53,0,0,1-.53-.37l-3.3-9.44,0-.16a.28.28,0,0,1,.09-.2.3.3,0,0,1,.22-.09h.7a.34.34,0,0,1,.25.09.38.38,0,0,1,.13.17l2.91,8.39,2.91-8.39a.38.38,0,0,1,.13-.17.39.39,0,0,1,.27-.09h.7a.32.32,0,0,1,.3.3.55.55,0,0,1,0,.16l-3.3,9.44a.54.54,0,0,1-.53.38Zm5.21,1.09a.23.23,0,0,1-.2-.09.22.22,0,0,1,0-.2l.31-2.08q.06-.42.42-.42h.94a.31.31,0,0,1,.25.25.55.55,0,0,1-.06.25l-.77,2a.43.43,0,0,1-.41.33Zm11.24-1a4,4,0,0,1-3-1,4.17,4.17,0,0,1-1.12-2.86q0-.44,0-1.37t0-1.37a3.74,3.74,0,0,1,4.09-3.89,4.62,4.62,0,0,1,2.17.47,3.63,3.63,0,0,1,1.36,1.13,2.42,2.42,0,0,1,.48,1.2v0a.25.25,0,0,1-.09.2.33.33,0,0,1-.22.08h-.81a.28.28,0,0,1-.2-.06.67.67,0,0,1-.12-.22,2.36,2.36,0,0,0-.87-1.16,2.75,2.75,0,0,0-1.69-.47,2.69,2.69,0,0,0-1.94.67,2.9,2.9,0,0,0-.75,2.08q0,.42,0,1.31t0,1.3a3,3,0,0,0,.75,2.11,2.69,2.69,0,0,0,1.94.67,2.79,2.79,0,0,0,2-.69,2.64,2.64,0,0,0,.75-2v-.62h-2.23a.34.34,0,0,1-.25-.09.39.39,0,0,1-.09-.27v-.44a.32.32,0,0,1,.09-.23.31.31,0,0,1,.25-.11h3.28a.32.32,0,0,1,.34.34V277a4.38,4.38,0,0,1-.48,2.09,3.26,3.26,0,0,1-1.44,1.39A4.74,4.74,0,0,1,570.85,281Zm9.14,0a3.29,3.29,0,0,1-2.48-.91,3.5,3.5,0,0,1-.92-2.42l0-.62,0-.62a3.47,3.47,0,0,1,.94-2.42,3.82,3.82,0,0,1,4.94,0,3.52,3.52,0,0,1,1,2.42q0,.31,0,.63t0,.63a3.56,3.56,0,0,1-.94,2.42A3.29,3.29,0,0,1,580,281Zm0-1.09a1.92,1.92,0,0,0,1.48-.59,2.49,2.49,0,0,0,.59-1.7q0-.16,0-.56t0-.56a2.49,2.49,0,0,0-.59-1.7,2.15,2.15,0,0,0-3,0,2.6,2.6,0,0,0-.59,1.7l0,.56,0,.56a2.6,2.6,0,0,0,.59,1.7A1.92,1.92,0,0,0,580,279.89Zm8.38,1.09a3.29,3.29,0,0,1-2.48-.91,3.5,3.5,0,0,1-.92-2.42l0-.62,0-.62a3.47,3.47,0,0,1,.94-2.42,3.82,3.82,0,0,1,4.94,0,3.52,3.52,0,0,1,1,2.42q0,.31,0,.63t0,.63a3.56,3.56,0,0,1-.94,2.42A3.29,3.29,0,0,1,588.38,281Zm0-1.09a1.92,1.92,0,0,0,1.48-.59,2.49,2.49,0,0,0,.59-1.7q0-.16,0-.56t0-.56a2.49,2.49,0,0,0-.59-1.7,2.15,2.15,0,0,0-3,0,2.6,2.6,0,0,0-.59,1.7l0,.56,0,.56a2.6,2.6,0,0,0,.59,1.7A1.92,1.92,0,0,0,588.38,279.89Zm8.38,4.17a4,4,0,0,1-2-.41,2.69,2.69,0,0,1-1-.94,2,2,0,0,1-.3-.91.32.32,0,0,1,.09-.23.37.37,0,0,1,.25-.09h.64a.39.39,0,0,1,.22.06.48.48,0,0,1,.14.25A1.78,1.78,0,0,0,596.7,283a2.34,2.34,0,0,0,1.61-.47,2.13,2.13,0,0,0,.53-1.66v-1a2.81,2.81,0,0,1-2.36,1.09,2.75,2.75,0,0,1-2.33-1,4.24,4.24,0,0,1-.81-2.52l0-.42,0-.39a4.24,4.24,0,0,1,.81-2.52,2.75,2.75,0,0,1,2.33-1,2.84,2.84,0,0,1,2.39,1.13v-.62a.34.34,0,0,1,.09-.25.34.34,0,0,1,.25-.11h.63a.31.31,0,0,1,.25.11.34.34,0,0,1,.09.25v7.11Q600.18,284.07,596.76,284.07Zm0-4.28a1.83,1.83,0,0,0,1.55-.67,2.66,2.66,0,0,0,.56-1.61q0-.13,0-.52t0-.5a2.6,2.6,0,0,0-.56-1.59,1.83,1.83,0,0,0-1.55-.67,1.76,1.76,0,0,0-1.53.67,3.14,3.14,0,0,0-.52,1.72l0,.38,0,.41a3.2,3.2,0,0,0,.52,1.72A1.76,1.76,0,0,0,596.73,279.79Zm6,1.06a.32.32,0,0,1-.34-.34v-9.72a.31.31,0,0,1,.09-.25.34.34,0,0,1,.25-.09h.64a.32.32,0,0,1,.34.34v9.72a.32.32,0,0,1-.34.34Zm6.2.14a3.22,3.22,0,0,1-2.41-.92,3.83,3.83,0,0,1-1-2.55l0-.5,0-.48a3.79,3.79,0,0,1,1-2.52,3.19,3.19,0,0,1,2.41-.94,3.08,3.08,0,0,1,2.48,1,4.07,4.07,0,0,1,.89,2.78v.27a.32.32,0,0,1-.33.33H606.9v.14a2.77,2.77,0,0,0,.58,1.63,1.78,1.78,0,0,0,1.45.67,2.06,2.06,0,0,0,1.11-.27,2.45,2.45,0,0,0,.66-.58.87.87,0,0,1,.2-.2.51.51,0,0,1,.25,0h.64a.35.35,0,0,1,.23.08.24.24,0,0,1,.09.19,1.28,1.28,0,0,1-.41.78,3.18,3.18,0,0,1-1.11.78A4,4,0,0,1,608.95,281Zm2-4.5v0a2.44,2.44,0,0,0-.56-1.67,2,2,0,0,0-3,0,2.49,2.49,0,0,0-.55,1.67v0Z"/><path d="M492.56,299a5.37,5.37,0,0,1-2.09-.37,3.2,3.2,0,0,1-1.36-1,2.43,2.43,0,0,1-.48-1.34.25.25,0,0,1,.09-.2.3.3,0,0,1,.22-.09h.72a.36.36,0,0,1,.36.3,1.83,1.83,0,0,0,.77,1.06,3,3,0,0,0,1.78.45,3.17,3.17,0,0,0,1.84-.44,1.43,1.43,0,0,0,.63-1.22,1.19,1.19,0,0,0-.3-.83,2.34,2.34,0,0,0-.89-.56,17.41,17.41,0,0,0-1.78-.59,9.6,9.6,0,0,1-1.8-.69,2.8,2.8,0,0,1-1-.91,2.55,2.55,0,0,1-.33-1.36,2.46,2.46,0,0,1,.42-1.41,2.81,2.81,0,0,1,1.23-1,4.68,4.68,0,0,1,1.91-.36,4.33,4.33,0,0,1,2,.41,3.2,3.2,0,0,1,1.23,1,2.23,2.23,0,0,1,.47,1.22.32.32,0,0,1-.31.31h-.73a.4.4,0,0,1-.23-.08.38.38,0,0,1-.12-.22,1.48,1.48,0,0,0-.72-1,2.7,2.7,0,0,0-1.53-.41,2.86,2.86,0,0,0-1.59.39,1.44,1.44,0,0,0-.31,2,2.35,2.35,0,0,0,.84.58q.56.23,1.66.56a11.41,11.41,0,0,1,1.94.72,2.56,2.56,0,0,1,1.06.86,2.3,2.3,0,0,1,.36,1.34,2.5,2.5,0,0,1-1,2.14A4.69,4.69,0,0,1,492.56,299Zm6-.14a.32.32,0,0,1-.34-.34v-9.72a.31.31,0,0,1,.09-.25.34.34,0,0,1,.25-.09h.67a.34.34,0,0,1,.25.09.31.31,0,0,1,.09.25v3.41a2.81,2.81,0,0,1,1-.83,3.23,3.23,0,0,1,1.42-.28,2.73,2.73,0,0,1,2.19.91,3.43,3.43,0,0,1,.8,2.38v4.14a.32.32,0,0,1-.34.34h-.69a.37.37,0,0,1-.25-.09.34.34,0,0,1-.09-.25v-4a2.38,2.38,0,0,0-.52-1.64,1.81,1.81,0,0,0-1.47-.59,2,2,0,0,0-1.5.59,2.33,2.33,0,0,0-.55,1.64v4a.31.31,0,0,1-.11.25.32.32,0,0,1-.23.09Zm11.57.14a3.22,3.22,0,0,1-2.41-.92,3.83,3.83,0,0,1-1-2.55l0-.5,0-.48a3.79,3.79,0,0,1,1-2.52,3.19,3.19,0,0,1,2.41-.94,3.08,3.08,0,0,1,2.48,1,4.07,4.07,0,0,1,.89,2.78v.27a.32.32,0,0,1-.33.33h-5.09v.14a2.77,2.77,0,0,0,.58,1.63,1.78,1.78,0,0,0,1.45.67,2.06,2.06,0,0,0,1.11-.27,2.45,2.45,0,0,0,.66-.58.87.87,0,0,1,.2-.2.51.51,0,0,1,.25,0H513a.35.35,0,0,1,.23.08.24.24,0,0,1,.09.19,1.28,1.28,0,0,1-.41.78,3.18,3.18,0,0,1-1.11.78A4,4,0,0,1,510.11,299Zm2-4.5v0a2.44,2.44,0,0,0-.56-1.67,2,2,0,0,0-3,0,2.49,2.49,0,0,0-.55,1.67v0Zm6.15,4.5a3.22,3.22,0,0,1-2.41-.92,3.83,3.83,0,0,1-1-2.55l0-.5,0-.48a3.79,3.79,0,0,1,1-2.52,3.19,3.19,0,0,1,2.41-.94,3.08,3.08,0,0,1,2.48,1,4.07,4.07,0,0,1,.89,2.78v.27a.32.32,0,0,1-.33.33h-5.09v.14a2.77,2.77,0,0,0,.58,1.63,1.78,1.78,0,0,0,1.45.67,2.06,2.06,0,0,0,1.11-.27,2.45,2.45,0,0,0,.66-.58.87.87,0,0,1,.2-.2.51.51,0,0,1,.25,0h.64a.35.35,0,0,1,.23.08.24.24,0,0,1,.09.19,1.28,1.28,0,0,1-.41.78,3.18,3.18,0,0,1-1.11.78A4,4,0,0,1,518.3,299Zm2-4.5v0a2.44,2.44,0,0,0-.56-1.67,2,2,0,0,0-3,0,2.49,2.49,0,0,0-.55,1.67v0Zm6,4.36q-2.27,0-2.27-2.56v-3.94h-1.17a.28.28,0,0,1-.31-.31v-.47a.38.38,0,0,1,.08-.25.32.32,0,0,1,.23-.09h1.17v-2.44a.38.38,0,0,1,.08-.25.32.32,0,0,1,.23-.09H525a.32.32,0,0,1,.34.34v2.44h1.81a.32.32,0,0,1,.34.34V292a.32.32,0,0,1-.09.23.38.38,0,0,1-.25.08h-1.81v3.83a2.25,2.25,0,0,0,.23,1.14.94.94,0,0,0,.84.38h.89a.27.27,0,0,1,.22.09.32.32,0,0,1,.09.23v.48a.34.34,0,0,1-.09.25.27.27,0,0,1-.22.09Zm5.36.14a4,4,0,0,1-1.7-.33,2.92,2.92,0,0,1-1-.75,1.26,1.26,0,0,1-.33-.7.27.27,0,0,1,.09-.22.35.35,0,0,1,.23-.09h.61a.26.26,0,0,1,.14,0,.44.44,0,0,1,.14.14,2.86,2.86,0,0,0,.75.64,2.32,2.32,0,0,0,1.13.23,2.35,2.35,0,0,0,1.27-.3.94.94,0,0,0,.48-.84.84.84,0,0,0-.2-.59,1.73,1.73,0,0,0-.69-.39,12.94,12.94,0,0,0-1.41-.39,3.59,3.59,0,0,1-1.81-.8,1.84,1.84,0,0,1-.53-1.36,1.88,1.88,0,0,1,.33-1,2.33,2.33,0,0,1,1-.83,3.46,3.46,0,0,1,1.53-.31,3.54,3.54,0,0,1,1.56.31,2.54,2.54,0,0,1,1,.72,1.2,1.2,0,0,1,.33.69.3.3,0,0,1-.09.22.33.33,0,0,1-.22.08h-.56a.32.32,0,0,1-.3-.16,6,6,0,0,0-.42-.44,1.23,1.23,0,0,0-.48-.27,2.45,2.45,0,0,0-.8-.11,1.74,1.74,0,0,0-1.11.31,1,1,0,0,0-.37.8.86.86,0,0,0,.16.52,1.54,1.54,0,0,0,.63.41,9.66,9.66,0,0,0,1.34.36,4.15,4.15,0,0,1,2,.84,1.8,1.8,0,0,1,.58,1.39,2,2,0,0,1-.36,1.14,2.37,2.37,0,0,1-1.08.81A4.54,4.54,0,0,1,531.71,299Z"/><path class="cls-3" d="M392.06,200.75,479,127.3"/><path class="cls-2" d="M392.06,200.75l82.35-69.58"/><path class="cls-4" d="M475.47,132.44l2.4-4.19-4.53,1.67Z"/><path class="cls-3" d="M392.06,200.75,479,285.16"/><path class="cls-2" d="M392.06,200.75,474.68,281"/><path class="cls-4" d="M473.53,282.17l4.41,2-2.11-4.35Z"/><path class="cls-3" d="M168.38,200.75h74.87"/><path class="cls-2" d="M168.38,200.75h68.87"/><path class="cls-4" d="M237.25,202.4l4.54-1.65-4.54-1.65Z"/><rect class="cls-5" width="957" height="460"/></g></g></svg>