<svg xmlns="http://www.w3.org/2000/svg" xmlns:xlink="http://www.w3.org/1999/xlink" viewBox="0 0 1014 460"><defs><style>.cls-1,.cls-4{fill:none;}.cls-2{clip-path:url(#clip-path);}.cls-3{fill:#f2f2f0;}.cls-4,.cls-6{stroke:#424240;}.cls-4{stroke-linejoin:round;}.cls-5{fill-opacity:0;}.cls-6{fill:#424240;stroke-miterlimit:10;}</style><clipPath id="clip-path" transform="translate(0 -79)"><rect class="cls-1" x="56" width="960" height="540"/></clipPath></defs><title>5</title><g id="Layer_2" data-name="Layer 2"><g id="Layer_1-2" data-name="Layer 1"><g class="cls-2"><path class="cls-3" d="M337.18,228.86h0a9.43,9.43,0,0,1,9.43-9.43h90.06a9.43,9.43,0,0,1,9.43,9.43v37.71a9.43,9.43,0,0,1-9.43,9.43H346.61a9.43,9.43,0,0,1-9.43-9.43Z" transform="translate(0 -79)"/><path class="cls-4" d="M337.18,228.86h0a9.43,9.43,0,0,1,9.43-9.43h90.06a9.43,9.43,0,0,1,9.43,9.43v37.71a9.43,9.43,0,0,1-9.43,9.43H346.61a9.43,9.43,0,0,1-9.43-9.43Z" transform="translate(0 -79)"/><path d="M362.09,254.64a.42.42,0,0,1-.31-.12.44.44,0,0,1-.11-.3v-11h-3.61a.42.42,0,0,1-.31-.12.46.46,0,0,1-.11-.31V242a.48.48,0,0,1,.11-.33.42.42,0,0,1,.31-.12h9a.41.41,0,0,1,.33.13.48.48,0,0,1,.11.33v.72a.43.43,0,0,1-.44.44h-3.58v11a.38.38,0,0,1-.14.3.41.41,0,0,1-.3.13Zm6.12,0a.42.42,0,0,1-.31-.12.44.44,0,0,1-.11-.3v-8.83a.46.46,0,0,1,.11-.31.4.4,0,0,1,.31-.14H369a.43.43,0,0,1,.45.45v.81a2.79,2.79,0,0,1,2.59-1.27h.72a.42.42,0,0,1,.31.11.41.41,0,0,1,.13.33v.69a.4.4,0,0,1-.44.42H371.7a2.14,2.14,0,0,0-1.61.61,2.17,2.17,0,0,0-.59,1.61v5.52a.41.41,0,0,1-.12.3.42.42,0,0,1-.31.13Zm9.12.19a3.85,3.85,0,0,1-1.69-.37,3.29,3.29,0,0,1-1.23-1A2.41,2.41,0,0,1,374,252a2.44,2.44,0,0,1,1-2,5.92,5.92,0,0,1,2.75-1l2.8-.39V248q0-1.92-2.22-1.92a2.44,2.44,0,0,0-1.37.34,2.26,2.26,0,0,0-.77.81.64.64,0,0,1-.16.25.37.37,0,0,1-.23.06H375a.42.42,0,0,1-.28-.11.41.41,0,0,1-.12-.3,1.77,1.77,0,0,1,.41-1,3.29,3.29,0,0,1,1.23-1,4.58,4.58,0,0,1,2.06-.42,3.94,3.94,0,0,1,3,1,3.41,3.41,0,0,1,.91,2.42v6.08a.41.41,0,0,1-.12.3.37.37,0,0,1-.3.13H381a.37.37,0,0,1-.3-.12.44.44,0,0,1-.11-.3v-.83a3.21,3.21,0,0,1-1.2,1A4.36,4.36,0,0,1,377.33,254.82Zm.38-1.36a2.7,2.7,0,0,0,2-.8,3.25,3.25,0,0,0,.78-2.34v-.52l-2.17.31a5.15,5.15,0,0,0-2,.64,1.29,1.29,0,0,0-.69,1.11,1.35,1.35,0,0,0,.63,1.19A2.66,2.66,0,0,0,377.7,253.46Zm7.48-10.36a.44.44,0,0,1-.3-.11.42.42,0,0,1-.12-.31v-1a.42.42,0,0,1,.13-.31.38.38,0,0,1,.3-.14h1.11a.48.48,0,0,1,.45.45v1a.4.4,0,0,1-.14.31.46.46,0,0,1-.31.11Zm.16,11.53a.42.42,0,0,1-.31-.12.44.44,0,0,1-.11-.3v-8.84a.46.46,0,0,1,.11-.31.42.42,0,0,1,.31-.12h.83a.41.41,0,0,1,.3.13.42.42,0,0,1,.13.31v8.84a.43.43,0,0,1-.42.42Zm4.48,0a.42.42,0,0,1-.31-.12.44.44,0,0,1-.11-.3v-8.84a.46.46,0,0,1,.11-.31.42.42,0,0,1,.31-.12h.8a.42.42,0,0,1,.31.11.41.41,0,0,1,.13.33v.81a4.05,4.05,0,0,1,1.3-1.06,4,4,0,0,1,1.83-.37A3.45,3.45,0,0,1,397,245.9a4.43,4.43,0,0,1,1,3v5.28a.41.41,0,0,1-.12.3.42.42,0,0,1-.31.13h-.86a.42.42,0,0,1-.31-.12.44.44,0,0,1-.11-.3V249a3.08,3.08,0,0,0-.66-2.09,2.34,2.34,0,0,0-1.86-.75,2.51,2.51,0,0,0-1.92.77,2.92,2.92,0,0,0-.7,2.08v5.17a.41.41,0,0,1-.12.3.37.37,0,0,1-.3.13Zm11.11-11.53a.44.44,0,0,1-.3-.11.42.42,0,0,1-.12-.31v-1a.42.42,0,0,1,.13-.31.38.38,0,0,1,.3-.14H402a.48.48,0,0,1,.45.45v1a.4.4,0,0,1-.14.31.46.46,0,0,1-.31.11Zm.16,11.53a.42.42,0,0,1-.31-.12.44.44,0,0,1-.11-.3v-8.84a.46.46,0,0,1,.11-.31.42.42,0,0,1,.31-.12h.83a.41.41,0,0,1,.3.13.42.42,0,0,1,.13.31v8.84a.43.43,0,0,1-.42.42Zm4.48,0a.42.42,0,0,1-.31-.12.44.44,0,0,1-.11-.3v-8.84a.46.46,0,0,1,.11-.31.42.42,0,0,1,.31-.12h.8a.42.42,0,0,1,.31.11.41.41,0,0,1,.13.33v.81a4.05,4.05,0,0,1,1.3-1.06,4,4,0,0,1,1.83-.37,3.45,3.45,0,0,1,2.78,1.16,4.43,4.43,0,0,1,1,3v5.28a.41.41,0,0,1-.12.3.42.42,0,0,1-.31.13h-.86a.42.42,0,0,1-.31-.12.44.44,0,0,1-.11-.3V249a3.08,3.08,0,0,0-.66-2.09,2.34,2.34,0,0,0-1.86-.75,2.51,2.51,0,0,0-1.92.77,2.92,2.92,0,0,0-.7,2.08v5.17a.41.41,0,0,1-.12.3.37.37,0,0,1-.3.13Zm14.77,4.11a5,5,0,0,1-2.48-.53,3.35,3.35,0,0,1-1.31-1.19,2.47,2.47,0,0,1-.37-1.16.41.41,0,0,1,.13-.3.48.48,0,0,1,.3-.11h.83a.47.47,0,0,1,.28.08.62.62,0,0,1,.19.31,2.23,2.23,0,0,0,2.38,1.48,3,3,0,0,0,2.06-.59,2.72,2.72,0,0,0,.67-2.11v-1.28a3.61,3.61,0,0,1-3,1.38,3.53,3.53,0,0,1-3-1.27,5.44,5.44,0,0,1-1-3.22l0-.52,0-.5a5.47,5.47,0,0,1,1-3.2,3.51,3.51,0,0,1,3-1.28,3.61,3.61,0,0,1,3,1.44v-.8a.42.42,0,0,1,.13-.31.4.4,0,0,1,.31-.14h.8a.4.4,0,0,1,.31.14.42.42,0,0,1,.13.31v9Q424.69,258.74,420.33,258.74Zm0-5.47a2.34,2.34,0,0,0,2-.84,3.6,3.6,0,0,0,.72-2q0-.17,0-.66t0-.64a3.52,3.52,0,0,0-.72-2,2.32,2.32,0,0,0-2-.86,2.23,2.23,0,0,0-2,.86,4.06,4.06,0,0,0-.66,2.19l0,.48,0,.5a4.14,4.14,0,0,0,.66,2.2A2.24,2.24,0,0,0,420.3,253.28Z" transform="translate(0 -79)"/><path class="cls-3" d="M462.11,197.79H599.25v58.9c-68.57,0-68.57,22.44-137.15,9.69Z" transform="translate(0 -79)"/><path class="cls-4" d="M462.11,197.79H599.25v58.9c-68.57,0-68.57,22.44-137.15,9.69Z" transform="translate(0 -79)"/><path d="M472.58,223.17V209.81h9.66v1.58h-7.87v4.09h7.38V217h-7.37v4.55h8.19v1.58Zm11.12,0,3.53-5L484,213.5h2l1.48,2.27q.42.64.67,1.08l.73-1.06,1.64-2.28h2L489.14,218l3.59,5.13h-2l-2-3-.52-.81-2.55,3.81Zm10.42,3.7V213.5h1.48v1.25a3.65,3.65,0,0,1,1.19-1.09,3.29,3.29,0,0,1,1.63-.37,3.76,3.76,0,0,1,2.17.64,3.83,3.83,0,0,1,1.44,1.8,7,7,0,0,1,0,5.22,4,4,0,0,1-3.69,2.45,3.12,3.12,0,0,1-1.47-.34,3.16,3.16,0,0,1-1.06-.87v4.7Zm1.48-8.48a4.28,4.28,0,0,0,.75,2.77,2.34,2.34,0,0,0,1.83.89,2.38,2.38,0,0,0,1.88-.92,4.43,4.43,0,0,0,.78-2.87,4.25,4.25,0,0,0-.77-2.77,2.26,2.26,0,0,0-1.81-.92,2.37,2.37,0,0,0-1.86,1A4.39,4.39,0,0,0,495.6,218.39Zm8.28-.06a5,5,0,0,1,1.48-4,4.5,4.5,0,0,1,3-1.08,4.34,4.34,0,0,1,3.27,1.31,5,5,0,0,1,1.27,3.61,6.41,6.41,0,0,1-.56,2.94,4,4,0,0,1-1.64,1.66,4.69,4.69,0,0,1-2.33.59,4.35,4.35,0,0,1-3.28-1.3A5.25,5.25,0,0,1,503.88,218.32Zm1.69,0a4.23,4.23,0,0,0,.8,2.8,2.72,2.72,0,0,0,4.08,0,4.25,4.25,0,0,0,.81-2.84,4,4,0,0,0-.81-2.72,2.72,2.72,0,0,0-4.08,0A4.1,4.1,0,0,0,505.57,218.32Zm9.28,4.84V213.5h1.47V215a4.07,4.07,0,0,1,1-1.36,1.85,1.85,0,0,1,1.06-.33,3.2,3.2,0,0,1,1.69.53l-.56,1.52a2.36,2.36,0,0,0-1.2-.36,1.53,1.53,0,0,0-1,.33,1.83,1.83,0,0,0-.61.89,6.25,6.25,0,0,0-.28,1.92v5.06Zm9.81-1.47.23,1.45a6.22,6.22,0,0,1-1.23.14,2.86,2.86,0,0,1-1.39-.28,1.61,1.61,0,0,1-.69-.73,5.85,5.85,0,0,1-.2-1.94v-5.58h-1.2V213.5h1.2V211.1l1.63-1v3.38h1.66v1.27H523v5.67a3.11,3.11,0,0,0,.08.89.78.78,0,0,0,.28.33,1.24,1.24,0,0,0,.58.11A5.56,5.56,0,0,0,524.66,221.7Zm8.23-1.64,1.69.2a4.21,4.21,0,0,1-1.48,2.31,5.07,5.07,0,0,1-6.14-.48,5.15,5.15,0,0,1-1.23-3.67,5.37,5.37,0,0,1,1.25-3.8,4.28,4.28,0,0,1,3.27-1.34,4.09,4.09,0,0,1,3.16,1.33,5.2,5.2,0,0,1,1.23,3.7v.44H527.4a3.77,3.77,0,0,0,.91,2.45,2.69,2.69,0,0,0,2,.84,2.55,2.55,0,0,0,1.55-.47A3.21,3.21,0,0,0,532.89,220.06Zm-5.39-2.66h5.41a3.24,3.24,0,0,0-.62-1.83,2.5,2.5,0,0,0-2-1,2.62,2.62,0,0,0-1.91.77A3,3,0,0,0,527.5,217.4Zm15.41,5.77v-1.22a3,3,0,0,1-2.7,1.44,3.77,3.77,0,0,1-2.12-.64,4.21,4.21,0,0,1-1.5-1.78,6.15,6.15,0,0,1-.53-2.62,6.81,6.81,0,0,1,.48-2.62A3.82,3.82,0,0,1,538,213.9a3.92,3.92,0,0,1,2.17-.62,3.27,3.27,0,0,1,2.66,1.33v-4.8h1.64v13.36Zm-5.17-4.83a4.22,4.22,0,0,0,.78,2.78,2.35,2.35,0,0,0,1.84.92,2.32,2.32,0,0,0,1.83-.87,4.1,4.1,0,0,0,.75-2.69,4.51,4.51,0,0,0-.77-2.91,2.35,2.35,0,0,0-1.89-.94,2.26,2.26,0,0,0-1.81.89A4.39,4.39,0,0,0,537.73,218.34Z" transform="translate(0 -79)"/><path d="M472.34,245.17V235.5h1.47v1.36a3.33,3.33,0,0,1,1.2-1.14,3.4,3.4,0,0,1,1.72-.44,3.15,3.15,0,0,1,1.77.45,2.34,2.34,0,0,1,1,1.23,3.49,3.49,0,0,1,3-1.69,2.94,2.94,0,0,1,2.22.8,3.38,3.38,0,0,1,.78,2.45v6.64h-1.64v-6.09a4.47,4.47,0,0,0-.16-1.41,1.36,1.36,0,0,0-.58-.7,1.81,1.81,0,0,0-1-.27,2.26,2.26,0,0,0-1.69.69,3,3,0,0,0-.67,2.16v5.63h-1.64v-6.28a2.74,2.74,0,0,0-.41-1.64,1.53,1.53,0,0,0-1.31-.55,2.43,2.43,0,0,0-1.28.36,2,2,0,0,0-.86,1.06,6.36,6.36,0,0,0-.25,2v5Zm14.93-4.84a5,5,0,0,1,1.48-4,4.5,4.5,0,0,1,3-1.08,4.34,4.34,0,0,1,3.27,1.31,5,5,0,0,1,1.27,3.61,6.41,6.41,0,0,1-.56,2.94,4,4,0,0,1-1.64,1.66,4.69,4.69,0,0,1-2.33.59,4.35,4.35,0,0,1-3.28-1.3A5.25,5.25,0,0,1,487.27,240.32Zm1.69,0a4.23,4.23,0,0,0,.8,2.8,2.72,2.72,0,0,0,4.08,0,4.25,4.25,0,0,0,.81-2.84,4,4,0,0,0-.81-2.72,2.72,2.72,0,0,0-4.08,0A4.1,4.1,0,0,0,489,240.32Zm15.56,4.84v-1.22a3,3,0,0,1-2.7,1.44,3.77,3.77,0,0,1-2.12-.64,4.21,4.21,0,0,1-1.5-1.78,6.15,6.15,0,0,1-.53-2.62,6.81,6.81,0,0,1,.48-2.62,3.82,3.82,0,0,1,1.44-1.81,3.92,3.92,0,0,1,2.17-.62,3.27,3.27,0,0,1,2.66,1.33v-4.8h1.64v13.36Zm-5.17-4.83a4.22,4.22,0,0,0,.78,2.78A2.35,2.35,0,0,0,502,244a2.32,2.32,0,0,0,1.83-.87,4.1,4.1,0,0,0,.75-2.69,4.51,4.51,0,0,0-.77-2.91,2.35,2.35,0,0,0-1.89-.94,2.26,2.26,0,0,0-1.81.89A4.39,4.39,0,0,0,499.35,240.34Zm15.91,1.72,1.69.2a4.21,4.21,0,0,1-1.48,2.31,5.07,5.07,0,0,1-6.14-.48,5.15,5.15,0,0,1-1.23-3.67,5.37,5.37,0,0,1,1.25-3.8,4.28,4.28,0,0,1,3.27-1.34,4.09,4.09,0,0,1,3.16,1.33,5.2,5.2,0,0,1,1.23,3.7q0,.16,0,.44h-7.22a3.77,3.77,0,0,0,.91,2.45,2.69,2.69,0,0,0,2,.84,2.55,2.55,0,0,0,1.55-.47A3.21,3.21,0,0,0,515.26,242.06Zm-5.39-2.66h5.41a3.24,3.24,0,0,0-.62-1.83,2.5,2.5,0,0,0-2-1,2.62,2.62,0,0,0-1.91.77A3,3,0,0,0,509.87,239.4Zm9.09,5.77V231.81h1.64v13.36Z" transform="translate(0 -79)"/><path class="cls-3" d="M490.7,347.57h159v76c-79.48,0-79.48,28.94-159,12.5Z" transform="translate(0 -79)"/><path class="cls-4" d="M490.7,347.57h159v76c-79.48,0-79.48,28.94-159,12.5Z" transform="translate(0 -79)"/><path d="M501.3,381.62a.32.32,0,0,1-.23-.09.38.38,0,0,1-.08-.25v-9.56a.38.38,0,0,1,.08-.25.3.3,0,0,1,.23-.11h6a.31.31,0,0,1,.25.11.34.34,0,0,1,.09.25v.53a.32.32,0,0,1-.09.23.38.38,0,0,1-.25.08h-5v3.27H507a.37.37,0,0,1,.36.36v.5a.3.3,0,0,1-.11.23.34.34,0,0,1-.25.09h-4.67v3.39h5.11a.33.33,0,0,1,.36.36v.52a.31.31,0,0,1-.11.25.34.34,0,0,1-.25.09Zm10.79,0a.57.57,0,0,1-.55-.36l-2.72-6.81a.39.39,0,0,1,0-.14.3.3,0,0,1,.08-.22.3.3,0,0,1,.22-.09h.67a.36.36,0,0,1,.34.23l2.27,5.86,2.25-5.86a.41.41,0,0,1,.13-.16A.35.35,0,0,1,515,374h.67a.25.25,0,0,1,.2.09.27.27,0,0,1,.09.22l0,.14-2.72,6.81a.54.54,0,0,1-.53.36Zm7.25.14a3.13,3.13,0,0,1-1.33-.28,2.56,2.56,0,0,1-1-.8,2,2,0,0,1,.42-2.7,4.53,4.53,0,0,1,2.16-.83l2.2-.31v-.42q0-1.52-1.75-1.52a1.86,1.86,0,0,0-1.08.28,1.78,1.78,0,0,0-.61.64.33.33,0,0,1-.12.19.28.28,0,0,1-.17,0h-.58a.35.35,0,0,1-.23-.09.3.3,0,0,1-.09-.22,1.4,1.4,0,0,1,.31-.78,2.64,2.64,0,0,1,1-.78,3.57,3.57,0,0,1,1.61-.33,3.06,3.06,0,0,1,2.34.77,2.64,2.64,0,0,1,.72,1.91v4.75a.34.34,0,0,1-.09.25.32.32,0,0,1-.23.09h-.66a.32.32,0,0,1-.23-.09.38.38,0,0,1-.08-.25v-.64a2.55,2.55,0,0,1-1,.81A3.46,3.46,0,0,1,519.34,381.77Zm.3-1.06a2.11,2.11,0,0,0,1.58-.62,2.53,2.53,0,0,0,.63-1.84v-.41l-1.72.25a3.88,3.88,0,0,0-1.59.5,1,1,0,0,0-.55.88,1.06,1.06,0,0,0,.48.94A2.16,2.16,0,0,0,519.64,380.7Zm6,.92a.32.32,0,0,1-.34-.34v-9.72a.31.31,0,0,1,.09-.25.34.34,0,0,1,.25-.09h.64a.32.32,0,0,1,.34.34v9.72a.32.32,0,0,1-.34.34Zm6,.14a2.69,2.69,0,0,1-2.16-.89,3.65,3.65,0,0,1-.75-2.41v-4.12a.34.34,0,0,1,.09-.25.32.32,0,0,1,.23-.09h.67a.32.32,0,0,1,.34.34v4.06q0,2.22,1.94,2.22a1.92,1.92,0,0,0,1.48-.59,2.31,2.31,0,0,0,.55-1.62v-4.06a.32.32,0,0,1,.34-.34h.67a.32.32,0,0,1,.23.09.34.34,0,0,1,.09.25v6.94a.34.34,0,0,1-.09.25.32.32,0,0,1-.23.09h-.62a.32.32,0,0,1-.34-.34v-.66a2.7,2.7,0,0,1-1,.86A3.25,3.25,0,0,1,531.67,381.77Zm8.06,0a3.13,3.13,0,0,1-1.33-.28,2.56,2.56,0,0,1-1-.8,2,2,0,0,1,.42-2.7,4.53,4.53,0,0,1,2.16-.83l2.2-.31v-.42q0-1.52-1.75-1.52a1.86,1.86,0,0,0-1.08.28,1.78,1.78,0,0,0-.61.64.33.33,0,0,1-.12.19.28.28,0,0,1-.17,0h-.58a.35.35,0,0,1-.23-.09.3.3,0,0,1-.09-.22,1.4,1.4,0,0,1,.31-.78,2.64,2.64,0,0,1,1-.78,3.57,3.57,0,0,1,1.61-.33,3.06,3.06,0,0,1,2.34.77,2.64,2.64,0,0,1,.72,1.91v4.75a.34.34,0,0,1-.09.25.32.32,0,0,1-.23.09h-.66a.32.32,0,0,1-.23-.09.38.38,0,0,1-.08-.25v-.64a2.55,2.55,0,0,1-1,.81A3.46,3.46,0,0,1,539.73,381.77Zm.3-1.06a2.11,2.11,0,0,0,1.58-.62,2.53,2.53,0,0,0,.63-1.84v-.41l-1.72.25a3.88,3.88,0,0,0-1.59.5,1,1,0,0,0-.55.88,1.07,1.07,0,0,0,.48.94A2.16,2.16,0,0,0,540,380.7Zm8.52.92q-2.27,0-2.27-2.56v-3.94h-1.17a.28.28,0,0,1-.31-.31v-.47a.38.38,0,0,1,.08-.25.32.32,0,0,1,.23-.09h1.17v-2.44a.38.38,0,0,1,.08-.25.32.32,0,0,1,.23-.09h.64a.32.32,0,0,1,.34.34V374h1.81a.32.32,0,0,1,.34.34v.47a.32.32,0,0,1-.09.23.38.38,0,0,1-.25.08h-1.81V379a2.25,2.25,0,0,0,.23,1.14.94.94,0,0,0,.84.38h.89a.27.27,0,0,1,.22.09.32.32,0,0,1,.09.23v.48a.34.34,0,0,1-.09.25.27.27,0,0,1-.22.09Zm3-9.06a.32.32,0,0,1-.33-.33v-.77a.37.37,0,0,1,.09-.25.3.3,0,0,1,.23-.11h.88a.3.3,0,0,1,.23.11.34.34,0,0,1,.11.25v.77a.3.3,0,0,1-.11.23.32.32,0,0,1-.23.09Zm.13,9.06a.37.37,0,0,1-.25-.09.34.34,0,0,1-.09-.25v-6.94a.34.34,0,0,1,.09-.25.37.37,0,0,1,.25-.09h.64a.32.32,0,0,1,.34.34v6.94a.32.32,0,0,1-.34.34Zm6.27.14a3.29,3.29,0,0,1-2.48-.91,3.5,3.5,0,0,1-.92-2.42l0-.62,0-.62a3.47,3.47,0,0,1,.94-2.42,3.82,3.82,0,0,1,4.94,0,3.52,3.52,0,0,1,1,2.42q0,.31,0,.63t0,.63a3.56,3.56,0,0,1-.94,2.42A3.29,3.29,0,0,1,557.91,381.77Zm0-1.09a1.92,1.92,0,0,0,1.48-.59,2.49,2.49,0,0,0,.59-1.7q0-.16,0-.56t0-.56a2.49,2.49,0,0,0-.59-1.7,2.15,2.15,0,0,0-3,0,2.6,2.6,0,0,0-.59,1.7l0,.56,0,.56a2.6,2.6,0,0,0,.59,1.7A1.92,1.92,0,0,0,557.91,380.67Zm5.63,1a.37.37,0,0,1-.25-.09.34.34,0,0,1-.09-.25v-6.94a.34.34,0,0,1,.09-.25.37.37,0,0,1,.25-.09h.63a.32.32,0,0,1,.34.34V375a3,3,0,0,1,1-.83,3.13,3.13,0,0,1,1.44-.3,2.73,2.73,0,0,1,2.19.91,3.47,3.47,0,0,1,.78,2.38v4.14a.32.32,0,0,1-.34.34h-.67a.32.32,0,0,1-.23-.09.34.34,0,0,1-.09-.25v-4a2.38,2.38,0,0,0-.52-1.64,1.84,1.84,0,0,0-1.47-.59,2,2,0,0,0-1.5.59,2.33,2.33,0,0,0-.55,1.64v4a.31.31,0,0,1-.11.25.32.32,0,0,1-.23.09Zm12.46,0a.37.37,0,0,1-.25-.09.34.34,0,0,1-.09-.25v-6.92a.34.34,0,0,1,.09-.25A.34.34,0,0,1,576,374h.61a.33.33,0,0,1,.36.36V375a2.17,2.17,0,0,1,2-1h.58a.29.29,0,0,1,.23.09.31.31,0,0,1,.09.25v.55a.32.32,0,0,1-.09.23.29.29,0,0,1-.23.09h-.84a1.71,1.71,0,0,0-1.27.47A1.77,1.77,0,0,0,577,377v4.31a.31.31,0,0,1-.11.25.34.34,0,0,1-.25.09Zm8.05.14a3.22,3.22,0,0,1-2.41-.92,3.83,3.83,0,0,1-1-2.55l0-.5,0-.48a3.79,3.79,0,0,1,1-2.52,3.19,3.19,0,0,1,2.41-.94,3.08,3.08,0,0,1,2.48,1,4.07,4.07,0,0,1,.89,2.78v.27a.32.32,0,0,1-.33.33H582v.14a2.77,2.77,0,0,0,.58,1.63,1.78,1.78,0,0,0,1.45.67,2.06,2.06,0,0,0,1.11-.27,2.45,2.45,0,0,0,.66-.58.87.87,0,0,1,.2-.2.51.51,0,0,1,.25,0h.64a.35.35,0,0,1,.23.08.24.24,0,0,1,.09.19,1.28,1.28,0,0,1-.41.78,3.18,3.18,0,0,1-1.11.78A4,4,0,0,1,584,381.77Zm2-4.5v0a2.44,2.44,0,0,0-.56-1.67,2,2,0,0,0-3,0,2.49,2.49,0,0,0-.55,1.67v0Zm5.72,4.5a4,4,0,0,1-1.7-.33,2.92,2.92,0,0,1-1-.75,1.26,1.26,0,0,1-.33-.7.27.27,0,0,1,.09-.22.35.35,0,0,1,.23-.09h.61a.26.26,0,0,1,.14,0,.44.44,0,0,1,.14.14,2.86,2.86,0,0,0,.75.64,2.32,2.32,0,0,0,1.13.23,2.35,2.35,0,0,0,1.27-.3.94.94,0,0,0,.48-.84.84.84,0,0,0-.2-.59,1.73,1.73,0,0,0-.69-.39,13,13,0,0,0-1.41-.39,3.59,3.59,0,0,1-1.81-.8,1.84,1.84,0,0,1-.53-1.36,1.88,1.88,0,0,1,.33-1,2.33,2.33,0,0,1,1-.83,3.46,3.46,0,0,1,1.53-.31,3.54,3.54,0,0,1,1.56.31,2.54,2.54,0,0,1,1,.72,1.2,1.2,0,0,1,.33.69.3.3,0,0,1-.09.22.33.33,0,0,1-.22.08h-.56a.32.32,0,0,1-.3-.16,6,6,0,0,0-.42-.44,1.23,1.23,0,0,0-.48-.27,2.45,2.45,0,0,0-.8-.11,1.74,1.74,0,0,0-1.11.31,1,1,0,0,0-.37.8.86.86,0,0,0,.16.52,1.54,1.54,0,0,0,.63.41,9.66,9.66,0,0,0,1.34.36,4.15,4.15,0,0,1,2,.84,1.8,1.8,0,0,1,.58,1.39,2,2,0,0,1-.36,1.14,2.37,2.37,0,0,1-1.08.81A4.54,4.54,0,0,1,591.82,381.77Zm7.68,0a2.69,2.69,0,0,1-2.16-.89,3.65,3.65,0,0,1-.75-2.41v-4.12a.34.34,0,0,1,.09-.25.32.32,0,0,1,.23-.09h.67a.32.32,0,0,1,.34.34v4.06q0,2.22,1.94,2.22a1.92,1.92,0,0,0,1.48-.59,2.31,2.31,0,0,0,.55-1.62v-4.06a.32.32,0,0,1,.34-.34h.67a.32.32,0,0,1,.23.09.34.34,0,0,1,.09.25v6.94a.34.34,0,0,1-.09.25.32.32,0,0,1-.23.09h-.62a.32.32,0,0,1-.34-.34v-.66a2.7,2.7,0,0,1-1,.86A3.25,3.25,0,0,1,599.5,381.77Zm6.31-.14a.32.32,0,0,1-.34-.34v-9.72a.31.31,0,0,1,.09-.25.34.34,0,0,1,.25-.09h.64a.32.32,0,0,1,.34.34v9.72a.32.32,0,0,1-.34.34Zm6.11,0q-2.27,0-2.27-2.56v-3.94h-1.17a.28.28,0,0,1-.31-.31v-.47a.38.38,0,0,1,.08-.25.32.32,0,0,1,.23-.09h1.17v-2.44a.38.38,0,0,1,.08-.25.32.32,0,0,1,.23-.09h.64a.32.32,0,0,1,.34.34V374h1.81a.32.32,0,0,1,.34.34v.47a.32.32,0,0,1-.09.23.38.38,0,0,1-.25.08H611V379a2.25,2.25,0,0,0,.23,1.14.94.94,0,0,0,.84.38h.89a.27.27,0,0,1,.22.09.32.32,0,0,1,.09.23v.48a.34.34,0,0,1-.09.25.27.27,0,0,1-.22.09Zm5.36.14a4,4,0,0,1-1.7-.33,2.92,2.92,0,0,1-1-.75,1.26,1.26,0,0,1-.33-.7.27.27,0,0,1,.09-.22.35.35,0,0,1,.23-.09h.61a.26.26,0,0,1,.14,0,.44.44,0,0,1,.14.14,2.86,2.86,0,0,0,.75.64,2.32,2.32,0,0,0,1.13.23,2.35,2.35,0,0,0,1.27-.3.94.94,0,0,0,.48-.84.84.84,0,0,0-.2-.59,1.73,1.73,0,0,0-.69-.39,13,13,0,0,0-1.41-.39,3.59,3.59,0,0,1-1.81-.8,1.84,1.84,0,0,1-.53-1.36,1.88,1.88,0,0,1,.33-1,2.33,2.33,0,0,1,1-.83,3.46,3.46,0,0,1,1.53-.31,3.54,3.54,0,0,1,1.56.31,2.54,2.54,0,0,1,1,.72,1.2,1.2,0,0,1,.33.69.3.3,0,0,1-.09.22.33.33,0,0,1-.22.08h-.56a.32.32,0,0,1-.3-.16,6,6,0,0,0-.42-.44A1.23,1.23,0,0,0,618,375a2.45,2.45,0,0,0-.8-.11,1.74,1.74,0,0,0-1.11.31,1,1,0,0,0-.37.8.86.86,0,0,0,.16.52,1.54,1.54,0,0,0,.63.41,9.66,9.66,0,0,0,1.34.36,4.15,4.15,0,0,1,2,.84,1.8,1.8,0,0,1,.58,1.39,2,2,0,0,1-.36,1.14,2.37,2.37,0,0,1-1.08.81A4.54,4.54,0,0,1,617.28,381.77Zm5.09-5.27a.32.32,0,0,1-.23-.09.38.38,0,0,1-.08-.25v-1a.38.38,0,0,1,.08-.25.32.32,0,0,1,.23-.09h1a.34.34,0,0,1,.25.09.31.31,0,0,1,.11.25v1a.31.31,0,0,1-.11.25.37.37,0,0,1-.25.09Zm0,5.13a.32.32,0,0,1-.23-.09.38.38,0,0,1-.08-.25v-1a.4.4,0,0,1,.08-.27.32.32,0,0,1,.23-.09h1a.34.34,0,0,1,.25.09.33.33,0,0,1,.11.27v1a.31.31,0,0,1-.11.25.37.37,0,0,1-.25.09Z" transform="translate(0 -79)"/><path d="M501.3,399.62a.32.32,0,0,1-.23-.09.38.38,0,0,1-.08-.25v-9.56a.38.38,0,0,1,.08-.25.3.3,0,0,1,.23-.11h6a.31.31,0,0,1,.25.11.34.34,0,0,1,.09.25v.53a.32.32,0,0,1-.09.23.38.38,0,0,1-.25.08h-5v3.27H507a.37.37,0,0,1,.36.36v.5a.3.3,0,0,1-.11.23.34.34,0,0,1-.25.09h-4.67v3.39h5.11a.33.33,0,0,1,.36.36v.52a.31.31,0,0,1-.11.25.34.34,0,0,1-.25.09Zm8,0a.28.28,0,0,1-.31-.31.51.51,0,0,1,.11-.28l2.55-3.31-2.39-3.14a.5.5,0,0,1-.11-.27.27.27,0,0,1,.09-.22.28.28,0,0,1,.2-.09h.7a.49.49,0,0,1,.39.23l2,2.56,2-2.56a1.33,1.33,0,0,1,.17-.17.32.32,0,0,1,.2-.06h.67a.32.32,0,0,1,.3.3.5.5,0,0,1-.09.28l-2.42,3.17,2.55,3.28a.51.51,0,0,1,.11.28.32.32,0,0,1-.09.23.33.33,0,0,1-.22.08H515a.45.45,0,0,1-.37-.22l-2.11-2.72-2.09,2.72a.81.81,0,0,1-.17.16.32.32,0,0,1-.2.06Zm8.57,2.78a.34.34,0,0,1-.25-.09.29.29,0,0,1-.09-.23v-9.73a.31.31,0,0,1,.09-.25.34.34,0,0,1,.25-.09h.61a.32.32,0,0,1,.34.34V393a2.84,2.84,0,0,1,2.42-1.12,2.73,2.73,0,0,1,2.3,1,3.94,3.94,0,0,1,.81,2.47q0,.17,0,.5t0,.5a4,4,0,0,1-.81,2.48,3.15,3.15,0,0,1-4.67-.14v3.42a.3.3,0,0,1-.11.23.32.32,0,0,1-.23.09Zm3.09-3.78a1.78,1.78,0,0,0,1.53-.66,3.09,3.09,0,0,0,.53-1.73,4.17,4.17,0,0,0,0-.42q0-2.81-2.08-2.81a1.81,1.81,0,0,0-1.55.69,2.7,2.7,0,0,0-.55,1.59q0,.17,0,.58t0,.58a2.53,2.53,0,0,0,.56,1.55A1.88,1.88,0,0,0,521,398.62Zm8.28,1.14a3.22,3.22,0,0,1-2.41-.92,3.83,3.83,0,0,1-1-2.55l0-.5,0-.48a3.79,3.79,0,0,1,1-2.52,3.19,3.19,0,0,1,2.41-.94,3.08,3.08,0,0,1,2.48,1,4.07,4.07,0,0,1,.89,2.78v.27a.32.32,0,0,1-.33.33h-5.09v.14a2.77,2.77,0,0,0,.58,1.63,1.78,1.78,0,0,0,1.45.67,2.06,2.06,0,0,0,1.11-.27,2.45,2.45,0,0,0,.66-.58.87.87,0,0,1,.2-.2.51.51,0,0,1,.25,0h.64a.35.35,0,0,1,.23.08.24.24,0,0,1,.09.19,1.28,1.28,0,0,1-.41.78,3.18,3.18,0,0,1-1.11.78A4,4,0,0,1,529.26,399.77Zm2-4.5v0a2.44,2.44,0,0,0-.56-1.67,2,2,0,0,0-3,0,2.49,2.49,0,0,0-.55,1.67v0Zm3.46,4.36a.37.37,0,0,1-.25-.09.34.34,0,0,1-.09-.25v-6.92a.34.34,0,0,1,.09-.25.34.34,0,0,1,.25-.11h.61a.33.33,0,0,1,.36.36V393a2.17,2.17,0,0,1,2-1h.58a.29.29,0,0,1,.23.09.31.31,0,0,1,.09.25v.55a.32.32,0,0,1-.09.23.29.29,0,0,1-.23.09h-.84a1.71,1.71,0,0,0-1.27.47,1.77,1.77,0,0,0-.45,1.28v4.31a.31.31,0,0,1-.11.25.34.34,0,0,1-.25.09Zm5.39-9.06a.32.32,0,0,1-.33-.33v-.77a.37.37,0,0,1,.09-.25.3.3,0,0,1,.23-.11H541a.3.3,0,0,1,.23.11.34.34,0,0,1,.11.25v.77a.3.3,0,0,1-.11.23.32.32,0,0,1-.23.09Zm.13,9.06a.37.37,0,0,1-.25-.09.34.34,0,0,1-.09-.25v-6.94a.34.34,0,0,1,.09-.25.37.37,0,0,1,.25-.09h.64a.32.32,0,0,1,.34.34v6.94a.32.32,0,0,1-.34.34Zm3.52,0a.37.37,0,0,1-.25-.09.34.34,0,0,1-.09-.25v-6.94a.34.34,0,0,1,.09-.25.37.37,0,0,1,.25-.09h.61a.29.29,0,0,1,.23.09.34.34,0,0,1,.09.25v.5a2.61,2.61,0,0,1,2.14-1,2.35,2.35,0,0,1,2.28,1.34,2.63,2.63,0,0,1,1-1,2.91,2.91,0,0,1,1.47-.37,2.51,2.51,0,0,1,2,.83,3.32,3.32,0,0,1,.77,2.36v4.23a.34.34,0,0,1-.09.25.32.32,0,0,1-.23.09h-.64a.32.32,0,0,1-.23-.09.34.34,0,0,1-.09-.25v-4.09a2.36,2.36,0,0,0-.48-1.67,1.68,1.68,0,0,0-1.28-.52,1.64,1.64,0,0,0-1.22.53,2.32,2.32,0,0,0-.5,1.66v4.09a.34.34,0,0,1-.09.25.32.32,0,0,1-.23.09h-.64a.32.32,0,0,1-.34-.34v-4.09a2.29,2.29,0,0,0-.52-1.67,1.65,1.65,0,0,0-1.23-.52,1.63,1.63,0,0,0-1.22.52,2.32,2.32,0,0,0-.5,1.66v4.11a.32.32,0,0,1-.34.34Zm15.7.14a3.22,3.22,0,0,1-2.41-.92,3.83,3.83,0,0,1-1-2.55l0-.5,0-.48a3.79,3.79,0,0,1,1-2.52,3.19,3.19,0,0,1,2.41-.94,3.08,3.08,0,0,1,2.48,1,4.07,4.07,0,0,1,.89,2.78v.27a.32.32,0,0,1-.33.33h-5.09v.14A2.77,2.77,0,0,0,558,398a1.78,1.78,0,0,0,1.45.67,2.06,2.06,0,0,0,1.11-.27,2.45,2.45,0,0,0,.66-.58.87.87,0,0,1,.2-.2.51.51,0,0,1,.25,0h.64a.35.35,0,0,1,.23.08.24.24,0,0,1,.09.19,1.28,1.28,0,0,1-.41.78,3.18,3.18,0,0,1-1.11.78A4,4,0,0,1,559.5,399.77Zm2-4.5v0a2.44,2.44,0,0,0-.56-1.67,2,2,0,0,0-3,0,2.49,2.49,0,0,0-.55,1.67v0Zm3.46,4.36a.37.37,0,0,1-.25-.09.34.34,0,0,1-.09-.25v-6.94a.34.34,0,0,1,.09-.25A.37.37,0,0,1,565,392h.63a.32.32,0,0,1,.34.34V393a3,3,0,0,1,1-.83,3.13,3.13,0,0,1,1.44-.3,2.73,2.73,0,0,1,2.19.91,3.47,3.47,0,0,1,.78,2.38v4.14a.32.32,0,0,1-.34.34h-.67a.32.32,0,0,1-.23-.09.34.34,0,0,1-.09-.25v-4a2.38,2.38,0,0,0-.52-1.64,1.84,1.84,0,0,0-1.47-.59,2,2,0,0,0-1.5.59,2.33,2.33,0,0,0-.55,1.64v4a.31.31,0,0,1-.11.25.32.32,0,0,1-.23.09Zm11.34,0q-2.27,0-2.27-2.56v-3.94h-1.17a.28.28,0,0,1-.31-.31v-.47a.38.38,0,0,1,.08-.25.32.32,0,0,1,.23-.09h1.17v-2.44a.38.38,0,0,1,.08-.25.32.32,0,0,1,.23-.09H575a.32.32,0,0,1,.34.34V392h1.81a.32.32,0,0,1,.34.34v.47a.32.32,0,0,1-.09.23.38.38,0,0,1-.25.08h-1.81V397a2.25,2.25,0,0,0,.23,1.14.94.94,0,0,0,.84.38h.89a.27.27,0,0,1,.22.09.32.32,0,0,1,.09.23v.48a.34.34,0,0,1-.09.25.27.27,0,0,1-.22.09Zm8.77,0a.32.32,0,0,1-.34-.34v-8.66h-2.83a.37.37,0,0,1-.25-.09.34.34,0,0,1-.09-.25v-.56a.34.34,0,0,1,.09-.25.34.34,0,0,1,.25-.11h7a.29.29,0,0,1,.25.11.34.34,0,0,1,.09.25v.56a.32.32,0,0,1-.34.34h-2.81v8.66a.31.31,0,0,1-.11.25.32.32,0,0,1-.23.09Zm4.8,0a.37.37,0,0,1-.25-.09.34.34,0,0,1-.09-.25v-6.92a.34.34,0,0,1,.09-.25.34.34,0,0,1,.25-.11h.61a.33.33,0,0,1,.36.36V393a2.17,2.17,0,0,1,2-1h.58a.29.29,0,0,1,.23.09.31.31,0,0,1,.09.25v.55a.32.32,0,0,1-.09.23.29.29,0,0,1-.23.09h-.84a1.71,1.71,0,0,0-1.27.47,1.77,1.77,0,0,0-.45,1.28v4.31a.31.31,0,0,1-.11.25.34.34,0,0,1-.25.09Zm7.16.14a3.13,3.13,0,0,1-1.33-.28,2.56,2.56,0,0,1-1-.8,2,2,0,0,1,.42-2.7,4.53,4.53,0,0,1,2.16-.83l2.2-.31v-.42q0-1.52-1.75-1.52a1.86,1.86,0,0,0-1.08.28,1.78,1.78,0,0,0-.61.64.33.33,0,0,1-.12.19.28.28,0,0,1-.17,0h-.58A.35.35,0,0,1,595,394a.3.3,0,0,1-.09-.22,1.4,1.4,0,0,1,.31-.78,2.64,2.64,0,0,1,1-.78,3.57,3.57,0,0,1,1.61-.33,3.06,3.06,0,0,1,2.34.77,2.64,2.64,0,0,1,.72,1.91v4.75a.34.34,0,0,1-.09.25.32.32,0,0,1-.23.09h-.66a.32.32,0,0,1-.23-.09.38.38,0,0,1-.08-.25v-.64a2.55,2.55,0,0,1-1,.81A3.46,3.46,0,0,1,597.08,399.77Zm.3-1.06a2.11,2.11,0,0,0,1.58-.62,2.53,2.53,0,0,0,.63-1.84v-.41l-1.72.25a3.88,3.88,0,0,0-1.59.5,1,1,0,0,0-.55.88,1.06,1.06,0,0,0,.48.94A2.16,2.16,0,0,0,597.38,398.7Zm8.7,1.06a3.29,3.29,0,0,1-2.44-.87,3.55,3.55,0,0,1-.92-2.48l0-.59,0-.58a3.51,3.51,0,0,1,.92-2.48,3.26,3.26,0,0,1,2.44-.89,3.82,3.82,0,0,1,1.78.38,2.72,2.72,0,0,1,1.09.94,2.23,2.23,0,0,1,.39,1.11.28.28,0,0,1-.09.23.37.37,0,0,1-.25.09h-.64a.37.37,0,0,1-.23-.06.85.85,0,0,1-.14-.23,1.87,1.87,0,0,0-.72-1,2.07,2.07,0,0,0-1.17-.31,1.93,1.93,0,0,0-1.47.58,2.61,2.61,0,0,0-.58,1.73l0,.52,0,.52a2.68,2.68,0,0,0,.58,1.75,2,2,0,0,0,1.47.56,2.1,2.1,0,0,0,1.17-.3,1.87,1.87,0,0,0,.72-1,.84.84,0,0,1,.14-.25.37.37,0,0,1,.23-.06H609a.34.34,0,0,1,.25.11.26.26,0,0,1,.09.23,2.29,2.29,0,0,1-.39,1.09,2.72,2.72,0,0,1-1.09.94A3.82,3.82,0,0,1,606.08,399.77Zm5.37-.14a.32.32,0,0,1-.34-.34v-9.72a.31.31,0,0,1,.09-.25.34.34,0,0,1,.25-.09h.63a.32.32,0,0,1,.34.34v5.11l2.92-2.42.31-.2a.65.65,0,0,1,.28,0h.73a.25.25,0,0,1,.2.09.27.27,0,0,1,.09.22.42.42,0,0,1-.17.28l-3.42,2.81,3.8,3.63a.48.48,0,0,1,.16.28.35.35,0,0,1-.08.23.3.3,0,0,1-.22.08h-.72a.75.75,0,0,1-.31,0,1.37,1.37,0,0,1-.27-.2l-3.31-3.14v3a.32.32,0,0,1-.34.34Zm9.84.14a3.22,3.22,0,0,1-2.41-.92,3.83,3.83,0,0,1-1-2.55l0-.5,0-.48a3.79,3.79,0,0,1,1-2.52,3.19,3.19,0,0,1,2.41-.94,3.08,3.08,0,0,1,2.48,1,4.07,4.07,0,0,1,.89,2.78v.27a.32.32,0,0,1-.33.33h-5.09v.14a2.77,2.77,0,0,0,.58,1.63,1.78,1.78,0,0,0,1.45.67,2.06,2.06,0,0,0,1.11-.27,2.45,2.45,0,0,0,.66-.58.87.87,0,0,1,.2-.2.51.51,0,0,1,.25,0h.64a.35.35,0,0,1,.23.08.24.24,0,0,1,.09.19,1.28,1.28,0,0,1-.41.78,3.18,3.18,0,0,1-1.11.78A4,4,0,0,1,621.29,399.77Zm2-4.5v0a2.44,2.44,0,0,0-.56-1.67,2,2,0,0,0-3,0,2.49,2.49,0,0,0-.55,1.67v0Zm3.46,4.36a.37.37,0,0,1-.25-.09.34.34,0,0,1-.09-.25v-6.92a.34.34,0,0,1,.09-.25.34.34,0,0,1,.25-.11h.61a.33.33,0,0,1,.36.36V393a2.17,2.17,0,0,1,2-1h.58a.29.29,0,0,1,.23.09.31.31,0,0,1,.09.25v.55a.32.32,0,0,1-.09.23.29.29,0,0,1-.23.09h-.84a1.71,1.71,0,0,0-1.27.47,1.77,1.77,0,0,0-.45,1.28v4.31a.31.31,0,0,1-.11.25.34.34,0,0,1-.25.09Z" transform="translate(0 -79)"/><path class="cls-3" d="M702.93,211.83h0a13.42,13.42,0,0,1,13.42-13.42H836.16a13.42,13.42,0,0,1,13.42,13.42V265.5a13.42,13.42,0,0,1-13.42,13.42H716.35a13.42,13.42,0,0,1-13.42-13.42Z" transform="translate(0 -79)"/><path class="cls-4" d="M702.93,211.83h0a13.42,13.42,0,0,1,13.42-13.42H836.16a13.42,13.42,0,0,1,13.42,13.42V265.5a13.42,13.42,0,0,1-13.42,13.42H716.35a13.42,13.42,0,0,1-13.42-13.42Z" transform="translate(0 -79)"/><path d="M725.92,234.59a.37.37,0,0,1-.3-.12.44.44,0,0,1-.11-.3V222a.48.48,0,0,1,.11-.33.37.37,0,0,1,.3-.12h4.22a5.53,5.53,0,0,1,4.06,1.27,5.31,5.31,0,0,1,1.3,3.8q0,.53,0,1.45t0,1.47a7.17,7.17,0,0,1-.58,2.89,3.45,3.45,0,0,1-1.67,1.66,7.15,7.15,0,0,1-3,.53Zm4.22-1.55a5,5,0,0,0,2.08-.36,2.26,2.26,0,0,0,1.13-1.14,5.67,5.67,0,0,0,.38-2.11q0-1.11,0-1.39t0-1.37a3.84,3.84,0,0,0-.89-2.73,3.74,3.74,0,0,0-2.78-.87h-2.78v10ZM742,234.77a4,4,0,0,1-3-1.19,4.87,4.87,0,0,1-1.25-3.23l0-.64,0-.61a4.83,4.83,0,0,1,1.25-3.2,4,4,0,0,1,3-1.2,4,4,0,0,1,3.17,1.31,5.23,5.23,0,0,1,1.13,3.55v.33a.42.42,0,0,1-.12.31.37.37,0,0,1-.3.13h-6.47v.16a3.44,3.44,0,0,0,.73,2.08,2.22,2.22,0,0,0,1.83.86,2.64,2.64,0,0,0,1.42-.34,3,3,0,0,0,.84-.72,1.21,1.21,0,0,1,.25-.28.8.8,0,0,1,.33,0h.81a.48.48,0,0,1,.3.09.3.3,0,0,1,.13.25,1.64,1.64,0,0,1-.52,1,4.1,4.1,0,0,1-1.42,1A5,5,0,0,1,742,234.77Zm2.61-5.73v0a3.09,3.09,0,0,0-.72-2.12,2.59,2.59,0,0,0-3.8,0,3.18,3.18,0,0,0-.69,2.13v0Zm4.41,9.09a.46.46,0,0,1-.31-.11.45.45,0,0,1-.11-.33V225.32a.45.45,0,0,1,.11-.33.46.46,0,0,1,.31-.11h.78a.42.42,0,0,1,.31.11.41.41,0,0,1,.13.33v.81a3.62,3.62,0,0,1,3.08-1.44,3.51,3.51,0,0,1,2.94,1.25,5.11,5.11,0,0,1,1,3.16q0,.2,0,.64t0,.63a5.16,5.16,0,0,1-1,3.16,4,4,0,0,1-6-.17v4.34a.42.42,0,0,1-.12.31.37.37,0,0,1-.3.13Zm3.94-4.81a2.24,2.24,0,0,0,2-.84,3.84,3.84,0,0,0,.67-2.2,3.44,3.44,0,0,0,0-.53q0-3.59-2.66-3.59a2.33,2.33,0,0,0-2,.88,3.51,3.51,0,0,0-.7,2q0,.2,0,.72t0,.73a3.25,3.25,0,0,0,.72,2A2.4,2.4,0,0,0,752.92,233.32Zm7.14,1.27a.42.42,0,0,1-.31-.12.44.44,0,0,1-.11-.3V221.77a.4.4,0,0,1,.42-.44h.83a.37.37,0,0,1,.3.13.42.42,0,0,1,.13.31v12.39a.41.41,0,0,1-.12.3.37.37,0,0,1-.3.13Zm8,.19a4.17,4.17,0,0,1-3.16-1.16,4.54,4.54,0,0,1-1.19-3.08l0-.8,0-.81a4.5,4.5,0,0,1,1.2-3.08,4.84,4.84,0,0,1,6.28,0,4.47,4.47,0,0,1,1.22,3.08q0,.41,0,.81t0,.8a4.54,4.54,0,0,1-1.19,3.08A4.19,4.19,0,0,1,768,234.77Zm0-1.41a2.44,2.44,0,0,0,1.89-.75,3.28,3.28,0,0,0,.77-2.17q0-.19,0-.7t0-.72a3.28,3.28,0,0,0-.77-2.17,2.44,2.44,0,0,0-1.89-.75,2.47,2.47,0,0,0-1.89.75,3.33,3.33,0,0,0-.75,2.17l0,.72,0,.7a3.33,3.33,0,0,0,.75,2.17A2.47,2.47,0,0,0,768,233.37Zm8.06,4.77a.38.38,0,0,1-.28-.11.36.36,0,0,1-.11-.27,1.72,1.72,0,0,1,.09-.34l1.45-3.41-3.56-8.42a.85.85,0,0,1-.11-.31.44.44,0,0,1,.13-.28.4.4,0,0,1,.27-.11h.86a.49.49,0,0,1,.45.3l2.88,6.88,2.94-6.87a.49.49,0,0,1,.45-.3h.84a.34.34,0,0,1,.25.11.36.36,0,0,1,.11.27.84.84,0,0,1-.09.33l-5.27,12.25a.83.83,0,0,1-.2.22.45.45,0,0,1-.27.08Zm9-3.55a.42.42,0,0,1-.31-.12.44.44,0,0,1-.11-.3v-8.84a.46.46,0,0,1,.11-.31.42.42,0,0,1,.31-.12h.78a.37.37,0,0,1,.3.13.46.46,0,0,1,.11.31v.63A3.34,3.34,0,0,1,789,224.7a3,3,0,0,1,2.91,1.72,3.36,3.36,0,0,1,1.28-1.25,3.71,3.71,0,0,1,1.86-.47,3.25,3.25,0,0,1,2.5,1,4.28,4.28,0,0,1,1,3v5.41a.41.41,0,0,1-.12.3.42.42,0,0,1-.31.13h-.8a.42.42,0,0,1-.31-.12.41.41,0,0,1-.12-.3v-5.23a3,3,0,0,0-.61-2.12,2.22,2.22,0,0,0-3.17,0,2.94,2.94,0,0,0-.64,2.11v5.23a.41.41,0,0,1-.12.3.37.37,0,0,1-.3.13h-.83a.43.43,0,0,1-.42-.42v-5.23a3,3,0,0,0-.64-2.12,2.14,2.14,0,0,0-1.59-.66,2.08,2.08,0,0,0-1.55.66,2.94,2.94,0,0,0-.64,2.11v5.25a.43.43,0,0,1-.42.42Zm20,.19a4,4,0,0,1-3-1.19,4.87,4.87,0,0,1-1.25-3.23l0-.64,0-.61a4.83,4.83,0,0,1,1.25-3.2,4,4,0,0,1,3-1.2,4,4,0,0,1,3.17,1.31,5.23,5.23,0,0,1,1.13,3.55v.33a.42.42,0,0,1-.12.31.37.37,0,0,1-.3.13h-6.47v.16a3.44,3.44,0,0,0,.73,2.08,2.22,2.22,0,0,0,1.83.86,2.64,2.64,0,0,0,1.42-.34,3,3,0,0,0,.84-.72,1.21,1.21,0,0,1,.25-.28.8.8,0,0,1,.33,0h.81a.48.48,0,0,1,.3.09.3.3,0,0,1,.13.25,1.64,1.64,0,0,1-.52,1,4.1,4.1,0,0,1-1.42,1A5,5,0,0,1,805.08,234.77Zm2.61-5.73v0a3.09,3.09,0,0,0-.72-2.12,2.59,2.59,0,0,0-3.8,0,3.18,3.18,0,0,0-.69,2.13v0Zm4.4,5.55a.42.42,0,0,1-.31-.12.44.44,0,0,1-.11-.3v-8.84a.46.46,0,0,1,.11-.31.42.42,0,0,1,.31-.12h.8a.42.42,0,0,1,.31.11.41.41,0,0,1,.13.33v.81a4,4,0,0,1,1.3-1.06,4,4,0,0,1,1.83-.37,3.45,3.45,0,0,1,2.78,1.16,4.43,4.43,0,0,1,1,3v5.28a.41.41,0,0,1-.12.3.42.42,0,0,1-.31.13h-.86a.42.42,0,0,1-.31-.12.44.44,0,0,1-.11-.3V229a3.08,3.08,0,0,0-.66-2.09,2.34,2.34,0,0,0-1.86-.75,2.51,2.51,0,0,0-1.92.77,2.92,2.92,0,0,0-.7,2.08v5.17a.41.41,0,0,1-.12.3.37.37,0,0,1-.3.13Zm14.43,0q-2.89,0-2.89-3.27v-5h-1.47a.38.38,0,0,1-.41-.41v-.59a.46.46,0,0,1,.11-.31.37.37,0,0,1,.3-.12h1.47v-3.11a.46.46,0,0,1,.11-.31.42.42,0,0,1,.31-.12h.81a.43.43,0,0,1,.44.44v3.11h2.31a.37.37,0,0,1,.3.13.42.42,0,0,1,.13.31v.59a.37.37,0,0,1-.12.3.4.4,0,0,1-.3.11H825.3v4.88a2.79,2.79,0,0,0,.3,1.44,1.17,1.17,0,0,0,1.06.48h1.14a.36.36,0,0,1,.28.13.37.37,0,0,1,.13.3v.63a.41.41,0,0,1-.12.3.36.36,0,0,1-.28.13Z" transform="translate(0 -79)"/><path d="M718.13,245.06a.44.44,0,0,1-.3-.11.42.42,0,0,1-.12-.31v-1a.42.42,0,0,1,.13-.31.38.38,0,0,1,.3-.14h1.11a.48.48,0,0,1,.45.45v1a.4.4,0,0,1-.14.31.46.46,0,0,1-.31.11Zm.16,11.53a.42.42,0,0,1-.31-.12.44.44,0,0,1-.11-.3v-8.84A.46.46,0,0,1,718,247a.42.42,0,0,1,.31-.12h.83a.41.41,0,0,1,.3.13.42.42,0,0,1,.13.31v8.84a.43.43,0,0,1-.42.42Zm4.48,0a.42.42,0,0,1-.31-.12.44.44,0,0,1-.11-.3v-8.84a.46.46,0,0,1,.11-.31.42.42,0,0,1,.31-.12h.8a.42.42,0,0,1,.31.11.41.41,0,0,1,.13.33v.81a4.05,4.05,0,0,1,1.3-1.06,4,4,0,0,1,1.83-.37,3.45,3.45,0,0,1,2.78,1.16,4.43,4.43,0,0,1,1,3v5.28a.41.41,0,0,1-.12.3.42.42,0,0,1-.31.13h-.86a.42.42,0,0,1-.31-.12.44.44,0,0,1-.11-.3V251a3.08,3.08,0,0,0-.66-2.09,2.34,2.34,0,0,0-1.86-.75,2.51,2.51,0,0,0-1.92.77A2.92,2.92,0,0,0,724,251v5.17a.41.41,0,0,1-.12.3.37.37,0,0,1-.3.13Zm16.08,0a.37.37,0,0,1-.3-.12.44.44,0,0,1-.11-.3V244a.48.48,0,0,1,.11-.33.37.37,0,0,1,.3-.12h.88a.41.41,0,0,1,.33.13.44.44,0,0,1,.13.33v4.64l5.06-4.8a1,1,0,0,1,.72-.3h.94a.34.34,0,0,1,.27.13.34.34,0,0,1,.11.25.34.34,0,0,1-.09.25l-5.83,5.63,6.22,6.17a.44.44,0,0,1,.09.27.37.37,0,0,1-.37.38h-1a1,1,0,0,1-.42-.08l-.31-.22L740.17,251v5.16a.38.38,0,0,1-.14.3.42.42,0,0,1-.31.13Zm13.71.19a3.39,3.39,0,0,1-2.73-1.14,4.61,4.61,0,0,1-1-3.06v-5.25A.46.46,0,0,1,749,247a.42.42,0,0,1,.31-.12h.86a.37.37,0,0,1,.3.13.42.42,0,0,1,.13.31v5.16q0,2.84,2.47,2.84a2.47,2.47,0,0,0,1.89-.75,3,3,0,0,0,.7-2.09v-5.16a.42.42,0,0,1,.13-.31.41.41,0,0,1,.3-.12h.86a.43.43,0,0,1,.44.44v8.84a.41.41,0,0,1-.12.3.42.42,0,0,1-.31.13h-.8a.42.42,0,0,1-.31-.12.44.44,0,0,1-.11-.3v-.84a3.75,3.75,0,0,1-1.28,1.09A4.12,4.12,0,0,1,752.56,256.77Zm12.32,0a3.61,3.61,0,0,1-3.08-1.42v.81a.41.41,0,0,1-.12.3.42.42,0,0,1-.31.13h-.78a.42.42,0,0,1-.31-.12.44.44,0,0,1-.11-.3V243.77a.4.4,0,0,1,.42-.44h.84a.37.37,0,0,1,.3.13.42.42,0,0,1,.13.31v4.31a3.56,3.56,0,0,1,3-1.39,3.47,3.47,0,0,1,2.94,1.28,5.32,5.32,0,0,1,1,3.2q0,.2,0,.56t0,.55a5.32,5.32,0,0,1-1,3.2A3.47,3.47,0,0,1,764.88,256.77Zm-.36-1.45a2.24,2.24,0,0,0,2-.84,3.84,3.84,0,0,0,.67-2.2,3.43,3.43,0,0,0,0-.53q0-3.59-2.66-3.59a2.38,2.38,0,0,0-2,.84,3.23,3.23,0,0,0-.72,2q0,.22,0,.73t0,.7a3.61,3.61,0,0,0,.7,2.08A2.35,2.35,0,0,0,764.52,255.32Zm10.55,1.45a4,4,0,0,1-3-1.19,4.87,4.87,0,0,1-1.25-3.23l0-.64,0-.61a4.83,4.83,0,0,1,1.25-3.2,4,4,0,0,1,3-1.2,4,4,0,0,1,3.17,1.31,5.23,5.23,0,0,1,1.13,3.55v.33a.42.42,0,0,1-.12.31.37.37,0,0,1-.3.13h-6.47v.16a3.44,3.44,0,0,0,.73,2.08,2.22,2.22,0,0,0,1.83.86,2.64,2.64,0,0,0,1.42-.34,3,3,0,0,0,.84-.72,1.21,1.21,0,0,1,.25-.28.8.8,0,0,1,.33,0h.81a.48.48,0,0,1,.3.09.3.3,0,0,1,.13.25,1.64,1.64,0,0,1-.52,1,4.1,4.1,0,0,1-1.42,1A5,5,0,0,1,775.07,256.77Zm2.61-5.73v0a3.09,3.09,0,0,0-.72-2.12,2.59,2.59,0,0,0-3.8,0,3.18,3.18,0,0,0-.69,2.13v0Zm4.4,5.55a.42.42,0,0,1-.31-.12.44.44,0,0,1-.11-.3v-8.83a.46.46,0,0,1,.11-.31.4.4,0,0,1,.31-.14h.78a.43.43,0,0,1,.45.45v.81a2.79,2.79,0,0,1,2.59-1.27h.72a.42.42,0,0,1,.31.11.41.41,0,0,1,.13.33V248a.4.4,0,0,1-.44.42h-1.06A2.14,2.14,0,0,0,784,249a2.17,2.17,0,0,0-.59,1.61v5.52a.41.41,0,0,1-.12.3.42.42,0,0,1-.31.13Zm7,0a.42.42,0,0,1-.31-.12.44.44,0,0,1-.11-.3v-8.84a.46.46,0,0,1,.11-.31.42.42,0,0,1,.31-.12h.8a.42.42,0,0,1,.31.11.41.41,0,0,1,.13.33v.81a4,4,0,0,1,1.3-1.06,4,4,0,0,1,1.83-.37,3.45,3.45,0,0,1,2.78,1.16,4.43,4.43,0,0,1,1,3v5.28a.41.41,0,0,1-.12.3.42.42,0,0,1-.31.13h-.86a.42.42,0,0,1-.31-.12.44.44,0,0,1-.11-.3V251a3.08,3.08,0,0,0-.66-2.09,2.34,2.34,0,0,0-1.86-.75,2.51,2.51,0,0,0-1.92.77,2.92,2.92,0,0,0-.7,2.08v5.17a.41.41,0,0,1-.12.3.37.37,0,0,1-.3.13Zm14.69.19a4,4,0,0,1-3-1.19,4.87,4.87,0,0,1-1.25-3.23l0-.64,0-.61a4.83,4.83,0,0,1,1.25-3.2,4,4,0,0,1,3-1.2A4,4,0,0,1,807,248a5.23,5.23,0,0,1,1.13,3.55v.33a.42.42,0,0,1-.12.31.37.37,0,0,1-.3.13h-6.47v.16a3.44,3.44,0,0,0,.73,2.08,2.22,2.22,0,0,0,1.83.86,2.64,2.64,0,0,0,1.42-.34,3,3,0,0,0,.84-.72,1.21,1.21,0,0,1,.25-.28.8.8,0,0,1,.33,0h.81a.48.48,0,0,1,.3.09.3.3,0,0,1,.13.25,1.64,1.64,0,0,1-.52,1,4.1,4.1,0,0,1-1.42,1A5,5,0,0,1,803.78,256.77Zm2.61-5.73v0a3.09,3.09,0,0,0-.72-2.12,2.59,2.59,0,0,0-3.8,0,3.18,3.18,0,0,0-.69,2.13v0Zm7.64,5.55q-2.89,0-2.89-3.27v-5h-1.47a.38.38,0,0,1-.41-.41v-.59a.46.46,0,0,1,.11-.31.37.37,0,0,1,.3-.12h1.47v-3.11a.46.46,0,0,1,.11-.31.42.42,0,0,1,.31-.12h.81a.43.43,0,0,1,.44.44v3.11h2.31a.37.37,0,0,1,.3.13.42.42,0,0,1,.13.31v.59a.37.37,0,0,1-.12.3.4.4,0,0,1-.3.11h-2.31v4.88a2.79,2.79,0,0,0,.3,1.44,1.17,1.17,0,0,0,1.06.48h1.14a.36.36,0,0,1,.28.13.37.37,0,0,1,.13.3v.63a.41.41,0,0,1-.12.3.36.36,0,0,1-.28.13Zm7.36.19a4,4,0,0,1-3-1.19,4.87,4.87,0,0,1-1.25-3.23l0-.64,0-.61a4.83,4.83,0,0,1,1.25-3.2,4,4,0,0,1,3-1.2,4,4,0,0,1,3.17,1.31,5.23,5.23,0,0,1,1.13,3.55v.33a.42.42,0,0,1-.12.31.37.37,0,0,1-.3.13H818.8v.16a3.44,3.44,0,0,0,.73,2.08,2.22,2.22,0,0,0,1.83.86,2.64,2.64,0,0,0,1.42-.34,3,3,0,0,0,.84-.72,1.21,1.21,0,0,1,.25-.28.8.8,0,0,1,.33,0H825a.48.48,0,0,1,.3.09.3.3,0,0,1,.13.25,1.64,1.64,0,0,1-.52,1,4.1,4.1,0,0,1-1.42,1A5,5,0,0,1,821.39,256.77ZM824,251v0a3.09,3.09,0,0,0-.72-2.12,2.59,2.59,0,0,0-3.8,0,3.18,3.18,0,0,0-.69,2.13v0Zm7.29,5.73a5,5,0,0,1-2.17-.42,3.8,3.8,0,0,1-1.33-1,1.64,1.64,0,0,1-.42-.91.33.33,0,0,1,.13-.28.48.48,0,0,1,.3-.11h.78a.28.28,0,0,1,.17,0,.69.69,0,0,1,.17.16,3.42,3.42,0,0,0,1,.83,2.92,2.92,0,0,0,1.42.3,3,3,0,0,0,1.61-.37,1.19,1.19,0,0,0,.61-1.08,1,1,0,0,0-.27-.75,2.09,2.09,0,0,0-.86-.5,16.09,16.09,0,0,0-1.8-.48,4.68,4.68,0,0,1-2.3-1,2.35,2.35,0,0,1-.67-1.73,2.45,2.45,0,0,1,.41-1.33,3.11,3.11,0,0,1,1.22-1,4.29,4.29,0,0,1,1.94-.41,4.66,4.66,0,0,1,2,.39,3.26,3.26,0,0,1,1.25.92,1.51,1.51,0,0,1,.42.88.36.36,0,0,1-.12.28.38.38,0,0,1-.28.11h-.7a.39.39,0,0,1-.37-.2,5.46,5.46,0,0,0-.53-.55,1.76,1.76,0,0,0-.62-.34,3.2,3.2,0,0,0-1-.14,2.17,2.17,0,0,0-1.39.39,1.22,1.22,0,0,0-.48,1,1,1,0,0,0,.2.66,1.86,1.86,0,0,0,.78.5,11.34,11.34,0,0,0,1.72.48,5.31,5.31,0,0,1,2.5,1.06,2.31,2.31,0,0,1,.73,1.77,2.53,2.53,0,0,1-.45,1.47,3,3,0,0,1-1.36,1A5.62,5.62,0,0,1,831.29,256.77Z" transform="translate(0 -79)"/><path class="cls-5" d="M599.25,234.52l3.15,4.16" transform="translate(0 -79)"/><path class="cls-4" d="M599.25,234.52l3.15,4.16" transform="translate(0 -79)"/><path class="cls-6" d="M602.4,240.33l4.54-1.65L602.4,237Z" transform="translate(0 -79)"/><path class="cls-5" d="M418.81,363.12l43.31-128.6" transform="translate(0 -79)"/><path class="cls-4" d="M418.81,363.12,460.2,240.21" transform="translate(0 -79)"/><path class="cls-6" d="M461.77,240.73l-.12-4.83-3,3.77Z" transform="translate(0 -79)"/><path class="cls-5" d="M473.27,391.4l17.42,3.53" transform="translate(0 -79)"/><path class="cls-4" d="M473.27,391.4l11.54,2.34" transform="translate(0 -79)"/><path class="cls-6" d="M484.48,395.36l4.78-.72-4.12-2.52Z" transform="translate(0 -79)"/><path class="cls-3" d="M139.25,137.57h0c0-9.48,20.07-17.17,44.82-17.17s44.82,7.69,44.82,17.17v68.67c0,9.48-20.07,17.17-44.82,17.17s-44.82-7.69-44.82-17.17Z" transform="translate(0 -79)"/><path class="cls-5" d="M228.89,137.57h0c0,9.48-20.07,17.17-44.82,17.17s-44.82-7.69-44.82-17.17" transform="translate(0 -79)"/><path class="cls-5" d="M139.25,137.57h0c0-9.48,20.07-17.17,44.82-17.17s44.82,7.69,44.82,17.17v68.67c0,9.48-20.07,17.17-44.82,17.17s-44.82-7.69-44.82-17.17Z" transform="translate(0 -79)"/><path class="cls-4" d="M228.89,137.57h0c0,9.48-20.07,17.17-44.82,17.17s-44.82-7.69-44.82-17.17" transform="translate(0 -79)"/><path class="cls-4" d="M139.25,137.57h0c0-9.48,20.07-17.17,44.82-17.17s44.82,7.69,44.82,17.17v68.67c0,9.48-20.07,17.17-44.82,17.17s-44.82-7.69-44.82-17.17Z" transform="translate(0 -79)"/><path d="M153.45,176.41V163.06h9v1.58h-7.25v4.14h6.27v1.58h-6.27v6.06Zm17.72-3.11,1.69.2a4.21,4.21,0,0,1-1.48,2.31,5.07,5.07,0,0,1-6.14-.48,5.15,5.15,0,0,1-1.23-3.67,5.37,5.37,0,0,1,1.25-3.8,4.28,4.28,0,0,1,3.27-1.34,4.09,4.09,0,0,1,3.16,1.33,5.2,5.2,0,0,1,1.23,3.7V172h-7.22a3.77,3.77,0,0,0,.91,2.45,2.69,2.69,0,0,0,2,.84,2.55,2.55,0,0,0,1.55-.47A3.21,3.21,0,0,0,171.18,173.31Zm-5.39-2.66h5.41a3.24,3.24,0,0,0-.62-1.83,2.5,2.5,0,0,0-2-1,2.62,2.62,0,0,0-1.91.77A3,3,0,0,0,165.79,170.65Zm15.45,4.58a6.53,6.53,0,0,1-1.77,1.09,5,5,0,0,1-1.8.31,3.52,3.52,0,0,1-2.45-.78,2.72,2.72,0,0,1-.53-3.28,2.63,2.63,0,0,1,.84-.94,4.13,4.13,0,0,1,1.19-.55,12.08,12.08,0,0,1,1.45-.25,14.87,14.87,0,0,0,2.92-.56q0-.34,0-.42a1.84,1.84,0,0,0-.47-1.42,2.78,2.78,0,0,0-1.87-.55,2.87,2.87,0,0,0-1.7.41,2.49,2.49,0,0,0-.81,1.42l-1.61-.22a3.91,3.91,0,0,1,.72-1.64,3.13,3.13,0,0,1,1.45-1,6.43,6.43,0,0,1,2.19-.34,5.68,5.68,0,0,1,2,.3,2.49,2.49,0,0,1,1.14.73,2.44,2.44,0,0,1,.52,1.11,9.75,9.75,0,0,1,.08,1.52v2.19a22.27,22.27,0,0,0,.11,2.89,4,4,0,0,0,.41,1.16h-1.7A3.22,3.22,0,0,1,181.24,175.23Zm-.14-3.67a11.37,11.37,0,0,1-2.67.63,5.91,5.91,0,0,0-1.44.33,1.52,1.52,0,0,0-.66.53,1.42,1.42,0,0,0-.22.78,1.39,1.39,0,0,0,.5,1.09,2.14,2.14,0,0,0,1.45.44,3.4,3.4,0,0,0,1.67-.41,2.57,2.57,0,0,0,1.09-1.14,4,4,0,0,0,.27-1.64Zm7.78,3.39.23,1.45a6.22,6.22,0,0,1-1.23.14,2.86,2.86,0,0,1-1.39-.28,1.61,1.61,0,0,1-.69-.73,5.85,5.85,0,0,1-.2-1.94V168h-1.2v-1.27h1.2v-2.39l1.63-1v3.38h1.66V168h-1.66v5.67a3.11,3.11,0,0,0,.08.89.78.78,0,0,0,.28.33,1.24,1.24,0,0,0,.58.11A5.56,5.56,0,0,0,188.88,174.95Zm7.93,1.47V175a3.53,3.53,0,0,1-3.06,1.64,4,4,0,0,1-1.61-.33,2.62,2.62,0,0,1-1.09-.83,3.07,3.07,0,0,1-.5-1.22,7.52,7.52,0,0,1-.11-1.53v-6h1.64v5.36a8.86,8.86,0,0,0,.11,1.73,1.74,1.74,0,0,0,.66,1,2,2,0,0,0,1.23.38,2.68,2.68,0,0,0,1.38-.37,2.15,2.15,0,0,0,.92-1,5.25,5.25,0,0,0,.27-1.89v-5.19h1.64v9.67Zm4,0v-9.67h1.47v1.47a4.07,4.07,0,0,1,1-1.36,1.85,1.85,0,0,1,1.06-.33,3.2,3.2,0,0,1,1.69.53l-.56,1.52a2.36,2.36,0,0,0-1.2-.36,1.53,1.53,0,0,0-1,.33,1.83,1.83,0,0,0-.61.89,6.25,6.25,0,0,0-.28,1.92v5.06Zm12.85-3.11,1.69.2a4.21,4.21,0,0,1-1.48,2.31,5.07,5.07,0,0,1-6.14-.48,5.15,5.15,0,0,1-1.23-3.67,5.37,5.37,0,0,1,1.25-3.8,4.28,4.28,0,0,1,3.27-1.34,4.09,4.09,0,0,1,3.16,1.33,5.2,5.2,0,0,1,1.23,3.7V172h-7.22a3.77,3.77,0,0,0,.91,2.45,2.69,2.69,0,0,0,2,.84,2.55,2.55,0,0,0,1.55-.47A3.21,3.21,0,0,0,213.7,173.31Zm-5.39-2.66h5.41a3.24,3.24,0,0,0-.62-1.83,2.5,2.5,0,0,0-2-1,2.62,2.62,0,0,0-1.91.77A3,3,0,0,0,208.31,170.65Z" transform="translate(0 -79)"/><path d="M162.62,194.12l1.66-.14a3.81,3.81,0,0,0,.55,1.64,3.11,3.11,0,0,0,1.34,1,5.24,5.24,0,0,0,2.06.39,5,5,0,0,0,1.78-.3,2.46,2.46,0,0,0,1.16-.81,2,2,0,0,0,.38-1.16,1.7,1.7,0,0,0-.37-1.09,2.72,2.72,0,0,0-1.19-.8q-.55-.2-2.39-.64a12.41,12.41,0,0,1-2.56-.84,3.62,3.62,0,0,1-1.44-1.23,3.09,3.09,0,0,1-.47-1.67,3.34,3.34,0,0,1,.58-1.87,3.54,3.54,0,0,1,1.67-1.34,6.43,6.43,0,0,1,2.45-.45,6.55,6.55,0,0,1,2.61.48,3.69,3.69,0,0,1,1.75,1.41,4,4,0,0,1,.66,2.09l-1.69.13a2.71,2.71,0,0,0-.94-1.91,3.52,3.52,0,0,0-2.31-.66,3.72,3.72,0,0,0-2.34.59,1.78,1.78,0,0,0-.73,1.42,1.47,1.47,0,0,0,.53,1.17,6.94,6.94,0,0,0,2.66,1,17.77,17.77,0,0,1,3,.84,3.93,3.93,0,0,1,1.72,1.36,3.31,3.31,0,0,1,.56,1.91,3.68,3.68,0,0,1-.61,2,4.08,4.08,0,0,1-1.75,1.47,6.19,6.19,0,0,1-2.58.52,7.71,7.71,0,0,1-3-.53,4.31,4.31,0,0,1-1.92-1.59A4.53,4.53,0,0,1,162.62,194.12ZM179,196.95l.23,1.45a6.22,6.22,0,0,1-1.23.14,2.86,2.86,0,0,1-1.39-.28,1.61,1.61,0,0,1-.69-.73,5.85,5.85,0,0,1-.2-1.94V190h-1.2v-1.27h1.2v-2.39l1.63-1v3.38H179V190h-1.66v5.67a3.11,3.11,0,0,0,.08.89.78.78,0,0,0,.28.33,1.24,1.24,0,0,0,.58.11A5.56,5.56,0,0,0,179,196.95Zm1-3.37a5,5,0,0,1,1.48-4,4.5,4.5,0,0,1,3-1.08,4.34,4.34,0,0,1,3.27,1.31,5,5,0,0,1,1.27,3.61,6.41,6.41,0,0,1-.56,2.94,4,4,0,0,1-1.64,1.66,4.69,4.69,0,0,1-2.33.59,4.35,4.35,0,0,1-3.28-1.3A5.25,5.25,0,0,1,180,193.57Zm1.69,0a4.23,4.23,0,0,0,.8,2.8,2.72,2.72,0,0,0,4.08,0,4.25,4.25,0,0,0,.81-2.84,4,4,0,0,0-.81-2.72,2.72,2.72,0,0,0-4.08,0A4.1,4.1,0,0,0,181.71,193.57Zm9.28,4.84v-9.67h1.47v1.47a4.07,4.07,0,0,1,1-1.36,1.85,1.85,0,0,1,1.06-.33,3.2,3.2,0,0,1,1.69.53l-.56,1.52a2.36,2.36,0,0,0-1.2-.36,1.53,1.53,0,0,0-1,.33,1.83,1.83,0,0,0-.61.89,6.25,6.25,0,0,0-.28,1.92v5.06Zm12.85-3.11,1.69.2a4.21,4.21,0,0,1-1.48,2.31,5.07,5.07,0,0,1-6.14-.48,5.15,5.15,0,0,1-1.23-3.67,5.37,5.37,0,0,1,1.25-3.8,4.28,4.28,0,0,1,3.27-1.34,4.09,4.09,0,0,1,3.16,1.33,5.2,5.2,0,0,1,1.23,3.7V194h-7.22a3.77,3.77,0,0,0,.91,2.45,2.69,2.69,0,0,0,2,.84,2.55,2.55,0,0,0,1.55-.47A3.21,3.21,0,0,0,203.85,195.31Zm-5.39-2.66h5.41a3.24,3.24,0,0,0-.62-1.83,2.5,2.5,0,0,0-2-1,2.62,2.62,0,0,0-1.91.77A3,3,0,0,0,198.46,192.65Z" transform="translate(0 -79)"/><path class="cls-5" d="M776.25,198.41V101.49H184.07V120.4" transform="translate(0 -79)"/><path class="cls-4" d="M776.25,198.41V101.49H184.07V114.4" transform="translate(0 -79)"/><path class="cls-6" d="M182.41,114.4l1.65,4.54,1.65-4.54Z" transform="translate(0 -79)"/><path class="cls-5" d="M0,173.36l139.24-1.45" transform="translate(0 -79)"/><path class="cls-4" d="M0,173.36,133.25,172" transform="translate(0 -79)"/><path class="cls-6" d="M133.27,173.62l4.52-1.7-4.56-1.6Z" transform="translate(0 -79)"/><path class="cls-3" d="M862.65,211.83h0a13.42,13.42,0,0,1,13.42-13.42h122a13.42,13.42,0,0,1,13.42,13.42V265.5a13.42,13.42,0,0,1-13.42,13.42h-122a13.42,13.42,0,0,1-13.42-13.42Z" transform="translate(0 -79)"/><path class="cls-4" d="M862.65,211.83h0a13.42,13.42,0,0,1,13.42-13.42h122a13.42,13.42,0,0,1,13.42,13.42V265.5a13.42,13.42,0,0,1-13.42,13.42h-122a13.42,13.42,0,0,1-13.42-13.42Z" transform="translate(0 -79)"/><path d="M892.65,245.59a.42.42,0,0,1-.31-.12.41.41,0,0,1-.12-.3V233a.48.48,0,0,1,.11-.33.41.41,0,0,1,.33-.12h.88a.48.48,0,0,1,.47.28l4,7.63,4-7.62a.46.46,0,0,1,.44-.28h.88a.39.39,0,0,1,.31.13.44.44,0,0,1,.13.33v12.19a.41.41,0,0,1-.12.3.42.42,0,0,1-.31.13h-.86a.37.37,0,0,1-.3-.12.44.44,0,0,1-.11-.3v-9.28l-3.19,6.17a.62.62,0,0,1-.59.39h-.56a.64.64,0,0,1-.59-.39l-3.17-6.17v9.28a.41.41,0,0,1-.12.3.42.42,0,0,1-.31.13Zm18,.19a4.17,4.17,0,0,1-3.16-1.16,4.54,4.54,0,0,1-1.19-3.08l0-.8,0-.81a4.5,4.5,0,0,1,1.2-3.08,4.84,4.84,0,0,1,6.28,0,4.47,4.47,0,0,1,1.22,3.08q0,.41,0,.81t0,.8a4.54,4.54,0,0,1-1.19,3.08A4.19,4.19,0,0,1,910.69,245.77Zm0-1.41a2.44,2.44,0,0,0,1.89-.75,3.28,3.28,0,0,0,.77-2.17q0-.19,0-.7t0-.72a3.28,3.28,0,0,0-.77-2.17,2.44,2.44,0,0,0-1.89-.75,2.47,2.47,0,0,0-1.89.75,3.33,3.33,0,0,0-.75,2.17l0,.72,0,.7a3.33,3.33,0,0,0,.75,2.17A2.47,2.47,0,0,0,910.69,244.37Zm7.17,1.22a.42.42,0,0,1-.31-.12.44.44,0,0,1-.11-.3v-8.84a.46.46,0,0,1,.11-.31.42.42,0,0,1,.31-.12h.8a.42.42,0,0,1,.31.11.41.41,0,0,1,.13.33v.81a4.05,4.05,0,0,1,1.3-1.06,4,4,0,0,1,1.83-.37,3.45,3.45,0,0,1,2.78,1.16,4.43,4.43,0,0,1,1,3v5.28a.41.41,0,0,1-.12.3.42.42,0,0,1-.31.13h-.86a.42.42,0,0,1-.31-.12.44.44,0,0,1-.11-.3V240a3.08,3.08,0,0,0-.66-2.09,2.34,2.34,0,0,0-1.86-.75,2.51,2.51,0,0,0-1.92.77,2.92,2.92,0,0,0-.7,2.08v5.17a.41.41,0,0,1-.12.3.37.37,0,0,1-.3.13ZM929,234.06a.44.44,0,0,1-.3-.11.42.42,0,0,1-.12-.31v-1a.42.42,0,0,1,.13-.31.38.38,0,0,1,.3-.14h1.11a.48.48,0,0,1,.45.45v1a.4.4,0,0,1-.14.31.46.46,0,0,1-.31.11Zm.16,11.53a.42.42,0,0,1-.31-.12.44.44,0,0,1-.11-.3v-8.84a.46.46,0,0,1,.11-.31.42.42,0,0,1,.31-.12H930a.41.41,0,0,1,.3.13.42.42,0,0,1,.13.31v8.84a.43.43,0,0,1-.42.42Zm7.77,0q-2.89,0-2.89-3.27v-5h-1.47a.38.38,0,0,1-.41-.41v-.59a.46.46,0,0,1,.11-.31.37.37,0,0,1,.3-.12H934v-3.11a.46.46,0,0,1,.11-.31.42.42,0,0,1,.31-.12h.81a.43.43,0,0,1,.44.44v3.11H938a.37.37,0,0,1,.3.13.42.42,0,0,1,.13.31v.59a.37.37,0,0,1-.12.3.4.4,0,0,1-.3.11h-2.31v4.88a2.79,2.79,0,0,0,.3,1.44,1.17,1.17,0,0,0,1.06.48h1.14a.36.36,0,0,1,.28.13.37.37,0,0,1,.13.3v.63a.41.41,0,0,1-.12.3.36.36,0,0,1-.28.13Zm7.44.19a4.17,4.17,0,0,1-3.16-1.16,4.54,4.54,0,0,1-1.19-3.08l0-.8,0-.81a4.5,4.5,0,0,1,1.2-3.08,4.84,4.84,0,0,1,6.28,0,4.47,4.47,0,0,1,1.22,3.08q0,.41,0,.81t0,.8a4.54,4.54,0,0,1-1.19,3.08A4.19,4.19,0,0,1,944.35,245.77Zm0-1.41a2.44,2.44,0,0,0,1.89-.75,3.28,3.28,0,0,0,.77-2.17q0-.19,0-.7t0-.72a3.28,3.28,0,0,0-.77-2.17,2.44,2.44,0,0,0-1.89-.75,2.47,2.47,0,0,0-1.89.75,3.33,3.33,0,0,0-.75,2.17l0,.72,0,.7a3.33,3.33,0,0,0,.75,2.17A2.47,2.47,0,0,0,944.35,244.37Zm7.17,1.22a.42.42,0,0,1-.31-.12.44.44,0,0,1-.11-.3v-8.83a.46.46,0,0,1,.11-.31.4.4,0,0,1,.31-.14h.78a.43.43,0,0,1,.45.45v.81a2.79,2.79,0,0,1,2.59-1.27h.72a.42.42,0,0,1,.31.11.41.41,0,0,1,.13.33V237a.4.4,0,0,1-.44.42H955a2.14,2.14,0,0,0-1.61.61,2.17,2.17,0,0,0-.59,1.61v5.52a.41.41,0,0,1-.12.3.42.42,0,0,1-.31.13Zm6.86-11.53a.44.44,0,0,1-.3-.11.42.42,0,0,1-.12-.31v-1a.42.42,0,0,1,.13-.31.38.38,0,0,1,.3-.14h1.11a.48.48,0,0,1,.45.45v1a.4.4,0,0,1-.14.31.46.46,0,0,1-.31.11Zm.16,11.53a.42.42,0,0,1-.31-.12.44.44,0,0,1-.11-.3v-8.84a.46.46,0,0,1,.11-.31.42.42,0,0,1,.31-.12h.83a.41.41,0,0,1,.3.13.42.42,0,0,1,.13.31v8.84a.43.43,0,0,1-.42.42Zm4.48,0a.42.42,0,0,1-.31-.12.44.44,0,0,1-.11-.3v-8.84a.46.46,0,0,1,.11-.31.42.42,0,0,1,.31-.12h.8a.42.42,0,0,1,.31.11.41.41,0,0,1,.13.33v.81a4.05,4.05,0,0,1,1.3-1.06,4,4,0,0,1,1.83-.37,3.45,3.45,0,0,1,2.78,1.16,4.43,4.43,0,0,1,1,3v5.28a.41.41,0,0,1-.12.3.42.42,0,0,1-.31.13h-.86a.42.42,0,0,1-.31-.12.44.44,0,0,1-.11-.3V240a3.08,3.08,0,0,0-.66-2.09,2.34,2.34,0,0,0-1.86-.75,2.51,2.51,0,0,0-1.92.77,2.92,2.92,0,0,0-.7,2.08v5.17a.41.41,0,0,1-.12.3.37.37,0,0,1-.3.13Zm14.77,4.11a5,5,0,0,1-2.48-.53A3.35,3.35,0,0,1,974,248a2.47,2.47,0,0,1-.37-1.16.41.41,0,0,1,.13-.3.48.48,0,0,1,.3-.11h.83a.47.47,0,0,1,.28.08.62.62,0,0,1,.19.31,2.23,2.23,0,0,0,2.38,1.48,3,3,0,0,0,2.06-.59,2.72,2.72,0,0,0,.67-2.11v-1.28a3.61,3.61,0,0,1-3,1.38,3.53,3.53,0,0,1-3-1.27,5.44,5.44,0,0,1-1-3.22l0-.52,0-.5a5.47,5.47,0,0,1,1-3.2,3.51,3.51,0,0,1,3-1.28,3.61,3.61,0,0,1,3,1.44v-.8a.42.42,0,0,1,.13-.31.4.4,0,0,1,.31-.14h.8a.4.4,0,0,1,.31.14.42.42,0,0,1,.13.31v9Q982.14,249.7,977.78,249.7Zm0-5.47a2.34,2.34,0,0,0,2-.84,3.6,3.6,0,0,0,.72-2q0-.17,0-.66t0-.64a3.52,3.52,0,0,0-.72-2,2.32,2.32,0,0,0-2-.86,2.23,2.23,0,0,0-2,.86,4.06,4.06,0,0,0-.66,2.19l0,.48,0,.5a4.14,4.14,0,0,0,.66,2.2A2.24,2.24,0,0,0,977.75,244.23Z" transform="translate(0 -79)"/><path class="cls-5" d="M849.58,238.67h13.07" transform="translate(0 -79)"/><path class="cls-4" d="M849.58,238.67h7.07" transform="translate(0 -79)"/><path class="cls-6" d="M856.65,240.32l4.54-1.65L856.65,237Z" transform="translate(0 -79)"/><path class="cls-5" d="M937.06,198.41V101.49h-753V120.4" transform="translate(0 -79)"/><path class="cls-4" d="M937.06,198.41V101.49h-753V114.4" transform="translate(0 -79)"/><path class="cls-6" d="M182.4,114.4l1.65,4.54,1.65-4.54Z" transform="translate(0 -79)"/><path class="cls-5" d="M776.25,198.41v-25H391.62v46" transform="translate(0 -79)"/><path class="cls-4" d="M776.25,198.41v-25H391.62v40" transform="translate(0 -79)"/><path class="cls-6" d="M390,213.42l1.65,4.54,1.65-4.54Z" transform="translate(0 -79)"/><path class="cls-3" d="M364.35,372.55h0a9.43,9.43,0,0,1,9.43-9.43h90.06a9.43,9.43,0,0,1,9.43,9.43v37.71a9.43,9.43,0,0,1-9.43,9.43H373.78a9.43,9.43,0,0,1-9.43-9.43Z" transform="translate(0 -79)"/><path class="cls-4" d="M364.35,372.55h0a9.43,9.43,0,0,1,9.43-9.43h90.06a9.43,9.43,0,0,1,9.43,9.43v37.71a9.43,9.43,0,0,1-9.43,9.43H373.78a9.43,9.43,0,0,1-9.43-9.43Z" transform="translate(0 -79)"/><path d="M403,398.32a.37.37,0,0,1-.3-.12.44.44,0,0,1-.11-.3V385.71a.48.48,0,0,1,.11-.33.37.37,0,0,1,.3-.12h7.67a.43.43,0,0,1,.45.45v.67a.37.37,0,0,1-.12.3.48.48,0,0,1-.33.11h-6.36v4.16h6a.39.39,0,0,1,.31.13.44.44,0,0,1,.13.33V392a.4.4,0,0,1-.44.42h-6v4.31h6.52a.39.39,0,0,1,.31.13.41.41,0,0,1,.13.33v.67a.41.41,0,0,1-.12.3.42.42,0,0,1-.31.13Zm13.74,0a.73.73,0,0,1-.7-.47l-3.47-8.66a.72.72,0,0,1,0-.19.38.38,0,0,1,.11-.28.4.4,0,0,1,.27-.11h.86a.49.49,0,0,1,.45.3l2.88,7.45,2.86-7.45a.56.56,0,0,1,.16-.2.48.48,0,0,1,.3-.09h.86a.36.36,0,0,1,.27.11.38.38,0,0,1,.11.28l0,.19-3.44,8.66a.73.73,0,0,1-.7.47Zm9.22.19a3.85,3.85,0,0,1-1.69-.37,3.29,3.29,0,0,1-1.23-1,2.41,2.41,0,0,1-.45-1.42,2.44,2.44,0,0,1,1-2,5.92,5.92,0,0,1,2.75-1l2.8-.39v-.55q0-1.92-2.22-1.92a2.44,2.44,0,0,0-1.37.34,2.26,2.26,0,0,0-.77.81.64.64,0,0,1-.16.25.37.37,0,0,1-.23.06h-.73a.42.42,0,0,1-.28-.11.41.41,0,0,1-.12-.3,1.77,1.77,0,0,1,.41-1,3.29,3.29,0,0,1,1.23-1,4.58,4.58,0,0,1,2.06-.42,3.94,3.94,0,0,1,3,1,3.41,3.41,0,0,1,.91,2.42v6.08a.41.41,0,0,1-.12.3.37.37,0,0,1-.3.13h-.83a.37.37,0,0,1-.3-.12.44.44,0,0,1-.11-.3v-.83a3.21,3.21,0,0,1-1.2,1A4.36,4.36,0,0,1,426,398.51Zm.38-1.36a2.7,2.7,0,0,0,2-.8,3.25,3.25,0,0,0,.78-2.34v-.52l-2.17.31a5.15,5.15,0,0,0-2,.64,1.29,1.29,0,0,0-.69,1.11,1.35,1.35,0,0,0,.63,1.19A2.66,2.66,0,0,0,426.35,397.15Zm7.65,1.17a.42.42,0,0,1-.31-.12.44.44,0,0,1-.11-.3V385.51a.4.4,0,0,1,.42-.44h.83a.37.37,0,0,1,.3.13.42.42,0,0,1,.13.31V397.9a.41.41,0,0,1-.12.3.37.37,0,0,1-.3.13Z" transform="translate(0 -79)"/><path class="cls-5" d="M184.07,223.41v168H364.35" transform="translate(0 -79)"/><path class="cls-4" d="M184.07,223.41v168H358.35" transform="translate(0 -79)"/><path class="cls-6" d="M358.35,393.07l4.54-1.65-4.54-1.65Z" transform="translate(0 -79)"/><path class="cls-5" d="M391.64,276l27.18,87.12" transform="translate(0 -79)"/><path class="cls-4" d="M391.64,276,417,357.39" transform="translate(0 -79)"/><path class="cls-6" d="M415.45,357.88l2.93,3.84.23-4.82Z" transform="translate(0 -79)"/><path class="cls-5" d="M228.89,171.91l29.67,50.36" transform="translate(0 -79)"/><path class="cls-4" d="M228.89,171.91l26.62,45.19" transform="translate(0 -79)"/><path class="cls-6" d="M254.09,217.94l3.73,3.07-.88-4.75Z" transform="translate(0 -79)"/><path class="cls-3" d="M602.39,219.81h0a9.43,9.43,0,0,1,9.43-9.43H682.6a9.43,9.43,0,0,1,9.43,9.43v37.71A9.43,9.43,0,0,1,682.6,267H611.82a9.43,9.43,0,0,1-9.43-9.43Z" transform="translate(0 -79)"/><path class="cls-4" d="M602.39,219.81h0a9.43,9.43,0,0,1,9.43-9.43H682.6a9.43,9.43,0,0,1,9.43,9.43v37.71A9.43,9.43,0,0,1,682.6,267H611.82a9.43,9.43,0,0,1-9.43-9.43Z" transform="translate(0 -79)"/><path d="M629.35,245.59a.42.42,0,0,1-.31-.12.44.44,0,0,1-.11-.3v-11h-3.61A.42.42,0,0,1,625,234a.46.46,0,0,1-.11-.31V233a.48.48,0,0,1,.11-.33.42.42,0,0,1,.31-.12h9a.41.41,0,0,1,.33.13.48.48,0,0,1,.11.33v.72a.43.43,0,0,1-.44.44h-3.58v11a.38.38,0,0,1-.14.3.41.41,0,0,1-.3.13Zm9.3.19a4,4,0,0,1-3-1.19,4.87,4.87,0,0,1-1.25-3.23l0-.64,0-.61a4.83,4.83,0,0,1,1.25-3.2,4,4,0,0,1,3-1.2,4,4,0,0,1,3.17,1.31,5.23,5.23,0,0,1,1.13,3.55v.33a.42.42,0,0,1-.12.31.37.37,0,0,1-.3.13h-6.47v.16a3.44,3.44,0,0,0,.73,2.08,2.22,2.22,0,0,0,1.83.86,2.64,2.64,0,0,0,1.42-.34,3,3,0,0,0,.84-.72,1.21,1.21,0,0,1,.25-.28.8.8,0,0,1,.33,0h.81a.48.48,0,0,1,.3.09.3.3,0,0,1,.13.25,1.64,1.64,0,0,1-.52,1,4.1,4.1,0,0,1-1.42,1A5,5,0,0,1,638.65,245.78Zm2.61-5.73v0a3.09,3.09,0,0,0-.72-2.12,2.59,2.59,0,0,0-3.8,0,3.18,3.18,0,0,0-.69,2.13v0Zm7.29,5.73a5,5,0,0,1-2.17-.42,3.8,3.8,0,0,1-1.33-1,1.64,1.64,0,0,1-.42-.91.33.33,0,0,1,.13-.28.48.48,0,0,1,.3-.11h.78a.28.28,0,0,1,.17,0,.69.69,0,0,1,.17.16,3.42,3.42,0,0,0,1,.83,2.92,2.92,0,0,0,1.42.3,3,3,0,0,0,1.61-.37,1.19,1.19,0,0,0,.61-1.08,1,1,0,0,0-.27-.75,2.09,2.09,0,0,0-.86-.5,16.08,16.08,0,0,0-1.8-.48,4.68,4.68,0,0,1-2.3-1,2.35,2.35,0,0,1-.67-1.73,2.45,2.45,0,0,1,.41-1.33,3.11,3.11,0,0,1,1.22-1,4.29,4.29,0,0,1,1.94-.41,4.66,4.66,0,0,1,2,.39,3.26,3.26,0,0,1,1.25.92,1.51,1.51,0,0,1,.42.88.36.36,0,0,1-.12.28.38.38,0,0,1-.28.11H651a.39.39,0,0,1-.37-.2,5.45,5.45,0,0,0-.53-.55,1.76,1.76,0,0,0-.62-.34,3.2,3.2,0,0,0-1-.14,2.17,2.17,0,0,0-1.39.39,1.22,1.22,0,0,0-.48,1,1,1,0,0,0,.2.66,1.86,1.86,0,0,0,.78.5,11.34,11.34,0,0,0,1.72.48,5.31,5.31,0,0,1,2.5,1.06,2.31,2.31,0,0,1,.73,1.77,2.53,2.53,0,0,1-.45,1.47,3,3,0,0,1-1.36,1A5.62,5.62,0,0,1,648.54,245.78Zm9.86-.19q-2.89,0-2.89-3.27v-5H654a.38.38,0,0,1-.41-.41v-.59a.46.46,0,0,1,.11-.31.37.37,0,0,1,.3-.12h1.47v-3.11a.46.46,0,0,1,.11-.31.42.42,0,0,1,.31-.12h.81a.43.43,0,0,1,.44.44v3.11h2.31a.37.37,0,0,1,.3.13.42.42,0,0,1,.13.31v.59a.37.37,0,0,1-.12.3.4.4,0,0,1-.3.11h-2.31v4.88a2.79,2.79,0,0,0,.3,1.44,1.17,1.17,0,0,0,1.06.48h1.14a.36.36,0,0,1,.28.13.37.37,0,0,1,.13.3v.63a.41.41,0,0,1-.12.3.36.36,0,0,1-.28.13Zm6.83.19a5,5,0,0,1-2.17-.42,3.8,3.8,0,0,1-1.33-1,1.64,1.64,0,0,1-.42-.91.33.33,0,0,1,.13-.28.48.48,0,0,1,.3-.11h.78a.28.28,0,0,1,.17,0,.69.69,0,0,1,.17.16,3.42,3.42,0,0,0,1,.83,2.92,2.92,0,0,0,1.42.3,3,3,0,0,0,1.61-.37,1.19,1.19,0,0,0,.61-1.08,1,1,0,0,0-.27-.75,2.09,2.09,0,0,0-.86-.5,16.08,16.08,0,0,0-1.8-.48,4.68,4.68,0,0,1-2.3-1,2.35,2.35,0,0,1-.67-1.73,2.45,2.45,0,0,1,.41-1.33,3.11,3.11,0,0,1,1.22-1,4.29,4.29,0,0,1,1.94-.41,4.66,4.66,0,0,1,2,.39,3.26,3.26,0,0,1,1.25.92,1.51,1.51,0,0,1,.42.88.36.36,0,0,1-.12.28.38.38,0,0,1-.28.11h-.7a.39.39,0,0,1-.37-.2,5.45,5.45,0,0,0-.53-.55,1.76,1.76,0,0,0-.62-.34,3.2,3.2,0,0,0-1-.14,2.17,2.17,0,0,0-1.39.39,1.22,1.22,0,0,0-.48,1,1,1,0,0,0,.2.66,1.86,1.86,0,0,0,.78.5,11.34,11.34,0,0,0,1.72.48,5.31,5.31,0,0,1,2.5,1.06,2.31,2.31,0,0,1,.73,1.77,2.53,2.53,0,0,1-.45,1.47,3,3,0,0,1-1.36,1A5.62,5.62,0,0,1,665.24,245.78Z" transform="translate(0 -79)"/><path class="cls-5" d="M692,238.67h10.9" transform="translate(0 -79)"/><path class="cls-4" d="M692,238.67h4.9" transform="translate(0 -79)"/><path class="cls-6" d="M696.93,240.32l4.54-1.65L696.93,237Z" transform="translate(0 -79)"/><path class="cls-5" d="M649.66,394.92l53.26-156.25" transform="translate(0 -79)"/><path class="cls-4" d="M649.66,394.92,701,244.35" transform="translate(0 -79)"/><path class="cls-6" d="M702.54,244.88l-.1-4.83-3,3.76Z" transform="translate(0 -79)"/><path class="cls-3" d="M113.21,455.53h0a6.35,6.35,0,0,1,6.35-6.35H962.26a6.35,6.35,0,0,1,6.35,6.35v25.39a6.35,6.35,0,0,1-6.35,6.35H119.56a6.35,6.35,0,0,1-6.35-6.35Z" transform="translate(0 -79)"/><path class="cls-4" d="M113.21,455.53h0a6.35,6.35,0,0,1,6.35-6.35H962.26a6.35,6.35,0,0,1,6.35,6.35v25.39a6.35,6.35,0,0,1-6.35,6.35H119.56a6.35,6.35,0,0,1-6.35-6.35Z" transform="translate(0 -79)"/><path d="M459.9,468.65a7.25,7.25,0,0,1,1.78-5.2,6,6,0,0,1,4.61-1.89,6.34,6.34,0,0,1,3.33.89,5.72,5.72,0,0,1,2.27,2.47,8,8,0,0,1,.78,3.58,7.84,7.84,0,0,1-.83,3.64,5.59,5.59,0,0,1-2.31,2.42,6.62,6.62,0,0,1-3.25.83,6.32,6.32,0,0,1-3.36-.91,5.93,5.93,0,0,1-2.25-2.5A7.53,7.53,0,0,1,459.9,468.65Zm1.81,0a5.37,5.37,0,0,0,1.3,3.81,4.53,4.53,0,0,0,6.55,0,5.71,5.71,0,0,0,1.28-4,6.89,6.89,0,0,0-.55-2.84,4.12,4.12,0,0,0-1.61-1.87,4.35,4.35,0,0,0-2.37-.67,4.54,4.54,0,0,0-3.25,1.3Q461.71,465.66,461.71,468.66Zm13,6.48v-9.67h1.47v1.47a4.07,4.07,0,0,1,1-1.36,1.85,1.85,0,0,1,1.06-.33,3.2,3.2,0,0,1,1.69.53l-.56,1.52a2.36,2.36,0,0,0-1.2-.36,1.53,1.53,0,0,0-1,.33,1.83,1.83,0,0,0-.61.89,6.25,6.25,0,0,0-.28,1.92v5.06Zm12.54-3.55,1.61.22a4.21,4.21,0,0,1-1.36,2.61,3.93,3.93,0,0,1-2.67.94,4.14,4.14,0,0,1-3.19-1.3,5.27,5.27,0,0,1-1.2-3.72,6.78,6.78,0,0,1,.52-2.75,3.55,3.55,0,0,1,1.58-1.75,4.66,4.66,0,0,1,2.31-.59,4,4,0,0,1,2.58.8,3.65,3.65,0,0,1,1.28,2.27l-1.59.23a2.64,2.64,0,0,0-.81-1.45,2.05,2.05,0,0,0-1.39-.5,2.56,2.56,0,0,0-2,.89,4.2,4.2,0,0,0-.78,2.81,4.38,4.38,0,0,0,.75,2.84,2.45,2.45,0,0,0,2,.88,2.28,2.28,0,0,0,1.61-.59A2.92,2.92,0,0,0,487.26,471.6Zm3,3.55V461.79h1.64v4.8a3.65,3.65,0,0,1,2.89-1.33,3.86,3.86,0,0,1,1.86.42,2.48,2.48,0,0,1,1.14,1.17,5.39,5.39,0,0,1,.34,2.17v6.13h-1.64V469a2.55,2.55,0,0,0-.53-1.8,2,2,0,0,0-1.52-.56,2.57,2.57,0,0,0-1.36.39,2.17,2.17,0,0,0-.92,1,4.79,4.79,0,0,0-.27,1.78v5.3Zm17-3.11,1.69.2a4.21,4.21,0,0,1-1.48,2.31,5.07,5.07,0,0,1-6.14-.48,5.15,5.15,0,0,1-1.23-3.67,5.37,5.37,0,0,1,1.25-3.8,4.28,4.28,0,0,1,3.27-1.34,4.09,4.09,0,0,1,3.16,1.33,5.2,5.2,0,0,1,1.23,3.7v.44H501.8a3.77,3.77,0,0,0,.91,2.45,2.69,2.69,0,0,0,2,.84,2.55,2.55,0,0,0,1.55-.47A3.21,3.21,0,0,0,507.28,472Zm-5.39-2.66h5.41a3.24,3.24,0,0,0-.62-1.83,2.5,2.5,0,0,0-2-1,2.62,2.62,0,0,0-1.91.77A3,3,0,0,0,501.89,469.38Zm8.49,2.88L512,472a2.26,2.26,0,0,0,.75,1.5,2.68,2.68,0,0,0,1.75.52,2.58,2.58,0,0,0,1.67-.45,1.41,1.41,0,0,0,.55-1.09,1,1,0,0,0-.48-.87,6.75,6.75,0,0,0-1.67-.55,16.6,16.6,0,0,1-2.52-.8,2.42,2.42,0,0,1-1-.91,2.49,2.49,0,0,1-.36-1.31,2.45,2.45,0,0,1,.3-1.19,2.57,2.57,0,0,1,.81-.92,3.18,3.18,0,0,1,1-.47,4.89,4.89,0,0,1,1.42-.2,5.59,5.59,0,0,1,2,.33,2.69,2.69,0,0,1,1.27.89A3.4,3.4,0,0,1,518,468l-1.61.22a1.75,1.75,0,0,0-.64-1.17,2.26,2.26,0,0,0-1.47-.42,2.7,2.7,0,0,0-1.62.38,1.1,1.1,0,0,0-.47.88,1,1,0,0,0,.19.58,1.45,1.45,0,0,0,.64.44q.23.09,1.44.42a19.09,19.09,0,0,1,2.44.75,2.47,2.47,0,0,1,1.08.86,2.41,2.41,0,0,1,.39,1.41,2.72,2.72,0,0,1-.48,1.55,3.1,3.1,0,0,1-1.37,1.13,5.12,5.12,0,0,1-2,.39,4.59,4.59,0,0,1-2.87-.78A3.62,3.62,0,0,1,510.38,472.26Zm13.56,1.42.23,1.45a6.22,6.22,0,0,1-1.23.14,2.86,2.86,0,0,1-1.39-.28,1.61,1.61,0,0,1-.69-.73,5.85,5.85,0,0,1-.2-1.94v-5.58h-1.2v-1.27h1.2v-2.39l1.63-1v3.38h1.66v1.27h-1.66v5.67a3.11,3.11,0,0,0,.08.89.78.78,0,0,0,.28.33,1.24,1.24,0,0,0,.58.11A5.56,5.56,0,0,0,523.94,473.68Zm1.59,1.47v-9.67H527v1.47a4.07,4.07,0,0,1,1-1.36,1.85,1.85,0,0,1,1.06-.33,3.2,3.2,0,0,1,1.69.53l-.56,1.52a2.36,2.36,0,0,0-1.2-.36,1.53,1.53,0,0,0-1,.33,1.83,1.83,0,0,0-.61.89,6.25,6.25,0,0,0-.28,1.92v5.06ZM538.07,474a6.53,6.53,0,0,1-1.77,1.09,5,5,0,0,1-1.8.31,3.52,3.52,0,0,1-2.45-.78,2.72,2.72,0,0,1-.53-3.28,2.63,2.63,0,0,1,.84-.94,4.13,4.13,0,0,1,1.19-.55,12.07,12.07,0,0,1,1.45-.25,14.87,14.87,0,0,0,2.92-.56q0-.34,0-.42a1.84,1.84,0,0,0-.47-1.42,2.78,2.78,0,0,0-1.87-.55,2.87,2.87,0,0,0-1.7.41,2.49,2.49,0,0,0-.81,1.42l-1.61-.22a3.9,3.9,0,0,1,.72-1.64,3.13,3.13,0,0,1,1.45-1,6.43,6.43,0,0,1,2.19-.34,5.68,5.68,0,0,1,2,.3,2.49,2.49,0,0,1,1.14.73,2.44,2.44,0,0,1,.52,1.11,9.75,9.75,0,0,1,.08,1.52v2.19a22.26,22.26,0,0,0,.11,2.89,4,4,0,0,0,.41,1.16h-1.7A3.22,3.22,0,0,1,538.07,474Zm-.14-3.67a11.37,11.37,0,0,1-2.67.63,5.91,5.91,0,0,0-1.44.33,1.52,1.52,0,0,0-.66.53,1.42,1.42,0,0,0-.22.78,1.39,1.39,0,0,0,.5,1.09,2.14,2.14,0,0,0,1.45.44,3.4,3.4,0,0,0,1.67-.41,2.57,2.57,0,0,0,1.09-1.14,4,4,0,0,0,.27-1.64Zm7.78,3.39.23,1.45a6.22,6.22,0,0,1-1.23.14,2.86,2.86,0,0,1-1.39-.28,1.61,1.61,0,0,1-.69-.73,5.85,5.85,0,0,1-.2-1.94v-5.58h-1.2v-1.27h1.2v-2.39l1.63-1v3.38h1.66v1.27h-1.66v5.67a3.11,3.11,0,0,0,.08.89.78.78,0,0,0,.28.33,1.24,1.24,0,0,0,.58.11A5.56,5.56,0,0,0,545.71,473.68Zm1.61-10v-1.89H549v1.89Zm0,11.47v-9.67H549v9.67Zm3.54-4.84a5,5,0,0,1,1.48-4,4.5,4.5,0,0,1,3-1.08,4.34,4.34,0,0,1,3.27,1.31,5,5,0,0,1,1.27,3.61,6.41,6.41,0,0,1-.56,2.94,4,4,0,0,1-1.64,1.66,4.69,4.69,0,0,1-2.33.59,4.35,4.35,0,0,1-3.28-1.3A5.25,5.25,0,0,1,550.85,470.3Zm1.69,0a4.23,4.23,0,0,0,.8,2.8,2.72,2.72,0,0,0,4.08,0,4.25,4.25,0,0,0,.81-2.84,4,4,0,0,0-.81-2.72,2.72,2.72,0,0,0-4.08,0A4.1,4.1,0,0,0,552.54,470.3Zm9.3,4.84v-9.67h1.47v1.38a3.47,3.47,0,0,1,3.08-1.59,4.07,4.07,0,0,1,1.61.31,2.46,2.46,0,0,1,1.09.83,2.93,2.93,0,0,1,.52,1.2,9.1,9.1,0,0,1,.09,1.59v6h-1.64v-5.89a4.07,4.07,0,0,0-.2-1.48,1.56,1.56,0,0,0-.67-.8,2.14,2.14,0,0,0-1.14-.3,2.66,2.66,0,0,0-1.81.67,3.28,3.28,0,0,0-.75,2.52v5.28Zm15.68,0V461.79h1.78v11.78h6.56v1.58ZM594.08,474a6.53,6.53,0,0,1-1.77,1.09,5,5,0,0,1-1.8.31,3.52,3.52,0,0,1-2.45-.78,2.72,2.72,0,0,1-.53-3.28,2.63,2.63,0,0,1,.84-.94,4.13,4.13,0,0,1,1.19-.55,12.07,12.07,0,0,1,1.45-.25,14.87,14.87,0,0,0,2.92-.56q0-.34,0-.42a1.84,1.84,0,0,0-.47-1.42,2.78,2.78,0,0,0-1.87-.55,2.87,2.87,0,0,0-1.7.41,2.49,2.49,0,0,0-.81,1.42l-1.61-.22a3.91,3.91,0,0,1,.72-1.64,3.13,3.13,0,0,1,1.45-1,6.43,6.43,0,0,1,2.19-.34,5.68,5.68,0,0,1,2,.3,2.49,2.49,0,0,1,1.14.73,2.44,2.44,0,0,1,.52,1.11,9.75,9.75,0,0,1,.08,1.52v2.19a22.26,22.26,0,0,0,.11,2.89,4,4,0,0,0,.41,1.16h-1.7A3.22,3.22,0,0,1,594.08,474Zm-.14-3.67a11.37,11.37,0,0,1-2.67.63,5.91,5.91,0,0,0-1.44.33,1.52,1.52,0,0,0-.66.53,1.42,1.42,0,0,0-.22.78,1.39,1.39,0,0,0,.5,1.09,2.14,2.14,0,0,0,1.45.44,3.4,3.4,0,0,0,1.67-.41,2.57,2.57,0,0,0,1.09-1.14,4,4,0,0,0,.27-1.64Zm4.13,8.58-.19-1.53a3.86,3.86,0,0,0,.94.14,1.76,1.76,0,0,0,.88-.19,1.47,1.47,0,0,0,.55-.5,8.07,8.07,0,0,0,.5-1.22l.14-.41-3.67-9.69H599l2,5.59q.39,1.08.7,2.25a22.43,22.43,0,0,1,.67-2.2l2.08-5.64h1.64l-3.69,9.83a18.5,18.5,0,0,1-.92,2.2,3.22,3.22,0,0,1-1,1.19,2.37,2.37,0,0,1-1.34.38A3.23,3.23,0,0,1,598.07,478.86Zm16-6.83,1.69.2a4.21,4.21,0,0,1-1.48,2.31,5.07,5.07,0,0,1-6.14-.48,5.15,5.15,0,0,1-1.23-3.67,5.37,5.37,0,0,1,1.25-3.8,4.28,4.28,0,0,1,3.27-1.34,4.09,4.09,0,0,1,3.16,1.33,5.2,5.2,0,0,1,1.23,3.7v.44h-7.22a3.77,3.77,0,0,0,.91,2.45,2.69,2.69,0,0,0,2,.84,2.55,2.55,0,0,0,1.55-.47A3.21,3.21,0,0,0,614.1,472Zm-5.39-2.66h5.41a3.24,3.24,0,0,0-.62-1.83,2.5,2.5,0,0,0-2-1,2.62,2.62,0,0,0-1.91.77A3,3,0,0,0,608.71,469.38Zm9.13,5.77v-9.67h1.47v1.47a4.07,4.07,0,0,1,1-1.36,1.85,1.85,0,0,1,1.06-.33,3.2,3.2,0,0,1,1.69.53l-.56,1.52a2.36,2.36,0,0,0-1.2-.36,1.53,1.53,0,0,0-1,.33,1.83,1.83,0,0,0-.61.89,6.25,6.25,0,0,0-.28,1.92v5.06Z" transform="translate(0 -79)"/><path class="cls-3" d="M113.21,500.52h0a6.35,6.35,0,0,1,6.35-6.35H962.26a6.35,6.35,0,0,1,6.35,6.35v25.39a6.35,6.35,0,0,1-6.35,6.35H119.56a6.35,6.35,0,0,1-6.35-6.35Z" transform="translate(0 -79)"/><path class="cls-4" d="M113.21,500.52h0a6.35,6.35,0,0,1,6.35-6.35H962.26a6.35,6.35,0,0,1,6.35,6.35v25.39a6.35,6.35,0,0,1-6.35,6.35H119.56a6.35,6.35,0,0,1-6.35-6.35Z" transform="translate(0 -79)"/><path d="M477.48,520.13V506.77h2.66l3.16,9.45q.44,1.33.64,2,.23-.73.7-2.14l3.2-9.3h2.38v13.36h-1.7V509l-3.87,11.17H483l-3.86-11.37v11.37Zm22-3.11,1.69.2a4.21,4.21,0,0,1-1.48,2.31,5.07,5.07,0,0,1-6.14-.48,5.15,5.15,0,0,1-1.23-3.67,5.37,5.37,0,0,1,1.25-3.8,4.28,4.28,0,0,1,3.27-1.34,4.09,4.09,0,0,1,3.16,1.33,5.2,5.2,0,0,1,1.23,3.7q0,.16,0,.44H494a3.77,3.77,0,0,0,.91,2.45,2.69,2.69,0,0,0,2,.84,2.55,2.55,0,0,0,1.55-.47A3.21,3.21,0,0,0,499.49,517Zm-5.39-2.66h5.41a3.24,3.24,0,0,0-.62-1.83,2.5,2.5,0,0,0-2-1,2.62,2.62,0,0,0-1.91.77A3,3,0,0,0,494.1,514.37Zm12.72,4.3.23,1.45a6.22,6.22,0,0,1-1.23.14,2.86,2.86,0,0,1-1.39-.28,1.61,1.61,0,0,1-.69-.73,5.85,5.85,0,0,1-.2-1.94v-5.58h-1.2v-1.27h1.2v-2.39l1.63-1v3.38h1.66v1.27h-1.66v5.67a3.11,3.11,0,0,0,.08.89.78.78,0,0,0,.28.33,1.24,1.24,0,0,0,.58.11A5.56,5.56,0,0,0,506.82,518.66Zm7.92.28A6.53,6.53,0,0,1,513,520a5,5,0,0,1-1.8.31,3.52,3.52,0,0,1-2.45-.78,2.72,2.72,0,0,1-.53-3.28,2.63,2.63,0,0,1,.84-.94,4.13,4.13,0,0,1,1.19-.55,12.08,12.08,0,0,1,1.45-.25,14.87,14.87,0,0,0,2.92-.56q0-.34,0-.42a1.84,1.84,0,0,0-.47-1.42,2.78,2.78,0,0,0-1.87-.55,2.87,2.87,0,0,0-1.7.41,2.49,2.49,0,0,0-.81,1.42l-1.61-.22a3.91,3.91,0,0,1,.72-1.64,3.13,3.13,0,0,1,1.45-1,6.43,6.43,0,0,1,2.19-.34,5.68,5.68,0,0,1,2,.3,2.49,2.49,0,0,1,1.14.73,2.44,2.44,0,0,1,.52,1.11,9.75,9.75,0,0,1,.08,1.52v2.19a22.27,22.27,0,0,0,.11,2.89,4,4,0,0,0,.41,1.16h-1.7A3.22,3.22,0,0,1,514.74,518.95Zm-.14-3.67a11.37,11.37,0,0,1-2.67.63,5.91,5.91,0,0,0-1.44.33,1.52,1.52,0,0,0-.66.53,1.42,1.42,0,0,0-.22.78,1.39,1.39,0,0,0,.5,1.09,2.14,2.14,0,0,0,1.45.44,3.4,3.4,0,0,0,1.67-.41,2.56,2.56,0,0,0,1.09-1.14,4,4,0,0,0,.27-1.64Zm10.47,4.86v-1.22a3,3,0,0,1-2.7,1.44,3.77,3.77,0,0,1-2.12-.64,4.21,4.21,0,0,1-1.5-1.78,6.15,6.15,0,0,1-.53-2.62,6.81,6.81,0,0,1,.48-2.62,3.82,3.82,0,0,1,1.44-1.81,3.92,3.92,0,0,1,2.17-.62,3.27,3.27,0,0,1,2.66,1.33v-4.8h1.64v13.36Zm-5.17-4.83a4.22,4.22,0,0,0,.78,2.78,2.35,2.35,0,0,0,1.84.92,2.32,2.32,0,0,0,1.83-.87,4.1,4.1,0,0,0,.75-2.69,4.51,4.51,0,0,0-.77-2.91,2.35,2.35,0,0,0-1.89-.94,2.26,2.26,0,0,0-1.81.89A4.39,4.39,0,0,0,519.9,515.3Zm15.59,3.64a6.53,6.53,0,0,1-1.77,1.09,5,5,0,0,1-1.8.31,3.52,3.52,0,0,1-2.45-.78,2.72,2.72,0,0,1-.53-3.28,2.63,2.63,0,0,1,.84-.94,4.13,4.13,0,0,1,1.19-.55,12.08,12.08,0,0,1,1.45-.25,14.87,14.87,0,0,0,2.92-.56q0-.34,0-.42a1.84,1.84,0,0,0-.47-1.42,2.78,2.78,0,0,0-1.87-.55,2.87,2.87,0,0,0-1.7.41,2.49,2.49,0,0,0-.81,1.42l-1.61-.22a3.9,3.9,0,0,1,.72-1.64,3.13,3.13,0,0,1,1.45-1,6.43,6.43,0,0,1,2.19-.34,5.68,5.68,0,0,1,2,.3,2.49,2.49,0,0,1,1.14.73,2.44,2.44,0,0,1,.52,1.11,9.75,9.75,0,0,1,.08,1.52v2.19a22.26,22.26,0,0,0,.11,2.89,4,4,0,0,0,.41,1.16h-1.7A3.22,3.22,0,0,1,535.49,518.95Zm-.14-3.67a11.37,11.37,0,0,1-2.67.63,5.91,5.91,0,0,0-1.44.33,1.52,1.52,0,0,0-.66.53,1.42,1.42,0,0,0-.22.78,1.39,1.39,0,0,0,.5,1.09,2.14,2.14,0,0,0,1.45.44,3.4,3.4,0,0,0,1.67-.41,2.57,2.57,0,0,0,1.09-1.14,4,4,0,0,0,.27-1.64Zm7.78,3.39.23,1.45a6.22,6.22,0,0,1-1.23.14,2.86,2.86,0,0,1-1.39-.28,1.61,1.61,0,0,1-.69-.73,5.85,5.85,0,0,1-.2-1.94v-5.58h-1.2v-1.27h1.2v-2.39l1.63-1v3.38h1.66v1.27h-1.66v5.67a3.11,3.11,0,0,0,.08.89.78.78,0,0,0,.28.33,1.24,1.24,0,0,0,.58.11A5.56,5.56,0,0,0,543.13,518.66Zm7.92.28a6.53,6.53,0,0,1-1.77,1.09,5,5,0,0,1-1.8.31,3.52,3.52,0,0,1-2.45-.78,2.72,2.72,0,0,1-.53-3.28,2.63,2.63,0,0,1,.84-.94,4.13,4.13,0,0,1,1.19-.55,12.08,12.08,0,0,1,1.45-.25,14.87,14.87,0,0,0,2.92-.56q0-.34,0-.42a1.84,1.84,0,0,0-.47-1.42,2.78,2.78,0,0,0-1.87-.55,2.87,2.87,0,0,0-1.7.41,2.49,2.49,0,0,0-.81,1.42l-1.61-.22a3.91,3.91,0,0,1,.72-1.64,3.13,3.13,0,0,1,1.45-1,6.43,6.43,0,0,1,2.19-.34,5.68,5.68,0,0,1,2,.3,2.49,2.49,0,0,1,1.14.73,2.44,2.44,0,0,1,.52,1.11,9.75,9.75,0,0,1,.08,1.52v2.19a22.27,22.27,0,0,0,.11,2.89,4,4,0,0,0,.41,1.16h-1.7A3.22,3.22,0,0,1,551,518.95Zm-.14-3.67a11.37,11.37,0,0,1-2.67.63,5.91,5.91,0,0,0-1.44.33,1.52,1.52,0,0,0-.66.53,1.42,1.42,0,0,0-.22.78,1.39,1.39,0,0,0,.5,1.09,2.14,2.14,0,0,0,1.45.44,3.4,3.4,0,0,0,1.67-.41,2.56,2.56,0,0,0,1.09-1.14,4,4,0,0,0,.27-1.64Zm9.51,4.86V506.77h1.78v11.78h6.56v1.58ZM577,518.95a6.53,6.53,0,0,1-1.77,1.09,5,5,0,0,1-1.8.31,3.52,3.52,0,0,1-2.45-.78,2.72,2.72,0,0,1-.53-3.28,2.63,2.63,0,0,1,.84-.94,4.13,4.13,0,0,1,1.19-.55,12.08,12.08,0,0,1,1.45-.25,14.87,14.87,0,0,0,2.92-.56q0-.34,0-.42a1.84,1.84,0,0,0-.47-1.42,2.78,2.78,0,0,0-1.87-.55,2.87,2.87,0,0,0-1.7.41,2.49,2.49,0,0,0-.81,1.42l-1.61-.22a3.91,3.91,0,0,1,.72-1.64,3.13,3.13,0,0,1,1.45-1,6.43,6.43,0,0,1,2.19-.34,5.68,5.68,0,0,1,2,.3,2.49,2.49,0,0,1,1.14.73,2.44,2.44,0,0,1,.52,1.11,9.75,9.75,0,0,1,.08,1.52v2.19a22.26,22.26,0,0,0,.11,2.89,4,4,0,0,0,.41,1.16h-1.7A3.22,3.22,0,0,1,577,518.95Zm-.14-3.67a11.37,11.37,0,0,1-2.67.63,5.91,5.91,0,0,0-1.44.33,1.52,1.52,0,0,0-.66.53,1.42,1.42,0,0,0-.22.78,1.39,1.39,0,0,0,.5,1.09,2.14,2.14,0,0,0,1.45.44,3.4,3.4,0,0,0,1.67-.41,2.57,2.57,0,0,0,1.09-1.14,4,4,0,0,0,.27-1.64Zm4.13,8.58-.19-1.53a3.86,3.86,0,0,0,.94.14,1.76,1.76,0,0,0,.88-.19,1.47,1.47,0,0,0,.55-.5,8.06,8.06,0,0,0,.5-1.22l.14-.41-3.67-9.69h1.77l2,5.59q.39,1.08.7,2.25a22.45,22.45,0,0,1,.67-2.2l2.08-5.64H589l-3.69,9.83a18.49,18.49,0,0,1-.92,2.2,3.22,3.22,0,0,1-1,1.19,2.37,2.37,0,0,1-1.34.38A3.23,3.23,0,0,1,581,523.85ZM597,517l1.69.2a4.21,4.21,0,0,1-1.48,2.31,5.07,5.07,0,0,1-6.14-.48,5.15,5.15,0,0,1-1.23-3.67,5.37,5.37,0,0,1,1.25-3.8,4.28,4.28,0,0,1,3.27-1.34,4.09,4.09,0,0,1,3.16,1.33,5.2,5.2,0,0,1,1.23,3.7v.44h-7.22a3.77,3.77,0,0,0,.91,2.45,2.69,2.69,0,0,0,2,.84,2.55,2.55,0,0,0,1.55-.47A3.21,3.21,0,0,0,597,517Zm-5.39-2.66H597a3.24,3.24,0,0,0-.62-1.83,2.5,2.5,0,0,0-2-1,2.62,2.62,0,0,0-1.91.77A3,3,0,0,0,591.61,514.37Zm9.13,5.77v-9.67h1.47v1.47a4.07,4.07,0,0,1,1-1.36,1.85,1.85,0,0,1,1.06-.33,3.2,3.2,0,0,1,1.69.53l-.56,1.52a2.36,2.36,0,0,0-1.2-.36,1.53,1.53,0,0,0-1,.33,1.83,1.83,0,0,0-.61.89,6.25,6.25,0,0,0-.28,1.92v5.06Z" transform="translate(0 -79)"/><path class="cls-3" d="M258.55,206.95h0a7.67,7.67,0,0,1,7.67-7.67h49.64a7.67,7.67,0,0,1,7.67,7.67v30.68a7.67,7.67,0,0,1-7.67,7.67H266.21a7.67,7.67,0,0,1-7.67-7.67Z" transform="translate(0 -79)"/><path class="cls-4" d="M258.55,206.95h0a7.67,7.67,0,0,1,7.67-7.67h49.64a7.67,7.67,0,0,1,7.67,7.67v30.68a7.67,7.67,0,0,1-7.67,7.67H266.21a7.67,7.67,0,0,1-7.67-7.67Z" transform="translate(0 -79)"/><path d="M277.4,229.39a6.68,6.68,0,0,1-2.66-.48,4.1,4.1,0,0,1-1.72-1.28,3.13,3.13,0,0,1-.62-1.7.36.36,0,0,1,.11-.27.42.42,0,0,1,.28-.11h.92a.49.49,0,0,1,.47.38,2.31,2.31,0,0,0,1,1.36,3.89,3.89,0,0,0,2.27.56,4.08,4.08,0,0,0,2.38-.56,1.8,1.8,0,0,0,.78-1.55,1.45,1.45,0,0,0-.39-1A3.16,3.16,0,0,0,279,224a23.13,23.13,0,0,0-2.25-.75,12.74,12.74,0,0,1-2.3-.87,3.53,3.53,0,0,1-1.28-1.14,3.27,3.27,0,0,1-.42-1.73,3.12,3.12,0,0,1,.53-1.8,3.62,3.62,0,0,1,1.58-1.25,5.81,5.81,0,0,1,2.42-.47,5.5,5.5,0,0,1,2.48.52,4,4,0,0,1,1.58,1.3,3,3,0,0,1,.59,1.55.36.36,0,0,1-.12.28.36.36,0,0,1-.27.11h-.94a.46.46,0,0,1-.28-.09.56.56,0,0,1-.19-.28,1.85,1.85,0,0,0-.89-1.31,3.42,3.42,0,0,0-2-.53,3.59,3.59,0,0,0-2,.5,1.83,1.83,0,0,0-.39,2.53,2.87,2.87,0,0,0,1.06.72,21.14,21.14,0,0,0,2.09.73,13.64,13.64,0,0,1,2.48.89A3.51,3.51,0,0,1,281.9,224a2.94,2.94,0,0,1,.45,1.7,3.21,3.21,0,0,1-1.34,2.75A6,6,0,0,1,277.4,229.39Zm7.61,3.36a.46.46,0,0,1-.31-.11.45.45,0,0,1-.11-.33V219.94a.45.45,0,0,1,.11-.33.46.46,0,0,1,.31-.11h.78a.42.42,0,0,1,.31.11.41.41,0,0,1,.13.33v.81a3.62,3.62,0,0,1,3.08-1.44,3.51,3.51,0,0,1,2.94,1.25,5.11,5.11,0,0,1,1,3.16q0,.2,0,.64t0,.63a5.16,5.16,0,0,1-1,3.16,4,4,0,0,1-6-.17v4.34a.42.42,0,0,1-.12.31.37.37,0,0,1-.3.13Zm3.94-4.81a2.24,2.24,0,0,0,2-.84,3.84,3.84,0,0,0,.67-2.2,3.44,3.44,0,0,0,0-.53q0-3.59-2.66-3.59a2.33,2.33,0,0,0-2,.88,3.51,3.51,0,0,0-.7,2q0,.2,0,.72t0,.73a3.25,3.25,0,0,0,.72,2A2.4,2.4,0,0,0,289,227.94Zm7.14,1.27a.42.42,0,0,1-.31-.12.44.44,0,0,1-.11-.3V216.39a.4.4,0,0,1,.42-.44h.83a.37.37,0,0,1,.3.13.42.42,0,0,1,.13.31v12.39a.41.41,0,0,1-.12.3.37.37,0,0,1-.3.13Zm4.32-11.53a.44.44,0,0,1-.3-.11.42.42,0,0,1-.12-.31v-1a.42.42,0,0,1,.13-.31.38.38,0,0,1,.3-.14h1.11a.48.48,0,0,1,.45.45v1a.4.4,0,0,1-.14.31.46.46,0,0,1-.31.11Zm.16,11.53a.42.42,0,0,1-.31-.12.44.44,0,0,1-.11-.3v-8.84a.46.46,0,0,1,.11-.31.42.42,0,0,1,.31-.12h.83a.41.41,0,0,1,.3.13.42.42,0,0,1,.13.31v8.84a.43.43,0,0,1-.42.42Zm7.77,0q-2.89,0-2.89-3.27v-5H304a.38.38,0,0,1-.41-.41v-.59a.46.46,0,0,1,.11-.31.37.37,0,0,1,.3-.12h1.47v-3.11a.46.46,0,0,1,.11-.31.42.42,0,0,1,.31-.12h.81a.43.43,0,0,1,.44.44v3.11h2.31a.37.37,0,0,1,.3.13.42.42,0,0,1,.13.31v.59a.37.37,0,0,1-.12.3.4.4,0,0,1-.3.11h-2.31v4.88a2.79,2.79,0,0,0,.3,1.44,1.17,1.17,0,0,0,1.06.48h1.14a.36.36,0,0,1,.28.13.37.37,0,0,1,.13.3v.63a.41.41,0,0,1-.12.3.36.36,0,0,1-.28.13Z" transform="translate(0 -79)"/><path class="cls-5" d="M291,245.29l-45.89,66.61" transform="translate(0 -79)"/><path class="cls-4" d="M291,245.29,248.55,307" transform="translate(0 -79)"/><path class="cls-6" d="M247.19,306,246,310.7l3.93-2.8Z" transform="translate(0 -79)"/><path class="cls-3" d="M207,290.34h0a11.1,11.1,0,0,1,11.1-11.1h101a11.1,11.1,0,0,1,11.1,11.1v44.41a11.1,11.1,0,0,1-11.1,11.1h-101a11.1,11.1,0,0,1-11.1-11.1Z" transform="translate(0 -79)"/><path class="cls-4" d="M207,290.34h0a11.1,11.1,0,0,1,11.1-11.1h101a11.1,11.1,0,0,1,11.1,11.1v44.41a11.1,11.1,0,0,1-11.1,11.1h-101a11.1,11.1,0,0,1-11.1-11.1Z" transform="translate(0 -79)"/><path d="M221.91,308.47a.37.37,0,0,1-.3-.12.44.44,0,0,1-.11-.3V295.86a.48.48,0,0,1,.11-.33.37.37,0,0,1,.3-.12h4.72a5,5,0,0,1,3.31,1,4.25,4.25,0,0,1,0,5.92,5,5,0,0,1-3.31,1h-3.34V308a.41.41,0,0,1-.12.3.42.42,0,0,1-.31.13Zm4.63-6.64q2.83,0,2.83-2.44a2.32,2.32,0,0,0-.7-1.83,3.07,3.07,0,0,0-2.12-.64h-3.25v4.91Zm7.11,6.64a.42.42,0,0,1-.31-.12.44.44,0,0,1-.11-.3v-8.83a.46.46,0,0,1,.11-.31.4.4,0,0,1,.31-.14h.78a.43.43,0,0,1,.45.45V300a2.79,2.79,0,0,1,2.59-1.27h.72a.42.42,0,0,1,.31.11.41.41,0,0,1,.13.33v.69a.4.4,0,0,1-.44.42h-1.06a2.14,2.14,0,0,0-1.61.61,2.17,2.17,0,0,0-.59,1.61V308a.41.41,0,0,1-.12.3.42.42,0,0,1-.31.13Zm10.25.19a4,4,0,0,1-3-1.19,4.87,4.87,0,0,1-1.25-3.23l0-.64,0-.61a4.83,4.83,0,0,1,1.25-3.2,4,4,0,0,1,3-1.2,4,4,0,0,1,3.17,1.31,5.23,5.23,0,0,1,1.13,3.55v.33a.42.42,0,0,1-.12.31.37.37,0,0,1-.3.13h-6.47v.16a3.44,3.44,0,0,0,.73,2.08,2.22,2.22,0,0,0,1.83.86,2.64,2.64,0,0,0,1.42-.34,3,3,0,0,0,.84-.72,1.21,1.21,0,0,1,.25-.28.8.8,0,0,1,.33,0h.81a.48.48,0,0,1,.3.09.3.3,0,0,1,.13.25,1.64,1.64,0,0,1-.52,1,4.1,4.1,0,0,1-1.42,1A5,5,0,0,1,243.9,308.66Zm2.61-5.73v0a3.09,3.09,0,0,0-.72-2.12,2.59,2.59,0,0,0-3.8,0,3.18,3.18,0,0,0-.69,2.13v0Zm4.41,9.09a.46.46,0,0,1-.31-.11.45.45,0,0,1-.11-.33V299.2a.45.45,0,0,1,.11-.33.46.46,0,0,1,.31-.11h.78a.42.42,0,0,1,.31.11.41.41,0,0,1,.13.33V300a3.62,3.62,0,0,1,3.08-1.44,3.51,3.51,0,0,1,2.94,1.25,5.11,5.11,0,0,1,1,3.16q0,.2,0,.64t0,.63a5.16,5.16,0,0,1-1,3.16,4,4,0,0,1-6-.17v4.34a.42.42,0,0,1-.12.31.37.37,0,0,1-.3.13Zm3.94-4.81a2.24,2.24,0,0,0,2-.84,3.84,3.84,0,0,0,.67-2.2,3.44,3.44,0,0,0,0-.53q0-3.59-2.66-3.59a2.33,2.33,0,0,0-2,.88,3.51,3.51,0,0,0-.7,2q0,.2,0,.72t0,.73a3.25,3.25,0,0,0,.72,2A2.4,2.4,0,0,0,254.86,307.2Zm7.13,1.27a.42.42,0,0,1-.31-.12.44.44,0,0,1-.11-.3v-8.83a.46.46,0,0,1,.11-.31.4.4,0,0,1,.31-.14h.78a.43.43,0,0,1,.45.45V300a2.79,2.79,0,0,1,2.59-1.27h.72a.42.42,0,0,1,.31.11.41.41,0,0,1,.13.33v.69a.4.4,0,0,1-.44.42h-1.06a2.14,2.14,0,0,0-1.61.61,2.17,2.17,0,0,0-.59,1.61V308a.41.41,0,0,1-.12.3.42.42,0,0,1-.31.13Zm10.33.19a4.17,4.17,0,0,1-3.16-1.16,4.54,4.54,0,0,1-1.19-3.08l0-.8,0-.81a4.5,4.5,0,0,1,1.2-3.08,4.84,4.84,0,0,1,6.28,0,4.47,4.47,0,0,1,1.22,3.08q0,.41,0,.81t0,.8a4.54,4.54,0,0,1-1.19,3.08A4.19,4.19,0,0,1,272.32,308.66Zm0-1.41a2.44,2.44,0,0,0,1.89-.75,3.28,3.28,0,0,0,.77-2.17q0-.19,0-.7t0-.72a3.28,3.28,0,0,0-.77-2.17,2.44,2.44,0,0,0-1.89-.75,2.47,2.47,0,0,0-1.89.75,3.33,3.33,0,0,0-.75,2.17l0,.72,0,.7a3.33,3.33,0,0,0,.75,2.17A2.47,2.47,0,0,0,272.32,307.25Zm10.62,1.41a4.22,4.22,0,0,1-3.12-1.12,4.57,4.57,0,0,1-1.17-3.17l0-.73,0-.75a4.51,4.51,0,0,1,1.17-3.16,4.19,4.19,0,0,1,3.13-1.14,4.83,4.83,0,0,1,2.27.48,3.38,3.38,0,0,1,1.38,1.19,2.75,2.75,0,0,1,.5,1.41.38.38,0,0,1-.12.31.44.44,0,0,1-.3.13h-.83a.43.43,0,0,1-.28-.08,1,1,0,0,1-.19-.31,2.42,2.42,0,0,0-.92-1.3A2.65,2.65,0,0,0,283,300a2.42,2.42,0,0,0-1.86.73,3.32,3.32,0,0,0-.75,2.22l0,.66,0,.64a3.39,3.39,0,0,0,.75,2.23,2.45,2.45,0,0,0,1.86.72,2.71,2.71,0,0,0,1.5-.37,2.55,2.55,0,0,0,.91-1.3.81.81,0,0,1,.19-.31.38.38,0,0,1,.28-.09h.83a.42.42,0,0,1,.3.14.34.34,0,0,1,.13.3,2.81,2.81,0,0,1-.5,1.41,3.54,3.54,0,0,1-1.37,1.19A4.83,4.83,0,0,1,282.94,308.66Zm10.23,0a4,4,0,0,1-3-1.19,4.87,4.87,0,0,1-1.25-3.23l0-.64,0-.61a4.83,4.83,0,0,1,1.25-3.2,4,4,0,0,1,3-1.2,4,4,0,0,1,3.17,1.31,5.23,5.23,0,0,1,1.13,3.55v.33a.42.42,0,0,1-.12.31.37.37,0,0,1-.3.13h-6.47v.16a3.44,3.44,0,0,0,.73,2.08,2.22,2.22,0,0,0,1.83.86,2.64,2.64,0,0,0,1.42-.34,3,3,0,0,0,.84-.72,1.21,1.21,0,0,1,.25-.28.8.8,0,0,1,.33,0h.81a.48.48,0,0,1,.3.09.3.3,0,0,1,.13.25,1.64,1.64,0,0,1-.52,1,4.1,4.1,0,0,1-1.42,1A5,5,0,0,1,293.17,308.66Zm2.61-5.73v0a3.09,3.09,0,0,0-.72-2.12,2.59,2.59,0,0,0-3.8,0,3.18,3.18,0,0,0-.69,2.13v0Zm7.29,5.73a5,5,0,0,1-2.17-.42,3.8,3.8,0,0,1-1.33-1,1.64,1.64,0,0,1-.42-.91.33.33,0,0,1,.13-.28.48.48,0,0,1,.3-.11h.78a.28.28,0,0,1,.17,0,.69.69,0,0,1,.17.16,3.42,3.42,0,0,0,1,.83,2.92,2.92,0,0,0,1.42.3,3,3,0,0,0,1.61-.37,1.19,1.19,0,0,0,.61-1.08,1,1,0,0,0-.27-.75,2.09,2.09,0,0,0-.86-.5,16.09,16.09,0,0,0-1.8-.48,4.68,4.68,0,0,1-2.3-1,2.35,2.35,0,0,1-.67-1.73,2.45,2.45,0,0,1,.41-1.33,3.11,3.11,0,0,1,1.22-1,4.29,4.29,0,0,1,1.94-.41,4.66,4.66,0,0,1,2,.39,3.26,3.26,0,0,1,1.25.92,1.51,1.51,0,0,1,.42.88.36.36,0,0,1-.12.28.38.38,0,0,1-.28.11h-.7a.39.39,0,0,1-.37-.2,5.45,5.45,0,0,0-.53-.55,1.76,1.76,0,0,0-.62-.34,3.2,3.2,0,0,0-1-.14,2.17,2.17,0,0,0-1.39.39,1.22,1.22,0,0,0-.48,1,1,1,0,0,0,.2.66,1.86,1.86,0,0,0,.78.5,11.34,11.34,0,0,0,1.72.48,5.31,5.31,0,0,1,2.5,1.06,2.31,2.31,0,0,1,.73,1.77,2.53,2.53,0,0,1-.45,1.47,3,3,0,0,1-1.36,1A5.62,5.62,0,0,1,303.07,308.66Zm9.48,0a5,5,0,0,1-2.17-.42,3.8,3.8,0,0,1-1.33-1,1.64,1.64,0,0,1-.42-.91.33.33,0,0,1,.13-.28.48.48,0,0,1,.3-.11h.78a.28.28,0,0,1,.17,0,.69.69,0,0,1,.17.16,3.42,3.42,0,0,0,1,.83,2.92,2.92,0,0,0,1.42.3,3,3,0,0,0,1.61-.37,1.19,1.19,0,0,0,.61-1.08,1,1,0,0,0-.27-.75,2.09,2.09,0,0,0-.86-.5,16.09,16.09,0,0,0-1.8-.48,4.68,4.68,0,0,1-2.3-1,2.35,2.35,0,0,1-.67-1.73,2.45,2.45,0,0,1,.41-1.33,3.11,3.11,0,0,1,1.22-1,4.29,4.29,0,0,1,1.94-.41,4.66,4.66,0,0,1,2,.39,3.26,3.26,0,0,1,1.25.92,1.51,1.51,0,0,1,.42.88.36.36,0,0,1-.12.28.38.38,0,0,1-.28.11H315a.39.39,0,0,1-.37-.2,5.46,5.46,0,0,0-.53-.55,1.76,1.76,0,0,0-.62-.34,3.2,3.2,0,0,0-1-.14,2.17,2.17,0,0,0-1.39.39,1.22,1.22,0,0,0-.48,1,1,1,0,0,0,.2.66,1.86,1.86,0,0,0,.78.5,11.34,11.34,0,0,0,1.72.48,5.31,5.31,0,0,1,2.5,1.06,2.31,2.31,0,0,1,.73,1.77,2.53,2.53,0,0,1-.45,1.47,3,3,0,0,1-1.36,1A5.62,5.62,0,0,1,312.55,308.66Z" transform="translate(0 -79)"/><path d="M256.83,318.94a.44.44,0,0,1-.3-.11.42.42,0,0,1-.12-.31v-1a.42.42,0,0,1,.13-.31.38.38,0,0,1,.3-.14h1.11a.48.48,0,0,1,.45.45v1a.4.4,0,0,1-.14.31.46.46,0,0,1-.31.11Zm.16,11.53a.42.42,0,0,1-.31-.12.44.44,0,0,1-.11-.3V321.2a.46.46,0,0,1,.11-.31.42.42,0,0,1,.31-.12h.83a.41.41,0,0,1,.3.13.42.42,0,0,1,.13.31V330a.43.43,0,0,1-.42.42Zm4.48,0a.42.42,0,0,1-.31-.12.44.44,0,0,1-.11-.3V321.2a.46.46,0,0,1,.11-.31.42.42,0,0,1,.31-.12h.8a.42.42,0,0,1,.31.11.41.41,0,0,1,.13.33V322A4.05,4.05,0,0,1,264,321a4,4,0,0,1,1.83-.37,3.45,3.45,0,0,1,2.78,1.16,4.43,4.43,0,0,1,1,3V330a.41.41,0,0,1-.12.3.42.42,0,0,1-.31.13h-.86a.42.42,0,0,1-.31-.12.44.44,0,0,1-.11-.3v-5.17a3.08,3.08,0,0,0-.66-2.09,2.34,2.34,0,0,0-1.86-.75,2.51,2.51,0,0,0-1.92.77,2.92,2.92,0,0,0-.7,2.08V330a.41.41,0,0,1-.12.3.37.37,0,0,1-.3.13Zm14.77,4.11a5,5,0,0,1-2.48-.53,3.35,3.35,0,0,1-1.31-1.19,2.47,2.47,0,0,1-.37-1.16.41.41,0,0,1,.13-.3.48.48,0,0,1,.3-.11h.83a.47.47,0,0,1,.28.08.62.62,0,0,1,.19.31,2.23,2.23,0,0,0,2.38,1.48,3,3,0,0,0,2.06-.59,2.72,2.72,0,0,0,.67-2.11v-1.28a3.61,3.61,0,0,1-3,1.38,3.53,3.53,0,0,1-3-1.27,5.44,5.44,0,0,1-1-3.22l0-.52,0-.5a5.47,5.47,0,0,1,1-3.2,3.51,3.51,0,0,1,3-1.28,3.61,3.61,0,0,1,3,1.44v-.8a.42.42,0,0,1,.13-.31.4.4,0,0,1,.31-.14h.8a.4.4,0,0,1,.31.14.42.42,0,0,1,.13.31v9Q280.6,334.58,276.24,334.58Zm0-5.47a2.34,2.34,0,0,0,2-.84,3.6,3.6,0,0,0,.72-2q0-.17,0-.66t0-.64a3.52,3.52,0,0,0-.72-2,2.32,2.32,0,0,0-2-.86,2.23,2.23,0,0,0-2,.86,4.06,4.06,0,0,0-.66,2.19l0,.48,0,.5a4.14,4.14,0,0,0,.66,2.2A2.24,2.24,0,0,0,276.2,329.11Z" transform="translate(0 -79)"/><path class="cls-5" d="M330.19,312.55l7-64.82" transform="translate(0 -79)"/><path class="cls-4" d="M330.19,312.55l6.35-58.85" transform="translate(0 -79)"/><path class="cls-6" d="M338.18,253.87,337,249.18l-2.13,4.33Z" transform="translate(0 -79)"/><path class="cls-3" d="M64,266.59h0a9.43,9.43,0,0,1,9.43-9.43h90.06a9.43,9.43,0,0,1,9.43,9.43V304.3a9.43,9.43,0,0,1-9.43,9.43H73.4A9.43,9.43,0,0,1,64,304.3Z" transform="translate(0 -79)"/><path class="cls-4" d="M64,266.59h0a9.43,9.43,0,0,1,9.43-9.43h90.06a9.43,9.43,0,0,1,9.43,9.43V304.3a9.43,9.43,0,0,1-9.43,9.43H73.4A9.43,9.43,0,0,1,64,304.3Z" transform="translate(0 -79)"/><path d="M81.67,281.37a.37.37,0,0,1-.3-.12.44.44,0,0,1-.11-.3V268.76a.48.48,0,0,1,.11-.33.37.37,0,0,1,.3-.12h4.22a5.53,5.53,0,0,1,4.06,1.27,5.31,5.31,0,0,1,1.3,3.8q0,.53,0,1.45t0,1.47a7.17,7.17,0,0,1-.58,2.89A3.45,3.45,0,0,1,89,280.84a7.15,7.15,0,0,1-3,.53Zm4.22-1.55a5,5,0,0,0,2.08-.36,2.26,2.26,0,0,0,1.13-1.14,5.67,5.67,0,0,0,.38-2.11q0-1.11,0-1.39t0-1.37a3.84,3.84,0,0,0-.89-2.73,3.74,3.74,0,0,0-2.78-.87H83v10Zm10.65,1.73a3.85,3.85,0,0,1-1.69-.37,3.29,3.29,0,0,1-1.23-1,2.41,2.41,0,0,1-.45-1.42,2.44,2.44,0,0,1,1-2,5.92,5.92,0,0,1,2.75-1l2.8-.39v-.55q0-1.92-2.22-1.92a2.44,2.44,0,0,0-1.37.34,2.26,2.26,0,0,0-.77.81.64.64,0,0,1-.16.25.37.37,0,0,1-.23.06h-.73a.42.42,0,0,1-.28-.11.41.41,0,0,1-.12-.3,1.77,1.77,0,0,1,.41-1,3.29,3.29,0,0,1,1.23-1,4.58,4.58,0,0,1,2.06-.42,3.94,3.94,0,0,1,3,1,3.41,3.41,0,0,1,.91,2.42v6.08a.41.41,0,0,1-.12.3.37.37,0,0,1-.3.13h-.83a.37.37,0,0,1-.3-.12.44.44,0,0,1-.11-.3v-.83a3.21,3.21,0,0,1-1.2,1A4.36,4.36,0,0,1,96.53,281.56Zm.38-1.36a2.7,2.7,0,0,0,2-.8,3.25,3.25,0,0,0,.78-2.34v-.52l-2.17.31a5.15,5.15,0,0,0-2,.64,1.29,1.29,0,0,0-.69,1.11,1.35,1.35,0,0,0,.63,1.19A2.66,2.66,0,0,0,96.91,280.2Zm10.84,1.17q-2.89,0-2.89-3.27v-5h-1.47a.38.38,0,0,1-.41-.41v-.59a.46.46,0,0,1,.11-.31.37.37,0,0,1,.3-.12h1.47v-3.11a.46.46,0,0,1,.11-.31.42.42,0,0,1,.31-.12h.81a.43.43,0,0,1,.44.44v3.11h2.31a.37.37,0,0,1,.3.13.42.42,0,0,1,.13.31v.59a.37.37,0,0,1-.12.3.4.4,0,0,1-.3.11h-2.31V278a2.79,2.79,0,0,0,.3,1.44,1.17,1.17,0,0,0,1.06.48H109a.36.36,0,0,1,.28.13.37.37,0,0,1,.13.3v.63a.41.41,0,0,1-.12.3.36.36,0,0,1-.28.13Zm6.19.19a3.85,3.85,0,0,1-1.69-.37,3.29,3.29,0,0,1-1.23-1,2.41,2.41,0,0,1-.45-1.42,2.44,2.44,0,0,1,1-2,5.92,5.92,0,0,1,2.75-1l2.8-.39v-.55q0-1.92-2.22-1.92a2.44,2.44,0,0,0-1.37.34,2.26,2.26,0,0,0-.77.81.64.64,0,0,1-.16.25.37.37,0,0,1-.23.06h-.73a.42.42,0,0,1-.28-.11.41.41,0,0,1-.12-.3,1.77,1.77,0,0,1,.41-1,3.29,3.29,0,0,1,1.23-1,4.58,4.58,0,0,1,2.06-.42,3.94,3.94,0,0,1,3,1,3.41,3.41,0,0,1,.91,2.42v6.08a.41.41,0,0,1-.12.3.37.37,0,0,1-.3.13h-.83a.37.37,0,0,1-.3-.12.44.44,0,0,1-.11-.3v-.83a3.21,3.21,0,0,1-1.2,1A4.36,4.36,0,0,1,113.94,281.56Zm.38-1.36a2.7,2.7,0,0,0,2-.8,3.25,3.25,0,0,0,.78-2.34v-.52l-2.17.31a5.15,5.15,0,0,0-2,.64,1.29,1.29,0,0,0-.69,1.11,1.35,1.35,0,0,0,.63,1.19A2.66,2.66,0,0,0,114.32,280.2Zm12.44,1.17a.37.37,0,0,1-.3-.12.44.44,0,0,1-.11-.3V268.76a.48.48,0,0,1,.11-.33.37.37,0,0,1,.3-.12h7.67a.43.43,0,0,1,.45.45v.67a.37.37,0,0,1-.12.3.48.48,0,0,1-.33.11h-6.36V274h6a.39.39,0,0,1,.31.13.44.44,0,0,1,.13.33v.64a.4.4,0,0,1-.44.42h-6v4.31h6.52a.39.39,0,0,1,.31.13.41.41,0,0,1,.13.33v.67a.41.41,0,0,1-.12.3.42.42,0,0,1-.31.13Zm14.16,0a.42.42,0,0,1-.31-.12.44.44,0,0,1-.11-.3v-11h-3.61a.42.42,0,0,1-.31-.12.46.46,0,0,1-.11-.31v-.72a.48.48,0,0,1,.11-.33.42.42,0,0,1,.31-.12h9a.41.41,0,0,1,.33.13.48.48,0,0,1,.11.33v.72a.43.43,0,0,1-.44.44h-3.58v11a.38.38,0,0,1-.14.3.41.41,0,0,1-.3.13Zm7.89,0a.37.37,0,0,1-.3-.12.44.44,0,0,1-.11-.3v-12.2a.46.46,0,0,1,.11-.31.37.37,0,0,1,.3-.12h.94a.37.37,0,0,1,.3.13.46.46,0,0,1,.11.31v11.06h6.23a.44.44,0,0,1,.33.13.37.37,0,0,1,.13.3v.72a.38.38,0,0,1-.14.3.42.42,0,0,1-.31.13Z" transform="translate(0 -79)"/><path d="M81.66,306.92a.46.46,0,0,1-.31-.11.45.45,0,0,1-.11-.33V294.1a.45.45,0,0,1,.11-.33.46.46,0,0,1,.31-.11h.78a.42.42,0,0,1,.31.11.41.41,0,0,1,.13.33v.81A3.62,3.62,0,0,1,86,293.48a3.51,3.51,0,0,1,2.94,1.25,5.11,5.11,0,0,1,1,3.16q0,.2,0,.64t0,.63a5.16,5.16,0,0,1-1,3.16,4,4,0,0,1-6-.17v4.34a.42.42,0,0,1-.12.31.37.37,0,0,1-.3.13Zm3.94-4.81a2.24,2.24,0,0,0,2-.84,3.84,3.84,0,0,0,.67-2.2,3.44,3.44,0,0,0,0-.53q0-3.59-2.66-3.59a2.33,2.33,0,0,0-2,.88,3.51,3.51,0,0,0-.7,2q0,.2,0,.72t0,.73a3.25,3.25,0,0,0,.72,2A2.4,2.4,0,0,0,85.6,302.1Zm7-10.27a.44.44,0,0,1-.3-.11.42.42,0,0,1-.12-.31v-1a.42.42,0,0,1,.13-.31.38.38,0,0,1,.3-.14h1.11a.48.48,0,0,1,.45.45v1a.4.4,0,0,1-.14.31.46.46,0,0,1-.31.11Zm.16,11.53a.42.42,0,0,1-.31-.12.44.44,0,0,1-.11-.3V294.1a.46.46,0,0,1,.11-.31.42.42,0,0,1,.31-.12h.83a.41.41,0,0,1,.3.13.42.42,0,0,1,.13.31v8.84a.43.43,0,0,1-.42.42Zm4.49,3.55a.46.46,0,0,1-.31-.11.45.45,0,0,1-.11-.33V294.1a.45.45,0,0,1,.11-.33.46.46,0,0,1,.31-.11H98a.42.42,0,0,1,.31.11.41.41,0,0,1,.13.33v.81a3.62,3.62,0,0,1,3.08-1.44,3.51,3.51,0,0,1,2.94,1.25,5.11,5.11,0,0,1,1,3.16q0,.2,0,.64t0,.63a5.16,5.16,0,0,1-1,3.16,4,4,0,0,1-6-.17v4.34a.42.42,0,0,1-.12.31.37.37,0,0,1-.3.13Zm3.94-4.81a2.24,2.24,0,0,0,2-.84,3.84,3.84,0,0,0,.67-2.2,3.44,3.44,0,0,0,0-.53q0-3.59-2.66-3.59a2.33,2.33,0,0,0-2,.88,3.51,3.51,0,0,0-.7,2q0,.2,0,.72t0,.73a3.25,3.25,0,0,0,.72,2A2.4,2.4,0,0,0,101.16,302.1Zm10.55,1.45a4,4,0,0,1-3-1.19,4.87,4.87,0,0,1-1.25-3.23l0-.64,0-.61a4.83,4.83,0,0,1,1.25-3.2,4,4,0,0,1,3-1.2,4,4,0,0,1,3.17,1.31,5.23,5.23,0,0,1,1.13,3.55v.33a.42.42,0,0,1-.12.31.37.37,0,0,1-.3.13h-6.47v.16a3.44,3.44,0,0,0,.73,2.08,2.22,2.22,0,0,0,1.83.86,2.64,2.64,0,0,0,1.42-.34,3,3,0,0,0,.84-.72,1.21,1.21,0,0,1,.25-.28.8.8,0,0,1,.33,0h.81a.48.48,0,0,1,.3.09.3.3,0,0,1,.13.25,1.64,1.64,0,0,1-.52,1,4.1,4.1,0,0,1-1.42,1A5,5,0,0,1,111.71,303.56Zm2.61-5.73v0a3.09,3.09,0,0,0-.72-2.12,2.59,2.59,0,0,0-3.8,0,3.18,3.18,0,0,0-.69,2.13v0Zm4.41,5.55a.42.42,0,0,1-.31-.12.44.44,0,0,1-.11-.3V290.56a.4.4,0,0,1,.42-.44h.83a.37.37,0,0,1,.3.13.42.42,0,0,1,.13.31v12.39a.41.41,0,0,1-.12.3.37.37,0,0,1-.3.13Zm4.32-11.53a.44.44,0,0,1-.3-.11.42.42,0,0,1-.12-.31v-1a.42.42,0,0,1,.13-.31.38.38,0,0,1,.3-.14h1.11a.48.48,0,0,1,.45.45v1a.4.4,0,0,1-.14.31.46.46,0,0,1-.31.11Zm.16,11.53a.42.42,0,0,1-.31-.12.44.44,0,0,1-.11-.3V294.1a.46.46,0,0,1,.11-.31.42.42,0,0,1,.31-.12H124a.41.41,0,0,1,.3.13.42.42,0,0,1,.13.31v8.84a.43.43,0,0,1-.42.42Zm4.48,0a.42.42,0,0,1-.31-.12.44.44,0,0,1-.11-.3V294.1a.46.46,0,0,1,.11-.31.42.42,0,0,1,.31-.12h.8a.42.42,0,0,1,.31.11.41.41,0,0,1,.13.33v.81a4.05,4.05,0,0,1,1.3-1.06,4,4,0,0,1,1.83-.37,3.45,3.45,0,0,1,2.78,1.16,4.43,4.43,0,0,1,1,3v5.28a.41.41,0,0,1-.12.3.42.42,0,0,1-.31.13h-.86a.42.42,0,0,1-.31-.12.44.44,0,0,1-.11-.3v-5.17a3.08,3.08,0,0,0-.66-2.09,2.34,2.34,0,0,0-1.86-.75,2.51,2.51,0,0,0-1.92.77,2.92,2.92,0,0,0-.7,2.08v5.17a.41.41,0,0,1-.12.3.37.37,0,0,1-.3.13Zm14.69.19a4,4,0,0,1-3-1.19,4.87,4.87,0,0,1-1.25-3.23l0-.64,0-.61a4.83,4.83,0,0,1,1.25-3.2,4,4,0,0,1,3-1.2,4,4,0,0,1,3.17,1.31,5.23,5.23,0,0,1,1.13,3.55v.33a.42.42,0,0,1-.12.31.37.37,0,0,1-.3.13h-6.47v.16a3.44,3.44,0,0,0,.73,2.08,2.22,2.22,0,0,0,1.83.86,2.64,2.64,0,0,0,1.42-.34,3,3,0,0,0,.84-.72,1.21,1.21,0,0,1,.25-.28.8.8,0,0,1,.33,0H146a.48.48,0,0,1,.3.09.3.3,0,0,1,.13.25,1.64,1.64,0,0,1-.52,1,4.1,4.1,0,0,1-1.42,1A5,5,0,0,1,142.38,303.56Zm2.61-5.73v0a3.09,3.09,0,0,0-.72-2.12,2.59,2.59,0,0,0-3.8,0,3.18,3.18,0,0,0-.69,2.13v0Zm7.29,5.73a5,5,0,0,1-2.17-.42,3.8,3.8,0,0,1-1.33-1,1.64,1.64,0,0,1-.42-.91.33.33,0,0,1,.13-.28.48.48,0,0,1,.3-.11h.78a.28.28,0,0,1,.17,0,.69.69,0,0,1,.17.16,3.42,3.42,0,0,0,1,.83,2.91,2.91,0,0,0,1.42.3,3,3,0,0,0,1.61-.37,1.19,1.19,0,0,0,.61-1.08,1,1,0,0,0-.27-.75,2.09,2.09,0,0,0-.86-.5,16.09,16.09,0,0,0-1.8-.48,4.68,4.68,0,0,1-2.3-1,2.35,2.35,0,0,1-.67-1.73,2.45,2.45,0,0,1,.41-1.33,3.11,3.11,0,0,1,1.22-1,4.29,4.29,0,0,1,1.94-.41,4.66,4.66,0,0,1,2,.39,3.26,3.26,0,0,1,1.25.92,1.51,1.51,0,0,1,.42.88.36.36,0,0,1-.12.28.38.38,0,0,1-.28.11h-.7a.39.39,0,0,1-.37-.2,5.46,5.46,0,0,0-.53-.55,1.76,1.76,0,0,0-.62-.34,3.2,3.2,0,0,0-1-.14,2.17,2.17,0,0,0-1.39.39,1.22,1.22,0,0,0-.48,1,1,1,0,0,0,.2.66,1.86,1.86,0,0,0,.78.5,11.34,11.34,0,0,0,1.72.48,5.31,5.31,0,0,1,2.5,1.06,2.31,2.31,0,0,1,.73,1.77,2.53,2.53,0,0,1-.45,1.47,3,3,0,0,1-1.36,1A5.62,5.62,0,0,1,152.28,303.56Z" transform="translate(0 -79)"/><path class="cls-5" d="M118.43,257.17V171.91h20.82" transform="translate(0 -79)"/><path class="cls-4" d="M118.43,257.17V171.91h14.82" transform="translate(0 -79)"/><path class="cls-6" d="M133.24,173.56l4.54-1.65-4.54-1.65Z" transform="translate(0 -79)"/><path class="cls-3" d="M442.69,120.3h0a6.82,6.82,0,0,1,6.82-6.82h95.26a6.82,6.82,0,0,1,6.82,6.82v27.3a6.82,6.82,0,0,1-6.82,6.82H449.51a6.82,6.82,0,0,1-6.82-6.82Z" transform="translate(0 -79)"/><path class="cls-4" d="M442.69,120.3h0a6.82,6.82,0,0,1,6.82-6.82h95.26a6.82,6.82,0,0,1,6.82,6.82v27.3a6.82,6.82,0,0,1-6.82,6.82H449.51a6.82,6.82,0,0,1-6.82-6.82Z" transform="translate(0 -79)"/><path d="M458.64,140.75a.27.27,0,0,1-.2-.08.24.24,0,0,1-.08-.2v-8a.23.23,0,0,1,.08-.19.27.27,0,0,1,.2-.08h.5a.24.24,0,0,1,.2.08.23.23,0,0,1,.08.19V133a2.32,2.32,0,0,1,2-.92,2.24,2.24,0,0,1,1.88.8,3.28,3.28,0,0,1,.67,2,4,4,0,0,1,0,.41,3.69,3.69,0,0,1,0,.41,3.35,3.35,0,0,1-.67,2,2.57,2.57,0,0,1-3.83-.12v2.8a.27.27,0,0,1-.08.2.26.26,0,0,1-.19.08Zm2.53-3.09a1.45,1.45,0,0,0,1.25-.53,2.48,2.48,0,0,0,.44-1.42,3.11,3.11,0,0,0,0-.36q0-2.3-1.7-2.3a1.48,1.48,0,0,0-1.27.56,2.24,2.24,0,0,0-.45,1.31,4.54,4.54,0,0,0,0,.47q0,.33,0,.47a2.12,2.12,0,0,0,.47,1.27A1.53,1.53,0,0,0,461.18,137.65Zm4.58.81a.26.26,0,0,1-.19-.08.27.27,0,0,1-.08-.2v-5.67a.27.27,0,0,1,.08-.2.26.26,0,0,1,.19-.08h.52a.27.27,0,0,1,.28.28V133a1.79,1.79,0,0,1,1.67-.81h.47a.27.27,0,0,1,.27.27V133a.26.26,0,0,1-.08.19.23.23,0,0,1-.19.08H468a1.41,1.41,0,0,0-1,.39,1.45,1.45,0,0,0-.37,1v3.53a.27.27,0,0,1-.28.28Zm6.6.13a2.6,2.6,0,0,1-2-.77,3.21,3.21,0,0,1-.8-2.08l0-.41,0-.41a3.19,3.19,0,0,1,.8-2.06,2.6,2.6,0,0,1,2-.77,2.52,2.52,0,0,1,2,.84,3.32,3.32,0,0,1,.73,2.28v.2a.27.27,0,0,1-.08.2.26.26,0,0,1-.19.08h-4.17v.11a2.28,2.28,0,0,0,.47,1.34,1.47,1.47,0,0,0,1.19.55,1.67,1.67,0,0,0,.91-.22,2.31,2.31,0,0,0,.55-.47.64.64,0,0,1,.17-.17.48.48,0,0,1,.2,0h.53a.27.27,0,0,1,.17.06.17.17,0,0,1,.08.16,1.07,1.07,0,0,1-.33.64,2.73,2.73,0,0,1-.91.64A3.3,3.3,0,0,1,472.35,138.59ZM474,134.9v0a2,2,0,0,0-.45-1.37,1.52,1.52,0,0,0-1.22-.53,1.54,1.54,0,0,0-1.23.53,2.09,2.09,0,0,0-.44,1.38v0Zm2.85,5.84a.27.27,0,0,1-.2-.08.24.24,0,0,1-.08-.2v-8a.23.23,0,0,1,.08-.19.27.27,0,0,1,.2-.08h.5a.24.24,0,0,1,.2.08.23.23,0,0,1,.08.19V133a2.32,2.32,0,0,1,2-.92,2.24,2.24,0,0,1,1.88.8,3.28,3.28,0,0,1,.67,2,4,4,0,0,1,0,.41,3.69,3.69,0,0,1,0,.41,3.35,3.35,0,0,1-.67,2,2.57,2.57,0,0,1-3.83-.12v2.8a.27.27,0,0,1-.08.2.26.26,0,0,1-.19.08Zm2.53-3.09a1.45,1.45,0,0,0,1.25-.53,2.48,2.48,0,0,0,.44-1.42,3.11,3.11,0,0,0,0-.36q0-2.3-1.7-2.3a1.48,1.48,0,0,0-1.27.56,2.24,2.24,0,0,0-.45,1.31,4.54,4.54,0,0,0,0,.47q0,.33,0,.47a2.12,2.12,0,0,0,.47,1.27A1.53,1.53,0,0,0,479.4,137.65Zm4.58.81a.26.26,0,0,1-.19-.08.27.27,0,0,1-.08-.2v-5.67a.27.27,0,0,1,.08-.2.26.26,0,0,1,.19-.08h.52a.27.27,0,0,1,.28.28V133a1.79,1.79,0,0,1,1.67-.81h.47a.27.27,0,0,1,.27.27V133a.26.26,0,0,1-.08.19.23.23,0,0,1-.19.08h-.69a1.41,1.41,0,0,0-1,.39,1.45,1.45,0,0,0-.37,1v3.53a.27.27,0,0,1-.28.28Zm6.66.13a2.7,2.7,0,0,1-2-.75,3,3,0,0,1-.75-2l0-.52,0-.52a2.86,2.86,0,0,1,.77-2,2.71,2.71,0,0,1,2-.75,2.66,2.66,0,0,1,2,.75,2.82,2.82,0,0,1,.78,2q0,.27,0,.52t0,.52a2.92,2.92,0,0,1-.77,2A2.68,2.68,0,0,1,490.64,138.59Zm0-.91a1.54,1.54,0,0,0,1.2-.48,2.13,2.13,0,0,0,.5-1.39v-.92a2.13,2.13,0,0,0-.5-1.39,1.54,1.54,0,0,0-1.2-.48,1.61,1.61,0,0,0-1.23.48,2.12,2.12,0,0,0-.47,1.39l0,.45,0,.47a2.12,2.12,0,0,0,.47,1.39A1.61,1.61,0,0,0,490.64,137.69Zm6.82.91a2.7,2.7,0,0,1-2-.72,2.91,2.91,0,0,1-.75-2l0-.48,0-.47a2.85,2.85,0,0,1,.75-2,2.67,2.67,0,0,1,2-.73,3.13,3.13,0,0,1,1.47.31,2.1,2.1,0,0,1,.88.75,1.9,1.9,0,0,1,.33.92.2.2,0,0,1-.08.19.31.31,0,0,1-.2.08h-.53a.28.28,0,0,1-.17,0,.69.69,0,0,1-.12-.2,1.66,1.66,0,0,0-.59-.83,1.68,1.68,0,0,0-1-.25,1.6,1.6,0,0,0-1.2.47,2.13,2.13,0,0,0-.47,1.42l0,.42,0,.42a2.15,2.15,0,0,0,.47,1.44,1.6,1.6,0,0,0,1.2.47,1.64,1.64,0,0,0,1-.25,1.66,1.66,0,0,0,.59-.84.48.48,0,0,1,.13-.19.23.23,0,0,1,.17-.06h.53a.28.28,0,0,1,.2.09.2.2,0,0,1,.08.19,2,2,0,0,1-.33.91,2.2,2.2,0,0,1-.87.77A3.13,3.13,0,0,1,497.46,138.59Zm6.58,0a2.6,2.6,0,0,1-2-.77,3.21,3.21,0,0,1-.8-2.08l0-.41,0-.41a3.19,3.19,0,0,1,.8-2.06,2.6,2.6,0,0,1,2-.77,2.52,2.52,0,0,1,2,.84,3.32,3.32,0,0,1,.73,2.28v.2a.27.27,0,0,1-.08.2.26.26,0,0,1-.19.08h-4.17v.11a2.28,2.28,0,0,0,.47,1.34,1.47,1.47,0,0,0,1.19.55,1.67,1.67,0,0,0,.91-.22,2.31,2.31,0,0,0,.55-.47.64.64,0,0,1,.17-.17.48.48,0,0,1,.2,0h.53a.27.27,0,0,1,.17.06.17.17,0,0,1,.08.16,1.07,1.07,0,0,1-.33.64,2.73,2.73,0,0,1-.91.64A3.3,3.3,0,0,1,504,138.59Zm1.67-3.69v0a2,2,0,0,0-.45-1.37A1.52,1.52,0,0,0,504,133a1.54,1.54,0,0,0-1.23.53,2.09,2.09,0,0,0-.44,1.38v0Zm4.69,3.69a3.35,3.35,0,0,1-1.41-.27,2.54,2.54,0,0,1-.84-.62,1,1,0,0,1-.27-.58.23.23,0,0,1,.08-.19.34.34,0,0,1,.19-.06h.5a.15.15,0,0,1,.11,0,.38.38,0,0,1,.13.09,2,2,0,0,0,.61.53,2.37,2.37,0,0,0,2,0,.77.77,0,0,0,.39-.7.63.63,0,0,0-.17-.47,1.26,1.26,0,0,0-.55-.33,10.35,10.35,0,0,0-1.16-.31,3.14,3.14,0,0,1-1.48-.66,1.55,1.55,0,0,1-.42-1.12,1.52,1.52,0,0,1,.27-.84,1.84,1.84,0,0,1,.78-.67,2.67,2.67,0,0,1,1.23-.27,3,3,0,0,1,1.3.25,2.13,2.13,0,0,1,.8.59.94.94,0,0,1,.28.56.26.26,0,0,1-.08.19.29.29,0,0,1-.19.06H512a.27.27,0,0,1-.25-.14q-.2-.22-.34-.34a1,1,0,0,0-.39-.22,2,2,0,0,0-.67-.09,1.39,1.39,0,0,0-.89.25.8.8,0,0,0-.31.66.7.7,0,0,0,.13.42,1.33,1.33,0,0,0,.5.33,8.29,8.29,0,0,0,1.11.3,3.37,3.37,0,0,1,1.61.7,1.45,1.45,0,0,1,.48,1.13,1.59,1.59,0,0,1-.3.94,2,2,0,0,1-.87.67A3.7,3.7,0,0,1,510.41,138.59Zm6.1,0a3.35,3.35,0,0,1-1.41-.27,2.54,2.54,0,0,1-.84-.62,1,1,0,0,1-.27-.58.23.23,0,0,1,.08-.19.34.34,0,0,1,.19-.06h.5a.15.15,0,0,1,.11,0,.38.38,0,0,1,.13.09,2,2,0,0,0,.61.53,2.37,2.37,0,0,0,2,0,.77.77,0,0,0,.39-.7.63.63,0,0,0-.17-.47,1.26,1.26,0,0,0-.55-.33,10.35,10.35,0,0,0-1.16-.31,3.14,3.14,0,0,1-1.48-.66,1.55,1.55,0,0,1-.42-1.12,1.52,1.52,0,0,1,.27-.84,1.84,1.84,0,0,1,.78-.67,2.67,2.67,0,0,1,1.23-.27,3,3,0,0,1,1.3.25,2.13,2.13,0,0,1,.8.59.94.94,0,0,1,.28.56.26.26,0,0,1-.08.19.29.29,0,0,1-.19.06h-.45a.27.27,0,0,1-.25-.14q-.2-.22-.34-.34a1,1,0,0,0-.39-.22,2,2,0,0,0-.67-.09,1.39,1.39,0,0,0-.89.25.8.8,0,0,0-.31.66.7.7,0,0,0,.13.42,1.33,1.33,0,0,0,.5.33,8.29,8.29,0,0,0,1.11.3,3.37,3.37,0,0,1,1.61.7,1.45,1.45,0,0,1,.48,1.13,1.59,1.59,0,0,1-.3.94,2,2,0,0,1-.87.67A3.7,3.7,0,0,1,516.5,138.59Zm4.14-7.55a.27.27,0,0,1-.2-.08.26.26,0,0,1-.08-.19v-.62a.27.27,0,0,1,.08-.2.25.25,0,0,1,.2-.09h.7a.32.32,0,0,1,.3.3v.63a.24.24,0,0,1-.09.19.27.27,0,0,1-.2.08Zm.09,7.42a.26.26,0,0,1-.19-.08.27.27,0,0,1-.08-.2V132.5a.27.27,0,0,1,.27-.27h.53a.27.27,0,0,1,.2.08.26.26,0,0,1,.08.19v5.69a.27.27,0,0,1-.28.28Zm2.88,0a.26.26,0,0,1-.19-.08.27.27,0,0,1-.08-.2V132.5a.27.27,0,0,1,.27-.27h.52a.24.24,0,0,1,.2.08.23.23,0,0,1,.08.19V133a2.54,2.54,0,0,1,.83-.67,2.57,2.57,0,0,1,1.19-.25,2.21,2.21,0,0,1,1.78.73,2.87,2.87,0,0,1,.64,2v3.39a.27.27,0,0,1-.28.28H528a.27.27,0,0,1-.28-.28v-3.31a1.94,1.94,0,0,0-.42-1.34,1.46,1.46,0,0,0-1.19-.48,1.64,1.64,0,0,0-1.23.48,1.89,1.89,0,0,0-.45,1.34v3.31a.27.27,0,0,1-.08.2.26.26,0,0,1-.19.08Zm9.51,2.64a3.27,3.27,0,0,1-1.61-.34,2.11,2.11,0,0,1-.84-.77,1.57,1.57,0,0,1-.23-.73.27.27,0,0,1,.27-.27h.53a.28.28,0,0,1,.17,0,.42.42,0,0,1,.13.2,1.45,1.45,0,0,0,1.53,1,1.94,1.94,0,0,0,1.33-.39,1.7,1.7,0,0,0,.44-1.34v-.83a2.35,2.35,0,0,1-2,.89,2.28,2.28,0,0,1-1.91-.81,3.48,3.48,0,0,1-.66-2.06l0-.34,0-.33a3.41,3.41,0,0,1,.66-2,2.26,2.26,0,0,1,1.91-.83,2.33,2.33,0,0,1,2,.92v-.52a.27.27,0,0,1,.28-.28h.52a.27.27,0,0,1,.28.28v5.83A2.46,2.46,0,0,1,533.13,141.11Zm0-3.52a1.5,1.5,0,0,0,1.27-.55,2.33,2.33,0,0,0,.47-1.31v-.83a2.33,2.33,0,0,0-.47-1.31,1.5,1.5,0,0,0-1.27-.55,1.43,1.43,0,0,0-1.25.55,2.53,2.53,0,0,0-.42,1.41l0,.31,0,.33a2.53,2.53,0,0,0,.42,1.41A1.43,1.43,0,0,0,533.1,137.59Z" transform="translate(0 -79)"/><path class="cls-5" d="M228.89,171.91l213.8-38" transform="translate(0 -79)"/><path class="cls-4" d="M228.89,171.91,436.77,135" transform="translate(0 -79)"/><path class="cls-6" d="M437.06,136.63l4.18-2.42-4.76-.83Z" transform="translate(0 -79)"/><path class="cls-5" d="M551.6,133.95l158.14,65.76" transform="translate(0 -79)"/><path class="cls-4" d="M551.6,133.95l152.6,63.46" transform="translate(0 -79)"/><path class="cls-6" d="M703.57,198.93l4.82.22-3.56-3.27Z" transform="translate(0 -79)"/><path class="cls-5" d="M497.15,154.42,291,199.27" transform="translate(0 -79)"/><path class="cls-4" d="M497.15,154.42,296.9,198" transform="translate(0 -79)"/><path class="cls-6" d="M296.55,196.38,292.47,199l4.79.65Z" transform="translate(0 -79)"/></g><rect class="cls-1" x="57" width="957" height="460"/></g></g></svg>